<svg width="24" height="24" viewBox="0 0 24 24" fill="none" xmlns="http://www.w3.org/2000/svg">
<g clip-path="url(#clip0_3053_1909)">
<g clip-path="url(#clip1_3053_1909)">
<path d="M-3.90051 0H28.0995V24H-3.90051V0Z" fill="#000066"/>
<path d="M-3.90051 0H12.0995V12H-3.90051V0Z" fill="#012169"/>
<path d="M-2.02551 0L4.07449 4.525L10.1495 0H12.0995V1.55L6.09949 6.025L12.0995 10.475V12H10.0995L4.09949 7.525L-1.87551 12H-3.90051V10.5L2.07449 6.05L-3.90051 1.6V0H-2.02551Z" fill="white"/>
<path d="M6.69949 7.025L12.0995 11V12L5.32449 7.025H6.69949ZM2.09949 7.525L2.24949 8.4L-2.55051 12H-3.90051L2.09949 7.525ZM12.0995 0V0.075L5.87449 4.775L5.92449 3.675L10.8495 0H12.0995ZM-3.90051 0L2.07449 4.4H0.574487L-3.90051 1.05V0Z" fill="#C8102E"/>
<path d="M2.12449 0V12H6.12449V0H2.12449ZM-3.90051 4V8H12.0995V4H-3.90051Z" fill="white"/>
<path d="M-3.90051 4.825V7.225H12.0995V4.825H-3.90051ZM2.92449 0V12H5.32449V0H2.92449Z" fill="#C8102E"/>
<path d="M20.4692 9.54264V12.6585C20.4692 15.3607 19.1915 16.2881 17.4801 17.0221C15.7687 16.2881 14.4777 15.3607 14.4777 12.6585V9.53931H20.4692V9.54264Z" fill="white" stroke="white" stroke-width="0.31369" stroke-linejoin="round"/>
<path d="M12.6192 16.7687C12.7159 17.0223 13.4032 17.3592 14.2038 16.9289C14.7476 16.6219 15.0979 16.1949 15.4348 15.4276C15.5282 15.2341 15.5783 14.9939 15.3548 14.8505C15.1779 14.7204 14.8877 14.5769 14.7609 14.4502C14.6976 14.3834 14.6342 14.3367 14.5875 14.29C14.6208 14.3234 14.6508 14.3534 14.6809 14.4001C15.0011 14.7838 14.6675 15.3442 14.3139 15.6812C14.057 15.9214 13.5967 16.5119 12.9228 15.9514C12.7793 15.8246 12.4424 16.3517 12.6225 16.7687H12.6192ZM22.3405 16.7687C22.227 17.0223 21.5398 17.3592 20.7558 16.9289C20.2154 16.6219 19.8618 16.1949 19.5115 15.4276C19.4314 15.2341 19.3814 14.9939 19.6049 14.8505C19.7817 14.7204 20.0719 14.5769 20.1987 14.4502C20.2621 14.3834 20.3088 14.3367 20.3722 14.29C20.3388 14.3234 20.3088 14.3534 20.2788 14.4001C19.9585 14.7838 20.2921 15.3442 20.6291 15.6812C20.8859 15.9214 21.363 16.5119 22.0369 15.9514C22.1803 15.8246 22.5006 16.3517 22.3371 16.7687H22.3405Z" fill="#FCEA83" stroke="white" stroke-width="0.31369" stroke-linejoin="round"/>
<path d="M17.48 18.1433C18.7577 18.1433 20.726 17.5662 21.7835 15.5512C21.957 15.2176 21.7835 15.0408 21.5733 14.9307C21.3357 14.811 21.1194 14.6532 20.9328 14.4636C21.1897 14.7205 21.1396 14.8973 20.9662 15.1842C20.1488 16.5453 19.0313 17.2325 17.48 17.2325C15.9287 17.2325 14.8111 16.5453 13.9938 15.1842C13.8203 14.8973 13.7703 14.7205 14.0105 14.467C13.8267 14.6589 13.6097 14.816 13.37 14.9307C13.1631 15.0408 12.9863 15.2176 13.1631 15.5512C14.2173 17.5662 16.1989 18.1433 17.48 18.1433Z" fill="#FCEA83" stroke="white" stroke-width="0.31369" stroke-linejoin="round"/>
<path d="M14.5208 15.4404C14.4875 15.2802 14.284 15.3436 14.2206 15.5371C14.1343 15.4265 14.0583 15.3081 13.9937 15.1835C13.8036 14.8966 13.7702 14.7031 14.0438 14.4329C14.1706 14.3061 14.4274 14.1593 14.6009 14.3195C14.9679 14.623 14.7777 15.1201 14.5208 15.4404ZM20.4223 15.4404C20.4557 15.2802 20.6792 15.3436 20.7426 15.5371C20.8226 15.4237 20.9027 15.3136 20.9661 15.1835C21.1562 14.8966 21.1896 14.7031 20.8994 14.4329C20.7893 14.3061 20.5324 14.1593 20.3423 14.3195C19.9886 14.623 20.1654 15.1201 20.4223 15.4404ZM12.6193 16.7681C12.4592 16.5279 12.3324 15.9007 12.299 15.7439C12.2523 15.6005 12.2356 15.4704 12.4125 15.4103C12.5893 15.3436 12.7461 15.5671 12.8261 15.7606C12.9062 15.9508 13.0363 16.2377 13.1797 16.5913C12.8261 16.3845 12.5392 16.5246 12.6193 16.7681ZM22.3406 16.7681C22.484 16.5279 22.6108 15.9007 22.6608 15.7439C22.6942 15.6005 22.7242 15.4704 22.5474 15.4103C22.3706 15.3436 22.2138 15.5671 22.1337 15.7606C22.0536 15.9508 21.9235 16.2377 21.7801 16.5913C22.1337 16.3845 22.4039 16.5246 22.3406 16.7681Z" fill="#C8102E" stroke="white" stroke-width="0.31369" stroke-linejoin="round"/>
<path d="M16.2492 9.52592C16.0424 9.57262 15.8989 9.5893 15.7054 9.41249C15.5787 9.28572 15.6087 9.06221 15.7388 8.9788C15.8822 8.88539 16.009 8.82201 16.1858 8.86871C16.3626 8.91875 16.8263 9.34911 16.7129 9.36579C16.5995 9.36579 16.426 9.47588 16.2492 9.52592ZM16.7429 8.75862C16.8097 8.70858 16.8897 8.67856 17.0966 8.65854C17.2901 8.6452 17.4302 8.6452 17.4802 8.79198C17.5469 8.96546 17.5936 9.17229 17.7204 9.26904C17.6403 9.31574 17.24 9.36579 17.0966 9.28572C16.9064 9.18898 16.8564 8.81867 16.7463 8.75862H16.7429ZM18.1207 8.7753C18.1841 8.72526 18.2642 8.72526 18.471 8.74194C18.6779 8.75862 18.7579 8.7753 18.8046 8.91875C18.8547 9.07889 18.8046 9.28572 18.9047 9.42917C18.8046 9.46253 18.4877 9.46253 18.3743 9.34911C18.2008 9.22234 18.2141 8.85203 18.1207 8.77197V8.7753Z" fill="white" stroke="white" stroke-width="0.31369" stroke-linejoin="round"/>
<path d="M19.078 8.86853C18.9345 8.83517 18.8378 8.82183 18.7777 8.86853C18.8545 8.96528 18.7911 9.34893 18.9512 9.4757C19.0613 9.55576 19.3515 9.57578 19.4149 9.39563C19.495 9.2355 19.495 8.9953 19.0813 8.86853H19.078ZM17.4333 8.7084C17.48 8.6617 17.5768 8.64502 17.7669 8.64502C17.9771 8.64502 18.1005 8.67838 18.1672 8.80515C18.234 8.96528 18.214 9.17212 18.3274 9.30222C18.2807 9.36561 17.847 9.36561 17.7202 9.26886C17.5434 9.15544 17.5267 8.78847 17.4333 8.7084ZM16.0755 8.85185C16.0755 8.77179 16.1856 8.75845 16.4759 8.74176C16.7594 8.7084 16.7761 8.72508 16.8729 8.93192C16.9196 9.04535 16.9829 9.2355 17.1131 9.29889C16.7594 9.38229 16.646 9.42899 16.4559 9.31557C16.317 9.22871 16.2022 9.10823 16.1222 8.96528C16.1056 8.91858 16.1056 8.86853 16.0722 8.85185H16.0755Z" fill="#073163" stroke="white" stroke-width="0.31369" stroke-linejoin="round"/>
<path d="M16.1052 7.43168C15.9917 7.43168 15.8983 7.38497 15.8316 7.30491C15.7215 7.15812 15.4179 7.09474 15.2878 7.22484C15.2411 7.2582 15.1777 7.2582 15.131 7.27155C15.051 7.27155 14.9542 7.35161 14.9842 7.51174C15.051 7.4617 15.0643 7.51174 15.1143 7.51174C15.1477 7.49506 15.131 7.52842 15.131 7.55845C15.131 7.63851 15.3045 7.79864 15.4646 7.78196C15.6414 7.78196 15.7215 7.84869 15.7515 7.88205C15.8016 7.92541 15.7682 7.91207 15.8016 7.99214C15.8483 8.03884 15.865 8.05552 15.7849 8.11891C15.7485 8.14928 15.7192 8.18728 15.6991 8.23023C15.6789 8.27318 15.6685 8.32002 15.6685 8.36744C15.6685 8.41486 15.6789 8.46171 15.6991 8.50466C15.7192 8.5476 15.7485 8.58561 15.7849 8.61598C15.9917 8.77277 16.5188 9.0163 17.1126 8.54926C17.6864 8.10223 18.5805 8.3591 18.6472 8.5159C18.7273 8.67936 18.7573 8.77277 18.774 8.85284C18.7907 8.91956 18.8707 8.98294 18.9842 8.96626C19.0943 8.96626 19.221 9.01297 19.2844 9.06301C19.3678 9.10971 19.4779 9.09637 19.4479 8.94958C19.3812 8.50255 19.1109 8.43917 19.0809 8.23233C19.2377 8.24568 19.3478 8.24568 19.4145 8.18229C19.4612 8.11891 19.5246 8.00548 19.5913 7.97546C19.638 7.9421 19.638 7.90873 19.5746 7.92541C19.4946 7.9421 19.4479 7.97546 19.3011 7.95878C18.5672 7.87871 16.5055 7.31825 16.1052 7.43168Z" fill="#059334" stroke="white" stroke-width="0.31369" stroke-linejoin="round"/>
<path d="M19.3679 7.9756C19.246 8.06164 19.1418 8.17038 19.061 8.29586C18.9042 8.5027 18.4238 8.70953 17.83 8.70953C17.2562 8.70953 16.9059 8.61613 16.6491 8.40929C16.5394 8.3216 16.4209 8.24557 16.2954 8.18244C16.122 8.10237 16.0886 7.92556 16.1353 7.78211C16.0886 7.86218 16.0586 7.94224 15.9618 7.92556C15.8951 7.92556 15.7683 7.92556 15.8017 7.99228C15.785 7.95892 15.785 7.91222 15.7683 7.8922L15.735 7.86218C15.785 7.89554 15.8985 7.79879 15.9785 7.79879C16.0419 7.81547 16.122 7.73541 16.1053 7.63866L16.0586 7.43183C16.1854 7.36511 17.8634 7.67202 18.2003 7.70205C18.5339 7.71873 19.4947 7.86218 19.3679 7.9756Z" fill="black" stroke="white" stroke-width="0.31369" stroke-linejoin="round"/>
<path d="M16.3288 7.36837C16.4889 7.20824 16.679 7.12818 16.8725 7.17488H16.9192C17.0193 7.09482 17.2395 7.07814 17.3696 7.14152H17.433C17.6231 7.07814 17.9901 7.14152 18.1202 7.27163L18.1669 7.30499C18.6006 7.27163 18.8541 7.46178 19.1577 7.7687C19.1911 7.80206 19.2378 7.86211 19.3179 7.87879C19.4146 7.89547 19.4313 7.94551 19.3512 7.99222C19.223 8.07154 19.11 8.17324 19.0176 8.29246C18.8708 8.48595 18.4071 8.67944 17.83 8.67944C17.2729 8.67944 16.9359 8.57936 16.679 8.38921C16.5356 8.27912 16.4255 8.21573 16.3454 8.16569C16.2487 8.13233 16.1219 8.00556 16.1686 7.87879C16.202 7.75202 16.1219 7.59189 16.0585 7.43176C16.1052 7.3984 16.232 7.35169 16.2954 7.38505L16.3288 7.36837Z" fill="#059334" stroke="white" stroke-width="0.31369" stroke-linejoin="round"/>
<path d="M19.1575 7.76968C18.8573 7.46276 18.6004 7.27261 18.1667 7.30263C18.1667 7.31931 18.1667 7.36935 18.15 7.40271C18.4523 7.53834 18.7202 7.74014 18.934 7.99319C19.0007 7.92647 19.1108 7.84974 19.1575 7.76968ZM18.12 7.2726C17.9899 7.14583 17.6229 7.07911 17.4328 7.14584C17.4328 7.20922 17.4328 7.30597 17.3994 7.36935C17.5129 7.41606 17.6063 7.52948 17.703 7.63957C17.7697 7.62289 17.9265 7.57619 18.0066 7.55951C18.0544 7.46812 18.0924 7.37196 18.12 7.2726ZM17.3694 7.1425C17.2393 7.07911 17.0158 7.09579 16.919 7.17586C16.8857 7.24258 16.8723 7.36935 16.8723 7.43274C16.9391 7.43274 17.0325 7.47944 17.0625 7.5128C17.1626 7.47944 17.2893 7.41606 17.336 7.36935C17.3527 7.30263 17.3827 7.20922 17.3694 7.14584V7.1425ZM16.3286 7.36935C16.4887 7.20922 16.6788 7.12915 16.8723 7.17586C16.839 7.2259 16.8256 7.31931 16.8256 7.41606C16.6488 7.39937 16.4253 7.44942 16.3286 7.5128V7.36935Z" fill="#00493D" stroke="white" stroke-width="0.31369" stroke-linejoin="round"/>
<path d="M18.871 8.02302C18.67 7.78505 18.4195 7.59379 18.137 7.46256C18.137 7.47924 18.1037 7.54263 18.087 7.59267C18.1837 7.73612 18.3739 8.05638 18.454 8.23319C18.534 8.19983 18.7575 8.10308 18.871 8.02302ZM17.6566 8.37664C17.6843 8.1586 17.6999 7.9392 17.7033 7.71944C17.7834 7.70276 17.9435 7.65605 18.0069 7.63937C18.087 7.76948 18.2805 8.10642 18.3606 8.26322C18.1671 8.30992 17.8468 8.38999 17.6566 8.37664ZM17.0962 7.60935C17.1763 7.57599 17.2897 7.50927 17.3664 7.44922C17.4331 7.49592 17.5599 7.60935 17.6066 7.67273C17.6066 7.81618 17.5599 8.23319 17.5432 8.37331C17.4164 8.37331 17.2096 8.34328 17.0962 8.2799C17.1129 8.0397 17.1295 7.76948 17.0962 7.60935ZM16.2955 7.7995C16.3122 7.76614 16.3289 7.65605 16.3289 7.60935C16.4557 7.52928 16.7759 7.44922 17.0161 7.57599C17.0328 7.73612 17.0161 8.13645 16.9994 8.23319C16.7855 8.05919 16.55 7.91343 16.2989 7.7995H16.2955Z" fill="#00493D" stroke="white" stroke-width="0.31369" stroke-linejoin="round"/>
<path d="M15.4979 7.5082C15.4645 7.5082 15.4478 7.41479 15.3844 7.41479C15.3678 7.41479 15.3211 7.43148 15.3044 7.41479C15.3044 7.44816 15.3211 7.48152 15.3377 7.49486C15.3544 7.54157 15.4345 7.51154 15.4979 7.51154V7.5082Z" fill="black"/>
<path d="M15.4979 7.78173C15.6881 7.78173 15.7215 7.54153 15.8182 7.52819M15.608 7.79841C15.7515 7.86513 15.8649 7.52819 15.975 7.54153M15.3211 7.38474C15.3678 7.38474 15.4012 7.31802 15.4813 7.39808C15.5146 7.43144 15.5613 7.44812 15.5947 7.44812M15.5613 7.6216C15.4946 7.72168 15.3845 7.78173 15.3211 7.75171M15.2878 7.22461C15.2411 7.25797 15.211 7.31802 15.1777 7.36806M15.131 7.46147V7.54153" stroke="white" stroke-width="0.31369" stroke-linejoin="round"/>
<path d="M16.8427 7.22444C16.5058 6.96756 16.1054 6.72737 15.7385 6.68066C16.1214 6.93594 16.4849 7.21917 16.826 7.52802" fill="black"/>
<path d="M16.8427 7.22444C16.5058 6.96756 16.1054 6.72737 15.7385 6.68066C16.1214 6.93594 16.4849 7.21917 16.826 7.52802" stroke="white" stroke-width="0.31369" stroke-linejoin="round"/>
<path d="M17.033 6.98413C16.6327 6.71057 16.169 6.40699 15.7219 6.37697C16.1403 6.6194 16.5129 6.93329 16.8228 7.30439M17.5434 6.5371C17.724 6.12657 17.9915 5.76009 18.3274 5.46289C18.1672 5.79983 17.9938 6.48706 17.9104 6.76062" fill="black"/>
<path d="M17.033 6.98413C16.6327 6.71057 16.169 6.40699 15.7219 6.37697C16.1403 6.6194 16.5129 6.93329 16.8228 7.30439M17.5434 6.5371C17.724 6.12657 17.9915 5.76009 18.3274 5.46289C18.1672 5.79983 17.9938 6.48706 17.9104 6.76062" stroke="white" stroke-width="0.31369" stroke-linejoin="round"/>
<path d="M17.8969 6.45714C18.0515 6.08123 18.3422 5.77745 18.7109 5.60645C18.4339 5.95205 18.2276 6.3488 18.1037 6.77406" fill="black"/>
<path d="M17.8969 6.45714C18.0515 6.08123 18.3422 5.77745 18.7109 5.60645C18.4339 5.95205 18.2276 6.3488 18.1037 6.77406" stroke="white" stroke-width="0.31369" stroke-linejoin="round"/>
<path d="M18.0403 6.77392C18.3466 6.30506 18.7856 5.93806 19.3014 5.71973C18.901 6.12005 18.3106 6.85398 18.1671 7.14422M18.2639 7.12754C18.5508 6.96741 19.1279 6.71053 19.5416 6.79394C19.288 6.88735 18.5207 7.23763 18.1838 7.56123" fill="black"/>
<path d="M18.0403 6.77392C18.3466 6.30506 18.7856 5.93806 19.3014 5.71973C18.901 6.12005 18.3106 6.85398 18.1671 7.14422M18.2639 7.12754C18.5508 6.96741 19.1279 6.71053 19.5416 6.79394C19.288 6.88735 18.5207 7.23763 18.1838 7.56123" stroke="white" stroke-width="0.31369" stroke-linejoin="round"/>
<path d="M18.2005 7.01416C18.4708 6.72726 18.9678 6.29691 19.4949 6.1201C19.1113 6.48707 18.294 7.32108 18.1839 7.44785M17.4333 6.84069C17.2398 6.24687 16.9529 5.68975 16.5225 5.51294C16.8653 6.00301 17.1037 6.55826 17.2231 7.14427M17.063 6.82401C16.746 6.44036 16.3123 6.05672 15.8186 5.97665C16.3024 6.29325 16.6847 6.74267 16.9195 7.27104" fill="black"/>
<path d="M18.2005 7.01416C18.4708 6.72726 18.9678 6.29691 19.4949 6.1201C19.1113 6.48707 18.294 7.32108 18.1839 7.44785M17.4333 6.84069C17.2398 6.24687 16.9529 5.68975 16.5225 5.51294C16.8653 6.00301 17.1037 6.55826 17.2231 7.14427M17.063 6.82401C16.746 6.44036 16.3123 6.05672 15.8186 5.97665C16.3024 6.29325 16.6847 6.74267 16.9195 7.27104" stroke="white" stroke-width="0.31369" stroke-linejoin="round"/>
<path d="M17.2431 6.8077C16.8428 6.08711 16.5358 5.96034 16.3624 5.81689C16.5058 6.08711 16.8561 6.8077 17.0629 7.11128" fill="black"/>
<path d="M17.2431 6.8077C16.8428 6.08711 16.5358 5.96034 16.3624 5.81689C16.5058 6.08711 16.8561 6.8077 17.0629 7.11128" stroke="white" stroke-width="0.31369" stroke-linejoin="round"/>
<path d="M16.4424 6.76074C16.6705 6.90423 16.866 7.09403 17.0162 7.31786" stroke="white" stroke-width="0.31369" stroke-linejoin="round"/>
<path d="M16.4424 7.0944C16.5358 7.17447 16.7126 7.27121 16.8727 7.41466L16.4424 7.0944ZM18.3439 7.3346C18.5041 7.20783 18.8543 7.00099 19.0312 6.93427L18.3439 7.3346ZM18.2305 7.22451C18.3906 7.01434 18.7109 6.72744 18.8243 6.63069L18.2305 7.22451ZM18.6775 6.23036C18.4626 6.47128 18.2599 6.72292 18.0704 6.98431L18.6775 6.23036ZM18.2639 6.08691C18.1125 6.31087 17.9786 6.54621 17.8635 6.79082L18.2639 6.08691ZM16.9995 6.12027C17.0962 6.37715 17.2731 6.8075 17.3331 6.98431L16.9995 6.12027ZM16.8561 6.3905C16.9228 6.49058 17.0495 6.71076 17.0962 6.87089L16.8561 6.3905Z" fill="black"/>
<path d="M16.4424 7.0944C16.5358 7.17447 16.7126 7.27121 16.8727 7.41466M18.3439 7.3346C18.5041 7.20783 18.8543 7.00099 19.0312 6.93427M18.2305 7.22451C18.3906 7.01434 18.7109 6.72744 18.8243 6.63069M18.6775 6.23036C18.4626 6.47128 18.2599 6.72292 18.0704 6.98431M18.2639 6.08691C18.1125 6.31087 17.9786 6.54621 17.8635 6.79082M16.9995 6.12027C17.0962 6.37715 17.2731 6.8075 17.3331 6.98431M16.8561 6.3905C16.9228 6.49058 17.0495 6.71076 17.0962 6.87089" stroke="white" stroke-width="0.31369" stroke-linejoin="round"/>
<path d="M17.3996 6.31001C17.3996 6.16656 17.4963 6.00977 17.5931 6.00977C17.7032 6.00977 17.7832 6.19992 17.7832 6.31001C17.7832 6.44012 17.6865 6.55021 17.5931 6.55021C17.493 6.55021 17.3996 6.4568 17.3996 6.31001Z" fill="black" stroke="white" stroke-width="0.31369" stroke-linejoin="round"/>
<path d="M17.1927 6.4398C17.2093 6.27967 17.3194 6.1529 17.4162 6.16625C17.5129 6.18293 17.5596 6.37642 17.5429 6.48651C17.5263 6.61328 17.4162 6.71002 17.3361 6.69334C17.256 6.69334 17.176 6.58325 17.1927 6.4398ZM17.623 6.48651C17.5896 6.34306 17.6564 6.18626 17.7531 6.16625C17.8465 6.1529 17.9433 6.3097 17.9599 6.4398C17.9933 6.56657 17.9099 6.69334 17.8298 6.69334C17.7531 6.71002 17.6397 6.62996 17.623 6.48651Z" fill="black" stroke="white" stroke-width="0.31369" stroke-linejoin="round"/>
<path d="M17.3831 6.61323C17.3831 6.45644 17.4799 6.31299 17.5766 6.31299C17.6867 6.31299 17.7668 6.48646 17.7668 6.61323C17.7668 6.74334 17.6734 6.85343 17.5766 6.85343C17.4799 6.85343 17.3831 6.76002 17.3831 6.61323Z" fill="black" stroke="white" stroke-width="0.31369" stroke-linejoin="round"/>
<path d="M17.096 6.69346C17.096 6.55001 17.2094 6.39322 17.3028 6.39322C17.4029 6.39322 17.4963 6.58337 17.4963 6.69346C17.4963 6.82357 17.3829 6.93366 17.3028 6.93366C17.2094 6.93366 17.096 6.84025 17.096 6.69346ZM17.6865 6.63008C17.6865 6.48663 17.7866 6.32983 17.88 6.32983C17.9901 6.32983 18.0701 6.51999 18.0701 6.63008C18.0701 6.76018 17.9767 6.87027 17.88 6.87027C17.7832 6.87027 17.6865 6.77353 17.6865 6.63008Z" fill="black" stroke="white" stroke-width="0.31369" stroke-linejoin="round"/>
<path d="M17.623 6.76012C17.623 6.59999 17.7364 6.45654 17.8298 6.45654C17.9299 6.45654 18.0233 6.63002 18.0233 6.75679C18.0233 6.88689 17.9266 7.00032 17.8298 7.00032C17.7364 7.00032 17.623 6.90024 17.623 6.76012Z" fill="black" stroke="white" stroke-width="0.31369" stroke-linejoin="round"/>
<path d="M17.3697 6.90376C17.3697 6.74363 17.4632 6.60018 17.5599 6.60018C17.6733 6.60018 17.7534 6.79033 17.7534 6.90042C17.7534 7.03386 17.6533 7.14395 17.5599 7.14395C17.4632 7.14395 17.3664 7.04387 17.3664 6.90376H17.3697ZM16.9694 6.90376C16.9694 6.74363 17.0495 6.60018 17.1296 6.60018C17.2096 6.60018 17.273 6.79033 17.273 6.90042C17.273 7.03386 17.1929 7.14395 17.1296 7.14395C17.0495 7.14395 16.9694 7.04387 16.9694 6.90376ZM17.8635 6.87373C17.8635 6.72695 17.9435 6.5835 18.0236 6.5835C18.1037 6.5835 18.1837 6.76031 18.1837 6.8704C18.1837 7.01385 18.087 7.11059 18.0236 7.11059C17.9435 7.11059 17.8635 7.01385 17.8635 6.8704V6.87373Z" fill="black" stroke="white" stroke-width="0.31369" stroke-linejoin="round"/>
<path d="M17.9599 7.14026C17.9932 6.98347 18.0866 6.85336 18.15 6.87338C18.2168 6.88672 18.2301 7.07688 18.2001 7.1903C18.1834 7.33375 18.0866 7.41382 18.0233 7.39714C17.9565 7.38379 17.9265 7.27037 17.9565 7.1436L17.9599 7.14026Z" fill="black" stroke="white" stroke-width="0.31369" stroke-linejoin="round"/>
<path d="M17.6564 7.09357C17.6731 6.95012 17.7665 6.80667 17.8465 6.82335C17.9433 6.82335 17.99 7.0135 17.9766 7.12359C17.96 7.27038 17.8766 7.36712 17.7998 7.35044C17.7198 7.35044 17.6397 7.23702 17.6564 7.09357ZM17.2094 7.14027C17.1593 6.98348 17.0626 6.87339 16.9992 6.88673C16.9358 6.90341 16.9191 7.09357 16.9525 7.20699C16.9858 7.33376 17.0792 7.41383 17.1426 7.39715C17.1927 7.3838 17.2427 7.27038 17.2094 7.14361V7.14027Z" fill="black" stroke="white" stroke-width="0.31369" stroke-linejoin="round"/>
<path d="M17.096 7.11039C17.096 6.96694 17.1761 6.82349 17.2561 6.82349C17.3529 6.82349 17.4163 7.0003 17.4163 7.11039C17.4163 7.25384 17.3362 7.35058 17.2561 7.35058C17.1894 7.35058 17.096 7.25384 17.096 7.11039Z" fill="black" stroke="white" stroke-width="0.31369" stroke-linejoin="round"/>
<path d="M17.3364 7.17371C17.3364 7.01358 17.4331 6.87346 17.5265 6.87346C17.64 6.87346 17.72 7.04694 17.72 7.17371C17.72 7.30381 17.6233 7.4139 17.5265 7.4139C17.4331 7.4139 17.3364 7.31716 17.3364 7.17371ZM17.4165 5.41561C17.3831 5.54238 17.273 5.6558 17.3497 5.83261C17.2096 5.78257 17.0828 5.76589 16.9694 5.896C17.1129 5.87932 17.2396 5.92936 17.303 6.02277C17.1763 6.00609 17.1129 6.07281 17.0795 6.15287C17.1929 6.11951 17.303 6.08615 17.3531 6.10283C17.303 6.15287 17.223 6.2296 17.2096 6.29632C17.303 6.21626 17.4165 6.2296 17.4798 6.1829C17.4331 6.29632 17.5265 6.40641 17.6066 6.5165C17.5933 6.35971 17.6867 6.24962 17.64 6.16622C17.7834 6.19958 17.8001 6.32635 18.0069 6.32635C17.9269 6.27964 17.8802 6.11951 17.7834 6.11951C17.8301 6.10283 18.0236 6.08615 18.057 6.11951C18.0236 6.05279 17.9102 5.99274 17.8468 5.99274C17.9135 5.92602 18.0236 5.79925 18.1037 5.76589C17.9903 5.78257 17.8168 5.79925 17.7534 5.896C17.9102 5.76589 17.8802 5.52903 18.0536 5.49567C17.9602 5.47899 17.8168 5.54238 17.7034 5.6558C17.7534 5.55906 17.7534 5.43229 17.8168 5.39893C17.6867 5.43229 17.5432 5.59242 17.4965 5.67248C17.4896 5.5819 17.4622 5.49407 17.4165 5.41561Z" fill="black" stroke="white" stroke-width="0.31369" stroke-linejoin="round"/>
<path d="M17.4964 5.67244C17.4964 5.71915 17.4964 5.81589 17.4797 5.84592L17.4964 5.67244ZM17.7032 5.65576C17.6698 5.68912 17.6064 5.79921 17.6064 5.89596L17.7032 5.65576Z" fill="black"/>
<path d="M17.4964 5.67244C17.4964 5.71915 17.4964 5.81589 17.4797 5.84592M17.7032 5.65576C17.6698 5.68912 17.6064 5.79921 17.6064 5.89596" stroke="white" stroke-width="0.31369" stroke-linejoin="round"/>
<path d="M17.8001 5.84619C17.7451 5.87904 17.7046 5.93148 17.6867 5.99298" stroke="white" stroke-width="0.31369" stroke-linejoin="round"/>
<path d="M12.6192 16.7695C12.7159 17.023 13.4032 17.3599 14.2038 16.9296C14.7476 16.6227 15.0979 16.1957 15.4348 15.4284C15.5282 15.2349 15.5783 14.9947 15.3548 14.8512C15.1779 14.7211 14.8877 14.5777 14.7609 14.4509C14.6976 14.3842 14.6342 14.3375 14.5875 14.2908C14.6208 14.3241 14.6508 14.3542 14.6809 14.4009C15.0011 14.7845 14.6675 15.345 14.3139 15.6819C14.057 15.9221 13.5967 16.5126 12.9228 15.9521C12.7793 15.8254 12.4424 16.3525 12.6225 16.7695H12.6192ZM22.3405 16.7695C22.227 17.023 21.5398 17.3599 20.7558 16.9296C20.2154 16.6227 19.8618 16.1957 19.5115 15.4284C19.4314 15.2349 19.3814 14.9947 19.6049 14.8512C19.7817 14.7211 20.0719 14.5777 20.1987 14.4509C20.2621 14.3842 20.3088 14.3375 20.3722 14.2908C20.3388 14.3241 20.3088 14.3542 20.2788 14.4009C19.9585 14.7845 20.2921 15.345 20.6291 15.6819C20.8859 15.9221 21.363 16.5126 22.0369 15.9521C22.1803 15.8254 22.5006 16.3525 22.3371 16.7695H22.3405Z" fill="#FCEA83" stroke="black" stroke-width="0.0457464"/>
<path d="M17.48 18.144C18.7577 18.144 20.726 17.5669 21.7835 15.5519C21.957 15.2183 21.7835 15.0415 21.5733 14.9314C21.3357 14.8117 21.1194 14.654 20.9328 14.4644C21.1897 14.7212 21.1396 14.898 20.9662 15.1849C20.1488 16.5461 19.0313 17.2333 17.48 17.2333C15.9287 17.2333 14.8111 16.5461 13.9938 15.1849C13.8203 14.898 13.7703 14.7212 14.0105 14.4677C13.8267 14.6596 13.6097 14.8168 13.37 14.9314C13.1631 15.0415 12.9863 15.2183 13.1631 15.5519C14.2173 17.5669 16.1989 18.144 17.48 18.144Z" fill="#FCEA83" stroke="black" stroke-width="0.0457464"/>
<path d="M14.5208 15.4416C14.4875 15.2815 14.284 15.3448 14.2206 15.5383C14.1343 15.4277 14.0583 15.3093 13.9937 15.1847C13.8036 14.8978 13.7702 14.7043 14.0438 14.4341C14.1706 14.3073 14.4274 14.1605 14.6009 14.3207C14.9679 14.6243 14.7777 15.1213 14.5208 15.4416ZM20.4223 15.4416C20.4557 15.2815 20.6792 15.3448 20.7426 15.5383C20.8226 15.4249 20.9027 15.3148 20.9661 15.1847C21.1562 14.8978 21.1896 14.7043 20.8994 14.4341C20.7893 14.3073 20.5324 14.1605 20.3423 14.3207C19.9886 14.6243 20.1654 15.1213 20.4223 15.4416ZM12.6193 16.7693C12.4592 16.5291 12.3324 15.902 12.299 15.7452C12.2523 15.6017 12.2356 15.4716 12.4125 15.4116C12.5893 15.3448 12.7461 15.5684 12.8261 15.7618C12.9062 15.952 13.0363 16.2389 13.1797 16.5925C12.8261 16.3857 12.5392 16.5258 12.6193 16.7693ZM22.3406 16.7693C22.484 16.5291 22.6108 15.902 22.6608 15.7452C22.6942 15.6017 22.7242 15.4716 22.5474 15.4116C22.3706 15.3448 22.2138 15.5684 22.1337 15.7618C22.0536 15.952 21.9235 16.2389 21.7801 16.5925C22.1337 16.3857 22.4039 16.5258 22.3406 16.7693Z" fill="#C8102E" stroke="black" stroke-width="0.0457464"/>
<path d="M13.5467 15.3294L13.4199 15.3961C13.3865 15.4095 13.3865 15.4428 13.3865 15.4595H13.3698L13.3065 15.316H13.3231C13.3231 15.3294 13.3398 15.3494 13.3698 15.3294L13.6434 15.1859C13.6768 15.1693 13.6768 15.1526 13.6601 15.1392L13.6734 15.1226L13.7535 15.2827H13.7401C13.7235 15.266 13.7068 15.2493 13.6734 15.266L13.5633 15.3327L13.61 15.4261L13.7401 15.3794C13.7735 15.3628 13.7535 15.3294 13.7535 15.3127H13.7702L13.8369 15.4595C13.8202 15.4428 13.8035 15.4261 13.7702 15.4428L13.4999 15.5863C13.4666 15.6029 13.4666 15.6196 13.4833 15.633L13.4666 15.6497L13.3865 15.5062L13.4032 15.4895C13.4199 15.5062 13.4366 15.5229 13.4699 15.5062L13.5967 15.4395L13.5467 15.3294ZM13.8202 15.5396C13.8536 15.5229 13.8536 15.5062 13.8336 15.4728H13.8502L14.0104 15.713L13.9003 15.7931V15.7798C13.9637 15.7297 13.9637 15.6663 13.947 15.6497C13.9303 15.633 13.9136 15.6163 13.9136 15.6029C13.9003 15.6029 13.9003 15.5863 13.8669 15.6196L13.7535 15.6997C13.7702 15.713 13.7868 15.7631 13.8669 15.713H13.8836L13.7068 15.8431V15.8265C13.7868 15.7597 13.7535 15.713 13.7401 15.6997L13.6267 15.7798C13.5934 15.7931 13.5934 15.8131 13.5934 15.8265C13.61 15.8265 13.61 15.8431 13.6267 15.8598C13.6434 15.8932 13.6934 15.9232 13.7702 15.8932L13.7868 15.9065L13.6601 15.9532L13.4999 15.6997H13.5166C13.53 15.713 13.55 15.7331 13.58 15.713L13.8202 15.5396ZM14.0737 16.1467L13.9637 16.2401C13.947 16.2568 13.947 16.2902 13.9637 16.3069H13.947L13.8336 16.1934L13.8502 16.1768C13.8669 16.1934 13.8836 16.2101 13.917 16.1768L14.1238 15.9699C14.1572 15.9532 14.1572 15.9366 14.1371 15.9032L14.2506 16.0366C14.2339 16.0166 14.2039 16.0166 14.1838 16.0366L14.0904 16.13L14.1705 16.2101L14.2672 16.13C14.3006 16.0967 14.2839 16.0833 14.2672 16.0633L14.2839 16.05L14.394 16.1768H14.3773C14.364 16.1768 14.344 16.1634 14.3139 16.1934L14.1071 16.3869C14.0737 16.4203 14.0737 16.4336 14.0904 16.4503V16.467L13.9803 16.3369C13.9937 16.3369 14.027 16.3536 14.0437 16.3369L14.1538 16.2268L14.0737 16.1467ZM14.3139 16.4837L14.364 16.5304L14.4274 16.3869C14.4274 16.3869 14.3773 16.4003 14.2973 16.4503L14.3139 16.4837L14.2973 16.497L14.2639 16.4637C14.2506 16.4803 14.2339 16.4803 14.2172 16.497C14.1705 16.5304 14.1838 16.5471 14.2039 16.5637V16.5771L14.1238 16.497H14.1371L14.2039 16.4803L14.5208 16.3069L14.5375 16.3202C14.5375 16.3202 14.5208 16.3369 14.3773 16.6571C14.3773 16.6905 14.364 16.7038 14.3773 16.7372L14.2506 16.6271L14.2672 16.6104C14.2839 16.6438 14.3139 16.6438 14.3306 16.6104C14.3306 16.5938 14.3473 16.5604 14.3473 16.5437L14.2973 16.497L14.3139 16.4803V16.4837ZM14.4407 16.8006L14.4574 16.7839C14.4741 16.8006 14.4908 16.8006 14.5241 16.7839L14.731 16.5137L14.7143 16.497C14.6809 16.4803 14.6342 16.4803 14.5875 16.5304V16.5137L14.6509 16.4336L14.8911 16.6104L14.811 16.7038H14.7943C14.841 16.6571 14.8277 16.5938 14.7943 16.5771V16.5604L14.5875 16.834C14.5541 16.8506 14.5708 16.8807 14.5875 16.8973H14.5708L14.4407 16.8006Z" fill="#00493D"/>
<path d="M14.8579 16.8634L14.7778 16.9768C14.7612 17.0102 14.7778 17.0235 14.7945 17.0436L14.7778 17.0569L14.6511 16.9601V16.9435C14.6844 16.9601 14.6978 16.9601 14.7144 16.9301L14.8913 16.6899C14.9046 16.6566 14.8913 16.6399 14.8746 16.6232L14.8913 16.6099L15.018 16.7033V16.72C14.9847 16.7033 14.9713 16.7033 14.9513 16.7366L14.8746 16.8501L14.9713 16.9134L15.0514 16.8C15.0647 16.7667 15.0514 16.7533 15.0347 16.7366L15.0514 16.72L15.1782 16.8167V16.8334C15.1615 16.8167 15.1315 16.8167 15.1114 16.8501L14.9546 17.1036C14.9213 17.1203 14.938 17.137 14.9546 17.1536V17.167L14.8112 17.0736H14.8279C14.8412 17.0736 14.8612 17.0736 14.8746 17.0569L14.9546 16.9301L14.8579 16.8634ZM15.1782 17.3138L15.1948 17.2971C15.2115 17.3138 15.2415 17.3138 15.2582 17.2804L15.385 17.0102C15.4017 16.9768 15.385 16.9601 15.3683 16.9435L15.6419 17.0736L15.5751 17.2003L15.5618 17.1837C15.6085 17.1203 15.5618 17.0569 15.5451 17.0402C15.5284 17.0402 15.5118 17.0235 15.4984 17.0235C15.4817 17.0235 15.4817 17.0235 15.4651 17.0569C15.4484 17.0736 15.4017 17.167 15.4017 17.167C15.4184 17.1837 15.4484 17.217 15.5151 17.1336H15.5284L15.435 17.3271L15.4184 17.3138C15.4651 17.2137 15.4017 17.2003 15.385 17.2003L15.3216 17.3271C15.3049 17.3605 15.3216 17.3772 15.3383 17.3772V17.3938L15.1782 17.3138ZM15.6419 17.5373C15.5952 17.5039 15.5952 17.4072 15.6419 17.3138C15.6752 17.2137 15.7386 17.137 15.802 17.167C15.8487 17.1837 15.8354 17.2804 15.802 17.3772C15.752 17.4872 15.6886 17.5506 15.6419 17.5373H15.6252C15.7386 17.584 15.8187 17.5206 15.8654 17.4072C15.9121 17.3138 15.8987 17.2003 15.7987 17.1536C15.7053 17.1036 15.6085 17.167 15.5618 17.2804C15.5151 17.3938 15.5284 17.5039 15.6285 17.5373H15.6419ZM16.1356 17.5673L16.2023 17.3772C16.2157 17.3438 16.2023 17.3271 16.1856 17.3104L16.2657 17.3271V17.3438C16.249 17.3438 16.2324 17.3438 16.2157 17.3772L16.1523 17.5673C16.1189 17.6474 16.0722 17.7108 15.9788 17.6807C15.9121 17.6641 15.8654 17.584 15.8987 17.5039L15.9788 17.2971C15.9922 17.2637 15.9788 17.247 15.9621 17.2304V17.217L16.1056 17.2804V17.2971C16.0889 17.2804 16.0589 17.2804 16.0589 17.3138L15.9755 17.5173C15.9588 17.5807 15.9588 17.644 16.0088 17.6607C16.0555 17.6774 16.1022 17.644 16.1323 17.564L16.1356 17.5673ZM16.2824 17.3605C16.2824 17.3438 16.2824 17.3438 16.2657 17.3438L16.3758 17.3605L16.4759 17.6641L16.5226 17.4706C16.5359 17.4372 16.5226 17.4239 16.5059 17.4072L16.5993 17.4239L16.586 17.4405C16.5693 17.4405 16.5526 17.4405 16.5359 17.4739L16.4559 17.8242H16.4425L16.3124 17.4405L16.2324 17.6974C16.2324 17.7441 16.249 17.7441 16.2657 17.7608V17.7775L16.169 17.7441V17.7274C16.1856 17.7441 16.2157 17.7274 16.2157 17.6941L16.2957 17.4072L16.2824 17.3605ZM16.8262 17.6807C16.7928 17.8242 16.7261 17.8575 16.6961 17.8575H16.6627C16.6627 17.8575 16.6494 17.8409 16.6627 17.8242L16.7127 17.5039C16.7294 17.4872 16.7294 17.4706 16.7461 17.4872H16.7795C16.8095 17.4872 16.8395 17.554 16.8262 17.6807L16.8729 17.6974C16.9062 17.5373 16.8395 17.4706 16.7594 17.4572C16.6961 17.4405 16.5993 17.4239 16.5993 17.4239V17.4405C16.616 17.4572 16.6494 17.4572 16.6327 17.5073L16.586 17.7908C16.5693 17.8242 16.5526 17.8409 16.5359 17.8409H16.5226L16.6794 17.8742C16.7594 17.8876 16.8395 17.8742 16.8729 17.6974L16.8262 17.6807ZM16.9696 17.5506C16.9696 17.5173 16.9363 17.5039 16.9196 17.5039V17.4872L17.2098 17.5206L17.1931 17.6474C17.1931 17.5673 17.1431 17.5373 17.1131 17.5373C17.0964 17.5206 17.0797 17.5206 17.063 17.5206C17.0497 17.5206 17.0497 17.5206 17.0497 17.5673L17.033 17.6974C17.0497 17.6974 17.0964 17.7108 17.1297 17.6174L17.1131 17.8242H17.0964C17.0964 17.7274 17.0497 17.7274 17.0297 17.7274L17.0163 17.8709C17.0163 17.9043 17.0163 17.9043 17.033 17.9043L17.0664 17.9209C17.1131 17.9209 17.1598 17.9043 17.1931 17.8075H17.2098L17.1765 17.9343L16.8729 17.9009C16.9062 17.9009 16.9196 17.8876 16.9396 17.8575L16.9696 17.5506ZM17.4967 17.7441C17.4967 17.8876 17.4467 17.9343 17.4 17.9343C17.3833 17.9209 17.3833 17.9209 17.3666 17.9209L17.3533 17.9043L17.3699 17.5706C17.3699 17.5506 17.3699 17.5506 17.3833 17.5506H17.4167C17.45 17.5506 17.4967 17.6007 17.4967 17.7441H17.5601C17.5601 17.584 17.48 17.5373 17.4 17.5373C17.3332 17.5206 17.2398 17.5206 17.2398 17.5206V17.5373C17.2565 17.5373 17.2899 17.5506 17.2899 17.584L17.2732 17.8876C17.2732 17.9209 17.2565 17.9343 17.2398 17.9343V17.951H17.3833C17.4634 17.951 17.5434 17.9176 17.5601 17.7441H17.4934H17.4967ZM17.9604 17.8709C17.9604 17.9043 17.9771 17.9043 18.0071 17.9043V17.9209L17.8303 17.9343C17.847 17.9209 17.8804 17.9009 17.8804 17.8709L17.847 17.5706C17.8303 17.5373 17.8136 17.5373 17.7836 17.5373V17.5206L17.9604 17.5039C17.9437 17.5206 17.9104 17.5373 17.9271 17.5706L17.9604 17.8709ZM18.1206 17.9043V17.8876C18.1372 17.8876 18.1539 17.8709 18.1539 17.8409L18.0872 17.5073H18.0705C18.0372 17.5206 18.0071 17.5506 18.0238 17.6174H18.0071L17.9905 17.5039L18.2807 17.4572L18.294 17.5673H18.2807C18.2807 17.5039 18.2306 17.4872 18.1806 17.4872H18.1673L18.234 17.8209C18.234 17.8542 18.2473 17.8709 18.2807 17.8709V17.8876L18.1206 17.9043ZM18.8078 17.584L18.7411 17.3938C18.7411 17.3605 18.711 17.3605 18.6944 17.3605V17.3438L18.7744 17.3104V17.3271C18.7577 17.3438 18.7577 17.3438 18.7577 17.3772L18.8245 17.584C18.8378 17.6507 18.8378 17.7441 18.7444 17.7775C18.6777 17.7908 18.601 17.7608 18.5843 17.6641L18.5175 17.4572C18.5042 17.4239 18.4875 17.4239 18.4708 17.4239L18.4542 17.4072L18.6143 17.3605V17.3772C18.6009 17.3938 18.5809 17.4105 18.601 17.4405L18.6477 17.6474C18.6643 17.7141 18.7144 17.7441 18.7577 17.7441C18.8078 17.7274 18.8245 17.6641 18.8078 17.584ZM18.9846 17.4706C19.0613 17.4372 19.048 17.3938 19.0313 17.3438C19.0146 17.2971 18.9846 17.2637 18.9512 17.2804C18.9346 17.2804 18.9179 17.2971 18.9346 17.3138L18.9846 17.4706L18.9979 17.4872L19.0313 17.6174C19.048 17.6507 19.078 17.6507 19.098 17.6307V17.6474L18.9512 17.7141L18.9346 17.6974C18.9679 17.6807 18.9679 17.6641 18.9679 17.6307L18.8545 17.3605C18.8378 17.3138 18.8211 17.3271 18.7911 17.3271V17.3138L18.9512 17.247C19.018 17.2337 19.078 17.247 19.1114 17.3138C19.128 17.3938 19.0947 17.4405 19.0313 17.4739C19.0146 17.4739 18.9979 17.4872 18.9979 17.4872L18.9846 17.4706Z" fill="#00493D"/>
<path d="M19.3815 17.5178C19.3347 17.5378 19.2714 17.4711 19.2213 17.361C19.1746 17.2642 19.1746 17.1675 19.2213 17.1541C19.2714 17.1375 19.3347 17.2008 19.3815 17.2976C19.4315 17.3943 19.4315 17.4877 19.3815 17.5211C19.4815 17.4877 19.5116 17.3776 19.4615 17.2642C19.4148 17.1675 19.3181 17.1041 19.2213 17.1375C19.1989 17.1487 19.1789 17.1644 19.1627 17.1835C19.1464 17.2027 19.1342 17.2249 19.1267 17.2489C19.1192 17.2729 19.1167 17.2981 19.1192 17.3231C19.1217 17.3481 19.1292 17.3723 19.1413 17.3943C19.1913 17.5044 19.288 17.5678 19.3815 17.5211V17.5178ZM19.3981 17.0741H19.3681L19.4615 17.0073L19.7518 17.1675L19.6517 16.994C19.6383 16.9606 19.605 16.9606 19.5916 16.9606V16.944L19.6717 16.9106C19.655 16.9306 19.6383 16.944 19.6717 16.9773L19.8318 17.2976L19.8151 17.3143L19.4615 17.1208L19.5916 17.361C19.605 17.3943 19.6383 17.3943 19.655 17.3776V17.3943L19.5749 17.441V17.4244C19.5916 17.4077 19.5916 17.391 19.5749 17.361L19.4482 17.1041L19.3981 17.0707V17.0741ZM20.1187 17.1208V17.1041C20.1187 17.0874 20.1354 17.0707 20.1187 17.0407L19.9252 16.7705H19.9086C19.8752 16.7838 19.8618 16.8506 19.9086 16.8973L19.8952 16.9139L19.8285 16.8005L20.0687 16.6404L20.1354 16.7405C20.0854 16.6904 20.0353 16.6904 20.0053 16.7071L19.9886 16.7204L20.1821 16.994C20.1988 17.0274 20.2288 17.0274 20.2488 17.0107V17.024L20.1187 17.1208Z" fill="#00493D"/>
<path d="M20.2956 16.737L20.389 16.8505C20.4057 16.8638 20.4391 16.8638 20.4558 16.8505V16.8638L20.3257 16.9772V16.9606C20.3423 16.9439 20.3423 16.9272 20.3257 16.8972L20.1355 16.657C20.1188 16.6236 20.1021 16.6403 20.0688 16.6403L20.1989 16.5302V16.5469C20.1989 16.5602 20.1822 16.5802 20.1989 16.6103L20.279 16.7037L20.3724 16.6403L20.2956 16.5302C20.279 16.4968 20.2456 16.5135 20.2289 16.5135L20.359 16.4001V16.4168C20.3423 16.4335 20.3423 16.4501 20.359 16.4835L20.5492 16.7204C20.5659 16.737 20.5825 16.737 20.5992 16.7204L20.6126 16.737L20.4858 16.8505L20.4691 16.8338C20.4858 16.8171 20.5025 16.8004 20.4858 16.7671L20.389 16.657L20.2956 16.737ZM20.4391 16.4001C20.4224 16.3868 20.389 16.3868 20.3724 16.4001V16.3868L20.5825 16.1933L20.6793 16.29H20.6626C20.6126 16.2233 20.5492 16.2566 20.5192 16.2733C20.5192 16.29 20.5025 16.29 20.4858 16.3067C20.4858 16.3067 20.4858 16.32 20.5025 16.3534L20.5992 16.4501C20.6126 16.4335 20.6626 16.4001 20.5992 16.32H20.6126L20.7427 16.4668V16.4802C20.6626 16.4001 20.6292 16.4468 20.6126 16.4668L20.7126 16.5602C20.726 16.5936 20.7427 16.5936 20.7427 16.5936L20.7894 16.5469C20.8061 16.5302 20.8227 16.4802 20.7894 16.3868H20.8061L20.8694 16.4968L20.6626 16.7037L20.6459 16.6903C20.6626 16.6737 20.6793 16.657 20.6459 16.6236L20.4391 16.4001ZM20.8227 15.9531C20.8061 15.9697 20.8061 16.0031 20.8361 16.0198C20.8694 16.0498 20.9028 16.0498 20.9662 16.0198C20.9995 16.0031 21.0596 15.9864 21.1096 16.0331C21.1897 16.1132 21.1563 16.1766 21.143 16.2099C21.1263 16.2266 21.093 16.2433 21.0763 16.2566C21.0596 16.2566 21.0596 16.2566 21.0596 16.2733V16.29L20.9495 16.1933H20.9662C21.0296 16.2266 21.093 16.24 21.1263 16.1933C21.1597 16.1599 21.1263 16.1265 21.1096 16.1132C21.0763 16.0798 21.0429 16.0798 20.9962 16.1132C20.9495 16.1299 20.8861 16.1299 20.8361 16.0965C20.7727 16.0331 20.7727 15.9864 20.8027 15.9364L20.8694 15.8897C20.8861 15.8897 20.8861 15.8897 20.8694 15.8563L20.9829 15.9364H20.9662C20.8861 15.903 20.8361 15.923 20.8227 15.9531ZM20.9662 15.8263C20.9328 15.8096 20.9161 15.8263 20.8995 15.843H20.8861L21.0629 15.5861L21.173 15.6662L21.1563 15.6828C21.1364 15.6657 21.1109 15.6563 21.0846 15.6563C21.0583 15.6563 21.0329 15.6657 21.0129 15.6828C21.0129 15.6995 20.9962 15.7162 20.9962 15.7296C20.9829 15.7296 20.9829 15.7462 21.0129 15.7629C21.0296 15.7796 21.1263 15.843 21.1263 15.843C21.143 15.8263 21.173 15.7929 21.1096 15.7296V15.7129L21.2698 15.843C21.173 15.7929 21.1563 15.843 21.143 15.8563L21.2531 15.9364C21.2864 15.9531 21.2998 15.9531 21.2998 15.9531C21.2998 15.9364 21.3165 15.9197 21.3331 15.9064C21.3498 15.873 21.3665 15.8263 21.2998 15.7629L21.3165 15.7462L21.3965 15.843L21.2364 16.0832H21.2197C21.2364 16.0498 21.2364 16.0331 21.2064 16.0031L20.9662 15.8263ZM21.3965 15.5394L21.3498 15.6195C21.2831 15.5527 21.2531 15.506 21.2531 15.506L21.3965 15.5394H21.4299C21.4466 15.5394 21.4766 15.5527 21.4933 15.5527C21.54 15.5694 21.5266 15.5861 21.51 15.6195H21.5266L21.6067 15.4727C21.5733 15.506 21.5567 15.4894 21.5266 15.4894C21.1897 15.426 21.1597 15.4093 21.1597 15.4093V15.426L21.4132 15.7129C21.4299 15.7296 21.4299 15.7629 21.4299 15.7796H21.4466L21.4933 15.6995L21.4766 15.6828C21.4599 15.7162 21.4432 15.7296 21.4132 15.6828L21.3799 15.6495L21.4299 15.5394H21.3965ZM21.2998 15.1858C21.2864 15.2025 21.2864 15.2358 21.3331 15.2525C21.3799 15.2658 21.3999 15.2525 21.4466 15.2191C21.4933 15.1858 21.54 15.1524 21.6034 15.1858C21.7035 15.2358 21.6834 15.3159 21.6701 15.3459L21.62 15.4126V15.4426L21.4933 15.3759C21.5733 15.3926 21.6367 15.3759 21.6534 15.3292C21.6701 15.2959 21.6367 15.2658 21.62 15.2492C21.5867 15.2358 21.5567 15.2492 21.51 15.2825C21.4599 15.3292 21.4099 15.3492 21.3498 15.3159C21.2831 15.2825 21.2531 15.2358 21.2831 15.1858C21.2831 15.1524 21.3165 15.1391 21.3331 15.1224C21.3331 15.1057 21.3331 15.1057 21.3165 15.089V15.0757L21.4466 15.1391H21.4299C21.3498 15.1224 21.2998 15.1557 21.2998 15.1858Z" fill="#00493D"/>
<path d="M16.2493 9.52592C16.0424 9.57262 15.899 9.5893 15.7055 9.41249C15.5787 9.28572 15.6087 9.06221 15.7389 8.9788C15.8823 8.88539 16.0091 8.82201 16.1859 8.86871C16.3627 8.91875 16.8264 9.34911 16.713 9.36579C16.5996 9.36579 16.4261 9.47588 16.2493 9.52592ZM16.743 8.75862C16.8097 8.70858 16.8898 8.67856 17.0966 8.65854C17.2901 8.6452 17.4302 8.6452 17.4803 8.79198C17.547 8.96546 17.5937 9.17229 17.7205 9.26904C17.6404 9.31574 17.2401 9.36579 17.0966 9.28572C16.9065 9.18898 16.8564 8.81867 16.7463 8.75862H16.743ZM18.1208 8.7753C18.1842 8.72526 18.2642 8.72526 18.4711 8.74194C18.6779 8.75862 18.758 8.7753 18.8047 8.91875C18.8547 9.07889 18.8047 9.28572 18.9048 9.42917C18.8047 9.46253 18.4878 9.46253 18.3743 9.34911C18.2009 9.22234 18.2142 8.85203 18.1208 8.77197V8.7753Z" fill="white" stroke="black" stroke-width="0.0457464"/>
<path d="M19.078 8.86853C18.9346 8.83517 18.8379 8.82183 18.7778 8.86853C18.8545 8.96528 18.7911 9.34893 18.9513 9.4757C19.0614 9.55576 19.3516 9.57578 19.415 9.39563C19.4951 9.2355 19.4951 8.9953 19.0814 8.86853H19.078ZM17.4334 8.7084C17.4801 8.6617 17.5768 8.64502 17.767 8.64502C17.9772 8.64502 18.1006 8.67838 18.1673 8.80515C18.234 8.96528 18.214 9.17212 18.3274 9.30222C18.2807 9.36561 17.847 9.36561 17.7203 9.26886C17.5435 9.15544 17.5268 8.78847 17.4334 8.7084ZM16.0756 8.85185C16.0756 8.77179 16.1857 8.75845 16.4759 8.74176C16.7595 8.7084 16.7762 8.72508 16.8729 8.93192C16.9196 9.04535 16.983 9.2355 17.1131 9.29889C16.7595 9.38229 16.6461 9.42899 16.4559 9.31557C16.317 9.22871 16.2023 9.10823 16.1223 8.96528C16.1056 8.91858 16.1056 8.86853 16.0723 8.85185H16.0756Z" fill="#073163" stroke="black" stroke-width="0.0457464"/>
<path d="M16.8429 7.22395C16.5059 6.96708 16.1056 6.72688 15.7386 6.68018C16.1215 6.93545 16.4851 7.21868 16.8262 7.52753" fill="#F9D050"/>
<path d="M16.8429 7.22395C16.5059 6.96708 16.1056 6.72688 15.7386 6.68018C16.1215 6.93545 16.4851 7.21868 16.8262 7.52753" stroke="black" stroke-width="0.0196056"/>
<path d="M17.0332 6.98364C16.6328 6.71009 16.1691 6.40651 15.7221 6.37648C16.1405 6.61891 16.5131 6.9328 16.823 7.3039M17.5436 6.53661C17.7242 6.12609 17.9917 5.7596 18.3276 5.4624C18.1674 5.79934 17.994 6.48657 17.9106 6.76013" fill="#F9D050"/>
<path d="M17.0332 6.98364C16.6328 6.71009 16.1691 6.40651 15.7221 6.37648C16.1405 6.61891 16.5131 6.9328 16.823 7.3039M17.5436 6.53661C17.7242 6.12609 17.9917 5.7596 18.3276 5.4624C18.1674 5.79934 17.994 6.48657 17.9106 6.76013" stroke="black" stroke-width="0.0196056"/>
<path d="M17.8971 6.45665C18.0517 6.08074 18.3424 5.77696 18.7111 5.60596C18.4341 5.95157 18.2278 6.34831 18.1039 6.77358" fill="#F9D050"/>
<path d="M17.8971 6.45665C18.0517 6.08074 18.3424 5.77696 18.7111 5.60596C18.4341 5.95157 18.2278 6.34831 18.1039 6.77358" stroke="black" stroke-width="0.0196056"/>
<path d="M18.0405 6.77343C18.3468 6.30457 18.7858 5.93757 19.3016 5.71924C18.9012 6.11956 18.3107 6.8535 18.1673 7.14373M18.264 7.12705C18.5509 6.96692 19.1281 6.71005 19.5418 6.79345C19.2882 6.88686 18.5209 7.23714 18.184 7.56074" fill="#F9D050"/>
<path d="M18.0405 6.77343C18.3468 6.30457 18.7858 5.93757 19.3016 5.71924C18.9012 6.11956 18.3107 6.8535 18.1673 7.14373M18.264 7.12705C18.5509 6.96692 19.1281 6.71005 19.5418 6.79345C19.2882 6.88686 18.5209 7.23714 18.184 7.56074" stroke="black" stroke-width="0.0196056"/>
<path d="M18.2007 7.01367C18.4709 6.72677 18.968 6.29642 19.4951 6.11961C19.1115 6.48658 18.2941 7.32059 18.184 7.44736M17.4334 6.8402C17.2399 6.24638 16.953 5.68926 16.5227 5.51245C16.8655 6.00252 17.1039 6.55777 17.2233 7.14378M17.0631 6.82352C16.7462 6.43987 16.3125 6.05623 15.8188 5.97616C16.3026 6.29276 16.6849 6.74218 16.9197 7.27055" fill="#F9D050"/>
<path d="M18.2007 7.01367C18.4709 6.72677 18.968 6.29642 19.4951 6.11961C19.1115 6.48658 18.2941 7.32059 18.184 7.44736M17.4334 6.8402C17.2399 6.24638 16.953 5.68926 16.5227 5.51245C16.8655 6.00252 17.1039 6.55777 17.2233 7.14378M17.0631 6.82352C16.7462 6.43987 16.3125 6.05623 15.8188 5.97616C16.3026 6.29276 16.6849 6.74218 16.9197 7.27055" stroke="black" stroke-width="0.0196056"/>
<path d="M17.2433 6.80721C16.8429 6.08663 16.536 5.95986 16.3625 5.81641C16.506 6.08663 16.8563 6.80721 17.0631 7.11079" fill="#F9D050"/>
<path d="M17.2433 6.80721C16.8429 6.08663 16.536 5.95986 16.3625 5.81641C16.506 6.08663 16.8563 6.80721 17.0631 7.11079" stroke="black" stroke-width="0.0196056"/>
<path d="M16.4426 6.76025C16.6707 6.90374 16.8662 7.09354 17.0164 7.31737" stroke="black" stroke-width="0.0196056"/>
<path d="M16.4426 7.09391C16.536 7.17398 16.7128 7.27072 16.8729 7.41417L16.4426 7.09391ZM18.3441 7.33411C18.5042 7.20734 18.8545 7.0005 19.0313 6.93378L18.3441 7.33411ZM18.2307 7.22402C18.3908 7.01385 18.7111 6.72695 18.8245 6.6302L18.2307 7.22402ZM18.6777 6.22988C18.4627 6.47079 18.2601 6.72243 18.0706 6.98382L18.6777 6.22988ZM18.2641 6.08643C18.1126 6.31038 17.9788 6.54572 17.8637 6.79033L18.2641 6.08643ZM16.9997 6.11979C17.0964 6.37666 17.2732 6.80701 17.3333 6.98382L16.9997 6.11979ZM16.8562 6.39001C16.923 6.49009 17.0497 6.71027 17.0964 6.8704L16.8562 6.39001Z" fill="#F9D050"/>
<path d="M16.4426 7.09391C16.536 7.17398 16.7128 7.27072 16.8729 7.41417M18.3441 7.33411C18.5042 7.20734 18.8545 7.0005 19.0313 6.93378M18.2307 7.22402C18.3908 7.01385 18.7111 6.72695 18.8245 6.6302M18.6777 6.22988C18.4627 6.47079 18.2601 6.72243 18.0706 6.98382M18.2641 6.08643C18.1126 6.31038 17.9788 6.54572 17.8637 6.79033M16.9997 6.11979C17.0964 6.37666 17.2732 6.80701 17.3333 6.98382M16.8562 6.39001C16.923 6.49009 17.0497 6.71027 17.0964 6.8704" stroke="black" stroke-width="0.0196056"/>
<path d="M17.3998 6.30952C17.3998 6.16607 17.4965 6.00928 17.5933 6.00928C17.7034 6.00928 17.7834 6.19943 17.7834 6.30952C17.7834 6.43963 17.6867 6.54972 17.5933 6.54972C17.4932 6.54972 17.3998 6.45631 17.3998 6.30952Z" fill="#F9D050" stroke="black" stroke-width="0.0196056"/>
<path d="M17.1928 6.43932C17.2095 6.27919 17.3196 6.15242 17.4164 6.16576C17.5131 6.18244 17.5598 6.37593 17.5431 6.48602C17.5264 6.61279 17.4164 6.70954 17.3363 6.69286C17.2562 6.69286 17.1762 6.58277 17.1928 6.43932ZM17.6232 6.48602C17.5898 6.34257 17.6565 6.18578 17.7533 6.16576C17.8467 6.15242 17.9434 6.30921 17.9601 6.43932C17.9935 6.56609 17.9101 6.69286 17.83 6.69286C17.7533 6.70954 17.6399 6.62947 17.6232 6.48602Z" fill="#F9D050" stroke="black" stroke-width="0.0196056"/>
<path d="M17.3833 6.61274C17.3833 6.45595 17.48 6.3125 17.5768 6.3125C17.6869 6.3125 17.7669 6.48597 17.7669 6.61274C17.7669 6.74285 17.6735 6.85294 17.5768 6.85294C17.48 6.85294 17.3833 6.75953 17.3833 6.61274Z" fill="#F9D050" stroke="black" stroke-width="0.0196056"/>
<path d="M17.0962 6.69298C17.0962 6.54953 17.2096 6.39273 17.303 6.39273C17.4031 6.39273 17.4965 6.58289 17.4965 6.69298C17.4965 6.82308 17.3831 6.93317 17.303 6.93317C17.2096 6.93317 17.0962 6.83976 17.0962 6.69298ZM17.6867 6.62959C17.6867 6.48614 17.7868 6.32935 17.8802 6.32935C17.9903 6.32935 18.0703 6.5195 18.0703 6.62959C18.0703 6.7597 17.9769 6.86979 17.8802 6.86979C17.7834 6.86979 17.6867 6.77304 17.6867 6.62959Z" fill="#F9D050" stroke="black" stroke-width="0.0196056"/>
<path d="M17.6232 6.75964C17.6232 6.59951 17.7366 6.45605 17.83 6.45605C17.9301 6.45605 18.0235 6.62953 18.0235 6.7563C18.0235 6.88641 17.9267 6.99983 17.83 6.99983C17.7366 6.99983 17.6232 6.89975 17.6232 6.75964Z" fill="#F9D050" stroke="black" stroke-width="0.0196056"/>
<path d="M17.3699 6.90327C17.3699 6.74314 17.4633 6.59969 17.5601 6.59969C17.6735 6.59969 17.7536 6.78984 17.7536 6.89993C17.7536 7.03338 17.6535 7.14346 17.5601 7.14346C17.4633 7.14346 17.3666 7.04338 17.3666 6.90327H17.3699ZM16.9696 6.90327C16.9696 6.74314 17.0497 6.59969 17.1297 6.59969C17.2098 6.59969 17.2732 6.78984 17.2732 6.89993C17.2732 7.03338 17.1931 7.14346 17.1297 7.14346C17.0497 7.14346 16.9696 7.04338 16.9696 6.90327ZM17.8637 6.87324C17.8637 6.72646 17.9437 6.58301 18.0238 6.58301C18.1039 6.58301 18.1839 6.75982 18.1839 6.86991C18.1839 7.01336 18.0872 7.1101 18.0238 7.1101C17.9437 7.1101 17.8637 7.01336 17.8637 6.86991V6.87324Z" fill="#F9D050" stroke="black" stroke-width="0.0196056"/>
<path d="M17.9601 7.13977C17.9934 6.98298 18.0868 6.85287 18.1502 6.87289C18.2169 6.88623 18.2303 7.07639 18.2003 7.18981C18.1836 7.33326 18.0868 7.41333 18.0234 7.39665C17.9567 7.38331 17.9267 7.26988 17.9567 7.14311L17.9601 7.13977Z" fill="#F9D050" stroke="black" stroke-width="0.0196056"/>
<path d="M17.6566 7.09308C17.6732 6.94963 17.7667 6.80618 17.8467 6.82286C17.9435 6.82286 17.9902 7.01301 17.9768 7.1231C17.9601 7.26989 17.8767 7.36664 17.8 7.34996C17.72 7.34996 17.6399 7.23653 17.6566 7.09308ZM17.2095 7.13978C17.1595 6.98299 17.0627 6.8729 16.9994 6.88624C16.936 6.90292 16.9193 7.09308 16.9527 7.20651C16.986 7.33328 17.0794 7.41334 17.1428 7.39666C17.1929 7.38332 17.2429 7.26989 17.2095 7.14312V7.13978Z" fill="#F9D050" stroke="black" stroke-width="0.0196056"/>
<path d="M17.0962 7.1099C17.0962 6.96645 17.1763 6.823 17.2563 6.823C17.3531 6.823 17.4165 6.99981 17.4165 7.1099C17.4165 7.25335 17.3364 7.35009 17.2563 7.35009C17.1896 7.35009 17.0962 7.25335 17.0962 7.1099Z" fill="#F9D050" stroke="black" stroke-width="0.0196056"/>
<path d="M17.3366 7.17322C17.3366 7.01309 17.4333 6.87297 17.5267 6.87297C17.6402 6.87297 17.7202 7.04645 17.7202 7.17322C17.7202 7.30332 17.6235 7.41341 17.5267 7.41341C17.4333 7.41341 17.3366 7.31667 17.3366 7.17322ZM17.4166 5.41512C17.3833 5.54189 17.2732 5.65531 17.3499 5.83212C17.2098 5.78208 17.083 5.7654 16.9696 5.89551C17.1131 5.87883 17.2398 5.92887 17.3032 6.02228C17.1764 6.0056 17.1131 6.07232 17.0797 6.15239C17.1931 6.11902 17.3032 6.08566 17.3533 6.10234C17.3032 6.15239 17.2231 6.22911 17.2098 6.29584C17.3032 6.21577 17.4166 6.22911 17.48 6.18241C17.4333 6.29584 17.5267 6.40593 17.6068 6.51602C17.5934 6.35922 17.6869 6.24913 17.6402 6.16573C17.7836 6.19909 17.8003 6.32586 18.0071 6.32586C17.9271 6.27916 17.8803 6.11902 17.7836 6.11902C17.8303 6.10234 18.0238 6.08566 18.0572 6.11902C18.0238 6.0523 17.9104 5.99225 17.847 5.99225C17.9137 5.92553 18.0238 5.79876 18.1039 5.7654C17.9904 5.78208 17.817 5.79876 17.7536 5.89551C17.9104 5.7654 17.8803 5.52854 18.0538 5.49518C17.9604 5.4785 17.817 5.54189 17.7035 5.65531C17.7536 5.55857 17.7536 5.4318 17.817 5.39844C17.6869 5.4318 17.5434 5.59193 17.4967 5.67199C17.4898 5.58141 17.4624 5.49358 17.4166 5.41512Z" fill="#F9D050" stroke="black" stroke-width="0.0196056"/>
<path d="M17.4965 5.67195C17.4965 5.71866 17.4965 5.8154 17.4799 5.84543L17.4965 5.67195ZM17.7034 5.65527C17.67 5.68863 17.6066 5.79872 17.6066 5.89547L17.7034 5.65527Z" fill="#F9D050"/>
<path d="M17.4965 5.67195C17.4965 5.71866 17.4965 5.8154 17.4799 5.84543M17.7034 5.65527C17.67 5.68863 17.6066 5.79872 17.6066 5.89547" stroke="black" stroke-width="0.0196056"/>
<path d="M17.8003 5.8457C17.7453 5.87855 17.7048 5.93099 17.6869 5.99249" stroke="black" stroke-width="0.0196056"/>
<path d="M16.1052 7.43143C15.9918 7.43143 15.8984 7.38473 15.8317 7.30466C15.7216 7.15788 15.418 7.09449 15.2879 7.2246C15.2412 7.25796 15.1778 7.25796 15.1311 7.2713C15.051 7.2713 14.9543 7.35137 14.9843 7.5115C15.051 7.46146 15.0644 7.5115 15.1144 7.5115C15.1478 7.49482 15.1311 7.52818 15.1311 7.5582C15.1311 7.63827 15.3046 7.7984 15.4647 7.78172C15.6415 7.78172 15.7216 7.84844 15.7516 7.8818C15.8016 7.92517 15.7683 7.91183 15.8016 7.99189C15.8483 8.0386 15.865 8.05528 15.785 8.11866C15.7485 8.14903 15.7192 8.18704 15.6991 8.22998C15.679 8.27293 15.6686 8.31977 15.6686 8.3672C15.6686 8.41462 15.679 8.46146 15.6991 8.50441C15.7192 8.54736 15.7485 8.58536 15.785 8.61573C15.9918 8.77253 16.5189 9.01606 17.1127 8.54901C17.6865 8.10198 18.5806 8.35886 18.6473 8.51565C18.7273 8.67912 18.7574 8.77253 18.7741 8.85259C18.7907 8.91931 18.8708 8.9827 18.9842 8.96602C19.0943 8.96602 19.2211 9.01272 19.2845 9.06276C19.3679 9.10947 19.478 9.09613 19.4479 8.94934C19.3812 8.50231 19.111 8.43892 19.081 8.23209C19.2378 8.24543 19.3479 8.24543 19.4146 8.18205C19.4613 8.11866 19.5247 8.00524 19.5914 7.97521C19.6381 7.94185 19.6381 7.90849 19.5747 7.92517C19.4946 7.94185 19.4479 7.97521 19.3012 7.95853C18.5672 7.87847 16.5055 7.31801 16.1052 7.43143Z" fill="#059334" stroke="black" stroke-width="0.0457464"/>
<path d="M19.368 7.97536C19.2461 8.06139 19.1419 8.17013 19.0611 8.29562C18.9043 8.50246 18.4239 8.70929 17.8301 8.70929C17.2563 8.70929 16.906 8.61588 16.6491 8.40905C16.5395 8.32135 16.4209 8.24532 16.2955 8.18219C16.122 8.10213 16.0887 7.92532 16.1354 7.78187C16.0887 7.86193 16.0586 7.942 15.9619 7.92532C15.8952 7.92532 15.7684 7.92532 15.8018 7.99204C15.7851 7.95868 15.7851 7.91197 15.7684 7.89196L15.735 7.86193C15.7851 7.89529 15.8985 7.79855 15.9786 7.79855C16.042 7.81523 16.122 7.73516 16.1053 7.63842L16.0586 7.43158C16.1854 7.36486 17.8634 7.67178 18.2004 7.7018C18.534 7.71848 19.4948 7.86193 19.368 7.97536Z" fill="black" stroke="black" stroke-width="0.0457464"/>
<path d="M16.3288 7.36813C16.4889 7.208 16.6791 7.12793 16.8726 7.17464H16.9193C17.0194 7.09457 17.2396 7.07789 17.3697 7.14128H17.433C17.6232 7.07789 17.9902 7.14128 18.1203 7.27138L18.167 7.30474C18.6007 7.27138 18.8542 7.46154 19.1578 7.76846C19.1911 7.80182 19.2379 7.86187 19.3179 7.87855C19.4147 7.89523 19.4313 7.94527 19.3513 7.99197C19.223 8.0713 19.11 8.17299 19.0177 8.29222C18.8709 8.48571 18.4072 8.6792 17.83 8.6792C17.2729 8.6792 16.936 8.57912 16.6791 8.38896C16.5356 8.27887 16.4256 8.21549 16.3455 8.16545C16.2487 8.13209 16.122 8.00532 16.1687 7.87855C16.202 7.75178 16.122 7.59165 16.0586 7.43151C16.1053 7.39815 16.2321 7.35145 16.2955 7.38481L16.3288 7.36813Z" fill="#059334" stroke="black" stroke-width="0.0457464"/>
<path d="M19.1576 7.76943C18.8573 7.46252 18.6005 7.27236 18.1668 7.30239C18.1668 7.31907 18.1668 7.36911 18.1501 7.40247C18.4523 7.5381 18.7203 7.73989 18.9341 7.99295C19.0008 7.92623 19.1109 7.8495 19.1576 7.76943ZM18.1201 7.27236C17.99 7.14559 17.623 7.07887 17.4328 7.14559C17.4328 7.20898 17.4328 7.30572 17.3995 7.36911C17.5129 7.41581 17.6063 7.52924 17.7031 7.63933C17.7698 7.62265 17.9266 7.57594 18.0066 7.55926C18.0544 7.46788 18.0924 7.37171 18.1201 7.27236ZM17.3695 7.14225C17.2394 7.07887 17.0158 7.09555 16.9191 7.17562C16.8857 7.24234 16.8724 7.36911 16.8724 7.43249C16.9391 7.43249 17.0325 7.4792 17.0625 7.51256C17.1626 7.4792 17.2894 7.41581 17.3361 7.36911C17.3528 7.30239 17.3828 7.20898 17.3695 7.14559V7.14225ZM16.3286 7.36911C16.4887 7.20898 16.6789 7.12891 16.8724 7.17562C16.839 7.22566 16.8257 7.31907 16.8257 7.41581C16.6489 7.39913 16.4254 7.44917 16.3286 7.51256V7.36911Z" fill="#00493D" stroke="black" stroke-width="0.0457464"/>
<path d="M18.871 8.02278C18.67 7.78481 18.4196 7.59355 18.1371 7.46232C18.1371 7.479 18.1037 7.54238 18.0871 7.59242C18.1838 7.73588 18.374 8.05614 18.454 8.23295C18.5341 8.19959 18.7576 8.10284 18.871 8.02278ZM17.6567 8.3764C17.6844 8.15836 17.6999 7.93896 17.7034 7.7192C17.7835 7.70251 17.9436 7.65581 18.007 7.63913C18.0871 7.76924 18.2805 8.10618 18.3606 8.26297C18.1671 8.30968 17.8469 8.38974 17.6567 8.3764ZM17.0962 7.60911C17.1763 7.57574 17.2897 7.50902 17.3665 7.44897C17.4332 7.49568 17.56 7.60911 17.6067 7.67249C17.6067 7.81594 17.56 8.23295 17.5433 8.37306C17.4165 8.37306 17.2097 8.34304 17.0962 8.27965C17.1129 8.03946 17.1296 7.76924 17.0962 7.60911ZM16.2956 7.79926C16.3123 7.7659 16.329 7.65581 16.329 7.60911C16.4557 7.52904 16.776 7.44897 17.0162 7.57574C17.0329 7.73588 17.0162 8.1362 16.9995 8.23295C16.7855 8.05894 16.5501 7.91319 16.2989 7.79926H16.2956Z" fill="#00493D" stroke="black" stroke-width="0.0457464"/>
<path d="M15.4981 7.50796C15.4647 7.50796 15.448 7.41455 15.3846 7.41455C15.3679 7.41455 15.3212 7.43123 15.3046 7.41455C15.3046 7.44791 15.3212 7.48127 15.3379 7.49462C15.3546 7.54132 15.4347 7.5113 15.4981 7.5113V7.50796Z" fill="black"/>
<path d="M15.498 7.78149C15.6882 7.78149 15.7215 7.54129 15.8183 7.52795M15.6081 7.79817C15.7515 7.86489 15.865 7.52795 15.9751 7.54129M15.3212 7.3845C15.3679 7.3845 15.4013 7.31777 15.4813 7.39784C15.5147 7.4312 15.5614 7.44788 15.5948 7.44788M15.5614 7.62136C15.4947 7.72144 15.3846 7.78149 15.3212 7.75146M15.2878 7.22437C15.2411 7.25773 15.2111 7.31777 15.1777 7.36782M15.131 7.46123V7.54129" stroke="black" stroke-width="0.0457464"/>
<path d="M20.4695 9.54386V12.6597C20.4695 15.3619 19.1918 16.2894 17.4804 17.0233C15.769 16.2894 14.478 15.3619 14.478 12.6597V9.54053H20.4695V9.54386Z" fill="white"/>
<path d="M17.4803 12.1802C17.6238 12.1802 17.8473 12.0534 18.0408 11.8599C18.2476 11.6364 18.6012 11.5597 18.9682 11.8599C19.3352 12.1635 19.5587 12.0367 19.7522 11.8599C19.9423 11.6864 20.1025 11.6197 20.4694 11.6197V9.54468H14.4745V11.623C14.8415 11.623 15.0016 11.6898 15.1951 11.8632C15.3853 12.04 15.6088 12.1668 15.9791 11.8632C16.3628 11.563 16.6964 11.6397 16.9199 11.8632C17.0967 12.0567 17.3202 12.1835 17.4803 12.1835V12.1802Z" fill="#C8102E"/>
<path d="M17.4803 13.7813C17.6738 13.7813 18.0575 13.5712 18.1509 13.5244C18.5045 13.3143 18.758 13.5078 18.9682 13.6045C19.1917 13.6979 19.6054 13.8114 19.8623 13.6045C20.1191 13.3943 20.2626 13.411 20.4394 13.411C20.4728 13.1708 20.4728 12.9306 20.4728 12.6604V12.4669C20.2459 12.4202 20.1358 12.4836 19.8956 12.6938C19.6554 12.9006 19.3819 12.8539 19.0283 12.7271C18.6947 12.5803 18.3611 12.3268 18.0241 12.7271C17.8844 12.8833 17.6894 12.979 17.4803 12.994C17.2401 12.994 17.0333 12.8372 16.9366 12.7271C16.5863 12.3268 16.266 12.5803 15.9291 12.7271C15.5788 12.8539 15.2885 12.9006 15.0517 12.6938C14.8282 12.4836 14.7147 12.4202 14.4745 12.4669V12.6604C14.4745 12.9306 14.4912 13.1708 14.5213 13.411C14.6981 13.411 14.8282 13.3943 15.0817 13.6045C15.3386 13.8114 15.7689 13.6979 15.9791 13.6045C16.2026 13.5078 16.4562 13.3143 16.8098 13.5244C16.9065 13.5712 17.2735 13.778 17.4803 13.778V13.7813ZM17.4803 14.4686C17.7573 14.4536 18.0265 14.3711 18.2643 14.2284C18.5846 14.0515 18.8081 14.1283 19.1283 14.2917C19.4619 14.4519 19.7355 14.4018 19.929 14.2917C20.0224 14.225 20.1025 14.0983 20.3093 14.1483C20.2159 14.5486 20.0691 14.8989 19.8956 15.1858C19.7593 15.231 19.6154 15.2487 19.4723 15.2378C19.3291 15.2269 19.1895 15.1877 19.0616 15.1224C18.728 14.9623 18.311 14.8655 18.0875 15.009C17.9062 15.127 17.6964 15.1938 17.4803 15.2025C17.3035 15.2025 17.08 15.1358 16.8732 15.009C16.6497 14.8655 16.2326 14.9623 15.899 15.1224C15.7714 15.1882 15.6319 15.228 15.4887 15.2395C15.3456 15.2509 15.2015 15.2338 15.065 15.1891C14.8916 14.8989 14.7481 14.5453 14.6514 14.1483C14.8582 14.0983 14.9383 14.2284 15.035 14.2917C15.1546 14.3593 15.2896 14.3948 15.427 14.3948C15.5643 14.3948 15.6994 14.3593 15.819 14.2917C16.1526 14.1316 16.3761 14.0515 16.6964 14.225C16.9339 14.369 17.203 14.4526 17.4803 14.4686ZM17.4803 17.024C18.0987 16.7843 18.676 16.4501 19.1917 16.0332C19.0616 15.9865 18.9849 16.0165 18.8715 15.9364C18.758 15.8564 18.4244 15.8263 18.1375 15.9865C17.9386 16.1025 17.7123 16.1637 17.482 16.1637C17.2517 16.1637 17.0254 16.1025 16.8265 15.9865C16.5362 15.8263 16.2026 15.8564 16.0925 15.9364C15.9791 16.0165 15.899 15.9865 15.7689 16.0365C16.2826 16.4556 16.8605 16.789 17.4803 17.024Z" fill="#0B50A0"/>
<path d="M17.0633 10.3246C17.08 10.358 17.05 10.438 17.0633 10.468C17.0967 10.5348 17.0967 10.5681 17.1434 10.5982H17.2568C17.6071 10.5982 18.0241 10.4547 18.3744 10.4547C18.7113 10.4547 18.9181 10.5648 19.1083 10.5648C19.2217 10.5648 19.3185 10.4847 19.3185 10.4047C19.3185 10.3246 19.1917 10.2779 18.9181 10.2779C18.5345 10.2779 18.3277 10.3746 18.0074 10.3746C17.527 10.3746 17.4469 10.1978 17.4469 10.1178C17.4469 10.0377 17.527 9.92761 17.7839 9.92761C17.864 9.92761 17.9273 9.91093 17.9607 9.87757C17.9774 9.84421 18.0241 9.78082 18.1208 9.73412C18.2309 9.6674 18.4544 9.73412 18.5679 9.65405C18.5679 9.72077 18.4711 9.81418 18.3911 9.84754C18.5512 9.7975 18.7247 9.7975 18.758 9.92761C18.678 9.87757 18.5512 9.91093 18.5045 9.92761C18.4378 9.94095 18.4077 9.96097 18.3443 9.97431C18.4077 9.95763 18.4411 10.0844 18.5345 10.0844C18.4411 10.1645 18.281 10.1645 18.1208 10.1011C18.0708 10.0844 17.944 10.0377 17.864 10.0377C17.7038 10.0377 17.6071 10.0711 17.6071 10.1344C17.6071 10.2145 17.7072 10.2612 17.9907 10.2612C18.281 10.2612 18.4411 10.1811 18.8714 10.1811C18.8381 10.1344 18.8881 10.0844 18.8247 10.0377C18.9849 10.0377 19.1583 10.0844 19.2251 10.1978C19.2084 10.0844 19.3018 9.99099 19.2718 9.89425C19.3685 9.91093 19.4486 10.0043 19.4619 10.0844C19.4619 10.0377 19.5286 10.0377 19.5286 9.99099C19.5733 10.0151 19.6094 10.0524 19.632 10.0978C19.6547 10.1431 19.6629 10.1944 19.6554 10.2445C19.7021 10.1645 19.7522 10.1978 19.7822 10.1011C19.8155 10.1678 19.7989 10.358 19.6854 10.4213C19.7855 10.3546 19.9256 10.3546 20.0224 10.468C19.9256 10.4547 19.8789 10.5014 19.8322 10.5181C19.5994 10.6371 19.3393 10.6923 19.0783 10.6782C18.8247 10.6615 18.7914 10.6115 18.6312 10.6115C18.728 10.6282 18.9181 10.8217 19.0983 10.8217C19.2084 10.8217 19.2884 10.8217 19.3352 10.805C19.3819 10.7883 19.4619 10.805 19.5253 10.8384C19.5754 10.8851 19.6721 10.9318 19.7355 10.9184C19.7188 10.9818 19.6854 11.0118 19.6387 11.0285C19.7188 11.0785 19.6721 11.1086 19.7522 11.172C19.7188 11.172 19.6854 11.2053 19.6387 11.1886C19.6854 11.2353 19.6854 11.3021 19.7355 11.3321C19.7188 11.3321 19.6688 11.3488 19.6387 11.3321C19.6854 11.3988 19.6387 11.4755 19.6854 11.5089C19.7355 11.5756 19.6387 11.6523 19.5587 11.589C19.5754 11.6357 19.5253 11.6857 19.4786 11.669C19.4319 11.6523 19.3985 11.6023 19.4119 11.589C19.4119 11.5723 19.4119 11.5723 19.4319 11.5556C19.3985 11.6056 19.3352 11.6056 19.3018 11.589C19.2884 11.5723 19.2684 11.5556 19.2684 11.5423C19.1583 11.5756 19.1116 11.4755 19.1283 11.4288C19.1417 11.3821 19.2384 11.3621 19.2718 11.3821C19.3051 11.3955 19.3352 11.4155 19.3685 11.3821C19.4019 11.3654 19.4152 11.3321 19.4152 11.3021C19.4152 11.252 19.3685 11.1086 19.1583 11.1253C18.9181 11.1419 18.5345 11.0785 18.3443 11.0118C18.3277 10.9985 18.311 10.9985 18.2943 10.9785C18.2943 11.0452 18.2309 11.0785 18.2309 11.1419C18.2309 11.222 18.2643 11.2854 18.361 11.3154C18.311 11.3955 18.2309 11.3821 18.2009 11.3321C18.2009 11.3821 18.1342 11.4122 18.1342 11.4755C18.1208 11.4422 18.1008 11.4288 18.0875 11.3955C18.0408 11.5089 17.9107 11.5723 17.8473 11.5423C17.7672 11.6056 17.6738 11.589 17.6404 11.5256C17.5937 11.5589 17.527 11.5589 17.497 11.5256C17.497 11.5723 17.4636 11.5589 17.4469 11.6223C17.4469 11.6557 17.3836 11.669 17.3535 11.6557C17.3202 11.6357 17.3035 11.5723 17.3369 11.5423C17.2902 11.5756 17.2401 11.5756 17.2101 11.5423C17.2101 11.5089 17.2101 11.4622 17.2434 11.4422H17.2735C17.2401 11.4288 17.1934 11.4422 17.16 11.4288C17.1267 11.3955 17.1267 11.3621 17.1434 11.3321C17.16 11.3154 17.2101 11.2854 17.2434 11.3154L17.2568 11.3321C17.2568 11.2987 17.2735 11.2687 17.2902 11.2687C17.3235 11.252 17.3669 11.252 17.4169 11.3021C17.4503 11.3488 17.4803 11.3488 17.5771 11.3354C17.6571 11.3354 17.7839 11.252 17.8773 11.172C17.6104 11.1253 17.7672 10.9484 17.8473 10.8851C17.7839 10.8684 17.6871 10.8684 17.6238 10.9017C17.2902 11.0785 16.9365 11.2854 16.713 11.222C16.7161 11.2554 16.7276 11.2876 16.7464 11.3154C16.6963 11.3154 16.5996 11.3154 16.5696 11.2687C16.5529 11.3021 16.5229 11.3821 16.5529 11.4455C16.5195 11.4122 16.4261 11.3788 16.3761 11.3654C16.4094 11.3988 16.3761 11.4622 16.3928 11.5089C16.3461 11.4622 16.266 11.4288 16.2326 11.4622C16.1993 11.4956 16.1359 11.5089 16.0892 11.4956C16.0581 11.5395 16.0136 11.5723 15.9624 11.589C15.9624 11.5556 15.9624 11.5089 15.9457 11.4922C15.929 11.5423 15.879 11.6056 15.819 11.6357C15.819 11.6023 15.819 11.5556 15.8023 11.5256C15.8023 11.589 15.6755 11.6223 15.6588 11.669C15.6755 11.6223 15.6755 11.5723 15.6755 11.5423C15.6578 11.5706 15.6344 11.595 15.6069 11.614C15.5793 11.6329 15.5482 11.646 15.5154 11.6523C15.5287 11.619 15.5487 11.5856 15.5287 11.5556C15.5154 11.6223 15.4186 11.6557 15.3386 11.6357C15.3386 11.669 15.2718 11.7157 15.1951 11.669C15.1451 11.6523 15.115 11.6023 15.1451 11.5723C15.0817 11.5723 15.0183 11.5089 15.0517 11.4622C15.0517 11.4455 15.065 11.4288 15.065 11.4122C15.0183 11.3788 15.0016 11.3154 15.0517 11.2687C15.065 11.252 15.115 11.252 15.1451 11.252C15.1451 11.1253 15.2585 11.1253 15.3052 11.2187C15.3386 11.2687 15.4353 11.3488 15.5154 11.3321C15.5487 11.3321 15.5621 11.3154 15.5954 11.3154C15.7389 11.268 15.8741 11.1982 15.9958 11.1086C16.0091 11.0619 16.0091 11.0285 16.0091 10.9985C15.9457 11.0318 15.8823 11.0619 15.849 11.1086V11.0619C15.8023 11.0619 15.7222 11.0452 15.6888 11.0452C15.7055 11.0285 15.7222 10.9484 15.7556 10.9318C15.6755 10.9484 15.5954 10.9318 15.5287 10.9184C15.5621 10.8851 15.5621 10.8384 15.5788 10.7883C15.5454 10.805 15.4653 10.775 15.4019 10.7883C15.4186 10.7416 15.4353 10.6782 15.482 10.6615C15.4153 10.6782 15.3386 10.6615 15.2585 10.6282C15.3252 10.6282 15.3552 10.5481 15.4019 10.5481C15.2752 10.5481 15.2418 10.4847 15.1784 10.4547C15.2251 10.468 15.2585 10.4213 15.3052 10.4213C15.2585 10.4047 15.1784 10.3246 15.2118 10.2779C15.1951 10.2946 15.1784 10.3246 15.1451 10.3446C15.1117 10.358 15.0517 10.3446 15.0016 10.2946C14.9683 10.2279 14.9849 10.1511 15.0517 10.1344C15.037 10.1335 15.023 10.1284 15.0111 10.1197C14.9993 10.111 14.9902 10.0991 14.985 10.0854C14.9797 10.0717 14.9785 10.0568 14.9814 10.0424C14.9844 10.0281 14.9914 10.0148 15.0016 10.0043C15.0183 9.97098 15.0817 9.92761 15.115 9.97098L15.1618 10.0377C15.1451 10.0043 15.1451 9.94095 15.1451 9.89425C15.1618 9.84754 15.1951 9.84754 15.2452 9.82753C15.2885 9.82753 15.3219 9.87757 15.3219 9.92761C15.3219 9.97431 15.3386 10.0043 15.3552 10.0711L15.3686 10.0043C15.3686 9.94095 15.4487 9.95763 15.4987 9.97098C15.5454 9.99099 15.5621 10.0844 15.4987 10.1344C15.4653 10.1678 15.482 10.2145 15.5154 10.2445C15.6255 10.4213 15.8156 10.5648 15.9791 10.5815C15.9791 10.5148 16.0124 10.4547 16.0592 10.4047C16.0592 10.3713 16.0725 10.3246 16.0925 10.2946C16.1059 10.1978 16.1526 10.1511 16.2159 10.1811C16.2026 10.1645 16.1826 10.1478 16.1826 10.1344C16.1359 10.0844 16.0892 10.0043 16.1225 9.94095C16.1559 9.87757 16.2493 9.89425 16.2827 9.92761C16.266 9.82753 16.3761 9.7508 16.3761 9.70076C16.3928 9.7508 16.4261 9.81418 16.4094 9.86089C16.4261 9.7975 16.5362 9.71744 16.6163 9.68741C16.5829 9.73412 16.683 9.81418 16.6663 9.86089C16.6997 9.78082 16.8264 9.73412 16.9199 9.73412C16.8865 9.76748 16.8865 9.83086 16.8865 9.86089C16.9365 9.86089 17.0199 9.84754 17.05 9.7975C17.05 9.86422 17.0166 9.92761 16.9832 9.95763C16.9999 9.94095 17.0633 9.94095 17.1133 9.94095C17.0633 9.99099 17.08 10.041 17.0333 10.0711C17.0967 10.0377 17.1767 10.0377 17.1934 10.1044C17.2268 10.1511 17.1767 10.2312 17.1434 10.2779C17.11 10.2946 17.08 10.3246 17.0633 10.3246Z" fill="#F9D050" stroke="black" stroke-width="0.0457464"/>
<path d="M16.0756 10.5176C15.9622 10.5643 15.9289 10.6777 15.9122 10.7411" stroke="black" stroke-width="0.0457464"/>
<path d="M16.059 10.6282C15.8989 10.7283 15.8322 10.805 15.8655 10.9818M16.1358 11.1119C16.2359 11.0785 16.2959 11.0452 16.376 10.9017" stroke="black" stroke-width="0.0457464"/>
<path d="M16.3291 10.9648C16.2957 11.0316 16.3291 11.1417 16.2823 11.1884C16.3253 11.167 16.3623 11.1355 16.3902 11.0965C16.4181 11.0575 16.4361 11.0123 16.4425 10.9648" stroke="black" stroke-width="0.0457464"/>
<path d="M16.3626 11.1415C16.426 11.1082 16.5227 11.0114 16.5694 10.9013C16.5528 10.948 16.5694 11.0281 16.5361 11.0782C16.6162 10.9981 16.6495 10.948 16.6662 10.868L16.6795 10.9347C16.7129 10.9013 16.7463 10.868 16.7463 10.8046M16.7429 10.8513V10.9314C16.8096 10.8847 16.8263 10.8213 16.8263 10.7412" stroke="black" stroke-width="0.0457464"/>
<path d="M16.8096 10.8381C16.9064 10.7713 16.9197 10.6779 16.9197 10.5345M16.9197 10.6946C16.9864 10.6446 16.9998 10.6146 16.9998 10.4678M16.7929 10.0374C16.7596 10.0374 16.7262 10.0541 16.7262 10.1041C16.7262 10.1342 16.6795 10.1809 16.6795 10.2309C16.6662 10.2943 16.6328 10.311 16.5861 10.2943C16.5361 10.2609 16.5361 10.2609 16.5361 10.2142C16.5361 10.1475 16.6161 10.1342 16.6161 10.0708C16.6328 10.0374 16.6495 9.99071 16.6662 9.99071C16.5861 10.0374 16.4727 10.0041 16.456 9.91064" stroke="black" stroke-width="0.0457464"/>
<path d="M16.9362 10.0838C16.9028 10.1005 16.8695 10.0505 16.8261 10.0705C16.8094 10.0705 16.7594 10.0838 16.746 10.0705" stroke="black" stroke-width="0.0457464"/>
<path d="M16.7129 10.1644C16.7295 10.181 16.8096 10.2144 16.8897 10.181C16.823 10.1977 16.7762 10.1177 16.8396 10.0709M16.5694 10.0042C16.5027 10.0042 16.456 10.0543 16.4727 10.1043C16.4893 10.151 16.5527 10.151 16.5994 10.1177M16.456 10.8049C16.4727 10.7882 16.4893 10.7582 16.4893 10.7382C16.5227 10.7382 16.5561 10.7248 16.5694 10.7081C16.6328 10.7081 16.6795 10.6614 16.6962 10.6147C16.7295 10.6147 16.7462 10.5347 16.7629 10.5013C16.7762 10.518 16.8096 10.5013 16.8263 10.4346C16.8596 10.4546 16.9064 10.4346 16.9197 10.3879M16.2658 10.2778C16.2658 10.2945 16.2325 10.3245 16.1991 10.3445C16.2158 10.3745 16.1991 10.4546 16.1691 10.4679C16.1858 10.5013 16.1691 10.548 16.1524 10.5814C16.1524 10.598 16.1691 10.6481 16.1691 10.6614M16.3292 9.95752C16.2959 10.0376 16.3125 10.1343 16.3759 10.151" stroke="black" stroke-width="0.0457464"/>
<path d="M16.3626 10.2112C16.3459 10.2946 16.3459 10.4047 16.3292 10.4548C16.3125 10.4881 16.2825 10.5982 16.4093 10.6282C16.5527 10.6616 16.6328 10.6449 16.7129 10.4047M16.9531 11.0286C16.9531 11.0452 16.9364 11.0786 16.9064 11.0786M17.0632 10.9985C17.0632 11.0319 17.0298 11.0786 17.0164 11.0919M17.1766 10.9652C17.1766 10.9985 17.1766 11.0452 17.1432 11.0619M16.2025 9.97437C16.2158 9.97437 16.2358 10.0077 16.2492 10.0378C16.2025 10.0044 16.1524 10.0845 16.1824 10.1345M16.1524 10.2446L16.089 10.2946M16.1057 10.388C16.089 10.388 16.0723 10.4047 16.059 10.4047M15.3384 10.1011C15.3384 10.0845 15.3384 10.0845 15.3551 10.0678M15.195 10.0544C15.1783 10.0544 15.1783 10.0544 15.1616 10.0378M15.2083 10.2779H15.2417M15.1449 10.1812C15.1196 10.156 15.0868 10.1397 15.0515 10.1345M16.0256 10.775C15.9122 10.8684 15.8655 10.9485 15.8488 11.0619M16.1357 10.8517C16.1074 10.9112 16.0636 10.9619 16.009 10.9985M15.5152 11.3321C15.4618 11.3494 15.4052 11.3541 15.3497 11.346C15.2941 11.3379 15.2412 11.3172 15.195 11.2854C15.1783 11.2688 15.1616 11.2688 15.1449 11.2521M15.9923 11.112C15.9789 11.172 15.9589 11.2521 15.9289 11.2688C16.059 11.202 16.1691 11.1086 16.1858 10.9652M15.0649 11.4122C15.1149 11.3955 15.1649 11.4289 15.195 11.3955M17.8471 10.8851C17.8805 10.9018 17.9272 10.9185 17.9439 10.9318C17.9606 10.8985 18.0239 10.8517 18.0706 10.8384M16.7129 11.222C16.6962 11.1553 16.7295 11.0786 16.8263 11.0452M16.089 11.4923C16.1057 11.4589 16.1057 11.4122 16.1224 11.3822M15.3851 11.5423C15.3684 11.5757 15.3384 11.6057 15.3384 11.6357M15.1449 11.5723C15.1449 11.5723 15.1449 11.5557 15.1616 11.5557C15.195 11.5423 15.2417 11.5089 15.2583 11.4756M17.32 11.3488C17.2867 11.3655 17.2733 11.3488 17.2566 11.3321M17.3033 11.4289C17.3033 11.4289 17.29 11.4456 17.27 11.4456M17.3834 11.5089C17.3667 11.5256 17.3501 11.5423 17.3367 11.5423M17.8471 11.5423C17.8805 11.5256 17.8972 11.4923 17.9138 11.4289M17.6403 11.5256C17.687 11.5089 17.7204 11.4756 17.7671 11.4289M18.0873 11.3955C18.0873 11.3622 18.0873 11.3321 18.104 11.3021M19.2716 11.5423C19.2383 11.5089 19.2383 11.4622 19.2883 11.4289C19.3217 11.4122 19.335 11.3955 19.3684 11.3822" stroke="black" stroke-width="0.0457464"/>
<path d="M18.294 10.9785C18.0404 10.8684 18.0571 10.725 17.8469 10.7417M19.4315 11.4789C19.4482 11.4923 19.4315 11.5423 19.4315 11.5557M19.575 11.4789C19.5583 11.5256 19.5583 11.5423 19.5583 11.589M18.344 9.97437H18.2106M16.9996 10.5181C16.9996 10.5515 17.0496 10.6149 17.1764 10.6149C17.1597 10.6149 17.143 10.5982 17.143 10.5982M17.0629 10.3247C17.0496 10.3413 17.0296 10.3247 17.0296 10.3247C16.9996 10.2913 17.0496 10.2312 17.0963 10.1979C17.0496 10.2146 17.0162 10.2146 16.9829 10.2146C16.9495 10.3113 16.8561 10.358 16.7927 10.2946C16.7761 10.358 16.696 10.4381 16.6326 10.4214C16.5659 10.388 16.5525 10.3413 16.5659 10.2946C16.4891 10.388 16.3924 10.328 16.3624 10.2946C16.3457 10.2613 16.3624 10.1812 16.3957 10.0845" stroke="black" stroke-width="0.0457464"/>
<path d="M18.0876 10.9314C18.0409 10.9648 17.9909 10.9314 17.9441 10.9814C17.9108 11.0148 17.9608 11.0281 17.9909 11.0281C17.9775 11.0782 17.9775 11.0949 18.0576 11.0949C18.0242 11.1416 18.121 11.1582 18.1043 11.2216C18.1244 11.2008 18.1382 11.1747 18.1441 11.1464C18.15 11.118 18.1477 11.0886 18.1376 11.0615C18.121 11.0115 18.0376 10.9814 18.0876 10.9314Z" fill="black"/>
<path d="M16.633 10.4212C16.5663 10.3878 16.5529 10.3411 16.5663 10.2944C16.5529 10.3278 16.5229 10.3411 16.4896 10.3411C16.4228 10.4846 16.3461 10.6147 16.2494 10.6147C16.1359 10.628 16.1526 10.7415 16.2327 10.7415C16.4095 10.7748 16.4896 10.7081 16.633 10.4212ZM15.0517 10.0376C15.0984 9.99085 15.0651 9.94081 15.035 9.92746C14.985 9.91078 14.8916 9.92746 14.8416 10.0042C14.8916 9.99085 14.9416 9.99085 14.955 10.0209C14.9717 10.0542 15.0017 10.0876 15.0517 10.0376ZM15.1318 9.75065C15.2419 9.75065 15.2752 9.76733 15.2886 9.81404C15.3053 9.8474 15.2752 9.8941 15.2419 9.8941C15.1952 9.8941 15.1451 9.86074 15.1618 9.8474C15.1785 9.81404 15.1785 9.76733 15.1285 9.74731L15.1318 9.75065ZM15.4487 10.0042C15.5288 10.0209 15.5621 9.97083 15.5154 9.91078C15.4988 9.86074 15.4487 9.83072 15.3686 9.84406C15.4487 9.8941 15.3686 9.97417 15.4487 10.0042ZM14.8582 10.2777C14.8726 10.3061 14.8966 10.3284 14.926 10.3407C14.9553 10.3529 14.9881 10.3543 15.0184 10.3445C15.0651 10.3245 15.0851 10.2777 15.0651 10.2444C15.0317 10.1977 14.985 10.181 14.9717 10.2444C14.9383 10.3111 14.8916 10.2944 14.8582 10.2777ZM15.0984 11.2519C15.0651 11.1885 14.9717 11.1885 14.8916 11.2519C14.925 11.2352 14.985 11.2519 15.0017 11.2852C15.0184 11.3186 15.0517 11.3186 15.0684 11.3186C15.0817 11.3019 15.1151 11.2852 15.0984 11.2519ZM15.2252 11.1585C15.2252 11.0784 15.1151 11.0584 15.0517 11.0917C15.0851 11.0917 15.1318 11.1251 15.1318 11.1585C15.1451 11.1918 15.1785 11.2052 15.1952 11.2052C15.2285 11.1885 15.2419 11.1718 15.2285 11.1585H15.2252ZM15.0651 11.4454C14.9717 11.4287 14.9216 11.5421 14.9216 11.6188C14.9383 11.5721 14.9883 11.5421 15.035 11.5555C15.0817 11.5555 15.0984 11.5421 15.0984 11.5088C15.1151 11.4754 15.0984 11.462 15.0651 11.442V11.4454ZM15.0817 11.7156C15.1151 11.7323 15.1485 11.6989 15.1618 11.6522C15.1618 11.6188 15.2285 11.6188 15.2419 11.6355C15.2752 11.6522 15.2752 11.7156 15.2252 11.7489C15.1918 11.7656 15.1151 11.7823 15.0817 11.7156ZM17.3036 11.2352C17.2702 11.2219 17.1935 11.1885 17.1301 11.2352C17.1768 11.2219 17.2102 11.2519 17.2235 11.2852C17.2235 11.3186 17.2735 11.3319 17.2902 11.3019C17.3036 11.2852 17.3236 11.2519 17.3036 11.2352ZM17.1601 11.3486C17.0967 11.3153 17.0167 11.3953 17 11.462C17.0326 11.4355 17.0718 11.4182 17.1134 11.412C17.1468 11.4287 17.1768 11.412 17.1768 11.3786C17.1935 11.3653 17.1935 11.3486 17.1601 11.3486ZM17.2435 11.4787C17.1935 11.4787 17.1301 11.5421 17.1301 11.6055C17.1434 11.5721 17.1768 11.5555 17.2102 11.5721C17.2435 11.5721 17.2902 11.5555 17.2902 11.5254C17.2902 11.4921 17.2735 11.4754 17.2402 11.4754L17.2435 11.4787ZM17.3836 11.6055C17.3503 11.5888 17.3036 11.6055 17.3036 11.6522C17.3036 11.6989 17.3036 11.7489 17.2902 11.7656C17.3236 11.7323 17.3536 11.7156 17.3836 11.6989C17.4003 11.6856 17.417 11.6355 17.3836 11.6055ZM19.1918 11.462C19.1584 11.4287 19.1117 11.4454 19.095 11.4754C19.0783 11.5088 19.0617 11.5888 19.095 11.6522C19.095 11.6188 19.1284 11.5721 19.1617 11.5721C19.2084 11.5555 19.2218 11.4921 19.1918 11.462ZM19.2885 11.5254C19.2218 11.5588 19.2218 11.6689 19.2718 11.7323C19.2718 11.6989 19.2885 11.6522 19.3185 11.6355C19.3686 11.6355 19.3853 11.5721 19.3686 11.5421C19.3352 11.5088 19.3019 11.5254 19.2885 11.5254ZM19.4787 11.5888C19.4453 11.5721 19.4119 11.6055 19.4119 11.6355C19.3986 11.6856 19.432 11.7489 19.4787 11.779C19.4787 11.7456 19.4953 11.7156 19.512 11.6989C19.5587 11.6655 19.5454 11.6055 19.4787 11.5888ZM19.6221 11.5721C19.5888 11.5721 19.5587 11.6188 19.5888 11.6689C19.6054 11.7022 19.6388 11.7156 19.7022 11.7022C19.6855 11.7022 19.6555 11.6522 19.6688 11.6355C19.6855 11.6022 19.6688 11.5721 19.6221 11.5721Z" fill="#073163"/>
<path d="M15.1785 14.5619L15.9791 12.0999L16.7798 14.5619L14.6814 13.044H17.2768L15.1785 14.5619Z" fill="#F9D050"/>
<path d="M15.3385 14.3384L16.9998 13.1241H14.9548L16.5995 14.3384L15.979 12.3901L15.3385 14.3384Z" fill="#024919"/>
<path d="M18.1843 14.5619L18.985 12.0999L19.7856 14.5619L17.6873 13.044H20.2827L18.1843 14.5619Z" fill="#F9D050"/>
<path d="M18.3443 14.3384L20.0057 13.1241H17.9607L19.6054 14.3384L18.9849 12.3901L18.3443 14.3384Z" fill="#024919"/>
<path d="M16.6797 16.3033L17.4804 13.8413L18.2811 16.3033L16.1827 14.7854H18.7781L16.6797 16.3033Z" fill="#F9D050"/>
<path d="M16.8398 16.0801L18.5012 14.8658H16.4562L18.1009 16.0801L17.4803 14.1318L16.8398 16.0801Z" fill="#024919"/>
<path d="M20.4695 9.54386V12.6597C20.4695 15.3619 19.1918 16.2894 17.4804 17.0233C15.769 16.2894 14.478 15.3619 14.478 12.6597V9.54053H20.4695V9.54386Z" stroke="black" stroke-width="0.0457464"/>
</g>
</g>
<defs>
<clipPath id="clip0_3053_1909">
<rect width="24" height="24" fill="white" transform="translate(-0.000488281)"/>
</clipPath>
<clipPath id="clip1_3053_1909">
<rect x="-0.000488281" width="24" height="24" rx="12" fill="white"/>
</clipPath>
</defs>
</svg>
