<svg width="24" height="24" viewBox="0 0 24 24" fill="none" xmlns="http://www.w3.org/2000/svg">
<g clip-path="url(#clip0_3053_1908)">
<mask id="mask0_3053_1908" style="mask-type:alpha" maskUnits="userSpaceOnUse" x="0" y="0" width="24" height="24">
<circle cx="12" cy="12" r="12" fill="#D9D9D9"/>
</mask>
<g mask="url(#mask0_3053_1908)">
</g>
<g clip-path="url(#clip1_3053_1908)">
<path d="M0 12C0 5.37258 5.37258 0 12 0C18.6274 0 24 5.37258 24 12C24 18.6274 18.6274 24 12 24C5.37258 24 0 18.6274 0 12Z" fill="white"/>
<path d="M7.66405 14.8124C7.66405 14.8124 7.6453 14.6765 7.89374 14.578C8.14217 14.4843 8.16093 14.1233 8.11405 13.8843C8.11405 13.8843 7.9828 14.114 7.82342 14.189C7.82342 14.189 7.56561 14.3249 7.55155 14.5827C7.55155 14.5827 7.55155 14.6765 7.5328 14.7468C7.52343 14.789 7.40624 14.428 7.62655 14.1562C7.84686 13.8796 7.9078 13.6546 7.73436 13.2187C7.73436 13.2187 7.71561 13.4812 7.54217 13.6358C7.36405 13.7858 7.3453 13.7999 7.3453 14.1608C7.3453 14.1608 7.3453 14.2874 7.28436 14.3296C7.28436 14.3296 7.14374 14.128 7.11093 14.0015C7.07343 13.8655 7.05936 13.814 7.21405 13.6593C7.21405 13.6593 7.71092 13.3358 7.35467 12.628C7.35467 12.628 7.34061 12.8765 7.16717 13.0171C6.99843 13.1577 7.01249 13.2562 7.00311 13.5046C6.99374 13.753 6.97499 13.739 6.95624 13.7718C6.95624 13.7718 6.64217 13.1905 6.88592 12.8812C7.12967 12.5718 7.26561 12.5062 6.99843 11.9296C6.99843 11.9296 7.0078 12.2249 6.79217 12.3702C6.57655 12.5155 6.62811 12.8624 6.62811 12.8624C6.62811 12.8624 6.64218 12.989 6.5953 13.0827C6.5953 13.0827 6.29061 12.4874 6.58124 12.1687C6.82967 11.8968 6.84843 11.7046 6.71249 11.3202C6.71249 11.3202 6.69843 11.4983 6.56249 11.5968C6.42186 11.6905 6.31874 11.7843 6.34218 12.1593C6.34218 12.1593 6.35155 12.4171 6.31874 12.4874C6.31874 12.4874 6.19218 12.253 6.15468 12.0983C6.11718 11.9437 6.1078 11.8546 6.20155 11.6999C6.2953 11.5452 6.6703 11.0999 6.2203 10.4624C6.2203 10.4624 6.20624 10.6687 6.09374 10.8562C5.98124 11.0437 6.0328 11.264 6.05624 11.4327C6.07968 11.6015 5.99999 11.7655 5.99999 11.7655C5.99999 11.7655 5.8078 11.4093 5.8453 11.0015C5.89218 10.5937 5.72343 10.2515 5.34374 10.0171C5.34374 10.0171 5.07186 10.6499 5.44686 10.9733C5.44686 10.9733 5.76561 11.2921 5.8453 11.6765C5.8453 11.6765 5.60155 11.6483 5.38593 11.2218C5.1703 10.7952 4.71093 10.8655 4.6828 10.8608C4.6828 10.8608 4.75311 11.5171 5.45155 11.7046C5.45155 11.7046 5.90155 11.7843 5.98124 12.1124C5.98124 12.1124 6.05624 12.3374 6.08905 12.4593C6.08905 12.4593 5.94843 12.403 5.81718 12.2108C5.68593 12.014 5.70468 11.9905 5.26405 11.9483C5.26405 11.9483 5.08593 11.9296 4.99218 11.803C4.99218 11.803 5.17968 12.5015 5.65311 12.4968C5.65311 12.4968 6.08905 12.4499 6.3328 13.0218L6.2203 12.9468C6.15936 12.8999 5.9953 12.8202 5.67655 12.8624C5.3578 12.9046 5.26874 12.8437 5.18905 12.8155C5.18905 12.8155 5.51249 13.4108 5.96718 13.2374C6.42186 13.0593 6.64218 13.6968 6.64686 13.7108C6.64686 13.7108 6.58593 13.664 6.50624 13.5843C6.42655 13.5046 6.2578 13.4108 5.94374 13.5093C5.94374 13.5093 5.71405 13.5983 5.48436 13.528C5.48436 13.528 5.70468 13.9546 6.22499 13.8843C6.74061 13.8093 6.87655 14.2687 6.87655 14.2687L6.75936 14.189C6.71249 14.1515 6.53436 14.0483 6.15936 14.1608C5.78436 14.2733 5.64843 14.1421 5.64843 14.1421C5.64843 14.1421 5.85936 14.5218 6.2578 14.564C6.2578 14.564 6.47811 14.564 6.57655 14.5312C6.66706 14.4928 6.7681 14.4873 6.86224 14.5156C6.95638 14.5438 7.03771 14.604 7.09218 14.6858C7.09218 14.6858 7.0453 14.6952 6.9703 14.6624C6.9703 14.6624 6.70311 14.5687 6.50155 14.7374C6.50155 14.7374 6.32342 14.9249 6.06561 14.8874C6.06561 14.8874 6.39374 15.2062 6.92343 14.9343C6.92343 14.9343 7.10155 14.8077 7.22811 14.9062C7.35468 15.0046 7.66405 14.8124 7.66405 14.8124Z" fill="#369443" stroke="#010002" stroke-width="0.15" stroke-miterlimit="10"/>
<path d="M10.5843 6.89063C10.5843 6.89063 10.5234 6.34219 10.9593 6.29063C11.4093 6.23907 11.6343 6.33282 11.6343 6.33282L11.8359 6.73125L11.7656 7.00313L11.4843 7.12969C11.4843 7.12969 11.5312 6.71719 11.1562 6.70782C11.0625 6.70782 11.0015 6.74532 10.8515 6.72188C10.7015 6.69844 10.6171 6.8625 10.5843 6.88594V6.89063Z" fill="#F4C53D" stroke="#010002" stroke-width="0.15" stroke-miterlimit="10"/>
<path d="M13.6406 8.23602C13.575 8.3204 13.3172 8.34852 13.3172 8.34852C13.3172 8.34852 13.5844 8.55009 13.6969 8.8454C13.814 9.13602 10.6125 8.8454 10.6125 8.8454C10.6125 8.8454 10.7531 8.74696 10.8469 8.56415C10.8469 8.56415 10.7062 8.61102 10.5609 8.4704C10.5609 8.4704 10.6687 8.5079 10.8047 8.29696C10.8047 8.29696 11.0109 8.03446 11.1562 7.96415C11.1562 7.96415 11.0859 8.00634 10.9265 7.91727C10.9265 7.91727 11.2078 7.87977 11.3015 7.40634C11.3015 7.40634 11.3203 7.30321 11.4281 7.14852C11.5312 6.99852 11.5078 7.18134 11.7047 6.94696C11.7047 6.94696 11.7937 6.77821 11.714 6.67977C11.6344 6.58134 11.5547 6.61415 11.3906 6.51571C11.2265 6.41727 11.1562 6.36571 11.2125 6.21571C11.2687 6.06571 11.4094 6.08915 11.4328 6.08915C11.4562 6.08915 11.4656 5.9579 11.639 5.86884C11.874 5.79916 12.1234 5.79431 12.3609 5.85477C12.4312 5.89696 12.7172 5.98134 12.8812 6.39852C13.05 6.8204 12.8344 6.97977 13.2937 7.61727C13.2937 7.61727 13.1062 7.65477 12.9937 7.61727C12.9937 7.61727 13.2281 8.03915 13.6406 8.23602Z" fill="#F4C53D" stroke="#010002" stroke-width="0.15" stroke-miterlimit="10"/>
<path d="M11.6578 6.45942C11.2921 6.44067 11.4328 6.08911 11.4328 6.08911" stroke="#010002" stroke-width="0.15" stroke-miterlimit="10"/>
<path d="M12.3 6.50635C12.3 6.50635 12.2343 6.47354 12.1828 6.40323C12.1031 6.3001 11.9297 6.25323 11.8359 6.34698C11.8359 6.34698 11.7422 6.45479 11.6578 6.45948C11.6578 6.45948 11.7515 6.4876 11.8172 6.54854C11.8797 6.61417 11.9578 6.64542 12.0515 6.64229C12.1453 6.62354 12.164 6.57198 12.2062 6.54385C12.2531 6.51104 12.3 6.50635 12.3 6.50635Z" fill="#F4C53D" stroke="#010002" stroke-width="0.15" stroke-miterlimit="10"/>
<path d="M7.60782 15.6187C7.60782 15.6187 7.59845 15.3843 7.89845 15.3608L8.7797 16.589C8.7797 16.589 8.74688 16.6687 8.34845 16.6593C8.34845 16.6593 8.30157 16.6593 8.28282 16.7062C8.25001 16.7812 7.60782 15.6187 7.60782 15.6187Z" fill="#369443" stroke="#010002" stroke-width="0.15" stroke-miterlimit="10"/>
<path d="M8.57615 14.1912C8.57615 14.1912 8.29444 14.6745 7.954 14.6824C7.954 14.6824 7.36855 14.6112 7.20314 14.7642C7.0874 14.8709 6.96941 14.959 6.92086 15.2317C6.87343 15.5044 7.01401 15.5631 7.04732 15.5749C7.04732 15.5749 7.07329 15.7697 7.2658 15.7189C7.2658 15.7189 7.27709 15.9221 7.61696 15.8245C7.95683 15.7268 8.09853 15.7579 8.16459 15.4191C8.23177 15.0798 8.29331 15.0855 8.35371 15.0448C8.43501 14.99 8.58801 14.9387 8.70148 14.8732C8.80311 14.8145 9.19378 14.6157 9.32702 14.6005C9.46026 14.5847 9.4309 14.1364 9.4309 14.1364H9.08652L8.91997 13.8908L8.57615 14.1912ZM9.66011 11.767C9.66011 11.767 9.31573 12.0475 9.02667 11.767C9.02667 11.767 8.91037 11.907 8.67664 11.8663C8.44405 11.8251 8.40509 11.7026 8.38307 11.6326C8.38307 11.6326 8.18096 11.75 8.01046 11.6569C7.84109 11.5643 7.84109 11.4237 7.84109 11.4237C7.84109 11.4237 7.5447 11.4824 7.39283 11.2814C7.24096 11.081 7.33355 10.8823 7.41541 10.8586C7.41541 10.8586 7.0953 10.9427 7.0078 10.6678C6.9845 10.6064 6.9809 10.5392 6.99749 10.4757C7.01408 10.4122 7.05004 10.3554 7.10039 10.3132C7.10039 10.3132 6.4263 10.3098 6.14966 10.0987C6.14966 10.0987 5.91989 9.95415 6.05707 9.80228C6.05707 9.80228 5.45017 9.70518 5.2983 9.46355C5.2983 9.46355 5.23168 9.39693 5.2537 9.28006C5.2537 9.28006 5.25765 9.21401 5.32427 9.21006C5.32427 9.21006 4.63212 9.10279 4.43226 8.87471C4.43226 8.87471 4.33629 8.7697 4.38428 8.62912C4.38428 8.62912 4.39444 8.59243 4.41081 8.56702C4.41081 8.56702 3.78076 8.43435 3.47025 8.15376C3.47025 8.15376 3.29072 7.99399 3.38331 7.77946C3.38331 7.77946 2.3304 7.49153 2.57429 7.02746C2.57429 7.02746 2.08199 6.86769 2.23781 6.42338C2.23781 6.42338 1.83076 6.21675 2.00803 5.8893C2.17797 5.57597 2.70019 5.94406 3.31782 6.11513C3.31782 6.11513 4.99118 6.6413 5.81488 6.78131L8.15555 10.2664L9.52123 10.7925L9.66011 11.767Z" fill="#F4C53D" stroke="#010002" stroke-width="0.15055"/>
<path d="M9.67646 9.20049C9.67646 9.20049 9.45684 9.03564 9.0656 9.22928C9.0656 9.22928 8.93406 9.32018 8.83018 9.22082C8.80765 9.19932 8.79018 9.1731 8.779 9.14404C8.76783 9.11498 8.76324 9.08381 8.76556 9.05276C8.76788 9.02172 8.77706 8.99157 8.79243 8.9645C8.8078 8.93742 8.82898 8.9141 8.85445 8.89619C9.14633 8.67996 9.25416 8.03128 8.81042 7.76199C8.81042 7.76199 8.16682 7.38034 5.80525 6.77965C5.80525 6.77965 5.60765 6.72432 5.50152 6.75085C5.45017 6.76395 5.40332 6.79071 5.36595 6.82828C5.32857 6.86585 5.30207 6.91284 5.28924 6.96426C5.28924 6.96426 5.1831 7.26517 5.53878 7.43736C5.53878 7.43736 5.69911 7.51076 5.86453 7.55818C5.86453 7.55818 5.68274 7.51866 5.60483 7.69819C5.53144 7.86982 5.6387 8.0454 5.9718 8.15831C5.9718 8.15831 6.06213 8.19331 6.19028 8.22436C6.19028 8.22436 5.90518 8.30622 6.04237 8.53657C6.04237 8.53657 6.16431 8.7782 6.59564 8.82111C6.59564 8.82111 6.27384 8.85611 6.50079 9.1621C6.50079 9.1621 6.60072 9.32978 6.91518 9.39188C6.91518 9.39188 6.67694 9.39978 6.79662 9.61375C6.91744 9.82828 7.20028 9.9491 7.47918 9.96886C7.47918 9.96886 7.62992 9.97676 7.73549 9.95305C7.73549 9.95305 7.47015 10.0857 7.62596 10.3076C7.62596 10.3076 7.74057 10.4657 8.02737 10.4578C8.02737 10.4578 7.95341 10.7062 8.16343 10.7999C8.32715 10.8733 8.46321 10.7559 8.46321 10.7559C8.46321 10.7559 8.40788 11.0218 8.64669 11.1155C8.64669 11.1155 8.76582 11.177 8.94365 11.1155C8.94365 11.1155 9.07915 11.4198 9.56241 11.2058C10.0457 10.993 9.67646 9.20106 9.67646 9.20106V9.20049ZM9.70468 11.9635C9.70468 11.9635 9.63411 12.344 9.07237 12.8227C9.07237 12.8227 8.63879 13.2049 8.64952 13.6453C8.66081 14.0941 8.57217 14.1444 8.40167 14.2962C8.40167 14.2962 8.7534 14.3239 8.92333 14.0896C8.92333 14.0896 8.91599 14.4791 8.86405 14.5147C8.86405 14.5147 8.97471 14.5215 9.13448 14.347C9.13448 14.347 9.23045 14.2454 9.31965 14.2065C9.31965 14.2065 9.21577 14.4758 9.29707 14.7253C9.29707 14.7253 9.32304 14.6276 9.46023 14.5847C9.46023 14.5847 9.70864 14.5339 9.80461 14.1754C9.80461 14.1754 9.86728 13.9383 10.2563 13.7272C10.2563 13.7272 10.6966 13.5612 10.6853 13.3444C10.674 13.127 9.70525 11.9635 9.70525 11.9635H9.70468Z" fill="#F4C53D" stroke="#010002" stroke-width="0.15055"/>
<path d="M11.7462 16.8689C11.7462 16.8689 11.6451 17.3138 11.2945 17.2782C11.2945 17.2782 11.0467 17.2545 11.0653 16.8412C11.0653 16.8412 10.6989 17.0366 10.6396 16.5533C10.6396 16.5533 10.3065 16.6307 10.3105 16.179C10.3105 16.179 9.99999 16.2332 10.0367 15.8318C10.0367 15.8318 9.69964 15.9221 9.69964 15.5439C9.69964 15.5439 8.91151 15.4129 10.5544 13.9146L12.02 14.7874L11.7462 16.8689Z" fill="#F4C53D" stroke="#010002" stroke-width="0.15055" stroke-miterlimit="10"/>
<path d="M11.9093 14.8708C11.9093 14.8708 11.6649 15.0876 11.491 14.7636C11.491 14.7636 11.2539 14.7523 11.2172 14.5728C11.2172 14.5728 11.0247 14.5536 10.9874 14.3701C10.9874 14.3701 10.7249 14.343 10.7322 14.1211C10.7322 14.1211 10.2546 14.0838 10.7322 13.543C11.2099 13.0021 12.02 14.4406 12.02 14.4406L11.9093 14.8708ZM12.1815 14.7365C12.4186 14.7365 12.6867 16.2156 12.6173 17.1071C12.5919 17.4306 12.4186 17.6948 12.1815 17.6948C11.9444 17.6948 11.7716 17.4306 11.7468 17.1071C11.6767 16.2156 11.9449 14.7365 12.1815 14.7365Z" fill="#F4C53D" stroke="#010002" stroke-width="0.15055"/>
<path d="M12.1815 15.2108C12.3623 15.2108 12.5089 14.9934 12.5089 14.7253C12.5089 14.4571 12.3623 14.2397 12.1815 14.2397C12.0006 14.2397 11.854 14.4571 11.854 14.7253C11.854 14.9934 12.0006 15.2108 12.1815 15.2108Z" fill="#F4C53D" stroke="#010002" stroke-width="0.15055"/>
<path d="M11.0653 16.8412C11.0653 16.8412 11.1026 16.0581 11.7812 14.9352M10.6396 16.5532C10.6396 16.5532 10.5341 16.101 11.491 14.7636C11.491 14.7636 11.3798 14.4446 11.7202 14.2397M10.3105 16.1789C10.3105 16.1789 10.2806 15.6895 11.2172 14.5728C11.2172 14.5728 11.1342 14.2848 11.4735 14.0545M10.0367 15.8317C10.0367 15.8317 10.0717 15.3372 10.9874 14.3701C10.9874 14.3701 10.9422 14.0743 11.2697 13.8908M9.7002 15.5438C9.7002 15.5438 9.76625 14.9787 10.7322 14.1211C10.7322 14.1211 10.6989 13.8987 11.0207 13.6729" stroke="#010002" stroke-width="0.15055" stroke-miterlimit="10"/>
<path d="M2.23779 6.42334C2.23779 6.42334 2.996 6.86257 5.35926 7.3018M2.57427 7.02742C2.57427 7.02742 4.62759 7.69699 5.58396 7.77942M3.38273 7.77942C3.38273 7.77942 4.5875 8.15768 5.99834 8.39649M4.41079 8.56755C4.41079 8.56755 5.77139 8.89443 6.42177 8.94863M5.32426 9.21002C5.32426 9.21002 6.4754 9.44996 6.76671 9.47875M6.05706 9.80225C6.05706 9.80225 6.89713 9.92984 7.23135 9.92306M7.10037 10.3126C7.10037 10.3126 7.44024 10.2968 7.6034 10.2697M7.41483 10.8585C7.41483 10.8585 7.70389 10.7806 7.87382 10.6717M7.84051 11.4237C7.84051 11.4237 8.06295 11.3379 8.17022 11.1041M8.38306 11.6326C8.38306 11.6326 8.55468 11.4784 8.56597 11.3068M9.02666 11.7669C9.02666 11.7669 8.9623 11.711 9.00633 11.4694M8.94367 11.1149C8.94367 11.1149 8.90979 11.046 8.92108 10.9365M7.72986 7.65465C7.72986 7.65465 8.11828 7.81047 8.24756 8.025C8.37685 8.23954 8.29216 8.44786 8.24756 8.56698C8.22554 8.62739 7.95173 9.15526 8.27353 9.53747M7.73494 9.95186C7.73494 9.95186 7.7372 9.95016 7.87382 9.90669M6.91519 9.39068C6.91519 9.39068 7.14666 9.43697 7.37418 9.43923M6.59509 8.81934C6.59509 8.81934 6.86721 8.84701 7.12295 8.84305M6.1903 8.22316C6.1903 8.22316 6.58267 8.30107 6.79325 8.30503M5.86454 7.55811C5.86454 7.55811 6.34837 7.69586 6.708 7.74498M7.50742 8.02952C7.50742 8.02952 7.15965 8.35301 7.57799 8.65336C7.57799 8.65336 7.4041 8.92605 7.75188 9.21058M7.65929 9.34495C7.65929 9.34495 7.60735 9.86548 8.24417 9.86548C8.24417 9.86548 8.12166 10.329 8.73647 10.3137C8.73647 10.3137 8.80648 10.6841 9.25022 10.6096M8.27297 14.6829C8.27297 14.6829 8.17191 14.7055 7.95342 14.6829M7.33918 14.9556C7.33918 14.9556 7.03206 14.9087 7.04674 15.5755M7.52436 15.1074C7.52436 15.1074 7.24659 15.0724 7.26466 15.7194M10.2043 13.5487C10.2043 13.5487 10.0711 13.5758 9.97851 13.6814C9.88592 13.7869 9.70865 13.7666 9.70865 13.7666C9.70865 13.7666 9.80462 13.6887 9.8385 13.4939C9.87124 13.2991 9.97907 13.2404 9.97907 13.2404M9.66123 13.0564C9.66123 13.0564 9.52799 13.0835 9.4354 13.1885C9.34281 13.2941 9.16498 13.2743 9.16498 13.2743C9.16498 13.2743 9.26095 13.1964 9.29482 13.0016C9.3287 12.8068 9.4354 12.7481 9.4354 12.7481M9.5692 13.8123C9.5692 13.8123 9.4529 13.8366 9.37217 13.9281C9.29144 14.0201 9.13618 14.0032 9.13618 14.0032C9.13618 14.0032 9.22087 13.9354 9.24909 13.7649C9.27845 13.595 9.37217 13.5436 9.37217 13.5436" stroke="#010002" stroke-width="0.15055"/>
<path d="M15.6958 14.1912C15.6958 14.1912 15.9775 14.6745 16.3179 14.6824C16.3179 14.6824 16.9034 14.6112 17.0688 14.7642C17.1845 14.8709 17.3025 14.959 17.3511 15.2317C17.3985 15.5044 17.2579 15.5631 17.2246 15.5749C17.2246 15.5749 17.1986 15.7697 17.0061 15.7189C17.0061 15.7189 16.9948 15.9221 16.655 15.8245C16.3151 15.7268 16.1734 15.7579 16.1073 15.4191C16.0401 15.0798 15.9786 15.0855 15.9182 15.0448C15.8369 14.99 15.6839 14.9387 15.5704 14.8732C15.4688 14.8145 15.0781 14.6157 14.9449 14.6005C14.8117 14.5847 14.841 14.1364 14.841 14.1364H15.1854L15.3519 13.8908L15.6958 14.1912ZM14.6118 11.767C14.6118 11.767 14.9562 12.0475 15.2452 11.767C15.2452 11.767 15.3615 11.907 15.5953 11.8663C15.8279 11.8251 15.8668 11.7026 15.8888 11.6326C15.8888 11.6326 16.091 11.75 16.2615 11.6569C16.4308 11.5643 16.4308 11.4237 16.4308 11.4237C16.4308 11.4237 16.7272 11.4824 16.8791 11.2814C17.0309 11.081 16.9384 10.8823 16.8565 10.8586C16.8565 10.8586 17.1766 10.9427 17.2641 10.6678C17.2874 10.6064 17.291 10.5392 17.2744 10.4757C17.2578 10.4122 17.2219 10.3554 17.1715 10.3132C17.1715 10.3132 17.8456 10.3098 18.1222 10.0987C18.1222 10.0987 18.352 9.95415 18.2148 9.80228C18.2148 9.80228 18.8217 9.70518 18.9736 9.46355C18.9736 9.46355 19.0402 9.39693 19.0182 9.28006C19.0182 9.28006 19.0143 9.21401 18.9476 9.21006C18.9476 9.21006 19.6398 9.10279 19.8396 8.87471C19.8396 8.87471 19.9356 8.7697 19.8876 8.62912C19.8876 8.62912 19.8775 8.59243 19.8611 8.56702C19.8611 8.56702 20.4912 8.43435 20.8017 8.15376C20.8017 8.15376 20.9812 7.99399 20.8886 7.77946C20.8886 7.77946 21.9415 7.49153 21.6976 7.02746C21.6976 7.02746 22.1899 6.86769 22.0341 6.42338C22.0341 6.42338 22.4412 6.21675 22.2639 5.8893C22.0939 5.57597 21.5717 5.94406 20.9541 6.11513C20.9541 6.11513 19.2807 6.6413 18.457 6.78131L16.1164 10.2664L14.7507 10.7925L14.6118 11.767Z" fill="#F4C53D" stroke="#010002" stroke-width="0.15055"/>
<path d="M14.5955 9.20049C14.5955 9.20049 14.8151 9.03564 15.2063 9.22928C15.2063 9.22928 15.3379 9.32018 15.4417 9.22082C15.4643 9.19932 15.4817 9.1731 15.4929 9.14404C15.5041 9.11498 15.5087 9.08381 15.5064 9.05276C15.504 9.02172 15.4949 8.99157 15.4795 8.9645C15.4641 8.93742 15.4429 8.9141 15.4175 8.89619C15.1256 8.67996 15.0177 8.03128 15.4615 7.76199C15.4615 7.76199 16.1051 7.38034 18.4667 6.77965C18.4667 6.77965 18.6643 6.72432 18.7704 6.75085C18.8217 6.76395 18.8686 6.79071 18.906 6.82828C18.9433 6.86585 18.9698 6.91284 18.9827 6.96426C18.9827 6.96426 19.0888 7.26517 18.7331 7.43736C18.7331 7.43736 18.5728 7.51076 18.4074 7.55818C18.4074 7.55818 18.5892 7.51866 18.6671 7.69819C18.7405 7.86982 18.6332 8.0454 18.3001 8.15831C18.3001 8.15831 18.2098 8.19331 18.0816 8.22436C18.0816 8.22436 18.3667 8.30622 18.2295 8.53657C18.2295 8.53657 18.1076 8.7782 17.6763 8.82111C17.6763 8.82111 17.9981 8.85611 17.7711 9.1621C17.7711 9.1621 17.6712 9.32978 17.3567 9.39188C17.3567 9.39188 17.595 9.39978 17.4753 9.61375C17.3545 9.82828 17.0716 9.9491 16.7927 9.96886C16.7927 9.96886 16.642 9.97676 16.5364 9.95305C16.5364 9.95305 16.8018 10.0857 16.6459 10.3076C16.6459 10.3076 16.5313 10.4657 16.2445 10.4578C16.2445 10.4578 16.3185 10.7062 16.1085 10.7999C15.9448 10.8733 15.8087 10.7559 15.8087 10.7559C15.8087 10.7559 15.864 11.0218 15.6252 11.1155C15.6252 11.1155 15.5061 11.177 15.3283 11.1155C15.3283 11.1155 15.1928 11.4198 14.7095 11.2058C14.2262 10.993 14.5955 9.20106 14.5955 9.20106V9.20049ZM14.5672 11.9635C14.5672 11.9635 14.6378 12.344 15.1995 12.8227C15.1995 12.8227 15.6331 13.2049 15.6224 13.6453C15.6111 14.0941 15.6997 14.1444 15.8702 14.2962C15.8702 14.2962 15.5185 14.3239 15.3486 14.0896C15.3486 14.0896 15.3559 14.4791 15.4079 14.5147C15.4079 14.5147 15.2972 14.5215 15.1374 14.347C15.1374 14.347 15.0415 14.2454 14.9523 14.2065C14.9523 14.2065 15.0561 14.4758 14.9748 14.7253C14.9748 14.7253 14.9489 14.6276 14.8117 14.5847C14.8117 14.5847 14.5633 14.5339 14.4673 14.1754C14.4673 14.1754 14.4046 13.9383 14.0156 13.7272C14.0156 13.7272 13.5753 13.5612 13.5866 13.3444C13.5979 13.127 14.5667 11.9635 14.5667 11.9635H14.5672Z" fill="#F4C53D" stroke="#010002" stroke-width="0.15055"/>
<path d="M12.5257 16.8689C12.5257 16.8689 12.6268 17.3138 12.9774 17.2782C12.9774 17.2782 13.2252 17.2545 13.2066 16.8412C13.2066 16.8412 13.573 17.0366 13.6323 16.5533C13.6323 16.5533 13.9654 16.6307 13.9614 16.179C13.9614 16.179 14.2719 16.2332 14.2352 15.8318C14.2352 15.8318 14.5723 15.9221 14.5723 15.5439C14.5723 15.5439 15.3604 15.4129 13.7175 13.9146L12.2519 14.7874L12.5257 16.8689Z" fill="#F4C53D" stroke="#010002" stroke-width="0.15055" stroke-miterlimit="10"/>
<path d="M12.3626 14.8708C12.3626 14.8708 12.607 15.0876 12.7809 14.7636C12.7809 14.7636 13.018 14.7523 13.0547 14.5728C13.0547 14.5728 13.2472 14.5536 13.2845 14.3701C13.2845 14.3701 13.547 14.343 13.5397 14.1211C13.5397 14.1211 14.0173 14.0838 13.5397 13.543C13.0621 13.0021 12.2519 14.4406 12.2519 14.4406L12.3626 14.8708ZM12.0904 14.7365C11.8533 14.7365 11.5852 16.2156 11.6546 17.1071C11.68 17.4306 11.8533 17.6948 12.0904 17.6948C12.3276 17.6948 12.5003 17.4306 12.5252 17.1071C12.5952 16.2156 12.327 14.7365 12.0904 14.7365Z" fill="#F4C53D" stroke="#010002" stroke-width="0.15055"/>
<path d="M12.0905 15.2108C11.9096 15.2108 11.763 14.9934 11.763 14.7253C11.763 14.4571 11.9096 14.2397 12.0905 14.2397C12.2713 14.2397 12.4179 14.4571 12.4179 14.7253C12.4179 14.9934 12.2713 15.2108 12.0905 15.2108Z" fill="#F4C53D" stroke="#010002" stroke-width="0.15055"/>
<path d="M13.2066 16.8412C13.2066 16.8412 13.1693 16.0581 12.4907 14.9352M13.6323 16.5532C13.6323 16.5532 13.7379 16.101 12.7809 14.7636C12.7809 14.7636 12.8921 14.4446 12.5517 14.2397M13.9614 16.1789C13.9614 16.1789 13.9913 15.6895 13.0547 14.5728C13.0547 14.5728 13.1377 14.2848 12.7984 14.0545M14.2352 15.8317C14.2352 15.8317 14.2002 15.3372 13.2845 14.3701C13.2845 14.3701 13.3297 14.0743 13.0022 13.8908M14.5717 15.5438C14.5717 15.5438 14.5057 14.9787 13.5397 14.1211C13.5397 14.1211 13.573 13.8987 13.2512 13.6729" stroke="#010002" stroke-width="0.15055" stroke-miterlimit="10"/>
<path d="M22.0341 6.42334C22.0341 6.42334 21.2759 6.86257 18.9127 7.3018M21.6976 7.02742C21.6976 7.02742 19.6443 7.69699 18.688 7.77942M20.8892 7.77942C20.8892 7.77942 19.6844 8.15768 18.2736 8.39649M19.8611 8.56755C19.8611 8.56755 18.5005 8.89443 17.8501 8.94863M18.9477 9.21002C18.9477 9.21002 17.7965 9.44996 17.5052 9.47875M18.2149 9.80225C18.2149 9.80225 17.3748 9.92984 17.0406 9.92306M17.1715 10.3126C17.1715 10.3126 16.8317 10.2968 16.6685 10.2697M16.8571 10.8585C16.8571 10.8585 16.568 10.7806 16.3981 10.6717M16.4314 11.4237C16.4314 11.4237 16.209 11.3379 16.1017 11.1041M15.8889 11.6326C15.8889 11.6326 15.7172 11.4784 15.7059 11.3068M15.2453 11.7669C15.2453 11.7669 15.3096 11.711 15.2656 11.4694M15.3282 11.1149C15.3282 11.1149 15.3621 11.046 15.3508 10.9365M16.5421 7.65465C16.5421 7.65465 16.1536 7.81047 16.0244 8.025C15.8951 8.23954 15.9798 8.44786 16.0244 8.56698C16.0464 8.62739 16.3202 9.15526 15.9984 9.53747M16.537 9.95186C16.537 9.95186 16.5347 9.95016 16.3981 9.90669M17.3567 9.39068C17.3567 9.39068 17.1252 9.43697 16.8977 9.43923M17.6768 8.81934C17.6768 8.81934 17.4047 8.84701 17.149 8.84305M18.0816 8.22316C18.0816 8.22316 17.6892 8.30107 17.4787 8.30503M18.4074 7.55811C18.4074 7.55811 17.9235 7.69586 17.5639 7.74498M16.7645 8.02952C16.7645 8.02952 17.1123 8.35301 16.6939 8.65336C16.6939 8.65336 16.8678 8.92605 16.52 9.21058M16.6126 9.34495C16.6126 9.34495 16.6646 9.86548 16.0277 9.86548C16.0277 9.86548 16.1502 10.329 15.5354 10.3137C15.5354 10.3137 15.4654 10.6841 15.0217 10.6096M15.9989 14.6829C15.9989 14.6829 16.1 14.7055 16.3185 14.6829M16.9327 14.9556C16.9327 14.9556 17.2399 14.9087 17.2252 15.5755M16.7476 15.1074C16.7476 15.1074 17.0253 15.0724 17.0073 15.7194M14.0676 13.5487C14.0676 13.5487 14.2008 13.5758 14.2934 13.6814C14.386 13.7869 14.5633 13.7666 14.5633 13.7666C14.5633 13.7666 14.4673 13.6887 14.4334 13.4939C14.4007 13.2991 14.2928 13.2404 14.2928 13.2404M14.6107 13.0564C14.6107 13.0564 14.7439 13.0835 14.8365 13.1885C14.9291 13.2941 15.1069 13.2743 15.1069 13.2743C15.1069 13.2743 15.011 13.1964 14.9771 13.0016C14.9432 12.8068 14.8365 12.7481 14.8365 12.7481M14.7027 13.8123C14.7027 13.8123 14.819 13.8366 14.8997 13.9281C14.9805 14.0201 15.1357 14.0032 15.1357 14.0032C15.1357 14.0032 15.051 13.9354 15.0228 13.7649C14.9935 13.595 14.8997 13.5436 14.8997 13.5436" stroke="#010002" stroke-width="0.15055"/>
<path d="M17.7985 12.7829L17.475 12.5954L16.9406 14.9157L16.7203 14.7563L17.2406 12.5345L16.875 12.5438L17.7422 10.9595L17.7985 12.7876V12.7829ZM19.0641 13.411L18.8625 13.0829L17.25 14.9907L17.0766 14.7938L18.6844 12.9188L18.3563 12.7407L19.8281 11.7704L19.0641 13.411Z" fill="#0081C6" stroke="#010002" stroke-width="0.15" stroke-miterlimit="10"/>
<path d="M18.7406 12.3469L18.4734 12.075L17.0297 14.85L16.8094 14.7188L18.2625 11.9532L17.9063 11.8594L19.1297 10.5657L18.7406 12.3469ZM16.6734 15.6985L16.5656 16.1391L16.8609 16.4344L16.4391 18.1969L16.0688 17.7L15.5203 17.9579L15.9422 16.1907L16.3266 16.0829L16.425 15.6422C16.425 15.6422 16.5422 15.5954 16.6734 15.6985Z" fill="#0081C6" stroke="#010002" stroke-width="0.15" stroke-miterlimit="10"/>
<path d="M16.7719 15.4031L16.561 15.8015L16.7719 16.1671L15.9328 17.7609L15.6985 17.175L15.1031 17.2734L15.9422 15.6796H16.3406L16.5469 15.2859C16.5469 15.2859 16.6969 15.2859 16.7719 15.4031Z" fill="#0081C6" stroke="#010002" stroke-width="0.15" stroke-miterlimit="10"/>
<path d="M16.8094 15.5203L16.2422 16.2422L16.3734 16.6453L15.2156 18L15.1078 17.3766L14.5078 17.3297L15.6656 15.975L16.0547 16.0687L16.6547 15.3094C16.6547 15.3094 16.8187 15.3891 16.8094 15.5203ZM2.45625 13.8328C2.59219 13.7766 2.69062 13.725 2.69062 13.5797C2.69062 13.5484 2.67031 13.4734 2.62969 13.3547L1.725 10.5844C1.69425 10.482 1.65667 10.3817 1.6125 10.2844C1.57031 10.2047 1.49062 10.1719 1.38281 10.1297H2.53594C2.40937 10.1859 2.29687 10.2328 2.30156 10.3641C2.30156 10.4203 2.31406 10.4938 2.33906 10.5844L3.0375 12.75L3.73125 10.5797C3.7625 10.4859 3.77812 10.4141 3.77812 10.3641C3.77344 10.2234 3.65156 10.1766 3.53437 10.125H4.65469C4.55156 10.1672 4.46719 10.1953 4.425 10.2797C4.40312 10.3141 4.36562 10.4141 4.3125 10.5797L3.40781 13.3453C3.3808 13.4215 3.36041 13.5 3.34687 13.5797C3.34687 13.5797 3.30469 13.7531 3.58125 13.8281L2.45625 13.8328ZM21.7781 13.5516V10.4109C21.78 10.3685 21.7702 10.3264 21.75 10.2891C21.7359 10.2562 21.6562 10.1766 21.5437 10.1297H22.5844C22.5012 10.1585 22.429 10.2126 22.3781 10.2844C22.357 10.3231 22.3473 10.3669 22.35 10.4109V13.5516C22.35 13.6016 22.3594 13.6437 22.3781 13.6781C22.3969 13.7062 22.4719 13.7813 22.5844 13.8328H21.5437C21.6562 13.7859 21.7312 13.7062 21.75 13.6781C21.7687 13.6469 21.7781 13.6031 21.7781 13.5469V13.5516Z" fill="#0081C6" stroke="#010002" stroke-width="0.15" stroke-miterlimit="10"/>
<path d="M12.1828 14.6157C12.1828 14.6157 14.9578 13.3829 14.9672 10.5376H9.39374C9.40311 13.3829 12.1828 14.6157 12.1828 14.6157Z" fill="white" stroke="#010002" stroke-width="0.15"/>
<path d="M9.82501 10.5376V12.3563C9.82501 12.3563 10.0359 12.7782 10.2516 13.0454V10.5376H9.82501ZM10.6828 10.5376V13.5376C10.6828 13.5376 10.95 13.8001 11.1094 13.9267V10.5376H10.6828ZM11.5359 10.5376V14.2407C11.5359 14.2407 11.8453 14.4423 11.9672 14.5079V10.5376H11.5359ZM14.5359 10.5376V12.3563C14.5359 12.3563 14.325 12.7782 14.1094 13.0454V10.5376H14.5359ZM13.6781 10.5376V13.5376C13.6781 13.5376 13.4109 13.8001 13.2563 13.9267V10.5376H13.6781ZM12.825 10.5376V14.2407C12.825 14.2407 12.5156 14.4423 12.3938 14.5079V10.5376H12.825Z" fill="#A60032" stroke="#010002" stroke-width="0.15"/>
<path d="M14.9672 8.46567C14.9672 8.46567 13.6031 9.17817 12.1828 8.40942C10.7578 9.17817 9.39374 8.46567 9.39374 8.46567V10.5375H14.9672V8.46567Z" fill="#162667" stroke="#010002" stroke-width="0.15" stroke-miterlimit="10"/>
</g>
</g>
<defs>
<clipPath id="clip0_3053_1908">
<rect width="24" height="24" fill="white"/>
</clipPath>
<clipPath id="clip1_3053_1908">
<rect width="24" height="24" fill="white"/>
</clipPath>
</defs>
</svg>
