<svg width="24" height="24" viewBox="0 0 24 24" fill="none" xmlns="http://www.w3.org/2000/svg">
<g clip-path="url(#clip0_2214_3006)">
<g clip-path="url(#clip1_2214_3006)">
<path d="M-8 0H24V24H-8V0Z" fill="#00008B"/>
<path d="M-6.125 0L-0.0250001 4.525L6.05 0H8V1.55L2 6.025L8 10.475V12H6L0 7.525L-5.975 12H-8V10.5L-2.025 6.05L-8 1.6V0H-6.125Z" fill="white"/>
<path d="M2.6 7.025L8 11V12L1.225 7.025H2.6ZM-2 7.525L-1.85 8.4L-6.65 12H-8L-2 7.525ZM8 0V0.075L1.775 4.775L1.825 3.675L6.75 0H8ZM-8 0L-2.025 4.4H-3.525L-8 1.05V0Z" fill="#FF0000"/>
<path d="M-1.975 0V12H2.025V0H-1.975ZM-8 4V8H8V4H-8Z" fill="white"/>
<path d="M-8 4.825V7.225H8V4.825H-8ZM-1.175 0V12H1.225V0H-1.175Z" fill="#FF0000"/>
<path d="M18.35 19.8349L17.325 19.9649L17.435 20.9899L16.695 20.2699L15.96 20.9949L16.06 19.9699L15.035 19.8499L15.9 19.2899L15.355 18.4149L16.335 18.7399L16.68 17.7649L17.035 18.7349L18.01 18.3999L17.475 19.2799L18.35 19.8349ZM18.165 13.9749L18.3 13.3249L17.81 12.8749L18.47 12.7999L18.745 12.1949L19.02 12.7999L19.68 12.8749L19.19 13.3249L19.325 13.9749L18.745 13.6449L18.165 13.9749ZM12.96 10.9749L11.945 11.0849L12.035 12.0999L11.315 11.3749L10.575 12.0799L10.695 11.0649L9.68499 10.9299L10.55 10.3899L10.025 9.51492L10.99 9.85492L11.35 8.89992L11.685 9.86492L12.655 9.54992L12.11 10.4149L12.965 10.9749H12.96ZM23.15 9.33492L22.105 9.46992L22.22 10.5149L21.465 9.77992L20.715 10.5199L20.82 9.46992L19.775 9.34992L20.66 8.77492L20.105 7.87992L21.105 8.21492L21.455 7.22492L21.815 8.21492L22.81 7.86992L22.26 8.76992L23.15 9.33492ZM18.345 5.15992L17.31 5.27492L17.405 6.31492L16.67 5.57492L15.915 6.29492L16.035 5.25992L15 5.11992L15.885 4.56992L15.35 3.67492L16.335 4.01992L16.7 3.04492L17.04 4.02992L18.03 3.70492L17.475 4.58492L18.345 5.15992ZM3.69999 19.2849L1.40999 19.5549L1.63999 21.8499L-7.15256e-06 20.2299L-1.65001 21.8399L-1.40501 19.5449L-3.69501 19.2549L-1.75001 18.0149L-2.95001 16.0449L-0.770007 16.7949L0.0199926 14.6249L0.794992 16.7999L2.97999 16.0649L1.76499 18.0249L3.70499 19.2799L3.69999 19.2849Z" fill="white"/>
</g>
</g>
<defs>
<clipPath id="clip0_2214_3006">
<path d="M0 12C0 5.37258 5.37258 0 12 0C18.6274 0 24 5.37258 24 12C24 18.6274 18.6274 24 12 24C5.37258 24 0 18.6274 0 12Z" fill="white"/>
</clipPath>
<clipPath id="clip1_2214_3006">
<rect width="32" height="24" fill="white" transform="translate(-8)"/>
</clipPath>
</defs>
</svg>
