<svg width="24" height="24" viewBox="0 0 24 24" fill="none" xmlns="http://www.w3.org/2000/svg">
<g clip-path="url(#clip0_2214_4239)">
<g clip-path="url(#clip1_2214_4239)">
<path d="M0 0H32V24H0V0Z" fill="#00843D"/>
<path d="M17.88 2.65014C18.2617 2.82908 18.6012 3.08687 18.8762 3.40653C19.1511 3.72619 19.3552 4.10046 19.475 4.50469C19.5948 4.90893 19.6276 5.33396 19.5713 5.7518C19.5149 6.16964 19.3707 6.5708 19.1481 6.92887C18.9255 7.28694 18.6296 7.5938 18.2799 7.82923C17.9301 8.06466 17.5344 8.22332 17.1189 8.29477C16.7034 8.36622 16.2774 8.34883 15.8691 8.24375C15.4608 8.13867 15.0794 7.94829 14.75 7.68514C15.4044 7.96048 16.1356 7.99352 16.8122 7.77832C17.4888 7.56313 18.0666 7.11379 18.4418 6.51099C18.817 5.90818 18.965 5.19138 18.8593 4.48928C18.7535 3.78717 18.401 3.14574 17.865 2.68014L17.88 2.65014ZM15.05 4.85014L15.37 3.81014L14.485 4.45514H15.58L14.69 3.81014L15.05 4.85014ZM15.05 3.32014L15.37 2.28014L14.485 2.92514H15.58L14.69 2.26514L15.05 3.32014ZM16.56 4.10014L16.88 3.06014L15.99 3.70514H17.09L16.2 3.06014L16.56 4.10014ZM13.51 5.61514L13.855 4.57514L12.965 5.21514H14.065L13.175 4.57514L13.51 5.61514ZM15.025 6.38514L15.365 5.35014L14.48 5.99014H15.575L14.685 5.35014L15.025 6.38514Z" fill="white"/>
<path d="M4.32996 0H10.81V24H4.32996V0Z" fill="#D22630"/>
<path d="M5.90001 0H5.69001L5.27501 0.38L5.12501 0.21H5.27501L5.23501 0.06H4.99001L4.48001 0.51V0.7H4.73001V0.55L4.84001 0.66L4.57501 0.89L4.70001 1L4.32501 1.34V1.59L4.95001 1.015L4.84001 0.885L5.08501 0.655L4.87501 0.45L5.01001 0.3L5.29001 0.56L5.90001 0ZM4.35001 0V0.435L4.47501 0.3V0.115H4.62501L4.76501 0H4.35001ZM5.48001 0H5.33001L5.35001 0.115L5.48001 0Z" fill="#383739"/>
<path d="M5.88002 0H5.69002L5.29002 0.38L5.10502 0.19H5.27502L5.23502 0.055H5.01002L4.51502 0.53V0.68H4.70502V0.49L4.87502 0.66L4.61002 0.89L4.72502 1L4.34502 1.38V1.57L4.91502 1L4.80002 0.89L5.06502 0.66L4.84002 0.455L5.03002 0.285L5.29002 0.55L5.86002 0H5.88002ZM4.33002 0V0.415L4.44002 0.285V0.095H4.61002L4.72502 0H4.33002ZM5.46002 0H5.37002V0.075L5.46002 0Z" fill="#FFC72C"/>
<path d="M4.33001 2.78003V3.02503L4.69001 3.36503L4.55501 3.47503L4.82001 3.72503L4.70501 3.81503V3.66503H4.48001V3.85503L4.99001 4.33003H5.24001L5.27501 4.14003H5.10001L5.25001 4.00503L5.66501 4.38503L5.25001 4.72503L5.10001 4.59003H5.25001L5.21001 4.40503H4.96501L4.47501 4.91503V5.10003H4.72501V4.91503L4.83501 5.02503L4.57001 5.25503L4.70001 5.38503L4.32501 5.72503V5.95503L4.95001 5.38503L4.84001 5.25503L5.08501 5.02503L4.87501 4.82003L5.01001 4.68503L5.29001 4.91503L5.91501 4.34503L5.29001 3.78003L5.01001 4.04503L4.87501 3.91003L5.08501 3.70503L4.83501 3.45503L4.95001 3.35003L4.35001 2.78003H4.33001ZM4.33001 3.91003V4.82003L4.46001 4.67003V4.48003H4.61001L4.74501 4.36503L4.61001 4.25003H4.46001V4.06503L4.33001 3.91003ZM5.37001 4.23503V4.48003L5.50001 4.36503L5.37001 4.23503Z" fill="#383739"/>
<path d="M4.33002 2.81494V3.00494L4.70502 3.36494L4.59502 3.47494L4.86002 3.72494L4.69002 3.85494V3.68494H4.50002V3.83494L4.99002 4.30994H5.21502L5.25502 4.17494H5.06502L5.27502 3.98494L5.71002 4.36494L5.27502 4.74494L5.08502 4.55494H5.25502L5.21502 4.43994H4.99002L4.50002 4.88994V5.04494H4.69002V4.85494L4.86002 5.02494L4.59502 5.25494L4.70502 5.38494L4.33002 5.74494V5.93494L4.89502 5.36494L4.78002 5.25494L5.04502 5.02494L4.82002 4.81994L5.01002 4.64994L5.29002 4.91494L5.88002 4.36494L5.27502 3.81494L4.99002 4.07994L4.82002 3.92994L5.04502 3.72494L4.78002 3.47494L4.91502 3.36494L4.33002 2.81494ZM4.33002 3.94994V4.77994L4.44002 4.66994V4.47994H4.61002L4.72502 4.36494L4.61002 4.26994H4.44002V4.07994L4.33002 3.94994ZM5.38502 4.26994V4.43994L5.48502 4.36494L5.38502 4.26994Z" fill="#FFC72C"/>
<path d="M4.33001 7.29492V7.55992L4.69001 7.89992L4.55501 8.01492L4.82001 8.23992L4.70501 8.35492V8.20492H4.48001V8.38992L4.99001 8.83992H5.24001L5.27501 8.68992H5.10001L5.25001 8.53992L5.66501 8.89992L5.25001 9.27992L5.10001 9.10992H5.25001L5.21001 8.93992H4.96501L4.45501 9.40992V9.59992H4.72001V9.44992L4.83501 9.54492L4.57001 9.78992L4.70001 9.89992L4.32501 10.2449V10.4899L4.95001 9.91992L4.84001 9.78992L5.08501 9.53992L4.87501 9.35492L5.01001 9.20492L5.29001 9.44992L5.91501 8.87992L5.29001 8.31492L5.01001 8.57992L4.87501 8.42992L5.08501 8.23992L4.83501 7.98992L4.95001 7.87992L4.35001 7.31492L4.33001 7.29492ZM4.33001 8.42992V9.31492L4.46001 9.18492V8.99492H4.61001L4.74501 8.87992L4.61001 8.74992H4.46001V8.57992L4.33001 8.42992ZM5.37001 8.74992V8.99992L5.50001 8.86492L5.37001 8.74992Z" fill="#383739"/>
<path d="M4.33002 7.31494V7.49994L4.70502 7.87994L4.60002 7.99994L4.86502 8.22494L4.69502 8.37494V8.18994H4.50002V8.37494L4.99002 8.80994H5.21502L5.25502 8.67994H5.06502L5.27502 8.48994L5.71002 8.86994L5.27502 9.26494L5.08502 9.07494H5.25502L5.21502 8.94494H4.99002L4.50002 9.41494V9.56494H4.69002V9.37994L4.86002 9.52994L4.59502 9.77494L4.70502 9.88994L4.33002 10.2649V10.4549L4.89502 9.88994L4.78002 9.77494L5.04502 9.52494L4.82002 9.33994L5.01002 9.14994L5.29002 9.44994L5.88002 8.88494L5.27502 8.35994L4.99002 8.61994L4.82002 8.44994L5.04502 8.26494L4.78002 8.01494L4.91502 7.90494L4.33002 7.31494ZM4.33002 8.44494V9.29494L4.44002 9.16494V8.97494H4.61002L4.72502 8.87994L4.61002 8.76994H4.44002V8.57994L4.33002 8.46494V8.44494ZM5.38502 8.78494V8.95494L5.48502 8.86494L5.38502 8.78494Z" fill="#FFC72C"/>
<path d="M4.33001 11.8099V12.0399L4.69001 12.3799L4.55501 12.4899L4.82001 12.7399L4.70501 12.8499V12.6999H4.48001V12.8899L4.99001 13.3399H5.24001L5.27501 13.1699H5.10001L5.25001 13.0399L5.66501 13.3999L5.25001 13.7549L5.10001 13.6049H5.25001L5.21001 13.4349H4.96501L4.45501 13.9099V14.0999H4.72001V13.9499L4.83501 14.0399L4.57001 14.2899L4.70001 14.3999L4.32501 14.7399V14.9899L4.95001 14.4149L4.84001 14.2799L5.08501 14.0349L4.87501 13.8449L5.01001 13.6949L5.29001 13.9599L5.91501 13.3949L5.29001 12.8249L5.01001 13.0749L4.87501 12.9399L5.08501 12.7499L4.83501 12.4849L4.95001 12.3749L4.35001 11.8049L4.33001 11.8099ZM4.33001 12.9449V13.8349L4.46001 13.6849V13.5099H4.61001L4.75001 13.3999L4.61501 13.2649H4.46501V13.0999L4.33001 12.9449ZM5.37001 13.2649V13.5149L5.50001 13.3799L5.37001 13.2649Z" fill="#383739"/>
<path d="M4.33007 11.8301V12.0201L4.70507 12.3951L4.59507 12.4951L4.86007 12.7351L4.69007 12.8851V12.7001H4.50007V12.8701L4.99007 13.3201H5.21507L5.25507 13.1901H5.06507L5.27507 13.0001L5.71007 13.3801L5.27507 13.7801L5.08507 13.5851H5.25507L5.21507 13.4551H4.99007L4.50007 13.9051V14.0801H4.69007V13.8901L4.86007 14.0401L4.59507 14.2901L4.70007 14.4001L4.32507 14.7801V14.9651L4.89507 14.4001L4.78007 14.2851L5.04507 14.0401L4.82007 13.8501L5.01007 13.6651L5.29007 13.9451L5.88007 13.3801L5.27507 12.8501L4.99007 13.1151L4.82007 12.9451L5.04507 12.7551L4.78007 12.4901L4.91507 12.3801L4.33007 11.8301ZM4.33007 12.9651V13.8151L4.44007 13.6801V13.5001H4.61007L4.72507 13.4001L4.61007 13.2901H4.44007V13.1001L4.33007 12.9901V12.9651ZM5.38507 13.3051V13.4751L5.48507 13.3751L5.38507 13.3051Z" fill="#FFC72C"/>
<path d="M4.33001 16.3301V16.5551L4.69001 16.8951L4.55501 17.0101L4.82001 17.2551L4.70501 17.3501V17.2001H4.48001V17.3851L4.99001 17.8601H5.24001L5.27501 17.6901H5.10001L5.25001 17.5401L5.66501 17.9151L5.25001 18.2751L5.10001 18.1251H5.25001L5.21001 17.9551H4.96501L4.45501 18.4251V18.6151H4.72001V18.4451L4.83501 18.5551L4.57001 18.8051L4.70001 18.9151L4.32501 19.2551V19.4851L4.95001 18.9151L4.84001 18.8051L5.08501 18.5551L4.87501 18.3501L5.01001 18.2151L5.29001 18.4801L5.91501 17.9151L5.29001 17.3501L5.01001 17.5951L4.87501 17.4601L5.08501 17.2551L4.83501 17.0051L4.95001 16.9001L4.33001 16.3301ZM4.33001 17.4601V18.3501L4.46001 18.2001V18.0301H4.61001L4.74501 17.8951L4.61001 17.7851H4.46001V17.5951L4.33001 17.4601ZM5.37001 17.7851V18.0101L5.50001 17.8951L5.37001 17.7851Z" fill="#383739"/>
<path d="M4.33002 16.3501V16.5351L4.70002 16.9001L4.59002 17.0151L4.85502 17.2601L4.68502 17.4101V17.2201H4.50002V17.3901L4.99002 17.8401H5.21502L5.25502 17.7101H5.06502L5.27502 17.5251L5.71002 17.9001L5.27502 18.3001L5.08502 18.1101H5.25502L5.21502 17.9751H4.99002L4.50002 18.4301V18.6001H4.69002V18.4101L4.86002 18.5601L4.59502 18.8101L4.70502 18.9201L4.33002 19.3001V19.4701L4.89502 18.9001L4.78002 18.8001L5.04502 18.5551L4.82002 18.3501L5.01002 18.1801L5.29002 18.4451L5.88002 17.8951L5.27502 17.3451L4.99002 17.6151L4.82002 17.4651L5.04502 17.2551L4.78002 17.0051L4.91502 16.8951L4.33002 16.3501ZM4.33002 17.4801V18.3301L4.44002 18.2151V18.0301H4.61002L4.72502 17.9151L4.61002 17.8201H4.44002V17.6301L4.33002 17.5001V17.4801ZM5.38502 17.8001V17.9901L5.48502 17.8951L5.38502 17.8001Z" fill="#FFC72C"/>
<path d="M9.22504 0H9.45004L9.83004 0.38L10.02 0.19H9.87004L9.90504 0.04H10.15L10.66 0.49V0.68H10.4V0.53L10.285 0.645L10.55 0.87L10.42 0.985L10.8 1.325V1.57L10.17 1L10.28 0.87L10.035 0.645L10.245 0.435L10.11 0.285L9.83004 0.565L9.22504 0ZM10.81 0V0.435L10.66 0.3V0.115H10.51L10.375 0H10.81ZM9.62004 0H9.77004L9.75504 0.115L9.62004 0Z" fill="#383739"/>
<path d="M9.26006 0H9.41006L9.85006 0.38L10.0351 0.19H9.86506L9.90506 0.055H10.1301L10.6251 0.53V0.68H10.4351V0.49L10.2851 0.66L10.5301 0.89L10.4151 1.02L10.7951 1.38V1.57L10.2251 1L10.3401 0.89L10.0751 0.66L10.3001 0.455L10.1101 0.285L9.86506 0.565L9.25006 0H9.26006ZM10.8101 0V0.415L10.6801 0.285V0.095H10.5101L10.4101 0H10.8101ZM9.64006 0H9.75506V0.075L9.64006 0Z" fill="#FFC72C"/>
<path d="M10.8101 2.78003V3.02503L10.4351 3.36503L10.5651 3.47503L10.3001 3.72503L10.4151 3.81503V3.66503H10.6401V3.85503L10.1301 4.33003H9.88507L9.85007 4.14003H10.0001L9.85007 4.00503L9.45007 4.38503L9.83007 4.72503L10.0001 4.59003H9.85007L9.88507 4.40503H10.1351L10.6401 4.89503V5.08503H10.4001V4.91503L10.2851 5.02503L10.5501 5.25503L10.4201 5.38503L10.8001 5.72503V5.95503L10.1751 5.38503L10.2851 5.25503L10.0401 5.02503L10.2501 4.82003L10.1151 4.68503L9.83507 4.91503L9.20007 4.34503L9.82507 3.78003L10.1051 4.04503L10.2401 3.91003L10.0301 3.70503L10.2801 3.45503L10.1651 3.34503L10.7901 2.78003H10.8101ZM10.8101 3.91003V4.82003L10.6601 4.67003V4.48003H10.5101L10.3751 4.36503L10.5101 4.25003H10.6601V4.06503L10.8101 3.91003ZM9.75507 4.23503L9.77007 4.36503L9.75507 4.48003L9.62007 4.36503L9.75507 4.23503Z" fill="#383739"/>
<path d="M10.8101 2.81494V3.00494L10.3951 3.34494L10.5101 3.45994L10.2601 3.70494L10.4101 3.83494V3.66494H10.6051V3.81494L10.1101 4.28994H9.88509L9.85009 4.15494H10.0351L9.83009 3.96994L9.39509 4.34494L9.83009 4.72494L10.0201 4.53494H9.85009L9.88509 4.41994H10.1101L10.6051 4.87494V5.02494H10.4151V4.83994L10.2651 5.00994L10.5101 5.23494L10.3951 5.36494L10.7751 5.72494V5.91494L10.2001 5.34994L10.3151 5.23494L10.0501 5.00994L10.2751 4.79994L10.0901 4.62994L9.82509 4.89494L9.22009 4.34494L9.82009 3.79494L10.1051 4.06494L10.2751 3.91494L10.0501 3.70494L10.3151 3.45494L10.1851 3.34494L10.8101 2.81494ZM10.8101 3.94994V4.77994L10.6801 4.66994V4.47994H10.5101L10.4101 4.36494L10.5101 4.26994H10.6801V4.07994L10.8101 3.94994ZM9.73509 4.26994L9.75509 4.36994V4.43994L9.64009 4.36494L9.73509 4.26994Z" fill="#FFC72C"/>
<path d="M10.81 7.29492V7.55992L10.435 7.89992L10.565 8.01492L10.3 8.23992L10.415 8.35492V8.20492H10.64V8.38992L10.13 8.83992H9.88502L9.83002 8.68992H9.98002L9.83002 8.53992L9.45002 8.87992L9.83002 9.25992L10 9.08992H9.85002L9.88502 8.91992H10.135L10.64 9.38992V9.57992H10.4V9.42992L10.285 9.52492L10.55 9.76992L10.42 9.88492L10.8 10.2249V10.4699L10.17 9.89992L10.28 9.76992L10.035 9.51992L10.245 9.33492L10.11 9.18492L9.83002 9.44992L9.20502 8.87992L9.83002 8.31492L10.11 8.57992L10.245 8.42992L10.035 8.23992L10.285 7.98992L10.17 7.87992L10.795 7.31492L10.81 7.29492ZM10.81 8.42992V9.31492L10.66 9.18492V8.99492H10.51L10.375 8.87992L10.51 8.74992H10.66V8.57992L10.81 8.42992ZM9.75502 8.74992L9.77002 8.86492L9.75502 8.99492L9.62002 8.86492L9.75502 8.74992Z" fill="#383739"/>
<path d="M10.8101 7.31494V7.49994L10.4101 7.87994L10.5301 7.99494L10.2801 8.21994L10.4301 8.36994V8.18494H10.6251V8.36994L10.1301 8.80494H9.90509L9.86509 8.67494H10.0551L9.83009 8.50494L9.39509 8.87994L9.83009 9.27994L10.0201 9.08994H9.85009L9.88509 8.95494H10.1101L10.6051 9.42994V9.57994H10.4151V9.38994L10.2651 9.53994L10.5101 9.78994L10.3951 9.89994L10.7751 10.2799V10.4699L10.2001 9.89994L10.3151 9.78994L10.0501 9.53994L10.2751 9.35494L10.0901 9.16494L9.82509 9.44994L9.22009 8.87994L9.82009 8.35494L10.1051 8.61494L10.2751 8.44494L10.0501 8.25994L10.3151 8.00994L10.1851 7.89994L10.8101 7.31494ZM10.8101 8.44494V9.29494L10.6801 9.16494V8.97494H10.5101L10.4101 8.87994L10.5101 8.76994H10.6801V8.57994L10.8101 8.46494V8.44494ZM9.73509 8.78494L9.75509 8.86494V8.95494L9.64009 8.86494L9.73509 8.78494Z" fill="#FFC72C"/>
<path d="M10.8101 11.8101V12.0401L10.4351 12.3801L10.5651 12.4901L10.3001 12.7401L10.4151 12.8501V12.7001H10.6401V12.8901L10.1301 13.3401H9.88507L9.85007 13.1701H10.0001L9.85007 13.0401L9.45007 13.4001L9.83007 13.7551L10.0001 13.6051H9.85007L9.88507 13.4351H10.1351L10.6401 13.9101V14.1001H10.4001V13.9501L10.2851 14.0401L10.5501 14.2901L10.4201 14.4001L10.8001 14.7401V14.9901L10.1751 14.4201L10.2851 14.2851L10.0401 14.0401L10.2501 13.8501L10.1151 13.7001L9.83507 13.9651L9.20007 13.4001L9.82507 12.8301L10.1051 13.0801L10.2401 12.9451L10.0301 12.7551L10.2801 12.4901L10.1651 12.3801L10.7901 11.8101H10.8101ZM10.8101 12.9451V13.8351L10.6601 13.6851V13.5101H10.5101L10.3751 13.4001L10.5101 13.2651H10.6601V13.1001L10.8101 12.9451ZM9.75507 13.2651L9.77007 13.3801L9.75507 13.5101L9.62007 13.3801L9.75507 13.2651Z" fill="#383739"/>
<path d="M10.8101 11.8301V12.0201L10.4101 12.3951L10.5301 12.4951L10.2801 12.7351L10.4301 12.8851V12.7001H10.6251V12.8701L10.1301 13.3201H9.90506L9.86506 13.1901H10.0551L9.85006 13.0001L9.41506 13.3801L9.85006 13.7801L10.0351 13.5851H9.86506L9.90506 13.4551H10.1301L10.6251 13.9051V14.0801H10.4351V13.8901L10.2851 14.0401L10.5301 14.2901L10.4151 14.4001L10.7951 14.7801V14.9651L10.2251 14.4001L10.3401 14.2851L10.0751 14.0401L10.3001 13.8501L10.1101 13.6651L9.85006 13.9451L9.24506 13.3801L9.84506 12.8501L10.1301 13.1151L10.3001 12.9451L10.0751 12.7551L10.3401 12.4901L10.2051 12.3801L10.8101 11.8301ZM10.8101 12.9651V13.8151L10.6801 13.6801V13.5001H10.5101L10.4101 13.4001L10.5101 13.2901H10.6801V13.1001L10.8101 12.9901V12.9651ZM9.73506 13.3051L9.75506 13.3801V13.4751L9.64006 13.3751L9.73506 13.3051Z" fill="#FFC72C"/>
<path d="M10.8101 16.3301V16.5551L10.4351 16.8951L10.5651 17.0101L10.3001 17.2551L10.4151 17.3501V17.2001H10.6401V17.3851L10.1301 17.8601H9.88508L9.85008 17.6901H10.0001L9.85008 17.5401L9.45008 17.9151L9.83008 18.2751L10.0001 18.1251H9.85008L9.88508 17.9551H10.1351L10.6401 18.4251V18.6151H10.4001V18.4451L10.2851 18.5551L10.5501 18.8051L10.4201 18.9151L10.8001 19.2551V19.4851L10.1751 18.9151L10.2851 18.8051L10.0401 18.5551L10.2501 18.3501L10.1151 18.2151L9.83508 18.4801L9.21008 17.9151L9.83508 17.3501L10.1151 17.5951L10.2501 17.4601L10.0401 17.2551L10.2901 17.0051L10.1751 16.8951L10.8101 16.3301ZM10.8101 17.4601V18.3501L10.6601 18.2001V18.0301H10.5101L10.3751 17.8951L10.5101 17.7851H10.6601V17.5951L10.8101 17.4601ZM9.75508 17.7851L9.77008 17.8951L9.75508 18.0101L9.62008 17.8951L9.75508 17.7851Z" fill="#383739"/>
<path d="M10.8101 16.3501V16.5351L10.4001 16.9001L10.5151 17.0151L10.2651 17.2601L10.4151 17.4101V17.2201H10.6101V17.3901L10.1151 17.8401H9.89009L9.85509 17.7101H10.0401L9.83509 17.5251L9.40009 17.9001L9.83509 18.3001L10.0251 18.1101H9.85009L9.88509 17.9751H10.1101L10.6051 18.4301V18.6001H10.4151V18.4101L10.2651 18.5601L10.5101 18.8101L10.3951 18.9201L10.7751 19.3001V19.4701L10.2001 18.9001L10.3151 18.8001L10.0501 18.5551L10.2751 18.3501L10.0901 18.1801L9.82509 18.4451L9.22009 17.8951L9.82009 17.3451L10.1051 17.6151L10.2751 17.4651L10.0501 17.2551L10.3151 17.0051L10.1851 16.8951L10.8101 16.3501ZM10.8101 17.4801V18.3301L10.6801 18.2151V18.0301H10.5101L10.4101 17.9151L10.5101 17.8201H10.6801V17.6301L10.8101 17.5001V17.4801ZM9.73509 17.8001L9.75509 17.9001V17.9901L9.64009 17.8951L9.73509 17.8001Z" fill="#FFC72C"/>
<path d="M4.84 21.24C4.875 21.375 4.99 21.47 5.03 21.62C5.065 21.47 5.105 21.335 5.08 21.185C5.045 21.07 4.95 20.995 4.95 20.865C4.84 20.955 4.82 21.09 4.84 21.24ZM4.82 21.81C4.91397 21.9327 5.03795 22.0291 5.18 22.09C5.14 21.98 5.18 21.9 5.255 21.81C5.31 21.71 5.35 21.62 5.29 21.485C5.26797 21.5455 5.23768 21.6027 5.2 21.655C5.13643 21.7301 5.09643 21.8223 5.085 21.92C5.01 21.865 4.99 21.79 4.95 21.715C4.89094 21.6033 4.80059 21.5112 4.69 21.45C4.725 21.58 4.74 21.695 4.82 21.81ZM5.33 22.185L5.29 22.375L5.085 22.225C4.99 22.125 4.875 22.09 4.8 21.975C4.80115 22.0457 4.81896 22.1152 4.85197 22.1777C4.88498 22.2403 4.93227 22.2941 4.99 22.335L5.39 22.585C5.37 22.45 5.425 22.335 5.46 22.205C5.47131 22.1526 5.47043 22.0983 5.45743 22.0463C5.44443 21.9942 5.41965 21.9459 5.385 21.905C5.385 21.995 5.35 22.09 5.33 22.165V22.185ZM5.595 22.62L5.745 22.885C5.62167 22.8383 5.49667 22.775 5.37 22.695C5.235 22.62 5.085 22.585 4.95 22.47C4.98059 22.5779 5.03856 22.676 5.11829 22.7549C5.19802 22.8337 5.29679 22.8906 5.405 22.92C5.575 22.96 5.705 22.94 5.895 23.02C5.87086 22.8876 5.82704 22.7595 5.765 22.64L5.65 22.375C5.62296 22.41 5.60401 22.4506 5.5945 22.4938C5.58499 22.5371 5.58516 22.5818 5.595 22.625V22.62ZM6.085 22.98C6.13316 23.0569 6.19812 23.1218 6.275 23.17C6.085 23.17 5.935 23.07 5.745 23.055C5.635 23.055 5.52 23.095 5.405 23.075C5.555 23.17 5.69 23.265 5.855 23.265C6.065 23.3 6.275 23.265 6.52 23.265C6.41809 23.1895 6.33438 23.0921 6.275 22.98C6.18 22.83 6.085 22.73 5.915 22.715L6.105 22.98H6.085ZM6.75 23.28C6.425 23.34 6.105 23.415 5.765 23.415C6.12029 23.5647 6.51958 23.5719 6.88 23.435C7.07 23.375 7.24 23.32 7.39 23.335C7.615 23.335 7.88 23.45 8.185 23.755L8.3 23.66C8.08825 23.4817 7.83824 23.3547 7.56942 23.2888C7.30059 23.2229 7.02019 23.2199 6.75 23.28Z" fill="#FFC72C"/>
<path d="M5.13999 2.81491L4.60999 2.49991V1.73991L5.13999 1.41491V0.999912L5.61499 0.719912H6.01499L6.76499 0.284912H8.35499L9.10999 0.719912H9.48999L10.02 0.999912V1.41491L10.53 1.73991V2.48991L10.02 2.81491V3.21491L9.52499 3.51491H9.12499L8.37499 3.92991H6.78499L6.02999 3.51491H5.64999L5.11999 3.21491L5.13999 2.81491Z" fill="#383739"/>
<path d="M6.76501 0.300049L6.01501 0.735049H5.635L5.14001 1.02005V1.42005L4.63 1.74005V2.49005L5.14001 2.79505V3.21505L5.635 3.49505H6.01L6.76501 3.91005H8.35501L9.11 3.49505H9.49001L9.98001 3.21505V2.79505L10.49 2.49505V1.74005L9.98001 1.41505V1.02005L9.49001 0.735049H9.11L8.35501 0.300049H6.76501ZM6.80501 0.470049H8.31501L9.07501 0.890049H9.45001L9.83001 1.09505V1.51005L10.34 1.83505V2.40005L9.81 2.72005V3.12005L9.45001 3.34505H9.07501L8.31501 3.76005H6.80501L6.05 3.35005H5.67001L5.29001 3.12505V2.72505L4.78 2.40005V1.83505L5.31 1.51005V1.10005L5.69001 0.895049H6.06501L6.80501 0.470049Z" fill="#00843D"/>
<path d="M7.55999 2.11497V0.469971H6.80499L6.06499 0.904971H5.68999L5.30999 1.09497V1.50997L4.79999 1.83497V2.09997H7.55999V3.73997H8.31499L9.07499 3.32497H9.44999L9.78999 3.11997V2.69997L10.32 2.37997V2.11497H7.55999Z" fill="#FFC72C"/>
<path d="M4.79999 2.11509V2.38009L5.32999 2.70009V3.12009L5.66999 3.30509H6.06999L6.81999 3.74009H7.55999V2.10009H10.32V1.83509L9.78999 1.51009V1.13509L9.44999 0.900088H9.07499L8.31499 0.465088H7.56499V2.11509H4.79999Z" fill="white"/>
<path d="M5.93501 1.06005L5.80501 0.925049L5.69001 1.00005L5.82001 1.13505L5.63501 1.23005H6.01001L6.31001 1.53005L6.41001 1.41505L6.10501 1.13505V0.945049L5.93501 1.06005Z" fill="#383739"/>
<path d="M6.54003 1.00014L6.41003 0.890137L6.29503 0.965137L6.42503 1.07514L6.23503 1.17514H6.61503L6.91503 1.47514L7.01503 1.36014L6.73003 1.07514V0.890137L6.54003 1.00014ZM5.89503 1.38014L5.76503 1.26514L5.63503 1.36514L5.76503 1.47514L5.59503 1.57014H5.97503L6.27503 1.87014L6.37003 1.75514L6.07003 1.47514V1.28514L5.89503 1.38014Z" fill="#383739"/>
<path d="M7.56 0.469971H7.24L7.07 0.619971H6.73L6.5 0.754971L6.56 0.889971L6.765 0.774971H6.865L7.2 1.15497L7.56 0.944971V0.469971Z" fill="#383739"/>
<path d="M5.80002 0.945029L5.91502 1.06003L5.82002 1.11503L5.71002 1.02003L5.80002 0.945029ZM6.10502 0.985029V1.13503L6.39002 1.41503L6.31502 1.49503L6.01502 1.21003H5.71002L6.08502 0.960029L6.10502 0.985029ZM6.40502 0.905029L6.52002 1.00503L6.42502 1.07503L6.31502 0.965029L6.40502 0.905029ZM6.71002 0.905029V1.10003L6.99502 1.36503L6.92002 1.46003L6.62002 1.14003H6.31502L6.69002 0.910029L6.71002 0.905029Z" fill="#D22630"/>
<path d="M5.76504 1.29997L5.88004 1.39997L5.78004 1.45497L5.67004 1.35997L5.76504 1.29997ZM6.05004 1.29997V1.49997L6.35004 1.75997L6.27504 1.83997L5.97504 1.55497H5.67504L6.05004 1.29997ZM7.56004 0.469971H7.24004L7.07004 0.659971H6.75004L6.52004 0.759971L6.56004 0.869971L6.75004 0.749971H6.88004L7.18004 1.12997L7.56004 0.939971V0.469971Z" fill="#D22630"/>
<path d="M5.93501 3.17495L5.80501 3.28995L5.69001 3.21495L5.82001 3.09995L5.63501 2.98495H6.01001L6.31001 2.69995L6.41001 2.81495L6.10001 3.09995V3.28995L5.93501 3.17495Z" fill="#383739"/>
<path d="M6.54003 3.21511L6.41003 3.34511L6.29503 3.27011L6.42503 3.15511L6.23503 3.04511H6.61503L6.91503 2.76011L7.01503 2.85511L6.73003 3.13511V3.32511L6.54003 3.21511ZM5.89503 2.83511L5.76503 2.95011L5.63503 2.87011L5.76503 2.76011L5.59503 2.64511H5.97503L6.27503 2.36011L6.37003 2.46011L6.07003 2.74011V2.93011L5.89503 2.83511Z" fill="#383739"/>
<path d="M7.56 3.76006H7.24L7.07 3.59006H6.73L6.5 3.47506L6.56 3.32506L6.765 3.44006H6.865L7.2 3.06006L7.58 3.29006L7.56 3.76006Z" fill="#383739"/>
<path d="M5.80002 3.26997L5.91502 3.15497L5.82002 3.09997L5.71002 3.21497L5.80002 3.26997ZM6.10502 3.24997V3.07997L6.39002 2.79497L6.31502 2.71997L6.01502 3.00497H5.71002L6.08502 3.25497L6.10502 3.24997ZM6.40502 3.32497L6.52002 3.21497L6.42502 3.15497L6.31502 3.26997L6.40502 3.32497ZM6.71002 3.30497V3.11997L6.99502 2.85497L6.92002 2.77997L6.62002 3.05997H6.31502L6.69002 3.30997L6.71002 3.30497Z" fill="#D22630"/>
<path d="M5.76504 2.92988L5.88004 2.81488L5.78004 2.75988L5.67004 2.86988L5.76504 2.92988ZM6.05004 2.90988V2.73988L6.35004 2.45488L6.27504 2.37988L5.97504 2.66488H5.67504L6.05004 2.90988ZM7.56004 3.73988H7.24004L7.07004 3.56988H6.75004L6.52004 3.45988L6.56004 3.35988L6.75004 3.45988H6.88004L7.20004 3.07988L7.56004 3.28988V3.73988Z" fill="#D22630"/>
<path d="M5.72504 1.58516L5.57504 1.53516L5.37004 1.66516V1.70016L5.04504 2.11516L5.37004 2.51516V2.55016L5.55504 2.70016L5.72504 2.65016L5.63504 2.57016V2.45516L5.67004 2.42016H5.84004V1.81516H5.65004L5.63504 1.77516V1.65016L5.72504 1.58516Z" fill="#383739"/>
<path d="M5.38506 1.68005L5.57506 1.55005L5.69006 1.58505L5.61506 1.64505V1.77505L5.65006 1.83505H5.82006V2.40005H5.65006L5.61506 2.45505V2.59005L5.69006 2.62505L5.57506 2.68505L5.38506 2.55005V2.51505L5.06506 2.11505L5.38506 1.70005V1.68005Z" fill="#D22630"/>
<path d="M9.18496 1.06005L9.31996 0.925049L9.42996 1.00005L9.31996 1.13505L9.46996 1.23005H9.10996L8.80996 1.53005L8.70996 1.41505L9.01496 1.13505V0.945049L9.18496 1.06005Z" fill="#383739"/>
<path d="M8.57991 1.00014L8.71491 0.890137L8.82491 0.965137L8.71491 1.07514L8.86491 1.17514H8.49991L8.19991 1.47514L8.09991 1.36014L8.40491 1.07514V0.890137L8.57991 1.00014ZM9.22491 1.38014L9.35491 1.26514L9.48991 1.36514L9.35491 1.47514L9.52491 1.57014H9.14991L8.86491 1.89014L8.76991 1.77514L9.06991 1.49514V1.30014L9.22491 1.38014Z" fill="#383739"/>
<path d="M7.56 0.469971H7.88L8.07 0.619971H8.39L8.64 0.754971L8.58 0.889971L8.355 0.774971H8.26L7.92 1.15497L7.56 0.944971V0.469971Z" fill="#383739"/>
<path d="M9.31994 0.945029L9.20494 1.06003L9.29994 1.11503L9.41494 1.02003L9.31994 0.945029ZM9.03494 0.985029V1.13503L8.73494 1.41503L8.80994 1.49503L9.10994 1.21003H9.40994L9.03494 0.960029V0.985029ZM8.69494 0.905029L8.57994 1.00503L8.67994 1.07503L8.78994 0.965029L8.69494 0.905029ZM8.40994 0.905029V1.10003L8.12994 1.36503L8.20494 1.46003L8.50494 1.14003H8.80494L8.42994 0.910029L8.40994 0.905029Z" fill="#D22630"/>
<path d="M9.35494 1.3001L9.24494 1.4001L9.33494 1.4551L9.44994 1.3601L9.35494 1.3001ZM9.07494 1.3001V1.5001L8.76994 1.7601L8.84494 1.8401L9.14494 1.5551H9.44994L9.07494 1.3001ZM7.55994 0.475098H7.87994L8.04994 0.665098H8.37494L8.59994 0.765098L8.55994 0.875098L8.37494 0.760098H8.25994L7.91994 1.1401L7.55994 0.950098V0.475098Z" fill="#D22630"/>
<path d="M9.18496 3.17495L9.31996 3.28995L9.42996 3.21495L9.31996 3.09995L9.46996 2.98495H9.10996L8.80996 2.69995L8.70996 2.81495L9.01496 3.09995V3.28995L9.18496 3.17495Z" fill="#383739"/>
<path d="M8.57991 3.21511L8.71491 3.34511L8.82491 3.27011L8.71491 3.15511L8.86491 3.04511H8.49991L8.19991 2.76011L8.09991 2.85511L8.40491 3.13511V3.32511L8.57991 3.21511ZM9.22491 2.83511L9.34991 2.95011L9.48491 2.87011L9.34991 2.76011L9.51991 2.64511H9.14991L8.84991 2.36011L8.74991 2.46011L9.04991 2.74011V2.93011L9.22491 2.83511Z" fill="#383739"/>
<path d="M7.55994 3.76006H7.87994L8.06994 3.59006H8.38994L8.63994 3.47506L8.57994 3.32506L8.35494 3.44006H8.25994L7.91994 3.06006L7.55994 3.29006V3.76006Z" fill="#383739"/>
<path d="M9.31994 3.26997L9.19994 3.14997L9.29994 3.09997L9.41494 3.21497L9.31994 3.26997ZM9.03494 3.24997V3.07997L8.73494 2.79497L8.80994 2.71997L9.10994 3.00497H9.40994L9.03494 3.24997ZM8.71494 3.32497L8.59994 3.21497L8.69494 3.15497L8.80994 3.26997L8.71494 3.32497ZM8.42994 3.30497V3.11997L8.12994 2.86997L8.19994 2.79997L8.49994 3.08497H8.79994L8.42494 3.33497L8.42994 3.30497Z" fill="#D22630"/>
<path d="M9.35494 2.92988L9.24494 2.81488L9.33494 2.75988L9.44994 2.86988L9.35494 2.92988ZM9.07494 2.90988V2.73988L8.76994 2.45488L8.84494 2.37988L9.14494 2.66488H9.44994L9.07494 2.90988ZM7.55994 3.73988H7.87994L8.04994 3.56988H8.37494L8.59994 3.45988L8.55994 3.35988L8.37494 3.45988H8.25994L7.91994 3.07988L7.55994 3.28988V3.73988Z" fill="#D22630"/>
<path d="M9.39497 1.58516L9.54497 1.53516L9.75497 1.66516V1.70016L10.075 2.11516L9.75497 2.51516V2.55016L9.56497 2.70016L9.39497 2.65016L9.48997 2.57016V2.45516L9.44997 2.42016H9.27997V1.81516H9.46997L9.48997 1.77516V1.65016L9.39497 1.58516Z" fill="#383739"/>
<path d="M9.73493 1.68005L9.54493 1.55005L9.42993 1.58505L9.50493 1.64505V1.77505L9.46993 1.83505H9.29993V2.40005H9.46993L9.50493 2.45505V2.59005L9.42993 2.62505L9.54493 2.68505L9.73493 2.55005V2.51505L10.0549 2.11505L9.73493 1.70005V1.68005Z" fill="#D22630"/>
<path d="M5.44499 2.45499L5.36999 2.37999V2.34999L5.17999 2.11999L5.36999 1.89499V1.84999L5.44499 1.77499L5.61499 1.90999H5.51499L5.64999 2.03999H5.94999L6.19999 1.84999V1.35999H6.78499L7.48499 0.92499V0.81499L7.36999 0.75499L7.23999 0.85499V0.90499L7.13999 0.77499L7.33499 0.62499L7.53999 0.48999H7.61499L7.80499 0.62499H7.84499L8.03499 0.77499L7.93499 0.90499L7.91999 0.85499L7.78499 0.75499H7.74999L7.63499 0.82999V0.94999L8.33499 1.38499H8.93999V1.87499L9.16499 2.06499H9.46499L9.59999 1.93499H9.52499L9.67499 1.79999L9.75499 1.87499V1.91499L9.93999 2.13999L9.75499 2.36499V2.40499L9.67499 2.47999L9.52499 2.34999H9.59999L9.46999 2.21499H9.16999L8.93999 2.40499V2.89499H8.31499L7.61499 3.30999V3.42499L7.72999 3.49999H7.74999L7.87999 3.42499V3.36999L7.97999 3.49999L7.80499 3.63499H7.78499L7.57999 3.78499H7.49999L7.30999 3.63499H7.26999L7.08499 3.48499L7.19499 3.36999V3.42499L7.32999 3.49999H7.34999L7.45999 3.42499V3.30999L6.75999 2.89499H6.17499V2.39999L5.92999 2.20999H5.62999L5.49999 2.34999H5.59499L5.44499 2.45499Z" fill="#383739"/>
<path d="M7.56001 3.5001L7.65501 3.5501L7.56001 3.6101V3.5001ZM7.33501 3.5901L7.52501 3.7401H7.56001V3.6301L7.45001 3.5501L7.56501 3.4701V3.2501L6.81001 2.8001H6.26001V2.3451L5.98001 2.1151H5.54501L5.44501 2.2501L5.33501 2.1151H5.20001L5.38501 2.3251V2.3601L5.44501 2.4401L5.55501 2.3401H5.50501V2.3251L5.63501 2.1751H5.95501L6.22001 2.3601V2.8551H6.78501L7.50501 3.2901V3.4201L7.39001 3.4951H7.33501L7.22001 3.4201V3.3851L7.14501 3.4601L7.29501 3.5901H7.33501ZM5.44501 2.0051L5.52001 2.1001H5.35001L5.44501 2.0051ZM7.56001 0.625098L7.48501 0.680098L7.56001 0.735098V0.625098ZM9.60001 2.1351L9.67501 2.2101L9.77501 2.1151L9.60001 2.1351ZM7.78501 0.625098L7.60001 0.475098H7.56001V0.585098L7.67501 0.685098L7.56001 0.755098V0.950098L8.31501 1.4001H8.86501V1.8951L9.15001 2.1001H9.58501L9.67501 1.9851L9.79001 2.1001H9.92501L9.73501 1.9101V1.8501L9.67501 1.8001L9.56501 1.8901H9.62001L9.49001 2.0601H9.16501L8.92001 1.8701V1.3601H8.32001L7.62001 0.945098V0.815098L7.73001 0.735098H7.78501L7.90001 0.815098V0.850098L7.97501 0.755098L7.82501 0.625098H7.78501Z" fill="#FFC72C"/>
<path d="M7.56001 3.6101L7.48501 3.5551L7.56001 3.4951V3.6101ZM5.52001 2.1151L5.44501 2.2151L5.34501 2.1151H5.52001ZM7.78501 3.5901L7.60001 3.7401H7.56001V3.6301L7.67501 3.5551L7.56001 3.4751V3.2501L8.31501 2.8001H8.86501V2.3451L9.15001 2.1151H9.58501L9.67501 2.2501L9.79001 2.1151H9.92501L9.73501 2.3251V2.3601L9.67501 2.4401L9.56501 2.3401H9.62001V2.3251L9.49001 2.1751H9.16501L8.92001 2.3601V2.8551H8.32001L7.60001 3.2901V3.4201L7.71001 3.4951H7.77001L7.88001 3.4201V3.3851L7.95501 3.4601L7.80501 3.5901H7.78501ZM9.67501 2.0051L9.60001 2.1001H9.77001L9.67501 2.0051ZM7.33501 0.625098L7.52501 0.475098H7.56001V0.585098L7.44501 0.685098L7.56001 0.755098V0.950098L6.80501 1.4001H6.25501V1.8951L5.97501 2.0851H5.54001L5.44001 1.9701L5.33001 2.0851H5.20001L5.38501 1.8951V1.8401L5.44501 1.7801L5.55501 1.8801H5.50501L5.63501 2.0451H5.95501L6.22001 1.8551V1.3651H6.78501L7.52501 0.950098V0.820098L7.41001 0.740098H7.35001L7.23501 0.820098V0.855098L7.16001 0.760098L7.31001 0.630098H7.35001L7.33501 0.625098ZM7.56001 0.755098L7.65501 0.700098L7.56001 0.645098V0.755098Z" fill="white"/>
<path d="M7.56001 2.11486V0.984863L6.80501 1.43486H6.27501V1.88986L6.01001 2.09986H7.56001V3.22986L8.31501 2.77986H8.85001V2.34486L9.11501 2.11486H7.56001Z" fill="#00843D"/>
<path d="M6.01001 2.11486L6.27501 2.34486V2.77986H6.80501L7.56001 3.22986V2.09986H9.11001L8.84501 1.88986V1.43986H8.31501L7.56501 0.984863V2.11486H6.01001Z" fill="#D22630"/>
<path d="M6.76499 1.57006L6.63499 1.43506L6.51999 1.53506L6.63499 1.64506L6.48499 1.74006H6.83999L7.13999 2.04006L7.23999 1.93006L6.93999 1.64506V1.45006L6.76499 1.57006ZM8.35499 2.66506L8.48499 2.78006L8.61999 2.70006L8.48499 2.59006L8.63499 2.47506H8.31499L7.99499 2.19006L7.89999 2.29006L8.19999 2.57006V2.76006L8.35499 2.66506ZM6.76499 2.66506L6.63499 2.78006L6.51999 2.70006L6.63499 2.59006L6.48499 2.47506H6.83999L7.13999 2.19006L7.23999 2.29006L6.93999 2.57006V2.76006L6.76499 2.66506ZM8.35499 1.56506L8.48499 1.43506L8.61999 1.53506L8.48499 1.64506L8.63499 1.74006H8.31499L7.99499 2.04006L7.89999 1.93006L8.19999 1.64506V1.45006L8.35499 1.56506Z" fill="#383739"/>
<path d="M8.48502 2.7601L8.37502 2.6451L8.47002 2.5901L8.58002 2.7001L8.48502 2.7601ZM8.20502 2.7401V2.5701L7.90502 2.2851L7.97502 2.2101L8.27502 2.4951H8.58002L8.20502 2.7401ZM6.61502 1.4751L6.73002 1.5701L6.63002 1.6251L6.52002 1.5301L6.61502 1.4751ZM6.90002 1.4751V1.6651L7.20002 1.9301L7.12502 2.0051L6.82502 1.7201H6.52502L6.90002 1.4951V1.4751Z" fill="#D22630"/>
<path d="M8.48502 1.4751L8.37502 1.5701L8.47002 1.6251L8.58002 1.5301L8.48502 1.4751ZM8.20502 1.4751V1.6651L7.90502 1.9301L7.97502 2.0051L8.27502 1.7201H8.58002L8.20502 1.4751ZM6.61502 2.7751L6.73002 2.6651L6.63002 2.6101L6.52002 2.7201L6.61502 2.7751ZM6.90002 2.7601V2.5901L7.20002 2.3051L7.12502 2.2301L6.82502 2.5151H6.52502L6.90002 2.7601Z" fill="#00843D"/>
<path d="M8.35002 2.11509L7.56502 2.65009L6.77002 2.12009L7.57002 1.59009L8.35002 2.11509Z" fill="#383739"/>
<path d="M7.55999 1.60498L6.80499 2.09998H8.31499L7.55999 1.60498ZM7.55999 1.60498V2.60498L8.30999 2.11498H6.79999L7.55499 2.60998L7.55999 1.60498Z" fill="white"/>
<path d="M7.76997 2.28503V2.43503H7.36997V2.28503H7.08997V1.93003H7.36997V1.78003H7.74997V1.93003H8.03497V2.30003L7.76997 2.28503Z" fill="#383739"/>
<path d="M7.36997 1.80005V1.95005H7.08997V2.10005H7.55997V1.80005H7.36997ZM7.55997 2.10005H8.03497V1.95005H7.74997V1.80005H7.55997V2.10005ZM7.08997 2.11505V2.28505H7.36997V2.42005H7.55997V2.12005L7.08997 2.11505ZM7.55997 2.41505H7.74997V2.28505H8.03497V2.11505H7.55997V2.41505Z" fill="#D22630"/>
<path d="M8.92 8.145V7.92H9.565V7.67H10.19V5.575H9.565V5.325H8.92V5.1H8.28V4.875H6.84V5.1H6.2V5.33H5.55V5.575H4.935V7.675H5.55V7.935H6.2V8.125H6.84V8.355H8.28V8.125L8.92 8.145Z" fill="#383739"/>
<path d="M6.86003 4.89502V5.10002H6.23503V5.33002H5.60003V5.57502H4.97003V7.65502H5.60003V7.88002H6.24003V8.13002H6.88503V8.35502H8.28503V8.12502H8.92503V7.90002H9.57003V7.65002H10.2V5.57502H9.56003V5.35002H8.88003V5.12002H8.23503V4.90002L6.86003 4.89502ZM7.05003 5.06502H8.09003V5.29002H8.73003V5.52002H9.37503V5.76502H10.02V7.48502H9.37503V7.75002H8.73003V7.93502H8.09003V8.16502H7.03003V7.93502H6.39003V7.75002H5.74503V7.50002H5.12003V5.78502H5.75003V5.53502H6.39503V5.29002H7.03503L7.05003 5.06502Z" fill="#FFC72C"/>
<path d="M6.425 7.93496V7.70996H5.765V7.48496H5.12V5.78496H5.765V5.53496H6.425V5.30996H7.06999V5.08496H8.09V5.28996H8.73V5.51996H9.375V5.76496H10.02V7.46496H9.375V7.68996H8.69499V7.93996H8.05V8.18496H7.03V7.93496H6.425Z" fill="#D22630"/>
<path d="M6.56003 5.4801L6.39003 5.3501V5.5951L6.24003 5.6901V5.5401L6.09003 5.6901L5.93503 5.5401V5.6901L5.74503 5.5901V5.8001L5.61503 5.9151V5.7851L5.42503 5.8951L5.27503 5.7851V5.9151L5.10003 5.8001V6.4651H4.91003V6.8051H5.10003V7.4651L5.27003 7.3501V7.5001L5.44003 7.3701L5.61003 7.5001V7.3501L5.74003 7.4651V7.6901L5.93003 7.5801V7.7301L6.08003 7.5801L6.23003 7.7301V7.5601L6.38003 7.6551V7.9001L6.55503 7.7651V7.9351L6.72503 7.7851L6.87503 7.9351V7.7501L7.02503 7.8601V8.1251L7.25503 7.9201V8.1451L7.55503 7.9551L7.85503 8.1451V7.9351L8.08503 8.1251V7.8801L8.23503 7.7651V7.9351L8.38503 7.7851L8.57503 7.9351V7.7501L8.72503 7.8801V7.6301L8.87503 7.5401V7.6901L9.03003 7.5401L9.18003 7.6901V7.5601L9.37003 7.6701V7.4501L9.50003 7.3351V7.4851L9.69003 7.3551L9.84003 7.4901V7.3401L10.015 7.4501V6.8101H10.2V6.4851H10.015V5.8251L9.84503 5.9401V5.8001L9.67003 5.9151L9.50003 5.8001V5.9351L9.37003 5.8201V5.6151L9.18003 5.7051V5.5551L9.03003 5.7051L8.88003 5.5551V5.7051L8.73003 5.6151V5.3651L8.55503 5.5001V5.3301L8.40503 5.4801L8.21503 5.3301V5.5001L8.08503 5.3851V5.1401L7.86003 5.3301V5.1001L7.56003 5.2901L7.25503 5.1001V5.2901L7.02503 5.1001V5.3501L6.87503 5.4601V5.2901L6.72503 5.4401L6.55503 5.2901L6.56003 5.4801Z" fill="#383739"/>
<path d="M5.29 5.9501V5.8001L5.44 5.9151L5.595 5.8001V5.9501L5.745 5.8201V7.4251L5.595 7.3151V7.4451L5.445 7.3301L5.295 7.4451V7.3151L5.12 7.4251V6.7651H4.935V6.4801H5.12V5.8201L5.29 5.9501ZM6.58 5.3501L6.73 5.4801L6.86 5.3501V5.5201L7.03 5.3851V7.8501L6.86 7.7351V7.9051L6.73 7.7701L6.58 7.9051V7.7351L6.41 7.8651V5.4101L6.58 5.5251V5.3501ZM8.545 5.3501L8.41 5.4801L8.26 5.3501V5.5201L8.09 5.3851V7.8501L8.26 7.7351V7.9051L8.41 7.7701L8.545 7.9051V7.7351L8.715 7.8651V5.4101L8.545 5.5251V5.3501ZM9.83 5.9501V5.8001L9.68 5.9151L9.53 5.8001V5.9501L9.375 5.8201V7.4251L9.525 7.3151V7.4451L9.675 7.3301L9.825 7.4451V7.3151L10 7.4251V6.7651H10.19V6.4801H10V5.8201L9.83 5.9501Z" fill="#00843D"/>
<path d="M5.95001 5.5951L6.08501 5.7051L6.22001 5.5951V5.7251L6.41001 5.6151V7.6351L6.22001 7.5201V7.6701L6.08501 7.5401L5.95501 7.6701V7.5201L5.76501 7.6351V5.6151L5.95501 5.7251L5.95001 5.5951ZM7.27501 5.3451L7.05001 5.1601V8.1101L7.27501 7.9001V8.1251L7.56001 7.9351L7.84501 8.1251V7.8801L8.07001 8.0701V5.1801L7.84501 5.3651V5.1001L7.56001 5.2901L7.27501 5.1001V5.3451ZM9.16501 5.5951L9.03501 5.7051L8.90501 5.5951V5.7251L8.71501 5.6151V7.6351L8.90501 7.5201V7.6701L9.03501 7.5401L9.18501 7.6701V7.5201L9.35501 7.6351V5.6151L9.16501 5.7251V5.5951Z" fill="#FFC72C"/>
<path d="M5.36994 6.32997L5.44494 6.36997C5.45994 6.36997 5.49994 6.36997 5.51994 6.32997C5.57494 6.27497 5.57494 6.15997 5.57494 6.08497L5.47994 6.17997L5.44494 6.08497L5.38494 6.17997L5.30994 6.08497C5.30994 6.15997 5.30994 6.27497 5.36994 6.33497V6.32997ZM6.04994 6.15997L5.98994 6.10497V6.00497L5.87994 6.12497L6.06494 6.30997L6.29494 6.12497L6.17994 6.00997V6.10497L6.12494 6.15997V5.96997L6.21994 5.89497L6.08494 5.78497L5.95494 5.89497L6.04994 5.99497V6.15997ZM6.66994 5.96997L6.63494 5.91497V5.79997L6.49994 5.91497L6.72994 6.12497L6.91994 5.93497L6.80494 5.79997V5.91497L6.76494 5.95497V5.76497L6.86494 5.70497L6.72994 5.59497L6.59494 5.70497L6.66994 5.78497V5.96997Z" fill="#383739"/>
<path d="M5.44496 6.12513L5.47996 6.20013L5.55496 6.12513C5.55496 6.21513 5.53996 6.29513 5.50496 6.31013C5.49797 6.31944 5.48891 6.327 5.4785 6.33221C5.46808 6.33742 5.4566 6.34013 5.44496 6.34013C5.43331 6.34013 5.42183 6.33742 5.41142 6.33221C5.401 6.327 5.39194 6.31944 5.38496 6.31013C5.34996 6.29513 5.32996 6.21513 5.32996 6.12513L5.40496 6.20013L5.44496 6.12513ZM6.74496 5.76513V6.01013L6.82496 5.91513V5.86013L6.89996 5.93513L6.70996 6.12513L6.51996 5.93513L6.61996 5.86013V5.93513L6.68996 6.03013V5.78013L6.61496 5.73013L6.72996 5.63013L6.82496 5.73013L6.74496 5.76513Z" fill="white"/>
<path d="M6.10496 5.97007V6.20007L6.19996 6.12507V6.04507L6.27496 6.12507L6.08496 6.31007L5.89496 6.12507L5.97496 6.04507V6.12507L6.04996 6.20007V5.97007L5.97496 5.89507L6.08496 5.82007L6.18496 5.89507L6.10496 5.97007Z" fill="#D22630"/>
<path d="M9.74994 6.32997L9.67494 6.36997C9.65827 6.37664 9.6416 6.3633 9.62494 6.32997C9.54494 6.27497 9.54494 6.15997 9.54494 6.08497L9.63994 6.17997L9.67494 6.08497L9.73494 6.17997L9.80994 6.08497C9.80994 6.15997 9.80994 6.27497 9.75494 6.33497L9.74994 6.32997ZM9.08994 6.15997L9.12994 6.10497V6.00497L9.24494 6.12497L9.05494 6.30997L8.82494 6.12497L8.93994 6.00997V6.10497L8.99494 6.15997V5.96997L8.90494 5.89497L9.03494 5.78497L9.16494 5.89497L9.08994 5.99497V6.15997ZM8.44994 5.96997L8.48494 5.91497V5.79997L8.61994 5.91497L8.40994 6.12497L8.18494 5.93497L8.31494 5.79997V5.91497L8.35494 5.95497V5.76497L8.27994 5.70497L8.40994 5.59497L8.54494 5.70497L8.44494 5.78497L8.44994 5.96997Z" fill="#383739"/>
<path d="M9.67497 6.12513L9.63997 6.20013L9.56497 6.12513C9.56497 6.21513 9.58497 6.29513 9.61997 6.31013C9.62701 6.31853 9.63581 6.32529 9.64574 6.32993C9.65568 6.33457 9.66651 6.33697 9.67747 6.33697C9.68844 6.33697 9.69927 6.33457 9.7092 6.32993C9.71913 6.32529 9.72793 6.31853 9.73497 6.31013C9.76997 6.29513 9.78997 6.21513 9.78997 6.12513L9.73497 6.20013L9.67497 6.12513ZM8.37497 5.76513V6.01013L8.29997 5.91513V5.86013L8.21997 5.93513L8.40997 6.12513L8.59997 5.93513L8.50497 5.86013V5.93513L8.42997 6.03013V5.78013L8.50497 5.73013L8.40997 5.63013L8.29997 5.73013L8.37497 5.76513Z" fill="white"/>
<path d="M9.01493 5.97007V6.20007L8.93993 6.12507V6.04507L8.86493 6.12507L9.05493 6.31007L9.24493 6.12507L9.14493 6.04507V6.12507L9.07493 6.20007V5.97007L9.14993 5.89507L9.03493 5.82007L8.93993 5.89507L9.01493 5.97007Z" fill="#D22630"/>
<path d="M7.80495 6.05004L7.74995 5.93504L7.91995 5.78504L7.74995 5.65004V5.74504L7.69495 5.80004V5.61504L7.84495 5.51504L7.55995 5.29004L7.27495 5.48004L7.42495 5.61504V5.78504L7.37495 5.72504V5.63004L7.19995 5.76504L7.38995 5.91504L7.31495 6.01004L7.80495 6.05004Z" fill="#383739"/>
<path d="M7.34997 6.03008L7.40997 5.93008L7.21997 5.78008L7.35497 5.69008V5.74508L7.44497 5.84008V5.61508L7.31497 5.51508L7.56497 5.33008L7.80497 5.52008L7.67497 5.61508V5.86008L7.76997 5.76008V5.71008L7.89997 5.80008L7.70997 5.95008L7.78497 6.05008L7.34997 6.03008Z" fill="#D22630"/>
<path d="M7.42999 5.52005L7.55999 5.61505L7.69499 5.51505L7.55999 5.42505L7.42999 5.52005Z" fill="#383739"/>
<path d="M7.5599 5.44507L7.6549 5.52007L7.5599 5.57507L7.4649 5.52007L7.5599 5.44507Z" fill="#00843D"/>
<path d="M5.36994 6.91513C5.37922 6.90428 5.39071 6.89554 5.40365 6.8895C5.41658 6.88347 5.43066 6.88027 5.44494 6.88013C5.45994 6.88013 5.49994 6.88013 5.51994 6.91513C5.57494 6.97513 5.57494 7.08513 5.57494 7.16513L5.47994 7.08513L5.44494 7.16013L5.38494 7.08513L5.30994 7.16013C5.30994 7.08513 5.30994 6.97513 5.36994 6.91513ZM6.04994 7.08513L5.98994 7.14513V7.24013L5.87994 7.12513L6.06494 6.93513L6.29494 7.12513L6.17994 7.24013V7.14013L6.12494 7.09013V7.27513L6.21994 7.35013L6.08494 7.46513L5.95494 7.35013L6.04994 7.25513V7.08513ZM6.66994 7.27513L6.63494 7.33013V7.44513L6.49994 7.33013L6.72994 7.12513L6.91994 7.33013L6.80494 7.44513V7.33013L6.76494 7.29513V7.48513L6.86494 7.54013L6.72994 7.65513L6.59494 7.54013L6.66994 7.46513V7.27513Z" fill="#383739"/>
<path d="M5.44496 7.12503L5.47996 7.05003L5.55496 7.12503C5.55496 7.02503 5.53829 6.9617 5.50496 6.93503C5.49797 6.92571 5.48891 6.91815 5.4785 6.91295C5.46808 6.90774 5.4566 6.90503 5.44496 6.90503C5.43331 6.90503 5.42183 6.90774 5.41142 6.91295C5.401 6.91815 5.39194 6.92571 5.38496 6.93503C5.35162 6.9617 5.33329 7.02503 5.32996 7.12503L5.40496 7.05003L5.44496 7.12503ZM6.74496 7.48503V7.23503L6.82496 7.33503V7.41003L6.89996 7.33003L6.70996 7.14503L6.51996 7.33003L6.61996 7.41003V7.33003L6.68996 7.24003V7.48503L6.61496 7.54003L6.72996 7.63503L6.82496 7.54003L6.74496 7.48503Z" fill="white"/>
<path d="M6.10496 7.27506V7.05006L6.19996 7.12506V7.20006L6.27496 7.12506L6.08496 6.93506L5.89496 7.12506L5.97496 7.20006V7.12506L6.04996 7.05006V7.27506L5.97496 7.35006L6.08496 7.42506L6.18496 7.35006L6.10496 7.27506Z" fill="#D22630"/>
<path d="M9.74994 6.91499C9.74066 6.90414 9.72916 6.89541 9.71623 6.88937C9.70329 6.88333 9.68921 6.88013 9.67494 6.87999C9.65827 6.87333 9.6416 6.88499 9.62494 6.91499C9.54494 6.97499 9.54494 7.08499 9.54494 7.16499L9.63994 7.08499L9.67494 7.15999L9.73494 7.08499L9.80994 7.15999C9.80994 7.08499 9.80994 6.97499 9.75494 6.91499H9.74994ZM9.08994 7.08499L9.12994 7.14499V7.23999L9.24494 7.12499L9.05494 6.93499L8.82494 7.12499L8.93994 7.23999V7.13999L8.99494 7.08999V7.27499L8.90494 7.34999L9.03494 7.46499L9.16494 7.34999L9.08994 7.25499V7.08499ZM8.44994 7.27499L8.48494 7.32999V7.44499L8.61994 7.32999L8.40994 7.12499L8.18494 7.32999L8.31494 7.44499V7.32999L8.35494 7.29499V7.48499L8.27994 7.53999L8.40994 7.65499L8.54494 7.53999L8.44494 7.46499L8.44994 7.27499Z" fill="#383739"/>
<path d="M9.67497 7.12505L9.63997 7.05005L9.56497 7.12505C9.56497 7.02505 9.5833 6.96172 9.61997 6.93505C9.62701 6.92664 9.63581 6.91988 9.64574 6.91525C9.65568 6.91061 9.66651 6.9082 9.67747 6.9082C9.68844 6.9082 9.69927 6.91061 9.7092 6.91525C9.71913 6.91988 9.72793 6.92664 9.73497 6.93505C9.7683 6.96172 9.78664 7.02505 9.78997 7.12505L9.73497 7.05005L9.67497 7.12505ZM8.37497 7.48505V7.23505L8.29997 7.33505V7.41005L8.21997 7.33005L8.40997 7.14505L8.59997 7.33005L8.50497 7.41005V7.33005L8.42997 7.24005V7.48505L8.50497 7.54005L8.40997 7.63505L8.29997 7.54005L8.37497 7.48505Z" fill="white"/>
<path d="M9.01493 7.27506V7.05006L8.93993 7.12506V7.20006L8.86493 7.12506L9.05493 6.93506L9.24493 7.12506L9.14493 7.20006V7.12506L9.07493 7.05006V7.27506L9.14993 7.35006L9.03493 7.42506L8.93993 7.35006L9.01493 7.27506Z" fill="#D22630"/>
<path d="M7.80495 7.21997L7.74995 7.31497L7.91995 7.46497L7.74995 7.59497V7.49997L7.69495 7.44997V7.63497L7.84495 7.72997L7.55995 7.93497L7.27495 7.74997L7.42495 7.61497V7.44997L7.37495 7.50497V7.60497L7.19995 7.46997L7.38995 7.31997L7.31495 7.21997H7.80495Z" fill="#383739"/>
<path d="M7.34997 7.23999L7.40997 7.31499L7.21997 7.46499L7.35497 7.55999V7.49999L7.44497 7.40999V7.63499L7.31497 7.72999L7.56497 7.91999L7.80497 7.72999L7.67497 7.62999V7.40999L7.76997 7.49999V7.55999L7.89997 7.45999L7.70997 7.30999L7.78497 7.23999H7.34997Z" fill="#D22630"/>
<path d="M7.42999 7.75001L7.55999 7.63501L7.69499 7.73001L7.55999 7.82501L7.42999 7.75001Z" fill="#383739"/>
<path d="M7.5599 7.79992L7.6549 7.72992L7.5599 7.66992L7.4649 7.72992L7.5599 7.79992Z" fill="#00843D"/>
<path d="M9.83003 6.51992H9.56503V6.42492H8.69503L8.09003 6.04492H7.03003L6.43003 6.42492H5.55003V6.53992H5.28503V6.72992H5.55003V6.85992H6.42003L7.02503 7.23992H8.08503L8.68503 6.85992H9.56003V6.74492H9.82503L9.83003 6.51992Z" fill="#383739"/>
<path d="M7.03 6.04992L6.43 6.42492H5.58V6.53992H5.31V6.70992H5.575V6.81992H6.425L7.03 7.19992H8.09L8.69 6.81992H9.55V6.70992H9.835V6.53992H9.55V6.42492H8.7L8.095 6.04492L7.03 6.04992ZM7.03 6.09992H8.07L8.64 6.46492V6.51492H9.24V6.74492H8.62V6.80492L8.07 7.14492H7.05L6.485 6.80492V6.74492H5.88V6.51992H6.5V6.46492L7.03 6.09992Z" fill="#D22630"/>
<path d="M8.07002 6.1001L8.60002 6.4801V6.5201H9.22502V6.7101H8.60002V6.7851L8.07002 7.1451H7.05002L6.52002 6.7851V6.7301H5.90002V6.5401H6.52502V6.4651L7.05002 6.1001H8.07002Z" fill="#D22630"/>
<path d="M6.78499 6.81991L7.00999 7.00991L7.15999 6.87991L7.08999 6.81991L7.00999 6.85991L6.95999 6.81991L7.82499 6.15991H7.65499L6.78499 6.81991ZM7.29499 7.08491H7.46499L8.33499 6.42491L8.10999 6.23491L7.95999 6.36991L8.04999 6.42491L8.10999 6.38491L8.16499 6.42491L7.29499 7.08491ZM7.67499 7.08491H7.82499L6.95499 6.42491L7.00999 6.38491L7.08999 6.42491L7.16499 6.36991L7.01499 6.25491L6.78499 6.42491L7.67499 7.08491ZM8.16499 6.81991L8.10999 6.85991L8.04999 6.81991L7.95499 6.87991L8.10499 6.98991L8.33499 6.81991L7.46499 6.15991H7.27499L8.16499 6.81991ZM6.61499 6.63491L6.76499 6.72991L6.91499 6.62991L6.76499 6.51991L6.61499 6.63491ZM7.40999 6.61491L7.55999 6.72991L7.70999 6.62991L7.55999 6.51991L7.40999 6.61491ZM8.50999 6.61491L8.35499 6.72991L8.20499 6.62991L8.35499 6.51991L8.50999 6.61491Z" fill="#383739"/>
<path d="M8.31499 6.81993L8.10999 6.96993L7.97499 6.87993L8.04999 6.83993L8.10999 6.87993L8.18499 6.81993L7.33499 6.17993H7.46499L8.31499 6.81993ZM7.78499 7.06993H7.65499L6.80499 6.42493L7.00999 6.27493L7.14499 6.36993L7.08999 6.40493L7.00999 6.36993L6.93499 6.42493L7.78499 7.06993ZM7.46499 7.06993H7.33499L8.18499 6.42493L8.10999 6.36993L8.04999 6.40493L7.97499 6.36993L8.10999 6.26993L8.29999 6.42493L7.46499 7.06993ZM7.65499 6.17993H7.78499L6.93499 6.81993L7.00999 6.87993L7.08999 6.83993L7.13999 6.87993L7.00999 6.97493L6.82499 6.82493L7.65499 6.17993Z" fill="#FFC72C"/>
<path d="M6.76501 6.54004L6.88001 6.63504L6.76501 6.71004L6.63501 6.63504L6.76501 6.54004ZM7.56501 6.54004L7.69501 6.63504L7.56001 6.71004L7.43001 6.63504L7.56501 6.54004ZM8.35501 6.54004L8.24001 6.63504L8.35501 6.71004L8.48501 6.63504L8.35501 6.54004Z" fill="#00843D"/>
<path d="M4.82001 10.9599L4.76501 11.0549L4.87501 11.1299L4.76501 11.2249L4.82001 11.2999L4.95001 11.3199L5.06501 11.2249L5.38501 11.4149V11.2649L5.20001 11.1299L5.38501 11.0149V10.8499L5.06501 11.0399L4.95001 10.9649L4.82001 10.9599ZM4.82001 10.3949L4.76501 10.4899L4.87501 10.5649L4.76501 10.6599L4.82001 10.7349L4.95001 10.7549L5.06501 10.6549L5.38501 10.8449V10.6949L5.20001 10.5649L5.38501 10.4499V10.2799L5.06501 10.4699L4.95001 10.3949H4.82001ZM4.82001 11.8699L4.76501 11.7899L4.87501 11.6999L4.76501 11.6199L4.82001 11.5299H4.95001L5.06501 11.6049L5.38501 11.4149V11.5849L5.20001 11.6999L5.38501 11.8299V11.9799L5.06501 11.7899L4.95001 11.8899L4.82001 11.8699ZM10.3 10.9599L10.36 11.0549L10.245 11.1299L10.36 11.2249L10.3 11.2999L10.17 11.3199L10.055 11.2249L9.73501 11.4149V11.2649L9.92501 11.1299L9.73501 11.0149V10.8499L10.055 11.0399L10.17 10.9649L10.3 10.9599ZM10.3 10.3949L10.36 10.4899L10.245 10.5649L10.36 10.6599L10.3 10.7349L10.17 10.7549L10.055 10.6549L9.73501 10.8449V10.6949L9.92501 10.5649L9.73501 10.4499V10.2799L10.055 10.4699L10.17 10.3949H10.3ZM10.3 11.8699L10.36 11.7899L10.245 11.6999L10.36 11.6199L10.3 11.5299H10.17L10.05 11.5999L9.73001 11.4099V11.5799L9.92001 11.6949L9.73001 11.8249V11.9749L10.05 11.7849L10.165 11.8849L10.3 11.8699ZM9.07501 9.44994V9.67494H9.24501V9.78994H9.41501V9.59994H9.26501V9.44994H9.07501ZM9.56501 9.82494V10.0149H9.75501V10.1099H9.90501V9.91994H9.75501V9.82494H9.56501ZM6.05001 9.44994V9.67494H5.88001V9.78994H5.71001V9.59994H5.86001V9.44994H6.05001ZM9.07501 12.8499V12.6249H9.24501V12.5249H9.41501V12.7199H9.26501V12.8699L9.07501 12.8499ZM6.05001 12.8499V12.6249H5.88001V12.5249H5.71001V12.7199H5.86001V12.8699L6.05001 12.8499ZM9.56501 12.4699V12.2499H9.75501V12.1349H9.90501V12.3249H9.75501V12.4749L9.56501 12.4699ZM5.55001 9.82494V10.0149H5.36501V10.1099H5.21501V9.91994H5.36501V9.82494H5.55001ZM5.55001 12.4899V12.2649H5.36501V12.1499H5.21501V12.3399H5.36501V12.4899H5.55001ZM8.20001 9.44994L8.06501 9.31494L7.93501 9.42994L8.04501 9.54494L7.89501 9.67494H8.10501L8.18001 9.59994L8.25501 9.67494H8.50501L8.35001 9.54994L8.46501 9.43494L8.33001 9.31994L8.20001 9.44994ZM7.55501 9.44994L7.42501 9.31494L7.29001 9.42994L7.40501 9.54494L7.27001 9.67494H7.48001L7.55501 9.59994L7.63001 9.67494H7.84001L7.70501 9.54494L7.82001 9.42994L7.69001 9.31494L7.55501 9.44994ZM6.93001 9.44994L7.06501 9.31494L7.18001 9.42994L7.06501 9.54494L7.21501 9.67494H7.00501L6.93001 9.59994L6.85501 9.67494H6.61001L6.76001 9.54494L6.65001 9.42994L6.78001 9.31494L6.91501 9.44994H6.93001ZM8.18001 12.8499L8.06501 12.9999L7.93501 12.8699L8.04501 12.7749L7.89501 12.6249H8.10501L8.18001 12.6999L8.25501 12.6249H8.50501L8.35001 12.7749L8.46501 12.8699L8.33001 12.9999L8.18001 12.8499ZM7.55501 12.8499L7.42501 12.9999L7.29001 12.8699L7.40501 12.7749L7.27001 12.6249H7.48001L7.55501 12.6999L7.63001 12.6249H7.84001L7.70501 12.7749L7.82001 12.8699L7.69001 12.9999L7.55501 12.8499ZM6.93001 12.8499L7.06501 12.9999L7.18001 12.8699L7.06501 12.7749L7.21501 12.6249H7.00501L6.93001 12.6999L6.85501 12.6249H6.61001L6.76001 12.7749L6.65001 12.8699L6.78001 12.9999L6.91501 12.8699L6.93001 12.8499Z" fill="#383739"/>
<path d="M5.36997 11.265V11.395L5.06997 11.205L4.94997 11.305H4.83997L4.77997 11.225L4.89497 11.13L4.77997 11.055L4.83997 10.98H4.94997L5.06497 11.075L5.36497 10.885V11L5.15997 11.13L5.36997 11.265ZM5.36997 10.695V10.83L5.06997 10.64L4.94997 10.735H4.83997L4.77997 10.66L4.89497 10.56L4.77997 10.49L4.83997 10.415H4.94997L5.06497 10.505L5.36497 10.32V10.43L5.15997 10.565L5.36997 10.695ZM5.36997 11.565V11.45L5.06997 11.64L4.94997 11.53H4.83997L4.77997 11.605L4.89997 11.7L4.78497 11.79L4.84497 11.85H4.94997L5.06497 11.775L5.36497 11.96V11.83L5.15997 11.7L5.36997 11.565ZM9.75497 11.265V11.395L10.055 11.205L10.19 11.305H10.28L10.34 11.225L10.225 11.13L10.34 11.055L10.28 10.98H10.205L10.075 11.075L9.77497 10.885V11L9.97997 11.13L9.75497 11.265ZM9.75497 10.695V10.83L10.055 10.64L10.19 10.735H10.28L10.34 10.66L10.225 10.56L10.34 10.49L10.28 10.415H10.205L10.075 10.505L9.77497 10.32V10.43L9.97997 10.565L9.75497 10.695ZM9.75497 11.565V11.45L10.055 11.64L10.19 11.53H10.28L10.34 11.605L10.225 11.7L10.34 11.79L10.28 11.85H10.205L10.075 11.775L9.77497 11.96V11.83L9.97997 11.7L9.75497 11.565ZM9.25997 9.44996V9.59996H9.40997V9.74996H9.25997V9.63996H9.07497V9.44996H9.25997ZM9.76997 9.82496V9.95996H9.90497V10.11H9.76997V10.015H9.59997V9.82496H9.76997ZM5.85997 9.44996V9.59996H5.70997V9.74996H5.83997V9.63996H6.02997V9.44996H5.85997ZM9.25997 12.83V12.66H9.40997V12.51H9.25997V12.605H9.07497V12.795L9.25997 12.83ZM5.89497 12.83V12.66H5.74497V12.51H5.87997V12.605H6.06497V12.795L5.89497 12.83ZM9.76997 12.455V12.305H9.90497V12.155H9.76997V12.265H9.59997V12.455H9.76997ZM5.38497 9.82496V9.97496H5.23497V10.125H5.36997V10.015H5.53997V9.82496H5.38497ZM5.38497 12.475V12.325H5.23497V12.17H5.36997V12.285H5.53997V12.47L5.38497 12.475ZM8.06997 9.33496L8.18497 9.46996L8.31497 9.33496L8.42997 9.42996L8.31497 9.54496L8.44997 9.65496H8.25997L8.18497 9.57996L8.10997 9.65496H7.93997L8.06997 9.54496L7.95497 9.42996L8.06997 9.33496ZM7.42997 9.33496L7.55997 9.46996L7.69497 9.33496L7.78497 9.42996L7.67497 9.54496L7.80497 9.65496H7.63497L7.55997 9.57996L7.48497 9.65496H7.29497L7.44497 9.54496L7.33497 9.42996L7.42997 9.33496ZM7.04997 9.33496L6.93497 9.46996L6.80497 9.33496L6.68997 9.42996L6.80497 9.54496L6.68997 9.65496H6.83997L6.93997 9.57996L7.00997 9.65496H7.18497L7.04997 9.54996L7.16497 9.43496L7.04997 9.33496ZM8.06997 12.965L8.18497 12.85L8.31497 12.965L8.42997 12.865L8.31497 12.775L8.44997 12.645H8.25997L8.18497 12.72L8.10997 12.645H7.93997L8.06997 12.775L7.95497 12.87L8.06997 12.965ZM7.42997 12.965L7.55997 12.85L7.69497 12.965L7.78497 12.865L7.67497 12.775L7.80497 12.645H7.63497L7.55997 12.72L7.48497 12.645H7.29497L7.44497 12.775L7.33497 12.87L7.42997 12.965ZM7.04997 12.965L6.93497 12.85L6.80497 12.965L6.68997 12.865L6.80497 12.775L6.68997 12.645H6.83997L6.93997 12.72L7.00997 12.645H7.18497L7.04997 12.775L7.16497 12.87L7.04997 12.965Z" fill="#00843D"/>
<path d="M5.85999 12.2651V12.6451H9.25999V12.2651H9.755V10.0151H9.25999V9.64014H5.85999V10.0151H5.37V12.2651H5.85999Z" fill="#383739"/>
<path d="M5.88001 9.65514V10.0351H5.38501V12.2451H5.86001V12.6251H9.26001V12.2451H9.75501V10.0151H9.26001V9.64014H5.86001L5.88001 9.65514ZM6.10501 9.80514H9.01501V10.1651L9.15001 10.2451H9.60001V12.0201H9.15001L9.01501 12.1151V12.4701H6.10501V12.1001L5.97501 12.0251H5.52001V10.2501H5.97001L6.10501 10.1701V9.79514V9.80514Z" fill="#FFC72C"/>
<path d="M6.12503 9.82495V10.15L6.56003 9.82495H6.12503ZM8.58003 9.82495L8.99503 10.15V9.82495H8.58003ZM5.55503 10.26V10.585L5.95503 10.285L5.55503 10.26ZM9.16503 10.26L9.58503 10.585V10.26H9.16503ZM9.58503 11.7L9.16503 12H9.58503V11.7ZM5.53503 11.7V12H5.95503L5.53503 11.7ZM6.10503 12.13V12.455H6.55503L6.10503 12.13ZM8.99503 12.13L8.56003 12.455H8.99503V12.13Z" fill="#D22630"/>
<path d="M8.54498 9.82506L9.58498 10.5851V11.6801L8.54498 12.4301H6.57998L5.53998 11.6801V10.5801L6.57998 9.81006L8.54498 9.82506Z" fill="#00843D"/>
<path d="M5.78504 11.79L5.67004 11.66L5.78504 11.53L5.67004 11.395L5.78504 11.265L5.67004 11.13L5.78504 11L5.67004 10.865L5.78504 10.735L5.67004 10.62L5.78504 10.47H9.33504L9.45004 10.62L9.33504 10.735L9.45004 10.865L9.33504 11L9.45004 11.13L9.33504 11.265L9.45004 11.395L9.33504 11.53L9.45004 11.66L9.33504 11.79H5.78504ZM8.24004 9.99499L8.09004 9.86499L7.95504 9.97999L7.82504 9.86499L7.69504 9.97999L7.56004 9.86499L7.43004 9.97999L7.29504 9.86499L7.16504 9.97999L7.03004 9.86499L6.90004 9.99499V12.265L7.03004 12.395L7.16504 12.285L7.29504 12.395L7.43004 12.285L7.56004 12.395L7.69504 12.285L7.82504 12.395L7.95504 12.285L8.09004 12.395L8.22004 12.285L8.24004 9.99499Z" fill="#383739"/>
<path d="M7.93994 10.0149L7.82494 9.8999L7.69494 9.9999V12.2649L7.82494 12.3799L7.93994 12.2649V10.0149ZM7.42994 10.0149L7.29494 9.8999L7.18494 9.9999V12.2649L7.29494 12.3799L7.42994 12.2649V10.0149Z" fill="#FFC72C"/>
<path d="M5.79994 11.79L5.68994 11.66L5.80494 11.545H9.31994L9.42994 11.66L9.31994 11.79H5.79994ZM9.31994 11.015L9.42994 11.13L9.31994 11.265H5.79994L5.68494 11.13L5.79994 11.015H9.31994ZM9.31994 10.735L9.42994 10.62L9.31994 10.49H5.79994L5.68494 10.62L5.79994 10.735H9.31994Z" fill="#FFC72C"/>
<path d="M8.20006 10.0149L8.09006 9.8999L7.95506 9.9999V12.2649L8.09006 12.3799L8.20506 12.2649L8.20006 10.0149ZM7.18506 10.0149L7.05006 9.8999L6.93506 9.9999V12.2649L7.05006 12.3799L7.18506 12.2649V10.0149Z" fill="#D22630"/>
<path d="M5.80006 11.5299L5.69006 11.3949L5.80506 11.2799H9.32006L9.43006 11.3949L9.32006 11.5299H5.80006ZM5.80006 10.9999L5.69006 10.8649L5.80506 10.7549H9.32006L9.43006 10.8649L9.32006 10.9999H5.80006Z" fill="#D22630"/>
<path d="M7.69501 12.2849L7.56001 12.3799L7.44501 12.2649V10.0149L7.56001 9.91992L7.69501 10.0199V12.2849Z" fill="#D22630"/>
<path d="M8.74999 10.0349H6.36999V10.2249H6.04999V12.0399H6.34999V12.2249H8.72999V12.0399H9.07499V10.2249H8.76999V10.0349H8.74999Z" fill="#383739"/>
<path d="M6.38997 10.0499V10.2449H6.08997V12.0199H6.38997V12.2099H6.61497L6.12497 11.7899V10.4699L6.61497 10.0549H6.36997L6.38997 10.0499ZM8.48997 10.0499L8.97997 10.4899V11.8099L8.50497 12.1899H8.75497V11.9999H9.05497V10.2249H8.75497V10.0349H8.50497L8.48997 10.0499Z" fill="#D22630"/>
<path d="M6.65003 10.05L6.16003 10.49V11.79L6.65503 12.21H8.47003L8.96003 11.79V10.47L8.47003 10.055L6.65003 10.05ZM6.69003 10.13H8.43003L8.90503 10.505V11.755L8.43003 12.13H6.69003L6.22003 11.755V10.525L6.69003 10.13Z" fill="#00843D"/>
<path d="M7.14499 11.7751L7.21999 11.8101L7.23999 11.9101L7.13999 11.9801L7.29499 12.1151H7.14499L7.04999 12.0151L6.95499 12.1151H6.80499L6.93499 11.9801L6.83999 11.9051V11.8101L6.93999 11.7751L7.02999 11.8501L7.14499 11.7751ZM7.65499 11.7751L7.72999 11.8101L7.74999 11.9101L7.65499 11.9801L7.80499 12.1151H7.65499L7.55999 12.0151L7.46499 12.1151H7.33499L7.46499 11.9801L7.36999 11.9051V11.8101L7.46999 11.7751L7.55999 11.8501L7.65499 11.7751ZM7.97499 11.7751L7.89999 11.8101L7.87999 11.9101L7.97999 11.9801L7.84499 12.1151H7.97499L8.07499 12.0151L8.16499 12.1151H8.31499L8.16499 11.9801L8.25999 11.9051V11.8101L8.16499 11.7751L8.06999 11.8501L7.97499 11.7751ZM7.14999 10.5001L7.22499 10.4651L7.24499 10.3701L7.14499 10.2751L7.29999 10.1451H7.14999L7.05499 10.2401L6.95999 10.1401H6.80999L6.93999 10.2751L6.84499 10.3701V10.4651L6.94499 10.5001L7.03499 10.4101L7.14999 10.5001ZM7.65999 10.5001L7.73499 10.4651L7.75499 10.3701L7.65999 10.2751L7.80999 10.1451H7.65999L7.56499 10.2401L7.46999 10.1401H7.33999L7.46999 10.2751L7.37499 10.3701V10.4651L7.47499 10.5001L7.56499 10.4101L7.65999 10.5001ZM7.97999 10.5001L7.90499 10.4651L7.88499 10.3701L7.98499 10.2751L7.84999 10.1451H7.97999L8.07999 10.2401L8.16999 10.1401H8.31999L8.16999 10.2751L8.26499 10.3701V10.4651L8.16999 10.5001L8.07499 10.4101L7.97999 10.5001ZM8.88999 10.6351L8.81499 10.7101L8.88999 10.7651V10.8801L8.75499 10.7851L8.67999 10.8601H8.58499L8.54999 10.7851L8.62499 10.7101L8.54999 10.6351L8.58499 10.5601H8.68499L8.75499 10.6351L8.88999 10.5401V10.6351ZM8.88999 11.0701L8.81499 11.1251L8.88999 11.2001V11.3001L8.75499 11.2001L8.67999 11.2751H8.58499L8.54999 11.2001L8.62499 11.1251L8.54999 11.0501L8.58499 10.9951H8.68499L8.75499 11.0501L8.88999 10.9551V11.0701ZM8.88999 11.6351L8.81499 11.5601L8.88999 11.4851V11.3901L8.75499 11.4851L8.67999 11.4101H8.58499L8.54999 11.4851L8.62499 11.5601L8.54999 11.6351L8.58499 11.6951H8.68499L8.75499 11.6351L8.88999 11.7351V11.6351ZM6.23999 10.6351L6.33999 10.7101L6.23999 10.7651V10.8801L6.37499 10.7851L6.44999 10.8601H6.54499L6.58499 10.7851L6.50499 10.7101L6.58499 10.6351L6.54499 10.5601H6.44999L6.37499 10.6351L6.23999 10.5401V10.6351ZM6.23999 11.0701L6.33999 11.1251L6.23999 11.2001V11.3001L6.37499 11.2001L6.44999 11.2751H6.54499L6.58499 11.2001L6.50499 11.1251L6.58499 11.0501L6.54499 10.9951H6.44999L6.37499 11.0501L6.23999 10.9551V11.0701ZM6.23999 11.6351L6.33999 11.5601L6.23999 11.4851V11.3901L6.37499 11.4851L6.44999 11.4101H6.54499L6.58499 11.4851L6.50499 11.5601L6.58499 11.6351L6.54499 11.6951H6.44999L6.37499 11.6351L6.23999 11.7351V11.6351Z" fill="#00843D"/>
<path d="M6.69003 10.1499L6.25503 10.5249L6.37003 10.6249L6.44503 10.5449H6.56003L6.59503 10.6399L6.52003 10.7149L6.59503 10.7899L6.56003 10.8649H6.42503L6.35003 10.8099L6.22003 10.9049V10.9399L6.35003 11.0399L6.42503 10.9599L6.54003 10.9799L6.58003 11.0549L6.50003 11.1299L6.58003 11.2049L6.54003 11.3049H6.42503L6.35003 11.2249L6.22003 11.3399V11.3549L6.35003 11.4699L6.42503 11.3949H6.54003L6.58003 11.4899L6.50003 11.5649L6.58003 11.6399L6.54003 11.7149H6.42503L6.35003 11.6599L6.23503 11.7549L6.67003 12.1299H6.77003L6.92003 11.9799L6.82003 11.9049V11.7899L6.93503 11.7549L7.03503 11.8299L7.12503 11.7549L7.22503 11.7899L7.24003 11.9049L7.14003 11.9799L7.29503 12.1149L7.43003 11.9799L7.33003 11.9049V11.7899L7.44503 11.7549L7.54503 11.8299L7.63503 11.7549L7.73503 11.7899L7.75003 11.9049L7.65503 11.9799L7.78503 12.1149L7.93503 11.9799L7.84503 11.9049V11.7899L7.95503 11.7549L8.05503 11.8299L8.14503 11.7549L8.24503 11.7899L8.26003 11.9049L8.16503 11.9799L8.31503 12.1149H8.41503L8.84503 11.7349L8.73003 11.6599L8.65503 11.7349L8.54503 11.7149L8.50503 11.6399L8.58003 11.5649L8.50503 11.4899L8.54503 11.4149L8.65503 11.3949L8.73003 11.4699L8.86503 11.3549V11.3399L8.73003 11.2249L8.65503 11.2999H8.55003L8.51003 11.2049L8.58503 11.1299L8.51003 11.0549L8.55003 10.9799H8.66003L8.73503 11.0349L8.87003 10.9399V10.9049L8.73503 10.8049L8.66003 10.8849L8.55003 10.8649L8.51003 10.7899L8.58503 10.7149L8.51003 10.6399L8.55003 10.5649L8.66003 10.5449L8.73503 10.6199L8.85003 10.5249L8.41503 10.1499H8.32003L8.17003 10.2799L8.26503 10.3749V10.4899L8.15003 10.5249L8.05503 10.4499L7.96003 10.5249L7.87003 10.4899L7.85003 10.3749L7.94503 10.2799L7.81003 10.1499L7.66003 10.2799L7.75503 10.3749V10.4899L7.64003 10.5249L7.54503 10.4499L7.45003 10.5249L7.36003 10.4899L7.34003 10.3749L7.43503 10.2799L7.30003 10.1499L7.15003 10.2799L7.24503 10.3749V10.4899L7.13003 10.5249L7.03503 10.4499L6.94003 10.5249L6.84503 10.4899L6.83003 10.3749L6.92503 10.2799L6.77503 10.1499H6.69003ZM6.24003 11.0949V11.1849L6.29003 11.1349L6.24003 11.0949Z" fill="#D22630"/>
<path d="M7.04999 12.0549L6.97499 12.1149H7.12499L7.04999 12.0549ZM7.55999 12.0549L7.48499 12.1149H7.63499L7.55999 12.0549ZM8.06999 12.0549L7.99499 12.1149H8.14499L8.06999 12.0549ZM6.96999 10.1649L7.04999 10.2249L7.12499 10.1499L6.96999 10.1649ZM7.48499 10.1649L7.55999 10.2249L7.63499 10.1499L7.48499 10.1649ZM7.99499 10.1649L8.06999 10.2249L8.14499 10.1499L7.99499 10.1649ZM8.88499 10.6749L8.82499 10.7149L8.88499 10.7549V10.6749ZM8.88499 11.0949L8.82499 11.1299L8.88499 11.1849V11.0949ZM8.88499 11.5299L8.82499 11.5649L8.88499 11.6049V11.5299ZM6.23499 10.6599V10.7549L6.29499 10.7149L6.23499 10.6599ZM6.23499 11.0949V11.1849L6.29499 11.1349L6.23499 11.0949ZM6.23499 11.5099V11.6049L6.29499 11.5649L6.23499 11.5099Z" fill="white"/>
<path d="M8.00004 11V10.85H7.84504V10.675H7.27504V10.845H7.12504V10.995H6.92004V11.28H7.12504V11.43H7.27504V11.605H7.85004V11.415H8.00004V11.28H8.21004V11H8.00004Z" fill="#383739"/>
<path d="M7.56 10.7V10.865L7.315 11V11.13H6.935V11.015H7.125V10.865H7.295V10.675L7.56 10.7ZM7.56 11.585V11.395L7.81 11.265V11.15H8.185V11.265H7.995V11.415H7.825V11.585H7.56Z" fill="#FFC72C"/>
<path d="M7.805 11.13V11L7.56 10.865V10.675H7.825V10.865H7.975V11.015H8.185V11.13H7.805ZM6.935 11.13H7.315V11.265L7.565 11.415V11.585H7.295V11.395H7.145V11.265H6.935V11.13Z" fill="white"/>
<path d="M7.33502 11.15V11.265L7.56002 11.395V11.145L7.33502 11.15Z" fill="#D22630"/>
<path d="M7.56002 10.885L7.33502 11.015V11.13H7.56002V10.885Z" fill="#00843D"/>
<path d="M7.785 11.13V11.015L7.56 10.885V11.135L7.785 11.13Z" fill="#D22630"/>
<path d="M7.56 11.3999L7.785 11.2649V11.1499H7.56V11.3999Z" fill="#00843D"/>
<path d="M5.49999 14.1501V14.6251H5.06499V15.0451H4.61499V16.2501H5.06499V16.6851H5.47999V17.1401H7.10499L7.38999 17.3301L7.25999 17.4051H6.68999L6.63499 17.3501H7.18499L7.03499 17.2001H6.27499L6.61499 17.5551H7.31499L7.56499 17.3851L7.80499 17.5351H8.50499L8.84499 17.1801H8.08999L7.93999 17.3301H8.46999L8.42999 17.3851H7.84499L7.70999 17.2901L7.99499 17.1201H9.61999V16.6701H10.055V16.2501H10.505V15.0501H10.055V14.6301H9.63999V14.1601H8.01499L7.72999 13.9701L7.86499 13.8951H8.42999L8.48499 13.9501H7.93499L8.08999 14.1001H8.84499L8.50499 13.7451H7.80499L7.55999 13.8951L7.31499 13.7451H6.61499L6.27499 14.1201H7.02999L7.17999 13.9501H6.65499L6.68999 13.8951H7.27499L7.40999 13.9901L7.12499 14.1601L5.49999 14.1501Z" fill="#D22630"/>
<path d="M8.00002 17.12H9.60002V16.67H10.02V16.235H10.47V15.06H10.02V14.625H9.58502V14.175H7.97502L7.30002 13.75H6.62002L6.32002 14.075H7.02002L7.13002 13.96H6.62002L6.69502 13.865H7.28002L8.04002 14.34H9.45002V14.79H9.90002V15.225H10.36V16.06H9.90002V16.495H9.45002V16.965H8.06502L7.31002 17.415H6.70502L6.63002 17.325H7.14002L7.02502 17.21H6.32502L6.62502 17.53H7.32502L8.00002 17.12ZM7.07002 16.97H5.69002V16.5H5.25002V16.065H4.80002V15.23H5.25002V14.8H5.66502V14.365H7.05002L7.80502 13.895H8.41002L8.48502 13.99H7.97502L8.09002 14.105H8.79002L8.50002 13.75H7.80002L7.14002 14.17H5.51502V14.62H5.10002V15.055H4.65002V16.23H5.10002V16.665H5.54002V17.115H7.16502L7.82502 17.53H8.50502L8.80502 17.21H8.10502L7.99502 17.325H8.50502L8.43002 17.42H7.84502L7.07002 16.97Z" fill="#FFC72C"/>
<path d="M9.29998 16.365V16.815H8.01498L7.56498 17.1L7.10498 16.82H5.81998V16.37H5.38498V15.93H4.91498V15.365H5.36498V14.93H5.80498V14.48H7.08998L7.53998 14.21L7.99498 14.475H9.27998V14.925H9.71498V15.365H10.205V15.93H9.75498V16.365H9.29998Z" fill="#00843D"/>
<path d="M5.98999 16.1999V16.6299H6.70999L5.98999 16.1549V16.1999ZM5.98999 15.0999V14.6499H6.70999L5.98999 15.1199V15.0999ZM9.12999 16.1999V16.6299H8.40999L9.12999 16.1549V16.1999ZM9.12999 15.0999V14.6499H8.40999L9.12999 15.1199V15.0999Z" fill="#383739"/>
<path d="M6.01001 16.215L6.65501 16.63H6.01001V16.215ZM6.01001 15.08L6.65501 14.665H6.01001V15.08ZM9.11001 16.215L8.47001 16.63H9.11001V16.215ZM9.11001 15.08L8.47001 14.665H9.11001V15.08Z" fill="#D22630"/>
<path d="M6.89999 15.5151V15.3051H6.82499L6.44499 15.0801L6.06499 15.3051H5.98999V15.5351H5.80499V15.8001H5.98999V16.0251H6.06499L6.44499 16.2501L6.82499 16.0251H6.89999V15.8001H7.16499V15.5001L6.89999 15.5151Z" fill="#383739"/>
<path d="M6.42502 15.0801L6.80502 15.2901H6.08502L6.42502 15.0801ZM6.80502 16.0051L6.42502 16.2151L6.08502 16.0051H6.80502ZM6.71002 15.5351V15.7601H6.27502V15.5351H6.71002Z" fill="#D22630"/>
<path d="M6.88001 15.7799V15.9849H6.44501V15.7799H6.88001ZM6.43001 15.7799V15.9849H5.99001V15.7799H6.43001ZM7.14501 15.5299V15.7599H6.73001V15.5349L7.14501 15.5299ZM6.25501 15.5299V15.7599H5.82001V15.5349L6.25501 15.5299ZM6.88001 15.3049V15.5149H6.44501V15.3249L6.88001 15.3049ZM6.43001 15.3049V15.5149H5.99001V15.3249L6.43001 15.3049Z" fill="#FFC72C"/>
<path d="M6.14507 15.59V15.705H5.95007V15.59H6.14507ZM6.31507 15.365V15.475H6.12507V15.365H6.31507ZM6.76507 15.365V15.475H6.58007V15.365H6.76507ZM6.58007 15.59V15.705H6.39007V15.59H6.58007ZM7.03007 15.59V15.705H6.84007V15.59H7.03007ZM6.76507 15.815V15.93H6.58007V15.815H6.76507ZM6.31507 15.815V15.93H6.12507V15.815H6.31507Z" fill="#383739"/>
<path d="M6.12507 15.61H5.95007V15.685H6.12007L6.12507 15.61ZM6.31507 15.385H6.12507V15.46H6.31507V15.385ZM6.75007 15.385H6.58007V15.46H6.75007V15.385ZM6.56007 15.61H6.42507V15.685H6.57507L6.56007 15.61ZM7.01007 15.61H6.86007V15.685H7.01007V15.61ZM6.75007 15.835H6.58007V15.91H6.75007V15.835ZM6.29507 15.835H6.14507V15.91H6.29507V15.835Z" fill="white"/>
<path d="M8.21998 15.5151V15.3051H8.29998L8.67498 15.0801L9.05498 15.3051H9.14998V15.5351H9.31998V15.8001H9.12998V16.0251H9.07498L8.69498 16.2501L8.31498 16.0251H8.23998V15.8001H7.97498V15.5001L8.21998 15.5151Z" fill="#383739"/>
<path d="M8.695 15.0801L8.315 15.2901H9.015L8.695 15.0801ZM8.315 16.0051L8.655 16.2151L9.015 16.0051H8.315ZM8.39 15.5351V15.7601H8.825V15.5351H8.39Z" fill="#D22630"/>
<path d="M8.23998 15.7799V15.9849H8.67498V15.7799H8.23998ZM8.68998 15.7799V15.9849H9.12998V15.7799H8.68998ZM7.97498 15.5299V15.7599H8.40998V15.5349L7.97498 15.5299ZM8.86498 15.5299V15.7599H9.29998V15.5349L8.86498 15.5299ZM8.23998 15.3049V15.5149H8.67498V15.3249L8.23998 15.3049ZM8.68998 15.3049V15.5149H9.12998V15.3249L8.68998 15.3049Z" fill="#FFC72C"/>
<path d="M8.99997 15.59V15.705H9.18497V15.59H8.99997ZM8.80997 15.365V15.475H8.99497V15.365H8.80997ZM8.35497 15.365V15.475H8.54497V15.365H8.35497ZM8.54497 15.59V15.705H8.72997V15.59H8.54497ZM8.08997 15.59V15.705H8.27997V15.59H8.08997ZM8.35497 15.815V15.93H8.54497V15.815H8.35497ZM8.80497 15.815V15.93H8.99497V15.815H8.80497Z" fill="#383739"/>
<path d="M8.99999 15.61H9.16499V15.685H8.99999V15.61ZM8.82499 15.385H8.97499V15.46H8.82499V15.385ZM8.37499 15.385H8.54499V15.46H8.37499V15.385ZM8.55999 15.61H8.70999V15.685H8.55999V15.61ZM8.10999 15.61H8.25999V15.685H8.12999L8.10999 15.61ZM8.37499 15.835H8.54499V15.91H8.37499V15.835ZM8.82499 15.835H8.97499V15.91H8.82499V15.835Z" fill="white"/>
<path d="M8.015 15.135V15.365H7.94L7.56 15.61L7.185 15.36H7.1V15.135H6.875V14.89H7.1V14.665H7.18L7.555 14.415L7.935 14.665H8.01V14.89H8.235V15.12L8.015 15.135Z" fill="#383739"/>
<path d="M7.56003 15.59L7.90003 15.365H7.22003L7.56003 15.59ZM7.90003 14.65L7.56003 14.46L7.22003 14.65H7.90003Z" fill="#FFC72C"/>
<path d="M8.00002 14.89V14.665H7.58002V14.89H8.00002ZM7.56002 14.89V14.665H7.12502V14.89H7.56002ZM8.22002 15.12V14.93H7.78502V15.12H8.22002ZM7.77002 15.12V14.93H7.37002V15.12H7.77002ZM7.33502 15.12V14.93H6.90002V15.12H7.33502ZM7.99502 15.345V15.135H7.58002V15.345H7.99502ZM7.56002 15.345V15.135H7.12502V15.345H7.56002Z" fill="#D22630"/>
<path d="M7.43001 14.72V14.835H7.24001V14.74L7.43001 14.72ZM7.88001 14.72V14.835H7.70001V14.74L7.88001 14.72ZM7.20001 14.95V15.08H7.01001V14.93L7.20001 14.95ZM7.65501 14.95V15.08H7.46501V14.93L7.65501 14.95ZM8.10501 14.95V15.08H7.92001V14.93L8.10501 14.95ZM7.43001 15.195V15.305H7.24001V15.2L7.43001 15.195ZM7.88001 15.195V15.305H7.70001V15.2L7.88001 15.195Z" fill="#383739"/>
<path d="M7.41003 14.74H7.26003V14.815H7.41003V14.74ZM7.86003 14.74H7.71003V14.815H7.86003V14.74ZM7.18503 14.965H7.03503V15.065H7.18503V14.965ZM7.63503 14.965H7.48503V15.065H7.63503V14.965ZM8.09003 14.965H7.94003V15.065H8.09003V14.965ZM7.41003 15.195H7.26003V15.29H7.41003V15.195ZM7.86003 15.195H7.71003V15.29H7.86003V15.195Z" fill="white"/>
<path d="M8.015 16.4001V16.6501H7.94L7.56 16.8751L7.185 16.6501H7.1V16.4001H6.875V16.1551H7.1V15.9301H7.18L7.555 15.6851L7.935 15.9351H8.01V16.1551H8.235V16.4051L8.015 16.4001Z" fill="#383739"/>
<path d="M7.56003 16.8551L7.90003 16.6501H7.22003L7.56003 16.8551ZM7.90003 15.9101L7.56003 15.7251L7.22003 15.9101H7.90003Z" fill="#FFC72C"/>
<path d="M8.00002 16.155V15.95H7.58002V16.155H8.00002ZM7.56002 16.155V15.95H7.12502V16.155H7.56002ZM8.22002 16.385V16.175H7.78502V16.385H8.22002ZM7.77002 16.385V16.175H7.37002V16.385H7.77002ZM7.33502 16.385V16.175H6.90002V16.385H7.33502ZM7.99502 16.63V16.405H7.58002V16.63H7.99502ZM7.56002 16.63V16.405H7.12502V16.63H7.56002Z" fill="#D22630"/>
<path d="M7.43001 15.9849V16.1199H7.24001V15.9849H7.43001ZM7.88001 15.9849V16.1199H7.70001V15.9849H7.88001ZM7.20001 16.2499V16.3649H7.01001V16.2499H7.20001ZM7.65501 16.2499V16.3649H7.46501V16.2499H7.65501ZM8.10501 16.2499V16.3649H7.92001V16.2499H8.10501ZM7.43001 16.4399V16.5549H7.24001V16.4399H7.43001ZM7.88001 16.4399V16.5549H7.70001V16.4399H7.88001Z" fill="#383739"/>
<path d="M7.41003 16.0049H7.26003V16.1049H7.41003V16.0049ZM7.86003 16.0049H7.71003V16.1049H7.86003V16.0049ZM7.18503 16.2549H7.03503V16.3299H7.18503V16.2549ZM7.63503 16.2549H7.48503V16.3299H7.63503V16.2549ZM8.09003 16.2549H7.94003V16.3299H8.09003V16.2549ZM7.41003 16.4799H7.26003V16.5549H7.41003V16.4799ZM7.86003 16.4799H7.71003V16.5549H7.86003V16.4799Z" fill="white"/>
<path d="M5.09998 19.1799L6.79998 18.2749H8.31498L10.015 19.1799V20.6749L8.31498 21.5599H6.80498L5.10498 20.6749L5.09998 19.1799Z" fill="#383739"/>
<path d="M6.8 18.2949L5.12 19.1799V20.6549L6.805 21.5599H8.315L10 20.6549V19.1799L8.335 18.2999L6.8 18.2949ZM6.825 18.4049H8.315L9.905 19.2549V20.5799L8.315 21.4299H6.84L5.25499 20.5799V19.2499L6.825 18.4049Z" fill="#00843D"/>
<path d="M7.55999 19.92V21.43H8.31499L9.88499 20.58V19.935H7.55999V18.425H6.80499L5.23499 19.255V19.92H7.55999Z" fill="#FFC72C"/>
<path d="M7.55999 19.92V21.43H6.80499L5.23499 20.58V19.935H7.55999V18.425H8.31499L9.88499 19.255V19.92H7.55999Z" fill="white"/>
<path d="M7.69502 21.335V20.9L7.56002 21L7.43002 20.9V21.335H6.97502L7.27502 21.11V20.81L6.82502 20.525H6.52502V19.315H6.80502L7.25502 19.03V18.73L7.00002 18.5H7.45002V18.935L7.58502 18.86L7.71502 18.935V18.52H8.17002L7.87002 18.745V19.045L8.32002 19.33H8.64502V20.54H8.32002L7.87002 20.825V21.125L8.17002 21.355L7.69502 21.335Z" fill="#383739"/>
<path d="M7.70998 18.52V18.97L7.55998 18.88V19.01L8.25998 19.445H8.48498V19.92H8.59998V19.35H8.29998L7.82498 19.05V18.71L8.08998 18.52H7.70998ZM6.53998 19.935V20.505H6.80498L7.27498 20.805V21.13L7.00998 21.315H7.38998V20.865L7.53998 20.955V20.825L6.83998 20.39H6.61498V19.94L6.53998 19.935Z" fill="#FFC72C"/>
<path d="M7.02998 18.52L7.29498 18.71V19.05L6.82498 19.33H6.53998V19.9H6.63498V19.465H6.85998L7.55998 19.03V18.9L7.40998 18.99V18.52H7.02998ZM8.48498 19.935V20.39H8.25998L7.55998 20.825V20.955L7.70998 20.865V21.315H8.08998L7.82498 21.13V20.785L8.29998 20.485H8.59998V19.92L8.48498 19.935Z" fill="white"/>
<path d="M6.65002 20.37H6.86002L7.56002 20.825L8.26002 20.375H8.47002V19.465H8.26002L7.56002 19.03L6.86002 19.465H6.67002L6.65002 20.37Z" fill="#D22630"/>
<path d="M8.03499 20.1451H8.18499V20.0701H8.06999V19.9351H8.31999V20.2601H8.08999V20.4851H7.61499V20.1651H7.82499V20.2951H7.74999V20.3551H7.93999V20.2401L7.06999 19.7101H6.91999V19.7651H7.02999V19.9001H6.80499V19.5801H7.02999V19.3501H7.50499V19.6701H7.31499V19.5401H7.36999V19.4851H7.18499V19.5951L8.03499 20.1451ZM7.95499 19.5951V19.4851H7.74999V19.5401H7.82499V19.6701H7.61499V19.3501H8.08999V19.5801H8.31499V19.9001H8.06999V19.7651H8.18499V19.7101H8.03499L7.18499 20.2201V20.3351H7.36999V20.2751H7.29999V20.1501H7.50999V20.4701H7.03499V20.2451H6.80999V19.9251H7.05499V20.0551H6.93999V20.1301H7.08999L7.95499 19.5951Z" fill="#383739"/>
<path d="M7.97497 20.22V20.37H7.74997V20.275H7.82497V20.185H7.65497V20.465H8.08997V20.24H8.31497V19.95H8.12997V20.05H8.21997V20.16H8.04997L7.16497 19.59V19.46H7.40997V19.555H7.33497V19.65H7.52497V19.365H7.06997V19.59H6.83997V19.875H7.02997V19.78H6.93497V19.685H7.10497L7.97497 20.22ZM8.03497 19.69H8.21997V19.79H8.08997V19.88H8.31497V19.6H8.08997V19.375H7.65497V19.66H7.82497V19.56H7.74997V19.47H7.99997V19.62L7.10497 20.17H6.93497V20.05H7.04997V19.955H6.85997V20.24H7.06997V20.465H7.50497V20.185H7.33497V20.275H7.40997V20.375H7.15997V20.225L8.03497 19.69Z" fill="white"/>
<path d="M9.52498 19.9951V20.4651H9.33498V20.3001H9.12998V20.4701H8.91998V20.0001H9.10998V20.1701H9.31998V20.0001L9.52498 19.9951ZM8.80998 20.6151V21.0901H8.61998V20.9201H8.40998V21.0901H8.21998V20.6151H8.40998V20.7851H8.59998V20.6151H8.80998ZM9.52498 19.8651V19.3701H9.33498V19.5401H9.12998V19.3701H8.91998V19.8451H9.10998V19.6701H9.31998V19.8601L9.52498 19.8651ZM5.59498 19.9951V20.4651H5.78498V20.3001H5.98998V20.4701H6.19998V20.0001H6.00998V20.1701H5.80498V20.0001L5.59498 19.9951ZM5.59498 19.8451V19.3701H5.78498V19.5401H5.98998V19.3701H6.19998V19.8451H6.00998V19.6701H5.80498V19.8601L5.59498 19.8451ZM8.80998 19.2201V18.7451H8.61998V18.9151H8.40998V18.7501H8.21998V19.2251H8.40998V19.0501H8.59998V19.2401L8.80998 19.2201ZM6.30998 20.6201V21.0901H6.49998V20.9201H6.70998V21.0901H6.91998V20.6151H6.72998V20.7851H6.51998V20.6151L6.30998 20.6201ZM6.30998 19.2201V18.7451H6.49998V18.9151H6.70998V18.7501H6.91998V19.2251H6.72998V19.0501H6.51998V19.2401L6.30998 19.2201ZM8.91998 18.9001V19.2551H9.58498L8.91998 18.9001ZM6.19998 20.9501V20.5751H5.53998L6.19998 20.9501ZM6.19998 18.8751V19.2501H5.53998L6.19998 18.8751ZM8.91998 20.9501V20.5751H9.58498L8.91998 20.9501Z" fill="#383739"/>
<path d="M9.33499 20.2751V20.4651H9.50499V20.0151H9.33499V20.1851H9.10999V20.0151H8.91999V20.4451H9.10999V20.2751H9.33499ZM8.61999 20.9001V21.0901H8.78999V20.6401H8.61999V20.8051H8.38999V20.6351H8.21999V21.0701H8.38999V20.9001H8.61999ZM9.33499 19.5601V19.3901H9.50499V19.8251H9.33499V19.6501H9.10999V19.8401H8.91999V19.3851H9.10999V19.5551L9.33499 19.5601ZM5.78499 20.2751V20.4651H5.61499V20.0151H5.78499V20.1851H6.00999V20.0151H6.19999V20.4451H6.00999V20.2751H5.78499ZM5.78499 19.5601V19.3901H5.61499V19.8251H5.78499V19.6501H6.00999V19.8401H6.19999V19.3851H6.00999V19.5551L5.78499 19.5601ZM8.61999 18.9351V18.7651H8.78999V19.2001H8.61999V19.0301H8.38999V19.2201H8.21999V18.7701H8.38999V18.9351H8.61999ZM6.49999 20.9001V21.0901H6.32999V20.6401H6.49999V20.8051H6.72999V20.6351H6.91999V21.0701H6.72999V20.9001H6.49999ZM6.49999 18.9351V18.7651H6.32999V19.2001H6.49999V19.0301H6.72999V19.2201H6.91999V18.7701H6.72999V18.9351H6.49999Z" fill="#D22630"/>
<path d="M8.94003 18.915V19.24H9.50503L8.94003 18.915ZM5.59503 20.615L6.16003 20.915V20.615H5.59503Z" fill="#FFC72C"/>
<path d="M6.17999 18.915L5.61499 19.24H6.17999V18.915ZM8.93999 20.615V20.915L9.50499 20.615H8.93999Z" fill="white"/>
<path d="M10.28 21.24C10.245 21.375 10.13 21.47 10.11 21.62C10.06 21.47 10.02 21.335 10.06 21.185C10.06 21.07 10.17 20.995 10.19 20.865C10.2733 20.9583 10.3033 21.0833 10.28 21.24ZM10.3 21.81C10.2116 21.93 10.0948 22.0263 9.96001 22.09C9.98001 21.98 9.92501 21.9 9.86501 21.81C9.81001 21.71 9.77001 21.62 9.83001 21.485C9.8536 21.5458 9.88558 21.603 9.92501 21.655C9.98001 21.73 10.035 21.805 10.035 21.92C10.11 21.865 10.135 21.79 10.17 21.715C10.2304 21.6026 10.3226 21.5104 10.435 21.45C10.395 21.58 10.375 21.695 10.3 21.81ZM9.81001 22.185L9.83001 22.375L10.035 22.225C10.135 22.125 10.245 22.09 10.32 21.975C10.3154 22.045 10.296 22.1132 10.2633 22.1752C10.2306 22.2372 10.1852 22.2917 10.13 22.335L9.75501 22.585C9.75168 22.455 9.71835 22.3283 9.65501 22.205C9.64697 22.1506 9.65183 22.0952 9.6692 22.0431C9.68657 21.9909 9.71597 21.9436 9.75501 21.905C9.75501 21.9983 9.77335 22.085 9.81001 22.165V22.185ZM9.52501 22.62L9.37501 22.885C9.50168 22.8383 9.62835 22.775 9.75501 22.695C9.88501 22.62 10.035 22.585 10.17 22.47C10.11 22.715 9.94001 22.845 9.72001 22.92C9.56501 22.96 9.41501 22.94 9.22001 23.02C9.24573 22.8873 9.29124 22.7592 9.35501 22.64L9.49001 22.375C9.53001 22.445 9.54168 22.5283 9.52501 22.625V22.62ZM9.03501 22.98C8.98686 23.0569 8.92189 23.1218 8.84501 23.17C9.03501 23.17 9.18501 23.07 9.37501 23.055C9.49001 23.055 9.60001 23.095 9.71501 23.075C9.58501 23.17 9.43001 23.265 9.26501 23.265C9.05501 23.3 8.84501 23.265 8.61501 23.265C8.73001 23.185 8.79001 23.075 8.84501 22.98C8.94501 22.83 9.03501 22.73 9.20501 22.715C9.13001 22.79 9.09001 22.905 9.03501 22.98ZM8.37501 23.28C8.69501 23.34 9.01501 23.415 9.35501 23.415C8.99973 23.5647 8.60044 23.5719 8.24001 23.435C8.05001 23.375 7.88001 23.32 7.73001 23.335C7.52501 23.335 7.24001 23.45 6.93501 23.755L6.82501 23.66C7.26001 23.28 7.82501 23.185 8.37501 23.28Z" fill="#FFC72C"/>
</g>
</g>
<defs>
<clipPath id="clip0_2214_4239">
<path d="M0 12C0 5.37258 5.37258 0 12 0C18.6274 0 24 5.37258 24 12C24 18.6274 18.6274 24 12 24C5.37258 24 0 18.6274 0 12Z" fill="white"/>
</clipPath>
<clipPath id="clip1_2214_4239">
<rect width="32" height="24" fill="white"/>
</clipPath>
</defs>
</svg>
