<svg width="24" height="24" viewBox="0 0 24 24" fill="none" xmlns="http://www.w3.org/2000/svg">
<g clip-path="url(#clip0_2214_3722)">
<g clip-path="url(#clip1_2214_3722)">
<path fill-rule="evenodd" clip-rule="evenodd" d="M0 0H31.995V24H0V0Z" fill="#3B5AA3"/>
<path fill-rule="evenodd" clip-rule="evenodd" d="M0 23.35L31.995 0V4.35L0 24V23.35Z" fill="#E2AE57"/>
<path fill-rule="evenodd" clip-rule="evenodd" d="M1.12 24L32 8.96001L31.995 4.18501L0 24H1.12ZM8.77 0.76001L8.45 5.90001L7.1 2.62001L7.62 6.11001L5.525 3.29001L6.9 6.50501L4.15 4.37501L6.29 7.05501L3.185 5.67501L5.905 7.73501L2.52 7.28501L5.72 8.55501L0.7 9.01501L5.73 9.35001L2.545 10.66L5.895 10.21L3.18 12.21L6.33 10.83L4.18 13.53L6.91 11.465L5.56 14.61L7.74 11.875L7.15 15.28L8.525 12.095L8.835 17.13L9.32 12.11L10.505 15.31L10.055 11.86L12.225 14.6L10.795 11.4L13.525 13.6L11.355 10.855L14.6 12.205L11.73 10.11L15.225 10.7L11.875 9.41501L17.08 9.09001L11.88 8.60501L15.305 7.46501L11.755 7.91501L14.685 5.86501L11.385 7.19001L13.665 4.42501L10.885 6.59501L12.22 3.27501L10.065 6.09501L10.53 2.57501L9.245 5.90001L8.765 0.76001H8.77Z" fill="white"/>
</g>
</g>
<defs>
<clipPath id="clip0_2214_3722">
<path d="M0 12C0 5.37258 5.37258 0 12 0C18.6274 0 24 5.37258 24 12C24 18.6274 18.6274 24 12 24C5.37258 24 0 18.6274 0 12Z" fill="white"/>
</clipPath>
<clipPath id="clip1_2214_3722">
<rect width="32" height="24" fill="white"/>
</clipPath>
</defs>
</svg>
