<svg width="24" height="24" viewBox="0 0 24 24" fill="none" xmlns="http://www.w3.org/2000/svg">
<path d="M10.8721 6.5283L13.7466 2.5V9.7H16.6442C16.7959 9.70005 16.9447 9.73892 17.0755 9.81262C17.2063 9.88631 17.3142 9.99216 17.3882 10.1192C17.4622 10.2463 17.4995 10.39 17.4963 10.5356C17.4931 10.6811 17.4495 10.8232 17.3701 10.9472L16.4121 12.3269" stroke="white" stroke-width="2" stroke-linecap="round" stroke-linejoin="round"/>
<path d="M8.62498 8.96948L6.12653 12.5539C6.04701 12.6778 6.0034 12.8199 6.00019 12.9654C5.99698 13.1109 6.0343 13.2546 6.10829 13.3817C6.18227 13.5087 6.29025 13.6145 6.42106 13.6881C6.55187 13.7617 6.70078 13.8004 6.8524 13.8003H9.75002V21.0003L14.1263 14.8765" stroke="white" stroke-width="2" stroke-linecap="round" stroke-linejoin="round"/>
<path d="M4 4L20 20" stroke="white" stroke-width="2" stroke-linecap="round" stroke-linejoin="round"/>
</svg>
