<svg width="24" height="24" viewBox="0 0 24 24" fill="none" xmlns="http://www.w3.org/2000/svg">
<g clip-path="url(#clip0_2214_4055)">
<g clip-path="url(#clip1_2214_4055)">
<path d="M0 0H32V24H0V0Z" fill="#EE1C25"/>
<path d="M0 0H32V16H0V0Z" fill="#0B4EA2"/>
<path d="M0 0H32V8H0V0Z" fill="white"/>
<path d="M11.65 18.54C9.49998 17.505 6.41998 15.445 6.41998 11.38C6.41998 7.30996 6.61998 5.45996 6.61998 5.45996H16.685C16.685 5.45996 16.88 7.30996 16.88 11.38C16.88 15.45 13.8 17.5 11.65 18.54Z" fill="white"/>
<path d="M11.65 18C9.67501 17.05 6.85001 15.16 6.85001 11.43C6.85001 7.7 7.03001 6 7.03001 6H16.27C16.27 6 16.445 7.7 16.445 11.43C16.45 15.165 13.625 17.05 11.65 18Z" fill="#EE1C25"/>
<path d="M12.07 10.4501C12.605 10.4601 13.65 10.4801 14.575 10.1701C14.575 10.1701 14.555 10.5051 14.555 10.8901C14.555 11.2751 14.58 11.6101 14.58 11.6101C13.73 11.3251 12.675 11.3201 12.07 11.3251V13.3851H11.23V11.3251C10.63 11.3201 9.57501 11.3251 8.72501 11.6101C8.72501 11.6101 8.75001 11.2751 8.75001 10.8901C8.75001 10.5051 8.72501 10.1701 8.72501 10.1701C9.65001 10.4801 10.695 10.4601 11.225 10.4501V9.15506C10.74 9.15506 10.04 9.17506 9.24501 9.44006C9.24501 9.44006 9.27001 9.11006 9.27001 8.72006C9.27001 8.33506 9.24501 8.00006 9.24501 8.00006C10.04 8.26506 10.74 8.29006 11.225 8.28506C11.2 7.46506 10.96 6.43506 10.96 6.43506C10.96 6.43506 11.455 6.47006 11.65 6.47006C11.845 6.47006 12.34 6.43506 12.34 6.43506C12.34 6.43506 12.1 7.46506 12.075 8.28506C12.56 8.29006 13.26 8.26506 14.055 8.00006C14.055 8.00006 14.03 8.33506 14.03 8.72006C14.03 9.10506 14.055 9.44006 14.055 9.44006C13.4142 9.23344 12.743 9.13707 12.07 9.15506V10.4551V10.4501Z" fill="white"/>
<path d="M11.65 13.165C10.655 13.165 10.125 14.54 10.125 14.54C10.125 14.54 9.82499 13.89 9.01499 13.89C8.46499 13.89 8.06499 14.375 7.80499 14.83C8.80499 16.415 10.4 17.395 11.65 18C12.9 17.4 14.5 16.415 15.495 14.83C15.235 14.38 14.835 13.89 14.285 13.89C13.475 13.89 13.175 14.54 13.175 14.54C13.175 14.54 12.65 13.165 11.65 13.165Z" fill="#0B4EA2"/>
</g>
</g>
<defs>
<clipPath id="clip0_2214_4055">
<path d="M0 12C0 5.37258 5.37258 0 12 0C18.6274 0 24 5.37258 24 12C24 18.6274 18.6274 24 12 24C5.37258 24 0 18.6274 0 12Z" fill="white"/>
</clipPath>
<clipPath id="clip1_2214_4055">
<rect width="32" height="24" fill="white"/>
</clipPath>
</defs>
</svg>
