<svg width="24" height="24" viewBox="0 0 24 24" fill="none" xmlns="http://www.w3.org/2000/svg">
<g clip-path="url(#clip0_2214_3265)">
<g clip-path="url(#clip1_2214_3265)">
<path d="M-4 0H28V24H-4V0Z" fill="white"/>
<path d="M11.39 19.9299L11.38 19.9199H11.375L11.31 19.8499L11.12 19.6249L10.875 19.3099L10.845 19.2649L10.535 19.1699L10.305 19.0649L10.425 18.9299L10.845 19.1049L11.155 19.1699L11.73 19.5949L11.565 19.7399L11.4 19.9149L11.435 19.8899L11.475 19.9199L11.39 19.9299ZM9.26 19.2899C8.97817 19.2867 8.7022 19.209 8.46 19.0649C8.46 19.0649 8.495 18.9999 8.575 18.9449C8.655 18.8849 8.795 18.8199 9.025 18.8149C9.29833 18.8149 9.62333 18.9049 10 19.0849C9.77574 19.2167 9.52014 19.2858 9.26 19.2849V19.2899ZM8.085 19.0299C8.03167 19.0299 7.98833 19.0132 7.955 18.9799C7.92625 18.9455 7.90725 18.9041 7.9 18.8599C7.88693 18.8042 7.88188 18.747 7.885 18.6899L7.95 18.6799C8.05 18.6799 8.13 18.7649 8.165 18.8499C8.185 18.8999 8.18833 18.9415 8.175 18.9749C8.16167 19.0082 8.13167 19.0249 8.085 19.0249V19.0299ZM10.15 18.7899C9.455 18.6899 9.16 18.4399 9.035 18.2449C8.905 18.0399 8.935 17.8449 8.935 17.8449C8.935 17.8449 8.975 17.8349 9.035 17.8349C9.225 17.8349 9.695 17.9299 10.15 18.7849V18.7899ZM8.725 18.6499C8.42833 18.6499 8.205 18.5999 8.055 18.4999C7.99037 18.4602 7.93835 18.403 7.905 18.3349L7.885 18.2549C7.99892 18.2071 8.12147 18.1833 8.245 18.1849C8.42346 18.1913 8.59887 18.233 8.76109 18.3077C8.9233 18.3824 9.06908 18.4885 9.19 18.6199C9.02 18.6399 8.865 18.6499 8.725 18.6499ZM7.29 18.5999C6.98 18.5999 6.55 18.4999 6.28 18.2349C6.28 18.2349 6.575 18.1599 6.9 18.1499H6.96C7.25667 18.1499 7.48 18.2065 7.63 18.3199C7.68 18.3599 7.70833 18.3965 7.715 18.4299C7.72167 18.4632 7.70833 18.4915 7.675 18.5149C7.605 18.5649 7.485 18.5915 7.315 18.5949H7.29V18.5999ZM6.275 18.0749C6.23647 18.0717 6.20065 18.0538 6.175 18.0249C6.15456 17.9949 6.14091 17.9607 6.135 17.9249C6.12 17.8549 6.125 17.7849 6.125 17.7799L6.175 17.7699C6.22167 17.7732 6.255 17.7899 6.275 17.8199C6.30494 17.8481 6.32877 17.8821 6.345 17.9199C6.35833 17.9632 6.35833 17.9999 6.345 18.0299C6.345 18.0499 6.315 18.0799 6.28 18.0799L6.275 18.0749ZM8.62 18.0249C8.56667 18.0249 8.52333 18.0082 8.49 17.9749C8.46125 17.9405 8.44225 17.8991 8.435 17.8549C8.42193 17.7992 8.41688 17.742 8.42 17.6849L8.485 17.6749C8.585 17.6749 8.67 17.7599 8.7 17.8449C8.72 17.8949 8.725 17.9365 8.715 17.9699C8.69833 18.0032 8.665 18.0199 8.615 18.0199L8.62 18.0249ZM7.48 17.9749C6.85 17.9549 6.52 17.7749 6.36 17.6249C6.29061 17.5643 6.23298 17.4914 6.19 17.4099C6.16667 17.3565 6.155 17.3232 6.155 17.3099C6.16167 17.2932 6.21167 17.2865 6.305 17.2899H6.325C6.535 17.2899 6.97 17.3799 7.475 17.9749H7.48ZM8.16 17.9149C7.80038 17.8749 7.46607 17.7104 7.215 17.4499C7.12227 17.3493 7.05234 17.2299 7.01 17.0999C7.01 17.0999 7.07 17.0849 7.16 17.0799H7.21C7.46 17.0849 7.925 17.1999 8.16 17.9149ZM5.56 17.6649C5.40028 17.6663 5.24092 17.6496 5.085 17.6149C4.82 17.5449 4.705 17.4449 4.655 17.3699C4.63456 17.3399 4.62091 17.3057 4.615 17.2699V17.2299C4.615 17.2299 4.79 17.1799 5.035 17.1749C5.15905 17.1717 5.28308 17.1818 5.405 17.2049C5.65955 17.2599 5.88633 17.4034 6.045 17.6099C6.045 17.6099 5.845 17.6699 5.56 17.6699V17.6649ZM6.735 17.2449C6.71171 17.2469 6.68828 17.2434 6.66658 17.2347C6.64487 17.226 6.6255 17.2124 6.61 17.1949C6.58125 17.1605 6.56225 17.1191 6.555 17.0749C6.535 16.9949 6.54 16.9149 6.54 16.9049L6.6 16.8899H6.605C6.705 16.8899 6.785 16.9799 6.82 17.0649C6.84 17.1149 6.84333 17.1549 6.83 17.1849C6.81333 17.2182 6.78167 17.2365 6.735 17.2399V17.2449ZM5.855 17.1199C5.68628 17.0718 5.52483 17.0012 5.375 16.9099C5.155 16.7749 4.88 16.5349 4.85 16.1599L4.9 16.1549H4.915C4.98 16.1549 5.115 16.1699 5.28 16.2949C5.49 16.4582 5.68167 16.7332 5.855 17.1199ZM6.43 17.0999C6.29204 17.0372 6.16401 16.9547 6.05 16.8549C5.75809 16.6017 5.53022 16.283 5.385 15.9249C5.385 15.9249 5.43 15.8999 5.5 15.8949H5.53C5.63 15.8949 5.775 15.9399 5.935 16.1149C6.125 16.3149 6.29167 16.6432 6.435 17.0999H6.43ZM4.935 17.0549C4.74 17.0549 4.675 16.9549 4.655 16.9049C4.63563 16.8574 4.62874 16.8058 4.635 16.7549L4.735 16.7449C4.7971 16.7429 4.8588 16.7555 4.91522 16.7815C4.97163 16.8075 5.0212 16.8464 5.06 16.8949C5.07 16.9149 5.1 16.9649 5.075 17.0099C5.055 17.0432 5.00833 17.0599 4.935 17.0599V17.0549ZM4.51 16.5149C4.35926 16.5165 4.20867 16.5048 4.06 16.4799C3.89 16.4499 3.795 16.3049 3.74 16.1849C3.69 16.0599 3.67 15.9349 3.67 15.9349C4.2 15.9499 4.455 16.1049 4.57 16.2349C4.64394 16.3087 4.6899 16.4059 4.7 16.5099C4.7 16.5099 4.62 16.5199 4.51 16.5199V16.5149ZM5.06 15.9649L4.94 15.7949C4.875 15.6949 4.82 15.5949 4.82 15.5149C4.82 15.4299 4.8 15.2649 4.79 15.1649L4.76 14.9399C4.775 14.9399 5.09 15.0599 5.09 15.3599C5.09 15.6599 5.06 15.9599 5.06 15.9599V15.9649ZM4.65 15.9349H4.64C4.29725 15.8316 3.98488 15.6462 3.73 15.3949C3.64333 15.2949 3.59167 15.1382 3.575 14.9249C3.565 14.7749 3.575 14.6499 3.575 14.6349L3.63 14.6299C3.69667 14.6299 3.78 14.6632 3.88 14.7299C3.97277 14.7957 4.05975 14.8693 4.14 14.9499C4.3 15.1099 4.425 15.2699 4.425 15.2699C4.44 15.2899 4.525 15.4549 4.6 15.6149C4.6351 15.6884 4.66193 15.7655 4.68 15.8449C4.68667 15.8749 4.68667 15.8982 4.68 15.9149L4.665 15.9349H4.645H4.65Z" fill="#435125"/>
<path d="M10.295 19.9299L10.305 19.9199H10.31L10.375 19.8499L10.565 19.6249L10.81 19.3099L10.84 19.2649L11.15 19.1699L11.38 19.0649L11.26 18.9299L10.84 19.1049L10.53 19.1699L9.955 19.5949L10.12 19.7399L10.285 19.9149L10.25 19.8899L10.21 19.9199L10.295 19.9299ZM12.425 19.2899C12.7068 19.2867 12.9828 19.209 13.225 19.0649C13.225 19.0649 13.19 18.9999 13.11 18.9449C13.03 18.8849 12.89 18.8199 12.66 18.8149C12.3867 18.8149 12.0617 18.9049 11.685 19.0849C11.9093 19.2167 12.1649 19.2858 12.425 19.2849V19.2899ZM13.6 19.0299C13.6533 19.0299 13.6967 19.0132 13.73 18.9799C13.7587 18.9455 13.7777 18.9041 13.785 18.8599C13.7981 18.8042 13.8031 18.747 13.8 18.6899L13.735 18.6799C13.635 18.6799 13.555 18.7649 13.52 18.8499C13.5 18.8999 13.4967 18.9415 13.51 18.9749C13.5233 19.0082 13.5533 19.0249 13.6 19.0249V19.0299ZM11.535 18.7899C12.23 18.6899 12.525 18.4399 12.65 18.2449C12.78 18.0399 12.75 17.8449 12.75 17.8449C12.75 17.8449 12.71 17.8349 12.65 17.8349C12.46 17.8349 11.99 17.9299 11.535 18.7849V18.7899ZM12.96 18.6499C13.2567 18.6499 13.48 18.5999 13.63 18.4999C13.6946 18.4602 13.7466 18.403 13.78 18.3349L13.8 18.2549C13.6861 18.2071 13.5635 18.1833 13.44 18.1849C13.2615 18.1913 13.0861 18.233 12.9239 18.3077C12.7617 18.3824 12.6159 18.4885 12.495 18.6199C12.665 18.6399 12.82 18.6499 12.96 18.6499ZM14.395 18.5999C14.705 18.5999 15.135 18.4999 15.405 18.2349C15.405 18.2349 15.11 18.1599 14.785 18.1499H14.725C14.4283 18.1499 14.205 18.2065 14.055 18.3199C14.005 18.3599 13.9767 18.3965 13.97 18.4299C13.9633 18.4632 13.9767 18.4915 14.01 18.5149C14.08 18.5649 14.2 18.5915 14.37 18.5949H14.395V18.5999ZM15.41 18.0749C15.4485 18.0717 15.4844 18.0538 15.51 18.0249C15.5304 17.9949 15.5441 17.9607 15.55 17.9249C15.565 17.8549 15.56 17.7849 15.56 17.7799L15.51 17.7699C15.4633 17.7732 15.43 17.7899 15.41 17.8199C15.3801 17.8481 15.3562 17.8821 15.34 17.9199C15.3267 17.9632 15.3267 17.9999 15.34 18.0299C15.34 18.0499 15.37 18.0799 15.405 18.0799L15.41 18.0749ZM13.065 18.0249C13.1183 18.0249 13.1617 18.0082 13.195 17.9749C13.2237 17.9405 13.2427 17.8991 13.25 17.8549C13.2631 17.7992 13.2681 17.742 13.265 17.6849L13.2 17.6749C13.1 17.6749 13.015 17.7599 12.985 17.8449C12.965 17.8949 12.96 17.9365 12.97 17.9699C12.9867 18.0032 13.02 18.0199 13.07 18.0199L13.065 18.0249ZM14.205 17.9749C14.835 17.9549 15.165 17.7749 15.325 17.6249C15.3944 17.5643 15.452 17.4914 15.495 17.4099C15.5183 17.3565 15.53 17.3232 15.53 17.3099C15.5233 17.2932 15.4733 17.2865 15.38 17.2899H15.36C15.15 17.2899 14.715 17.3799 14.21 17.9749H14.205ZM13.525 17.9149C13.8846 17.8749 14.2189 17.7104 14.47 17.4499C14.5627 17.3493 14.6327 17.2299 14.675 17.0999C14.675 17.0999 14.615 17.0849 14.525 17.0799H14.475C14.225 17.0849 13.76 17.1999 13.525 17.9149ZM16.125 17.6649C16.2847 17.6663 16.4441 17.6496 16.6 17.6149C16.865 17.5449 16.98 17.4449 17.03 17.3699C17.0504 17.3399 17.0641 17.3057 17.07 17.2699V17.2299C17.07 17.2299 16.895 17.1799 16.65 17.1749C16.5259 17.1717 16.4019 17.1818 16.28 17.2049C16.0254 17.2599 15.7987 17.4034 15.64 17.6099C15.64 17.6099 15.84 17.6699 16.125 17.6699V17.6649ZM14.95 17.2449C14.9733 17.2469 14.9967 17.2434 15.0184 17.2347C15.0401 17.226 15.0595 17.2124 15.075 17.1949C15.1037 17.1605 15.1227 17.1191 15.13 17.0749C15.15 16.9949 15.145 16.9149 15.145 16.9049L15.085 16.8899H15.08C14.98 16.8899 14.9 16.9799 14.865 17.0649C14.845 17.1149 14.8417 17.1549 14.855 17.1849C14.8717 17.2182 14.9033 17.2365 14.95 17.2399V17.2449ZM15.83 17.1199C15.9987 17.0718 16.1602 17.0012 16.31 16.9099C16.53 16.7749 16.805 16.5349 16.835 16.1599L16.785 16.1549H16.77C16.705 16.1549 16.57 16.1699 16.405 16.2949C16.195 16.4582 16.0033 16.7332 15.83 17.1199ZM15.255 17.0999C15.393 17.0372 15.521 16.9547 15.635 16.8549C15.9269 16.6017 16.1548 16.283 16.3 15.9249C16.3 15.9249 16.255 15.8999 16.185 15.8949H16.155C16.055 15.8949 15.91 15.9399 15.75 16.1149C15.56 16.3149 15.3933 16.6432 15.25 17.0999H15.255ZM16.75 17.0549C16.945 17.0549 17.01 16.9549 17.03 16.9049C17.0494 16.8574 17.0563 16.8058 17.05 16.7549L16.95 16.7449C16.8879 16.7429 16.8262 16.7555 16.7698 16.7815C16.7134 16.8075 16.6638 16.8464 16.625 16.8949C16.615 16.9149 16.585 16.9649 16.61 17.0099C16.63 17.0432 16.6767 17.0599 16.75 17.0599V17.0549ZM17.175 16.5149C17.3257 16.5165 17.4763 16.5048 17.625 16.4799C17.795 16.4499 17.89 16.3049 17.945 16.1849C17.995 16.0599 18.015 15.9349 18.015 15.9349C17.485 15.9499 17.23 16.1049 17.115 16.2349C17.0411 16.3087 16.9951 16.4059 16.985 16.5099C16.985 16.5099 17.065 16.5199 17.175 16.5199V16.5149ZM16.625 15.9649L16.745 15.7949C16.81 15.6949 16.865 15.5949 16.865 15.5149C16.865 15.4299 16.885 15.2649 16.895 15.1649L16.925 14.9399C16.91 14.9399 16.595 15.0599 16.595 15.3599C16.595 15.6599 16.625 15.9599 16.625 15.9599V15.9649ZM17.035 15.9349H17.045C17.3877 15.8316 17.7001 15.6462 17.955 15.3949C18.0417 15.2949 18.0933 15.1382 18.11 14.9249C18.12 14.7749 18.11 14.6499 18.11 14.6349L18.055 14.6299C17.9883 14.6299 17.905 14.6632 17.805 14.7299C17.7122 14.7957 17.6252 14.8693 17.545 14.9499C17.385 15.1099 17.26 15.2699 17.26 15.2699C17.245 15.2899 17.16 15.4549 17.085 15.6149C17.0499 15.6884 17.0231 15.7655 17.005 15.8449C16.9983 15.8749 16.9983 15.8982 17.005 15.9149L17.02 15.9349H17.04H17.035Z" fill="#435125"/>
<path d="M21.95 3.82007L21.86 3.85507L21.82 3.87007L21.71 3.86507L21.6 3.91507L21.41 4.04507L21.405 4.05007L21.33 4.07007L21.265 4.04007L21.23 4.06007L21.215 4.13507L21.18 4.19007L21.135 4.22007L20.985 4.23507L20.86 4.30507L20.69 4.25507L20.615 4.29007L20.45 4.44007L20.365 4.47507H20.34L20.225 4.47007L20.18 4.48507L20.11 4.55007L19.98 4.56007L19.935 4.59007L19.87 4.72007L19.8 4.80007L19.76 4.80507L19.72 4.79007L19.685 4.79507L19.67 4.88007L19.64 4.91507L19.55 4.94507L19.48 5.00507L19.415 5.03507H19.315L19.23 5.08507L19.075 5.09507L19.01 5.15507L18.995 5.17007L18.965 5.18507L18.915 5.21507L18.905 5.22507L18.845 5.21507L18.775 5.24007L18.745 5.20007L18.695 5.22507L18.635 5.23007L18.555 5.19507L18.49 5.16507L18.445 5.17507L18.43 5.25007V5.26007L18.38 5.32007L18.295 5.37507L18.285 5.39007L18.185 5.52007L17.995 5.72007L17.835 5.80007L17.67 5.85007L17.555 5.94507L17.255 6.09507L16.77 6.33507L16.67 6.36507L16.53 6.38507L16.28 6.48007L16.06 6.54507L16.045 6.55007L16.005 6.56507L15.69 6.66007L15.545 6.64007L15.46 6.67507L15.235 6.65007H15.08L14.98 6.67007L14.795 6.76007L14.48 6.91007L14.38 7.01007L14.22 7.09007L14.03 7.15007V7.07007L13.965 7.09007L13.915 7.10507L13.765 7.12507H13.68L13.625 7.11007H13.615L13.305 7.21507L12.955 7.25007L12.78 7.30507H12.65L12.57 7.33007L12.41 7.35007L12.35 7.33507L12.34 7.33007L11.87 7.35007L11.655 7.32507L11.555 7.35007L11.38 7.29007L11.13 7.26007L11.07 7.24507L10.94 7.20507L10.88 7.24007L10.83 7.24507L10.73 7.20507H10.69L10.6 7.23507L10.55 7.22507L10.5 7.18507L10.395 7.17007L10.325 7.11507L9.95 7.16507L9.85 7.13507L9.505 7.03507H9.455L9.385 7.08507L9.285 7.12507L9.19 7.14507L9.07 7.15007L8.93 7.11507L8.79 7.04507L8.735 7.03007L8.615 7.04507H8.58L8.36 6.93007L8.08 6.75507L7.89 6.66007L7.815 6.65007L7.805 6.68507L7.84 6.79507L7.855 6.91007V7.01007L7.85 7.07507L7.865 7.13007L7.935 7.21007L7.965 7.28507L7.985 7.49507V7.71007L7.95 8.05007L7.94 8.10007L7.9 8.28007L7.865 8.44507L7.72 8.88007L7.685 8.93007L7.585 8.99507L7.37 9.14507L7.21 9.23507L7.16 9.25507L7.03 9.26507H6.95L6.85 9.21007L6.75 9.18507L6.62 9.09007L6.48 9.06007L6.32 8.97007L6.28 8.92007L6.195 8.91007L6.075 8.87507L6.03 8.86007L6 8.85507L5.85 8.85007L5.705 8.78507L5.63 8.76507H5.53L5.425 8.81507L5.37 8.83507L5.3 8.81007H5.25L5.2 8.89507L5.19 8.91007L5.15 8.93007H5.065L5.025 8.94507L4.97 8.97007L4.92 8.99007L4.895 9.00007H4.88L4.855 9.01007H4.825L4.765 8.98007L4.735 8.96507L4.685 8.95507L4.66 8.97007L4.655 9.06507L4.63 9.12007L4.55 9.19007L4.47 9.26007L4.42 9.34007L4.27 9.67507L4.175 9.81007L4.15 9.84507L4.05 9.95007L3.965 10.0151L3.77 10.1651L3.585 10.2401L3.425 10.2701H3.345L3.195 10.2501L3.065 10.2101L2.915 10.1201L2.76 9.99007L2.525 9.76507L2.495 9.74507L2.485 9.74007L2.415 9.69007H2.36L2.34 9.73007L2.325 9.78007L2.315 9.82507L2.29 10.0751V10.0901L2.305 10.1951L2.485 10.4451L2.535 10.5751L2.545 10.5901L2.58 10.6501L2.61 10.7001L2.675 10.8801L2.63 10.9801L2.65 11.0501L2.6 11.0901L2.59 11.1501L2.745 11.3501L2.78 11.4351L2.745 11.5551L2.68 11.6251L2.665 11.6401L2.675 11.6901L2.745 11.7601L2.87 11.8701L2.935 12.0301L2.985 12.0801L3.045 12.0651L3.075 12.0901H3.125L3.175 12.1401L3.205 12.1501L3.255 12.1751L3.295 12.2251L3.3 12.3851L3.375 12.5751V12.7001L3.425 12.7751L3.435 12.8351L3.41 13.0001L3.47 13.0501L3.53 13.0401L3.57 13.0451L3.635 13.1001L3.715 13.2201L3.795 13.2101L3.845 13.2301L4.08 13.4451L4.13 13.4751L4.175 13.4951L4.225 13.5451L4.295 13.4951H4.305L4.385 13.4851L4.42 13.5101L4.49 13.5551H4.575L4.775 13.6151L4.855 13.6351L5.025 13.7401L5.1 13.7851L5.14 13.8201L5.2 13.8701L5.31 13.9201L5.41 13.9401L5.46 13.9501L5.505 13.9651L5.715 14.0501L5.83 14.0751L5.93 14.1151L6.01 14.1401H6.07L6.15 14.0751H6.225L6.29 14.0851L6.355 14.0751L6.455 14.0151L6.47 13.9851L6.54 13.9551L6.78 13.9251L6.85 13.9451L7.03 13.8701L7.15 13.9001L7.25 13.8651L7.485 13.9151L7.545 13.9601L7.615 14.0351H7.7L7.665 14.0901L7.765 14.2001L7.86 14.3351L7.865 14.3551L7.93 14.5501L7.98 14.6201L8.015 14.7151V14.7751L7.965 14.8201L7.955 14.8401V14.8501L7.965 14.8751L7.985 14.8651L8.02 14.8451L8.07 14.8351L8.15 14.8451L8.205 14.8501L8.29 14.8101L8.35 14.7801L8.44 14.8201H8.54L8.585 14.8351L8.705 14.8901L8.765 14.8951L8.785 14.8801L8.8 14.8501L8.795 14.8101L8.745 14.7551L8.645 14.6351L8.605 14.5751L8.575 14.4901L8.565 14.3801L8.555 14.3051L8.57 14.2051L8.595 14.1701L8.615 14.0901L8.62 14.0701L8.68 13.9951L8.83 13.8951L8.99 13.7551L9.115 13.6701L9.245 13.6151V13.6001L9.265 13.6051L9.595 13.4901L9.745 13.4651L10.745 13.5351L10.78 13.5251L10.815 13.4301L10.83 13.4151L10.845 13.4051L10.955 13.3551L11.005 13.3451L11.145 13.3801L11.205 13.3951L11.3 13.3451H11.365L11.5 13.2701H11.585L11.62 13.2601L11.785 13.1401L11.94 13.0951L11.98 13.0751L11.995 13.0651L12.16 12.9801L12.26 12.9001L12.35 12.8501L12.45 12.8301L12.7 12.8101L12.755 12.7251L12.865 12.7101L12.93 12.6351L13.005 12.6051L13.06 12.5251L13.11 12.4601L13.17 12.4251L13.375 12.4101L13.615 12.4401L13.65 12.4201L13.7 12.2251L13.76 12.1901L13.91 11.9651V11.8851L13.915 11.8151L13.94 11.7151L13.925 11.5451L13.945 11.3651L14.04 11.1401L14.125 11.0501L14.26 10.9551L14.33 10.9251L14.43 10.9101H14.44L14.465 10.9001H14.925L15.04 10.8951L15.325 10.9451H15.345L15.44 10.9801L15.55 11.0651L15.67 11.1801L15.69 11.2001L15.765 11.2351L15.79 11.2451L15.85 11.2351L15.94 11.1851L16.01 11.1351L16.1 11.0851V11.0751L16.155 11.0001L16.175 10.9651L16.355 10.8951L16.565 10.8851L16.59 10.8701H16.6L16.655 10.8001H16.705L16.835 10.8501L16.92 10.8301L16.99 10.8551L17.045 10.8501L17.145 10.8351L17.26 10.9151L17.325 10.9251L17.55 11.0551H17.57L17.58 11.0601L17.605 11.0501L17.645 11.0401H17.65L17.655 11.0451L17.685 11.0801L17.72 11.0851L17.76 11.0351L17.745 11.0051L17.74 10.9951L17.655 10.9801L17.585 10.8551L17.655 10.7801L17.545 10.6501L17.525 10.6251V10.6201L17.485 10.5601L17.295 10.2701L17.045 10.0701L16.96 10.0051L16.93 9.98007L16.795 9.84507L16.7 9.72007L16.69 9.69507L16.67 9.65007L16.615 9.53007L16.515 9.45507L16.435 9.36507L16.265 9.13507L16.24 9.10007L16.2 9.07507H16.115L16.11 9.06507H16.105V9.06007L16.145 9.02007L16.195 9.01007L16.21 8.96507L16.125 8.72007V8.71007L16.12 8.63507L16.185 8.28007L16.195 8.23507L16.315 8.00007L16.385 7.94007L16.465 7.78507L16.535 7.68507L16.6 7.62007L16.61 7.61507L16.725 7.54507L16.825 7.53007L16.92 7.51507L17.085 7.56507H17.235L17.27 7.56007L17.34 7.55007L17.455 7.51507L17.51 7.48007L17.54 7.44007L17.6 7.24007L17.62 7.17507L17.655 7.10507L17.87 6.86007L18.03 6.71007L18.39 6.45007L18.565 6.34507L18.655 6.29007L19.46 5.93007L19.67 5.72007L19.78 5.61007L19.97 5.48007L20.195 5.38507L20.395 5.23507L20.435 5.18007L20.485 5.00507L20.535 4.99507L20.57 4.91007L20.585 4.88507L20.74 4.77507L20.76 4.76507L21.375 4.45507L21.465 4.47007L21.515 4.39507L21.69 4.36507H21.725L21.77 4.34007L21.805 4.27507V4.26007L21.81 4.09007L21.85 4.04507L21.87 3.93507L21.89 3.90507L21.91 3.88007L21.96 3.84507L21.95 3.82007Z" fill="#D47600"/>
</g>
</g>
<defs>
<clipPath id="clip0_2214_3265">
<path d="M0 12C0 5.37258 5.37258 0 12 0C18.6274 0 24 5.37258 24 12C24 18.6274 18.6274 24 12 24C5.37258 24 0 18.6274 0 12Z" fill="white"/>
</clipPath>
<clipPath id="clip1_2214_3265">
<rect width="32" height="24" fill="white" transform="translate(-4)"/>
</clipPath>
</defs>
</svg>
