<svg width="24" height="24" viewBox="0 0 24 24" fill="none" xmlns="http://www.w3.org/2000/svg">
<g clip-path="url(#clip0_2214_3052)">
<g clip-path="url(#clip1_2214_3052)">
<path d="M0.00012207 0H32.0001V24H0.00012207V0Z" fill="#CE1720"/>
<mask id="mask0_2214_3052" style="mask-type:luminance" maskUnits="userSpaceOnUse" x="0" y="0" width="6" height="24">
<path d="M0.250122 0H5.53862V16.2132H5.75016V23.7865L5.53862 23.9999H0.250122V0Z" fill="white"/>
</mask>
<g mask="url(#mask0_2214_3052)">
<path d="M1.20204 0V0.373331H0.964062V0.746662H0.673194V1.17333H0.461654V1.51999H0.0385742V0.639996H0.461654V0.159999H0.0385742V0H1.20204ZM1.88955 2.05332V2.45332H1.67801V2.77332H1.46647V2.45332H1.25493V2.05332H1.04339V1.51999H1.25493V1.11999H1.46647V0.799995H1.67801V1.11999H1.88955V1.51999H2.10109V2.05332H1.88955ZM1.44003 2.02665H1.70445V1.54666H1.44003V2.02665ZM0.752522 4.87997H0.964062V4.39997H0.752522V4.87997ZM2.18042 4.87997H2.39196V4.39997H2.18042V4.87997ZM0.0385742 8.13328H0.408769V8.47995H0.567424V8.90661H0.805407V9.30661H1.12272V8.90661H1.3607V8.47995H1.57224V8.13328H1.25493V7.73328H1.81022V7.99995H2.15397V8.45328H2.44484V8.95994H2.2333V9.33327H2.0482V9.67994H1.88955V10.0533H1.65157V10.3733H1.46647V10.6666H1.22849V11.0399H0.884734V10.6399H0.646752V10.2666H0.461654V10.0266H0.0385742V9.41327H0.461654V8.87994H0.0385742V8.13328Z" fill="white"/>
<path d="M4.58671 0V0.373331H4.8247V0.746662H5.11556V1.17333H5.3271V1.51999H5.75018V0.639996H5.3271V0.159999H5.75018V0H4.58671ZM3.89921 2.05332V2.45332H4.11075V2.77332H4.32229V2.45332H4.53383V2.05332H4.74537V1.51999H4.53383V1.11999H4.32229V0.799995H4.11075V1.11999H3.89921V1.51999H3.68767V2.05332H3.89921ZM4.34873 2.02665H4.08431V1.54666H4.34873V2.02665ZM5.03624 4.87997H4.8247V4.39997H5.03624V4.87997ZM3.60834 4.87997H3.3968V4.39997H3.60834V4.87997ZM5.75018 8.13328H5.37999V8.47995H5.22133V8.90661H4.98335V9.30661H4.66604V8.90661H4.42806V8.47995H4.21652V8.13328H4.53383V7.73328H3.97854V7.99995H3.63478V8.45328H3.34392V8.95994H3.55546V9.33327H3.74055V9.67994H3.89921V10.0533H4.13719V10.3733H4.32229V10.6666H4.56027V11.0399H4.90402V10.6399H5.14201V10.2666H5.3271V10.0266H5.75018V9.41327H5.3271V8.87994H5.75018V8.13328Z" fill="white"/>
<path d="M2.78859 0V0.853328H3.00013V0H3.84629V0.373331H3.63475V0.746662H3.31744V1.17333H3.1059V1.51999H2.68282V1.17333H2.47128V0.746662H2.15397V0.373331H1.94243V0H2.78859ZM2.73571 7.30662V7.01329H2.57705V6.66663H2.39196V6.29329H2.18042V5.91996H1.96888V5.6533H1.73089V5.27997H1.41358V5.6533H1.1756V5.91996H0.990504V6.29329H0.778964V6.66663H0.620309V7.01329H0.461654V7.46662H0.0385742V6.29329H0.461654V5.75996H0.0385742V4.87997H0.461654V5.2533H0.726079V5.62663H0.990504V5.2533H1.25493V4.87997H1.46647V4.39997H1.25493V4.02664H0.990504V3.65331H0.726079V4.02664H0.461654V4.39997H0.0385742V3.30665H0.461654V2.79998H0.0385742V2.05332H0.461654V2.39999H0.673194V2.82665H0.964062V3.17331H1.20204V3.57331H1.38714V3.89331H1.75734V3.57331H1.94243V3.17331H2.18042V2.82665H2.47128V2.39999H2.68282V2.05332H3.1059V2.39999H3.31744V2.82665H3.60831V3.17331H3.84629V3.57331H4.03139V3.89331H4.40159V3.57331H4.58668V3.17331H4.82467V2.82665H5.11553V2.39999H5.32707V2.05332H5.75015V2.79998H5.32707V3.30665H5.75015V4.39997H5.32707V4.02664H5.06265V3.65331H4.79822V4.02664H4.5338V4.39997H4.32226V4.87997H4.5338V5.2533H4.79822V5.62663H5.06265V5.2533H5.32707V4.87997H5.75015V5.75996H5.32707V6.29329H5.75015V7.46662H5.32707V7.01329H5.16842V6.66663H5.00976V6.29329H4.79822V5.91996H4.61313V5.6533H4.37514V5.27997H4.05783V5.6533H3.81985V5.91996H3.60831V6.29329H3.39677V6.66663H3.21167V7.01329H3.05302V7.30662H2.73571ZM2.78859 2.85332V3.57331H3.00013V2.85332H2.78859ZM2.68282 4.39997V4.02664H2.4184V3.65331H2.15397V4.02664H1.88955V4.39997H1.67801V4.87997H1.88955V5.2533H2.15397V5.62663H2.4184V5.2533H2.68282V4.87997H3.1059V5.2533H3.37033V5.62663H3.63475V5.2533H3.89918V4.87997H4.11072V4.39997H3.89918V4.02664H3.63475V3.65331H3.37033V4.02664H3.1059V4.39997H2.68282ZM2.78859 5.62663V6.34663H3.00013V5.62663H2.78859Z" fill="white"/>
<path d="M1.20204 23.9998V23.6264H0.964062V23.2531H0.673194V22.8264H0.461654V22.4798H0.0385742V23.3598H0.461654V23.8398H0.0385742V23.9998H1.20204ZM1.88955 21.9464V21.5464H1.67801V21.2264H1.46647V21.5464H1.25493V21.9464H1.04339V22.4798H1.25493V22.8798H1.46647V23.1998H1.67801V22.8798H1.88955V22.4798H2.10109V21.9464H1.88955ZM1.44003 21.9731H1.70445V22.4531H1.44003V21.9731ZM0.752522 19.1198H0.964062V19.5998H0.752522V19.1198ZM2.18042 19.1198H2.39196V19.5998H2.18042V19.1198ZM0.0385742 15.8665H0.408769V15.5198H0.567424V15.0931H0.805407V14.6931H1.12272V15.0931H1.3607V15.5198H1.57224V15.8665H1.25493V16.2665H1.81022V15.9998H2.15397V15.5465H2.44484V15.0398H2.2333V14.6665H2.0482V14.3198H1.88955V13.9465H1.65157V13.6265H1.46647V13.3332H1.22849V12.9598H0.884734V13.3598H0.646752V13.7332H0.461654V13.9732H0.0385742V14.5865H0.461654V15.1198H0.0385742V15.8665Z" fill="white"/>
<path d="M4.58671 23.9998V23.6264H4.8247V23.2531H5.11556V22.8264H5.3271V22.4798H5.75018V23.3598H5.3271V23.8398H5.75018V23.9998H4.58671ZM3.89921 21.9464V21.5464H4.11075V21.2264H4.32229V21.5464H4.53383V21.9464H4.74537V22.4798H4.53383V22.8798H4.32229V23.1998H4.11075V22.8798H3.89921V22.4798H3.68767V21.9464H3.89921ZM4.34873 21.9731H4.08431V22.4531H4.34873V21.9731ZM5.03624 19.1198H4.8247V19.5998H5.03624V19.1198ZM3.60834 19.1198H3.3968V19.5998H3.60834V19.1198ZM5.75018 15.8665H5.37999V15.5198H5.22133V15.0931H4.98335V14.6931H4.66604V15.0931H4.42806V15.5198H4.21652V15.8665H4.53383V16.2665H3.97854V15.9998H3.63478V15.5465H3.34392V15.0398H3.55546V14.6665H3.74055V14.3198H3.89921V13.9465H4.13719V13.6265H4.32229V13.3332H4.56027V12.9598H4.90402V13.3598H5.14201V13.7332H5.3271V13.9732H5.75018V14.5865H5.3271V15.1198H5.75018V15.8665Z" fill="white"/>
<path d="M2.78859 23.9998V23.1464H3.00013V23.9998H3.84629V23.6264H3.63475V23.2531H3.31744V22.8264H3.1059V22.4798H2.68282V22.8264H2.47128V23.2531H2.15397V23.6264H1.94243V23.9998H2.78859ZM2.73571 16.6931V16.9865H2.57705V17.3331H2.39196V17.7065H2.18042V18.0798H1.96888V18.3465H1.73089V18.7198H1.41358V18.3465H1.1756V18.0798H0.990504V17.7065H0.778964V17.3331H0.620309V16.9865H0.461654V16.5331H0.0385742V17.7065H0.461654V18.2398H0.0385742V19.1198H0.461654V18.7465H0.726079V18.3731H0.990504V18.7465H1.25493V19.1198H1.46647V19.5998H1.25493V19.9731H0.990504V20.3464H0.726079V19.9731H0.461654V19.5998H0.0385742V20.6931H0.461654V21.1998H0.0385742V21.9464H0.461654V21.5998H0.673194V21.1731H0.964062V20.8264H1.20204V20.4264H1.38714V20.1064H1.75734V20.4264H1.94243V20.8264H2.18042V21.1731H2.47128V21.5998H2.68282V21.9464H3.1059V21.5998H3.31744V21.1731H3.60831V20.8264H3.84629V20.4264H4.03139V20.1064H4.40159V20.4264H4.58668V20.8264H4.82467V21.1731H5.11553V21.5998H5.32707V21.9464H5.75015V21.1998H5.32707V20.6931H5.75015V19.5998H5.32707V19.9731H5.06265V20.3464H4.79822V19.9731H4.5338V19.5998H4.32226V19.1198H4.5338V18.7465H4.79822V18.3731H5.06265V18.7465H5.32707V19.1198H5.75015V18.2398H5.32707V17.7065H5.75015V16.5331H5.32707V16.9865H5.16842V17.3331H5.00976V17.7065H4.79822V18.0798H4.61313V18.3465H4.37514V18.7198H4.05783V18.3465H3.81985V18.0798H3.60831V17.7065H3.39677V17.3331H3.21167V16.9865H3.05302V16.6931H2.73571ZM2.78859 21.1464V20.4264H3.00013V21.1464H2.78859ZM2.68282 19.5998V19.9731H2.4184V20.3464H2.15397V19.9731H1.88955V19.5998H1.67801V19.1198H1.88955V18.7465H2.15397V18.3731H2.4184V18.7465H2.68282V19.1198H3.1059V18.7465H3.37033V18.3731H3.63475V18.7465H3.89918V19.1198H4.11072V19.5998H3.89918V19.9731H3.63475V20.3464H3.37033V19.9731H3.1059V19.5998H2.68282ZM2.78859 18.3731V17.6531H3.00013V18.3731H2.78859Z" fill="white"/>
<path d="M0.0385742 10.88H0.461654V11.2533H0.646752V11.4667H0.858292V11.84H1.04339V12.16H0.858292V12.5333H0.646752V12.7466H0.461654V13.12H0.0385742V10.88ZM5.75015 10.88V13.12H5.32707V12.7466H5.14198V12.5333H4.93044V12.16H4.74534V11.84H4.93044V11.4667H5.14198V11.2533H5.32707V10.88H5.75015ZM1.88955 12.24H2.10109V11.76H1.88955V12.24ZM3.89918 12.24V11.76H3.68764V12.24H3.89918ZM2.78859 10.6667H3.00013V10.1867H2.78859V10.6667ZM2.78859 13.3333V13.8133H3.00013V13.3333H2.78859ZM1.46647 11.3333H1.83666V11.04H2.10109V10.7733H2.2333V10.5067H2.39196V10.1333H2.6035V9.75999H2.70927V9.41333H3.07946V9.75999H3.18523V10.1333H3.39677V10.5067H3.55543V10.7733H3.68764V11.04H3.95206V11.3333H4.32226V12.6666H3.95206V12.96H3.68764V13.2266H3.55543V13.4933H3.39677V13.8666H3.18523V14.24H3.07946V14.5866H2.70927V14.24H2.6035V13.8666H2.39196V13.4933H2.2333V13.2266H2.10109V12.96H1.83666V12.6666H1.46647V11.3333ZM2.78859 11.5733V11.1733H2.57705V10.9067H2.36551V11.5733H2.57705V11.8133H2.70927V12.1866H2.57705V12.4266H2.36551V13.0933H2.57705V12.8266H2.78859V12.4266H3.00013V12.8266H3.21167V13.0933H3.42321V12.4266H3.21167V12.1866H3.07946V11.8133H3.21167V11.5733H3.42321V10.9067H3.21167V11.1733H3.00013V11.5733H2.78859Z" fill="white"/>
</g>
<path d="M5.50012 16H32.0001V24H5.50012V16Z" fill="#007C30"/>
</g>
</g>
<defs>
<clipPath id="clip0_2214_3052">
<path d="M0 12C0 5.37258 5.37258 0 12 0C18.6274 0 24 5.37258 24 12C24 18.6274 18.6274 24 12 24C5.37258 24 0 18.6274 0 12Z" fill="white"/>
</clipPath>
<clipPath id="clip1_2214_3052">
<rect width="32" height="24" fill="white"/>
</clipPath>
</defs>
</svg>
