<svg width="24" height="24" viewBox="0 0 24 24" fill="none" xmlns="http://www.w3.org/2000/svg">
<g clip-path="url(#clip0_2214_3533)">
<g clip-path="url(#clip1_2214_3533)">
<mask id="mask0_2214_3533" style="mask-type:luminance" maskUnits="userSpaceOnUse" x="-4" y="0" width="33" height="24">
<path d="M-3.99844 0H28.0031V24H-3.99844V0Z" fill="white"/>
</mask>
<g mask="url(#mask0_2214_3533)">
<path fill-rule="evenodd" clip-rule="evenodd" d="M-9 0H33V24H-9V0Z" fill="white"/>
<path fill-rule="evenodd" clip-rule="evenodd" d="M-9 16.1157H33V24.0001H-9V16.1157Z" fill="#DA0000"/>
<path fill-rule="evenodd" clip-rule="evenodd" d="M-1.0125 16.4531H1.28437V16.6078H-1.0125V16.4531ZM-0.670313 17.2406H-0.510938V17.3953H-0.670313V17.2406ZM1.29375 17.2406V17.3953H0.834374V17.2359L1.29375 17.2406ZM1.5375 16.4531H1.69687V17.3906H1.5375V16.4531Z" fill="white"/>
<path fill-rule="evenodd" clip-rule="evenodd" d="M2.45625 17.236V17.3954H1.58437V17.236H2.45625ZM0.834375 16.8657H0.984375V17.3954H0.829687L0.834375 16.8657Z" fill="white"/>
<path fill-rule="evenodd" clip-rule="evenodd" d="M2.325 16.4531H2.48437V17.3906H2.325V16.4531ZM1.93125 16.4531H2.08594V17.3906H1.93125V16.4531ZM-0.168751 16.8281V16.9875H-1.0125V16.8281H-0.168751ZM1.67344 16.8281V16.9875H0.829687V16.8281H1.67344Z" fill="white"/>
<path fill-rule="evenodd" clip-rule="evenodd" d="M0.834375 16.8704H0.984375V17.3907H0.829687L0.834375 16.8704Z" fill="white"/>
<path fill-rule="evenodd" clip-rule="evenodd" d="M0.834375 16.8704H0.984375V17.3907H0.829687L0.834375 16.8704Z" fill="white"/>
<path fill-rule="evenodd" clip-rule="evenodd" d="M0.834375 16.8704H0.984375V17.3907H0.829688L0.834375 16.8704ZM-1.00781 16.8704H-0.853125V17.3907H-1.00781V16.8704ZM0.342187 16.8704H0.501563V17.3907H0.342187V16.8704ZM-0.328125 16.8704H-0.16875V17.3907H-0.328125V16.8704Z" fill="white"/>
<path fill-rule="evenodd" clip-rule="evenodd" d="M0.45 17.2359V17.3953H-0.257812V17.2359H0.45ZM0.496875 16.8281V16.9875H0.046875V16.8281H0.496875Z" fill="white"/>
<path fill-rule="evenodd" clip-rule="evenodd" d="M2.73281 16.4531H5.02969V16.6078H2.73281V16.4531ZM3.075 17.2406H3.23438V17.3953H3.075V17.2406ZM5.03906 17.2406V17.3953H4.57969V17.2359L5.03906 17.2406ZM5.2875 16.4531H5.44688V17.3906H5.2875V16.4531Z" fill="white"/>
<path fill-rule="evenodd" clip-rule="evenodd" d="M6.20156 17.236V17.3954H5.32969V17.236H6.20156ZM4.57969 16.8657H4.73906V17.3954H4.57969V16.8657Z" fill="white"/>
<path fill-rule="evenodd" clip-rule="evenodd" d="M6.07031 16.4531H6.22969V17.3906H6.07031V16.4531ZM5.67656 16.4531H5.83594V17.3906H5.67188L5.67656 16.4531ZM3.57656 16.8281V16.9875H2.73281V16.8281H3.57656ZM5.41875 16.8281V16.9875H4.575V16.8281H5.41875Z" fill="white"/>
<path fill-rule="evenodd" clip-rule="evenodd" d="M4.57969 16.8704H4.73906V17.3907H4.57969V16.8704Z" fill="white"/>
<path fill-rule="evenodd" clip-rule="evenodd" d="M4.57969 16.8704H4.73906V17.3907H4.57969V16.8704Z" fill="white"/>
<path fill-rule="evenodd" clip-rule="evenodd" d="M4.57969 16.8704H4.73906V17.3907H4.57969V16.8704ZM2.7375 16.8704H2.89687V17.3907H2.7375V16.8704ZM4.0875 16.8704H4.24687V17.3907H4.0875V16.8704ZM3.41719 16.8704H3.57656V17.3907H3.41719V16.8704Z" fill="white"/>
<path fill-rule="evenodd" clip-rule="evenodd" d="M4.2 17.2359V17.3953H3.4875V17.2359H4.2ZM4.24687 16.8281V16.9875H3.79687V16.8281H4.24687Z" fill="white"/>
<path fill-rule="evenodd" clip-rule="evenodd" d="M6.50156 16.4531H8.80312V16.6078H6.50625L6.50156 16.4531ZM6.84844 17.2406H7.00312V17.3953H6.84844V17.2406ZM8.80781 17.2406V17.3953H8.34844V17.2359L8.80781 17.2406ZM9.05625 16.4531H9.21563V17.3906H9.05625V16.4531Z" fill="white"/>
<path fill-rule="evenodd" clip-rule="evenodd" d="M9.975 17.236V17.3954H9.10313V17.236H9.975ZM8.34844 16.8657H8.50781V17.3954H8.34844V16.8657Z" fill="white"/>
<path fill-rule="evenodd" clip-rule="evenodd" d="M9.84375 16.4531H10.0031V17.3906H9.84375V16.4531ZM9.44531 16.4531H9.60469V17.3906H9.44531V16.4531ZM7.34531 16.8281V16.9875H6.50625V16.8281H7.34531ZM9.1875 16.8281V16.9875H8.34844V16.8281H9.1875Z" fill="white"/>
<path fill-rule="evenodd" clip-rule="evenodd" d="M8.34844 16.8704H8.50781V17.3907H8.34844V16.8704Z" fill="white"/>
<path fill-rule="evenodd" clip-rule="evenodd" d="M8.34844 16.8704H8.50781V17.3907H8.34844V16.8704Z" fill="white"/>
<path fill-rule="evenodd" clip-rule="evenodd" d="M8.34844 16.8704H8.50781V17.3907H8.34844V16.8704ZM6.50625 16.8704H6.66563V17.3907H6.50625V16.8704ZM7.85625 16.8704H8.01563V17.3907H7.85625V16.8704ZM7.19062 16.8704H7.34531V17.3907H7.19062V16.8704Z" fill="white"/>
<path fill-rule="evenodd" clip-rule="evenodd" d="M7.96875 17.2359V17.3953H7.26094V17.2359H7.96875ZM8.01562 16.8281V16.9875H7.56562V16.8281H8.01562Z" fill="white"/>
<path fill-rule="evenodd" clip-rule="evenodd" d="M10.2891 16.4531H12.5859V16.6078H10.2891V16.4531ZM10.6313 17.2406H10.7906V17.3953H10.6313V17.2406ZM12.5953 17.2406V17.3953H12.1359V17.2359L12.5953 17.2406ZM12.8438 16.4531H12.9984V17.3906H12.8438V16.4531Z" fill="white"/>
<path fill-rule="evenodd" clip-rule="evenodd" d="M13.7578 17.236V17.3954H12.8859V17.236H13.7578ZM12.1359 16.8657H12.2953V17.3954H12.1359V16.8657Z" fill="white"/>
<path fill-rule="evenodd" clip-rule="evenodd" d="M13.6266 16.4531H13.7859V17.3906H13.6266V16.4531ZM13.2328 16.4531H13.3922V17.3906H13.2328V16.4531ZM11.1328 16.8281V16.9875H10.2891V16.8281H11.1328ZM12.975 16.8281V16.9875H12.1312V16.8281H12.975Z" fill="white"/>
<path fill-rule="evenodd" clip-rule="evenodd" d="M12.1359 16.8704H12.2953V17.3907H12.1359V16.8704Z" fill="white"/>
<path fill-rule="evenodd" clip-rule="evenodd" d="M12.1359 16.8704H12.2953V17.3907H12.1359V16.8704Z" fill="white"/>
<path fill-rule="evenodd" clip-rule="evenodd" d="M12.1359 16.8704H12.2953V17.3907H12.1359V16.8704ZM10.2938 16.8704H10.4484V17.3907H10.2938V16.8704ZM11.6438 16.8704H11.8031V17.3907H11.6438V16.8704ZM10.9734 16.8704H11.1328V17.3907H10.9688L10.9734 16.8704Z" fill="white"/>
<path fill-rule="evenodd" clip-rule="evenodd" d="M11.7563 17.2359V17.3953H11.0438V17.2359H11.7563ZM11.8031 16.8281V16.9875H11.3438V16.8281H11.8031Z" fill="white"/>
<path fill-rule="evenodd" clip-rule="evenodd" d="M-9 0H33V7.88437H-9V0Z" fill="#239F40"/>
<path fill-rule="evenodd" clip-rule="evenodd" d="M14.0953 16.4531H16.3922V16.6078H14.0953V16.4531ZM14.4375 17.2406H14.5969V17.3953H14.4375V17.2406ZM16.4016 17.2406V17.3953H15.9375V17.2359L16.4016 17.2406ZM16.65 16.4531H16.8047V17.3906H16.65V16.4531Z" fill="white"/>
<path fill-rule="evenodd" clip-rule="evenodd" d="M17.5641 17.236V17.3954H16.6922V17.236H17.5641ZM15.9422 16.8657H16.1016V17.3954H15.9375L15.9422 16.8657Z" fill="white"/>
<path fill-rule="evenodd" clip-rule="evenodd" d="M17.4375 16.4531H17.5922V17.3906H17.4375V16.4531ZM17.0391 16.4531H17.1984V17.3906H17.0391V16.4531ZM14.9391 16.8281V16.9875H14.0953V16.8281H14.9391ZM16.7813 16.8281V16.9875H15.9375V16.8281H16.7813Z" fill="white"/>
<path fill-rule="evenodd" clip-rule="evenodd" d="M15.9375 16.8704H16.1016V17.3907H15.9375V16.8704Z" fill="white"/>
<path fill-rule="evenodd" clip-rule="evenodd" d="M15.9375 16.8704H16.1016V17.3907H15.9375V16.8704Z" fill="white"/>
<path fill-rule="evenodd" clip-rule="evenodd" d="M15.9375 16.8704H16.1016V17.3907H15.9375V16.8704ZM14.1 16.8704H14.2594V17.3907H14.1V16.8704ZM15.45 16.8704H15.6094V17.3907H15.45V16.8704ZM14.7797 16.8704H14.9391V17.3907H14.7797V16.8704Z" fill="white"/>
<path fill-rule="evenodd" clip-rule="evenodd" d="M15.5625 17.2359V17.3953H14.85V17.2359H15.5625ZM15.6094 16.8281V16.9875H15.1594V16.8281H15.6094Z" fill="white"/>
<path fill-rule="evenodd" clip-rule="evenodd" d="M17.8781 16.4531H20.175V16.6078H17.8781V16.4531ZM18.2203 17.2406H18.3797V17.3953H18.2203V17.2406ZM20.1891 17.2406V17.3953H19.725V17.2359L20.1891 17.2406ZM20.4328 16.4531H20.5922V17.3906H20.4328V16.4531Z" fill="white"/>
<path fill-rule="evenodd" clip-rule="evenodd" d="M21.3469 17.236V17.3954H20.475V17.236H21.3469ZM19.725 16.8657H19.8844V17.3954H19.725V16.8657Z" fill="white"/>
<path fill-rule="evenodd" clip-rule="evenodd" d="M21.2203 16.4531H21.375V17.3906H21.2203V16.4531ZM20.8219 16.4531H20.9813V17.3906H20.8219V16.4531ZM18.7219 16.8281V16.9875H17.8828V16.8281H18.7219ZM20.5641 16.8281V16.9875H19.725V16.8281H20.5641Z" fill="white"/>
<path fill-rule="evenodd" clip-rule="evenodd" d="M19.725 16.8704H19.8844V17.3907H19.725V16.8704Z" fill="white"/>
<path fill-rule="evenodd" clip-rule="evenodd" d="M19.725 16.8704H19.8844V17.3907H19.725V16.8704Z" fill="white"/>
<path fill-rule="evenodd" clip-rule="evenodd" d="M19.725 16.8704H19.8844V17.3907H19.725V16.8704ZM17.8828 16.8704H18.0422V17.3907H17.8828V16.8704ZM19.2328 16.8704H19.3922V17.3907H19.2328V16.8704ZM18.5625 16.8704H18.7219V17.3907H18.5672L18.5625 16.8704Z" fill="white"/>
<path fill-rule="evenodd" clip-rule="evenodd" d="M19.3453 17.2359V17.3953H18.6375V17.2359H19.3453ZM19.3922 16.8281V16.9875H18.9375V16.8281H19.3922Z" fill="white"/>
<path fill-rule="evenodd" clip-rule="evenodd" d="M21.6656 16.4531H23.9625V16.6078H21.6656V16.4531ZM22.0078 17.2406H22.1672V17.3953H22.0078V17.2406ZM23.9719 17.2406V17.3953H23.5125V17.2359L23.9719 17.2406ZM24.2156 16.4531H24.375V17.3906H24.2156V16.4531Z" fill="white"/>
<path fill-rule="evenodd" clip-rule="evenodd" d="M25.1344 17.236V17.3954H24.2625V17.236H25.1344ZM23.5078 16.8657H23.6672V17.3954H23.5078V16.8657Z" fill="white"/>
<path fill-rule="evenodd" clip-rule="evenodd" d="M25.0031 16.4531H25.1625V17.3906H25.0031V16.4531ZM24.6094 16.4531H24.7641V17.3906H24.6094V16.4531ZM22.5094 16.8281V16.9875H21.6656V16.8281H22.5094ZM24.3516 16.8281V16.9875H23.5078V16.8281H24.3516Z" fill="white"/>
<path fill-rule="evenodd" clip-rule="evenodd" d="M23.5125 16.8704H23.6672V17.3907H23.5125V16.8704Z" fill="white"/>
<path fill-rule="evenodd" clip-rule="evenodd" d="M23.5125 16.8704H23.6672V17.3907H23.5125V16.8704Z" fill="white"/>
<path fill-rule="evenodd" clip-rule="evenodd" d="M23.5125 16.8704H23.6672V17.3907H23.5125V16.8704ZM21.6656 16.8704H21.825V17.3907H21.6656V16.8704ZM23.0203 16.8704H23.175V17.3907H23.0203V16.8704ZM22.35 16.8704H22.5094V17.3907H22.35V16.8704Z" fill="white"/>
<path fill-rule="evenodd" clip-rule="evenodd" d="M23.1281 17.2359V17.3953H22.4203V17.2359H23.1281ZM23.175 16.8281V16.9875H22.725V16.8281H23.175Z" fill="white"/>
<path fill-rule="evenodd" clip-rule="evenodd" d="M-1.0125 6.72192H1.28437V6.8813H-1.0125V6.72192ZM-0.670313 7.5188H-0.510938V7.6688H-0.670313V7.5188ZM1.29375 7.50942V7.6688H0.834374V7.50942H1.29375ZM1.5375 6.72192H1.69687V7.6688H1.5375V6.72192Z" fill="white"/>
<path fill-rule="evenodd" clip-rule="evenodd" d="M2.45625 7.50947V7.66885H1.58437V7.50947H2.45625ZM0.834375 7.13916H0.984375V7.66885H0.829687L0.834375 7.13916Z" fill="white"/>
<path fill-rule="evenodd" clip-rule="evenodd" d="M2.325 6.72192H2.48437V7.6688H2.325V6.72192ZM1.93125 6.72192H2.08594V7.6688H1.93125V6.72192ZM-0.168751 7.09692V7.2563H-1.0125V7.10161L-0.168751 7.09692ZM1.67344 7.09692V7.2563H0.829687V7.10161L1.67344 7.09692Z" fill="white"/>
<path fill-rule="evenodd" clip-rule="evenodd" d="M0.834375 7.13916H0.984375V7.66885H0.829687L0.834375 7.13916Z" fill="white"/>
<path fill-rule="evenodd" clip-rule="evenodd" d="M0.834375 7.13916H0.984375V7.66885H0.829687L0.834375 7.13916Z" fill="white"/>
<path fill-rule="evenodd" clip-rule="evenodd" d="M0.834375 7.13916H0.984375V7.66885H0.829688L0.834375 7.13916ZM-1.00781 7.13916H-0.853125V7.66885H-1.00781V7.13916ZM0.342187 7.13916H0.501563V7.66885H0.342187V7.13916ZM-0.328125 7.13916H-0.16875V7.66885H-0.328125V7.13916Z" fill="white"/>
<path fill-rule="evenodd" clip-rule="evenodd" d="M0.45 7.50937V7.66875H-0.257812V7.50937H0.45ZM0.496875 7.10156V7.25625H0.046875V7.10156H0.496875Z" fill="white"/>
<path fill-rule="evenodd" clip-rule="evenodd" d="M2.73281 6.72192H5.02969V6.8813H2.73281V6.72192ZM3.075 7.5188H3.23438V7.6688H3.075V7.5188ZM5.03906 7.50942V7.6688H4.57969V7.50942H5.03906ZM5.2875 6.72192H5.44688V7.6688H5.2875V6.72192Z" fill="white"/>
<path fill-rule="evenodd" clip-rule="evenodd" d="M6.20156 7.50947V7.66885H5.32969V7.50947H6.20156ZM4.57969 7.13916H4.73906V7.66885H4.57969V7.13916Z" fill="white"/>
<path fill-rule="evenodd" clip-rule="evenodd" d="M6.07031 6.72192H6.22969V7.6688H6.07031V6.72192ZM5.67656 6.72192H5.83594V7.6688H5.67188L5.67656 6.72192ZM3.57656 7.09692V7.2563H2.73281V7.10161L3.57656 7.09692ZM5.41875 7.09692V7.2563H4.575V7.10161L5.41875 7.09692Z" fill="white"/>
<path fill-rule="evenodd" clip-rule="evenodd" d="M4.57969 7.13916H4.73906V7.66885H4.57969V7.13916Z" fill="white"/>
<path fill-rule="evenodd" clip-rule="evenodd" d="M4.57969 7.13916H4.73906V7.66885H4.57969V7.13916Z" fill="white"/>
<path fill-rule="evenodd" clip-rule="evenodd" d="M4.57969 7.13916H4.73906V7.66885H4.57969V7.13916ZM2.7375 7.13916H2.89687V7.66885H2.7375V7.13916ZM4.0875 7.13916H4.24687V7.66885H4.0875V7.13916ZM3.41719 7.13916H3.57656V7.66885H3.41719V7.13916Z" fill="white"/>
<path fill-rule="evenodd" clip-rule="evenodd" d="M4.2 7.50937V7.66875H3.4875V7.50937H4.2ZM4.24687 7.10156V7.25625H3.79687V7.10156H4.24687Z" fill="white"/>
<path fill-rule="evenodd" clip-rule="evenodd" d="M6.50156 6.72192H8.80312V6.8813H6.50625L6.50156 6.72192ZM6.84844 7.5188H7.00312V7.6688H6.84844V7.5188ZM8.80781 7.50942V7.6688H8.34844V7.50942H8.80781ZM9.05625 6.72192H9.21563V7.6688H9.05625V6.72192Z" fill="white"/>
<path fill-rule="evenodd" clip-rule="evenodd" d="M9.975 7.50947V7.66885H9.10313V7.50947H9.975ZM8.34844 7.13916H8.50781V7.66885H8.34844V7.13916Z" fill="white"/>
<path fill-rule="evenodd" clip-rule="evenodd" d="M9.84375 6.72192H10.0031V7.6688H9.84375V6.72192ZM9.44531 6.72192H9.60469V7.6688H9.44531V6.72192ZM7.34531 7.09692V7.2563H6.50625V7.10161L7.34531 7.09692ZM9.1875 7.09692V7.2563H8.34844V7.10161L9.1875 7.09692Z" fill="white"/>
<path fill-rule="evenodd" clip-rule="evenodd" d="M8.34844 7.13916H8.50781V7.66885H8.34844V7.13916Z" fill="white"/>
<path fill-rule="evenodd" clip-rule="evenodd" d="M8.34844 7.13916H8.50781V7.66885H8.34844V7.13916Z" fill="white"/>
<path fill-rule="evenodd" clip-rule="evenodd" d="M8.34844 7.13916H8.50781V7.66885H8.34844V7.13916ZM6.50625 7.13916H6.66563V7.66885H6.50625V7.13916ZM7.85625 7.13916H8.01563V7.66885H7.85625V7.13916ZM7.19062 7.13916H7.34531V7.66885H7.19062V7.13916Z" fill="white"/>
<path fill-rule="evenodd" clip-rule="evenodd" d="M7.96875 7.50937V7.66875H7.26094V7.50937H7.96875ZM8.01562 7.10156V7.25625H7.56562V7.10156H8.01562Z" fill="white"/>
<path fill-rule="evenodd" clip-rule="evenodd" d="M10.2891 6.72192H12.5859V6.8813H10.2891V6.72192ZM10.6313 7.5188H10.7906V7.6688H10.6313V7.5188ZM12.5953 7.50942V7.6688H12.1359V7.50942H12.5953ZM12.8438 6.72192H12.9984V7.6688H12.8438V6.72192Z" fill="white"/>
<path fill-rule="evenodd" clip-rule="evenodd" d="M13.7578 7.50947V7.66885H12.8859V7.50947H13.7578ZM12.1359 7.13916H12.2953V7.66885H12.1359V7.13916Z" fill="white"/>
<path fill-rule="evenodd" clip-rule="evenodd" d="M13.6266 6.72192H13.7859V7.6688H13.6266V6.72192ZM13.2328 6.72192H13.3922V7.6688H13.2328V6.72192ZM11.1328 7.09692V7.2563H10.2891V7.10161L11.1328 7.09692ZM12.975 7.09692V7.2563H12.1312V7.10161L12.975 7.09692Z" fill="white"/>
<path fill-rule="evenodd" clip-rule="evenodd" d="M12.1359 7.13916H12.2953V7.66885H12.1359V7.13916Z" fill="white"/>
<path fill-rule="evenodd" clip-rule="evenodd" d="M12.1359 7.13916H12.2953V7.66885H12.1359V7.13916Z" fill="white"/>
<path fill-rule="evenodd" clip-rule="evenodd" d="M12.1359 7.13916H12.2953V7.66885H12.1359V7.13916ZM10.2938 7.13916H10.4484V7.66885H10.2938V7.13916ZM11.6438 7.13916H11.8031V7.66885H11.6438V7.13916ZM10.9734 7.13916H11.1328V7.66885H10.9688L10.9734 7.13916Z" fill="white"/>
<path fill-rule="evenodd" clip-rule="evenodd" d="M11.7563 7.50937V7.66875H11.0438V7.50937H11.7563ZM11.8031 7.10156V7.25625H11.3438V7.10156H11.8031Z" fill="white"/>
<path fill-rule="evenodd" clip-rule="evenodd" d="M14.0953 6.72192H16.3922V6.8813H14.0953V6.72192ZM14.4375 7.5188H14.5969V7.6688H14.4375V7.5188ZM16.4016 7.50942V7.6688H15.9375V7.50942H16.4016ZM16.65 6.72192H16.8047V7.6688H16.65V6.72192Z" fill="white"/>
<path fill-rule="evenodd" clip-rule="evenodd" d="M17.5641 7.50947V7.66885H16.6922V7.50947H17.5641ZM15.9422 7.13916H16.1016V7.66885H15.9375L15.9422 7.13916Z" fill="white"/>
<path fill-rule="evenodd" clip-rule="evenodd" d="M17.4375 6.72192H17.5922V7.6688H17.4375V6.72192ZM17.0391 6.72192H17.1984V7.6688H17.0391V6.72192ZM14.9391 7.09692V7.2563H14.0953V7.10161L14.9391 7.09692ZM16.7813 7.09692V7.2563H15.9375V7.10161L16.7813 7.09692Z" fill="white"/>
<path fill-rule="evenodd" clip-rule="evenodd" d="M15.9375 7.13916H16.1016V7.66885H15.9375V7.13916Z" fill="white"/>
<path fill-rule="evenodd" clip-rule="evenodd" d="M15.9375 7.13916H16.1016V7.66885H15.9375V7.13916Z" fill="white"/>
<path fill-rule="evenodd" clip-rule="evenodd" d="M15.9375 7.13916H16.1016V7.66885H15.9375V7.13916ZM14.1 7.13916H14.2594V7.66885H14.1V7.13916ZM15.45 7.13916H15.6094V7.66885H15.45V7.13916ZM14.7797 7.13916H14.9391V7.66885H14.7797V7.13916Z" fill="white"/>
<path fill-rule="evenodd" clip-rule="evenodd" d="M15.5625 7.50937V7.66875H14.85V7.50937H15.5625ZM15.6094 7.10156V7.25625H15.1594V7.10156H15.6094Z" fill="white"/>
<path fill-rule="evenodd" clip-rule="evenodd" d="M17.8781 6.72192H20.175V6.8813H17.8781V6.72192ZM18.2203 7.5188H18.3797V7.6688H18.2203V7.5188ZM20.1891 7.50942V7.6688H19.725V7.50942H20.1891ZM20.4328 6.72192H20.5922V7.6688H20.4328V6.72192Z" fill="white"/>
<path fill-rule="evenodd" clip-rule="evenodd" d="M21.3469 7.50947V7.66885H20.475V7.50947H21.3469ZM19.725 7.13916H19.8844V7.66885H19.725V7.13916Z" fill="white"/>
<path fill-rule="evenodd" clip-rule="evenodd" d="M21.2203 6.72192H21.375V7.6688H21.2203V6.72192ZM20.8219 6.72192H20.9813V7.6688H20.8219V6.72192ZM18.7219 7.09692V7.2563H17.8828V7.10161L18.7219 7.09692ZM20.5641 7.09692V7.2563H19.725V7.10161L20.5641 7.09692Z" fill="white"/>
<path fill-rule="evenodd" clip-rule="evenodd" d="M19.725 7.13916H19.8844V7.66885H19.725V7.13916Z" fill="white"/>
<path fill-rule="evenodd" clip-rule="evenodd" d="M19.725 7.13916H19.8844V7.66885H19.725V7.13916Z" fill="white"/>
<path fill-rule="evenodd" clip-rule="evenodd" d="M19.725 7.13916H19.8844V7.66885H19.725V7.13916ZM17.8828 7.13916H18.0422V7.66885H17.8828V7.13916ZM19.2328 7.13916H19.3922V7.66885H19.2328V7.13916ZM18.5625 7.13916H18.7219V7.66885H18.5672L18.5625 7.13916Z" fill="white"/>
<path fill-rule="evenodd" clip-rule="evenodd" d="M19.3453 7.50937V7.66875H18.6375V7.50937H19.3453ZM19.3922 7.10156V7.25625H18.9375V7.10156H19.3922Z" fill="white"/>
<path fill-rule="evenodd" clip-rule="evenodd" d="M21.6656 6.72192H23.9625V6.8813H21.6656V6.72192ZM22.0078 7.5188H22.1672V7.6688H22.0078V7.5188ZM23.9719 7.50942V7.6688H23.5125V7.50942H23.9719ZM24.2156 6.72192H24.375V7.6688H24.2156V6.72192Z" fill="white"/>
<path fill-rule="evenodd" clip-rule="evenodd" d="M25.1344 7.50947V7.66885H24.2625V7.50947H25.1344ZM23.5078 7.13916H23.6672V7.66885H23.5078V7.13916Z" fill="white"/>
<path fill-rule="evenodd" clip-rule="evenodd" d="M25.0031 6.72192H25.1625V7.6688H25.0031V6.72192ZM24.6094 6.72192H24.7641V7.6688H24.6094V6.72192ZM22.5094 7.09692V7.2563H21.6656V7.10161L22.5094 7.09692ZM24.3516 7.09692V7.2563H23.5078V7.10161L24.3516 7.09692Z" fill="white"/>
<path fill-rule="evenodd" clip-rule="evenodd" d="M23.5125 7.13916H23.6672V7.66885H23.5125V7.13916Z" fill="white"/>
<path fill-rule="evenodd" clip-rule="evenodd" d="M23.5125 7.13916H23.6672V7.66885H23.5125V7.13916Z" fill="white"/>
<path fill-rule="evenodd" clip-rule="evenodd" d="M23.5125 7.13916H23.6672V7.66885H23.5125V7.13916ZM21.6656 7.13916H21.825V7.66885H21.6656V7.13916ZM23.0203 7.13916H23.175V7.66885H23.0203V7.13916ZM22.35 7.13916H22.5094V7.66885H22.35V7.13916Z" fill="white"/>
<path fill-rule="evenodd" clip-rule="evenodd" d="M23.1281 7.50937V7.66875H22.4203V7.50937H23.1281ZM23.175 7.10156V7.25625H22.725V7.10156H23.175Z" fill="white"/>
<path fill-rule="evenodd" clip-rule="evenodd" d="M-3.225 15.9141H-2.94375V16.4062H-3.225V15.9141ZM4.29844 15.9141H4.57969V16.4062H4.29844V15.9141ZM-9 15.9141H-8.71875V16.4062H-9V15.9141ZM-5.17969 15.9141H-4.89844V16.4062H-5.17969V15.9141ZM-1.3875 15.9141H-1.10625V16.4062H-1.3875V15.9141ZM0.487499 15.9141H0.768749V16.4062H0.487499V15.9141ZM2.40469 15.9141H2.68594V16.4062H2.40469V15.9141ZM6.17344 15.9141H6.45469V16.4062H6.17344V15.9141ZM15.6891 15.9141H15.975V16.4062H15.6937L15.6891 15.9141ZM8.09063 15.9141H8.37188V16.4062H8.09063V15.9141ZM9.96563 15.9141H10.2469V16.4062H9.96563V15.9141ZM11.8641 15.9141H12.1453V16.4062H11.8641V15.9141ZM13.7578 15.9141H14.0391V16.4062H13.7578V15.9141ZM28.9078 15.9141H29.1891V16.4062H28.9078V15.9141ZM17.5312 15.9141H17.8125V16.4062H17.5312V15.9141ZM19.4437 15.9141H19.725V16.4062H19.4437V15.9141ZM21.3797 15.9141H21.6609V16.4062H21.3797V15.9141ZM23.1984 15.9141H23.4797V16.4062H23.1984V15.9141ZM25.1344 15.9141H25.4156V16.4062H25.1344V15.9141ZM27.0281 15.9141H27.3094V16.4062H27.0281V15.9141ZM32.6391 15.9141H32.9203V16.4062H32.6391V15.9141ZM30.8203 15.9141H31.1016V16.4062H30.8203V15.9141ZM-7.09687 15.9141H-6.81562V16.4062H-7.09687V15.9141Z" fill="#D90000"/>
<path fill-rule="evenodd" clip-rule="evenodd" d="M-3.225 7.62183H-2.94375V8.11401H-3.225V7.62183ZM4.29844 7.62183H4.57969V8.11401H4.29844V7.62183ZM-9 7.62183H-8.71875V8.11401H-9V7.62183ZM-5.17969 7.62183H-4.89844V8.11401H-5.17969V7.62183ZM-1.3875 7.62183H-1.10625V8.11401H-1.3875V7.62183ZM0.487499 7.62183H0.768749V8.11401H0.487499V7.62183ZM2.40469 7.62183H2.68594V8.11401H2.40469V7.62183ZM6.17344 7.62183H6.45469V8.11401H6.17344V7.62183ZM15.6891 7.62183H15.975V8.11401H15.6937L15.6891 7.62183ZM8.09063 7.62183H8.37188V8.11401H8.09063V7.62183ZM9.96563 7.62183H10.2469V8.11401H9.96563V7.62183ZM11.8641 7.62183H12.1453V8.11401H11.8641V7.62183ZM13.7578 7.62183H14.0391V8.11401H13.7578V7.62183ZM28.9078 7.62183H29.1891V8.11401H28.9078V7.62183ZM17.5312 7.62183H17.8125V8.11401H17.5312V7.62183ZM19.4437 7.62183H19.725V8.11401H19.4437V7.62183ZM21.3797 7.62183H21.6609V8.11401H21.3797V7.62183ZM23.1984 7.62183H23.4797V8.11401H23.1984V7.62183ZM25.1344 7.62183H25.4156V8.11401H25.1344V7.62183ZM27.0281 7.62183H27.3094V8.11401H27.0281V7.62183ZM32.6391 7.62183H32.9203V8.11401H32.6391V7.62183ZM30.8203 7.62183H31.1016V8.11401H30.8203V7.62183ZM-7.09687 7.62183H-6.81562V8.11401H-7.09687V7.62183Z" fill="#239E3F"/>
<path fill-rule="evenodd" clip-rule="evenodd" d="M13.1156 9.25781C13.5094 9.74531 14.7328 12.4266 12.3797 14.1891C11.2688 15.0234 11.9578 15.0609 11.9906 15.2016C13.7719 14.2594 14.3484 12.975 14.3344 11.8266C14.325 10.6828 13.7156 9.67031 13.1156 9.25781Z" fill="#DA0000"/>
<path fill-rule="evenodd" clip-rule="evenodd" d="M13.35 9.13135C13.7849 9.39598 14.1556 9.75396 14.4352 10.1794C14.7148 10.6048 14.8964 11.0871 14.9668 11.5913C15.0373 12.0955 14.9948 12.609 14.8424 13.0948C14.6901 13.5806 14.4317 14.0264 14.0859 14.4001C15.3609 14.1188 16.9922 10.3501 13.35 9.13135ZM10.65 9.13135C10.2154 9.39638 9.84518 9.75466 9.566 10.1803C9.28683 10.6059 9.10571 11.0882 9.03573 11.5924C8.96576 12.0966 9.00868 12.61 9.16139 13.0956C9.3141 13.5812 9.57279 14.0267 9.91875 14.4001C8.63906 14.1188 7.0125 10.3501 10.65 9.13135Z" fill="#DA0000"/>
<path fill-rule="evenodd" clip-rule="evenodd" d="M10.8844 9.25781C10.4906 9.74531 9.26719 12.4266 11.6203 14.1891C12.7266 15.0234 12.0422 15.0609 12.0094 15.2016C10.2281 14.2594 9.65156 12.975 9.66562 11.8266C9.675 10.6828 10.2844 9.67031 10.8844 9.25781Z" fill="#DA0000"/>
<path fill-rule="evenodd" clip-rule="evenodd" d="M14.2594 14.9579C13.5609 14.9672 12.6844 14.8641 12.0328 14.5219C12.1406 14.7329 12.2297 14.8641 12.3375 15.0704C12.9563 15.1313 13.8141 15.2016 14.2594 14.9579ZM9.80625 14.9579C10.5047 14.9672 11.3813 14.8641 12.0328 14.5219C11.925 14.7329 11.8359 14.8641 11.7281 15.0704C11.1094 15.1313 10.2516 15.2016 9.80625 14.9579ZM11.0859 8.4563C11.2266 8.8313 11.5969 8.88755 11.9906 8.66724C12.2813 8.83599 12.7266 8.85005 12.8813 8.47505C12.9984 9.40317 12.0234 9.17817 11.9906 9.00005C11.625 9.35161 10.95 9.15005 11.0859 8.4563Z" fill="#DA0000"/>
<path fill-rule="evenodd" clip-rule="evenodd" d="M12.0188 15.5438L12.3844 15.122L12.4359 9.49229L12 9.10791L11.5641 9.47354L11.6531 15.1454L12.0188 15.5438Z" fill="#DA0000"/>
</g>
</g>
</g>
<defs>
<clipPath id="clip0_2214_3533">
<path d="M0 12C0 5.37258 5.37258 0 12 0C18.6274 0 24 5.37258 24 12C24 18.6274 18.6274 24 12 24C5.37258 24 0 18.6274 0 12Z" fill="white"/>
</clipPath>
<clipPath id="clip1_2214_3533">
<rect width="32" height="24" fill="white" transform="translate(-4)"/>
</clipPath>
</defs>
</svg>
