<svg width="24" height="24" viewBox="0 0 24 24" fill="none" xmlns="http://www.w3.org/2000/svg">
<g clip-path="url(#clip0_3053_1891)">
<path d="M12.0001 24C18.6275 24 24.0001 18.6274 24.0001 12C24.0001 5.37258 18.6275 0 12.0001 0C5.3727 0 0.00012207 5.37258 0.00012207 12C0.00012207 18.6274 5.3727 24 12.0001 24Z" fill="white"/>
<path d="M24.0001 11.9999C24.0001 6.84037 20.7436 2.44185 16.174 0.746338V23.2536C20.7436 21.558 24.0001 17.1595 24.0001 11.9999Z" fill="#D80027"/>
<path d="M0.00012207 11.9999C0.00012207 17.1595 3.25667 21.558 7.82623 23.2536V0.746338C3.25667 2.44185 0.00012207 6.84037 0.00012207 11.9999Z" fill="#0052B4"/>
</g>
<defs>
<clipPath id="clip0_3053_1891">
<rect width="24" height="24" fill="white"/>
</clipPath>
</defs>
</svg>
