<svg width="24" height="24" viewBox="0 0 24 24" fill="none" xmlns="http://www.w3.org/2000/svg">
<g clip-path="url(#clip0_3053_1893)">
<path d="M12.0001 24C18.6275 24 24.0001 18.6274 24.0001 12C24.0001 5.37258 18.6275 0 12.0001 0C5.37264 0 6.10352e-05 5.37258 6.10352e-05 12C6.10352e-05 18.6274 5.37264 24 12.0001 24Z" fill="white"/>
<path d="M24.0001 11.9999C24.0001 6.84037 20.7436 2.44185 16.174 0.746338V23.2536C20.7436 21.558 24.0001 17.1595 24.0001 11.9999Z" fill="#D80027"/>
<path d="M6.10352e-05 11.9999C6.10352e-05 17.1595 3.25661 21.558 7.82617 23.2536V0.746338C3.25661 2.44185 6.10352e-05 6.84037 6.10352e-05 11.9999Z" fill="#0052B4"/>
</g>
<defs>
<clipPath id="clip0_3053_1893">
<rect width="24" height="24" fill="white"/>
</clipPath>
</defs>
</svg>
