<svg width="24" height="24" viewBox="0 0 24 24" fill="none" xmlns="http://www.w3.org/2000/svg">
<g clip-path="url(#clip0_3053_1911)">
<g clip-path="url(#clip1_3053_1911)">
<path d="M-3.89999 0H28.1V24H-3.89999V0Z" fill="#000066"/>
<path fill-rule="evenodd" clip-rule="evenodd" d="M19.68 10.6502L19.94 9.8152L19.24 9.2852L20.12 9.2752L20.42 8.4502L20.7 9.2752L21.585 9.3002L20.88 9.8252L21.13 10.6602L20.405 10.1602M21.76 10.8102L22.28 10.1152L21.795 9.3752L22.63 9.6652L23.18 8.9902V9.87019L24 10.1902L23.16 10.4402L23.12 11.3152L22.61 10.5952M17.69 11.3452L17.655 10.4702L16.815 10.2102L17.65 9.9002V9.0302L18.195 9.7052L19.035 9.4252L18.545 10.1602L19.06 10.8602L18.21 10.6352M16.23 12.6802L15.86 11.8902L14.99 11.9802L15.63 11.3652L15.3 10.5502L16.06 10.9602L16.725 10.3702L16.555 11.2402L17.3 11.6852L16.435 11.8102M15.55 14.5902L14.885 14.0352L14.135 14.4952L14.455 13.6602L13.81 13.0802L14.675 13.1152L15.025 12.2952L15.24 13.1552L16.1 13.2302L15.37 13.7202M15.53 16.7402L14.705 16.5002L14.2 17.2252L14.165 16.3302L13.345 16.0552L14.15 15.7452V14.8452L14.685 15.5502L15.505 15.2702L15.025 16.0202M16.5 18.5602L15.65 18.6802L15.475 19.5502L15.085 18.7502L14.23 18.8302L14.84 18.2152L14.485 17.3952L15.25 17.8202L15.89 17.2302L15.75 18.1002M18 20.0002L17.245 20.4102L17.375 21.2902L16.74 20.6702L15.96 21.0502L16.325 20.2552L15.71 19.6102L16.575 19.7402L16.975 18.9652L17.145 19.8352M19.835 20.2852L19.42 21.0502L20.005 21.7102L19.135 21.5452L18.69 22.2952L18.57 21.4302L17.71 21.2302L18.5 20.8602L18.415 19.9852L19.025 20.6252M21.895 19.9702L21.87 20.8402L22.685 21.1602L21.835 21.4102L21.775 22.2852L21.275 21.5702L20.425 21.7902L20.965 21.0952L20.495 20.3602L21.325 20.6452M24.05 10.4902L24.65 11.1202L25.445 10.7502L25.03 11.5402L25.605 12.1952L24.755 12.0552L24.305 12.8302L24.2 11.9502L23.35 11.7752L24.135 11.3752M25.845 12.4252L26.12 13.2552L26.995 13.2702L26.285 13.8052L26.52 14.6452L25.815 14.1452L25.085 14.6502L25.355 13.8102L24.665 13.2802L25.545 13.2602M26.52 14.9202L26.42 15.7902L27.205 16.1752L26.34 16.3552L26.205 17.2202L25.77 16.4652L24.9 16.6102L25.5 15.9602L25.095 15.1852L25.895 15.5452M26.045 17.5352L25.655 18.3152L26.25 18.9502L25.38 18.8152L24.96 19.5802L24.81 18.7152L23.94 18.5502L24.72 18.1502L24.605 17.2802L25.235 17.8952M24.745 19.8502L24.01 20.3102L24.2 21.1752L23.525 20.6002L22.775 21.0302L23.09 20.2152L22.435 19.6102L23.305 19.6852L23.655 18.8852L23.875 19.7452" fill="white"/>
<path d="M-3.89999 0H12.1V12H-3.89999V0Z" fill="#000066"/>
<path d="M-2.02499 0L4.07501 4.525L10.15 0H12.1V1.55L6.10001 6.025L12.1 10.475V12H10.1L4.10001 7.525L-1.87499 12H-3.89999V10.5L2.07501 6.05L-3.89999 1.6V0H-2.02499Z" fill="white"/>
<path d="M6.70001 7.025L12.1 11V12L5.32501 7.025H6.70001ZM2.10001 7.525L2.25001 8.4L-2.54999 12H-3.89999L2.10001 7.525ZM12.1 0V0.075L5.87501 4.775L5.92501 3.675L10.85 0H12.1ZM-3.89999 0L2.07501 4.4H0.575006L-3.89999 1.05V0Z" fill="#C8102E"/>
<path d="M2.12501 0V12H6.12501V0H2.12501ZM-3.89999 4V8H12.1V4H-3.89999Z" fill="white"/>
<path d="M-3.89999 4.825V7.225H12.1V4.825H-3.89999ZM2.92501 0V12H5.32501V0H2.92501Z" fill="#C8102E"/>
</g>
</g>
<defs>
<clipPath id="clip0_3053_1911">
<rect width="24" height="24" fill="white"/>
</clipPath>
<clipPath id="clip1_3053_1911">
<rect width="24" height="24" rx="12" fill="white"/>
</clipPath>
</defs>
</svg>
