<svg width="24" height="24" viewBox="0 0 24 24" fill="none" xmlns="http://www.w3.org/2000/svg">
<g clip-path="url(#clip0_2214_3972)">
<path d="M16.1738 0.746344C14.8738 0.264047 13.4678 6.23894e-09 11.9999 6.23894e-09C10.5321 -4.68688e-05 9.126 0.264047 7.82602 0.746344L6.78253 12L7.82602 23.2536C9.12595 23.736 10.532 24 11.9999 24C13.4677 24 14.8738 23.736 16.1738 23.2536L17.2172 12L16.1738 0.746344Z" fill="#FFDA44"/>
<path d="M23.9999 11.9999C23.9999 6.84042 20.7434 2.44181 16.1738 0.746338V23.2537C20.7434 21.558 23.9999 17.1596 23.9999 11.9999Z" fill="#D80027"/>
<path d="M-6.10352e-05 12.0001C-6.10352e-05 17.1598 3.25644 21.5582 7.82595 23.2538L7.826 0.746582C3.25644 2.44205 -6.10352e-05 6.84052 -6.10352e-05 12.0001H-6.10352e-05Z" fill="#0052B4"/>
</g>
<defs>
<clipPath id="clip0_2214_3972">
<rect width="24" height="24" fill="white"/>
</clipPath>
</defs>
</svg>
