<svg width="24" height="24" viewBox="0 0 24 24" fill="none" xmlns="http://www.w3.org/2000/svg">
<g clip-path="url(#clip0_2214_3671)">
<path d="M1.19072 6.78274C0.427875 8.36037 0 10.1302 0 12.0001C0 13.87 0.427875 15.6399 1.19072 17.2175L12 18.261L22.8093 17.2175C23.5721 15.6399 24 13.87 24 12.0001C24 10.1302 23.5721 8.36037 22.8093 6.78274L12 5.73926L1.19072 6.78274Z" fill="black"/>
<path d="M1.1911 17.2173C3.13201 21.2312 7.24243 23.9999 12 23.9999C16.7574 23.9999 20.8679 21.2312 22.8088 17.2173H1.1911Z" fill="#496E2D"/>
<path d="M1.1911 6.78263H22.8088C20.8679 2.76867 16.7574 0 12 0C7.24243 0 3.13201 2.76867 1.1911 6.78263Z" fill="#D80027"/>
<path d="M14.7939 9.80542L15.7785 11.1622L17.373 10.6452L16.3869 12.0008L17.3713 13.3576L15.7774 12.8386L14.7912 14.1942L14.7923 12.5179L13.1982 11.9989L14.7928 11.4819L14.7939 9.80542Z" fill="white"/>
<path d="M12.1068 15.3912C10.2339 15.3912 8.71552 13.8728 8.71552 11.9999C8.71552 10.1269 10.2339 8.60855 12.1068 8.60855C12.6908 8.60855 13.2403 8.75621 13.72 9.01618C12.9674 8.28019 11.9382 7.82593 10.8025 7.82593C8.49727 7.82593 6.6286 9.69465 6.6286 11.9998C6.6286 14.305 8.49732 16.1737 10.8025 16.1737C11.9383 16.1737 12.9675 15.7194 13.72 14.9835C13.2403 15.2435 12.6909 15.3912 12.1068 15.3912Z" fill="white"/>
</g>
<defs>
<clipPath id="clip0_2214_3671">
<rect width="24" height="24" fill="white"/>
</clipPath>
</defs>
</svg>
