<svg width="24" height="24" viewBox="0 0 24 24" fill="none" xmlns="http://www.w3.org/2000/svg">
<g clip-path="url(#clip0_2214_4353)">
<g clip-path="url(#clip1_2214_4353)">
<path d="M0 0H32V24H0V0Z" fill="#009543"/>
<path d="M0 0H32V12H0V0Z" fill="#D21034"/>
<mask id="mask0_2214_4353" style="mask-type:luminance" maskUnits="userSpaceOnUse" x="0" y="0" width="32" height="25">
<path d="M0 0V24.0001L14.9333 14.1474H32V9.85267H14.9333L0 0Z" fill="white"/>
</mask>
<g mask="url(#mask0_2214_4353)">
<path d="M0 0L14.9333 9.85267H32V14.1474H14.9333L0 24.0001" fill="black"/>
<path d="M0 0L14.9333 9.85267H32V14.1474H14.9333L0 24.0001" stroke="#FDCE12" stroke-width="4.66236"/>
<path d="M0 0L14.9333 9.85267H32M32 14.1474H14.9333L0 24.0001" stroke="black" stroke-width="2.5431"/>
</g>
<path d="M4.30129 14.299V15.6633C5.48866 15.6633 7.82299 14.7538 7.82299 11.8182C7.82299 8.8826 5.33203 8.33691 4.58929 8.33691C3.84655 8.33691 1.54254 8.87249 1.54254 11.2675C1.54254 13.6725 3.80108 13.8948 4.24571 13.8948C4.69034 13.8948 6.35772 13.4906 6.16572 11.6919C6.11594 12.1309 5.90588 12.5361 5.57581 12.8298C5.24575 13.1235 4.8189 13.285 4.37708 13.2835C3.16444 13.2835 2.40654 12.3841 2.40654 11.4948C2.40654 10.6056 3.14423 9.41313 4.42255 9.41313C5.70087 9.41313 6.63561 10.55 6.63561 11.6919C6.63561 12.8338 5.73624 14.294 4.30129 14.294V14.299Z" fill="#FDCE12"/>
<path d="M3.25539 12.5155L3.32612 12.566C3.32612 12.566 3.89202 11.2776 5.40276 10.363C5.21076 10.4641 4.20023 10.9694 3.25539 12.5155Z" fill="#FDCE12" stroke="#FDCE12" stroke-width="0.0404212"/>
<path d="M3.40192 12.2932C3.40192 12.2932 3.23013 11.9396 3.38171 11.7779C3.53329 11.6162 3.4676 12.1972 3.4676 12.1972L3.53329 12.1012C3.53329 12.1012 3.43223 11.6667 3.54339 11.5758C3.65455 11.4848 3.60402 11.9951 3.60402 11.9951L3.67476 11.9042C3.67476 11.9042 3.59897 11.4798 3.71013 11.3989C3.82129 11.3181 3.7556 11.8031 3.7556 11.8031L3.83645 11.7021C3.83645 11.7021 3.77581 11.2979 3.91224 11.2019C4.04866 11.1059 3.92739 11.5859 3.92739 11.5859L4.01834 11.4848C4.01834 11.4848 3.97792 11.116 4.09413 11.0301C4.21034 10.9492 4.11434 11.3838 4.11434 11.3838L4.19518 11.2928C4.19518 11.2928 4.16992 10.9492 4.28108 10.8684C4.39224 10.7876 4.29118 11.1968 4.29118 11.1968L4.37708 11.116C4.37708 11.116 4.35687 10.7673 4.49834 10.7017C4.63982 10.636 4.47308 11.025 4.47308 11.025L4.57413 10.9442C4.57413 10.9442 4.5994 10.54 4.72066 10.5046C4.84192 10.4642 4.67013 10.8583 4.67013 10.8583L4.75603 10.7876C4.75603 10.7876 4.8015 10.444 4.93287 10.4036C5.06929 10.3581 4.85203 10.7168 4.85203 10.7168L4.93792 10.6511C4.93792 10.6511 5.03392 10.3076 5.16024 10.2671C5.2815 10.2318 5.02887 10.5956 5.02887 10.5956L5.11477 10.5349C5.11477 10.5349 5.25119 10.2217 5.3674 10.2014C5.4735 10.1812 5.23603 10.4591 5.23603 10.4591L5.34214 10.3985C5.34214 10.3985 5.51898 10.0751 5.58466 10.1711C5.65035 10.2671 5.33203 10.4187 5.33203 10.4187L5.23098 10.4793C5.23098 10.4793 5.60993 10.2974 5.6554 10.3884C5.70087 10.4793 5.13498 10.54 5.13498 10.54L5.04403 10.6006C5.04403 10.6006 5.42298 10.4996 5.3775 10.5956C5.33203 10.6916 4.95308 10.6713 4.95308 10.6713L4.86719 10.732C4.86719 10.732 5.24613 10.641 5.19561 10.732C5.14508 10.8128 4.77624 10.8078 4.77624 10.8078L4.68529 10.8836C4.68529 10.8836 5.05413 10.7825 4.99855 10.8987C4.94298 11.0149 4.52361 11.0048 4.52361 11.0048L4.42255 11.1059C4.42255 11.1059 4.81161 10.9694 4.77624 11.0756C4.74592 11.1766 4.30129 11.2271 4.30129 11.2271L4.20024 11.3282C4.20024 11.3282 4.61961 11.1918 4.49329 11.3181C4.37203 11.4495 4.06381 11.4798 4.06381 11.4798L3.9476 11.6313C3.9476 11.6313 4.36192 11.3787 4.30129 11.5202C4.24066 11.6617 3.83645 11.7577 3.83645 11.7577L3.7556 11.8587C3.7556 11.8587 4.1295 11.6415 4.08908 11.7577C4.05371 11.884 3.65455 12.0103 3.65455 12.0103L3.58887 12.1012C3.58887 12.1012 4.02845 11.8385 3.99308 11.9749C3.95266 12.1063 3.53329 12.2023 3.53329 12.2023L3.48276 12.2882C3.48276 12.2882 3.88697 12.0507 3.88697 12.1669C3.89708 12.2781 3.41202 12.3892 3.41202 12.3892L3.40192 12.2932Z" fill="#FDCE12"/>
<path d="M5.66043 12.5155L5.58969 12.566C5.58969 12.566 5.0238 11.2776 3.51305 10.363C3.70506 10.4641 4.71559 10.9694 5.66043 12.5155Z" fill="#FDCE12" stroke="#FDCE12" stroke-width="0.0404212"/>
<path d="M5.51391 12.2932C5.51391 12.2932 5.6857 11.9396 5.53412 11.7779C5.38254 11.6162 5.44822 12.1972 5.44822 12.1972L5.38254 12.1012C5.38254 12.1012 5.48359 11.6667 5.37243 11.5758C5.26127 11.4848 5.3118 11.9951 5.3118 11.9951L5.24106 11.9042C5.24106 11.9042 5.31685 11.4798 5.2057 11.3989C5.09454 11.3181 5.16022 11.8031 5.16022 11.8031L5.07938 11.7021C5.07938 11.7021 5.14001 11.2979 5.00359 11.2019C4.86717 11.1059 4.98843 11.5859 4.98843 11.5859L4.89748 11.4848C4.89748 11.4848 4.93791 11.116 4.82169 11.0301C4.70548 10.9492 4.80148 11.3838 4.80148 11.3838L4.72064 11.2928C4.72064 11.2928 4.7459 10.9492 4.63475 10.8684C4.52359 10.7876 4.62464 11.1968 4.62464 11.1968L4.53875 11.116C4.53875 11.116 4.55896 10.7673 4.41748 10.7017C4.27601 10.636 4.44275 11.025 4.44275 11.025L4.34169 10.9442C4.34169 10.9442 4.31643 10.54 4.19517 10.5046C4.0739 10.4642 4.24569 10.8583 4.24569 10.8583L4.1598 10.7876C4.1598 10.7876 4.11432 10.444 3.98295 10.4036C3.84653 10.3581 4.0638 10.7168 4.0638 10.7168L3.9779 10.6511C3.9779 10.6511 3.8819 10.3076 3.75558 10.2671C3.63432 10.2318 3.88695 10.5956 3.88695 10.5956L3.80106 10.5349C3.80106 10.5349 3.66464 10.2217 3.54843 10.2014C3.44232 10.1812 3.6798 10.4591 3.6798 10.4591L3.57369 10.3985C3.57369 10.3985 3.39685 10.0751 3.33116 10.1711C3.26548 10.2671 3.58379 10.4187 3.58379 10.4187L3.68485 10.4793C3.68485 10.4793 3.3059 10.2974 3.26043 10.3884C3.21495 10.4793 3.78085 10.54 3.78085 10.54L3.8718 10.6006C3.8718 10.6006 3.49285 10.4996 3.53832 10.5956C3.5838 10.6916 3.96274 10.6713 3.96274 10.6713L4.04864 10.732C4.04864 10.732 3.66969 10.641 3.72022 10.732C3.77074 10.8128 4.13959 10.8078 4.13959 10.8078L4.23053 10.8836C4.23053 10.8836 3.86169 10.7825 3.91727 10.8987C3.97285 11.0149 4.39222 11.0048 4.39222 11.0048L4.49327 11.1059C4.49327 11.1059 4.10422 10.9694 4.13959 11.0756C4.1699 11.1766 4.61454 11.2271 4.61454 11.2271L4.71559 11.3282C4.71559 11.3282 4.29622 11.1918 4.42254 11.3181C4.5438 11.4495 4.85201 11.4798 4.85201 11.4798L4.96822 11.6313C4.96822 11.6313 4.5539 11.3787 4.61454 11.5202C4.67517 11.6617 5.07938 11.7577 5.07938 11.7577L5.16022 11.8587C5.16022 11.8587 4.78633 11.6415 4.82675 11.7577C4.86212 11.884 5.26127 12.0103 5.26127 12.0103L5.32696 12.1012C5.32696 12.1012 4.88738 11.8385 4.92275 11.9749C4.96317 12.1063 5.38254 12.2023 5.38254 12.2023L5.43307 12.2882C5.43307 12.2882 5.02885 12.0507 5.02885 12.1669C5.01875 12.2781 5.5038 12.3892 5.5038 12.3892L5.51391 12.2932Z" fill="#FDCE12"/>
</g>
</g>
<defs>
<clipPath id="clip0_2214_4353">
<path d="M0 12C0 5.37259 5.37259 0 12 0C18.6275 0 24 5.37259 24 12C24 18.6275 18.6275 24 12 24C5.37259 24 0 18.6275 0 12Z" fill="white"/>
</clipPath>
<clipPath id="clip1_2214_4353">
<rect width="32" height="24" fill="white"/>
</clipPath>
</defs>
</svg>
