<svg width="24" height="24" viewBox="0 0 24 24" fill="none" xmlns="http://www.w3.org/2000/svg">
<g clip-path="url(#clip0_2214_3122)">
<path d="M23.999 12.0001C23.999 10.5323 23.735 9.12615 23.2526 7.82621L11.999 7.30444L0.745353 7.82616C0.263009 9.12615 -0.0010376 10.5323 -0.0010376 12.0001C-0.0010376 13.4679 0.263009 14.8741 0.745353 16.174L11.999 16.6958L23.2526 16.174C23.735 14.8741 23.999 13.4679 23.999 12.0001Z" fill="#496E2D"/>
<path d="M11.9989 23.9999C17.1585 23.9999 21.557 20.7434 23.2525 16.1738H0.7453C2.44082 20.7434 6.83933 23.9999 11.9989 23.9999Z" fill="#D80027"/>
<path d="M0.7453 7.82611H23.2526C21.557 3.2565 17.1585 0 11.9989 0C6.83933 0 2.44082 3.2565 0.7453 7.82611Z" fill="white"/>
</g>
<defs>
<clipPath id="clip0_2214_3122">
<rect width="24" height="24" fill="white" transform="translate(-0.000488281)"/>
</clipPath>
</defs>
</svg>
