<svg width="24" height="24" viewBox="0 0 24 24" fill="none" xmlns="http://www.w3.org/2000/svg">
<g clip-path="url(#clip0_2214_4045)">
<path d="M12 24C18.6274 24 24 18.6274 24 12C24 5.37258 18.6274 0 12 0C5.37258 0 0 5.37258 0 12C0 18.6274 5.37258 24 12 24Z" fill="white"/>
<path d="M0 12C0 5.37263 5.37262 0 12 0C18.6274 0 24 5.37263 24 12" fill="#D80027"/>
<path d="M7.30512 6.26126C7.30512 4.51291 8.53385 3.05238 10.1747 2.69402C9.92248 2.63899 9.66087 2.60913 9.39204 2.60913C7.37496 2.60913 5.73987 4.24422 5.73987 6.2613C5.73987 8.27838 7.37496 9.91347 9.39204 9.91347C9.66077 9.91347 9.92243 9.88362 10.1747 9.82854C8.53385 9.47018 7.30512 8.00965 7.30512 6.26126Z" fill="white"/>
<path d="M12.0008 2.87012L12.2598 3.66723H13.098L12.4198 4.15993L12.6789 4.95704L12.0008 4.46443L11.3227 4.95704L11.5817 4.15993L10.9036 3.66723H11.7418L12.0008 2.87012Z" fill="white"/>
<path d="M9.96755 4.4353L10.2265 5.23246H11.0647L10.3866 5.72512L10.6456 6.52222L9.96755 6.02961L9.28936 6.52222L9.54844 5.72512L8.8703 5.23246H9.70847L9.96755 4.4353Z" fill="white"/>
<path d="M14.034 4.4353L14.2931 5.23246H15.1312L14.453 5.72512L14.7121 6.52222L14.034 6.02961L13.3559 6.52222L13.6149 5.72512L12.9368 5.23246H13.775L14.034 4.4353Z" fill="white"/>
<path d="M13.2515 6.78296L13.5105 7.58012H14.3486L13.6705 8.07277L13.9296 8.86988L13.2515 8.37727L12.5734 8.86988L12.8324 8.07277L12.1543 7.58012H12.9924L13.2515 6.78296Z" fill="white"/>
<path d="M10.7501 6.78296L11.0091 7.58012H11.8473L11.1692 8.07277L11.4283 8.86988L10.7501 8.37727L10.072 8.86988L10.331 8.07277L9.65292 7.58012H10.4911L10.7501 6.78296Z" fill="white"/>
</g>
<defs>
<clipPath id="clip0_2214_4045">
<rect width="24" height="24" fill="white"/>
</clipPath>
</defs>
</svg>
