<svg width="24" height="24" viewBox="0 0 24 24" fill="none" xmlns="http://www.w3.org/2000/svg">
<g clip-path="url(#clip0_2214_3876)">
<path d="M12 24C18.6274 24 24 18.6274 24 12C24 5.37258 18.6274 0 12 0C5.37258 0 0 5.37258 0 12C0 18.6274 5.37258 24 12 24Z" fill="white"/>
<path d="M11.9991 0C8.36206 0 5.10317 1.61831 2.90253 4.17389H21.0957C18.8951 1.61831 15.6362 0 11.9991 0Z" fill="#0052B4"/>
<path d="M21.0957 19.8262H2.90253C5.10317 22.3818 8.36206 24.0001 11.9991 24.0001C15.6362 24.0001 18.8951 22.3818 21.0957 19.8262Z" fill="#0052B4"/>
<path d="M22.2387 5.73901H1.76128C0.644297 7.56175 0 9.70548 0 11.9999C0 14.2943 0.644297 16.438 1.76128 18.2607H22.2387C23.3557 16.438 24 14.2943 24 11.9999C24 9.70548 23.3557 7.56175 22.2387 5.73901Z" fill="#D80027"/>
<path d="M7.38263 16.6173C9.93274 16.6173 12 14.55 12 11.9999C12 9.44984 9.93274 7.38257 7.38263 7.38257C4.83253 7.38257 2.76526 9.44984 2.76526 11.9999C2.76526 14.55 4.83253 16.6173 7.38263 16.6173Z" fill="white"/>
<path d="M7.38261 7.38257L8.41859 10.5711H11.7766L9.05895 12.5418L10.103 15.7398L7.38261 13.7597L4.66629 15.7361L5.70626 12.5418L2.99103 10.5711H6.34657L7.38261 7.38257Z" fill="#D80027"/>
</g>
<defs>
<clipPath id="clip0_2214_3876">
<rect width="24" height="24" fill="white"/>
</clipPath>
</defs>
</svg>
