<svg width="24" height="24" viewBox="0 0 24 24" fill="none" xmlns="http://www.w3.org/2000/svg">
<g clip-path="url(#clip0_2214_3373)">
<g clip-path="url(#clip1_2214_3373)">
<mask id="mask0_2214_3373" style="mask-type:luminance" maskUnits="userSpaceOnUse" x="-4" y="0" width="34" height="25">
<path d="M-3.0061 0H29.0808V24.064H-3.0061V0Z" fill="white"/>
</mask>
<g mask="url(#mask0_2214_3373)">
<path fill-rule="evenodd" clip-rule="evenodd" d="M-11.311 0.164551H37.475V23.5706H-11.311V0.164551Z" fill="#FFC621"/>
<path fill-rule="evenodd" clip-rule="evenodd" d="M-11.405 16.0974H37.4421V24.0639H-11.405V16.0974Z" fill="#EF2118"/>
<path fill-rule="evenodd" clip-rule="evenodd" d="M-11.311 0H37.475V8.46H-11.311V0Z" fill="#298C08"/>
<path d="M12.2204 17.5054C15.0196 17.5054 17.2888 15.2362 17.2888 12.437C17.2888 9.63785 15.0196 7.36865 12.2204 7.36865C9.4212 7.36865 7.15201 9.63785 7.15201 12.437C7.15201 15.2362 9.4212 17.5054 12.2204 17.5054Z" fill="#006BC6"/>
<path fill-rule="evenodd" clip-rule="evenodd" d="M9.94711 8.84544L9.64161 9.05694L10.7461 10.6079L11.0422 10.4199L9.94711 8.84544ZM11.3289 12.5114L10.873 12.1918L11.061 11.5949L8.80031 11.6278L8.14231 11.1249L11.2302 11.092L11.8036 9.35774L12.1138 10.0627L11.3289 12.5114ZM14.9244 9.18854L14.6283 8.96294L13.4862 10.4857L13.7494 10.7066L14.9244 9.18854ZM11.8506 11.609L12.0151 11.0826H12.6402L11.9258 8.93004L12.2078 8.15454L13.1713 11.0873L14.9949 11.1108L14.4215 11.6137L11.8506 11.609ZM16.1088 14.0154L16.2357 13.6676L14.4356 13.0425L14.304 13.3715L16.1088 14.0154ZM12.8611 11.8346L13.411 11.8299L13.6037 12.4221L15.4273 11.0826L16.2545 11.1108L13.7588 12.9297L14.2993 14.6781L13.6413 14.2833L12.8611 11.8346ZM11.9305 16.6286L12.3018 16.638L12.3159 14.7345L11.9681 14.711L11.9305 16.6286ZM12.9645 12.8545L13.1431 13.3762L12.6402 13.7522L14.492 15.0541L14.727 15.8437L12.2078 14.0577L10.7273 15.1246L10.8918 14.3726L12.9598 12.8545H12.9645ZM8.10941 13.4655L8.21751 13.818L10.0364 13.2446L9.94241 12.9062L8.10941 13.4655ZM12.0198 13.2775L11.578 13.6112L11.0704 13.2493L10.403 15.4113L9.72621 15.8813L10.6427 12.9344L9.16691 11.8534L9.93301 11.7782L12.0198 13.2775Z" fill="#FFC621"/>
</g>
</g>
</g>
<defs>
<clipPath id="clip0_2214_3373">
<path d="M0 12C0 5.37258 5.37258 0 12 0C18.6274 0 24 5.37258 24 12C24 18.6274 18.6274 24 12 24C5.37258 24 0 18.6274 0 12Z" fill="white"/>
</clipPath>
<clipPath id="clip1_2214_3373">
<rect width="32" height="24" fill="white" transform="translate(-3)"/>
</clipPath>
</defs>
</svg>
