<svg width="24" height="24" viewBox="0 0 24 24" fill="none" xmlns="http://www.w3.org/2000/svg">
<g clip-path="url(#clip0_2214_3632)">
<path d="M22.8086 6.78287C20.8676 2.76892 16.7569 0.000244141 11.9993 0.000244141C7.24181 0.000244141 3.13106 2.76892 1.19006 6.78287L11.9993 7.82635L22.8086 6.78287Z" fill="#D80027"/>
<path d="M1.19006 17.2176C3.13106 21.2315 7.24181 24.0002 11.9993 24.0002C16.7569 24.0002 20.8676 21.2315 22.8086 17.2176L11.9993 16.1741L1.19006 17.2176Z" fill="#D80027"/>
<path d="M22.8093 6.78271H1.19072C0.427875 8.36029 0 10.1302 0 12.0001C0 13.87 0.427875 15.6399 1.19072 17.2175H22.8092C23.5722 15.6399 24 13.87 24 12.0001C24 10.1302 23.5722 8.36029 22.8093 6.78271Z" fill="#0052B4"/>
<path d="M12 16.174C14.3052 16.174 16.1739 14.3052 16.1739 12.0001C16.1739 9.69489 14.3052 7.82617 12 7.82617C9.69483 7.82617 7.82611 9.69489 7.82611 12.0001C7.82611 14.3052 9.69483 16.174 12 16.174Z" fill="white"/>
</g>
<defs>
<clipPath id="clip0_2214_3632">
<rect width="24" height="24" fill="white"/>
</clipPath>
</defs>
</svg>
