<svg width="24" height="24" viewBox="0 0 24 24" fill="none" xmlns="http://www.w3.org/2000/svg">
<g clip-path="url(#clip0_2214_3143)">
<g clip-path="url(#clip1_2214_3143)">
<path d="M-4.00049 0H27.9995V24H-4.00049V0Z" fill="#032EA1"/>
<path d="M-4.00049 6H27.9995V18H-4.00049V6Z" fill="#E00025"/>
<path d="M8.61951 11.3101H15.4475V13.9381H8.61951V11.3101Z" fill="white" stroke="black" stroke-width="0.06" stroke-linejoin="bevel"/>
<path d="M15.0995 12.7561H15.3095V13.7461H15.0995V12.7561ZM8.61951 12.2701H15.4475V12.5701H8.61951V12.2701ZM8.61951 11.8501H15.4475V12.1261H8.61951V11.8501Z" fill="white" stroke="black" stroke-width="0.06" stroke-linejoin="bevel"/>
<path d="M8.61951 11.4419H15.4475V11.6999H8.61951V11.4419Z" fill="white" stroke="black" stroke-width="0.054" stroke-linejoin="bevel"/>
<path d="M10.4195 12.7559H10.6355V13.7459H10.4195V12.7559ZM13.3595 12.7559H13.5755V13.7459H13.3595V12.7559ZM8.6795 12.7559H8.8895V13.7459H8.6795V12.7559ZM9.0995 12.7559H9.3095V13.7459H9.0995V12.7559ZM9.5495 12.7559H9.7595V13.7459H9.5495V12.7559ZM9.9995 12.7559H10.2095V13.7459H9.9995V12.7559ZM13.7675 12.7559H13.9835V13.7459H13.7675V12.7559ZM14.2175 12.7559H14.4335V13.7459H14.2175V12.7559ZM14.6675 12.7559H14.8835V13.7459H14.6675V12.7559Z" fill="white" stroke="black" stroke-width="0.06" stroke-linejoin="bevel"/>
<path d="M5.94952 14.07C6.01225 14.0369 6.06785 13.9918 6.11315 13.9372C6.15845 13.8826 6.19256 13.8197 6.21352 13.752H17.7995C17.8205 13.8197 17.8546 13.8826 17.8999 13.9372C17.9452 13.9918 18.0008 14.0369 18.0635 14.07H5.94952Z" fill="white" stroke="black" stroke-width="0.06"/>
<path d="M11.8595 7.30791C11.8595 7.30791 11.8535 7.06191 11.9975 7.05591C12.1355 7.05591 12.1295 7.30791 12.1295 7.30791H11.8595ZM11.1095 10.5779V10.2479C11.1095 10.0799 10.9415 10.0679 10.9415 9.94791C10.9415 9.94791 10.9175 9.76791 10.9655 9.68391C11.0315 9.92391 11.1455 9.88191 11.1455 9.77991C11.1455 9.69591 11.0855 9.61191 10.9475 9.40191C10.8995 9.33591 10.9295 9.12591 10.9895 9.04791C11.0055 9.22791 11.0495 9.31791 11.1215 9.31791C11.1735 9.32191 11.2015 9.28191 11.2055 9.19791C11.2055 9.07791 11.1275 9.01791 11.0855 8.90991C11.0648 8.85616 11.0601 8.7976 11.0718 8.74121C11.0835 8.68482 11.1112 8.63299 11.1515 8.59191C11.1815 8.77191 11.1755 8.84391 11.2535 8.84391C11.4155 8.78991 11.2535 8.55591 11.2175 8.49591C11.1815 8.42991 11.2775 8.29191 11.2775 8.29191C11.3255 8.45391 11.3375 8.46591 11.3975 8.44791C11.4695 8.42991 11.4575 8.32791 11.3735 8.24391C11.3215 8.17991 11.3255 8.11391 11.3855 8.04591C11.4455 8.15991 11.5175 8.15391 11.5235 8.08191L11.4755 7.81791H12.5195L12.4655 8.07591C12.4535 8.14791 12.5495 8.16591 12.6095 8.04591C12.6695 8.10591 12.6755 8.18991 12.6215 8.24391C12.5375 8.32791 12.5255 8.42991 12.5975 8.44791C12.6575 8.46591 12.6695 8.44791 12.7175 8.29191C12.7175 8.29191 12.8075 8.38191 12.7775 8.49591C12.7415 8.55591 12.5795 8.79591 12.7415 8.84391C12.8195 8.84391 12.8135 8.77191 12.8435 8.59191C12.8829 8.63363 12.9094 8.68577 12.9201 8.74213C12.9307 8.79849 12.925 8.85671 12.9035 8.90991C12.8675 9.01791 12.7835 9.07791 12.7835 9.19791C12.7915 9.28191 12.8215 9.32191 12.8735 9.31791C12.9455 9.31791 12.9895 9.22791 13.0055 9.04791C13.0655 9.12591 13.0955 9.33591 13.0475 9.40791C12.9095 9.61191 12.8435 9.69591 12.8435 9.77991C12.8435 9.88191 12.9635 9.92391 13.0235 9.68391C13.0775 9.76791 13.0535 9.94791 13.0535 9.94791C13.0535 10.0679 12.8915 10.0799 12.8855 10.2479V10.5779H11.1095ZM11.5415 7.81791L11.5175 7.63191H12.4715L12.4475 7.81791H11.5415ZM11.6015 7.62591L11.5895 7.47591H12.3995L12.3815 7.62591H11.6015ZM11.7395 7.46991L11.7215 7.31391H12.2615L12.2555 7.46991H11.7395ZM13.7195 14.0699C13.5995 14.0279 13.4195 13.8959 13.4195 13.7699V12.3119L13.5755 12.1079H10.4195L10.5695 12.3119V13.7699C10.5695 13.8959 10.4495 14.0279 10.3295 14.0699H13.7195Z" fill="white" stroke="black" stroke-width="0.06"/>
<path d="M10.9715 12.7559H11.1875V13.7459H10.9715V12.7559ZM12.7955 12.7559H13.0115V13.7459H12.7955V12.7559Z" fill="white" stroke="black" stroke-width="0.06" stroke-linejoin="bevel"/>
<path d="M10.3595 10.4519V12.1079H13.5995V10.4519C13.5616 10.4647 13.5274 10.4867 13.5002 10.5161C13.4729 10.5454 13.4534 10.5811 13.4435 10.6199V11.3279H10.5215V10.6199C10.5215 10.6199 10.4855 10.4999 10.3535 10.4519H10.3595Z" fill="white" stroke="black" stroke-width="0.06"/>
<path d="M13.1555 14.0701C13.0475 14.0281 12.8195 13.8961 12.8195 13.7701V12.1381C12.8435 12.0481 12.9635 11.9941 13.0415 11.9341H10.8995C11.0015 11.9941 11.1155 12.0361 11.1575 12.1381V13.7701C11.1575 13.8961 10.9775 14.0281 10.8695 14.0701H13.1555Z" fill="white" stroke="black" stroke-width="0.06"/>
<path d="M13.4435 11.9519V10.7759H13.1495V10.6619H10.8215V10.7819H10.5215V11.9519H13.4435ZM12.6995 14.0699C12.5915 14.0279 12.4415 13.8959 12.4415 13.7699V12.3779L12.5255 12.2519H11.4635L11.5535 12.3719V13.7699C11.5535 13.8959 11.3975 14.0279 11.2955 14.0699H12.6995Z" fill="white" stroke="black" stroke-width="0.06"/>
<path d="M11.7215 12.252H12.2615V14.07H11.7215V12.252Z" fill="white" stroke="black" stroke-width="0.06"/>
<path d="M12.5435 11.8501C12.5435 11.7301 12.8915 11.7241 13.0715 11.6221H10.9115C11.0915 11.7241 11.4335 11.7301 11.4335 11.8501L11.5055 12.0841L12.4055 12.1201L12.5435 11.8501Z" fill="white" stroke="black" stroke-width="0.06" stroke-linejoin="bevel"/>
<path d="M12.9635 10.5779C12.9635 10.2839 12.9755 10.1759 13.0655 10.1759V11.0999C12.8435 11.1839 12.6875 11.4599 12.6875 11.4599H11.2955C11.2955 11.4599 11.1395 11.1839 10.9175 11.0999V10.1699C11.0255 10.1699 11.0255 10.2899 11.0255 10.5719L12.9635 10.5779ZM13.0655 10.4579C13.0655 10.1219 13.3595 10.0859 13.3595 10.0859V10.3859C13.2455 10.3799 13.1915 10.4819 13.1915 10.6259C13.1915 10.7759 13.2815 10.7759 13.2815 10.7759V11.6279H13.0655V10.4579Z" fill="white" stroke="black" stroke-width="0.06"/>
<path d="M10.9175 10.4579C10.9175 10.1219 10.6235 10.0859 10.6235 10.0859V10.3859C10.7375 10.3799 10.7915 10.4819 10.7915 10.6259C10.7915 10.7759 10.7015 10.7759 10.7015 10.7759V11.6279H10.9175V10.4579Z" fill="white" stroke="black" stroke-width="0.06"/>
<path d="M11.4875 8.13599H12.5195M11.3675 8.45999H12.6275M11.2475 8.84999H12.7415M11.1215 9.32399H12.8915M11.0795 9.86399H12.9035" stroke="black" stroke-width="0.048"/>
<path d="M10.5275 11.6399H13.4435M11.4515 11.6399H12.5315V12.0359H11.4515V11.6399Z" stroke="black" stroke-width="0.06"/>
<path d="M11.3195 10.7518C11.4995 10.9678 11.4755 11.3338 11.4755 11.5498H12.5195C12.5195 11.3338 12.4955 10.9678 12.6755 10.7518H11.3195ZM11.9015 8.29185L11.7575 8.21385V8.00385C11.8175 8.02185 11.8775 8.02785 11.8895 8.12385C11.9075 7.98585 11.9495 7.99785 12.0035 7.94385C12.0635 7.99785 12.0935 7.98585 12.1175 8.12385C12.1175 8.02785 12.1895 8.02185 12.2435 8.00385V8.21385L12.1055 8.28584L11.9015 8.29185Z" fill="white" stroke="black" stroke-width="0.06"/>
<path d="M11.8895 8.63388L11.6495 8.46588V8.27988C11.7395 8.29788 11.8295 8.30988 11.8415 8.41188C11.8655 8.26188 11.9195 8.18988 12.0035 8.12988C12.0815 8.18988 12.1355 8.26188 12.1655 8.41188C12.1715 8.30988 12.2675 8.29788 12.3455 8.27988V8.47188L12.1115 8.63388H11.8895Z" fill="white" stroke="black" stroke-width="0.06"/>
<path d="M11.8715 9.16783L11.6015 8.92783V8.64583C11.6975 8.66983 11.8055 8.68183 11.8175 8.83183C11.8475 8.62183 11.9075 8.50783 11.9975 8.42383C12.0935 8.50783 12.1535 8.62183 12.1895 8.83183C12.2015 8.68183 12.3095 8.66983 12.4055 8.64583V8.92783L12.1295 9.16783H11.8715ZM12.3755 9.48583L12.1355 9.82783H11.8535L11.6075 9.48583H12.3755ZM11.4635 10.0558C11.5795 10.1158 11.6395 10.2678 11.6435 10.5118H12.3395C12.3435 10.2678 12.4035 10.1158 12.5195 10.0558H11.4635Z" fill="white" stroke="black" stroke-width="0.06"/>
<path d="M12.5315 9.48003V9.14403C12.4794 9.15393 12.4308 9.17747 12.3908 9.21225C12.3507 9.24704 12.3206 9.29182 12.3035 9.34203C12.3035 9.22203 12.1535 8.96403 11.9915 8.83203C11.8295 8.97603 11.6735 9.21603 11.6795 9.33603C11.6475 9.24003 11.5715 9.17603 11.4515 9.14403V9.48603L12.5315 9.48003Z" fill="white" stroke="black" stroke-width="0.06" stroke-linejoin="bevel"/>
<path d="M12.5795 10.056V9.71996C12.4515 9.75596 12.3695 9.82196 12.3335 9.91796C12.3335 9.79796 12.1715 9.53996 11.9915 9.40796C11.8115 9.55796 11.6435 9.79196 11.6495 9.91796C11.6175 9.82596 11.5355 9.75996 11.4035 9.71996V10.062L12.5795 10.056Z" fill="white" stroke="black" stroke-width="0.06" stroke-linejoin="bevel"/>
<path d="M12.7235 10.758V10.362C12.5994 10.4027 12.492 10.4827 12.4175 10.59C12.4175 10.38 12.1775 10.05 11.9915 9.948C11.7995 10.056 11.5655 10.392 11.5655 10.59C11.4895 10.4817 11.3798 10.4015 11.2535 10.362V10.758H12.7235Z" fill="white" stroke="black" stroke-width="0.06" stroke-linejoin="bevel"/>
<path d="M12.6395 11.6399V11.2319C12.4955 11.2859 12.4595 11.4179 12.4115 11.5139C12.4295 11.0999 12.1835 10.6619 11.9915 10.5479C11.7995 10.6619 11.5475 11.1119 11.5715 11.5079C11.5235 11.4239 11.4815 11.2859 11.3435 11.2319V11.6339L12.6395 11.6399Z" fill="white" stroke="black" stroke-width="0.06" stroke-linejoin="bevel"/>
<path d="M12.5435 12.2519V11.8439C12.3935 11.8799 12.3875 11.9339 12.3395 12.0239C12.3575 11.7779 12.1835 11.4959 11.9915 11.3879C11.7995 11.4959 11.6315 11.7779 11.6435 12.0239C11.5955 11.9339 11.5895 11.8799 11.4395 11.8439V12.2519H12.5435Z" fill="white" stroke="black" stroke-width="0.06"/>
<path d="M6.21954 13.752V12.528C6.17754 12.372 6.03954 12.228 5.94354 12.204V11.124L6.16554 11.244L6.42354 12.378V13.758L6.21954 13.752Z" fill="white" stroke="black" stroke-width="0.06"/>
<path d="M6.21954 13.758V12.528C6.17754 12.372 6.03954 12.228 5.94354 12.204V11.052C6.09354 11.052 6.16554 11.244 6.16554 11.244L6.42354 12.378V13.752L6.21954 13.758Z" fill="white" stroke="black" stroke-width="0.06"/>
<path d="M6.05753 14.07C6.15953 14.028 6.30953 13.896 6.30953 13.77V12.234L6.23753 12.114H8.85953L8.75753 12.234V13.77C8.76193 13.8336 8.78313 13.8949 8.81897 13.9476C8.85481 14.0003 8.90401 14.0425 8.96153 14.07H6.05753Z" fill="white" stroke="black" stroke-width="0.06"/>
<path d="M8.42756 14.0699C8.32556 14.0279 8.17556 13.8959 8.17556 13.7699V12.3119L8.39156 12.1079H6.61556L6.83156 12.3119V13.7699C6.83156 13.8959 6.68156 14.0279 6.57956 14.0699H8.42756Z" fill="white" stroke="black" stroke-width="0.06"/>
<path d="M8.18153 14.07C8.07953 14.028 7.92353 13.896 7.92353 13.77V12.45L8.06753 12.252H6.93953L7.08353 12.45V13.77C7.08353 13.896 6.93353 14.028 6.82553 14.07H8.18153Z" fill="white" stroke="black" stroke-width="0.06"/>
<path d="M7.23952 12.252H7.77352V14.076H7.23352L7.23952 12.252Z" fill="white" stroke="black" stroke-width="0.06"/>
<path d="M6.50152 12.756H6.71752V13.746H6.50152V12.756ZM8.34952 12.756H8.55952V13.746H8.34352L8.34952 12.756ZM6.31552 11.088H6.57952V12.108H6.31552V11.088ZM6.31552 10.896H6.57352V11.088H6.31552V10.896ZM8.45152 11.31H8.81752V12.09H8.45152V11.31Z" fill="white"/>
<path d="M6.31552 11.088H6.57952V12.108H6.31552V11.088ZM6.31552 11.088H6.57352V10.896H6.31552V11.088ZM6.50152 12.756H6.71752V13.746H6.50152V12.756ZM8.34952 12.756H8.55952V13.746H8.34352L8.34952 12.756ZM8.45152 11.31H8.81752V12.09H8.45152V11.31Z" stroke="black" stroke-width="0.06" stroke-linejoin="bevel"/>
<path d="M6.57352 12.0959V10.3559C6.64552 10.3559 6.65752 10.6139 6.82552 10.6139C6.91552 10.6139 6.90952 10.5059 6.85552 10.4219C6.81352 10.3439 6.75952 10.2419 6.83152 10.0439C6.88552 10.1939 7.01752 10.2419 6.99352 10.1519C6.95152 9.9899 6.82552 9.9599 6.92152 9.7139C6.95152 9.9179 7.08352 9.9119 7.05352 9.7919C7.01752 9.6539 6.93952 9.5939 7.03552 9.4019C7.08952 9.6239 7.15552 9.6119 7.15552 9.4739C7.15552 9.2699 7.15552 9.0539 7.40752 8.9759C7.40752 8.9759 7.42552 8.7959 7.52152 8.7959C7.61752 8.7959 7.62952 8.9759 7.62952 8.9759C7.88752 9.0539 7.88152 9.2759 7.88152 9.4739C7.88152 9.6119 7.94752 9.6239 8.00152 9.4019C8.09752 9.5939 8.01952 9.6539 7.98352 9.7919C7.95352 9.9119 8.08552 9.9179 8.11552 9.7139C8.21152 9.9599 8.08552 9.9899 8.04352 10.1519C8.01952 10.2419 8.15152 10.1939 8.20552 10.0439C8.27752 10.2419 8.22352 10.3439 8.18152 10.4219C8.13352 10.5059 8.12152 10.6139 8.21152 10.6139C8.37952 10.6139 8.39152 10.3619 8.46352 10.3619V12.0959H6.57352ZM6.15952 10.7819V12.1079H6.30952V10.7819C6.25752 10.7539 6.20752 10.7539 6.15952 10.7819Z" fill="white" stroke="black" stroke-width="0.06"/>
<path d="M6.17154 11.64C6.35754 11.736 6.54354 11.85 6.59154 12.108H6.17154V11.64ZM8.76354 11.244V12.108H8.88354V11.244C8.84354 11.224 8.80354 11.224 8.76354 11.244Z" fill="white" stroke="black" stroke-width="0.06"/>
<path d="M8.88353 11.6401C8.69753 11.7301 8.51153 11.8381 8.46353 12.1021H8.88353V11.6401ZM7.64753 9.61809L7.75553 9.52809V9.40809C7.72353 9.40809 7.69353 9.42809 7.66553 9.46809C7.65388 9.42955 7.6346 9.39376 7.60883 9.36284C7.58306 9.33191 7.55133 9.30649 7.51553 9.28809C7.47921 9.30518 7.44669 9.32939 7.41989 9.35927C7.3931 9.38916 7.37257 9.42412 7.35953 9.46209C7.33553 9.42609 7.30553 9.40609 7.26953 9.40209V9.52209L7.37753 9.61809H7.64753Z" fill="white" stroke="black" stroke-width="0.06"/>
<path d="M7.70753 9.91208L7.75553 9.79808V9.64808C7.72353 9.64808 7.69353 9.66808 7.66553 9.70808C7.65388 9.66954 7.6346 9.63375 7.60883 9.60283C7.58306 9.5719 7.55133 9.54648 7.51553 9.52808C7.47921 9.54517 7.44669 9.56938 7.41989 9.59926C7.3931 9.62915 7.37257 9.66411 7.35953 9.70208C7.33553 9.66608 7.30553 9.64808 7.26953 9.64808V9.79808L7.31753 9.91208H7.70753Z" fill="white" stroke="black" stroke-width="0.06"/>
<path d="M7.71954 10.3081L7.87554 10.1101V9.91813C7.82354 9.91813 7.77954 9.95014 7.74354 10.0141C7.70154 9.87614 7.62354 9.85213 7.51554 9.78613C7.40154 9.84613 7.32354 9.87613 7.28754 10.0081C7.23954 9.94213 7.20954 9.92413 7.14954 9.91813V10.1101L7.31154 10.3081H7.71954Z" fill="white" stroke="black" stroke-width="0.06"/>
<path d="M7.76152 10.698C7.76152 10.698 7.95352 10.536 7.95952 10.446V10.236C7.88752 10.242 7.82152 10.26 7.76752 10.35C7.71952 10.176 7.64752 10.128 7.51552 10.05C7.37752 10.128 7.30552 10.176 7.26352 10.35C7.20352 10.26 7.14352 10.242 7.06552 10.23V10.446C7.11591 10.5412 7.18298 10.6266 7.26352 10.698H7.76152Z" fill="white" stroke="black" stroke-width="0.06"/>
<path d="M7.83954 11.4179C7.83954 11.4179 8.10354 11.1359 8.10954 11.0219V10.6979C8.00954 10.7059 7.92154 10.7779 7.84554 10.9139C7.79354 10.6499 7.68354 10.4539 7.51554 10.3259C7.33554 10.4579 7.23954 10.6439 7.17954 10.9139C7.10354 10.7779 7.01754 10.7059 6.92154 10.6979V11.0219C6.93954 11.1359 7.18554 11.4179 7.18554 11.4179H7.83954Z" fill="white" stroke="black" stroke-width="0.06"/>
<path d="M7.83954 11.8439C7.83954 11.8439 8.06154 11.6219 8.10954 11.5259V11.2019C8.00954 11.2139 7.92154 11.2839 7.84554 11.4119C7.82949 11.3027 7.79208 11.1977 7.73546 11.103C7.67884 11.0083 7.60411 10.9257 7.51554 10.8599C7.33554 10.9919 7.23954 11.1419 7.17954 11.4119C7.10354 11.2839 7.01754 11.2139 6.92154 11.2019V11.5259C6.98154 11.6219 7.18554 11.8439 7.18554 11.8439H7.83954Z" fill="white" stroke="black" stroke-width="0.06"/>
<path d="M7.92953 12.096C7.86953 11.814 7.80953 11.604 7.50353 11.394C7.19153 11.604 7.13753 11.814 7.07153 12.096H7.92953Z" fill="white" stroke="black" stroke-width="0.06"/>
<path d="M8.09154 12.2519V11.8439C7.94754 11.9039 7.82154 11.9819 7.77354 12.0719C7.72554 11.8439 7.62354 11.7479 7.49754 11.6099C7.37154 11.7479 7.28754 11.8499 7.23354 12.0719C7.18554 11.9819 7.05954 11.8979 6.92154 11.8439V12.2519H8.09154Z" fill="white" stroke="black" stroke-width="0.06"/>
<path d="M17.7816 13.752V12.528C17.8236 12.372 17.9616 12.228 18.0576 12.204V11.124L17.8356 11.244L17.5776 12.378V13.758L17.7816 13.752Z" fill="white" stroke="black" stroke-width="0.06"/>
<path d="M17.7816 13.758V12.528C17.8236 12.372 17.9616 12.228 18.0576 12.204V11.052C17.9076 11.052 17.8356 11.244 17.8356 11.244L17.5776 12.378V13.752L17.7816 13.758Z" fill="white" stroke="black" stroke-width="0.06"/>
<path d="M17.9436 14.07C17.8416 14.028 17.6916 13.896 17.6916 13.77V12.234L17.7636 12.114H15.1416L15.2436 12.234V13.77C15.2392 13.8336 15.218 13.8949 15.1821 13.9476C15.1463 14.0003 15.0971 14.0425 15.0396 14.07H17.9436Z" fill="white" stroke="black" stroke-width="0.06"/>
<path d="M15.5735 14.0699C15.6755 14.0279 15.8255 13.8959 15.8255 13.7699V12.3119L15.6095 12.1079H17.3855L17.1695 12.3119V13.7699C17.1695 13.8959 17.3195 14.0279 17.4215 14.0699H15.5735Z" fill="white" stroke="black" stroke-width="0.06"/>
<path d="M15.8195 14.07C15.9215 14.028 16.0775 13.896 16.0775 13.77V12.45L15.9335 12.252H17.0615L16.9175 12.45V13.77C16.9175 13.896 17.0675 14.028 17.1755 14.07H15.8195Z" fill="white" stroke="black" stroke-width="0.06"/>
<path d="M16.7615 12.252H16.2275V14.076H16.7675L16.7615 12.252Z" fill="white" stroke="black" stroke-width="0.06"/>
<path d="M17.4995 12.756H17.2835V13.746H17.4995V12.756ZM15.6515 12.756H15.4415V13.746H15.6575L15.6515 12.756ZM17.6855 11.088H17.4215V12.108H17.6855V11.088ZM17.6855 10.896H17.4275V11.088H17.6855V10.896ZM15.5495 11.31H15.1835V12.09H15.5495V11.31Z" fill="white"/>
<path d="M17.6855 11.088H17.4215V12.108H17.6855V11.088ZM17.6855 11.088H17.4275V10.896H17.6855V11.088ZM17.4995 12.756H17.2835V13.746H17.4995V12.756ZM15.6515 12.756H15.4415V13.746H15.6575L15.6515 12.756ZM15.5495 11.31H15.1835V12.09H15.5495V11.31Z" stroke="black" stroke-width="0.06" stroke-linejoin="bevel"/>
<path d="M17.4276 12.0959V10.3559C17.3556 10.3559 17.3436 10.6139 17.1756 10.6139C17.0856 10.6139 17.0916 10.5059 17.1456 10.4219C17.1876 10.3439 17.2416 10.2419 17.1696 10.0439C17.1156 10.1939 16.9836 10.2419 17.0076 10.1519C17.0496 9.9899 17.1756 9.9599 17.0796 9.7139C17.0496 9.9179 16.9176 9.9119 16.9476 9.7919C16.9836 9.6539 17.0616 9.5939 16.9656 9.4019C16.9116 9.6239 16.8456 9.6119 16.8456 9.4739C16.8456 9.2699 16.8456 9.0539 16.5936 8.9759C16.5936 8.9759 16.5756 8.7959 16.4796 8.7959C16.3836 8.7959 16.3716 8.9759 16.3716 8.9759C16.1136 9.0539 16.1196 9.2759 16.1196 9.4739C16.1196 9.6119 16.0536 9.6239 15.9996 9.4019C15.9036 9.5939 15.9816 9.6539 16.0176 9.7919C16.0476 9.9119 15.9156 9.9179 15.8856 9.7139C15.7896 9.9599 15.9156 9.9899 15.9576 10.1519C15.9816 10.2419 15.8496 10.1939 15.7956 10.0439C15.7236 10.2419 15.7776 10.3439 15.8196 10.4219C15.8676 10.5059 15.8796 10.6139 15.7896 10.6139C15.6216 10.6139 15.6096 10.3619 15.5376 10.3619V12.0959H17.4276ZM17.8416 10.7819V12.1079H17.6916V10.7819C17.7436 10.7539 17.7936 10.7539 17.8416 10.7819Z" fill="white" stroke="black" stroke-width="0.06"/>
<path d="M17.8296 11.64C17.6436 11.736 17.4576 11.85 17.4096 12.108H17.8296V11.64ZM15.2376 11.244V12.108H15.1176V11.244C15.1576 11.224 15.1976 11.224 15.2376 11.244Z" fill="white" stroke="black" stroke-width="0.06"/>
<path d="M15.1175 11.6401C15.3035 11.7301 15.4895 11.8381 15.5375 12.1021H15.1175V11.6401ZM16.3535 9.61809L16.2455 9.52809V9.40809C16.2775 9.40809 16.3075 9.42809 16.3355 9.46809C16.3472 9.42955 16.3665 9.39376 16.3922 9.36284C16.418 9.33191 16.4497 9.30649 16.4855 9.28809C16.5219 9.30518 16.5544 9.32939 16.5812 9.35927C16.608 9.38916 16.6285 9.42412 16.6415 9.46209C16.6655 9.42609 16.6955 9.40609 16.7315 9.40209V9.52209L16.6235 9.61809H16.3535Z" fill="white" stroke="black" stroke-width="0.06"/>
<path d="M16.2935 9.91208L16.2455 9.79808V9.64808C16.2775 9.64808 16.3075 9.66808 16.3355 9.70808C16.3472 9.66954 16.3665 9.63375 16.3922 9.60283C16.418 9.5719 16.4497 9.54648 16.4855 9.52808C16.5219 9.54517 16.5544 9.56938 16.5812 9.59926C16.608 9.62915 16.6285 9.66411 16.6415 9.70208C16.6655 9.66608 16.6955 9.64808 16.7315 9.64808V9.79808L16.6835 9.91208H16.2935Z" fill="white" stroke="black" stroke-width="0.06"/>
<path d="M16.2815 10.3081L16.1255 10.1101V9.91813C16.1775 9.91813 16.2215 9.95014 16.2575 10.0141C16.2995 9.87614 16.3775 9.85213 16.4855 9.78613C16.5995 9.84613 16.6775 9.87613 16.7135 10.0081C16.7615 9.94213 16.7915 9.92413 16.8515 9.91813V10.1101L16.6895 10.3081H16.2815Z" fill="white" stroke="black" stroke-width="0.06"/>
<path d="M16.2395 10.698C16.2395 10.698 16.0475 10.536 16.0415 10.446V10.236C16.1135 10.242 16.1795 10.26 16.2335 10.35C16.2815 10.176 16.3535 10.128 16.4855 10.05C16.6235 10.128 16.6955 10.176 16.7375 10.35C16.7975 10.26 16.8575 10.242 16.9355 10.23V10.446C16.8852 10.5412 16.8181 10.6266 16.7375 10.698H16.2395Z" fill="white" stroke="black" stroke-width="0.06"/>
<path d="M16.1616 11.4179C16.1616 11.4179 15.8976 11.1359 15.8916 11.0219V10.6979C15.9916 10.7059 16.0796 10.7779 16.1556 10.9139C16.2076 10.6499 16.3176 10.4539 16.4856 10.3259C16.6656 10.4579 16.7616 10.6439 16.8216 10.9139C16.8976 10.7779 16.9836 10.7059 17.0796 10.6979V11.0219C17.0616 11.1359 16.8156 11.4179 16.8156 11.4179H16.1616Z" fill="white" stroke="black" stroke-width="0.06"/>
<path d="M16.1616 11.8439C16.1616 11.8439 15.9396 11.6219 15.8916 11.5259V11.2019C15.9916 11.2139 16.0796 11.2839 16.1556 11.4119C16.1716 11.3027 16.209 11.1977 16.2656 11.103C16.3223 11.0083 16.397 10.9257 16.4856 10.8599C16.6656 10.9919 16.7616 11.1419 16.8216 11.4119C16.8976 11.2839 16.9836 11.2139 17.0796 11.2019V11.5259C17.0196 11.6219 16.8156 11.8439 16.8156 11.8439H16.1616Z" fill="white" stroke="black" stroke-width="0.06"/>
<path d="M16.0715 12.096C16.1315 11.814 16.1915 11.604 16.4975 11.394C16.8095 11.604 16.8635 11.814 16.9295 12.096H16.0715Z" fill="white" stroke="black" stroke-width="0.06"/>
<path d="M15.9096 12.2519V11.8439C16.0536 11.9039 16.1796 11.9819 16.2276 12.0719C16.2756 11.8439 16.3776 11.7479 16.5036 11.6099C16.6296 11.7479 16.7136 11.8499 16.7676 12.0719C16.8156 11.9819 16.9416 11.8979 17.0796 11.8439V12.2519H15.9096Z" fill="white" stroke="black" stroke-width="0.06"/>
<path d="M4.64153 15.5579H19.3595V16.3079H4.64153V15.5579ZM4.25153 16.3079H19.7495V17.0579H4.25153V16.3079ZM5.41553 14.4299H18.5795V14.9159H5.41553V14.4299Z" fill="white" stroke="black" stroke-width="0.06"/>
<path d="M5.03152 14.9159H18.9755V15.5519H5.03152V14.9159ZM5.64352 14.0579H18.3635V14.4299H5.64352V14.0579Z" fill="white" stroke="black" stroke-width="0.06"/>
<path d="M7.0235 14.0579H7.9835V17.0579H7.0235V14.0579Z" fill="white" stroke="black" stroke-width="0.06"/>
<path d="M7.23952 14.0579H7.77352V17.0579H7.23352L7.23952 14.0579ZM11.4995 14.0579H12.4595V17.0579H11.4995V14.0579Z" fill="white" stroke="black" stroke-width="0.06"/>
<path d="M11.7215 14.0579H12.2615V17.0579H11.7215V14.0579ZM16.0115 14.0579H16.9715V17.0579H16.0115V14.0579Z" fill="white" stroke="black" stroke-width="0.06"/>
<path d="M16.2215 14.0579H16.7615V17.0579H16.2215V14.0579Z" fill="white" stroke="black" stroke-width="0.06"/>
<path d="M6.21951 13.752H17.7995M7.22751 16.68H7.77951M7.22751 16.302H7.77951M7.22751 15.93H7.77951M7.22751 15.552H7.77951M7.22751 15.18H7.77951M7.22751 14.802H7.77951M7.22751 14.43H7.77951M11.7275 16.68H12.2435M11.7275 16.302H12.2435M11.7275 15.93H12.2435M11.7275 15.552H12.2435M11.7275 15.18H12.2435M11.7275 14.802H12.2435M11.7275 14.43H12.2435M16.2155 16.68H16.7675M16.2155 16.302H16.7675M16.2155 15.93H16.7675M16.2155 15.552H16.7675M16.2155 15.18H16.7675M16.2155 14.802H16.7675M16.2155 14.43H16.7675" stroke="black" stroke-width="0.06"/>
</g>
</g>
<defs>
<clipPath id="clip0_2214_3143">
<path d="M-0.000488281 12C-0.000488281 5.37258 5.3721 0 11.9995 0C18.6269 0 23.9995 5.37258 23.9995 12C23.9995 18.6274 18.6269 24 11.9995 24C5.3721 24 -0.000488281 18.6274 -0.000488281 12Z" fill="white"/>
</clipPath>
<clipPath id="clip1_2214_3143">
<rect width="32" height="24" fill="white" transform="translate(-4.00049)"/>
</clipPath>
</defs>
</svg>
