<svg width="24" height="24" viewBox="0 0 24 24" fill="none" xmlns="http://www.w3.org/2000/svg">
<g clip-path="url(#clip0_2214_3584)">
<g clip-path="url(#clip1_2214_3584)">
<path d="M-4 0H28V24H-4V0Z" fill="white"/>
<path d="M-4 0H28V7.2H-4V0Z" fill="#000001"/>
<path d="M-4 16.8H28V24H-4V16.8Z" fill="#006600"/>
<path d="M7.71002 19.1251L7.98002 19.2751L14.985 7.1251C15.39 7.0351 15.615 6.6451 15.84 6.2551C15.99 5.9851 16.59 4.9501 16.845 3.6001C16.1334 4.23248 15.5304 4.97738 15.06 5.8051C14.835 6.1951 14.61 6.5851 14.715 6.9901L7.71002 19.1251Z" fill="black" stroke="black" stroke-width="0.15"/>
<path d="M7.71002 19.1251L7.98002 19.2751L14.985 7.1251C15.39 7.0351 15.615 6.6451 15.84 6.2551C15.99 5.9851 16.59 4.9501 16.845 3.6001C16.1334 4.23248 15.5304 4.97738 15.06 5.8051C14.835 6.1951 14.61 6.5851 14.715 6.9901L7.71002 19.1251Z" fill="white"/>
<path d="M16.29 19.1251L16.02 19.2751L9.01498 7.1251C8.60998 7.0351 8.38498 6.6451 8.15998 6.2551C8.00998 5.9851 7.40998 4.9501 7.15498 3.6001C7.86661 4.23248 8.46963 4.97738 8.93998 5.8051C9.16498 6.1951 9.38998 6.5851 9.28498 6.9901L16.29 19.1251Z" fill="black" stroke="black" stroke-width="0.15"/>
<path d="M16.29 19.1251L16.02 19.2751L9.01498 7.1251C8.60998 7.0351 8.38498 6.6451 8.15998 6.2551C8.00998 5.9851 7.40998 4.9501 7.15498 3.6001C7.86661 4.23248 8.46963 4.97738 8.93998 5.8051C9.16498 6.1951 9.38998 6.5851 9.28498 6.9901L16.29 19.1251Z" fill="white"/>
<path d="M28.025 8.40005H14.85C14.4 7.20005 12.9 4.80005 12 4.80005C11.1 4.80005 9.59999 7.20005 9.14999 8.40005H-4.01001V15.6H9.14999C9.59999 16.8 11.1 19.2 12 19.2C12.9 19.2 14.4 16.8 14.85 15.6H28.025V8.40005Z" fill="#BB0000"/>
<path d="M14.85 15.5999C15.3 14.3999 15.6 13.1999 15.6 11.9999C15.6 10.7999 15.3 9.5999 14.85 8.3999C14.4 9.5999 14.1 10.7999 14.1 11.9999C14.1 13.1999 14.4 14.3999 14.85 15.5999Z" fill="black"/>
<path d="M9.15002 15.5999C8.70002 14.3999 8.40002 13.1999 8.40002 11.9999C8.40002 10.7999 8.70002 9.5999 9.15002 8.3999C9.60002 9.5999 9.90002 10.7999 9.90002 11.9999C9.90002 13.1999 9.60002 14.3999 9.15002 15.5999Z" fill="black"/>
<path d="M12 12.9001C12.3314 12.9001 12.6 12.4972 12.6 12.0001C12.6 11.503 12.3314 11.1001 12 11.1001C11.6687 11.1001 11.4 11.503 11.4 12.0001C11.4 12.4972 11.6687 12.9001 12 12.9001Z" fill="white"/>
<path d="M12.15 12.8701C12.15 12.8701 12.75 14.0701 12.75 16.0201C12.75 17.9701 12.15 19.1701 12.15 19.1701V12.8701Z" fill="white"/>
<path d="M11.85 11.1299C11.85 11.1299 11.25 9.92988 11.25 7.97988C11.25 6.02988 11.85 4.82988 11.85 4.82988V11.1299Z" fill="white"/>
<path d="M11.85 12.8701C11.85 12.8701 11.25 14.0701 11.25 16.0201C11.25 17.9701 11.85 19.1701 11.85 19.1701V12.8701Z" fill="white"/>
<path d="M12.15 11.1299C12.15 11.1299 12.75 9.92988 12.75 7.97988C12.75 6.02988 12.15 4.82988 12.15 4.82988V11.1299Z" fill="white"/>
</g>
</g>
<defs>
<clipPath id="clip0_2214_3584">
<path d="M0 12C0 5.37258 5.37258 0 12 0C18.6274 0 24 5.37258 24 12C24 18.6274 18.6274 24 12 24C5.37258 24 0 18.6274 0 12Z" fill="white"/>
</clipPath>
<clipPath id="clip1_2214_3584">
<rect width="32" height="24" fill="white" transform="translate(-4)"/>
</clipPath>
</defs>
</svg>
