<svg width="24" height="24" viewBox="0 0 24 24" fill="none" xmlns="http://www.w3.org/2000/svg">
<g clip-path="url(#clip0_4445_298)">
<path d="M19.3487 7.99262C19.5784 9.10792 19.5566 10.2926 19.2376 11.4666C18.1515 15.4638 14.0307 17.8237 10.0335 16.7376C6.03627 15.6515 3.67636 11.5306 4.76248 7.5334C5.8486 3.5362 9.96944 1.1763 13.9666 2.26242C14.4407 2.39121 14.8916 2.56268 15.3166 2.77157" stroke="white" stroke-width="2" stroke-linecap="round"/>
<path d="M19.1552 5.22935C19.329 4.5898 18.9514 3.93046 18.3119 3.75669C17.6723 3.58291 17.013 3.96049 16.8392 4.60004C16.6654 5.2396 17.043 5.89893 17.6825 6.07271C18.3221 6.24649 18.9814 5.86891 19.1552 5.22935Z" fill="#00F5FA"/>
<path d="M7.50012 15.1917V22.0006L12.0001 20L16.5001 22.0006V15.1917" stroke="white" stroke-width="2" stroke-linejoin="round"/>
<path d="M15.0001 8L10.8001 12L9.00012 10" stroke="white" stroke-width="2" stroke-linecap="round" stroke-linejoin="round"/>
</g>
<defs>
<clipPath id="clip0_4445_298">
<rect width="24" height="24" fill="white"/>
</clipPath>
</defs>
</svg>
