<svg width="24" height="24" viewBox="0 0 24 24" fill="none" xmlns="http://www.w3.org/2000/svg">
<g clip-path="url(#clip0_3053_1885)">
<rect width="24" height="24" rx="12" fill="#00247D"/>
<path d="M0.900085 3.29932H22.9001V19.7993H0.900085V3.29932Z" fill="#00247D"/>
<path d="M4.61604 15.4888C4.38572 15.4853 6.77479 14.2169 8.77197 12.5875C11.3913 10.4529 17.0323 7.03941 18.6926 6.48254C18.8645 6.4241 18.3385 6.77816 18.2698 6.8916C16.4995 8.98847 17.9123 12.9416 20.126 14.9319C20.7929 15.4407 20.7585 15.4682 21.9926 15.5163V15.6332L4.61604 15.4888ZM4.47166 15.7191C4.47166 15.7191 4.30322 15.8394 4.30322 15.9288C4.30322 16.0285 4.49229 16.1591 4.49229 16.1591L21.6282 16.3482L21.9445 16.1385L21.5045 15.8669L4.47166 15.7191Z" fill="#FED100"/>
<path d="M4.57141 7.04975L4.43391 7.46912L4.79141 7.21131L5.14547 7.46912L5.01141 7.04975L5.36547 6.79193H4.92547L4.79141 6.37256L4.65391 6.79193H4.21391L4.57141 7.04975ZM7.2561 9.02287L7.55172 8.80631H7.18391L7.07047 8.45912L6.95703 8.80631H6.59266L6.88828 9.02287L6.77485 9.37006L7.07047 9.1535L7.36953 9.37006L7.2561 9.02287ZM2.26485 9.46975L2.12735 9.05037L1.99328 9.46975H1.55328L1.90735 9.72756L1.77328 10.1469L2.12735 9.88912L2.48485 10.1469L2.34735 9.72756L2.70485 9.46975H2.26485ZM4.94953 13.6738L4.79141 13.1857L4.63328 13.6738H4.11766L4.5336 13.9729L4.37547 14.4644L4.79141 14.1619L5.20735 14.4644L5.04578 13.9729L5.46172 13.6738H4.94953Z" fill="white"/>
</g>
<defs>
<clipPath id="clip0_3053_1885">
<rect width="24" height="24" fill="white"/>
</clipPath>
</defs>
</svg>
