<svg width="24" height="24" viewBox="0 0 24 24" fill="none" xmlns="http://www.w3.org/2000/svg">
<g clip-path="url(#clip0_2214_3694)">
<g clip-path="url(#clip1_2214_3694)">
<path fill-rule="evenodd" clip-rule="evenodd" d="M-4 0H28V24H-4V0Z" fill="#F41408"/>
<path fill-rule="evenodd" clip-rule="evenodd" d="M-4 16H28V24H-4V16Z" fill="#21873B"/>
<path fill-rule="evenodd" clip-rule="evenodd" d="M-4 0H28V8H-4V0Z" fill="#000001"/>
<path fill-rule="evenodd" clip-rule="evenodd" d="M7.02499 7.04995C8.13999 4.58995 11.25 3.40995 13.965 4.42495C14.6027 4.63989 15.1894 4.9839 15.6883 5.43553C16.1872 5.88715 16.5878 6.43671 16.865 7.04995H7.02499ZM5.72499 7.36995C4.84267 7.30995 3.96654 7.17953 3.10499 6.97995C2.89999 6.91495 2.88999 6.79995 2.91499 6.71495C2.93999 6.62995 3.06999 6.53495 3.22499 6.56495C3.50499 6.63495 4.66499 6.91495 5.72499 7.36995ZM11.955 3.07495C11.745 2.02495 11.695 0.874951 11.715 0.674951C11.735 0.479951 11.85 0.449951 11.95 0.449951C12.05 0.449951 12.185 0.539951 12.185 0.684951C12.185 0.949951 12.18 2.03495 11.955 3.08495V3.07495ZM12.535 3.09995C12.4521 2.29899 12.447 1.49188 12.52 0.689951C12.56 0.494951 12.68 0.469951 12.775 0.479951C12.875 0.484951 13 0.584951 12.985 0.729951C12.96 0.994951 12.855 2.07495 12.535 3.09995ZM13.055 3.16495C13.045 2.09995 13.205 0.949951 13.26 0.764951C13.315 0.569951 13.44 0.554951 13.535 0.569951C13.635 0.584951 13.75 0.694951 13.725 0.834951C13.675 1.09995 13.465 2.16495 13.055 3.16495ZM13.605 3.27495C13.695 2.21495 13.97 1.08495 14.045 0.899951C14.12 0.714951 14.245 0.709951 14.335 0.729951C14.435 0.754951 14.535 0.869951 14.5 1.00995C14.42 1.26495 14.115 2.30995 13.61 3.27495H13.605ZM14.15 3.43495C14.345 2.38495 14.725 1.27995 14.815 1.09995C14.91 0.924951 15.03 0.924951 15.125 0.954951C15.215 0.984951 15.31 1.11495 15.26 1.24495C14.9588 2.00785 14.5872 2.74102 14.15 3.43495ZM14.655 3.62495C14.945 2.58995 15.43 1.52495 15.54 1.34995C15.65 1.17995 15.77 1.19495 15.86 1.23495C15.95 1.26995 16.03 1.40495 15.965 1.53495C15.84 1.77495 15.34 2.75495 14.655 3.62495ZM15.155 3.85995C15.4524 3.09558 15.8207 2.36071 16.255 1.66495C16.375 1.50495 16.5 1.52995 16.585 1.57495C16.6102 1.58985 16.6321 1.60962 16.6495 1.63311C16.667 1.65659 16.6795 1.68331 16.6865 1.71171C16.6935 1.74011 16.6948 1.76961 16.6902 1.7985C16.6856 1.82739 16.6754 1.85508 16.66 1.87995C16.51 2.10995 15.915 3.04995 15.155 3.85995ZM15.625 4.13495C16.11 3.16495 16.79 2.18495 16.93 2.03495C17.07 1.88495 17.19 1.91995 17.27 1.96995C17.2939 1.98685 17.3141 2.00833 17.3296 2.03314C17.345 2.05795 17.3554 2.0856 17.36 2.11446C17.3647 2.14332 17.3636 2.17282 17.3567 2.20124C17.3498 2.22965 17.3373 2.25641 17.32 2.27995C17.145 2.49995 16.46 3.38495 15.62 4.12995L15.625 4.13495ZM16.065 4.44495C16.645 3.51495 17.415 2.59495 17.57 2.45995C17.72 2.31995 17.84 2.35995 17.915 2.41995C17.9369 2.43898 17.9547 2.46224 17.9673 2.48833C17.98 2.51442 17.9872 2.54279 17.9886 2.57175C17.99 2.60071 17.9855 2.62965 17.9755 2.65684C17.9654 2.68403 17.9499 2.7089 17.93 2.72995C17.74 2.93495 16.975 3.76495 16.065 4.44495ZM16.48 4.78995C16.9872 4.12122 17.5528 3.49879 18.17 2.92995C18.335 2.80495 18.445 2.85495 18.515 2.91495C18.5357 2.93609 18.5519 2.96128 18.5624 2.98894C18.573 3.01661 18.5777 3.04615 18.5763 3.07573C18.5748 3.1053 18.5673 3.13426 18.5542 3.1608C18.5411 3.18734 18.5226 3.21088 18.5 3.22995C18.295 3.41995 17.45 4.18495 16.48 4.78995ZM16.86 5.16495C17.4266 4.53793 18.0491 3.96389 18.72 3.44995C18.9 3.33495 19.005 3.39495 19.07 3.46495C19.13 3.52995 19.145 3.68495 19.02 3.77495C18.3402 4.29801 17.6177 4.76298 16.86 5.16495ZM17.185 5.55495C17.8101 4.97298 18.4843 4.44603 19.2 3.97995C19.385 3.87995 19.485 3.94995 19.54 4.02495C19.6 4.09495 19.595 4.24995 19.47 4.32995C19.23 4.47995 18.255 5.10995 17.185 5.55495ZM17.48 5.96995C18.1562 5.44238 18.8753 4.9724 19.63 4.56495C19.83 4.47995 19.925 4.55495 19.975 4.62995C20.025 4.70995 20.005 4.85995 19.875 4.92995C19.1046 5.34134 18.302 5.68916 17.475 5.96995H17.48ZM17.75 6.44995C18.4782 5.9806 19.2442 5.57253 20.04 5.22995C20.245 5.15995 20.33 5.24495 20.37 5.32495C20.415 5.40495 20.385 5.55495 20.24 5.61495C19.975 5.72495 18.89 6.18495 17.75 6.44995ZM17.96 6.90995C18.7303 6.49836 19.533 6.15054 20.36 5.86995C20.57 5.81995 20.645 5.90995 20.68 5.99495C20.71 6.07495 20.665 6.22495 20.52 6.26995C20.245 6.36495 19.12 6.73495 17.96 6.90995ZM18.13 7.39995C18.9358 7.05148 19.7685 6.76889 20.62 6.55495C20.83 6.52495 20.9 6.61495 20.925 6.70495C20.95 6.78995 20.89 6.92995 20.74 6.96995C20.455 7.03495 19.3 7.31995 18.13 7.39995ZM11.39 3.09995C11.1527 2.32733 10.9903 1.53368 10.905 0.729951C10.905 0.534951 11.02 0.489951 11.115 0.479951C11.215 0.474951 11.365 0.554951 11.375 0.694951C11.4 0.959951 11.505 2.03995 11.395 3.09995H11.39ZM10.84 3.16495C10.5272 2.41654 10.2878 1.63957 10.125 0.844951C10.105 0.644951 10.215 0.594951 10.31 0.579951C10.405 0.564951 10.56 0.629951 10.59 0.769951C10.7464 1.55896 10.8301 2.36065 10.84 3.16495ZM10.29 3.27495C9.90601 2.55299 9.59127 1.79627 9.34999 1.01495C9.30999 0.819951 9.41499 0.759951 9.50999 0.734951C9.60499 0.709951 9.75999 0.764951 9.80499 0.904951C9.87999 1.15995 10.19 2.20495 10.285 3.26995L10.29 3.27495ZM9.76499 3.42495C9.31823 2.73695 8.93658 2.0088 8.62499 1.24995C8.56999 1.05995 8.66499 0.989951 8.75499 0.959951C8.84499 0.929951 9.00999 0.969951 9.06499 1.09995C9.16499 1.34995 9.57499 2.36995 9.76499 3.41995V3.42495ZM9.25999 3.59995C8.74739 2.95109 8.29549 2.2565 7.90999 1.52495C7.83999 1.33995 7.92999 1.25995 8.01999 1.22495C8.10999 1.18995 8.26999 1.21495 8.33999 1.34495C8.46499 1.58495 8.96499 2.56995 9.25999 3.59995ZM8.74499 3.84995C8.17012 3.24484 7.65132 2.58881 7.19499 1.88995C7.10999 1.71495 7.18999 1.62995 7.27499 1.58495C7.35999 1.53995 7.52499 1.55495 7.60499 1.67995C7.75499 1.90995 8.35499 2.84495 8.74499 3.84995ZM8.27499 4.11995C7.64696 3.56039 7.06971 2.94633 6.54999 2.28495C6.44499 2.11495 6.51499 2.02495 6.59999 1.96995C6.67499 1.91995 6.84999 1.91995 6.93499 2.03995C7.10499 2.25495 7.78999 3.13995 8.27499 4.11495V4.11995ZM7.83999 4.41995C7.16024 3.91113 6.52617 3.34398 5.94499 2.72495C5.82499 2.56495 5.88999 2.47495 5.96499 2.41495C6.01784 2.3822 6.08023 2.36833 6.14198 2.37559C6.20372 2.38286 6.26119 2.41083 6.30499 2.45495C6.49499 2.65495 7.26499 3.48995 7.83999 4.41995ZM7.41499 4.76995C6.68901 4.31786 6.00316 3.80431 5.36499 3.23495C5.22499 3.08495 5.27999 2.98495 5.34999 2.91995C5.40056 2.88266 5.46237 2.86382 5.52514 2.86655C5.58791 2.86928 5.64785 2.89342 5.69499 2.93495C5.90499 3.11995 6.74499 3.88495 7.41499 4.76495V4.76995ZM7.04499 5.11995C6.27952 4.72539 5.54861 4.2671 4.85999 3.74995C4.70999 3.60995 4.75499 3.50995 4.81999 3.43995C4.87999 3.36995 5.04499 3.33495 5.16499 3.42495C5.83976 3.93605 6.46879 4.50486 7.04499 5.12495V5.11995ZM6.69499 5.52995C5.89334 5.19801 5.12067 4.79997 4.38499 4.33995C4.21999 4.21495 4.25499 4.10495 4.30999 4.03495C4.36499 3.95995 4.52499 3.90995 4.65499 3.98995C4.89499 4.14495 5.86999 4.76495 6.69499 5.52995ZM6.37999 5.96995C5.26999 5.61995 4.13499 5.08995 3.95999 4.97495C3.77999 4.86495 3.80999 4.75495 3.85499 4.67495C3.89999 4.59495 4.05499 4.53495 4.19499 4.60495C4.44499 4.73995 5.48499 5.27995 6.37999 5.96995ZM6.11499 6.41995C4.97499 6.15495 3.79999 5.71995 3.60999 5.61995C3.42499 5.51995 3.43499 5.40995 3.47999 5.32995C3.52499 5.24995 3.66499 5.17495 3.80999 5.22995C4.07499 5.34495 5.15999 5.79995 6.11499 6.41995ZM5.90499 6.86995C5.03336 6.73584 4.17392 6.53184 3.33499 6.25995C3.13499 6.17995 3.14499 6.06495 3.17499 5.98495C3.20999 5.89995 3.34999 5.81495 3.49499 5.85995C3.77499 5.95495 4.89499 6.32495 5.90499 6.86995Z" fill="#F31509"/>
<path fill-rule="evenodd" clip-rule="evenodd" d="M5.72499 7.36999C4.84267 7.30998 3.96654 7.17957 3.10499 6.97999C2.89999 6.91499 2.88999 6.79999 2.91499 6.71499C2.93999 6.62999 3.06999 6.53499 3.22499 6.56499C3.50499 6.63499 4.66499 6.91499 5.72499 7.36999Z" fill="#F31509"/>
<path fill-rule="evenodd" clip-rule="evenodd" d="M2.47 7.07495H21.53V7.70495H2.47V7.07495Z" fill="black"/>
</g>
</g>
<defs>
<clipPath id="clip0_2214_3694">
<path d="M0 12C0 5.37258 5.37258 0 12 0C18.6274 0 24 5.37258 24 12C24 18.6274 18.6274 24 12 24C5.37258 24 0 18.6274 0 12Z" fill="white"/>
</clipPath>
<clipPath id="clip1_2214_3694">
<rect width="32" height="24" fill="white" transform="translate(-4)"/>
</clipPath>
</defs>
</svg>
