<svg width="24" height="24" viewBox="0 0 24 24" fill="none" xmlns="http://www.w3.org/2000/svg">
<g clip-path="url(#clip0_2214_3130)">
<g clip-path="url(#clip1_2214_3130)">
<mask id="mask0_2214_3130" style="mask-type:luminance" maskUnits="userSpaceOnUse" x="-4" y="0" width="32" height="24">
<path d="M-3.99719 0H27.995V24H-3.99719V0Z" fill="white"/>
</mask>
<g mask="url(#mask0_2214_3130)">
<path fill-rule="evenodd" clip-rule="evenodd" d="M-8.09875 0L12.0012 12L-8.09875 24V0ZM32.1012 0L12.0012 12L32.1012 24V0Z" fill="#18B637"/>
<path fill-rule="evenodd" clip-rule="evenodd" d="M-8.09875 0L12.0012 12L32.1012 0H-8.09875ZM-8.09875 24L12.0012 12L32.1012 24H-8.09875Z" fill="#CF0921"/>
<path fill-rule="evenodd" clip-rule="evenodd" d="M32.1012 0H28.3559L-8.09875 21.7641V24H-4.35344L32.1012 2.23594V0Z" fill="white"/>
<path fill-rule="evenodd" clip-rule="evenodd" d="M18.9434 12C18.9434 13.8406 18.2123 15.6057 16.9108 16.9072C15.6093 18.2087 13.8442 18.9398 12.0036 18.9398C10.163 18.9398 8.39786 18.2087 7.09638 16.9072C5.79491 15.6057 5.06375 13.8406 5.06375 12C5.06375 10.1601 5.79466 8.39548 7.0957 7.09445C8.39673 5.79341 10.1613 5.0625 12.0013 5.0625C13.8412 5.0625 15.6058 5.79341 16.9068 7.09445C18.2078 8.39548 18.9388 10.1601 18.9388 12H18.9434Z" fill="white"/>
<path fill-rule="evenodd" clip-rule="evenodd" d="M-8.09875 0V2.23594L28.3559 24H32.1012V21.7641L-4.35344 0H-8.09875Z" fill="white"/>
<path fill-rule="evenodd" clip-rule="evenodd" d="M13.37 9.38433L12.4653 9.39839L11.9966 10.1671L11.5325 9.39839L10.6325 9.37964L11.0684 8.58745L10.6372 7.79995L11.5372 7.7812L12.0059 7.01245L12.47 7.78589L13.37 7.80464L12.9341 8.59214L13.37 9.38433ZM10.3419 14.6156L9.44188 14.6296L8.97313 15.3984L8.50907 14.6296L7.60907 14.6109L8.04501 13.8187L7.61376 13.0312L8.51376 13.0125L8.98251 12.2437L9.44657 13.0171L10.3466 13.0359L9.91063 13.8234L10.3419 14.6156ZM16.4638 14.6156L15.5638 14.6296L15.095 15.3984L14.6263 14.6296L13.7309 14.6109L14.1669 13.8187L13.7309 13.0312L14.6309 13.0125L15.0997 12.2437L15.5684 13.0171L16.4684 13.0359L16.0278 13.8234L16.4638 14.6156Z" fill="#CF0921" stroke="#18B637" stroke-width="0.457031"/>
</g>
</g>
</g>
<defs>
<clipPath id="clip0_2214_3130">
<path d="M-0.000488281 12C-0.000488281 5.37258 5.3721 0 11.9995 0C18.6269 0 23.9995 5.37258 23.9995 12C23.9995 18.6274 18.6269 24 11.9995 24C5.3721 24 -0.000488281 18.6274 -0.000488281 12Z" fill="white"/>
</clipPath>
<clipPath id="clip1_2214_3130">
<rect width="32" height="24" fill="white" transform="translate(-4)"/>
</clipPath>
</defs>
</svg>
