<svg width="24" height="24" viewBox="0 0 24 24" fill="none" xmlns="http://www.w3.org/2000/svg">
<g clip-path="url(#clip0_2214_3538)">
<g clip-path="url(#clip1_2214_3538)">
<path d="M-4 8H28V16H-4V8Z" fill="white"/>
<path d="M-4 0H28V8H-4V0Z" fill="#CE1126"/>
<path d="M-4 16H28V24H-4V16Z" fill="#000001"/>
<path d="M15.5459 10.5307L15.4232 10.4431C15.3882 10.4022 15.4232 10.3964 15.5284 10.4256C15.7211 10.484 15.8758 10.4606 15.9926 10.3555L16.1065 10.2592L16.2378 10.3205C16.3254 10.3672 16.3838 10.3876 16.413 10.3818C16.4743 10.3643 16.597 10.2066 16.5882 10.1541C16.5882 10.0927 16.6408 10.1103 16.6758 10.1803C16.7284 10.3205 16.6495 10.4869 16.5006 10.5219C16.4422 10.5395 16.3663 10.5307 16.2729 10.4957C16.1503 10.4519 16.124 10.4519 16.0627 10.4957C15.9914 10.5557 15.9029 10.5915 15.81 10.5978C15.7171 10.6041 15.6245 10.5806 15.5459 10.5307ZM16.0539 10.0665C15.9946 9.95934 15.9644 9.83854 15.9663 9.71611C15.9721 9.66355 15.9955 9.64603 16.0364 9.66355C16.124 9.68983 16.1415 9.75114 16.124 9.92632C16.124 10.084 16.1006 10.1307 16.0539 10.0665ZM10.1328 9.90005C10.124 10.0139 10.343 10.303 10.4393 10.3555C10.3692 10.3818 10.2904 10.373 10.2291 10.3993C9.87873 10.7497 8.61743 11.976 8.38969 12.2738C9.0729 12.2913 9.82618 12.265 10.4656 12.2387C10.4656 11.7745 10.9035 11.7482 11.2014 11.5818C11.3503 11.8183 11.7269 11.8008 11.7795 12.1599V13.7015H5.95466C5.93263 13.8184 5.8863 13.9293 5.81866 14.0272C5.75103 14.125 5.66361 14.2076 5.56205 14.2695C5.4605 14.3315 5.34707 14.3714 5.22911 14.3867C5.11115 14.402 4.99129 14.3924 4.87729 14.3584C5.05247 14.1832 5.35028 14.1132 5.45539 13.8592C5.54298 13.2986 5.28021 12.957 5.10503 12.6329C5.32537 12.5622 5.53253 12.4557 5.71816 12.3176C5.5167 12.9307 6.26123 12.8694 6.80429 12.8519C6.82181 12.6416 6.81305 12.3964 6.65539 12.3614C6.85685 12.2825 6.89188 12.2562 7.23349 11.976V12.8168L11.2714 12.8081C11.2714 12.5453 11.3415 12.1161 11.1313 12.1161C10.9386 12.1161 11.1313 12.6592 10.9736 12.6592H7.84662V12.1336C7.97801 11.9935 7.96049 12.0022 8.86268 11.1C8.95027 11.0125 9.58968 10.4344 10.1415 9.90005H10.1328ZM17.9371 9.87377C18.1561 9.9964 18.3313 10.1541 18.594 10.2241C18.5678 10.338 18.4627 10.3818 18.4364 10.4957V12.8606C18.7342 12.9219 18.8043 12.7468 18.9444 12.6592C18.9794 13.0358 19.2247 13.4037 19.2072 13.7103H17.9371V9.87377ZM16.2378 11.1438C16.2378 11.1438 16.7021 10.7497 16.7021 10.7322V12.7906H17.0349L17.0262 10.4869C17.1575 10.3468 17.4291 10.1541 17.4904 10.0139V13.6927H14.5649C14.5211 12.9307 14.5123 12.1424 15.4057 12.3088V12.0022C15.3795 11.9497 15.3269 12.011 15.3181 11.9409C15.4583 11.8008 15.5021 11.7657 15.8875 11.4329L15.8962 12.7906H16.2378V11.1438ZM15.1342 12.773C15.1955 12.8606 15.4145 12.8606 15.397 12.703C15.3707 12.5716 15.0904 12.6154 15.1342 12.773Z" fill="#007A3D"/>
<path d="M6.65538 14.3147C6.75213 14.3147 6.83057 14.2363 6.83057 14.1395C6.83057 14.0428 6.75213 13.9644 6.65538 13.9644C6.55863 13.9644 6.4802 14.0428 6.4802 14.1395C6.4802 14.2363 6.55863 14.3147 6.65538 14.3147Z" fill="#007A3D"/>
<path d="M12.1736 9.88257C12.3926 9.99644 12.5678 10.1629 12.8393 10.2329C12.8043 10.338 12.7079 10.3818 12.6816 10.4957V12.8607C12.9795 12.922 13.0408 12.7556 13.1809 12.6592C13.2247 13.0358 13.4612 13.4125 13.4525 13.7103H12.1736V9.88257Z" fill="#007A3D"/>
</g>
</g>
<defs>
<clipPath id="clip0_2214_3538">
<path d="M0 12C0 5.37258 5.37258 0 12 0C18.6274 0 24 5.37258 24 12C24 18.6274 18.6274 24 12 24C5.37258 24 0 18.6274 0 12Z" fill="white"/>
</clipPath>
<clipPath id="clip1_2214_3538">
<rect width="32" height="24" fill="white" transform="translate(-4)"/>
</clipPath>
</defs>
</svg>
