<svg width="24" height="24" viewBox="0 0 24 24" fill="none" xmlns="http://www.w3.org/2000/svg">
<g clip-path="url(#clip0_2214_3839)">
<g clip-path="url(#clip1_2214_3839)">
<path d="M-4 0H28V24H-4V0Z" fill="#0067C6"/>
<path d="M-4 8H28V16H-4V8Z" fill="white"/>
<path d="M8.40002 11.9749L8.80002 11.9999V11.9399L8.65002 11.9299L8.66002 11.7399L8.82502 11.6199L8.83002 11.5449L8.65502 11.6699C8.64836 11.6232 8.62502 11.5899 8.58502 11.5699C8.54502 11.5566 8.50669 11.5616 8.47002 11.5849C8.43336 11.6182 8.41669 11.6599 8.42002 11.7099L8.40002 11.9749ZM8.46002 11.9199L8.47502 11.7199C8.47502 11.6866 8.48836 11.6566 8.51502 11.6299C8.52137 11.6257 8.52859 11.6229 8.53616 11.6219C8.54372 11.6209 8.55141 11.6216 8.55865 11.624C8.56589 11.6264 8.57248 11.6305 8.57792 11.6358C8.58336 11.6412 8.5875 11.6477 8.59002 11.6549C8.60336 11.7049 8.60502 11.7582 8.59502 11.8149L8.59002 11.9249L8.46002 11.9199ZM8.45002 11.3599L8.84002 11.4499L8.93002 11.0699L8.87502 11.0599L8.80002 11.3799L8.68002 11.3549L8.75002 11.0649L8.69502 11.0499L8.62502 11.3399L8.52502 11.3149L8.59502 11.0049L8.53502 10.9949L8.45002 11.3599ZM8.59002 10.8349L8.97002 10.9699L8.99002 10.9149L8.84002 10.8649L8.90002 10.6899C8.91669 10.6399 8.91502 10.5899 8.89502 10.5399C8.86938 10.511 8.83356 10.4931 8.79502 10.4899C8.74836 10.4966 8.71502 10.5216 8.69502 10.5649C8.66502 10.6182 8.64336 10.6749 8.63002 10.7349L8.59002 10.8349ZM8.66502 10.7999L8.72502 10.6299C8.73836 10.5966 8.76002 10.5716 8.79002 10.5549C8.79697 10.5535 8.80414 10.5535 8.81107 10.5551C8.81799 10.5566 8.82451 10.5596 8.83018 10.5639C8.83586 10.5681 8.84056 10.5735 8.84398 10.5797C8.8474 10.586 8.84946 10.5928 8.85002 10.5999C8.86002 10.6499 8.83502 10.6999 8.82002 10.7499L8.78502 10.8449L8.66502 10.7999ZM8.80002 10.3499L9.01502 10.4799C9.05836 10.5032 9.10336 10.5066 9.15002 10.4899C9.20323 10.4521 9.2448 10.4001 9.27002 10.3399C9.29002 10.2899 9.31002 10.2299 9.28002 10.1799C9.24669 10.1366 9.20169 10.1032 9.14502 10.0799L9.01002 9.9999L8.98002 10.0499L9.18002 10.1699C9.21669 10.1899 9.23502 10.2216 9.23502 10.2649C9.22506 10.3107 9.20451 10.3535 9.17502 10.3899C9.15169 10.4232 9.11836 10.4399 9.07502 10.4399C9.03502 10.4266 8.99836 10.4066 8.96502 10.3799L8.83002 10.3049L8.80002 10.3549V10.3499ZM9.09002 9.8849L9.40502 10.1249L9.55502 9.9349C9.58836 9.88824 9.60002 9.83824 9.59002 9.7849C9.57919 9.76688 9.56469 9.75133 9.54747 9.73927C9.53024 9.72721 9.51067 9.71891 9.49002 9.7149C9.46336 9.71824 9.44336 9.7249 9.43002 9.7349C9.44002 9.6899 9.40502 9.6499 9.37002 9.6399C9.32002 9.6249 9.27002 9.6549 9.24002 9.6899L9.14002 9.8149L9.09002 9.8849ZM9.17002 9.8699C9.20336 9.8199 9.24002 9.77324 9.28002 9.7299C9.30002 9.7099 9.33002 9.6799 9.35502 9.6999C9.38002 9.7099 9.39002 9.7449 9.37502 9.7649C9.35502 9.8049 9.32836 9.84324 9.29502 9.8799L9.25502 9.9349L9.17002 9.8699ZM9.30002 9.9699L9.41502 9.8199C9.43502 9.7999 9.46502 9.7699 9.49502 9.7799C9.52836 9.7899 9.54169 9.81157 9.53503 9.8449C9.51502 9.89157 9.48502 9.93657 9.44502 9.9799L9.39502 10.0449L9.30002 9.9699ZM9.45002 9.4599L9.72502 9.7499L9.96002 9.5249L9.92002 9.4849L9.73002 9.6649H9.72502L9.49002 9.4149L9.45002 9.4599ZM9.80002 9.1499L10.045 9.4649L10.095 9.4299L9.84502 9.1149L9.80002 9.1499ZM10.16 8.9049C10.1212 8.92815 10.0872 8.95872 10.06 8.9949C10.0398 9.026 10.0286 9.06211 10.0277 9.09919C10.0269 9.13628 10.0363 9.17288 10.055 9.2049C10.0742 9.23687 10.1019 9.26284 10.135 9.2799C10.1661 9.2951 10.2005 9.30199 10.235 9.2999C10.283 9.29277 10.329 9.27574 10.37 9.2499C10.4123 9.22689 10.447 9.19217 10.47 9.1499C10.49 9.1099 10.495 9.0699 10.485 9.0299L10.435 9.0499C10.445 9.1299 10.395 9.1699 10.335 9.1999C10.2417 9.2599 10.165 9.25157 10.105 9.1749C10.05 9.0799 10.105 9.0049 10.185 8.9549C10.24 8.9199 10.295 8.8949 10.345 8.9299L10.39 8.8899C10.3614 8.86825 10.3259 8.8576 10.29 8.8599C10.2467 8.8599 10.2034 8.87657 10.16 8.9099V8.9049ZM10.635 8.6699L10.59 9.1199L10.655 9.0949L10.665 8.9549L10.865 8.8749L10.975 8.9649L11.035 8.9399L10.695 8.6449L10.635 8.6699ZM10.685 8.7199L10.82 8.8299L10.67 8.8899L10.685 8.7199ZM11.51 8.4199L11.535 8.8199L11.75 8.8099C11.8167 8.80657 11.8684 8.78324 11.905 8.7399C11.955 8.6899 11.965 8.6049 11.94 8.5349C11.9285 8.50571 11.9103 8.47964 11.8868 8.45879C11.8634 8.43795 11.8354 8.42291 11.805 8.4149C11.745 8.40824 11.685 8.40824 11.625 8.4149L11.51 8.4249V8.4199ZM11.57 8.4749L11.745 8.4699C11.7769 8.46844 11.8085 8.4772 11.835 8.4949C11.8784 8.52824 11.8984 8.5699 11.895 8.6199C11.891 8.64716 11.8795 8.67278 11.8619 8.69395C11.8442 8.71511 11.8211 8.73102 11.795 8.7399C11.7617 8.74657 11.73 8.75157 11.7 8.7549L11.59 8.7599L11.57 8.4749ZM12.07 8.3999L12.045 8.7999L12.435 8.8199V8.7649L12.105 8.7449L12.11 8.6249L12.41 8.6399V8.5849L12.115 8.5699L12.12 8.4599L12.44 8.4799V8.4199L12.07 8.3999ZM13.11 8.5649L12.965 8.9399L13.015 8.9599L13.135 8.6599V8.6499L13.145 8.6649L13.285 9.0649L13.35 9.0899L13.495 8.7149L13.445 8.6949L13.33 8.9949L13.325 9.0049L13.315 8.9899L13.18 8.5899L13.11 8.5649ZM13.65 8.7999L13.465 9.1499L13.415 9.1249L13.595 8.7699L13.65 8.7999ZM13.95 8.9749C13.9135 8.95089 13.8728 8.93393 13.83 8.9249C13.793 8.91722 13.7546 8.92019 13.7192 8.93347C13.6838 8.94674 13.6529 8.96978 13.63 8.9999C13.6105 9.03144 13.6001 9.0678 13.6 9.1049C13.6 9.13824 13.61 9.17324 13.63 9.2099C13.65 9.24324 13.6834 9.27657 13.73 9.3099C13.7703 9.33728 13.8166 9.35444 13.865 9.3599C13.9043 9.3593 13.9426 9.34713 13.975 9.3249L13.935 9.2799C13.865 9.3299 13.81 9.2949 13.755 9.2599C13.6584 9.19657 13.635 9.12157 13.685 9.0349C13.745 8.9449 13.84 8.9699 13.92 9.0199C13.97 9.0549 14.02 9.0949 14.01 9.1549L14.06 9.1749C14.0667 9.14084 14.0614 9.10549 14.045 9.0749C14.025 9.0349 13.9934 9.00157 13.95 8.9749ZM14.33 9.2599L13.915 9.4299L13.965 9.4749L14.095 9.4249L14.26 9.5649L14.225 9.6999L14.275 9.7449L14.38 9.3049L14.33 9.2599ZM14.315 9.3299L14.275 9.4999L14.15 9.3999L14.315 9.3299ZM14.635 9.5399L14.325 9.7899L14.36 9.8399L14.485 9.7399L14.605 9.8899L14.57 10.0899L14.615 10.1449L14.655 9.9349C14.695 9.9649 14.7367 9.97157 14.78 9.9549C14.82 9.9349 14.8434 9.9049 14.85 9.8649C14.8434 9.81157 14.8217 9.7649 14.785 9.7249L14.635 9.5399ZM14.625 9.6199L14.755 9.7799C14.775 9.8099 14.8 9.8499 14.775 9.8799C14.76 9.9099 14.72 9.9099 14.695 9.8899C14.6484 9.85324 14.6084 9.8099 14.575 9.7599L14.525 9.7049L14.625 9.6199ZM15.1 10.1749L14.65 10.1949L14.685 10.2549L14.825 10.2499L14.935 10.4399L14.855 10.5549L14.89 10.6149L15.135 10.2349L15.1 10.1749ZM15.065 10.2349L14.965 10.3849L14.89 10.2449L15.065 10.2349ZM15.36 10.7049C15.3367 10.6316 15.2917 10.5749 15.225 10.5349C15.1869 10.519 15.1449 10.5153 15.1046 10.5242C15.0643 10.5332 15.0278 10.5544 15 10.5849C14.9567 10.6416 14.945 10.7066 14.965 10.7799C14.9817 10.8599 15.015 10.9282 15.065 10.9849L15.035 10.9949L15.055 11.0499L15.245 10.9849L15.17 10.7799L15.13 10.7949L15.18 10.9449L15.12 10.9699C15.0658 10.9193 15.029 10.8528 15.015 10.7799C14.995 10.7199 15.0034 10.6666 15.04 10.6199C15.09 10.5699 15.17 10.5549 15.225 10.5949C15.28 10.6349 15.31 10.6999 15.325 10.7649C15.3417 10.8149 15.335 10.8582 15.305 10.8949C15.2984 10.8982 15.3 10.9049 15.31 10.9149L15.325 10.9399C15.3414 10.9265 15.3548 10.9098 15.3643 10.8908C15.3738 10.8718 15.3791 10.8511 15.38 10.8299C15.381 10.7874 15.3742 10.745 15.36 10.7049ZM15.475 11.0199L15.25 11.0599C15.2154 11.0647 15.1827 11.0785 15.155 11.0999C15.1347 11.1205 15.1208 11.1466 15.115 11.1749V11.2949C15.1284 11.3416 15.145 11.3799 15.165 11.4099C15.1817 11.4432 15.2017 11.4599 15.225 11.4599C15.2578 11.4684 15.2922 11.4684 15.325 11.4599L15.55 11.4199L15.54 11.3649L15.32 11.4049C15.22 11.4249 15.19 11.3749 15.17 11.2849C15.15 11.1949 15.17 11.1349 15.265 11.1199L15.485 11.0749L15.475 11.0199ZM15.595 11.6999L15.18 11.5199L15.185 11.5899L15.315 11.6399L15.33 11.8599L15.21 11.9349L15.215 11.9999L15.6 11.7649L15.595 11.6999ZM15.535 11.7349L15.385 11.8299L15.375 11.6699L15.535 11.7349ZM8.71002 12.7349L8.65002 12.7499L8.71502 12.9949L8.77502 12.9799L8.71002 12.7349ZM15.29 12.7349L15.35 12.7499L15.285 12.9949L15.225 12.9799L15.29 12.7349ZM9.33002 13.7599L8.88002 13.8099L8.92002 13.8649L9.06002 13.8499L9.18002 14.0299L9.11002 14.1549L9.15002 14.2049L9.36502 13.8149L9.33002 13.7599ZM9.29502 13.8249L9.21002 13.9749L9.12002 13.8449L9.29502 13.8249ZM9.50002 14.0049L9.21502 14.2699L9.25502 14.3099L9.49502 14.0849L9.36502 14.4349L9.41502 14.4799L9.75502 14.3799L9.52002 14.5949L9.56002 14.6349L9.84502 14.3699L9.78503 14.3099L9.43502 14.4099L9.56502 14.0749L9.50002 14.0049ZM9.91502 14.4249L9.67502 14.7499L9.98502 14.9799L10.02 14.9349L9.75502 14.7349L9.83002 14.6349L10.065 14.8199L10.1 14.7699L9.86502 14.5949L9.93002 14.5099L10.18 14.6999L10.215 14.6499L9.91502 14.4249ZM10.305 14.7149L10.12 15.0649L10.17 15.0949L10.245 14.9549L10.415 15.0449L10.455 15.2449L10.52 15.2799L10.475 15.0699C10.525 15.0866 10.5667 15.0766 10.6 15.0399C10.63 15.0099 10.64 14.9749 10.63 14.9349C10.62 14.8849 10.565 14.8549 10.525 14.8299L10.305 14.7149ZM10.33 14.7899L10.51 14.8899C10.54 14.9099 10.575 14.9349 10.57 14.9699C10.57 15.0049 10.535 15.0199 10.505 15.0149C10.4484 14.9982 10.395 14.9749 10.345 14.9449L10.27 14.9049L10.33 14.7899ZM10.76 14.9499L10.61 15.3199L10.66 15.3449L10.81 14.9749L10.76 14.9499ZM11.12 15.0749C11.0783 15.0601 11.0342 15.0533 10.99 15.0549C10.9523 15.0582 10.9163 15.0722 10.8862 15.0953C10.8561 15.1183 10.8331 15.1494 10.82 15.1849C10.8107 15.2193 10.8107 15.2555 10.82 15.2899C10.82 15.3266 10.8367 15.3599 10.87 15.3899C10.9045 15.4205 10.9456 15.4427 10.99 15.4549C11.0363 15.4725 11.0868 15.476 11.135 15.4649C11.1549 15.4621 11.1739 15.4553 11.1911 15.445C11.2083 15.4347 11.2232 15.4211 11.235 15.4049L11.185 15.3749C11.135 15.4399 11.07 15.4249 11.005 15.3999C10.8984 15.3666 10.8567 15.2999 10.88 15.1999C10.915 15.0999 11.015 15.0999 11.1 15.1249C11.16 15.1449 11.215 15.1749 11.22 15.2299L11.28 15.2399C11.2782 15.2021 11.2621 15.1664 11.235 15.1399C11.2032 15.1083 11.1635 15.0859 11.12 15.0749ZM11.52 15.1649L11.26 15.5299L11.325 15.5399L11.405 15.4249L11.625 15.4599L11.67 15.5899L11.735 15.5999L11.585 15.1749L11.52 15.1649ZM11.545 15.2299L11.605 15.3999L11.445 15.3749L11.545 15.2299ZM12.46 15.1699C12.4134 15.1766 12.3734 15.1916 12.34 15.2149C12.3089 15.2361 12.2845 15.2657 12.2694 15.3002C12.2544 15.3347 12.2494 15.3727 12.255 15.4099C12.2584 15.4432 12.275 15.4766 12.305 15.5099C12.325 15.5332 12.355 15.5499 12.395 15.5599C12.4317 15.5699 12.4784 15.5699 12.535 15.5599C12.5917 15.5499 12.635 15.5299 12.665 15.4999C12.6958 15.4751 12.7156 15.4392 12.72 15.3999H12.66C12.645 15.4799 12.585 15.4999 12.52 15.5099C12.41 15.5299 12.3417 15.4916 12.315 15.3949C12.295 15.2899 12.38 15.2399 12.465 15.2199C12.53 15.2099 12.59 15.2049 12.625 15.2549L12.675 15.2349C12.6569 15.2045 12.6285 15.1814 12.595 15.1699C12.5509 15.1575 12.5042 15.1575 12.46 15.1699ZM12.725 15.1199L12.84 15.5049L13.215 15.3949L13.195 15.3399L12.88 15.4349L12.845 15.3149L13.13 15.2299L13.115 15.1799L12.83 15.2599L12.8 15.1599L13.1 15.0699L13.085 15.0149L12.725 15.1199ZM13.16 14.9849L13.325 15.3499L13.375 15.3249L13.235 15.0249L13.625 15.1999H13.65L13.7 15.1749L13.53 14.8099L13.48 14.8349L13.62 15.1349L13.22 14.9549L13.16 14.9849ZM13.6 14.7799L13.63 14.8299L13.77 14.7299H13.78L13.965 15.0149L14.015 14.9799L13.83 14.6999V14.6949L13.975 14.5949L13.945 14.5499L13.6 14.7799ZM14 14.4999L14.27 14.7999L14.315 14.7549L14.21 14.6399L14.35 14.5099L14.55 14.5399L14.61 14.4899L14.395 14.4599C14.4217 14.4199 14.425 14.3766 14.405 14.3299C14.385 14.2899 14.3534 14.2699 14.31 14.2699C14.26 14.2699 14.21 14.3099 14.175 14.3399L14 14.4999ZM14.08 14.5049L14.23 14.3649C14.26 14.3449 14.3 14.3199 14.33 14.3399C14.3634 14.3632 14.3684 14.3899 14.345 14.4199C14.3117 14.4666 14.2717 14.5099 14.225 14.5499L14.17 14.5999L14.08 14.4999V14.5049ZM14.465 14.0349L14.645 14.4499L14.685 14.3999L14.635 14.2699L14.77 14.0999L14.905 14.1299L14.95 14.0799L14.51 13.9799L14.465 14.0349ZM14.535 14.0499L14.71 14.0849L14.61 14.2099L14.535 14.0499ZM14.64 13.8099L14.975 14.0249L15.15 13.7549L15.1 13.7249L14.965 13.9399L14.96 13.9499H14.955L14.67 13.7599L14.64 13.8099Z" fill="#C8A400"/>
<mask id="mask0_2214_3839" style="mask-type:luminance" maskUnits="userSpaceOnUse" x="9" y="9" width="6" height="5">
<path d="M12 9.05591L9.45203 13.4679H14.548L12 9.05591Z" fill="white"/>
</mask>
<g mask="url(#mask0_2214_3839)">
<path d="M12 9.05591L10.74 11.2359L10.124 12.3039H13.876L13.288 11.2879L12 9.05591Z" fill="white"/>
<path opacity="0.6" d="M12 9.05591L11.904 9.21591L12 11.4159L12.096 9.21591L12 9.05591Z" fill="#17C0EB" stroke="#17C0EB" stroke-width="0.01"/>
<path d="M12 11.0999H11.996L12 11.2199L12.004 11.0999H12Z" fill="white"/>
<path opacity="0.6" d="M14.2483 10.6894L14.0665 10.6476L12.0038 11.4187L14.1258 10.8302L14.2483 10.6894Z" fill="#17C0EB" stroke="#17C0EB" stroke-width="0.01"/>
<path d="M12.3043 11.3212L12.3031 11.3174L12.1902 11.3583L12.3056 11.325L12.3043 11.3212Z" fill="white"/>
<path opacity="0.6" d="M13.3896 13.3323L13.3732 13.1464L12.0024 11.423L13.2178 13.2593L13.3896 13.3323Z" fill="#17C0EB" stroke="#17C0EB" stroke-width="0.01"/>
<path d="M12.1881 11.6786L12.1913 11.6763L12.1176 11.5815L12.1849 11.681L12.1881 11.6786Z" fill="white"/>
<path opacity="0.6" d="M10.6105 13.3325L10.7822 13.2595L11.9977 11.4232L10.6269 13.1466L10.6105 13.3325Z" fill="#17C0EB" stroke="#17C0EB" stroke-width="0.01"/>
<path d="M11.8119 11.6788L11.8152 11.6812L11.8825 11.5817L11.8087 11.6764L11.8119 11.6788Z" fill="white"/>
<path opacity="0.6" d="M9.75171 10.6895L9.87421 10.8302L11.9962 11.4187L9.93355 10.6476L9.75171 10.6895Z" fill="#17C0EB" stroke="#17C0EB" stroke-width="0.01"/>
<path d="M11.6957 11.3211L11.6945 11.325L11.8098 11.3582L11.6969 11.3173L11.6957 11.3211Z" fill="white"/>
<path opacity="0.6" d="M12.329 9.07903L12.2117 9.22412L12.0006 11.4161L12.4018 9.25084L12.329 9.07903Z" fill="#17C0EB" stroke="#17C0EB" stroke-width="0.01"/>
<path d="M12.0445 11.1031L12.0406 11.1025L12.0278 11.2219L12.0485 11.1037L12.0445 11.1031Z" fill="white"/>
<path opacity="0.6" d="M14.3281 11.0096L14.1539 10.9428L12.004 11.4194L14.1872 11.1319L14.3281 11.0096Z" fill="#17C0EB" stroke="#17C0EB" stroke-width="0.01"/>
<path d="M12.3152 11.3645L12.3145 11.3606L12.197 11.3854L12.3159 11.3685L12.3152 11.3645Z" fill="white"/>
<path opacity="0.6" d="M13.1099 13.5072L13.1195 13.3209L12.0019 11.4235L12.95 13.411L13.1099 13.5072Z" fill="#17C0EB" stroke="#17C0EB" stroke-width="0.01"/>
<path d="M12.1503 11.7026L12.1538 11.7007L12.0939 11.5966L12.1467 11.7044L12.1503 11.7026Z" fill="white"/>
<path opacity="0.6" d="M10.3579 13.1206L10.5381 13.0722L11.9973 11.4229L10.4 12.9388L10.3579 13.1206Z" fill="#17C0EB" stroke="#17C0EB" stroke-width="0.01"/>
<path d="M11.7778 11.6503L11.7806 11.6531L11.8611 11.564L11.7749 11.6475L11.7778 11.6503Z" fill="white"/>
<path opacity="0.6" d="M9.87527 10.3837L9.977 10.5401L11.9964 11.4182L10.0612 10.3675L9.87527 10.3837Z" fill="#17C0EB" stroke="#17C0EB" stroke-width="0.01"/>
<path d="M11.7124 11.2796L11.7106 11.2832L11.8202 11.3322L11.7141 11.276L11.7124 11.2796Z" fill="white"/>
<path opacity="0.6" d="M12.6516 9.14731L12.5152 9.27465L12.0011 11.4159L12.6998 9.32757L12.6516 9.14731Z" fill="#17C0EB" stroke="#17C0EB" stroke-width="0.01"/>
<path d="M12.0882 11.1122L12.0844 11.1111L12.0551 11.2275L12.092 11.1133L12.0882 11.1122Z" fill="white"/>
<path opacity="0.6" d="M14.3626 11.3374L14.1994 11.247L12.004 11.4198L14.2061 11.4389L14.3626 11.3374Z" fill="#17C0EB" stroke="#17C0EB" stroke-width="0.01"/>
<path d="M12.3198 11.4088L12.3197 11.4048L12.1999 11.413L12.32 11.4128L12.3198 11.4088Z" fill="white"/>
<path opacity="0.6" d="M12.8085 13.6412L12.844 13.458L12.0014 11.4236L12.6636 13.5237L12.8085 13.6412Z" fill="#17C0EB" stroke="#17C0EB" stroke-width="0.01"/>
<path d="M12.1095 11.7206L12.1132 11.7192L12.0684 11.6078L12.1057 11.722L12.1095 11.7206Z" fill="white"/>
<path opacity="0.6" d="M10.1372 12.8753L10.3224 12.8524L11.9969 11.4223L10.2042 12.7011L10.1372 12.8753Z" fill="#17C0EB" stroke="#17C0EB" stroke-width="0.01"/>
<path d="M11.7479 11.617L11.7504 11.6201L11.8425 11.5431L11.7454 11.6138L11.7479 11.617Z" fill="white"/>
<path opacity="0.6" d="M10.0402 10.0979L10.1192 10.267L11.9967 11.4176L10.2265 10.1078L10.0402 10.0979Z" fill="#17C0EB" stroke="#17C0EB" stroke-width="0.01"/>
<path d="M11.7347 11.2408L11.7325 11.2441L11.8342 11.3079L11.737 11.2375L11.7347 11.2408Z" fill="white"/>
<path opacity="0.6" d="M12.9615 9.26024L12.8088 9.36736L12.0016 11.4162L12.9842 9.44545L12.9615 9.26024Z" fill="#17C0EB" stroke="#17C0EB" stroke-width="0.01"/>
<path d="M12.1302 11.1276L12.1265 11.126L12.0814 11.2372L12.1338 11.1292L12.1302 11.1276Z" fill="white"/>
<path opacity="0.6" d="M14.351 11.667L14.202 11.5548L12.004 11.4203L14.1819 11.7458L14.351 11.667Z" fill="#17C0EB" stroke="#17C0EB" stroke-width="0.01"/>
<path d="M12.3182 11.4534L12.3187 11.4495L12.1989 11.4409L12.3178 11.4574L12.3182 11.4534Z" fill="white"/>
<path opacity="0.6" d="M12.4915 13.7321L12.5521 13.5557L12.0008 11.4237L12.3643 13.5956L12.4915 13.7321Z" fill="#17C0EB" stroke="#17C0EB" stroke-width="0.01"/>
<path d="M12.0665 11.7328L12.0704 11.7319L12.0416 11.6154L12.0626 11.7336L12.0665 11.7328Z" fill="white"/>
<path opacity="0.6" d="M9.95273 12.6019L10.1393 12.6051L11.9966 11.4219L10.0433 12.4388L9.95273 12.6019Z" fill="#17C0EB" stroke="#17C0EB" stroke-width="0.01"/>
<path d="M11.7229 11.58L11.7249 11.5835L11.8268 11.52L11.7209 11.5766L11.7229 11.58Z" fill="white"/>
<path opacity="0.6" d="M10.2432 9.83808L10.2979 10.0165L11.997 11.4172L10.4263 9.8738L10.2432 9.83808Z" fill="#17C0EB" stroke="#17C0EB" stroke-width="0.01"/>
<path d="M11.7622 11.2058L11.7595 11.2087L11.8514 11.2861L11.7649 11.2028L11.7622 11.2058Z" fill="white"/>
<path opacity="0.6" d="M13.2527 9.41513L13.0865 9.49995L12.0021 11.4165L13.2494 9.60169L13.2527 9.41513Z" fill="#17C0EB" stroke="#17C0EB" stroke-width="0.01"/>
<path d="M12.1696 11.1486L12.1662 11.1465L12.106 11.2504L12.173 11.1507L12.1696 11.1486Z" fill="white"/>
<path opacity="0.6" d="M14.2938 11.9918L14.1618 11.86L12.0039 11.4209L14.1153 12.0463L14.2938 11.9918Z" fill="#17C0EB" stroke="#17C0EB" stroke-width="0.01"/>
<path d="M12.3105 11.4973L12.3115 11.4934L12.1941 11.4683L12.3095 11.5012L12.3105 11.4973Z" fill="white"/>
<path opacity="0.6" d="M12.1649 13.7782L12.2495 13.6119L12.0003 11.4239L12.058 13.6253L12.1649 13.7782Z" fill="#17C0EB" stroke="#17C0EB" stroke-width="0.01"/>
<path d="M12.0223 11.739L12.0263 11.7388L12.0139 11.6193L12.0183 11.7393L12.0223 11.739Z" fill="white"/>
<path opacity="0.6" d="M9.80815 12.3055L9.99247 12.3346L11.9963 11.4215L9.92054 12.1566L9.80815 12.3055Z" fill="#17C0EB" stroke="#17C0EB" stroke-width="0.01"/>
<path d="M11.7033 11.5397L11.7048 11.5435L11.8146 11.4948L11.7018 11.536L11.7033 11.5397Z" fill="white"/>
<path opacity="0.6" d="M10.4805 9.60895L10.5098 9.79322L11.9974 11.4168L10.6568 9.66981L10.4805 9.60895Z" fill="#17C0EB" stroke="#17C0EB" stroke-width="0.01"/>
<path d="M11.7943 11.1747L11.7913 11.1772L11.8715 11.2666L11.7974 11.1721L11.7943 11.1747Z" fill="white"/>
<path opacity="0.6" d="M13.5196 9.60907L13.3432 9.66993L12.0026 11.4169L13.4903 9.79335L13.5196 9.60907Z" fill="#17C0EB" stroke="#17C0EB" stroke-width="0.01"/>
<path d="M12.2057 11.1749L12.2026 11.1724L12.1286 11.2669L12.2088 11.1775L12.2057 11.1749Z" fill="white"/>
<path opacity="0.6" d="M14.1919 12.3056L14.0795 12.1566L12.0037 11.4215L14.0076 12.3346L14.1919 12.3056Z" fill="#17C0EB" stroke="#17C0EB" stroke-width="0.01"/>
<path d="M12.2967 11.5398L12.2982 11.5361L12.1855 11.4949L12.2952 11.5436L12.2967 11.5398Z" fill="white"/>
<path opacity="0.6" d="M11.8351 13.7782L11.942 13.6253L11.9997 11.424L11.7505 13.6119L11.8351 13.7782Z" fill="#17C0EB" stroke="#17C0EB" stroke-width="0.01"/>
<path d="M11.9776 11.7392L11.9816 11.7395L11.986 11.6195L11.9736 11.7389L11.9776 11.7392Z" fill="white"/>
<path opacity="0.6" d="M9.70621 11.9918L9.88468 12.0463L11.9961 11.4209L9.83823 11.86L9.70621 11.9918Z" fill="#17C0EB" stroke="#17C0EB" stroke-width="0.01"/>
<path d="M11.6895 11.4973L11.6904 11.5012L11.8059 11.4683L11.6885 11.4935L11.6895 11.4973Z" fill="white"/>
<path opacity="0.6" d="M10.7473 9.41519L10.7507 9.60175L11.9979 11.4166L10.9135 9.50001L10.7473 9.41519Z" fill="#17C0EB" stroke="#17C0EB" stroke-width="0.01"/>
<path d="M11.8305 11.1485L11.8271 11.1506L11.8941 11.2503L11.8339 11.1464L11.8305 11.1485Z" fill="white"/>
<path opacity="0.6" d="M13.7568 9.83819L13.5737 9.87391L12.003 11.4173L13.7021 10.0166L13.7568 9.83819Z" fill="#17C0EB" stroke="#17C0EB" stroke-width="0.01"/>
<path d="M12.2378 11.2059L12.2352 11.2029L12.1487 11.2861L12.2405 11.2088L12.2378 11.2059Z" fill="white"/>
<path opacity="0.6" d="M14.0473 12.6019L13.9567 12.4388L12.0035 11.4219L13.8607 12.6051L14.0473 12.6019Z" fill="#17C0EB" stroke="#17C0EB" stroke-width="0.01"/>
<path d="M12.2771 11.5799L12.2791 11.5764L12.1732 11.5199L12.2751 11.5833L12.2771 11.5799Z" fill="white"/>
<path opacity="0.6" d="M11.5085 13.7322L11.6357 13.5957L11.9992 11.4238L11.4479 13.5558L11.5085 13.7322Z" fill="#17C0EB" stroke="#17C0EB" stroke-width="0.01"/>
<path d="M11.9335 11.7328L11.9374 11.7336L11.9584 11.6154L11.9296 11.732L11.9335 11.7328Z" fill="white"/>
<path opacity="0.6" d="M9.64896 11.667L9.81812 11.7457L11.996 11.4203L9.79805 11.5548L9.64896 11.667Z" fill="#17C0EB" stroke="#17C0EB" stroke-width="0.01"/>
<path d="M11.6818 11.4533L11.6822 11.4573L11.8011 11.4408L11.6814 11.4493L11.6818 11.4533Z" fill="white"/>
<path opacity="0.6" d="M11.0385 9.26027L11.0159 9.44548L11.9984 11.4162L11.1913 9.36739L11.0385 9.26027Z" fill="#17C0EB" stroke="#17C0EB" stroke-width="0.01"/>
<path d="M11.8699 11.1275L11.8662 11.1292L11.9187 11.2371L11.8735 11.1259L11.8699 11.1275Z" fill="white"/>
<path opacity="0.6" d="M13.9599 10.0979L13.7735 10.1078L12.0033 11.4176L13.8809 10.267L13.9599 10.0979Z" fill="#17C0EB" stroke="#17C0EB" stroke-width="0.01"/>
<path d="M12.2653 11.2409L12.2631 11.2375L12.1658 11.308L12.2675 11.2442L12.2653 11.2409Z" fill="white"/>
<path opacity="0.6" d="M13.8629 12.8755L13.7959 12.7013L12.0032 11.4225L13.6777 12.8526L13.8629 12.8755Z" fill="#17C0EB" stroke="#17C0EB" stroke-width="0.01"/>
<path d="M12.2522 11.6169L12.2546 11.6138L12.1576 11.543L12.2497 11.6201L12.2522 11.6169Z" fill="white"/>
<path opacity="0.6" d="M11.1915 13.6412L11.3364 13.5237L11.9986 11.4236L11.156 13.4581L11.1915 13.6412Z" fill="#17C0EB" stroke="#17C0EB" stroke-width="0.01"/>
<path d="M11.8905 11.7206L11.8943 11.7219L11.9316 11.6078L11.8868 11.7192L11.8905 11.7206Z" fill="white"/>
<path opacity="0.6" d="M9.63744 11.3374L9.794 11.4389L11.996 11.4198L9.8007 11.2471L9.63744 11.3374Z" fill="#17C0EB" stroke="#17C0EB" stroke-width="0.01"/>
<path d="M11.6802 11.4088L11.6801 11.4128L11.8001 11.413L11.6803 11.4048L11.6802 11.4088Z" fill="white"/>
<path opacity="0.6" d="M11.3484 9.14761L11.3002 9.32787L11.9989 11.4162L11.4848 9.27495L11.3484 9.14761Z" fill="#17C0EB" stroke="#17C0EB" stroke-width="0.01"/>
<path d="M11.9118 11.1124L11.908 11.1135L11.9449 11.2278L11.9156 11.1113L11.9118 11.1124Z" fill="white"/>
<path opacity="0.6" d="M14.1247 10.3836L13.9388 10.3675L12.0036 11.4182L14.023 10.5401L14.1247 10.3836Z" fill="#17C0EB" stroke="#17C0EB" stroke-width="0.01"/>
<path d="M12.2876 11.2797L12.2858 11.2761L12.1797 11.3323L12.2893 11.2833L12.2876 11.2797Z" fill="white"/>
<path opacity="0.6" d="M13.6422 13.1204L13.6001 12.9386L12.0028 11.4228L13.462 13.072L13.6422 13.1204Z" fill="#17C0EB" stroke="#17C0EB" stroke-width="0.01"/>
<path d="M12.2223 11.65L12.2252 11.6472L12.1389 11.5637L12.2194 11.6528L12.2223 11.65Z" fill="white"/>
<path opacity="0.6" d="M10.8902 13.5072L11.05 13.411L11.9981 11.4234L10.8805 13.3208L10.8902 13.5072Z" fill="#17C0EB" stroke="#17C0EB" stroke-width="0.01"/>
<path d="M11.8497 11.7025L11.8533 11.7043L11.9061 11.5965L11.8462 11.7006L11.8497 11.7025Z" fill="white"/>
<path opacity="0.6" d="M9.67194 11.0095L9.81284 11.1318L11.9961 11.4193L9.84618 10.9427L9.67194 11.0095Z" fill="#17C0EB" stroke="#17C0EB" stroke-width="0.01"/>
<path d="M11.6849 11.3645L11.6842 11.3684L11.8031 11.3853L11.6856 11.3605L11.6849 11.3645Z" fill="white"/>
<path opacity="0.6" d="M11.671 9.07892L11.5982 9.25073L11.9994 11.416L11.7883 9.22401L11.671 9.07892Z" fill="#17C0EB" stroke="#17C0EB" stroke-width="0.01"/>
<path d="M11.9554 11.103L11.9515 11.1035L11.9721 11.2218L11.9594 11.1024L11.9554 11.103Z" fill="white"/>
<path d="M12 10.6318C11.5738 10.6306 11.1616 10.7841 10.84 11.0638L10.256 12.0798C10.2351 12.1893 10.2244 12.3004 10.224 12.4118H10.424C10.4444 12.0081 10.6191 11.6276 10.912 11.3491C11.205 11.0705 11.5938 10.9152 11.998 10.9152C12.4022 10.9152 12.791 11.0705 13.084 11.3491C13.3769 11.6276 13.5516 12.0081 13.572 12.4118H13.772C13.7729 12.3005 13.7636 12.1894 13.744 12.0798L13.16 11.0638C12.8384 10.7841 12.4262 10.6306 12 10.6318Z" fill="#FF0000"/>
<path d="M12 10.668C11.5484 10.6691 11.1145 10.8438 10.788 11.156L10.308 11.992C10.2742 12.1281 10.2567 12.2677 10.256 12.408H10.428C10.4564 12.0104 10.6344 11.6384 10.926 11.3668C11.2177 11.0952 11.6015 10.9442 12 10.9442C12.3986 10.9442 12.7824 11.0952 13.074 11.3668C13.3657 11.6384 13.5437 12.0104 13.572 12.408H13.744C13.7437 12.2664 13.7262 12.1254 13.692 11.988L13.212 11.156C12.8856 10.8438 12.4517 10.6691 12 10.668Z" fill="#FF6600"/>
<path d="M12 10.7C11.7584 10.7001 11.5196 10.7511 11.2991 10.8496C11.0785 10.9482 10.8812 11.0921 10.72 11.272L10.372 11.872C10.3168 12.0465 10.2898 12.2288 10.292 12.412H10.424C10.4444 12.0082 10.6191 11.6278 10.912 11.3492C11.205 11.0707 11.5938 10.9153 11.998 10.9153C12.4022 10.9153 12.791 11.0707 13.084 11.3492C13.3769 11.6278 13.5516 12.0082 13.572 12.412H13.712C13.712 12.2253 13.684 12.0466 13.628 11.876L13.276 11.272C13.1152 11.0926 12.9186 10.949 12.6988 10.8504C12.4789 10.7519 12.2409 10.7006 12 10.7Z" fill="#FFFF00"/>
<path d="M12 10.732C11.7241 10.7319 11.4524 10.7997 11.209 10.9294C10.9655 11.0592 10.7577 11.2469 10.604 11.476L10.492 11.672C10.3789 11.9023 10.3201 12.1555 10.32 12.412H10.428C10.4564 12.0145 10.6343 11.6425 10.926 11.3708C11.2177 11.0992 11.6015 10.9482 12 10.9482C12.3986 10.9482 12.7823 11.0992 13.074 11.3708C13.3657 11.6425 13.5436 12.0145 13.572 12.412H13.68C13.6799 12.1555 13.6211 11.9023 13.508 11.672L13.396 11.472C13.2423 11.2429 13.0345 11.0552 12.7911 10.9254C12.5476 10.7957 12.2759 10.7279 12 10.728V10.732Z" fill="#00FF00"/>
<path d="M12 10.76C11.783 10.759 11.5679 10.801 11.3672 10.8837C11.1665 10.9664 10.9842 11.0881 10.8309 11.2418C10.6776 11.3954 10.5564 11.578 10.4742 11.7789C10.392 11.9798 10.3504 12.195 10.352 12.412H10.428C10.4564 12.0145 10.6344 11.6425 10.926 11.3709C11.2177 11.0992 11.6015 10.9482 12 10.9482C12.3986 10.9482 12.7823 11.0992 13.074 11.3709C13.3657 11.6425 13.5437 12.0145 13.572 12.412H13.648C13.6496 12.195 13.6081 11.9798 13.5259 11.7789C13.4437 11.578 13.3224 11.3954 13.1691 11.2418C13.0158 11.0881 12.8336 10.9664 12.6329 10.8837C12.4322 10.801 12.2171 10.759 12 10.76Z" fill="#00CCFF"/>
<path d="M12 10.792C11.5714 10.792 11.1604 10.9622 10.8573 11.2653C10.5543 11.5684 10.384 11.9794 10.384 12.408H10.44C10.44 11.9943 10.6044 11.5975 10.8969 11.3049C11.1895 11.0123 11.5863 10.848 12 10.848C12.4138 10.848 12.8106 11.0123 13.1031 11.3049C13.3957 11.5975 13.56 11.9943 13.56 12.408H13.616C13.6139 11.9808 13.4427 11.5718 13.1399 11.2705C12.8371 10.9691 12.4272 10.8 12 10.8V10.792Z" fill="#0000FF"/>
<path d="M12 10.828C11.7896 10.8279 11.5813 10.8698 11.3873 10.9512C11.1933 11.0325 11.0174 11.1517 10.8699 11.3018C10.7225 11.4518 10.6064 11.6298 10.5285 11.8252C10.4505 12.0206 10.4123 12.2296 10.416 12.44H10.448V12.408C10.4523 11.9964 10.6198 11.6033 10.9139 11.3152C11.208 11.0272 11.6044 10.8677 12.016 10.872C12.4276 10.8762 12.8207 11.0438 13.1088 11.3379C13.3968 11.6319 13.5563 12.0284 13.552 12.44H13.584V12.408C13.584 12.2 13.543 11.994 13.4634 11.8018C13.3838 11.6096 13.2672 11.435 13.1201 11.2879C12.973 11.1408 12.7984 11.0242 12.6062 10.9445C12.414 10.8649 12.208 10.824 12 10.824V10.828Z" fill="#800080"/>
<path d="M12.016 11.524C11.988 11.524 11.968 11.504 11.944 11.5C11.9316 11.5097 11.9223 11.5228 11.9173 11.5378C11.9123 11.5527 11.9119 11.5688 11.916 11.584C11.928 11.588 11.928 11.6 11.952 11.62C11.976 11.64 11.972 11.648 11.968 11.7C11.968 11.716 11.972 11.76 11.992 11.764C12.016 11.7667 12.0307 11.7507 12.036 11.716C12.0413 11.6893 12.0507 11.668 12.064 11.652C12.076 11.576 12.056 11.548 12.016 11.524Z" fill="#510000"/>
<path d="M11.888 11.3399C11.864 11.3399 11.824 11.3799 11.808 11.3599C11.7973 11.3439 11.7973 11.3253 11.808 11.3039C11.8265 11.2645 11.8574 11.2322 11.896 11.2119C11.9867 11.1586 12.0533 11.1719 12.096 11.2519C12.14 11.3239 12.184 11.4039 12.188 11.4679C12.188 11.4879 12.2 11.5239 12.18 11.5439C12.128 11.5999 11.996 11.4839 11.92 11.5039C11.896 11.5079 11.864 11.5279 11.84 11.5119C11.824 11.4999 11.84 11.4719 11.852 11.4599C11.876 11.4399 11.912 11.3639 11.908 11.3319C11.908 11.3159 11.908 11.3399 11.888 11.3399Z" fill="#FF0000"/>
<path d="M11.88 11.3041C11.832 11.3201 11.84 11.3441 11.816 11.3641C11.824 11.3681 11.848 11.3761 11.872 11.3521C11.88 11.3441 11.8893 11.3401 11.9 11.3401L11.872 11.3681C11.848 11.3874 11.8289 11.4121 11.816 11.4401C11.804 11.4721 11.8 11.5081 11.804 11.5121C11.804 11.5121 11.82 11.5441 11.864 11.5601C11.944 11.5921 11.96 11.6601 12.044 11.6601C12.108 11.6601 12.1 11.6161 12.152 11.6241C12.192 11.6321 12.22 11.5961 12.176 11.5761C12.1047 11.562 12.0313 11.562 11.96 11.5761C11.944 11.4161 11.96 11.4721 11.956 11.4001C11.952 11.3321 11.928 11.3281 11.956 11.2681C11.936 11.3081 11.908 11.3001 11.876 11.3001L11.88 11.3041Z" fill="url(#paint0_linear_2214_3839)"/>
<path d="M12.04 11.1919L12.036 11.2159L12.048 11.2559L12.056 11.2959C12.0587 11.3066 12.068 11.3146 12.084 11.3199C12.1 11.3319 12.084 11.3599 12.096 11.3639C12.104 11.3639 12.116 11.3239 12.116 11.3159V11.2879L12.096 11.2519L12.088 11.2399L12.056 11.2039L12.044 11.1959L12.036 11.1919H12.04Z" fill="#FF2A2A"/>
<path d="M12.052 11.496L11.972 11.468C11.92 11.452 11.868 11.42 11.832 11.436C11.8214 11.4387 11.816 11.4507 11.816 11.472C11.816 11.492 11.796 11.524 11.816 11.512C11.836 11.5 11.912 11.544 11.936 11.556C11.948 11.564 11.976 11.58 11.98 11.596C11.988 11.62 11.98 11.668 11.98 11.692C11.98 11.716 11.988 11.764 12.008 11.772C12.0347 11.7747 12.052 11.7573 12.06 11.72C12.068 11.688 12.0787 11.6627 12.092 11.644C12.108 11.62 12.1254 11.608 12.144 11.608C12.168 11.608 12.2 11.628 12.2 11.6C12.2 11.584 12.184 11.568 12.192 11.544C12.196 11.524 12.176 11.528 12.156 11.52L12.052 11.496Z" fill="url(#paint1_linear_2214_3839)"/>
<path d="M11.936 11.5559C11.92 11.5479 11.844 11.4959 11.816 11.5159C11.8053 11.5159 11.8 11.5119 11.8 11.5039L11.808 11.4679C11.808 11.4519 11.8147 11.4386 11.828 11.4279C11.856 11.4039 11.92 11.4479 11.952 11.4599L11.936 11.5559Z" fill="#910000"/>
<path d="M12.072 11.656C12.108 11.592 12.132 11.6 12.176 11.6C12.192 11.6 12.1974 11.5907 12.192 11.572C12.18 11.596 12.124 11.572 12.092 11.584C12.032 11.612 12.044 11.732 12.012 11.744C12.044 11.772 12.056 11.676 12.072 11.656Z" fill="#FF3A3A"/>
<path d="M10.124 12.304L9.724 12.996H14.28L13.88 12.308H10.128L10.124 12.304Z" fill="white"/>
<path d="M9.98803 12.856L9.80003 12.868L9.78003 12.904C9.87336 12.888 9.96936 12.8786 10.068 12.876C10.196 12.876 10.316 12.908 10.456 12.908H10.64C10.78 12.908 10.896 12.876 11.028 12.876C11.16 12.876 11.28 12.908 11.42 12.908H11.604C11.744 12.908 11.86 12.876 11.992 12.876C12.124 12.876 12.244 12.908 12.384 12.908H12.564C12.704 12.908 12.824 12.876 12.956 12.876C13.088 12.876 13.208 12.908 13.348 12.908H13.528C13.668 12.908 13.788 12.876 13.92 12.876C14.0214 12.8813 14.1214 12.8906 14.22 12.904L14.2 12.864L14.024 12.856H13.844C13.704 12.856 13.584 12.884 13.452 12.888C13.32 12.888 13.2 12.856 13.06 12.856H12.88C12.74 12.856 12.62 12.884 12.488 12.888C12.356 12.888 12.236 12.856 12.096 12.856H11.92C11.78 12.856 11.66 12.884 11.528 12.888C11.396 12.888 11.276 12.856 11.136 12.856H10.956C10.816 12.856 10.696 12.884 10.564 12.888C10.432 12.888 10.316 12.856 10.176 12.856H9.98803Z" fill="url(#paint2_linear_2214_3839)"/>
<path d="M9.98803 12.812L9.80003 12.824L9.78003 12.86C9.87336 12.844 9.96936 12.8347 10.068 12.832C10.196 12.832 10.316 12.864 10.456 12.864H10.64C10.78 12.864 10.896 12.832 11.028 12.832C11.16 12.832 11.28 12.864 11.42 12.864H11.604C11.744 12.864 11.86 12.832 11.992 12.832C12.124 12.832 12.244 12.864 12.384 12.864H12.564C12.704 12.864 12.824 12.832 12.956 12.832C13.088 12.832 13.208 12.864 13.348 12.864H13.528C13.668 12.864 13.788 12.832 13.92 12.832C14.0214 12.8373 14.1214 12.8467 14.22 12.86L14.2 12.82L14.024 12.812H13.844C13.704 12.812 13.584 12.84 13.452 12.844C13.32 12.844 13.2 12.812 13.06 12.812H12.88C12.74 12.812 12.62 12.84 12.488 12.844C12.356 12.844 12.236 12.812 12.096 12.812H11.92C11.78 12.812 11.66 12.84 11.528 12.844C11.396 12.844 11.276 12.812 11.136 12.812H10.956C10.816 12.812 10.696 12.84 10.564 12.844C10.432 12.844 10.316 12.812 10.176 12.812H9.98803Z" fill="url(#paint3_linear_2214_3839)"/>
<path d="M9.98803 12.7681L9.80003 12.7801L9.78003 12.8161C9.87336 12.8001 9.96936 12.7907 10.068 12.7881C10.196 12.7881 10.316 12.8201 10.456 12.8201H10.64C10.78 12.8201 10.896 12.7881 11.028 12.7881C11.16 12.7881 11.28 12.8201 11.42 12.8201H11.604C11.744 12.8201 11.86 12.7881 11.992 12.7881C12.124 12.7881 12.244 12.8201 12.384 12.8201H12.564C12.704 12.8201 12.824 12.7881 12.956 12.7881C13.088 12.7881 13.208 12.8201 13.348 12.8201H13.528C13.668 12.8201 13.788 12.7881 13.92 12.7881C14.0214 12.7934 14.1214 12.8027 14.22 12.8161L14.2 12.7761L14.024 12.7681H13.844C13.704 12.7681 13.584 12.7961 13.452 12.8001C13.32 12.8001 13.2 12.7681 13.06 12.7681H12.88C12.74 12.7681 12.62 12.7961 12.488 12.8001C12.356 12.8001 12.236 12.7681 12.096 12.7681H11.92C11.78 12.7681 11.66 12.7961 11.528 12.8001C11.396 12.8001 11.276 12.7681 11.136 12.7681H10.956C10.816 12.7681 10.696 12.7961 10.564 12.8001C10.432 12.8001 10.316 12.7681 10.176 12.7681H9.98803Z" fill="url(#paint4_linear_2214_3839)"/>
<path d="M9.98803 12.7239L9.80003 12.7359L9.78003 12.7719C9.87336 12.7559 9.96936 12.7465 10.068 12.7439C10.196 12.7439 10.316 12.7759 10.456 12.7759H10.64C10.78 12.7759 10.896 12.7439 11.028 12.7439C11.16 12.7439 11.28 12.7759 11.42 12.7759H11.604C11.744 12.7759 11.86 12.7439 11.992 12.7439C12.124 12.7439 12.244 12.7759 12.384 12.7759H12.564C12.704 12.7759 12.824 12.7439 12.956 12.7439C13.088 12.7439 13.208 12.7759 13.348 12.7759H13.528C13.668 12.7759 13.788 12.7439 13.92 12.7439C14.0214 12.7492 14.1214 12.7585 14.22 12.7719L14.2 12.7319L14.024 12.7239H13.844C13.704 12.7239 13.584 12.7519 13.452 12.7559C13.32 12.7559 13.2 12.7239 13.06 12.7239H12.88C12.74 12.7239 12.62 12.7519 12.488 12.7559C12.356 12.7559 12.236 12.7239 12.096 12.7239H11.92C11.78 12.7239 11.66 12.7519 11.528 12.7559C11.396 12.7559 11.276 12.7239 11.136 12.7239H10.956C10.816 12.7239 10.696 12.7519 10.564 12.7559C10.432 12.7559 10.316 12.7239 10.176 12.7239H9.98803Z" fill="url(#paint5_linear_2214_3839)"/>
<path d="M9.98803 12.6799L9.80003 12.6919L9.78003 12.7279C9.87336 12.7119 9.96936 12.7026 10.068 12.6999C10.196 12.6999 10.316 12.7319 10.456 12.7319H10.64C10.78 12.7319 10.896 12.6999 11.028 12.6999C11.16 12.6999 11.28 12.7319 11.42 12.7319H11.604C11.744 12.7319 11.86 12.6999 11.992 12.6999C12.124 12.6999 12.244 12.7319 12.384 12.7319H12.564C12.704 12.7319 12.824 12.6999 12.956 12.6999C13.088 12.6999 13.208 12.7319 13.348 12.7319H13.528C13.668 12.7319 13.788 12.6999 13.92 12.6999C14.0214 12.7053 14.1214 12.7146 14.22 12.7279L14.2 12.6879L14.024 12.6799H13.844C13.704 12.6799 13.584 12.7079 13.452 12.7119C13.32 12.7119 13.2 12.6799 13.06 12.6799H12.88C12.74 12.6799 12.62 12.7079 12.488 12.7119C12.356 12.7119 12.236 12.6799 12.096 12.6799H11.92C11.78 12.6799 11.66 12.7079 11.528 12.7119C11.396 12.7119 11.276 12.6799 11.136 12.6799H10.956C10.816 12.6799 10.696 12.7079 10.564 12.7119C10.432 12.7119 10.316 12.6799 10.176 12.6799H9.98803Z" fill="url(#paint6_linear_2214_3839)"/>
<path d="M9.98803 12.636L9.80003 12.648L9.78003 12.684C9.87336 12.668 9.96936 12.6587 10.068 12.656C10.196 12.656 10.316 12.688 10.456 12.688H10.64C10.78 12.688 10.896 12.656 11.028 12.656C11.16 12.656 11.28 12.688 11.42 12.688H11.604C11.744 12.688 11.86 12.656 11.992 12.656C12.124 12.656 12.244 12.688 12.384 12.688H12.564C12.704 12.688 12.824 12.656 12.956 12.656C13.088 12.656 13.208 12.688 13.348 12.688H13.528C13.668 12.688 13.788 12.656 13.92 12.656C14.0214 12.6613 14.1214 12.6707 14.22 12.684L14.2 12.644L14.024 12.636H13.844C13.704 12.636 13.584 12.664 13.452 12.668C13.32 12.668 13.2 12.636 13.06 12.636H12.88C12.74 12.636 12.62 12.664 12.488 12.668C12.356 12.668 12.236 12.636 12.096 12.636H11.92C11.78 12.636 11.66 12.664 11.528 12.668C11.396 12.668 11.276 12.636 11.136 12.636H10.956C10.816 12.636 10.696 12.664 10.564 12.668C10.432 12.668 10.316 12.636 10.176 12.636H9.98803Z" fill="url(#paint7_linear_2214_3839)"/>
<path d="M9.98803 12.5879L9.80003 12.5999L9.78003 12.6359C9.87336 12.6199 9.96936 12.6106 10.068 12.6079C10.196 12.6079 10.316 12.6399 10.456 12.6399H10.64C10.78 12.6399 10.896 12.6079 11.028 12.6079C11.16 12.6079 11.28 12.6399 11.42 12.6399H11.604C11.744 12.6399 11.86 12.6079 11.992 12.6079C12.124 12.6079 12.244 12.6399 12.384 12.6399H12.564C12.704 12.6399 12.824 12.6079 12.956 12.6079C13.088 12.6079 13.208 12.6399 13.348 12.6399H13.528C13.668 12.6399 13.788 12.6079 13.92 12.6079C14.0214 12.6132 14.1214 12.6226 14.22 12.6359L14.2 12.5959L14.024 12.5879H13.844C13.704 12.5879 13.584 12.6159 13.452 12.6199C13.32 12.6199 13.2 12.5879 13.06 12.5879H12.88C12.74 12.5879 12.62 12.6159 12.488 12.6199C12.356 12.6199 12.236 12.5879 12.096 12.5879H11.92C11.78 12.5879 11.66 12.6159 11.528 12.6199C11.396 12.6199 11.276 12.5879 11.136 12.5879H10.956C10.816 12.5879 10.696 12.6159 10.564 12.6199C10.432 12.6199 10.316 12.5879 10.176 12.5879H9.98803Z" fill="url(#paint8_linear_2214_3839)"/>
<path d="M9.98803 12.5439L9.80003 12.5559L9.78003 12.5919C9.87336 12.5759 9.96936 12.5666 10.068 12.5639C10.196 12.5639 10.316 12.5959 10.456 12.5959H10.64C10.78 12.5959 10.896 12.5639 11.028 12.5639C11.16 12.5639 11.28 12.5959 11.42 12.5959H11.604C11.744 12.5959 11.86 12.5639 11.992 12.5639C12.124 12.5639 12.244 12.5959 12.384 12.5959H12.564C12.704 12.5959 12.824 12.5639 12.956 12.5639C13.088 12.5639 13.208 12.5959 13.348 12.5959H13.528C13.668 12.5959 13.788 12.5639 13.92 12.5639C14.0214 12.5693 14.1214 12.5786 14.22 12.5919L14.2 12.5519L14.024 12.5439H13.844C13.704 12.5439 13.584 12.5719 13.452 12.5759C13.32 12.5759 13.2 12.5439 13.06 12.5439H12.88C12.74 12.5439 12.62 12.5719 12.488 12.5759C12.356 12.5759 12.236 12.5439 12.096 12.5439H11.92C11.78 12.5439 11.66 12.5719 11.528 12.5759C11.396 12.5759 11.276 12.5439 11.136 12.5439H10.956C10.816 12.5439 10.696 12.5719 10.564 12.5759C10.432 12.5759 10.316 12.5439 10.176 12.5439H9.98803Z" fill="url(#paint9_linear_2214_3839)"/>
<path d="M9.98803 12.5L9.80003 12.512L9.78003 12.548C9.87336 12.532 9.96936 12.5227 10.068 12.52C10.196 12.52 10.316 12.552 10.456 12.552H10.64C10.78 12.552 10.896 12.52 11.028 12.52C11.16 12.52 11.28 12.552 11.42 12.552H11.604C11.744 12.552 11.86 12.52 11.992 12.52C12.124 12.52 12.244 12.552 12.384 12.552H12.564C12.704 12.552 12.824 12.52 12.956 12.52C13.088 12.52 13.208 12.552 13.348 12.552H13.528C13.668 12.552 13.788 12.52 13.92 12.52C14.0214 12.5253 14.1214 12.5347 14.22 12.548L14.2 12.508L14.024 12.5H13.844C13.704 12.5 13.584 12.528 13.452 12.532C13.32 12.532 13.2 12.5 13.06 12.5H12.88C12.74 12.5 12.62 12.528 12.488 12.532C12.356 12.532 12.236 12.5 12.096 12.5H11.92C11.78 12.5 11.66 12.528 11.528 12.532C11.396 12.532 11.276 12.5 11.136 12.5H10.956C10.816 12.5 10.696 12.528 10.564 12.532C10.432 12.532 10.316 12.5 10.176 12.5H9.98803Z" fill="url(#paint10_linear_2214_3839)"/>
<path d="M10.128 12.3V12.308H13.876L13.872 12.3H10.128ZM10.12 12.312L10.116 12.324H13.88L13.876 12.312H10.116H10.12ZM10.112 12.328L10.104 12.34H13.896L13.888 12.328H10.112ZM10.1 12.348L10.088 12.368H13.912L13.9 12.348H10.1ZM10.084 12.376L10.072 12.396H13.928L13.916 12.376H10.084ZM10.068 12.404L10.06 12.42H13.94L13.932 12.404H10.068ZM10.052 12.432L10.044 12.448H13.96L13.948 12.432H10.052ZM10.036 12.46L10.024 12.484H13.976L13.964 12.46H10.04H10.036Z" fill="url(#paint11_linear_2214_3839)"/>
<path d="M10.296 12.4919C10.432 12.5199 10.444 12.4919 10.444 12.4919H10.296ZM13.556 12.4919C13.556 12.4919 13.568 12.5199 13.704 12.4919H13.556Z" fill="url(#paint12_linear_2214_3839)"/>
<path d="M13.224 11.8799C13.156 11.8799 13.136 11.9159 13.136 11.9159C13.028 12.3399 12.664 12.7679 12.232 12.7679H11.912V13.1999H14.368L14.12 12.7599C13.732 12.7039 13.416 12.3079 13.316 11.9159C13.316 11.9159 13.292 11.8799 13.224 11.8799Z" fill="url(#paint13_linear_2214_3839)"/>
<path d="M13.224 11.8999C13.1947 11.8999 13.1747 11.9039 13.164 11.9119L13.152 11.9239C13.0914 12.1451 12.9758 12.3474 12.816 12.5119C12.656 12.6759 12.456 12.7879 12.232 12.7879H11.924V13.1839H14.36L14.132 12.7839C13.94 12.7519 13.7747 12.6612 13.636 12.5119C13.4762 12.3474 13.3606 12.1451 13.3 11.9239L13.288 11.9119C13.2682 11.9021 13.246 11.8979 13.224 11.8999Z" fill="#97C924"/>
<path d="M13.224 11.8999H13.24V12.3319C13.2362 12.4228 13.2086 12.511 13.16 12.5879C13.14 12.6519 13.12 12.6279 13.068 12.7039C13.0006 12.7273 12.9309 12.7434 12.86 12.7519C12.76 12.7679 12.54 12.7839 12.424 12.7559C12.5729 12.7104 12.7078 12.6278 12.816 12.5159L12.9 12.4159C12.9446 12.3605 12.9847 12.3016 13.02 12.2399L13.06 12.1599L13.112 12.0439L13.152 11.9239L13.164 11.9119L13.188 11.9039L13.224 11.8999Z" fill="#EDE71F"/>
<path d="M13.2 11.9558C13.18 12.1958 13.108 12.4838 12.932 12.6678C12.868 12.7198 12.784 12.7718 12.708 12.7598C12.976 12.5398 13.14 12.1998 13.196 11.9558H13.2Z" fill="#C6CB24"/>
<path d="M12.98 12.3718C12.94 12.4798 12.788 12.6398 12.628 12.7718H12.512C12.612 12.7638 12.844 12.5718 12.98 12.3718Z" fill="#9ECB34"/>
<path d="M12.612 11.8799C12.544 11.8799 12.5241 11.9159 12.5241 11.9159C12.4161 12.3399 12.052 12.7679 11.62 12.7679H11.3V13.1999H13.756L13.508 12.7599C13.12 12.7039 12.8041 12.3079 12.7041 11.9159C12.7041 11.9159 12.68 11.8799 12.612 11.8799Z" fill="url(#paint14_linear_2214_3839)"/>
<path d="M12.6121 11.8999C12.5827 11.8999 12.5627 11.9039 12.5521 11.9119L12.5401 11.9239C12.4794 12.1451 12.3639 12.3474 12.2041 12.5119C12.0441 12.6759 11.8441 12.7879 11.6201 12.7879H11.3121V13.1839H13.7481L13.5201 12.7839C13.3281 12.7519 13.1627 12.6612 13.0241 12.5119C12.8643 12.3474 12.7487 12.1451 12.6881 11.9239L12.6761 11.9119C12.6563 11.9021 12.6341 11.8979 12.6121 11.8999Z" fill="#97C924"/>
<path d="M12.6121 11.8999H12.6281V12.3319C12.6243 12.4228 12.5967 12.511 12.5481 12.5879C12.5281 12.6519 12.5081 12.6279 12.4561 12.7039C12.3887 12.7273 12.3189 12.7434 12.2481 12.7519C12.1481 12.7679 11.9281 12.7839 11.8121 12.7559C11.9609 12.7104 12.0958 12.6278 12.2041 12.5159L12.2881 12.4159C12.3326 12.3605 12.3727 12.3016 12.4081 12.2399L12.4481 12.1599L12.5001 12.0439L12.5401 11.9239L12.5521 11.9119L12.5761 11.9039L12.6121 11.8999Z" fill="#EDE71F"/>
<path d="M12.5881 11.9558C12.5681 12.1958 12.4961 12.4838 12.3201 12.6678C12.2561 12.7198 12.1721 12.7718 12.0961 12.7598C12.3641 12.5398 12.5281 12.1998 12.5841 11.9558H12.5881Z" fill="#C6CB24"/>
<path d="M12.368 12.3718C12.328 12.4798 12.176 12.6398 12.016 12.7718H11.9C12 12.7638 12.232 12.5718 12.368 12.3718Z" fill="#9ECB34"/>
<path d="M12.088 11.9198C12.2 12.3398 12.56 12.7678 12.992 12.7678H13.316V13.1998H10.684V12.7678H11.004C11.436 12.7678 11.8 12.3398 11.908 11.9158C11.908 11.9158 11.932 11.8838 12 11.8838C12.068 11.8838 12.088 11.9158 12.088 11.9158V11.9198Z" fill="url(#paint15_linear_2214_3839)"/>
<path d="M12 11.8999C12.0293 11.8999 12.0493 11.9039 12.06 11.9119L12.072 11.9239C12.1326 12.1451 12.2482 12.3474 12.408 12.5119C12.568 12.6759 12.768 12.7879 12.992 12.7879H13.3V13.1839H10.7V12.7839H11.008C11.228 12.7839 11.432 12.6759 11.592 12.5119C11.7504 12.3469 11.8645 12.1447 11.924 11.9239L11.936 11.9119C11.9558 11.9021 11.978 11.8979 12 11.8999Z" fill="#97C924"/>
<path d="M11.972 11.8999H11.96L11.936 11.9119L11.924 11.9239L11.884 12.0439L11.836 12.1639L11.796 12.2399C11.7607 12.3016 11.7206 12.3605 11.676 12.4159L11.592 12.5119C11.4842 12.6252 11.3493 12.7092 11.2 12.7559C11.312 12.7839 11.36 12.7559 11.46 12.7399C11.5427 12.7292 11.6227 12.7132 11.7 12.6919C11.76 12.6119 11.74 12.6399 11.76 12.5759C11.808 12.4879 11.88 12.4079 11.896 12.3079C11.96 12.1879 11.972 11.9639 11.972 11.8999Z" fill="#EDE71F"/>
<path d="M11.972 11.9558C11.956 12.1958 11.88 12.4838 11.704 12.6678C11.64 12.7198 11.56 12.7718 11.48 12.7598C11.752 12.5398 11.916 12.1998 11.972 11.9558Z" fill="#C6CB24"/>
<path d="M11.752 12.3718C11.6651 12.5291 11.545 12.6656 11.4 12.7718H11.288C11.388 12.7638 11.616 12.5718 11.752 12.3718Z" fill="#9ECB34"/>
<path d="M12.04 11.9038L12.06 11.9118L12.076 11.9238L12.116 12.0438L12.164 12.1638L12.204 12.2398C12.2394 12.3015 12.2795 12.3604 12.324 12.4158L12.408 12.5118C12.5151 12.6296 12.6498 12.719 12.8 12.7718C12.508 12.7718 12.384 12.7478 12.28 12.6118C12.2044 12.5317 12.1471 12.4362 12.112 12.3318C12.092 12.2518 12.032 12.0718 12.036 11.9038H12.04Z" fill="#EDE71F"/>
<path d="M12.06 11.9558C12.076 12.1958 12.148 12.4358 12.324 12.6198C12.388 12.6758 12.468 12.7238 12.548 12.7118C12.2964 12.5298 12.1223 12.26 12.06 11.9558Z" fill="#C6CB24"/>
<path d="M11.392 11.8799C11.32 11.8799 11.3 11.9159 11.3 11.9159C11.2 12.3079 10.828 12.8079 10.44 12.8679L10.248 13.1999H12.208V12.7479C11.856 12.6519 11.572 12.2799 11.48 11.9159C11.48 11.9159 11.46 11.8839 11.388 11.8839L11.392 11.8799Z" fill="url(#paint16_linear_2214_3839)"/>
<path d="M11.3921 11.8999C11.3601 11.8999 11.3387 11.9039 11.3281 11.9119L11.3161 11.9239C11.2492 12.1435 11.139 12.3475 10.9921 12.5239C10.8561 12.6959 10.6041 12.8679 10.4321 12.8839L10.2601 13.1839H12.1801V12.7559C12.0355 12.7085 11.9049 12.6261 11.8001 12.5159C11.6397 12.3502 11.5241 12.1465 11.4641 11.9239L11.4521 11.9119C11.4334 11.9028 11.4128 11.8986 11.3921 11.8999Z" fill="#97C924"/>
<path d="M11.336 11.9558C11.312 12.3158 11.112 12.7758 10.884 12.8518C10.808 12.8798 10.68 12.8878 10.636 12.8918C10.8124 12.7938 10.9662 12.6599 11.0875 12.4986C11.2088 12.3374 11.2948 12.1524 11.34 11.9558H11.336Z" fill="#93BC30"/>
<path d="M11.3921 11.8999H11.3721V12.3319C11.3774 12.4199 11.4041 12.5052 11.4521 12.5879L11.4601 12.6079C11.4801 12.6519 11.4921 12.6679 11.5521 12.7159C11.7238 12.8385 11.9339 12.8953 12.1441 12.8759C12.0987 12.8386 12.0534 12.8066 12.0081 12.7799L12.1881 12.7599C12.0398 12.7115 11.9063 12.6261 11.8001 12.5119L11.7441 12.4519L11.7201 12.4199C11.6727 12.3634 11.6299 12.3032 11.5921 12.2399L11.5521 12.1599L11.4881 12.0039L11.4641 11.9239L11.4521 11.9119L11.4281 11.9039L11.3881 11.8999H11.3921Z" fill="#EDE71F"/>
<path d="M11.416 11.9558C11.436 12.1958 11.508 12.4838 11.684 12.6678C11.748 12.7198 11.828 12.7718 11.908 12.7598C11.665 12.549 11.4932 12.2681 11.416 11.9558Z" fill="#CCD11E"/>
<path d="M11.584 12.2918C11.7136 12.5453 11.9173 12.7532 12.168 12.8878H12.268C12.092 12.7918 11.808 12.6558 11.588 12.2878L11.584 12.2918Z" fill="#9ECB34"/>
<path d="M10.776 11.8799C10.704 11.8799 10.684 11.9159 10.684 11.9159C10.584 12.3079 10.212 12.8079 9.82402 12.8679L9.63202 13.1999H11.592V12.7479C11.24 12.6519 10.956 12.2799 10.864 11.9159C10.864 11.9159 10.844 11.8839 10.772 11.8839L10.776 11.8799Z" fill="url(#paint17_linear_2214_3839)"/>
<path d="M10.776 11.8999C10.744 11.8999 10.7227 11.9039 10.712 11.9119L10.7 11.9239C10.6332 12.1435 10.523 12.3475 10.376 12.5239C10.24 12.6959 9.98804 12.8679 9.81604 12.8839L9.64404 13.1839H11.564V12.7559C11.4195 12.7085 11.2889 12.6261 11.184 12.5159C11.0237 12.3502 10.908 12.1465 10.848 11.9239L10.836 11.9119C10.8174 11.9028 10.7967 11.8986 10.776 11.8999Z" fill="#97C924"/>
<path d="M10.72 11.9558C10.696 12.3158 10.496 12.7758 10.268 12.8518C10.192 12.8798 10.064 12.8878 10.02 12.8918C10.1964 12.7938 10.3502 12.6599 10.4715 12.4986C10.5928 12.3374 10.6788 12.1524 10.724 11.9558H10.72Z" fill="#93BC30"/>
<path d="M10.776 11.8999H10.756V12.3319C10.7614 12.4199 10.788 12.5052 10.836 12.5879L10.844 12.6079C10.864 12.6519 10.876 12.6679 10.936 12.7159C11.1078 12.8385 11.3179 12.8953 11.528 12.8759C11.4827 12.8386 11.4374 12.8066 11.392 12.7799L11.572 12.7599C11.4238 12.7115 11.2903 12.6261 11.184 12.5119L11.128 12.4519L11.104 12.4199C11.0567 12.3634 11.0139 12.3032 10.976 12.2399L10.936 12.1599L10.872 12.0039L10.848 11.9239L10.836 11.9119L10.812 11.9039L10.772 11.8999H10.776Z" fill="#EDE71F"/>
<path d="M10.8 11.9558C10.82 12.1958 10.892 12.4838 11.068 12.6678C11.132 12.7198 11.212 12.7718 11.292 12.7598C11.0491 12.549 10.8772 12.2681 10.8 11.9558Z" fill="#C6CB24"/>
<path d="M10.968 12.2918C11.0976 12.5453 11.3013 12.7532 11.552 12.8878H11.652C11.476 12.7918 11.192 12.6558 10.972 12.2878L10.968 12.2918Z" fill="#9ECB34"/>
<path d="M14.26 12.9879C14.236 12.9959 14.084 12.9799 14.004 12.9879L13.952 12.9999H13.82C13.676 12.9999 13.552 13.0399 13.416 13.0399C13.28 13.0399 13.156 12.9999 13.016 12.9999H12.88C12.736 12.9999 12.612 13.0399 12.476 13.0399C12.34 13.0399 12.216 12.9999 12.076 12.9999H11.94C11.796 12.9999 11.672 13.0399 11.54 13.0399C11.4 13.0399 11.28 12.9999 11.136 12.9999H11C10.856 12.9999 10.736 13.0399 10.6 13.0399C10.464 13.0399 10.34 12.9999 10.196 12.9999H10.06C9.94803 12.9999 9.81203 13.0239 9.70403 13.0319L9.45203 13.4679H14.548L14.26 12.9879Z" fill="white"/>
<path d="M13.92 12.9241H13.896C13.768 12.9281 13.672 12.9681 13.448 12.9681C13.224 12.9681 13.2 12.9281 12.944 12.9361C12.704 12.9361 12.608 12.9841 12.476 12.9841C12.344 12.9841 12.14 12.9561 11.976 12.9721C11.812 12.9881 11.624 13.0241 11.496 13.0241C11.34 13.0241 11.184 12.9961 11.024 13.0121C10.864 13.0281 10.784 13.0721 10.58 13.0721C10.404 13.0721 10.22 13.0441 10.068 13.0441C9.93202 13.0441 9.78002 13.0841 9.66802 13.1001L9.63202 13.1601C9.72402 13.1481 9.97602 13.1081 10.064 13.1081C10.16 13.1081 10.492 13.1281 10.676 13.1201C10.864 13.1161 10.884 13.0721 11.104 13.0721C11.256 13.0721 11.368 13.0881 11.524 13.0881C11.624 13.0881 11.712 13.0401 11.86 13.0401L11.972 13.0361C12.096 13.0161 12.308 13.0361 12.452 13.0441C12.584 13.0521 12.672 13.0201 12.812 13.0161L12.988 13.0121C13.128 13.0041 13.244 13.0361 13.376 13.0361C13.504 13.0281 13.632 12.9961 13.768 12.9961L13.948 12.9881C14.04 12.9881 14.184 12.9881 14.28 13.0081L14.248 12.9521C14.152 12.9481 14.036 12.9241 13.92 12.9241Z" fill="url(#paint18_linear_2214_3839)"/>
<path d="M10.012 13.3919C9.87599 13.3919 9.75599 13.4239 9.62799 13.4279L9.48399 13.4159L9.46399 13.4479H9.70399C9.84399 13.4479 9.95999 13.4159 10.088 13.4119C10.22 13.4159 10.336 13.4519 10.476 13.4519H10.656C10.792 13.4519 10.912 13.4159 11.04 13.4119C11.172 13.4159 11.292 13.4519 11.428 13.4519H11.608C11.748 13.4519 11.864 13.4159 11.996 13.4119C12.124 13.4159 12.24 13.4519 12.38 13.4519H12.56C12.696 13.4519 12.816 13.4159 12.948 13.4119C13.076 13.4159 13.196 13.4519 13.332 13.4519H13.512C13.652 13.4519 13.768 13.4159 13.896 13.4119C14.028 13.4159 14.144 13.4519 14.284 13.4519H14.464L14.536 13.4479L14.516 13.4159C14.476 13.4213 14.4333 13.4253 14.388 13.4279C14.256 13.4279 14.14 13.3879 14 13.3879H13.82C13.684 13.3879 13.564 13.4279 13.436 13.4279C13.304 13.4239 13.188 13.3879 13.048 13.3879H12.868C12.732 13.3879 12.612 13.4279 12.484 13.4279C12.352 13.4239 12.236 13.3879 12.096 13.3879H11.916C11.776 13.3879 11.66 13.4279 11.532 13.4279C11.4 13.4239 11.284 13.3879 11.144 13.3879H10.964C10.828 13.3879 10.708 13.4279 10.58 13.4279C10.448 13.4239 10.332 13.3879 10.192 13.3879H10.012V13.3919Z" fill="url(#paint19_linear_2214_3839)"/>
<path d="M10.012 13.3399C9.87599 13.3399 9.75599 13.3719 9.62799 13.3759L9.48399 13.3639L9.46399 13.3959H9.70399C9.84399 13.3959 9.95999 13.3639 10.088 13.3599C10.22 13.3639 10.336 13.3999 10.476 13.3999H10.656C10.792 13.3999 10.912 13.3639 11.04 13.3599C11.172 13.3639 11.292 13.3999 11.428 13.3999H11.608C11.748 13.3999 11.864 13.3639 11.996 13.3599C12.124 13.3639 12.24 13.3999 12.38 13.3999H12.56C12.696 13.3999 12.816 13.3639 12.948 13.3599C13.076 13.3639 13.196 13.3999 13.332 13.3999H13.512C13.652 13.3999 13.768 13.3639 13.896 13.3599C14.028 13.3639 14.144 13.3999 14.284 13.3999H14.464L14.536 13.3959L14.516 13.3639C14.476 13.3693 14.4333 13.3733 14.388 13.3759C14.256 13.3759 14.14 13.3359 14 13.3359H13.82C13.684 13.3359 13.564 13.3759 13.436 13.3759C13.304 13.3719 13.188 13.3359 13.048 13.3359H12.868C12.732 13.3359 12.612 13.3759 12.484 13.3759C12.352 13.3719 12.236 13.3359 12.096 13.3359H11.916C11.776 13.3359 11.66 13.3759 11.532 13.3759C11.4 13.3719 11.284 13.3359 11.144 13.3359H10.964C10.828 13.3359 10.708 13.3759 10.58 13.3759C10.448 13.3719 10.332 13.3359 10.192 13.3359H10.012V13.3399Z" fill="url(#paint20_linear_2214_3839)"/>
<path d="M10.012 13.2879C9.87599 13.2879 9.75599 13.3199 9.62799 13.3239L9.48399 13.3119L9.46399 13.3439H9.70399C9.84399 13.3439 9.95999 13.3119 10.088 13.3079C10.22 13.3119 10.336 13.3479 10.476 13.3479H10.656C10.792 13.3479 10.912 13.3119 11.04 13.3079C11.172 13.3119 11.292 13.3479 11.428 13.3479H11.608C11.748 13.3479 11.864 13.3119 11.996 13.3079C12.124 13.3119 12.24 13.3479 12.38 13.3479H12.56C12.696 13.3479 12.816 13.3119 12.948 13.3079C13.076 13.3119 13.196 13.3479 13.332 13.3479H13.512C13.652 13.3479 13.768 13.3119 13.896 13.3079C14.028 13.3119 14.144 13.3479 14.284 13.3479H14.464L14.536 13.3439L14.516 13.3119C14.476 13.3173 14.4333 13.3213 14.388 13.3239C14.256 13.3239 14.14 13.2839 14 13.2839H13.82C13.684 13.2839 13.564 13.3239 13.436 13.3239C13.304 13.3199 13.188 13.2839 13.048 13.2839H12.868C12.732 13.2839 12.612 13.3239 12.484 13.3239C12.352 13.3199 12.236 13.2839 12.096 13.2839H11.916C11.776 13.2839 11.66 13.3239 11.532 13.3239C11.4 13.3199 11.284 13.2839 11.144 13.2839H10.964C10.828 13.2839 10.708 13.3239 10.58 13.3239C10.448 13.3199 10.332 13.2839 10.192 13.2839H10.012V13.2879Z" fill="url(#paint21_linear_2214_3839)"/>
<path d="M10.012 13.2359C9.87599 13.2359 9.75599 13.2679 9.62799 13.2719L9.48399 13.2599L9.46399 13.2919H9.70399C9.84399 13.2919 9.95999 13.2599 10.088 13.2559C10.22 13.2599 10.336 13.2959 10.476 13.2959H10.656C10.792 13.2959 10.912 13.2599 11.04 13.2559C11.172 13.2599 11.292 13.2959 11.428 13.2959H11.608C11.748 13.2959 11.864 13.2599 11.996 13.2559C12.124 13.2599 12.24 13.2959 12.38 13.2959H12.56C12.696 13.2959 12.816 13.2599 12.948 13.2559C13.076 13.2599 13.196 13.2959 13.332 13.2959H13.512C13.652 13.2959 13.768 13.2599 13.896 13.2559C14.028 13.2599 14.144 13.2959 14.284 13.2959H14.464L14.536 13.2919L14.516 13.2599C14.476 13.2653 14.4333 13.2693 14.388 13.2719C14.256 13.2719 14.14 13.2319 14 13.2319H13.82C13.684 13.2319 13.564 13.2719 13.436 13.2719C13.304 13.2679 13.188 13.2319 13.048 13.2319H12.868C12.732 13.2319 12.612 13.2719 12.484 13.2719C12.352 13.2679 12.236 13.2319 12.096 13.2319H11.916C11.776 13.2319 11.66 13.2719 11.532 13.2719C11.4 13.2679 11.284 13.2319 11.144 13.2319H10.964C10.828 13.2319 10.708 13.2719 10.58 13.2719C10.448 13.2679 10.332 13.2319 10.192 13.2319H10.012V13.2359Z" fill="url(#paint22_linear_2214_3839)"/>
<path d="M10.012 13.1839C9.87599 13.1839 9.75599 13.2159 9.62799 13.2199L9.48399 13.2079L9.46399 13.2399H9.70399C9.84399 13.2399 9.95999 13.2079 10.088 13.2039C10.22 13.2079 10.336 13.2439 10.476 13.2439H10.656C10.792 13.2439 10.912 13.2079 11.04 13.2039C11.172 13.2079 11.292 13.2439 11.428 13.2439H11.608C11.748 13.2439 11.864 13.2079 11.996 13.2039C12.124 13.2079 12.24 13.2439 12.38 13.2439H12.56C12.696 13.2439 12.816 13.2079 12.948 13.2039C13.076 13.2079 13.196 13.2439 13.332 13.2439H13.512C13.652 13.2439 13.768 13.2079 13.896 13.2039C14.028 13.2079 14.144 13.2439 14.284 13.2439H14.464L14.536 13.2399L14.516 13.2079C14.476 13.2133 14.4333 13.2173 14.388 13.2199C14.256 13.2199 14.14 13.1799 14 13.1799H13.82C13.684 13.1799 13.564 13.2199 13.436 13.2199C13.304 13.2159 13.188 13.1799 13.048 13.1799H12.868C12.732 13.1799 12.612 13.2199 12.484 13.2199C12.352 13.2159 12.236 13.1799 12.096 13.1799H11.916C11.776 13.1799 11.66 13.2199 11.532 13.2199C11.4 13.2159 11.284 13.1799 11.144 13.1799H10.964C10.828 13.1799 10.708 13.2199 10.58 13.2199C10.448 13.2159 10.332 13.1799 10.192 13.1799H10.012V13.1839Z" fill="url(#paint23_linear_2214_3839)"/>
<path d="M10.012 13.1319C9.87599 13.1319 9.75599 13.1639 9.62799 13.1679L9.48399 13.1559L9.46399 13.1879H9.70399C9.84399 13.1879 9.95999 13.1559 10.088 13.1519C10.22 13.1559 10.336 13.1919 10.476 13.1919H10.656C10.792 13.1919 10.912 13.1559 11.04 13.1519C11.172 13.1559 11.292 13.1919 11.428 13.1919H11.608C11.748 13.1919 11.864 13.1559 11.996 13.1519C12.124 13.1559 12.24 13.1919 12.38 13.1919H12.56C12.696 13.1919 12.816 13.1559 12.948 13.1519C13.076 13.1559 13.196 13.1919 13.332 13.1919H13.512C13.652 13.1919 13.768 13.1559 13.896 13.1519C14.028 13.1559 14.144 13.1919 14.284 13.1919H14.464L14.536 13.1879L14.516 13.1559C14.476 13.1613 14.4333 13.1653 14.388 13.1679C14.256 13.1679 14.14 13.1279 14 13.1279H13.82C13.684 13.1279 13.564 13.1679 13.436 13.1679C13.304 13.1639 13.188 13.1279 13.048 13.1279H12.868C12.732 13.1279 12.612 13.1679 12.484 13.1679C12.352 13.1639 12.236 13.1279 12.096 13.1279H11.916C11.776 13.1279 11.66 13.1679 11.532 13.1679C11.4 13.1639 11.284 13.1279 11.144 13.1279H10.964C10.828 13.1279 10.708 13.1679 10.58 13.1679C10.448 13.1639 10.332 13.1279 10.192 13.1279H10.012V13.1319Z" fill="url(#paint24_linear_2214_3839)"/>
<path d="M10.012 13.0838C9.87599 13.0838 9.75599 13.1158 9.62799 13.1198L9.48399 13.1078L9.46399 13.1398H9.70399C9.84399 13.1398 9.95999 13.1078 10.088 13.1038C10.22 13.1078 10.336 13.1438 10.476 13.1438H10.656C10.792 13.1438 10.912 13.1078 11.04 13.1038C11.172 13.1078 11.292 13.1438 11.428 13.1438H11.608C11.748 13.1438 11.864 13.1078 11.996 13.1038C12.124 13.1078 12.24 13.1438 12.38 13.1438H12.56C12.696 13.1438 12.816 13.1078 12.948 13.1038C13.076 13.1078 13.196 13.1438 13.332 13.1438H13.512C13.652 13.1438 13.768 13.1078 13.896 13.1038C14.028 13.1078 14.144 13.1438 14.284 13.1438H14.464L14.536 13.1398L14.516 13.1078C14.476 13.1132 14.4333 13.1172 14.388 13.1198C14.256 13.1198 14.14 13.0798 14 13.0798H13.82C13.684 13.0798 13.564 13.1198 13.436 13.1198C13.304 13.1158 13.188 13.0798 13.048 13.0798H12.868C12.732 13.0798 12.612 13.1198 12.484 13.1198C12.352 13.1158 12.236 13.0798 12.096 13.0798H11.916C11.776 13.0798 11.66 13.1198 11.532 13.1198C11.4 13.1158 11.284 13.0798 11.144 13.0798H10.964C10.828 13.0798 10.708 13.1198 10.58 13.1198C10.448 13.1158 10.332 13.0798 10.192 13.0798H10.012V13.0838Z" fill="url(#paint25_linear_2214_3839)"/>
<path d="M10.012 13.0318C9.87599 13.0318 9.75599 13.0638 9.62799 13.0678L9.48399 13.0558L9.46399 13.0878H9.70399C9.84399 13.0878 9.95999 13.0558 10.088 13.0518C10.22 13.0558 10.336 13.0918 10.476 13.0918H10.656C10.792 13.0918 10.912 13.0558 11.04 13.0518C11.172 13.0558 11.292 13.0918 11.428 13.0918H11.608C11.748 13.0918 11.864 13.0558 11.996 13.0518C12.124 13.0558 12.24 13.0918 12.38 13.0918H12.56C12.696 13.0918 12.816 13.0558 12.948 13.0518C13.076 13.0558 13.196 13.0918 13.332 13.0918H13.512C13.652 13.0918 13.768 13.0558 13.896 13.0518C14.028 13.0558 14.144 13.0918 14.284 13.0918H14.464L14.536 13.0878L14.516 13.0558C14.476 13.0612 14.4333 13.0652 14.388 13.0678C14.256 13.0678 14.14 13.0278 14 13.0278H13.82C13.684 13.0278 13.564 13.0678 13.436 13.0678C13.304 13.0638 13.188 13.0278 13.048 13.0278H12.868C12.732 13.0278 12.612 13.0678 12.484 13.0678C12.352 13.0638 12.236 13.0278 12.096 13.0278H11.916C11.776 13.0278 11.66 13.0678 11.532 13.0678C11.4 13.0638 11.284 13.0278 11.144 13.0278H10.964C10.828 13.0278 10.708 13.0678 10.58 13.0678C10.448 13.0638 10.332 13.0278 10.192 13.0278H10.012V13.0318Z" fill="url(#paint26_linear_2214_3839)"/>
<path d="M10.012 12.9798C9.87599 12.9798 9.75599 13.0118 9.62799 13.0158L9.48399 13.0038L9.46399 13.0358H9.70399C9.84399 13.0358 9.95999 13.0038 10.088 12.9998C10.22 13.0038 10.336 13.0398 10.476 13.0398H10.656C10.792 13.0398 10.912 13.0038 11.04 12.9998C11.172 13.0038 11.292 13.0398 11.428 13.0398H11.608C11.748 13.0398 11.864 13.0038 11.996 12.9998C12.124 13.0038 12.24 13.0398 12.38 13.0398H12.56C12.696 13.0398 12.816 13.0038 12.948 12.9998C13.076 13.0038 13.196 13.0398 13.332 13.0398H13.512C13.652 13.0398 13.768 13.0038 13.896 12.9998C14.028 13.0038 14.144 13.0398 14.284 13.0398H14.464L14.536 13.0358L14.516 13.0038C14.476 13.0092 14.4333 13.0132 14.388 13.0158C14.256 13.0158 14.14 12.9758 14 12.9758H13.82C13.684 12.9758 13.564 13.0158 13.436 13.0158C13.304 13.0118 13.188 12.9758 13.048 12.9758H12.868C12.732 12.9758 12.612 13.0158 12.484 13.0158C12.352 13.0118 12.236 12.9758 12.096 12.9758H11.916C11.776 12.9758 11.66 13.0158 11.532 13.0158C11.4 13.0118 11.284 12.9758 11.144 12.9758H10.964C10.828 12.9758 10.708 13.0158 10.58 13.0158C10.448 13.0118 10.332 12.9758 10.192 12.9758H10.012V12.9798Z" fill="url(#paint27_linear_2214_3839)"/>
<path d="M9.75601 12.9881L9.65601 13.1561C9.77201 13.1361 9.94001 13.0881 10.084 13.0881C10.228 13.0881 10.404 13.1241 10.58 13.1281C10.78 13.1281 10.86 13.0801 11.02 13.0641C11.18 13.0481 11.34 13.0841 11.5 13.0881C11.624 13.0881 11.816 13.0441 11.98 13.0281C12.14 13.0081 12.288 13.0401 12.48 13.0401C12.676 13.0441 12.708 12.9921 12.944 12.9881C13.2 12.9841 13.224 13.0241 13.448 13.0241C13.616 13.0321 13.764 12.9881 13.916 12.9801C14.068 12.9721 14.136 12.9801 14.248 12.9801L14.172 12.8521L10.12 12.9441L9.75601 12.9881Z" fill="#97C924"/>
<path d="M14 12.9839L14.16 12.9959L14.276 13.0079L14.26 12.9879C14.236 12.9959 14.084 12.9799 14.004 12.9879L14 12.9839Z" fill="white"/>
</g>
<path d="M12 8.99512L10.715 11.2201L9.40002 13.5001H14.6L13.315 11.2701L12 8.99512ZM12 9.11512L13.26 11.3001L14.495 13.4401H9.50502L10.765 11.2501L12 9.11512Z" fill="#C8A400"/>
</g>
</g>
<defs>
<linearGradient id="paint0_linear_2214_3839" x1="11.948" y1="11.5641" x2="12.024" y2="11.3361" gradientUnits="userSpaceOnUse">
<stop stop-color="#510000"/>
<stop offset="0.3" stop-color="#8A0000"/>
<stop offset="1" stop-color="#AA0000"/>
</linearGradient>
<linearGradient id="paint1_linear_2214_3839" x1="12.056" y1="11.656" x2="12.116" y2="11.496" gradientUnits="userSpaceOnUse">
<stop stop-color="#FF2A2A"/>
<stop offset="1" stop-color="#FF0000"/>
</linearGradient>
<linearGradient id="paint2_linear_2214_3839" x1="9.78003" y1="12.7" x2="17.376" y2="12.7" gradientUnits="userSpaceOnUse">
<stop stop-color="#002255"/>
<stop offset="0.5" stop-color="#0044AA"/>
<stop offset="1" stop-color="#002255"/>
</linearGradient>
<linearGradient id="paint3_linear_2214_3839" x1="9.78003" y1="12.656" x2="17.376" y2="12.656" gradientUnits="userSpaceOnUse">
<stop stop-color="#002255"/>
<stop offset="0.5" stop-color="#0044AA"/>
<stop offset="1" stop-color="#002255"/>
</linearGradient>
<linearGradient id="paint4_linear_2214_3839" x1="9.78003" y1="12.6121" x2="17.376" y2="12.6121" gradientUnits="userSpaceOnUse">
<stop stop-color="#002255"/>
<stop offset="0.5" stop-color="#0044AA"/>
<stop offset="1" stop-color="#002255"/>
</linearGradient>
<linearGradient id="paint5_linear_2214_3839" x1="9.78003" y1="12.5679" x2="17.376" y2="12.5679" gradientUnits="userSpaceOnUse">
<stop stop-color="#002255"/>
<stop offset="0.5" stop-color="#0044AA"/>
<stop offset="1" stop-color="#002255"/>
</linearGradient>
<linearGradient id="paint6_linear_2214_3839" x1="9.78003" y1="12.5239" x2="17.376" y2="12.5239" gradientUnits="userSpaceOnUse">
<stop stop-color="#002255"/>
<stop offset="0.5" stop-color="#0044AA"/>
<stop offset="1" stop-color="#002255"/>
</linearGradient>
<linearGradient id="paint7_linear_2214_3839" x1="9.78003" y1="12.48" x2="17.376" y2="12.48" gradientUnits="userSpaceOnUse">
<stop stop-color="#002255"/>
<stop offset="0.5" stop-color="#0044AA"/>
<stop offset="1" stop-color="#002255"/>
</linearGradient>
<linearGradient id="paint8_linear_2214_3839" x1="9.78003" y1="12.4319" x2="17.376" y2="12.4319" gradientUnits="userSpaceOnUse">
<stop stop-color="#002255"/>
<stop offset="0.5" stop-color="#0044AA"/>
<stop offset="1" stop-color="#002255"/>
</linearGradient>
<linearGradient id="paint9_linear_2214_3839" x1="9.78003" y1="12.3879" x2="17.376" y2="12.3879" gradientUnits="userSpaceOnUse">
<stop stop-color="#002255"/>
<stop offset="0.5" stop-color="#0044AA"/>
<stop offset="1" stop-color="#002255"/>
</linearGradient>
<linearGradient id="paint10_linear_2214_3839" x1="9.78003" y1="12.344" x2="17.376" y2="12.344" gradientUnits="userSpaceOnUse">
<stop stop-color="#002255"/>
<stop offset="0.5" stop-color="#0044AA"/>
<stop offset="1" stop-color="#002255"/>
</linearGradient>
<linearGradient id="paint11_linear_2214_3839" x1="9.77999" y1="12.7" x2="17.376" y2="12.7" gradientUnits="userSpaceOnUse">
<stop stop-color="#002255"/>
<stop offset="0.5" stop-color="#0044AA"/>
<stop offset="1" stop-color="#002255"/>
</linearGradient>
<linearGradient id="paint12_linear_2214_3839" x1="9.78002" y1="12.6999" x2="17.376" y2="12.6999" gradientUnits="userSpaceOnUse">
<stop stop-color="#002255"/>
<stop offset="0.5" stop-color="#0044AA"/>
<stop offset="1" stop-color="#002255"/>
</linearGradient>
<linearGradient id="paint13_linear_2214_3839" x1="11.392" y1="12.4679" x2="11.392" y2="12.7039" gradientUnits="userSpaceOnUse">
<stop stop-color="#F5F549"/>
<stop offset="1" stop-color="#97C924"/>
</linearGradient>
<linearGradient id="paint14_linear_2214_3839" x1="10.78" y1="12.4679" x2="10.78" y2="12.7039" gradientUnits="userSpaceOnUse">
<stop stop-color="#F5F549"/>
<stop offset="1" stop-color="#97C924"/>
</linearGradient>
<linearGradient id="paint15_linear_2214_3839" x1="11.392" y1="12.4678" x2="11.392" y2="12.7038" gradientUnits="userSpaceOnUse">
<stop stop-color="#F5F549"/>
<stop offset="1" stop-color="#97C924"/>
</linearGradient>
<linearGradient id="paint16_linear_2214_3839" x1="11.392" y1="12.4679" x2="11.392" y2="12.7039" gradientUnits="userSpaceOnUse">
<stop stop-color="#F5F549"/>
<stop offset="1" stop-color="#97C924"/>
</linearGradient>
<linearGradient id="paint17_linear_2214_3839" x1="10.776" y1="12.4679" x2="10.776" y2="12.7039" gradientUnits="userSpaceOnUse">
<stop stop-color="#F5F549"/>
<stop offset="1" stop-color="#97C924"/>
</linearGradient>
<linearGradient id="paint18_linear_2214_3839" x1="9.6325" y1="12.925" x2="14.2858" y2="12.925" gradientUnits="userSpaceOnUse">
<stop stop-color="#002255"/>
<stop offset="0.5" stop-color="#0044AA"/>
<stop offset="1" stop-color="#002255"/>
</linearGradient>
<linearGradient id="paint19_linear_2214_3839" x1="9.48167" y1="13.3896" x2="14.5181" y2="13.3896" gradientUnits="userSpaceOnUse">
<stop stop-color="#002255"/>
<stop offset="0.5" stop-color="#0044AA"/>
<stop offset="1" stop-color="#002255"/>
</linearGradient>
<linearGradient id="paint20_linear_2214_3839" x1="9.48167" y1="13.3376" x2="14.5181" y2="13.3376" gradientUnits="userSpaceOnUse">
<stop stop-color="#002255"/>
<stop offset="0.5" stop-color="#0044AA"/>
<stop offset="1" stop-color="#002255"/>
</linearGradient>
<linearGradient id="paint21_linear_2214_3839" x1="9.48167" y1="13.2855" x2="14.5181" y2="13.2855" gradientUnits="userSpaceOnUse">
<stop stop-color="#002255"/>
<stop offset="0.5" stop-color="#0044AA"/>
<stop offset="1" stop-color="#002255"/>
</linearGradient>
<linearGradient id="paint22_linear_2214_3839" x1="9.48167" y1="13.2335" x2="14.5181" y2="13.2335" gradientUnits="userSpaceOnUse">
<stop stop-color="#002255"/>
<stop offset="0.5" stop-color="#0044AA"/>
<stop offset="1" stop-color="#002255"/>
</linearGradient>
<linearGradient id="paint23_linear_2214_3839" x1="9.48167" y1="13.1815" x2="14.5181" y2="13.1815" gradientUnits="userSpaceOnUse">
<stop stop-color="#002255"/>
<stop offset="0.5" stop-color="#0044AA"/>
<stop offset="1" stop-color="#002255"/>
</linearGradient>
<linearGradient id="paint24_linear_2214_3839" x1="9.48167" y1="13.1295" x2="14.5181" y2="13.1295" gradientUnits="userSpaceOnUse">
<stop stop-color="#002255"/>
<stop offset="0.5" stop-color="#0044AA"/>
<stop offset="1" stop-color="#002255"/>
</linearGradient>
<linearGradient id="paint25_linear_2214_3839" x1="9.48167" y1="13.0814" x2="14.5181" y2="13.0814" gradientUnits="userSpaceOnUse">
<stop stop-color="#002255"/>
<stop offset="0.5" stop-color="#0044AA"/>
<stop offset="1" stop-color="#002255"/>
</linearGradient>
<linearGradient id="paint26_linear_2214_3839" x1="9.48167" y1="13.0294" x2="14.5181" y2="13.0294" gradientUnits="userSpaceOnUse">
<stop stop-color="#002255"/>
<stop offset="0.5" stop-color="#0044AA"/>
<stop offset="1" stop-color="#002255"/>
</linearGradient>
<linearGradient id="paint27_linear_2214_3839" x1="9.48167" y1="12.9774" x2="14.5181" y2="12.9774" gradientUnits="userSpaceOnUse">
<stop stop-color="#002255"/>
<stop offset="0.5" stop-color="#0044AA"/>
<stop offset="1" stop-color="#002255"/>
</linearGradient>
<clipPath id="clip0_2214_3839">
<path d="M0 12C0 5.37258 5.37258 0 12 0C18.6274 0 24 5.37258 24 12C24 18.6274 18.6274 24 12 24C5.37258 24 0 18.6274 0 12Z" fill="white"/>
</clipPath>
<clipPath id="clip1_2214_3839">
<rect width="32" height="24" fill="white" transform="translate(-4)"/>
</clipPath>
</defs>
</svg>
