<svg width="24" height="24" viewBox="0 0 24 24" fill="none" xmlns="http://www.w3.org/2000/svg">
<g clip-path="url(#clip0_2214_4289)">
<g clip-path="url(#clip1_2214_4289)">
<mask id="mask0_2214_4289" style="mask-type:luminance" maskUnits="userSpaceOnUse" x="-4" y="0" width="32" height="24">
<path d="M-3.99841 0H27.9985V24H-3.99841V0Z" fill="white"/>
</mask>
<g mask="url(#mask0_2214_4289)">
<path fill-rule="evenodd" clip-rule="evenodd" d="M-6 16.0032H30V20.0016H-6V16.0032Z" fill="#FFE700"/>
<path fill-rule="evenodd" clip-rule="evenodd" d="M-6 12H30V15.9984H-6V12Z" fill="#000001"/>
<path fill-rule="evenodd" clip-rule="evenodd" d="M-6 8.00146H30V11.9999H-6V8.00146Z" fill="#DE3908"/>
<path fill-rule="evenodd" clip-rule="evenodd" d="M-6 4.00317H30V8.00161H-6V4.00317Z" fill="#FFE700"/>
<path fill-rule="evenodd" clip-rule="evenodd" d="M-6 0H30V3.99844H-6V0Z" fill="#000001"/>
<path fill-rule="evenodd" clip-rule="evenodd" d="M15.7359 12.0001C15.7359 12.9909 15.3423 13.9412 14.6417 14.6418C13.9411 15.3424 12.9908 15.736 12 15.736C11.0091 15.736 10.0589 15.3424 9.35827 14.6418C8.65764 13.9412 8.26404 12.9909 8.26404 12.0001C8.26404 11.0093 8.65764 10.059 9.35827 9.35839C10.0589 8.65777 11.0091 8.26416 12 8.26416C12.9908 8.26416 13.9411 8.65777 14.6417 9.35839C15.3423 10.059 15.7359 11.0093 15.7359 12.0001Z" fill="#FFFDFF" stroke="black" stroke-width="0.046875"/>
<path fill-rule="evenodd" clip-rule="evenodd" d="M11.3437 9.13603L11.1 8.69072C11.1937 8.59697 11.3484 8.52197 11.6015 8.52197L11.5734 9.01416L11.3437 9.13603Z" fill="#DE3108" stroke="black" stroke-width="0.046875"/>
<path fill-rule="evenodd" clip-rule="evenodd" d="M11.5781 9.01403L11.6109 8.52184C11.6109 8.52184 12.1125 8.49372 12.3844 8.82184L12.1172 9.20622L11.5781 9.01403Z" fill="#FFE700" stroke="black" stroke-width="0.046875"/>
<path fill-rule="evenodd" clip-rule="evenodd" d="M12.1219 9.20151L12.3703 8.81714C12.5344 8.99058 12.6047 9.11245 12.6281 9.29995C12.6328 9.30464 12.2391 9.39839 12.2391 9.3937L12.1219 9.20151Z" fill="#DE3108" stroke="black" stroke-width="0.046875"/>
<path fill-rule="evenodd" clip-rule="evenodd" d="M11.4656 15.5203C11.4656 15.5203 11.9297 14.9906 12.8297 15.1031C12.6938 14.8828 12.2531 14.9109 12.2531 14.9109C12.2531 14.9109 12.1219 13.8797 12.225 13.8234C12.3281 13.7672 12.7875 13.8281 12.7875 13.8281C12.8438 13.8281 12.9469 13.6687 12.8625 13.5656C12.7781 13.4625 12.5438 13.0734 12.6422 12.9937C12.7406 12.9141 13.2703 13.0406 13.2703 13.0406L11.7703 11.1187C11.7703 11.1187 11.6156 10.3922 11.925 10.0406C12.2953 9.73593 12.2531 9.40312 12.2438 9.4078C12.1922 9.0703 11.6813 8.83124 11.3344 9.14062C11.1328 9.38437 11.2688 9.57187 11.2688 9.57187C11.2688 9.57187 10.7297 9.71718 10.7109 9.81093C10.6922 9.90468 11.3156 9.79687 11.3156 9.79687L11.2547 10.2234C11.2547 10.2234 10.0359 11.3297 10.9734 12.2859L11.0016 12.2484C11.0016 12.2484 11.3297 12.6516 11.6719 12.7406C12 13.0687 11.9672 13.0219 11.9672 13.0219C11.9672 13.0219 12.0281 13.5422 11.9672 13.6453C11.8875 13.6219 11.0625 13.5891 10.9406 13.6359C10.8281 13.6734 10.4063 13.65 10.5094 14.3437L10.6641 13.9922C10.6641 13.9922 10.65 14.2406 10.7531 14.3297C10.7344 14.0672 10.8516 13.8891 10.8516 13.8891C10.8516 13.8891 10.8703 14.1797 10.9359 14.2172C11.0016 14.2641 11.0016 13.7484 11.3578 13.7953C11.7047 13.8375 11.9625 13.8234 11.9625 13.8234C11.9625 13.8234 12.0797 14.8266 12.0422 14.9203C11.7891 14.8594 11.1797 14.9437 11.1422 15.0984C11.4984 15.075 11.6625 15.1172 11.6625 15.1172C11.6625 15.1172 11.3766 15.375 11.4656 15.5203Z" fill="black" stroke="black" stroke-width="0.0421875" stroke-linecap="round" stroke-linejoin="round"/>
<path fill-rule="evenodd" clip-rule="evenodd" d="M11.6062 10.0687C11.6062 10.0687 10.7203 11.0437 11.1047 11.789C11.1234 11.6858 11.114 11.6202 11.1281 11.6249C11.1047 11.6108 11.2359 11.714 11.2265 11.6952C11.2265 11.639 11.189 11.5218 11.189 11.5218L11.3062 11.5546L11.2359 11.4233L11.4094 11.4421C11.4094 11.4421 11.3484 11.2827 11.3672 11.2827L11.5078 11.2921C11.2547 10.8421 11.4937 10.4671 11.6062 10.064V10.0687Z" fill="#9CA69C" stroke="#9CA69C" stroke-width="0.0421875" stroke-linecap="round" stroke-linejoin="round"/>
<path fill-rule="evenodd" clip-rule="evenodd" d="M11.9156 9.22974C11.9156 9.22974 11.9625 9.56724 11.775 9.66099C11.7516 9.68442 11.6344 9.72192 11.6531 9.79224C11.6719 9.88599 11.7235 9.86724 11.7938 9.84849C11.986 9.81567 12.211 9.40786 11.9156 9.22974Z" fill="#9CA69C" stroke="#9CA69C" stroke-width="0.046875"/>
<path fill-rule="evenodd" clip-rule="evenodd" d="M11.5875 9.51562C11.5875 9.53427 11.5801 9.55216 11.5669 9.56534C11.5537 9.57853 11.5359 9.58594 11.5172 9.58594C11.4986 9.58594 11.4807 9.57853 11.4675 9.56534C11.4543 9.55216 11.4469 9.53427 11.4469 9.51562C11.4469 9.49698 11.4543 9.47909 11.4675 9.46591C11.4807 9.45272 11.4986 9.44531 11.5172 9.44531C11.5359 9.44531 11.5537 9.45272 11.5669 9.46591C11.5801 9.47909 11.5875 9.49698 11.5875 9.51562Z" fill="white"/>
<path fill-rule="evenodd" clip-rule="evenodd" d="M11.3016 9.79688C11.2547 9.83906 11.0109 10.0922 11.2547 10.1859C11.5031 10.1203 11.4328 10.0734 11.4891 10.0172C11.4891 9.9 11.3672 9.87188 11.3016 9.80156V9.79688Z" fill="#DE3108" stroke="black" stroke-width="0.046875"/>
<path fill-rule="evenodd" clip-rule="evenodd" d="M11.8406 12.2109C11.8265 12.2672 11.7703 12.4734 11.8453 12.6328C12.0609 12.5391 12.1594 12.5672 12.2297 12.6141C12.0562 12.4734 11.9859 12.4125 11.8406 12.2109Z" fill="#9CA69C" stroke="#9CA69C" stroke-width="0.0421875" stroke-linecap="round" stroke-linejoin="round"/>
<path fill-rule="evenodd" clip-rule="evenodd" d="M12.2062 13.1765L12.2156 13.6546C12.2156 13.6546 12.3844 13.6828 12.4594 13.6546C12.5344 13.6265 12.4594 13.3265 12.2062 13.1765Z" fill="white" stroke="white" stroke-width="0.0421875" stroke-linecap="round" stroke-linejoin="round"/>
<path fill-rule="evenodd" clip-rule="evenodd" d="M13.4063 13.2374C13.4063 13.2374 13.1016 12.4968 12.3188 12.3093C11.5359 12.1218 11.6391 11.2874 11.7 11.2358C11.7375 11.1655 11.7609 11.053 11.9859 11.1608C12.2109 11.2687 13.2516 11.789 13.4016 11.8171C13.5516 11.8452 13.4203 13.2562 13.4109 13.2374H13.4063Z" fill="#9CA69C" stroke="black" stroke-width="0.046875"/>
<path fill-rule="evenodd" clip-rule="evenodd" d="M12.6656 12.3048C12.6515 12.3142 13.7109 12.9329 13.3922 13.4626C13.6922 13.261 13.5984 12.9142 13.5984 12.9142C13.5984 12.9142 13.8422 13.5563 13.2422 13.8704C13.3078 13.9267 13.35 13.9173 13.35 13.9173L13.2469 14.0157C13.2469 14.0157 13.2 14.0954 13.6031 13.8985C13.4953 13.9876 13.4859 14.0532 13.4859 14.0532C13.4859 14.0532 13.514 14.1376 13.7765 13.9079C13.5656 14.1376 13.5187 14.2548 13.5187 14.2501C14.0953 14.2032 15.3469 12.3282 13.125 11.7798L13.2234 11.8829L12.6656 12.3048Z" fill="#DE3108" stroke="black" stroke-width="0.0421875" stroke-linejoin="round"/>
<path fill-rule="evenodd" clip-rule="evenodd" d="M12.7125 12.1218C12.8531 12.2249 12.9047 12.2624 12.9234 12.3093C12.7922 12.2812 12.675 12.2906 12.675 12.2906C12.675 12.2906 12.389 12.0187 12.3375 11.9952C12.3 11.9952 12.075 11.8546 12.075 11.8546C11.9672 11.7984 11.864 11.4187 12.2718 11.5265C12.4283 11.6081 12.5895 11.6801 12.7547 11.7421L13.2562 11.9015L13.5468 12.2249C13.5468 12.2249 13.0312 11.9718 12.9656 11.9671C13.1062 12.0796 13.1859 12.239 13.1859 12.239C13.0218 12.1921 12.8812 12.1452 12.7125 12.1218Z" fill="white" stroke="black" stroke-width="0.0421875" stroke-linecap="round" stroke-linejoin="round"/>
<path d="M10.7062 9.83897C10.7062 9.83897 11.1984 9.7171 11.2594 9.73585" stroke="white" stroke-width="0.0421875" stroke-linecap="round"/>
<path fill-rule="evenodd" clip-rule="evenodd" d="M-6 20.0015H30V23.9999H-6V20.0015Z" fill="#DE3908"/>
</g>
</g>
</g>
<defs>
<clipPath id="clip0_2214_4289">
<path d="M0 12C0 5.37258 5.37258 0 12 0C18.6274 0 24 5.37258 24 12C24 18.6274 18.6274 24 12 24C5.37258 24 0 18.6274 0 12Z" fill="white"/>
</clipPath>
<clipPath id="clip1_2214_4289">
<rect width="32" height="24" fill="white" transform="translate(-4)"/>
</clipPath>
</defs>
</svg>
