<svg width="24" height="24" viewBox="0 0 24 24" fill="none" xmlns="http://www.w3.org/2000/svg">
<g clip-path="url(#clip0_3053_1912)">
<g clip-path="url(#clip1_3053_1912)">
<path d="M-3.89999 0H28.1V24H-3.89999V0Z" fill="#00247D"/>
<path d="M-3.6001 0H11.0753V11.0065H-3.6001V0Z" fill="#012169"/>
<path d="M-1.88033 0L3.71465 4.15037L9.28669 0H11.0753V1.42167L5.572 5.52619L11.0753 9.60777V11.0065H9.24083L3.73758 6.902L-1.74275 11.0065H-3.6001V9.6307L1.88023 5.54912L-3.6001 1.46754V0H-1.88033Z" fill="white"/>
<path d="M6.12232 6.4434L11.0753 10.0893V11.0065L4.86116 6.4434H6.12232ZM1.90316 6.902L2.04074 7.70456L-2.36187 11.0065H-3.6001L1.90316 6.902ZM11.0753 0V0.0687907L5.36562 4.37968L5.41148 3.37074L9.92874 0H11.0753ZM-3.6001 0L1.88023 4.03572H0.504415L-3.6001 0.96307V0Z" fill="#C8102E"/>
<path d="M1.92609 0V11.0065H5.59493V0H1.92609ZM-3.6001 3.66884V7.33768H11.0753V3.66884H-3.6001Z" fill="white"/>
<path d="M-3.6001 4.42554V6.62684H11.0753V4.42554H-3.6001ZM2.65986 0V11.0065H4.86116V0H2.65986Z" fill="#C8102E"/>
<path d="M14.5051 13.8765C14.1103 14.1884 13.82 14.6132 13.6728 15.0943C13.4231 16.2901 13.0902 16.5573 12.5777 16.2989C12.5777 16.9428 13.1428 16.991 13.3881 16.6186C13.3881 17.2187 13.6071 17.74 14.0977 18.1868C14.308 18.3751 14.3474 18.2481 14.2466 18.0378C14.1503 17.832 14.1503 17.1618 13.9532 16.7763C14.2685 16.9997 14.7329 16.8727 14.6978 16.2507C14.2904 16.4872 13.8875 16.4785 13.8437 15.9134C13.7955 15.2563 14.0495 14.2927 14.5051 13.8765ZM14.0232 9.11952C14.0539 8.8786 14.0013 8.63768 13.8261 8.48437C13.4932 8.19089 13.1647 8.28725 12.9194 8.52817C12.5558 8.32668 12.3587 9.02753 11.947 8.90926C12.0127 9.13704 12.1222 9.2334 12.3324 9.15456C12.1134 9.35167 12.3324 9.59259 12.074 9.82913C12.5383 9.97806 12.7836 9.71962 12.7661 9.27283C12.8072 9.31076 12.8555 9.3401 12.9082 9.35913C12.9608 9.37815 13.0167 9.38648 13.0726 9.38363C13.1285 9.38077 13.1832 9.36679 13.2337 9.3425C13.2841 9.31821 13.3291 9.28409 13.3662 9.24216C13.1209 9.16332 13.1209 8.94868 13.2173 8.75157C13.3662 8.45371 14.0627 8.46685 14.0232 9.11952Z" fill="#F7E017" stroke="black" stroke-width="0.02"/>
<path d="M15.0952 12.5535C14.5696 12.8338 13.6147 12.7156 13.5227 12.0279C13.4351 11.3489 14.0965 11.0423 14.2761 10.9547C14.5521 10.8145 14.7711 11.0642 14.6791 11.3489C14.9857 11.2438 15.0558 10.8846 14.9069 10.6787C15.3142 10.7094 15.6866 10.4028 15.8443 9.96911C15.7041 10.1005 15.3186 10.0129 14.9989 9.99102C15.0952 9.88151 15.0952 9.67125 15.0646 9.56174C14.7317 9.90779 14.2454 9.7501 13.6059 10.7444C13.7562 10.2054 13.8964 9.66361 14.0264 9.11933C14.0615 8.46228 13.3694 8.45352 13.2204 8.75138C13.3825 8.93536 13.2949 9.14561 13.238 9.47414C13.1679 9.85523 13.0189 10.7444 12.8919 11.0423C12.8525 10.578 12.5459 10.5473 12.4889 10.3195C12.4013 10.3809 12.3488 10.5386 12.3707 10.6481C12.2612 10.5298 11.8844 10.6787 11.7443 10.4991C11.5997 10.7926 11.8319 11.0905 12.0816 11.2219C11.937 11.2306 11.9063 11.4015 11.7443 11.4015C11.9589 11.6512 12.1779 11.7519 12.4276 11.7694C12.6817 11.7869 12.8656 11.8833 13.0189 12.1899C13.2686 12.6849 14.2104 13.0047 15.0952 12.5535Z" fill="#337321" stroke="black" stroke-width="0.02"/>
<path d="M16.4001 11.953C16.1023 12.7721 15.2919 13.3547 14.9283 13.4423C14.3063 13.5956 13.036 14.2133 12.6944 14.5286C12.6444 14.5189 12.5968 14.4996 12.5542 14.4717C12.3878 14.3534 12.2476 13.968 12.5455 13.6394C13.4741 12.7721 14.4728 13.1488 15.0948 12.5531C14.5692 12.8291 13.6143 12.7108 13.5266 12.0275C13.9515 12.1379 14.3984 12.1301 14.8191 12.0051C15.2398 11.88 15.6184 11.6424 15.9139 11.3179C16.0939 11.5141 16.2553 11.7268 16.3958 11.953H16.4001Z" fill="#F7E017" stroke="black" stroke-width="0.02"/>
<path d="M14.5046 13.8765C14.0359 14.2707 13.795 15.2519 13.8432 15.9133C13.8563 16.0973 13.9089 16.2199 13.9877 16.2988C14.0227 15.9221 14.2812 14.954 14.9514 14.5204C15.5121 14.1568 16.3925 13.3377 16.7166 12.3959C16.654 12.224 16.531 12.0808 16.3706 11.9929C16.0465 12.8777 15.1835 13.3026 14.5046 13.8765Z" fill="#337321" stroke="black" stroke-width="0.02"/>
<path d="M16.0988 11.5722C15.8658 11.8958 15.5494 12.1501 15.1833 12.3081C15.2524 12.224 15.291 12.119 15.2928 12.0102C14.7154 12.1751 14.1044 12.1827 13.5231 12.0321C13.9486 12.1434 14.3964 12.1361 14.818 12.011C15.2396 11.8859 15.6189 11.6478 15.9148 11.3225C15.9898 11.3947 16.052 11.4791 16.0988 11.5722Z" fill="#316D3A" stroke="black" stroke-width="0.02"/>
<path d="M12.5457 13.644C11.7923 14.3449 12.2917 14.9669 12.5895 15.1027C12.5063 15.5977 12.9706 15.5407 12.9619 15.9525C13.1502 15.8473 13.1984 15.5582 13.1677 15.3305C13.4086 15.5889 14.0088 15.2998 14.1358 15.7772C14.219 15.2516 13.8116 14.726 13.3079 14.7785C13.5182 14.5902 13.3955 14.2836 13.1984 14.2047C13.159 14.5902 12.7253 14.5902 12.5589 14.4675C12.388 14.3536 12.2522 13.9682 12.5457 13.6396V13.644Z" fill="#337321" stroke="black" stroke-width="0.02"/>
<path d="M14.1802 18.1382C14.1014 18.182 14.1057 18.2915 14.1583 18.3572C14.259 18.4973 14.0838 18.8127 14.4211 18.8784C14.5175 18.9003 14.5963 18.8346 14.6314 18.7251C14.7365 18.4141 14.4036 18.3791 14.3729 18.2301C14.3467 18.0812 14.2503 18.0987 14.1802 18.1382Z" fill="#F7E017" stroke="black" stroke-width="0.02"/>
<path d="M14.4658 18.7208C14.3562 18.7734 14.2555 18.8435 14.3037 19.2027C14.3212 19.3472 14.3124 19.702 14.181 19.7064C14.2599 19.7502 14.4307 19.794 14.5008 19.6976C14.5665 19.8115 14.7198 19.7765 14.7768 19.6407C14.8556 19.702 14.9651 19.5969 14.9651 19.5005C15.0308 19.5443 15.171 19.483 15.1359 19.2684C15.2235 19.299 15.3287 19.2377 15.3681 19.1851C15.2454 19.1589 14.9301 18.9924 14.86 18.861C14.7855 18.7252 14.5972 18.6595 14.4658 18.7208Z" fill="#F7E017" stroke="black" stroke-width="0.02"/>
<path d="M12.7476 8.72469C12.8002 8.6546 12.8571 8.58452 12.9228 8.52319M14.6311 10.0344C14.7187 9.98622 14.8502 9.97746 14.9991 9.9906M14.4997 19.6974C14.4647 19.6492 14.4515 19.4433 14.4735 19.3163M14.7757 19.6405C14.7187 19.5966 14.618 19.4521 14.6005 19.3294M14.964 19.5003C14.8359 19.4001 14.74 19.2646 14.6881 19.1104M15.1349 19.2681C15.0517 19.2506 14.802 19.0885 14.6968 18.9177" stroke="black" stroke-width="0.02"/>
<path d="M19.6901 13.6526C20.9035 14.6688 20.9823 15.4792 20.7984 15.9523C20.6976 15.5098 20.1939 14.8178 19.6682 14.6382L19.6901 13.6526Z" fill="#F7E017" stroke="black" stroke-width="0.02"/>
<path d="M17.5178 13.0747H19.7693V15.7467C19.7693 18.0201 18.5077 19.3605 17.2199 20.0745C16.4333 19.6634 15.7779 19.0399 15.328 18.2748C14.8781 17.5098 14.6519 16.6339 14.6749 15.7467V13.0747H16.2519C16.2519 13.2149 16.2694 13.4251 16.4271 13.631C16.8038 13.596 17.2243 13.3156 17.5178 13.0791V13.0747Z" fill="#337321" stroke="black" stroke-width="0.02"/>
<path d="M19.7689 13.0747V15.7467C19.7689 16.43 19.655 17.0345 19.4623 17.5558L17.2151 13.4514L14.9812 17.5558C14.7841 17.0301 14.6702 16.43 14.6702 15.7467V13.0747H19.7689Z" fill="#006EC7" stroke="black" stroke-width="0.02"/>
<path d="M19.5297 17.3629C19.481 17.5113 19.4254 17.6575 19.3632 17.8009L17.2169 13.8192L15.0837 17.8053C15.0267 17.6826 14.9566 17.4855 14.9172 17.3672L17.2256 13.092L19.5297 17.3629Z" fill="#F7E017"/>
<path d="M18.2368 18.8261L18.4558 18.9269C18.5689 18.6526 18.6023 18.352 18.5522 18.0596C18.4251 18.3837 17.9915 18.375 17.8732 18.5721C17.9433 18.6071 18.0134 18.6597 18.0703 18.6991C17.9214 18.848 17.5754 19.0933 17.3782 19.1547V17.0346C17.3782 16.8857 17.3257 16.763 17.3257 16.6404V16.2023C17.3257 16.1016 17.3082 15.957 17.2206 15.957C17.133 15.957 17.111 16.1016 17.111 16.2023V16.6404C17.111 16.763 17.0629 16.9032 17.0629 17.0346V19.1547C16.9534 18.8393 16.5285 18.9444 16.3314 18.629C16.4089 18.6108 16.4892 18.6078 16.5679 18.6203C16.419 18.1165 16.0116 18.0771 15.9371 17.9282C15.9371 18.1384 15.8495 18.6203 15.9853 18.8305C16.016 18.7911 16.0642 18.7517 16.1167 18.721C16.2875 19.0846 17.041 19.0846 17.2206 19.6891C17.3651 19.4701 17.8776 19.2072 18.2368 18.8261Z" fill="#F7E017" stroke="black" stroke-width="0.02"/>
<path d="M17.2195 17.0607C17.386 17.0607 17.9204 17.0081 18.1131 17.0081C18.1657 17.0081 18.2051 16.9292 18.2051 16.8373C18.2051 16.7497 18.1657 16.6708 18.1175 16.6708C17.9204 16.6708 17.3903 16.6182 17.2195 16.6182C17.0531 16.6182 16.5187 16.6708 16.3259 16.6708C16.2734 16.6708 16.2339 16.7453 16.2339 16.8373C16.2339 16.9292 16.2777 17.0081 16.3215 17.0081C16.5187 17.0081 17.0531 17.0607 17.2195 17.0607ZM17.11 16.1934C17.075 16.1627 17.0312 16.1495 16.9786 16.1495C16.8647 16.1495 16.7727 16.2284 16.7727 16.3291C16.7727 16.4343 16.8647 16.5175 16.9786 16.5175C17.0881 16.5175 17.1801 16.4299 17.1801 16.3291C17.1801 16.2503 17.294 16.2503 17.294 16.3291C17.294 16.4912 17.1538 16.6226 16.9786 16.6226C16.8034 16.6226 16.6588 16.4912 16.6588 16.3291C16.6588 16.1714 16.8034 16.04 16.9786 16.04C17.0287 16.0412 17.078 16.0532 17.1231 16.0751C17.1231 16.1014 17.11 16.1495 17.11 16.1934Z" fill="#F7E017" stroke="black" stroke-width="0.02"/>
<path d="M16.327 17.0082C16.3751 17.0082 16.4146 16.9293 16.4146 16.8374C16.4146 16.7497 16.3751 16.6709 16.327 16.6709" fill="#F7E017"/>
<path d="M16.327 17.0082C16.3751 17.0082 16.4146 16.9293 16.4146 16.8374C16.4146 16.7497 16.3751 16.6709 16.327 16.6709" stroke="black" stroke-width="0.02"/>
<path d="M16.4015 17.0085C16.4497 17.0085 16.4891 16.9297 16.4891 16.8377C16.4891 16.7501 16.4497 16.6712 16.4015 16.6712M16.8877 17.0392C16.9491 17.0392 16.9972 16.9516 16.9972 16.8377C16.9972 16.7282 16.9534 16.6362 16.8877 16.6362M17.0016 17.0479C17.0673 17.0479 17.1155 16.956 17.1155 16.8377C17.1155 16.7194 17.0673 16.6274 17.0016 16.6274M17.3827 17.0523C17.4484 17.0523 17.4966 16.956 17.4966 16.8377C17.4966 16.7194 17.444 16.623 17.3827 16.623M17.501 17.0436C17.5623 17.0436 17.6149 16.956 17.6149 16.8377C17.6149 16.7238 17.5623 16.6318 17.501 16.6318M18.031 17.0085C18.0836 17.0085 18.123 16.934 18.123 16.8377C18.123 16.7413 18.0836 16.6625 18.0354 16.6625M16.1212 18.7212C16.1781 18.6818 16.2526 18.6511 16.3314 18.6336L16.1212 18.7212ZM18.1318 18.7387L18.0704 18.6949L18.1318 18.7387ZM18.2369 18.8263C18.3771 18.6774 18.4909 18.5066 18.5566 18.3139L18.2369 18.8263Z" fill="#F7E017"/>
<path d="M16.4015 17.0085C16.4497 17.0085 16.4891 16.9297 16.4891 16.8377C16.4891 16.7501 16.4497 16.6712 16.4015 16.6712M16.8877 17.0392C16.9491 17.0392 16.9972 16.9516 16.9972 16.8377C16.9972 16.7282 16.9534 16.6362 16.8877 16.6362M17.0016 17.0479C17.0673 17.0479 17.1155 16.956 17.1155 16.8377C17.1155 16.7194 17.0673 16.6274 17.0016 16.6274M17.3827 17.0523C17.4484 17.0523 17.4966 16.956 17.4966 16.8377C17.4966 16.7194 17.444 16.623 17.3827 16.623M17.501 17.0436C17.5623 17.0436 17.6149 16.956 17.6149 16.8377C17.6149 16.7238 17.5623 16.6318 17.501 16.6318M18.031 17.0085C18.0836 17.0085 18.123 16.934 18.123 16.8377C18.123 16.7413 18.0836 16.6625 18.0354 16.6625M16.1212 18.7212C16.1781 18.6818 16.2526 18.6511 16.3314 18.6336M18.1318 18.7387L18.0704 18.6949M18.2369 18.8263C18.3771 18.6774 18.4909 18.5066 18.5566 18.3139" stroke="black" stroke-width="0.02"/>
<path d="M16.7676 14.967C16.7676 14.9144 16.807 14.8969 16.8552 14.8619C16.9078 14.8181 16.9297 14.8005 16.9822 14.8005H17.6305C17.6743 14.8005 17.6875 14.8137 17.6875 14.8575V15.7335C17.6875 15.7773 17.6787 15.7949 17.6305 15.7949H16.7676V14.9538" fill="white"/>
<path d="M16.7676 14.967C16.7676 14.9144 16.807 14.8969 16.8552 14.8619C16.9078 14.8181 16.9297 14.8005 16.9822 14.8005H17.6305C17.6743 14.8005 17.6875 14.8137 17.6875 14.8575V15.7335C17.6875 15.7773 17.6787 15.7949 17.6305 15.7949H16.7676V14.9538" stroke="black" stroke-width="0.02"/>
<path d="M17.4695 15.8692C17.5571 15.8692 17.5396 15.8692 17.6009 15.8079C17.6622 15.7466 17.6579 15.7509 17.6579 15.694V14.888C17.6579 14.8442 17.6447 14.8354 17.6009 14.8354H17.0008C16.957 14.8354 16.9351 14.853 16.8825 14.8924C16.8387 14.9274 16.8037 14.945 16.8037 14.9888V15.8692H17.4695Z" fill="#E5E5E5" stroke="black" stroke-width="0.02"/>
<path d="M17.5341 15.8519C17.5341 15.8957 17.521 15.9089 17.4728 15.9089H16.8245C16.7764 15.9089 16.7676 15.8957 16.7676 15.8519V14.9715C16.7676 14.9277 16.7764 14.9146 16.8245 14.9146H17.4728C17.521 14.9146 17.5341 14.9277 17.5341 14.9715V15.8519Z" fill="white" stroke="black" stroke-width="0.02"/>
<path d="M18.7926 12.5623C18.9153 12.7024 18.9591 12.8908 18.889 13.0792H18.705C18.7838 12.8382 18.7357 12.6148 18.3984 12.5842C17.899 12.5404 17.3121 13.5128 16.4316 13.6311C16.1776 13.3244 16.1907 12.7419 16.5192 12.4659C16.3501 11.9992 16.0861 11.5727 15.7439 11.2131C15.589 11.1877 15.4321 11.1774 15.2752 11.1825C15.4066 10.9021 15.7702 10.613 16.068 10.4948C16.1154 10.4274 16.1651 10.3616 16.217 10.2976C16.2476 9.91656 18.0567 10.0918 18.4378 10.3283C18.4378 10.7576 18.6086 12.1768 18.797 12.5623H18.7926Z" fill="#96877D" stroke="black" stroke-width="0.02"/>
<path d="M16.6025 12.8205C16.5587 12.1635 16.2915 11.6203 15.9148 11.2524C16.0484 11.2842 16.1869 11.2889 16.3223 11.2663C16.4577 11.2438 16.5873 11.1943 16.7033 11.121C17.0318 10.902 17.886 10.5252 18.1926 10.6873C18.2189 10.7443 18.2364 10.8625 18.2145 10.9458C18.14 10.7486 17.3209 11.0509 17.0888 11.1473C16.8697 11.248 16.769 11.3882 16.8478 11.6992C16.7164 11.5897 16.7602 11.4889 16.6288 11.4101C16.6814 11.5371 16.7252 11.7693 16.7427 11.9576C16.6901 11.8262 16.6025 11.5371 16.4098 11.3663C16.6128 11.8473 16.697 12.3702 16.6551 12.8906C16.7865 12.8906 17.0844 12.7592 17.1983 12.6716C17.0975 12.8162 16.7953 12.9213 16.6069 12.9607C16.5108 13.1158 16.4606 13.2951 16.4624 13.4776C16.4492 13.2936 16.5062 12.8512 16.5982 12.8205H16.6025ZM18.7927 12.5621C18.6262 12.3781 18.324 12.2818 17.9342 12.3869C18.0287 12.3407 18.1288 12.3068 18.232 12.2861C18.2189 12.1854 18.1269 11.7386 18.1094 11.6291L18.2189 11.5853C18.2758 11.8525 18.3415 12.1591 18.3853 12.2861C18.4204 12.2905 18.4992 12.308 18.5693 12.3431C18.5386 12.238 18.3722 11.4933 18.3766 11.4145L18.5255 11.3356C18.5703 11.7524 18.6584 12.1635 18.7883 12.5621H18.7927Z" fill="black"/>
<path d="M18.7042 13.0745C18.7787 12.8423 18.7305 12.6145 18.3976 12.5839C18.1348 12.562 17.8545 12.816 17.5216 13.0789L18.7042 13.0745ZM16.5185 10.95C16.3002 10.9642 16.0811 10.942 15.8702 10.8843C15.8789 10.8405 15.8965 10.7967 15.9184 10.7441C15.7831 10.8287 15.6582 10.9286 15.546 11.042C15.7826 11.0946 16.2732 11.1165 16.5185 10.95Z" fill="#96877D" stroke="black" stroke-width="0.02"/>
<path d="M16.5156 12.4614C16.5682 12.6235 16.6032 12.7768 16.6076 12.9126M16.0644 10.4946C15.9768 10.626 15.898 10.7662 15.8717 10.8889C16.0833 10.9431 16.302 10.9638 16.52 10.9502" stroke="black" stroke-width="0.02"/>
<path d="M15.7449 11.213C15.8062 11.2261 15.8676 11.2349 15.9201 11.2524C16.0953 11.3006 16.4589 11.3006 16.7086 11.121C16.9539 10.9458 17.6284 10.3895 18.3862 10.3325" stroke="black" stroke-width="0.02"/>
<path d="M15.546 11.0418C15.7826 11.0944 16.2732 11.1163 16.5185 10.9498C17.009 10.5833 17.5909 10.359 18.2005 10.3015" stroke="black" stroke-width="0.02"/>
<path d="M19.6902 13.6528C20.5225 14.2223 21.1357 14.7786 21.3109 15.6678C21.4861 16.557 21.8234 16.7935 22.2396 16.557C22.1432 17.0695 21.6263 17.1264 21.1927 16.7322C21.2365 17.3279 20.9955 18.0375 20.3823 18.296C20.3429 17.9412 20.5794 17.6564 20.5137 17.3673C20.483 17.2359 20.4699 16.9425 20.6407 16.8023C20.3122 16.9118 19.7997 16.7059 19.7515 16.2197C20.1282 16.3949 20.6101 16.4256 20.7984 15.9525C20.9824 15.4794 20.9036 14.6691 19.6902 13.6528ZM20.7371 9.02721C20.9955 8.35702 21.6657 8.4271 21.8935 8.71183C22.5549 8.33512 22.6469 9.1849 23.2076 9.01845C23.1988 9.17614 23.0105 9.32507 22.8046 9.31193C23.0236 9.50904 22.717 9.80691 23.1769 9.9865C22.7827 10.1836 22.2308 9.97774 22.0819 9.4302C21.9505 9.68864 21.4905 9.68864 21.3022 9.48276C21.7052 9.37325 21.6789 9.00093 21.4511 8.84762C21.2189 8.69868 20.8159 8.76001 20.7371 9.02721ZM18.7353 10.5078C18.9258 11.0908 19.262 11.6155 19.7121 12.0321C20.1852 12.4701 20.8992 12.3563 21.3022 11.9445C21.3109 12.768 20.4524 12.8337 19.9793 12.5753C19.7691 12.4614 19.5982 12.5183 19.7997 12.7067C20.1063 12.9783 20.7765 13.1885 21.5694 13.355C22.9492 13.6528 22.4586 14.7479 22.0512 14.7391C22.1695 14.7391 22.2658 14.6121 22.095 14.4632C20.8948 13.3812 18.4593 13.8061 18.4944 11.397C18.2403 12.0321 17.1803 11.7824 17.6753 11.0334C17.8329 11.1604 18.1133 11.1692 18.1878 10.9721C18.2491 10.8188 18.2097 10.5516 17.9337 10.3194C17.9775 10.3194 18.0782 10.3194 18.0651 10.2055C18.0782 10.2756 18.1396 10.372 18.2973 10.3369C18.3411 10.4114 18.3849 10.4552 18.4506 10.4289C18.4637 10.4289 18.4988 10.407 18.4856 10.3369C18.4944 10.4683 18.6521 10.5165 18.7353 10.5078Z" fill="#337321" stroke="black" stroke-width="0.02"/>
<path d="M19.9759 12.5752C20.5497 12.9476 21.2024 12.9476 21.7938 12.2599C21.9821 12.0408 22.2756 11.8525 22.4858 11.835C22.6961 11.8131 22.683 11.616 22.8407 11.5722C22.7443 11.5459 22.7049 11.4276 22.5559 11.4407C22.9283 11.3137 22.8188 11.0159 22.9983 10.8713C22.8494 10.9282 22.6216 10.7092 22.407 10.9896C22.4639 10.8582 22.3851 10.7092 22.3325 10.6479C22.3544 10.7968 22.0434 10.8231 21.9821 11.1998C21.9514 11.4101 21.8332 11.4013 21.8157 11.0728C21.8025 10.8363 21.6842 10.1748 21.5528 9.83755C21.4127 9.50464 21.3776 9.04033 21.566 8.97462C21.5389 8.92482 21.4998 8.88264 21.4521 8.85197C21.2199 8.70304 20.8169 8.76437 20.7381 9.02719C20.484 9.70176 21.2024 10.0872 21.1455 10.8187C21.036 10.2756 20.1555 10.1354 20.1643 9.60101C19.8796 9.73242 19.919 9.96896 20.0285 10.1573C19.8533 9.88135 19.4459 10.3325 19.0999 9.9602C19.0561 10.4552 19.4941 10.6391 19.8489 10.661C19.6737 10.9764 19.9102 11.2436 20.1468 11.3312C20.1555 10.7793 21.29 11.0027 21.3032 11.9532C21.3119 12.7636 20.4402 12.8293 19.9759 12.5752ZM21.5704 13.3549C22.9502 13.6528 22.4596 14.7479 22.0522 14.7391C21.7938 14.7304 21.5485 14.5157 21.5353 14.3274C21.2375 14.4851 21.3163 14.7961 21.5441 14.9187C20.9221 14.8486 20.6593 15.256 20.6461 15.7072C20.76 15.4969 21.1017 15.4882 21.2331 15.532C21.3645 15.5758 21.693 15.5977 21.8244 15.4444C21.7149 15.5407 21.8945 15.7597 21.7368 15.9262C22.2625 15.9087 22.4858 15.4225 22.3939 15.2122C23.0684 14.599 22.9414 13.6002 21.5704 13.3549ZM20.5147 18.0507C20.6023 18.1032 20.5935 18.2259 20.5322 18.3003C20.4096 18.4493 20.5935 18.8041 20.2168 18.8698C20.1073 18.8829 20.0241 18.8128 19.9891 18.6858C19.8839 18.3354 20.2563 18.3091 20.2957 18.147C20.3395 17.9806 20.4402 18.0025 20.5147 18.0507Z" fill="#F7E017" stroke="black" stroke-width="0.02"/>
<path d="M20.1762 18.6859C20.2945 18.7472 20.3996 18.8348 20.3383 19.2291C20.3076 19.3911 20.3033 19.7897 20.4478 19.7985C20.3602 19.8423 20.1675 19.8817 20.0974 19.7766C20.0142 19.8993 19.8477 19.8555 19.7908 19.6978C19.6944 19.7678 19.5805 19.6408 19.5849 19.5357C19.506 19.5795 19.3527 19.505 19.4009 19.2729C19.3045 19.2992 19.1863 19.2291 19.1469 19.1677C19.2826 19.1415 19.6374 18.9706 19.7294 18.8261C19.817 18.6771 20.0361 18.6158 20.1762 18.6859Z" fill="#F7E017" stroke="black" stroke-width="0.02"/>
<path d="M20.0931 19.7767C20.1369 19.7241 20.1588 19.492 20.1369 19.3518M19.7865 19.6978C19.8522 19.654 19.9705 19.5007 19.9968 19.3606M19.5806 19.5358C19.7266 19.4275 19.8389 19.2802 19.9048 19.1109M19.401 19.2729C19.4886 19.2554 19.7777 19.0846 19.9004 18.8962" stroke="black" stroke-width="0.02"/>
<path d="M18.4939 11.4012C18.4764 12.4086 18.8969 12.9255 19.4839 13.2584C19.2649 13.127 19.3612 12.6846 19.0677 12.54C19.1378 12.5357 19.243 12.632 19.4182 12.5926C19.3306 12.4086 19.1992 12.1195 18.875 12.0801C18.9626 12.0714 19.1378 12.102 19.2605 12.0582C19.094 11.7954 18.6472 11.9224 18.4939 11.4012ZM18.3888 10.4375C18.3538 10.4244 18.3231 10.3893 18.2968 10.3411C18.1391 10.3762 18.0778 10.2754 18.0647 10.2097C18.0778 10.3236 17.977 10.3192 17.9332 10.3236C18.2092 10.5514 18.2486 10.8186 18.1873 10.9719C18.1085 11.169 17.8369 11.1602 17.6748 11.0332C17.6529 11.4537 18.2004 11.5895 18.3976 11.0639C18.3976 11.1515 18.5114 11.1427 18.5377 11.261C18.6779 11.0332 18.5728 10.7047 18.3888 10.4375Z" fill="#F7E017" stroke="black" stroke-width="0.02"/>
<path d="M17.5225 8.43152C17.3013 8.21244 17.1754 7.91497 17.1721 7.60364C17.1809 7.38462 17.2685 7.15247 17.5883 7.25321C17.4875 7.25321 17.5576 7.44595 17.4568 7.46785C17.5357 7.49851 17.6496 7.42843 17.6671 7.38024C17.6846 7.45033 17.816 7.43281 17.8248 7.51165C17.873 7.47223 17.8204 7.2795 17.7459 7.24007C17.7985 7.20941 17.8336 7.0561 17.8073 6.98163C17.7547 6.99039 17.6802 7.06048 17.6671 7.16123C17.6934 7.08238 17.6627 6.88527 17.5225 6.8546C17.4831 6.90717 17.4744 7.04296 17.5269 7.11742C17.3999 7.08676 17.2115 7.16999 17.1677 7.2795C17.1765 7.14809 17.194 6.95973 17.2773 6.84146C17.3035 6.80642 17.2334 6.73634 17.1853 6.82832C17.0889 6.63997 16.8348 6.5436 16.7166 6.63559C16.6027 6.73196 16.4537 6.59179 16.3574 6.74072C16.2654 6.88965 15.9456 6.90279 15.9632 7.06048C15.9719 7.15685 15.95 7.3014 15.9018 7.35396C15.7879 7.48099 15.9588 7.57298 15.9894 7.68687C15.9675 7.31454 16.5633 6.58302 17.1634 6.86775C17.0906 7.02759 17.0504 7.20032 17.0451 7.37586C17.0188 7.71315 17.0714 8.18622 17.3955 8.46656L17.5225 8.43152Z" fill="#337321" stroke="black" stroke-width="0.02"/>
<path d="M17.6974 7.25337C17.6974 7.16576 17.8507 7.0475 18.0565 7.05188C18.3062 7.05188 18.4946 7.27965 18.6961 7.25775C18.8976 7.23585 18.8012 7.34536 18.7574 7.3804C18.7136 7.40668 18.6917 7.45049 18.7048 7.50743C18.718 7.55999 18.6961 7.59504 18.6172 7.54685C18.4376 7.43296 18.258 7.59066 18.0215 7.50305C17.8244 7.42858 17.7061 7.38478 17.6974 7.25337Z" fill="#C8102E" stroke="black" stroke-width="0.02"/>
<path d="M16.6811 9.58807C16.5503 9.27744 16.3189 9.0198 16.024 8.85656L16.0153 8.69011C16.1762 8.5983 16.3249 8.48644 16.4577 8.3572C17.2023 8.70763 18.2098 8.20827 18.6741 7.68701L18.8493 7.79214L18.7617 7.91041L18.6697 7.86222C18.4648 8.08706 18.2422 8.29507 18.0039 8.48423C18.1748 8.52803 18.4113 8.5587 18.477 8.55432C18.8887 8.25645 19.2173 7.98925 19.375 7.97173L19.5064 8.14695L19.3881 8.23455L19.2961 8.17761C18.7947 8.65404 18.403 9.23402 18.1485 9.87717C17.8725 9.81585 16.8826 9.85527 16.6811 9.58807Z" fill="#96877D" stroke="black" stroke-width="0.02"/>
<path d="M18.0045 8.4842C17.9388 8.46668 17.8819 8.44916 17.8512 8.43164C17.6921 8.53018 17.5084 8.5818 17.3212 8.58057" stroke="black" stroke-width="0.02"/>
<path d="M16.7202 9.47869C16.6545 9.11074 16.764 8.69899 16.948 8.57634C17.1799 8.71221 17.4445 8.782 17.7132 8.77814C17.982 8.77428 18.2445 8.69692 18.4724 8.55444" stroke="black" stroke-width="0.02"/>
<path d="M16.7193 9.28587C17.0347 9.27711 17.7268 9.32967 17.8889 9.35157C18.0597 9.37785 18.34 9.44794 18.3006 9.53117M16.8639 9.2333L16.9559 9.1457L16.8682 9.05371L16.7763 9.14132L16.8639 9.2333Z" stroke="black" stroke-width="0.02"/>
<path d="M17.0848 7.39332C16.9709 7.23562 16.6555 7.18306 16.5898 7.39332C16.5592 7.48968 16.5154 7.59043 16.4409 7.63423C16.3664 7.67804 16.3839 7.81383 16.4146 7.87077C16.4935 8.01532 16.4234 8.15549 16.5767 8.24748C16.5767 8.13359 16.7475 8.01532 16.8877 7.98466C17.0322 7.95838 17.2513 7.82697 17.2819 7.6868C17.3082 7.53787 17.3608 7.42398 17.0848 7.39332Z" fill="#337321" stroke="black" stroke-width="0.02"/>
<path d="M16.3702 8.81714H16.414V9.08434L16.4359 9.09748L16.6681 8.96607L16.69 8.99673L16.4534 9.13252V9.1588L16.69 9.29021L16.6681 9.32526L16.4315 9.19385C16.4271 9.19823 16.4184 9.20699 16.4096 9.20699V9.47857H16.3702V9.20699C16.3623 9.2037 16.3549 9.19927 16.3483 9.19385L16.1161 9.32964L16.0942 9.29459L16.3264 9.16318V9.13252L16.0942 9.00111L16.1161 8.96607L16.3483 9.09748L16.3702 9.08434V8.81714Z" fill="#96877D" stroke="black" stroke-width="0.02"/>
<path d="M16.7206 9.47405C16.6535 9.54201 16.5673 9.58784 16.4734 9.60542C16.3795 9.62299 16.2825 9.61145 16.1953 9.57236C16.1082 9.53327 16.0351 9.46849 15.9857 9.38669C15.9364 9.30488 15.9133 9.20997 15.9194 9.11465C15.9256 9.01933 15.9607 8.92816 16.02 8.85335C16.0794 8.77853 16.1602 8.72365 16.2517 8.69604C16.3431 8.66843 16.4408 8.66941 16.5317 8.69886C16.6225 8.7283 16.7022 8.78481 16.7601 8.8608C16.7325 8.94159 16.7148 9.02543 16.7075 9.11048C16.7016 9.04889 16.6779 8.99035 16.6393 8.94195C16.6008 8.89355 16.549 8.85737 16.4904 8.8378C16.4317 8.81823 16.3685 8.81611 16.3087 8.8317C16.2488 8.84728 16.1947 8.87991 16.153 8.92561C16.1113 8.97132 16.0838 9.02814 16.0737 9.08919C16.0636 9.15024 16.0715 9.2129 16.0964 9.26956C16.1212 9.32623 16.162 9.37447 16.2137 9.40843C16.2654 9.44239 16.3259 9.46062 16.3877 9.46091C16.5367 9.46091 16.6637 9.36016 16.7031 9.22437C16.7031 9.28569 16.7031 9.42586 16.7206 9.47405Z" fill="#96877D" stroke="black" stroke-width="0.02"/>
<path d="M16.1889 9.92115C16.1627 9.88611 16.1057 9.78974 16.1145 9.72403C16.1759 9.72579 16.2348 9.74904 16.2809 9.78974C16.2766 9.73718 16.2546 9.63205 16.2678 9.57948C16.3204 9.60139 16.4342 9.66709 16.4737 9.73718C16.4649 9.68899 16.443 9.56196 16.4649 9.48312C16.5218 9.51816 16.6226 9.61015 16.6401 9.67585C16.6489 9.5751 16.6839 9.41303 16.7102 9.36923C16.754 9.41303 16.8241 9.45683 16.8679 9.51816C16.8767 9.43493 16.9205 9.34295 16.9774 9.32104C17.0212 9.36485 17.0913 9.48312 17.1088 9.61015C17.1526 9.597 17.2096 9.52254 17.2358 9.47874C17.2577 9.52254 17.284 9.58824 17.2665 9.67585C17.3234 9.62329 17.3892 9.55758 17.3979 9.49626C17.4417 9.52692 17.5162 9.60139 17.5337 9.68023C17.5249 9.61453 17.5337 9.50064 17.5118 9.43493C17.5819 9.47874 17.6432 9.54444 17.6564 9.61891C17.6783 9.54882 17.7221 9.42617 17.7615 9.39989C17.8009 9.47874 17.8403 9.5751 17.8359 9.64957C17.8622 9.60139 17.8973 9.5094 17.9367 9.49188C17.9717 9.54444 17.9674 9.66709 17.9586 9.72842C17.9936 9.68023 18.0593 9.61891 18.0988 9.59701C18.0988 9.63205 18.1075 9.68899 18.0988 9.73279C18.1617 9.66811 18.2095 9.59033 18.2389 9.50502C18.309 9.54006 18.3791 9.65833 18.3835 9.71965C18.436 9.69775 18.5324 9.61015 18.5587 9.56196C18.5587 9.59701 18.5762 9.69337 18.5587 9.76346C18.5894 9.73279 18.6156 9.67585 18.6332 9.64957C18.6507 9.69775 18.6332 9.81602 18.6156 9.88173C18.6571 9.84462 18.7092 9.82161 18.7646 9.81602C18.752 9.93625 18.7147 10.0526 18.6551 10.1577C18.182 10.0263 17.1877 9.97809 16.1889 9.92115Z" fill="#337321" stroke="black" stroke-width="0.02"/>
<path d="M17.8462 7.30552C17.8462 7.2661 17.925 7.18726 18.0696 7.18726C18.2448 7.18726 18.4069 7.31867 18.547 7.30552C18.6872 7.29676 18.6171 7.34495 18.5908 7.35371C18.5558 7.36685 18.5427 7.38437 18.547 7.40627C18.5602 7.43255 18.547 7.44569 18.4857 7.42379C18.3631 7.37999 18.236 7.44131 18.074 7.40627C17.9338 7.37561 17.8506 7.36247 17.8462 7.30552Z" fill="#F7E017"/>
<path d="M16.3449 10.2191C16.2003 10.3943 16.0514 10.368 16.0208 10.2541C15.9901 10.1403 16.0996 10.0877 16.0602 9.98694C16.0208 9.8862 16.1259 9.84239 16.1741 9.8862C16.2222 9.93 16.3843 9.78983 16.45 9.93876C16.5201 10.0877 16.5727 10.1884 16.5376 10.2454C16.4938 10.3067 16.3756 10.276 16.3449 10.2191ZM16.9844 9.9519C16.9581 9.8862 17.1115 9.75917 17.1903 9.85115C17.2691 9.93876 17.3918 9.75479 17.4619 9.89496C17.532 10.0351 17.5495 10.1096 17.5889 10.1884C17.6196 10.2673 17.4006 10.3067 17.3305 10.241C17.3392 10.2848 17.1377 10.3242 17.0852 10.1884L16.9844 9.9519ZM18.0094 10.0351C17.9744 9.96504 18.154 9.86429 18.2503 9.99132C18.2722 9.93876 18.4518 9.93 18.465 10.0789L18.4869 10.3812C18.4913 10.4381 18.3774 10.4951 18.2985 10.3417C18.1496 10.3724 18.0839 10.2892 18.0664 10.206C18.0488 10.1184 18.0313 10.0745 18.0094 10.0307V10.0351Z" fill="#F7E017" stroke="black" stroke-width="0.02"/>
<path d="M16.4403 9.93379C16.4184 9.88561 16.5717 9.78486 16.6681 9.85933C16.7688 9.93379 16.909 9.798 16.9747 9.92941C17.093 10.201 17.0973 10.2185 17.0623 10.2711C17.0273 10.3236 16.8652 10.3017 16.8258 10.2273C16.8214 10.2798 16.6812 10.2711 16.6111 10.2317C16.5323 10.1879 16.4753 10.0214 16.4403 9.93379ZM17.4784 9.94693C17.4478 9.86809 17.6799 9.80238 17.7851 9.93817C17.8332 9.88999 17.9471 9.88561 18.0085 10.0345C18.0742 10.1791 18.0829 10.2579 18.0391 10.2974C18.0041 10.3236 17.8858 10.3412 17.8464 10.2755C17.7894 10.3105 17.623 10.2798 17.5836 10.1879C17.5485 10.0959 17.5179 10.0126 17.4828 9.94693H17.4784ZM18.464 10.0959C18.464 10.0214 18.5867 9.99074 18.6348 10.0959C18.6786 10.1922 18.832 10.1002 18.8451 10.2711C18.8451 10.3017 18.8276 10.4244 18.7794 10.4857C18.7356 10.5427 18.5034 10.4857 18.4859 10.3587L18.464 10.0959Z" fill="#337321" stroke="black" stroke-width="0.02"/>
<path d="M16.3435 10.2186C16.2909 10.1441 16.2165 10.0258 16.1245 10.1529M16.8297 10.2273C16.7947 10.1879 16.7552 10.1178 16.7421 10.0653M17.3291 10.2405C17.294 10.2142 17.2414 10.166 17.2152 10.1134M17.2853 9.98204C17.3729 9.9908 17.4298 10.0696 17.4561 10.1091C17.4824 10.1441 17.5437 10.2142 17.5875 10.2186M17.8459 10.2755C17.8153 10.2317 17.7846 10.1879 17.7802 10.1529M17.7846 9.93823C17.8109 9.98204 17.8328 10.0127 17.8503 10.0521M18.2927 10.3412C18.2591 10.2708 18.2058 10.2115 18.1394 10.1704M18.2752 10.0696C18.2796 10.2142 18.4723 10.2273 18.4811 10.3325M18.6344 10.0959C18.6519 10.131 18.6607 10.166 18.6607 10.2273" stroke="black" stroke-width="0.02"/>
</g>
</g>
<defs>
<clipPath id="clip0_3053_1912">
<rect width="24" height="24" fill="white"/>
</clipPath>
<clipPath id="clip1_3053_1912">
<rect width="24" height="24" rx="12" fill="white"/>
</clipPath>
</defs>
</svg>
