<svg width="24" height="24" viewBox="0 0 24 24" fill="none" xmlns="http://www.w3.org/2000/svg">
<g clip-path="url(#clip0_2214_3530)">
<path d="M12 24C18.6274 24 24 18.6274 24 12C24 5.37258 18.6274 0 12 0C5.37258 0 0 5.37258 0 12C0 18.6274 5.37258 24 12 24Z" fill="white"/>
<path d="M0 12C0 5.37262 5.37262 0 12 0C18.6274 0 24 5.37262 24 12" fill="#E70011"/>
<g clip-path="url(#clip1_2214_3530)">
<path d="M-28 -18H52V12H-28V-18Z" fill="#E70011"/>
<path d="M-28 12H52V42H-28V12Z" fill="white"/>
</g>
</g>
<defs>
<clipPath id="clip0_2214_3530">
<path d="M0 12C0 5.37258 5.37258 0 12 0C18.6274 0 24 5.37258 24 12C24 18.6274 18.6274 24 12 24C5.37258 24 0 18.6274 0 12Z" fill="white"/>
</clipPath>
<clipPath id="clip1_2214_3530">
<rect width="80" height="60" fill="white" transform="translate(-28 -18)"/>
</clipPath>
</defs>
</svg>
