<svg width="24" height="24" viewBox="0 0 24 24" fill="none" xmlns="http://www.w3.org/2000/svg">
<g clip-path="url(#clip0_2214_2965)">
<g clip-path="url(#clip1_2214_2965)">
<path d="M-4 0H28V24H-4V0Z" fill="#D0103A"/>
<path d="M-4 0H17.76V24H-4V0Z" fill="#FEDF00"/>
<path d="M-4 0H6.24V24H-4V0Z" fill="#0018A8"/>
<path d="M11.02 6.83008C11.405 6.83008 11.565 7.16008 11.95 7.16008C12.185 7.16008 12.325 7.08508 12.535 6.96508C12.68 6.88508 12.77 6.84008 12.935 6.84008C13.105 6.84008 13.21 6.89008 13.3 7.04008C13.35 7.12008 13.39 7.28508 13.365 7.37508C13.3353 7.51792 13.29 7.65708 13.23 7.79008C13.195 7.87008 13.165 7.91508 13.165 8.00008C13.165 8.20508 13.445 8.27508 13.635 8.28008C13.675 8.28008 14.02 8.28008 14.235 8.07008C14.12 8.06508 13.99 7.97008 13.99 7.85508C13.99 7.72508 14.08 7.64008 14.205 7.60008C14.23 7.59508 14.27 7.61508 14.29 7.60008C14.325 7.58508 14.31 7.55008 14.34 7.53008C14.4 7.48008 14.44 7.45008 14.52 7.45008C14.5633 7.44674 14.605 7.45841 14.645 7.48508C14.6617 7.50841 14.6783 7.52174 14.695 7.52508C14.755 7.52508 14.785 7.48508 14.845 7.48508C14.8852 7.48569 14.9246 7.49598 14.96 7.51508C14.99 7.53008 14.99 7.59008 15.03 7.59008C15.05 7.59008 15.15 7.54508 15.205 7.54508C15.315 7.54508 15.375 7.58508 15.445 7.67008C15.465 7.69508 15.475 7.74008 15.495 7.74008C15.5443 7.7434 15.5919 7.75883 15.6338 7.785C15.6757 7.81116 15.7104 7.84726 15.735 7.89008C15.75 7.91008 15.77 7.96008 15.79 7.96508C15.82 7.98008 15.84 7.97508 15.875 8.00008C15.916 8.02583 15.9501 8.0611 15.9745 8.10289C15.9988 8.14468 16.0127 8.19175 16.015 8.24008C16.0117 8.28008 16.0033 8.31674 15.99 8.35008C15.9 8.67508 15.675 8.78008 15.45 9.06508C15.35 9.18508 15.275 9.28008 15.275 9.43508C15.275 9.47008 15.325 9.54008 15.34 9.57008C15.33 9.50008 15.365 9.41008 15.44 9.40508C15.4898 9.40483 15.5378 9.42313 15.5748 9.45642C15.6118 9.4897 15.635 9.53557 15.64 9.58508L15.625 9.67508C15.6859 9.63772 15.7541 9.61385 15.825 9.60508H15.92C16.085 9.60508 16.27 9.70008 16.385 9.79508C16.5053 9.89843 16.6007 10.0277 16.6639 10.1732C16.7271 10.3187 16.7566 10.4766 16.75 10.6351C16.71 10.8951 16.735 11.3751 16.06 11.5651C16.185 11.6151 16.27 11.7151 16.27 11.8251C16.2713 11.855 16.2667 11.885 16.2563 11.9131C16.2459 11.9412 16.23 11.967 16.2095 11.9889C16.189 12.0108 16.1643 12.0284 16.1369 12.0406C16.1095 12.0528 16.08 12.0594 16.05 12.0601C16.0173 12.0637 15.9843 12.0592 15.9537 12.047C15.9232 12.0348 15.8962 12.0152 15.875 11.9901C15.735 12.1301 15.71 12.2751 15.71 12.4751C15.71 12.5951 15.73 12.6651 15.78 12.7751C15.83 12.8851 15.87 12.9501 15.965 13.0301C16.0083 12.9501 16.075 12.9067 16.165 12.9001C16.255 12.8967 16.32 12.9334 16.36 13.0101C16.37 13.0351 16.36 13.0551 16.375 13.0801C16.39 13.1101 16.415 13.1151 16.43 13.1451C16.455 13.1951 16.43 13.2351 16.455 13.2801C16.47 13.3151 16.5 13.3201 16.515 13.3501C16.535 13.4001 16.54 13.4301 16.54 13.4851C16.54 13.6351 16.405 13.7451 16.255 13.7451C16.205 13.7451 16.185 13.7251 16.14 13.7301C16.225 13.8151 16.29 13.8551 16.355 13.9551C16.4562 14.1075 16.5085 14.2872 16.505 14.4701C16.509 14.6659 16.4607 14.8592 16.365 15.0301C16.2904 15.2017 16.1691 15.349 16.015 15.4551C15.7792 15.6268 15.5042 15.7368 15.215 15.7751C15.0337 15.8121 14.8498 15.8355 14.665 15.8451L13.96 15.8851C13.6 15.9051 13.35 15.9601 13.095 16.2151C13.215 16.3001 13.295 16.3901 13.295 16.5351C13.2883 16.6917 13.21 16.7951 13.06 16.8451C13.025 16.8551 13 16.8451 12.965 16.8651C12.93 16.8851 12.93 16.9301 12.895 16.9501C12.8391 16.9876 12.7721 17.0052 12.705 17.0001C12.6457 17.0043 12.5862 16.9953 12.5309 16.9737C12.4755 16.9521 12.4257 16.9184 12.385 16.8751C12.275 16.9651 12.235 17.0451 12.11 17.1201C12.07 17.1401 12.05 17.1701 12.005 17.1701C11.93 17.1701 11.895 17.1201 11.835 17.0801C11.7533 17.0232 11.6794 16.956 11.615 16.8801C11.5 16.9451 11.435 17.0001 11.3 17.0001C11.2298 17.0039 11.1601 16.9864 11.1 16.9501C11.07 16.9251 11.06 16.8901 11.025 16.8701C10.99 16.8501 10.96 16.8551 10.92 16.8351C10.77 16.7701 10.67 16.6601 10.67 16.4951C10.67 16.3501 10.76 16.2601 10.89 16.1951C10.64 15.9451 10.39 15.9051 10.04 15.8851L9.34 15.8451C9.12 15.8301 9 15.8101 8.79 15.7751C8.625 15.7501 8.53 15.7401 8.38 15.6701C7.87 15.4301 7.54 15.1051 7.48 14.5451C7.47 14.4951 7.47 14.4701 7.47 14.4201C7.47 14.1301 7.585 13.9501 7.79 13.7451C7.74 13.7301 7.705 13.7451 7.65 13.7301C7.525 13.6801 7.43 13.5951 7.43 13.4551C7.42667 13.4084 7.435 13.3651 7.455 13.3251C7.475 13.2951 7.505 13.2901 7.515 13.2551C7.525 13.2051 7.515 13.1751 7.535 13.1301C7.55 13.1051 7.575 13.1001 7.585 13.0701C7.635 12.9751 7.685 12.9001 7.79 12.9001C7.88 12.9034 7.94333 12.9451 7.98 13.0251C8.07 12.9851 8.09 12.9201 8.14 12.8401C8.19895 12.7408 8.23573 12.63 8.24781 12.5152C8.25989 12.4005 8.24699 12.2844 8.21 12.1751C8.19 12.1001 8.18 12.0501 8.12 11.9901C8.07333 12.0367 8.01667 12.0601 7.95 12.0601C7.805 12.0601 7.7 11.9351 7.7 11.7951C7.69983 11.7463 7.71394 11.6985 7.7406 11.6576C7.76725 11.6168 7.80528 11.5846 7.85 11.5651C7.77 11.4951 7.7 11.4901 7.615 11.4351C7.485 11.3551 7.44 11.2651 7.355 11.1351C7.295 11.0551 7.28 10.9951 7.255 10.9001C7.21132 10.775 7.19429 10.6421 7.205 10.5101C7.235 10.2601 7.28 10.1101 7.435 9.91508C7.525 9.80008 7.585 9.73008 7.725 9.67008C7.84 9.62008 7.91 9.58508 8.035 9.58508L8.135 9.59008C8.18395 9.59345 8.23165 9.60708 8.275 9.63008C8.295 9.64008 8.33 9.67508 8.33 9.65008C8.33 9.62508 8.315 9.61008 8.315 9.58508C8.315 9.48508 8.39 9.38508 8.495 9.38508C8.57 9.38508 8.6 9.45508 8.64 9.52008C8.66 9.48674 8.67167 9.44841 8.675 9.40508C8.675 9.23508 8.58 9.14508 8.475 9.01008C8.24 8.72008 7.95 8.58508 7.95 8.21008C7.95 8.10341 8 8.02174 8.1 7.96508C8.125 7.95008 8.165 7.96508 8.19 7.95008C8.215 7.93508 8.21 7.90008 8.225 7.88008C8.24833 7.85008 8.275 7.82341 8.305 7.80008C8.355 7.75008 8.405 7.77008 8.46 7.72508C8.48667 7.70174 8.50667 7.67841 8.52 7.65508C8.585 7.57508 8.645 7.53508 8.75 7.53508C8.79333 7.53174 8.835 7.53841 8.875 7.55508L8.925 7.58008C8.94167 7.56341 8.96667 7.54508 9 7.52508C9.03298 7.50462 9.0712 7.49419 9.11 7.49508C9.165 7.49508 9.2 7.52508 9.26 7.52508C9.27 7.51841 9.28333 7.50841 9.3 7.49508C9.35 7.46008 9.375 7.44508 9.435 7.44508C9.495 7.44508 9.525 7.46008 9.575 7.49508C9.625 7.52008 9.625 7.56008 9.675 7.58508C9.70167 7.59508 9.72667 7.60174 9.75 7.60508C9.88 7.65008 9.975 7.73508 9.975 7.87008C9.97833 7.94008 9.955 7.99841 9.905 8.04508C9.86 8.08008 9.82 8.07508 9.765 8.09508C9.92406 8.22345 10.1262 8.28606 10.33 8.27008C10.54 8.27008 10.795 8.18508 10.795 7.97508C10.795 7.87508 10.745 7.82508 10.705 7.73508C10.6374 7.60352 10.6014 7.45799 10.6 7.31008C10.6 7.17008 10.615 7.08508 10.695 6.97508C10.775 6.86508 10.875 6.83008 11.02 6.83008Z" fill="#C7B37F"/>
<path d="M9.62 7.94994C9.62998 7.97752 9.64591 8.00256 9.66664 8.0233C9.68738 8.04404 9.71243 8.05996 9.74 8.06994C9.78 8.08494 9.875 8.07994 9.93 7.99994C9.98 7.93994 9.98 7.85994 9.96 7.79994C9.94264 7.75598 9.91317 7.71783 9.875 7.68994L9.62 7.94994Z" stroke="#703D29" stroke-width="0.035" stroke-linejoin="round"/>
<path d="M16.05 11.805C15.99 11.66 15.835 11.725 15.83 11.805C15.805 11.99 15.965 12.045 16.08 12.015C16.1066 12.0078 16.1314 11.9952 16.1529 11.978C16.1745 11.9608 16.1922 11.9393 16.205 11.915C16.2383 11.8616 16.245 11.8 16.225 11.73L16.185 11.65L16.12 11.59C16.08 11.5666 16.0233 11.5566 15.95 11.56C15.675 11.56 15.43 11.885 15.35 12.23C15.32 12.34 15.285 12.595 15.335 12.83C15.3754 13.0433 15.4781 13.2399 15.63 13.395C15.7713 13.5273 15.9405 13.6264 16.125 13.685C16.1902 13.7035 16.259 13.7053 16.325 13.69C16.485 13.655 16.56 13.5 16.475 13.34C16.41 13.215 16.21 13.14 16.115 13.31C16.105 13.3266 16.0983 13.3516 16.095 13.385C16.095 13.43 16.115 13.485 16.145 13.505C16.22 13.55 16.335 13.535 16.33 13.405" stroke="#703D29" stroke-width="0.035" stroke-linecap="round"/>
<path d="M15.19 13.7001C15.2747 13.6013 15.3916 13.5358 15.52 13.5151C15.6667 13.5017 15.8033 13.5351 15.93 13.6151C16.0906 13.6919 16.2264 13.8123 16.3219 13.9626C16.4174 14.1129 16.4687 14.287 16.47 14.4651C16.47 14.6451 16.42 14.8401 16.37 14.9351C16.33 15.0201 16.22 15.3851 15.605 15.6351C15.25 15.7851 14.705 15.8151 14.32 15.8351C13.8 15.8501 13.32 15.8701 13.045 16.2151" stroke="#703D29" stroke-width="0.04"/>
<path d="M15.32 14.2849C15.3067 14.2349 15.32 14.1799 15.36 14.1199C15.42 14.0399 15.545 14.0149 15.66 14.0699C15.7099 14.096 15.7528 14.1337 15.785 14.1799L15.84 14.2599C15.8733 14.3166 15.89 14.3583 15.89 14.3849C16.015 14.7349 15.82 15.1099 15.565 15.2649C15.365 15.3849 15.13 15.4349 14.845 15.4649C14.72 15.4849 14.645 15.4799 14.52 15.4899H13.68C13.535 15.5049 13.43 15.5099 13.3 15.5299C13.22 15.5399 13.13 15.5566 13.03 15.5799C13 15.5799 12.97 15.5866 12.94 15.5999L12.88 15.6149C12.6967 15.6683 12.5333 15.7383 12.39 15.8249C12.3467 15.8483 12.305 15.8766 12.265 15.9099L12.2 15.9699C12.1 16.0699 12.005 16.1699 11.98 16.3049V16.3849C11.98 16.4749 12.05 16.5999 12.25 16.6349M12.525 8.13492C12.565 8.20492 12.59 8.24992 12.565 8.32992C12.535 8.41992 12.475 8.46658 12.385 8.46992C12.185 8.46992 12.07 8.22992 12.16 8.07992C12.32 7.81492 12.625 7.96492 12.91 8.09492C12.895 8.02992 12.87 8.00492 12.875 7.91992C12.88 7.70992 13.035 7.61992 13.1 7.41992C13.135 7.30492 13.15 7.20492 13.065 7.11992C12.9917 7.05992 12.9067 7.04992 12.81 7.08992C12.62 7.16492 12.385 7.38492 11.98 7.38992C11.57 7.38492 11.34 7.16492 11.145 7.08992C11.045 7.04992 10.96 7.06158 10.89 7.12492C10.805 7.20492 10.82 7.30492 10.855 7.42492C10.92 7.61492 11.075 7.70992 11.08 7.92492C11.08 8.00492 11.06 8.02492 11.045 8.09492C11.33 7.96492 11.645 7.79992 11.795 8.07992C11.88 8.23992 11.77 8.46492 11.57 8.46492C11.48 8.46492 11.42 8.41992 11.39 8.32992C11.3733 8.25658 11.3867 8.18992 11.43 8.12992" stroke="#703D29" stroke-width="0.035"/>
<path d="M11.73 7.99512C11.7724 8.02029 11.8065 8.05747 11.8278 8.10195C11.8492 8.14644 11.8569 8.19625 11.85 8.24512C11.84 8.37012 11.81 8.40012 11.71 8.47012M11.83 8.28012C11.83 8.35345 11.7917 8.40512 11.715 8.43512" stroke="#703D29" stroke-width="0.035" stroke-linecap="round"/>
<path d="M9.835 7.66504L9.87 7.69004L9.91 7.73004L9.935 7.78004L9.945 7.82004V7.91504L9.935 7.95504L9.91 7.98504L9.88 8.01504L9.835 8.04004L9.785 8.05004L9.735 8.06004L9.685 8.03504L9.64 8.00504L9.615 7.96504L9.595 7.91504V7.89504L9.835 7.66504Z" fill="#C7B37F"/>
<path d="M9.76 7.8601C9.745 7.7751 9.65 7.7601 9.61 7.8101C9.555 7.8851 9.595 8.0101 9.71 8.0451C9.7458 8.05235 9.7829 8.04965 9.81727 8.03731C9.85165 8.02497 9.88199 8.00346 9.905 7.9751C9.955 7.9101 9.95 7.8351 9.93 7.7751C9.91264 7.73113 9.88316 7.69299 9.845 7.6651C9.71 7.5651 9.49 7.5851 9.415 7.7651C9.325 7.9851 9.525 8.1551 9.715 8.2801C9.945 8.4401 10.215 8.4701 10.415 8.4701C10.875 8.4651 11.225 8.2451 11.45 8.1201C11.5067 8.0901 11.5517 8.09343 11.585 8.1301C11.6 8.15035 11.6067 8.17551 11.6039 8.20053C11.6012 8.22556 11.589 8.24862 11.57 8.2651" stroke="#703D29" stroke-width="0.035" stroke-linecap="round"/>
<path d="M8.39999 14.0601L8.29999 14.0951L8.19999 14.1751L8.14999 14.2401L8.09499 14.3401L8.06999 14.4151L8.04999 14.5051L8.03999 14.5751M8.98999 14.0701L8.98499 14.1601L8.96999 14.2201L8.91999 14.3301L8.85499 14.4201L8.77999 14.4801L8.72499 14.5051L8.64499 14.5251" stroke="#703D29" stroke-width="0.035"/>
<path d="M11.985 16.4551C11.97 16.5401 11.89 16.6351 11.72 16.6651L11.69 16.6751" stroke="#703D29" stroke-width="0.04"/>
<path d="M16.21 13.8101C16.3013 13.8967 16.3734 14.0016 16.4216 14.1179C16.4698 14.2341 16.4931 14.3592 16.49 14.4851C16.49 14.6651 16.44 14.8601 16.39 14.9551C16.35 15.0401 16.24 15.4051 15.625 15.6551C15.2111 15.7867 14.7794 15.8542 14.345 15.8551C13.83 15.8701 13.355 15.8901 13.075 16.2201" stroke="#703D29" stroke-width="0.045"/>
<path d="M15.375 14.145C15.415 14.095 15.55 14.025 15.665 14.09C15.7113 14.1129 15.7509 14.1473 15.78 14.19" stroke="#703D29" stroke-width="0.03"/>
<path d="M16.08 13.6901L16.15 13.7151C16.2152 13.7346 16.2847 13.7346 16.35 13.7151C16.49 13.6751 16.58 13.5451 16.51 13.3701C16.4886 13.3286 16.4578 13.2927 16.42 13.2651" stroke="#703D29" stroke-width="0.045"/>
<path d="M8.015 9.9899C7.915 10.0449 7.85 10.0599 7.775 10.1449C7.71705 10.2521 7.67335 10.3664 7.645 10.4849M9.945 7.8999C9.94166 7.9899 9.89166 8.04324 9.795 8.0599" stroke="#703D29" stroke-width="0.035" stroke-linecap="round"/>
<path d="M15.855 9.6001C15.9815 9.60265 16.1062 9.63044 16.2218 9.68185C16.3374 9.73326 16.4416 9.80724 16.5283 9.89946C16.6149 9.99168 16.6822 10.1003 16.7263 10.2189C16.7704 10.3375 16.7903 10.4637 16.785 10.5901C16.785 11.3901 16.29 11.5151 16.095 11.5701" stroke="#703D29" stroke-width="0.03"/>
<path d="M15.92 9.60014C16.325 9.58514 16.745 9.88514 16.765 10.6351C16.78 11.2201 16.365 11.4851 16.165 11.5351" stroke="#703D29" stroke-width="0.035"/>
<path d="M15.69 12.42L15.695 12.34L15.725 12.215L15.76 12.115L15.805 12.035L15.855 11.97M16.245 11.8V11.875L16.22 11.925L16.185 11.98L16.145 12.01L16.085 12.035H16.03L15.99 12.03M15.275 9.39001L15.29 9.30501L15.33 9.22501L15.38 9.15001L15.46 9.04001L15.53 8.97001L15.63 8.86001L15.73 8.76501L15.785 8.70001L15.86 8.60501L15.93 8.50501L15.97 8.42001L15.995 8.31001L16 8.17501L15.99 8.13501M15.375 14.545L15.455 14.525L15.515 14.495L15.55 14.46L15.575 14.42L15.59 14.36V14.315M7.68 13.71H7.815L7.895 13.68M8.145 11.855L8.135 11.925L8.115 11.955L8.095 11.985L8.06 12.01L8.025 12.025L7.975 12.03H7.945M8.44 11.255L8.425 11.36L8.4 11.41L8.36 11.47L8.3 11.515L8.24 11.545L8.125 11.57M8.89 9.58501L8.865 9.65001L8.84 9.70001L8.8 9.75001L8.75 9.80001L8.69 9.82501L8.635 9.84001L8.605 9.83501M8.62 9.52501V9.57501" stroke="#703D29" stroke-width="0.03"/>
<path d="M8.715 11.2C8.68453 11.2295 8.64895 11.2532 8.61 11.27M16.135 13.51L16.16 13.52C16.23 13.56 16.37 13.51 16.33 13.4" stroke="#703D29" stroke-width="0.03" stroke-linecap="round"/>
<path d="M15.89 11.98C15.94 12.045 16.035 12.065 16.11 12.045C16.1366 12.0378 16.1614 12.0252 16.1829 12.008C16.2045 11.9908 16.2222 11.9693 16.235 11.945C16.2683 11.8916 16.275 11.83 16.255 11.76L16.21 11.68L16.145 11.605L16.125 11.595M16.445 13.295L16.45 13.26C16.4503 13.2318 16.4447 13.2039 16.4335 13.178C16.4223 13.1522 16.4058 13.129 16.385 13.11L16.345 13.07M16.365 13.095C16.365 13.005 16.29 12.935 16.195 12.92M15.985 13.06L15.92 13.01C15.7843 12.8646 15.7077 12.6738 15.705 12.475C15.705 12.265 15.785 12.055 15.885 11.975M13.06 16.2L13.15 16.12L13.21 16.07L13.325 16L13.435 15.95L13.515 15.925L13.665 15.895L13.845 15.865M12.37 16.835C12.2758 16.9715 12.1437 17.0776 11.99 17.14C11.8377 17.0752 11.7062 16.9696 11.61 16.835" stroke="#703D29" stroke-width="0.03"/>
<path d="M11.72 16.6299C11.7007 16.7077 11.663 16.7797 11.61 16.8399" stroke="#703D29" stroke-width="0.03" stroke-linecap="round"/>
<path d="M11.735 16.5249L11.715 16.6349M11.6 16.8499L11.55 16.8999L11.465 16.9449L11.365 16.9749M11.085 8.08491C11.1 8.04491 11.11 8.01491 11.11 7.95491C11.105 7.74491 10.95 7.64991 10.885 7.45491M10.885 7.45491C10.85 7.33991 10.835 7.23991 10.92 7.15491C10.9933 7.08824 11.0767 7.07824 11.17 7.12491C11.37 7.19991 11.6 7.41491 12.005 7.42491C11.6 7.41491 11.365 7.19991 11.175 7.12491C11.075 7.08491 10.985 7.07491 10.91 7.14991C10.825 7.22991 10.85 7.33991 10.885 7.45491ZM10.885 7.45491C10.95 7.64991 11.095 7.74491 11.1 7.95491C11.0967 8.00824 11.0883 8.05158 11.075 8.08491M12 7.39991C12.4 7.37991 12.745 7.10991 12.855 7.08491C12.955 7.06491 13.005 7.07491 13.08 7.13991C13.01 7.07491 12.93 7.07991 12.83 7.11491C12.64 7.18991 12.41 7.40491 12 7.41491M15.98 13.0599C15.8851 12.9864 15.808 12.8926 15.7544 12.7852C15.7007 12.6779 15.6719 12.5599 15.67 12.4399C15.67 12.2349 15.755 12.0199 15.85 11.9399M12.35 16.8199C12.285 16.9199 12.135 17.0699 11.97 17.1299C11.8171 17.0637 11.6855 16.9564 11.59 16.8199" stroke="#703D29" stroke-width="0.03"/>
<path d="M11.335 8.18504L11.45 8.12004C11.5 8.09004 11.565 8.09504 11.595 8.13004C11.625 8.16504 11.63 8.23004 11.585 8.27004" stroke="#703D29" stroke-width="0.03" stroke-linecap="round"/>
<path d="M10.735 8.46505C11.01 8.40505 11.235 8.28505 11.405 8.19005M13.015 16.4C13.04 16.415 13.055 16.45 13.055 16.45C13.0617 16.46 13.0667 16.4734 13.07 16.49C13.085 16.565 13.035 16.61 12.97 16.62C12.885 16.63 12.82 16.58 12.795 16.52M10.72 8.45005C10.995 8.39505 11.22 8.27005 11.39 8.17505M16.27 13.52C16.22 13.54 16.19 13.535 16.12 13.51L16.03 13.46C15.8482 13.3554 15.7019 13.1986 15.61 13.01C15.5718 12.9374 15.5433 12.8601 15.525 12.78C15.509 12.7265 15.5006 12.6709 15.5 12.615C15.4959 12.3417 15.5782 12.074 15.735 11.85C15.79 11.77 15.84 11.725 15.945 11.72M8.76 9.75505C8.80323 9.78868 8.83797 9.83198 8.86141 9.88148C8.88486 9.93098 8.89636 9.98529 8.895 10.04C8.895 10.195 8.765 10.45 8.445 10.54C8.39254 10.5552 8.33753 10.5595 8.28336 10.5526C8.22918 10.5458 8.17699 10.5279 8.13 10.5" stroke="#703D29" stroke-width="0.03"/>
<path d="M8.815 10.28C8.86834 10.3134 8.895 10.3684 8.895 10.445C8.895 10.4984 8.86334 10.56 8.8 10.63C8.74454 10.6921 8.67678 10.7419 8.60103 10.7763C8.52528 10.8107 8.4432 10.829 8.36 10.83C8.26 10.8334 8.16 10.805 8.06 10.745C7.96475 10.6824 7.89684 10.5859 7.87 10.475" stroke="#703D29" stroke-width="0.03"/>
<path d="M8.80999 10.615C8.86999 10.675 8.89832 10.7517 8.89499 10.845C8.89832 10.975 8.83666 11.0917 8.70999 11.195C8.68332 11.2217 8.64999 11.2467 8.60999 11.27M15.085 10.165V10.34M15.07 10.12V10.37M15.085 9.58004V9.91004M15.07 9.51004V9.95504M14.975 14.055C14.9229 14.1606 14.8517 14.2555 14.765 14.335C14.6813 14.4201 14.5831 14.4896 14.475 14.54C14.3707 14.5919 14.2596 14.6289 14.145 14.65C14.0335 14.6768 13.9196 14.6919 13.805 14.695C13.68 14.695 13.61 14.695 13.485 14.685C13.36 14.675 13.285 14.655 13.15 14.645C13.04 14.635 12.98 14.625 12.87 14.63C12.6825 14.6229 12.4954 14.6535 12.32 14.72C12.19 14.77 12.035 14.87 12.005 14.91C11.9099 14.829 11.8017 14.7647 11.685 14.72C11.6031 14.6865 11.5175 14.663 11.43 14.65C11.315 14.63 11.255 14.63 11.14 14.63C11.025 14.63 10.97 14.635 10.86 14.645C10.73 14.66 10.66 14.675 10.525 14.685C10.4 14.695 10.33 14.7 10.205 14.695C9.97361 14.6926 9.74533 14.6415 9.53499 14.545C9.41325 14.4874 9.3044 14.4058 9.21499 14.305M11.32 16.975L11.41 16.965M12.925 16.845L13.015 16.84L13.1 16.805L13.16 16.765L13.245 16.665L13.26 16.635L13.275 16.55V16.51M15.625 9.67504C15.66 9.54504 15.615 9.40504 15.485 9.41004M8.88499 11.735C8.85848 11.8327 8.79595 11.9167 8.70999 11.97M8.88999 9.63504C8.87466 9.67861 8.85087 9.71871 8.81998 9.75303C8.78908 9.78736 8.7517 9.81523 8.70999 9.83504C8.61499 9.87504 8.50999 9.83504 8.44999 9.79504" stroke="#703D29" stroke-width="0.03"/>
<path d="M8.18999 10.1201C8.26499 10.1601 8.34499 10.1001 8.32999 10.0001C8.32236 9.9715 8.30641 9.94578 8.28416 9.9262C8.26191 9.90662 8.23437 9.89407 8.20499 9.89014" stroke="#703D29" stroke-width="0.03" stroke-linecap="round"/>
<path d="M8.51 14.33C8.52 14.3467 8.53333 14.36 8.55 14.37C8.585 14.38 8.61 14.39 8.645 14.345C8.685 14.29 8.66 14.205 8.62 14.15C8.58316 14.1121 8.53524 14.0868 8.48313 14.0779C8.43103 14.0689 8.37741 14.0766 8.33 14.1C8.29 14.12 8.24666 14.1567 8.2 14.21L8.145 14.29C8.11166 14.3467 8.09333 14.3867 8.09 14.41C7.99 14.705 8.11 15.01 8.295 15.195" stroke="#703D29" stroke-width="0.03"/>
<path d="M13.01 16.3901L13.045 16.4301L13.055 16.4751C13.07 16.5501 13.02 16.5951 12.955 16.6051C12.875 16.6151 12.815 16.5651 12.79 16.5051" stroke="#703D29" stroke-width="0.03" stroke-linecap="round"/>
<path d="M15.47 7.73999C15.555 7.75268 15.6329 7.79455 15.6904 7.85841C15.7478 7.92228 15.7813 8.00415 15.785 8.08999C15.785 8.30999 15.71 8.38999 15.595 8.54999C15.47 8.71999 15.06 9.02999 15.06 9.38499C15.0533 9.59832 15.125 9.73832 15.275 9.80499C15.375 9.85499 15.49 9.80499 15.545 9.75499C15.675 9.63499 15.62 9.42999 15.485 9.40499C15.325 9.37499 15.29 9.63499 15.45 9.61999M16.345 13.07C16.3346 13.0292 16.3116 12.9928 16.2793 12.9659C16.247 12.9389 16.207 12.9229 16.165 12.92C16.1159 12.92 16.0689 12.9395 16.0342 12.9742C15.9995 13.0089 15.98 13.0559 15.98 13.105C15.98 13.1583 15.9967 13.2017 16.03 13.235" stroke="#703D29" stroke-width="0.03"/>
<path d="M15.195 9.75488C15.1518 9.78851 15.117 9.83182 15.0936 9.88132C15.0701 9.93082 15.0586 9.98513 15.06 10.0399C15.06 10.1949 15.19 10.4499 15.51 10.5399C15.63 10.5749 15.75 10.5699 15.82 10.5249M8.01999 10.0099C7.92249 10.0394 7.83788 10.1011 7.77999 10.1849C7.6614 10.3739 7.62188 10.602 7.66999 10.8199C7.69016 10.9197 7.72919 11.0147 7.78499 11.0999L7.83499 11.1599L7.89499 11.2099M11.095 15.8099C11.34 15.9149 11.515 15.9949 11.665 16.2349C11.7056 16.3101 11.7263 16.3944 11.725 16.4799C11.725 16.6149 11.675 16.7649 11.56 16.8599C11.5154 16.9008 11.462 16.9311 11.404 16.9484C11.346 16.9657 11.2848 16.9697 11.225 16.9599C11.13 16.9499 11.04 16.8799 11.025 16.8299M8.69999 11.2049C8.83499 11.3149 8.89499 11.4149 8.89499 11.5799C8.90026 11.6549 8.88429 11.7298 8.84892 11.7961C8.81354 11.8625 8.7602 11.9175 8.69499 11.9549" stroke="#703D29" stroke-width="0.03"/>
<path d="M8.57499 11.8201C8.77499 12.0751 8.88999 12.2251 8.89499 12.5251C8.89999 12.8101 8.80999 13.0051 8.64499 13.2101" stroke="#703D29" stroke-width="0.03" stroke-linecap="round"/>
<path d="M12.49 8.46503C12.5268 8.438 12.5533 8.39919 12.565 8.35503C12.5917 8.2817 12.5883 8.21503 12.555 8.15503C12.5983 8.2217 12.61 8.28836 12.59 8.35503C12.585 8.40503 12.55 8.43003 12.51 8.47003M15.085 12.775V13.585L15.08 13.71L15.065 13.795" stroke="#703D29" stroke-width="0.03"/>
<path d="M15.07 12.7001V13.6951L15.045 13.8251M15.07 11.6751V12.4051M15.085 11.7351V12.3251M15.085 10.9851V11.4251M15.07 10.9301V11.4801M15.085 10.5301V10.7051M15.07 10.4951V10.7451M14.98 14.0051L14.96 14.0401C14.91 14.147 14.8404 14.2437 14.755 14.3251C14.6694 14.4089 14.5695 14.4767 14.46 14.5251C14.3572 14.5765 14.2479 14.6136 14.135 14.6351C14 14.6651 13.925 14.6751 13.79 14.6801C13.665 14.6801 13.595 14.6801 13.475 14.6701C13.34 14.6601 13.27 14.6451 13.135 14.6301C13.025 14.6201 12.965 14.6151 12.855 14.6151C12.745 14.6151 12.68 14.6151 12.57 14.6351C12.4808 14.6477 12.3935 14.6712 12.31 14.7051C12.175 14.7601 12.025 14.8551 11.99 14.8951C11.96 14.8551 11.805 14.7601 11.675 14.7051C11.5915 14.6712 11.5042 14.6477 11.415 14.6351C11.305 14.6151 11.24 14.6151 11.125 14.6151C11.01 14.6151 10.955 14.6201 10.845 14.6301C10.715 14.6451 10.645 14.6601 10.51 14.6701C10.385 14.6801 10.315 14.6851 10.195 14.6801C9.96192 14.6784 9.73187 14.6272 9.51999 14.5301C9.41187 14.4796 9.31365 14.4102 9.22999 14.3251L9.10499 14.1851M9.00499 14.0251C9.01349 14.0938 9.00766 14.1634 8.98787 14.2297C8.96807 14.2959 8.93474 14.3574 8.88999 14.4101C8.84999 14.4551 8.75999 14.5401 8.63999 14.5401C8.45499 14.5401 8.39999 14.4151 8.38999 14.3801" stroke="#703D29" stroke-width="0.03"/>
<path d="M8.78 13.9451C8.81333 13.9784 8.845 14.0201 8.875 14.0701C8.925 14.1601 8.905 14.3101 8.87 14.3801L8.855 14.4001M7.84 15.3001C7.95 15.4267 8.13166 15.5451 8.385 15.6551C8.74 15.8051 9.29 15.8351 9.67 15.8551C10.17 15.8701 10.635 15.8901 10.92 16.2051M11.785 16.0051C11.8768 16.0755 11.9462 16.171 11.985 16.2801M11.62 16.8551L11.585 16.8901C11.5409 16.9303 11.4884 16.9602 11.4313 16.9775C11.3742 16.9948 11.314 16.9991 11.255 16.9901C11.155 16.9801 11.065 16.9101 11.04 16.8601M10.77 16.7151L10.785 16.7351C10.8526 16.8047 10.9433 16.8473 11.04 16.8551M12.39 16.8551C12.2924 16.9905 12.1591 17.0961 12.005 17.1601C11.8527 17.0953 11.7212 16.9897 11.625 16.8551L11.61 16.8301M12.39 16.8501L12.425 16.8851C12.4696 16.926 12.523 16.9563 12.581 16.9736C12.639 16.9909 12.7002 16.9948 12.76 16.9851C12.8 16.9788 12.8384 16.9645 12.8728 16.943C12.9072 16.9216 12.9368 16.8933 12.96 16.8601L12.985 16.8251" stroke="#703D29" stroke-width="0.03"/>
<path d="M12.95 16.8301L12.915 16.8901L12.86 16.9401L12.775 16.9751H12.695" stroke="#703D29" stroke-width="0.03"/>
<path d="M13.15 16.2649C13.201 16.303 13.2421 16.3527 13.27 16.4099C13.2833 16.4432 13.2917 16.4816 13.295 16.5249C13.2979 16.6019 13.2711 16.6771 13.22 16.7349C13.1486 16.8079 13.052 16.8508 12.95 16.8549H12.93M12.94 16.8449C12.8914 16.8456 12.8432 16.8362 12.7984 16.8173C12.7537 16.7983 12.7133 16.7703 12.68 16.7349M15.865 13.3399C15.7677 13.2474 15.6865 13.1392 15.625 13.0199C15.5872 12.9488 15.5587 12.8732 15.54 12.7949C15.524 12.7413 15.5156 12.6858 15.515 12.6299C15.5095 12.3571 15.5899 12.0894 15.745 11.8649C15.78 11.8249 15.815 11.7749 15.85 11.7549M15.785 7.9599C15.91 7.9699 16.025 8.1099 16.025 8.2449C16.025 8.4349 15.96 8.5199 15.805 8.7099C15.675 8.8699 15.275 9.1599 15.29 9.4349C15.2933 9.48824 15.3117 9.5349 15.345 9.5749M15.185 9.7499C15.214 9.77891 15.2478 9.80261 15.285 9.8199C15.3197 9.8336 15.357 9.83936 15.3942 9.83676C15.4314 9.83417 15.4676 9.82328 15.5 9.8049M14.45 7.6499C14.4985 7.6817 14.5367 7.72685 14.56 7.7799C14.65 8.0049 14.45 8.1749 14.26 8.2999C14.1351 8.38403 13.9936 8.4403 13.845 8.4649" stroke="#703D29" stroke-width="0.03"/>
<path d="M14.23 8.08C14.2002 8.07983 14.1708 8.07301 14.144 8.06003C14.1172 8.04706 14.0936 8.02826 14.075 8.005L14.04 7.955M13.29 8.2L13.23 8.15C13.1733 8.10333 13.16 8.03 13.19 7.93C13.22 7.835 13.375 7.57 13.38 7.385C13.39 7.105 13.28 6.935 13.115 6.875" stroke="#703D29" stroke-width="0.03"/>
<path d="M13.365 7.32495L13.36 7.42495L13.33 7.53495L13.28 7.68495L13.23 7.77995L13.19 7.87495L13.17 7.93995L13.16 7.98995L13.165 8.03495M15.065 14.35L15.095 14.39C15.13 14.44 15.255 14.54 15.37 14.54C15.555 14.54 15.6 14.41 15.605 14.38C15.63 14.235 15.58 14.2 15.505 14.155C15.505 14.155 15.465 14.135 15.41 14.145" stroke="#703D29" stroke-width="0.03" stroke-linecap="round"/>
<path d="M7.85 13.72C7.78945 13.7366 7.72555 13.7366 7.665 13.72C7.52 13.675 7.405 13.54 7.465 13.37M8.135 11.78C8.14833 11.7967 8.155 11.8134 8.155 11.83C8.175 12.02 8.015 12.07 7.905 12.04C7.84391 12.0189 7.7913 11.9785 7.755 11.925C7.73415 11.8901 7.72214 11.8506 7.72 11.81M8.82 10.63C8.85 10.6534 8.87166 10.6817 8.885 10.715M8.83 10.29C8.85666 10.3134 8.875 10.335 8.885 10.355" stroke="#703D29" stroke-width="0.03"/>
<path d="M8.89499 10.525C8.87495 10.569 8.84794 10.6095 8.81499 10.645C8.75953 10.707 8.69177 10.7568 8.61602 10.7912C8.54027 10.8257 8.45819 10.844 8.37499 10.845C8.27499 10.8483 8.17499 10.82 8.07499 10.76C7.9773 10.6932 7.90643 10.594 7.87499 10.48" stroke="#703D29" stroke-width="0.03" stroke-linecap="round"/>
<path d="M8.77 9.76514C8.82429 9.81022 8.86569 9.86888 8.89 9.93514" stroke="#703D29" stroke-width="0.03"/>
<path d="M8.89 10.1599C8.845 10.3099 8.715 10.4899 8.46 10.5549C8.34 10.5849 8.18 10.5449 8.13 10.5049" stroke="#703D29" stroke-width="0.03" stroke-linecap="round"/>
<path d="M7.99999 10.1299C8.01499 10.2599 8.09999 10.3599 8.26999 10.3599C8.50499 10.3649 8.64999 10.0249 8.43999 9.78491" stroke="#703D29" stroke-width="0.03"/>
<path d="M7.47 11.2751C7.50333 11.3184 7.54334 11.3584 7.59 11.3951C7.67777 11.4699 7.77985 11.526 7.89 11.5601M8.15 11.5851C8.36 11.5601 8.48 11.4001 8.45 11.2201C8.435 11.0801 8.31 10.9701 8.22 10.9651" stroke="#703D29" stroke-width="0.03" stroke-linecap="round"/>
<path d="M8.49 9.40503C8.585 9.40503 8.64 9.48503 8.635 9.55503" stroke="#703D29" stroke-width="0.03"/>
<path d="M8.47 8.1499C8.5185 8.27313 8.6064 8.37685 8.72 8.4449M15.93 9.9949C16.015 10.1099 15.96 10.3449 15.73 10.3449C15.6847 10.3464 15.6398 10.3356 15.6002 10.3136C15.5605 10.2916 15.5276 10.2592 15.505 10.2199" stroke="#703D29" stroke-width="0.03" stroke-linecap="round"/>
<path d="M15.085 8.45508V9.25008" stroke="#703D29" stroke-width="0.03"/>
<path d="M8.19 10.1151C8.26 10.1651 8.355 10.0801 8.315 9.98506C8.29 9.92506 8.205 9.85506 8.08 9.94006C7.94 10.0351 7.98 10.3301 8.24 10.3351C8.475 10.3351 8.62 9.99506 8.41 9.75506C8.21 9.52506 7.845 9.57506 7.61 9.76506C7.4278 9.91418 7.30101 10.1202 7.25 10.3501C7.21902 10.5018 7.21902 10.6583 7.25 10.8101C7.27526 10.9436 7.3262 11.0709 7.4 11.1851L7.465 11.2701C7.505 11.3101 7.515 11.3301 7.565 11.3701C7.70851 11.4956 7.89445 11.5617 8.085 11.5551C8.315 11.5451 8.45 11.3851 8.425 11.1901C8.405 11.0001 8.215 10.9051 8.09 10.9951C8.005 11.0551 7.975 11.2401 8.125 11.2851C8.205 11.3101 8.28 11.2001 8.225 11.1351M14.7 7.54506C14.8333 7.47173 14.9383 7.48839 15.015 7.59506C15.0866 7.70048 15.1152 7.82925 15.095 7.95506C15.0767 8.07083 15.0139 8.17487 14.92 8.24506" stroke="#703D29" stroke-width="0.03" stroke-linecap="round"/>
<path d="M15.025 7.60013C15.18 7.50013 15.35 7.54513 15.44 7.68013C15.505 7.78013 15.525 7.86013 15.52 7.98513C15.5162 8.07987 15.4879 8.17201 15.438 8.25261C15.388 8.33321 15.3181 8.39953 15.235 8.44513" stroke="#703D29" stroke-width="0.03" stroke-linecap="round"/>
<path d="M15.75 7.95996C15.88 7.96996 15.98 8.08496 15.98 8.21496C15.98 8.40496 15.93 8.48996 15.78 8.67996C15.645 8.84496 15.25 9.12996 15.26 9.40996C15.26 9.51496 15.35 9.60996 15.425 9.61996" stroke="#703D29" stroke-width="0.03"/>
<path d="M15.77 10.1149C15.695 10.1649 15.605 10.0849 15.645 9.99492C15.67 9.93492 15.755 9.85492 15.88 9.93992C16.015 10.0349 15.98 10.3299 15.715 10.3349C15.48 10.3349 15.315 10.0049 15.545 9.75492C15.745 9.52492 16.13 9.56992 16.37 9.75992C16.47 9.83992 16.675 10.0599 16.72 10.3599C16.77 10.7099 16.765 11.1399 16.4 11.4099C16.25 11.5149 16.05 11.5649 15.87 11.5599C15.64 11.5499 15.505 11.3849 15.53 11.1899C15.555 10.9999 15.73 10.9199 15.865 10.9949C16 11.0699 15.98 11.2649 15.83 11.2849C15.745 11.2949 15.675 11.1999 15.73 11.1349" stroke="#703D29" stroke-width="0.03" stroke-linecap="round"/>
<path d="M15.645 9.99493C15.685 9.81993 15.83 9.80493 15.955 9.80493C16.28 9.80993 16.51 10.2049 16.515 10.5799C16.515 11.0549 16.315 11.3399 15.965 11.3549C15.87 11.3549 15.715 11.3149 15.715 11.2049" stroke="#703D29" stroke-width="0.03"/>
<path d="M15.85 9.91504C16.195 9.99504 16.315 10.305 16.315 10.605C16.315 10.85 16.29 11.185 15.815 11.3" stroke="#703D29" stroke-width="0.03" stroke-linecap="square"/>
<path d="M16.42 13.265C16.4256 13.2311 16.4221 13.1964 16.41 13.1644C16.3979 13.1323 16.3775 13.104 16.3509 13.0823C16.3244 13.0606 16.2926 13.0463 16.2587 13.0408C16.2249 13.0354 16.1902 13.0389 16.1582 13.0511C16.1261 13.0633 16.0979 13.0837 16.0762 13.1104C16.0546 13.137 16.0404 13.1688 16.035 13.2027C16.0296 13.2365 16.0333 13.2712 16.0455 13.3032C16.0578 13.3352 16.0783 13.3634 16.105 13.385" stroke="#703D29" stroke-width="0.03"/>
<path d="M15.72 12.97C15.79 13.07 15.87 13.175 16.035 13.27M15.97 13.795C15.81 13.685 15.495 13.545 15.22 13.685C15.1705 13.7051 15.1255 13.7349 15.0877 13.7727C15.0499 13.8105 15.0201 13.8555 15 13.905C14.9736 13.9853 14.968 14.071 14.9838 14.1541C14.9995 14.2371 15.0361 14.3149 15.09 14.38C15.135 14.43 15.225 14.51 15.34 14.515C15.53 14.515 15.575 14.385 15.58 14.355C15.6 14.215 15.52 14.16 15.48 14.15C15.445 14.135 15.34 14.14 15.32 14.215C15.31 14.245 15.3133 14.2783 15.33 14.315" stroke="#703D29" stroke-width="0.03" stroke-linecap="round"/>
<path d="M13.025 16.42C13.075 16.53 13.015 16.58 12.945 16.59C12.835 16.605 12.78 16.52 12.775 16.44C12.773 16.4103 12.777 16.3805 12.7868 16.3524C12.7966 16.3243 12.8121 16.2984 12.8322 16.2765C12.8523 16.2545 12.8766 16.2368 12.9037 16.2245C12.9309 16.2123 12.9602 16.2056 12.99 16.205C13.105 16.205 13.195 16.28 13.24 16.38C13.2567 16.4133 13.265 16.4533 13.265 16.5C13.268 16.5747 13.243 16.6478 13.195 16.705C13.1244 16.7798 13.0277 16.8246 12.925 16.83C12.715 16.835 12.55 16.64 12.55 16.44C12.55 16.055 13.12 15.84 13.35 15.79C13.6431 15.718 13.9432 15.6777 14.245 15.67C14.42 15.665 14.555 15.67 14.75 15.645C14.925 15.63 15.02 15.62 15.2 15.58C15.4347 15.5312 15.6521 15.4207 15.83 15.26C15.975 15.125 16.055 15.035 16.125 14.85C16.164 14.7362 16.1783 14.6153 16.1671 14.4955C16.1559 14.3757 16.1194 14.2597 16.06 14.155C16.0058 14.0628 15.9313 13.9841 15.842 13.9252C15.7527 13.8663 15.6511 13.8286 15.545 13.815C15.36 13.79 15.195 13.87 15.095 14.055C15.045 14.145 15.065 14.295 15.1 14.365C15.1246 14.4078 15.1593 14.4439 15.2012 14.4701C15.2431 14.4963 15.2907 14.5117 15.34 14.515C15.53 14.515 15.575 14.385 15.58 14.355C15.6 14.215 15.52 14.16 15.48 14.145C15.445 14.135 15.34 14.14 15.32 14.215C15.31 14.245 15.3133 14.2783 15.33 14.315" stroke="#703D29" stroke-width="0.03" stroke-linecap="round"/>
<path d="M12.86 15.8101C12.62 15.9151 12.44 15.9951 12.29 16.2351C12.2494 16.3103 12.2287 16.3946 12.23 16.4801C12.23 16.6151 12.285 16.7651 12.395 16.8601C12.4396 16.901 12.493 16.9313 12.551 16.9486C12.609 16.9659 12.6702 16.9698 12.73 16.9601C12.83 16.9501 12.915 16.8801 12.93 16.8301" stroke="#703D29" stroke-width="0.03" stroke-linecap="round"/>
<path d="M15.255 11.2051C15.14 11.2451 15.06 11.4151 15.06 11.5801C15.0547 11.6551 15.0707 11.73 15.1061 11.7963C15.1414 11.8627 15.1948 11.9177 15.26 11.9551" stroke="#703D29" stroke-width="0.03"/>
<path d="M15.38 11.8201C15.18 12.0751 15.065 12.2251 15.06 12.5251C15.06 12.8101 15.145 13.0051 15.315 13.2101" stroke="#703D29" stroke-width="0.03" stroke-linecap="round"/>
<path d="M14.295 7.60013L14.31 7.57513C14.395 7.45513 14.545 7.42013 14.655 7.50013C14.785 7.60013 14.82 7.77013 14.785 7.95013C14.755 8.06013 14.6883 8.15179 14.585 8.22513" stroke="#703D29" stroke-width="0.03"/>
<path d="M9.255 7.54005C9.125 7.47671 9.02 7.49338 8.94 7.59005C8.902 7.641 8.87522 7.69942 8.86143 7.76147C8.84764 7.82353 8.84716 7.88779 8.86 7.95005C8.89 8.08505 8.93 8.14005 9.035 8.24005" stroke="#703D29" stroke-width="0.03" stroke-linecap="round"/>
<path d="M8.93 7.59998C8.86427 7.55586 8.78376 7.53951 8.70602 7.5545C8.62828 7.56948 8.55962 7.61459 8.515 7.67998C8.45242 7.76867 8.42401 7.87699 8.435 7.98498C8.445 8.19498 8.575 8.36498 8.725 8.44498" stroke="#703D29" stroke-width="0.03"/>
<path d="M8.48501 7.73999C8.40443 7.75153 8.33039 7.79079 8.27564 7.85102C8.22088 7.91125 8.18883 7.98868 8.18501 8.06999C8.18501 8.29499 8.23501 8.38499 8.36001 8.54999C8.48501 8.71999 8.89501 9.02999 8.89501 9.38499C8.90167 9.59832 8.83001 9.73832 8.68001 9.80499C8.58001 9.85499 8.46501 9.80499 8.41001 9.75499C8.28001 9.63499 8.33501 9.42999 8.47001 9.40499C8.63501 9.37499 8.66501 9.63499 8.50501 9.61999" stroke="#703D29" stroke-width="0.03"/>
<path d="M8.19999 7.95996C8.07499 7.96996 7.94999 8.07496 7.94999 8.20996C7.94999 8.39996 8.02499 8.48996 8.17999 8.67996C8.30999 8.84496 8.68499 9.12996 8.67499 9.40496C8.67499 9.50496 8.59999 9.63496 8.52999 9.61996" stroke="#703D29" stroke-width="0.03"/>
<path d="M7.9 11.805C7.965 11.66 8.12 11.725 8.13 11.805C8.15 11.99 7.99 12.045 7.875 12.015C7.8484 12.0078 7.82356 11.9952 7.80205 11.978C7.78054 11.9608 7.76282 11.9393 7.75 11.915C7.71977 11.8582 7.71261 11.7919 7.73 11.73L7.775 11.65L7.835 11.59C7.87833 11.5666 7.935 11.5566 8.005 11.56C8.28 11.56 8.525 11.885 8.605 12.23C8.635 12.34 8.67 12.595 8.62 12.83C8.58098 13.0427 8.48011 13.2392 8.33 13.395C8.1872 13.5279 8.01631 13.627 7.83 13.685C7.76678 13.7051 7.69916 13.7068 7.635 13.69C7.495 13.645 7.405 13.515 7.475 13.34C7.535 13.21 7.745 13.14 7.84 13.31C7.85 13.3266 7.85666 13.3516 7.86 13.385C7.86 13.43 7.84 13.485 7.81 13.505C7.74 13.55 7.625 13.535 7.63 13.405" stroke="#703D29" stroke-width="0.03" stroke-linecap="round"/>
<path d="M7.69 13.52C7.74 13.54 7.77 13.535 7.835 13.51L7.925 13.46C8.055 13.385 8.205 13.27 8.345 13.005C8.38275 12.9339 8.41132 12.8583 8.43 12.78C8.44334 12.7266 8.45334 12.6716 8.46 12.615C8.4626 12.3411 8.3786 12.0733 8.22 11.85C8.165 11.77 8.12 11.725 8.01 11.72M7.535 13.27C7.52864 13.2361 7.53135 13.2012 7.54287 13.1688C7.55438 13.1363 7.57427 13.1075 7.60054 13.0852C7.6268 13.0629 7.65849 13.048 7.69239 13.042C7.72628 13.0359 7.76118 13.039 7.79352 13.0508C7.82586 13.0626 7.8545 13.0827 7.87653 13.1092C7.89856 13.1357 7.91318 13.1675 7.91892 13.2015C7.92466 13.2354 7.9213 13.2703 7.9092 13.3025C7.89709 13.3347 7.87667 13.3632 7.85 13.385" stroke="#703D29" stroke-width="0.03"/>
<path d="M7.61 13.0699C7.62068 13.0284 7.64443 12.9914 7.67774 12.9644C7.71105 12.9374 7.75216 12.9218 7.795 12.9199C7.84319 12.9212 7.88898 12.9413 7.9226 12.9758C7.95622 13.0104 7.97502 13.0567 7.975 13.1049C7.97445 13.1528 7.95671 13.199 7.925 13.2349" stroke="#703D29" stroke-width="0.03"/>
<path d="M7.97 13.0651C8.06486 12.9916 8.14198 12.8977 8.19564 12.7904C8.2493 12.6831 8.27813 12.565 8.28 12.4451C8.28 12.2401 8.2 12.0251 8.1 11.9451" stroke="#703D29" stroke-width="0.03"/>
<path d="M8.235 12.97C8.1578 13.0956 8.04924 13.199 7.92 13.27" stroke="#703D29" stroke-width="0.03" stroke-linecap="round"/>
<path d="M8.73 13.6851C8.68333 13.5784 8.58666 13.5201 8.44 13.5101C8.29666 13.5001 8.16 13.5318 8.03 13.6051C7.86938 13.6819 7.73358 13.8024 7.63811 13.9527C7.54263 14.103 7.49131 14.2771 7.49 14.4551C7.49197 14.6184 7.52595 14.7798 7.59 14.9301C7.635 15.0101 7.74 15.3801 8.355 15.6301C8.77098 15.7598 9.20426 15.8256 9.64 15.8251C10.16 15.8451 10.64 15.8651 10.92 16.2051" stroke="#703D29" stroke-width="0.03"/>
<path d="M7.985 13.795C8.15 13.685 8.46 13.545 8.74 13.685C8.78858 13.7057 8.83259 13.7357 8.86949 13.7735C8.90639 13.8113 8.93546 13.8559 8.955 13.905C8.98138 13.9853 8.98697 14.071 8.97123 14.1541C8.95549 14.2372 8.91894 14.3149 8.865 14.38C8.82 14.43 8.73 14.51 8.615 14.515C8.425 14.515 8.38 14.385 8.375 14.355C8.355 14.215 8.435 14.16 8.475 14.145C8.51 14.135 8.615 14.14 8.635 14.215C8.64833 14.245 8.645 14.2783 8.625 14.315" stroke="#703D29" stroke-width="0.03" stroke-linecap="round"/>
<path d="M8.635 14.285C8.655 14.2317 8.64167 14.1767 8.595 14.12C8.55745 14.0799 8.50771 14.0532 8.45348 14.0442C8.39925 14.0351 8.34355 14.0442 8.295 14.07C8.25834 14.09 8.21834 14.1267 8.175 14.18C8.15167 14.2034 8.13167 14.23 8.115 14.26C8.08167 14.3167 8.065 14.3584 8.065 14.385C7.94 14.735 8.14 15.105 8.39 15.265C8.61 15.405 8.83 15.445 9.11 15.465C9.235 15.48 9.31 15.48 9.435 15.49H10.275C10.425 15.505 10.53 15.51 10.655 15.53C10.7383 15.54 10.8283 15.5567 10.925 15.58C10.955 15.58 10.985 15.5867 11.015 15.6L11.075 15.615C11.2583 15.6684 11.4217 15.7384 11.565 15.825C11.6083 15.8484 11.65 15.8767 11.69 15.91L11.755 15.97C11.855 16.07 11.955 16.17 11.975 16.305V16.385C11.975 16.475 11.905 16.6 11.71 16.635" stroke="#703D29" stroke-width="0.03"/>
<path d="M10.93 16.42C10.88 16.53 10.94 16.58 11.01 16.59C11.12 16.605 11.175 16.52 11.185 16.44C11.1871 16.4099 11.1829 16.3796 11.1728 16.3512C11.1626 16.3227 11.1467 16.2967 11.1261 16.2746C11.1055 16.2526 11.0805 16.235 11.0528 16.223C11.0251 16.2111 10.9952 16.2049 10.965 16.205C10.9115 16.2091 10.8601 16.2275 10.8161 16.2583C10.7721 16.2891 10.7372 16.3311 10.715 16.38C10.6997 16.4182 10.6912 16.4588 10.69 16.5C10.687 16.5747 10.7119 16.6478 10.76 16.705C10.8306 16.7798 10.9273 16.8246 11.03 16.83C11.24 16.835 11.405 16.64 11.405 16.44C11.405 16.055 10.835 15.84 10.605 15.79C10.3118 15.7179 10.0118 15.6777 9.70999 15.67C9.53499 15.665 9.39999 15.67 9.20499 15.645C9.02999 15.63 8.93499 15.62 8.75499 15.58C8.52208 15.5303 8.30645 15.4199 8.12999 15.26C7.96353 15.1367 7.84779 14.957 7.80452 14.7544C7.76125 14.5519 7.79342 14.3405 7.89499 14.16C7.94858 14.0668 8.02291 13.9872 8.11222 13.9274C8.20153 13.8675 8.30342 13.8291 8.40999 13.815C8.60666 13.7917 8.75666 13.8717 8.85999 14.055C8.90999 14.145 8.88999 14.295 8.85499 14.365C8.83042 14.4078 8.79566 14.4439 8.75379 14.4701C8.71193 14.4962 8.66425 14.5117 8.61499 14.515C8.42499 14.515 8.37999 14.385 8.37499 14.355C8.35499 14.215 8.43499 14.16 8.47499 14.145C8.50999 14.135 8.61499 14.14 8.63499 14.215C8.64499 14.245 8.64166 14.2783 8.62499 14.315" stroke="#703D29" stroke-width="0.03"/>
<path d="M9.66499 7.60013L9.64499 7.57513C9.55999 7.45513 9.40999 7.42013 9.29999 7.50013C9.16999 7.60013 9.13499 7.77013 9.17499 7.95013C9.20313 8.06442 9.27493 8.16315 9.37499 8.22513" stroke="#703D29" stroke-width="0.03" stroke-linecap="round"/>
<path d="M14.34 7.98005C14.14 8.20005 13.935 8.27005 13.635 8.28005C13.535 8.28005 13.36 8.25005 13.255 8.17505C13.19 8.12505 13.115 8.04505 13.16 7.90005C13.19 7.80505 13.345 7.54005 13.35 7.35505C13.365 7.07505 13.255 6.92005 13.085 6.86005C12.775 6.75005 12.435 7.06005 12.235 7.13005C12.13 7.16505 12.075 7.17005 11.98 7.17005C11.88 7.17005 11.83 7.16505 11.72 7.13005C11.52 7.06005 11.185 6.75005 10.87 6.86005C10.7 6.92005 10.595 7.07505 10.605 7.36005C10.61 7.54005 10.765 7.81005 10.795 7.90005C10.845 8.04505 10.77 8.12505 10.7 8.17505C10.6 8.25005 10.415 8.28005 10.325 8.27505C10.025 8.27005 9.82 8.20005 9.62 7.98005" stroke="#703D29" stroke-width="0.03"/>
<path d="M10.865 15.72C10.905 15.735 10.875 15.71 11.13 15.82C11.3629 15.9008 11.5618 16.0575 11.695 16.265C11.7514 16.3779 11.7673 16.5067 11.74 16.63" stroke="#703D29" stroke-width="0.03" stroke-linecap="round"/>
<path d="M10.885 16.8C10.9346 16.826 10.9891 16.8413 11.045 16.845C11.255 16.85 11.42 16.655 11.42 16.455C11.42 16.315 11.345 16.195 11.24 16.105" stroke="#703D29" stroke-width="0.03"/>
<path d="M10.93 16.4201C10.88 16.5351 10.95 16.5951 11.02 16.6051C11.13 16.6151 11.19 16.5351 11.2 16.4551C11.2005 16.4137 11.1907 16.3729 11.1715 16.3363C11.1523 16.2996 11.1243 16.2683 11.09 16.2451" stroke="#703D29" stroke-width="0.03" stroke-linecap="round"/>
<path d="M15.505 7.73999C15.665 7.73999 15.805 7.91999 15.805 8.09999C15.805 8.31499 15.695 8.44499 15.61 8.53999C15.5467 8.61666 15.4733 8.69499 15.39 8.77499" stroke="#703D29" stroke-width="0.03"/>
<path d="M15.315 7.57014C15.3694 7.60004 15.4171 7.6409 15.455 7.69014C15.52 7.79014 15.54 7.87514 15.535 8.00014C15.525 8.21014 15.375 8.35514 15.235 8.45014M15 7.57014L15.03 7.60514C15.125 7.71514 15.13 7.87514 15.11 7.96514C15.0994 8.02107 15.0769 8.07409 15.0441 8.12065C15.0114 8.16722 14.9691 8.20625 14.92 8.23514M14.67 7.51514C14.8 7.61514 14.84 7.78514 14.795 7.96514C14.7617 8.08514 14.6917 8.1718 14.585 8.22514M15.14 10.2801C15.155 10.3301 15.185 10.3451 15.215 10.3801C15.3015 10.4642 15.4083 10.5245 15.525 10.5551C15.6483 10.5851 15.7533 10.5701 15.84 10.5101M7.68999 13.2101C7.75666 13.2135 7.81166 13.2518 7.85499 13.3251C7.86499 13.3385 7.87166 13.3635 7.87499 13.4001C7.87499 13.4501 7.85833 13.4868 7.82499 13.5101C7.74999 13.5601 7.62499 13.5351 7.62499 13.4101" stroke="#703D29" stroke-width="0.03" stroke-linecap="round"/>
<path d="M8.075 11.5649C8.325 11.6149 8.56 11.9099 8.635 12.2299C8.665 12.3449 8.7 12.5949 8.65 12.8299C8.60911 13.0456 8.50463 13.2441 8.35 13.3999L8.245 13.4949L8.195 13.5299M7.795 12.9249C7.895 12.9249 7.985 13.0199 7.985 13.1249C7.98445 13.1729 7.9667 13.219 7.935 13.2549" stroke="#703D29" stroke-width="0.03"/>
<path d="M7.73 13.0349C7.835 13.0349 7.935 13.1349 7.935 13.2449C7.93471 13.2735 7.92832 13.3016 7.91624 13.3275C7.90417 13.3534 7.88669 13.3764 7.865 13.3949" stroke="#703D29" stroke-width="0.03"/>
<path d="M8.7 11.9751C8.79347 12.0862 8.85865 12.2183 8.89 12.3601M8.89 12.7851C8.87351 12.8547 8.84831 12.9219 8.815 12.9851C8.76838 13.0728 8.70756 13.1522 8.635 13.2201" stroke="#703D29" stroke-width="0.03" stroke-linecap="round"/>
<path d="M8.715 11.2151C8.805 11.2884 8.86333 11.3684 8.89 11.4551" stroke="#703D29" stroke-width="0.03"/>
<path d="M8.89499 10.9749C8.86193 11.0665 8.80284 11.1464 8.72499 11.2049M8.26499 10.3449L8.37499 10.3149L8.43999 10.2649L8.47999 10.2099L8.51499 10.1199L8.52999 10.0449" stroke="#703D29" stroke-width="0.03" stroke-linecap="round"/>
<path d="M8.05 9.96509C8.01333 9.97509 7.97167 9.98842 7.925 10.0051C7.85463 10.039 7.79432 10.0907 7.75 10.1551C7.6314 10.3441 7.59189 10.5722 7.64 10.7901C7.66017 10.8899 7.6992 10.9849 7.755 11.0701L7.805 11.1401C7.875 11.2051 7.935 11.2401 8.035 11.2251" stroke="#703D29" stroke-width="0.03"/>
<path d="M8.64999 9.48999C8.63499 9.55499 8.59999 9.63499 8.49999 9.62499" stroke="#703D29" stroke-width="0.03" stroke-linecap="round"/>
<path d="M8.285 9.92493C8.185 9.82993 7.985 9.80493 7.78 9.93493L7.7 9.99993L7.63 10.0799C7.57732 10.1566 7.53684 10.2409 7.51 10.3299C7.475 10.4799 7.475 10.6099 7.48 10.6449C7.48 10.6949 7.485 10.7399 7.495 10.7799C7.52833 10.9199 7.56666 11.0233 7.61 11.0899C7.655 11.1649 7.76 11.3399 7.995 11.3599C8.085 11.3649 8.235 11.3249 8.245 11.2099" stroke="#703D29" stroke-width="0.03"/>
<path d="M14.19 7.8501C14.205 7.7701 14.305 7.7551 14.34 7.8001C14.4 7.8801 14.36 8.0101 14.24 8.0451C14.205 8.05139 14.1689 8.04822 14.1355 8.03592C14.1021 8.02361 14.0726 8.00262 14.05 7.9751C14 7.9101 14.005 7.8351 14.025 7.7751C14.0383 7.7351 14.0667 7.69843 14.11 7.6651C14.245 7.5651 14.465 7.5851 14.54 7.7651C14.63 7.9851 14.43 8.1551 14.24 8.2801C14.01 8.4401 13.74 8.4701 13.54 8.4651C13.08 8.4651 12.735 8.2451 12.505 8.1151C12.4483 8.09176 12.4033 8.09676 12.37 8.1301C12.355 8.15035 12.3483 8.17551 12.3511 8.20053C12.3538 8.22556 12.366 8.24862 12.385 8.2651" stroke="#703D29" stroke-width="0.03" stroke-linecap="round"/>
<path d="M14.28 7.7749C14.33 7.7749 14.34 7.7949 14.355 7.8149C14.415 7.8899 14.37 8.0199 14.255 8.0599M15.145 10.6349C14.97 10.8249 15.135 11.1499 15.265 11.2249C15.31 11.2599 15.33 11.2399 15.365 11.2599" stroke="#703D29" stroke-width="0.03" stroke-linecap="round"/>
<path d="M15.155 10.2701C15.105 10.3034 15.0783 10.3584 15.075 10.4351C15.0713 10.4715 15.0757 10.5083 15.0878 10.5429C15.0999 10.5774 15.1194 10.6089 15.145 10.6351C15.2719 10.7519 15.4375 10.8178 15.61 10.8201C15.71 10.8234 15.81 10.7951 15.91 10.7351C16.0053 10.6724 16.0732 10.5759 16.1 10.4651M15.06 13.5551L15.05 13.6801C15.0395 13.8021 15.0056 13.921 14.95 14.0301C14.8979 14.1356 14.8267 14.2306 14.74 14.3101C14.6544 14.3939 14.5545 14.4616 14.445 14.5101C14.3425 14.5632 14.2331 14.6019 14.12 14.6251C13.9028 14.6683 13.6803 14.6784 13.46 14.6551C13.325 14.6451 13.255 14.6301 13.12 14.6151C13.01 14.6101 12.95 14.6001 12.84 14.6001C12.6538 14.5952 12.4685 14.6275 12.295 14.6951C12.16 14.7451 12.01 14.8451 11.975 14.8851C11.945 14.8401 11.79 14.7451 11.66 14.6951C11.5767 14.6595 11.4894 14.6343 11.4 14.6201C11.29 14.6001 11.225 14.6001 11.11 14.6001C10.995 14.6001 10.94 14.6101 10.83 14.6201C10.7 14.6301 10.63 14.6501 10.495 14.6551C10.37 14.6651 10.3 14.6701 10.18 14.6651C10.0622 14.6643 9.9449 14.6509 9.83 14.6251C9.71712 14.6035 9.60776 14.5665 9.505 14.5151C9.39687 14.4646 9.29866 14.3952 9.215 14.3101C9.12776 14.2291 9.05652 14.1324 9.005 14.0251C8.95003 13.9175 8.91609 13.8004 8.905 13.6801C8.895 13.6301 8.895 13.5551 8.895 13.5551V8.46509H15.055L15.06 13.5551Z" stroke="#703D29" stroke-width="0.03"/>
<path d="M8.39999 14.28C8.39999 14.2469 8.41316 14.2151 8.4366 14.1916C8.46005 14.1682 8.49184 14.155 8.52499 14.155C8.55814 14.155 8.58994 14.1682 8.61338 14.1916C8.63682 14.2151 8.64999 14.2469 8.64999 14.28C8.64999 14.3132 8.63682 14.345 8.61338 14.3684C8.58994 14.3919 8.55814 14.405 8.52499 14.405C8.49184 14.405 8.46005 14.3919 8.4366 14.3684C8.41316 14.345 8.39999 14.3132 8.39999 14.28ZM7.62499 13.4C7.63166 13.33 7.66166 13.2917 7.71499 13.285C7.79499 13.275 7.79999 13.335 7.79999 13.4C7.79333 13.4667 7.76499 13.5034 7.71499 13.51C7.66166 13.5034 7.63166 13.4667 7.62499 13.4Z" fill="#C7B37F" stroke="#C7B37F" stroke-width="0.015"/>
<path d="M8.06499 11.18C8.07166 11.1234 8.09999 11.0934 8.14999 11.09C8.20333 11.0967 8.23166 11.1267 8.23499 11.18C8.23999 11.26 8.19999 11.27 8.14999 11.27C8.09999 11.27 8.06499 11.23 8.06499 11.18ZM9.59999 7.90005C9.59999 7.85005 9.62499 7.80005 9.66999 7.80005C9.71999 7.80005 9.75 7.82672 9.76 7.88005C9.76 7.93005 9.73499 7.98005 9.68999 7.98005C9.64333 7.98005 9.61333 7.95338 9.59999 7.90005Z" fill="#C7B37F"/>
<path d="M7.96502 11.7C7.94502 11.7033 7.93168 11.7116 7.92502 11.725C7.91168 11.735 7.90168 11.75 7.89502 11.77L7.88502 11.83M8.12002 13.165L8.17002 13.115L8.20002 13.065L8.22502 13.015L8.26002 12.95M8.19502 13.65L8.12002 13.685L8.06502 13.715L8.00002 13.755L7.94002 13.805M8.69002 11.91L8.65002 11.87L8.60002 11.83L8.55502 11.79" stroke="#C7B37F" stroke-width="0.03" stroke-linecap="round"/>
<path d="M8.71002 11.25L8.65002 11.275L8.57502 11.29" stroke="#C7B37F" stroke-width="0.03"/>
<path d="M7.87 10.4199C7.87667 10.4465 7.885 10.4715 7.895 10.4949C7.905 10.5282 7.92 10.5565 7.94 10.5799C7.97203 10.6345 8.01659 10.6808 8.07 10.7149L8.145 10.7549M8.095 10.4649L8.16 10.4949C8.20718 10.5158 8.2584 10.526 8.31 10.5249L8.4 10.5199M8.76 8.48486L8.66 8.42486C8.62 8.40153 8.58667 8.37653 8.56 8.34986L8.505 8.28486L8.465 8.21986M8.84 7.98986L8.87 8.07486L8.94 8.17486C8.99 8.22486 9.025 8.23986 9.08 8.28486M9.15 7.98486C9.16 8.01486 9.17167 8.04153 9.185 8.06486C9.19834 8.0882 9.21167 8.1082 9.225 8.12486L9.29 8.18986C9.32334 8.2132 9.35667 8.23153 9.39 8.24486" stroke="#C7B37F" stroke-width="0.03" stroke-linecap="round"/>
<path d="M12.665 7.57999C12.665 7.49499 12.58 7.48999 12.545 7.48999C12.455 7.48999 12.43 7.54499 12.315 7.60499C12.2157 7.67084 12.0991 7.70565 11.98 7.70499C11.8609 7.70565 11.7443 7.67084 11.645 7.60499C11.53 7.54499 11.51 7.48999 11.415 7.48999C11.3999 7.49063 11.3851 7.49425 11.3714 7.50063C11.3576 7.50701 11.3453 7.51603 11.3351 7.52718C11.3249 7.53832 11.317 7.55138 11.3118 7.56559C11.3066 7.5798 11.3043 7.59488 11.305 7.60999V7.65499L11.32 7.66499C11.32 7.63166 11.3283 7.60332 11.345 7.57999C11.3543 7.56757 11.3664 7.55749 11.3803 7.55055C11.3942 7.5436 11.4095 7.53999 11.425 7.53999C11.515 7.53999 11.55 7.59999 11.665 7.65999C11.815 7.73999 11.875 7.75499 12 7.75999C12.1208 7.76165 12.2393 7.7268 12.34 7.65999C12.455 7.59999 12.49 7.53499 12.58 7.53499C12.61 7.53499 12.6317 7.55166 12.645 7.58499V7.62999L12.655 7.63499C12.6583 7.62499 12.6617 7.60832 12.665 7.58499V7.57999Z" fill="#703D29" stroke="#703D29" stroke-width="0.01"/>
<path d="M9.22 14.7001C9.245 14.6751 9.265 14.6851 9.27 14.6701C9.27 14.6634 9.265 14.6584 9.255 14.6551L9.21001 14.6451L9.17 14.6251C9.16334 14.6218 9.155 14.6218 9.145 14.6251C9.14 14.6451 9.195 14.6451 9.175 14.6951L9.13501 14.7551L9.005 14.9051L8.995 14.9101V14.6951L9 14.6051C9.01 14.5851 9.04 14.6051 9.045 14.5851C9.045 14.5784 9.04 14.5734 9.03 14.5701C9.02 14.5668 9.00167 14.5618 8.975 14.5551L8.925 14.5301C8.91167 14.5268 8.90167 14.5268 8.895 14.5301L8.9 14.5451C8.91667 14.5518 8.925 14.5684 8.925 14.5951V14.9651C8.925 14.9884 8.92834 15.0001 8.93501 15.0001C8.93834 15.0001 8.945 14.9951 8.955 14.9851L9.22 14.7001Z" fill="#703D29"/>
<path d="M9.37501 14.76C9.39001 14.705 9.42501 14.74 9.42501 14.72C9.42834 14.7134 9.42501 14.7084 9.41501 14.705L9.35001 14.685C9.33001 14.6817 9.31001 14.675 9.29001 14.665H9.27001C9.26501 14.69 9.32501 14.69 9.31001 14.74L9.22501 15.015C9.21001 15.065 9.17501 15.045 9.17001 15.065V15.07L9.23001 15.09L9.31001 15.115H9.32501C9.33501 15.095 9.26501 15.1 9.29001 15.03L9.37501 14.76ZM9.56001 14.81C9.57001 14.7867 9.58501 14.78 9.60501 14.79C9.65834 14.81 9.67501 14.8517 9.65501 14.915C9.64501 14.945 9.63501 14.975 9.55501 14.955C9.53501 14.9517 9.52501 14.9434 9.52501 14.93L9.56001 14.815V14.81ZM9.42001 15.06C9.39501 15.13 9.36001 15.1 9.35501 15.12C9.35501 15.1267 9.36001 15.1317 9.37001 15.135L9.45001 15.155L9.49001 15.17H9.51001C9.51501 15.145 9.46001 15.155 9.47501 15.095L9.50501 14.995C9.50501 14.975 9.51501 14.97 9.53501 14.98C9.56167 14.9834 9.57501 14.9967 9.57501 15.02L9.59001 15.12C9.59334 15.1667 9.61001 15.2 9.64001 15.22C9.67334 15.2234 9.69667 15.2167 9.71001 15.2L9.70001 15.19H9.68501C9.68501 15.19 9.67001 15.19 9.67001 15.175L9.63501 14.995C9.63834 14.9884 9.65167 14.9834 9.67501 14.98C9.68746 14.9734 9.69836 14.9641 9.70697 14.9529C9.71559 14.9417 9.72174 14.9288 9.72501 14.915C9.73001 14.89 9.74501 14.805 9.63501 14.77L9.53001 14.745L9.47001 14.725H9.45501C9.45001 14.75 9.51001 14.745 9.49001 14.81L9.42001 15.06ZM9.84001 15.185C9.82001 15.255 9.77001 15.21 9.76501 15.235C9.76501 15.245 9.77001 15.25 9.78001 15.25L9.85501 15.265L9.92501 15.285C9.93834 15.2917 9.94834 15.29 9.95501 15.28C9.95501 15.265 9.89001 15.265 9.90501 15.19L9.97001 14.93C9.97001 14.9034 9.98001 14.895 10 14.905L10.05 14.915C10.105 14.93 10.075 14.99 10.1 14.995C10.1067 14.9917 10.11 14.9817 10.11 14.965L10.115 14.915V14.895L9.95001 14.86L9.79001 14.82C9.78334 14.82 9.78001 14.8234 9.78001 14.83L9.75501 14.905C9.74834 14.915 9.74834 14.9217 9.75501 14.925C9.78001 14.93 9.78001 14.85 9.84001 14.865L9.88501 14.875C9.90501 14.875 9.91167 14.8884 9.90501 14.915L9.84001 15.185ZM10.475 15.02C10.495 14.99 10.515 14.995 10.52 14.985C10.52 14.9784 10.5133 14.9734 10.5 14.97H10.455L10.41 14.955C10.4 14.9517 10.3933 14.9534 10.39 14.96C10.385 14.98 10.44 14.97 10.43 15.025C10.43 15.035 10.42 15.0567 10.4 15.09L10.3 15.255L10.285 15.265V15.255L10.25 15.055L10.245 14.965C10.245 14.94 10.28 14.955 10.28 14.94C10.2833 14.9334 10.2767 14.9284 10.26 14.925L10.205 14.92C10.185 14.92 10.1683 14.915 10.155 14.905C10.1417 14.9017 10.1317 14.9034 10.125 14.91L10.13 14.92C10.1533 14.9267 10.165 14.9417 10.165 14.965L10.23 15.33C10.2367 15.3534 10.2417 15.365 10.245 15.365C10.2483 15.365 10.255 15.36 10.265 15.35L10.475 15.02ZM10.505 15.36C10.505 15.37 10.5083 15.3784 10.515 15.385C10.5417 15.3984 10.57 15.41 10.6 15.42C10.67 15.43 10.73 15.385 10.74 15.31C10.755 15.235 10.725 15.205 10.67 15.165C10.605 15.12 10.58 15.11 10.585 15.065C10.595 15.0317 10.6183 15.015 10.655 15.015C10.745 15.03 10.735 15.145 10.745 15.145C10.7583 15.145 10.7633 15.1384 10.76 15.125L10.77 15.045V15.025H10.74C10.72 15.025 10.705 15 10.66 14.99C10.5933 14.9867 10.5517 15.02 10.535 15.09C10.5317 15.1434 10.5517 15.1834 10.595 15.21C10.675 15.265 10.705 15.28 10.695 15.33C10.685 15.38 10.6567 15.4017 10.61 15.395C10.55 15.385 10.53 15.325 10.52 15.265C10.52 15.255 10.5167 15.25 10.51 15.25C10.5033 15.2534 10.5 15.2617 10.5 15.275V15.36H10.505ZM11.295 15.135C11.31 15.1 11.335 15.105 11.335 15.09C11.335 15.0834 11.3283 15.08 11.315 15.08H11.27L11.225 15.075C11.215 15.075 11.2083 15.0784 11.205 15.085C11.205 15.105 11.255 15.085 11.255 15.14C11.255 15.15 11.2467 15.1734 11.23 15.21L11.14 15.385L11.135 15.4L11.13 15.385L11.075 15.185L11.06 15.105C11.06 15.08 11.095 15.09 11.095 15.075C11.0983 15.0684 11.0917 15.065 11.075 15.065H11.015L10.965 15.055C10.9517 15.0517 10.9417 15.0534 10.935 15.06L10.945 15.07C10.965 15.0767 10.9767 15.09 10.98 15.11L11.085 15.465L11.105 15.5C11.1117 15.5034 11.1167 15.4967 11.12 15.48L11.295 15.135Z" fill="#703D29"/>
<path d="M11.38 15.425C11.38 15.485 11.33 15.475 11.33 15.5C11.33 15.5066 11.335 15.5083 11.345 15.505H11.455L11.475 15.5C11.475 15.47 11.405 15.51 11.405 15.4V15.19L11.41 15.185L11.42 15.19L11.675 15.505L11.69 15.51L11.7 15.495V15.16C11.7 15.095 11.75 15.11 11.75 15.095C11.75 15.0916 11.745 15.0883 11.735 15.085H11.62C11.6133 15.085 11.61 15.0883 11.61 15.095C11.61 15.115 11.675 15.105 11.675 15.16V15.36L11.67 15.38L11.65 15.365L11.44 15.1C11.4367 15.0866 11.43 15.0816 11.42 15.085H11.33L11.32 15.09C11.32 15.12 11.38 15.08 11.38 15.195V15.425ZM11.9 15.15C11.9 15.095 11.94 15.115 11.94 15.095C11.9433 15.0883 11.9367 15.085 11.92 15.085H11.79C11.79 15.085 11.775 15.085 11.775 15.095C11.775 15.115 11.83 15.095 11.83 15.155V15.44C11.83 15.495 11.79 15.48 11.79 15.5C11.79 15.5033 11.7933 15.5066 11.8 15.51H11.94C11.95 15.51 11.955 15.5066 11.955 15.5C11.955 15.48 11.895 15.51 11.895 15.435L11.9 15.15ZM12.125 15.425C12.125 15.5 12.065 15.475 12.065 15.495C12.065 15.505 12.0717 15.5083 12.085 15.505H12.235C12.2517 15.505 12.26 15.5 12.26 15.49C12.26 15.475 12.19 15.49 12.19 15.42V15.15C12.1867 15.1266 12.195 15.1166 12.215 15.12H12.265C12.325 15.115 12.305 15.18 12.33 15.18C12.3367 15.1766 12.3383 15.1666 12.335 15.15L12.33 15.1C12.33 15.09 12.3267 15.0833 12.32 15.08L12.155 15.085H11.99L11.98 15.1L11.975 15.18L11.98 15.2C12.005 15.2 11.99 15.12 12.05 15.12H12.095C12.1117 15.1166 12.1217 15.1266 12.125 15.15V15.43V15.425ZM12.44 15.315H12.42L12.425 15.29L12.46 15.18V15.17L12.47 15.175L12.52 15.28L12.53 15.3C12.53 15.31 12.5233 15.3133 12.51 15.31L12.44 15.315ZM12.53 15.34C12.545 15.34 12.545 15.34 12.57 15.39L12.58 15.43C12.58 15.465 12.545 15.46 12.545 15.48C12.545 15.4866 12.5517 15.4866 12.565 15.48H12.625L12.69 15.475C12.7033 15.475 12.71 15.4716 12.71 15.465C12.71 15.445 12.68 15.465 12.66 15.43L12.49 15.08L12.475 15.06C12.4683 15.06 12.4633 15.0666 12.46 15.08L12.35 15.45C12.34 15.485 12.31 15.485 12.315 15.5H12.43C12.4433 15.5 12.4517 15.495 12.455 15.485C12.46 15.47 12.395 15.485 12.39 15.44L12.4 15.39C12.41 15.3566 12.42 15.3433 12.43 15.35L12.535 15.34H12.53ZM12.945 15.09C12.94 15.05 12.945 15.05 13.005 15.04C13.105 15.03 13.075 15.105 13.105 15.1C13.1117 15.0966 13.1117 15.0866 13.105 15.07L13.1 15.015C13.1 15.0083 13.095 15.005 13.085 15.005C13.0383 15.005 12.9983 15.01 12.965 15.02L12.825 15.04C12.815 15.04 12.81 15.0433 12.81 15.05C12.815 15.075 12.875 15.05 12.88 15.1L12.915 15.375C12.925 15.45 12.88 15.425 12.885 15.45H12.895L12.965 15.445L13.025 15.44C13.0417 15.44 13.05 15.435 13.05 15.425C13.05 15.41 12.99 15.43 12.98 15.365L12.97 15.28C12.9633 15.2466 12.9683 15.23 12.985 15.23H13.025C13.08 15.22 13.075 15.285 13.09 15.28C13.1033 15.2733 13.105 15.265 13.095 15.255L13.08 15.15C13.0767 15.1366 13.0733 15.1316 13.07 15.135C13.055 15.135 13.065 15.19 13.02 15.195L12.985 15.2C12.965 15.2066 12.955 15.1983 12.955 15.175L12.945 15.09ZM13.145 15.23C13.165 15.345 13.25 15.415 13.355 15.395C13.525 15.36 13.53 15.215 13.515 15.13C13.49 15.005 13.4 14.945 13.295 14.965C13.17 14.99 13.12 15.1 13.145 15.23ZM13.2 15.18C13.185 15.1 13.2 15.01 13.285 14.995C13.355 14.98 13.435 15.035 13.455 15.165C13.47 15.265 13.455 15.345 13.365 15.365C13.275 15.385 13.215 15.265 13.2 15.185V15.18ZM13.615 14.975C13.615 14.945 13.625 14.93 13.645 14.93C13.6983 14.9233 13.7333 14.95 13.75 15.01C13.76 15.045 13.765 15.08 13.685 15.1C13.6683 15.1033 13.655 15.1 13.645 15.09L13.62 14.975H13.615ZM13.615 15.26C13.635 15.33 13.59 15.325 13.59 15.34C13.5967 15.35 13.6033 15.3516 13.61 15.345C13.6367 15.3416 13.6633 15.335 13.69 15.325L13.74 15.315C13.75 15.315 13.7533 15.3116 13.75 15.305C13.75 15.285 13.7 15.32 13.685 15.255L13.66 15.155C13.66 15.135 13.65 15.135 13.68 15.13C13.7 15.12 13.7183 15.125 13.735 15.145L13.8 15.225C13.825 15.255 13.85 15.29 13.89 15.28C13.92 15.2733 13.9367 15.2583 13.94 15.235L13.93 15.23L13.915 15.235C13.915 15.235 13.9 15.24 13.895 15.235L13.775 15.09L13.8 15.06C13.8133 15.04 13.8167 15.0133 13.81 14.98C13.805 14.955 13.775 14.875 13.66 14.9L13.555 14.93L13.495 14.94C13.485 14.94 13.4817 14.9433 13.485 14.95C13.485 14.975 13.54 14.94 13.555 15L13.615 15.26ZM14.05 15.16C14.065 15.23 14 15.22 14.005 15.24C14.0083 15.25 14.0167 15.2533 14.03 15.25L14.1 15.225L14.175 15.21C14.1917 15.2133 14.1983 15.2066 14.195 15.19C14.195 15.175 14.13 15.21 14.11 15.14L14.045 14.875C14.0383 14.8516 14.0433 14.84 14.06 14.84L14.11 14.83C14.165 14.81 14.165 14.88 14.185 14.875C14.205 14.87 14.185 14.85 14.185 14.84L14.165 14.79C14.165 14.79 14.165 14.775 14.155 14.78L13.995 14.825L13.835 14.86V14.875L13.84 14.955C13.84 14.9683 13.845 14.975 13.855 14.975C13.88 14.97 13.84 14.895 13.905 14.88L13.945 14.87C13.965 14.8633 13.9767 14.8716 13.98 14.895L14.05 15.16ZM14.325 14.795C14.31 14.745 14.355 14.75 14.345 14.73H14.33L14.26 14.75L14.2 14.765C14.2 14.765 14.185 14.765 14.185 14.775C14.19 14.795 14.245 14.765 14.26 14.815L14.34 15.095C14.35 15.145 14.31 15.145 14.315 15.16C14.315 15.1666 14.3183 15.1683 14.325 15.165L14.38 15.15L14.46 15.13C14.4733 15.13 14.4783 15.125 14.475 15.115C14.47 15.1 14.42 15.14 14.4 15.07L14.325 14.795ZM14.44 14.93C14.475 15.045 14.57 15.1 14.675 15.065C14.835 15.01 14.825 14.86 14.795 14.78C14.755 14.66 14.655 14.615 14.555 14.645C14.435 14.69 14.395 14.805 14.44 14.93ZM14.49 14.88C14.46 14.795 14.46 14.705 14.545 14.68C14.61 14.655 14.695 14.7 14.74 14.825C14.77 14.915 14.765 15.005 14.68 15.035C14.59 15.065 14.52 14.96 14.49 14.875V14.88ZM14.87 14.605C14.8633 14.575 14.87 14.5583 14.89 14.555C14.9467 14.545 14.9867 14.5683 15.01 14.625C15.02 14.655 15.03 14.69 14.955 14.72C14.935 14.7266 14.9217 14.7266 14.915 14.72L14.87 14.605ZM14.91 14.885C14.94 14.955 14.89 14.955 14.9 14.97C14.9 14.98 14.9067 14.9816 14.92 14.975L14.995 14.94L15.04 14.93C15.05 14.9266 15.0533 14.9216 15.05 14.915C15.04 14.895 15 14.935 14.98 14.875L14.94 14.78C14.9267 14.7633 14.9317 14.7516 14.955 14.745C14.975 14.735 14.9933 14.74 15.01 14.76L15.09 14.83C15.115 14.855 15.145 14.885 15.19 14.87C15.205 14.86 15.235 14.835 15.225 14.82L15.215 14.815L15.205 14.825H15.18L15.04 14.7L15.06 14.665C15.0655 14.6524 15.0683 14.6387 15.0683 14.625C15.0683 14.6112 15.0655 14.5976 15.06 14.585C15.055 14.555 15.01 14.485 14.905 14.525L14.805 14.57L14.745 14.59L14.735 14.6C14.745 14.62 14.79 14.58 14.815 14.64L14.915 14.89L14.91 14.885Z" fill="#703D29"/>
<path d="M9.2064 8.77759H11.8336V11.4016H9.2064V8.77759Z" fill="#D52B1E"/>
<path d="M10.4384 10.8417C10.4384 10.8417 10.4384 10.9377 10.4128 11.0113C10.3808 11.0977 10.3808 11.0977 10.352 11.1393C10.3211 11.1901 10.2796 11.2338 10.2304 11.2673C10.1664 11.3078 10.1024 11.3249 10.0384 11.3185C9.86561 11.3057 9.78241 11.1137 9.74401 10.9601C9.70241 10.7969 9.58401 10.7041 9.50401 10.7681C9.46134 10.8043 9.45814 10.8534 9.49441 10.9153C9.52887 10.9568 9.57434 10.9879 9.62561 11.0049L9.53281 11.1233C9.53281 11.1233 9.33121 11.0977 9.29281 10.8865C9.27681 10.8065 9.31521 10.6593 9.44961 10.6145C9.61921 10.5569 9.72481 10.6785 9.77921 10.7809C9.84961 10.9217 9.88161 11.1777 10.08 11.1393C10.1888 11.1169 10.24 10.9601 10.24 10.8865L10.3168 10.8033L10.4352 10.8417H10.4384Z" fill="white"/>
<path d="M10.6016 10.8417C10.6016 10.8417 10.6016 10.9377 10.6272 11.0113C10.6592 11.0977 10.6592 11.0977 10.688 11.1393C10.7189 11.1901 10.7604 11.2338 10.8096 11.2673C10.8736 11.3078 10.9376 11.3249 11.0016 11.3185C11.1744 11.3057 11.2576 11.1137 11.296 10.9601C11.3376 10.7969 11.456 10.7041 11.536 10.7681C11.5787 10.8043 11.5819 10.8534 11.5456 10.9153C11.5111 10.9568 11.4657 10.9879 11.4144 11.0049L11.5072 11.1233C11.5072 11.1233 11.7088 11.0977 11.7472 10.8865C11.7632 10.8065 11.7248 10.6593 11.5904 10.6145C11.4208 10.5569 11.3152 10.6785 11.2608 10.7809C11.1904 10.9217 11.1584 11.1777 10.96 11.1393C10.8512 11.1169 10.8 10.9601 10.8 10.8865L10.7232 10.8033L10.6048 10.8417H10.6016Z" fill="white"/>
<path d="M10.7552 9.72818L11.1008 9.35378C11.1008 9.35378 11.152 9.31218 11.152 9.24498L11.0816 9.25778L11.0656 9.21938L11.0624 9.18418L11.1584 9.16178V9.12018L11.168 9.07858L11.0656 9.08498L11.0752 9.04018L11.0912 9.00818L11.152 8.99538H11.2128C11.2704 8.88658 11.5072 8.79058 11.6736 8.96338C11.7952 9.09138 11.7696 9.32178 11.6096 9.38578C11.5741 9.40297 11.5342 9.40882 11.4952 9.40252C11.4563 9.39622 11.4203 9.37809 11.392 9.35058L11.456 9.22258C11.5424 9.27698 11.616 9.21298 11.6096 9.14578C11.6032 9.05938 11.5456 9.00818 11.472 9.00178C11.3973 8.99965 11.344 9.03165 11.312 9.09778C11.2928 9.13938 11.3024 9.16818 11.296 9.21298C11.2896 9.26098 11.296 9.28658 11.28 9.33458C11.2641 9.37865 11.2378 9.4182 11.2032 9.44978L10.8512 9.83378L9.4752 11.3186L9.3728 11.2226L10.7552 9.72818Z" fill="#FEDF00"/>
<path d="M9.744 9.85601C9.744 9.85601 9.8304 10.2848 10.1248 10.928C10.2752 10.8736 10.3616 10.8384 10.5216 10.8384C10.6816 10.8384 10.7648 10.8704 10.9152 10.928C11.079 10.5849 11.2067 10.2256 11.296 9.85601L10.5216 8.86401L9.744 9.85601Z" fill="white"/>
<path d="M10.5952 9.19678L11.1328 9.89118C11.1328 9.89118 11.0624 10.2272 10.8448 10.7328C10.7584 10.7136 10.6848 10.6976 10.5952 10.6912V9.19678ZM10.4448 9.19678L9.90721 9.89118C9.90721 9.89118 9.97761 10.2272 10.1952 10.7328C10.2816 10.7136 10.3552 10.6976 10.4448 10.6912V9.19678Z" fill="#FEDF00"/>
<path d="M12.115 8.7749H14.745V11.3999H12.115V8.7749Z" fill="#FEDF00"/>
<path d="M12.485 8.7749H12.875V11.3999H12.485V8.7749ZM13.235 8.7749H13.625V11.3999H13.235V8.7749ZM13.985 8.7749H14.38V11.3999H13.985V8.7749Z" fill="#D52B1E"/>
<path d="M9.21499 13.6751C9.21832 13.7284 9.24165 13.8001 9.28499 13.8901C9.33499 13.9651 9.31499 13.9601 9.41999 14.0801C9.47818 14.1391 9.54576 14.1881 9.61999 14.2251C9.85644 14.3263 10.1133 14.3708 10.37 14.3551C10.5033 14.3484 10.6133 14.3367 10.7 14.3201C10.8823 14.2958 11.0662 14.2858 11.25 14.2901C11.3233 14.2901 11.4017 14.3001 11.485 14.3201C11.66 14.3551 11.835 14.4201 11.835 14.4201V11.6851H9.20499V13.5501L9.21499 13.6701V13.6751Z" fill="#FEDF00"/>
<path d="M9.51999 14.1549L9.64499 14.2299L9.81499 14.2899V11.6799H9.51999V14.1549ZM10.98 14.2749V11.6799H10.69V14.3199L10.98 14.2849V14.2749ZM11.565 11.6799H11.275V14.2849C11.3683 14.2983 11.465 14.3149 11.565 14.3349V11.6799ZM10.395 11.6799V14.3499C10.395 14.3499 10.205 14.3599 10.105 14.3499V11.6799H10.395Z" fill="#D52B1E" stroke="#D52B1E" stroke-width="0.015"/>
<path d="M14.736 13.6767C14.7244 13.7506 14.7006 13.8219 14.6656 13.8879C14.6176 13.9615 14.6336 13.9615 14.528 14.0799C14.4139 14.1932 14.2694 14.271 14.112 14.3039C13.9388 14.3495 13.7595 14.3668 13.5808 14.3551C13.4464 14.3466 13.3365 14.3359 13.2512 14.3231C13.1296 14.3039 13.0368 14.2943 12.8992 14.2911H12.7008C12.5011 14.3136 12.3047 14.3587 12.1152 14.4255V11.6799H14.7456V13.5519L14.736 13.6767Z" fill="#FEDF00"/>
<path d="M12.7872 11.9039L12.768 11.9103L12.7424 11.9359C12.7317 11.9465 12.7189 11.9551 12.704 11.9615L12.6848 11.9775C12.6752 11.9871 12.6848 11.9967 12.6752 12.0095C12.6731 12.0201 12.6667 12.0308 12.656 12.0415C12.6453 12.0521 12.6347 12.0628 12.624 12.0735L12.5856 12.1055L12.576 12.1087H12.5568C12.5461 12.1172 12.5376 12.1257 12.5312 12.1343L12.5408 12.1535L12.5664 12.1983C12.5707 12.2111 12.576 12.2196 12.5824 12.2239C12.5973 12.2303 12.6112 12.2313 12.624 12.2271C12.6453 12.2313 12.6667 12.2367 12.688 12.2431L12.736 12.2687C12.7488 12.2772 12.7627 12.2825 12.7776 12.2847H12.8352V12.2943L12.8992 12.3263L12.896 12.3391C12.8917 12.3497 12.8907 12.3583 12.8928 12.3647C12.9141 12.4265 12.9301 12.4607 12.9408 12.4671C12.9579 12.4756 12.9696 12.4916 12.976 12.5151L12.9664 12.5247C12.9451 12.5417 12.9269 12.5609 12.912 12.5823C12.8896 12.6207 12.8736 12.6207 12.9024 12.6719L12.9504 12.7487C12.9611 12.77 12.9696 12.7913 12.976 12.8127C12.9824 12.834 12.9856 12.8553 12.9856 12.8767L13.0176 12.8863L13.04 12.8671L13.0592 12.8287V12.7967C13.0528 12.7924 13.0507 12.7849 13.0528 12.7743C13.0528 12.7615 13.0688 12.7647 13.0752 12.7551C13.0848 12.7391 13.0624 12.7295 13.0528 12.7199C13.0336 12.6975 13.008 12.6911 13.0016 12.6591C12.9995 12.6527 13.0037 12.6452 13.0144 12.6367L13.0784 12.5791C13.0869 12.5833 13.0976 12.5844 13.1104 12.5823L13.152 12.5951C13.1691 12.5972 13.1819 12.5972 13.1904 12.5951H13.2032L13.2064 12.6143C13.2096 12.6463 13.2032 12.7103 13.2128 12.7263L13.2224 12.7455L13.2288 12.7647V12.8287L13.2224 12.8831C13.2224 12.8959 13.2171 12.9065 13.2064 12.9151C13.1957 12.9236 13.1851 12.9311 13.1744 12.9375V12.9695L13.2096 12.9855L13.2512 12.9951L13.2736 12.9855L13.2768 12.9663L13.2928 12.9503C13.3077 12.9481 13.3173 12.9471 13.3216 12.9471C13.3259 12.9407 13.3259 12.9321 13.3216 12.9215C13.3216 12.9044 13.3184 12.8873 13.312 12.8703L13.3088 12.7807C13.3088 12.7636 13.3109 12.7476 13.3152 12.7327C13.3184 12.7007 13.328 12.6879 13.3344 12.6623C13.3408 12.6345 13.3451 12.6079 13.3472 12.5823C13.4551 12.5989 13.5653 12.5924 13.6704 12.5631C13.696 12.5844 13.7248 12.6015 13.7568 12.6143V12.6463C13.7568 12.6548 13.7589 12.6623 13.7632 12.6687L13.7728 12.6783C13.7813 12.6783 13.7888 12.6761 13.7952 12.6719C13.8016 12.6676 13.8037 12.6601 13.8016 12.6495V12.6271H13.8592V12.6623C13.8635 12.6708 13.8688 12.6751 13.8752 12.6751H13.8944C13.9008 12.6665 13.904 12.6559 13.904 12.6431V12.6207L13.936 12.6079V12.6367L13.9264 12.6655C13.92 12.6847 13.9104 12.6911 13.9008 12.7103C13.8923 12.7273 13.8816 12.7433 13.8688 12.7583L13.8496 12.7807L13.8304 12.8095L13.8016 12.8415C13.7792 12.8607 13.7632 12.8479 13.7376 12.8703L13.728 12.9023L13.7728 12.9215L13.8144 12.9279L13.8272 12.9215C13.8272 12.9108 13.8304 12.9023 13.8368 12.8959C13.8432 12.8895 13.8507 12.8852 13.8592 12.8831C13.872 12.8831 13.8827 12.8809 13.8912 12.8767C13.8997 12.8639 13.9072 12.8479 13.9136 12.8287C13.9374 12.7813 13.97 12.739 14.0096 12.7039L14.064 12.6591C14.0725 12.6505 14.0779 12.6399 14.08 12.6271L14.0736 12.6079L14.0672 12.5759C14.1152 12.5983 14.0992 12.5983 14.1056 12.6207C14.1152 12.6399 14.1056 12.6527 14.1088 12.6751C14.112 12.7007 14.1248 12.7103 14.1248 12.7359C14.1248 12.7593 14.1216 12.7839 14.1152 12.8095C14.1152 12.8308 14.1099 12.8521 14.0992 12.8735C14.0914 12.892 14.0794 12.9084 14.064 12.9215L14.0448 12.9375L14.0416 12.9695L14.0768 12.9823L14.128 12.9951L14.1408 12.9855C14.1472 12.9631 14.1408 12.9311 14.1536 12.9311C14.1664 12.9311 14.1749 12.9279 14.1792 12.9215V12.8991L14.2016 12.7551L14.2144 12.6943L14.2272 12.6399C14.2496 12.5759 14.2208 12.5663 14.1952 12.5247C14.1803 12.5055 14.1728 12.4895 14.1728 12.4767V12.2943L14.1856 12.2879C14.224 12.2655 14.24 12.2591 14.2624 12.2079L14.272 12.1599V12.1279L14.2592 12.0959L14.24 12.0703C14.2176 12.0383 14.1856 12.0351 14.1536 12.0223C14.1056 12.0063 14.0736 12.0095 14.0256 12.0063C13.968 11.9999 13.9392 11.9999 13.8848 12.0063C13.8208 12.0063 13.7856 12.0191 13.7216 12.0287L13.5648 12.0415C13.4912 12.0415 13.424 12.0255 13.3792 12.0287C13.3024 12.0351 13.2992 12.0543 13.1808 12.0639L13.0592 12.0703L12.9888 12.0479C13.0176 12.0383 13.024 12.0319 13.0368 12.0159C13.0496 11.9999 13.0432 11.9935 13.056 11.9807L13.0784 11.9487L13.0496 11.9359H13.0176L12.9792 11.9455L12.9536 11.9647L12.8832 11.9263C12.8531 11.9111 12.8206 11.9014 12.7872 11.8975V11.9039Z" fill="#D52B1E"/>
<path d="M14.2016 12.3039L14.176 12.3135C14.1504 12.3242 14.1227 12.3295 14.0928 12.3295C14.0096 12.3359 13.9552 12.2943 13.8688 12.3007C13.824 12.3039 13.8048 12.3391 13.7568 12.3519L13.7024 12.3583L13.7184 12.3263C13.7184 12.3263 13.68 12.3359 13.6544 12.3359L13.6032 12.3295L13.6352 12.2975L13.5936 12.2911L13.5616 12.2687L13.616 12.2591C13.664 12.2463 13.68 12.2207 13.7408 12.2143C13.776 12.2143 13.8368 12.2143 13.984 12.2399C14.08 12.2559 14.1248 12.2463 14.16 12.2303C14.1813 12.2196 14.1931 12.2004 14.1952 12.1727C14.1952 12.1471 14.1867 12.1279 14.1696 12.1151C14.1653 12.113 14.1536 12.1087 14.1344 12.1023" stroke="#FEDF00" stroke-width="0.032" stroke-linecap="round"/>
<path d="M12.7936 12.019C12.7787 12.019 12.7648 12.0222 12.752 12.0286C12.7392 12.0393 12.7285 12.051 12.72 12.0638C12.7349 12.0702 12.7478 12.0734 12.7584 12.0734C12.7691 12.0734 12.7776 12.0681 12.784 12.0574C12.7925 12.0468 12.7968 12.034 12.7968 12.019H12.7936Z" fill="#FCD900" stroke="#FEDF00" stroke-width="0.016"/>
<path d="M13.152 12.4414L13.184 12.515C13.1904 12.5406 13.184 12.5534 13.1904 12.579V12.6303M13.408 12.4062L13.3984 12.4478L13.3664 12.5598V12.5823M13.0144 12.4543C13.0432 12.4607 13.0336 12.5599 13.0752 12.5823" stroke="#FEDF00" stroke-width="0.032" stroke-linecap="round"/>
<path d="M13.9232 12.6336L13.936 12.624C13.9684 12.6109 13.9978 12.5913 14.0224 12.5664" stroke="#FEDF00" stroke-width="0.032"/>
<path d="M13.6768 12.5758C13.7888 12.547 13.8656 12.4926 13.92 12.483M13.792 12.435H13.8176C13.8656 12.4254 13.872 12.4542 13.904 12.4734C13.9648 12.5054 13.9712 12.547 14.0416 12.5822L14.0544 12.5854L14.08 12.5982" stroke="#FEDF00" stroke-width="0.032" stroke-linecap="round"/>
<path d="M12.5664 12.1439H12.5888L12.6144 12.1375C12.6229 12.1375 12.6304 12.1396 12.6368 12.1439C12.6411 12.1439 12.6443 12.1471 12.6464 12.1535C12.6485 12.1599 12.6496 12.1652 12.6496 12.1695C12.6496 12.1759 12.6432 12.1801 12.6304 12.1823C12.624 12.1823 12.6187 12.1791 12.6144 12.1727V12.1599C12.6099 12.1621 12.605 12.1633 12.6 12.1633C12.595 12.1633 12.5901 12.1621 12.5856 12.1599L12.5664 12.1439Z" fill="#FCD900" stroke="#FEDF00" stroke-width="0.016"/>
<path d="M12.8032 12.4544L12.7392 12.4256C12.752 12.4213 12.7627 12.416 12.7712 12.4096C12.7776 12.3968 12.7829 12.3829 12.7872 12.368C12.7893 12.3467 12.7968 12.3317 12.8096 12.3232C12.8224 12.3147 12.8341 12.3136 12.8448 12.32C12.8597 12.3221 12.8693 12.3296 12.8736 12.3424C12.8736 12.3595 12.8704 12.3755 12.864 12.3904C12.8597 12.4075 12.8576 12.4224 12.8576 12.4352C12.8576 12.448 12.8619 12.4587 12.8704 12.4672L12.8064 12.4544H12.8032ZM12.7712 12.4864C12.7706 12.4827 12.7712 12.4789 12.7728 12.4754C12.7744 12.472 12.7769 12.4691 12.7801 12.4672C12.7834 12.4652 12.7871 12.4642 12.7909 12.4643C12.7946 12.4645 12.7983 12.4657 12.8013 12.4679C12.8044 12.4701 12.8068 12.4731 12.8081 12.4767C12.8095 12.4802 12.8097 12.484 12.8089 12.4877C12.8081 12.4914 12.8062 12.4948 12.8035 12.4974C12.8008 12.5 12.7973 12.5017 12.7936 12.5024C12.7908 12.5029 12.788 12.5027 12.7853 12.502C12.7826 12.5012 12.78 12.4999 12.7779 12.4981C12.7758 12.4962 12.7741 12.4939 12.7729 12.4914C12.7717 12.4888 12.7712 12.486 12.7712 12.4832V12.4864ZM12.7168 11.9552H12.7104C12.7019 11.9424 12.6955 11.9296 12.6912 11.9168L12.6816 11.8784V11.8144C12.6816 11.8037 12.6795 11.7941 12.6752 11.7856C12.6752 11.7792 12.6624 11.776 12.6656 11.7728H12.6784C12.6891 11.7728 12.6997 11.7771 12.7104 11.7856C12.7211 11.7941 12.7275 11.8048 12.7296 11.8176L12.7424 11.8656L12.752 11.8912L12.768 11.9104L12.7456 11.936L12.7168 11.9552ZM12.832 12.2944L12.9024 12.3264C12.9508 12.2977 12.9898 12.2554 13.0144 12.2048C13.0432 12.1472 13.0464 12.1184 13.0592 12.064L13.0016 12.048H12.9888C12.9728 12.1056 12.9664 12.1344 12.9376 12.1824C12.912 12.2251 12.8843 12.2571 12.8544 12.2784L12.832 12.2944ZM12.992 12.8768L13.0176 12.8352L13.0624 12.8H13.0752C13.0747 12.8305 13.0693 12.8608 13.0592 12.8896L13.0464 12.9216L13.0304 12.9376C13.0144 12.912 12.9888 12.896 12.9888 12.8736L12.992 12.8768ZM14.048 12.9344L14.0928 12.9536L14.1408 12.9824V12.9984L14.0928 13.0048H14.0192L14 12.992C14.016 12.9696 14.0256 12.9408 14.0448 12.9344H14.048ZM13.7344 12.8704L13.7792 12.8864L13.8272 12.9184V12.9312C13.7991 12.9388 13.7699 12.942 13.7408 12.9408L13.7088 12.9376L13.6864 12.928C13.7056 12.9056 13.7152 12.8736 13.7344 12.8704ZM13.1776 12.9376L13.2256 12.9536L13.2736 12.9856V13.0016C13.2443 13.0084 13.214 13.0106 13.184 13.008H13.152L13.1328 12.9952C13.1488 12.9728 13.1584 12.944 13.1776 12.9376ZM12.8896 11.984C12.8683 11.9712 12.8619 11.9541 12.8704 11.9328C12.8747 11.9285 12.8811 11.9243 12.8896 11.92C12.8939 11.9115 12.8939 11.9029 12.8896 11.8944L12.8864 11.8624L12.88 11.8304C12.8779 11.8133 12.8821 11.7963 12.8928 11.7792C12.9035 11.7685 12.912 11.7621 12.9184 11.76C12.9227 11.7664 12.9227 11.7749 12.9184 11.7856C12.9184 11.7984 12.9216 11.8112 12.928 11.824L12.9504 11.8656C12.9568 11.8805 12.9611 11.8955 12.9632 11.9104C12.9632 11.9232 12.9611 11.936 12.9568 11.9488L12.9376 11.9744L12.912 11.9872L12.8896 11.984Z" fill="#0065BD"/>
<path d="M12.7872 13.0752L12.768 13.0816L12.7424 13.1072C12.7317 13.1179 12.7189 13.1264 12.704 13.1328L12.6848 13.1488C12.6752 13.1584 12.6848 13.168 12.6752 13.1808C12.6731 13.1915 12.6667 13.2022 12.656 13.2128C12.6453 13.2235 12.6347 13.2342 12.624 13.2448L12.5856 13.2768L12.576 13.28H12.5568C12.5461 13.2886 12.5376 13.2971 12.5312 13.3056L12.5408 13.3248L12.5664 13.3696C12.5707 13.3824 12.576 13.391 12.5824 13.3952C12.5973 13.4016 12.6112 13.4027 12.624 13.3984C12.6453 13.4027 12.6667 13.408 12.688 13.4144L12.736 13.44C12.7488 13.4486 12.7627 13.4539 12.7776 13.456H12.8352V13.4656L12.8992 13.4976L12.896 13.5104C12.8917 13.5211 12.8907 13.5296 12.8928 13.536C12.9141 13.5979 12.9301 13.632 12.9408 13.6384C12.9579 13.647 12.9696 13.663 12.976 13.6864L12.9664 13.696C12.9451 13.7131 12.9269 13.7323 12.912 13.7536C12.8896 13.792 12.8736 13.792 12.9024 13.8432L12.9504 13.92C12.9611 13.9414 12.9696 13.9627 12.976 13.984C12.9824 14.0054 12.9856 14.0267 12.9856 14.048L13.0176 14.0576L13.04 14.0384L13.0592 14V13.968C13.0528 13.9638 13.0507 13.9563 13.0528 13.9456C13.0528 13.9328 13.0688 13.936 13.0752 13.9264C13.0848 13.9104 13.0624 13.9008 13.0528 13.8912C13.0336 13.8688 13.008 13.8624 13.0016 13.8304C12.9995 13.824 13.0037 13.8166 13.0144 13.808L13.0784 13.7504C13.0869 13.7547 13.0976 13.7558 13.1104 13.7536L13.152 13.7664C13.1691 13.7686 13.1819 13.7686 13.1904 13.7664H13.2032L13.2064 13.7856C13.2096 13.8176 13.2032 13.8816 13.2128 13.8976L13.2224 13.9168L13.2288 13.936V14L13.2224 14.0544C13.2224 14.0672 13.2171 14.0779 13.2064 14.0864C13.1957 14.095 13.1851 14.1024 13.1744 14.1088V14.1408L13.2096 14.1568L13.2512 14.1664L13.2736 14.1568L13.2768 14.1376L13.2928 14.1216C13.3077 14.1195 13.3173 14.1184 13.3216 14.1184C13.3259 14.112 13.3259 14.1035 13.3216 14.0928C13.3216 14.0758 13.3184 14.0587 13.312 14.0416L13.3088 13.952C13.3088 13.935 13.3109 13.919 13.3152 13.904C13.3184 13.872 13.328 13.8592 13.3344 13.8336C13.3408 13.8059 13.3451 13.7792 13.3472 13.7536C13.4551 13.7703 13.5653 13.7637 13.6704 13.7344C13.696 13.7558 13.7248 13.7728 13.7568 13.7856V13.8176C13.7568 13.8262 13.7589 13.8336 13.7632 13.84L13.7728 13.8496C13.7813 13.8496 13.7888 13.8475 13.7952 13.8432C13.8016 13.839 13.8037 13.8315 13.8016 13.8208V13.7984H13.8592V13.8336C13.8635 13.8422 13.8688 13.8464 13.8752 13.8464H13.8944C13.9008 13.8379 13.904 13.8272 13.904 13.8144V13.792L13.936 13.7792V13.808L13.9264 13.8368C13.92 13.856 13.9104 13.8624 13.9008 13.8816C13.8923 13.8987 13.8816 13.9147 13.8688 13.9296L13.8496 13.952L13.8304 13.9808L13.8016 14.0128C13.7792 14.032 13.7632 14.0192 13.7376 14.0416L13.728 14.0736L13.7728 14.0928L13.8144 14.0992L13.8272 14.0928C13.8272 14.0822 13.8304 14.0736 13.8368 14.0672C13.8432 14.0608 13.8507 14.0566 13.8592 14.0544C13.872 14.0544 13.8827 14.0523 13.8912 14.048C13.8997 14.0352 13.9072 14.0192 13.9136 14C13.9374 13.9527 13.97 13.9104 14.0096 13.8752L14.064 13.8304C14.0725 13.8219 14.0779 13.8112 14.08 13.7984L14.0736 13.7792L14.0672 13.7472C14.1152 13.7696 14.0992 13.7696 14.1056 13.792C14.1152 13.8112 14.1056 13.824 14.1088 13.8464C14.112 13.872 14.1248 13.8816 14.1248 13.9072C14.1248 13.9307 14.1216 13.9552 14.1152 13.9808C14.1152 14.0022 14.1099 14.0235 14.0992 14.0448C14.0914 14.0634 14.0794 14.0798 14.064 14.0928L14.0448 14.1088L14.0416 14.1408L14.0768 14.1536L14.128 14.1664L14.1408 14.1568C14.1472 14.1344 14.1408 14.1024 14.1536 14.1024C14.1664 14.1024 14.1749 14.0992 14.1792 14.0928V14.0704L14.2016 13.9264L14.2144 13.8656L14.2272 13.8112C14.2496 13.7472 14.2208 13.7376 14.1952 13.696C14.1803 13.6768 14.1728 13.6608 14.1728 13.648V13.4656L14.1856 13.4592C14.224 13.4368 14.24 13.4304 14.2624 13.3792L14.272 13.3312V13.2992L14.2592 13.2672L14.24 13.2416C14.2176 13.2096 14.1856 13.2064 14.1536 13.1936C14.1056 13.1776 14.0736 13.1808 14.0256 13.1776C13.968 13.1712 13.9392 13.1712 13.8848 13.1776C13.8208 13.1776 13.7856 13.1904 13.7216 13.2L13.5648 13.2128C13.4912 13.2128 13.424 13.1968 13.3792 13.2C13.3024 13.2064 13.2992 13.2256 13.1808 13.2352L13.0592 13.2416L12.9888 13.2192C13.0176 13.2096 13.024 13.2032 13.0368 13.1872C13.0496 13.1712 13.0432 13.1648 13.056 13.152L13.0784 13.12L13.0496 13.1072H13.0176L12.9792 13.1168L12.9536 13.136L12.8832 13.0976C12.8531 13.0825 12.8206 13.0728 12.7872 13.0688V13.0752Z" fill="#D52B1E"/>
<path d="M14.2016 13.475L14.176 13.4846C14.1504 13.4953 14.1227 13.5006 14.0928 13.5006C14.0096 13.507 13.9552 13.4654 13.8688 13.4718C13.824 13.475 13.8048 13.5102 13.7568 13.523L13.7024 13.5294L13.7184 13.4974C13.7184 13.4974 13.68 13.507 13.6544 13.507L13.6032 13.5006L13.6352 13.4686L13.5936 13.4622L13.5616 13.4398L13.616 13.4302C13.664 13.4174 13.68 13.3918 13.7408 13.3854C13.776 13.3854 13.8368 13.3854 13.984 13.411C14.08 13.427 14.1248 13.4174 14.16 13.4014C14.1813 13.3908 14.1931 13.3716 14.1952 13.3438C14.1952 13.3182 14.1867 13.299 14.1696 13.2862C14.1653 13.2841 14.1536 13.2798 14.1344 13.2734" stroke="#FEDF00" stroke-width="0.032" stroke-linecap="round"/>
<path d="M12.7936 13.1904C12.7787 13.1904 12.7648 13.1936 12.752 13.2C12.7392 13.2107 12.7285 13.2224 12.72 13.2352C12.7349 13.2416 12.7478 13.2448 12.7584 13.2448C12.7691 13.2448 12.7776 13.2395 12.784 13.2288C12.7925 13.2182 12.7968 13.2054 12.7968 13.1904H12.7936Z" fill="#FCD900" stroke="#FEDF00" stroke-width="0.016"/>
<path d="M13.152 13.6128L13.184 13.6864C13.1904 13.712 13.184 13.7248 13.1904 13.7504V13.8016M13.408 13.5776L13.3984 13.6192L13.3664 13.7312V13.7536M13.0144 13.6256C13.0432 13.632 13.0336 13.7312 13.0752 13.7536" stroke="#FEDF00" stroke-width="0.032" stroke-linecap="round"/>
<path d="M13.9232 13.8047L13.936 13.7951C13.9684 13.7821 13.9978 13.7624 14.0224 13.7375" stroke="#FEDF00" stroke-width="0.032"/>
<path d="M13.6768 13.7472C13.7888 13.7184 13.8656 13.664 13.92 13.6544M13.792 13.6064H13.8176C13.8656 13.5968 13.872 13.6256 13.904 13.6448C13.9648 13.6768 13.9712 13.7184 14.0416 13.7536L14.0544 13.7568L14.08 13.7696" stroke="#FEDF00" stroke-width="0.032" stroke-linecap="round"/>
<path d="M12.5664 13.315H12.5888L12.6144 13.3086C12.6229 13.3086 12.6304 13.3107 12.6368 13.315C12.6411 13.315 12.6443 13.3182 12.6464 13.3246C12.6485 13.331 12.6496 13.3363 12.6496 13.3406C12.6496 13.347 12.6432 13.3513 12.6304 13.3534C12.624 13.3534 12.6187 13.3502 12.6144 13.3438V13.331C12.6099 13.3332 12.605 13.3344 12.6 13.3344C12.595 13.3344 12.5901 13.3332 12.5856 13.331L12.5664 13.315Z" fill="#FCD900" stroke="#FEDF00" stroke-width="0.016"/>
<path d="M12.8032 13.6256L12.7392 13.5968C12.752 13.5925 12.7627 13.5872 12.7712 13.5808C12.7776 13.568 12.7829 13.5541 12.7872 13.5392C12.7893 13.5178 12.7968 13.5029 12.8096 13.4944C12.8224 13.4858 12.8341 13.4848 12.8448 13.4912C12.8597 13.4933 12.8693 13.5008 12.8736 13.5136C12.8736 13.5306 12.8704 13.5466 12.864 13.5616C12.8597 13.5786 12.8576 13.5936 12.8576 13.6064C12.8576 13.6192 12.8619 13.6298 12.8704 13.6384L12.8064 13.6256H12.8032ZM12.7712 13.6576C12.7706 13.6538 12.7712 13.65 12.7728 13.6466C12.7744 13.6432 12.7769 13.6403 12.7801 13.6383C12.7834 13.6363 12.7871 13.6353 12.7909 13.6355C12.7946 13.6356 12.7983 13.6368 12.8013 13.639C12.8044 13.6412 12.8068 13.6443 12.8081 13.6478C12.8095 13.6513 12.8097 13.6552 12.8089 13.6589C12.8081 13.6625 12.8062 13.6659 12.8035 13.6685C12.8008 13.6711 12.7973 13.6729 12.7936 13.6736C12.7908 13.674 12.788 13.6739 12.7853 13.6731C12.7826 13.6724 12.78 13.671 12.7779 13.6692C12.7758 13.6674 12.7741 13.6651 12.7729 13.6625C12.7717 13.66 12.7712 13.6572 12.7712 13.6544V13.6576ZM12.7168 13.1264H12.7104C12.7019 13.1136 12.6955 13.1008 12.6912 13.088L12.6816 13.0496V12.9856C12.6816 12.9749 12.6795 12.9653 12.6752 12.9568C12.6752 12.9504 12.6624 12.9472 12.6656 12.944H12.6784C12.6891 12.944 12.6997 12.9482 12.7104 12.9568C12.7211 12.9653 12.7275 12.976 12.7296 12.9888L12.7424 13.0368L12.752 13.0624L12.768 13.0816L12.7456 13.1072L12.7168 13.1264ZM12.832 13.4656L12.9024 13.4976C12.9508 13.4688 12.9898 13.4266 13.0144 13.376C13.0432 13.3184 13.0464 13.2896 13.0592 13.2352L13.0016 13.2192H12.9888C12.9728 13.2768 12.9664 13.3056 12.9376 13.3536C12.912 13.3962 12.8843 13.4282 12.8544 13.4496L12.832 13.4656ZM12.992 14.048L13.0176 14.0064L13.0624 13.9712H13.0752C13.0747 14.0017 13.0693 14.0319 13.0592 14.0608L13.0464 14.0928L13.0304 14.1088C13.0144 14.0832 12.9888 14.0672 12.9888 14.0448L12.992 14.048ZM14.048 14.1056L14.0928 14.1248L14.1408 14.1536V14.1696L14.0928 14.176H14.0192L14 14.1632C14.016 14.1408 14.0256 14.112 14.0448 14.1056H14.048ZM13.7344 14.0416L13.7792 14.0576L13.8272 14.0896V14.1024C13.7991 14.1099 13.7699 14.1131 13.7408 14.112L13.7088 14.1088L13.6864 14.0992C13.7056 14.0768 13.7152 14.0448 13.7344 14.0416ZM13.1776 14.1088L13.2256 14.1248L13.2736 14.1568V14.1728C13.2443 14.1796 13.214 14.1817 13.184 14.1792H13.152L13.1328 14.1664C13.1488 14.144 13.1584 14.1152 13.1776 14.1088ZM12.8896 13.1552C12.8683 13.1424 12.8619 13.1253 12.8704 13.104C12.8747 13.0997 12.8811 13.0954 12.8896 13.0912C12.8939 13.0826 12.8939 13.0741 12.8896 13.0656L12.8864 13.0336L12.88 13.0016C12.8779 12.9845 12.8821 12.9674 12.8928 12.9504C12.9035 12.9397 12.912 12.9333 12.9184 12.9312C12.9227 12.9376 12.9227 12.9461 12.9184 12.9568C12.9184 12.9696 12.9216 12.9824 12.928 12.9952L12.9504 13.0368C12.9568 13.0517 12.9611 13.0666 12.9632 13.0816C12.9632 13.0944 12.9611 13.1072 12.9568 13.12L12.9376 13.1456L12.912 13.1584L12.8896 13.1552Z" fill="#0065BD"/>
<path d="M9.205 8.7749H11.835V11.3999H9.205V8.7749ZM12.115 8.7749H14.745V11.3999H12.115V8.7749ZM9.215 13.6749C9.21833 13.7282 9.24167 13.7999 9.285 13.8899C9.335 13.9649 9.315 13.9599 9.42 14.0799C9.47819 14.139 9.54578 14.188 9.62 14.2249C9.85645 14.3261 10.1133 14.3706 10.37 14.3549C10.5033 14.3482 10.6133 14.3366 10.7 14.3199C10.8823 14.2957 11.0662 14.2856 11.25 14.2899C11.3233 14.2899 11.4017 14.2999 11.485 14.3199C11.66 14.3549 11.835 14.4199 11.835 14.4199V11.6849H9.205V13.5499L9.215 13.6699V13.6749ZM14.735 13.6749C14.7244 13.7501 14.7007 13.8229 14.665 13.8899C14.615 13.9649 14.635 13.9599 14.53 14.0799C14.4718 14.139 14.4042 14.188 14.33 14.2249C14.265 14.2599 14.215 14.2749 14.11 14.3049C13.9372 14.3501 13.7582 14.367 13.58 14.3549C13.4467 14.3449 13.3383 14.3332 13.255 14.3199L12.895 14.2899H12.7C12.6267 14.2899 12.5483 14.2999 12.465 14.3199C12.29 14.3549 12.115 14.4199 12.115 14.4199V11.6799H14.75V13.5549L14.74 13.6749H14.735Z" stroke="#703D29" stroke-width="0.025"/>
</g>
</g>
<defs>
<clipPath id="clip0_2214_2965">
<path d="M0 12C0 5.37258 5.37258 0 12 0C18.6274 0 24 5.37258 24 12C24 18.6274 18.6274 24 12 24C5.37258 24 0 18.6274 0 12Z" fill="white"/>
</clipPath>
<clipPath id="clip1_2214_2965">
<rect width="32" height="24" fill="white" transform="translate(-4)"/>
</clipPath>
</defs>
</svg>
