<svg width="24" height="24" viewBox="0 0 24 24" fill="none" xmlns="http://www.w3.org/2000/svg">
<g clip-path="url(#clip0_2214_3027)">
<path d="M24 12.0001C24 10.5323 23.736 9.12615 23.2536 7.82621L12 7.30444L0.746391 7.82616C0.264047 9.12615 0 10.5323 0 12.0001C0 13.4679 0.264047 14.8741 0.746391 16.174L12 16.6958L23.2536 16.174C23.736 14.8741 24 13.4679 24 12.0001Z" fill="#D80027"/>
<path d="M12 23.9999C17.1596 23.9999 21.5581 20.7434 23.2536 16.1738H0.746399C2.44191 20.7434 6.84043 23.9999 12 23.9999Z" fill="#6DA544"/>
<path d="M0.746399 7.82611H23.2537C21.5581 3.2565 17.1596 0 12 0C6.84043 0 2.44191 3.2565 0.746399 7.82611Z" fill="#338AF3"/>
<path d="M12.2603 15.3912C10.3874 15.3912 8.86903 13.8728 8.86903 11.9999C8.86903 10.1269 10.3874 8.60855 12.2603 8.60855C12.8443 8.60855 13.3938 8.75621 13.8735 9.01618C13.1209 8.28019 12.0917 7.82593 10.956 7.82593C8.65078 7.82593 6.7821 9.69465 6.7821 11.9998C6.7821 14.305 8.65082 16.1737 10.956 16.1737C12.0918 16.1737 13.121 15.7194 13.8735 14.9835C13.3938 15.2435 12.8443 15.3912 12.2603 15.3912Z" fill="white"/>
<path d="M14.869 9.6521L15.3182 10.9154L16.5292 10.3397L15.9535 11.5507L17.2168 11.9999L15.9535 12.4492L16.5292 13.6601L15.3182 13.0844L14.869 14.3478L14.4199 13.0844L13.2088 13.6601L13.7846 12.4492L12.5212 11.9999L13.7846 11.5507L13.2088 10.3397L14.4199 10.9154L14.869 9.6521Z" fill="white"/>
</g>
<defs>
<clipPath id="clip0_2214_3027">
<rect width="24" height="24" fill="white"/>
</clipPath>
</defs>
</svg>
