<svg width="24" height="24" viewBox="0 0 24 24" fill="none" xmlns="http://www.w3.org/2000/svg">
<g clip-path="url(#clip0_2214_3356)">
<g clip-path="url(#clip1_2214_3356)">
<path d="M0 0H32V24H0V0Z" fill="#E32118"/>
<path d="M0 0H32V16H0V0Z" fill="white"/>
<path d="M0 0H32V8H0V0Z" fill="#3E9A00"/>
<path d="M0 0V24L9 12L0 0Z" fill="#0073CE"/>
<path d="M14.08 9.58984H17.91V13.5998C17.91 14.9498 16.15 13.9098 16 14.6298C15.74 13.8898 14.09 14.9598 14.09 13.5198L14.08 9.58984Z" fill="white" stroke="black" stroke-width="0.05"/>
<path d="M16.27 13.9899C16.27 13.9899 16.22 14.0399 16.13 13.9999C16.04 13.9599 16.03 11.4299 16.03 11.4299C16.23 11.2099 16.39 11.1399 16.39 11.1399L16.51 11.2399C16.06 11.4699 16.1 11.7999 16.14 12.3699C16.15 12.5799 16.15 12.8499 16.2 13.1099C16.27 13.4399 16.41 13.7199 16.42 13.9299C16.43 14.0599 16.27 13.9899 16.27 13.9899Z" fill="#73452B" stroke="black" stroke-width="0.01"/>
<path d="M15.96 11.0801H16.14C15.99 12.5301 16.12 13.3901 16.12 13.8101C16.12 13.9501 16.2 14.0001 16.19 14.0001C16.01 14.2001 15.92 13.9901 15.92 13.9901L15.96 11.0801Z" fill="#73452B" stroke="black" stroke-width="0.01"/>
<path d="M15.68 13.9899C15.51 14.0699 15.49 13.9099 15.5 13.8899C15.87 13.1399 16.03 11.4899 15.69 11.3099L15.71 11.1499C15.84 11.1899 15.96 11.3599 15.96 11.3599C16.01 13.2099 15.96 13.9699 15.93 13.9999C15.75 14.1899 15.68 13.9699 15.67 13.9499" fill="#A36629"/>
<path d="M15.68 13.9899C15.51 14.0699 15.49 13.9099 15.5 13.8899C15.87 13.1399 16.03 11.4899 15.69 11.3099L15.71 11.1499C15.84 11.1899 15.96 11.3599 15.96 11.3599C16.01 13.2099 15.96 13.9699 15.93 13.9999C15.75 14.1899 15.68 13.9699 15.67 13.9499" stroke="black" stroke-width="0.01"/>
<path d="M15.67 13.96C15.64 13.8 15.93 13.39 15.91 12.96M16.16 13.31C16.2533 13.5566 16.29 13.7833 16.27 13.99" stroke="black" stroke-width="0.01"/>
<path d="M16.55 10.3999C16.61 10.3299 16.61 10.3299 16.72 10.3299C16.74 10.1799 16.99 10.1799 17.01 10.3699C17.21 10.3299 17.25 10.4499 17.17 10.5699C17.36 10.5199 17.53 10.5699 17.48 10.7899C17.82 10.8799 17.69 11.1199 17.54 11.1699C17.52 11.3199 17.38 11.3699 17.19 11.3099C16.95 11.4799 16.81 11.4199 16.7 11.2499C16.43 11.2899 16.41 11.2299 16.29 11.0799C16.08 11.1699 16.04 11.1699 15.86 11.0599C15.85 11.1999 15.8 11.1599 15.71 11.1499C15.7233 11.3365 15.65 11.4032 15.49 11.3499C15.61 11.5999 15.3 11.7099 15.15 11.4999C15.01 11.5099 15 11.4699 14.93 11.4199C14.87 11.6199 14.65 11.5899 14.61 11.4799C14.33 11.4399 14.36 11.2899 14.59 11.2799C14.61 11.1199 14.75 11.1499 14.84 11.1699C14.85 11.0699 14.91 11.0899 14.96 11.1099C14.9266 11.0432 14.9533 10.9999 15.04 10.9799C14.91 10.8099 14.99 10.7499 15.12 10.6899C15.05 10.5299 15.17 10.5399 15.26 10.5299C15.25 10.3599 15.3 10.3299 15.48 10.3099C15.46 10.2499 15.49 10.1999 15.59 10.1999C15.53 10.0299 15.61 9.98988 15.79 10.0199C15.82 9.76988 16.35 9.88988 16.31 10.2299C16.46 10.2499 16.51 10.2799 16.55 10.3999Z" fill="#009A3B" stroke="black" stroke-width="0.01"/>
<path d="M15.4799 10.31C15.5199 10.33 15.5699 10.31 15.5799 10.42C15.6599 10.28 15.7599 10.36 15.7599 10.52M16.3099 10.23C16.2699 10.29 16.1199 10.29 16.1399 10.45C16.0899 10.38 15.9899 10.36 15.9499 10.43M16.5499 10.4C16.5499 10.44 16.5399 10.56 16.4999 10.62M17.1699 10.57C17.1799 10.58 17.0299 10.57 16.9599 10.62M17.5399 11.17C17.4999 11.15 17.4199 11.1 17.3599 11.18C17.3599 11.14 17.3599 11.03 17.2499 11.03M17.1899 11.31C17.1899 11.21 17.1699 11.18 17.1499 11.15M16.8599 11.17C16.7799 11.11 16.6999 11.2 16.6999 11.25M16.2799 11.08C16.2799 11.04 16.2499 10.96 16.3199 10.93M15.1399 11.5C15.1599 11.4 15.2299 11.4 15.2199 11.35M15.2199 11.35C15.2099 11.27 15.1199 11.2 15.0099 11.31M15.2199 11.35C15.2866 11.3333 15.3333 11.34 15.3599 11.37M15.0499 10.98C15.0899 10.94 15.1899 10.95 15.2499 10.98M15.2499 10.74C15.2999 10.74 15.3899 10.72 15.4199 10.81C15.5299 10.64 15.6099 10.66 15.6299 10.7M15.8299 10.68C15.9099 10.65 16.0499 10.73 16.1299 10.87C16.1699 10.76 16.2299 10.78 16.2899 10.77M16.6699 10.87C16.7999 10.81 16.8799 10.93 16.9199 10.98C16.9799 10.9 17.0299 10.9 17.0899 10.9M15.4599 11.11C15.4899 11.06 15.5599 11.05 15.6099 11.08C15.5999 10.99 15.6599 10.95 15.6999 10.97" stroke="black" stroke-width="0.01"/>
<path d="M15.8699 9.02496L15.6499 9.03496L15.5399 9.23496L15.4199 9.04496L15.1999 9.05496L15.2999 8.85496L15.1799 8.66996L15.4099 8.65996L15.5099 8.45996L15.6299 8.64996L15.8499 8.63996L15.7499 8.83996L15.8699 9.02496ZM14.9299 9.09996L14.7099 9.14996L14.6499 9.36496L14.4899 9.20496L14.2799 9.25496L14.3399 9.04496L14.1899 8.88496L14.3999 8.82996L14.4599 8.61496L14.6199 8.77496L14.8399 8.72496L14.7699 8.93996L14.9299 9.09996ZM14.0199 9.28496L13.8199 9.38496L13.8099 9.60496L13.6199 9.48496L13.4199 9.58496L13.4399 9.35996L13.2499 9.23996L13.4499 9.13996L13.4699 8.91496L13.6499 9.03996L13.8499 8.93996L13.8399 9.15996L14.0199 9.28496ZM16.1599 9.02496L16.3799 9.03496L16.4799 9.23496L16.5999 9.04496L16.8199 9.05496L16.7199 8.85496L16.8399 8.66996L16.6199 8.65996L16.5099 8.45996L16.3899 8.64996L16.1699 8.63996L16.2699 8.83996L16.1599 9.02496ZM17.0999 9.09996L17.3099 9.14996L17.3699 9.36496L17.5299 9.20496L17.7399 9.25496L17.6799 9.04496L17.8399 8.88496L17.6199 8.82996L17.5599 8.61496L17.3999 8.77496L17.1899 8.72496L17.2499 8.93996L17.0999 9.09996ZM17.9999 9.28496L18.1999 9.38496L18.2099 9.60496L18.3999 9.48496L18.5999 9.58496L18.5899 9.35996L18.7699 9.23996L18.5699 9.13996L18.5599 8.91496L18.3699 9.03996L18.1699 8.93996L18.1899 9.15996L17.9999 9.28496Z" fill="#FFD700" stroke="black" stroke-width="0.035"/>
<path d="M18.2699 13.52L18.5199 13.88L18.7499 13.54L18.5899 13.25L18.2699 13.52ZM16.6799 14.57L16.6999 14.93C16.6999 14.93 16.7999 14.93 16.8899 14.9C16.9699 14.87 17.0399 14.81 17.0399 14.81L17.0299 14.62L16.6799 14.57ZM15.3399 14.57L15.3199 14.92C15.3199 14.92 15.2299 14.92 15.1399 14.9C15.0599 14.88 14.9899 14.83 14.9899 14.83L14.8899 14.59L15.3399 14.57ZM13.7299 13.52L13.4699 13.88L13.1899 13.42L13.3999 13.2L13.7299 13.52Z" fill="white" stroke="black" stroke-width="0.035"/>
<path d="M14.9799 15.2901C14.9799 15.6301 17.0399 15.6301 17.0399 15.2901V14.8101C17.0399 15.0601 14.9799 15.0101 14.9799 14.8101V15.2901Z" fill="white" stroke="black" stroke-width="0.035"/>
<path d="M13.1399 14.18C13.3199 15.1 14.9799 15.12 14.9799 15.12V14.81C14.9399 14.69 15.0099 14.65 15.2799 14.61C15.3899 14.6 15.3399 14.44 15.3399 14.44C15.3399 14.44 14.6199 14.57 14.1099 14.37C13.4199 14.09 13.3199 13.55 13.3199 13.55C13.3199 13.55 13.2699 13.97 13.1399 14.18ZM18.8699 14.18C18.6999 15.1 17.0399 15.12 17.0399 15.12V14.81C17.0699 14.69 16.9999 14.65 16.7299 14.61C16.6199 14.6 16.6799 14.44 16.6799 14.44C16.6799 14.44 17.3999 14.57 17.9099 14.37C18.5899 14.09 18.6699 13.55 18.6699 13.55C18.6699 13.55 18.7399 13.97 18.8699 14.18Z" fill="white" stroke="black" stroke-width="0.035"/>
<path d="M13.2699 13.8301C12.8099 13.5801 13.1699 13.3201 13.2099 12.5801C13.2799 13.0301 13.7899 13.2201 13.7299 13.5101C13.5199 13.5201 13.4199 13.2001 13.3199 13.5501L13.2699 13.8301ZM18.7399 13.8301C19.1999 13.5701 18.8199 13.3201 18.7799 12.5801C18.7099 13.0301 18.2099 13.2201 18.2699 13.5101C18.4699 13.5201 18.5699 13.2001 18.6699 13.5501L18.7399 13.8201V13.8301Z" fill="white" stroke="black" stroke-width="0.035"/>
<path d="M13.55 14.1699L13.6 14.2099L13.49 14.3299C13.4433 14.3766 13.435 14.4132 13.465 14.4399C13.4983 14.4732 13.5317 14.4666 13.565 14.4199L13.69 14.2899L13.73 14.3299L13.61 14.4699C13.545 14.5449 13.485 14.5299 13.43 14.4799C13.39 14.4399 13.36 14.3799 13.43 14.3049L13.55 14.1699ZM13.75 14.3399L13.8 14.3699L13.79 14.6099L13.9 14.4399L13.95 14.4699L13.79 14.7299L13.73 14.6999L13.74 14.4599L13.63 14.6299L13.58 14.5999L13.75 14.3399ZM13.84 14.7599L13.98 14.4799L14.03 14.5099L13.9 14.7799L13.84 14.7599ZM14.06 14.5199L13.95 14.8099L14.06 14.8499C14.1533 14.8799 14.2133 14.8482 14.24 14.7549C14.28 14.6682 14.2533 14.6032 14.16 14.5599L14.06 14.5199ZM14.1 14.5899C14.2 14.6249 14.21 14.6649 14.18 14.7399C14.15 14.8049 14.13 14.8299 14.03 14.7799L14.1 14.5899ZM14.39 14.6299L14.21 14.8999L14.28 14.9199L14.32 14.8499L14.44 14.8799L14.45 14.9499L14.52 14.9599L14.45 14.6399L14.39 14.6299ZM14.41 14.6999L14.43 14.8199L14.35 14.8099L14.41 14.6999ZM14.56 14.6549L14.55 14.9649H14.665C14.775 14.9699 14.805 14.9149 14.81 14.8149C14.81 14.7249 14.775 14.6649 14.665 14.6649L14.56 14.6549ZM14.62 14.7049C14.73 14.7099 14.745 14.7449 14.745 14.8199C14.74 14.8949 14.725 14.9249 14.615 14.9099V14.7099L14.62 14.7049ZM15.61 15.0899V15.4099H15.68V15.2899C15.68 15.2899 15.74 15.2899 15.79 15.2799C15.83 15.2732 15.8517 15.2399 15.855 15.1799C15.855 15.1199 15.8233 15.0899 15.76 15.0899H15.61ZM15.68 15.1399H15.75C15.805 15.1399 15.8 15.2299 15.75 15.2299H15.68V15.1399ZM15.97 15.0899L15.84 15.4099H15.91L15.94 15.3299H16.07L16.1 15.4099H16.17L16.04 15.0899H15.97ZM16 15.1599L16.05 15.2799H15.96L16 15.1599ZM16.17 15.3499L16.34 15.1399H16.19V15.0899H16.43V15.1399L16.25 15.3499H16.43V15.4099H16.17V15.3499ZM17.18 14.7299L17.24 14.7199L17.27 14.8999C17.2767 14.9666 17.255 15.0082 17.205 15.0249C17.155 15.0449 17.085 15.0249 17.08 14.9399L17.13 14.9299C17.1433 14.9732 17.16 14.9899 17.18 14.9799C17.2067 14.9666 17.2167 14.9432 17.21 14.9099L17.18 14.7299ZM17.28 14.7099L17.335 14.6999L17.365 14.8499C17.3717 14.9132 17.3967 14.9416 17.44 14.9349C17.4833 14.9282 17.4983 14.8949 17.485 14.8349L17.45 14.6799L17.51 14.6699L17.55 14.8349C17.57 14.9349 17.52 14.9699 17.45 14.9849C17.395 14.9949 17.33 14.9849 17.31 14.8849L17.28 14.7099ZM17.59 14.8499L17.64 14.8299C17.665 14.8749 17.7 14.8699 17.73 14.8599C17.77 14.8332 17.7783 14.8099 17.755 14.7899C17.725 14.7749 17.655 14.7999 17.62 14.7899C17.5733 14.7699 17.5533 14.7416 17.56 14.7049C17.5667 14.6582 17.595 14.6299 17.645 14.6199C17.6983 14.5999 17.7433 14.6166 17.78 14.6699L17.72 14.6899C17.6967 14.6599 17.6733 14.6532 17.65 14.6699C17.63 14.6799 17.6 14.6949 17.62 14.7199C17.63 14.7449 17.705 14.7299 17.745 14.7299C17.785 14.7299 17.815 14.7599 17.82 14.7949C17.8333 14.8482 17.8083 14.8849 17.745 14.9049C17.67 14.9349 17.6 14.9049 17.59 14.8499ZM17.86 14.5999L17.78 14.6399L17.76 14.5899L17.98 14.4999L18 14.5399L17.92 14.5799L18.01 14.7999L17.96 14.8299L17.86 14.5999ZM17.99 14.4899L18.04 14.4599L18.18 14.7199L18.13 14.7499L17.99 14.4899ZM18.33 14.5099L18.39 14.4899C18.3977 14.5088 18.4005 14.5294 18.398 14.5497C18.3955 14.57 18.3879 14.5893 18.3759 14.6058C18.3639 14.6223 18.3479 14.6355 18.3293 14.6441C18.3108 14.6527 18.2904 14.6564 18.27 14.6549C18.12 14.6549 18.1 14.4849 18.125 14.4299C18.165 14.3349 18.275 14.3399 18.325 14.3899L18.275 14.4299C18.245 14.3899 18.175 14.4149 18.175 14.4499C18.1707 14.479 18.175 14.5088 18.1874 14.5354C18.1999 14.5621 18.2199 14.5845 18.245 14.5999C18.295 14.6199 18.365 14.5599 18.33 14.5099ZM18.3 14.2999L18.35 14.2599L18.53 14.4999L18.48 14.5399L18.3 14.2999ZM18.49 14.1499L18.44 14.1899L18.55 14.4899L18.6 14.4399L18.57 14.3799L18.66 14.2999L18.72 14.3299L18.77 14.2899L18.49 14.1499ZM18.51 14.2199L18.61 14.2699L18.55 14.3299L18.51 14.2199Z" fill="black"/>
</g>
</g>
<defs>
<clipPath id="clip0_2214_3356">
<path d="M0 12C0 5.37258 5.37258 0 12 0C18.6274 0 24 5.37258 24 12C24 18.6274 18.6274 24 12 24C5.37258 24 0 18.6274 0 12Z" fill="white"/>
</clipPath>
<clipPath id="clip1_2214_3356">
<rect width="32" height="24" fill="white"/>
</clipPath>
</defs>
</svg>
