<svg width="24" height="24" viewBox="0 0 24 24" fill="none" xmlns="http://www.w3.org/2000/svg">
<g clip-path="url(#clip0_2214_4179)">
<g clip-path="url(#clip1_2214_4179)">
<mask id="mask0_2214_4179" style="mask-type:luminance" maskUnits="userSpaceOnUse" x="0" y="0" width="32" height="24">
<path d="M0 0H32V24H0V0Z" fill="white"/>
</mask>
<g mask="url(#mask0_2214_4179)">
<path d="M0 0H36V24H0V0Z" fill="#FF0000"/>
<path d="M0 0H18V12H0V0Z" fill="#000095"/>
<path d="M7.7 6.3449L7.575 6.8249L8.045 6.9549L7.955 6.5999L7.7 6.3449ZM10.045 6.5999L9.955 6.9549L10.425 6.8249L10.3 6.3449L10.045 6.5999ZM7.955 5.3999L7.7 5.6549L7.795 5.9999L7.955 5.3999Z" fill="white"/>
<path d="M7.795 6L7.7 6.345L7.955 6.6L7.795 6Z" fill="white"/>
<path d="M7.7 5.65503L7.35501 6.00003L7.7 6.34503L7.795 6.00003L7.7 5.65503ZM8.4 7.04503L8.65501 7.30003L9 7.20503L8.4 7.04503ZM9.345 7.30003L9.825 7.42503L9.95501 6.95503L9.6 7.04503L9.345 7.30003Z" fill="white"/>
<path d="M9.59999 7.0451L9.955 6.9551L10.045 6.6001L9.59999 7.0451ZM8.04499 6.9551L8.17499 7.4251L8.65499 7.3001L8.39999 7.0451L8.04499 6.9551ZM8.99999 7.2051L9.34499 7.3001L9.59999 7.0451L8.99999 7.2051Z" fill="white"/>
<path d="M8.655 7.29992L9 7.64492L9.345 7.29992L9 7.20492L8.655 7.29992ZM8.045 5.04492L7.575 5.17492L7.7 5.65492L7.955 5.39992L8.045 5.04492ZM7.955 6.59992L8.045 6.95492L8.4 7.04492L7.955 6.59992ZM10.205 5.99992L10.3 5.65492L10.045 5.39992L10.205 5.99992Z" fill="white"/>
<path d="M8.40001 4.95508L8.04501 5.04508L7.95501 5.40008L8.40001 4.95508ZM10.045 5.40008L9.95501 5.04508L9.60001 4.95508L10.045 5.40008ZM10.3 6.34508L10.645 6.00008L10.3 5.65508L10.205 6.00008L10.3 6.34508Z" fill="white"/>
<path d="M10.045 5.39992L9.59999 4.95492L8.99999 4.79492L8.39999 4.95492L7.95499 5.39992L7.79499 5.99992L7.95499 6.59992L8.39999 7.04492L8.99999 7.20492L9.59999 7.04492L10.045 6.59992L10.205 5.99992L10.045 5.39992Z" fill="white"/>
<path d="M10.045 6.59995L10.3 6.34495L10.205 5.99995L10.045 6.59995ZM10.3 5.65495L10.425 5.17495L9.955 5.04495L10.045 5.39995L10.3 5.65495ZM9.955 5.04495L9.82499 4.57495L9.34499 4.69995L9.59999 4.95495L9.955 5.04495ZM8.65499 4.69995L8.17499 4.57495L8.04499 5.04495L8.39999 4.95495L8.65499 4.69995ZM8.99999 4.79495L8.65499 4.69995L8.39999 4.95495L8.99999 4.79495Z" fill="white"/>
<path d="M9.345 4.69998L9 4.35498L8.655 4.69998L9 4.79498L9.345 4.69998Z" fill="white"/>
<path d="M9.6 4.95495L9.345 4.69995L9.00001 4.79495L9.6 4.95495ZM8.65501 7.29995L8.175 7.42495L8.4 8.25495L9.00001 7.64495L8.65501 7.29995ZM8.4 8.25495L9.00001 10.5L9.6 8.25495L9.00001 7.64495L8.4 8.25495ZM8.045 6.95495L7.575 6.82495L7.35501 7.64495L8.175 7.42495L8.045 6.95495Z" fill="white"/>
<path d="M7.355 7.6451L6.755 9.9001L8.4 8.2551L8.175 7.4251L7.355 7.6451ZM6.755 6.6001L5.1 8.2551L7.355 7.6451L7.575 6.8251L6.755 6.6001Z" fill="white"/>
<path d="M7.7 6.34505L7.355 6.00005L6.755 6.60005L7.575 6.82505L7.7 6.34505ZM7.7 5.65505L7.575 5.17505L6.755 5.40005L7.355 6.00005L7.7 5.65505Z" fill="white"/>
<path d="M6.755 5.3999L4.5 5.9999L6.755 6.5999L7.355 5.9999L6.755 5.3999ZM11.255 6.5999L10.425 6.8249L10.645 7.6449L12.9 8.2549L11.255 6.5999Z" fill="white"/>
<path d="M9.955 6.955L9.825 7.425L10.645 7.645L10.425 6.825L9.955 6.955ZM9.345 7.3L9 7.645L9.6 8.255L9.825 7.425L9.345 7.3ZM10.3 6.345L10.425 6.825L11.255 6.6L10.645 6L10.3 6.345Z" fill="white"/>
<path d="M9.6 8.25498L11.255 9.89998L10.645 7.64498L9.825 7.42498L9.6 8.25498ZM9.955 5.04498L10.425 5.17498L10.645 4.35498L9.825 4.57498L9.955 5.04498Z" fill="white"/>
<path d="M11.255 5.4001L12.9 3.7551L10.645 4.3551L10.425 5.1751L11.255 5.4001ZM10.645 4.3551L11.255 2.1001L9.6 3.7551L9.825 4.5751L10.645 4.3551ZM11.255 6.6001L13.5 6.0001L11.255 5.4001L10.645 6.0001L11.255 6.6001Z" fill="white"/>
<path d="M10.3 5.6551L10.645 6.0001L11.255 5.4001L10.425 5.1751L10.3 5.6551ZM8.4 3.7551L6.755 2.1001L7.355 4.3551L8.175 4.5751L8.4 3.7551Z" fill="white"/>
<path d="M8.045 5.04498L8.175 4.57498L7.35501 4.35498L7.575 5.17498L8.045 5.04498Z" fill="white"/>
<path d="M7.355 4.35488L5.1 3.75488L6.755 5.39988L7.575 5.17488L7.355 4.35488ZM9.345 4.69988L9.825 4.57488L9.6 3.75488L9 4.35488L9.345 4.69988Z" fill="white"/>
<path d="M9.6 3.755L9 1.5L8.4 3.755L9 4.355L9.6 3.755Z" fill="white"/>
<path d="M8.655 4.69988L9 4.35488L8.4 3.75488L8.175 4.57488L8.655 4.69988Z" fill="white"/>
<path d="M9 8.55507C10.4111 8.55507 11.555 7.41116 11.555 6.00007C11.555 4.58898 10.4111 3.44507 9 3.44507C7.58891 3.44507 6.445 4.58898 6.445 6.00007C6.445 7.41116 7.58891 8.55507 9 8.55507Z" fill="#000095"/>
<path d="M9 8.25512C10.2454 8.25512 11.255 7.24552 11.255 6.00012C11.255 4.75471 10.2454 3.74512 9 3.74512C7.75459 3.74512 6.745 4.75471 6.745 6.00012C6.745 7.24552 7.75459 8.25512 9 8.25512Z" fill="white"/>
</g>
</g>
</g>
<defs>
<clipPath id="clip0_2214_4179">
<path d="M0 12C0 5.37258 5.37258 0 12 0C18.6274 0 24 5.37258 24 12C24 18.6274 18.6274 24 12 24C5.37258 24 0 18.6274 0 12Z" fill="white"/>
</clipPath>
<clipPath id="clip1_2214_4179">
<rect width="32" height="24" fill="white"/>
</clipPath>
</defs>
</svg>
