<svg width="24" height="24" viewBox="0 0 24 24" fill="none" xmlns="http://www.w3.org/2000/svg">
<g clip-path="url(#clip0_3905_6842)">
<path d="M0.0303955 0H24.0304V24H0.0303955V0Z" fill="#DA2032"/>
<path d="M8.03195 0H16.0288V24H8.03195V0Z" fill="#0066B3"/>
<path d="M4.02884 10.8563C4.93493 10.8563 5.66946 10.1217 5.66946 9.21563C5.66946 8.30953 4.93493 7.575 4.02884 7.575C3.12275 7.575 2.38821 8.30953 2.38821 9.21563C2.38821 10.1217 3.12275 10.8563 4.02884 10.8563Z" fill="#FFD900"/>
<path d="M4.02883 10.2609C5.01777 10.2609 5.81946 9.45925 5.81946 8.47031C5.81946 7.48138 5.01777 6.67969 4.02883 6.67969C3.0399 6.67969 2.2382 7.48138 2.2382 8.47031C2.2382 9.45925 3.0399 10.2609 4.02883 10.2609Z" fill="#DA2032"/>
<path d="M4.02884 9.96094C4.68899 9.96094 5.22415 9.42578 5.22415 8.76562C5.22415 8.10547 4.68899 7.57031 4.02884 7.57031C3.36869 7.57031 2.83353 8.10547 2.83353 8.76562C2.83353 9.42578 3.36869 9.96094 4.02884 9.96094Z" fill="#FFD900"/>
<path d="M4.1554 4.88906C4.09534 4.91699 4.04375 4.96033 4.00587 5.01467C3.968 5.06902 3.94519 5.13242 3.93978 5.19844C3.9304 5.30156 3.97728 5.41406 3.98196 5.5125C3.98196 5.68594 3.80384 5.74219 3.80384 5.98594C3.80384 6.07031 3.88353 6.16406 3.88353 6.37969C3.86946 6.49688 3.80384 6.52031 3.73353 6.52969C3.71347 6.53108 3.69335 6.52815 3.67452 6.5211C3.65569 6.51405 3.63859 6.50305 3.62438 6.48884C3.61016 6.47462 3.59916 6.45752 3.59211 6.43869C3.58507 6.41986 3.58214 6.39974 3.58353 6.37969C3.58316 6.36053 3.58672 6.3415 3.59397 6.32377C3.60123 6.30604 3.61203 6.28997 3.62571 6.27656L3.63978 6.2625C3.67259 6.22969 3.71946 6.21563 3.71946 6.12188C3.71946 6.075 3.69134 6.0375 3.66321 5.95313C3.64916 5.90366 3.64693 5.85159 3.6567 5.80111C3.66647 5.75063 3.68797 5.70315 3.71946 5.6625C3.61634 5.7 3.55071 5.80313 3.5179 5.89219C3.48509 6 3.51321 6.06562 3.46634 6.15937C3.43821 6.21562 3.40071 6.23906 3.37259 6.29063C3.3304 6.34688 3.28821 6.46875 3.28821 6.52969C3.3088 6.71295 3.39618 6.88221 3.53367 7.00511C3.67116 7.12802 3.84911 7.19597 4.03353 7.19597C4.21794 7.19597 4.39589 7.12802 4.53338 7.00511C4.67087 6.88221 4.75825 6.71295 4.77884 6.52969C4.77884 6.46875 4.73196 6.34219 4.69446 6.29063C4.66165 6.24375 4.62415 6.21562 4.60071 6.15937C4.55384 6.06562 4.58196 6 4.54446 5.89219C4.51165 5.79844 4.45071 5.70469 4.3429 5.65781C4.37593 5.69858 4.3987 5.74667 4.4093 5.79805C4.4199 5.84944 4.41803 5.90262 4.40384 5.95313C4.37103 6.0375 4.3429 6.07969 4.3429 6.12656C4.3429 6.21563 4.38978 6.22969 4.42259 6.26719L4.43665 6.27656C4.45119 6.28956 4.46286 6.30544 4.47093 6.3232C4.479 6.34095 4.48329 6.36019 4.48353 6.37969C4.485 6.40017 4.48198 6.42073 4.47466 6.43992C4.46734 6.45911 4.45591 6.47646 4.44116 6.49076C4.42642 6.50506 4.40872 6.51595 4.38932 6.52268C4.36991 6.5294 4.34927 6.53179 4.32884 6.52969C4.24446 6.52656 4.19446 6.47656 4.17884 6.37969C4.17884 6.09375 4.3054 6.075 4.3054 5.86406C4.3054 5.55938 4.03353 5.41406 4.03353 5.19375C4.03353 5.11875 4.04759 4.99219 4.1554 4.88906ZM0.747589 11.1516H2.2429V18.3141H0.747589V11.1516ZM5.81946 11.1516H7.31009V18.3141H5.81946V11.1516ZM2.53821 11.1516H5.52415L4.02884 12.0469L2.53821 11.1516ZM2.53821 12.3469H5.52415V12.9375H2.53821V12.3469ZM2.53821 16.5188H5.52415V17.1188H2.53821V16.5188ZM2.53821 17.4187H5.52415L4.02884 18.3094L2.53821 17.4187Z" fill="#FFD900"/>
<path d="M4.02883 16.2234C4.85208 16.2234 5.51946 15.5561 5.51946 14.7328C5.51946 13.9096 4.85208 13.2422 4.02883 13.2422C3.20558 13.2422 2.53821 13.9096 2.53821 14.7328C2.53821 15.5561 3.20558 16.2234 4.02883 16.2234Z" fill="#FFD900"/>
<path d="M4.02753 14.2397C4.19227 14.2397 4.32582 14.1062 4.32582 13.9414C4.32582 13.7767 4.19227 13.6431 4.02753 13.6431C3.86278 13.6431 3.72923 13.7767 3.72923 13.9414C3.72923 14.1062 3.86278 14.2397 4.02753 14.2397Z" fill="#DA2032"/>
<path d="M4.02753 15.8207C4.19227 15.8207 4.32582 15.6871 4.32582 15.5224C4.32582 15.3576 4.19227 15.2241 4.02753 15.2241C3.86278 15.2241 3.72923 15.3576 3.72923 15.5224C3.72923 15.6871 3.86278 15.8207 4.02753 15.8207Z" fill="#DA2032"/>
<path d="M4.02752 13.0614C4.2609 13.0614 4.48472 13.1542 4.64975 13.3192C4.81477 13.4842 4.90749 13.708 4.90749 13.9414C4.90749 14.1748 4.81477 14.3986 4.64975 14.5636C4.48472 14.7287 4.2609 14.8214 4.02752 14.8214C3.8416 14.8214 3.66331 14.8952 3.53184 15.0267C3.40038 15.1582 3.32653 15.3365 3.32653 15.5224C3.32653 15.7083 3.40038 15.8866 3.53184 16.018C3.66331 16.1495 3.8416 16.2234 4.02752 16.2234V16.4023C3.79414 16.4023 3.57031 16.3096 3.40529 16.1446C3.24026 15.9796 3.14755 15.7558 3.14755 15.5224C3.14755 15.289 3.24026 15.0652 3.40529 14.9001C3.57031 14.7351 3.79414 14.6424 4.02752 14.6424C4.21343 14.6424 4.39173 14.5686 4.52319 14.4371C4.65465 14.3056 4.72851 14.1273 4.72851 13.9414C4.72851 13.7555 4.65465 13.5772 4.52319 13.4457C4.39173 13.3143 4.21343 13.2404 4.02752 13.2404V13.0614Z" fill="#DA2032"/>
</g>
<defs>
<clipPath id="clip0_3905_6842">
<rect width="24" height="24" fill="white" transform="translate(0.0303955)"/>
</clipPath>
</defs>
</svg>
