<svg width="24" height="24" viewBox="0 0 24 24" fill="none" xmlns="http://www.w3.org/2000/svg">
<g clip-path="url(#clip0_2214_3515)">
<path d="M12 24C18.6274 24 24 18.6274 24 12C24 5.37258 18.6274 0 12 0C5.37258 0 0 5.37258 0 12C0 18.6274 5.37258 24 12 24Z" fill="white"/>
<path d="M0.412659 15.1306C1.10697 17.7068 2.63721 19.9397 4.69492 21.5207V15.1306H0.412659Z" fill="#0052B4"/>
<path d="M10.9558 23.9545C11.2997 23.9841 11.6476 24.0002 11.9993 24.0002C17.5436 24.0002 22.2089 20.2398 23.5859 15.1306H10.9558V23.9545Z" fill="#0052B4"/>
<path d="M23.5859 8.86979C22.2089 3.7606 17.5436 0.000244141 11.9993 0.000244141C11.6476 0.000244141 11.2997 0.0162754 10.9558 0.0459004V8.86979H23.5859Z" fill="#0052B4"/>
<path d="M4.69492 2.47974C2.63721 4.06083 1.10697 6.29363 0.412659 8.86983H4.69492V2.47974Z" fill="#0052B4"/>
<path d="M23.8984 10.4347H9.39136H9.39131V0.285156C8.28234 0.531062 7.23098 0.929641 6.26086 1.459V10.4347H0.101578C0.0347813 10.9471 0 11.4694 0 11.9999C0 12.5304 0.0347813 13.0528 0.101578 13.5651H6.26081H6.26086V22.5408C7.23098 23.0701 8.28234 23.4688 9.39131 23.7146V13.5653V13.5652H23.8984C23.9651 13.0528 24 12.5304 24 11.9999C24 11.4694 23.9651 10.9471 23.8984 10.4347Z" fill="#D80027"/>
</g>
<defs>
<clipPath id="clip0_2214_3515">
<rect width="24" height="24" fill="white"/>
</clipPath>
</defs>
</svg>
