<svg width="24" height="24" viewBox="0 0 24 24" fill="none" xmlns="http://www.w3.org/2000/svg">
<rect width="24" height="24" rx="12" fill="#507ACA"/>
<path d="M5.40497 11.3914C5.25016 11.075 5.25016 11.075 5.25016 10.7591C5.17192 10.7591 5.15735 10.7739 5.11314 10.7618C5.06893 10.7491 5.05166 11.0531 4.90497 10.9936C4.88164 10.964 5.01015 10.7448 4.87095 10.653C4.82493 10.6228 4.88164 10.4436 4.86179 10.3635C4.86179 10.3635 4.68469 10.4579 4.55205 10.1273C4.48632 10.04 4.39622 10.2064 4.39622 10.2064C4.39622 10.2064 4.43553 10.3075 4.36489 10.3316C4.26551 10.258 4.19333 10.2965 4.06663 10.1943C3.94082 10.0926 4.09408 9.97603 3.85279 9.88978C4.00875 9.49478 4.00875 9.57394 4.39622 9.41576C4.16304 9.25863 4.16304 9.25863 4.00875 9.02129C3.77583 8.94213 3.69862 8.86245 3.46609 8.70426C3.15429 8.30979 3 7.51914 3 6.96583C3.19631 6.7806 3.46609 7.5983 3.85279 7.83551L4.39622 8.0735C4.70583 8.23063 4.78458 8.38895 5.01711 8.54595L5.71471 8.78381C6.02587 9.02129 6.1808 9.3366 6.41333 9.41576C6.66636 9.41576 6.71431 9.26847 6.79577 9.25863C7.25116 9.23487 7.48356 9.17448 7.57534 9.03546C7.6666 8.92454 7.88766 9.09926 8.50804 8.86245L8.43096 8.54595C8.43096 8.54595 8.59556 8.40864 8.81778 8.46679C8.81288 8.32345 8.79832 7.93842 9.01847 7.76423C8.88468 7.62193 8.97426 7.51914 8.97426 7.51914C8.97426 7.51914 9.09672 7.39824 9.11296 7.33405C9.04761 6.98618 9.16903 6.98066 9.19661 6.87788C9.22394 6.77627 9.09079 6.81093 9.12842 6.66968C9.16632 6.52856 9.39021 6.49496 9.41973 6.37852C9.45002 6.26208 9.35619 6.2038 9.36108 6.17584C9.41122 6.06478 9.36908 5.80263 9.36108 5.70155C9.77858 5.58853 9.91457 5.24289 10.0602 5.38624C10.1374 4.91156 10.2155 4.7539 10.6811 4.7539C10.747 4.60884 10.5112 4.48466 10.6029 4.4374C10.7583 4.41758 10.8776 4.42756 11.0593 4.66765C11.1171 4.7434 11.1274 4.5566 11.1845 4.53691C11.2439 4.51643 11.3826 4.51643 11.4036 4.42309C11.4256 4.32635 11.457 4.20111 11.5347 4.04293C11.6 3.91441 11.6507 4.09189 11.7083 4.34394C12.0363 4.35654 12.776 4.43018 13.0861 4.51643C13.3194 4.57852 13.473 4.45486 13.6969 4.43018C13.8619 4.59834 14.018 4.47311 14.1042 4.83017C14.2273 5.02301 14.4295 4.84789 14.4732 4.90447C14.7317 5.6329 15.6245 5.14167 15.6925 5.15428C15.8062 5.15428 15.9464 5.48009 16.035 5.4709C16.1803 5.44623 16.1397 5.34502 16.2665 5.38624C16.2326 5.65981 16.5167 5.97683 16.5167 6.18004C16.5167 6.18004 16.5858 6.21587 16.65 6.15483C16.7136 6.09392 16.7731 5.93731 16.8293 5.94178C16.9651 5.96094 17.02 5.97906 17.1772 6.00649C17.5974 6.15326 17.8115 6.18555 17.9757 6.26143C18.0512 6.4032 18.1244 6.47527 18.2788 6.44941C18.4057 6.53618 18.3127 6.65038 18.3889 6.65826C18.5431 6.57858 18.594 6.4922 18.7498 6.57136C18.9041 6.65038 19.06 6.80817 19.137 6.96583C19.137 7.04551 19.06 7.36083 19.137 7.83551C19.1766 7.9933 19.1948 8.11853 19.3621 8.39C19.3174 8.66803 19.5714 9.13667 19.5714 9.25587C19.5714 9.41287 19.4483 9.49478 19.3701 9.6531C19.6797 9.88978 19.3701 10.2844 19.2158 10.5217C20.3785 10.7591 19.8357 11.2332 20.7675 10.9959C20.5343 11.5485 20.6169 11.504 20.8498 12.0573C20.3839 12.3738 20.8397 12.4699 20.5289 12.8651C20.5095 12.8897 20.7136 13.2089 21 13.2089C20.9218 13.8403 20.6891 13.6033 20.7675 14.5511C20.1561 14.5397 20.4033 15.261 19.9915 15.1842C20.015 15.6357 20.2257 15.6748 20.1461 16.1324C19.8357 16.2105 19.8357 16.2105 19.6797 16.4479L19.4483 16.3698C19.3701 16.7642 19.2158 16.8429 19.4483 17.2384C19.4483 17.2384 19.1479 17.2482 19.06 17.2384C19.0524 17.3736 19.1931 17.4109 19.2158 17.5549C19.2028 17.6115 18.7736 17.8603 18.44 17.8709C18.3523 18.0658 18.6726 18.2725 18.6526 18.3724C18.2894 18.444 18.1283 18.8975 18.1283 18.8975C18.1283 18.8975 18.3155 18.9747 18.2841 19.0558C18.185 18.9811 18.1283 18.9768 17.974 18.9768C17.8968 18.9965 17.7068 18.9712 17.5257 19.2835C17.3267 19.3494 17.2331 19.3263 17.0815 19.5293C17.0148 19.3361 16.9192 19.5308 16.8021 19.6076C16.684 19.6823 16.5255 19.868 16.5048 19.8601C16.5097 19.8075 16.5766 19.6076 16.5766 19.6076L16.1893 19.6877C16.1893 19.6877 16.1721 19.6899 16.1407 19.6933C16.1111 19.6966 16.1187 19.4613 16.0453 19.4713C15.9724 19.4789 15.7615 19.7646 15.6898 19.7734C15.6189 19.7834 15.5955 19.6823 15.5337 19.6912C15.4722 19.6997 15.3513 19.9922 15.3088 19.9997C15.2641 20.0086 15.0915 19.8229 14.9426 19.8482C14.1797 20.1228 14.0582 19.3076 13.9391 19.7669C13.7794 19.6802 13.807 19.7307 13.6446 19.7734C13.5415 19.802 13.5307 19.635 13.4389 19.6361C13.2552 19.6417 13.2642 19.8196 13.1633 19.7669C13.0808 19.3966 12.5834 19.4636 12.5354 19.3042C12.496 19.1405 12.7511 19.1405 12.8338 19.0296C12.8957 18.8692 12.7678 18.8076 13.0232 18.6527C13.3572 18.4219 13.1643 18.3352 13.2236 18.1625C13.3278 17.9131 13.3278 17.8531 13.2422 17.6335C13.2422 17.6335 12.9817 16.922 12.9303 16.922C12.776 16.8774 12.776 17.1835 12.5473 17.2682C12.0822 17.4258 11.2606 16.867 11.1171 16.867C10.986 16.8698 10.3801 17.015 10.4023 16.7061C10.3121 17.0054 9.97876 16.7763 9.95775 16.7763C9.64749 16.7763 9.76685 17.0209 9.55907 17.011C9.46356 16.9791 8.50804 16.922 8.50804 16.922V17.0801L7.88766 16.7642L7.345 16.6062C6.87942 16.4479 7.11195 16.0534 6.33612 16.2896V15.8154H5.94814C6.10307 14.8681 5.94814 15.3418 5.87054 14.4721L5.56042 14.5511C5.25016 14.1249 5.99196 14.2056 5.32776 13.9193C5.32776 13.9193 5.33923 13.4479 5.17192 13.6033C5.13789 13.6226 5.25016 13.8403 5.25016 13.8403C4.62862 13.7616 4.47497 13.6033 4.47497 12.9715C4.47497 12.9715 4.98631 13.0452 4.93939 12.9715C4.86708 12.853 4.77273 12.0815 4.78832 12.031C4.78188 11.9271 5.26473 11.6651 5.17024 11.4162C5.2307 11.3931 5.40497 11.3914 5.40497 11.3914Z" fill="white"/>
</svg>
