<svg width="24" height="24" viewBox="0 0 24 24" fill="none" xmlns="http://www.w3.org/2000/svg">
<g clip-path="url(#clip0_3053_1898)">
<g clip-path="url(#clip1_3053_1898)">
<mask id="mask0_3053_1898" style="mask-type:luminance" maskUnits="userSpaceOnUse" x="-4" y="0" width="33" height="24">
<path d="M-3.9 0H28.1V24H-3.9V0Z" fill="white"/>
</mask>
<g mask="url(#mask0_3053_1898)">
<path d="M-3.90012 0H28.0999V24H-3.90012V0Z" fill="white"/>
<path d="M0.0999622 0H24.1V24H0.0999622V0Z" fill="white"/>
<path fill-rule="evenodd" clip-rule="evenodd" d="M9.96495 17.04C9.96495 17.04 10.505 16.6 11.035 16.6C11.565 16.6 11.705 16.965 12.075 16.995C12.44 17.025 12.745 16.63 13.2 16.615C13.655 16.6 14.225 16.935 14.225 16.935L12.235 17.535L9.96495 17.035V17.04ZM8.81995 16.39L15.59 16.425C15.59 16.425 15.005 15.79 14.315 15.775C13.625 15.765 13.815 16.075 13.29 16.115C12.76 16.16 12.63 15.795 12.145 15.805C11.665 15.82 11.385 16.115 11.02 16.13C10.65 16.145 10.185 15.765 9.90495 15.78C9.62495 15.795 8.62995 16.215 8.62995 16.215L8.81995 16.395V16.39ZM7.95495 15.59L16.305 15.615C16.44 15.425 15.895 14.97 15.4 14.93C14.99 14.945 14.7 15.355 14.36 15.37C14.02 15.385 13.64 14.945 13.26 14.96C12.88 14.975 12.485 15.37 12.105 15.37C11.72 15.37 11.445 14.945 10.96 14.945C10.475 14.945 10.26 15.41 9.88995 15.385C9.52495 15.355 9.19995 14.915 8.84995 14.915C8.49995 14.915 7.91495 15.44 7.79995 15.415C7.67995 15.38 7.94495 15.63 7.95495 15.585V15.59Z" fill="#083D9C" stroke="#083D9C" stroke-width="0.1"/>
<path fill-rule="evenodd" clip-rule="evenodd" d="M11.165 10.9451L13.085 11.4551V8.71508C12.205 8.76508 11.475 7.04508 13.025 6.93008C11.5 6.71008 11.325 7.10508 11.15 7.53008L11.165 10.9451Z" fill="#FF0000" stroke="black" stroke-width="0.09375" stroke-linejoin="round"/>
<path fill-rule="evenodd" clip-rule="evenodd" d="M9.95004 12.9346L14.285 12.9496L9.95004 12.9346Z" fill="#083D9C"/>
<path d="M9.95004 12.9346L14.285 12.9496" stroke="#083D9C" stroke-width="0.1875" stroke-linecap="round"/>
<path d="M10.1549 11.9001L10.6699 12.5851M10.1549 12.5851L10.7099 11.9101M10.4499 11.8501L10.4349 12.2751M10.9749 11.8951L11.4899 12.5851M10.9749 12.5851L11.5299 11.9101M11.2699 11.8501L11.2549 12.2751M11.8099 11.8951L12.3249 12.5851M11.8099 12.5851L12.3649 11.9101M12.1049 11.8501L12.0899 12.2751M12.6749 11.8951L13.1849 12.5851M12.6749 12.5851L13.2299 11.9101M12.9649 11.8501L12.9549 12.2751M13.5049 11.8951L14.0199 12.5851M13.5099 12.5851L14.0649 11.9101M13.7999 11.8501L13.7849 12.2751" stroke="black" stroke-width="0.15" stroke-linecap="round"/>
<path fill-rule="evenodd" clip-rule="evenodd" d="M7.03492 12.9799L8.87992 12.9949V11.8399L6.76992 11.7349L7.03492 12.9799ZM6.94492 11.3799L8.90992 11.5749L8.89492 10.7549L6.97492 9.98986L6.94492 11.3849V11.3799ZM7.34492 9.74486L8.84992 10.4749L9.06492 10.2499C9.06492 10.2499 8.92492 10.1549 8.93492 10.0649C8.93492 9.97986 9.07492 9.96486 9.07492 9.86486C9.07492 9.77986 8.92492 9.76486 8.91992 9.67986C8.90992 9.57986 9.03992 9.47986 9.03992 9.47986L7.67992 8.29486L7.33992 9.74486H7.34492ZM17.2449 12.9949H15.2949L15.2799 11.8649L17.4199 11.7049L17.2449 12.9949ZM15.3099 11.5999L17.6249 11.3199L17.1249 9.98486L15.2949 10.7649L15.3099 11.5999ZM16.9949 9.61986L15.3249 10.4999C15.2999 10.3999 15.2799 10.3099 15.1649 10.2349C15.1649 10.2349 15.2649 10.1749 15.2649 10.0749C15.2649 9.97486 15.1349 9.95486 15.1349 9.89986C15.1349 9.84486 15.2549 9.78986 15.2649 9.65486C15.2499 9.56486 15.1349 9.43486 15.1549 9.40986L16.4549 8.41986L16.9949 9.61986ZM13.3749 11.5749L14.2099 11.5399L14.2249 11.2049L13.3749 11.5749ZM10.8249 11.5499L9.94992 11.5249V11.1749L10.8299 11.5499H10.8249ZM10.8249 11.4499L9.94992 10.9999V10.4099C9.94992 10.4099 9.84992 10.4249 9.85992 10.3099C9.86492 10.0649 10.5049 10.7549 10.8299 10.9799L10.8249 11.4499ZM13.3749 11.3949V11.0099C13.3749 11.0099 14.1649 10.2999 14.3299 10.1649C14.3299 10.3149 14.2399 10.4249 14.2399 10.4249V10.9849L13.3749 11.3949ZM8.24992 8.18986L9.13992 9.17486C9.15992 9.08486 9.36492 9.06986 9.56992 9.08486C9.76992 9.09986 9.93492 9.06986 9.93492 9.21486C9.93492 9.35986 9.83492 9.33986 9.83492 9.44486C9.83492 9.54986 9.98492 9.53986 9.98492 9.66986C9.98492 9.79986 9.87492 9.77486 9.87492 9.87486C9.87492 9.95986 9.99492 9.96486 9.99492 9.96486L10.8249 10.7699V9.90986L9.11492 7.22486L8.24992 8.18986ZM9.61992 7.16986L10.7849 9.54486C10.7849 9.54486 10.7949 7.35486 10.9899 7.23986L10.6649 6.63986L9.61992 7.16986ZM14.6699 7.26486L13.3699 9.57486V8.59986C13.3699 8.59986 13.4799 8.43986 13.3099 8.44986C13.1399 8.46486 12.9349 8.43986 12.9349 8.43986L13.4549 6.60986L14.6699 7.25986V7.26486ZM15.9999 8.24986C15.9849 8.27486 15.1249 9.14986 15.1249 9.14986C15.0849 9.04986 14.8249 9.09986 14.5749 9.09986C14.3299 9.09986 14.2949 9.17986 14.3099 9.24486C14.3349 9.40986 14.4199 9.28486 14.4199 9.44486C14.4199 9.59986 14.2999 9.54486 14.2849 9.65486C14.2999 9.78986 14.4749 9.75486 14.3699 9.85486L13.3749 10.8149V9.90486L15.2299 7.02486L15.9999 8.24986Z" fill="#EF7D08"/>
<path fill-rule="evenodd" clip-rule="evenodd" d="M11.5899 13.4198C11.1749 14.1098 10.0599 13.9048 9.79488 13.4198C9.71988 13.3998 9.76488 10.4448 9.76488 10.4448C9.76488 10.4448 9.63988 10.3898 9.63488 10.2948C9.62988 10.2048 9.80488 10.1948 9.80488 10.0798C9.80488 9.96479 9.62488 10.0098 9.61988 9.88978C9.61988 9.77979 9.81488 9.78979 9.80488 9.68979C9.79488 9.56978 9.58988 9.58979 9.57988 9.47979C9.57988 9.39479 9.72988 9.31979 9.76988 9.27979C9.72322 9.28085 9.67654 9.28085 9.62988 9.27979L9.30988 9.28478C9.07988 9.28478 9.30988 9.33479 9.30988 9.46479C9.30988 9.54979 9.19488 9.60979 9.18488 9.67979C9.17988 9.75979 9.34488 9.80979 9.34988 9.90479C9.34988 9.98479 9.18488 9.98978 9.18988 10.0698C9.19988 10.1948 9.33988 10.2248 9.33488 10.3048C9.33488 10.3798 9.15488 10.4098 9.14988 10.4698C9.15988 10.5898 9.17988 13.5098 9.17988 13.5098C9.46488 14.9998 11.1199 15.3748 11.5899 13.4198ZM12.6849 13.4198C13.0999 14.1098 14.2149 13.9048 14.4749 13.4198C14.5549 13.3998 14.5099 10.4448 14.5099 10.4448C14.5099 10.4448 14.6349 10.3898 14.6399 10.2948C14.6449 10.2048 14.4799 10.1948 14.4799 10.0798C14.4799 9.96479 14.6499 10.0098 14.6499 9.88978C14.6499 9.77979 14.4749 9.78979 14.4849 9.67979C14.4949 9.56479 14.6349 9.57978 14.6399 9.46978C14.6449 9.37478 14.5549 9.31979 14.5099 9.27979H14.6449L14.9649 9.28478C15.1899 9.28478 14.9649 9.33479 14.9649 9.46479C14.9649 9.54979 15.0799 9.60979 15.0899 9.67979C15.0899 9.75979 14.9299 9.80979 14.9249 9.90479C14.9249 9.98479 15.0899 9.98978 15.0849 10.0698C15.0749 10.1948 14.9349 10.2248 14.9349 10.3048C14.9399 10.3798 15.1199 10.4098 15.1199 10.4698L15.0949 13.5098C14.8099 14.9998 13.1499 15.3748 12.6849 13.4198Z" fill="#FF0000" stroke="black" stroke-width="0.09375" stroke-linejoin="round"/>
<path fill-rule="evenodd" clip-rule="evenodd" d="M11.1849 14.78H13.0499C13.0649 14.765 12.6299 14.13 12.1199 14.18C11.5449 14.195 11.1549 14.78 11.1849 14.78ZM17.1299 14.73H14.5799C14.5799 14.73 14.9099 14.54 14.9999 14.36C15.1649 14.45 15.1199 14.54 15.4499 14.555C15.7799 14.57 16.0949 14.18 16.4099 14.195C16.7249 14.21 17.1299 14.745 17.1299 14.735V14.73ZM7.07988 14.73H9.62988C9.62988 14.73 9.29988 14.54 9.20988 14.36C9.04488 14.45 9.08988 14.54 8.75988 14.555C8.42988 14.57 8.10988 14.18 7.79988 14.195C7.48488 14.21 7.07988 14.745 7.07988 14.735V14.73ZM7.26988 13.93L9.08488 13.945C9.08488 13.945 8.96988 13.695 8.95488 13.39C8.48488 13.23 8.10488 13.74 7.76488 13.755C7.42988 13.77 7.07988 13.39 7.07988 13.39L7.26988 13.93ZM16.9699 13.93L15.1499 13.945C15.1499 13.945 15.2649 13.695 15.2799 13.39C15.7499 13.23 16.1299 13.74 16.4699 13.755C16.8049 13.77 17.1549 13.39 17.1549 13.39L16.9649 13.93H16.9699ZM11.6499 13.95L12.5699 13.925C12.5699 13.925 12.5849 13.645 12.1049 13.645C11.6249 13.645 11.6649 13.965 11.6499 13.95ZM11.0899 13.555C11.2655 13.4782 11.41 13.3443 11.4999 13.175L10.8699 13.19C10.8699 13.19 10.5799 13.365 10.4349 13.555H11.0899ZM13.1299 13.555C12.9543 13.4782 12.8098 13.3443 12.7199 13.175L13.3499 13.19C13.3499 13.19 13.6399 13.365 13.7849 13.555H13.1299Z" fill="#083D9C" stroke="#083D9C" stroke-width="0.1"/>
<path fill-rule="evenodd" clip-rule="evenodd" d="M-5.90002 18H30.1V24H-5.90002V18ZM-5.90002 0H30.1V6H-5.90002V0Z" fill="#DE2010"/>
</g>
</g>
</g>
<defs>
<clipPath id="clip0_3053_1898">
<rect width="24" height="24" fill="white"/>
</clipPath>
<clipPath id="clip1_3053_1898">
<rect width="24" height="24" rx="12" fill="white"/>
</clipPath>
</defs>
</svg>
