<svg width="24" height="24" viewBox="0 0 24 24" fill="none" xmlns="http://www.w3.org/2000/svg">
<g clip-path="url(#clip0_2214_4209)">
<path d="M12 24C18.6274 24 24 18.6274 24 12C24 5.37258 18.6274 0 12 0C5.37258 0 0 5.37258 0 12C0 18.6274 5.37258 24 12 24Z" fill="#FFDA44"/>
<path d="M11.9992 0.000244141C11.9904 0.000337891 11.4774 4.80024 11.4774 4.80024H21.5997C19.4104 1.8857 15.925 0.000244141 11.9992 0.000244141Z" fill="#496E2D"/>
<path d="M11.9991 24.0002C15.925 24.0002 19.4104 22.1147 21.5997 19.2002H2.39862C4.58787 22.1147 8.07326 24.0002 11.9991 24.0002Z" fill="#496E2D"/>
<path d="M23.7589 9.60034H11.4774L11.9992 14.4003H23.7589C23.9164 13.6249 23.9992 12.8223 23.9992 12.0003C23.9992 11.1784 23.9163 10.3758 23.7589 9.60034Z" fill="#496E2D"/>
<path d="M12 14.4C12 11.8957 12 2.81737 12 0C5.37262 0 0 5.37262 0 12C0 12.822 0.082875 13.6245 0.240281 14.4H12Z" fill="#D80027"/>
<path d="M6.62142 5.73926L7.39842 8.13059H9.91303L7.8788 9.6087L8.65571 12.0001L6.62142 10.5221L4.58714 12.0001L5.36419 9.6087L3.32996 8.13059H5.84447L6.62142 5.73926Z" fill="white"/>
</g>
<defs>
<clipPath id="clip0_2214_4209">
<rect width="24" height="24" fill="white"/>
</clipPath>
</defs>
</svg>
