<svg width="24" height="24" viewBox="0 0 24 24" fill="none" xmlns="http://www.w3.org/2000/svg">
<g clip-path="url(#clip0_2214_4002)">
<path d="M12 24C18.6274 24 24 18.6274 24 12C24 5.37258 18.6274 0 12 0C5.37258 0 0 5.37258 0 12C0 18.6274 5.37258 24 12 24Z" fill="#FFDA44"/>
<path d="M7.30387 7.82611H23.2531C21.5576 3.2565 17.1591 0 11.9995 0C8.68574 0 5.68607 1.34339 3.51463 3.51511L7.30387 7.82611Z" fill="#6DA544"/>
<path d="M7.30387 16.1738H23.2531C21.5576 20.7434 17.1591 23.9999 11.9995 23.9999C8.68574 23.9999 5.68607 22.6565 3.51463 20.4848L7.30387 16.1738Z" fill="#6DA544"/>
<path d="M3.51467 3.51465C-1.17162 8.20093 -1.17162 15.7989 3.51467 20.4853C5.45121 18.5487 7.3137 16.6862 12 12L3.51467 3.51465Z" fill="#D80027"/>
<path d="M15.2378 9.91309L15.7558 11.5074H17.4322L16.076 12.4927L16.594 14.087L15.2378 13.1017L13.8816 14.087L14.3996 12.4927L13.0435 11.5074H14.7198L15.2378 9.91309Z" fill="black"/>
<path d="M20.4553 9.91309L20.9733 11.5074H22.6496L21.2935 12.4927L21.8114 14.087L20.4553 13.1017L19.0991 14.087L19.6171 12.4927L18.2609 11.5074H19.9372L20.4553 9.91309Z" fill="black"/>
</g>
<defs>
<clipPath id="clip0_2214_4002">
<rect width="24" height="24" fill="white"/>
</clipPath>
</defs>
</svg>
