<svg width="24" height="24" viewBox="0 0 24 24" fill="none" xmlns="http://www.w3.org/2000/svg">
<g clip-path="url(#clip0_3053_1905)">
<g clip-path="url(#clip1_3053_1905)">
<path d="M-3.89999 0H28.1V24H-3.89999V0Z" fill="#00785E"/>
<path d="M10.8498 5.4349L12.8748 6.9099L12.0998 4.5249L11.3248 6.9099L13.3548 5.4349H10.8498Z" fill="#FBD116"/>
<path d="M12.0996 16.5809H6.97459C6.91001 16.5154 6.84666 16.4488 6.78459 16.3809H12.0996C12.1202 16.3882 12.1381 16.4018 12.1506 16.4197C12.1632 16.4376 12.1698 16.459 12.1696 16.4809C12.1696 16.5209 12.1446 16.5659 12.0996 16.5809ZM12.0996 15.0159C12.1575 14.8982 12.1784 14.7657 12.1596 14.6359C12.15 14.5698 12.1297 14.5056 12.0996 14.4459C11.6389 14.8843 11.0826 15.2095 10.4746 15.3959C10.0937 15.5117 9.69773 15.5706 9.29959 15.5709H6.14459C6.23667 15.7075 6.33339 15.8409 6.43459 15.9709H9.48459C10.4846 15.9709 11.3946 15.6109 12.0996 15.0159ZM6.61959 13.7809C6.46403 13.839 6.30044 13.8727 6.13459 13.8809C6.51458 14.3129 6.98224 14.6589 7.50642 14.896C8.0306 15.1331 8.59928 15.2558 9.17459 15.2559C9.72131 15.256 10.2624 15.1453 10.7651 14.9305C11.2679 14.7156 11.7218 14.4011 12.0996 14.0059C12.2401 13.032 12.3153 12.0498 12.3246 11.0659C12.3366 9.93347 12.2614 8.80179 12.0996 7.68091C11.7696 7.98091 11.1496 8.61591 10.8596 9.59591C10.7508 9.97117 10.6969 10.3602 10.6996 10.7509C10.6994 11.5523 10.9379 12.3356 11.3846 13.0009C10.8342 12.2932 10.5351 11.4224 10.5346 10.5259C10.5346 9.90591 10.6746 9.31591 10.9246 8.79091C10.7506 8.60647 10.6222 8.38386 10.5496 8.14091C10.2038 8.75066 10.0229 9.43996 10.0246 10.1409C10.0246 11.0409 10.3196 11.8759 10.8196 12.5459C10.3493 12.0517 9.77808 11.6646 9.14479 11.4109C8.5115 11.1573 7.831 11.043 7.14959 11.0759C7.28775 11.2035 7.40278 11.3541 7.48959 11.5209C8.13094 11.5217 8.7655 11.6523 9.355 11.905C9.94449 12.1576 10.4767 12.527 10.9196 12.9909C10.0648 12.2743 8.98505 11.8813 7.86959 11.8809C7.23978 11.8797 6.61601 12.0038 6.03459 12.2459C6.34641 13.0703 6.91801 13.7708 7.66307 14.2416C8.40813 14.7125 9.28618 14.9281 10.1646 14.8559C9.92959 14.8959 9.68959 14.9209 9.44459 14.9209C8.39197 14.9228 7.38018 14.5138 6.62459 13.7809H6.61959ZM12.0996 18.2209H9.44459C10.2896 18.5559 11.1906 18.7273 12.0996 18.7259C12.1408 18.6489 12.1631 18.5632 12.1646 18.4759C12.1639 18.3869 12.1416 18.2994 12.0996 18.2209ZM12.0996 16.9959H7.41959C7.54597 17.1037 7.67605 17.2071 7.80959 17.3059H12.0996C12.14 17.2643 12.1633 17.2089 12.1646 17.1509C12.1657 17.1219 12.1604 17.093 12.1492 17.0662C12.1379 17.0395 12.121 17.0155 12.0996 16.9959ZM12.0996 17.6209H8.26459C8.49674 17.7679 8.73714 17.9015 8.98459 18.0209H12.0996C12.1397 17.9583 12.1606 17.8853 12.1596 17.8109C12.1571 17.7433 12.1364 17.6777 12.0996 17.6209Z" fill="white"/>
<path d="M6.12459 8.74085L7.39459 9.92085L7.05959 8.22085L6.32959 9.79085L7.84459 8.95085L6.12459 8.74085ZM7.96959 7.14085L9.70459 7.17085L8.31959 6.12085L8.82459 7.78585L9.38959 6.14085L7.96959 7.14085Z" fill="#FBD116"/>
<path d="M12.0996 16.5809H17.2246C17.2892 16.5154 17.3526 16.4488 17.4146 16.3809H12.0996C12.079 16.3882 12.0612 16.4018 12.0486 16.4197C12.0361 16.4376 12.0294 16.459 12.0296 16.4809C12.0296 16.5209 12.0546 16.5659 12.0996 16.5809ZM12.0996 15.0159C12.0418 14.8982 12.0208 14.7657 12.0396 14.6359C12.0493 14.5698 12.0695 14.5056 12.0996 14.4459C12.5603 14.8843 13.1166 15.2095 13.7246 15.3959C14.1056 15.5117 14.5015 15.5706 14.8996 15.5709H18.0546C17.9626 15.7075 17.8658 15.8409 17.7646 15.9709H14.7146C13.7146 15.9709 12.8046 15.6109 12.0996 15.0159ZM17.5796 13.7809C17.7352 13.839 17.8988 13.8727 18.0646 13.8809C17.6847 14.3129 17.217 14.6589 16.6928 14.896C16.1686 15.1331 15.6 15.2558 15.0246 15.2559C14.4779 15.256 13.9369 15.1453 13.4341 14.9305C12.9314 14.7156 12.4774 14.4011 12.0996 14.0059C11.9591 13.032 11.884 12.0498 11.8746 11.0659C11.8626 9.93347 11.9378 8.80179 12.0996 7.68091C12.4296 7.98091 13.0496 8.61591 13.3396 9.59591C13.4484 9.97117 13.5023 10.3602 13.4996 10.7509C13.4998 11.5523 13.2613 12.3356 12.8146 13.0009C13.3651 12.2932 13.6641 11.4224 13.6646 10.5259C13.6646 9.90591 13.5246 9.31591 13.2746 8.79091C13.4486 8.60647 13.5771 8.38386 13.6496 8.14091C13.9954 8.75066 14.1763 9.43996 14.1746 10.1409C14.1746 11.0409 13.8796 11.8759 13.3796 12.5459C13.8499 12.0517 14.4211 11.6646 15.0544 11.4109C15.6877 11.1573 16.3682 11.043 17.0496 11.0759C16.9115 11.2035 16.7965 11.3541 16.7096 11.5209C16.0683 11.5217 15.4337 11.6523 14.8442 11.905C14.2547 12.1576 13.7225 12.527 13.2796 12.9909C14.1344 12.2743 15.2142 11.8813 16.3296 11.8809C16.9595 11.8797 17.5832 12.0038 18.1646 12.2459C17.8528 13.0703 17.2812 13.7708 16.5362 14.2416C15.7911 14.7125 14.9131 14.9281 14.0346 14.8559C14.2696 14.8959 14.5096 14.9209 14.7546 14.9209C15.8073 14.9228 16.8191 14.5138 17.5746 13.7809H17.5796ZM12.0996 18.2209H14.7546C13.9096 18.5559 13.0086 18.7273 12.0996 18.7259C12.0584 18.6489 12.0362 18.5632 12.0346 18.4759C12.0354 18.3869 12.0577 18.2994 12.0996 18.2209ZM12.0996 16.9959H16.7796C16.6533 17.1037 16.5232 17.2071 16.3896 17.3059H12.0996C12.0592 17.2643 12.036 17.2089 12.0346 17.1509C12.0336 17.1219 12.0388 17.093 12.0501 17.0662C12.0613 17.0395 12.0782 17.0155 12.0996 16.9959ZM12.0996 17.6209H15.9346C15.7025 17.7679 15.4621 17.9015 15.2146 18.0209H12.0996C12.0595 17.9583 12.0387 17.8853 12.0396 17.8109C12.0421 17.7433 12.0629 17.6777 12.0996 17.6209Z" fill="white"/>
<path d="M18.0748 8.74085L16.8048 9.92085L17.1398 8.22085L17.8698 9.79085L16.3548 8.95085L18.0748 8.74085ZM16.2298 7.14085L14.4948 7.17085L15.8798 6.12085L15.3748 7.78585L14.8098 6.14085L16.2298 7.14085Z" fill="#FBD116"/>
</g>
</g>
<defs>
<clipPath id="clip0_3053_1905">
<rect width="24" height="24" rx="12" fill="white"/>
</clipPath>
<clipPath id="clip1_3053_1905">
<rect width="24" height="24" rx="12" fill="white"/>
</clipPath>
</defs>
</svg>
