<svg width="24" height="24" viewBox="0 0 24 24" fill="none" xmlns="http://www.w3.org/2000/svg">
<g clip-path="url(#clip0_2214_3149)">
<g clip-path="url(#clip1_2214_3149)">
<path d="M-4.00049 0H6.66451V24H-4.00049V0Z" fill="#007A5E"/>
<path d="M6.66452 0H17.3345V24H6.66452V0Z" fill="#CE1126"/>
<path d="M17.3345 0H27.9995V24H17.3345V0Z" fill="#FCD116"/>
<path d="M11.9995 9.15552L11.1106 11.8577L12.4617 12.32L11.9995 9.15552Z" fill="#FCD116"/>
<path d="M11.9995 9.15552L12.8884 11.8577L11.5373 12.32L11.9995 9.15552Z" fill="#FCD116"/>
<path d="M14.7047 11.121L11.8601 11.1107L11.838 12.5385L14.7047 11.121Z" fill="#FCD116"/>
<path d="M14.7047 11.1209L12.4095 12.8013L11.5524 11.6592L14.7047 11.1209Z" fill="#FCD116"/>
<path d="M13.6714 14.301L12.8022 11.5924L11.4375 12.0126L13.6714 14.301Z" fill="#FCD116"/>
<path d="M13.6714 14.301L11.3639 12.6373L12.1853 11.4692L13.6714 14.301Z" fill="#FCD116"/>
<path d="M10.3276 14.3013L12.635 12.6376L11.8136 11.4695L10.3276 14.3013Z" fill="#FCD116"/>
<path d="M10.3276 14.3013L11.1968 11.5927L12.5615 12.0129L10.3276 14.3013Z" fill="#FCD116"/>
<path d="M9.29427 11.1209L11.5896 12.8013L12.4467 11.6592L9.29427 11.1209Z" fill="#FCD116"/>
<path d="M9.29429 11.121L12.1389 11.1107L12.161 12.5385L9.29429 11.121Z" fill="#FCD116"/>
</g>
</g>
<defs>
<clipPath id="clip0_2214_3149">
<path d="M-0.000488281 12C-0.000488281 5.37258 5.3721 0 11.9995 0C18.6269 0 23.9995 5.37258 23.9995 12C23.9995 18.6274 18.6269 24 11.9995 24C5.3721 24 -0.000488281 18.6274 -0.000488281 12Z" fill="white"/>
</clipPath>
<clipPath id="clip1_2214_3149">
<rect width="32" height="24" fill="white" transform="translate(-4.00049)"/>
</clipPath>
</defs>
</svg>
