<svg width="24" height="24" viewBox="0 0 24 24" fill="none" xmlns="http://www.w3.org/2000/svg">
<g clip-path="url(#clip0_2214_4198)">
<path d="M12 24C18.6274 24 24 18.6274 24 12C24 5.37258 18.6274 0 12 0C5.37258 0 0 5.37258 0 12C0 18.6274 5.37258 24 12 24Z" fill="#FFDA44"/>
<path d="M3.51471 20.4853C4.0181 20.9887 4.55519 21.4376 5.11858 21.8329L21.8328 5.11863C21.4376 4.55524 20.9887 4.01814 20.4853 3.51475C19.9818 3.01136 19.4448 2.56249 18.8814 2.16724L2.16724 18.8815C2.56239 19.4448 3.01136 19.9819 3.51471 20.4853Z" fill="black"/>
<path d="M3.51468 3.51465C-0.271037 7.30047 -0.997834 12.986 1.33293 17.5021L17.5021 1.33295C12.986 -0.997814 7.30045 -0.27097 3.51468 3.51465Z" fill="#6DA544"/>
<path d="M20.4852 20.4855C24.2709 16.6997 24.9977 11.0141 22.667 6.49805L6.49786 22.6672C11.0138 24.998 16.6995 24.2712 20.4852 20.4855Z" fill="#338AF3"/>
</g>
<defs>
<clipPath id="clip0_2214_4198">
<rect width="24" height="24" fill="white"/>
</clipPath>
</defs>
</svg>
