<svg width="24" height="24" viewBox="0 0 24 24" fill="none" xmlns="http://www.w3.org/2000/svg">
<g clip-path="url(#clip0_2214_2988)">
<g clip-path="url(#clip1_2214_2988)">
<path d="M-4 0H28V24H-4V0Z" fill="#74ACDF"/>
<path d="M-4 8H28V16H-4V8Z" fill="white"/>
<path d="M11.8464 12.0625L13.2144 15.0385C13.2144 15.0385 13.2384 15.0961 13.2768 15.0817C13.3152 15.0625 13.2912 15.0049 13.2912 15.0049L12.1536 11.9329M12.12 13.0945C12.1008 13.5457 12.3792 13.7953 12.3456 14.1985C12.312 14.6017 12.528 14.8321 12.5856 14.9905C12.6336 15.1489 12.528 15.2401 12.5712 15.2641C12.6192 15.2881 12.7152 15.1633 12.6864 14.9377C12.6576 14.7121 12.4848 14.6497 12.5232 14.1553C12.5616 13.6609 12.3216 13.5457 12.3792 13.0993" fill="#F6B40E"/>
<path d="M11.8464 12.0625L13.2144 15.0385C13.2144 15.0385 13.2384 15.0961 13.2768 15.0817C13.3152 15.0625 13.2912 15.0049 13.2912 15.0049L12.1536 11.9329M12.12 13.0945C12.1008 13.5457 12.3792 13.7953 12.3456 14.1985C12.312 14.6017 12.528 14.8321 12.5856 14.9905C12.6336 15.1489 12.528 15.2401 12.5712 15.2641C12.6192 15.2881 12.7152 15.1633 12.6864 14.9377C12.6576 14.7121 12.4848 14.6497 12.5232 14.1553C12.5616 13.6609 12.3216 13.5457 12.3792 13.0993" stroke="#85340A" stroke-width="0.0528"/>
<path d="M11.8342 11.9989L11.9592 15.2719C11.9592 15.2719 11.9594 15.3343 12.0003 15.3357C12.0432 15.3326 12.043 15.2702 12.043 15.2702L12.1676 11.9967M11.6921 13.057C11.5017 13.4665 11.6634 13.8037 11.478 14.1633C11.2927 14.523 11.4041 14.8185 11.3967 14.9869C11.3804 15.1516 11.2479 15.1954 11.2787 15.2341C11.3138 15.2747 11.4503 15.1961 11.51 14.9767C11.5697 14.7572 11.434 14.6335 11.6586 14.1914C11.8833 13.7493 11.7057 13.551 11.9297 13.1607" fill="#F6B40E"/>
<path d="M11.8342 11.9989L11.9592 15.2719C11.9592 15.2719 11.9594 15.3343 12.0003 15.3357C12.0432 15.3326 12.043 15.2702 12.043 15.2702L12.1676 11.9967M11.6921 13.057C11.5017 13.4665 11.6634 13.8037 11.478 14.1633C11.2927 14.523 11.4041 14.8185 11.3967 14.9869C11.3804 15.1516 11.2479 15.1954 11.2787 15.2341C11.3138 15.2747 11.4503 15.1961 11.51 14.9767C11.5697 14.7572 11.434 14.6335 11.6586 14.1914C11.8833 13.7493 11.7057 13.551 11.9297 13.1607" stroke="#85340A" stroke-width="0.0528"/>
<path d="M11.8473 11.9356L10.7103 15.0073C10.7103 15.0073 10.6865 15.065 10.7238 15.082C10.7646 15.0956 10.7883 15.0379 10.7883 15.0379L12.1561 12.0612M11.311 12.8588C10.9784 13.1643 10.9988 13.5377 10.6899 13.799C10.381 14.0603 10.3708 14.376 10.2996 14.5287C10.2215 14.6747 10.0823 14.6645 10.0959 14.712C10.1129 14.7629 10.269 14.7426 10.4082 14.5627C10.5473 14.3828 10.4693 14.2165 10.846 13.894C11.2228 13.5716 11.1345 13.3204 11.4909 13.0455" fill="#F6B40E"/>
<path d="M11.8473 11.9356L10.7103 15.0073C10.7103 15.0073 10.6865 15.065 10.7238 15.082C10.7646 15.0956 10.7883 15.0379 10.7883 15.0379L12.1561 12.0612M11.311 12.8588C10.9784 13.1643 10.9988 13.5377 10.6899 13.799C10.381 14.0603 10.3708 14.376 10.2996 14.5287C10.2215 14.6747 10.0823 14.6645 10.0959 14.712C10.1129 14.7629 10.269 14.7426 10.4082 14.5627C10.5473 14.3828 10.4693 14.2165 10.846 13.894C11.2228 13.5716 11.1345 13.3204 11.4909 13.0455" stroke="#85340A" stroke-width="0.0528"/>
<path d="M11.8836 11.8821L9.65761 14.2848C9.65761 14.2848 9.61358 14.3291 9.64157 14.359C9.67401 14.3872 9.71804 14.3429 9.71804 14.3429L12.1209 12.1163M11.0348 12.5298C10.6106 12.6847 10.4866 13.0375 10.1012 13.1607C9.71582 13.284 9.58562 13.5717 9.46132 13.6855C9.33335 13.7905 9.20868 13.7278 9.20304 13.7769C9.19923 13.8305 9.35127 13.8714 9.54868 13.7585C9.74608 13.6455 9.73761 13.462 10.2091 13.3083C10.6805 13.1546 10.6951 12.8887 11.1296 12.7711" fill="#F6B40E"/>
<path d="M11.8836 11.8821L9.65761 14.2848C9.65761 14.2848 9.61358 14.3291 9.64157 14.359C9.67401 14.3872 9.71804 14.3429 9.71804 14.3429L12.1209 12.1163M11.0348 12.5298C10.6106 12.6847 10.4866 13.0375 10.1012 13.1607C9.71582 13.284 9.58562 13.5717 9.46132 13.6855C9.33335 13.7905 9.20868 13.7278 9.20304 13.7769C9.19923 13.8305 9.35127 13.8714 9.54868 13.7585C9.74608 13.6455 9.73761 13.462 10.2091 13.3083C10.6805 13.1546 10.6951 12.8887 11.1296 12.7711" stroke="#85340A" stroke-width="0.0528"/>
<path d="M12.2064 13.1712C12.2304 13.6032 12.4752 13.7952 12.4272 14.1936C12.5328 13.8816 12.2784 13.6368 12.2928 13.176M11.9232 12.0336L12.8592 14.0784L12.0768 11.9712" fill="#85340A"/>
<path d="M11.7425 13.1611C11.5993 13.5694 11.752 13.8405 11.5552 14.1902C11.7722 13.9424 11.6308 13.6188 11.8205 13.1986M11.9162 12.0017L11.9984 14.2491L12.082 12.0029" fill="#85340A"/>
<path d="M11.3178 12.9741C11.0293 13.2965 11.0666 13.6054 10.751 13.8531C11.0463 13.7072 11.0395 13.3542 11.3755 13.0386M11.9219 11.9694L11.1379 14.0772L12.0747 12.0339" fill="#85340A"/>
<path d="M10.9969 12.6388C10.607 12.8263 10.5233 13.126 10.1369 13.2341C10.4655 13.2122 10.5943 12.8835 11.0256 12.7205M11.9396 11.9418L10.4086 13.5891L12.056 12.0599" fill="#85340A"/>
<path d="M11.9376 11.8464L8.96165 13.2144C8.96165 13.2144 8.90405 13.2384 8.91845 13.2768C8.93765 13.3152 8.99525 13.2912 8.99525 13.2912L12.0672 12.1536M10.9056 12.12C10.4544 12.1008 10.2048 12.3792 9.80165 12.3456C9.39845 12.312 9.16805 12.528 9.00965 12.5856C8.85125 12.6336 8.76005 12.528 8.73605 12.5712C8.71205 12.6192 8.83685 12.7152 9.06245 12.6864C9.28805 12.6576 9.35045 12.4848 9.84485 12.5232C10.3392 12.5616 10.4544 12.3216 10.9008 12.3792" fill="#F6B40E"/>
<path d="M11.9376 11.8464L8.96165 13.2144C8.96165 13.2144 8.90405 13.2384 8.91845 13.2768C8.93765 13.3152 8.99525 13.2912 8.99525 13.2912L12.0672 12.1536M10.9056 12.12C10.4544 12.1008 10.2048 12.3792 9.80165 12.3456C9.39845 12.312 9.16805 12.528 9.00965 12.5856C8.85125 12.6336 8.76005 12.528 8.73605 12.5712C8.71205 12.6192 8.83685 12.7152 9.06245 12.6864C9.28805 12.6576 9.35045 12.4848 9.84485 12.5232C10.3392 12.5616 10.4544 12.3216 10.9008 12.3792" stroke="#85340A" stroke-width="0.0528"/>
<path d="M12.0012 11.8342L8.7282 11.9592C8.7282 11.9592 8.6658 11.9593 8.66441 12.0003C8.66745 12.0431 8.72985 12.043 8.72985 12.043L12.0033 12.1676M10.943 11.692C10.5335 11.5016 10.1964 11.6633 9.83673 11.478C9.47708 11.2926 9.18156 11.404 9.01318 11.3966C8.84847 11.3804 8.80462 11.2479 8.76591 11.2786C8.72537 11.3138 8.80393 11.4502 9.02338 11.51C9.24283 11.5697 9.36661 11.4339 9.80868 11.6586C10.2508 11.8833 10.449 11.7056 10.8394 11.9297" fill="#F6B40E"/>
<path d="M12.0012 11.8342L8.7282 11.9592C8.7282 11.9592 8.6658 11.9593 8.66441 12.0003C8.66745 12.0431 8.72985 12.043 8.72985 12.043L12.0033 12.1676M10.943 11.692C10.5335 11.5016 10.1964 11.6633 9.83673 11.478C9.47708 11.2926 9.18156 11.404 9.01318 11.3966C8.84847 11.3804 8.80462 11.2479 8.76591 11.2786C8.72537 11.3138 8.80393 11.4502 9.02338 11.51C9.24283 11.5697 9.36661 11.4339 9.80868 11.6586C10.2508 11.8833 10.449 11.7056 10.8394 11.9297" stroke="#85340A" stroke-width="0.0528"/>
<path d="M12.0645 11.8473L8.99285 10.7103C8.99285 10.7103 8.93514 10.6865 8.91817 10.7239C8.9046 10.7646 8.9623 10.7884 8.9623 10.7884L11.9389 12.1562M11.1413 11.3111C10.8358 10.9784 10.4625 10.9988 10.2011 10.6899C9.9398 10.3811 9.62415 10.3709 9.47142 10.2996C9.32547 10.2215 9.33565 10.0824 9.28813 10.096C9.23722 10.1129 9.25759 10.2691 9.43747 10.4082C9.61736 10.5474 9.78367 10.4693 10.1061 10.8461C10.4286 11.2228 10.6797 11.1346 10.9546 11.4909" fill="#F6B40E"/>
<path d="M12.0645 11.8473L8.99285 10.7103C8.99285 10.7103 8.93514 10.6865 8.91817 10.7239C8.9046 10.7646 8.9623 10.7884 8.9623 10.7884L11.9389 12.1562M11.1413 11.3111C10.8358 10.9784 10.4625 10.9988 10.2011 10.6899C9.9398 10.3811 9.62415 10.3709 9.47142 10.2996C9.32547 10.2215 9.33565 10.0824 9.28813 10.096C9.23722 10.1129 9.25759 10.2691 9.43747 10.4082C9.61736 10.5474 9.78367 10.4693 10.1061 10.8461C10.4286 11.2228 10.6797 11.1346 10.9546 11.4909" stroke="#85340A" stroke-width="0.0528"/>
<path d="M12.1181 11.8837L9.71534 9.65773C9.71534 9.65773 9.67112 9.6137 9.64115 9.6417C9.61302 9.67413 9.65724 9.71816 9.65724 9.71816L11.8838 12.121M11.4704 11.0349C11.3154 10.6107 10.9627 10.4867 10.8395 10.1013C10.7162 9.71595 10.4285 9.58574 10.3146 9.46144C10.2097 9.33347 10.2723 9.2088 10.2232 9.20316C10.1697 9.19936 10.1288 9.35139 10.2417 9.5488C10.3547 9.7462 10.5382 9.73773 10.6919 10.2092C10.8456 10.6806 11.1114 10.6952 11.2291 11.1297" fill="#F6B40E"/>
<path d="M12.1181 11.8837L9.71534 9.65773C9.71534 9.65773 9.67112 9.6137 9.64115 9.6417C9.61302 9.67413 9.65724 9.71816 9.65724 9.71816L11.8838 12.121M11.4704 11.0349C11.3154 10.6107 10.9627 10.4867 10.8395 10.1013C10.7162 9.71595 10.4285 9.58574 10.3146 9.46144C10.2097 9.33347 10.2723 9.2088 10.2232 9.20316C10.1697 9.19936 10.1288 9.35139 10.2417 9.5488C10.3547 9.7462 10.5382 9.73773 10.6919 10.2092C10.8456 10.6807 11.1114 10.6952 11.2291 11.1297" stroke="#85340A" stroke-width="0.0528"/>
<path d="M10.8288 12.2063C10.3968 12.2303 10.2048 12.4751 9.80644 12.4271C10.1184 12.5327 10.3632 12.2783 10.824 12.2927M11.9664 11.9231L9.92164 12.8591L12.0288 12.0767" fill="#85340A"/>
<path d="M10.839 11.7424C10.4307 11.5992 10.1596 11.7519 9.80993 11.5551C10.0578 11.7721 10.3813 11.6307 10.8015 11.8204M11.9984 11.9161L9.75104 11.9983L11.9972 12.0818" fill="#85340A"/>
<path d="M11.0259 11.3178C10.7035 11.0293 10.3946 11.0666 10.1469 10.751C10.2928 11.0463 10.6458 11.0395 10.9614 11.3755M12.0306 11.9219L9.92284 11.1379L11.9661 12.0747" fill="#85340A"/>
<path d="M11.3612 10.9968C11.1737 10.6069 10.874 10.5232 10.7659 10.1367C10.7877 10.4654 11.1165 10.5942 11.2795 11.0254M12.0581 11.9394L10.4109 10.4085L11.9401 12.0559" fill="#85340A"/>
<path d="M12.1536 11.9375L10.7856 8.96154C10.7856 8.96154 10.7616 8.90394 10.7232 8.91834C10.6848 8.93754 10.7088 8.99514 10.7088 8.99514L11.8464 12.0671M11.88 10.9055C11.8992 10.4543 11.6208 10.2047 11.6544 9.80154C11.688 9.39834 11.472 9.16794 11.4144 9.00954C11.3664 8.85114 11.472 8.75994 11.4288 8.73594C11.3808 8.71194 11.2848 8.83674 11.3136 9.06234C11.3424 9.28794 11.5152 9.35034 11.4768 9.84474C11.4384 10.3391 11.6784 10.4543 11.6208 10.9007" fill="#F6B40E"/>
<path d="M12.1536 11.9375L10.7856 8.96154C10.7856 8.96154 10.7616 8.90394 10.7232 8.91834C10.6848 8.93754 10.7088 8.99514 10.7088 8.99514L11.8464 12.0671M11.88 10.9055C11.8992 10.4543 11.6208 10.2047 11.6544 9.80154C11.688 9.39834 11.472 9.16794 11.4144 9.00954C11.3664 8.85114 11.472 8.75994 11.4288 8.73594C11.3808 8.71194 11.2848 8.83674 11.3136 9.06234C11.3424 9.28794 11.5152 9.35034 11.4768 9.84474C11.4384 10.3391 11.6784 10.4543 11.6208 10.9007" stroke="#85340A" stroke-width="0.0528"/>
<path d="M12.1658 12.0011L12.0408 8.72814C12.0408 8.72814 12.0406 8.66574 11.9997 8.66435C11.9568 8.66739 11.957 8.72979 11.957 8.72979L11.8324 12.0033M12.3079 10.943C12.4983 10.5335 12.3366 10.1963 12.522 9.83667C12.7073 9.47702 12.5959 9.1815 12.6033 9.01312C12.6196 8.84841 12.7521 8.80456 12.7213 8.76585C12.6862 8.72531 12.5497 8.80387 12.49 9.02332C12.4303 9.24277 12.566 9.36655 12.3414 9.80862C12.1167 10.2507 12.2943 10.449 12.0703 10.8393" fill="#F6B40E"/>
<path d="M12.1658 12.0011L12.0408 8.72814C12.0408 8.72814 12.0406 8.66574 11.9997 8.66435C11.9568 8.66739 11.957 8.72979 11.957 8.72979L11.8324 12.0033M12.3079 10.943C12.4983 10.5335 12.3366 10.1963 12.522 9.83667C12.7073 9.47702 12.5959 9.1815 12.6033 9.01312C12.6196 8.84841 12.7521 8.80456 12.7213 8.76585C12.6862 8.72531 12.5497 8.80387 12.49 9.02332C12.4303 9.24277 12.566 9.36655 12.3414 9.80862C12.1167 10.2507 12.2943 10.449 12.0703 10.8393" stroke="#85340A" stroke-width="0.0528"/>
<path d="M12.1527 12.0644L13.2897 8.99269C13.2897 8.99269 13.3135 8.93499 13.2762 8.91802C13.2354 8.90445 13.2117 8.96215 13.2117 8.96215L11.8439 11.9388M12.689 11.1412C13.0216 10.8357 13.0012 10.4623 13.3101 10.201C13.619 9.93965 13.6292 9.624 13.7004 9.47126C13.7785 9.32532 13.9177 9.3355 13.9041 9.28798C13.8871 9.23707 13.731 9.25743 13.5918 9.43732C13.4527 9.61721 13.5307 9.78352 13.154 10.106C12.7772 10.4284 12.8655 10.6796 12.5091 10.9545" fill="#F6B40E"/>
<path d="M12.1527 12.0644L13.2897 8.99269C13.2897 8.99269 13.3135 8.93499 13.2762 8.91802C13.2354 8.90445 13.2117 8.96215 13.2117 8.96215L11.8439 11.9388M12.689 11.1412C13.0216 10.8357 13.0012 10.4623 13.3101 10.201C13.619 9.93965 13.6292 9.624 13.7004 9.47126C13.7785 9.32532 13.9177 9.3355 13.9041 9.28798C13.8871 9.23707 13.731 9.25743 13.5918 9.43732C13.4527 9.61721 13.5307 9.78352 13.154 10.106C12.7772 10.4284 12.8655 10.6796 12.5091 10.9545" stroke="#85340A" stroke-width="0.0528"/>
<path d="M12.1164 12.1179L14.3424 9.71515C14.3424 9.71515 14.3864 9.67093 14.3584 9.64097C14.326 9.61284 14.282 9.65706 14.282 9.65706L11.8791 11.8837M12.9652 11.4702C13.3894 11.3153 13.5134 10.9625 13.8988 10.8393C14.2842 10.716 14.4144 10.4283 14.5387 10.3145C14.6667 10.2095 14.7913 10.2722 14.797 10.2231C14.8008 10.1695 14.6487 10.1286 14.4513 10.2415C14.2539 10.3545 14.2624 10.538 13.7909 10.6917C13.3195 10.8454 13.3049 11.1113 12.8704 11.2289" fill="#F6B40E"/>
<path d="M12.1164 12.1179L14.3424 9.71515C14.3424 9.71515 14.3864 9.67094 14.3584 9.64097C14.326 9.61284 14.282 9.65706 14.282 9.65706L11.8791 11.8837M12.9652 11.4702C13.3894 11.3153 13.5134 10.9625 13.8988 10.8393C14.2842 10.716 14.4144 10.4283 14.5387 10.3145C14.6667 10.2095 14.7913 10.2722 14.797 10.2231C14.8008 10.1695 14.6487 10.1286 14.4513 10.2415C14.2539 10.3545 14.2624 10.538 13.7909 10.6917C13.3195 10.8454 13.3049 11.1113 12.8704 11.2289" stroke="#85340A" stroke-width="0.0528"/>
<path d="M11.7936 10.8288C11.7696 10.3968 11.5248 10.2048 11.5728 9.80641C11.4672 10.1184 11.7216 10.3632 11.7072 10.824M12.0768 11.9664L11.1408 9.92161L11.9232 12.0288" fill="#85340A"/>
<path d="M12.2575 10.8389C12.4007 10.4306 12.248 10.1595 12.4448 9.80981C12.2278 10.0576 12.3692 10.3812 12.1795 10.8014M12.0838 11.9983L12.0016 9.75092L11.918 11.9971" fill="#85340A"/>
<path d="M12.6822 11.0259C12.9707 10.7035 12.9334 10.3946 13.249 10.1469C12.9537 10.2928 12.9605 10.6458 12.6245 10.9614M12.0781 12.0306L12.8621 9.92284L11.9253 11.9661" fill="#85340A"/>
<path d="M13.0031 11.3612C13.393 11.1737 13.4767 10.874 13.8631 10.7659C13.5345 10.7878 13.4057 11.1165 12.9744 11.2795M12.0604 12.0582L13.5914 10.4109L11.944 11.9401" fill="#85340A"/>
<path d="M12.0624 12.1536L15.0384 10.7856C15.0384 10.7856 15.096 10.7616 15.0816 10.7232C15.0624 10.6848 15.0048 10.7088 15.0048 10.7088L11.9328 11.8464M13.0944 11.88C13.5456 11.8992 13.7952 11.6208 14.1984 11.6544C14.6016 11.688 14.832 11.472 14.9904 11.4144C15.1488 11.3664 15.24 11.472 15.264 11.4288C15.288 11.3808 15.1632 11.2848 14.9376 11.3136C14.712 11.3424 14.6496 11.5152 14.1552 11.4768C13.6608 11.4384 13.5456 11.6784 13.0992 11.6208" fill="#F6B40E"/>
<path d="M12.0624 12.1536L15.0384 10.7856C15.0384 10.7856 15.096 10.7616 15.0816 10.7232C15.0624 10.6848 15.0048 10.7088 15.0048 10.7088L11.9328 11.8464M13.0944 11.88C13.5456 11.8992 13.7952 11.6208 14.1984 11.6544C14.6016 11.688 14.832 11.472 14.9904 11.4144C15.1488 11.3664 15.24 11.472 15.264 11.4288C15.288 11.3808 15.1632 11.2848 14.9376 11.3136C14.712 11.3424 14.6496 11.5152 14.1552 11.4768C13.6608 11.4384 13.5456 11.6784 13.0992 11.6208" stroke="#85340A" stroke-width="0.0528"/>
<path d="M11.9988 12.1658L15.2718 12.0408C15.2718 12.0408 15.3342 12.0407 15.3356 11.9997C15.3325 11.9569 15.2701 11.957 15.2701 11.957L11.9967 11.8324M13.057 12.308C13.4665 12.4984 13.8036 12.3367 14.1633 12.522C14.5229 12.7074 14.8184 12.596 14.9868 12.6034C15.1515 12.6196 15.1954 12.7521 15.2341 12.7214C15.2746 12.6862 15.1961 12.5498 14.9766 12.49C14.7572 12.4303 14.6334 12.5661 14.1913 12.3414C13.7492 12.1167 13.551 12.2944 13.1606 12.0703" fill="#F6B40E"/>
<path d="M11.9988 12.1658L15.2718 12.0408C15.2718 12.0408 15.3342 12.0407 15.3356 11.9997C15.3325 11.9569 15.2701 11.957 15.2701 11.957L11.9967 11.8324M13.057 12.308C13.4665 12.4984 13.8036 12.3367 14.1633 12.522C14.5229 12.7074 14.8184 12.596 14.9868 12.6034C15.1515 12.6196 15.1954 12.7521 15.2341 12.7214C15.2746 12.6862 15.1961 12.5498 14.9766 12.49C14.7572 12.4303 14.6334 12.5661 14.1913 12.3414C13.7492 12.1167 13.551 12.2944 13.1606 12.0703" stroke="#85340A" stroke-width="0.0528"/>
<path d="M11.9355 12.1527L15.0072 13.2897C15.0072 13.2897 15.0649 13.3135 15.0818 13.2761C15.0954 13.2354 15.0377 13.2116 15.0377 13.2116L12.0611 11.8438M12.8587 12.6889C13.1642 13.0216 13.5375 13.0012 13.7989 13.3101C14.0602 13.6189 14.3758 13.6291 14.5286 13.7004C14.6745 13.7785 14.6643 13.9176 14.7119 13.904C14.7628 13.8871 14.7424 13.7309 14.5625 13.5918C14.3826 13.4526 14.2163 13.5307 13.8939 13.1539C13.5714 12.7772 13.3203 12.8654 13.0454 12.5091" fill="#F6B40E"/>
<path d="M11.9355 12.1527L15.0072 13.2897C15.0072 13.2897 15.0649 13.3135 15.0818 13.2761C15.0954 13.2354 15.0377 13.2116 15.0377 13.2116L12.0611 11.8438M12.8587 12.6889C13.1642 13.0216 13.5375 13.0012 13.7989 13.3101C14.0602 13.6189 14.3758 13.6291 14.5286 13.7004C14.6745 13.7785 14.6643 13.9176 14.7119 13.904C14.7628 13.8871 14.7424 13.7309 14.5625 13.5918C14.3826 13.4526 14.2163 13.5307 13.8939 13.1539C13.5714 12.7772 13.3203 12.8654 13.0454 12.5091" stroke="#85340A" stroke-width="0.0528"/>
<path d="M11.8819 12.1163L14.2847 14.3423C14.2847 14.3423 14.3289 14.3863 14.3588 14.3583C14.387 14.3259 14.3428 14.2818 14.3428 14.2818L12.1162 11.879M12.5296 12.9651C12.6846 13.3893 13.0373 13.5133 13.1605 13.8987C13.2838 14.2841 13.5715 14.4143 13.6854 14.5386C13.7903 14.6665 13.7277 14.7912 13.7768 14.7968C13.8303 14.8006 13.8712 14.6486 13.7583 14.4512C13.6453 14.2538 13.4618 14.2623 13.3081 13.7908C13.1544 13.3194 12.8886 13.3048 12.7709 12.8703" fill="#F6B40E"/>
<path d="M11.8819 12.1163L14.2847 14.3423C14.2847 14.3423 14.3289 14.3863 14.3588 14.3583C14.387 14.3259 14.3428 14.2818 14.3428 14.2818L12.1162 11.879M12.5296 12.9651C12.6846 13.3893 13.0373 13.5133 13.1605 13.8987C13.2838 14.2841 13.5715 14.4143 13.6854 14.5386C13.7903 14.6665 13.7277 14.7912 13.7768 14.7968C13.8303 14.8006 13.8712 14.6486 13.7583 14.4512C13.6453 14.2538 13.4618 14.2623 13.3081 13.7908C13.1544 13.3193 12.8886 13.3048 12.7709 12.8703" stroke="#85340A" stroke-width="0.0528"/>
<path d="M13.1712 11.7937C13.6032 11.7697 13.7952 11.5249 14.1936 11.5729C13.8816 11.4673 13.6368 11.7217 13.176 11.7073M12.0336 12.0769L14.0784 11.1409L11.9712 11.9233" fill="#85340A"/>
<path d="M13.161 12.2576C13.5693 12.4008 13.8404 12.2481 14.1901 12.4449C13.9422 12.2279 13.6187 12.3693 13.1985 12.1796M12.0016 12.0839L14.249 12.0017L12.0028 11.9182" fill="#85340A"/>
<path d="M12.9741 12.6822C13.2965 12.9707 13.6054 12.9334 13.8531 13.249C13.7072 12.9537 13.3542 12.9605 13.0386 12.6245M11.9694 12.0781L14.0772 12.8621L12.0339 11.9253" fill="#85340A"/>
<path d="M12.6388 13.0032C12.8263 13.3931 13.126 13.4768 13.2341 13.8633C13.2123 13.5346 12.8835 13.4058 12.7205 12.9746M11.9419 12.0606L13.5891 13.5915L12.0599 11.9441" fill="#85340A"/>
<path d="M12 13.335C12.7373 13.335 13.335 12.7373 13.335 12C13.335 11.2627 12.7373 10.665 12 10.665C11.2627 10.665 10.665 11.2627 10.665 12C10.665 12.7373 11.2627 13.335 12 13.335Z" fill="#F6B40E" stroke="#85340A" stroke-width="0.07"/>
<path d="M12.45 11.7151C12.365 11.7151 12.275 11.7551 12.225 11.8351C12.325 11.9301 12.555 11.9351 12.71 11.8251C12.6773 11.7903 12.6377 11.7626 12.5939 11.7437C12.55 11.7248 12.5028 11.7151 12.455 11.7151H12.45ZM12.45 11.7351C12.54 11.7351 12.625 11.7751 12.635 11.8151C12.535 11.9301 12.37 11.9151 12.265 11.8351C12.3183 11.7684 12.3817 11.7351 12.455 11.7351H12.45Z" fill="#843511"/>
<path d="M12.47 11.6499C12.335 11.6499 12.305 11.6799 12.245 11.7349C12.185 11.7849 12.15 11.7749 12.145 11.7849C12.13 11.7949 12.145 11.8249 12.16 11.8149C12.1833 11.8082 12.225 11.7816 12.285 11.7349C12.375 11.6649 12.41 11.6849 12.47 11.6849C12.655 11.6849 12.755 11.8349 12.775 11.8249C12.8 11.8149 12.675 11.6499 12.47 11.6499Z" fill="#85340A"/>
<path d="M12.84 11.7151C12.605 11.5101 12.305 11.4751 12.14 11.6301C12.102 11.6801 12.0763 11.7383 12.065 11.8001C12.045 11.9201 12.08 12.0451 12.17 12.1751L12.13 12.1951C12.05 12.0384 12.0233 11.8818 12.05 11.7251L12.08 11.6101C12.305 11.4251 12.615 11.4101 12.84 11.7101V11.7151Z" fill="#85340A"/>
<path d="M12.45 11.9051C12.4997 11.9051 12.54 11.8648 12.54 11.8151C12.54 11.7654 12.4997 11.7251 12.45 11.7251C12.4003 11.7251 12.36 11.7654 12.36 11.8151C12.36 11.8648 12.4003 11.9051 12.45 11.9051Z" fill="#85340A"/>
<path d="M12.715 11.875C12.54 12.01 12.365 12 12.265 11.94C12.165 11.875 12.165 11.855 12.185 11.855C12.205 11.855 12.225 11.875 12.305 11.92C12.39 11.96 12.51 11.96 12.715 11.875Z" fill="#85340A"/>
<path d="M11.8 12.1851C11.7861 12.1883 11.7732 12.1949 11.7623 12.2041C11.7515 12.2134 11.743 12.2251 11.7375 12.2383C11.7321 12.2515 11.7298 12.2658 11.731 12.28C11.7322 12.2942 11.7367 12.308 11.7442 12.3201C11.7518 12.3322 11.7621 12.3424 11.7743 12.3498C11.7865 12.3571 11.8003 12.3615 11.8146 12.3624C11.8288 12.3634 11.8431 12.361 11.8562 12.3554C11.8693 12.3497 11.8809 12.3411 11.89 12.3301C11.923 12.3505 11.9612 12.3609 12 12.3601H12.01C12.0433 12.3601 12.0817 12.3501 12.125 12.3301C12.1417 12.3534 12.1667 12.3651 12.2 12.3651C12.2239 12.367 12.2476 12.3595 12.2658 12.344C12.2841 12.3285 12.2955 12.3064 12.2975 12.2826C12.2995 12.2587 12.2919 12.235 12.2764 12.2167C12.261 12.1984 12.2389 12.187 12.215 12.1851C12.2417 12.1951 12.255 12.2151 12.255 12.2451C12.255 12.261 12.2487 12.2762 12.2374 12.2875C12.2262 12.2987 12.2109 12.3051 12.195 12.3051C12.1791 12.3051 12.1638 12.2987 12.1526 12.2875C12.1413 12.2762 12.135 12.261 12.135 12.2451C12.1232 12.2697 12.1048 12.2907 12.0819 12.3057C12.0589 12.3207 12.0324 12.3291 12.005 12.3301C11.9785 12.3282 11.953 12.3194 11.931 12.3045C11.9091 12.2895 11.8914 12.269 11.88 12.2451C11.8767 12.2817 11.855 12.3017 11.815 12.3051C11.7817 12.3017 11.7617 12.2817 11.755 12.2451C11.745 12.1901 11.77 12.1951 11.795 12.1851H11.8ZM11.9 12.4551C11.795 12.4551 11.75 12.5551 11.66 12.6101C11.71 12.5901 11.75 12.5501 11.825 12.5101C11.9 12.4701 11.955 12.5201 12 12.5201C12.045 12.5201 12.1 12.4701 12.175 12.5101C12.2417 12.5534 12.2967 12.5867 12.34 12.6101C12.245 12.5501 12.205 12.4601 12.1 12.4601C12.0767 12.4601 12.0433 12.4701 12 12.4901L11.9 12.4551Z" fill="#85340A"/>
<path d="M11.86 12.58C11.8233 12.58 11.7667 12.59 11.69 12.61C11.875 12.57 11.915 12.635 12 12.635C12.08 12.635 12.125 12.57 12.305 12.61C12.105 12.55 12.06 12.59 12 12.59C11.96 12.59 11.93 12.575 11.86 12.58Z" fill="#85340A"/>
<path d="M11.7 12.6099H11.66C11.875 12.6349 11.775 12.7599 12 12.7599C12.225 12.7599 12.125 12.6349 12.34 12.6099C12.115 12.5899 12.185 12.7249 12 12.7249C11.825 12.7249 11.88 12.6099 11.7 12.6099Z" fill="#85340A"/>
<path d="M12.185 12.945C12.185 12.8959 12.1655 12.8489 12.1308 12.8142C12.0961 12.7795 12.0491 12.76 12 12.76C11.9509 12.76 11.9039 12.7795 11.8692 12.8142C11.8345 12.8489 11.815 12.8959 11.815 12.945C11.8248 12.9033 11.8483 12.8661 11.8819 12.8394C11.9155 12.8128 11.9571 12.7983 12 12.7983C12.0429 12.7983 12.0845 12.8128 12.118 12.8394C12.1516 12.8661 12.1752 12.9033 12.185 12.945Z" fill="#85340A"/>
<path d="M11.17 11.7151C11.405 11.5101 11.705 11.4751 11.87 11.6301C11.908 11.6801 11.9337 11.7383 11.945 11.8001C11.965 11.9201 11.93 12.0451 11.84 12.1751L11.88 12.1951C11.96 12.0384 11.9867 11.8818 11.96 11.7251L11.93 11.6101C11.705 11.4251 11.395 11.4101 11.17 11.7101V11.7151Z" fill="#85340A"/>
<path d="M11.54 11.6499C11.675 11.6499 11.705 11.6799 11.765 11.7349C11.825 11.7849 11.86 11.7749 11.865 11.7849C11.88 11.7949 11.865 11.8249 11.85 11.8149C11.8267 11.8082 11.785 11.7816 11.725 11.7349C11.635 11.6649 11.6 11.6849 11.54 11.6849C11.355 11.6849 11.255 11.8349 11.235 11.8249C11.21 11.8149 11.335 11.6499 11.54 11.6499Z" fill="#85340A"/>
<path d="M11.53 11.7151C11.445 11.7151 11.355 11.7551 11.305 11.8351C11.405 11.9301 11.635 11.9351 11.79 11.8251C11.7573 11.7903 11.7177 11.7626 11.6739 11.7437C11.63 11.7248 11.5828 11.7151 11.535 11.7151H11.53ZM11.53 11.7351C11.62 11.7351 11.705 11.7751 11.715 11.8151C11.615 11.9301 11.45 11.9151 11.345 11.8351C11.3983 11.7684 11.4617 11.7351 11.535 11.7351H11.53Z" fill="#843511"/>
<path d="M11.545 11.9051C11.5947 11.9051 11.635 11.8648 11.635 11.8151C11.635 11.7654 11.5947 11.7251 11.545 11.7251C11.4953 11.7251 11.455 11.7654 11.455 11.8151C11.455 11.8648 11.4953 11.9051 11.545 11.9051Z" fill="#85340A"/>
<path d="M11.295 11.875C11.47 12.01 11.645 12 11.745 11.94C11.845 11.875 11.845 11.855 11.825 11.855C11.805 11.855 11.785 11.875 11.705 11.92C11.62 11.96 11.5 11.96 11.295 11.875Z" fill="#85340A"/>
</g>
</g>
<defs>
<clipPath id="clip0_2214_2988">
<path d="M0 12C0 5.37258 5.37258 0 12 0C18.6274 0 24 5.37258 24 12C24 18.6274 18.6274 24 12 24C5.37258 24 0 18.6274 0 12Z" fill="white"/>
</clipPath>
<clipPath id="clip1_2214_2988">
<rect width="32" height="24" fill="white" transform="translate(-4)"/>
</clipPath>
</defs>
</svg>
