<svg width="24" height="24" viewBox="0 0 24 24" fill="none" xmlns="http://www.w3.org/2000/svg">
<g clip-path="url(#clip0_3053_1884)">
<g clip-path="url(#clip1_3053_1884)">
<path d="M28.1 24V0H-3.90002V24H28.1Z" fill="#002868"/>
<path d="M22.428 8.43042V11.9569C22.428 14.3078 21.2525 16.839 18.3138 18.2104C15.3751 16.839 14.1996 14.3078 14.1996 11.9569V8.43042H22.428Z" fill="#FCD116" stroke="black" stroke-width="0.3"/>
<path d="M22.428 8.43042V11.9569C22.428 14.3078 21.2525 16.839 18.3138 18.2104C15.3751 16.839 14.1996 14.3078 14.1996 11.9569V8.43042H22.428Z" stroke="white" stroke-width="0.2625"/>
<path d="M16.8286 12.3135C16.7228 12.4976 16.5387 12.5368 16.3976 12.4781C16.2526 12.4193 16.1194 12.0745 15.9705 11.8903C15.8295 11.7062 15.7903 11.7845 15.6962 11.6787C15.5592 11.5533 15.3997 11.4549 15.2261 11.3888C15.0968 11.33 14.9635 11.2751 14.8734 11.0518C14.9131 10.9615 14.9861 10.8899 15.0772 10.852C15.1516 10.8245 15.2104 10.7188 15.2182 10.6247C15.23 10.5385 15.3083 10.4406 15.4141 10.3661C15.3632 10.3739 15.2613 10.3544 15.2143 10.323C15.1712 10.2838 15.0968 10.2917 15.0537 10.323C15.0066 10.3544 14.9518 10.3622 14.8734 10.3544C14.9048 10.3308 14.9596 10.276 14.9635 10.229C14.9675 10.1819 15.0262 10.1545 15.1399 10.1545C15.2496 10.1545 15.3201 10.0291 15.4102 10.0291C15.3475 10.0291 15.3593 9.91942 15.3945 9.91159C15.2378 9.88416 15.2574 9.75486 15.3201 9.75486C15.3162 9.73918 15.2966 9.71567 15.2221 9.69608C15.1555 9.66866 15.1869 9.60596 15.2417 9.56678C15.1947 9.46882 15.2378 9.39438 15.3162 9.33168C15.2065 9.32777 15.3279 9.17495 15.3554 9.09267C15.3867 9.0143 15.3985 9.00255 15.4337 9.05349C15.4729 9.09659 15.563 9.19846 15.6649 9.22981C15.7629 9.25724 15.8216 9.31209 15.8412 9.39438C15.8608 9.4845 15.9 9.5276 16.0058 9.56678C16.1194 9.60205 16.2722 9.69608 16.2526 9.90375C16.3267 9.90654 16.398 9.93259 16.4564 9.9782" fill="#FCAD56"/>
<path d="M16.8286 12.3135C16.7228 12.4976 16.5387 12.5368 16.3976 12.4781C16.2526 12.4193 16.1194 12.0745 15.9705 11.8903C15.8295 11.7062 15.7903 11.7845 15.6962 11.6787C15.5592 11.5533 15.3997 11.4549 15.2261 11.3888C15.0968 11.33 14.9635 11.2751 14.8734 11.0518C14.9131 10.9615 14.9861 10.8899 15.0772 10.852C15.1516 10.8245 15.2104 10.7188 15.2182 10.6247C15.23 10.5385 15.3083 10.4406 15.4141 10.3661C15.3632 10.3739 15.2613 10.3544 15.2143 10.323C15.1712 10.2838 15.0968 10.2917 15.0537 10.323C15.0066 10.3544 14.9518 10.3622 14.8734 10.3544C14.9048 10.3308 14.9596 10.276 14.9635 10.229C14.9675 10.1819 15.0262 10.1545 15.1399 10.1545C15.2496 10.1545 15.3201 10.0291 15.4102 10.0291C15.3475 10.0291 15.3593 9.91942 15.3945 9.91159C15.2378 9.88416 15.2574 9.75486 15.3201 9.75486C15.3162 9.73918 15.2966 9.71567 15.2221 9.69608C15.1555 9.66866 15.1869 9.60596 15.2417 9.56678C15.1947 9.46882 15.2378 9.39438 15.3162 9.33168C15.2065 9.32777 15.3279 9.17495 15.3554 9.09267C15.3867 9.0143 15.3985 9.00255 15.4337 9.05349C15.4729 9.09659 15.563 9.19846 15.6649 9.22981C15.7629 9.25724 15.8216 9.31209 15.8412 9.39438C15.8608 9.4845 15.9 9.5276 16.0058 9.56678C16.1194 9.60205 16.2722 9.69608 16.2526 9.90375C16.3267 9.90654 16.398 9.93259 16.4564 9.9782" stroke="black" stroke-width="0.01125" stroke-linecap="round" stroke-linejoin="round"/>
<path d="M17.099 9.66032C17.0985 9.70865 17.1093 9.75644 17.1303 9.79994C17.1514 9.84344 17.1823 9.88148 17.2205 9.91109C17.2949 9.96986 17.3576 10.0169 17.3419 10.0913C17.3302 10.1697 17.3576 10.2167 17.4203 10.2676C17.4908 10.3147 17.5378 10.3734 17.5222 10.4714C17.5065 10.5694 17.5143 10.6281 17.5535 10.7026C17.5927 10.777 17.6632 10.8358 17.6319 10.9533C17.6005 11.0709 17.6162 11.2276 17.6554 11.306C17.6946 11.3804 17.6554 11.4392 17.5888 11.5685C17.5183 11.6978 17.4791 11.7448 17.338 11.7958C17.193 11.8389 17.1813 11.929 17.1813 12.0779C17.1813 12.2346 17.0794 12.313 16.8874 12.2856C16.6915 12.4462 16.57 12.2542 16.5191 12.0152C16.4682 11.7762 16.4642 11.5137 16.1743 11.306C15.8883 11.0905 16.0019 10.7261 16.2409 10.5811C16.4799 10.4401 16.4525 10.0169 16.4211 9.75827C16.3976 9.49967 16.57 9.35077 16.7033 9.20972C16.8796 9.27633 17.099 9.54669 17.099 9.66032Z" fill="#FFA1A1" stroke="black" stroke-width="0.01125" stroke-linecap="round" stroke-linejoin="round"/>
<path d="M16.6837 11.3303C16.6288 11.2049 16.5701 11.0756 16.7111 10.8014C16.86 10.5232 16.766 10.3116 16.7229 10.1705C16.6798 10.0334 16.668 9.90408 16.7229 9.84531C16.7816 9.79437 16.8052 9.75911 16.8091 9.66507C16.813 9.57887 16.8874 9.60629 16.8992 9.64939C16.9109 9.69249 16.9188 9.76694 16.8404 9.90016C16.7621 10.0373 17.0598 10.3704 16.9227 10.7269C16.8287 10.9777 16.954 11.2951 17.0011 11.5184C17.0481 11.7417 17.0794 12.2629 16.7542 12.3412C16.9776 12.2354 16.7699 11.538 16.6837 11.3303Z" fill="#F1B2DC" stroke="black" stroke-width="0.01125" stroke-linecap="round" stroke-linejoin="round"/>
<path d="M15.2299 11.2903C15.2809 11.3021 15.3083 11.2707 15.324 11.2354C15.3396 11.2002 15.3514 11.1845 15.4023 11.1767C15.4493 11.1767 15.5277 11.1649 15.5473 11.1257C15.563 11.0865 15.6217 11.1179 15.6727 11.0199C15.7236 10.9181 15.755 10.8005 15.8882 10.7574M16.2526 9.90323C16.2017 9.90323 16.0606 9.91107 16.0018 10.0365M15.5943 9.2959C15.7119 9.33116 15.6648 9.40953 15.7236 9.45263C15.8294 9.53883 15.7315 9.62503 15.8216 9.64854C15.9117 9.67205 15.9039 9.68773 15.8843 9.78568C15.8529 9.89931 15.9626 9.90323 15.9235 9.97768M15.4141 10.3656C15.4846 10.3029 15.6531 10.252 15.6923 10.1853M15.4102 10.0286C15.512 10.0208 15.6492 10.06 15.6688 10.0208M15.3945 9.91498C15.4454 9.91498 15.5473 9.87972 15.5669 9.81311M15.32 9.75825C15.3788 9.75825 15.4533 9.75434 15.5277 9.69948M15.2417 9.56626C15.2848 9.53099 15.3631 9.57018 15.4376 9.52316M15.3161 9.33116C15.3514 9.33116 15.4258 9.32333 15.4258 9.36643" stroke="black" stroke-width="0.01125" stroke-linecap="round" stroke-linejoin="round"/>
<path d="M20.0029 10.2276C20.0029 10.2276 19.6601 9.93865 19.376 9.74273C19.0919 9.54682 18.7491 9.30682 18.7491 9.25785C18.803 9.21866 19.0919 9.40478 19.4887 9.64478C19.8903 9.88967 20.1156 10.1297 20.1156 10.1297L20.0029 10.2276ZM19.9785 10.4235C19.9785 10.4235 19.6454 10.2227 19.3172 10.0807C18.9744 9.93865 18.4601 9.93865 18.4062 9.88967C18.4062 9.84069 19.0038 9.8113 19.4299 9.98273C19.8658 10.1835 20.0911 10.3256 20.0911 10.3256L19.9785 10.4235ZM19.9736 10.7566C19.9736 10.7566 19.6111 10.5901 19.2585 10.5117C18.9156 10.4333 18.4258 10.4627 18.3671 10.4186C18.3671 10.3697 18.9744 10.2717 19.4299 10.4186C19.8903 10.5607 20.0862 10.6586 20.0862 10.6586L19.9736 10.7566ZM19.954 11.0945C19.954 11.0945 19.6797 10.9084 19.3172 10.8692C18.9744 10.8349 18.5189 11.0945 18.4601 11.0456C18.4601 10.9966 18.8568 10.7076 19.3515 10.7566C19.8364 10.8056 20.0666 10.9966 20.0666 10.9966L19.954 11.0945ZM20.0666 10.0268C20.0666 10.0268 19.7189 9.70845 19.7189 9.49294C19.7189 9.30193 19.9295 9.00806 20.0225 9.00806C19.9736 9.10601 19.8119 9.30193 19.8119 9.49294C19.8119 9.68886 20.1793 9.92885 20.1793 9.92885L20.0666 10.0268Z" fill="#9E540A" stroke="black" stroke-width="0.0103125" stroke-linecap="round" stroke-linejoin="round"/>
<path d="M20.0667 10.0272C20.0667 10.0272 20.1352 9.70888 20.1352 9.49338C20.1352 9.20441 19.9295 8.93992 19.9491 8.86646C20.0226 8.93992 20.2283 9.15543 20.2283 9.49338C20.2283 9.78725 20.1793 9.92929 20.1793 9.92929L20.0667 10.0272Z" fill="#9E540A" stroke="black" stroke-width="0.0103125" stroke-linecap="round" stroke-linejoin="round"/>
<path d="M20.1501 9.92452C20.1501 9.83146 20.1158 9.7482 20.057 9.68453C19.9787 9.59147 19.8611 9.56208 19.7387 9.58167C19.5917 9.60616 19.4742 9.69432 19.4007 9.83146C19.3028 10.0127 19.293 10.2086 19.2881 10.3996C19.2881 11.0608 19.3126 11.3302 19.3322 11.9816C19.3371 12.1726 19.3713 12.5645 19.2832 12.873C19.2489 13.0053 19.2097 13.1277 19.1509 13.2551C19.1901 13.0934 19.2097 13.0102 19.2293 12.8877C19.2832 12.5694 19.2685 12.2706 19.2587 11.9767C19.2391 11.3743 19.2048 11.0657 19.1852 10.3359C19.1803 10.1155 19.1999 9.94901 19.3028 9.77269C19.4105 9.59147 19.5966 9.45923 19.8073 9.45923C19.8954 9.45923 19.9689 9.47392 20.0423 9.518C20.1893 9.59637 20.2579 9.758 20.2579 9.91963L20.1501 9.92452Z" fill="#9E540A" stroke="#FCD116" stroke-width="0.05625" stroke-linecap="round" stroke-linejoin="round"/>
<path d="M20.1501 9.92452C20.1501 9.83146 20.1158 9.7482 20.057 9.68453C19.9787 9.59147 19.8611 9.56208 19.7387 9.58167C19.5917 9.60616 19.4742 9.69432 19.4007 9.83146C19.3028 10.0127 19.293 10.2086 19.2881 10.3996C19.2881 11.0608 19.3126 11.3302 19.3322 11.9816C19.3371 12.1726 19.3713 12.5645 19.2832 12.873C19.2489 13.0053 19.2097 13.1277 19.1509 13.2551C19.1901 13.0934 19.2097 13.0102 19.2293 12.8877C19.2832 12.5694 19.2685 12.2706 19.2587 11.9767C19.2391 11.3743 19.2048 11.0657 19.1852 10.3359C19.1803 10.1155 19.1999 9.94901 19.3028 9.77269C19.4105 9.59147 19.5966 9.45923 19.8073 9.45923C19.8954 9.45923 19.9689 9.47392 20.0423 9.518C20.1893 9.59637 20.2579 9.758 20.2579 9.91963L20.1501 9.92452Z" fill="#9E540A"/>
<path d="M20.1791 12.2851C20.1791 12.2851 20.042 12.53 19.9391 12.7063C19.8363 12.8827 19.753 12.9218 19.6747 12.868C19.6012 12.8141 19.6649 12.6721 19.7236 12.6035C19.7824 12.5349 20.1106 12.2166 20.1106 12.2166L20.1791 12.2851Z" fill="#9E540A" stroke="black" stroke-width="0.0103125" stroke-linecap="round" stroke-linejoin="round"/>
<path d="M20.2136 12.3058C20.2136 12.3058 20.1597 12.585 20.1156 12.7858C20.0765 12.9866 20.0079 13.0552 19.9246 13.0307C19.8365 13.0111 19.8512 12.8495 19.8854 12.7662C19.9197 12.6829 20.1254 12.2617 20.1254 12.2617L20.2136 12.3058Z" fill="#9E540A" stroke="black" stroke-width="0.0103125" stroke-linecap="round" stroke-linejoin="round"/>
<path d="M20.2724 12.3153V12.805C20.2724 13.0108 20.2234 13.094 20.1303 13.0891C20.0422 13.0842 20.0226 12.9275 20.0422 12.8344C20.0569 12.7463 20.1793 12.2908 20.1793 12.2908L20.2724 12.3153Z" fill="#9E540A" stroke="black" stroke-width="0.0103125" stroke-linecap="round" stroke-linejoin="round"/>
<path d="M20.542 10.2276C20.542 10.2276 20.8849 9.93865 21.169 9.74273C21.453 9.54682 21.7959 9.30682 21.7959 9.25785C21.742 9.21866 21.453 9.40478 21.0563 9.64478C20.6547 9.88967 20.4294 10.1297 20.4294 10.1297L20.542 10.2276ZM20.5665 10.4235C20.5665 10.4235 20.8996 10.2227 21.2277 10.0807C21.5706 9.93865 22.0849 9.93865 22.1387 9.88967C22.1387 9.84069 21.5412 9.8113 21.1151 9.98273C20.6792 10.1835 20.4539 10.3256 20.4539 10.3256L20.5665 10.4235ZM20.5714 10.7566C20.5714 10.7566 20.9339 10.5901 21.2865 10.5117C21.6294 10.4333 22.1191 10.4627 22.1779 10.4186C22.1779 10.3697 21.5706 10.2717 21.1151 10.4186C20.6547 10.5607 20.4588 10.6586 20.4588 10.6586L20.5714 10.7566ZM20.591 11.0945C20.591 11.0945 20.8653 10.9084 21.2277 10.8692C21.5706 10.8349 22.0261 11.0945 22.0849 11.0456C22.0849 10.9966 21.6881 10.7076 21.1935 10.7566C20.7086 10.8056 20.4784 10.9966 20.4784 10.9966L20.591 11.0945ZM20.4784 10.0268C20.4784 10.0268 20.8261 9.70845 20.8261 9.49294C20.8261 9.30193 20.6155 9.00806 20.5224 9.00806C20.5714 9.10601 20.7331 9.30193 20.7331 9.49294C20.7331 9.68886 20.3657 9.92885 20.3657 9.92885L20.4784 10.0268Z" fill="#9E540A" stroke="black" stroke-width="0.0103125" stroke-linecap="round" stroke-linejoin="round"/>
<path d="M20.4784 10.0272C20.4784 10.0272 20.4099 9.70888 20.4099 9.49338C20.4099 9.20441 20.6156 8.93992 20.596 8.86646C20.5225 8.93992 20.3168 9.15543 20.3168 9.49338C20.3168 9.78725 20.3658 9.92929 20.3658 9.92929L20.4784 10.0272Z" fill="#9E540A" stroke="black" stroke-width="0.0103125" stroke-linecap="round" stroke-linejoin="round"/>
<path d="M20.3952 9.92452C20.3952 9.83146 20.4295 9.7482 20.4882 9.68453C20.5666 9.59147 20.6842 9.56208 20.8066 9.58167C20.9535 9.60616 21.0711 9.69432 21.1446 9.83146C21.2425 10.0127 21.2523 10.2086 21.2572 10.3996C21.2572 11.0608 21.2327 11.3302 21.2131 11.9816C21.2082 12.1726 21.1739 12.5645 21.2621 12.873C21.2964 13.0053 21.3356 13.1277 21.3943 13.2551C21.3552 13.0934 21.3356 13.0102 21.316 12.8877C21.2621 12.5694 21.2768 12.2706 21.2866 11.9767C21.3062 11.3743 21.3405 11.0657 21.3601 10.3359C21.365 10.1155 21.3454 9.94901 21.2425 9.77269C21.1348 9.59147 20.9486 9.45923 20.738 9.45923C20.6499 9.45923 20.5764 9.47392 20.5029 9.518C20.356 9.59637 20.2874 9.758 20.2874 9.91963L20.3952 9.92452Z" fill="#9E540A" stroke="#FCD116" stroke-width="0.05625" stroke-linecap="round" stroke-linejoin="round"/>
<path d="M20.3952 9.92452C20.3952 9.83146 20.4295 9.7482 20.4882 9.68453C20.5666 9.59147 20.6842 9.56208 20.8066 9.58167C20.9535 9.60616 21.0711 9.69432 21.1446 9.83146C21.2425 10.0127 21.2523 10.2086 21.2572 10.3996C21.2572 11.0608 21.2327 11.3302 21.2131 11.9816C21.2082 12.1726 21.1739 12.5645 21.2621 12.873C21.2964 13.0053 21.3356 13.1277 21.3943 13.2551C21.3552 13.0934 21.3356 13.0102 21.316 12.8877C21.2621 12.5694 21.2768 12.2706 21.2866 11.9767C21.3062 11.3743 21.3405 11.0657 21.3601 10.3359C21.365 10.1155 21.3454 9.94901 21.2425 9.77269C21.1348 9.59147 20.9486 9.45923 20.738 9.45923C20.6499 9.45923 20.5764 9.47392 20.5029 9.518C20.356 9.59637 20.2874 9.758 20.2874 9.91963L20.3952 9.92452Z" fill="#9E540A"/>
<path d="M20.3658 12.2851C20.3658 12.2851 20.503 12.53 20.6058 12.7063C20.7087 12.8827 20.792 12.9218 20.8703 12.868C20.9438 12.8141 20.8801 12.6721 20.8213 12.6035C20.7626 12.5349 20.4344 12.2166 20.4344 12.2166L20.3658 12.2851Z" fill="#9E540A" stroke="black" stroke-width="0.0103125" stroke-linecap="round" stroke-linejoin="round"/>
<path d="M20.3314 12.3058C20.3314 12.3058 20.3853 12.585 20.4293 12.7858C20.4685 12.9866 20.5371 13.0552 20.6204 13.0307C20.7085 13.0111 20.6938 12.8495 20.6595 12.7662C20.6253 12.6829 20.4196 12.2617 20.4196 12.2617L20.3314 12.3058Z" fill="#9E540A" stroke="black" stroke-width="0.0103125" stroke-linecap="round" stroke-linejoin="round"/>
<path d="M20.2726 12.3153V12.805C20.2726 13.0108 20.3216 13.094 20.4147 13.0891C20.5028 13.0842 20.5224 12.9275 20.5028 12.8344C20.4881 12.7463 20.3657 12.2908 20.3657 12.2908L20.2726 12.3153Z" fill="#9E540A" stroke="black" stroke-width="0.0103125" stroke-linecap="round" stroke-linejoin="round"/>
<path d="M20.2724 12.3089C20.0128 12.304 19.9883 12.2109 19.9883 12.2109C19.9883 12.2109 19.954 12.0934 19.9491 12.0199C19.9442 12.0101 19.8757 11.8632 19.8953 11.7995C19.8708 11.7407 19.812 11.5987 19.8659 11.5742C19.8414 11.5056 19.8022 11.4273 19.7973 11.3538C19.7777 11.2999 19.7287 11.1824 19.7679 11.1432C19.7679 11.1432 19.6749 10.9473 19.7189 10.8983C19.7189 10.8983 19.6749 10.7073 19.7189 10.6583C19.7189 10.6583 19.7189 10.4624 19.7679 10.4134C19.7679 10.4134 19.7679 10.2224 19.812 10.1734C19.812 10.1832 19.9491 9.90405 20.2724 9.90405L20.2675 10.3204H20.2724V12.3089Z" fill="#9E540A" stroke="black" stroke-width="0.0103125" stroke-linecap="round" stroke-linejoin="round"/>
<path d="M20.2722 11.2406C19.8559 11.2357 19.7677 11.1426 19.7677 11.1426M20.2722 10.9957C19.8559 10.9957 19.7188 10.8977 19.7188 10.8977M20.2722 10.7557C19.8559 10.7508 19.7188 10.6577 19.7188 10.6577M20.2722 10.5108C19.8559 10.5059 19.7677 10.4128 19.7677 10.4128M20.2673 10.3198C20.2722 10.3198 19.9538 10.3198 19.9049 10.2708L19.8118 10.1777M20.2722 12.1124C20.1498 12.1124 20.0126 12.0928 19.9489 12.0193M20.2722 11.9165C20.042 11.9165 19.9049 11.8234 19.9049 11.8234C19.9049 11.8234 19.9 11.8136 19.8951 11.7989M20.2722 11.6765C19.9685 11.6716 19.8853 11.6079 19.8657 11.5736M20.2722 11.4806C19.8559 11.4806 19.8118 11.3826 19.8118 11.3826L19.7971 11.3532" stroke="black" stroke-width="0.0103125" stroke-linecap="round" stroke-linejoin="round"/>
<path d="M20.2724 12.3089C20.5319 12.304 20.5564 12.2109 20.5564 12.2109C20.5564 12.2109 20.5907 12.0934 20.5956 12.0199C20.6005 12.0101 20.6691 11.8632 20.6495 11.7995C20.674 11.7407 20.7327 11.5987 20.6789 11.5742C20.7034 11.5056 20.7425 11.4273 20.7474 11.3538C20.767 11.2999 20.816 11.1824 20.7768 11.1432C20.7768 11.1432 20.8699 10.9473 20.8258 10.8983C20.8258 10.8983 20.8699 10.7073 20.8258 10.6583C20.8258 10.6583 20.8258 10.4624 20.7768 10.4134C20.7768 10.4134 20.7768 10.2224 20.7327 10.1734C20.7327 10.1832 20.5956 9.90405 20.2724 9.90405L20.2772 10.3204H20.2724V12.3089Z" fill="#9E540A" stroke="black" stroke-width="0.0103125" stroke-linecap="round" stroke-linejoin="round"/>
<path d="M20.2723 11.2406C20.6886 11.2357 20.7768 11.1426 20.7768 11.1426M20.2723 10.9957C20.6886 10.9957 20.8257 10.8977 20.8257 10.8977M20.2723 10.7557C20.6886 10.7508 20.8257 10.6577 20.8257 10.6577M20.2723 10.5108C20.6886 10.5059 20.7768 10.4128 20.7768 10.4128M20.2772 10.3198C20.2723 10.3198 20.5906 10.3198 20.6396 10.2708L20.7327 10.1777M20.2723 12.1124C20.3947 12.1124 20.5319 12.0928 20.5955 12.0193M20.2723 11.9165C20.5025 11.9165 20.6396 11.8234 20.6396 11.8234C20.6396 11.8234 20.6445 11.8136 20.6494 11.7989M20.2723 11.6765C20.576 11.6716 20.6592 11.6079 20.6788 11.5736M20.2723 11.4806C20.6886 11.4806 20.7327 11.3826 20.7327 11.3826L20.7474 11.3532" stroke="black" stroke-width="0.0103125" stroke-linecap="round" stroke-linejoin="round"/>
<path d="M18.3133 16.8167C18.1027 17.0126 17.6961 16.8852 17.5688 16.7971C17.4366 16.8412 17.0839 16.704 16.9908 16.5522C16.7362 16.5865 16.648 16.224 16.6921 16.131C16.7606 15.9938 16.6382 15.9057 16.7264 15.8126C16.8488 15.6951 16.6578 15.5824 16.7753 15.504C16.8929 15.4208 16.746 15.2836 16.8635 15.1955C16.986 15.1024 16.7998 14.9751 16.9272 14.9114C17.0545 14.8477 16.9125 14.6812 17.0202 14.6175C17.128 14.5539 16.9566 14.3922 17.1035 14.3188C17.2455 14.2453 17.1182 14.118 17.2308 14.0641C17.3533 14.0004 17.2406 13.8682 17.3533 13.8241C17.4806 13.7702 17.3876 13.6282 17.4953 13.589C17.5884 13.5547 17.5296 13.4665 17.5884 13.3882H18.3133" fill="#009E49"/>
<path d="M18.3133 16.8167C18.1027 17.0126 17.6961 16.8852 17.5688 16.7971C17.4366 16.8412 17.0839 16.704 16.9908 16.5522C16.7362 16.5865 16.648 16.224 16.6921 16.131C16.7606 15.9938 16.6382 15.9057 16.7264 15.8126C16.8488 15.6951 16.6578 15.5824 16.7753 15.504C16.8929 15.4208 16.746 15.2836 16.8635 15.1955C16.986 15.1024 16.7998 14.9751 16.9272 14.9114C17.0545 14.8477 16.9125 14.6812 17.0202 14.6175C17.128 14.5539 16.9566 14.3922 17.1035 14.3188C17.2455 14.2453 17.1182 14.118 17.2308 14.0641C17.3533 14.0004 17.2406 13.8682 17.3533 13.8241C17.4806 13.7702 17.3876 13.6282 17.4953 13.589C17.5884 13.5547 17.5296 13.4665 17.5884 13.3882H18.3133" stroke="black" stroke-width="0.0103125" stroke-linecap="round" stroke-linejoin="round"/>
<path d="M17.8283 13.4177C17.7303 13.5157 17.8479 13.5891 17.7499 13.7067C17.647 13.8291 17.7401 13.8928 17.6568 14.0006C17.5736 14.1083 17.696 14.1622 17.603 14.2846C17.5099 14.4022 17.6226 14.4757 17.5197 14.5736C17.4217 14.6765 17.5393 14.7646 17.4364 14.8724C17.3385 14.985 17.456 15.0585 17.3581 15.1565C17.2552 15.2593 17.3728 15.3671 17.2748 15.465C17.1769 15.5679 17.2944 15.6952 17.1817 15.8128C17.074 15.9303 17.2013 16.0234 17.1132 16.1115C17.0201 16.2046 17.1034 16.2977 17.0397 16.3613C16.976 16.425 16.9662 16.5132 16.9907 16.5523M18.0193 13.452C17.9311 13.5745 18.0683 13.6283 17.985 13.7263C17.9017 13.8291 18.0193 13.8634 17.9556 13.981C17.8919 14.0985 18.0046 14.1279 17.9213 14.2455C17.8381 14.363 17.9654 14.4561 17.8772 14.5736C17.7842 14.6912 17.9213 14.7548 17.8381 14.8724C17.7597 14.9948 17.8772 15.0585 17.8038 15.1467C17.7303 15.2397 17.8577 15.3279 17.7646 15.4405C17.6764 15.5483 17.8038 15.6315 17.7303 15.7295C17.6568 15.8324 17.7597 15.9401 17.696 16.0234C17.6324 16.1017 17.7401 16.2242 17.647 16.3319C17.5589 16.4397 17.6666 16.5132 17.6128 16.5866C17.5589 16.6601 17.5148 16.7678 17.5687 16.7972" stroke="black" stroke-width="0.0103125" stroke-linecap="round" stroke-linejoin="round"/>
<path d="M18.3136 16.8167C18.5242 17.0126 18.9307 16.8852 19.058 16.7971C19.1903 16.8412 19.5429 16.704 19.636 16.5522C19.8907 16.5865 19.9788 16.224 19.9348 16.131C19.8662 15.9938 19.9886 15.9057 19.9005 15.8126C19.778 15.6951 19.969 15.5824 19.8515 15.504C19.7339 15.4208 19.8809 15.2836 19.7633 15.1955C19.6409 15.1024 19.827 14.9751 19.6997 14.9114C19.5723 14.8477 19.7143 14.6812 19.6066 14.6175C19.4988 14.5539 19.6703 14.3922 19.5233 14.3188C19.3813 14.2453 19.5086 14.118 19.396 14.0641C19.2735 14.0004 19.3862 13.8682 19.2735 13.8241C19.1462 13.7702 19.2393 13.6282 19.1315 13.589C19.0384 13.5547 19.0972 13.4665 19.0384 13.3882H18.3136" fill="#009E49"/>
<path d="M18.3136 16.8167C18.5242 17.0126 18.9307 16.8852 19.058 16.7971C19.1903 16.8412 19.5429 16.704 19.636 16.5522C19.8907 16.5865 19.9788 16.224 19.9348 16.131C19.8662 15.9938 19.9886 15.9057 19.9005 15.8126C19.778 15.6951 19.969 15.5824 19.8515 15.504C19.7339 15.4208 19.8809 15.2836 19.7633 15.1955C19.6409 15.1024 19.827 14.9751 19.6997 14.9114C19.5723 14.8477 19.7143 14.6812 19.6066 14.6175C19.4988 14.5539 19.6703 14.3922 19.5233 14.3188C19.3813 14.2453 19.5086 14.118 19.396 14.0641C19.2735 14.0004 19.3862 13.8682 19.2735 13.8241C19.1462 13.7702 19.2393 13.6282 19.1315 13.589C19.0384 13.5547 19.0972 13.4665 19.0384 13.3882H18.3136" stroke="black" stroke-width="0.0103125" stroke-linecap="round" stroke-linejoin="round"/>
<path d="M18.7983 13.4177C18.8963 13.5157 18.7787 13.5891 18.8767 13.7067C18.9795 13.8291 18.8865 13.8928 18.9697 14.0006C19.053 14.1083 18.9306 14.1622 19.0236 14.2846C19.1167 14.4022 19.004 14.4757 19.1069 14.5736C19.2048 14.6765 19.0873 14.7646 19.1901 14.8724C19.2881 14.985 19.1706 15.0585 19.2685 15.1565C19.3714 15.2593 19.2538 15.3671 19.3518 15.465C19.4497 15.5679 19.3322 15.6952 19.4448 15.8128C19.5526 15.9303 19.4252 16.0234 19.5134 16.1115C19.6065 16.2046 19.5232 16.2977 19.5869 16.3613C19.6505 16.425 19.6603 16.5132 19.6359 16.5523M18.6073 13.452C18.6955 13.5745 18.5583 13.6283 18.6416 13.7263C18.7249 13.8291 18.6073 13.8634 18.671 13.981C18.7347 14.0985 18.622 14.1279 18.7053 14.2455C18.7885 14.363 18.6612 14.4561 18.7493 14.5736C18.8424 14.6912 18.7053 14.7548 18.7885 14.8724C18.8669 14.9948 18.7493 15.0585 18.8228 15.1467C18.8963 15.2397 18.7689 15.3279 18.862 15.4405C18.9502 15.5483 18.8228 15.6315 18.8963 15.7295C18.9697 15.8324 18.8669 15.9401 18.9306 16.0234C18.9942 16.1017 18.8865 16.2242 18.9795 16.3319C19.0677 16.4397 18.96 16.5132 19.0138 16.5866C19.0677 16.6601 19.1118 16.7678 19.0579 16.7972" stroke="black" stroke-width="0.0103125" stroke-linecap="round" stroke-linejoin="round"/>
<path d="M18.3134 16.8176V13.3892" stroke="#009E49" stroke-width="0.0103125" stroke-linecap="round" stroke-linejoin="round"/>
<path d="M18.3134 13.5642C18.2693 13.7552 18.377 13.9218 18.3134 14.0834C18.2497 14.2401 18.3574 14.3038 18.3232 14.4311C18.284 14.5585 18.3672 14.6515 18.3134 14.7887C18.2595 14.9258 18.3868 15.0336 18.3134 15.2148C18.2399 15.3911 18.3623 15.4352 18.3134 15.6164C18.2595 15.8221 18.4064 15.9299 18.3134 16.0768C18.2203 16.2237 18.3966 16.258 18.3232 16.4245C18.2497 16.5862 18.3672 16.6498 18.3134 16.8164" stroke="black" stroke-width="0.0103125" stroke-linecap="round" stroke-linejoin="round"/>
<path d="M18.3868 14.1821C18.3623 14.236 18.4603 14.3633 18.4064 14.4613C18.3476 14.5543 18.4358 14.7012 18.377 14.8188C18.3183 14.9363 18.4701 15.0833 18.4113 15.2204C18.3476 15.3576 18.4407 15.529 18.4113 15.6563C18.3868 15.7837 18.475 16.0286 18.4113 16.1167C18.3476 16.2098 18.475 16.2343 18.4015 16.4596C18.328 16.6849 18.2791 16.4939 18.3232 16.4253C18.4162 16.2735 18.2203 16.2245 18.3134 16.0775C18.4064 15.9306 18.2595 15.8228 18.3134 15.6171C18.3623 15.4359 18.2399 15.3918 18.3134 15.2155C18.3868 15.0343 18.2595 14.9265 18.3134 14.7894C18.3672 14.6523 18.284 14.5592 18.3232 14.4319C18.3574 14.3045 18.2497 14.2408 18.3134 14.0841C18.3623 13.9274 18.4113 14.1282 18.3868 14.1821ZM17.9754 14.3388C17.9411 14.3976 18.0342 14.5102 17.9509 14.6229C17.8921 14.7012 17.9901 14.7943 17.9068 14.907C17.853 14.9853 17.9607 15.0833 17.8872 15.1959C17.8383 15.2596 17.9215 15.382 17.8628 15.4751C17.804 15.5731 17.8921 15.6514 17.7893 15.7788C17.7305 15.8473 17.8334 16.0188 17.7697 16.0726C17.706 16.1265 17.7648 16.3371 17.7207 16.3665C17.6815 16.4008 17.7207 16.5526 17.613 16.5869C17.6668 16.5134 17.5591 16.44 17.6472 16.3322C17.7403 16.2245 17.6326 16.102 17.6962 16.0237C17.7599 15.9404 17.657 15.8326 17.7305 15.7298C17.804 15.6318 17.6766 15.5486 17.7648 15.4408C17.8579 15.3282 17.7305 15.24 17.804 15.1469C17.8774 15.0588 17.7599 14.9951 17.8383 14.8727C17.9215 14.7551 17.7844 14.6915 17.8774 14.5739C17.9656 14.4564 17.8383 14.3633 17.9215 14.2457C18.0048 14.1282 17.8921 14.0988 17.9558 13.9813C18.0734 14.0253 18.0146 14.28 17.9754 14.3388ZM17.7305 14.0204C17.6815 14.0988 17.7501 14.1919 17.6766 14.2898C17.6032 14.3927 17.6766 14.52 17.6032 14.6033C17.5297 14.6817 17.6228 14.8384 17.5297 14.9021C17.4366 14.9657 17.4954 15.1567 17.4219 15.2204C17.3485 15.2841 17.4219 15.4653 17.3387 15.5584C17.2554 15.6514 17.2946 15.8424 17.2456 15.8865C17.2015 15.9306 17.3093 16.0237 17.2309 16.0873C17.1477 16.151 17.1477 16.2783 17.0399 16.3616C17.1036 16.2979 17.0203 16.2049 17.1134 16.1118C17.2015 16.0237 17.0742 15.9306 17.182 15.8131C17.2946 15.6955 17.1771 15.5682 17.275 15.4653C17.373 15.3674 17.2554 15.2596 17.3583 15.1567C17.4562 15.0588 17.3387 14.9853 17.4366 14.8727C17.5395 14.7649 17.4219 14.6768 17.5199 14.5739C17.6228 14.4759 17.5101 14.4025 17.6032 14.2849C17.6962 14.1625 17.5738 14.1086 17.657 14.0009C17.6962 13.9519 17.6962 13.9078 17.6962 13.8686C17.755 13.7168 17.755 13.9813 17.7305 14.0204Z" fill="#FCD116" stroke="black" stroke-width="0.0103125" stroke-linecap="round" stroke-linejoin="round"/>
<path d="M17.6327 13.5008C17.6327 12.4723 17.7747 12.1147 18.3135 12.1147C18.8523 12.1147 18.9943 12.4723 18.9943 13.5008H17.6327Z" fill="#CE1126" stroke="black" stroke-width="0.0103125" stroke-linecap="round" stroke-linejoin="round"/>
<path d="M17.6327 13.5008C17.6327 12.4723 17.7747 12.1147 18.3135 12.1147C18.0686 12.1147 17.9168 12.3058 17.8776 12.4331C17.8335 12.5604 17.858 12.5507 17.9119 12.5017C17.9657 12.4527 17.9413 12.5604 17.8923 12.6192C17.8482 12.678 17.8041 12.8494 17.8678 12.7955C17.9315 12.7368 17.9804 12.8004 17.9119 12.8984C17.8433 12.9915 17.7845 13.2168 17.8531 13.1384C17.9217 13.06 17.9364 13.1874 17.8923 13.251C17.8531 13.3147 17.858 13.3735 17.8923 13.3441C17.9315 13.3147 17.9266 13.447 17.8923 13.5008H17.6327ZM18.5682 13.4812C18.5682 13.3294 18.5731 12.9719 18.4898 12.8543C18.431 12.7613 18.431 12.6633 18.4996 12.7711C18.5682 12.8788 18.6025 12.8249 18.5535 12.7172C18.4947 12.58 18.4163 12.4282 18.4359 12.3988C18.4604 12.3645 18.4751 12.3792 18.5241 12.4527C18.5731 12.5262 18.5829 12.4184 18.529 12.3449C18.4751 12.2764 18.48 12.2617 18.5927 12.3107C18.7935 12.3939 18.8914 12.6339 18.8914 13.4421L18.5682 13.4812Z" fill="black" stroke="black" stroke-width="0.0103125" stroke-linecap="round" stroke-linejoin="round"/>
<path d="M18.3135 13.649C18.098 13.649 17.8629 13.6147 17.7061 13.551C17.52 13.4775 17.5102 13.4139 17.5739 13.3355C17.6229 13.2767 17.7208 13.311 17.8188 13.3551C17.9119 13.3943 18.1763 13.4237 18.3135 13.4237C18.4506 13.4237 18.7151 13.3943 18.8082 13.3502C18.9061 13.311 19.0041 13.2767 19.053 13.3355C19.1167 13.4139 19.1069 13.4775 18.9208 13.551C18.7641 13.6147 18.529 13.649 18.3135 13.649Z" fill="#CE1126" stroke="black" stroke-width="0.0103125" stroke-linecap="round" stroke-linejoin="round"/>
<path d="M-3.90002 0H12.1V12H-3.90002V0Z" fill="#012169"/>
<path d="M-2.02502 0L4.07498 4.525L10.15 0H12.1V1.55L6.09997 6.025L12.1 10.475V12H10.1L4.09998 7.525L-1.87502 12H-3.90002V10.5L2.07498 6.05L-3.90002 1.6V0H-2.02502Z" fill="white"/>
<path d="M6.69998 7.025L12.1 11V12L5.32498 7.025H6.69998ZM2.09998 7.525L2.24998 8.4L-2.55002 12H-3.90002L2.09998 7.525ZM12.1 0V0.075L5.87498 4.775L5.92498 3.675L10.85 0H12.1ZM-3.90002 0L2.07498 4.4H0.574975L-3.90002 1.05V0Z" fill="#C8102E"/>
<path d="M2.12498 0V12H6.12498V0H2.12498ZM-3.90002 4V8H12.1V4H-3.90002Z" fill="white"/>
<path d="M-3.90002 4.825V7.225H12.1V4.825H-3.90002ZM2.92498 0V12H5.32498V0H2.92498Z" fill="#C8102E"/>
</g>
</g>
<defs>
<clipPath id="clip0_3053_1884">
<rect width="24" height="24" fill="white"/>
</clipPath>
<clipPath id="clip1_3053_1884">
<rect width="24" height="24" rx="12" fill="white"/>
</clipPath>
</defs>
</svg>
