<svg width="24" height="24" viewBox="0 0 24 24" fill="none" xmlns="http://www.w3.org/2000/svg">
<g clip-path="url(#clip0_2214_4322)">
<g clip-path="url(#clip1_2214_4322)">
<path d="M0 0H32V24H0V0Z" fill="white"/>
<path d="M13.3 2.66504H32V5.33504H13.3V2.66504ZM13.3 8.00004H32V10.665H13.3V8.00004ZM0 13.335H32V16H0V13.335ZM0 18.665H32V21.335H0V18.665Z" fill="#0038A8"/>
<path d="M6.37164 7.97021L6.81164 8.63021C4.99297 9.95021 6.09297 10.7129 4.81697 11.1235C5.60897 10.3609 4.68497 10.2875 5.35964 8.65955" fill="#FCD116"/>
<path d="M6.37164 7.97021L6.81164 8.63021C4.99297 9.95021 6.09297 10.7129 4.81697 11.1235C5.60897 10.3609 4.68497 10.2875 5.35964 8.65955" stroke="black" stroke-width="0.0879999" stroke-miterlimit="20" stroke-linecap="square"/>
<path d="M6.04897 8.16089C5.05164 9.80355 5.69697 10.7129 4.81697 11.1382" stroke="black" stroke-width="0.0879999" stroke-miterlimit="20"/>
<path d="M6.66497 6.66504H7.54497L6.66497 11.505L5.78497 6.66504H6.66497V11.505V6.66504Z" fill="#FCD116"/>
<path d="M6.66497 6.66504H7.54497L6.66497 11.505M6.66497 6.66504H5.78497L6.66497 11.505M6.66497 6.66504V11.505" stroke="black" stroke-width="0.0879999" stroke-miterlimit="20"/>
<path d="M5.53454 7.38056L5.37898 8.15838C3.15961 7.80577 3.39814 9.12287 2.20549 8.51099C3.3048 8.53173 2.70329 7.82651 4.33152 7.1524" fill="#FCD116"/>
<path d="M5.53454 7.38056L5.37898 8.15838C3.15961 7.80577 3.39814 9.12287 2.20549 8.51099C3.3048 8.53173 2.70329 7.82651 4.33152 7.1524" stroke="black" stroke-width="0.0879999" stroke-miterlimit="20" stroke-linecap="square"/>
<path d="M5.17157 7.28717C3.30481 7.74349 3.11813 8.8428 2.19512 8.52131" stroke="black" stroke-width="0.0879999" stroke-miterlimit="20"/>
<path d="M6.66498 6.66498L7.28723 7.28723L3.24259 10.0874L6.04272 6.04272L6.66498 6.66498L3.24259 10.0874L6.66498 6.66498Z" fill="#FCD116"/>
<path d="M6.66498 6.66498L7.28723 7.28723L3.24259 10.0874M6.66498 6.66498L6.04272 6.04272L3.24259 10.0874M6.66498 6.66498L3.24259 10.0874" stroke="black" stroke-width="0.0879999" stroke-miterlimit="20"/>
<path d="M5.35962 6.37156L4.69962 6.81156C3.37962 4.99289 2.61696 6.09289 2.20629 4.81689C2.96896 5.60889 3.04229 4.68489 4.67029 5.35956" fill="#FCD116"/>
<path d="M5.35962 6.37156L4.69962 6.81156C3.37962 4.99289 2.61696 6.09289 2.20629 4.81689C2.96896 5.60889 3.04229 4.68489 4.67029 5.35956" stroke="black" stroke-width="0.0879999" stroke-miterlimit="20" stroke-linecap="square"/>
<path d="M5.16896 6.04889C3.5263 5.05156 2.61696 5.69689 2.19163 4.81689" stroke="black" stroke-width="0.0879999" stroke-miterlimit="20"/>
<path d="M6.66496 6.66491V7.54491L1.82497 6.66491L6.66496 5.78491V6.66491H1.82497H6.66496Z" fill="#FCD116"/>
<path d="M6.66496 6.66491V7.54491L1.82497 6.66491M6.66496 6.66491V5.78491L1.82497 6.66491M6.66496 6.66491H1.82497" stroke="black" stroke-width="0.0879999" stroke-miterlimit="20"/>
<path d="M5.94935 5.53437L5.17153 5.37881C5.52414 3.15944 4.20704 3.39797 4.81892 2.20532C4.79818 3.30463 5.5034 2.70312 6.17751 4.33135" fill="#FCD116"/>
<path d="M5.94935 5.53437L5.17153 5.37881C5.52414 3.15944 4.20704 3.39797 4.81892 2.20532C4.79818 3.30463 5.5034 2.70312 6.17751 4.33135" stroke="black" stroke-width="0.0879999" stroke-miterlimit="20" stroke-linecap="square"/>
<path d="M6.04268 5.17145C5.58636 3.30469 4.48705 3.11801 4.80854 2.195" stroke="black" stroke-width="0.0879999" stroke-miterlimit="20"/>
<path d="M6.66493 6.66498L6.04268 7.28723L3.24254 3.24259L7.28719 6.04272L6.66493 6.66498L3.24254 3.24259L6.66493 6.66498Z" fill="#FCD116"/>
<path d="M6.66493 6.66498L6.04268 7.28723L3.24254 3.24259M6.66493 6.66498L7.28719 6.04272L3.24254 3.24259M6.66493 6.66498L3.24254 3.24259" stroke="black" stroke-width="0.0879999" stroke-miterlimit="20"/>
<path d="M6.95831 5.35962L6.51831 4.69962C8.33697 3.37962 7.23697 2.61696 8.51297 2.20629C7.72097 2.96896 8.64497 3.04229 7.9703 4.67029" fill="#FCD116"/>
<path d="M6.95831 5.35962L6.51831 4.69962C8.33697 3.37962 7.23697 2.61696 8.51297 2.20629C7.72097 2.96896 8.64497 3.04229 7.9703 4.67029" stroke="black" stroke-width="0.0879999" stroke-miterlimit="20" stroke-linecap="square"/>
<path d="M7.28097 5.16895C8.2783 3.52628 7.63297 2.61695 8.51297 2.19162" stroke="black" stroke-width="0.0879999" stroke-miterlimit="20"/>
<path d="M6.66497 6.66504H5.78497L6.66497 1.82504L7.54497 6.66504H6.66497V1.82504V6.66504Z" fill="#FCD116"/>
<path d="M6.66497 6.66504H5.78497L6.66497 1.82504M6.66497 6.66504H7.54497L6.66497 1.82504M6.66497 6.66504V1.82504" stroke="black" stroke-width="0.0879999" stroke-miterlimit="20"/>
<path d="M7.7954 5.94951L7.95096 5.1717C10.1703 5.52431 9.9318 4.20721 11.1245 4.81909C10.0251 4.79835 10.6267 5.50357 8.99842 6.17767" fill="#FCD116"/>
<path d="M7.7954 5.94951L7.95096 5.1717C10.1703 5.52431 9.9318 4.20721 11.1245 4.81909C10.0251 4.79835 10.6267 5.50357 8.99842 6.17767" stroke="black" stroke-width="0.0879999" stroke-miterlimit="20" stroke-linecap="square"/>
<path d="M8.15839 6.04291C10.0251 5.58659 10.2118 4.48727 11.1348 4.80877" stroke="black" stroke-width="0.0879999" stroke-miterlimit="20"/>
<path d="M6.66498 6.6651L6.04272 6.04285L10.0874 3.24271L7.28723 7.28735L6.66498 6.6651L10.0874 3.24271L6.66498 6.6651Z" fill="#FCD116"/>
<path d="M6.66498 6.6651L6.04272 6.04285L10.0874 3.24271M6.66498 6.6651L7.28723 7.28735L10.0874 3.24271M6.66498 6.6651L10.0874 3.24271" stroke="black" stroke-width="0.0879999" stroke-miterlimit="20"/>
<path d="M7.97029 6.95827L8.63029 6.51828C9.95029 8.33694 10.713 7.23694 11.1236 8.51294C10.361 7.72094 10.2876 8.64494 8.65962 7.97027" fill="#FCD116"/>
<path d="M7.97029 6.95827L8.63029 6.51828C9.95029 8.33694 10.713 7.23694 11.1236 8.51294C10.361 7.72094 10.2876 8.64494 8.65962 7.97027" stroke="black" stroke-width="0.0879999" stroke-miterlimit="20" stroke-linecap="square"/>
<path d="M8.16095 7.28094C9.80361 8.27827 10.7129 7.63294 11.1383 8.51294" stroke="black" stroke-width="0.0879999" stroke-miterlimit="20"/>
<path d="M6.66496 6.66492V5.78492L11.505 6.66492L6.66496 7.54492V6.66492H11.505H6.66496Z" fill="#FCD116"/>
<path d="M6.66496 6.66492V5.78492L11.505 6.66492M6.66496 6.66492V7.54492L11.505 6.66492M6.66496 6.66492H11.505" stroke="black" stroke-width="0.0879999" stroke-miterlimit="20"/>
<path d="M7.38053 7.79546L8.15835 7.95102C7.80574 10.1704 9.12284 9.93186 8.51096 11.1245C8.5317 10.0252 7.82648 10.6267 7.15237 8.99848" fill="#FCD116"/>
<path d="M7.38053 7.79546L8.15835 7.95102C7.80574 10.1704 9.12284 9.93186 8.51096 11.1245C8.5317 10.0252 7.82648 10.6267 7.15237 8.99848" stroke="black" stroke-width="0.0879999" stroke-miterlimit="20" stroke-linecap="square"/>
<path d="M7.2872 8.15839C7.74352 10.0251 8.84283 10.2118 8.52134 11.1348" stroke="black" stroke-width="0.0879999" stroke-miterlimit="20"/>
<path d="M6.66495 6.6651L7.2872 6.04285L10.0873 10.0875L6.04269 7.28735L6.66495 6.6651L10.0873 10.0875L6.66495 6.6651Z" fill="#FCD116"/>
<path d="M6.66495 6.6651L7.2872 6.04285L10.0873 10.0875M6.66495 6.6651L6.04269 7.28735L10.0873 10.0875M6.66495 6.6651L10.0873 10.0875" stroke="black" stroke-width="0.0879999" stroke-miterlimit="20"/>
<path d="M6.66498 8.27842C7.556 8.27842 8.27831 7.55611 8.27831 6.66509C8.27831 5.77407 7.556 5.05176 6.66498 5.05176C5.77396 5.05176 5.05165 5.77407 5.05165 6.66509C5.05165 7.55611 5.77396 8.27842 6.66498 8.27842Z" fill="#FCD116" stroke="black" stroke-width="0.0879999" stroke-miterlimit="20"/>
<path d="M7.85297 6.0196C7.7503 6.13693 7.69164 5.9316 7.32498 5.9316C6.95831 5.9316 6.89965 6.1516 6.84098 6.1076C6.78232 6.0636 7.14898 5.7996 7.26631 5.78493C7.38364 5.77027 7.72097 5.8876 7.85297 6.0196ZM7.42764 6.1516C7.53031 6.2396 7.44231 6.43026 7.33964 6.43026C7.23698 6.43026 7.04631 6.25426 7.13431 6.13693" fill="black"/>
<path d="M6.94363 6.2837C6.9583 6.1077 7.10497 6.07837 7.33963 6.07837C7.57429 6.07837 7.67696 6.25437 7.76496 6.29837C7.66229 6.29837 7.57429 6.1517 7.33963 6.1517C7.10497 6.1517 7.10497 6.1517 6.94363 6.29837M6.98763 6.3277C7.0463 6.2397 7.11963 6.4157 7.28096 6.4157C7.4423 6.4157 7.53029 6.3717 7.63296 6.29837C7.73563 6.22503 7.48629 6.47436 7.32496 6.47436C7.16363 6.47436 6.94363 6.38637 6.98763 6.3277Z" fill="black"/>
<path d="M7.4863 6.41563C7.67697 6.31296 7.55963 6.1663 7.4863 6.13696C7.51563 6.1663 7.63297 6.31296 7.4863 6.41563ZM6.66498 7.29562C6.75298 7.29562 6.78231 7.26628 6.89964 7.26628C7.01697 7.26628 7.29564 7.42761 7.45697 7.36895C7.11964 7.50095 7.25164 7.41295 6.66498 7.41295H6.59164M7.51563 7.50095C7.45697 7.39828 7.47163 7.42761 7.3543 7.26628C7.47163 7.35428 7.50097 7.39828 7.51563 7.50095ZM6.66498 7.64761C7.03164 7.64761 6.97297 7.57428 7.45697 7.36895C7.10497 7.41295 7.03164 7.53028 6.66498 7.53028H6.59164M6.66498 7.10495C6.76764 7.10495 6.79698 7.03162 6.91431 7.03162C7.03164 7.03162 7.19297 7.07562 7.2663 7.13428C7.28097 7.14895 7.2223 7.01695 7.10497 7.00229C6.98764 6.98762 7.03164 6.79696 6.89964 6.76762C6.89964 6.82629 6.94364 6.81162 6.95831 6.89962C6.95831 6.97295 6.82631 6.97295 6.79698 6.89962C6.82631 7.01695 6.73831 7.01695 6.66498 7.01695" fill="black"/>
<path d="M5.477 6.0196C5.57967 6.13693 5.63833 5.9316 6.005 5.9316C6.37166 5.9316 6.43032 6.1516 6.48899 6.1076C6.54766 6.0636 6.18099 5.7996 6.06366 5.78493C5.94633 5.77027 5.609 5.8876 5.477 6.0196ZM5.90233 6.1516C5.79966 6.2396 5.88766 6.43026 5.99033 6.43026C6.09299 6.43026 6.28366 6.25426 6.19566 6.13693" fill="black"/>
<path d="M6.38631 6.2837C6.37164 6.1077 6.22498 6.07837 5.99031 6.07837C5.75565 6.07837 5.65298 6.25437 5.56498 6.29837C5.66765 6.29837 5.75565 6.1517 5.99031 6.1517C6.22498 6.1517 6.22498 6.1517 6.38631 6.29837M6.34231 6.3277C6.28364 6.2397 6.21031 6.4157 6.04898 6.4157C5.88765 6.4157 5.79965 6.3717 5.69698 6.29837C5.59432 6.22503 5.84365 6.47436 6.00498 6.47436C6.16631 6.47436 6.38631 6.38637 6.34231 6.3277Z" fill="black"/>
<path d="M5.84366 6.41563C5.65299 6.31296 5.77032 6.1663 5.84366 6.13696C5.81432 6.1663 5.69699 6.31296 5.84366 6.41563ZM6.66498 7.29562C6.57698 7.29562 6.54765 7.26628 6.43032 7.26628C6.31298 7.26628 6.03432 7.42761 5.87299 7.36895C6.21032 7.50095 6.07832 7.41295 6.66498 7.41295H6.73831M5.81432 7.50095C5.87299 7.39828 5.85832 7.42761 5.97565 7.26628C5.85832 7.35428 5.82899 7.39828 5.81432 7.50095ZM6.66498 7.64761C6.29832 7.64761 6.35698 7.57428 5.87299 7.36895C6.22498 7.41295 6.29832 7.53028 6.66498 7.53028H6.73831M6.66498 7.10495C6.56231 7.10495 6.53298 7.03162 6.41565 7.03162C6.29832 7.03162 6.13699 7.07562 6.06365 7.13428C6.04899 7.14895 6.10765 7.01695 6.22498 7.00229C6.34232 6.98762 6.29832 6.79696 6.43032 6.76762C6.43032 6.82629 6.38632 6.81162 6.37165 6.89962C6.37165 6.97295 6.50365 6.97295 6.53298 6.89962C6.50365 7.01695 6.59165 7.01695 6.66498 7.01695" fill="black"/>
<path d="M6.665 7.77979C6.59167 7.77979 6.40101 7.82378 6.665 7.82378C6.929 7.82378 6.73834 7.77979 6.665 7.77979Z" fill="black"/>
</g>
</g>
<defs>
<clipPath id="clip0_2214_4322">
<path d="M0 12C0 5.37258 5.37258 0 12 0C18.6274 0 24 5.37258 24 12C24 18.6274 18.6274 24 12 24C5.37258 24 0 18.6274 0 12Z" fill="white"/>
</clipPath>
<clipPath id="clip1_2214_4322">
<rect width="32" height="24" fill="white"/>
</clipPath>
</defs>
</svg>
