<svg width="24" height="24" viewBox="0 0 24 24" fill="none" xmlns="http://www.w3.org/2000/svg">
<g clip-path="url(#clip0_2214_3484)">
<g clip-path="url(#clip1_2214_3484)">
<path d="M-4 0H28V24H-4V0Z" fill="#D21034"/>
<path d="M-4 0H28V12H-4V0Z" fill="#00209F"/>
<path d="M8.21497 8.98486H15.785V15.0099H8.21497V8.98486Z" fill="white"/>
<path d="M13.525 13.3398L11.975 13.3898L10.44 13.4048C10.44 13.4048 9.64996 13.6948 9.32496 13.7598C8.99996 13.8248 9.04496 13.9298 8.79996 13.9898C8.59996 14.0348 8.57496 14.0448 8.45996 14.0548C8.38496 14.0548 8.29996 14.1148 8.20996 14.1748V15.0098H15.785V14.2148C15.705 14.1715 15.625 14.1382 15.545 14.1148C15.435 14.0748 15.36 14.0348 15.16 13.9898C14.91 13.9348 14.95 13.8248 14.63 13.7598C14.305 13.6948 13.525 13.3398 13.525 13.3398Z" fill="#016A16" stroke="#016A16" stroke-width="0.015"/>
<path d="M11.5601 11.48H11.6721L11.8801 12.336L11.8321 12.608L11.5601 11.48Z" fill="#F1B517" stroke="black" stroke-width="0.016"/>
<path d="M11.4401 10.9038L11.5201 11.5678H11.6001L11.4401 10.9118V10.9038Z" fill="white" stroke="black" stroke-width="0.016"/>
<path d="M11.656 12.3679L11.312 11.4479L11.44 11.4399L11.84 12.5599L11.656 12.3679Z" fill="#F1B517" stroke="black" stroke-width="0.016"/>
<path d="M11.1521 10.9199L11.2961 11.5599H11.4081L11.1521 10.9199Z" fill="white" stroke="black" stroke-width="0.016"/>
<path d="M11.3521 12.048L11.1521 11.608L11.2321 11.592L11.6081 12.312L11.3521 12.048Z" fill="#F1B517" stroke="black" stroke-width="0.016"/>
<path d="M10.88 11.104L11.112 11.712H11.224L10.888 11.104H10.88Z" fill="white" stroke="black" stroke-width="0.016"/>
<path d="M11.3841 12.1118L10.4641 11.1118C10.1761 11.3358 10.2321 11.7518 10.2321 11.7518L11.2721 12.5678L11.3841 12.1118Z" fill="#0A328C" stroke="black" stroke-width="0.016"/>
<path d="M11.912 12.656L11.232 11.968C10.944 11.984 11.168 12.408 11.184 12.464L11.904 13.08L11.912 12.656Z" fill="#D20014" stroke="black" stroke-width="0.016"/>
<path d="M11.8481 12.5439L10.4481 11.0399L10.3921 11.0799L11.8801 12.7279L11.8481 12.5439ZM10.3681 10.9439L10.3361 10.9039V10.8319L10.0481 10.6479L10.1761 10.9439L10.2801 10.9599L10.3041 10.9919L10.3681 10.9439Z" fill="#F1B517" stroke="black" stroke-width="0.016"/>
<path d="M10.2161 11.0481C10.2743 10.9743 10.348 10.9142 10.4321 10.8721L10.5121 10.9921L10.3361 11.1361L10.2161 11.0561V11.0481Z" fill="#F1B517" stroke="black" stroke-width="0.016"/>
<path d="M10.064 11.3039L10.112 11.3839C10.144 11.3759 10.432 11.1039 10.432 11.1039H10.648L10.704 11.0319C10.544 10.8719 10.408 11.0559 10.408 11.0559L10.064 11.3039Z" fill="#0A328C" stroke="#0A328C" stroke-width="0.016"/>
<path d="M10.2401 11.44C10.2401 11.36 10.3841 11.184 10.4001 11.176C10.5041 11.208 10.6001 11.272 10.7121 11.032C10.6161 11.144 10.4321 11.032 10.4321 11.032L10.3521 11.096V11.128L10.1121 11.352L10.2401 11.44Z" fill="#D20014" stroke="#D20014" stroke-width="0.016"/>
<path d="M10.984 12.3759L9.83203 11.4639C9.63203 11.6639 9.80003 12.2799 9.80003 12.2799L10.92 12.8879L10.976 12.3759H10.984Z" fill="#0A328C" stroke="black" stroke-width="0.016"/>
<path d="M11.936 13.1201L10.984 12.3521C10.664 12.4001 10.92 12.8721 10.936 12.9281L11.936 13.4721V13.1201Z" fill="#D20014" stroke="black" stroke-width="0.016"/>
<path d="M11.896 12.9598L9.84803 11.4238L9.80803 11.4718L11.952 13.1518L11.896 12.9598ZM9.75203 11.3438L9.72003 11.3118L9.70403 11.2478L9.38403 11.1118L9.56803 11.3758H9.67203L9.70403 11.4078L9.75203 11.3438Z" fill="#F1B517" stroke="black" stroke-width="0.016"/>
<path d="M9.62402 11.4719C9.66939 11.39 9.73221 11.3189 9.80802 11.2639L9.90402 11.3679L9.76002 11.5359L9.62402 11.4719Z" fill="#F1B517" stroke="black" stroke-width="0.016"/>
<path d="M9.52002 11.728V11.816C9.55202 11.8 9.81602 11.52 9.81602 11.52L10.016 11.48L10.064 11.416C9.92002 11.248 9.76802 11.472 9.76802 11.472L9.52002 11.728Z" fill="#0A328C" stroke="#0A328C" stroke-width="0.016"/>
<path d="M9.68008 11.8799C9.66408 11.7999 9.77608 11.5759 9.79208 11.5599C9.92008 11.5999 10.0321 11.6559 10.0721 11.3999C9.99208 11.5279 9.79208 11.4319 9.79208 11.4319L9.72808 11.5119V11.5519L9.52808 11.8159L9.68008 11.8799Z" fill="#D20014" stroke="#D20014" stroke-width="0.016"/>
<path d="M10.896 12.9359L9.41605 12.0959C9.31205 12.2799 9.40805 12.5359 9.45605 12.5759C9.45605 12.6959 9.40805 12.7599 9.51205 13.0159C9.54405 13.1866 9.61605 13.3199 9.72805 13.4159C9.85605 13.9279 10.384 13.9679 10.584 13.5439L10.896 12.9359Z" fill="#0A328C" stroke="black" stroke-width="0.016"/>
<path d="M11.864 13.48L10.864 12.896C10.544 12.936 10.864 13.536 10.888 13.592L11.864 13.936V13.48Z" fill="#D20014" stroke="black" stroke-width="0.016"/>
<path d="M11.696 13.264L9.43198 12.064L9.39198 12.112L11.792 13.448L11.696 13.264ZM9.31998 12L9.27998 11.976L9.25598 11.912L8.92798 11.832L9.14398 12.064L9.23998 12.048L9.28798 12.072L9.31998 12Z" fill="#F1B517" stroke="black" stroke-width="0.016"/>
<path d="M9.21606 12.1438C9.2374 12.0691 9.2854 11.9891 9.36006 11.9038L9.47206 11.9918L9.36006 12.1838L9.21606 12.1438Z" fill="#F1B517" stroke="black" stroke-width="0.016"/>
<path d="M9.12805 12.4159L9.17605 12.5119L9.41605 12.1439L9.61605 12.0719L9.65605 11.9919C9.49605 11.8479 9.37605 12.1039 9.37605 12.1039L9.12805 12.4159Z" fill="#0A328C" stroke="#0A328C" stroke-width="0.016"/>
<path d="M9.34408 12.5439C9.32808 12.4639 9.38408 12.2079 9.40008 12.1999C9.52008 12.2399 9.62408 12.2479 9.65608 11.9919C9.57608 12.1119 9.39208 12.0719 9.39208 12.0719L9.33608 12.1519L9.34408 12.1839L9.18408 12.5039L9.34408 12.5439Z" fill="#D20014" stroke="#D20014" stroke-width="0.016"/>
<path d="M12.432 11.48H12.32L12.112 12.336L12.16 12.608L12.432 11.48Z" fill="#F1B517" stroke="black" stroke-width="0.016"/>
<path d="M12.552 10.9038L12.472 11.5678H12.392L12.552 10.9118V10.9038Z" fill="white" stroke="black" stroke-width="0.016"/>
<path d="M12.3361 12.3679L12.6801 11.4479L12.5521 11.4399L12.1521 12.5599L12.3361 12.3679Z" fill="#F1B517" stroke="black" stroke-width="0.016"/>
<path d="M12.8401 10.9199L12.6961 11.5599H12.5841L12.8401 10.9199Z" fill="white" stroke="black" stroke-width="0.016"/>
<path d="M12.6401 12.048L12.8401 11.608L12.7601 11.592L12.3841 12.312L12.6401 12.048Z" fill="#F1B517" stroke="black" stroke-width="0.016"/>
<path d="M13.1121 11.104L12.8801 11.712H12.7681L13.1041 11.104H13.1121Z" fill="white" stroke="black" stroke-width="0.016"/>
<path d="M12.608 12.1118L13.528 11.1118C13.816 11.3358 13.76 11.7518 13.76 11.7518L12.72 12.5678L12.608 12.1118Z" fill="#0A328C" stroke="black" stroke-width="0.016"/>
<path d="M12.08 12.656L12.76 11.968C13.048 11.984 12.824 12.408 12.808 12.464L12.088 13.08L12.08 12.656Z" fill="#D20014" stroke="black" stroke-width="0.016"/>
<path d="M12.144 12.5439L13.544 11.0399L13.6 11.0799L12.112 12.7279L12.144 12.5439ZM13.624 10.9439L13.656 10.9039V10.8319L13.944 10.6479L13.816 10.9439L13.712 10.9599L13.688 10.9919L13.624 10.9439Z" fill="#F1B517" stroke="black" stroke-width="0.016"/>
<path d="M13.776 11.0481C13.7178 10.9743 13.6441 10.9142 13.56 10.8721L13.48 10.9921L13.656 11.1361L13.776 11.0561V11.0481Z" fill="#F1B517" stroke="black" stroke-width="0.016"/>
<path d="M13.928 11.3039L13.88 11.3839C13.848 11.3759 13.56 11.1039 13.56 11.1039H13.344L13.288 11.0319C13.448 10.8719 13.584 11.0559 13.584 11.0559L13.928 11.3039Z" fill="#0A328C" stroke="#0A328C" stroke-width="0.016"/>
<path d="M13.752 11.44C13.752 11.36 13.608 11.184 13.592 11.176C13.488 11.208 13.392 11.272 13.28 11.032C13.376 11.144 13.56 11.032 13.56 11.032L13.64 11.096V11.128L13.88 11.352L13.752 11.44Z" fill="#D20014" stroke="#D20014" stroke-width="0.016"/>
<path d="M13.008 12.3759L14.16 11.4639C14.36 11.6639 14.192 12.2799 14.192 12.2799L13.072 12.8879L13.016 12.3759H13.008Z" fill="#0A328C" stroke="black" stroke-width="0.016"/>
<path d="M12.056 13.1201L13.008 12.3521C13.328 12.4001 13.072 12.8721 13.056 12.9281L12.056 13.4721V13.1201Z" fill="#D20014" stroke="black" stroke-width="0.016"/>
<path d="M12.096 12.9598L14.144 11.4238L14.184 11.4718L12.04 13.1518L12.096 12.9598ZM14.24 11.3438L14.272 11.3118L14.288 11.2478L14.608 11.1118L14.424 11.3758H14.32L14.288 11.4078L14.24 11.3438Z" fill="#F1B517" stroke="black" stroke-width="0.016"/>
<path d="M14.368 11.4719C14.3227 11.39 14.2599 11.3189 14.184 11.2639L14.088 11.3679L14.232 11.5359L14.368 11.4719Z" fill="#F1B517" stroke="black" stroke-width="0.016"/>
<path d="M14.472 11.728V11.816C14.44 11.8 14.176 11.52 14.176 11.52L13.976 11.48L13.928 11.416C14.072 11.248 14.224 11.472 14.224 11.472L14.472 11.728Z" fill="#0A328C" stroke="#0A328C" stroke-width="0.016"/>
<path d="M14.312 11.8799C14.328 11.7999 14.216 11.5759 14.2 11.5599C14.072 11.5999 13.96 11.6559 13.92 11.3999C14 11.5279 14.2 11.4319 14.2 11.4319L14.264 11.5119V11.5519L14.464 11.8159L14.312 11.8799Z" fill="#D20014" stroke="#D20014" stroke-width="0.016"/>
<path d="M13.096 12.9359L14.576 12.0959C14.68 12.2799 14.584 12.5359 14.536 12.5759C14.536 12.6959 14.584 12.7599 14.48 13.0159C14.448 13.1866 14.376 13.3199 14.264 13.4159C14.136 13.9279 13.608 13.9679 13.408 13.5439L13.096 12.9359Z" fill="#0A328C" stroke="black" stroke-width="0.016"/>
<path d="M12.1281 13.48L13.1281 12.896C13.4481 12.936 13.1281 13.536 13.1041 13.592L12.1281 13.936V13.48Z" fill="#D20014" stroke="black" stroke-width="0.016"/>
<path d="M12.296 13.264L14.56 12.064L14.6 12.112L12.2 13.448L12.296 13.264ZM14.672 12L14.712 11.976L14.736 11.912L15.064 11.832L14.848 12.064L14.752 12.048L14.704 12.072L14.672 12Z" fill="#F1B517" stroke="black" stroke-width="0.016"/>
<path d="M14.776 12.1438C14.7547 12.0691 14.7067 11.9891 14.632 11.9038L14.52 11.9918L14.632 12.1838L14.776 12.1438Z" fill="#F1B517" stroke="black" stroke-width="0.016"/>
<path d="M14.864 12.4159L14.816 12.5119L14.576 12.1439L14.376 12.0719L14.336 11.9919C14.496 11.8479 14.616 12.1039 14.616 12.1039L14.864 12.4159Z" fill="#0A328C" stroke="#0A328C" stroke-width="0.016"/>
<path d="M14.648 12.5439C14.664 12.4639 14.608 12.2079 14.592 12.1999C14.472 12.2399 14.368 12.2479 14.336 11.9919C14.416 12.1119 14.6 12.0719 14.6 12.0719L14.656 12.1519L14.648 12.1839L14.808 12.5039L14.648 12.5439Z" fill="#D20014" stroke="#D20014" stroke-width="0.016"/>
<path d="M11.9039 10.0478L11.8639 10.7678H12.0959L12.0639 10.0478L12.3039 10.0238L12.2799 9.73584L11.6799 9.75984V10.0158L11.9039 10.0478Z" fill="#016A16" stroke="#016A16" stroke-width="0.016"/>
<path d="M11.984 9.75183C11.36 9.12783 10.872 9.43183 10.76 9.51983C10.84 9.53583 10.904 9.48783 10.944 9.47983L10.864 9.57583C10.864 9.57583 11.064 9.49583 11.088 9.49583C11.056 9.51983 11.024 9.57583 11.024 9.57583C11.04 9.57583 11.152 9.48783 11.168 9.48783C11.136 9.51983 11.128 9.60783 11.128 9.60783L11.224 9.56783C11.248 9.58383 11.216 9.61583 11.232 9.61583C11.392 9.59983 11.608 9.75183 11.632 9.79983" fill="#016A16"/>
<path d="M11.984 9.75183C11.36 9.12783 10.872 9.43183 10.76 9.51983C10.84 9.53583 10.904 9.48783 10.944 9.47983L10.864 9.57583C10.864 9.57583 11.064 9.49583 11.088 9.49583C11.056 9.51983 11.024 9.57583 11.024 9.57583C11.04 9.57583 11.152 9.48783 11.168 9.48783C11.136 9.51983 11.128 9.60783 11.128 9.60783L11.224 9.56783C11.248 9.58383 11.216 9.61583 11.232 9.61583C11.392 9.59983 11.608 9.75183 11.632 9.79983" stroke="black" stroke-width="0.016"/>
<path d="M11.832 9.86397C11.768 9.71997 10.584 9.46397 10.344 9.88797C10.44 9.91197 10.528 9.80797 10.528 9.80797V9.90397L10.68 9.77597L10.624 9.90397L10.744 9.79997V9.90397L10.904 9.74397L10.88 9.83197L11.016 9.77597L11 9.85597" fill="#016A16"/>
<path d="M11.832 9.86397C11.768 9.71997 10.584 9.46397 10.344 9.88797C10.44 9.91197 10.528 9.80797 10.528 9.80797V9.90397L10.68 9.77597L10.624 9.90397L10.744 9.79997V9.90397L10.904 9.74397L10.88 9.83197L11.016 9.77597L11 9.85597" stroke="black" stroke-width="0.016"/>
<path d="M11.776 9.88797C11.472 9.68797 11.008 9.82397 11.008 9.82397C10.704 9.98397 10.544 9.95997 10.512 10.272C10.536 10.264 10.616 10.16 10.616 10.16L10.68 10.28L10.696 10.112L10.744 10.248L10.824 10.024L10.84 10.176L10.952 10.024L11 10.072L11.048 9.95197L11.096 10.032C11.096 10.032 11.176 9.98397 11.216 10.008L11.296 9.91197L11.32 9.98397L11.4 9.90397L11.424 9.95997L11.496 9.89597V9.94397H11.736" fill="#016A16"/>
<path d="M11.776 9.88797C11.472 9.68797 11.008 9.82397 11.008 9.82397C10.704 9.98397 10.544 9.95997 10.512 10.272C10.536 10.264 10.616 10.16 10.616 10.16L10.68 10.28L10.696 10.112L10.744 10.248L10.824 10.024L10.84 10.176L10.952 10.024L11 10.072L11.048 9.95197L11.096 10.032C11.096 10.032 11.176 9.98397 11.216 10.008L11.296 9.91197L11.32 9.98397L11.4 9.90397L11.424 9.95997L11.496 9.89597V9.94397H11.736" stroke="black" stroke-width="0.016"/>
<path d="M11.712 9.91992C11.496 9.91992 10.888 10.1519 10.736 10.3839L10.84 10.3359L10.864 10.4319L10.904 10.3359L10.912 10.4159C10.9333 10.3519 10.9653 10.3493 11.008 10.4079L11.024 10.3199L11.048 10.3999L11.088 10.3119C11.088 10.3119 11.112 10.4079 11.128 10.4079C11.128 10.4079 11.192 10.2319 11.224 10.2239L11.232 10.3359L11.272 10.2239L11.312 10.3039V10.1919L11.36 10.2719C11.36 10.2719 11.376 10.1919 11.408 10.1759L11.472 10.2319L11.744 10.0319" fill="#016A16"/>
<path d="M11.712 9.91992C11.496 9.91992 10.888 10.1519 10.736 10.3839L10.84 10.3359L10.864 10.4319L10.904 10.3359L10.912 10.4159C10.9333 10.3519 10.9653 10.3493 11.008 10.4079L11.024 10.3199L11.048 10.3999L11.088 10.3119C11.088 10.3119 11.112 10.4079 11.128 10.4079C11.128 10.4079 11.192 10.2319 11.224 10.2239L11.232 10.3359L11.272 10.2239L11.312 10.3039V10.1919L11.36 10.2719C11.36 10.2719 11.376 10.1919 11.408 10.1759L11.472 10.2319L11.744 10.0319" stroke="black" stroke-width="0.016"/>
<path d="M11.752 9.97583C11.472 10.0798 11.216 10.4718 11.24 10.6318C11.36 10.4718 11.336 10.4958 11.392 10.6798C11.392 10.6798 11.408 10.5198 11.432 10.5038L11.472 10.6158L11.48 10.4638H11.52L11.512 10.3758L11.568 10.4158C11.552 10.3598 11.544 10.3438 11.6 10.2958C11.6 10.2958 11.52 10.3038 11.584 10.1758L11.64 10.2238C11.64 10.2238 11.624 10.1678 11.64 10.1438L11.848 10.0798" fill="#016A16"/>
<path d="M11.752 9.97583C11.472 10.0798 11.216 10.4718 11.24 10.6318C11.36 10.4718 11.336 10.4958 11.392 10.6798C11.392 10.6798 11.408 10.5198 11.432 10.5038L11.472 10.6158L11.48 10.4638H11.52L11.512 10.3758L11.568 10.4158C11.552 10.3598 11.544 10.3438 11.6 10.2958C11.6 10.2958 11.52 10.3038 11.584 10.1758L11.64 10.2238C11.64 10.2238 11.624 10.1678 11.64 10.1438L11.848 10.0798" stroke="black" stroke-width="0.016"/>
<path d="M11.776 10L11.672 10.208L11.728 10.224L11.6 10.312L11.704 10.304C11.704 10.304 11.544 10.36 11.528 10.52L11.688 10.44C11.688 10.44 11.552 10.584 11.528 10.672L11.632 10.592C11.632 10.592 11.536 10.688 11.552 10.832L11.624 10.752C11.608 10.936 11.608 10.952 11.688 11.088C11.688 11.088 11.672 10.88 11.688 10.848L11.872 11.04L11.776 10.776C11.776 10.776 11.888 10.936 11.952 10.928L11.808 10.712L11.952 10.824L11.792 10.584L11.936 10.632C11.936 10.632 11.832 10.496 11.84 10.408L11.944 10.52C11.944 10.52 11.904 10.4 11.912 10.36L11.968 10.368L11.864 10.256L11.936 10.24L11.928 10.16L11.976 10.152V10.064M11.888 10.064C11.712 10.304 11.8 10.664 11.696 10.856L11.888 10.064Z" fill="#016A16"/>
<path d="M11.776 10L11.672 10.208L11.728 10.224L11.6 10.312L11.704 10.304C11.704 10.304 11.544 10.36 11.528 10.52L11.688 10.44C11.688 10.44 11.552 10.584 11.528 10.672L11.632 10.592C11.632 10.592 11.536 10.688 11.552 10.832L11.624 10.752C11.608 10.936 11.608 10.952 11.688 11.088C11.688 11.088 11.672 10.88 11.688 10.848L11.872 11.04L11.776 10.776C11.776 10.776 11.888 10.936 11.952 10.928L11.808 10.712L11.952 10.824L11.792 10.584L11.936 10.632C11.936 10.632 11.832 10.496 11.84 10.408L11.944 10.52C11.944 10.52 11.904 10.4 11.912 10.36L11.968 10.368L11.864 10.256L11.936 10.24L11.928 10.16L11.976 10.152V10.064M11.888 10.064C11.712 10.304 11.8 10.664 11.696 10.856" stroke="black" stroke-width="0.016"/>
<path d="M12.0079 9.75183C12.6319 9.12783 13.1199 9.43183 13.2319 9.51983C13.1519 9.53583 13.0879 9.48783 13.0479 9.47983L13.1279 9.57583C13.1279 9.57583 12.9279 9.49583 12.9039 9.49583C12.9359 9.51983 12.9679 9.57583 12.9679 9.57583C12.9519 9.57583 12.8399 9.48783 12.8239 9.48783C12.8559 9.51983 12.8639 9.60783 12.8639 9.60783L12.7679 9.56783C12.7439 9.58383 12.7759 9.61583 12.7599 9.61583C12.5999 9.59983 12.3839 9.75183 12.3599 9.79983" fill="#016A16"/>
<path d="M12.0079 9.75183C12.6319 9.12783 13.1199 9.43183 13.2319 9.51983C13.1519 9.53583 13.0879 9.48783 13.0479 9.47983L13.1279 9.57583C13.1279 9.57583 12.9279 9.49583 12.9039 9.49583C12.9359 9.51983 12.9679 9.57583 12.9679 9.57583C12.9519 9.57583 12.8399 9.48783 12.8239 9.48783C12.8559 9.51983 12.8639 9.60783 12.8639 9.60783L12.7679 9.56783C12.7439 9.58383 12.7759 9.61583 12.7599 9.61583C12.5999 9.59983 12.3839 9.75183 12.3599 9.79983" stroke="black" stroke-width="0.016"/>
<path d="M12.16 9.86397C12.224 9.71997 13.4079 9.46397 13.6479 9.88797C13.5519 9.91197 13.4639 9.80797 13.4639 9.80797V9.90397L13.3119 9.77597L13.3679 9.90397L13.2479 9.79997V9.90397L13.0879 9.74397L13.1119 9.83197L12.9759 9.77597L12.9919 9.85597" fill="#016A16"/>
<path d="M12.1599 9.86397C12.2239 9.71997 13.4079 9.46397 13.6479 9.88797C13.5519 9.91197 13.4639 9.80797 13.4639 9.80797V9.90397L13.3119 9.77597L13.3679 9.90397L13.2479 9.79997V9.90397L13.0879 9.74397L13.1119 9.83197L12.9759 9.77597L12.9919 9.85597" stroke="black" stroke-width="0.016"/>
<path d="M12.216 9.88797C12.52 9.68797 12.984 9.82397 12.984 9.82397C13.288 9.98397 13.448 9.95997 13.48 10.272C13.456 10.264 13.376 10.16 13.376 10.16L13.312 10.28L13.296 10.112L13.248 10.248L13.168 10.024L13.152 10.176L13.04 10.024L12.992 10.072L12.944 9.95197L12.896 10.032C12.896 10.032 12.816 9.98397 12.776 10.008L12.696 9.91197L12.672 9.98397L12.592 9.90397L12.568 9.95997L12.496 9.89597V9.94397H12.256" fill="#016A16"/>
<path d="M12.216 9.88797C12.52 9.68797 12.984 9.82397 12.984 9.82397C13.288 9.98397 13.448 9.95997 13.48 10.272C13.456 10.264 13.376 10.16 13.376 10.16L13.312 10.28L13.296 10.112L13.248 10.248L13.168 10.024L13.152 10.176L13.04 10.024L12.992 10.072L12.944 9.95197L12.896 10.032C12.896 10.032 12.816 9.98397 12.776 10.008L12.696 9.91197L12.672 9.98397L12.592 9.90397L12.568 9.95997L12.496 9.89597V9.94397H12.256" stroke="black" stroke-width="0.016"/>
<path d="M12.28 9.91992C12.496 9.91992 13.104 10.1519 13.256 10.3839L13.152 10.3359L13.128 10.4319L13.088 10.3359L13.08 10.4159C13.0586 10.3519 13.0266 10.3493 12.984 10.4079L12.968 10.3199L12.944 10.3999L12.904 10.3119C12.904 10.3119 12.88 10.4079 12.864 10.4079C12.864 10.4079 12.8 10.2319 12.768 10.2239L12.76 10.3359L12.72 10.2239L12.68 10.3039V10.1919L12.632 10.2719C12.632 10.2719 12.616 10.1919 12.584 10.1759L12.52 10.2319L12.248 10.0319" fill="#016A16"/>
<path d="M12.28 9.91992C12.496 9.91992 13.104 10.1519 13.256 10.3839L13.152 10.3359L13.128 10.4319L13.088 10.3359L13.08 10.4159C13.0586 10.3519 13.0266 10.3493 12.984 10.4079L12.968 10.3199L12.944 10.3999L12.904 10.3119C12.904 10.3119 12.88 10.4079 12.864 10.4079C12.864 10.4079 12.8 10.2319 12.768 10.2239L12.76 10.3359L12.72 10.2239L12.68 10.3039V10.1919L12.632 10.2719C12.632 10.2719 12.616 10.1919 12.584 10.1759L12.52 10.2319L12.248 10.0319" stroke="black" stroke-width="0.016"/>
<path d="M12.24 9.97583C12.52 10.0798 12.776 10.4718 12.752 10.6318C12.632 10.4718 12.656 10.4958 12.6 10.6798C12.6 10.6798 12.584 10.5198 12.56 10.5038L12.52 10.6158L12.512 10.4638H12.472L12.48 10.3758L12.424 10.4158C12.44 10.3598 12.448 10.3438 12.392 10.2958C12.392 10.2958 12.472 10.3038 12.408 10.1758L12.352 10.2238C12.352 10.2238 12.368 10.1678 12.352 10.1438L12.144 10.0798" fill="#016A16"/>
<path d="M12.24 9.97583C12.52 10.0798 12.776 10.4718 12.752 10.6318C12.632 10.4718 12.656 10.4958 12.6 10.6798C12.6 10.6798 12.584 10.5198 12.56 10.5038L12.52 10.6158L12.512 10.4638H12.472L12.48 10.3758L12.424 10.4158C12.44 10.3598 12.448 10.3438 12.392 10.2958C12.392 10.2958 12.472 10.3038 12.408 10.1758L12.352 10.2238C12.352 10.2238 12.368 10.1678 12.352 10.1438L12.144 10.0798" stroke="black" stroke-width="0.016"/>
<path d="M12.216 10L12.32 10.208L12.264 10.224L12.392 10.312L12.288 10.304C12.288 10.304 12.448 10.36 12.464 10.52L12.304 10.44C12.304 10.44 12.44 10.584 12.464 10.672L12.36 10.592C12.36 10.592 12.456 10.688 12.44 10.832L12.368 10.752C12.384 10.936 12.384 10.952 12.304 11.088C12.304 11.088 12.32 10.88 12.304 10.848L12.12 11.04L12.216 10.776C12.216 10.776 12.104 10.936 12.04 10.928L12.184 10.712L12.04 10.824L12.2 10.584L12.056 10.632C12.056 10.632 12.16 10.496 12.152 10.408L12.048 10.52C12.048 10.52 12.088 10.4 12.08 10.36L12.024 10.368L12.128 10.256L12.056 10.24L12.064 10.16L12.016 10.152V10.064M12.104 10.064C12.28 10.304 12.192 10.664 12.296 10.856L12.104 10.064Z" fill="#016A16"/>
<path d="M12.216 10L12.32 10.208L12.264 10.224L12.392 10.312L12.288 10.304C12.288 10.304 12.448 10.36 12.464 10.52L12.304 10.44C12.304 10.44 12.44 10.584 12.464 10.672L12.36 10.592C12.36 10.592 12.456 10.688 12.44 10.832L12.368 10.752C12.384 10.936 12.384 10.952 12.304 11.088C12.304 11.088 12.32 10.88 12.304 10.848L12.12 11.04L12.216 10.776C12.216 10.776 12.104 10.936 12.04 10.928L12.184 10.712L12.04 10.824L12.2 10.584L12.056 10.632C12.056 10.632 12.16 10.496 12.152 10.408L12.048 10.52C12.048 10.52 12.088 10.4 12.08 10.36L12.024 10.368L12.128 10.256L12.056 10.24L12.064 10.16L12.016 10.152V10.064M12.104 10.064C12.28 10.304 12.192 10.664 12.296 10.856" stroke="black" stroke-width="0.016"/>
<path d="M12.0799 13.3198C12.0799 13.3198 12.1679 12.5198 12.1679 12.1838C12.1679 11.9118 12.1039 11.3198 12.1039 11.3198H11.8399C11.8399 11.3198 11.7999 11.9118 11.8079 12.1838C11.8079 12.5198 11.8959 13.3198 11.8959 13.3198H12.0799Z" fill="#F1B517" stroke="black" stroke-width="0.016"/>
<path d="M11.816 11.36H12.136L12.096 11.144H11.864L11.816 11.36Z" fill="#F1B517" stroke="black" stroke-width="0.016"/>
<path d="M11.84 11.184H12.12L12.064 10.968H11.888L11.84 11.184Z" fill="#F1B517" stroke="black" stroke-width="0.016"/>
<path d="M11.856 11.0158H12.096L12.048 10.7998H11.896L11.856 11.0158Z" fill="#F1B517" stroke="black" stroke-width="0.016"/>
<path d="M12.056 10.7759H11.896L11.872 10.8559H12.072L12.056 10.7759ZM12.088 13.1519H11.88H12.088ZM12.104 12.9919H11.864H12.104ZM12.136 12.8319H11.832H12.136ZM12.152 12.6639H11.832H12.152ZM12.152 12.4879H11.824H12.152ZM12.16 12.3279H11.808H12.16ZM12.16 12.1919H11.792H12.16ZM12.16 12.0159H11.792H12.16ZM12.152 11.8479H11.792H12.152ZM12.136 11.6719H11.808H12.136ZM12.12 11.5119H11.824H12.12Z" fill="#F1B517"/>
<path d="M12.088 13.1519H11.88M12.104 12.9919H11.864M12.136 12.8319H11.832M12.152 12.6639H11.832M12.152 12.4879H11.824M12.16 12.3279H11.808M12.16 12.1919H11.792M12.16 12.0159H11.792M12.152 11.8479H11.792M12.136 11.6719H11.808M12.12 11.5119H11.824M12.056 10.7759H11.896L11.872 10.8559H12.072L12.056 10.7759Z" stroke="black" stroke-width="0.016"/>
<path d="M12 9.51994C11.936 9.49594 11.816 9.41594 11.848 9.36794L11.904 9.27194C11.984 9.09594 11.904 9.15994 11.904 9.11194C11.888 9.04794 12.208 9.09594 12.208 9.21594C12.208 9.25594 12.184 9.23194 12.192 9.42394L12.128 9.54394C12.082 9.54848 12.0356 9.54302 11.992 9.52794L12 9.51994Z" fill="#0A328C" stroke="#0A328C" stroke-width="0.016"/>
<path d="M12.032 9.99986L11.952 9.92786L11.976 9.35986L12.056 9.38386L12.032 9.99186V9.99986Z" fill="#F1B517" stroke="black" stroke-width="0.016"/>
<path d="M12.136 9.54392C12.184 9.51192 12.216 9.42392 12.184 9.37592C12.104 9.27192 12.048 9.31192 11.912 9.26392C11.888 9.29592 11.832 9.34392 11.84 9.39192C12.024 9.47192 11.952 9.40792 12.016 9.41592C12.048 9.41592 12.064 9.45592 12.136 9.53592V9.54392Z" fill="#D20014" stroke="#D20014" stroke-width="0.016"/>
<path d="M11.08 12.824C11.0587 12.7813 11.0053 12.7573 10.92 12.752C10.792 12.744 10.784 12.784 10.76 12.824V12.792C10.7707 12.7333 10.824 12.7013 10.92 12.696C11.0267 12.696 11.0827 12.728 11.088 12.792L11.08 12.824Z" fill="#016A16" stroke="white" stroke-width="0.016" stroke-linecap="round"/>
<path d="M11.072 12.9438C11.072 13.0398 11 13.1278 10.92 13.1278C10.84 13.1278 10.776 13.0478 10.776 12.9358V12.8398H11.072V12.9438Z" fill="#016A16" stroke="white" stroke-width="0.016" stroke-linecap="round"/>
<path d="M10.92 12.8798C10.9995 12.8798 11.064 12.8476 11.064 12.8078C11.064 12.7681 10.9995 12.7358 10.92 12.7358C10.8405 12.7358 10.776 12.7681 10.776 12.8078C10.776 12.8476 10.8405 12.8798 10.92 12.8798Z" fill="white"/>
<path d="M10.888 12.88L10.864 12.624H10.976L10.96 12.888H10.888V12.88Z" fill="#016A16" stroke="#F1B517" stroke-width="0.016"/>
<path d="M11.08 12.8079C11.0587 12.8505 11.0053 12.8745 10.92 12.8799C10.792 12.8879 10.784 12.8479 10.76 12.8079V12.8399C10.7707 12.8985 10.824 12.9305 10.92 12.9359C11.0267 12.9359 11.0827 12.9039 11.088 12.8399L11.08 12.8079Z" fill="#016A16" stroke="white" stroke-width="0.016" stroke-linecap="round"/>
<path d="M11.68 13.8238L11.12 13.6478L10.872 13.2238L10 13.1838L10.032 13.5038L10.776 13.6398L10.84 13.7678L11.696 14.0078L11.68 13.8238Z" fill="#F1B517" stroke="black" stroke-width="0.016"/>
<path d="M11.096 13.944L10.2 12.624L10.16 12.664L11.04 13.976L11.096 13.944Z" fill="#503200" stroke="black" stroke-width="0.016"/>
<path d="M10.288 12.68L10.192 12.52C10.1707 12.488 10.1413 12.4827 10.104 12.504C10.072 12.5253 10.0667 12.5547 10.088 12.592L10.168 12.744L10.288 12.68Z" fill="white" stroke="black" stroke-width="0.016"/>
<path d="M11.2001 13.1278L9.40005 12.9438L9.35205 13.2078L11.1441 13.3918L11.2001 13.1278Z" fill="#F1B517" stroke="black" stroke-width="0.016"/>
<path d="M9.36007 12.8799L9.32007 13.2399H9.40007L9.44807 12.9119L9.36007 12.8799ZM9.66407 12.9359L9.64807 13.2639H9.69607L9.73607 12.9839L9.66407 12.9359ZM10.8881 13.0799L10.8401 13.3839H10.9281L10.9681 13.0799H10.8881ZM11.1521 13.0879L11.0961 13.4399L11.1921 13.4559L11.2241 13.2719C11.2294 13.3145 11.2561 13.3359 11.3041 13.3359C11.3574 13.3305 11.3841 13.3039 11.3841 13.2559C11.3841 13.2079 11.3574 13.1812 11.3041 13.1759C11.2874 13.1745 11.2707 13.1784 11.2563 13.187C11.242 13.1956 11.2307 13.2085 11.2241 13.2239L11.2481 13.0959L11.1521 13.0879ZM10.5121 13.1439L10.2561 13.4239L10.2881 13.4559L10.6081 13.2399L10.5121 13.1439ZM9.92007 13.8399L10.1681 13.5599L10.1441 13.5279L9.82407 13.7439L9.92007 13.8399ZM10.5681 13.7679L10.2721 13.5359L10.2401 13.5599L10.4801 13.8639L10.5681 13.7679ZM9.82407 13.2319L10.1361 13.4559L10.1681 13.4319L9.92807 13.1279L9.82407 13.2319ZM10.1601 13.0479L10.1921 13.4159H10.2321L10.3281 13.0559L10.1601 13.0479ZM10.2561 13.9279L10.2321 13.5679H10.1841L10.1281 13.9359L10.2561 13.9279ZM10.6641 13.4479L10.2801 13.4799V13.5199L10.6641 13.5679V13.4479ZM9.75207 13.5679L10.1281 13.5119V13.4799L9.74407 13.4399V13.5679H9.75207Z" fill="#F1B517" stroke="black" stroke-width="0.016"/>
<path d="M10.2161 13.5838C10.2735 13.5838 10.3201 13.5409 10.3201 13.4878C10.3201 13.4348 10.2735 13.3918 10.2161 13.3918C10.1586 13.3918 10.1121 13.4348 10.1121 13.4878C10.1121 13.5409 10.1586 13.5838 10.2161 13.5838Z" fill="#F1B517" stroke="black" stroke-width="0.016"/>
<path fill-rule="evenodd" clip-rule="evenodd" d="M10.7519 13.4878C10.7519 13.7678 10.5119 14.0078 10.2159 14.0078C10.1466 14.0089 10.0777 13.9963 10.0133 13.9707C9.94879 13.9452 9.88999 13.9071 9.84022 13.8589C9.79044 13.8106 9.75067 13.753 9.72317 13.6893C9.69567 13.6256 9.68097 13.5572 9.67993 13.4878C9.67993 13.1998 9.91993 12.9678 10.2159 12.9678C10.2853 12.9668 10.3541 12.9794 10.4186 13.0049C10.4831 13.0305 10.5419 13.0685 10.5916 13.1168C10.6414 13.1651 10.6812 13.2227 10.7087 13.2864C10.7362 13.35 10.7509 13.4185 10.7519 13.4878ZM10.6479 13.4878C10.6469 13.5435 10.6349 13.5985 10.6126 13.6495C10.5903 13.7005 10.5582 13.7467 10.5181 13.7853C10.478 13.824 10.4307 13.8543 10.3788 13.8746C10.327 13.895 10.2716 13.9049 10.2159 13.9038C10.1596 13.9049 10.1036 13.8947 10.0512 13.8739C9.99885 13.8531 9.95116 13.822 9.91093 13.7825C9.87071 13.743 9.83876 13.6959 9.81695 13.644C9.79515 13.592 9.78392 13.5362 9.78393 13.4798C9.7881 13.3688 9.83571 13.2638 9.9165 13.1875C9.9973 13.1112 10.1048 13.0697 10.2159 13.0718C10.2716 13.0708 10.327 13.0807 10.3788 13.101C10.4307 13.1214 10.478 13.1517 10.5181 13.1903C10.5582 13.229 10.5903 13.2751 10.6126 13.3262C10.6349 13.3772 10.6469 13.4322 10.6479 13.4878Z" fill="#F1B517" stroke="black" stroke-width="0.016" stroke-linecap="round"/>
<path d="M9.88005 13.2238L9.80005 13.1598L9.88005 13.2238ZM10.48 13.1598L10.56 13.0798L10.48 13.1598ZM10.64 13.8158L10.552 13.7438L10.64 13.8158ZM9.88005 13.8958L9.96005 13.8158L9.88005 13.8958ZM11.696 12.9678L11.784 13.4478L11.712 13.4798L11.632 12.9758L11.696 12.9678Z" fill="#F1B517"/>
<path d="M9.88005 13.2238L9.80005 13.1598M10.48 13.1598L10.56 13.0798M10.64 13.8158L10.552 13.7438M9.88005 13.8958L9.96005 13.8158M11.696 12.9678L11.784 13.4478L11.712 13.4798L11.632 12.9758L11.696 12.9678Z" stroke="black" stroke-width="0.016"/>
<path d="M11.648 12.9119C11.608 12.8879 11.552 12.9199 11.456 12.8079C11.304 12.9439 11.456 12.9679 11.472 13.1039C11.512 13.1199 11.544 12.9919 11.656 12.9839L11.84 12.9679L11.8 12.9119H11.648Z" fill="white" stroke="black" stroke-width="0.016"/>
<path d="M11.712 13L11.696 12.864C11.672 12.808 11.616 12.856 11.616 12.88L11.632 13.016L11.712 13Z" fill="white" stroke="black" stroke-width="0.016"/>
<path fill-rule="evenodd" clip-rule="evenodd" d="M11.264 13.3918V13.5198C11.216 13.5358 11.224 13.5678 11.224 13.6158V13.9918C11.208 14.0185 11.1813 14.0345 11.144 14.0398C11.112 14.0718 11.1386 14.0985 11.224 14.1198L11.304 14.1278C11.4213 14.0958 11.448 14.0692 11.384 14.0478C11.3466 14.0318 11.32 14.0158 11.304 13.9998V13.9038H11.384C11.4 13.9038 11.44 13.8558 11.44 13.8158V13.6158C11.44 13.5038 11.36 13.4878 11.328 13.4958V13.3918H11.264ZM11.3919 13.6078C11.3919 13.5758 11.344 13.5438 11.328 13.5438C11.3013 13.5545 11.2826 13.5785 11.2719 13.6158V13.6958C11.2719 13.7278 11.296 13.8238 11.344 13.8318C11.3653 13.8265 11.3813 13.8052 11.3919 13.7678V13.6078Z" fill="#F1B517" stroke="black" stroke-width="0.016"/>
<path d="M10.744 13.7838C10.688 13.7678 10.688 13.8798 10.688 13.8798H10.768C10.8106 13.9011 10.8266 13.9331 10.816 13.9758C10.792 13.9918 10.64 13.9358 10.632 13.9758C10.656 14.1278 10.864 14.1838 10.936 14.1198C11.008 14.0558 11.024 13.8798 10.792 13.8238L10.744 13.7838ZM10.792 13.8318L10.768 13.8798L10.792 13.8318Z" fill="white"/>
<path d="M10.768 13.8798H10.688C10.688 13.8798 10.688 13.7678 10.744 13.7838L10.792 13.8238C11.024 13.8798 11.008 14.0558 10.936 14.1198C10.864 14.1838 10.656 14.1278 10.632 13.9758C10.64 13.9358 10.792 13.9918 10.816 13.9758C10.8266 13.9331 10.8106 13.9011 10.768 13.8798ZM10.768 13.8798L10.792 13.8318" stroke="black" stroke-width="0.016"/>
<path d="M9.20006 13.84L9.12006 13.52L9.20006 13.84ZM9.28806 13.824L9.16806 13.576L9.28806 13.824ZM9.48806 13.76L9.22406 13.616L9.48806 13.76ZM9.60806 13.728L9.11206 13.512L9.60806 13.728Z" fill="#F1B517"/>
<path d="M9.20006 13.84L9.12006 13.52M9.28806 13.824L9.16806 13.576M9.48806 13.76L9.22406 13.616M9.60806 13.728L9.11206 13.512" stroke="black" stroke-width="0.016"/>
<path d="M8.81596 13.28L8.60796 13.288C8.59196 13.296 8.64796 13.36 8.63996 13.376C8.59196 13.464 8.28796 13.456 8.26396 13.44C8.22396 13.4 8.54396 13.376 8.55196 13.36C8.55196 13.328 8.50396 13.264 8.51196 13.224C8.51196 13.168 8.64796 13.144 8.64796 13.144L8.81596 13.28Z" fill="#D20014" stroke="#D20014" stroke-width="0.016"/>
<path d="M9.056 13.4398L8.656 13.1038C8.656 13.1038 8.632 13.0878 8.616 13.1038C8.6 13.1198 8.616 13.1358 8.616 13.1358L9.048 13.4878L9.056 13.4478V13.4398Z" fill="#503200" stroke="black" stroke-width="0.016"/>
<path d="M9.45601 13.776L9.12001 13.488L9.09601 13.408L9.03201 13.456C9.00801 13.472 8.98401 13.52 8.98401 13.52H9.07201L9.36001 13.792L9.44801 13.776H9.45601Z" fill="#F1B517" stroke="black" stroke-width="0.016"/>
<path d="M10.5999 14.2238C10.6309 14.2238 10.6559 14.1987 10.6559 14.1678C10.6559 14.1369 10.6309 14.1118 10.5999 14.1118C10.569 14.1118 10.5439 14.1369 10.5439 14.1678C10.5439 14.1987 10.569 14.2238 10.5999 14.2238Z" fill="#F1B517" stroke="black" stroke-width="0.016"/>
<path d="M10.448 14.112C10.4789 14.112 10.504 14.0869 10.504 14.056C10.504 14.0251 10.4789 14 10.448 14C10.417 14 10.392 14.0251 10.392 14.056C10.392 14.0869 10.417 14.112 10.448 14.112Z" fill="#F1B517" stroke="black" stroke-width="0.016"/>
<path d="M10.248 14.1838C10.2789 14.1838 10.304 14.1587 10.304 14.1278C10.304 14.0969 10.2789 14.0718 10.248 14.0718C10.2171 14.0718 10.192 14.0969 10.192 14.1278C10.192 14.1587 10.2171 14.1838 10.248 14.1838Z" fill="#F1B517" stroke="black" stroke-width="0.016"/>
<path d="M9.936 14.248C9.96693 14.248 9.992 14.2229 9.992 14.192C9.992 14.1611 9.96693 14.136 9.936 14.136C9.90508 14.136 9.88 14.1611 9.88 14.192C9.88 14.2229 9.90508 14.248 9.936 14.248Z" fill="#F1B517" stroke="black" stroke-width="0.016"/>
<path d="M9.80002 14.2639C9.83095 14.2639 9.85602 14.2388 9.85602 14.2079C9.85602 14.1769 9.83095 14.1519 9.80002 14.1519C9.76909 14.1519 9.74402 14.1769 9.74402 14.2079C9.74402 14.2388 9.76909 14.2639 9.80002 14.2639Z" fill="#F1B517" stroke="black" stroke-width="0.016"/>
<path d="M9.66403 14.2639C9.69496 14.2639 9.72003 14.2388 9.72003 14.2079C9.72003 14.1769 9.69496 14.1519 9.66403 14.1519C9.6331 14.1519 9.60803 14.1769 9.60803 14.2079C9.60803 14.2388 9.6331 14.2639 9.66403 14.2639Z" fill="#F1B517" stroke="black" stroke-width="0.016"/>
<path d="M9.53598 14.2639C9.56691 14.2639 9.59198 14.2388 9.59198 14.2079C9.59198 14.1769 9.56691 14.1519 9.53598 14.1519C9.50505 14.1519 9.47998 14.1769 9.47998 14.2079C9.47998 14.2388 9.50505 14.2639 9.53598 14.2639Z" fill="#F1B517" stroke="black" stroke-width="0.016"/>
<path d="M9.59995 14.1599C9.63087 14.1599 9.65594 14.1348 9.65594 14.1039C9.65594 14.0729 9.63087 14.0479 9.59995 14.0479C9.56902 14.0479 9.54395 14.0729 9.54395 14.1039C9.54395 14.1348 9.56902 14.1599 9.59995 14.1599Z" fill="#F1B517" stroke="black" stroke-width="0.016"/>
<path d="M9.728 14.1679C9.75893 14.1679 9.784 14.1428 9.784 14.1119C9.784 14.081 9.75893 14.0559 9.728 14.0559C9.69707 14.0559 9.672 14.081 9.672 14.1119C9.672 14.1428 9.69707 14.1679 9.728 14.1679Z" fill="#F1B517" stroke="black" stroke-width="0.016"/>
<path d="M9.84799 14.152C9.87892 14.152 9.90399 14.127 9.90399 14.096C9.90399 14.0651 9.87892 14.04 9.84799 14.04C9.81707 14.04 9.79199 14.0651 9.79199 14.096C9.79199 14.127 9.81707 14.152 9.84799 14.152Z" fill="#F1B517" stroke="black" stroke-width="0.016"/>
<path d="M9.79196 14.0558C9.82289 14.0558 9.84796 14.0308 9.84796 13.9998C9.84796 13.9689 9.82289 13.9438 9.79196 13.9438C9.76103 13.9438 9.73596 13.9689 9.73596 13.9998C9.73596 14.0308 9.76103 14.0558 9.79196 14.0558Z" fill="#F1B517" stroke="black" stroke-width="0.016"/>
<path d="M9.66403 14.048C9.69496 14.048 9.72003 14.023 9.72003 13.992C9.72003 13.9611 9.69496 13.936 9.66403 13.936C9.6331 13.936 9.60803 13.9611 9.60803 13.992C9.60803 14.023 9.6331 14.048 9.66403 14.048Z" fill="#F1B517" stroke="black" stroke-width="0.016"/>
<path fill-rule="evenodd" clip-rule="evenodd" d="M10.92 14.2399C10.92 14.2159 10.856 14.2239 10.856 14.1919C10.856 14.1599 10.952 14.1919 10.96 14.2159C11.016 14.1679 11.04 14.1999 11.072 14.2159C11.1253 14.1519 11.1786 14.1466 11.232 14.1999C11.264 14.1679 11.344 14.1759 11.368 14.2159C11.4213 14.1733 11.4666 14.1733 11.504 14.2159C11.52 14.1893 11.5386 14.1893 11.56 14.2159C11.584 14.1599 11.656 14.1759 11.688 14.2159C11.712 14.1839 11.744 14.2079 11.776 14.2239C11.808 14.2079 11.8293 14.2079 11.84 14.2239C11.84 14.2559 11.792 14.2479 11.792 14.2719C11.792 14.2959 11.824 14.2719 11.824 14.3039C11.824 14.3279 11.776 14.3359 11.768 14.3039C11.744 14.3359 11.68 14.3199 11.672 14.2879C11.6581 14.2983 11.6413 14.3039 11.624 14.3039C11.6066 14.3039 11.5898 14.2983 11.576 14.2879C11.5493 14.3039 11.528 14.3039 11.512 14.2879C11.472 14.3279 11.4 14.3199 11.376 14.2719H11.352C11.3444 14.2805 11.3352 14.2873 11.3249 14.2919C11.3145 14.2966 11.3033 14.299 11.292 14.299C11.2806 14.299 11.2694 14.2966 11.259 14.2919C11.2487 14.2873 11.2395 14.2805 11.232 14.2719C11.168 14.3146 11.1173 14.3146 11.08 14.2719C11.04 14.3279 10.968 14.3279 10.96 14.2719C10.928 14.2959 10.864 14.3039 10.864 14.2719C10.864 14.2559 10.92 14.2639 10.92 14.2399ZM11.048 14.2479C11.048 14.2639 11.0373 14.2719 11.016 14.2719C10.9946 14.2719 10.984 14.2639 10.984 14.2479C10.984 14.2319 10.9946 14.2266 11.016 14.2319L11.048 14.2479ZM11.2 14.2319C11.2 14.2479 11.184 14.2559 11.152 14.2559C11.12 14.2559 11.1066 14.2479 11.112 14.2319C11.112 14.2213 11.1253 14.2133 11.152 14.2079C11.1786 14.2026 11.192 14.2106 11.192 14.2319H11.2ZM11.48 14.2479C11.48 14.2639 11.4666 14.2719 11.44 14.2719C11.4133 14.2719 11.4026 14.2639 11.408 14.2479C11.408 14.2373 11.4186 14.2293 11.44 14.2239C11.472 14.2239 11.4853 14.2319 11.48 14.2479ZM11.328 14.2479C11.328 14.2639 11.3146 14.2719 11.288 14.2719C11.2613 14.2719 11.2506 14.2613 11.256 14.2399C11.2613 14.2186 11.272 14.2079 11.288 14.2079C11.3146 14.2079 11.328 14.2186 11.328 14.2399V14.2479ZM11.648 14.2479C11.648 14.2586 11.64 14.2666 11.624 14.2719C11.5973 14.2719 11.584 14.2613 11.584 14.2399C11.584 14.2186 11.5973 14.2106 11.624 14.2159C11.64 14.2159 11.6506 14.2239 11.656 14.2399L11.648 14.2479ZM11.552 14.2479C11.552 14.2639 11.5466 14.2719 11.536 14.2719C11.5253 14.2719 11.5173 14.2639 11.512 14.2479C11.512 14.2319 11.52 14.2266 11.536 14.2319L11.552 14.2479ZM11.744 14.2559C11.744 14.2719 11.736 14.2826 11.72 14.2879C11.7093 14.2879 11.7013 14.2773 11.696 14.2559C11.6906 14.2346 11.6986 14.2266 11.72 14.2319C11.736 14.2319 11.744 14.2399 11.744 14.2559Z" fill="#F1B517" stroke="black" stroke-width="0.016"/>
<path d="M12.3119 13.8238L12.8719 13.6478L13.1199 13.2238L13.9919 13.1838L13.9599 13.5038L13.2159 13.6398L13.1519 13.7678L12.2959 14.0078L12.3119 13.8238Z" fill="#F1B517" stroke="black" stroke-width="0.016"/>
<path d="M12.896 13.944L13.792 12.624L13.832 12.664L12.952 13.976L12.896 13.944Z" fill="#503200" stroke="black" stroke-width="0.016"/>
<path d="M13.7039 12.68L13.7999 12.52C13.8213 12.488 13.8506 12.4827 13.8879 12.504C13.9199 12.5253 13.9253 12.5547 13.9039 12.592L13.8239 12.744L13.7039 12.68Z" fill="white" stroke="black" stroke-width="0.016"/>
<path d="M12.792 13.1278L14.592 12.9438L14.64 13.2078L12.848 13.3918L12.792 13.1278Z" fill="#F1B517" stroke="black" stroke-width="0.016"/>
<path d="M14.632 12.8799L14.672 13.2399H14.592L14.544 12.9119L14.632 12.8799ZM14.328 12.9359L14.344 13.2639H14.296L14.256 12.9839L14.328 12.9359ZM13.104 13.0799L13.152 13.3839H13.064L13.024 13.0799H13.104ZM12.84 13.0879L12.896 13.4399L12.8 13.4559L12.768 13.2719C12.7627 13.3145 12.736 13.3359 12.688 13.3359C12.6347 13.3305 12.608 13.3039 12.608 13.2559C12.608 13.2079 12.6347 13.1812 12.688 13.1759C12.7047 13.1745 12.7214 13.1784 12.7357 13.187C12.7501 13.1956 12.7614 13.2085 12.768 13.2239L12.744 13.0959L12.84 13.0879ZM13.48 13.1439L13.736 13.4239L13.704 13.4559L13.384 13.2399L13.48 13.1439ZM14.072 13.8399L13.824 13.5599L13.848 13.5279L14.168 13.7439L14.072 13.8399ZM13.424 13.7679L13.72 13.5359L13.752 13.5599L13.512 13.8639L13.424 13.7679ZM14.168 13.2319L13.856 13.4559L13.824 13.4319L14.064 13.1279L14.168 13.2319ZM13.832 13.0479L13.8 13.4159H13.76L13.664 13.0559L13.832 13.0479ZM13.736 13.9279L13.76 13.5679H13.808L13.864 13.9359L13.736 13.9279ZM13.328 13.4479L13.712 13.4799V13.5199L13.328 13.5679V13.4479ZM14.24 13.5679L13.864 13.5119V13.4799L14.248 13.4399V13.5679H14.24Z" fill="#F1B517" stroke="black" stroke-width="0.016"/>
<path d="M13.776 13.5838C13.7186 13.5838 13.672 13.5409 13.672 13.4878C13.672 13.4348 13.7186 13.3918 13.776 13.3918C13.8334 13.3918 13.88 13.4348 13.88 13.4878C13.88 13.5409 13.8334 13.5838 13.776 13.5838Z" fill="#F1B517" stroke="black" stroke-width="0.016"/>
<path fill-rule="evenodd" clip-rule="evenodd" d="M13.24 13.4878C13.24 13.7678 13.48 14.0078 13.776 14.0078C13.8454 14.0089 13.9142 13.9963 13.9787 13.9707C14.0432 13.9452 14.102 13.9071 14.1517 13.8589C14.2015 13.8106 14.2413 13.753 14.2688 13.6893C14.2963 13.6256 14.311 13.5572 14.312 13.4878C14.312 13.1998 14.072 12.9678 13.776 12.9678C13.7067 12.9668 13.6378 12.9794 13.5733 13.0049C13.5089 13.0305 13.4501 13.0685 13.4003 13.1168C13.3505 13.1651 13.3108 13.2227 13.2832 13.2864C13.2557 13.35 13.2411 13.4185 13.24 13.4878ZM13.344 13.4878C13.3451 13.5435 13.3571 13.5985 13.3793 13.6495C13.4016 13.7005 13.4337 13.7467 13.4738 13.7853C13.5139 13.824 13.5613 13.8543 13.6131 13.8746C13.665 13.895 13.7203 13.9049 13.776 13.9038C13.8324 13.9049 13.8884 13.8947 13.9407 13.8739C13.9931 13.8531 14.0408 13.822 14.081 13.7825C14.1212 13.743 14.1532 13.6959 14.175 13.644C14.1968 13.592 14.208 13.5362 14.208 13.4798C14.2038 13.3688 14.1562 13.2638 14.0754 13.1875C13.9946 13.1112 13.8871 13.0697 13.776 13.0718C13.7203 13.0708 13.665 13.0807 13.6131 13.101C13.5613 13.1214 13.5139 13.1517 13.4738 13.1903C13.4337 13.229 13.4016 13.2751 13.3793 13.3262C13.3571 13.3772 13.3451 13.4322 13.344 13.4878Z" fill="#F1B517" stroke="black" stroke-width="0.016" stroke-linecap="round"/>
<path d="M14.112 13.2238L14.192 13.1598L14.112 13.2238ZM13.512 13.1598L13.432 13.0798L13.512 13.1598ZM13.352 13.8158L13.44 13.7438L13.352 13.8158ZM14.112 13.8958L14.032 13.8158L14.112 13.8958ZM12.296 12.9678L12.208 13.4478L12.28 13.4798L12.36 12.9758L12.296 12.9678Z" fill="#F1B517"/>
<path d="M14.112 13.2238L14.192 13.1598M13.512 13.1598L13.432 13.0798M13.352 13.8158L13.44 13.7438M14.112 13.8958L14.032 13.8158M12.296 12.9678L12.208 13.4478L12.28 13.4798L12.36 12.9758L12.296 12.9678Z" stroke="black" stroke-width="0.016"/>
<path d="M12.344 12.9119C12.384 12.8879 12.44 12.9199 12.536 12.8079C12.688 12.9439 12.536 12.9679 12.52 13.1039C12.48 13.1199 12.448 12.9919 12.336 12.9839L12.152 12.9679L12.192 12.9119H12.344Z" fill="white" stroke="black" stroke-width="0.016"/>
<path d="M12.28 13L12.296 12.864C12.32 12.808 12.376 12.856 12.376 12.88L12.36 13.016L12.28 13Z" fill="white" stroke="black" stroke-width="0.016"/>
<path fill-rule="evenodd" clip-rule="evenodd" d="M12.728 13.3918V13.5198C12.776 13.5358 12.768 13.5678 12.768 13.6158V13.9918C12.784 14.0185 12.8107 14.0345 12.848 14.0398C12.88 14.0718 12.8533 14.0985 12.768 14.1198L12.688 14.1278C12.5707 14.0958 12.544 14.0692 12.608 14.0478C12.6453 14.0318 12.672 14.0158 12.688 13.9998V13.9038H12.608C12.592 13.9038 12.552 13.8558 12.552 13.8158V13.6158C12.552 13.5038 12.632 13.4878 12.664 13.4958V13.3918H12.728ZM12.6 13.6078C12.6 13.5758 12.648 13.5438 12.664 13.5438C12.6907 13.5545 12.7093 13.5785 12.72 13.6158V13.6958C12.72 13.7278 12.696 13.8238 12.648 13.8318C12.6267 13.8265 12.6107 13.8052 12.6 13.7678V13.6078Z" fill="#F1B517" stroke="black" stroke-width="0.016"/>
<path d="M13.248 13.7838C13.304 13.7678 13.304 13.8798 13.304 13.8798H13.224C13.1813 13.9011 13.1653 13.9331 13.176 13.9758C13.2 13.9918 13.352 13.9358 13.36 13.9758C13.336 14.1278 13.128 14.1838 13.056 14.1198C12.984 14.0558 12.968 13.8798 13.2 13.8238L13.248 13.7838ZM13.2 13.8318L13.224 13.8798L13.2 13.8318Z" fill="white"/>
<path d="M13.224 13.8798H13.304C13.304 13.8798 13.304 13.7678 13.248 13.7838L13.2 13.8238C12.968 13.8798 12.984 14.0558 13.056 14.1198C13.128 14.1838 13.336 14.1278 13.36 13.9758C13.352 13.9358 13.2 13.9918 13.176 13.9758C13.1653 13.9331 13.1813 13.9011 13.224 13.8798ZM13.224 13.8798L13.2 13.8318" stroke="black" stroke-width="0.016"/>
<path d="M14.792 13.84L14.872 13.52L14.792 13.84ZM14.704 13.824L14.824 13.576L14.704 13.824ZM14.504 13.76L14.768 13.616L14.504 13.76ZM14.384 13.728L14.88 13.512L14.384 13.728Z" fill="#F1B517"/>
<path d="M14.792 13.84L14.872 13.52M14.704 13.824L14.824 13.576M14.504 13.76L14.768 13.616M14.384 13.728L14.88 13.512" stroke="black" stroke-width="0.016"/>
<path d="M15.176 13.28L15.384 13.288C15.4 13.296 15.344 13.36 15.352 13.376C15.4 13.464 15.704 13.456 15.728 13.44C15.768 13.4 15.448 13.376 15.44 13.36C15.44 13.328 15.488 13.264 15.48 13.224C15.48 13.168 15.344 13.144 15.344 13.144L15.176 13.28Z" fill="#D20014" stroke="#D20014" stroke-width="0.016"/>
<path d="M14.9359 13.4398L15.3359 13.1038C15.3359 13.1038 15.3599 13.0878 15.3759 13.1038C15.3919 13.1198 15.3759 13.1358 15.3759 13.1358L14.9439 13.4878L14.9359 13.4478V13.4398Z" fill="#503200" stroke="black" stroke-width="0.016"/>
<path d="M14.5361 13.776L14.8721 13.488L14.8961 13.408L14.9601 13.456C14.9841 13.472 15.0081 13.52 15.0081 13.52H14.9201L14.6321 13.792L14.5441 13.776H14.5361Z" fill="#F1B517" stroke="black" stroke-width="0.016"/>
<path d="M13.392 14.2238C13.3611 14.2238 13.336 14.1987 13.336 14.1678C13.336 14.1369 13.3611 14.1118 13.392 14.1118C13.4229 14.1118 13.448 14.1369 13.448 14.1678C13.448 14.1987 13.4229 14.2238 13.392 14.2238Z" fill="#F1B517" stroke="black" stroke-width="0.016"/>
<path d="M13.544 14.112C13.513 14.112 13.488 14.0869 13.488 14.056C13.488 14.0251 13.513 14 13.544 14C13.5749 14 13.6 14.0251 13.6 14.056C13.6 14.0869 13.5749 14.112 13.544 14.112Z" fill="#F1B517" stroke="black" stroke-width="0.016"/>
<path d="M13.744 14.1838C13.7131 14.1838 13.688 14.1587 13.688 14.1278C13.688 14.0969 13.7131 14.0718 13.744 14.0718C13.775 14.0718 13.8 14.0969 13.8 14.1278C13.8 14.1587 13.775 14.1838 13.744 14.1838Z" fill="#F1B517" stroke="black" stroke-width="0.016"/>
<path d="M14.0561 14.248C14.0251 14.248 14.0001 14.2229 14.0001 14.192C14.0001 14.1611 14.0251 14.136 14.0561 14.136C14.087 14.136 14.1121 14.1611 14.1121 14.192C14.1121 14.2229 14.087 14.248 14.0561 14.248Z" fill="#F1B517" stroke="black" stroke-width="0.016"/>
<path d="M14.192 14.2639C14.1611 14.2639 14.136 14.2388 14.136 14.2079C14.136 14.1769 14.1611 14.1519 14.192 14.1519C14.223 14.1519 14.248 14.1769 14.248 14.2079C14.248 14.2388 14.223 14.2639 14.192 14.2639Z" fill="#F1B517" stroke="black" stroke-width="0.016"/>
<path d="M14.328 14.2639C14.2971 14.2639 14.272 14.2388 14.272 14.2079C14.272 14.1769 14.2971 14.1519 14.328 14.1519C14.359 14.1519 14.384 14.1769 14.384 14.2079C14.384 14.2388 14.359 14.2639 14.328 14.2639Z" fill="#F1B517" stroke="black" stroke-width="0.016"/>
<path d="M14.456 14.2639C14.425 14.2639 14.4 14.2388 14.4 14.2079C14.4 14.1769 14.425 14.1519 14.456 14.1519C14.4869 14.1519 14.512 14.1769 14.512 14.2079C14.512 14.2388 14.4869 14.2639 14.456 14.2639Z" fill="#F1B517" stroke="black" stroke-width="0.016"/>
<path d="M14.392 14.1599C14.3611 14.1599 14.336 14.1348 14.336 14.1039C14.336 14.0729 14.3611 14.0479 14.392 14.0479C14.4229 14.0479 14.448 14.0729 14.448 14.1039C14.448 14.1348 14.4229 14.1599 14.392 14.1599Z" fill="#F1B517" stroke="black" stroke-width="0.016"/>
<path d="M14.2639 14.1679C14.233 14.1679 14.2079 14.1428 14.2079 14.1119C14.2079 14.081 14.233 14.0559 14.2639 14.0559C14.2949 14.0559 14.3199 14.081 14.3199 14.1119C14.3199 14.1428 14.2949 14.1679 14.2639 14.1679Z" fill="#F1B517" stroke="black" stroke-width="0.016"/>
<path d="M14.144 14.152C14.113 14.152 14.088 14.127 14.088 14.096C14.088 14.0651 14.113 14.04 14.144 14.04C14.1749 14.04 14.2 14.0651 14.2 14.096C14.2 14.127 14.1749 14.152 14.144 14.152Z" fill="#F1B517" stroke="black" stroke-width="0.016"/>
<path d="M14.2 14.0558C14.1691 14.0558 14.144 14.0308 14.144 13.9998C14.144 13.9689 14.1691 13.9438 14.2 13.9438C14.2309 13.9438 14.256 13.9689 14.256 13.9998C14.256 14.0308 14.2309 14.0558 14.2 14.0558Z" fill="#F1B517" stroke="black" stroke-width="0.016"/>
<path d="M14.328 14.048C14.2971 14.048 14.272 14.023 14.272 13.992C14.272 13.9611 14.2971 13.936 14.328 13.936C14.359 13.936 14.384 13.9611 14.384 13.992C14.384 14.023 14.359 14.048 14.328 14.048Z" fill="#F1B517" stroke="black" stroke-width="0.016"/>
<path fill-rule="evenodd" clip-rule="evenodd" d="M13.072 14.2399C13.072 14.2159 13.136 14.2239 13.136 14.1919C13.136 14.1599 13.04 14.1919 13.032 14.2159C12.976 14.1679 12.952 14.1999 12.92 14.2159C12.8667 14.1519 12.8133 14.1466 12.76 14.1999C12.728 14.1679 12.648 14.1759 12.624 14.2159C12.5707 14.1733 12.5253 14.1733 12.488 14.2159C12.472 14.1893 12.4533 14.1893 12.432 14.2159C12.408 14.1599 12.336 14.1759 12.304 14.2159C12.28 14.1839 12.248 14.2079 12.216 14.2239C12.184 14.2079 12.1627 14.2079 12.152 14.2239C12.152 14.2559 12.2 14.2479 12.2 14.2719C12.2 14.2959 12.168 14.2719 12.168 14.3039C12.168 14.3279 12.216 14.3359 12.224 14.3039C12.248 14.3359 12.312 14.3199 12.32 14.2879C12.3338 14.2983 12.3507 14.3039 12.368 14.3039C12.3853 14.3039 12.4021 14.2983 12.416 14.2879C12.4427 14.3039 12.464 14.3039 12.48 14.2879C12.52 14.3279 12.592 14.3199 12.616 14.2719H12.64C12.6475 14.2805 12.6567 14.2873 12.6671 14.2919C12.6774 14.2966 12.6886 14.299 12.7 14.299C12.7113 14.299 12.7226 14.2966 12.7329 14.2919C12.7432 14.2873 12.7525 14.2805 12.76 14.2719C12.824 14.3146 12.8747 14.3146 12.912 14.2719C12.952 14.3279 13.024 14.3279 13.032 14.2719C13.064 14.2959 13.128 14.3039 13.128 14.2719C13.128 14.2559 13.072 14.2639 13.072 14.2399ZM12.944 14.2479C12.944 14.2639 12.9547 14.2719 12.976 14.2719C12.9973 14.2719 13.008 14.2639 13.008 14.2479C13.008 14.2319 12.9973 14.2266 12.976 14.2319L12.944 14.2479ZM12.792 14.2319C12.792 14.2479 12.808 14.2559 12.84 14.2559C12.872 14.2559 12.8853 14.2479 12.88 14.2319C12.88 14.2213 12.8667 14.2133 12.84 14.2079C12.8133 14.2026 12.8 14.2106 12.8 14.2319H12.792ZM12.512 14.2479C12.512 14.2639 12.5253 14.2719 12.552 14.2719C12.5787 14.2719 12.5893 14.2639 12.584 14.2479C12.584 14.2373 12.5733 14.2293 12.552 14.2239C12.52 14.2239 12.5067 14.2319 12.512 14.2479ZM12.664 14.2479C12.664 14.2639 12.6773 14.2719 12.704 14.2719C12.7307 14.2719 12.7413 14.2613 12.736 14.2399C12.7307 14.2186 12.72 14.2079 12.704 14.2079C12.6773 14.2079 12.664 14.2186 12.664 14.2399V14.2479ZM12.344 14.2479C12.344 14.2586 12.352 14.2666 12.368 14.2719C12.3947 14.2719 12.408 14.2613 12.408 14.2399C12.408 14.2186 12.3947 14.2106 12.368 14.2159C12.352 14.2159 12.3413 14.2239 12.336 14.2399L12.344 14.2479ZM12.44 14.2479C12.44 14.2639 12.4453 14.2719 12.456 14.2719C12.4667 14.2719 12.4747 14.2639 12.48 14.2479C12.48 14.2319 12.472 14.2266 12.456 14.2319L12.44 14.2479ZM12.248 14.2559C12.248 14.2719 12.256 14.2826 12.272 14.2879C12.2827 14.2879 12.2907 14.2773 12.296 14.2559C12.3013 14.2346 12.2933 14.2266 12.272 14.2319C12.256 14.2319 12.248 14.2399 12.248 14.2559Z" fill="#F1B517" stroke="black" stroke-width="0.016"/>
<path d="M11.984 13.2559C11.784 13.2559 11.624 13.3359 11.624 13.4239C11.624 13.4399 11.6294 13.4559 11.64 13.4719C11.68 13.5199 11.824 13.5519 11.992 13.5519C12.1627 13.5519 12.2747 13.5279 12.328 13.4799C12.344 13.4639 12.352 13.4452 12.352 13.4239C12.352 13.3359 12.192 13.2639 11.984 13.2639V13.2559Z" fill="#0A328C" stroke="#0A328C" stroke-width="0.016"/>
<path d="M12.352 13.4399V13.9999C12.352 14.0719 12.192 14.1199 11.992 14.1199C11.792 14.1199 11.624 14.0719 11.624 13.9999V13.4399C11.624 13.5039 11.784 13.5599 11.984 13.5599C12.192 13.5599 12.352 13.5039 12.352 13.4399Z" fill="#F1B517" stroke="black" stroke-width="0.016"/>
<path d="M11.624 13.4399V13.5199L11.8 14.0799L11.944 13.6479L12.104 14.0879L12.208 13.6719L12.352 13.9519V13.7999L12.224 13.5279L12.176 13.5439L12.096 13.8479L11.976 13.5599H11.92L11.8 13.8479L11.672 13.4959C11.64 13.4799 11.624 13.4613 11.624 13.4399Z" fill="#D20014" stroke="#D20014" stroke-width="0.016"/>
<path d="M12.352 13.896V14C12.352 14.072 12.192 14.12 11.992 14.12C11.792 14.12 11.624 14.072 11.624 14V13.896C11.624 13.968 11.784 14.016 11.984 14.016C12.192 14.016 12.352 13.968 12.352 13.896Z" fill="#0A328C" stroke="#0A328C" stroke-width="0.016"/>
<path d="M12.136 14L12.048 14.016V14.12L12.144 14.112L12.136 14ZM11.752 13.992V14.096L11.84 14.112V14.008L11.752 13.992ZM11.624 13.896V14C11.624 14.0213 11.6374 14.04 11.664 14.056V13.952C11.6374 13.936 11.624 13.9173 11.624 13.896ZM12.352 13.912C12.3467 13.928 12.3254 13.9467 12.288 13.968V14.072C12.3307 14.056 12.352 14.032 12.352 14V13.912Z" fill="#F1B517" stroke="black" stroke-width="0.016"/>
<path d="M12.352 13.4399V13.9999C12.352 14.0719 12.192 14.1199 11.992 14.1199C11.792 14.1199 11.624 14.0719 11.624 13.9999V13.4399" stroke="black" stroke-width="0.016"/>
<path d="M12.272 13.3999C12.272 13.4399 12.144 13.4799 11.992 13.4799C11.832 13.4799 11.704 13.4399 11.704 13.3999C11.704 13.3599 11.832 13.3279 11.984 13.3279C12.144 13.3279 12.272 13.3599 12.272 13.4079V13.3999Z" fill="white" stroke="white" stroke-width="0.016"/>
<path d="M11.896 13.4558L11.912 13.5518H11.992L12 13.4558H11.896ZM12.224 13.4318L12.144 13.4478L12.152 13.5438L12.232 13.5278L12.224 13.4318ZM11.792 13.2718L11.736 13.2958L11.744 13.3758L11.792 13.3598V13.2718ZM11.984 13.2478H11.96L11.976 13.3438H12.024L12.04 13.2478H11.984ZM12.2 13.2798L12.192 13.3598L12.248 13.3838V13.3038L12.2 13.2798ZM11.68 13.5038L11.696 13.3998L11.616 13.3598V13.4798L11.68 13.5038ZM12.352 13.4798V13.3758L12.288 13.3998L12.352 13.4798ZM13.096 12.7998C13.16 12.7998 13.256 12.8798 13.264 12.9998C13.264 13.0798 13.128 13.0798 13.128 13.0798C13.128 13.1198 13.048 13.1518 12.984 13.1598C12.92 13.1678 13 13.0398 13 13.0398C12.96 12.9358 13.016 12.8238 13.016 12.8238L13.096 12.7998Z" fill="#F1B517" stroke="black" stroke-width="0.016"/>
<path d="M13 13.04H13.064C13.064 13.04 13.064 13.064 13.08 13.064C13.096 13.064 13.104 13.032 13.104 13.032H13.2" fill="#F1B517"/>
<path d="M13 13.04H13.064C13.064 13.04 13.064 13.064 13.08 13.064C13.096 13.064 13.104 13.032 13.104 13.032H13.2" stroke="black" stroke-width="0.016"/>
<path d="M13.1281 12.872C13.1841 12.832 13.1361 12.752 13.0961 12.752H13.0161C12.9681 12.752 12.9041 12.8 12.9121 12.832C12.9174 12.8746 12.9387 12.8906 12.9761 12.88C12.9921 12.88 13.0241 12.832 13.0401 12.832C13.0561 12.832 13.1201 12.88 13.1281 12.872Z" fill="#D20014" stroke="#F1B517" stroke-width="0.016"/>
<path fill-rule="evenodd" clip-rule="evenodd" d="M9.13604 13.9839C9.09337 13.9999 9.08004 14.0399 9.09604 14.1039C8.88804 14.1679 8.69071 14.2319 8.50404 14.2959C8.49604 14.2559 8.60004 14.1519 8.60004 14.1519C8.62404 14.1599 8.64804 14.2239 8.64804 14.2239C8.64804 14.0959 8.77604 14.0159 8.77604 14.0159C8.69604 13.9999 8.48004 14.0959 8.45604 14.1279C8.45604 14.1279 8.53604 14.1119 8.55204 14.1279C8.55204 14.1279 8.37604 14.3119 8.36804 14.3679C8.40004 14.4239 8.68804 14.4719 8.68804 14.4719C8.68804 14.4879 8.60804 14.5519 8.60804 14.5519C8.72804 14.5679 8.90404 14.4879 8.95204 14.4399C8.95204 14.4399 8.81604 14.4239 8.71204 14.3359C8.71204 14.3359 8.72804 14.3919 8.71204 14.4159C8.71204 14.4159 8.55204 14.3679 8.52804 14.3359C8.52804 14.3359 8.92804 14.2399 9.12004 14.1759C9.12804 14.2159 9.16804 14.2799 9.21604 14.2639C9.23737 14.2479 9.23737 14.2106 9.21604 14.1519L9.26404 14.1679C9.30138 14.1679 9.32004 14.1492 9.32004 14.1119C9.32004 14.0746 9.30138 14.0559 9.26404 14.0559C9.25232 14.058 9.24121 14.0626 9.23152 14.0696C9.22183 14.0765 9.21381 14.0855 9.20804 14.0959C9.20004 14.0559 9.17604 13.9839 9.14404 13.9919L9.13604 13.9839ZM9.29604 14.1119C9.29604 14.1279 9.28538 14.1359 9.26404 14.1359C9.26031 14.1372 9.25631 14.1376 9.25239 14.137C9.24848 14.1364 9.24477 14.1348 9.2416 14.1325C9.23843 14.1301 9.2359 14.127 9.23423 14.1234C9.23257 14.1198 9.23181 14.1158 9.23204 14.1119C9.23204 14.0959 9.24271 14.0852 9.26404 14.0799C9.28538 14.0799 9.29338 14.0906 9.28804 14.1119H9.29604Z" fill="#F1B517" stroke="black" stroke-width="0.016"/>
<path d="M15.44 14.232C15.456 14.2 15.44 14.056 15.44 14.056C15.4 14.056 15.36 14.112 15.36 14.112C15.4 13.984 15.296 13.792 15.296 13.792C15.368 13.8 15.608 14.032 15.616 14.08C15.616 14.08 15.512 14.04 15.496 14.048C15.52 14.168 15.6 14.224 15.632 14.288C15.632 14.288 15.496 14.312 15.504 14.432H15.416C15.384 14.392 15.424 14.328 15.424 14.328L14.808 14.072C14.768 14.056 14.68 14.008 14.696 13.96C14.704 13.92 14.856 13.984 14.888 14L15.44 14.232Z" fill="#F1B517" stroke="black" stroke-width="0.016"/>
<path d="M14.848 14.1199L14.928 13.9919C14.952 13.9519 14.896 13.9119 14.856 13.9599L14.776 14.0799C14.744 14.1519 14.816 14.1679 14.856 14.1199H14.848Z" fill="#F1B517" stroke="black" stroke-width="0.016"/>
<path d="M10.5101 14.43L10.5051 14.28L10.3301 14.295L10.3201 14.45L10.5101 14.43Z" fill="white" stroke="black" stroke-width="0.015"/>
<path d="M9.21998 14.635L8.98498 14.5C9.95498 14.59 10.155 14.25 10.39 14.235C10.54 14.22 10.555 14.395 10.275 14.31L10.35 14.49C10.35 14.49 9.65998 14.88 8.97998 14.72L9.21998 14.635ZM13.46 14.43L13.465 14.28L13.68 14.29L13.69 14.445L13.46 14.43Z" fill="white" stroke="black" stroke-width="0.015"/>
<path d="M14.795 14.5999L15.02 14.4749C13.9 14.5099 14.155 14.2949 13.6 14.2349C13.45 14.2149 13.35 14.4049 13.71 14.3099L13.64 14.4899H13.815C14.195 14.7399 14.705 14.7649 15.045 14.6849L14.795 14.5999Z" fill="white" stroke="black" stroke-width="0.015"/>
<path d="M10.275 14.3149V14.5649C10.275 14.5649 10.89 14.7949 11.995 14.7949C13.105 14.7949 13.715 14.5649 13.715 14.5649V14.3149C13.715 14.3149 13.25 14.5299 11.995 14.5299C10.74 14.5299 10.275 14.3149 10.275 14.3149Z" fill="white" stroke="black" stroke-width="0.015"/>
<path d="M10.365 14.5649L10.42 14.3799L10.445 14.3899L10.395 14.5499L10.495 14.5749L10.485 14.5999L10.365 14.5649ZM10.545 14.4849V14.4499L10.555 14.4149L10.585 14.4249L10.575 14.4549L10.56 14.4899L10.545 14.4849ZM10.81 14.4699L10.835 14.4799L10.815 14.5849L10.795 14.6349L10.77 14.6549H10.72L10.675 14.6349L10.655 14.6049L10.66 14.5549L10.685 14.4449L10.71 14.4499L10.685 14.5599V14.5999L10.695 14.6199L10.72 14.6299H10.77L10.79 14.5799L10.81 14.4699ZM10.84 14.6699L10.87 14.4849H10.9L10.975 14.6549L11 14.5049H11.025L10.995 14.6999L10.97 14.6949L10.89 14.5299L10.865 14.6799L10.84 14.6699ZM11.04 14.7049L11.07 14.5149H11.095L11.07 14.7049H11.045H11.04ZM11.12 14.6199C11.12 14.5865 11.1317 14.5632 11.155 14.5499C11.175 14.5347 11.2 14.5275 11.225 14.5299C11.245 14.5299 11.2617 14.5349 11.275 14.5449L11.3 14.5849C11.31 14.6015 11.3117 14.6182 11.305 14.6349L11.29 14.6849L11.25 14.7199L11.2 14.7249L11.15 14.7099L11.125 14.6699L11.12 14.6199ZM11.145 14.6199C11.145 14.6465 11.15 14.6665 11.16 14.6799C11.17 14.6965 11.185 14.7049 11.205 14.7049C11.225 14.7049 11.2417 14.6999 11.255 14.6899C11.2683 14.6799 11.2767 14.6632 11.28 14.6399V14.5899L11.255 14.5649L11.22 14.5499C11.2033 14.5499 11.1867 14.5549 11.17 14.5649C11.16 14.5749 11.1517 14.5949 11.145 14.6249V14.6199ZM11.33 14.7349L11.345 14.5449H11.375L11.465 14.7049L11.475 14.5549H11.5L11.485 14.7499H11.46L11.365 14.5899L11.355 14.7399L11.33 14.7349ZM11.61 14.7549L11.615 14.5649L11.75 14.5699V14.5949L11.645 14.5899L11.64 14.6449L11.735 14.6499V14.6749L11.635 14.6699V14.7599L11.61 14.7549ZM11.76 14.7599L11.835 14.5699H11.865L11.94 14.7699H11.91L11.89 14.7049H11.805L11.785 14.7649L11.76 14.7599ZM11.81 14.6849H11.88L11.86 14.6349L11.85 14.5899L11.84 14.6299L11.815 14.6849H11.81ZM11.965 14.7649V14.5749H11.995V14.7649H11.965ZM12.09 14.7649V14.5999H12.025V14.5799H12.18V14.5999H12.115V14.7699L12.09 14.7649ZM12.29 14.7649L12.275 14.5649H12.305L12.31 14.7349H12.41V14.7549L12.29 14.7649ZM12.42 14.7549L12.48 14.5549H12.51L12.61 14.7399H12.575L12.55 14.6899H12.465L12.45 14.7549H12.42ZM12.47 14.6699H12.54L12.515 14.6199L12.495 14.5749L12.49 14.6149L12.47 14.6699ZM12.705 14.7299L12.685 14.5399L12.815 14.5249L12.82 14.5499L12.715 14.5599V14.6199L12.815 14.6099V14.6349L12.72 14.6449L12.73 14.7299H12.705ZM12.855 14.6249C12.851 14.6116 12.8498 14.5976 12.8516 14.5838C12.8533 14.5701 12.8579 14.5568 12.865 14.5449C12.8814 14.5254 12.9047 14.5128 12.93 14.5099L12.98 14.5149C13 14.5182 13.0133 14.5282 13.02 14.5449L13.04 14.5949L13.035 14.6449L13.005 14.6849L12.96 14.7049L12.91 14.6999L12.87 14.6699L12.855 14.6249ZM12.88 14.6199C12.88 14.6399 12.8883 14.6565 12.905 14.6699C12.9217 14.6832 12.9383 14.6882 12.955 14.6849C12.9783 14.6815 12.995 14.6732 13.005 14.6599C13.015 14.6465 13.0183 14.6265 13.015 14.5999L13 14.5599L12.97 14.5349H12.935C12.915 14.5349 12.8983 14.5415 12.885 14.5549C12.8783 14.5682 12.8767 14.5899 12.88 14.6199ZM13.085 14.6849L13.055 14.4949L13.14 14.4799H13.18C13.19 14.4799 13.1983 14.4832 13.205 14.4899L13.22 14.5199C13.22 14.5332 13.2167 14.5449 13.21 14.5549C13.2033 14.5649 13.1917 14.5732 13.175 14.5799L13.19 14.5849L13.215 14.6099L13.265 14.6549H13.23L13.195 14.6249L13.17 14.5999L13.155 14.5899H13.125L13.095 14.5949L13.115 14.6799L13.085 14.6849ZM13.095 14.5749L13.145 14.5649L13.175 14.5549C13.1833 14.5469 13.1886 14.5363 13.19 14.5249L13.18 14.5049H13.145L13.08 14.5099L13.095 14.5749ZM13.41 14.5549H13.435C13.435 14.5749 13.43 14.5915 13.42 14.6049L13.37 14.6349H13.32L13.28 14.6049L13.255 14.5549V14.5049C13.2583 14.4849 13.2667 14.4699 13.28 14.4599L13.325 14.4399H13.375C13.395 14.4499 13.4083 14.4632 13.415 14.4799L13.39 14.4899L13.365 14.4649H13.33L13.295 14.4799L13.28 14.5149V14.5499L13.3 14.5899C13.3067 14.6032 13.3167 14.6099 13.33 14.6099H13.365L13.395 14.5949C13.405 14.5849 13.41 14.5715 13.41 14.5549ZM13.48 14.6049L13.43 14.4199L13.565 14.3849L13.575 14.4049L13.46 14.4349L13.475 14.4899L13.58 14.4649L13.59 14.4849L13.48 14.5149L13.5 14.5749L13.62 14.5449V14.5649L13.48 14.6049Z" fill="#000001"/>
</g>
</g>
<defs>
<clipPath id="clip0_2214_3484">
<path d="M0 12C0 5.37258 5.37258 0 12 0C18.6274 0 24 5.37258 24 12C24 18.6274 18.6274 24 12 24C5.37258 24 0 18.6274 0 12Z" fill="white"/>
</clipPath>
<clipPath id="clip1_2214_3484">
<rect width="32" height="24" fill="white" transform="translate(-4)"/>
</clipPath>
</defs>
</svg>
