<svg width="24" height="24" viewBox="0 0 24 24" fill="none" xmlns="http://www.w3.org/2000/svg">
<g clip-path="url(#clip0_2214_3292)">
<g clip-path="url(#clip1_2214_3292)">
<mask id="mask0_2214_3292" style="mask-type:luminance" maskUnits="userSpaceOnUse" x="-5" y="0" width="34" height="25">
<path d="M-4.01001 0H28.0769V24.064H-4.01001V0Z" fill="white"/>
</mask>
<g mask="url(#mask0_2214_3292)">
<path fill-rule="evenodd" clip-rule="evenodd" d="M-12.1551 0H36.1374V24.064H-12.1551V0Z" fill="#108C00"/>
<path fill-rule="evenodd" clip-rule="evenodd" d="M-12.235 8.37549H36.2972V10.7302H-12.235V8.37549Z" fill="#FFD600"/>
<path fill-rule="evenodd" clip-rule="evenodd" d="M8.49197 0H10.7715V24.064H8.49667L8.49197 0Z" fill="#FFD600"/>
<path fill-rule="evenodd" clip-rule="evenodd" d="M10.6916 0H12.9664V24.064H10.6916V0Z" fill="#000001"/>
<path fill-rule="evenodd" clip-rule="evenodd" d="M-12.235 10.6501H36.2972V13.0095H-12.235V10.6501Z" fill="#000001"/>
<path fill-rule="evenodd" clip-rule="evenodd" d="M-12.235 13.0095H36.2972V15.3642H-12.235V13.0095Z" fill="white"/>
<path fill-rule="evenodd" clip-rule="evenodd" d="M12.9663 0H15.2458V24.064H12.9663V0Z" fill="white"/>
<path d="M5.66256 12.0507C5.66256 15.6198 8.54329 18.5132 12.0969 18.5132C15.6504 18.5132 18.5312 15.6198 18.5312 12.0507C18.5312 8.48154 15.6504 5.58818 12.0969 5.58818C8.54329 5.58818 5.66256 8.48154 5.66256 12.0507Z" fill="#E72910"/>
<path fill-rule="evenodd" clip-rule="evenodd" d="M11.7585 6.43901L12.0217 5.68701L12.2614 6.42491C12.2614 6.42491 13.0651 6.44841 13.0651 6.43431C13.0651 6.42021 12.4306 6.91841 12.4306 6.91841L12.7173 7.74561C12.7079 7.72211 12.0217 7.23331 12.0217 7.23331C12.0217 7.23331 11.3261 7.72211 11.3402 7.72211C11.3543 7.72211 11.6034 6.92311 11.6034 6.92311L10.9783 6.44841L11.7585 6.43431V6.43901Z" fill="black"/>
<path fill-rule="evenodd" clip-rule="evenodd" d="M11.7961 6.47202L12.017 5.82812L12.2238 6.46733C12.2238 6.46733 12.9241 6.48613 12.9241 6.47673C12.9241 6.46733 12.3742 6.89973 12.3742 6.89973L12.6186 7.61413C12.6092 7.59063 12.017 7.17233 12.017 7.17233C12.017 7.17233 11.4154 7.59533 11.4248 7.59533C11.4342 7.59533 11.6598 6.89973 11.6598 6.89973L11.1146 6.48613L11.7914 6.47673L11.7961 6.47202Z" fill="#FFE700"/>
<path fill-rule="evenodd" clip-rule="evenodd" d="M11.8901 6.5801L12.0217 6.2041L12.1439 6.5754C12.1439 6.5754 12.5434 6.5848 12.5434 6.5754C12.5434 6.566 12.2285 6.8198 12.2285 6.8198L12.3695 7.2334C12.3648 7.2193 12.0217 6.9796 12.0217 6.9796L11.6833 7.224C11.6927 7.224 11.8149 6.8245 11.8149 6.8245L11.5047 6.5895L11.8901 6.5801Z" fill="#108C00"/>
<path fill-rule="evenodd" clip-rule="evenodd" d="M16.7593 9.95464L17.0225 9.20264L17.2575 9.94054C17.2575 9.94054 18.0659 9.96874 18.0659 9.95464C18.0659 9.94054 17.4314 10.4387 17.4314 10.4387L17.7134 11.2659C17.704 11.2424 17.0225 10.7536 17.0225 10.7536C17.0225 10.7536 16.3269 11.2424 16.341 11.2424C16.3551 11.2424 16.6042 10.4434 16.6042 10.4434L15.9791 9.96404L16.7593 9.94994V9.95464Z" fill="black"/>
<path fill-rule="evenodd" clip-rule="evenodd" d="M16.7921 9.99217L17.0224 9.33887L17.2292 9.98277C17.2292 9.98277 17.9248 10.0016 17.9248 9.99217C17.9248 9.98277 17.3749 10.4152 17.3749 10.4152L17.624 11.1249C17.6146 11.1061 17.0224 10.6831 17.0224 10.6831C17.0224 10.6831 16.4208 11.1061 16.4302 11.1061C16.4396 11.1061 16.6605 10.4105 16.6605 10.4105L16.12 10.0016L16.7921 9.99217Z" fill="#FFE700"/>
<path fill-rule="evenodd" clip-rule="evenodd" d="M16.8908 10.1004L17.0224 9.72437L17.1399 10.091L17.5441 10.1004L17.2245 10.3401C17.2245 10.3401 17.3749 10.7631 17.3655 10.7537C17.3655 10.7396 17.0224 10.4999 17.0224 10.4999L16.6793 10.7396L16.8109 10.3401L16.5007 10.1051L16.8908 10.1004Z" fill="#108C00"/>
<path fill-rule="evenodd" clip-rule="evenodd" d="M15.3023 15.5381L15.5655 14.7861L15.8005 15.5287C15.8005 15.5287 16.6089 15.5522 16.6089 15.5428C16.6089 15.5334 15.9744 16.0269 15.9744 16.0269L16.2564 16.8494C16.247 16.8259 15.5655 16.3418 15.5655 16.3418C15.5655 16.3418 14.8699 16.8259 14.8793 16.8259C14.8887 16.8259 15.1472 16.0269 15.1472 16.0269L14.5221 15.5569L15.3023 15.5381Z" fill="black"/>
<path fill-rule="evenodd" clip-rule="evenodd" d="M15.3352 15.5758L15.5655 14.9272L15.7723 15.5664C15.7723 15.5664 16.4679 15.5899 16.4679 15.5758C16.4679 15.5617 15.918 15.9988 15.918 15.9988L16.1671 16.7132C16.1577 16.6897 15.5655 16.2714 15.5655 16.2714C15.5655 16.2714 14.9639 16.6944 14.9733 16.6944C14.9827 16.6944 15.2036 15.9988 15.2036 15.9988L14.6631 15.5899L15.3352 15.5758Z" fill="#FFE700"/>
<path fill-rule="evenodd" clip-rule="evenodd" d="M15.4339 15.6839L15.5655 15.3079L15.683 15.6792C15.683 15.6792 16.0872 15.6933 16.0872 15.6839C16.0872 15.6745 15.7676 15.9283 15.7676 15.9283L15.9086 16.3372C15.9086 16.3278 15.5655 16.0834 15.5655 16.0834L15.2224 16.3278L15.354 15.9283L15.0438 15.6933L15.4339 15.6839Z" fill="#108C00"/>
<path fill-rule="evenodd" clip-rule="evenodd" d="M8.31337 15.5381L8.57657 14.7861L8.81157 15.5287C8.81157 15.5287 9.61527 15.5522 9.61527 15.5428C9.61527 15.5334 8.98077 16.0269 8.98077 16.0269L9.27217 16.8494C9.25807 16.8259 8.57657 16.3418 8.57657 16.3418C8.57657 16.3418 7.88097 16.8259 7.89037 16.8259C7.89977 16.8259 8.15827 16.0269 8.15827 16.0269L7.53317 15.5569L8.31337 15.5381Z" fill="black"/>
<path fill-rule="evenodd" clip-rule="evenodd" d="M8.35096 15.5758L8.57656 14.9272L8.78336 15.5664C8.78336 15.5664 9.47896 15.5899 9.47896 15.5758C9.47896 15.5617 8.92906 15.9988 8.92906 15.9988L9.17816 16.7132C9.16876 16.6897 8.57656 16.2714 8.57656 16.2714C8.57656 16.2714 7.97496 16.6944 7.98436 16.6944C7.99376 16.6944 8.21466 15.9988 8.21466 15.9988L7.67416 15.5899L8.35096 15.5758Z" fill="#FFE700"/>
<path fill-rule="evenodd" clip-rule="evenodd" d="M8.44497 15.6839L8.57657 15.3079L8.69407 15.6792C8.69407 15.6792 9.09827 15.6933 9.09827 15.6839C9.09827 15.6745 8.77867 15.9283 8.77867 15.9283L8.91967 16.3372C8.91967 16.3278 8.57657 16.0834 8.57657 16.0834L8.23347 16.3278L8.36507 15.9283L8.05487 15.6933L8.44497 15.6839Z" fill="#108C00"/>
<path fill-rule="evenodd" clip-rule="evenodd" d="M7.03496 9.80888L7.29816 9.05688L7.53786 9.79949C7.53786 9.79949 8.34156 9.82298 8.34156 9.80888C8.34156 9.79478 7.70706 10.2977 7.70706 10.2977L7.99376 11.1202C7.97966 11.0967 7.29816 10.6126 7.29816 10.6126C7.29816 10.6126 6.60256 11.092 6.61666 11.092C6.63076 11.092 6.87986 10.293 6.87986 10.293L6.25476 9.82298L7.03496 9.80888Z" fill="black"/>
<path fill-rule="evenodd" clip-rule="evenodd" d="M7.07258 9.8466L7.29818 9.198L7.50968 9.8372C7.50968 9.8372 8.20058 9.8607 8.20058 9.8466C8.20058 9.8325 7.65068 10.2696 7.65068 10.2696L7.89978 10.984C7.89038 10.9605 7.29818 10.5422 7.29818 10.5422C7.29818 10.5422 6.69658 10.9652 6.71068 10.9652C6.72478 10.9652 6.93628 10.2696 6.93628 10.2696L6.39578 9.8607L7.07258 9.8466Z" fill="#FFE700"/>
<path fill-rule="evenodd" clip-rule="evenodd" d="M7.16659 9.95461L7.29819 9.57861L7.42039 9.94991L7.81989 9.95461L7.50499 10.199L7.64599 10.6079C7.64129 10.5985 7.29819 10.3541 7.29819 10.3541L6.95979 10.5985C6.96919 10.5985 7.09139 10.199 7.09139 10.199L6.78119 9.96401L7.16659 9.95461Z" fill="#108C00"/>
<path fill-rule="evenodd" clip-rule="evenodd" d="M15.2412 8.18258L14.978 8.93458L14.743 8.19668C14.743 8.19668 13.9346 8.17318 13.9346 8.18258C13.9346 8.19198 14.5691 7.69848 14.5691 7.69848L14.2871 6.87598C14.2965 6.89948 14.978 7.38358 14.978 7.38358C14.978 7.38358 15.6736 6.89948 15.6595 6.89948C15.6454 6.89948 15.3963 7.69848 15.3963 7.69848L16.0214 8.16848L15.2412 8.18258Z" fill="black"/>
<path fill-rule="evenodd" clip-rule="evenodd" d="M15.2083 8.14515C15.2083 8.15925 14.9733 8.79845 14.9733 8.79845L14.7712 8.15925C14.7712 8.15925 14.0756 8.13575 14.0756 8.14515C14.0756 8.15455 14.6255 7.72685 14.6255 7.72685L14.3764 7.01245C14.3858 7.03595 14.978 7.45425 14.978 7.45425C14.978 7.45425 15.5796 7.03125 15.5702 7.03125C15.5608 7.03125 15.3399 7.72685 15.3399 7.72685L15.8804 8.13575L15.2083 8.14515Z" fill="#FFE700"/>
<path fill-rule="evenodd" clip-rule="evenodd" d="M15.1096 8.03703L14.978 8.41303L14.8605 8.04643C14.8605 8.04643 14.4563 8.03233 14.4563 8.04173C14.4563 8.05113 14.7759 7.79733 14.7759 7.79733L14.6349 7.38843C14.6349 7.39783 14.978 7.64223 14.978 7.64223L15.3211 7.39783C15.3117 7.39783 15.1848 7.79733 15.1848 7.79733L15.4997 8.03233L15.1096 8.04173V8.03703Z" fill="#108C00"/>
<path fill-rule="evenodd" clip-rule="evenodd" d="M17.2481 13.6441L16.9849 14.3961L16.7499 13.6535C16.7499 13.6535 15.9415 13.63 15.9415 13.6441C15.9415 13.6582 16.576 13.16 16.576 13.16L16.294 12.3328C16.3034 12.3563 16.9849 12.8404 16.9849 12.8404C16.9849 12.8404 17.6805 12.3563 17.6664 12.3563C17.6523 12.3563 17.4032 13.1553 17.4032 13.1553L18.033 13.63L17.2481 13.6441Z" fill="black"/>
<path fill-rule="evenodd" clip-rule="evenodd" d="M17.2151 13.6066L16.9848 14.2552L16.778 13.616C16.778 13.616 16.0824 13.5972 16.0824 13.6066C16.0824 13.616 16.6323 13.1836 16.6323 13.1836L16.3832 12.4692C16.3926 12.4927 16.9848 12.911 16.9848 12.911C16.9848 12.911 17.5864 12.488 17.577 12.488C17.5676 12.488 17.3467 13.1836 17.3467 13.1836L17.8872 13.5972L17.2151 13.6066Z" fill="#FFE700"/>
<path fill-rule="evenodd" clip-rule="evenodd" d="M17.1164 13.4985L16.9848 13.8745L16.8673 13.5032C16.8673 13.5032 16.4631 13.4938 16.4631 13.5032C16.4631 13.5126 16.7827 13.2588 16.7827 13.2588L16.6417 12.8452C16.6417 12.8593 16.9848 13.099 16.9848 13.099L17.3279 12.8546C17.3185 12.8546 17.1916 13.2588 17.1916 13.2588L17.5065 13.4938L17.1164 13.4985Z" fill="#108C00"/>
<path fill-rule="evenodd" clip-rule="evenodd" d="M12.2707 17.6392L12.0075 18.3912L11.7725 17.6486C11.7725 17.6486 10.9641 17.6251 10.9641 17.6345C10.9641 17.6439 11.5986 17.1504 11.5986 17.1504L11.3166 16.3279C11.326 16.3514 12.0075 16.8355 12.0075 16.8355C12.0075 16.8355 12.7031 16.3514 12.689 16.3514C12.6749 16.3514 12.4258 17.1504 12.4258 17.1504L13.0509 17.6251L12.2707 17.6392Z" fill="black"/>
<path fill-rule="evenodd" clip-rule="evenodd" d="M12.2378 17.5968L12.0075 18.2548L11.8007 17.6109C11.8007 17.6109 11.1051 17.5874 11.1051 17.6015C11.1051 17.6156 11.655 17.1785 11.655 17.1785L11.4059 16.4641C11.4153 16.4876 12.0075 16.9059 12.0075 16.9059C12.0075 16.9059 12.6091 16.4829 12.5997 16.4829C12.5903 16.4829 12.3694 17.1785 12.3694 17.1785L12.9099 17.5874L12.2378 17.6015V17.5968Z" fill="#FFE700"/>
<path fill-rule="evenodd" clip-rule="evenodd" d="M12.1392 17.4934L12.0076 17.8694L11.8901 17.4981C11.8901 17.4981 11.4859 17.484 11.4859 17.4934C11.4859 17.5028 11.8055 17.249 11.8055 17.249L11.6645 16.8401C11.6645 16.8495 12.0076 17.0939 12.0076 17.0939L12.3507 16.8495L12.2191 17.249L12.5293 17.484L12.1392 17.4934Z" fill="#108C00"/>
<path fill-rule="evenodd" clip-rule="evenodd" d="M7.59896 13.6441L7.33106 14.3961L7.09606 13.6535C7.09606 13.6535 6.28766 13.63 6.28766 13.6441C6.28766 13.6582 6.92216 13.16 6.92216 13.16L6.64016 12.3328C6.64956 12.3563 7.33106 12.8404 7.33106 12.8404L8.02196 12.361L7.75406 13.16L8.37916 13.6347L7.59896 13.6488V13.6441Z" fill="black"/>
<path fill-rule="evenodd" clip-rule="evenodd" d="M7.56132 13.6066L7.33102 14.2552L7.12422 13.616C7.12422 13.616 6.42862 13.5972 6.42862 13.6066C6.42862 13.616 6.97852 13.1836 6.97852 13.1836L6.72942 12.4692C6.73882 12.4927 7.33102 12.911 7.33102 12.911C7.33102 12.911 7.93262 12.488 7.92322 12.488C7.91382 12.488 7.69292 13.1836 7.69292 13.1836L8.23342 13.5972L7.56132 13.6066Z" fill="#FFE700"/>
<path fill-rule="evenodd" clip-rule="evenodd" d="M7.46263 13.4985L7.33103 13.8745L7.21353 13.5032C7.21353 13.5032 6.80933 13.4938 6.80933 13.5032C6.80933 13.5126 7.12893 13.2588 7.12893 13.2588L6.98793 12.8452C6.98793 12.8593 7.33103 13.099 7.33103 13.099L7.67413 12.8546L7.54253 13.2588L7.85273 13.4938L7.46263 13.4985Z" fill="#108C00"/>
<path fill-rule="evenodd" clip-rule="evenodd" d="M9.32384 8.26265L9.06064 9.01465L8.81624 8.27675C8.81624 8.27675 8.01724 8.25325 8.01724 8.26265C8.01724 8.27205 8.65174 7.77855 8.65174 7.77855L8.36504 6.95605C8.37444 6.97955 9.05594 7.46365 9.05594 7.46365C9.05594 7.46365 9.75154 6.97955 9.74214 6.97955C9.73274 6.97955 9.47894 7.77855 9.47894 7.77855L10.0993 8.24855L9.32384 8.26265Z" fill="black"/>
<path fill-rule="evenodd" clip-rule="evenodd" d="M9.28626 8.22499L9.05596 8.88299L8.84916 8.23909C8.84916 8.23909 8.15356 8.21559 8.15356 8.22969C8.15356 8.24379 8.70346 7.80669 8.70346 7.80669L8.45436 7.09229C8.46376 7.11579 9.05596 7.53409 9.05596 7.53409C9.05596 7.53409 9.65756 7.11109 9.64816 7.11109C9.63876 7.11109 9.42256 7.80669 9.42256 7.80669L9.95836 8.21559L9.28626 8.22969V8.22499Z" fill="#FFE700"/>
<path fill-rule="evenodd" clip-rule="evenodd" d="M9.18757 8.12156L9.05597 8.49756L8.93847 8.12626C8.93847 8.12626 8.53897 8.11216 8.53897 8.12156C8.53897 8.13096 8.85387 7.87716 8.85387 7.87716L8.71287 7.46826C8.71287 7.47766 9.05597 7.72206 9.05597 7.72206L9.39907 7.47766L9.26747 7.87716L9.57767 8.11216L9.18757 8.12156Z" fill="#108C00"/>
<path d="M12.4844 15.0914C12.6706 15.0681 12.8216 14.3016 12.8216 13.3793C12.8216 12.457 12.6706 11.7283 12.4844 11.7515C12.2981 11.7748 12.1471 12.5414 12.1471 13.4636C12.1471 14.3859 12.2981 15.1147 12.4844 15.0914Z" fill="#009200" stroke="black" stroke-width="0.0246329"/>
<path d="M12.9154 15.0667C13.115 15.0417 13.2767 14.2739 13.2767 13.3516C13.2767 12.4293 13.115 11.7019 12.9154 11.7268C12.7159 11.7518 12.5541 12.5196 12.5541 13.4419C12.5541 14.3642 12.7159 15.0916 12.9154 15.0667Z" fill="#009200" stroke="black" stroke-width="0.0254974"/>
<path d="M12.7445 15.3052C12.9041 15.2853 13.0335 14.4467 13.0335 13.4321C13.0335 12.4176 12.9041 11.6114 12.7445 11.6313C12.5848 11.6513 12.4554 12.4899 12.4554 13.5044C12.4554 14.5189 12.5848 15.3252 12.7445 15.3052Z" fill="#009200" stroke="black" stroke-width="0.0239187"/>
<path fill-rule="evenodd" clip-rule="evenodd" d="M10.76 13.8222C11.0533 13.8076 10.9262 13.6609 11.0728 13.5778C11.2195 13.4996 11.4296 13.5485 11.4932 13.6463C11.5567 13.744 11.5078 13.8418 11.5909 13.8418C11.674 13.8418 13.8883 13.7196 13.9665 13.7978C14.0447 13.876 14.0643 14.0422 13.9812 14.1057C13.903 14.1742 11.1021 14.2524 11.0044 14.184C10.9066 14.1155 10.76 13.8418 10.76 13.8222Z" fill="#A95600" stroke="black" stroke-width="0.02444"/>
<path fill-rule="evenodd" clip-rule="evenodd" d="M12.2919 14.4014C12.2919 14.5969 12.6262 14.5373 12.635 14.7005C12.6299 14.8736 12.0726 14.7176 12.0587 14.4014C12.0726 14.0846 12.6086 13.9224 12.6211 14.1032C12.6299 14.2528 12.2911 14.2059 12.2911 14.4014H12.2919Z" fill="#FFFF00" stroke="black" stroke-width="0.0233476"/>
<path fill-rule="evenodd" clip-rule="evenodd" d="M12.4874 14.4063C12.4874 14.6018 12.8217 14.5422 12.8305 14.7054C12.8254 14.8785 12.2682 14.7225 12.2542 14.4063C12.2682 14.0895 12.8041 13.9272 12.8166 14.1081C12.8254 14.2577 12.4867 14.2107 12.4867 14.4063H12.4874Z" fill="#FFFF00" stroke="black" stroke-width="0.0233476"/>
<path fill-rule="evenodd" clip-rule="evenodd" d="M12.6976 14.3965C12.6976 14.592 13.0319 14.5324 13.0407 14.6956C13.0356 14.8687 12.4783 14.7128 12.4644 14.3965C12.4783 14.0798 13.0143 13.9175 13.0268 14.0983C13.0356 14.2479 12.6968 14.201 12.6968 14.3965H12.6976Z" fill="#FFFF00" stroke="black" stroke-width="0.0233476"/>
<path fill-rule="evenodd" clip-rule="evenodd" d="M12.8931 14.3965C12.8931 14.592 13.2274 14.5324 13.2362 14.6956C13.2311 14.8687 12.6739 14.7128 12.6599 14.3965C12.6739 14.0798 13.2098 13.9175 13.2223 14.0983C13.2311 14.2479 12.8924 14.201 12.8924 14.3965H12.8931Z" fill="#FFFF00" stroke="black" stroke-width="0.0233476"/>
<path d="M13.8343 14.9911C13.9382 14.993 14.0239 14.909 14.0258 14.8034C14.0276 14.6979 13.9448 14.6108 13.8409 14.6089C13.737 14.607 13.6512 14.691 13.6494 14.7966C13.6476 14.9021 13.7303 14.9892 13.8343 14.9911Z" fill="#A95600" stroke="black" stroke-width="0.021994"/>
<path d="M12.6638 14.8242C12.7588 14.8145 12.8187 14.6388 12.7977 14.4317C12.7766 14.2245 12.6826 14.0644 12.5876 14.0741C12.4927 14.0837 12.4327 14.2595 12.4538 14.4666C12.4748 14.6737 12.5689 14.8338 12.6638 14.8242Z" fill="#009200" stroke="black" stroke-width="0.0285017"/>
<path d="M12.3763 14.7992C12.4713 14.7896 12.5312 14.6139 12.5102 14.4067C12.4892 14.1996 12.3951 14.0395 12.3002 14.0492C12.2052 14.0588 12.1453 14.2346 12.1663 14.4417C12.1873 14.6488 12.2814 14.8089 12.3763 14.7992Z" fill="#009200" stroke="black" stroke-width="0.0285017"/>
<path d="M12.172 14.4318C12.267 14.4222 12.3269 14.2464 12.3059 14.0393C12.2848 13.8322 12.1908 13.6721 12.0958 13.6818C12.0008 13.6914 11.9409 13.8671 11.962 14.0743C11.983 14.2814 12.077 14.4415 12.172 14.4318Z" fill="#009200" stroke="black" stroke-width="0.0285017"/>
<path d="M12.3828 14.365C12.4722 14.3559 12.526 14.1649 12.5029 13.9383C12.4799 13.7118 12.3888 13.5355 12.2994 13.5446C12.2101 13.5537 12.1563 13.7447 12.1793 13.9712C12.2023 14.1978 12.2934 14.3741 12.3828 14.365Z" fill="#009200" stroke="black" stroke-width="0.0289178"/>
<path d="M12.7857 14.4133C12.875 14.4042 12.9299 14.2237 12.9082 14.0101C12.8865 13.7965 12.7965 13.6307 12.7071 13.6398C12.6177 13.6489 12.5628 13.8294 12.5845 14.043C12.6062 14.2566 12.6963 14.4224 12.7857 14.4133Z" fill="#009200" stroke="black" stroke-width="0.0280794"/>
<path d="M12.5656 14.2785C12.655 14.2695 12.7099 14.089 12.6882 13.8754C12.6665 13.6618 12.5764 13.496 12.4871 13.505C12.3977 13.5141 12.3428 13.6946 12.3645 13.9082C12.3862 14.1218 12.4763 14.2876 12.5656 14.2785Z" fill="#009200" stroke="black" stroke-width="0.0280794"/>
<path d="M12.2905 14.0852C12.3799 14.0761 12.4348 13.8956 12.4131 13.682C12.3914 13.4684 12.3013 13.3026 12.2119 13.3117C12.1226 13.3208 12.0677 13.5013 12.0894 13.7149C12.1111 13.9285 12.2011 14.0943 12.2905 14.0852Z" fill="#009200" stroke="black" stroke-width="0.0280794"/>
<path d="M12.0335 13.9739C12.1229 13.9648 12.1778 13.7843 12.1561 13.5707C12.1344 13.3571 12.0443 13.1913 11.955 13.2004C11.8656 13.2094 11.8107 13.39 11.8324 13.6035C11.8541 13.8171 11.9441 13.9829 12.0335 13.9739Z" fill="#009200" stroke="black" stroke-width="0.0280794"/>
<path fill-rule="evenodd" clip-rule="evenodd" d="M11.7962 9.99976C11.7962 9.99976 11.2243 10.4886 11.3025 11.8034C11.3905 13.1232 12.5979 13.7342 12.5979 13.7342C12.5979 13.7342 12.9009 13.3578 12.852 12.2922C12.7543 10.7378 12.1775 10.0584 12.1775 10.0584L11.7962 9.99487V9.99976Z" fill="#804BFF" stroke="black" stroke-width="0.02444"/>
<path d="M12.9914 14.8777C13.0866 14.8852 13.177 14.723 13.1933 14.5155C13.2096 14.3079 13.1457 14.1336 13.0506 14.1261C12.9554 14.1186 12.865 14.2808 12.8487 14.4883C12.8324 14.6959 12.8963 14.8702 12.9914 14.8777Z" fill="#009200" stroke="black" stroke-width="0.0285017"/>
<path d="M12.713 14.8018C12.8082 14.8093 12.8986 14.6471 12.9149 14.4395C12.9312 14.232 12.8673 14.0577 12.7722 14.0502C12.677 14.0427 12.5866 14.2049 12.5703 14.4124C12.5539 14.62 12.6178 14.7943 12.713 14.8018Z" fill="#009200" stroke="black" stroke-width="0.0285017"/>
<path d="M12.5776 14.4038C12.6728 14.4113 12.7632 14.2491 12.7795 14.0416C12.7958 13.834 12.7319 13.6597 12.6368 13.6522C12.5416 13.6447 12.4512 13.8069 12.4349 14.0145C12.4186 14.222 12.4825 14.3963 12.5776 14.4038Z" fill="#009200" stroke="black" stroke-width="0.0285017"/>
<path d="M12.797 14.3756C12.8866 14.3826 12.9737 14.2043 12.9915 13.9773C13.0094 13.7503 12.9513 13.5606 12.8617 13.5535C12.7721 13.5465 12.685 13.7248 12.6672 13.9518C12.6493 14.1788 12.7074 14.3685 12.797 14.3756Z" fill="#009200" stroke="black" stroke-width="0.0289178"/>
<path d="M13.1847 14.4954C13.2743 14.5024 13.3606 14.3346 13.3774 14.1206C13.3942 13.9066 13.3353 13.7273 13.2457 13.7203C13.1562 13.7132 13.0699 13.881 13.0531 14.0951C13.0362 14.3091 13.0952 14.4883 13.1847 14.4954Z" fill="#009200" stroke="black" stroke-width="0.0280794"/>
<path d="M12.9923 14.3233C13.0819 14.3303 13.1682 14.1625 13.185 13.9485C13.2019 13.7344 13.1429 13.5552 13.0533 13.5482C12.9638 13.5411 12.8775 13.7089 12.8607 13.9229C12.8438 14.137 12.9028 14.3162 12.9923 14.3233Z" fill="#009200" stroke="black" stroke-width="0.0280794"/>
<path d="M12.7562 14.084C12.8458 14.091 12.9321 13.9232 12.9489 13.7092C12.9657 13.4952 12.9068 13.316 12.8172 13.3089C12.7277 13.3019 12.6414 13.4697 12.6246 13.6837C12.6077 13.8977 12.6667 14.0769 12.7562 14.084Z" fill="#009200" stroke="black" stroke-width="0.0280794"/>
<path d="M12.5233 13.9285C12.6129 13.9355 12.6991 13.7677 12.716 13.5537C12.7328 13.3397 12.6739 13.1604 12.5843 13.1534C12.4947 13.1463 12.4085 13.3141 12.3916 13.5282C12.3748 13.7422 12.4337 13.9214 12.5233 13.9285Z" fill="#009200" stroke="black" stroke-width="0.0280794"/>
<path d="M13.4806 13.7843C13.7325 13.6899 13.6917 13.0011 13.3896 12.2459C13.0875 11.4907 12.6385 10.955 12.3867 11.0495C12.1349 11.1439 12.1756 11.8327 12.4777 12.5879C12.7798 13.3431 13.2288 13.8787 13.4806 13.7843Z" fill="#C90000" stroke="black" stroke-width="0.0108287"/>
<path d="M12.6523 11.2799C12.7689 11.2819 12.8649 11.1989 12.8667 11.0945C12.8686 10.99 12.7755 10.9037 12.6589 10.9016C12.5423 10.8996 12.4463 10.9826 12.4445 11.0871C12.4427 11.1915 12.5357 11.2779 12.6523 11.2799Z" fill="#009200" stroke="black" stroke-width="0.0253988"/>
<path d="M12.7203 11.0121C12.8223 11.0139 12.9065 10.9307 12.9084 10.8262C12.9102 10.7217 12.8289 10.6356 12.7269 10.6338C12.6249 10.6321 12.5407 10.7153 12.5389 10.8198C12.5371 10.9242 12.6183 11.0103 12.7203 11.0121Z" fill="#009200" stroke="black" stroke-width="0.0253423"/>
<path d="M12.4662 11.0077C12.5682 11.0095 12.6524 10.9263 12.6542 10.8218C12.656 10.7173 12.5748 10.6312 12.4728 10.6294C12.3707 10.6277 12.2865 10.7109 12.2847 10.8154C12.2829 10.9198 12.3641 11.0059 12.4662 11.0077Z" fill="#009200" stroke="black" stroke-width="0.0253423"/>
<path d="M12.5645 10.5895C12.6724 10.5913 12.7611 10.5167 12.7628 10.4226C12.7644 10.3286 12.6783 10.2509 12.5704 10.249C12.4626 10.2471 12.3738 10.3218 12.3722 10.4158C12.3705 10.5098 12.4566 10.5876 12.5645 10.5895Z" fill="#009200" stroke="black" stroke-width="0.0247192"/>
<path d="M12.5439 10.369C12.6518 10.3709 12.7405 10.2962 12.7422 10.2022C12.7438 10.1082 12.6577 10.0304 12.5498 10.0286C12.442 10.0267 12.3532 10.1014 12.3516 10.1954C12.3499 10.2894 12.436 10.3671 12.5439 10.369Z" fill="#009200" stroke="black" stroke-width="0.0247192"/>
<path d="M12.2242 10.8666C12.3262 10.8684 12.4104 10.7852 12.4122 10.6807C12.414 10.5762 12.3328 10.4901 12.2308 10.4883C12.1288 10.4866 12.0446 10.5698 12.0427 10.6742C12.0409 10.7787 12.1222 10.8648 12.2242 10.8666Z" fill="#009200" stroke="black" stroke-width="0.0253423"/>
<path d="M12.2755 10.7306C12.3775 10.7324 12.4617 10.6492 12.4635 10.5447C12.4653 10.4402 12.3841 10.3541 12.2821 10.3523C12.18 10.3506 12.0958 10.4338 12.094 10.5383C12.0922 10.6427 12.1734 10.7288 12.2755 10.7306Z" fill="#009200" stroke="black" stroke-width="0.0253423"/>
<path d="M12.0672 10.6342C12.1838 10.6362 12.2798 10.5532 12.2816 10.4487C12.2834 10.3442 12.1904 10.2579 12.0738 10.2559C11.9572 10.2538 11.8612 10.3369 11.8593 10.4413C11.8575 10.5458 11.9506 10.6321 12.0672 10.6342Z" fill="#009200" stroke="black" stroke-width="0.0253988"/>
<path d="M12.402 10.0978C12.5099 10.0996 12.5986 10.025 12.6003 9.93095C12.6019 9.83694 12.5158 9.7592 12.4079 9.75732C12.3001 9.75543 12.2113 9.83012 12.2097 9.92413C12.208 10.0181 12.2941 10.0959 12.402 10.0978Z" fill="#009200" stroke="black" stroke-width="0.0247192"/>
<path d="M12.0944 10.4635C12.1964 10.4653 12.2806 10.3821 12.2824 10.2776C12.2842 10.1732 12.203 10.087 12.101 10.0853C11.9989 10.0835 11.9148 10.1667 11.9129 10.2712C11.9111 10.3756 11.9923 10.4617 12.0944 10.4635Z" fill="#009200" stroke="black" stroke-width="0.0253423"/>
<path d="M11.6952 10.6422C11.7973 10.644 11.8814 10.5608 11.8833 10.4563C11.8851 10.3519 11.8039 10.2657 11.7018 10.264C11.5998 10.2622 11.5156 10.3454 11.5138 10.4499C11.512 10.5543 11.5932 10.6405 11.6952 10.6422Z" fill="#009200" stroke="black" stroke-width="0.0253423"/>
<path d="M11.7594 10.609C11.8614 10.6108 11.9456 10.5276 11.9474 10.4231C11.9492 10.3187 11.868 10.2325 11.766 10.2308C11.6639 10.229 11.5798 10.3122 11.5779 10.4167C11.5761 10.5211 11.6573 10.6073 11.7594 10.609Z" fill="#009200" stroke="black" stroke-width="0.0253423"/>
<path d="M11.8402 10.4591C11.9422 10.4609 12.0264 10.3777 12.0283 10.2732C12.0301 10.1688 11.9488 10.0826 11.8468 10.0809C11.7448 10.0791 11.6606 10.1623 11.6588 10.2668C11.657 10.3712 11.7382 10.4574 11.8402 10.4591Z" fill="#009200" stroke="black" stroke-width="0.0253423"/>
<path d="M13.6205 14.4652C13.9415 14.356 13.9101 13.4846 13.5504 12.5188C13.1908 11.5531 12.639 10.8587 12.3181 10.9679C11.9971 11.077 12.0285 11.9484 12.3881 12.9142C12.7478 13.8799 13.2995 14.5743 13.6205 14.4652Z" fill="#009200" stroke="black" stroke-width="0.0227291"/>
<path d="M13.6015 13.3841C13.6608 13.3556 13.645 13.1686 13.5663 12.9664C13.4876 12.7642 13.3757 12.6235 13.3163 12.652C13.257 12.6805 13.2728 12.8675 13.3515 13.0697C13.4303 13.2718 13.5422 13.4126 13.6015 13.3841Z" fill="#009200" stroke="black" stroke-width="0.0232201"/>
<path fill-rule="evenodd" clip-rule="evenodd" d="M13.3825 12.9966C13.8648 13.6622 13.7921 14.0755 13.7321 14.4246C13.5846 14.016 13.5075 13.7594 13.0252 13.0938C12.543 12.4282 12.8002 11.9771 12.8393 11.7359C12.9094 11.9474 12.9002 12.331 13.3825 12.9966Z" fill="#009200" stroke="black" stroke-width="0.0234398"/>
<path fill-rule="evenodd" clip-rule="evenodd" d="M13.4168 13.5247C13.8991 14.1903 13.8264 14.6036 13.7664 14.9527C13.6189 14.5441 13.5418 14.2874 13.0595 13.6218C12.5773 12.9562 12.8345 12.5052 12.8736 12.264C12.9437 12.4755 12.9345 12.8591 13.4168 13.5247Z" fill="#009200" stroke="black" stroke-width="0.0234398"/>
<path fill-rule="evenodd" clip-rule="evenodd" d="M13.4548 13.948C13.9523 14.6023 13.8888 15.0174 13.8366 15.368C13.6798 14.9627 13.597 14.7079 13.0995 14.0536C12.6019 13.3993 12.8493 12.9421 12.883 12.6999C12.9579 12.9098 12.9573 13.2937 13.4548 13.948Z" fill="#009200" stroke="black" stroke-width="0.0234554"/>
<path d="M13.333 13.0795C13.4494 13.0508 13.4312 12.7346 13.2924 12.3734C13.1536 12.0121 12.9468 11.7425 12.8305 11.7712C12.7141 11.8 12.7323 12.1161 12.8711 12.4774C13.0099 12.8386 13.2167 13.1082 13.333 13.0795Z" fill="#009200" stroke="black" stroke-width="0.0234336"/>
<path d="M13.1247 13.2738C13.23 13.2573 13.2286 13.0028 13.1216 12.7055C13.0145 12.4081 12.8423 12.1804 12.737 12.1969C12.6316 12.2134 12.633 12.4679 12.7401 12.7653C12.8471 13.0627 13.0193 13.2903 13.1247 13.2738Z" fill="#009200" stroke="black" stroke-width="0.0228313"/>
<path d="M12.7852 13.4962C12.8906 13.4818 12.8956 13.2273 12.7965 12.9277C12.6974 12.6281 12.5316 12.3969 12.4263 12.4113C12.3209 12.4256 12.3159 12.6801 12.415 12.9797C12.5142 13.2793 12.6799 13.5105 12.7852 13.4962Z" fill="#009200" stroke="black" stroke-width="0.0227796"/>
<path d="M13.001 12.4414C13.0851 12.427 13.0776 12.2368 12.9844 12.0165C12.8913 11.7962 12.7476 11.6293 12.6636 11.6437C12.5796 11.658 12.587 11.8483 12.6802 12.0685C12.7734 12.2888 12.917 12.4558 13.001 12.4414Z" fill="#009200" stroke="black" stroke-width="0.0233063"/>
<path d="M12.8328 12.6585C12.9187 12.6492 12.9241 12.4577 12.8448 12.2308C12.7655 12.0039 12.6315 11.8275 12.5456 11.8369C12.4596 11.8462 12.4542 12.0377 12.5335 12.2646C12.6128 12.4915 12.7468 12.6678 12.8328 12.6585Z" fill="#009200" stroke="black" stroke-width="0.0235306"/>
<path fill-rule="evenodd" clip-rule="evenodd" d="M12.5232 12.0103C12.6608 12.4026 12.7117 12.7537 12.6365 12.7943C12.5613 12.8348 12.3889 12.5492 12.2513 12.157" fill="#009200"/>
<path d="M12.5232 12.0103C12.6608 12.4026 12.7117 12.7537 12.6365 12.7943C12.5613 12.8348 12.3889 12.5492 12.2513 12.157" stroke="black" stroke-width="0.0235608"/>
<path d="M12.8187 12.2029C12.9047 12.1936 12.91 12.0021 12.8307 11.7752C12.7514 11.5483 12.6175 11.372 12.5315 11.3813C12.4456 11.3906 12.4402 11.5821 12.5195 11.809C12.5988 12.0359 12.7327 12.2123 12.8187 12.2029Z" fill="#009200" stroke="black" stroke-width="0.0235306"/>
<path d="M12.5702 12.3694C12.6562 12.3622 12.6648 12.1706 12.5895 11.9415C12.5141 11.7124 12.3834 11.5326 12.2974 11.5397C12.2115 11.5469 12.2029 11.7385 12.2782 11.9675C12.3535 12.1966 12.4843 12.3765 12.5702 12.3694Z" fill="#009200" stroke="black" stroke-width="0.0235423"/>
<path fill-rule="evenodd" clip-rule="evenodd" d="M12.2966 11.4801C12.4342 11.746 12.5064 11.9926 12.4575 12.0308C12.4086 12.0689 12.2574 11.8838 12.1198 11.6179" fill="#009200"/>
<path d="M12.2966 11.4801C12.4342 11.746 12.5064 11.9926 12.4575 12.0308C12.4086 12.0689 12.2574 11.8838 12.1198 11.6179" stroke="black" stroke-width="0.0235269"/>
<path fill-rule="evenodd" clip-rule="evenodd" d="M12.3986 11.3089C12.5363 11.5748 12.6085 11.8215 12.5595 11.8596C12.5106 11.8978 12.3594 11.7127 12.2218 11.4468" fill="#009200"/>
<path d="M12.3986 11.3089C12.5363 11.5748 12.6085 11.8215 12.5595 11.8596C12.5106 11.8978 12.3594 11.7127 12.2218 11.4468" stroke="black" stroke-width="0.0235269"/>
<path fill-rule="evenodd" clip-rule="evenodd" d="M12.8434 11.4026C13.0348 11.7683 13.1348 12.107 13.0662 12.1589C12.9976 12.2108 12.7867 11.956 12.5953 11.5903" fill="#009200"/>
<path d="M12.8434 11.4026C13.0348 11.7683 13.1348 12.107 13.0662 12.1589C12.9976 12.2108 12.7867 11.956 12.5953 11.5903" stroke="black" stroke-width="0.0235616"/>
<path fill-rule="evenodd" clip-rule="evenodd" d="M12.5526 11.1493C12.6902 11.4418 12.7624 11.7132 12.7135 11.7554C12.6646 11.7976 12.5134 11.5943 12.3758 11.3018" fill="#009200"/>
<path d="M12.5526 11.1493C12.6902 11.4418 12.7624 11.7132 12.7135 11.7554C12.6646 11.7976 12.5134 11.5943 12.3758 11.3018" stroke="black" stroke-width="0.0232273"/>
<path fill-rule="evenodd" clip-rule="evenodd" d="M12.7547 10.131C12.6585 10.2299 12.7578 10.402 12.8486 10.4611C12.9502 10.5439 13.5258 11.087 13.9145 10.5902C13.5954 10.5988 12.9862 9.91052 12.7547 10.131Z" fill="#804BFF" stroke="black" stroke-width="0.0229268"/>
<path fill-rule="evenodd" clip-rule="evenodd" d="M12.6863 9.84264C12.5901 9.94158 12.6894 10.1136 12.7801 10.1728C12.8818 10.2556 13.4574 10.7986 13.8461 10.3018C13.527 10.3104 12.9177 9.62219 12.6863 9.84264Z" fill="#804BFF" stroke="black" stroke-width="0.0229268"/>
<path fill-rule="evenodd" clip-rule="evenodd" d="M12.5983 9.56896C12.5021 9.66789 12.6014 9.83995 12.6921 9.8991C12.7938 9.9819 13.3694 10.525 13.7581 10.0281C13.439 10.0367 12.8298 9.34851 12.5983 9.56896Z" fill="#804BFF" stroke="black" stroke-width="0.0229268"/>
<path fill-rule="evenodd" clip-rule="evenodd" d="M12.4076 9.25622C12.3114 9.35515 12.4108 9.52721 12.5015 9.58635C12.6031 9.66916 13.1788 10.2122 13.5674 9.7154C13.2484 9.724 12.6391 9.03577 12.4076 9.25622Z" fill="#804BFF" stroke="black" stroke-width="0.0229268"/>
<path fill-rule="evenodd" clip-rule="evenodd" d="M11.5342 9.11771C11.7195 8.97292 12.0669 8.9301 12.3416 9.07451C12.5708 9.19017 12.9581 9.65843 13.2436 9.7694C13.1691 9.78662 13.091 9.79026 13.014 9.78012C12.9369 9.76997 12.8625 9.74625 12.7949 9.71034C12.5479 9.89874 12.4594 9.92594 12.2031 9.96331C11.8487 10.0148 11.5505 9.91819 11.4431 9.72575C11.3314 9.54429 11.37 9.2531 11.5342 9.11771Z" fill="#804BFF" stroke="black" stroke-width="0.0238534"/>
<path d="M12.076 9.43387C12.1718 9.43554 12.2502 9.39423 12.2511 9.34159C12.252 9.28896 12.1751 9.24494 12.0793 9.24326C11.9835 9.24159 11.905 9.2829 11.9041 9.33554C11.9032 9.38817 11.9801 9.43219 12.076 9.43387Z" fill="#FF0000" stroke="black" stroke-width="0.0220299"/>
<path d="M11.6537 9.8572C11.7804 9.80909 11.8597 9.71051 11.831 9.63703C11.8022 9.56355 11.6762 9.54298 11.5495 9.5911C11.4229 9.63922 11.3435 9.73779 11.3723 9.81127C11.401 9.88476 11.527 9.90532 11.6537 9.8572Z" fill="#FFFF00" stroke="black" stroke-width="0.0243181"/>
<path d="M11.8015 9.69811C11.8328 9.69866 11.8586 9.67372 11.8592 9.64241C11.8597 9.6111 11.8348 9.58528 11.8035 9.58473C11.7721 9.58418 11.7463 9.60912 11.7458 9.64043C11.7452 9.67174 11.7702 9.69757 11.8015 9.69811Z" fill="black"/>
<path fill-rule="evenodd" clip-rule="evenodd" d="M11.879 9.45897C11.8993 9.52972 11.8433 9.62652 11.7136 9.6618C11.5818 9.71112 11.4855 9.8213 11.4354 10.0011C11.2118 9.59359 11.3331 9.41933 11.547 9.37613C11.7308 9.32302 11.8431 9.32889 11.879 9.45897Z" fill="#FFFF00" stroke="black" stroke-width="0.0288549"/>
<path d="M11.3297 9.8942C11.3551 9.89464 11.376 9.87443 11.3765 9.84906C11.3769 9.82369 11.3567 9.80276 11.3313 9.80232C11.306 9.80187 11.285 9.82208 11.2846 9.84745C11.2842 9.87283 11.3044 9.89375 11.3297 9.8942Z" fill="black"/>
</g>
</g>
</g>
<defs>
<clipPath id="clip0_2214_3292">
<path d="M0 12C0 5.37258 5.37258 0 12 0C18.6274 0 24 5.37258 24 12C24 18.6274 18.6274 24 12 24C5.37258 24 0 18.6274 0 12Z" fill="white"/>
</clipPath>
<clipPath id="clip1_2214_3292">
<rect width="32" height="24" fill="white" transform="translate(-4)"/>
</clipPath>
</defs>
</svg>
