<svg width="24" height="24" viewBox="0 0 24 24" fill="none" xmlns="http://www.w3.org/2000/svg">
<g clip-path="url(#clip0_2214_3343)">
<g clip-path="url(#clip1_2214_3343)">
<path d="M-4 16H28V24H-4V16Z" fill="#000001"/>
<path d="M-4 8H28V16H-4V8Z" fill="white"/>
<path d="M-4 0H28V8H-4V0Z" fill="#CE1126"/>
<path d="M12.032 12.096L14.772 14.64L14.576 10.02C14.548 9.31998 13.94 9.47998 13.496 9.73198C13.052 10.02 12.536 10.02 12 9.83198C11.46 10.02 10.948 10.02 10.504 9.73198C10.064 9.47998 9.45203 9.31998 9.42403 10.02L9.22803 14.64L12.032 12.096Z" fill="white" stroke="#C09300" stroke-width="0.13" stroke-linejoin="round"/>
<path d="M9.74003 9.86011L9.54803 14.3521L9.22803 14.6401L9.42403 10.0201C9.51852 9.94764 9.62568 9.89338 9.74003 9.86011ZM10.124 10.1801L9.96403 13.9401L9.64403 14.2681L9.83603 9.92811C9.90003 9.99211 10.088 10.1481 10.124 10.1801ZM10.472 10.4681L10.348 13.6041L10.088 13.8561L10.248 10.2801C10.312 10.3401 10.44 10.4321 10.472 10.4681ZM10.852 10.6281L10.728 13.3001L10.476 13.5041L10.6 10.5321C10.664 10.5601 10.788 10.6281 10.852 10.6281ZM11.204 10.6281L11.112 12.8561L10.852 13.1081L10.952 10.6561C11.012 10.6561 11.176 10.6561 11.204 10.6281Z" fill="#C09300"/>
<path d="M14.26 9.86011L14.452 14.3521L14.772 14.6401L14.576 10.0201C14.4815 9.94764 14.3744 9.89338 14.26 9.86011ZM13.876 10.1801L14.036 13.9401L14.356 14.2681L14.164 9.92811C14.1 9.99211 13.912 10.1481 13.876 10.1801ZM13.528 10.4681L13.652 13.6041L13.912 13.8561L13.752 10.2801C13.688 10.3401 13.56 10.4321 13.528 10.4681ZM13.148 10.6281L13.272 13.3001L13.524 13.5041L13.4 10.5321C13.336 10.5601 13.212 10.6281 13.148 10.6281ZM12.796 10.6281L12.888 12.8561L13.148 13.1081L13.048 10.6561C12.988 10.6561 12.824 10.6561 12.796 10.6281Z" fill="#C09300"/>
<path d="M12.128 12.6001L12.512 14.3521L12.384 14.4801L12.252 14.3801L12.036 12.8201L12.128 14.3801L12 14.5401L11.876 14.3801L11.968 12.8201L11.748 14.3801L11.616 14.4801L11.488 14.3521L11.872 12.6041H12.128V12.6001Z" fill="#C09300" stroke="#C09300" stroke-width="0.11"/>
<path d="M11.14 11.832L10.376 14.54L11.428 14.7L11.872 12.664L11.14 11.832Z" fill="white" stroke="#C09300" stroke-width="0.12" stroke-linejoin="round"/>
<path d="M10.8881 12.7601L10.9801 12.9801L11.4761 12.5081" stroke="#C09300" stroke-width="0.13" stroke-linejoin="round"/>
<path d="M11.232 12.2L11.336 13.172L11.652 12.756M11.524 12.916L11.696 13.516M11.764 13.296L11.416 13.824M11.524 14.352L11.412 13.824M11.412 13.824L11.316 13.288L11.08 13.604L10.98 13.24L10.652 13.576L10.816 14.184L11.048 13.808L11.172 14.192L11.412 13.824Z" stroke="#C09300" stroke-width="0.13" stroke-linejoin="round"/>
<path d="M10.6 14.4799L10.812 14.1799L10.948 14.6399L11.14 14.3199L11.264 14.7039" stroke="#C09300" stroke-width="0.13" stroke-linejoin="round"/>
<path d="M12.86 11.832L13.624 14.54L12.572 14.7L12.128 12.664L12.86 11.832Z" fill="white" stroke="#C09300" stroke-width="0.12" stroke-linejoin="round"/>
<path d="M13.112 12.7601L13.02 12.9801L12.524 12.5081" stroke="#C09300" stroke-width="0.13" stroke-linejoin="round"/>
<path d="M12.768 12.2L12.664 13.172L12.348 12.756M12.476 12.916L12.304 13.516M12.236 13.296L12.584 13.824M12.476 14.352L12.588 13.824M12.588 13.824L12.684 13.288L12.92 13.604L13.02 13.24L13.348 13.576L13.184 14.184L12.952 13.808L12.828 14.192L12.588 13.824Z" stroke="#C09300" stroke-width="0.13" stroke-linejoin="round"/>
<path d="M13.4 14.4799L13.188 14.1799L13.052 14.6399L12.86 14.3199L12.736 14.7039" stroke="#C09300" stroke-width="0.13" stroke-linejoin="round"/>
<path d="M12 15.752C12.8 15.752 13.56 15.688 14.008 15.564C14.196 15.528 14.196 15.432 14.196 15.304C14.388 15.24 14.292 15.016 14.424 15.016C14.288 15.056 14.264 14.796 14.104 14.828C14.104 14.604 13.876 14.576 13.688 14.64C13.308 14.764 12.636 14.796 12 14.796C11.36 14.764 10.696 14.764 10.312 14.636C10.124 14.576 9.90002 14.604 9.90002 14.828C9.74002 14.796 9.71202 15.052 9.58002 15.016C9.71202 15.016 9.61202 15.244 9.80402 15.304C9.80402 15.432 9.80402 15.528 9.99602 15.564C10.436 15.688 11.204 15.752 12 15.752Z" fill="white" stroke="#C09300" stroke-width="0.24" stroke-linecap="round" stroke-linejoin="round"/>
<path d="M10.916 14.5401C11.172 14.5761 11.46 14.6041 11.684 14.5761C11.812 14.5761 11.904 14.7961 11.648 14.8281C11.428 14.8561 11.076 14.8281 10.888 14.7961C10.6406 14.7528 10.3951 14.6994 10.152 14.6361C9.92801 14.5401 10.088 14.3561 10.216 14.3801C10.4444 14.4533 10.6785 14.5068 10.916 14.5401ZM13.084 14.5401C12.828 14.5761 12.54 14.6041 12.324 14.5761C12.188 14.5761 12.096 14.7961 12.352 14.8281C12.576 14.8561 12.924 14.8281 13.112 14.7961C13.272 14.7641 13.624 14.7041 13.848 14.6361C14.072 14.5401 13.912 14.3561 13.784 14.3801C13.5557 14.4533 13.3215 14.5068 13.084 14.5401Z" fill="white" stroke="#C09300" stroke-width="0.13" stroke-linecap="round" stroke-linejoin="round"/>
<path d="M10.12 14.416C9.92804 14.38 9.84004 14.604 9.90004 14.732C9.92804 14.668 10.06 14.668 10.088 14.604C10.124 14.508 10.06 14.508 10.124 14.416H10.12ZM10.888 15.004C10.888 14.876 11.012 14.892 11.012 14.764C11.012 14.704 10.98 14.604 10.916 14.604C10.8827 14.6059 10.8513 14.62 10.8276 14.6436C10.804 14.6672 10.7899 14.6986 10.788 14.732C10.76 14.856 10.888 14.876 10.888 15.004ZM11.796 14.64C11.984 14.64 11.964 14.892 11.876 15.02C11.876 14.928 11.716 14.892 11.716 14.828C11.716 14.732 11.86 14.732 11.796 14.64ZM13.876 14.416C14.072 14.38 14.164 14.604 14.1 14.732C14.072 14.668 13.94 14.668 13.912 14.604C13.876 14.508 13.94 14.508 13.876 14.416ZM13.12 15C13.12 14.872 12.992 14.888 12.992 14.76C12.992 14.7 13.024 14.6 13.088 14.6C13.1214 14.6019 13.1528 14.616 13.1764 14.6396C13.2 14.6632 13.2141 14.6947 13.216 14.728C13.244 14.852 13.116 14.872 13.116 15H13.12ZM12.2 14.64C12.012 14.64 12.032 14.892 12.12 15.02C12.12 14.928 12.28 14.892 12.28 14.828C12.28 14.732 12.136 14.732 12.2 14.64Z" fill="white" stroke="#C09300" stroke-width="0.13" stroke-linecap="round" stroke-linejoin="round"/>
<path d="M10.188 14.48C10.252 14.48 10.348 14.508 10.376 14.544L10.188 14.48ZM10.504 14.576C10.536 14.576 10.664 14.604 10.724 14.64L10.504 14.576ZM11.648 14.704C11.588 14.704 11.46 14.704 11.428 14.732L11.648 14.7V14.704ZM11.3 14.704C11.264 14.668 11.14 14.668 11.076 14.704H11.3ZM13.812 14.48C13.7441 14.4808 13.6783 14.5032 13.624 14.544L13.812 14.48ZM13.5 14.576C13.46 14.576 13.34 14.604 13.276 14.64L13.5 14.576ZM12.352 14.704C12.412 14.704 12.54 14.704 12.576 14.732L12.352 14.7V14.704ZM12.7 14.704C12.736 14.668 12.86 14.668 12.924 14.704H12.7Z" fill="white" stroke="#C09300" stroke-width="0.09" stroke-linecap="round" stroke-linejoin="round"/>
<path d="M10.132 14.984C10.1107 14.976 10.1027 14.9626 10.108 14.944C10.116 14.9173 10.1294 14.9066 10.148 14.912C10.164 14.912 10.184 14.936 10.184 14.944L10.168 14.972L10.16 14.976C10.1574 14.984 10.148 14.9866 10.132 14.984ZM12.332 15.14C12.3214 15.1346 12.3134 15.1253 12.308 15.112C12.308 15.096 12.332 15.072 12.348 15.072L12.38 15.088C12.3934 15.104 12.392 15.12 12.376 15.136C12.3627 15.144 12.348 15.144 12.332 15.136V15.14ZM12.344 15.24C12.3307 15.2346 12.3227 15.224 12.32 15.208C12.3174 15.192 12.324 15.18 12.34 15.172L12.356 15.164L12.372 15.172C12.388 15.1773 12.3974 15.188 12.4 15.204C12.4 15.2173 12.3907 15.228 12.372 15.236C12.3614 15.244 12.352 15.244 12.344 15.236V15.24Z" fill="#C09300"/>
<path d="M10.312 14.8C10.2934 14.8027 10.2774 14.8107 10.264 14.824C10.24 14.828 10.208 14.844 10.184 14.824C10.16 14.82 10.128 14.824 10.124 14.856C10.128 14.884 10.164 14.896 10.188 14.88C10.204 14.86 10.248 14.844 10.256 14.88C10.236 14.912 10.24 14.948 10.224 14.976C10.2214 14.9947 10.2147 15.012 10.204 15.028C10.1827 15.028 10.164 15.032 10.148 15.04C10.1356 15.04 10.1234 15.0429 10.1123 15.0485C10.1011 15.054 10.0915 15.0621 10.084 15.072C10.0654 15.096 10.0534 15.1227 10.048 15.152C10.052 15.176 10.088 15.184 10.112 15.188L10.192 15.212L10.32 15.248C10.384 15.264 10.448 15.2787 10.512 15.292L10.532 15.296C10.56 15.304 10.572 15.276 10.572 15.256L10.612 15.112C10.62 15.092 10.632 15.052 10.596 15.06C10.5774 15.076 10.556 15.0867 10.532 15.092C10.496 15.092 10.516 15.132 10.532 15.144C10.532 15.1707 10.5254 15.1947 10.512 15.216C10.488 15.224 10.464 15.2214 10.44 15.208C10.42 15.208 10.372 15.196 10.392 15.168L10.412 15.096C10.42 15.0694 10.4267 15.0427 10.432 15.016C10.416 14.988 10.392 15.028 10.372 15.032C10.352 15.036 10.308 15.044 10.332 15.072C10.356 15.088 10.34 15.116 10.332 15.14C10.332 15.168 10.3 15.18 10.276 15.168C10.252 15.168 10.216 15.148 10.236 15.124L10.256 15.052L10.284 14.972C10.284 14.9454 10.292 14.9214 10.308 14.9C10.308 14.872 10.328 14.848 10.328 14.82C10.328 14.8094 10.3227 14.804 10.312 14.804V14.8ZM10.164 15.092H10.176C10.184 15.1 10.184 15.108 10.176 15.116L10.164 15.124C10.1454 15.124 10.1374 15.12 10.14 15.112C10.14 15.1094 10.144 15.1054 10.152 15.1L10.164 15.092ZM10.124 15.292C10.1054 15.2787 10.1094 15.2614 10.136 15.24C10.1467 15.232 10.1587 15.2334 10.172 15.244C10.196 15.26 10.196 15.2774 10.172 15.296C10.1667 15.304 10.16 15.3067 10.152 15.304C10.144 15.3014 10.1347 15.2987 10.124 15.296V15.292ZM10.244 15.332C10.2356 15.3285 10.2287 15.3223 10.2243 15.3143C10.2199 15.3063 10.2184 15.297 10.22 15.288C10.2227 15.272 10.2347 15.2654 10.256 15.268C10.28 15.2654 10.292 15.2747 10.292 15.296C10.292 15.3094 10.288 15.3187 10.28 15.324L10.244 15.332ZM13.812 15.332C13.804 15.3294 13.8 15.3227 13.8 15.312C13.8 15.296 13.8107 15.284 13.832 15.276C13.856 15.2627 13.872 15.2654 13.88 15.284C13.8934 15.3054 13.892 15.3214 13.876 15.332C13.8707 15.3427 13.86 15.3467 13.844 15.344C13.8254 15.344 13.8147 15.3414 13.812 15.336V15.332ZM10.412 15.38C10.396 15.3774 10.388 15.3667 10.388 15.348C10.388 15.3374 10.3907 15.3294 10.396 15.324L10.42 15.316L10.444 15.32C10.4654 15.336 10.4694 15.352 10.456 15.368C10.4427 15.384 10.4267 15.388 10.408 15.38H10.412ZM11.284 15.42L11.276 15.408C11.276 15.384 11.2787 15.3614 11.284 15.34C11.284 15.3214 11.2867 15.3014 11.292 15.28L11.308 15.168C11.308 15.1467 11.3107 15.128 11.316 15.112C11.316 15.08 11.3187 15.0507 11.324 15.024C11.324 15.012 11.336 14.984 11.348 15C11.364 15.0214 11.3827 15.0414 11.404 15.06C11.42 15.072 11.404 15.088 11.392 15.092C11.376 15.1 11.3694 15.1134 11.372 15.132L11.364 15.18C11.364 15.2067 11.3614 15.2334 11.356 15.26L11.352 15.332L11.344 15.38C11.3467 15.3987 11.3414 15.4134 11.328 15.424C11.312 15.432 11.2987 15.4307 11.288 15.42H11.284ZM12.472 15.028L12.42 15.076C12.396 15.096 12.44 15.104 12.444 15.12C12.452 15.144 12.4547 15.168 12.452 15.192C12.46 15.216 12.4627 15.2387 12.46 15.26C12.46 15.288 12.428 15.28 12.412 15.296C12.396 15.3067 12.3827 15.32 12.372 15.336L12.356 15.4C12.356 15.42 12.344 15.44 12.356 15.456L12.36 15.464H12.38L12.44 15.46C12.4907 15.4547 12.54 15.4507 12.588 15.448L12.676 15.44C12.7 15.444 12.712 15.42 12.712 15.4C12.696 15.372 12.708 15.344 12.696 15.32C12.6907 15.288 12.688 15.2587 12.688 15.232C12.688 15.208 12.66 15.2 12.648 15.216C12.6294 15.2267 12.6134 15.2387 12.6 15.252C12.588 15.276 12.624 15.276 12.632 15.292L12.636 15.352C12.64 15.376 12.616 15.376 12.596 15.38C12.572 15.3907 12.552 15.3867 12.536 15.368C12.5307 15.3494 12.528 15.3294 12.528 15.308C12.5254 15.2707 12.5214 15.2347 12.516 15.2C12.5107 15.16 12.5067 15.1174 12.504 15.072C12.504 15.052 12.5 15.024 12.472 15.028ZM12.448 15.356H12.46V15.388L12.448 15.392L12.432 15.396H12.424C12.416 15.388 12.4174 15.3774 12.428 15.364L12.448 15.356ZM11.248 14.988C11.236 14.988 11.216 15.016 11.2 15.012C11.164 15.016 11.168 15.052 11.196 15.064V15.096C11.2 15.128 11.18 15.156 11.184 15.188C11.1814 15.22 11.1774 15.2547 11.172 15.292C11.1614 15.3294 11.156 15.3654 11.156 15.4C11.152 15.432 11.128 15.42 11.108 15.412V15.372C11.108 15.34 11.092 15.324 11.06 15.324C11.0334 15.3214 11.0227 15.3067 11.028 15.28C11.044 15.2694 11.064 15.2654 11.088 15.268C11.128 15.276 11.124 15.224 11.104 15.204C11.084 15.184 11.056 15.164 11.048 15.14C11.048 15.1054 11.032 15.0774 11 15.056C10.956 15.052 10.92 15.088 10.908 15.128C10.8867 15.128 10.868 15.1334 10.852 15.144C10.824 15.152 10.784 15.2 10.824 15.22C10.844 15.224 10.912 15.24 10.88 15.268C10.8614 15.2947 10.836 15.3027 10.804 15.292C10.776 15.292 10.744 15.276 10.744 15.244C10.744 15.212 10.7387 15.1814 10.728 15.152C10.72 15.12 10.684 15.128 10.68 15.16C10.6534 15.1867 10.652 15.2134 10.676 15.24C10.684 15.272 10.68 15.3014 10.664 15.328C10.656 15.368 10.616 15.368 10.588 15.376C10.576 15.384 10.524 15.376 10.544 15.404C10.574 15.4179 10.6076 15.4221 10.64 15.416C10.672 15.4107 10.6987 15.392 10.72 15.36C10.74 15.34 10.776 15.352 10.808 15.352C10.836 15.352 10.868 15.372 10.9 15.356C10.908 15.336 10.948 15.296 10.96 15.336C10.9654 15.3734 10.9854 15.3894 11.02 15.384C11.056 15.384 11.04 15.408 11.04 15.432C11.0454 15.4667 11.0654 15.4907 11.1 15.504H11.132C11.164 15.496 11.188 15.4774 11.204 15.448C11.212 15.4187 11.2187 15.3894 11.224 15.36C11.232 15.3147 11.2374 15.2694 11.24 15.224C11.248 15.184 11.2534 15.1414 11.256 15.096L11.268 15.004C11.268 14.988 11.2614 14.9827 11.248 14.988ZM10.98 15.152C10.9854 15.152 10.988 15.1587 10.988 15.172C10.988 15.1854 10.9947 15.196 11.008 15.204V15.216L10.976 15.224C10.9574 15.224 10.9414 15.2174 10.928 15.204L10.92 15.196L10.932 15.188L10.952 15.168C10.9627 15.1574 10.972 15.152 10.98 15.152ZM13.62 14.836L13.552 14.848C13.512 14.848 13.492 14.888 13.532 14.912C13.556 14.972 13.592 14.896 13.632 14.904C13.688 14.912 13.692 14.976 13.704 15.024C13.7067 15.0667 13.716 15.1107 13.732 15.156C13.772 15.2 13.704 15.228 13.676 15.196C13.652 15.168 13.596 15.136 13.568 15.172C13.532 15.188 13.528 15.236 13.5 15.252C13.452 15.264 13.448 15.204 13.42 15.18C13.396 15.144 13.352 15.14 13.316 15.132C13.3 15.096 13.308 15.036 13.276 15.012C13.244 15.024 13.188 15.08 13.236 15.108C13.276 15.148 13.216 15.164 13.196 15.188C13.1667 15.2254 13.1534 15.2654 13.156 15.308C13.104 15.336 13.096 15.276 13.088 15.24C13.088 15.196 13.048 15.208 13.02 15.224C12.9854 15.2454 12.9587 15.272 12.94 15.304V15.384C12.948 15.42 12.988 15.404 13.012 15.4C13.052 15.384 13.068 15.428 13.036 15.452C13.012 15.476 12.948 15.464 12.956 15.508H13.02C13.06 15.496 13.108 15.464 13.112 15.416C13.12 15.376 13.18 15.38 13.212 15.372C13.252 15.36 13.304 15.356 13.316 15.412C13.344 15.44 13.404 15.472 13.436 15.432C13.4529 15.4242 13.4666 15.4108 13.4746 15.394C13.4826 15.3772 13.4845 15.3581 13.48 15.34C13.476 15.308 13.532 15.308 13.548 15.328C13.568 15.36 13.632 15.352 13.664 15.328C13.696 15.304 13.704 15.264 13.752 15.264L13.968 15.204C14.024 15.192 13.96 15.156 13.944 15.132C13.904 15.112 13.864 15.2 13.816 15.156C13.776 15.128 13.78 15.076 13.768 15.032C13.756 14.976 13.76 14.912 13.72 14.872C13.6934 14.8454 13.66 14.8334 13.62 14.836ZM13.348 15.216C13.3534 15.216 13.36 15.2187 13.368 15.224C13.384 15.2347 13.3934 15.248 13.396 15.264C13.396 15.2694 13.392 15.2734 13.384 15.276L13.364 15.284C13.3507 15.2814 13.3414 15.2747 13.336 15.264V15.248C13.328 15.2347 13.328 15.2267 13.336 15.224L13.348 15.216ZM13.608 15.232C13.6214 15.232 13.632 15.236 13.64 15.244C13.6454 15.2574 13.64 15.268 13.624 15.276L13.604 15.284L13.588 15.272C13.58 15.2694 13.576 15.264 13.576 15.256C13.5787 15.2427 13.5894 15.2334 13.608 15.228V15.232ZM13.248 15.232C13.256 15.232 13.2614 15.2347 13.264 15.24C13.272 15.2454 13.276 15.2534 13.276 15.264V15.288C13.2814 15.296 13.2734 15.2987 13.252 15.296C13.22 15.292 13.224 15.296 13.224 15.272C13.224 15.2587 13.228 15.2494 13.236 15.244C13.244 15.2387 13.2494 15.236 13.252 15.236L13.248 15.232ZM13.032 15.292L13.048 15.308C13.048 15.3187 13.0454 15.3267 13.04 15.332C13.024 15.3374 13.0107 15.3374 13 15.332V15.328C12.992 15.3227 12.992 15.3187 13 15.316V15.312L13.008 15.3C13.015 15.2949 13.0234 15.292 13.032 15.292ZM13.4 15.34L13.42 15.344V15.368H13.372L13.368 15.36C13.368 15.352 13.3707 15.3467 13.376 15.344L13.4 15.34ZM12.716 15.532C12.708 15.532 12.7067 15.5294 12.712 15.524C12.72 15.5134 12.7307 15.5054 12.744 15.5C12.7662 15.4925 12.7857 15.4786 12.8 15.46L12.816 15.42L12.812 15.364C12.806 15.3476 12.7948 15.3335 12.78 15.324C12.764 15.324 12.7534 15.316 12.748 15.3C12.7507 15.2894 12.756 15.2774 12.764 15.264L12.788 15.216C12.804 15.208 12.8147 15.2107 12.82 15.224L12.84 15.264C12.8507 15.2747 12.8587 15.288 12.864 15.304C12.872 15.32 12.8774 15.3334 12.88 15.344L12.888 15.396C12.888 15.4174 12.8854 15.4387 12.88 15.46L12.856 15.492C12.8454 15.5054 12.832 15.5147 12.816 15.52C12.8054 15.528 12.7934 15.5334 12.78 15.536H12.72L12.716 15.532ZM12.44 15.548C12.432 15.5427 12.428 15.5347 12.428 15.524C12.428 15.508 12.428 15.512 12.44 15.5C12.4507 15.484 12.4694 15.484 12.496 15.5C12.5227 15.516 12.536 15.5174 12.536 15.504C12.5414 15.4934 12.5547 15.4867 12.576 15.484L12.596 15.492C12.604 15.4974 12.608 15.5067 12.608 15.52C12.608 15.54 12.608 15.54 12.596 15.552C12.588 15.5574 12.5787 15.56 12.568 15.56C12.5611 15.5592 12.5544 15.5565 12.5488 15.5523C12.5432 15.5481 12.5388 15.5425 12.536 15.536C12.536 15.5254 12.5334 15.524 12.528 15.532L12.52 15.536C12.5094 15.5387 12.4987 15.5454 12.488 15.556L12.468 15.56C12.4574 15.56 12.448 15.556 12.44 15.548ZM11.648 15.192C11.616 15.1947 11.596 15.212 11.588 15.244C11.596 15.272 11.62 15.304 11.604 15.332C11.616 15.372 11.572 15.388 11.544 15.368C11.5334 15.328 11.516 15.288 11.492 15.248C11.46 15.24 11.448 15.292 11.424 15.312C11.436 15.34 11.468 15.368 11.472 15.404C11.4747 15.4467 11.46 15.4787 11.428 15.5C11.4 15.528 11.36 15.52 11.328 15.524C11.288 15.548 11.356 15.556 11.376 15.556C11.4187 15.564 11.4587 15.5534 11.496 15.524C11.524 15.512 11.52 15.456 11.556 15.452L11.748 15.464C11.78 15.472 11.832 15.46 11.856 15.484C11.856 15.524 11.896 15.556 11.932 15.572C11.952 15.58 11.972 15.552 11.992 15.548C12.032 15.536 12.02 15.488 12.044 15.468H12.244C12.252 15.468 12.256 15.448 12.268 15.44L12.26 15.364C12.248 15.332 12.26 15.292 12.24 15.264C12.204 15.256 12.176 15.284 12.144 15.288C12.1014 15.3067 12.0774 15.3374 12.072 15.38C12.052 15.416 12.016 15.372 12.032 15.34L12.028 15.3C12.008 15.28 11.972 15.288 11.944 15.284L11.824 15.276C11.784 15.2787 11.748 15.2774 11.716 15.272C11.676 15.272 11.676 15.232 11.676 15.2L11.648 15.192ZM11.728 15.34L11.768 15.344H11.82C11.86 15.352 11.9 15.3547 11.94 15.352C11.948 15.352 11.956 15.3574 11.964 15.368V15.448C11.964 15.4614 11.9614 15.472 11.956 15.48L11.948 15.488L11.92 15.468V15.412L11.892 15.4L11.788 15.396L11.708 15.392C11.6947 15.392 11.6827 15.3867 11.672 15.376C11.6667 15.3654 11.672 15.356 11.688 15.348L11.728 15.34ZM12.18 15.352C12.1854 15.352 12.188 15.356 12.188 15.364L12.196 15.384C12.196 15.3894 12.1934 15.392 12.188 15.392C12.1667 15.4 12.1507 15.4 12.14 15.392C12.14 15.384 12.1427 15.376 12.148 15.368L12.18 15.352Z" fill="#C09300"/>
<path d="M12.0001 13.0881C13.3041 12.0881 13.1921 10.6161 13.1921 10.6161L13.0921 10.6241C12.8161 10.6241 12.1641 10.4641 12.0121 10.2681C11.8521 10.4481 11.1801 10.6281 10.9081 10.6281L10.8081 10.6161C10.8081 10.6161 10.6921 12.0841 12.0001 13.0881Z" fill="white" stroke="#C09300" stroke-width="0.11"/>
<path d="M13.088 10.7201H13.056C12.808 10.7201 12.232 10.5961 12.008 10.4041C11.776 10.5801 11.188 10.7241 10.944 10.7241L10.912 10.7201C10.9142 10.9728 10.9491 11.2243 11.016 11.4681C11.1765 12.0554 11.5214 12.5757 12 12.9521C12.4794 12.5746 12.8244 12.0529 12.984 11.4641C13.0506 11.2216 13.0856 10.9715 13.088 10.7201Z" fill="white" stroke="#C09300" stroke-width="0.09"/>
<path d="M11.576 10.5999C11.3612 10.67 11.1378 10.7104 10.912 10.7199L10.916 10.8839C10.9298 11.0802 10.9633 11.2745 11.016 11.4639C11.1236 11.8573 11.3146 12.223 11.576 12.5359V10.5999ZM12.4 10.5999V12.5679C12.6742 12.2478 12.8737 11.8707 12.984 11.4639C13.0368 11.2745 13.0703 11.0802 13.084 10.8839L13.088 10.7239H13.056C12.904 10.7239 12.64 10.6759 12.4 10.5959V10.5999Z" fill="#C09300"/>
<path d="M12.492 10.12C12.52 10.124 12.456 9.98003 12.456 9.98003C12.528 10.052 12.792 10.072 12.792 10.072C12.632 10 12.472 9.46803 12.492 9.04003C12.508 8.61603 12.432 8.44803 12.372 8.38403C12.292 8.30403 12.032 8.23203 11.864 8.22403C11.764 8.22003 11.784 8.29603 11.784 8.29603C11.604 8.25203 11.424 8.23203 11.344 8.28803C11.272 8.33603 11.256 8.58803 11.312 8.54403C11.444 8.43603 11.56 8.53603 11.64 8.65203C11.712 8.75203 11.708 9.04003 11.604 9.38003C11.512 9.63706 11.3767 9.8765 11.204 10.088C11.364 10.088 11.588 9.94803 11.588 9.94803L11.536 10.168C11.704 10.088 11.836 9.96403 11.836 9.96403L11.996 10.132C12.048 10.06 12.156 9.96403 12.156 9.96403C12.156 9.96403 12.288 10.104 12.492 10.124V10.12Z" fill="white" stroke="#C09300" stroke-width="0.12"/>
<path d="M11.844 9.10398C11.844 9.10398 11.756 9.75998 11.588 9.94398M11.988 9.08398C11.988 9.08398 11.948 9.75198 11.836 9.96398M12.112 9.11198C12.112 9.11198 12.112 9.83998 12.152 9.96398M12.272 9.14798C12.272 9.14798 12.304 9.75998 12.456 9.97998" stroke="#C09300" stroke-width="0.13"/>
<path d="M11.68 8.78409C11.6764 8.7377 11.6628 8.69266 11.64 8.65209C11.56 8.53209 11.444 8.43609 11.312 8.54409C11.312 8.54409 11.356 8.40409 11.456 8.40009C11.528 8.39609 11.7 8.45609 11.852 8.71209C11.852 8.71209 11.74 8.68809 11.712 8.71209C11.664 8.75209 11.684 8.78409 11.684 8.78409H11.68Z" fill="#C09300" stroke="#C09300" stroke-width="0.03"/>
<path d="M11.296 8.37203C11.3067 8.32936 11.324 8.30136 11.348 8.28803C11.428 8.23203 11.604 8.24803 11.784 8.29603C11.784 8.29603 11.768 8.22003 11.864 8.22403C12.032 8.23203 12.288 8.30403 12.368 8.38403C12.3936 8.41221 12.4139 8.44472 12.428 8.48003C12.388 8.42403 12.276 8.42803 12.248 8.43203C12.208 8.43603 12.18 8.43203 12.124 8.44803C12.092 8.45603 12.0614 8.4667 12.032 8.48003C12.016 8.49603 12 8.54403 11.976 8.54403C11.936 8.54403 11.936 8.53603 11.924 8.52403C11.9134 8.49736 11.9014 8.48403 11.888 8.48403C11.8454 8.48936 11.7787 8.45603 11.688 8.38403C11.596 8.31203 11.56 8.29603 11.448 8.30403C11.328 8.31203 11.296 8.38003 11.296 8.38003V8.37203Z" fill="#C09300" stroke="#C09300" stroke-width="0.03"/>
<path d="M11.9521 8.47613C11.9786 8.47613 12.0001 8.45464 12.0001 8.42813C12.0001 8.40162 11.9786 8.38013 11.9521 8.38013C11.9255 8.38013 11.9041 8.40162 11.9041 8.42813C11.9041 8.45464 11.9255 8.47613 11.9521 8.47613Z" fill="white"/>
</g>
</g>
<defs>
<clipPath id="clip0_2214_3343">
<path d="M0 12C0 5.37258 5.37258 0 12 0C18.6274 0 24 5.37258 24 12C24 18.6274 18.6274 24 12 24C5.37258 24 0 18.6274 0 12Z" fill="white"/>
</clipPath>
<clipPath id="clip1_2214_3343">
<rect width="32" height="24" fill="white" transform="translate(-4)"/>
</clipPath>
</defs>
</svg>
