<svg width="24" height="24" viewBox="0 0 24 24" fill="none" xmlns="http://www.w3.org/2000/svg">
<g clip-path="url(#clip0_2214_3623)">
<g clip-path="url(#clip1_2214_3623)">
<path d="M-4 0H28V24H-4V0Z" fill="#FF0000"/>
<path fill-rule="evenodd" clip-rule="evenodd" d="M13.035 7.32986L13.17 4.72986C13.17 4.71653 13.1633 4.7082 13.15 4.70486C13.14 4.70486 13.1317 4.71153 13.125 4.72486L12.46 7.22986L12.455 7.25486C12.4441 7.29547 12.4421 7.33793 12.449 7.37939C12.4559 7.42085 12.4715 7.46036 12.495 7.49528C12.5184 7.53019 12.549 7.5597 12.5847 7.58182C12.6204 7.60395 12.6605 7.61819 12.7022 7.62358C12.7438 7.62897 12.7862 7.62539 12.8264 7.61308C12.8666 7.60077 12.9037 7.58001 12.9352 7.5522C12.9667 7.52439 12.9919 7.49017 13.0091 7.45182C13.0263 7.41348 13.0351 7.37189 13.035 7.32986ZM13.755 7.54986L14.295 4.99986C14.3017 4.98986 14.2967 4.98153 14.28 4.97486C14.27 4.97486 14.2617 4.97986 14.255 4.98986L13.2 7.35986L13.19 7.38486C13.176 7.42282 13.17 7.46325 13.1723 7.50363C13.1746 7.54402 13.1852 7.5835 13.2034 7.61962C13.2216 7.65575 13.247 7.68774 13.2781 7.71361C13.3092 7.73949 13.3453 7.75869 13.3841 7.77003C13.4229 7.78137 13.4637 7.7846 13.5038 7.77953C13.5439 7.77445 13.5826 7.76118 13.6174 7.74053C13.6522 7.71988 13.6823 7.6923 13.706 7.6595C13.7297 7.6267 13.7463 7.58938 13.755 7.54986ZM14.43 7.87986L15.365 5.44986C15.365 5.44522 15.3637 5.44067 15.3613 5.43672C15.3588 5.43277 15.3553 5.42958 15.3512 5.4275C15.347 5.42543 15.3424 5.42455 15.3377 5.42496C15.3331 5.42538 15.3287 5.42708 15.325 5.42986L13.91 7.59986L13.9 7.61986C13.878 7.6552 13.8637 7.69479 13.8581 7.73605C13.8524 7.7773 13.8556 7.81927 13.8674 7.85921C13.8791 7.89915 13.8992 7.93614 13.9263 7.96776C13.9534 7.99938 13.9869 8.02491 14.0245 8.04267C14.0622 8.06043 14.1032 8.07002 14.1448 8.07081C14.1864 8.0716 14.2277 8.06357 14.266 8.04725C14.3043 8.03092 14.3387 8.00668 14.367 7.97611C14.3953 7.94553 14.4167 7.90933 14.43 7.86986M15.045 8.30486L16.345 6.05486C16.3465 6.05018 16.3466 6.04515 16.3452 6.04041C16.3439 6.03567 16.3412 6.03144 16.3375 6.02823C16.3337 6.02503 16.3291 6.023 16.3242 6.0224C16.3193 6.0218 16.3144 6.02266 16.31 6.02486L14.575 7.95486L14.56 7.97486C14.5332 8.00641 14.5133 8.04324 14.5017 8.08297C14.49 8.1227 14.4869 8.16443 14.4924 8.20546C14.498 8.24648 14.5121 8.28588 14.5339 8.32109C14.5556 8.3563 14.5846 8.38653 14.6188 8.40982C14.653 8.43311 14.6918 8.44894 14.7325 8.45627C14.7733 8.4636 14.8151 8.46227 14.8553 8.45237C14.8955 8.44247 14.9332 8.42422 14.9658 8.3988C14.9985 8.37339 15.0255 8.34138 15.045 8.30486ZM15.585 8.82486L17.225 6.80486V6.77486C17.2137 6.77065 17.2013 6.77065 17.19 6.77486L15.175 8.40486L15.155 8.42486C15.1242 8.45215 15.0995 8.48557 15.0824 8.52297C15.0653 8.56038 15.0562 8.60094 15.0557 8.64207C15.0553 8.68319 15.0634 8.72396 15.0796 8.76176C15.0958 8.79956 15.1197 8.83356 15.1498 8.86157C15.1799 8.88958 15.2155 8.91098 15.2544 8.92441C15.2933 8.93784 15.3345 8.94299 15.3755 8.93953C15.4165 8.93607 15.4563 8.92409 15.4924 8.90434C15.5284 8.88459 15.56 8.85752 15.585 8.82486ZM16.035 9.42486L17.97 7.68486C17.98 7.67486 17.98 7.6632 17.97 7.64986H17.94L15.7 8.94986L15.68 8.95986C15.6459 8.98212 15.6167 9.01121 15.5944 9.0453C15.572 9.07938 15.557 9.11773 15.5502 9.15791C15.5435 9.19809 15.5451 9.23924 15.555 9.27877C15.5649 9.31829 15.5829 9.35533 15.6079 9.38755C15.6328 9.41978 15.6642 9.44648 15.6999 9.46598C15.7357 9.48549 15.7752 9.49736 15.8158 9.50087C15.8564 9.50437 15.8972 9.49943 15.9358 9.48635C15.9744 9.47327 16.0099 9.45233 16.04 9.42486M16.39 10.0899L18.575 8.66986C18.5778 8.66615 18.5795 8.66173 18.5799 8.65711C18.5803 8.65248 18.5794 8.64784 18.5773 8.64368C18.5753 8.63953 18.5721 8.63604 18.5681 8.6336C18.5642 8.63116 18.5596 8.62986 18.555 8.62986L16.135 9.55986L16.11 9.57486C16.0715 9.59045 16.0367 9.614 16.0079 9.64397C15.9791 9.67394 15.9569 9.70966 15.9429 9.74879C15.9289 9.78791 15.9233 9.82956 15.9265 9.871C15.9297 9.91244 15.9416 9.95273 15.9614 9.98925C15.9813 10.0258 16.0086 10.0577 16.0417 10.0829C16.0747 10.1081 16.1127 10.126 16.1532 10.1355C16.1936 10.145 16.2356 10.1459 16.2765 10.138C16.3173 10.1301 16.356 10.1137 16.39 10.0899ZM16.64 10.7999L19.015 9.73986C19.0176 9.73649 19.0194 9.73249 19.02 9.72825C19.0207 9.724 19.0202 9.71967 19.0187 9.71565C19.0172 9.71163 19.0147 9.70807 19.0114 9.7053C19.0081 9.70254 19.0042 9.70066 19 9.69986L16.465 10.2399L16.44 10.2449C16.3991 10.2541 16.3607 10.2719 16.3272 10.2971C16.2938 10.3223 16.2661 10.3544 16.246 10.3912C16.2259 10.4279 16.2138 10.4686 16.2107 10.5103C16.2075 10.5521 16.2133 10.5941 16.2276 10.6335C16.2419 10.6728 16.2644 10.7087 16.2937 10.7387C16.323 10.7687 16.3583 10.7921 16.3973 10.8074C16.4363 10.8226 16.4782 10.8294 16.52 10.8273C16.5618 10.8251 16.6027 10.8141 16.64 10.7949M16.765 11.5399L19.285 10.8699C19.295 10.8665 19.3 10.8582 19.3 10.8449C19.2967 10.8315 19.2883 10.8249 19.275 10.8249L16.685 10.9599H16.66C16.6205 10.9652 16.5825 10.9785 16.5483 10.999C16.5142 11.0194 16.4845 11.0466 16.461 11.0788C16.4376 11.111 16.421 11.1476 16.4121 11.1865C16.4032 11.2253 16.4023 11.2655 16.4094 11.3047C16.4165 11.3439 16.4315 11.3813 16.4534 11.4145C16.4753 11.4478 16.5038 11.4763 16.537 11.4982C16.5702 11.5202 16.6075 11.5352 16.6467 11.5424C16.6859 11.5495 16.7261 11.5487 16.765 11.5399ZM16.78 12.2899L19.37 12.0199C19.3833 12.0165 19.39 12.0082 19.39 11.9949C19.39 11.9849 19.3833 11.9765 19.37 11.9699L16.79 11.6999H16.765C16.7262 11.7008 16.6881 11.7095 16.6527 11.7252C16.6173 11.7409 16.5853 11.7635 16.5586 11.7916C16.5319 11.8197 16.511 11.8527 16.4971 11.8889C16.4832 11.9251 16.4765 11.9636 16.4775 12.0024C16.4785 12.0411 16.4871 12.0793 16.5028 12.1147C16.5185 12.1501 16.5411 12.1821 16.5692 12.2088C16.5973 12.2355 16.6304 12.2564 16.6665 12.2703C16.7027 12.2842 16.7412 12.2908 16.78 12.2899ZM16.675 13.0299L19.275 13.1649C19.2795 13.1633 19.2835 13.1606 19.2864 13.1569C19.2894 13.1532 19.2913 13.1487 19.2918 13.144C19.2923 13.1392 19.2915 13.1345 19.2894 13.1302C19.2873 13.1259 19.284 13.1223 19.28 13.1199L16.775 12.4549L16.75 12.4499C16.7094 12.439 16.6669 12.437 16.6255 12.4439C16.584 12.4508 16.5445 12.4664 16.5096 12.4898C16.4747 12.5132 16.4452 12.5438 16.423 12.5796C16.4009 12.6153 16.3867 12.6554 16.3813 12.697C16.3759 12.7387 16.3795 12.7811 16.3918 12.8213C16.4041 12.8615 16.4248 12.8985 16.4526 12.9301C16.4805 12.9616 16.5147 12.9868 16.553 13.004C16.5914 13.0212 16.633 13.03 16.675 13.0299ZM16.455 13.7499L19.005 14.2899C19.015 14.2965 19.0233 14.2915 19.03 14.2749C19.03 14.2649 19.025 14.2565 19.015 14.2499L16.64 13.1999L16.615 13.1899C16.577 13.1759 16.5366 13.1698 16.4962 13.1721C16.4558 13.1744 16.4164 13.185 16.3802 13.2032C16.3441 13.2214 16.3121 13.2469 16.2862 13.278C16.2604 13.3091 16.2412 13.3451 16.2298 13.384C16.2185 13.4228 16.2152 13.4635 16.2203 13.5037C16.2254 13.5438 16.2387 13.5825 16.2593 13.6173C16.28 13.652 16.3075 13.6822 16.3403 13.7059C16.3731 13.7296 16.4105 13.7462 16.45 13.7549M16.12 14.4299L18.55 15.3649C18.5546 15.3649 18.5592 15.3636 18.5631 15.3611C18.5671 15.3587 18.5703 15.3552 18.5723 15.351C18.5744 15.3469 18.5753 15.3422 18.5749 15.3376C18.5745 15.333 18.5728 15.3286 18.57 15.3249L16.4 13.9099L16.38 13.8999C16.3447 13.8778 16.3051 13.8636 16.2638 13.8579C16.2226 13.8523 16.1806 13.8555 16.1406 13.8673C16.1007 13.879 16.0637 13.8991 16.0321 13.9262C16.0005 13.9533 15.9749 13.9867 15.9572 14.0244C15.9394 14.062 15.9298 14.103 15.929 14.1447C15.9282 14.1863 15.9363 14.2276 15.9526 14.2659C15.9689 14.3042 15.9932 14.3386 16.0237 14.3669C16.0543 14.3951 16.0905 14.4166 16.13 14.4299M15.695 15.0449L17.945 16.3449C17.9497 16.3464 17.9547 16.3465 17.9594 16.3451C17.9642 16.3438 17.9684 16.3411 17.9716 16.3373C17.9748 16.3336 17.9768 16.329 17.9774 16.3241C17.978 16.3192 17.9772 16.3143 17.975 16.3099L16.045 14.5749L16.025 14.5599C15.9934 14.5331 15.9566 14.5132 15.9169 14.5015C15.8772 14.4899 15.8354 14.4867 15.7944 14.4923C15.7534 14.4978 15.714 14.512 15.6788 14.5337C15.6435 14.5555 15.6133 14.5845 15.59 14.6187C15.5667 14.6529 15.5509 14.6917 15.5436 14.7324C15.5363 14.7731 15.5376 14.815 15.5475 14.8552C15.5574 14.8954 15.5756 14.933 15.601 14.9657C15.6265 14.9984 15.6585 15.0254 15.695 15.0449ZM15.175 15.5849L17.195 17.2249C17.1998 17.2285 17.2058 17.2302 17.2118 17.2298C17.2178 17.2294 17.2234 17.2268 17.2277 17.2225C17.2319 17.2183 17.2345 17.2126 17.2349 17.2066C17.2353 17.2006 17.2336 17.1947 17.23 17.1899L15.595 15.1749L15.575 15.1549C15.5477 15.1241 15.5143 15.0994 15.4769 15.0823C15.4395 15.0652 15.3989 15.0561 15.3578 15.0556C15.3167 15.0551 15.2759 15.0632 15.2381 15.0794C15.2003 15.0956 15.1663 15.1196 15.1383 15.1497C15.1103 15.1798 15.0889 15.2154 15.0754 15.2543C15.062 15.2932 15.0569 15.3344 15.0603 15.3754C15.0638 15.4164 15.0758 15.4562 15.0955 15.4922C15.1153 15.5283 15.1423 15.5599 15.175 15.5849ZM14.575 16.0349L16.315 17.9699C16.319 17.9752 16.3249 17.9787 16.3315 17.9796C16.338 17.9805 16.3447 17.9788 16.35 17.9749C16.3553 17.9709 16.3588 17.965 16.3597 17.9584C16.3607 17.9518 16.359 17.9452 16.355 17.9399L15.05 15.6999L15.035 15.6799C15.0127 15.6457 14.9836 15.6166 14.9496 15.5942C14.9155 15.5719 14.8771 15.5569 14.8369 15.5501C14.7968 15.5433 14.7556 15.545 14.7161 15.5549C14.6766 15.5648 14.6395 15.5828 14.6073 15.6077C14.5751 15.6327 14.5484 15.664 14.5289 15.6998C14.5094 15.7356 14.4975 15.775 14.494 15.8156C14.4905 15.8562 14.4954 15.8971 14.5085 15.9357C14.5216 15.9743 14.5425 16.0098 14.57 16.0399M13.905 16.3899L15.325 18.5749C15.3317 18.5849 15.3417 18.5882 15.355 18.5849C15.365 18.5782 15.3683 18.5682 15.365 18.5549L14.435 16.1349L14.42 16.1099C14.4044 16.0713 14.3809 16.0365 14.3509 16.0077C14.3209 15.9789 14.2852 15.9568 14.2461 15.9428C14.2069 15.9288 14.1653 15.9232 14.1239 15.9263C14.0824 15.9295 14.0421 15.9415 14.0056 15.9613C13.9691 15.9812 13.9372 16.0085 13.912 16.0415C13.8868 16.0746 13.8688 16.1126 13.8593 16.1531C13.8498 16.1935 13.849 16.2355 13.8568 16.2763C13.8647 16.3171 13.8811 16.3558 13.905 16.3899ZM13.195 16.6399L14.255 19.0149C14.2583 19.0315 14.2667 19.0365 14.28 19.0299C14.2933 19.0299 14.2983 19.0199 14.295 18.9999L13.755 16.4649L13.75 16.4399C13.7408 16.399 13.723 16.3605 13.6977 16.3271C13.6725 16.2936 13.6405 16.2659 13.6037 16.2458C13.5669 16.2257 13.5263 16.2137 13.4845 16.2105C13.4427 16.2074 13.4008 16.2131 13.3614 16.2275C13.322 16.2418 13.2861 16.2643 13.2561 16.2936C13.2262 16.3229 13.2028 16.3582 13.1875 16.3972C13.1722 16.4362 13.1654 16.478 13.1676 16.5199C13.1697 16.5617 13.1808 16.6026 13.2 16.6399M12.455 16.7649L13.125 19.2849C13.1283 19.2949 13.1367 19.2999 13.15 19.2999C13.1633 19.2965 13.17 19.2882 13.17 19.2749L13.035 16.6849V16.6599C13.0296 16.6204 13.0163 16.5824 12.9959 16.5482C12.9754 16.514 12.9483 16.4843 12.9161 16.4609C12.8838 16.4375 12.8472 16.4209 12.8084 16.412C12.7695 16.4031 12.7293 16.4022 12.6901 16.4093C12.6509 16.4164 12.6136 16.4314 12.5803 16.4533C12.5471 16.4752 12.5186 16.5036 12.4966 16.5369C12.4746 16.5701 12.4596 16.6074 12.4525 16.6466C12.4453 16.6858 12.4462 16.726 12.455 16.7649ZM11.705 16.7799L11.975 19.3699C11.975 19.3765 11.9776 19.3829 11.9823 19.3875C11.987 19.3922 11.9934 19.3949 12 19.3949C12.0066 19.3949 12.013 19.3922 12.0177 19.3875C12.0224 19.3829 12.025 19.3765 12.025 19.3699L12.295 16.7899C12.2977 16.7492 12.2921 16.7085 12.2786 16.6701C12.265 16.6317 12.2438 16.5964 12.2162 16.5665C12.1886 16.5366 12.1552 16.5125 12.118 16.4959C12.0809 16.4793 12.0407 16.4705 12 16.4699C11.9602 16.4705 11.9209 16.4791 11.8844 16.4951C11.8479 16.5111 11.815 16.5342 11.7875 16.563C11.76 16.5919 11.7386 16.6259 11.7244 16.6631C11.7103 16.7004 11.7037 16.7401 11.705 16.7799ZM10.965 16.6749L10.83 19.2749C10.8315 19.2794 10.8343 19.2833 10.838 19.2863C10.8417 19.2893 10.8462 19.2911 10.8509 19.2917C10.8556 19.2922 10.8604 19.2914 10.8647 19.2893C10.8689 19.2872 10.8725 19.2839 10.875 19.2799L11.54 16.7749L11.545 16.7499C11.5558 16.7093 11.5579 16.6668 11.551 16.6253C11.5441 16.5839 11.5284 16.5444 11.505 16.5095C11.4816 16.4745 11.451 16.445 11.4153 16.4229C11.3795 16.4008 11.3395 16.3865 11.2978 16.3812C11.2561 16.3758 11.2138 16.3793 11.1736 16.3917C11.1334 16.404 11.0963 16.4247 11.0648 16.4525C11.0333 16.4803 11.0081 16.5146 10.9909 16.5529C10.9736 16.5913 10.9648 16.6328 10.965 16.6749ZM10.245 16.4549L9.70499 19.0049C9.7064 19.0087 9.70872 19.0121 9.71175 19.0148C9.71477 19.0175 9.71841 19.0194 9.72235 19.0204C9.72629 19.0214 9.73041 19.0214 9.73435 19.0204C9.7383 19.0195 9.74195 19.0176 9.74499 19.0149L10.8 16.6449L10.81 16.6199C10.824 16.5819 10.83 16.5415 10.8277 16.5011C10.8254 16.4607 10.8148 16.4212 10.7966 16.3851C10.7784 16.349 10.753 16.317 10.7219 16.2911C10.6908 16.2652 10.6547 16.246 10.6159 16.2347C10.577 16.2234 10.5363 16.2201 10.4962 16.2252C10.456 16.2303 10.4174 16.2435 10.3826 16.2642C10.3478 16.2848 10.3176 16.3124 10.294 16.3452C10.2703 16.378 10.2536 16.4153 10.245 16.4549ZM9.56999 16.1249L8.63499 18.5499C8.63165 18.5632 8.63499 18.5732 8.64499 18.5799C8.65499 18.5865 8.66499 18.5832 8.67499 18.5699L10.09 16.3949C10.1103 16.3602 10.1234 16.3218 10.1286 16.282C10.1339 16.2422 10.131 16.2017 10.1203 16.163C10.1096 16.1243 10.0912 16.0882 10.0662 16.0567C10.0413 16.0252 10.0102 15.9991 9.97499 15.9799C9.90336 15.9455 9.82103 15.9409 9.74604 15.9672C9.67105 15.9934 9.60953 16.0483 9.57499 16.1199M8.95499 15.6899L7.65499 17.9399C7.65348 17.9445 7.65339 17.9496 7.65473 17.9543C7.65607 17.9591 7.65878 17.9633 7.66252 17.9665C7.66625 17.9697 7.67086 17.9717 7.67574 17.9723C7.68063 17.9729 7.68558 17.9721 7.68999 17.9699L9.42499 16.0399L9.43998 16.0199C9.4668 15.9883 9.48667 15.9515 9.49831 15.9118C9.50996 15.872 9.51311 15.8303 9.50756 15.7893C9.50201 15.7482 9.48789 15.7088 9.46611 15.6736C9.44434 15.6384 9.4154 15.6082 9.38117 15.5849C9.34694 15.5616 9.3082 15.5458 9.26745 15.5385C9.22671 15.5311 9.18487 15.5325 9.14468 15.5424C9.10448 15.5523 9.06681 15.5705 9.03413 15.5959C9.00145 15.6213 8.97448 15.6533 8.95499 15.6899ZM8.41499 15.1699L6.77499 17.1899V17.2199C6.78832 17.2299 6.79999 17.2299 6.80999 17.2199L8.82499 15.5899L8.84499 15.5699C8.87575 15.5426 8.90048 15.5092 8.91757 15.4718C8.93466 15.4343 8.94374 15.3938 8.94423 15.3527C8.94472 15.3115 8.9366 15.2708 8.92041 15.233C8.90421 15.1952 8.88029 15.1612 8.85018 15.1332C8.82007 15.1051 8.78443 15.0837 8.74556 15.0703C8.70669 15.0569 8.66544 15.0517 8.62446 15.0552C8.58348 15.0587 8.54367 15.0706 8.5076 15.0904C8.47153 15.1101 8.43998 15.1372 8.41499 15.1699ZM7.96499 14.5699L6.02999 16.3099C6.02468 16.3138 6.02117 16.3198 6.02024 16.3263C6.0193 16.3329 6.02101 16.3396 6.02499 16.3449C6.02896 16.3502 6.03489 16.3537 6.04145 16.3546C6.04801 16.3555 6.05468 16.3538 6.05999 16.3499L8.30499 15.0499L8.32499 15.0349C8.35912 15.0126 8.38827 14.9835 8.4106 14.9494C8.43293 14.9153 8.44796 14.877 8.45474 14.8368C8.46151 14.7966 8.45989 14.7555 8.44997 14.716C8.44005 14.6764 8.42205 14.6394 8.39711 14.6072C8.37216 14.575 8.34081 14.5482 8.30503 14.5287C8.26925 14.5092 8.22982 14.4974 8.18922 14.4939C8.14862 14.4904 8.10774 14.4953 8.06914 14.5084C8.03055 14.5215 7.99509 14.5424 7.96499 14.5699ZM7.61499 13.9049L5.42999 15.3249C5.4272 15.3286 5.4255 15.333 5.42509 15.3376C5.42467 15.3422 5.42555 15.3469 5.42762 15.351C5.4297 15.3552 5.43289 15.3587 5.43684 15.3611C5.44079 15.3636 5.44534 15.3649 5.44999 15.3649L7.86999 14.4349L7.89499 14.4199C7.93352 14.4043 7.96832 14.3807 7.99711 14.3508C8.0259 14.3208 8.04804 14.2851 8.06207 14.2459C8.07609 14.2068 8.08169 14.1652 8.0785 14.1237C8.07531 14.0823 8.0634 14.042 8.04354 14.0055C8.02369 13.969 7.99635 13.9371 7.9633 13.9118C7.93026 13.8866 7.89226 13.8687 7.8518 13.8592C7.81133 13.8497 7.76932 13.8489 7.72851 13.8567C7.6877 13.8646 7.64901 13.881 7.61499 13.9049ZM7.36499 13.1949L4.98999 14.2549C4.97332 14.2582 4.96832 14.2665 4.97499 14.2799C4.97499 14.2932 4.98499 14.2982 5.00499 14.2949L7.53999 13.7549L7.56499 13.7499C7.60586 13.7407 7.6443 13.7228 7.67776 13.6976C7.71121 13.6724 7.73891 13.6403 7.75901 13.6036C7.7791 13.5668 7.79113 13.5262 7.7943 13.4844C7.79747 13.4426 7.79171 13.4006 7.77739 13.3613C7.76307 13.3219 7.74053 13.286 7.71126 13.256C7.682 13.226 7.64668 13.2026 7.60766 13.1874C7.56864 13.1721 7.52682 13.1653 7.48498 13.1675C7.44313 13.1696 7.40223 13.1807 7.36499 13.1999M7.23999 12.4549L4.71999 13.1249C4.71335 13.1262 4.70752 13.1301 4.70377 13.1357C4.70002 13.1413 4.69866 13.1482 4.69999 13.1549C4.70131 13.1615 4.70522 13.1673 4.71084 13.1711C4.71647 13.1748 4.72336 13.1762 4.72999 13.1749L7.31999 13.0349H7.34499C7.38446 13.0295 7.42243 13.0162 7.45662 12.9958C7.49081 12.9753 7.52051 12.9482 7.54393 12.9159C7.56734 12.8837 7.58399 12.8471 7.59286 12.8083C7.60173 12.7694 7.60265 12.7292 7.59555 12.69C7.58845 12.6508 7.57349 12.6134 7.55157 12.5802C7.52965 12.5469 7.50121 12.5185 7.46799 12.4965C7.43476 12.4745 7.39743 12.4595 7.35825 12.4523C7.31906 12.4452 7.27883 12.446 7.23999 12.4549ZM7.22499 11.7049L4.63499 11.9749C4.62835 11.9749 4.622 11.9775 4.61731 11.9822C4.61262 11.9869 4.60999 11.9932 4.60999 11.9999C4.60999 12.0065 4.61262 12.0129 4.61731 12.0175C4.622 12.0222 4.62835 12.0249 4.63499 12.0249L7.21499 12.2949H7.23999C7.31822 12.2929 7.39247 12.2599 7.44639 12.2032C7.5003 12.1464 7.52947 12.0706 7.52749 11.9924C7.5255 11.9141 7.49251 11.8399 7.43578 11.786C7.37905 11.732 7.30322 11.7029 7.22499 11.7049ZM7.32999 10.9649L4.72999 10.8299C4.72549 10.8314 4.72152 10.8342 4.71854 10.8379C4.71556 10.8416 4.7137 10.8461 4.71318 10.8508C4.71266 10.8555 4.71349 10.8603 4.71558 10.8645C4.71767 10.8688 4.72093 10.8724 4.72499 10.8749L7.22999 11.5399L7.25499 11.5449C7.29559 11.5557 7.33805 11.5578 7.37951 11.5509C7.42097 11.544 7.46048 11.5283 7.4954 11.5049C7.53031 11.4815 7.55982 11.4509 7.58195 11.4152C7.60407 11.3794 7.61831 11.3394 7.6237 11.2977C7.62909 11.256 7.62551 11.2137 7.6132 11.1735C7.60089 11.1333 7.58014 11.0962 7.55232 11.0647C7.52451 11.0332 7.49029 11.0079 7.45194 10.9907C7.4136 10.9735 7.37202 10.9647 7.32999 10.9649ZM7.54999 10.2449L4.99999 9.70486C4.98999 9.6982 4.98165 9.7032 4.97499 9.71986C4.97499 9.72986 4.97999 9.7382 4.98999 9.74486L7.35999 10.7999L7.38499 10.8099C7.42294 10.8238 7.46337 10.8299 7.50375 10.8276C7.54414 10.8253 7.58362 10.8147 7.61974 10.7965C7.65587 10.7783 7.68786 10.7529 7.71374 10.7218C7.73961 10.6907 7.75881 10.6546 7.77015 10.6158C7.78149 10.5769 7.78473 10.5362 7.77965 10.496C7.77458 10.4559 7.7613 10.4173 7.74065 10.3825C7.72 10.3477 7.69242 10.3175 7.65962 10.2938C7.62682 10.2702 7.5895 10.2535 7.54999 10.2449ZM7.87999 9.56986L5.44999 8.63486C5.44534 8.63486 5.44079 8.63616 5.43684 8.6386C5.43289 8.64104 5.4297 8.64453 5.42762 8.64868C5.42555 8.65284 5.42467 8.65748 5.42509 8.66211C5.4255 8.66673 5.4272 8.67115 5.42999 8.67486L7.60499 10.0899L7.62499 10.0999C7.66032 10.1219 7.69992 10.1362 7.74117 10.1418C7.78242 10.1474 7.82439 10.1442 7.86433 10.1325C7.90427 10.1207 7.94126 10.1006 7.97288 10.0735C8.0045 10.0465 8.03003 10.013 8.0478 9.97534C8.06556 9.93769 8.07515 9.8967 8.07593 9.85507C8.07672 9.81345 8.06869 9.77213 8.05237 9.73383C8.03605 9.69553 8.0118 9.66112 7.98123 9.63286C7.95066 9.6046 7.91445 9.58313 7.87499 9.56986M8.30999 8.95486L6.05999 7.65486C6.0487 7.65065 6.03627 7.65065 6.02499 7.65486C6.02165 7.66486 6.02332 7.67653 6.02999 7.68986L7.95999 9.42486L7.97999 9.43986C8.01153 9.46668 8.04836 9.48655 8.08809 9.49819C8.12782 9.50983 8.16955 9.51298 8.21058 9.50744C8.2516 9.50189 8.291 9.48777 8.32621 9.46599C8.36142 9.44422 8.39166 9.41527 8.41495 9.38105C8.43823 9.34682 8.45406 9.30807 8.46139 9.26733C8.46872 9.22658 8.46739 9.18475 8.45749 9.14455C8.44759 9.10435 8.42934 9.06669 8.40393 9.03401C8.37851 9.00133 8.34651 8.97436 8.30999 8.95486ZM8.82999 8.41486L6.80999 6.77486H6.77999C6.76999 6.78486 6.76999 6.79653 6.77999 6.80986L8.40999 8.82486L8.42999 8.84486C8.45727 8.87563 8.49069 8.90036 8.5281 8.91745C8.5655 8.93454 8.60607 8.94362 8.64719 8.94411C8.68831 8.9446 8.72908 8.93648 8.76688 8.92028C8.80468 8.90409 8.83868 8.88016 8.86669 8.85005C8.8947 8.81994 8.91611 8.78431 8.92953 8.74544C8.94296 8.70656 8.94811 8.66532 8.94465 8.62434C8.9412 8.58336 8.92921 8.54355 8.90946 8.50748C8.88971 8.4714 8.86264 8.43986 8.82999 8.41486ZM9.42999 7.96486L7.68999 6.02986C7.68558 6.02766 7.68063 6.0268 7.67574 6.0274C7.67086 6.028 7.66625 6.03003 7.66252 6.03323C7.65878 6.03644 7.65607 6.04067 7.65473 6.04541C7.65339 6.05015 7.65348 6.05518 7.65499 6.05986L8.95499 8.30486L8.96498 8.32486C8.98724 8.359 9.01633 8.38815 9.05042 8.41048C9.08451 8.43281 9.12285 8.44784 9.16303 8.45461C9.20321 8.46139 9.24436 8.45977 9.28389 8.44985C9.32341 8.43993 9.36045 8.42193 9.39268 8.39698C9.4249 8.37204 9.4516 8.34069 9.47111 8.30491C9.49061 8.26913 9.50249 8.2297 9.50599 8.1891C9.5095 8.1485 9.50455 8.10761 9.49147 8.06902C9.47839 8.03043 9.45746 7.99496 9.42999 7.96486ZM10.095 7.61486L8.67499 5.42986C8.67127 5.42708 8.66685 5.42538 8.66223 5.42496C8.65761 5.42455 8.65296 5.42543 8.64881 5.4275C8.64465 5.42958 8.64116 5.43277 8.63872 5.43672C8.63628 5.44067 8.63499 5.44522 8.63499 5.44986L9.56498 7.86986L9.57999 7.89486C9.59557 7.93339 9.61912 7.9682 9.64909 7.99699C9.67907 8.02578 9.71478 8.04792 9.75391 8.06194C9.79303 8.07597 9.83468 8.08157 9.87612 8.07838C9.91756 8.07519 9.95786 8.06327 9.99437 8.04342C10.0309 8.02357 10.0628 7.99622 10.088 7.96318C10.1132 7.93013 10.1312 7.89214 10.1407 7.85167C10.1502 7.81121 10.151 7.7692 10.1431 7.72839C10.1353 7.68758 10.1188 7.64889 10.095 7.61486ZM10.805 7.36486L9.74499 4.98986C9.74161 4.98721 9.73761 4.98548 9.73337 4.98482C9.72913 4.98416 9.72479 4.98461 9.72077 4.98612C9.71675 4.98763 9.71319 4.99014 9.71042 4.99342C9.70766 4.99671 9.70579 5.00065 9.70499 5.00486L10.245 7.53986L10.25 7.56486C10.2592 7.60574 10.277 7.64418 10.3022 7.67764C10.3275 7.71109 10.3595 7.73879 10.3963 7.75888C10.4331 7.77898 10.4737 7.79101 10.5155 7.79418C10.5572 7.79735 10.5992 7.79159 10.6386 7.77727C10.678 7.76295 10.7138 7.74041 10.7438 7.71114C10.7738 7.68187 10.7972 7.64656 10.8125 7.60754C10.8278 7.56852 10.8345 7.5267 10.8324 7.48485C10.8302 7.44301 10.8192 7.40211 10.8 7.36486M11.545 7.23986L10.875 4.71986C10.8717 4.70986 10.8633 4.70486 10.85 4.70486C10.8367 4.7082 10.83 4.71653 10.83 4.72986L10.965 7.31986V7.34486C10.9703 7.38433 10.9836 7.42231 11.0041 7.4565C11.0245 7.49069 11.0517 7.52039 11.0839 7.5438C11.1161 7.56722 11.1528 7.58386 11.1916 7.59274C11.2304 7.60161 11.2707 7.60252 11.3099 7.59543C11.349 7.58833 11.3864 7.57337 11.4197 7.55145C11.4529 7.52952 11.4814 7.50109 11.5034 7.46787C11.5253 7.43464 11.5403 7.39731 11.5475 7.35812C11.5547 7.31894 11.5538 7.27871 11.545 7.23986ZM12.295 7.22486L12.025 4.63486C12.025 4.62823 12.0224 4.62187 12.0177 4.61719C12.013 4.6125 12.0066 4.60986 12 4.60986C11.9934 4.60986 11.987 4.6125 11.9823 4.61719C11.9776 4.62187 11.975 4.62823 11.975 4.63486L11.705 7.21486V7.23986C11.706 7.2786 11.7146 7.31677 11.7303 7.35218C11.746 7.3876 11.7686 7.41957 11.7967 7.44626C11.8248 7.47296 11.8579 7.49386 11.894 7.50778C11.9302 7.52169 11.9687 7.52835 12.0075 7.52736C12.0462 7.52638 12.0844 7.51777 12.1198 7.50204C12.1552 7.4863 12.1872 7.46375 12.2139 7.43566C12.2406 7.40757 12.2615 7.37449 12.2754 7.33833C12.2893 7.30216 12.296 7.2636 12.295 7.22486ZM12 7.53986C13.1829 7.53986 14.3173 8.00975 15.1537 8.84617C15.9901 9.68258 16.46 10.817 16.46 11.9999C16.46 13.1827 15.9901 14.3171 15.1537 15.1536C14.3173 15.99 13.1829 16.4599 12 16.4599C10.8171 16.4599 9.6827 15.99 8.84629 15.1536C8.00988 14.3171 7.53999 13.1827 7.53999 11.9999C7.53999 10.817 8.00988 9.68258 8.84629 8.84617C9.6827 8.00975 10.8171 7.53986 12 7.53986ZM12 8.07486C12.5154 8.07486 13.0258 8.17639 13.502 8.37364C13.9782 8.57089 14.4109 8.86 14.7754 9.22447C15.1398 9.58894 15.429 10.0216 15.6262 10.4978C15.8235 10.974 15.925 11.4844 15.925 11.9999C15.925 12.5153 15.8235 13.0257 15.6262 13.5019C15.429 13.9781 15.1398 14.4108 14.7754 14.7753C14.4109 15.1397 13.9782 15.4288 13.502 15.6261C13.0258 15.8233 12.5154 15.9249 12 15.9249C10.959 15.9249 9.96067 15.5113 9.22459 14.7753C8.48851 14.0392 8.07499 13.0408 8.07499 11.9999C8.07499 10.9589 8.48851 9.96055 9.22459 9.22447C9.96067 8.48839 10.959 8.07486 12 8.07486ZM8.71999 13.1749C9.11999 12.3399 9.67999 11.5949 10.32 10.9749L10.62 11.1749C9.90144 11.8645 9.32254 12.6861 8.91499 13.5949C8.84098 13.4609 8.77584 13.3223 8.71999 13.1799M12.275 11.1499C12.3683 11.2265 12.4583 11.3065 12.545 11.3899L12.835 11.1649L12.565 10.9299L12.275 11.1499ZM11.705 10.7149L12 10.9299L12.295 10.7149L12 10.4999L11.705 10.7149ZM11.735 11.6299L12 11.8799L12.265 11.6299L12 11.3799L11.735 11.6299ZM11.165 11.1649C11.265 11.2382 11.3617 11.3132 11.455 11.3899L11.725 11.1499L11.435 10.9299C11.345 11.0032 11.255 11.0815 11.165 11.1649ZM12.925 10.3199C12.825 10.2432 12.725 10.1715 12.625 10.1049L12.29 10.3049L12.59 10.5199L12.925 10.3199ZM13.445 10.7499L13.18 10.5199L12.86 10.7199L13.135 10.9499C13.235 10.8832 13.3383 10.8165 13.445 10.7499ZM11.645 9.91986C11.7617 9.8432 11.88 9.77153 12 9.70486L12.35 9.91986L12 10.1199L11.645 9.91986ZM11.07 10.3199C11.17 10.2432 11.27 10.1715 11.37 10.1049L11.705 10.3049L11.405 10.5199L11.07 10.3199ZM10.55 10.7499L10.815 10.5199L11.135 10.7199L10.86 10.9499C10.76 10.8832 10.6567 10.8165 10.55 10.7499ZM8.91499 10.2399C9.2863 10.3889 9.64568 10.5661 9.98998 10.7699C9.41969 11.3157 8.93731 11.9465 8.55999 12.6399C8.39128 11.8236 8.51518 10.974 8.90999 10.2399M9.20999 9.77986C9.64332 9.91986 10.07 10.1032 10.49 10.3299L10.225 10.5599C9.83832 10.3465 9.44499 10.1665 9.04499 10.0199C9.09832 9.9332 9.15332 9.8532 9.20999 9.77986ZM9.58499 9.36486C10.0717 9.4982 10.5583 9.68653 11.045 9.92986L10.745 10.1399C10.295 9.91653 9.83999 9.72986 9.37999 9.57986L9.58499 9.36486ZM10.135 8.94486L10.165 8.95486L10.205 8.96486C10.6983 9.0982 11.1933 9.28986 11.69 9.53986L11.32 9.75486C10.8344 9.51827 10.3291 9.32421 9.80999 9.17486C9.90999 9.09153 10.0167 9.01486 10.13 8.94486M13.56 8.77486L13.52 8.78986C13.0067 8.93986 12.4983 9.13653 11.995 9.37986C11.5017 9.13986 11.0017 8.94486 10.495 8.79486L10.47 8.78986C10.4533 8.78986 10.44 8.78486 10.43 8.77486C10.9159 8.53195 11.4517 8.40548 11.995 8.40548C12.5382 8.40548 13.0741 8.53195 13.56 8.77486ZM14.185 9.17486L14.15 9.18486C13.65 9.33153 13.1567 9.52153 12.67 9.75486C12.55 9.6782 12.4267 9.60653 12.3 9.53986C12.7969 9.28176 13.3221 9.08209 13.865 8.94486C13.9783 9.0182 14.085 9.09486 14.185 9.17486ZM14.61 9.57486C14.15 9.72486 13.6967 9.9132 13.25 10.1399L12.95 9.92986C13.4333 9.6832 13.9167 9.49486 14.4 9.36486L14.61 9.57486ZM14.945 10.0149C14.545 10.1615 14.1517 10.3415 13.765 10.5549C13.6783 10.4782 13.59 10.4032 13.5 10.3299C13.92 10.0965 14.3467 9.9132 14.78 9.77986C14.84 9.84986 14.895 9.9282 14.945 10.0149ZM15.43 12.6349C15.0527 11.9415 14.5703 11.3107 14 10.7649C14.3443 10.5611 14.7037 10.3839 15.075 10.2349C15.4757 10.967 15.6016 11.8181 15.43 12.6349ZM15.08 13.5899C14.6734 12.6833 14.0962 11.8635 13.38 11.1749C13.48 11.1015 13.58 11.0332 13.68 10.9699C14.32 11.5899 14.87 12.3349 15.275 13.1699C15.2193 13.314 15.1542 13.4543 15.08 13.5899ZM14.535 14.3399C14.105 13.2399 13.505 12.3449 12.8 11.6299L13.08 11.3949C13.81 12.1149 14.43 12.9949 14.83 13.9899C14.7393 14.1128 14.6407 14.2297 14.535 14.3399ZM13.87 14.8849L13.825 14.7599C13.44 13.7099 12.895 12.8499 12.255 12.1449L12.52 11.8799C13.2786 12.663 13.8585 13.6012 14.22 14.6299C14.1085 14.7202 13.9916 14.8037 13.87 14.8799M10.475 15.0799L10.52 14.9399C10.845 13.9899 11.36 13.1399 11.995 12.4249C12.63 13.1449 13.145 13.9899 13.47 14.9399L13.52 15.0799C13.0452 15.3092 12.5248 15.4284 11.9975 15.4284C11.4702 15.4284 10.9498 15.3092 10.475 15.0799ZM9.76999 14.6299C10.1314 13.6012 10.7114 12.663 11.47 11.8799L11.735 12.1449C11.0468 12.9063 10.5135 13.7945 10.165 14.7599L10.115 14.8849C9.9933 14.8088 9.87642 14.7253 9.76499 14.6349M9.16499 13.9849C9.56498 12.9899 10.18 12.1149 10.91 11.3949L11.19 11.6299C10.4307 12.4037 9.83998 13.3264 9.45499 14.3399C9.35165 14.2265 9.25332 14.1099 9.15999 13.9899" fill="#FFFF00"/>
</g>
</g>
<defs>
<clipPath id="clip0_2214_3623">
<path d="M0 12C0 5.37258 5.37258 0 12 0C18.6274 0 24 5.37258 24 12C24 18.6274 18.6274 24 12 24C5.37258 24 0 18.6274 0 12Z" fill="white"/>
</clipPath>
<clipPath id="clip1_2214_3623">
<rect width="32" height="24" fill="white" transform="translate(-4)"/>
</clipPath>
</defs>
</svg>
