<svg width="24" height="24" viewBox="0 0 24 24" fill="none" xmlns="http://www.w3.org/2000/svg">
<g clip-path="url(#clip0_2214_3436)">
<g clip-path="url(#clip1_2214_3436)">
<path d="M-4 0H28V24H-4V0Z" fill="#CE1126"/>
<path d="M-0.640015 3.35986H24.64V20.6399H-0.640015V3.35986Z" fill="#007A5E"/>
<path d="M-0.640015 3.36499H24.64L-0.640015 20.645H24.64L-0.640015 3.36499Z" fill="#FCD116"/>
<path d="M11.995 14.885C13.5856 14.885 14.875 13.5956 14.875 12.005C14.875 10.4144 13.5856 9.125 11.995 9.125C10.4044 9.125 9.11499 10.4144 9.11499 12.005C9.11499 13.5956 10.4044 14.885 11.995 14.885Z" fill="#CE1126"/>
<path d="M11.9998 9.35986L11.184 11.8707L12.4394 12.2786" fill="#FCD116"/>
<path d="M11.9998 9.35986L12.8156 11.8707L11.5602 12.2786" fill="#FCD116"/>
<path d="M14.5108 11.1841H11.8708V12.5041" fill="#FCD116"/>
<path d="M14.5108 11.1841L12.375 12.7358L11.5991 11.6679" fill="#FCD116"/>
<path d="M13.5517 14.1357L12.7359 11.625L11.4805 12.0329" fill="#FCD116"/>
<path d="M13.5517 14.1357L11.4159 12.584L12.1918 11.5161" fill="#FCD116"/>
<path d="M10.4482 14.1357L12.584 12.584L11.8081 11.5161" fill="#FCD116"/>
<path d="M10.4482 14.1357L11.264 11.625L12.5194 12.0329" fill="#FCD116"/>
<path d="M9.48907 11.1841L11.6249 12.7358L12.4008 11.6679" fill="#FCD116"/>
<path d="M9.48907 11.1841H12.1291V12.5041" fill="#FCD116"/>
<path d="M5.48499 0.120117L5.00292 1.60377L5.74474 1.8448" fill="#FCD116"/>
<path d="M5.48499 0.120117L5.96705 1.60377L5.22523 1.8448" fill="#FCD116"/>
<path d="M6.96863 1.198H5.40863V1.978" fill="#FCD116"/>
<path d="M6.96863 1.198L5.70656 2.11494L5.24809 1.48391" fill="#FCD116"/>
<path d="M6.40198 2.94214L5.91991 1.45849L5.17809 1.69952" fill="#FCD116"/>
<path d="M6.40198 2.94214L5.13991 2.02519L5.59838 1.39416" fill="#FCD116"/>
<path d="M4.56805 2.94214L5.83012 2.02519L5.37165 1.39416" fill="#FCD116"/>
<path d="M4.56805 2.94214L5.05012 1.45849L5.79194 1.69952" fill="#FCD116"/>
<path d="M4.00134 1.198L5.26341 2.11494L5.72188 1.48391" fill="#FCD116"/>
<path d="M4.00134 1.198H5.56134V1.978" fill="#FCD116"/>
<path d="M12 0.120117L11.5179 1.60377L12.2598 1.8448" fill="#FCD116"/>
<path d="M12 0.120117L12.4821 1.60377L11.7402 1.8448" fill="#FCD116"/>
<path d="M13.4836 1.198H11.9236V1.978" fill="#FCD116"/>
<path d="M13.4836 1.198L12.2216 2.11494L11.7631 1.48391" fill="#FCD116"/>
<path d="M12.9169 2.94214L12.4349 1.45849L11.693 1.69952" fill="#FCD116"/>
<path d="M12.9169 2.94214L11.6549 2.02519L12.1133 1.39416" fill="#FCD116"/>
<path d="M11.0831 2.94214L12.3451 2.02519L11.8867 1.39416" fill="#FCD116"/>
<path d="M11.0831 2.94214L11.5651 1.45849L12.307 1.69952" fill="#FCD116"/>
<path d="M10.5164 1.198L11.7784 2.11494L12.2369 1.48391" fill="#FCD116"/>
<path d="M10.5164 1.198H12.0764V1.978" fill="#FCD116"/>
<path d="M18.515 0.120117L18.0329 1.60377L18.7747 1.8448" fill="#FCD116"/>
<path d="M18.515 0.120117L18.997 1.60377L18.2552 1.8448" fill="#FCD116"/>
<path d="M19.9987 1.198H18.4387V1.978" fill="#FCD116"/>
<path d="M19.9987 1.198L18.7366 2.11494L18.2781 1.48391" fill="#FCD116"/>
<path d="M19.4319 2.94214L18.9499 1.45849L18.2081 1.69952" fill="#FCD116"/>
<path d="M19.4319 2.94214L18.1699 2.02519L18.6284 1.39416" fill="#FCD116"/>
<path d="M17.598 2.94214L18.86 2.02519L18.4016 1.39416" fill="#FCD116"/>
<path d="M17.598 2.94214L18.08 1.45849L18.8219 1.69952" fill="#FCD116"/>
<path d="M17.0314 1.198L18.2934 2.11494L18.7519 1.48391" fill="#FCD116"/>
<path d="M17.0314 1.198H18.5914V1.978" fill="#FCD116"/>
<path d="M1.11499 12.0351C1.49382 12.7442 2.07753 13.3226 2.78999 13.6951C2.76226 12.9136 2.56972 12.1469 2.22499 11.4451L1.11499 12.0351Z" fill="#CE1126"/>
<path d="M0.504994 9.73486C1.02499 10.8199 -0.850006 13.4199 2.27999 14.0299C1.85654 13.4178 1.66347 12.6757 1.73499 11.9349C2.43066 12.2564 3.00154 12.7975 3.35999 13.4749C4.17999 10.4999 1.25999 10.6849 0.504994 9.73486Z" fill="#FCD116"/>
<path d="M5.48499 20.8501L5.00292 22.3337L5.74474 22.5748" fill="#FCD116"/>
<path d="M5.48499 20.8501L5.96705 22.3337L5.22523 22.5748" fill="#FCD116"/>
<path d="M6.96863 21.928H5.40863V22.708" fill="#FCD116"/>
<path d="M6.96863 21.928L5.70656 22.8449L5.24809 22.2139" fill="#FCD116"/>
<path d="M6.40198 23.6721L5.91991 22.1885L5.17809 22.4295" fill="#FCD116"/>
<path d="M6.40198 23.6721L5.13991 22.7552L5.59838 22.1241" fill="#FCD116"/>
<path d="M4.56805 23.6721L5.83012 22.7552L5.37165 22.1241" fill="#FCD116"/>
<path d="M4.56805 23.6721L5.05012 22.1885L5.79194 22.4295" fill="#FCD116"/>
<path d="M4.00134 21.928L5.26341 22.8449L5.72188 22.2139" fill="#FCD116"/>
<path d="M4.00134 21.928H5.56134V22.708" fill="#FCD116"/>
<path d="M12 20.8501L11.5179 22.3337L12.2598 22.5748" fill="#FCD116"/>
<path d="M12 20.8501L12.4821 22.3337L11.7402 22.5748" fill="#FCD116"/>
<path d="M13.4836 21.928H11.9236V22.708" fill="#FCD116"/>
<path d="M13.4836 21.928L12.2216 22.8449L11.7631 22.2139" fill="#FCD116"/>
<path d="M12.9169 23.6721L12.4349 22.1885L11.693 22.4295" fill="#FCD116"/>
<path d="M12.9169 23.6721L11.6549 22.7552L12.1133 22.1241" fill="#FCD116"/>
<path d="M11.0831 23.6721L12.3451 22.7552L11.8867 22.1241" fill="#FCD116"/>
<path d="M11.0831 23.6721L11.5651 22.1885L12.307 22.4295" fill="#FCD116"/>
<path d="M10.5164 21.928L11.7784 22.8449L12.2369 22.2139" fill="#FCD116"/>
<path d="M10.5164 21.928H12.0764V22.708" fill="#FCD116"/>
<path d="M18.515 20.8501L18.0329 22.3337L18.7747 22.5748" fill="#FCD116"/>
<path d="M18.515 20.8501L18.997 22.3337L18.2552 22.5748" fill="#FCD116"/>
<path d="M19.9987 21.928H18.4387V22.708" fill="#FCD116"/>
<path d="M19.9987 21.928L18.7366 22.8449L18.2781 22.2139" fill="#FCD116"/>
<path d="M19.4319 23.6721L18.9499 22.1885L18.2081 22.4295" fill="#FCD116"/>
<path d="M19.4319 23.6721L18.1699 22.7552L18.6284 22.1241" fill="#FCD116"/>
<path d="M17.598 23.6721L18.86 22.7552L18.4016 22.1241" fill="#FCD116"/>
<path d="M17.598 23.6721L18.08 22.1885L18.8219 22.4295" fill="#FCD116"/>
<path d="M17.0314 21.928L18.2934 22.8449L18.7519 22.2139" fill="#FCD116"/>
<path d="M17.0314 21.928H18.5914V22.708" fill="#FCD116"/>
</g>
</g>
<defs>
<clipPath id="clip0_2214_3436">
<path d="M0 12C0 5.37258 5.37258 0 12 0C18.6274 0 24 5.37258 24 12C24 18.6274 18.6274 24 12 24C5.37258 24 0 18.6274 0 12Z" fill="white"/>
</clipPath>
<clipPath id="clip1_2214_3436">
<rect width="32" height="24" fill="white" transform="translate(-4)"/>
</clipPath>
</defs>
</svg>
