<svg width="24" height="24" viewBox="0 0 24 24" fill="none" xmlns="http://www.w3.org/2000/svg">
<g clip-path="url(#clip0_2214_4127)">
<g clip-path="url(#clip1_2214_4127)">
<path fill-rule="evenodd" clip-rule="evenodd" d="M-4 0H28V24H-4V0Z" fill="#F4F100"/>
<path fill-rule="evenodd" clip-rule="evenodd" d="M20.5 0H28V24H20.5V0Z" fill="#199A00"/>
<path fill-rule="evenodd" clip-rule="evenodd" d="M-4 0H3.5V24H-4V0Z" fill="#0058AA"/>
<path fill-rule="evenodd" clip-rule="evenodd" d="M8.96499 6.5L6.64499 10.065L8.87999 13.785L11.07 10.1L8.96499 6.5ZM15.025 6.5L12.71 10.065L14.945 13.785L17.135 10.1L15.025 6.5ZM11.965 11.365L9.64499 14.935L11.885 18.655L14.075 14.97L11.965 11.37V11.365Z" fill="#199A00"/>
</g>
</g>
<defs>
<clipPath id="clip0_2214_4127">
<path d="M0 12C0 5.37258 5.37258 0 12 0C18.6274 0 24 5.37258 24 12C24 18.6274 18.6274 24 12 24C5.37258 24 0 18.6274 0 12Z" fill="white"/>
</clipPath>
<clipPath id="clip1_2214_4127">
<rect width="32" height="24" fill="white" transform="translate(-4)"/>
</clipPath>
</defs>
</svg>
