<svg width="24" height="24" viewBox="0 0 24 24" fill="none" xmlns="http://www.w3.org/2000/svg">
<g clip-path="url(#clip0_2214_4305)">
<path d="M12 24C18.6274 24 24 18.6274 24 12C24 5.37258 18.6274 0 12 0C5.37258 0 0 5.37258 0 12C0 18.6274 5.37258 24 12 24Z" fill="white"/>
<path d="M2.47989 4.69458C1.53728 5.92097 0.826518 7.33449 0.412659 8.87006H6.65538L2.47989 4.69458Z" fill="#0052B4"/>
<path d="M23.5859 8.87002C23.172 7.33449 22.4612 5.92097 21.5186 4.69458L17.3432 8.87002H23.5859Z" fill="#0052B4"/>
<path d="M0.412659 15.1309C0.826565 16.6664 1.53733 18.0799 2.47989 19.3063L6.65524 15.1309H0.412659Z" fill="#0052B4"/>
<path d="M19.3051 2.4811C18.0787 1.53849 16.6652 0.827725 15.1297 0.413818V6.65649L19.3051 2.4811Z" fill="#0052B4"/>
<path d="M4.69339 21.5198C5.91978 22.4624 7.3333 23.1732 8.86883 23.5871V17.3445L4.69339 21.5198Z" fill="#0052B4"/>
<path d="M8.86878 0.413818C7.33325 0.827725 5.91973 1.53849 4.69339 2.48105L8.86878 6.65644V0.413818Z" fill="#0052B4"/>
<path d="M15.1298 23.5871C16.6653 23.1732 18.0788 22.4624 19.3052 21.5199L15.1298 17.3445V23.5871Z" fill="#0052B4"/>
<path d="M17.3432 15.1309L21.5186 19.3063C22.4612 18.08 23.172 16.6664 23.5859 15.1309H17.3432Z" fill="#0052B4"/>
<path d="M23.8984 10.4348H13.5653H13.5653V0.101578C13.0529 0.034875 12.5305 0 12 0C11.4694 0 10.9471 0.034875 10.4348 0.101578V10.4347V10.4347H0.101578C0.034875 10.9471 0 11.4695 0 12C0 12.5306 0.034875 13.0529 0.101578 13.5652H10.4347H10.4347V23.8984C10.9471 23.9651 11.4694 24 12 24C12.5305 24 13.0529 23.9652 13.5652 23.8984V13.5653V13.5653H23.8984C23.9651 13.0529 24 12.5306 24 12C24 11.4695 23.9651 10.9471 23.8984 10.4348Z" fill="#D80027"/>
<path d="M15.1305 15.1304L20.4853 20.4852C20.7316 20.239 20.9665 19.9817 21.1906 19.7148L16.6062 15.1304H15.1305V15.1304Z" fill="#D80027"/>
<path d="M8.86957 15.1306H8.86947L3.51471 20.4854C3.7609 20.7317 4.01829 20.9666 4.2851 21.1908L8.86957 16.6062V15.1306Z" fill="#D80027"/>
<path d="M8.86957 8.8696V8.86951L3.51476 3.51465C3.26848 3.76084 3.03354 4.01823 2.80939 4.28504L7.3939 8.86955H8.86957V8.8696Z" fill="#D80027"/>
<path d="M15.1305 8.86956L20.4853 3.51465C20.2391 3.26837 19.9817 3.03344 19.7149 2.80933L15.1305 7.39384V8.86956Z" fill="#D80027"/>
</g>
<defs>
<clipPath id="clip0_2214_4305">
<rect width="24" height="24" fill="white"/>
</clipPath>
</defs>
</svg>
