<svg width="24" height="24" viewBox="0 0 24 24" fill="none" xmlns="http://www.w3.org/2000/svg">
<g clip-path="url(#clip0_2214_4162)">
<path d="M11.9999 24C18.6273 24 23.9999 18.6274 23.9999 12C23.9999 5.37258 18.6273 0 11.9999 0C5.37246 0 -0.00012207 5.37258 -0.00012207 12C-0.00012207 18.6274 5.37246 24 11.9999 24Z" fill="#FFDA44"/>
<path d="M9.39122 10.4348H23.8983C23.1313 4.54697 18.0968 0 11.9999 0C11.1039 0 10.2311 0.0990469 9.39117 0.285234V10.4348H9.39122Z" fill="#0052B4"/>
<path d="M6.26078 10.4347V1.45898C2.96575 3.25683 0.606955 6.55453 0.101501 10.4347H6.26078V10.4347Z" fill="#0052B4"/>
<path d="M6.26074 13.5652H0.101501C0.606955 17.4454 2.96575 20.7431 6.26078 22.5409L6.26074 13.5652Z" fill="#0052B4"/>
<path d="M9.39117 13.5652V23.7147C10.2311 23.9009 11.1039 24 11.9999 24C18.0968 24 23.1313 19.453 23.8983 13.5652H9.39117V13.5652Z" fill="#0052B4"/>
</g>
<defs>
<clipPath id="clip0_2214_4162">
<rect width="24" height="24" fill="white"/>
</clipPath>
</defs>
</svg>
