<svg width="24" height="24" viewBox="0 0 24 24" fill="none" xmlns="http://www.w3.org/2000/svg">
<g clip-path="url(#clip0_2214_3109)">
<g clip-path="url(#clip1_2214_3109)">
<path d="M-4 0.000488281H28V24.0005H-4V0.000488281Z" fill="#F7E017"/>
<path d="M-4 1.66553V12.3355L28 17.3355V11.6655L-4 1.66553Z" fill="white"/>
<path d="M-4 7.33545V12.3354L28 22.3354V17.3355L-4 7.33545Z" fill="#000001"/>
<path d="M11.1901 18.9907C10.605 18.9263 10.0421 18.7303 9.54347 18.4174C9.46347 18.3641 9.39013 18.3174 9.3768 18.3174C9.36347 18.3174 9.3568 18.3807 9.3568 18.4541C9.3568 18.6674 9.27013 18.7741 9.0568 18.8307C8.85013 18.8841 8.5368 18.7774 8.28346 18.5641C8.04341 18.3583 7.76295 18.205 7.46012 18.1141C7.14477 18.0393 6.81297 18.0819 6.52679 18.2341C6.4984 18.2538 6.46683 18.2684 6.43345 18.2774C6.39679 18.2774 6.40012 18.0474 6.44012 17.9774C6.49012 17.8774 6.61012 17.7841 6.75345 17.7341C6.82679 17.7074 6.88679 17.6741 6.88679 17.6574C6.88679 17.6407 6.86012 17.5907 6.83012 17.5374C6.73457 17.3618 6.77234 17.2074 6.94345 17.074C7.11679 16.9407 7.41012 16.9207 7.66679 17.0174L7.80013 17.064C7.83346 17.064 7.81346 17.014 7.72012 16.8774C7.61346 16.7207 7.59012 16.644 7.60346 16.454C7.61454 16.3385 7.66551 16.2303 7.74762 16.1482C7.82973 16.0661 7.93787 16.0151 8.05346 16.004C8.24679 15.9907 8.36679 16.0574 8.65346 16.3274C9.42339 17.1023 10.4346 17.5915 11.5201 17.7141C11.7968 17.7474 12.3468 17.7307 12.6701 17.6807C13.6945 17.5098 14.6441 17.0361 15.3968 16.3207C15.6102 16.1207 15.7102 16.0674 15.8868 16.0674C16.0368 16.0674 16.1435 16.114 16.2535 16.234C16.3535 16.344 16.3868 16.4474 16.3735 16.6174C16.3668 16.724 16.3502 16.774 16.2868 16.8807C16.1935 17.0307 16.2102 17.0474 16.3935 16.974C16.6468 16.874 16.9568 16.9207 17.1235 17.0807C17.2702 17.2207 17.2835 17.3607 17.1702 17.5474C17.1268 17.6174 17.0935 17.6807 17.0935 17.6941C17.0935 17.7141 17.1268 17.7207 17.2768 17.7474C17.4768 17.7807 17.5935 17.9274 17.5935 18.1541C17.5935 18.2207 17.5835 18.2774 17.5735 18.2774C17.5635 18.2774 17.4868 18.2474 17.4068 18.2141C17.1735 18.1174 17.0402 18.0941 16.7668 18.0974C16.5602 18.0974 16.4902 18.1074 16.3468 18.1541C16.1071 18.2379 15.8862 18.3682 15.6968 18.5374C15.4835 18.7274 15.3502 18.7874 15.1435 18.7841C14.9502 18.7841 14.819 18.7285 14.7502 18.6174C14.7135 18.5574 14.7068 18.5241 14.7168 18.3907C14.7235 18.3041 14.7202 18.2341 14.7168 18.2341C14.7068 18.2341 14.6335 18.2807 14.5502 18.3374C14.3598 18.4737 14.1525 18.5846 13.9335 18.6674C13.0561 18.9847 12.1173 19.0953 11.1901 18.9907Z" fill="#CF1126"/>
<path d="M11.5435 17.5073C10.8985 17.4489 10.2735 17.253 9.71055 16.9327C9.14764 16.6125 8.65988 16.1753 8.28013 15.6507C7.46679 14.544 7.21345 13.0807 7.46012 11.744C7.59346 11.134 7.86012 10.524 8.31013 10.0906C7.94014 10.8608 7.83807 11.7325 8.02012 12.5673C8.32013 14.2273 9.72013 15.6307 11.3968 15.874C12.0635 16.064 12.7468 15.8607 13.3802 15.6573C14.7802 15.164 15.8468 13.8373 15.9735 12.354C16.0835 11.554 15.9635 10.7173 15.6002 9.9873C15.8068 10.0973 16.0668 10.5273 16.2202 10.814C16.7535 11.8473 16.7768 13.084 16.4635 14.1873C16.0368 15.5907 14.9635 16.8207 13.5468 17.2673C12.9004 17.469 12.2225 17.5504 11.5468 17.5073H11.5435Z" fill="#CF1126"/>
<path d="M5.0668 15.664C4.98346 15.6507 4.89013 15.734 4.92346 15.8207C4.98346 15.9073 5.09013 15.954 5.18346 15.994C5.42932 16.0902 5.69334 16.1312 5.9568 16.114C6.15006 16.1138 6.34181 16.0799 6.52347 16.014C6.62347 15.9807 6.75014 15.9473 6.79014 15.834C6.83347 15.764 6.7568 15.6907 6.6868 15.704C6.5868 15.7273 6.4868 15.7707 6.3868 15.8007C6.16696 15.8627 5.93786 15.8853 5.71013 15.8673C5.5444 15.8432 5.38284 15.7961 5.23013 15.7273C5.1768 15.704 5.1268 15.6707 5.0668 15.664Z" fill="#CF1126"/>
<path d="M5.16014 15.3171C5.07681 15.3038 5.00347 15.4038 5.03681 15.4838C5.10347 15.5771 5.21347 15.6271 5.31681 15.6705C5.49698 15.7415 5.68993 15.7744 5.88348 15.7671H5.93348C6.09802 15.7675 6.26106 15.7358 6.41348 15.6738C6.50348 15.6371 6.61681 15.6005 6.65682 15.5005C6.68682 15.4438 6.66348 15.3638 6.59015 15.3571C6.53015 15.3571 6.47348 15.3971 6.41348 15.4138C6.19644 15.5038 5.96094 15.5404 5.72681 15.5205C5.58014 15.5038 5.44347 15.4505 5.31014 15.3871C5.26014 15.3638 5.21681 15.3271 5.16014 15.3205V15.3171Z" fill="#CF1126"/>
<path d="M5.27681 14.9872C5.20348 14.9771 5.15348 15.0605 5.16681 15.1238C5.17681 15.1838 5.22681 15.2238 5.27015 15.2572C5.45164 15.3829 5.66965 15.445 5.89015 15.4338H5.94348C6.08209 15.4328 6.21874 15.4009 6.34348 15.3405C6.42682 15.3072 6.52348 15.2638 6.55348 15.1672C6.56682 15.1238 6.57349 15.0605 6.52349 15.0338C6.47015 15.0071 6.42015 15.0505 6.37349 15.0672C6.21404 15.1509 6.03692 15.1955 5.85682 15.1972C5.70222 15.191 5.55182 15.1451 5.42015 15.0638C5.37015 15.0405 5.33015 14.9972 5.27681 14.9872Z" fill="#CF1126"/>
<path d="M4.05011 10.0906C3.94344 10.2006 4.02678 10.4006 4.01678 10.5406C4.07678 10.9806 4.14678 11.4239 4.31011 11.8406C4.51011 12.2406 4.93678 12.4573 5.19345 12.8139C5.28678 12.9839 5.25345 13.1906 5.27345 13.3806C5.28456 13.8917 5.28456 14.4028 5.27345 14.9139C5.50679 15.0339 5.75679 15.1473 6.02346 15.1039C6.18012 15.0673 6.47346 15.0439 6.50679 14.8873L6.47346 12.2373C6.38346 11.9673 6.10679 11.8273 5.90345 11.6539C5.73354 11.4861 5.57539 11.3068 5.43012 11.1172C5.34345 10.9672 5.00012 10.9172 5.12345 11.1706C5.19678 11.3939 5.38012 11.5573 5.42678 11.7906C5.43679 11.9206 5.59345 12.1573 5.46012 12.2306C5.37717 12.0864 5.25295 11.9703 5.10345 11.8973C4.95678 11.7873 4.71345 11.7406 4.66011 11.5472C4.6119 11.2723 4.48447 11.0174 4.29345 10.8139C4.34345 10.5672 4.29345 10.2572 4.08011 10.0972L4.05011 10.0906Z" fill="#CF1126"/>
<path d="M4.38015 10.1406C4.28015 10.1573 4.28682 10.2806 4.33015 10.3473C4.37984 10.4907 4.39246 10.6444 4.36682 10.794C4.54976 10.9974 4.67215 11.2479 4.72015 11.5173C4.72015 11.6173 4.82682 11.6506 4.89682 11.7006C5.06015 11.804 5.24015 11.8806 5.38682 12.0106C5.41682 12.044 5.44016 12.0773 5.42016 12.0106C5.39682 11.924 5.38682 11.8306 5.32016 11.7673C5.22682 11.6673 5.11349 11.5806 4.98015 11.554C4.97015 11.414 4.90349 11.2873 4.84349 11.1673C4.77682 11.0506 4.70682 10.9273 4.59349 10.854C4.59349 10.6506 4.59349 10.4373 4.50682 10.2473C4.48015 10.2006 4.44015 10.144 4.38015 10.1406Z" fill="#CF1126"/>
<path d="M4.65681 10.2205C4.59014 10.2405 4.60347 10.3271 4.62347 10.3771C4.65259 10.5219 4.66378 10.6696 4.65681 10.8171C4.78681 10.9171 4.86348 11.0638 4.93681 11.2038C4.9857 11.2971 5.02014 11.396 5.04014 11.5005C5.14348 11.5338 5.23348 11.6005 5.31348 11.6671C5.28014 11.5738 5.21348 11.5005 5.16348 11.4105C5.11348 11.3205 5.06348 11.2238 5.04014 11.1205C4.94014 11.0171 4.88681 10.8671 4.90681 10.7205C4.91348 10.5638 4.86348 10.4005 4.75681 10.2805C4.73014 10.2538 4.69681 10.2238 4.65681 10.2205Z" fill="#CF1126"/>
<path d="M4.97347 10.2673C4.93347 10.2739 4.91347 10.3073 4.89347 10.3373C4.88347 10.3673 4.92014 10.3973 4.9268 10.4306C4.9701 10.5407 4.98611 10.6596 4.97347 10.7773C4.97347 10.8639 4.99569 10.9417 5.04014 11.0106C5.04804 10.9852 5.06338 10.9627 5.08417 10.9461C5.10497 10.9294 5.13026 10.9194 5.15681 10.9173C5.17347 10.9173 5.20347 10.9239 5.19014 10.8939C5.18125 10.7317 5.15014 10.5762 5.09681 10.4273C5.07975 10.3698 5.04751 10.318 5.00347 10.2773C4.99458 10.2684 4.98347 10.265 4.97014 10.2673H4.97347Z" fill="#CF1126"/>
<path d="M18.9335 15.664C19.0169 15.6507 19.1102 15.734 19.0769 15.8207C19.0169 15.9073 18.9102 15.954 18.8169 15.994C18.571 16.0902 18.307 16.1312 18.0435 16.114C17.8503 16.1138 17.6585 16.0799 17.4768 16.014C17.3768 15.9807 17.2502 15.9473 17.2102 15.834C17.1668 15.764 17.2435 15.6907 17.3135 15.704C17.4135 15.7273 17.5135 15.7707 17.6135 15.8007C17.8334 15.8627 18.0625 15.8853 18.2902 15.8673C18.4559 15.8432 18.6175 15.7961 18.7702 15.7273C18.8235 15.704 18.8735 15.6707 18.9335 15.664Z" fill="#CF1126"/>
<path d="M18.8402 15.3171C18.9235 15.3038 18.9969 15.4038 18.9635 15.4838C18.8969 15.5771 18.7869 15.6271 18.6835 15.6705C18.5034 15.7415 18.3104 15.7744 18.1169 15.7671H18.0669C17.9023 15.7675 17.7393 15.7358 17.5869 15.6738C17.4969 15.6371 17.3835 15.6005 17.3435 15.5005C17.3135 15.4438 17.3369 15.3638 17.4102 15.3571C17.4702 15.3571 17.5269 15.3971 17.5869 15.4138C17.8039 15.5038 18.0394 15.5404 18.2735 15.5205C18.4202 15.5038 18.5569 15.4505 18.6902 15.3871C18.7402 15.3638 18.7835 15.3271 18.8402 15.3205V15.3171Z" fill="#CF1126"/>
<path d="M18.7235 14.9872C18.7968 14.9771 18.8468 15.0605 18.8335 15.1238C18.8235 15.1838 18.7735 15.2238 18.7302 15.2572C18.5487 15.3829 18.3307 15.445 18.1102 15.4338H18.0568C17.9182 15.4328 17.7816 15.4009 17.6568 15.3405C17.5735 15.3072 17.4768 15.2638 17.4468 15.1672C17.4335 15.1238 17.4268 15.0605 17.4768 15.0338C17.5302 15.0071 17.5802 15.0505 17.6268 15.0672C17.7863 15.1509 17.9634 15.1955 18.1435 15.1972C18.2981 15.191 18.4485 15.1451 18.5802 15.0638C18.6302 15.0405 18.6702 14.9972 18.7235 14.9872Z" fill="#CF1126"/>
<path d="M19.9502 10.0906C20.0568 10.2006 19.9735 10.4006 19.9835 10.5406C19.9235 10.9806 19.8535 11.4239 19.6902 11.8406C19.4902 12.2406 19.0635 12.4573 18.8068 12.8139C18.7135 12.9839 18.7468 13.1906 18.7268 13.3806C18.7157 13.8917 18.7157 14.4028 18.7268 14.9139C18.4935 15.0339 18.2435 15.1473 17.9768 15.1039C17.8202 15.0673 17.5268 15.0439 17.4935 14.8873L17.5268 12.2373C17.6168 11.9673 17.8935 11.8273 18.0968 11.6539C18.2668 11.4861 18.4249 11.3068 18.5702 11.1172C18.6568 10.9672 19.0002 10.9172 18.8768 11.1706C18.8035 11.3939 18.6202 11.5573 18.5735 11.7906C18.5635 11.9206 18.4068 12.1573 18.5402 12.2306C18.6231 12.0864 18.7473 11.9703 18.8968 11.8973C19.0435 11.7873 19.2868 11.7406 19.3402 11.5472C19.3884 11.2723 19.5158 11.0174 19.7068 10.8139C19.6568 10.5672 19.7068 10.2572 19.9202 10.0972L19.9502 10.0906Z" fill="#CF1126"/>
<path d="M19.6202 10.1406C19.7202 10.1573 19.7135 10.2806 19.6702 10.3473C19.6205 10.4907 19.6079 10.6444 19.6335 10.794C19.4506 10.9974 19.3282 11.2479 19.2802 11.5173C19.2802 11.6173 19.1735 11.6506 19.1035 11.7006C18.9402 11.804 18.7602 11.8806 18.6135 12.0106C18.5835 12.044 18.5602 12.0773 18.5802 12.0106C18.6035 11.924 18.6135 11.8306 18.6802 11.7673C18.7735 11.6673 18.8868 11.5806 19.0202 11.554C19.0302 11.414 19.0968 11.2873 19.1568 11.1673C19.2235 11.0506 19.2935 10.9273 19.4069 10.854C19.4069 10.6506 19.4068 10.4373 19.4935 10.2473C19.5202 10.2006 19.5602 10.144 19.6202 10.1406Z" fill="#CF1126"/>
<path d="M19.3435 10.2205C19.4102 10.2405 19.3969 10.3271 19.3769 10.3771C19.3477 10.5219 19.3366 10.6696 19.3435 10.8171C19.2135 10.9171 19.1369 11.0638 19.0635 11.2038C19.0146 11.2971 18.9802 11.396 18.9602 11.5005C18.8569 11.5338 18.7669 11.6005 18.6869 11.6671C18.7202 11.5738 18.7869 11.5005 18.8369 11.4105C18.8869 11.3205 18.9369 11.2238 18.9602 11.1205C19.0602 11.0171 19.1135 10.8671 19.0935 10.7205C19.0869 10.5638 19.1369 10.4005 19.2435 10.2805C19.2702 10.2538 19.3035 10.2238 19.3435 10.2205Z" fill="#CF1126"/>
<path d="M19.0268 10.2673C19.0668 10.2739 19.0868 10.3073 19.1068 10.3373C19.1168 10.3673 19.0802 10.3973 19.0735 10.4306C19.0302 10.5407 19.0142 10.6596 19.0268 10.7773C19.0268 10.8639 19.0046 10.9417 18.9602 11.0106C18.9523 10.9852 18.9369 10.9627 18.9161 10.9461C18.8954 10.9294 18.8701 10.9194 18.8435 10.9173C18.8268 10.9173 18.7968 10.9239 18.8102 10.8939C18.8191 10.7317 18.8502 10.5762 18.9035 10.4273C18.9206 10.3698 18.9528 10.318 18.9968 10.2773C19.0057 10.2684 19.0168 10.265 19.0302 10.2673H19.0268Z" fill="#CF1126"/>
<path d="M11.8568 15.8673C11.6322 15.8413 11.4194 15.7525 11.2431 15.611C11.0668 15.4694 10.934 15.2809 10.8601 15.0672C10.8701 14.9939 10.9601 15.1072 11.0035 15.1172C11.0848 15.1657 11.1759 15.1953 11.2701 15.2039C11.3868 15.2539 11.4601 15.3706 11.5735 15.4339C11.6268 15.4739 11.8135 15.5539 11.7768 15.4239C11.7335 15.3572 11.7035 15.2706 11.7435 15.1906C11.8035 15.0539 11.9001 14.9339 12.0001 14.8172C12.0701 14.7939 12.1201 14.9372 12.1701 14.9839C12.2401 15.0939 12.3268 15.2272 12.2835 15.3606C12.2435 15.4106 12.2168 15.5606 12.3268 15.5139C12.4601 15.4539 12.5701 15.3539 12.6801 15.2606C12.7801 15.1939 12.9035 15.1906 13.0035 15.1272C13.0535 15.1172 13.1501 15.0239 13.1701 15.0739C13.1104 15.2229 13.0271 15.3613 12.9235 15.4839C12.7634 15.6744 12.5417 15.8029 12.2968 15.8473C12.1501 15.8739 12.0035 15.8806 11.8568 15.8673Z" fill="#CF1126"/>
<path d="M12.3835 15.3405C12.3924 15.2516 12.3735 15.1627 12.3268 15.0738C12.2535 14.936 12.1646 14.8038 12.0601 14.6771C11.9668 14.6238 11.9168 14.8005 11.8568 14.8505C11.7601 14.9938 11.6401 15.1405 11.6335 15.3172C11.5801 15.4005 11.4801 15.2505 11.4368 15.2005C11.348 15.0863 11.3009 14.9451 11.3035 14.8005C11.2956 14.5658 11.3365 14.332 11.4235 14.1138C11.4901 13.9271 11.5935 13.7471 11.5835 13.5471C11.5901 13.3905 11.5601 13.2238 11.4368 13.1205C11.3168 13.0271 11.5135 13.0071 11.5735 13.0538C11.6801 13.0638 11.7368 13.2371 11.8335 13.1938C11.8701 13.1038 11.8801 12.9938 11.9601 12.9238C12.0368 12.8171 12.1168 12.9671 12.1435 13.0405C12.2001 13.1005 12.1435 13.2571 12.2301 13.2605C12.3368 13.1838 12.4135 13.0605 12.5501 13.0305C12.6068 12.9971 12.7001 13.0305 12.6268 13.0905C12.5268 13.1871 12.4401 13.3038 12.4201 13.4471C12.3901 13.6238 12.4335 13.8038 12.5101 13.9605C12.6601 14.2738 12.7768 14.6271 12.7001 14.9771C12.6668 15.1305 12.5601 15.2638 12.4335 15.3538C12.4168 15.3638 12.3901 15.3638 12.3835 15.3405Z" fill="#CF1126"/>
<path d="M12.2235 12.9873C12.1788 12.897 12.1151 12.8174 12.0368 12.754C11.9568 12.754 11.9068 12.854 11.8535 12.9073C11.8168 12.9773 11.7701 13.094 11.6768 13.004C11.5268 12.9173 11.5035 12.7273 11.5035 12.5706C11.4935 12.3173 11.5968 12.0806 11.6868 11.8506C11.7435 11.7073 11.7301 11.5439 11.6935 11.3973C11.6501 11.2306 11.5135 11.1106 11.4101 10.9773C11.4168 10.9273 11.5501 10.9539 11.6001 10.9639C11.7135 10.9939 11.7801 11.0906 11.8635 11.1639C11.9235 11.1439 11.8968 11.0239 11.9268 10.9673C11.9268 10.8873 12.0335 10.7839 12.0768 10.8973C12.1435 10.9706 12.0768 11.1139 12.1601 11.1573C12.2401 11.1273 12.2801 11.0406 12.3535 11.0006C12.3918 10.9758 12.4358 10.9613 12.4813 10.9584C12.5268 10.9554 12.5723 10.9643 12.6135 10.9839C12.6435 11.0573 12.5268 11.1173 12.4935 11.1839C12.4259 11.2665 12.3791 11.3641 12.3571 11.4685C12.335 11.5729 12.3384 11.6811 12.3668 11.7839C12.4135 11.9506 12.4935 12.1006 12.5235 12.2673C12.5596 12.4573 12.5539 12.653 12.5068 12.8406C12.4768 12.954 12.3801 13.0273 12.2801 13.074C12.2579 13.0495 12.239 13.0206 12.2235 12.9873Z" fill="#CF1126"/>
<path d="M11.7201 10.8972C11.6068 10.8139 11.5701 10.7372 11.5701 10.5805C11.5701 10.5039 11.5868 10.4605 11.6368 10.3872C11.7168 10.2827 11.7024 10.2461 11.5935 10.2772C11.4201 10.3283 11.3313 10.2805 11.3268 10.1339C11.3268 10.0605 11.3401 10.0305 11.4368 9.91052C11.5168 9.81941 11.5479 9.76607 11.5301 9.75052C11.5168 9.73496 11.4168 9.82163 11.2301 10.0105C11.111 10.1361 10.9841 10.2542 10.8501 10.3639C10.5235 10.5839 10.2101 10.6172 10.0668 10.4472C9.99347 10.3605 9.99681 10.3139 10.0801 10.2605C10.1333 10.2247 10.1824 10.1834 10.2268 10.1372C10.3902 9.98802 10.5703 9.85827 10.7635 9.75052C10.8857 9.68607 10.909 9.65274 10.8335 9.65052C10.7335 9.65052 10.4168 9.85719 10.1735 10.0772C10.1035 10.1439 10.0001 10.2172 9.9468 10.2439C9.79864 10.2987 9.63795 10.3102 9.48347 10.2772C9.41013 10.2539 9.27347 10.1272 9.27347 10.0805C9.27347 10.0705 9.3068 10.0439 9.34013 10.0205C9.39446 9.98983 9.4458 9.95411 9.49347 9.91385C9.6868 9.74719 10.0535 9.57052 10.3435 9.50718C10.4368 9.49052 10.4001 9.44052 10.2968 9.44718C9.99084 9.50562 9.70436 9.63969 9.46347 9.83719C9.1868 10.0672 8.77013 10.0439 8.6368 9.79385C8.61346 9.75052 8.5968 9.71052 8.60346 9.70385C8.83956 9.64419 9.0678 9.55692 9.28347 9.44385C9.46936 9.33474 9.67397 9.26126 9.8868 9.22718C9.98014 9.21052 9.9868 9.16385 9.8968 9.15385C9.7768 9.14052 9.5968 9.20052 9.28013 9.35385C8.87013 9.55718 8.75347 9.59385 8.54013 9.58052C8.34013 9.56718 8.23013 9.51718 8.07346 9.36718C7.96679 9.26718 7.82013 9.01718 7.84679 8.98718C8.01988 9.0234 8.19679 9.03795 8.37346 9.03052C8.65013 9.03052 8.7268 9.02385 8.87347 8.98051C9.16005 8.88988 9.43018 8.75369 9.67347 8.57718C10.0173 8.28816 10.451 8.12788 10.9001 8.12384C11.3135 8.12384 11.5735 8.21718 11.8068 8.45385C11.8868 8.53385 11.9535 8.58385 11.9635 8.57385C11.9735 8.56385 11.9835 8.42385 11.9868 8.26384C11.9868 8.26384 12.1101 8.25051 12.1368 8.28718C12.1368 8.54385 12.1368 8.56718 12.1768 8.56718C12.2035 8.56496 12.2257 8.54274 12.2435 8.50051C12.2768 8.41718 12.4101 8.30051 12.5501 8.22718C12.8502 8.07718 13.3735 8.07051 13.7935 8.21718C13.9944 8.29317 14.1822 8.40001 14.3502 8.53385C14.5953 8.70641 14.865 8.84124 15.1502 8.93385C15.3768 9.00052 15.7835 9.01718 15.9868 8.96718L16.1668 8.93385C16.2435 8.93385 16.1135 9.18718 15.9602 9.33718C15.6802 9.61052 15.3168 9.60719 14.8068 9.33385C14.4868 9.16052 14.1068 9.06718 14.1068 9.16052C14.1068 9.18274 14.1235 9.19385 14.1568 9.19385C14.2679 9.19385 14.4757 9.26607 14.7802 9.41052C14.9687 9.51901 15.1754 9.59242 15.3902 9.62718C15.4679 9.62718 15.4702 9.67941 15.3968 9.78385C15.3191 9.89496 15.1891 9.95052 15.0068 9.95052C14.8302 9.95052 14.7302 9.91385 14.5735 9.78385C14.3068 9.56385 13.6535 9.31718 13.6768 9.45052C13.6813 9.47274 13.7168 9.48941 13.7835 9.50052C14.065 9.56168 14.3286 9.68718 14.5535 9.86719L14.7502 10.0105C14.7868 10.0305 14.7868 10.0372 14.7568 10.0939C14.7102 10.1872 14.5835 10.2572 14.4502 10.2705C14.2813 10.2927 14.1202 10.2372 13.9668 10.1039C13.6335 9.82719 13.3235 9.62718 13.2235 9.62718C13.1413 9.62941 13.1746 9.67052 13.3235 9.75052C13.5132 9.8511 13.69 9.97421 13.8502 10.1172C13.9168 10.1805 13.9935 10.2405 14.0168 10.2539C14.0802 10.2872 14.0768 10.3339 14.0102 10.4205C13.9435 10.5072 13.8302 10.5472 13.6868 10.5305C13.4002 10.5005 13.1735 10.3639 12.8202 9.99719C12.7361 9.90338 12.6447 9.81644 12.5468 9.73719C12.5024 9.74163 12.5268 9.79719 12.6201 9.90385C12.7335 10.0272 12.7535 10.0972 12.7102 10.2039C12.6735 10.2905 12.6102 10.3139 12.4835 10.2772C12.3501 10.2439 12.3279 10.2783 12.4168 10.3805C12.5435 10.5439 12.5268 10.7372 12.3668 10.8739C12.3337 10.9057 12.2954 10.9317 12.2535 10.9505C12.2357 10.9483 12.2101 10.9216 12.1768 10.8705C12.0813 10.7172 11.9846 10.7172 11.8868 10.8705L11.8201 10.9705L11.7201 10.8972Z" fill="#CF1126"/>
<path d="M12.2235 7.76709L12.0501 7.90042L11.8968 7.78709V8.71376H12.2235V7.76709Z" fill="#CF1126"/>
<path d="M11.1635 6.81061C11.1334 7.18541 11.0316 7.55094 10.8635 7.88728L11.2335 7.54395L11.4901 7.85062L11.7701 7.53728L12.0535 7.80395L12.3268 7.52728L12.6102 7.86062L12.8568 7.58728L13.2768 7.88728C13.1235 7.55395 12.9202 7.26728 12.9435 6.79395C12.5402 7.09395 11.5768 7.14728 11.1635 6.80728V6.81061Z" fill="#CF1126"/>
<path d="M11.9001 6.58732C11.7446 6.58287 11.5957 6.59398 11.4535 6.62065C11.3607 6.6353 11.2721 6.66938 11.1935 6.72065C11.2035 7.00732 12.5601 7.12399 12.9235 6.72732C12.8417 6.67072 12.7483 6.63314 12.6501 6.61732C12.5168 6.59065 12.3635 6.59065 12.2201 6.58398V6.82065H11.9001V6.58732Z" fill="#CF1126"/>
<path d="M12.1635 5.13379H11.9535V6.78046H12.1668L12.1635 5.13379Z" fill="#CF1126"/>
<path d="M12.1635 5.17379L12.0835 5.9638L12.8935 6.36047L12.4835 5.81046L13.0435 5.62713L12.1635 5.17379ZM12.0735 4.97046C11.9501 4.97046 11.8601 5.01713 11.8601 5.07046C11.8601 5.12379 11.9501 5.17046 12.0735 5.17046C12.1968 5.17046 12.2868 5.12379 12.2868 5.07046C12.2868 5.01713 12.1968 4.97046 12.0735 4.97046Z" fill="#CF1126"/>
<path d="M11.7 18.7957C11.8267 18.759 11.915 18.6657 11.965 18.5157C11.99 18.4357 12.01 18.3557 12.005 18.3357C11.995 18.2857 11.935 18.2857 11.875 18.3407C11.83 18.3757 11.825 18.3957 11.835 18.4707C11.87 18.6557 11.8 18.7057 11.45 18.7407C11.415 18.7407 11.31 18.7407 11.225 18.7257C11.055 18.7057 10.9983 18.7223 11.055 18.7757L11.16 18.8207C11.255 18.8457 11.6 18.8307 11.7 18.7957ZM12.435 18.7657C12.455 18.7457 12.52 18.7157 12.585 18.6907C12.665 18.6707 12.72 18.634 12.75 18.5807C12.855 18.4307 12.835 18.2957 12.685 18.1157C12.6 18.0157 12.565 18.0207 12.5 18.1307C12.44 18.2207 12.445 18.2307 12.525 18.2507C12.5717 18.264 12.6067 18.2907 12.63 18.3307C12.72 18.4907 12.6967 18.574 12.56 18.5807C12.44 18.5807 12.41 18.6007 12.375 18.6807L12.345 18.7757C12.345 18.8057 12.395 18.8007 12.435 18.7657ZM12.195 18.5907C12.215 18.5257 12.225 18.4157 12.22 18.1907C12.2254 18.0838 12.2204 17.9766 12.205 17.8707C12.185 17.8507 12.09 17.9107 12.075 17.9557C12.07 17.9925 12.0789 18.03 12.1 18.0607C12.13 18.1207 12.135 18.1807 12.125 18.4107C12.1083 18.7073 12.1317 18.7673 12.195 18.5907Z" fill="#F7E017"/>
<path d="M11.63 18.4505L11.665 18.2005C11.67 18.1155 11.69 18.0105 11.7 17.9655C11.7333 17.8488 11.7033 17.8222 11.61 17.8855L11.545 17.9355L11.555 18.1005C11.57 18.2505 11.545 18.5255 11.51 18.6355C11.5 18.6655 11.515 18.6572 11.555 18.6105C11.585 18.5755 11.62 18.5005 11.63 18.4455V18.4505ZM11.13 18.5305C11.25 18.4305 11.235 18.2505 11.265 18.1105C11.265 18.0155 11.325 17.9055 11.285 17.8205C11.17 17.8405 11.1 17.9505 11.16 18.0555C11.16 18.1805 11.16 18.3155 11.095 18.4255C11.045 18.5005 10.875 18.4805 10.885 18.3755C10.925 18.2255 10.74 18.3005 10.67 18.3405C10.615 18.3805 10.495 18.3855 10.54 18.2905C10.51 18.1555 10.345 18.2405 10.255 18.2405C10.17 18.2405 10.25 18.0655 10.125 18.0905C9.89999 18.0755 9.64999 18.0955 9.44999 17.9605C9.33499 17.9055 9.34999 17.7655 9.41499 17.6755C9.48499 17.5555 9.50499 17.4005 9.61499 17.3055C9.72999 17.2005 9.51499 17.2455 9.46499 17.2805C9.35499 17.3405 9.45499 17.4955 9.36499 17.5805C9.31499 17.6705 9.24499 17.7905 9.12499 17.7755C8.94999 17.7405 8.84999 17.5755 8.72499 17.4755C8.61499 17.4505 8.67499 17.6455 8.73499 17.6855C8.8459 17.7682 8.97143 17.8293 9.10499 17.8655C9.23499 17.8405 9.23999 18.0155 9.35499 18.0405C9.55499 18.1405 9.78499 18.1655 10.01 18.1805C10.1 18.1855 10.05 18.3455 10.165 18.3105C10.23 18.3305 10.38 18.2855 10.385 18.3605C10.285 18.4805 10.48 18.4755 10.55 18.4605C10.645 18.4405 10.76 18.4105 10.785 18.5305C10.86 18.6155 11 18.6005 11.095 18.5555L11.13 18.5305Z" fill="#F7E017"/>
<path d="M9.13996 17.5204C9.18693 17.4546 9.22714 17.3843 9.25996 17.3104C9.2854 17.2463 9.31902 17.1858 9.35996 17.1304C9.4133 17.0637 9.38996 17.0371 9.28996 17.0504C9.2433 17.0571 9.2183 17.0821 9.21496 17.1254C9.19255 17.2481 9.15033 17.3663 9.08996 17.4754C9.00496 17.6004 9.00496 17.6054 9.03996 17.6054C9.05996 17.5987 9.0933 17.5704 9.13996 17.5204ZM7.88996 16.7354C7.79496 16.7354 7.78996 16.7954 7.87996 16.8254C7.92663 16.8387 7.96496 16.8771 7.99496 16.9404C8.07996 17.1154 8.13496 17.1504 8.36996 17.1704L8.51996 17.1804L8.52996 17.2754C8.5333 17.3321 8.54163 17.3621 8.55496 17.3654L8.68496 17.3154C8.79496 17.2554 8.89996 17.1254 8.89996 17.0404C8.89996 16.9904 8.80996 16.9304 8.72996 16.9304C8.69496 16.9304 8.62996 16.9604 8.57496 17.0004C8.40496 17.1204 8.22496 17.1004 8.12496 16.9404C8.0483 16.8071 7.96996 16.7404 7.88996 16.7404V16.7354ZM8.70496 17.0604C8.7483 17.0604 8.7583 17.0937 8.73496 17.1604C8.73189 17.1692 8.72615 17.1769 8.71854 17.1823C8.71092 17.1877 8.70181 17.1906 8.69246 17.1906C8.68312 17.1906 8.67401 17.1877 8.66639 17.1823C8.65878 17.1769 8.65304 17.1692 8.64996 17.1604C8.62996 17.1104 8.65496 17.0604 8.69996 17.0604H8.70496ZM15.03 16.8604C14.965 16.8604 14.95 16.8704 14.91 16.9304C14.845 17.0254 14.84 17.2304 14.9 17.3004C14.935 17.3454 14.94 17.3454 15.015 17.3104C15.125 17.2654 15.145 17.2704 15.14 17.3254C15.14 17.4754 14.93 17.7604 14.71 17.9104C14.665 17.9372 14.6245 17.971 14.59 18.0104C14.575 18.0504 14.655 18.0454 14.755 17.9904C14.9205 17.8954 15.0571 17.7571 15.15 17.5904C15.205 17.4754 15.215 17.4404 15.225 17.2404C15.225 17.0504 15.225 16.9904 15.195 16.9304C15.155 16.8604 15.145 16.8554 15.055 16.8554H15.03V16.8604ZM15.035 16.9854C15.085 16.9854 15.085 16.9954 15.095 17.0654C15.0983 17.1121 15.0866 17.1504 15.06 17.1804C15.02 17.2154 15.01 17.2154 14.98 17.1604C14.93 17.0804 14.96 16.9854 15.035 16.9854ZM14.025 18.4104C14.22 18.3104 14.335 18.2054 14.405 18.0504L14.47 17.8954C14.47 17.8654 14.375 17.8204 14.32 17.8204C14.265 17.8204 14.25 17.7804 14.27 17.6704C14.295 17.5654 14.27 17.4304 14.22 17.4304C14.1966 17.4337 14.175 17.4521 14.155 17.4854C14.125 17.5354 14.12 17.5554 14.145 17.6204C14.1783 17.7204 14.15 17.8021 14.06 17.8654C14.0166 17.8987 13.995 17.9321 13.995 17.9654L14 18.0154L14.105 17.9654L14.205 17.9054L14.26 17.9554C14.2966 17.9821 14.3166 18.0104 14.32 18.0404C14.32 18.1604 13.98 18.3604 13.75 18.3804C13.625 18.3904 13.6 18.3804 13.56 18.3404C13.5266 18.3071 13.515 18.2737 13.525 18.2404L13.55 18.1104C13.5666 18.0104 13.5333 18.0204 13.45 18.1404C13.39 18.2404 13.37 18.3454 13.405 18.4004C13.435 18.4504 13.625 18.4904 13.765 18.4804C13.8483 18.4804 13.935 18.4571 14.025 18.4104ZM15.325 17.6854C15.445 17.5604 15.5 17.4104 15.5 17.1854V17.0104L15.6 16.9604C15.735 16.9004 15.86 16.7754 15.86 16.7054C15.86 16.6354 15.83 16.6387 15.77 16.7154C15.725 16.7704 15.67 16.8054 15.47 16.9004C15.42 16.9204 15.415 16.9354 15.4 17.1504C15.39 17.4004 15.35 17.4904 15.215 17.6604C15.13 17.7604 15.125 17.7804 15.185 17.7804C15.21 17.7804 15.275 17.7354 15.325 17.6804V17.6854ZM13.99 17.5454C14 17.5104 13.93 17.4854 13.905 17.5154C13.8883 17.5287 13.885 17.5437 13.895 17.5604C13.915 17.5904 13.975 17.5804 13.99 17.5454ZM15.83 17.0704C15.845 17.0304 15.775 17.0054 15.745 17.0354C15.7316 17.0521 15.73 17.0687 15.74 17.0854C15.76 17.1154 15.82 17.1054 15.83 17.0704ZM13.615 15.7754C13.5683 15.8087 13.5333 15.8471 13.51 15.8904C13.485 15.9054 13.505 15.9204 13.515 15.9404C13.6 16.0254 13.635 16.1504 13.675 16.2654C13.715 16.4004 13.765 16.5454 13.725 16.6854C13.71 16.7354 13.665 16.7904 13.605 16.7754C13.505 16.7704 13.405 16.7404 13.305 16.7404C13.21 16.7454 13.14 16.8304 13.05 16.8204C12.99 16.8204 12.99 16.7004 12.94 16.7354C12.91 16.8004 12.925 16.8704 12.92 16.9354C12.9366 16.9454 12.955 16.9487 12.975 16.9454H13.16C13.17 17.0054 13.17 17.0804 13.21 17.1304C13.2766 17.1437 13.3433 17.1354 13.41 17.1054C13.47 17.0754 13.48 17.0004 13.5 16.9404C13.52 16.8754 13.6 16.8904 13.65 16.8654C13.7088 16.8446 13.7597 16.806 13.7955 16.7549C13.8314 16.7038 13.8504 16.6428 13.85 16.5804C13.84 16.3854 13.77 16.2104 13.71 16.0304C13.6866 15.9471 13.6616 15.8654 13.635 15.7854L13.615 15.7754ZM13.315 16.8654C13.38 16.8654 13.41 16.9454 13.395 17.0004C13.37 17.0754 13.275 17.0304 13.26 16.9754C13.225 16.9254 13.245 16.8604 13.31 16.8654H13.315Z" fill="#F7E017"/>
<path d="M10.8 16.2405C10.7666 16.2405 10.7333 16.2521 10.7 16.2755C10.525 16.4005 10.475 16.5455 10.6 16.6055C10.6866 16.6421 10.6616 16.6955 10.525 16.7655C10.325 16.8655 10.15 16.8505 9.81498 16.7155C9.73831 16.6821 9.70998 16.6988 9.72998 16.7655C9.74998 16.8405 9.81998 16.8805 9.98498 16.9155C10.165 16.9655 10.385 16.9505 10.525 16.8905C10.6071 16.8485 10.6802 16.7908 10.74 16.7205L10.85 16.6055L10.975 16.6205C11.13 16.6405 11.135 16.6405 11.135 16.7155C11.135 16.7755 11.135 16.7755 11.28 16.7905L11.515 16.8005C11.5783 16.8005 11.6183 16.8155 11.635 16.8455C11.665 16.8805 11.68 16.8855 11.915 16.8655C12.135 16.8455 12.175 16.8455 12.275 16.8805C12.3516 16.9005 12.42 16.9088 12.48 16.9055C12.65 16.8855 12.88 16.7505 12.915 16.6505C12.915 16.6355 12.98 16.6155 13.05 16.6005C13.2166 16.5638 13.2233 16.5338 13.07 16.5105C12.9916 16.5001 12.9145 16.4817 12.84 16.4555C12.7842 16.4317 12.7252 16.4166 12.665 16.4105C12.58 16.4105 12.5 16.4605 12.5 16.5205C12.5 16.5555 12.51 16.5605 12.615 16.5505C12.705 16.5405 12.735 16.5455 12.785 16.5855C12.8216 16.6155 12.8383 16.6371 12.835 16.6505C12.81 16.6905 12.61 16.7805 12.525 16.7955C12.4736 16.8029 12.4212 16.7942 12.375 16.7705C12.295 16.7305 12.185 16.7255 12.16 16.7605C12.15 16.7738 12.1283 16.7655 12.095 16.7355L12.045 16.6855L11.925 16.7355C11.8116 16.7888 11.7566 16.7855 11.76 16.7255C11.76 16.7005 11.725 16.6955 11.55 16.7105C11.355 16.7205 11.335 16.7155 11.3 16.6755C11.2666 16.6455 11.2633 16.6171 11.29 16.5905C11.31 16.5505 11.31 16.5405 11.29 16.5155C11.2766 16.4955 11.235 16.4955 11.165 16.5155C10.97 16.5655 10.915 16.5405 10.915 16.3905C10.9083 16.2905 10.87 16.2405 10.8 16.2405ZM10.75 16.3805C10.76 16.3805 10.7716 16.3871 10.785 16.4005C10.8016 16.4205 10.8066 16.4421 10.8 16.4655C10.785 16.5105 10.7 16.5105 10.685 16.4655C10.675 16.4388 10.6833 16.4171 10.71 16.4005L10.75 16.3805Z" fill="#F7E017"/>
<path d="M10.4 16.5205C10.52 16.4455 10.52 16.4505 10.535 16.2455C10.545 16.0955 10.545 16.0855 10.505 16.0855C10.445 16.0855 10.415 16.1472 10.415 16.2705C10.415 16.3505 10.405 16.3855 10.365 16.4205C10.265 16.5205 10.025 16.4755 9.98996 16.3555C9.97996 16.3222 9.9983 16.2722 10.045 16.2055C10.15 16.0555 10.13 16.0155 9.99496 16.1305C9.90996 16.2105 9.89496 16.2105 9.90996 16.1455C9.9233 16.0789 9.8933 16.0555 9.81996 16.0755C9.7833 16.0822 9.76163 16.1089 9.75496 16.1555C9.74496 16.1955 9.7233 16.2205 9.68996 16.2305C9.62996 16.2455 9.52996 16.1905 9.52996 16.1405C9.52996 16.1055 9.67996 15.9205 9.87496 15.7205C9.94496 15.6455 10.005 15.5705 10.005 15.5655C9.9983 15.5522 9.96996 15.5455 9.91996 15.5455C9.8533 15.5455 9.8233 15.5589 9.82996 15.5855C9.82996 15.6055 9.73496 15.7355 9.61496 15.8705C9.36496 16.1505 9.34496 16.2055 9.46496 16.2805C9.51492 16.3113 9.57281 16.3268 9.63146 16.325C9.69012 16.3232 9.74696 16.3043 9.79496 16.2705L9.87496 16.2155V16.3155C9.87496 16.4405 9.89996 16.4905 9.99996 16.5405C10.0625 16.5726 10.1324 16.5877 10.2026 16.5842C10.2729 16.5807 10.3409 16.5587 10.4 16.5205ZM15.62 14.7905C15.53 14.8455 15.6 14.9605 15.62 15.0405C15.58 15.1405 15.445 15.1705 15.345 15.1905C15.205 15.2155 15.105 15.3305 15.055 15.4555C15.025 15.5355 14.955 15.6555 14.88 15.5355C14.815 15.4705 14.695 15.4155 14.62 15.4955C14.56 15.5505 14.545 15.6305 14.52 15.7055C14.485 15.6505 14.47 15.5655 14.4 15.5455C14.28 15.5605 14.325 15.7105 14.38 15.7705C14.43 15.8455 14.48 15.9355 14.43 16.0205C14.38 16.1205 14.23 16.1905 14.145 16.1055C14.065 16.0605 14.12 15.9055 14.035 15.8955C13.995 15.9255 13.995 16.0905 13.93 16.0005C13.88 15.9255 13.91 15.8205 13.85 15.7555C13.785 15.7655 13.73 15.8805 13.75 15.9405C13.84 16.0605 13.88 16.2105 13.915 16.3555C13.935 16.4155 13.91 16.5305 13.965 16.5555C14 16.4605 13.965 16.3555 13.995 16.2605C14.085 16.2505 14.18 16.2905 14.27 16.2705C14.405 16.2555 14.505 16.1405 14.55 16.0255C14.56 15.9355 14.5583 15.8455 14.545 15.7555C14.645 15.7755 14.755 15.7755 14.855 15.8055C14.905 15.8805 14.84 15.9905 14.825 16.0705C14.775 16.2405 14.64 16.3605 14.515 16.4705C14.46 16.5055 14.455 16.5905 14.53 16.5455C14.701 16.4643 14.8349 16.3214 14.905 16.1455C14.96 16.0155 14.915 15.8705 14.955 15.7405C15.005 15.6405 15.13 15.6605 15.225 15.6605C15.32 15.6605 15.4 15.5455 15.37 15.4505C15.34 15.3405 15.455 15.2905 15.53 15.2505C15.635 15.2005 15.715 15.0955 15.705 14.9755C15.705 14.9105 15.705 14.7955 15.62 14.7905ZM15.255 15.4155C15.365 15.4455 15.235 15.6555 15.175 15.5205C15.155 15.4705 15.2 15.4155 15.255 15.4155ZM14.74 15.5655C14.885 15.5605 14.83 15.7655 14.71 15.6755C14.645 15.6405 14.665 15.5655 14.74 15.5655ZM9.49996 16.3805C9.49996 16.3605 9.48996 16.3489 9.46996 16.3455C9.43496 16.3455 9.40996 16.3805 9.42496 16.4105C9.44496 16.4455 9.48996 16.4255 9.49996 16.3805ZM11.2 16.2005C11.2 16.1672 11.1866 16.1539 11.16 16.1605C11.105 16.1705 11.095 16.2455 11.155 16.2455C11.185 16.2455 11.2 16.2289 11.2 16.1955V16.2005ZM9.09996 15.1805C9.03496 15.1655 8.98996 15.2255 8.96496 15.2805C8.9183 15.3739 8.85163 15.4455 8.76496 15.4955C8.6983 15.5089 8.6333 15.4955 8.56996 15.4555C8.50496 15.4205 8.51996 15.3405 8.48996 15.2855C8.43996 15.2455 8.35496 15.3005 8.35996 15.3605C8.35496 15.4405 8.42496 15.4855 8.48996 15.5155C8.53996 15.5505 8.61996 15.5655 8.63996 15.6305C8.63996 15.6855 8.65996 15.7505 8.72496 15.7305C8.79996 15.7305 8.82496 15.8205 8.78996 15.8755C8.75541 15.9361 8.74303 16.0068 8.75496 16.0755C8.78996 16.1105 8.82496 16.0255 8.85496 16.0055L8.90496 15.9355C9.0383 15.9489 9.17163 15.9555 9.30496 15.9555C9.40496 15.9555 9.47996 15.8955 9.53996 15.8255C9.62996 15.7355 9.69996 15.6305 9.79496 15.5555C9.86496 15.5355 9.82996 15.4055 9.75496 15.4455C9.68996 15.4705 9.66996 15.5455 9.62496 15.5905C9.55203 15.6866 9.46813 15.7739 9.37496 15.8505C9.29996 15.8805 9.21996 15.8655 9.14496 15.8505C9.11496 15.8255 9.20496 15.8005 9.21996 15.7705C9.26663 15.7339 9.30496 15.6889 9.33496 15.6355C9.30996 15.5855 9.23996 15.5855 9.18996 15.5855C9.06996 15.5955 8.97496 15.7005 8.84996 15.7105C8.75496 15.7105 8.80496 15.6105 8.84996 15.5755C8.9333 15.4755 9.0183 15.3805 9.10496 15.2905C9.12996 15.2605 9.21996 15.2305 9.16496 15.1905C9.14496 15.1839 9.1233 15.1805 9.09996 15.1805ZM9.15996 15.6805C9.22496 15.7155 9.11996 15.7705 9.07996 15.7655C9.02496 15.7805 9.01996 15.7255 9.06996 15.7155C9.09996 15.6955 9.12996 15.6839 9.15996 15.6805ZM8.96996 15.8105C9.00496 15.8105 9.07996 15.8455 9.00996 15.8655C8.95996 15.9055 8.90996 15.8255 8.96996 15.8105Z" fill="#F7E017"/>
<path d="M10.47 15.8906C10.47 15.8406 10.39 15.8506 10.38 15.9006C10.37 15.9272 10.3833 15.9372 10.42 15.9306C10.4533 15.9272 10.47 15.9139 10.47 15.8906ZM14.205 15.5606C14.215 15.5156 14.155 15.4856 14.12 15.5206C14.085 15.5556 14.12 15.6156 14.16 15.6056C14.18 15.6022 14.1967 15.5872 14.21 15.5606H14.205ZM8.4 15.1056C8.455 15.0556 8.46 15.0506 8.435 14.9406C8.395 14.7856 8.4 14.7656 8.46 14.7506C8.535 14.7356 8.725 14.8356 8.76 14.9156C8.8 14.9806 8.795 14.9856 8.74 15.0356C8.68 15.0906 8.68 15.1556 8.74 15.1556C8.79 15.1556 8.925 15.0256 8.925 14.9806C8.925 14.9156 8.775 14.7606 8.655 14.7056C8.58284 14.6725 8.50437 14.6555 8.425 14.6556C8.27 14.6556 8.25 14.6906 8.29 14.8656C8.33666 15.0789 8.275 15.1056 8.105 14.9456C8.04323 14.8934 7.99505 14.827 7.96457 14.7521C7.93409 14.6772 7.92223 14.5961 7.93 14.5156C7.93 14.3156 8.015 14.2056 8.185 14.1856C8.30166 14.1656 8.30166 14.1456 8.185 14.1256C8.005 14.0956 7.855 14.2156 7.8 14.4256C7.735 14.6606 7.88 14.9456 8.135 15.0906C8.27 15.1656 8.32 15.1706 8.4 15.1056ZM15.36 14.8456C15.3767 14.8289 15.385 14.8056 15.385 14.7756C15.3883 14.7322 15.4067 14.6922 15.44 14.6556C15.4733 14.6089 15.49 14.5789 15.49 14.5656C15.49 14.5256 15.425 14.5256 15.375 14.5656C15.315 14.6122 15.2817 14.6122 15.275 14.5656L15.335 14.5206C15.415 14.4839 15.4217 14.4489 15.355 14.4156C15.27 14.3756 15.18 14.4456 15.175 14.5656C15.17 14.6456 15.175 14.6556 15.235 14.6906C15.295 14.7256 15.3 14.7406 15.29 14.7906C15.28 14.8772 15.3033 14.8956 15.36 14.8456ZM16.01 14.7756C16.0633 14.7222 16.0933 14.6856 16.1 14.6656C16.1067 14.6456 16.1383 14.6122 16.195 14.5656C16.335 14.4656 16.37 14.3656 16.305 14.2006C16.28 14.1356 16.205 14.0506 16.03 13.9006C15.9503 13.8155 15.8595 13.7415 15.76 13.6806C15.715 13.6806 15.725 13.8506 15.77 13.8656C15.855 13.8956 15.91 13.9306 16.04 14.0506C16.2 14.1906 16.27 14.3256 16.23 14.4006C16.195 14.4706 16.145 14.4506 16.005 14.3006C15.9595 14.2443 15.9055 14.1953 15.845 14.1556C15.8283 14.1589 15.82 14.1822 15.82 14.2256C15.8167 14.2722 15.85 14.3306 15.92 14.4006C16.035 14.5306 16.045 14.6056 15.955 14.6756L15.885 14.7256C15.7709 14.5298 15.6177 14.3596 15.435 14.2256C15.4183 14.2256 15.41 14.2489 15.41 14.2956C15.41 14.3606 15.42 14.3806 15.47 14.4056C15.6014 14.5065 15.7191 14.6241 15.82 14.7556L15.91 14.8556L16.01 14.7756ZM16.31 13.9356C16.285 13.8756 15.89 13.4656 15.845 13.4656C15.825 13.4656 15.8183 13.4956 15.825 13.5556C15.825 13.6356 15.84 13.6456 15.895 13.6606C15.9804 13.7105 16.0579 13.7729 16.125 13.8456C16.1793 13.904 16.2416 13.9545 16.31 13.9956V13.9356ZM13.92 18.5656C13.9227 18.573 13.9232 18.5809 13.9216 18.5886C13.9199 18.5963 13.9162 18.6035 13.9106 18.6097C13.905 18.616 13.8978 18.6211 13.8894 18.6245C13.8811 18.628 13.8718 18.6299 13.8625 18.6299C13.8532 18.6299 13.8439 18.628 13.8356 18.6245C13.8272 18.6211 13.82 18.616 13.8144 18.6097C13.8088 18.6035 13.805 18.5963 13.8034 18.5886C13.8018 18.5809 13.8023 18.573 13.805 18.5656C13.8023 18.5581 13.8018 18.5502 13.8034 18.5426C13.805 18.5349 13.8088 18.5277 13.8144 18.5214C13.82 18.5152 13.8272 18.5101 13.8356 18.5066C13.8439 18.5031 13.8532 18.5013 13.8625 18.5013C13.8718 18.5013 13.8811 18.5031 13.8894 18.5066C13.8978 18.5101 13.905 18.5152 13.9106 18.5214C13.9162 18.5277 13.9199 18.5349 13.9216 18.5426C13.9232 18.5502 13.9227 18.5581 13.92 18.5656ZM14.13 18.4956C14.13 18.5021 14.1284 18.5086 14.1254 18.5147C14.1224 18.5208 14.118 18.5263 14.1124 18.5309C14.1069 18.5356 14.1002 18.5393 14.093 18.5418C14.0857 18.5443 14.0779 18.5456 14.07 18.5456C14.0621 18.5456 14.0543 18.5443 14.047 18.5418C14.0398 18.5393 14.0331 18.5356 14.0276 18.5309C14.022 18.5263 14.0176 18.5208 14.0146 18.5147C14.0115 18.5086 14.01 18.5021 14.01 18.4956C14.01 18.489 14.0115 18.4825 14.0146 18.4764C14.0176 18.4704 14.022 18.4649 14.0276 18.4602C14.0331 18.4556 14.0398 18.4519 14.047 18.4494C14.0543 18.4469 14.0621 18.4456 14.07 18.4456C14.0779 18.4456 14.0857 18.4469 14.093 18.4494C14.1002 18.4519 14.1069 18.4556 14.1124 18.4602C14.118 18.4649 14.1224 18.4704 14.1254 18.4764C14.1284 18.4825 14.13 18.489 14.13 18.4956Z" fill="#F7E017"/>
</g>
</g>
<defs>
<clipPath id="clip0_2214_3109">
<path d="M0 12C0 5.37271 5.37247 0.000244141 11.9997 0.000244141C18.627 0.000244141 23.9995 5.37271 23.9995 12C23.9995 18.6273 18.627 23.9997 11.9997 23.9997C5.37247 23.9997 0 18.6273 0 12Z" fill="white"/>
</clipPath>
<clipPath id="clip1_2214_3109">
<rect width="32" height="24" fill="white" transform="translate(-4 0.000488281)"/>
</clipPath>
</defs>
</svg>
