<svg width="24" height="24" viewBox="0 0 24 24" fill="none" xmlns="http://www.w3.org/2000/svg">
<path d="M8 4H4C3.44772 4 3 4.44772 3 5V9M3 15V19C3 19.5523 3.44772 20 4 20H8M16 20H20C20.5523 20 21 19.5523 21 19V15M21 9V5C21 4.44772 20.5523 4 20 4H16" stroke="#2D2D3A" stroke-width="2" stroke-linecap="round"/>
<path d="M6.75 8L6.75 16" stroke="#2D2D3A" stroke-width="2" stroke-linecap="round"/>
<path d="M13.75 8L13.75 16" stroke="#2D2D3A" stroke-width="2" stroke-linecap="round"/>
<path d="M17.25 8L17.25 16" stroke="#2D2D3A" stroke-width="2" stroke-linecap="round"/>
<path d="M10.25 8L10.25 9" stroke="#2D2D3A" stroke-width="2" stroke-linecap="round"/>
<path d="M10.25 12L10.25 16" stroke="#2D2D3A" stroke-width="2" stroke-linecap="round"/>
</svg>
