<svg width="24" height="24" viewBox="0 0 24 24" fill="none" xmlns="http://www.w3.org/2000/svg">
<g clip-path="url(#clip0_2214_3597)">
<g clip-path="url(#clip1_2214_3597)">
<mask id="mask0_2214_3597" style="mask-type:luminance" maskUnits="userSpaceOnUse" x="-4" y="0" width="33" height="24">
<path d="M-3.9953 0H28.0016V24H-3.9953V0Z" fill="white"/>
</mask>
<g mask="url(#mask0_2214_3597)">
<path fill-rule="evenodd" clip-rule="evenodd" d="M-7.65155 0H31.5266V14.3672H-7.65155V0Z" fill="#E73E2D"/>
<path fill-rule="evenodd" clip-rule="evenodd" d="M9.62657 13.2235C8.7172 12.511 7.02032 12.7548 6.73907 10.8188C8.03751 11.8267 7.80314 10.7626 9.73907 11.7235L9.62657 13.2235Z" fill="#FEC74A" stroke="#D8AA3F" stroke-width="0.0796875"/>
<path fill-rule="evenodd" clip-rule="evenodd" d="M9.87027 12.3468C9.21871 11.3905 7.52652 11.0999 7.85465 9.17334C8.78746 10.528 8.8859 9.44053 10.4421 10.9499L9.87027 12.3468Z" fill="#FEC74A" stroke="#D8AA3F" stroke-width="0.0796875"/>
<path fill-rule="evenodd" clip-rule="evenodd" d="M10.1656 11.7188C9.93124 10.5891 8.47812 9.675 9.51874 8.01562C9.85624 9.62813 10.3625 8.6625 11.225 10.65L10.1656 11.7188Z" fill="#FEC74A" stroke="#D8AA3F" stroke-width="0.0796875"/>
<path fill-rule="evenodd" clip-rule="evenodd" d="M10.8453 11.1374C10.9719 9.98897 9.87032 8.67178 11.3656 7.41553C11.1969 9.05146 11.975 8.29209 12.1859 10.4437L10.8453 11.1374Z" fill="#FEC74A" stroke="#D8AA3F" stroke-width="0.0796875"/>
<path fill-rule="evenodd" clip-rule="evenodd" d="M11.4547 10.6735C12.036 9.6751 11.5719 8.0251 13.4516 7.49072C12.6266 8.91104 13.6485 8.53604 12.9594 10.5845L11.4547 10.6735Z" fill="#FEC74A" stroke="#D8AA3F" stroke-width="0.0796875"/>
<path fill-rule="evenodd" clip-rule="evenodd" d="M12.3312 10.7953C13.2031 10.0359 13.2875 8.32028 15.2375 8.40935C14.0047 9.49685 15.0969 9.46403 13.7844 11.1937L12.3312 10.7953Z" fill="#FEC74A" stroke="#D8AA3F" stroke-width="0.0796875"/>
<path fill-rule="evenodd" clip-rule="evenodd" d="M13.1094 11.2452C14.1641 10.7717 14.7453 9.15925 16.5828 9.8155C15.0828 10.4952 16.1375 10.7858 14.3797 12.0514L13.1094 11.2452Z" fill="#FEC74A" stroke="#D8AA3F" stroke-width="0.0796875"/>
<path fill-rule="evenodd" clip-rule="evenodd" d="M13.7609 11.9531C14.9047 11.7937 15.9172 10.4062 17.4969 11.5594C15.8703 11.7891 16.7937 12.3609 14.7547 13.0828L13.7609 11.9531Z" fill="#FEC74A" stroke="#D8AA3F" stroke-width="0.0796875"/>
<path fill-rule="evenodd" clip-rule="evenodd" d="M17.839 12.1687L12.5844 12.2859L12.8047 13.7015L17.839 12.1687Z" fill="#FEC74A" stroke="#D8AA3F" stroke-width="0.0796875"/>
<path fill-rule="evenodd" clip-rule="evenodd" d="M17.0656 10.2375L12.2 12.1079L13.0109 13.6688L17.0656 10.2375Z" fill="#FEC74A" stroke="#D8AA3F" stroke-width="0.0796875"/>
<path fill-rule="evenodd" clip-rule="evenodd" d="M13.2031 13.1578L15.7203 8.58276L11.8578 12.1781L13.2031 13.1578Z" fill="#FEC74A" stroke="#D8AA3F" stroke-width="0.0796875"/>
<path fill-rule="evenodd" clip-rule="evenodd" d="M13.1515 12.778L13.9578 7.6499L11.4359 12.2062L13.1515 12.778Z" fill="#FEC74A" stroke="#D8AA3F" stroke-width="0.0796875"/>
<path fill-rule="evenodd" clip-rule="evenodd" d="M12.8469 12.3609L12.0031 7.19531L11.0656 12.3844L12.8469 12.3609Z" fill="#FEC74A" stroke="#D8AA3F" stroke-width="0.0796875"/>
<path fill-rule="evenodd" clip-rule="evenodd" d="M12.4109 11.9204L9.95935 7.60791L10.8969 12.8485L12.4109 11.9204Z" fill="#FEC74A" stroke="#D8AA3F" stroke-width="0.0796875"/>
<path fill-rule="evenodd" clip-rule="evenodd" d="M12.0312 11.8875L8.22968 8.67651L10.9297 13.2703L12.0312 11.8875Z" fill="#FEC74A" stroke="#D8AA3F" stroke-width="0.0796875"/>
<path fill-rule="evenodd" clip-rule="evenodd" d="M6.89374 10.261L10.9719 13.6313L11.6 11.8688L6.89374 10.261Z" fill="#FEC74A" stroke="#D8AA3F" stroke-width="0.0796875"/>
<path fill-rule="evenodd" clip-rule="evenodd" d="M10.9297 12.2297L6.1344 12.1594L10.911 13.7532L10.9297 12.2297Z" fill="#FEC74A" stroke="#D8AA3F" stroke-width="0.0796875"/>
<path fill-rule="evenodd" clip-rule="evenodd" d="M14.8203 13.0874C14.836 13.4749 14.7732 13.8614 14.6357 14.224C14.4982 14.5865 14.2889 14.9176 14.0203 15.1972C13.7517 15.4769 13.4294 15.6994 13.0727 15.8514C12.716 16.0033 12.3323 16.0817 11.9445 16.0817C11.5568 16.0817 11.1731 16.0033 10.8163 15.8514C10.4596 15.6994 10.1373 15.4769 9.86874 15.1972C9.60016 14.9176 9.39085 14.5865 9.25337 14.224C9.1159 13.8614 9.05311 13.4749 9.06875 13.0874C9.09874 12.3448 9.41484 11.6426 9.95087 11.1278C10.4869 10.6129 11.2013 10.3254 11.9445 10.3254C12.6878 10.3254 13.4022 10.6129 13.9382 11.1278C14.4742 11.6426 14.7903 12.3448 14.8203 13.0874Z" fill="#FEC74A" stroke="#D8AA3F" stroke-width="0.0796875"/>
<path fill-rule="evenodd" clip-rule="evenodd" d="M-7.68904 14.2219H31.6813V24H-7.69373L-7.68904 14.2219Z" fill="#005989"/>
<path fill-rule="evenodd" clip-rule="evenodd" d="M-7.71251 21.2813C-6.98126 21.6188 -5.93126 22.4673 -4.80626 22.4673C-2.93126 22.4532 -2.88439 21.1829 -0.981262 21.2438C0.92655 21.2907 0.579675 22.6313 3.15311 22.6267C5.28124 22.6173 5.96561 21.0001 7.80311 21.1923C9.16249 21.122 9.71561 22.7251 11.8016 22.7485C13.9672 22.7954 14.7594 21.0001 16.1141 21.1501C17.5672 21.1501 18.0359 22.5938 20.0656 22.6032C22.6531 22.6173 23.1078 21.1032 24.7203 21.197C25.8734 21.1735 26.7828 22.3079 28.4703 22.336C29.8109 22.3595 30.9406 21.3423 31.7047 20.9767L31.7375 19.2517C30.9406 19.547 29.75 20.522 28.564 20.5313C26.8484 20.597 25.7937 19.4063 24.6031 19.4204C23.1781 19.4345 22.6109 20.8876 20.1969 20.8876C17.9844 20.8876 17.4781 19.4204 16.0531 19.4204C14.6609 19.4298 14.2344 21.0142 11.8203 20.986C9.85155 20.9626 9.08749 19.472 7.6953 19.486C6.21874 19.486 4.6953 20.9345 3.05468 20.8642C0.804676 20.7704 0.312489 19.486 -1.16407 19.486C-2.26564 19.486 -3.46095 20.686 -4.78751 20.7048C-6.10939 20.7282 -7.59532 19.5095 -7.73126 19.486L-7.71251 21.2813ZM-7.71251 17.8595C-6.98126 18.2017 -5.93126 19.0501 -4.80626 19.0501C-2.93126 19.036 -2.88439 17.7657 -0.981262 17.822C0.92655 17.8688 0.579675 19.2142 3.15311 19.2048C5.28124 19.2048 5.96561 17.5829 7.80311 17.7751C9.16249 17.7048 9.71561 19.3079 11.8016 19.3267C13.9672 19.3735 14.7594 17.5829 16.1141 17.7329C17.5672 17.7329 18.0359 19.1767 20.0656 19.186C22.6531 19.2001 23.1078 17.686 24.7203 17.7798C25.8734 17.7563 26.7828 18.8907 28.4703 18.9188C29.8109 18.9423 30.9406 17.9251 31.7047 17.5595L31.7375 15.8345C30.9406 16.1298 29.75 17.1001 28.564 17.1142C26.8484 17.1751 25.7937 15.9892 24.6031 16.0032C23.1781 16.0173 22.6109 17.4704 20.1969 17.4704C17.9844 17.4704 17.4781 16.0032 16.0531 16.0032C14.6609 16.0126 14.2344 17.597 11.8203 17.5688C9.85155 17.5454 9.08749 16.0548 7.6953 16.0688C6.21874 16.0688 4.6953 17.5126 3.05468 17.4423C0.804676 17.3485 0.312489 16.0642 -1.16407 16.0642C-2.26564 16.0642 -3.46095 17.2688 -4.78751 17.2876C-6.11407 17.3063 -7.59532 16.0923 -7.73126 16.0688L-7.71251 17.8642V17.8595Z" fill="white"/>
<path fill-rule="evenodd" clip-rule="evenodd" d="M-7.71251 14.4843C-6.98126 14.8218 -5.93126 15.6656 -4.81095 15.6656C-2.93595 15.6562 -2.88907 14.3812 -0.98595 14.4421C0.917175 14.489 0.5703 15.8296 3.14374 15.825C5.26718 15.8203 5.95624 14.1984 7.78436 14.3953C9.14374 14.325 9.69686 15.9281 11.7828 15.9468C13.9437 15.9937 14.7359 14.1984 16.0953 14.3484C17.539 14.3484 18.0172 15.7921 20.0422 15.8015C22.6203 15.8156 23.075 14.3015 24.6922 14.3953C25.8406 14.3718 26.75 15.5062 28.4328 15.5343C29.7781 15.5578 30.9031 14.5406 31.6672 14.175L31.7 12.45C30.9031 12.75 29.7172 13.7203 28.5266 13.7296C26.8203 13.7953 25.7609 12.6093 24.5703 12.6187C23.15 12.6328 22.5828 14.0859 20.164 14.0859C17.9609 14.0859 17.4547 12.6187 16.0297 12.6187C14.6375 12.6328 14.2109 14.2125 11.8062 14.1843C9.83749 14.1609 9.07343 12.675 7.68124 12.6843C6.20467 12.6843 4.68124 14.1328 3.04999 14.0625C0.7953 13.9687 0.3078 12.6843 -1.16876 12.6843C-2.27032 12.6843 -3.46095 13.8843 -4.78751 13.9031C-6.10939 13.9265 -7.59064 12.7125 -7.73126 12.6843L-7.71251 14.4796V14.4843Z" fill="white"/>
<path fill-rule="evenodd" clip-rule="evenodd" d="M6.46252 3.56245C9.3219 3.36558 8.80627 3.12183 9.95471 2.93433C11.4078 3.13589 11.5719 4.01245 12.3828 4.55151C12.3828 4.55151 12.0781 5.58276 11.0844 5.43745C10.9485 5.02495 11.5625 4.8937 9.79534 3.81558C8.76409 3.75464 6.9219 3.99839 6.46721 3.56245H6.46252ZM15.336 5.15151L13.2735 5.23589V5.74683C14.6656 5.7937 14.9141 5.6062 15.336 5.15151Z" fill="#FFC84B" stroke="#D8AA3F" stroke-width="0.084375"/>
<path fill-rule="evenodd" clip-rule="evenodd" d="M8.24377 5.0624C8.60471 4.87959 8.78284 4.95459 9.0969 4.94522C9.30784 5.33428 9.5094 5.36709 9.97815 5.41397C10.187 5.71999 10.4653 5.97216 10.7904 6.14979C11.1155 6.32742 11.4781 6.42545 11.8485 6.43584C13.25 6.39834 13.6953 5.41865 14.6375 5.31084H15.6313C15.4672 5.02959 15.336 4.86553 14.975 4.84678C14.2344 4.80928 13.2781 4.82803 12.4438 5.01553L11.2672 5.31084C10.9203 5.14209 10.0813 4.26084 9.54221 4.27959C9.22815 4.36397 9.22815 4.47178 9.07346 4.59365C8.76877 4.7249 8.46409 4.65928 8.24377 5.0624Z" fill="#FFC84B" stroke="#D8AA3F" stroke-width="0.0796875" stroke-linejoin="round"/>
<path fill-rule="evenodd" clip-rule="evenodd" d="M9.66405 4.64068C9.66791 4.66227 9.66699 4.68445 9.66135 4.70564C9.65572 4.72684 9.6455 4.74655 9.63142 4.76337C9.61734 4.78019 9.59974 4.79371 9.57987 4.803C9.56 4.81228 9.53833 4.81709 9.51639 4.81709C9.49446 4.81709 9.47279 4.81228 9.45292 4.803C9.43304 4.79371 9.41545 4.78019 9.40137 4.76337C9.38729 4.74655 9.37707 4.72684 9.37143 4.70564C9.3658 4.68445 9.36488 4.66227 9.36874 4.64068C9.37494 4.60603 9.39312 4.57466 9.42012 4.55206C9.44711 4.52947 9.48119 4.51709 9.51639 4.51709C9.5516 4.51709 9.58568 4.52947 9.61267 4.55206C9.63966 4.57466 9.65785 4.60603 9.66405 4.64068Z" fill="#FFC84B" stroke="#D8AA3F" stroke-width="0.0796875"/>
<path fill-rule="evenodd" clip-rule="evenodd" d="M10.625 5.05308C12.7297 2.51714 14.5672 2.82651 16.9672 2.65308C17.0469 2.94839 17.0141 3.38901 15.875 3.77808C14.3094 4.01245 11.511 5.66245 11.4969 5.66245C10.9766 5.63433 10.611 5.09058 10.625 5.05308Z" fill="#FFC84B" stroke="#D8AA3F" stroke-width="0.084375"/>
<path d="M14.9516 3.39844L16.5031 3.46875M14.7828 3.65625L15.9125 3.75" stroke="#D9A43E" stroke-width="0.084375" stroke-linecap="round"/>
</g>
</g>
</g>
<defs>
<clipPath id="clip0_2214_3597">
<path d="M0 12C0 5.37258 5.37258 0 12 0C18.6274 0 24 5.37258 24 12C24 18.6274 18.6274 24 12 24C5.37258 24 0 18.6274 0 12Z" fill="white"/>
</clipPath>
<clipPath id="clip1_2214_3597">
<rect width="32" height="24" fill="white" transform="translate(-4)"/>
</clipPath>
</defs>
</svg>
