<svg width="24" height="24" viewBox="0 0 24 24" fill="none" xmlns="http://www.w3.org/2000/svg">
<g clip-path="url(#clip0_3053_1887)">
<mask id="mask0_3053_1887" style="mask-type:luminance" maskUnits="userSpaceOnUse" x="0" y="0" width="33" height="24">
<path d="M0.000183105 0H32.0017V24H0.000183105V0Z" fill="white"/>
</mask>
<g mask="url(#mask0_3053_1887)">
<path fill-rule="evenodd" clip-rule="evenodd" d="M0.000183105 0H36.0002V12H15.9986L0.000183105 0Z" fill="#ED2939"/>
<path fill-rule="evenodd" clip-rule="evenodd" d="M0.000366211 24H36.0004V12H15.9988L0.000366211 24Z" fill="#002395"/>
<path fill-rule="evenodd" clip-rule="evenodd" d="M0.000183105 0L15.9986 12L0.000183105 24V0Z" fill="white"/>
<path d="M8.07695 9.05615L8.08164 8.86865C8.08164 8.86865 7.9832 8.70928 8.10039 8.54053C8.10039 8.54053 7.85195 8.40928 7.91289 8.20303C7.91289 8.20303 7.68789 8.14678 7.70195 7.90303C7.70195 7.90303 7.46758 7.88896 7.43945 7.68271C7.43945 7.68271 7.20039 7.72021 7.09258 7.52334C7.09258 7.52334 6.8582 7.57021 6.79258 7.40615C6.79258 7.40615 6.56289 7.48115 6.43164 7.28896C6.43164 7.28896 6.18789 7.3874 6.08945 7.20459C5.99102 7.3874 5.74727 7.28896 5.74727 7.28896C5.61602 7.48115 5.38633 7.40146 5.38633 7.40146C5.3207 7.56553 5.09102 7.51865 5.09102 7.51865C4.9832 7.72021 4.74414 7.67803 4.74414 7.67803C4.7207 7.88428 4.48164 7.90303 4.48164 7.90303C4.48841 7.96937 4.47138 8.03595 4.4336 8.0909C4.39583 8.14585 4.33975 8.18559 4.27539 8.20303C4.33633 8.40459 4.08789 8.53584 4.08789 8.53584C4.20977 8.70928 4.11133 8.86397 4.11133 8.86397L4.10664 9.0374L8.07695 9.05615Z" fill="#FFFF00"/>
<path d="M8.08269 9.05512V8.86708C8.08269 8.86708 7.98596 8.70591 8.10419 8.54474C8.10419 8.54474 7.85699 8.41043 7.9161 8.20629C7.9161 8.20629 7.69041 8.15256 7.70653 7.90544C7.70653 7.90544 7.46471 7.88932 7.43784 7.68517C7.43784 7.68517 7.20139 7.72277 7.09929 7.524C7.09929 7.524 6.86285 7.56698 6.79836 7.40581C6.79836 7.40581 6.56729 7.48639 6.43295 7.29299C6.43295 7.29299 6.19113 7.38969 6.0944 7.20703C5.9923 7.38969 5.75048 7.29299 5.75048 7.29299C5.62151 7.48102 5.39044 7.40043 5.39044 7.40043C5.32596 7.56698 5.09489 7.524 5.09489 7.524C4.98741 7.72277 4.74559 7.68517 4.74559 7.68517C4.7241 7.88394 4.48228 7.90006 4.48228 7.90006C4.49116 7.96577 4.47591 8.03247 4.43934 8.0878C4.40278 8.14312 4.34739 8.18331 4.28345 8.20091C4.33719 8.40506 4.09537 8.534 4.09537 8.534C4.21359 8.70592 4.11149 8.86708 4.11149 8.86708V9.039L8.08269 9.05512Z" stroke="black" stroke-width="0.0120894"/>
<path d="M7.9832 8.82197C7.35977 8.76103 6.64258 8.61103 6.08945 8.9251C5.71445 8.70478 5.19883 8.71885 4.7582 8.76103C4.51914 8.80791 4.23789 8.80791 3.98477 8.84541L3.94727 8.8501C3.49258 8.88291 3.08008 8.74697 2.68164 8.56885C2.81289 9.28135 2.94883 10.0079 3.01914 10.7532C3.16914 11.8595 2.49883 12.7829 2.76602 13.8751C2.93008 14.4001 3.50664 14.7048 4.03164 14.7657C4.53937 14.7978 5.04395 14.8683 5.54102 14.9767C5.62948 14.9985 5.71577 15.0283 5.79883 15.0657C5.9161 15.1169 6.02146 15.192 6.1082 15.286C6.38945 14.9907 6.81133 14.9063 7.21914 14.8642C7.95977 14.7751 8.87383 14.822 9.32852 14.1517V14.1142C9.57695 13.7392 9.54414 13.1767 9.43633 12.7548C9.42695 12.6095 9.38945 12.4782 9.36602 12.3376C8.91602 11.1423 9.30508 9.79697 9.49727 8.5876C9.25456 8.70962 8.99571 8.79643 8.72852 8.84541C8.51758 8.87353 8.2832 8.86416 8.07227 8.8501L7.97852 8.82666" fill="#FF0000"/>
<path d="M8.91601 12.2578C8.91601 12.3328 8.9582 12.3984 8.97226 12.4687C9.06132 12.9937 9.14101 13.6875 8.60663 14.0109C8.00663 14.3859 7.22851 14.2265 6.53945 14.4281C6.39882 14.4656 6.21132 14.5921 6.11757 14.6812C6.05195 14.639 5.99101 14.5781 5.91132 14.5406C5.34413 14.2406 4.60351 14.339 3.96601 14.175C3.64257 14.0765 3.30976 13.8234 3.22538 13.4953C3.01913 12.6328 3.51601 11.8968 3.45976 11.039C3.42226 10.3828 3.30976 9.75933 3.15976 9.14526C3.66132 9.37964 4.23788 9.41714 4.80038 9.30464C5.23425 9.225 5.68164 9.26552 6.09413 9.42183C6.30976 9.32808 6.56288 9.28589 6.79726 9.26245C7.2332 9.30933 7.70663 9.38433 8.16132 9.38433C8.46601 9.36558 8.74257 9.2812 9.00507 9.16401C8.85038 10.1765 8.5457 11.2359 8.91601 12.2578Z" fill="#80CFE1"/>
<path d="M8.01601 12.4594V11.5032H8.12851L6.67538 10.5657L6.6707 10.0735H6.81132L6.08007 9.55786L5.3582 10.0735H5.49882V10.5657L4.05038 11.5032H4.16757V12.4547H8.01601" fill="white"/>
<path d="M8.01807 12.4609V11.5046H8.13092L6.68001 10.5644L6.67464 10.0809H6.81435L6.08352 9.55444L5.35807 10.0756H5.49778L5.50316 10.5644L4.05225 11.5046H4.17047V12.4555H8.01807V12.4609Z" stroke="black" stroke-width="0.0483574"/>
<path d="M8.46599 13.711V14.0063H3.7738V13.7063H8.4613" fill="white"/>
<path d="M8.46955 13.7134V14.0089H3.77289V13.708H8.46955V13.7134Z" stroke="black" stroke-width="0.0483574"/>
<path d="M4.08318 13.6922V12.6844H4.27068L4.26131 13.7016L4.27068 12.6891L3.99881 12.6844V12.4641L8.18943 12.4735V12.6844H7.93631V13.7063L7.93162 12.6844H8.11912L8.1285 13.6969" fill="white"/>
<path d="M4.08457 13.6917V12.6817H4.27265L4.26191 13.7024L4.27265 12.6924L4.00397 12.6817V12.4668L8.19549 12.4722V12.6871H7.93755L7.94293 13.7078L7.93218 12.6871H8.12563L8.13101 13.6971" stroke="black" stroke-width="0.0483574"/>
<path d="M4.98737 13.4445V12.7407H4.41776V13.4391L4.982 13.4445" stroke="black" stroke-width="0.0483574"/>
<path d="M4.57898 12.886V13.2943H4.83692V12.886H4.57361M7.74412 13.4447L7.73875 12.7463H7.17988V13.4447H7.74412Z" stroke="black" stroke-width="0.0483574"/>
<path d="M7.33031 12.8909V13.2992H7.58825V12.8909H7.33031ZM7.73871 12.3V11.6016H7.17447V12.3H7.73871Z" stroke="black" stroke-width="0.0483574"/>
<path d="M7.32495 11.7464V12.1547H7.58289V11.7464H7.32495ZM4.982 12.2997V11.5959H4.41776V12.2944H4.982V12.2997Z" stroke="black" stroke-width="0.0483574"/>
<path d="M6.00303 12.2997V11.5959H5.43878V12.2944H6.00303M4.57361 11.741V12.1493H4.83155V11.741H4.57361Z" stroke="black" stroke-width="0.0483574"/>
<path d="M5.58917 11.741V12.1493H5.84711V11.741H5.58917ZM6.78752 12.2997V11.6013L6.22328 11.5959V12.2944L6.78752 12.2997Z" stroke="black" stroke-width="0.0483574"/>
<path d="M6.37375 11.7412V12.1495H6.63706V11.7412H6.37375Z" stroke="black" stroke-width="0.0483574"/>
<path d="M6.92382 12.0845L6.9332 13.7063H5.29726L5.29257 12.0845H6.91913" fill="white"/>
<path d="M5.28837 12.5472H6.93273M5.49257 13.7076V12.5579M6.73391 13.7076V12.5633M6.92736 12.0852L6.93273 13.7076H5.30449L5.29911 12.0852H6.92736ZM7.52385 11.3921L6.61031 10.726H5.57317L4.65964 11.3921H7.52385ZM5.65378 10.1672V10.5755H6.52433V10.1672H5.65378Z" stroke="black" stroke-width="0.0483574"/>
<path d="M6.08361 9.69458L6.56725 10.0384H5.60535L6.08898 9.69458M5.89015 10.2694V10.4736H6.28781V10.2694H5.89015Z" stroke="black" stroke-width="0.0483574"/>
<path d="M8.03476 9.46875C8.1707 9.46875 8.20351 10.0312 8.20351 10.3125C8.32538 10.35 8.5832 10.5141 8.70039 10.6594H7.37851C7.49101 10.5141 7.74882 10.35 7.86601 10.3172C7.86601 10.0359 7.89413 9.46406 8.03476 9.47344" fill="white"/>
<path d="M6.44374 12.1281H6.56196L6.52434 12.1979C6.52434 12.1979 6.58345 12.2677 6.52434 12.3537L6.55658 12.4074H6.44911L6.47598 12.3537C6.47598 12.3537 6.42224 12.257 6.47598 12.1925L6.44374 12.1334M8.03437 9.46875C8.17408 9.46875 8.20633 10.0328 8.20633 10.3176C8.32455 10.3498 8.58786 10.5164 8.70071 10.6614H7.37877C7.49162 10.5164 7.75493 10.3498 7.86778 10.3176C7.86778 10.0328 7.90002 9.46875 8.03437 9.46875ZM5.37436 12.1281H5.49258L5.46034 12.1925C5.46034 12.1925 5.51408 12.2677 5.46034 12.3537L5.49258 12.4074H5.37436L5.4066 12.3537C5.4066 12.3537 5.35286 12.257 5.4066 12.1925L5.37436 12.1281ZM5.61618 12.1281H5.7344L5.70216 12.1925C5.70216 12.1925 5.7559 12.2677 5.70216 12.3537L5.7344 12.4074H5.61618L5.64842 12.3537C5.64842 12.3537 5.59468 12.257 5.64842 12.1925L5.61618 12.1281ZM5.88487 12.1281H5.99771L5.96547 12.1925C5.96547 12.1925 6.01921 12.2677 5.96547 12.3537L5.99771 12.4074H5.88487L5.91173 12.3537C5.91173 12.3537 5.858 12.257 5.91173 12.1925L5.87949 12.1281H5.88487ZM6.18042 12.1281H6.29864L6.26103 12.1979C6.26103 12.1979 6.32014 12.2677 6.26103 12.3537L6.29327 12.4074H6.18042L6.21266 12.3537C6.21266 12.3537 6.15893 12.257 6.21266 12.1925L6.18042 12.1334V12.1281ZM6.70705 12.1334H6.82527L6.78766 12.1979C6.78766 12.1979 6.84677 12.2677 6.78766 12.3537L6.8199 12.4074H6.71242L6.73929 12.3537C6.73929 12.3537 6.68556 12.257 6.73929 12.1925L6.70705 12.1334Z" stroke="black" stroke-width="0.0483574"/>
<path d="M6.11756 15.7874C6.72693 15.7874 7.47693 15.6608 7.8285 15.4827L8.60193 15.4124L8.62068 16.3546C7.96443 16.7155 6.45506 16.7952 6.12225 16.7905C5.78943 16.7905 4.26131 16.7155 3.60037 16.3546L3.60975 15.4077L4.38318 15.478C4.93594 15.6921 5.52489 15.7971 6.11756 15.7874Z" fill="#FFFF00"/>
<path d="M6.12124 15.7867C6.73385 15.7867 7.4808 15.6631 7.83547 15.4805L8.60391 15.416L8.62004 16.3562C7.96981 16.7161 6.45441 16.7967 6.12661 16.7913C5.79344 16.7913 4.26192 16.7161 3.60095 16.3508L3.6117 15.4106L4.38552 15.4805C4.74019 15.6631 5.51401 15.7867 6.12124 15.7867Z" stroke="black" stroke-width="0.0120894"/>
<path d="M1.61293 11.7656L2.29262 11.9813L2.08637 13.0828L1.44418 13.1859C1.44418 13.1859 1.33637 12.6047 1.61293 11.7656Z" fill="#FFFF00"/>
<path d="M1.61812 11.7686L2.29521 11.9834L2.09101 13.0848L1.44616 13.1869C1.44616 13.1869 1.33868 12.6066 1.61812 11.7686Z" stroke="black" stroke-width="0.0120894"/>
<path d="M2.08631 13.0735L1.44412 13.186L1.85193 12.6047L2.08631 13.0735Z" fill="#7E7E7E"/>
<path d="M2.09087 13.0736L1.44601 13.181L1.85442 12.6062L2.09087 13.0736Z" stroke="black" stroke-width="0.0120894"/>
<path d="M1.20509 12.5625L1.86134 12.6094C1.8754 13.1625 1.94572 15.2813 4.47697 15.3984L4.39728 16.1719C1.31759 16.2 1.08322 13.5703 1.20978 12.5625" fill="#FFFF00"/>
<path d="M3.61696 16.3295L4.39078 16.1629M1.20952 12.5635L1.86512 12.6065C1.88124 13.1652 1.94573 15.2819 4.48214 15.4001L4.40153 16.1737C1.317 16.2059 1.08593 13.5735 1.20952 12.5635Z" stroke="black" stroke-width="0.0120894"/>
<path d="M10.566 11.7749L9.89099 11.9905L10.1066 13.0874L10.7535 13.1905C10.7535 13.1905 10.8566 12.614 10.566 11.7749Z" fill="#FFFF00"/>
<path d="M10.5707 11.7732L9.89359 11.9881L10.1085 13.0894L10.7534 13.1969C10.7534 13.1969 10.8609 12.6167 10.5707 11.7732Z" stroke="black" stroke-width="0.0120894"/>
<path d="M10.1066 13.0781L10.7488 13.1953L10.3363 12.614L10.1019 13.0781" fill="#7E7E7E"/>
<path d="M10.1085 13.0795L10.7533 13.1923L10.3396 12.6174L10.1085 13.0795Z" stroke="black" stroke-width="0.0120894"/>
<path d="M10.9832 12.5671L10.3269 12.614C10.3176 13.1671 10.266 15.2859 7.73474 15.4031L7.82849 16.1718C10.9082 16.2093 11.1191 13.575 10.9879 12.5671" fill="#FFFF00"/>
<path d="M8.60929 16.3292L7.83547 16.1681M10.9845 12.5686L10.3289 12.6116C10.3181 13.1703 10.2751 15.2924 7.73874 15.4052L7.82472 16.1734C10.9093 16.2111 11.1188 13.5786 10.9845 12.574V12.5686Z" stroke="black" stroke-width="0.0120894"/>
<path d="M5.70975 16.2517C5.691 16.2611 5.66287 16.2658 5.63943 16.2611L5.51756 16.2564L5.52693 16.1017L5.64881 16.1111C5.67225 16.1111 5.69568 16.1158 5.70506 16.1251C5.7285 16.1345 5.73787 16.158 5.73787 16.1908C5.73787 16.2189 5.72381 16.2376 5.70506 16.2517M5.5035 16.4861L5.51287 16.3033L5.6535 16.3126C5.70037 16.3173 5.73787 16.3033 5.76131 16.2798C5.78475 16.2611 5.79881 16.233 5.79881 16.1955C5.80116 16.1787 5.79986 16.1617 5.795 16.1455C5.79015 16.1293 5.78185 16.1144 5.77068 16.1017C5.74538 16.077 5.71218 16.0621 5.67693 16.0595L5.47068 16.0455L5.44256 16.4861H5.5035ZM5.94412 16.1251H6.09412L6.14568 16.1345C6.16912 16.1486 6.1785 16.1673 6.1785 16.2001C6.1785 16.2283 6.17381 16.247 6.15506 16.2611C6.13493 16.2718 6.11219 16.2767 6.08943 16.2751H5.94412V16.1251ZM5.94412 16.5095V16.322L6.08475 16.3267C6.10818 16.3267 6.13162 16.3267 6.141 16.3361C6.15975 16.3455 6.17381 16.3642 6.17381 16.3923V16.5001L6.18318 16.5142H6.25818V16.5048C6.25361 16.5024 6.24959 16.4991 6.24636 16.4951C6.24313 16.491 6.24078 16.4864 6.23943 16.4814C6.23639 16.4691 6.23482 16.4565 6.23475 16.4439V16.383C6.23475 16.3548 6.22537 16.3361 6.216 16.3267C6.2066 16.3138 6.19353 16.304 6.1785 16.2986C6.19725 16.2892 6.216 16.2751 6.22537 16.2611C6.23475 16.2423 6.24412 16.2236 6.24412 16.1955C6.24412 16.1486 6.22068 16.1111 6.1785 16.0923C6.15189 16.0806 6.12321 16.0742 6.09412 16.0736H5.88318V16.5142H5.94412M6.41287 16.4205C6.38475 16.3858 6.36834 16.3431 6.366 16.2986C6.366 16.2376 6.37537 16.1908 6.4035 16.158C6.41774 16.1425 6.43517 16.1302 6.45459 16.1222C6.47402 16.1141 6.49497 16.1103 6.516 16.1111C6.53635 16.1088 6.55696 16.1109 6.57639 16.1174C6.59582 16.1239 6.61361 16.1345 6.6285 16.1486C6.66131 16.1767 6.67537 16.2189 6.68006 16.2705C6.68368 16.316 6.6739 16.3616 6.65193 16.4017C6.6285 16.4392 6.591 16.4626 6.53475 16.4626C6.4785 16.4626 6.441 16.4533 6.40818 16.4205M6.33787 16.1439C6.31074 16.1908 6.29772 16.2445 6.30037 16.2986C6.30506 16.3642 6.32381 16.4205 6.366 16.458C6.3881 16.4796 6.41461 16.4963 6.44373 16.5068C6.47285 16.5173 6.50389 16.5214 6.53475 16.5189C6.56677 16.5185 6.59826 16.5107 6.62674 16.4961C6.65521 16.4814 6.67989 16.4604 6.69881 16.4345C6.732 16.3847 6.74842 16.3256 6.74568 16.2658C6.74405 16.2123 6.72421 16.1611 6.68943 16.1205C6.64725 16.0736 6.58631 16.0501 6.50662 16.0548C6.43162 16.0548 6.37537 16.0876 6.33787 16.1439ZM8.40037 15.5111C8.44725 15.5064 8.48475 15.5064 8.51756 15.5158C8.56443 15.5345 8.59725 15.5673 8.62068 15.6236L8.55975 15.633C8.54944 15.6062 8.52932 15.5844 8.5035 15.572C8.47383 15.5598 8.44124 15.5565 8.40975 15.5626C8.39078 15.5659 8.37268 15.5729 8.35655 15.5834C8.34043 15.5939 8.32662 15.6076 8.316 15.6236C8.29256 15.6564 8.28318 15.7033 8.29256 15.7642C8.29754 15.8099 8.31729 15.8527 8.34881 15.8861C8.37693 15.9142 8.41912 15.9236 8.47068 15.9189C8.50721 15.9138 8.54058 15.8955 8.56443 15.8673C8.59256 15.8392 8.59725 15.8017 8.58787 15.7501L8.44725 15.7736L8.44256 15.7267L8.63943 15.6939L8.67693 15.9283H8.63475L8.61131 15.8814L8.56443 15.9283C8.541 15.9517 8.50818 15.9611 8.47068 15.9705C8.41831 15.9797 8.3644 15.9679 8.32068 15.9376C8.29593 15.9184 8.27529 15.8944 8.26 15.867C8.2447 15.8396 8.23505 15.8094 8.23162 15.7783C8.22396 15.7464 8.22292 15.7134 8.22856 15.6811C8.23421 15.6489 8.24642 15.6181 8.26443 15.5908C8.28068 15.5681 8.30168 15.5492 8.32596 15.5354C8.35025 15.5217 8.37724 15.5134 8.40506 15.5111M8.84568 15.4783L8.98631 15.4267C9.00506 15.4173 9.02381 15.4173 9.03787 15.4173C9.066 15.4173 9.08475 15.4361 9.09412 15.4642C9.1035 15.4923 9.1035 15.5158 9.09412 15.5345C9.08006 15.5486 9.06131 15.5626 9.03318 15.572L8.90193 15.6189L8.84568 15.4783ZM8.98631 15.8392L8.92068 15.6658L9.05193 15.6189C9.06806 15.611 9.08557 15.6062 9.1035 15.6048C9.12693 15.6095 9.14568 15.6236 9.15975 15.6517L9.18787 15.7173L9.20193 15.7501L9.21131 15.7642L9.28162 15.7361V15.7267C9.26756 15.7267 9.25818 15.722 9.2535 15.708C9.24412 15.7033 9.23943 15.6892 9.23475 15.6751L9.21131 15.6189C9.20193 15.5955 9.18787 15.5814 9.1785 15.572C9.16372 15.5656 9.14774 15.5624 9.13162 15.5626L9.15975 15.5064C9.15975 15.4876 9.15975 15.4642 9.15037 15.4408C9.13162 15.3939 9.1035 15.3658 9.05662 15.3658C9.02627 15.364 8.99589 15.3688 8.96756 15.3798L8.77068 15.4501L8.93006 15.8626L8.98631 15.8439M9.50193 15.6236L9.2535 15.258L9.52537 15.0798L9.55818 15.1267L9.33318 15.2673L9.40818 15.3798L9.61912 15.2486L9.64725 15.2908L9.43631 15.422L9.52068 15.5486L9.75506 15.3986L9.78318 15.4455L9.50193 15.6236ZM9.72225 14.9767L9.79256 14.897C9.83006 14.8595 9.86287 14.8455 9.90037 14.8501C9.94256 14.8501 9.98006 14.8736 10.0222 14.9111C10.052 14.936 10.0746 14.9683 10.0879 15.0048C10.0972 15.033 10.0926 15.0564 10.0879 15.0798C10.0794 15.097 10.0683 15.1129 10.0551 15.1267L9.98475 15.2017L9.72225 14.9767ZM10.1019 15.1455C10.1535 15.0892 10.1629 15.033 10.1347 14.958C10.1151 14.9201 10.088 14.8866 10.0551 14.8595C10.0153 14.822 9.96417 14.7989 9.90975 14.7939C9.8535 14.7892 9.80662 14.808 9.76443 14.8548L9.64256 14.9861L9.98006 15.2814L10.1019 15.1501M10.3644 14.808L9.97537 14.5736L10.0082 14.5267L10.3972 14.7564L10.3644 14.8033M10.5191 14.5408L10.0972 14.372L10.2191 14.0767L10.2707 14.0955L10.1722 14.3392L10.2988 14.3861L10.3926 14.1658L10.4394 14.1845L10.3457 14.4095L10.4863 14.4658L10.5941 14.222L10.641 14.2408L10.5191 14.5408ZM10.7066 14.0251L10.266 13.9314L10.2847 13.8611L10.6926 13.7205L10.3316 13.6408L10.3457 13.5892L10.7863 13.683L10.7722 13.7486L10.3644 13.8892L10.7254 13.9689L10.7113 14.0251M10.6738 13.4626L10.6785 13.4064C10.7066 13.4064 10.7254 13.4064 10.7441 13.397C10.7769 13.3783 10.791 13.3455 10.8004 13.2986C10.803 13.2766 10.8014 13.2543 10.7957 13.233C10.7863 13.2001 10.7676 13.1767 10.7347 13.1767C10.7066 13.172 10.6879 13.1767 10.6785 13.1908C10.6644 13.2048 10.6551 13.2283 10.6457 13.2611L10.6222 13.3173C10.6129 13.3548 10.5988 13.383 10.5847 13.397C10.566 13.4251 10.5379 13.4345 10.5004 13.4298C10.4824 13.4289 10.4647 13.4242 10.4486 13.4162C10.4325 13.4081 10.4182 13.3968 10.4066 13.383C10.3785 13.3548 10.3691 13.3126 10.3738 13.2611C10.3785 13.2142 10.3926 13.1767 10.4207 13.1486C10.4441 13.1205 10.4816 13.1017 10.5332 13.1111L10.5285 13.1673C10.5051 13.1673 10.4816 13.1673 10.4722 13.1814C10.4441 13.1955 10.4301 13.2283 10.4254 13.2705C10.4254 13.3033 10.4254 13.3267 10.4441 13.3455C10.4582 13.3642 10.4722 13.3736 10.491 13.3736C10.5144 13.3736 10.5332 13.3736 10.5426 13.3548L10.5754 13.2751L10.5941 13.2142C10.6035 13.1861 10.6176 13.1673 10.6316 13.1486C10.6551 13.1251 10.6879 13.1158 10.7254 13.1158C10.7769 13.1205 10.8144 13.1439 10.8285 13.1814C10.8472 13.2189 10.8566 13.2564 10.8519 13.308C10.8493 13.3542 10.8292 13.3978 10.7957 13.4298C10.7629 13.458 10.7254 13.4673 10.6738 13.4626ZM1.50506 13.4345L1.51912 13.4908C1.491 13.4955 1.47225 13.5048 1.45818 13.5189C1.43475 13.5423 1.42537 13.5798 1.43475 13.6314C1.43797 13.651 1.4443 13.67 1.4535 13.6876C1.47225 13.7205 1.50037 13.7345 1.53318 13.7298C1.55662 13.7251 1.57068 13.7158 1.58006 13.697L1.59412 13.622V13.5611C1.59412 13.5236 1.6035 13.4908 1.60818 13.4767C1.62225 13.4486 1.65037 13.4298 1.68787 13.4205C1.72537 13.4158 1.76287 13.4205 1.791 13.4486C1.82381 13.4673 1.84256 13.5048 1.85193 13.5517C1.86105 13.5928 1.85609 13.6357 1.83787 13.6736C1.81912 13.7111 1.791 13.7298 1.73943 13.7392L1.73006 13.6876C1.74737 13.6814 1.7633 13.6719 1.77693 13.6595C1.80037 13.6361 1.80506 13.6033 1.80037 13.5611C1.791 13.5236 1.78162 13.5001 1.76287 13.4908C1.75503 13.4846 1.74596 13.4801 1.73626 13.4777C1.72656 13.4752 1.71646 13.4749 1.70662 13.4767C1.69628 13.4762 1.68608 13.4792 1.6776 13.4851C1.66912 13.4911 1.66284 13.4996 1.65975 13.5095L1.65506 13.5939L1.65037 13.6548C1.65018 13.681 1.64376 13.7067 1.63162 13.7298C1.62401 13.7451 1.61275 13.7582 1.59885 13.768C1.58494 13.7778 1.56883 13.784 1.55193 13.7861C1.50506 13.7955 1.45818 13.7814 1.43475 13.7486C1.4061 13.7169 1.38665 13.678 1.3785 13.6361C1.37317 13.613 1.3725 13.5891 1.37652 13.5658C1.38055 13.5424 1.38919 13.5201 1.40193 13.5001C1.41358 13.483 1.42886 13.4687 1.44668 13.4581C1.46451 13.4476 1.48444 13.4411 1.50506 13.4392M1.47693 14.0158L1.91287 13.8845L2.01131 14.1892L1.95975 14.208L1.87537 13.9595L1.74412 13.997L1.82381 14.2314L1.77225 14.2455L1.69725 14.0111L1.54725 14.058L1.63162 14.3111L1.58475 14.3251L1.47693 14.0158ZM1.66912 14.5455L2.06756 14.3345L2.11443 14.4095L1.83787 14.6955L2.23631 14.6298L2.2785 14.7001L1.88006 14.9111L1.85193 14.8642L2.08631 14.7376L2.1285 14.7189L2.18943 14.6861L1.791 14.7564L1.76287 14.7048L2.03475 14.4142L2.02068 14.4236L1.97381 14.447C1.96034 14.4559 1.94624 14.4637 1.93162 14.4705L1.69725 14.5923L1.66912 14.5455ZM2.40975 15.1314C2.391 15.1267 2.37225 15.1126 2.3535 15.0939L2.26912 15.0095L2.38162 14.9064L2.466 14.9908C2.48003 15.004 2.4912 15.0199 2.49881 15.0376C2.50818 15.0611 2.49881 15.0845 2.47537 15.108C2.45193 15.1267 2.4285 15.1361 2.40975 15.1314ZM2.091 15.1689L2.23162 15.0423L2.32537 15.1408C2.36287 15.1736 2.39568 15.1876 2.4285 15.1876C2.46331 15.1872 2.49672 15.1738 2.52225 15.1501C2.54592 15.1246 2.55928 15.0912 2.55975 15.0564C2.55975 15.0283 2.54568 14.9955 2.51756 14.9673L2.37693 14.8267L2.04881 15.1267L2.09568 15.1736M2.48943 15.5251L2.7285 15.1501L3.00975 15.3189L2.98162 15.3658L2.74725 15.2251L2.67693 15.3423L2.88787 15.4689L2.86443 15.5158L2.64881 15.3845L2.56912 15.5111L2.8035 15.6517L2.77537 15.6986L2.48943 15.5251ZM3.19256 15.4501L3.33787 15.497L3.38475 15.5205C3.4035 15.5392 3.40818 15.5626 3.39412 15.5908C3.38475 15.6189 3.37537 15.6376 3.35193 15.6423L3.28162 15.6376L3.14568 15.5908L3.19256 15.4501ZM3.07068 15.8205L3.13162 15.6423L3.26287 15.6845C3.28631 15.6892 3.30975 15.6986 3.31443 15.708C3.3285 15.722 3.33318 15.7455 3.3285 15.7736L3.30506 15.8439L3.30037 15.8767V15.8908L3.37068 15.9142V15.9048L3.36131 15.872L3.37068 15.8392L3.38943 15.783C3.39412 15.7548 3.39881 15.7361 3.38943 15.7267C3.38943 15.7126 3.37537 15.6986 3.36131 15.6845C3.38475 15.6845 3.40818 15.6751 3.42225 15.6611C3.43631 15.647 3.45037 15.6283 3.45506 15.6048C3.47381 15.558 3.46443 15.5158 3.42693 15.4876C3.40463 15.4692 3.37924 15.455 3.35193 15.4455L3.15037 15.3845L3.00975 15.8017L3.07068 15.8205Z" fill="#009FC5"/>
<path d="M3.68004 8.23118C3.72692 8.10461 4.20973 7.76243 5.78004 7.91243C5.78004 7.91243 6.04723 8.07649 6.20192 8.05305C6.29567 8.04368 6.15504 8.06243 6.03317 7.96399C5.91598 7.87024 5.89254 7.66868 6.15973 7.67805C6.4316 7.68274 7.43942 7.73899 7.45817 7.83274C7.47692 7.9218 6.92379 7.9593 6.72223 7.95461C6.51598 7.94993 6.53473 8.05305 6.74098 8.04836C7.38317 8.02024 8.0816 7.79524 8.81754 8.32024C8.9066 8.38118 8.59723 8.39055 8.35817 8.29211C8.35817 8.29211 7.70192 8.32493 7.42067 8.27805C7.42067 8.27805 7.20973 8.45618 6.92379 8.43743C6.96129 8.53118 6.82067 8.86868 5.93942 8.61086C5.78942 8.65774 5.25973 8.7468 5.31598 8.58743C5.17535 8.58743 4.9316 8.6343 4.8941 8.55461C4.8566 8.47493 5.32535 8.35774 5.40973 8.27336C5.40973 8.27336 4.41598 8.28274 4.22848 8.21243C4.22848 8.21243 3.64254 8.34368 3.68004 8.23118Z" fill="#BC715F"/>
<path d="M3.99884 9.61892C4.01759 9.5908 4.02696 9.53455 4.07384 9.53923C4.16759 9.56267 4.2379 9.74548 4.35509 9.6283C4.40196 9.61892 4.41603 9.67517 4.44884 9.68455C4.47228 9.78298 4.55665 9.66111 4.6129 9.67048C4.74415 9.61423 4.89884 9.60017 5.05353 9.62361C5.05353 9.72673 4.97853 9.83455 4.88478 9.8908C4.88478 9.98455 4.97853 10.0502 4.97384 10.1486C4.95978 10.1861 4.97384 10.2424 4.91759 10.2564C4.84259 10.2424 4.77696 10.2377 4.71603 10.1955C4.70665 10.1908 4.70196 10.1767 4.6879 10.1814C4.67853 10.2142 4.73478 10.247 4.75353 10.2799C4.71603 10.3408 4.65978 10.2845 4.60821 10.2845C4.59415 10.322 4.60821 10.3642 4.57071 10.3877C4.50978 10.3877 4.49571 10.3174 4.45821 10.2845C4.41603 10.3267 4.48634 10.3502 4.49571 10.383C4.46759 10.5142 4.47228 10.6408 4.34571 10.7252L4.25665 10.7674C4.23321 10.7017 4.24728 10.6033 4.23321 10.533C4.18634 10.6174 4.13946 10.6924 4.06915 10.7627C3.9754 10.7345 3.92853 10.6314 3.90978 10.5424C3.89066 10.4932 3.88624 10.4396 3.89706 10.388C3.90788 10.3364 3.93347 10.2891 3.97071 10.2517C3.94728 10.2049 3.85353 10.2142 3.83946 10.1392C3.69884 10.0455 3.62853 10.2939 3.53946 10.1674C3.52566 10.1048 3.52696 10.0399 3.54327 9.9779C3.55957 9.91594 3.5904 9.85877 3.63321 9.81111C3.60978 9.76423 3.54415 9.77361 3.50665 9.74548C3.42228 9.67048 3.29571 9.59548 3.30509 9.46423C3.42274 9.42164 3.55012 9.41358 3.6722 9.44099C3.79429 9.46839 3.90599 9.53013 3.99415 9.61892" fill="#008737"/>
<path d="M4.12076 9.60474C4.11608 9.71255 4.19107 9.63286 4.25201 9.69849C4.20514 9.67974 4.17232 9.77817 4.12545 9.72192L4.09733 9.75005C4.11608 9.78755 4.1442 9.79224 4.11608 9.83442C4.0692 9.85317 4.05514 9.78755 4.0317 9.76411C4.0317 9.75474 4.04108 9.73599 4.02233 9.72661C3.9942 9.75005 3.96608 9.75942 3.92858 9.75474C3.9192 9.73599 3.89576 9.70786 3.9192 9.68911C3.9567 9.64224 4.01295 9.70786 4.04107 9.67505C4.04576 9.64224 4.01764 9.60474 4.05514 9.5813C4.07857 9.58599 4.11139 9.57192 4.12076 9.60474ZM4.41139 9.6938C4.41607 9.71255 4.40201 9.74067 4.43014 9.75942C4.46764 9.74067 4.50514 9.75474 4.52389 9.78755C4.52389 9.8063 4.52857 9.83442 4.50514 9.8438L4.44889 9.82974C4.45358 9.82036 4.43482 9.81567 4.43014 9.80161C4.4067 9.79692 4.38795 9.81567 4.37389 9.82974C4.38795 9.84849 4.42076 9.86255 4.41139 9.88599C4.37857 9.9188 4.36451 9.85786 4.32701 9.87661C4.29889 9.86724 4.3317 9.81567 4.2942 9.79692C4.24732 9.79692 4.28014 9.87192 4.2192 9.8438C4.20045 9.82036 4.1817 9.78755 4.20045 9.76411C4.21433 9.75589 4.23049 9.75236 4.24653 9.75405C4.26258 9.75574 4.27765 9.76255 4.28951 9.77349C4.32701 9.7313 4.32701 9.5813 4.41607 9.6938M4.05045 9.84849C4.07389 9.88599 4.04108 9.93286 4.07389 9.97036C4.12076 9.87661 4.16764 9.98911 4.22389 9.97974C4.24264 10.0032 4.22858 10.0313 4.23326 10.0547C4.16295 10.0735 4.07857 10.0969 4.01764 10.0407L3.99889 10.0594C4.03639 10.0922 4.0692 10.1344 4.04107 10.1907C3.98951 10.2 3.90514 10.2047 3.8817 10.1485C3.86764 10.1016 3.91451 10.0735 3.86295 10.036C3.83014 10.0829 3.83014 10.1391 3.75982 10.0969C3.7397 10.086 3.72457 10.0677 3.71759 10.0458C3.7106 10.024 3.7123 10.0003 3.72232 9.97974C3.7692 9.90474 3.85357 9.97974 3.90045 9.94692C3.90982 9.8813 3.88639 9.82505 3.94732 9.79224C3.9942 9.78286 4.01764 9.82036 4.05045 9.84849Z" fill="#FFFF00"/>
<path d="M4.24725 9.89045C4.22382 9.99826 4.14413 9.88576 4.10663 9.88108C4.1535 9.78733 4.18632 9.9092 4.24725 9.89045ZM4.50038 10.0076C4.44413 10.0217 4.4535 9.95139 4.42538 9.92326L4.44882 9.90451C4.46757 9.92795 4.48163 9.97483 4.50038 10.0076Z" fill="white"/>
<path d="M4.42539 9.98448C4.43945 10.022 4.38789 10.0548 4.43477 10.0782L4.47227 10.0454C4.51445 10.0548 4.55664 10.0642 4.58477 10.1017C4.61289 10.1814 4.5332 10.1814 4.49102 10.2048H4.44414C4.45352 10.1767 4.4207 10.1673 4.41602 10.1579C4.40701 10.1547 4.39725 10.1544 4.38803 10.1569C4.37882 10.1594 4.37059 10.1647 4.36445 10.172C4.37383 10.2189 4.43477 10.2657 4.37383 10.3079C4.31758 10.3079 4.2332 10.3267 4.23789 10.2517C4.21914 10.2048 4.29414 10.1439 4.21445 10.1392C4.18633 10.2001 4.1582 10.2517 4.08789 10.2001L4.09727 10.1157C4.16289 10.1157 4.24258 10.1298 4.2707 10.0548C4.28945 10.0032 4.23789 9.95166 4.28477 9.91416C4.35508 9.89541 4.39258 9.94229 4.42539 9.98448Z" fill="#FFFF00"/>
<path d="M4.37853 10.106C4.39259 10.1482 4.3504 10.1529 4.32696 10.1717C4.29884 10.1717 4.28009 10.1623 4.26134 10.1435C4.24728 10.0967 4.28478 10.0873 4.30821 10.0685C4.34103 10.0545 4.35509 10.092 4.37853 10.106Z" fill="black"/>
<path d="M4.33633 10.1344C4.33164 10.1438 4.31758 10.1391 4.3082 10.1438L4.29883 10.0969C4.32227 10.0969 4.3457 10.1016 4.33633 10.1344Z" fill="white"/>
</g>
</g>
<defs>
<clipPath id="clip0_3053_1887">
<path d="M0 12C0 5.37258 5.37258 0 12 0C18.6274 0 24 5.37258 24 12C24 18.6274 18.6274 24 12 24C5.37258 24 0 18.6274 0 12Z" fill="white"/>
</clipPath>
</defs>
</svg>
