<svg width="24" height="24" viewBox="0 0 24 24" fill="none" xmlns="http://www.w3.org/2000/svg">
<g clip-path="url(#clip0_2214_3980)">
<g clip-path="url(#clip1_2214_3980)">
<path d="M-8 0H24V24H-8V0Z" fill="#20603D"/>
<path d="M-8 0H24V18H-8V0Z" fill="#FAD201"/>
<path d="M-8 0H24V12H-8V0Z" fill="#00A1DE"/>
<path d="M21.42 6.26991L18.74 6.42657L21.2867 7.27324L18.66 6.72991L20.9033 8.20325L18.5033 6.99658L20.2833 9.00659L18.28 7.22324L19.4867 9.62326L18.01 7.37991L18.55 10.0033L17.7067 7.45991L17.55 10.1399L17.5167 6.23657L21.42 6.26991Z" fill="#E5BE01"/>
<path d="M21.42 6.26989L18.74 6.11322L21.2867 5.26655L18.66 5.80989L20.9033 4.33655L18.5033 5.54322L20.2833 3.53321L18.28 5.31655L19.4867 2.91654L18.01 5.15988L18.55 2.53654L17.7067 5.07988L17.55 2.39987L17.5167 6.30322L21.42 6.26989Z" fill="#E5BE01"/>
<path d="M13.68 6.26991L16.36 6.42657L13.8134 7.27324L16.44 6.72991L14.1967 8.20325L16.5967 6.99658L14.8167 9.00659L16.82 7.22324L15.6134 9.62326L17.09 7.37991L16.55 10.0033L17.3934 7.45991L17.55 10.1399L17.5834 6.23657L13.68 6.26991Z" fill="#E5BE01"/>
<path d="M13.68 6.26989L16.36 6.11322L13.8134 5.26655L16.44 5.80989L14.1967 4.33655L16.5967 5.54322L14.8167 3.53321L16.82 5.31655L15.6134 2.91654L17.09 5.15988L16.55 2.53654L17.3934 5.07988L17.55 2.39987L17.5834 6.30322L13.68 6.26989Z" fill="#E5BE01"/>
<path d="M17.55 7.41314C18.1815 7.41314 18.6934 6.90125 18.6934 6.2698C18.6934 5.63836 18.1815 5.12646 17.55 5.12646C16.9186 5.12646 16.4067 5.63836 16.4067 6.2698C16.4067 6.90125 16.9186 7.41314 17.55 7.41314Z" fill="#E5BE01" stroke="#00A1DE" stroke-width="0.283335"/>
</g>
</g>
<defs>
<clipPath id="clip0_2214_3980">
<path d="M0 12C0 5.37258 5.37258 0 12 0C18.6274 0 24 5.37258 24 12C24 18.6274 18.6274 24 12 24C5.37258 24 0 18.6274 0 12Z" fill="white"/>
</clipPath>
<clipPath id="clip1_2214_3980">
<rect width="32" height="24" fill="white" transform="translate(-8)"/>
</clipPath>
</defs>
</svg>
