<svg width="24" height="24" viewBox="0 0 24 24" fill="none" xmlns="http://www.w3.org/2000/svg">
<g clip-path="url(#clip0_3053_1921)">
<g clip-path="url(#clip1_3053_1921)">
<path d="M-3.9 0H28.1V24H-3.9V0Z" fill="#000066"/>
<path d="M-3.9 0H12.1V12H-3.9V0Z" fill="#012169"/>
<path d="M-2.025 0L4.075 4.525L10.15 0H12.1V1.55L6.1 6.025L12.1 10.475V12H10.1L4.1 7.525L-1.875 12H-3.9V10.5L2.075 6.05L-3.9 1.6V0H-2.025Z" fill="white"/>
<path d="M6.7 7.025L12.1 11V12L5.325 7.025H6.7ZM2.1 7.525L2.25 8.4L-2.55 12H-3.9L2.1 7.525ZM12.1 0V0.075L5.875 4.775L5.925 3.675L10.85 0H12.1ZM-3.9 0L2.075 4.4H0.574998L-3.9 1.05V0Z" fill="#C8102E"/>
<path d="M2.125 0V12H6.125V0H2.125ZM-3.9 4V8H12.1V4H-3.9Z" fill="white"/>
<path d="M-3.9 4.825V7.225H12.1V4.825H-3.9ZM2.925 0V12H5.325V0H2.925Z" fill="#C8102E"/>
<path d="M14.0847 7.50193L21.685 7.47461L21.6698 14.2432C21.6698 14.2432 21.9369 15.2752 18.4828 16.8384C19.7242 16.7109 21.078 15.3875 21.078 15.3875C21.078 15.3875 21.6273 14.6803 21.8975 15.0749C22.1646 15.4695 22.4165 15.6698 22.6138 15.8246C22.8111 15.9764 22.9659 16.4013 22.6715 16.7109C22.374 17.0236 21.9096 17.063 21.7821 16.6836C21.5848 16.7838 20.3738 18.2498 17.8909 18.3196C15.3656 18.2771 13.9845 16.6684 13.9845 16.6684C13.9845 16.6684 13.6476 17.2057 13.165 16.7838C12.7006 16.2313 13.0527 15.8793 13.0527 15.8793C13.0527 15.8793 13.4473 15.6546 13.5626 15.4998C13.7448 15.2874 13.8024 15.0051 14.109 15.0051C14.4793 15.0355 14.6189 15.3299 14.6189 15.3299C14.6189 15.3299 15.8877 16.6684 17.2566 16.8384C14.1697 15.3572 14.0544 14.4405 14.0695 14.2159L14.0847 7.50496V7.50193Z" fill="white"/>
<path d="M14.2671 7.68727L21.5153 7.64478V14.1585C21.5305 15.0083 20.1039 15.8673 17.876 16.9661C15.5783 15.7823 14.2519 15.063 14.2397 14.1433L14.2671 7.68727Z" fill="#006129" stroke="black" stroke-width="0.0736221"/>
<path d="M15.2534 8.64856L15.6783 8.02026L16.1124 8.6516" stroke="#FFC72C" stroke-width="0.0736221"/>
<path d="M15.7664 8.41214C15.7664 8.43468 15.7574 8.45629 15.7415 8.47223C15.7255 8.48817 15.7039 8.49712 15.6814 8.49712C15.6588 8.49712 15.6372 8.48817 15.6213 8.47223C15.6053 8.45629 15.5964 8.43468 15.5964 8.41214C15.5964 8.3896 15.6053 8.36798 15.6213 8.35204C15.6372 8.3361 15.6588 8.32715 15.6814 8.32715C15.7039 8.32715 15.7255 8.3361 15.7415 8.35204C15.7574 8.36798 15.7664 8.3896 15.7664 8.41214Z" fill="#FFC72C" stroke="black" stroke-width="0.0348736"/>
<path d="M15.3325 9.11337H15.9972C15.9972 9.11337 16.0063 9.02838 15.9274 8.97678C16.2764 8.92822 16.1854 8.62469 16.4737 8.60648C16.5344 8.61558 16.3219 8.73699 16.3219 8.73699C16.3219 8.73699 16.1489 8.85841 16.2309 8.92215C16.2916 8.97375 16.3219 8.89179 16.328 8.83109C16.3371 8.77038 16.6103 8.73092 16.5708 8.55791C16.5071 8.41526 16.1247 8.65504 16.1247 8.65504L15.8515 8.65201C15.8333 8.62165 15.7604 8.50024 15.6815 8.50024C15.5905 8.50024 15.5237 8.65201 15.5237 8.65201H14.9075C14.9075 8.65201 14.8863 8.81288 15.1989 8.84323C15.2687 8.93429 15.3233 8.95857 15.3871 8.98285C15.3446 9.01624 15.3325 9.05873 15.3325 9.11337ZM15.381 8.97982H15.9334H15.381Z" fill="#FFC72C"/>
<path d="M15.381 8.97982H15.9334M15.3325 9.11337H15.9972C15.9972 9.11337 16.0063 9.02838 15.9274 8.97678C16.2764 8.92822 16.1854 8.62469 16.4737 8.60648C16.5344 8.61558 16.3219 8.73699 16.3219 8.73699C16.3219 8.73699 16.1489 8.85841 16.2309 8.92215C16.2916 8.97375 16.3219 8.89179 16.328 8.83109C16.3371 8.77038 16.6103 8.73092 16.5708 8.55791C16.5071 8.41526 16.1247 8.65504 16.1247 8.65504L15.8515 8.65201C15.8333 8.62165 15.7604 8.50024 15.6815 8.50024C15.5905 8.50024 15.5237 8.65201 15.5237 8.65201H14.9075C14.9075 8.65201 14.8863 8.81288 15.1989 8.84323C15.2687 8.93429 15.3233 8.95857 15.3871 8.98285C15.3446 9.01624 15.3325 9.05873 15.3325 9.11337Z" stroke="black" stroke-width="0.0348736"/>
<path d="M15.1289 8.65479C15.1289 8.65479 15.1714 8.91278 15.3778 8.97349L15.1289 8.65479Z" fill="#FFC72C"/>
<path d="M15.1289 8.65479C15.1289 8.65479 15.1714 8.91278 15.3778 8.97349" stroke="black" stroke-width="0.0348736"/>
<path d="M15.0957 8.64889C15.1139 8.55176 15.1533 8.53355 15.1928 8.40607C15.1989 8.28465 15.0957 8.29983 15.126 8.22395C15.1807 8.13593 15.1533 8.05397 15.0501 7.99023C15.0714 8.10254 14.9166 8.20877 14.9166 8.29983C14.9166 8.39089 14.9955 8.37268 14.9864 8.5123C14.9925 8.59122 14.9652 8.573 14.956 8.64889H15.0957Z" fill="url(#paint0_linear_3053_1921)" stroke="black" stroke-width="0.0348736"/>
<path d="M15.7604 8.03863C15.7604 8.05956 15.7521 8.07964 15.7373 8.09444C15.7225 8.10924 15.7024 8.11755 15.6815 8.11755C15.6606 8.11755 15.6405 8.10924 15.6257 8.09444C15.6109 8.07964 15.6026 8.05956 15.6026 8.03863C15.6026 8.0177 15.6109 7.99763 15.6257 7.98283C15.6405 7.96803 15.6606 7.95972 15.6815 7.95972C15.7024 7.95972 15.7225 7.96803 15.7373 7.98283C15.7521 7.99763 15.7604 8.0177 15.7604 8.03863Z" fill="#FFC72C" stroke="black" stroke-width="0.0348736"/>
<path d="M15.229 9.90345L15.654 9.27515L16.088 9.90648" stroke="#FFC72C" stroke-width="0.0736221"/>
<path d="M15.7418 9.66702C15.7418 9.68956 15.7328 9.71118 15.7169 9.72711C15.701 9.74305 15.6793 9.75201 15.6568 9.75201C15.6343 9.75201 15.6126 9.74305 15.5967 9.72711C15.5808 9.71118 15.5718 9.68956 15.5718 9.66702C15.5718 9.64448 15.5808 9.62286 15.5967 9.60692C15.6126 9.59099 15.6343 9.58203 15.6568 9.58203C15.6793 9.58203 15.701 9.59099 15.7169 9.60692C15.7328 9.62286 15.7418 9.64448 15.7418 9.66702Z" fill="#FFC72C" stroke="black" stroke-width="0.0348736"/>
<path d="M15.3079 10.3683H15.9726C15.9726 10.3683 15.9817 10.2833 15.9028 10.2317C16.2518 10.1831 16.1608 9.87957 16.4491 9.86136C16.5098 9.87047 16.2974 9.99188 16.2974 9.99188C16.2974 9.99188 16.1244 10.1133 16.2063 10.177C16.267 10.2286 16.2974 10.1467 16.3034 10.086C16.3126 10.0253 16.5857 9.98581 16.5463 9.8128C16.4825 9.67014 16.1001 9.90993 16.1001 9.90993L15.8269 9.90689C15.8087 9.87654 15.7359 9.75513 15.6569 9.75513C15.5659 9.75513 15.4991 9.90689 15.4991 9.90689H14.8829C14.8829 9.90689 14.8617 10.0678 15.1743 10.0981C15.2441 10.1892 15.2988 10.2135 15.3625 10.2377C15.32 10.2711 15.3079 10.3136 15.3079 10.3683ZM15.3564 10.2347H15.9089H15.3564Z" fill="#FFC72C"/>
<path d="M15.3564 10.2347H15.9089M15.3079 10.3683H15.9726C15.9726 10.3683 15.9817 10.2833 15.9028 10.2317C16.2518 10.1831 16.1608 9.87957 16.4491 9.86136C16.5098 9.87047 16.2974 9.99188 16.2974 9.99188C16.2974 9.99188 16.1244 10.1133 16.2063 10.177C16.267 10.2286 16.2974 10.1467 16.3034 10.086C16.3126 10.0253 16.5857 9.98581 16.5463 9.8128C16.4825 9.67014 16.1001 9.90993 16.1001 9.90993L15.8269 9.90689C15.8087 9.87654 15.7359 9.75513 15.6569 9.75513C15.5659 9.75513 15.4991 9.90689 15.4991 9.90689H14.8829C14.8829 9.90689 14.8617 10.0678 15.1743 10.0981C15.2441 10.1892 15.2988 10.2135 15.3625 10.2377C15.32 10.2711 15.3079 10.3136 15.3079 10.3683Z" stroke="black" stroke-width="0.0348736"/>
<path d="M15.1045 9.90967C15.1045 9.90967 15.147 10.1677 15.3534 10.2284L15.1045 9.90967Z" fill="#FFC72C"/>
<path d="M15.1045 9.90967C15.1045 9.90967 15.147 10.1677 15.3534 10.2284" stroke="black" stroke-width="0.0348736"/>
<path d="M15.0712 9.90377C15.0894 9.80664 15.1289 9.78843 15.1683 9.66095C15.1744 9.53954 15.0712 9.55471 15.1016 9.47883C15.1562 9.39081 15.1289 9.30886 15.0257 9.24512C15.0469 9.35742 14.8921 9.46366 14.8921 9.55471C14.8921 9.64577 14.971 9.62756 14.9619 9.76718C14.968 9.8461 14.9407 9.82789 14.9316 9.90377H15.0712Z" fill="url(#paint1_linear_3053_1921)" stroke="black" stroke-width="0.0348736"/>
<path d="M15.736 9.29352C15.736 9.31445 15.7277 9.33452 15.7129 9.34932C15.6981 9.36412 15.678 9.37243 15.6571 9.37243C15.6361 9.37243 15.6161 9.36412 15.6013 9.34932C15.5865 9.33452 15.5781 9.31445 15.5781 9.29352C15.5781 9.27259 15.5865 9.25251 15.6013 9.23771C15.6161 9.22291 15.6361 9.2146 15.6571 9.2146C15.678 9.2146 15.6981 9.22291 15.7129 9.23771C15.7277 9.25251 15.736 9.27259 15.736 9.29352Z" fill="#FFC72C" stroke="black" stroke-width="0.0348736"/>
<path d="M15.22 11.1383L15.645 10.51L16.079 11.1413" stroke="#FFC72C" stroke-width="0.0736221"/>
<path d="M15.7331 10.9021C15.7331 10.9247 15.7242 10.9463 15.7082 10.9622C15.6923 10.9782 15.6707 10.9871 15.6482 10.9871C15.6256 10.9871 15.604 10.9782 15.5881 10.9622C15.5721 10.9463 15.5632 10.9247 15.5632 10.9021C15.5632 10.8796 15.5721 10.858 15.5881 10.842C15.604 10.8261 15.6256 10.8171 15.6482 10.8171C15.6707 10.8171 15.6923 10.8261 15.7082 10.842C15.7242 10.858 15.7331 10.8796 15.7331 10.9021Z" fill="#FFC72C" stroke="black" stroke-width="0.0348736"/>
<path d="M15.2991 11.6031H15.9638C15.9638 11.6031 15.9729 11.5181 15.894 11.4665C16.2431 11.418 16.152 11.1144 16.4404 11.0962C16.5011 11.1053 16.2886 11.2267 16.2886 11.2267C16.2886 11.2267 16.1156 11.3482 16.1976 11.4119C16.2583 11.4635 16.2886 11.3815 16.2947 11.3208C16.3038 11.2601 16.577 11.2207 16.5375 11.0477C16.4738 10.905 16.0913 11.1448 16.0913 11.1448L15.8181 11.1418C15.7999 11.1114 15.7271 10.99 15.6482 10.99C15.5571 10.99 15.4903 11.1418 15.4903 11.1418H14.8742C14.8742 11.1418 14.8529 11.3026 15.1656 11.333C15.2354 11.424 15.29 11.4483 15.3537 11.4726C15.3113 11.506 15.2991 11.5485 15.2991 11.6031ZM15.3477 11.4696H15.9001H15.3477Z" fill="#FFC72C"/>
<path d="M15.3477 11.4696H15.9001M15.2991 11.6031H15.9638C15.9638 11.6031 15.9729 11.5181 15.894 11.4665C16.2431 11.418 16.152 11.1144 16.4404 11.0962C16.5011 11.1053 16.2886 11.2267 16.2886 11.2267C16.2886 11.2267 16.1156 11.3482 16.1976 11.4119C16.2583 11.4635 16.2886 11.3815 16.2947 11.3208C16.3038 11.2601 16.577 11.2207 16.5375 11.0477C16.4738 10.905 16.0913 11.1448 16.0913 11.1448L15.8181 11.1418C15.7999 11.1114 15.7271 10.99 15.6482 10.99C15.5571 10.99 15.4903 11.1418 15.4903 11.1418H14.8742C14.8742 11.1418 14.8529 11.3026 15.1656 11.333C15.2354 11.424 15.29 11.4483 15.3537 11.4726C15.3113 11.506 15.2991 11.5485 15.2991 11.6031Z" stroke="black" stroke-width="0.0348736"/>
<path d="M15.0957 11.1448C15.0957 11.1448 15.1382 11.4028 15.3446 11.4635L15.0957 11.1448Z" fill="#FFC72C"/>
<path d="M15.0957 11.1448C15.0957 11.1448 15.1382 11.4028 15.3446 11.4635" stroke="black" stroke-width="0.0348736"/>
<path d="M15.0623 11.1386C15.0805 11.0415 15.12 11.0233 15.1595 10.8958C15.1655 10.7744 15.0623 10.7896 15.0927 10.7137C15.1473 10.6257 15.12 10.5437 15.0168 10.48C15.038 10.5923 14.8832 10.6985 14.8832 10.7896C14.8832 10.8806 14.9622 10.8624 14.9531 11.002C14.9591 11.081 14.9318 11.0628 14.9227 11.1386H15.0623Z" fill="url(#paint2_linear_3053_1921)" stroke="black" stroke-width="0.0348736"/>
<path d="M15.7272 10.5286C15.7272 10.5496 15.7189 10.5696 15.7041 10.5844C15.6893 10.5992 15.6692 10.6075 15.6483 10.6075C15.6274 10.6075 15.6073 10.5992 15.5925 10.5844C15.5777 10.5696 15.5694 10.5496 15.5694 10.5286C15.5694 10.5077 15.5777 10.4876 15.5925 10.4728C15.6073 10.458 15.6274 10.4497 15.6483 10.4497C15.6692 10.4497 15.6893 10.458 15.7041 10.4728C15.7189 10.4876 15.7272 10.5077 15.7272 10.5286Z" fill="#FFC72C" stroke="black" stroke-width="0.0348736"/>
<path d="M16.0304 12.4769L16.4554 11.8486L16.8894 12.48" stroke="#FFC72C" stroke-width="0.0736221"/>
<path d="M16.5434 12.2405C16.5434 12.263 16.5345 12.2847 16.5185 12.3006C16.5026 12.3165 16.481 12.3255 16.4584 12.3255C16.4359 12.3255 16.4143 12.3165 16.3983 12.3006C16.3824 12.2847 16.3734 12.263 16.3734 12.2405C16.3734 12.218 16.3824 12.1963 16.3983 12.1804C16.4143 12.1645 16.4359 12.1555 16.4584 12.1555C16.481 12.1555 16.5026 12.1645 16.5185 12.1804C16.5345 12.1963 16.5434 12.218 16.5434 12.2405Z" fill="#FFC72C" stroke="black" stroke-width="0.0348736"/>
<path d="M16.1095 12.9417H16.7742C16.7742 12.9417 16.7833 12.8567 16.7044 12.8052C17.0535 12.7566 16.9624 12.4531 17.2508 12.4348C17.3115 12.444 17.099 12.5654 17.099 12.5654C17.099 12.5654 16.926 12.6868 17.0079 12.7505C17.0686 12.8021 17.099 12.7202 17.1051 12.6595C17.1142 12.5988 17.3873 12.5593 17.3479 12.3863C17.2841 12.2436 16.9017 12.4834 16.9017 12.4834L16.6285 12.4804C16.6103 12.45 16.5375 12.3286 16.4586 12.3286C16.3675 12.3286 16.3007 12.4804 16.3007 12.4804H15.6846C15.6846 12.4804 15.6633 12.6412 15.9759 12.6716C16.0458 12.7627 16.1004 12.7869 16.1641 12.8112C16.1216 12.8446 16.1095 12.8871 16.1095 12.9417ZM16.1581 12.8082H16.7105H16.1581Z" fill="#FFC72C"/>
<path d="M16.1581 12.8082H16.7105M16.1095 12.9417H16.7742C16.7742 12.9417 16.7833 12.8567 16.7044 12.8052C17.0535 12.7566 16.9624 12.4531 17.2508 12.4348C17.3115 12.444 17.099 12.5654 17.099 12.5654C17.099 12.5654 16.926 12.6868 17.0079 12.7505C17.0686 12.8021 17.099 12.7202 17.1051 12.6595C17.1142 12.5988 17.3873 12.5593 17.3479 12.3863C17.2841 12.2436 16.9017 12.4834 16.9017 12.4834L16.6285 12.4804C16.6103 12.45 16.5375 12.3286 16.4586 12.3286C16.3675 12.3286 16.3007 12.4804 16.3007 12.4804H15.6846C15.6846 12.4804 15.6633 12.6412 15.9759 12.6716C16.0458 12.7627 16.1004 12.7869 16.1641 12.8112C16.1216 12.8446 16.1095 12.8871 16.1095 12.9417Z" stroke="black" stroke-width="0.0348736"/>
<path d="M15.906 12.4832C15.906 12.4832 15.9485 12.7412 16.1549 12.8019L15.906 12.4832Z" fill="#FFC72C"/>
<path d="M15.906 12.4832C15.906 12.4832 15.9485 12.7412 16.1549 12.8019" stroke="black" stroke-width="0.0348736"/>
<path d="M15.8727 12.4773C15.8909 12.3801 15.9304 12.3619 15.9698 12.2344C15.9759 12.113 15.8727 12.1282 15.9031 12.0523C15.9577 11.9643 15.9304 11.8823 15.8272 11.8186C15.8484 11.9309 15.6936 12.0371 15.6936 12.1282C15.6936 12.2193 15.7726 12.201 15.7634 12.3407C15.7695 12.4196 15.7422 12.4014 15.7331 12.4773H15.8727Z" fill="url(#paint3_linear_3053_1921)" stroke="black" stroke-width="0.0348736"/>
<path d="M16.5375 11.867C16.5375 11.8879 16.5292 11.908 16.5144 11.9228C16.4996 11.9376 16.4795 11.9459 16.4586 11.9459C16.4376 11.9459 16.4176 11.9376 16.4028 11.9228C16.388 11.908 16.3796 11.8879 16.3796 11.867C16.3796 11.8461 16.388 11.826 16.4028 11.8112C16.4176 11.7964 16.4376 11.7881 16.4586 11.7881C16.4795 11.7881 16.4996 11.7964 16.5144 11.8112C16.5292 11.826 16.5375 11.8461 16.5375 11.867Z" fill="#FFC72C" stroke="black" stroke-width="0.0348736"/>
<path d="M15.1141 13.5736L15.5391 12.9453L15.9731 13.5766" stroke="#FFC72C" stroke-width="0.0736221"/>
<path d="M15.627 13.3367C15.627 13.3592 15.618 13.3809 15.6021 13.3968C15.5862 13.4127 15.5645 13.4217 15.542 13.4217C15.5195 13.4217 15.4978 13.4127 15.4819 13.3968C15.466 13.3809 15.457 13.3592 15.457 13.3367C15.457 13.3142 15.466 13.2925 15.4819 13.2766C15.4978 13.2607 15.5195 13.2517 15.542 13.2517C15.5645 13.2517 15.5862 13.2607 15.6021 13.2766C15.618 13.2925 15.627 13.3142 15.627 13.3367Z" fill="#FFC72C" stroke="black" stroke-width="0.0348736"/>
<path d="M15.1927 14.0379H15.8574C15.8574 14.0379 15.8665 13.9529 15.7876 13.9013C16.1367 13.8528 16.0456 13.5493 16.334 13.531C16.3947 13.5401 16.1822 13.6616 16.1822 13.6616C16.1822 13.6616 16.0092 13.783 16.0912 13.8467C16.1519 13.8983 16.1822 13.8164 16.1883 13.7556C16.1974 13.6949 16.4706 13.6555 16.4311 13.4825C16.3674 13.3398 15.9849 13.5796 15.9849 13.5796L15.7117 13.5766C15.6935 13.5462 15.6207 13.4248 15.5418 13.4248C15.4507 13.4248 15.3839 13.5766 15.3839 13.5766H14.7678C14.7678 13.5766 14.7465 13.7374 15.0592 13.7678C15.129 13.8588 15.1836 13.8831 15.2474 13.9074C15.2049 13.9408 15.1927 13.9833 15.1927 14.0379ZM15.2413 13.9044H15.7937H15.2413Z" fill="#FFC72C"/>
<path d="M15.2413 13.9044H15.7937M15.1927 14.0379H15.8574C15.8574 14.0379 15.8665 13.9529 15.7876 13.9013C16.1367 13.8528 16.0456 13.5493 16.334 13.531C16.3947 13.5401 16.1822 13.6616 16.1822 13.6616C16.1822 13.6616 16.0092 13.783 16.0912 13.8467C16.1519 13.8983 16.1822 13.8164 16.1883 13.7556C16.1974 13.6949 16.4706 13.6555 16.4311 13.4825C16.3674 13.3398 15.9849 13.5796 15.9849 13.5796L15.7117 13.5766C15.6935 13.5462 15.6207 13.4248 15.5418 13.4248C15.4507 13.4248 15.3839 13.5766 15.3839 13.5766H14.7678C14.7678 13.5766 14.7465 13.7374 15.0592 13.7678C15.129 13.8588 15.1836 13.8831 15.2474 13.9074C15.2049 13.9408 15.1927 13.9833 15.1927 14.0379Z" stroke="black" stroke-width="0.0348736"/>
<path d="M14.9895 13.5793C14.9895 13.5793 15.032 13.8373 15.2384 13.898L14.9895 13.5793Z" fill="#FFC72C"/>
<path d="M14.9895 13.5793C14.9895 13.5793 15.032 13.8373 15.2384 13.898" stroke="black" stroke-width="0.0348736"/>
<path d="M14.956 13.5734C14.9743 13.4763 15.0137 13.4581 15.0532 13.3306C15.0592 13.2092 14.956 13.2244 14.9864 13.1485C15.041 13.0605 15.0137 12.9785 14.9105 12.9148C14.9318 13.0271 14.777 13.1333 14.777 13.2244C14.777 13.3154 14.8559 13.2972 14.8468 13.4369C14.8529 13.5158 14.8255 13.4976 14.8164 13.5734H14.956Z" fill="url(#paint4_linear_3053_1921)" stroke="black" stroke-width="0.0348736"/>
<path d="M15.6208 12.9632C15.6208 12.9841 15.6125 13.0042 15.5977 13.019C15.5829 13.0338 15.5628 13.0421 15.5419 13.0421C15.521 13.0421 15.5009 13.0338 15.4861 13.019C15.4713 13.0042 15.463 12.9841 15.463 12.9632C15.463 12.9423 15.4713 12.9222 15.4861 12.9074C15.5009 12.8926 15.521 12.8843 15.5419 12.8843C15.5628 12.8843 15.5829 12.8926 15.5977 12.9074C15.6125 12.9222 15.6208 12.9423 15.6208 12.9632Z" fill="#FFC72C" stroke="black" stroke-width="0.0348736"/>
<path d="M15.138 14.8649L15.5629 14.2366L15.997 14.8679" stroke="#FFC72C" stroke-width="0.0736221"/>
<path d="M15.651 14.628C15.651 14.6505 15.642 14.6721 15.6261 14.6881C15.6101 14.704 15.5885 14.7129 15.566 14.7129C15.5434 14.7129 15.5218 14.704 15.5059 14.6881C15.49 14.6721 15.481 14.6505 15.481 14.628C15.481 14.6054 15.49 14.5838 15.5059 14.5679C15.5218 14.5519 15.5434 14.543 15.566 14.543C15.5885 14.543 15.6101 14.5519 15.6261 14.5679C15.642 14.5838 15.651 14.6054 15.651 14.628Z" fill="#FFC72C" stroke="black" stroke-width="0.0348736"/>
<path d="M15.2171 15.3292H15.8818C15.8818 15.3292 15.8909 15.2442 15.812 15.1926C16.161 15.144 16.07 14.8405 16.3583 14.8223C16.419 14.8314 16.2066 14.9528 16.2066 14.9528C16.2066 14.9528 16.0335 15.0742 16.1155 15.138C16.1762 15.1896 16.2066 15.1076 16.2126 15.0469C16.2217 14.9862 16.4949 14.9467 16.4554 14.7737C16.3917 14.6311 16.0093 14.8709 16.0093 14.8709L15.7361 14.8678C15.7179 14.8375 15.645 14.7161 15.5661 14.7161C15.4751 14.7161 15.4083 14.8678 15.4083 14.8678H14.7921C14.7921 14.8678 14.7709 15.0287 15.0835 15.059C15.1533 15.1501 15.208 15.1744 15.2717 15.1987C15.2292 15.2321 15.2171 15.2746 15.2171 15.3292ZM15.2656 15.1956H15.818H15.2656Z" fill="#FFC72C"/>
<path d="M15.2656 15.1956H15.818M15.2171 15.3292H15.8818C15.8818 15.3292 15.8909 15.2442 15.812 15.1926C16.161 15.144 16.07 14.8405 16.3583 14.8223C16.419 14.8314 16.2066 14.9528 16.2066 14.9528C16.2066 14.9528 16.0335 15.0742 16.1155 15.138C16.1762 15.1896 16.2066 15.1076 16.2126 15.0469C16.2217 14.9862 16.4949 14.9467 16.4554 14.7737C16.3917 14.6311 16.0093 14.8709 16.0093 14.8709L15.7361 14.8678C15.7179 14.8375 15.645 14.7161 15.5661 14.7161C15.4751 14.7161 15.4083 14.8678 15.4083 14.8678H14.7921C14.7921 14.8678 14.7709 15.0287 15.0835 15.059C15.1533 15.1501 15.208 15.1744 15.2717 15.1987C15.2292 15.2321 15.2171 15.2746 15.2171 15.3292Z" stroke="black" stroke-width="0.0348736"/>
<path d="M15.0135 14.8711C15.0135 14.8711 15.056 15.1291 15.2624 15.1898L15.0135 14.8711Z" fill="#FFC72C"/>
<path d="M15.0135 14.8711C15.0135 14.8711 15.056 15.1291 15.2624 15.1898" stroke="black" stroke-width="0.0348736"/>
<path d="M14.9803 14.8652C14.9985 14.7681 15.0379 14.7499 15.0774 14.6224C15.0835 14.501 14.9803 14.5161 15.0106 14.4403C15.0653 14.3522 15.0379 14.2703 14.9347 14.2065C14.956 14.3188 14.8012 14.4251 14.8012 14.5161C14.8012 14.6072 14.8801 14.589 14.871 14.7286C14.8771 14.8075 14.8498 14.7893 14.8407 14.8652H14.9803Z" fill="url(#paint5_linear_3053_1921)" stroke="black" stroke-width="0.0348736"/>
<path d="M15.6452 14.2549C15.6452 14.2759 15.6368 14.2959 15.622 14.3107C15.6072 14.3255 15.5872 14.3339 15.5662 14.3339C15.5453 14.3339 15.5252 14.3255 15.5104 14.3107C15.4956 14.2959 15.4873 14.2759 15.4873 14.2549C15.4873 14.234 15.4956 14.2139 15.5104 14.1991C15.5252 14.1843 15.5453 14.176 15.5662 14.176C15.5872 14.176 15.6072 14.1843 15.622 14.1991C15.6368 14.2139 15.6452 14.234 15.6452 14.2549Z" fill="#FFC72C" stroke="black" stroke-width="0.0348736"/>
<path d="M19.6939 8.67127L20.1188 8.04297L20.5529 8.6743" stroke="#FFC72C" stroke-width="0.0736221"/>
<path d="M20.2068 8.43484C20.2068 8.45738 20.1978 8.479 20.1819 8.49494C20.1659 8.51087 20.1443 8.51983 20.1218 8.51983C20.0992 8.51983 20.0776 8.51087 20.0617 8.49494C20.0457 8.479 20.0368 8.45738 20.0368 8.43484C20.0368 8.4123 20.0457 8.39068 20.0617 8.37475C20.0776 8.35881 20.0992 8.34985 20.1218 8.34985C20.1443 8.34985 20.1659 8.35881 20.1819 8.37475C20.1978 8.39068 20.2068 8.4123 20.2068 8.43484Z" fill="#FFC72C" stroke="black" stroke-width="0.0348736"/>
<path d="M19.7727 9.13607H20.4374C20.4374 9.13607 20.4466 9.05109 20.3676 8.99949C20.7167 8.95092 20.6256 8.6474 20.914 8.62918C20.9747 8.63829 20.7622 8.7597 20.7622 8.7597C20.7622 8.7597 20.5892 8.88111 20.6712 8.94485C20.7319 8.99645 20.7622 8.9145 20.7683 8.85379C20.7774 8.79309 21.0506 8.75363 21.0111 8.58062C20.9474 8.43796 20.5649 8.67775 20.5649 8.67775L20.2918 8.67471C20.2735 8.64436 20.2007 8.52295 20.1218 8.52295C20.0307 8.52295 19.9639 8.67471 19.9639 8.67471H19.3478C19.3478 8.67471 19.3265 8.83558 19.6392 8.86593C19.709 8.95699 19.7636 8.98127 19.8274 9.00556C19.7849 9.03894 19.7727 9.08144 19.7727 9.13607ZM19.8213 9.00252H20.3737H19.8213Z" fill="#FFC72C"/>
<path d="M19.8213 9.00252H20.3737M19.7727 9.13607H20.4374C20.4374 9.13607 20.4466 9.05109 20.3676 8.99949C20.7167 8.95092 20.6256 8.6474 20.914 8.62918C20.9747 8.63829 20.7622 8.7597 20.7622 8.7597C20.7622 8.7597 20.5892 8.88111 20.6712 8.94485C20.7319 8.99645 20.7622 8.9145 20.7683 8.85379C20.7774 8.79309 21.0506 8.75363 21.0111 8.58062C20.9474 8.43796 20.5649 8.67775 20.5649 8.67775L20.2918 8.67471C20.2735 8.64436 20.2007 8.52295 20.1218 8.52295C20.0307 8.52295 19.9639 8.67471 19.9639 8.67471H19.3478C19.3478 8.67471 19.3265 8.83558 19.6392 8.86593C19.709 8.95699 19.7636 8.98127 19.8274 9.00556C19.7849 9.03894 19.7727 9.08144 19.7727 9.13607Z" stroke="black" stroke-width="0.0348736"/>
<path d="M19.5693 8.67749C19.5693 8.67749 19.6118 8.93549 19.8182 8.99619L19.5693 8.67749Z" fill="#FFC72C"/>
<path d="M19.5693 8.67749C19.5693 8.67749 19.6118 8.93549 19.8182 8.99619" stroke="black" stroke-width="0.0348736"/>
<path d="M19.5359 8.67159C19.5541 8.57446 19.5936 8.55625 19.6331 8.42877C19.6391 8.30736 19.5359 8.32254 19.5663 8.24665C19.6209 8.15863 19.5936 8.07668 19.4904 8.01294C19.5117 8.12524 19.3569 8.23148 19.3569 8.32254C19.3569 8.41359 19.4358 8.39538 19.4267 8.535C19.4327 8.61392 19.4054 8.59571 19.3963 8.67159H19.5359Z" fill="url(#paint6_linear_3053_1921)" stroke="black" stroke-width="0.0348736"/>
<path d="M20.2006 8.06134C20.2006 8.08227 20.1923 8.10234 20.1775 8.11714C20.1627 8.13194 20.1426 8.14026 20.1217 8.14026C20.1007 8.14026 20.0807 8.13194 20.0659 8.11714C20.0511 8.10234 20.0428 8.08227 20.0428 8.06134C20.0428 8.04041 20.0511 8.02034 20.0659 8.00554C20.0807 7.99074 20.1007 7.98242 20.1217 7.98242C20.1426 7.98242 20.1627 7.99074 20.1775 8.00554C20.1923 8.02034 20.2006 8.04041 20.2006 8.06134Z" fill="#FFC72C" stroke="black" stroke-width="0.0348736"/>
<path d="M19.6515 9.90027L20.0765 9.27197L20.5105 9.90331" stroke="#FFC72C" stroke-width="0.0736221"/>
<path d="M20.1645 9.66287C20.1645 9.68541 20.1556 9.70703 20.1396 9.72296C20.1237 9.7389 20.1021 9.74786 20.0795 9.74786C20.057 9.74786 20.0354 9.7389 20.0194 9.72296C20.0035 9.70703 19.9945 9.68541 19.9945 9.66287C19.9945 9.64033 20.0035 9.61871 20.0194 9.60277C20.0354 9.58683 20.057 9.57788 20.0795 9.57788C20.1021 9.57788 20.1237 9.58683 20.1396 9.60277C20.1556 9.61871 20.1645 9.64033 20.1645 9.66287Z" fill="#FFC72C" stroke="black" stroke-width="0.0348736"/>
<path d="M19.7306 10.3641H20.3953C20.3953 10.3641 20.4044 10.2791 20.3255 10.2275C20.6746 10.1789 20.5835 9.87542 20.8719 9.85721C20.9326 9.86632 20.7201 9.98773 20.7201 9.98773C20.7201 9.98773 20.5471 10.1091 20.629 10.1729C20.6897 10.2245 20.7201 10.1425 20.7262 10.0818C20.7353 10.0211 21.0084 9.98166 20.969 9.80865C20.9052 9.66599 20.5228 9.90578 20.5228 9.90578L20.2496 9.90274C20.2314 9.87239 20.1586 9.75098 20.0797 9.75098C19.9886 9.75098 19.9218 9.90274 19.9218 9.90274H19.3057C19.3057 9.90274 19.2844 10.0636 19.597 10.094C19.6669 10.185 19.7215 10.2093 19.7852 10.2336C19.7427 10.267 19.7306 10.3095 19.7306 10.3641ZM19.7792 10.2305H20.3316H19.7792Z" fill="#FFC72C"/>
<path d="M19.7792 10.2305H20.3316M19.7306 10.3641H20.3953C20.3953 10.3641 20.4044 10.2791 20.3255 10.2275C20.6746 10.1789 20.5835 9.87542 20.8719 9.85721C20.9326 9.86632 20.7201 9.98773 20.7201 9.98773C20.7201 9.98773 20.5471 10.1091 20.629 10.1729C20.6897 10.2245 20.7201 10.1425 20.7262 10.0818C20.7353 10.0211 21.0084 9.98166 20.969 9.80865C20.9052 9.66599 20.5228 9.90578 20.5228 9.90578L20.2496 9.90274C20.2314 9.87239 20.1586 9.75098 20.0797 9.75098C19.9886 9.75098 19.9218 9.90274 19.9218 9.90274H19.3057C19.3057 9.90274 19.2844 10.0636 19.597 10.094C19.6669 10.185 19.7215 10.2093 19.7852 10.2336C19.7427 10.267 19.7306 10.3095 19.7306 10.3641Z" stroke="black" stroke-width="0.0348736"/>
<path d="M19.5271 9.90601C19.5271 9.90601 19.5696 10.164 19.776 10.2247L19.5271 9.90601Z" fill="#FFC72C"/>
<path d="M19.5271 9.90601C19.5271 9.90601 19.5696 10.164 19.776 10.2247" stroke="black" stroke-width="0.0348736"/>
<path d="M19.4937 9.90011C19.5119 9.80298 19.5514 9.78477 19.5908 9.65729C19.5969 9.53588 19.4937 9.55105 19.524 9.47517C19.5787 9.38715 19.5514 9.3052 19.4482 9.24146C19.4694 9.35376 19.3146 9.45999 19.3146 9.55105C19.3146 9.64211 19.3935 9.6239 19.3844 9.76352C19.3905 9.84244 19.3632 9.82423 19.3541 9.90011H19.4937Z" fill="url(#paint7_linear_3053_1921)" stroke="black" stroke-width="0.0348736"/>
<path d="M20.1583 9.28985C20.1583 9.31078 20.15 9.33086 20.1352 9.34566C20.1204 9.36046 20.1004 9.36877 20.0794 9.36877C20.0585 9.36877 20.0384 9.36046 20.0236 9.34566C20.0088 9.33086 20.0005 9.31078 20.0005 9.28985C20.0005 9.26892 20.0088 9.24885 20.0236 9.23405C20.0384 9.21925 20.0585 9.21094 20.0794 9.21094C20.1004 9.21094 20.1204 9.21925 20.1352 9.23405C20.15 9.24885 20.1583 9.26892 20.1583 9.28985Z" fill="#FFC72C" stroke="black" stroke-width="0.0348736"/>
<path d="M19.5971 11.1591L20.0221 10.5308L20.4561 11.1621" stroke="#FFC72C" stroke-width="0.0736221"/>
<path d="M20.1101 10.9226C20.1101 10.9452 20.1011 10.9668 20.0852 10.9827C20.0693 10.9987 20.0476 11.0076 20.0251 11.0076C20.0026 11.0076 19.9809 10.9987 19.965 10.9827C19.9491 10.9668 19.9401 10.9452 19.9401 10.9226C19.9401 10.9001 19.9491 10.8785 19.965 10.8625C19.9809 10.8466 20.0026 10.8376 20.0251 10.8376C20.0476 10.8376 20.0693 10.8466 20.0852 10.8625C20.1011 10.8785 20.1101 10.9001 20.1101 10.9226Z" fill="#FFC72C" stroke="black" stroke-width="0.0348736"/>
<path d="M19.6761 11.6239H20.3408C20.3408 11.6239 20.3499 11.5389 20.271 11.4873C20.62 11.4387 20.529 11.1352 20.8173 11.117C20.878 11.1261 20.6656 11.2475 20.6656 11.2475C20.6656 11.2475 20.4926 11.3689 20.5745 11.4326C20.6352 11.4842 20.6656 11.4023 20.6716 11.3416C20.6807 11.2809 20.9539 11.2414 20.9145 11.0684C20.8507 10.9258 20.4683 11.1655 20.4683 11.1655L20.1951 11.1625C20.1769 11.1322 20.104 11.0107 20.0251 11.0107C19.9341 11.0107 19.8673 11.1625 19.8673 11.1625H19.2511C19.2511 11.1625 19.2299 11.3234 19.5425 11.3537C19.6123 11.4448 19.667 11.4691 19.7307 11.4933C19.6882 11.5267 19.6761 11.5692 19.6761 11.6239ZM19.7246 11.4903H20.277H19.7246Z" fill="#FFC72C"/>
<path d="M19.7246 11.4903H20.277M19.6761 11.6239H20.3408C20.3408 11.6239 20.3499 11.5389 20.271 11.4873C20.62 11.4387 20.529 11.1352 20.8173 11.117C20.878 11.1261 20.6656 11.2475 20.6656 11.2475C20.6656 11.2475 20.4926 11.3689 20.5745 11.4326C20.6352 11.4842 20.6656 11.4023 20.6716 11.3416C20.6807 11.2809 20.9539 11.2414 20.9145 11.0684C20.8507 10.9258 20.4683 11.1655 20.4683 11.1655L20.1951 11.1625C20.1769 11.1322 20.104 11.0107 20.0251 11.0107C19.9341 11.0107 19.8673 11.1625 19.8673 11.1625H19.2511C19.2511 11.1625 19.2299 11.3234 19.5425 11.3537C19.6123 11.4448 19.667 11.4691 19.7307 11.4933C19.6882 11.5267 19.6761 11.5692 19.6761 11.6239Z" stroke="black" stroke-width="0.0348736"/>
<path d="M19.4727 11.1653C19.4727 11.1653 19.5152 11.4233 19.7215 11.484L19.4727 11.1653Z" fill="#FFC72C"/>
<path d="M19.4727 11.1653C19.4727 11.1653 19.5152 11.4233 19.7215 11.484" stroke="black" stroke-width="0.0348736"/>
<path d="M19.4393 11.1594C19.4575 11.0623 19.497 11.044 19.5364 10.9166C19.5425 10.7952 19.4393 10.8103 19.4696 10.7344C19.5243 10.6464 19.497 10.5645 19.3938 10.5007C19.415 10.613 19.2602 10.7193 19.2602 10.8103C19.2602 10.9014 19.3391 10.8832 19.33 11.0228C19.3361 11.1017 19.3088 11.0835 19.2997 11.1594H19.4393Z" fill="url(#paint8_linear_3053_1921)" stroke="black" stroke-width="0.0348736"/>
<path d="M20.1042 10.5491C20.1042 10.5701 20.0958 10.5901 20.081 10.6049C20.0662 10.6197 20.0462 10.628 20.0252 10.628C20.0043 10.628 19.9842 10.6197 19.9694 10.6049C19.9546 10.5901 19.9463 10.5701 19.9463 10.5491C19.9463 10.5282 19.9546 10.5081 19.9694 10.4933C19.9842 10.4785 20.0043 10.4702 20.0252 10.4702C20.0462 10.4702 20.0662 10.4785 20.081 10.4933C20.0958 10.5081 20.1042 10.5282 20.1042 10.5491Z" fill="#FFC72C" stroke="black" stroke-width="0.0348736"/>
<path d="M19.6606 12.3939L20.0856 11.7656L20.5196 12.397" stroke="#FFC72C" stroke-width="0.0736221"/>
<path d="M20.1735 12.157C20.1735 12.1795 20.1646 12.2012 20.1486 12.2171C20.1327 12.233 20.1111 12.242 20.0885 12.242C20.066 12.242 20.0444 12.233 20.0284 12.2171C20.0125 12.2012 20.0035 12.1795 20.0035 12.157C20.0035 12.1345 20.0125 12.1129 20.0284 12.0969C20.0444 12.081 20.066 12.072 20.0885 12.072C20.1111 12.072 20.1327 12.081 20.1486 12.0969C20.1646 12.1129 20.1735 12.1345 20.1735 12.157Z" fill="#FFC72C" stroke="black" stroke-width="0.0348736"/>
<path d="M19.7396 12.8587H20.4043C20.4043 12.8587 20.4134 12.7737 20.3345 12.7221C20.6836 12.6736 20.5925 12.3701 20.8809 12.3518C20.9416 12.3609 20.7291 12.4824 20.7291 12.4824C20.7291 12.4824 20.5561 12.6038 20.638 12.6675C20.6987 12.7191 20.7291 12.6372 20.7352 12.5764C20.7443 12.5157 21.0174 12.4763 20.978 12.3033C20.9142 12.1606 20.5318 12.4004 20.5318 12.4004L20.2586 12.3974C20.2404 12.367 20.1676 12.2456 20.0887 12.2456C19.9976 12.2456 19.9308 12.3974 19.9308 12.3974H19.3147C19.3147 12.3974 19.2934 12.5582 19.606 12.5886C19.6759 12.6796 19.7305 12.7039 19.7942 12.7282C19.7517 12.7616 19.7396 12.8041 19.7396 12.8587ZM19.7882 12.7252H20.3406H19.7882Z" fill="#FFC72C"/>
<path d="M19.7882 12.7252H20.3406M19.7396 12.8587H20.4043C20.4043 12.8587 20.4134 12.7737 20.3345 12.7221C20.6836 12.6736 20.5925 12.3701 20.8809 12.3518C20.9416 12.3609 20.7291 12.4824 20.7291 12.4824C20.7291 12.4824 20.5561 12.6038 20.638 12.6675C20.6987 12.7191 20.7291 12.6372 20.7352 12.5764C20.7443 12.5157 21.0174 12.4763 20.978 12.3033C20.9142 12.1606 20.5318 12.4004 20.5318 12.4004L20.2586 12.3974C20.2404 12.367 20.1676 12.2456 20.0887 12.2456C19.9976 12.2456 19.9308 12.3974 19.9308 12.3974H19.3147C19.3147 12.3974 19.2934 12.5582 19.606 12.5886C19.6759 12.6796 19.7305 12.7039 19.7942 12.7282C19.7517 12.7616 19.7396 12.8041 19.7396 12.8587Z" stroke="black" stroke-width="0.0348736"/>
<path d="M19.5361 12.4001C19.5361 12.4001 19.5786 12.6581 19.785 12.7188L19.5361 12.4001Z" fill="#FFC72C"/>
<path d="M19.5361 12.4001C19.5361 12.4001 19.5786 12.6581 19.785 12.7188" stroke="black" stroke-width="0.0348736"/>
<path d="M19.5028 12.3942C19.521 12.2971 19.5605 12.2789 19.5999 12.1514C19.606 12.03 19.5028 12.0452 19.5332 11.9693C19.5878 11.8813 19.5605 11.7993 19.4573 11.7356C19.4785 11.8479 19.3237 11.9541 19.3237 12.0452C19.3237 12.1363 19.4026 12.118 19.3935 12.2577C19.3996 12.3366 19.3723 12.3184 19.3632 12.3942H19.5028Z" fill="url(#paint9_linear_3053_1921)" stroke="black" stroke-width="0.0348736"/>
<path d="M20.1673 11.784C20.1673 11.8049 20.159 11.825 20.1442 11.8398C20.1294 11.8546 20.1094 11.8629 20.0884 11.8629C20.0675 11.8629 20.0474 11.8546 20.0326 11.8398C20.0178 11.825 20.0095 11.8049 20.0095 11.784C20.0095 11.7631 20.0178 11.743 20.0326 11.7282C20.0474 11.7134 20.0675 11.7051 20.0884 11.7051C20.1094 11.7051 20.1294 11.7134 20.1442 11.7282C20.159 11.743 20.1673 11.7631 20.1673 11.784Z" fill="#FFC72C" stroke="black" stroke-width="0.0348736"/>
<path d="M19.6454 13.6342L20.0704 13.0059L20.5044 13.6372" stroke="#FFC72C" stroke-width="0.0736221"/>
<path d="M20.1583 13.3972C20.1583 13.4198 20.1493 13.4414 20.1334 13.4573C20.1175 13.4733 20.0959 13.4822 20.0733 13.4822C20.0508 13.4822 20.0292 13.4733 20.0132 13.4573C19.9973 13.4414 19.9883 13.4198 19.9883 13.3972C19.9883 13.3747 19.9973 13.3531 20.0132 13.3371C20.0292 13.3212 20.0508 13.3123 20.0733 13.3123C20.0959 13.3123 20.1175 13.3212 20.1334 13.3371C20.1493 13.3531 20.1583 13.3747 20.1583 13.3972Z" fill="#FFC72C" stroke="black" stroke-width="0.0348736"/>
<path d="M19.7243 14.098H20.389C20.389 14.098 20.3981 14.013 20.3192 13.9614C20.6682 13.9128 20.5772 13.6093 20.8655 13.5911C20.9262 13.6002 20.7138 13.7216 20.7138 13.7216C20.7138 13.7216 20.5408 13.843 20.6227 13.9068C20.6834 13.9584 20.7138 13.8764 20.7198 13.8157C20.7289 13.755 21.0021 13.7155 20.9627 13.5425C20.8989 13.3999 20.5165 13.6397 20.5165 13.6397L20.2433 13.6366C20.2251 13.6063 20.1522 13.4849 20.0733 13.4849C19.9823 13.4849 19.9155 13.6366 19.9155 13.6366H19.2993C19.2993 13.6366 19.2781 13.7975 19.5907 13.8278C19.6605 13.9189 19.7152 13.9432 19.7789 13.9675C19.7364 14.0009 19.7243 14.0434 19.7243 14.098ZM19.7728 13.9644H20.3253H19.7728Z" fill="#FFC72C"/>
<path d="M19.7728 13.9644H20.3253M19.7243 14.098H20.389C20.389 14.098 20.3981 14.013 20.3192 13.9614C20.6682 13.9128 20.5772 13.6093 20.8655 13.5911C20.9262 13.6002 20.7138 13.7216 20.7138 13.7216C20.7138 13.7216 20.5408 13.843 20.6227 13.9068C20.6834 13.9584 20.7138 13.8764 20.7198 13.8157C20.7289 13.755 21.0021 13.7155 20.9627 13.5425C20.8989 13.3999 20.5165 13.6397 20.5165 13.6397L20.2433 13.6366C20.2251 13.6063 20.1522 13.4849 20.0733 13.4849C19.9823 13.4849 19.9155 13.6366 19.9155 13.6366H19.2993C19.2993 13.6366 19.2781 13.7975 19.5907 13.8278C19.6605 13.9189 19.7152 13.9432 19.7789 13.9675C19.7364 14.0009 19.7243 14.0434 19.7243 14.098Z" stroke="black" stroke-width="0.0348736"/>
<path d="M19.5211 13.6399C19.5211 13.6399 19.5636 13.8979 19.77 13.9586L19.5211 13.6399Z" fill="#FFC72C"/>
<path d="M19.5211 13.6399C19.5211 13.6399 19.5636 13.8979 19.77 13.9586" stroke="black" stroke-width="0.0348736"/>
<path d="M19.4876 13.634C19.5058 13.5369 19.5453 13.5187 19.5847 13.3912C19.5908 13.2698 19.4876 13.2849 19.5179 13.2091C19.5726 13.121 19.5453 13.0391 19.4421 12.9753C19.4633 13.0876 19.3085 13.1939 19.3085 13.2849C19.3085 13.376 19.3874 13.3578 19.3783 13.4974C19.3844 13.5763 19.3571 13.5581 19.348 13.634H19.4876Z" fill="url(#paint10_linear_3053_1921)" stroke="black" stroke-width="0.0348736"/>
<path d="M20.1524 13.0237C20.1524 13.0447 20.1441 13.0647 20.1293 13.0795C20.1145 13.0943 20.0944 13.1027 20.0735 13.1027C20.0525 13.1027 20.0325 13.0943 20.0177 13.0795C20.0029 13.0647 19.9945 13.0447 19.9945 13.0237C19.9945 13.0028 20.0029 12.9827 20.0177 12.9679C20.0325 12.9531 20.0525 12.9448 20.0735 12.9448C20.0944 12.9448 20.1145 12.9531 20.1293 12.9679C20.1441 12.9827 20.1524 13.0028 20.1524 13.0237Z" fill="#FFC72C" stroke="black" stroke-width="0.0348736"/>
<path d="M19.6515 14.8771L20.0765 14.2488L20.5105 14.8801" stroke="#FFC72C" stroke-width="0.0736221"/>
<path d="M20.1645 14.6402C20.1645 14.6627 20.1556 14.6843 20.1396 14.7003C20.1237 14.7162 20.1021 14.7252 20.0795 14.7252C20.057 14.7252 20.0354 14.7162 20.0194 14.7003C20.0035 14.6843 19.9945 14.6627 19.9945 14.6402C19.9945 14.6176 20.0035 14.596 20.0194 14.5801C20.0354 14.5641 20.057 14.5552 20.0795 14.5552C20.1021 14.5552 20.1237 14.5641 20.1396 14.5801C20.1556 14.596 20.1645 14.6176 20.1645 14.6402Z" fill="#FFC72C" stroke="black" stroke-width="0.0348736"/>
<path d="M19.7306 15.3414H20.3953C20.3953 15.3414 20.4044 15.2564 20.3255 15.2048C20.6746 15.1562 20.5835 14.8527 20.8719 14.8345C20.9326 14.8436 20.7201 14.965 20.7201 14.965C20.7201 14.965 20.5471 15.0864 20.629 15.1502C20.6897 15.2018 20.7201 15.1198 20.7262 15.0591C20.7353 14.9984 21.0084 14.959 20.969 14.7859C20.9052 14.6433 20.5228 14.8831 20.5228 14.8831L20.2496 14.88C20.2314 14.8497 20.1586 14.7283 20.0796 14.7283C19.9886 14.7283 19.9218 14.88 19.9218 14.88H19.3057C19.3057 14.88 19.2844 15.0409 19.597 15.0713C19.6669 15.1623 19.7215 15.1866 19.7852 15.2109C19.7427 15.2443 19.7306 15.2868 19.7306 15.3414ZM19.7792 15.2078H20.3316H19.7792Z" fill="#FFC72C"/>
<path d="M19.7792 15.2078H20.3316M19.7306 15.3414H20.3953C20.3953 15.3414 20.4044 15.2564 20.3255 15.2048C20.6746 15.1562 20.5835 14.8527 20.8719 14.8345C20.9326 14.8436 20.7201 14.965 20.7201 14.965C20.7201 14.965 20.5471 15.0864 20.629 15.1502C20.6897 15.2018 20.7201 15.1198 20.7262 15.0591C20.7353 14.9984 21.0084 14.959 20.969 14.7859C20.9052 14.6433 20.5228 14.8831 20.5228 14.8831L20.2496 14.88C20.2314 14.8497 20.1586 14.7283 20.0796 14.7283C19.9886 14.7283 19.9218 14.88 19.9218 14.88H19.3057C19.3057 14.88 19.2844 15.0409 19.597 15.0713C19.6669 15.1623 19.7215 15.1866 19.7852 15.2109C19.7427 15.2443 19.7306 15.2868 19.7306 15.3414Z" stroke="black" stroke-width="0.0348736"/>
<path d="M19.5271 14.8828C19.5271 14.8828 19.5696 15.1408 19.776 15.2015L19.5271 14.8828Z" fill="#FFC72C"/>
<path d="M19.5271 14.8828C19.5271 14.8828 19.5696 15.1408 19.776 15.2015" stroke="black" stroke-width="0.0348736"/>
<path d="M19.4937 14.8769C19.5119 14.7798 19.5514 14.7616 19.5908 14.6341C19.5969 14.5127 19.4937 14.5279 19.524 14.452C19.5787 14.364 19.5514 14.282 19.4482 14.2183C19.4694 14.3306 19.3146 14.4368 19.3146 14.5279C19.3146 14.6189 19.3935 14.6007 19.3844 14.7403C19.3905 14.8192 19.3632 14.801 19.3541 14.8769H19.4937Z" fill="url(#paint11_linear_3053_1921)" stroke="black" stroke-width="0.0348736"/>
<path d="M20.1583 14.2667C20.1583 14.2876 20.15 14.3077 20.1352 14.3225C20.1204 14.3373 20.1004 14.3456 20.0794 14.3456C20.0585 14.3456 20.0384 14.3373 20.0236 14.3225C20.0088 14.3077 20.0005 14.2876 20.0005 14.2667C20.0005 14.2457 20.0088 14.2257 20.0236 14.2109C20.0384 14.1961 20.0585 14.1877 20.0794 14.1877C20.1004 14.1877 20.1204 14.1961 20.1352 14.2109C20.15 14.2257 20.1583 14.2457 20.1583 14.2667Z" fill="#FFC72C" stroke="black" stroke-width="0.0348736"/>
<path d="M18.3192 15.4637C18.3192 15.4637 18.4922 15.8643 18.6895 15.6155C18.8868 15.3726 18.817 15.2664 18.817 15.2664L18.3738 15.0266L18.2433 15.2998L18.3192 15.4637Z" fill="#FFC72C" stroke="black" stroke-width="0.0348736"/>
<path d="M18.7017 15.4121C18.7017 15.4121 18.732 15.4152 18.7533 15.3727C18.7775 15.3302 18.7017 15.312 18.6652 15.2634L18.6288 15.3393L18.7017 15.4121ZM17.7 15.3029L17.3115 15.5153C17.3115 15.5153 17.1172 15.5548 17.1051 15.5153C17.0899 15.4789 17.1081 15.4455 17.2113 15.4394C17.3115 15.4364 17.5847 15.1845 17.5847 15.1845L17.7 15.3059V15.3029ZM17.7061 8.38549L17.7182 8.52511C17.7243 8.57367 17.6423 8.67687 17.6393 8.6708C17.6332 8.66473 17.5938 8.67687 17.5999 8.70419C17.6029 8.73454 17.6606 8.74365 17.6606 8.74365C17.6606 8.74365 17.6393 8.84381 17.6606 8.84988C17.6848 8.85292 17.5999 8.97736 17.6606 9.01075C17.7243 9.04414 17.8305 9.08967 17.8791 9.08056C17.9277 9.06842 17.8791 9.26571 17.8791 9.26571L17.7425 9.55406L18.4831 9.47818L18.3314 9.23536C18.3314 9.23536 18.2585 9.18376 18.2767 9.04414C18.298 8.90755 18.2676 8.27622 18.2676 8.27622L17.7395 8.20337L17.7061 8.38549ZM17.5695 9.48425C17.5695 9.48425 17.3297 9.59352 17.3388 9.89098C17.2781 10.1793 17.2447 10.4677 17.2447 10.4677C17.2447 10.4677 16.9594 10.7894 16.8744 10.9078C16.7864 11.0231 16.6559 11.2568 16.6104 11.3206C16.5618 11.3813 16.3736 11.5877 16.3766 11.6666C16.3827 11.7425 16.3341 12.0855 16.5223 12.1219C16.5709 12.1431 16.7257 11.7273 16.7257 11.7273C16.7257 11.7273 16.7348 11.5513 16.6802 11.5148C16.6286 11.4845 16.7955 11.3692 16.7955 11.3692L17.1901 11.0747C17.2629 11.014 17.4602 10.7955 17.4602 10.7955L17.5695 9.48425Z" fill="#FFC6B5" stroke="black" stroke-width="0.0348736"/>
<path d="M17.8456 9.25656C17.8456 9.25656 17.9063 9.42654 18.0459 9.39619C18.1855 9.36583 18.3494 9.23835 18.3494 9.23835C18.3494 9.23835 18.4799 9.23228 18.4981 9.25353C18.5163 9.27174 18.8502 9.59348 18.8381 9.69364C18.829 9.79684 18.6863 9.76649 18.6317 9.83326C18.5801 9.90004 18.4921 10.07 18.5163 10.1975C18.5406 10.3189 18.6135 10.4828 18.6044 10.5466C18.5953 10.6073 18.5437 10.6285 18.5437 10.6619C18.5437 10.6922 18.5862 10.7529 18.5862 10.8137C18.5862 10.8774 18.5255 10.9685 18.5376 11.0322C18.5467 11.0929 18.5497 11.275 18.5497 11.275L18.5376 12.1249C18.5376 12.1249 18.5862 12.1522 18.5892 12.2008C18.5953 12.2463 18.917 13.6456 18.917 13.6456C18.917 13.6456 18.9018 13.6911 18.8684 13.685C18.8351 13.6789 18.999 13.9005 19.002 13.9643C19.0081 14.025 19.172 14.5167 19.1659 14.5835C19.1629 14.6502 19.1355 14.802 19.1234 14.805C19.1082 14.8111 19.2296 15.1146 19.2084 15.1602C19.1902 15.2087 18.9959 15.2057 18.9959 15.2057L18.9413 15.1935C18.9413 15.1935 18.9443 15.2573 18.9079 15.2634C18.8684 15.2664 18.5862 15.2482 18.5862 15.2482C18.5862 15.2482 18.5042 15.3726 18.4556 15.3696C18.4071 15.3635 18.3433 15.2785 18.3312 15.2907C18.316 15.3058 18.3737 15.3878 18.3615 15.4121C18.3433 15.4364 18.1005 15.488 18.052 15.3726C18.0034 15.2573 18.0823 15.2876 18.0641 15.2634C18.052 15.2391 17.9427 15.1753 17.9063 15.1935C17.8759 15.2148 17.9943 15.2421 17.9882 15.2907C17.9852 15.3392 17.882 15.4121 17.8456 15.4121C17.8061 15.4121 17.715 15.233 17.5785 15.2512C17.4449 15.2725 17.3599 15.3058 17.3599 15.3058C17.3599 15.3058 17.199 15.3726 17.1323 15.3574C17.0655 15.3453 17.0351 15.2907 17.0351 15.2634C17.0351 15.233 17.0837 15.1086 17.0807 15.0691C17.0746 15.0327 17.0351 14.9932 17.0351 14.9355C17.0351 14.8748 17.1474 14.6806 17.1474 14.6806L17.1414 13.7943C17.1414 13.7943 17.0412 13.7943 17.0351 13.7336C17.0321 13.6729 17.1899 12.3343 17.2173 12.2463L17.3022 11.8517C17.3022 11.8517 17.2294 11.8881 17.2233 11.8517C17.2203 11.8214 17.4419 11.0565 17.4419 11.0565C17.4419 11.0565 17.4783 10.674 17.4783 10.5739C17.4783 10.4737 17.4601 10.3341 17.4601 10.3341C17.4601 10.3341 17.2628 10.2491 17.2567 10.1216C17.2385 9.91825 17.4449 9.80595 17.4692 9.73917L17.5663 9.466C17.5663 9.466 17.6725 9.28388 17.8456 9.25656Z" fill="white" stroke="black" stroke-width="0.0348736"/>
<path d="M17.7729 15.3635C17.7729 15.3635 17.3055 15.6063 17.2387 15.6275C17.1719 15.6458 17.1294 15.5456 17.1962 15.5274C17.263 15.5061 17.3692 15.497 17.3692 15.497C17.3692 15.497 17.2114 15.3726 17.2175 15.3665L17.436 15.2876C17.4421 15.2876 17.5028 15.409 17.5453 15.4029C17.6055 15.3737 17.6625 15.3381 17.7152 15.2967L17.7729 15.3635Z" fill="#FFC72C" stroke="black" stroke-width="0.0348736"/>
<path d="M18.4285 15.4974C18.474 15.5551 18.4892 15.6522 18.5924 15.5946C18.6925 15.5369 18.5408 15.4307 18.5408 15.4307L18.4285 15.4974Z" fill="#FFC6B5" stroke="black" stroke-width="0.0348736"/>
<path d="M18.6136 15.4881C18.6136 15.4881 18.6622 15.5275 18.7047 15.482C18.7472 15.4395 18.6197 15.3484 18.6197 15.3484L18.556 15.4213L18.6136 15.4881ZM18.82 9.71802C18.8261 9.71802 18.9779 10.1915 18.9991 10.3129C19.0173 10.4343 19.0811 10.9139 19.0568 10.9807C19.0325 11.0475 18.7866 11.3692 18.7593 11.4512C18.729 11.5331 18.556 11.8457 18.556 11.8457C18.556 11.8457 18.5135 12.1553 18.4953 12.1675C18.474 12.1827 18.5438 12.2585 18.5378 12.2828C18.5286 12.3132 18.3981 12.4467 18.3405 12.4346C18.2798 12.4194 18.1887 12.3526 18.1887 12.2889C18.1796 12.2282 18.1887 12.0187 18.2342 11.9671C18.2767 11.9125 18.5044 11.3813 18.5165 11.348C18.5317 11.3115 18.7229 10.8927 18.729 10.8229C18.735 10.75 18.6683 10.5831 18.6015 10.5224C18.4497 10.0762 18.5104 9.80908 18.82 9.71802Z" fill="#FFC6B5" stroke="black" stroke-width="0.0348736"/>
<path d="M17.6879 8.35823C17.6879 8.35823 17.7972 8.3734 17.8548 8.34002C17.9125 8.30663 17.9793 8.29145 18.0278 8.35823C18.0764 8.425 18.1098 8.41893 18.1098 8.41893C18.1098 8.41893 18.0369 8.60105 18.1098 8.61926C18.1796 8.63747 18.216 8.63747 18.2191 8.66175C18.2251 8.68604 18.1583 8.73764 18.1766 8.76192C18.1948 8.7862 18.2282 8.81352 18.2342 8.83476C18.2373 8.85298 18.1917 8.93493 18.2039 8.95617C18.2191 8.97439 18.2646 9.05027 18.2919 9.05027C18.3223 9.05027 18.301 9.17168 18.389 9.14133C18.474 9.11097 18.471 9.03509 18.471 9.03509C18.471 9.03509 18.562 9.02295 18.5863 8.941C18.6076 8.85905 18.6652 8.8378 18.6652 8.8378C18.6652 8.8378 18.7806 8.77709 18.6288 8.67997C18.6288 8.00614 18.1857 8.07898 18.1857 8.07898C18.1857 8.07898 18.1341 7.95757 18.046 7.97275C17.9611 7.98792 17.955 8.08809 17.8943 8.07898C17.8305 8.06988 17.8154 8.02738 17.8123 8.03042C17.8063 8.03649 17.7516 8.13362 17.7516 8.15486C17.7516 8.17915 17.5847 8.12451 17.5999 8.24592C17.615 8.3734 17.697 8.36733 17.6909 8.35823H17.6879Z" fill="#9C5100" stroke="black" stroke-width="0.0348736"/>
<path d="M18.4709 9.44542C18.4709 9.44542 18.0429 9.7186 18.052 9.81573M18.568 9.49399C18.568 9.49399 18.4709 9.60022 18.4648 9.60022M18.6955 9.60933C18.6955 9.60933 18.4831 9.78234 18.5164 9.89161M17.6969 9.42114C17.6969 9.42114 17.6332 9.55166 17.6484 9.59415C17.6605 9.63665 17.7698 9.80055 17.7819 9.90071C17.7971 10.0039 17.7819 10.0737 17.7819 10.0737M17.5846 9.66093C17.5846 9.66093 17.6028 9.81269 17.6332 9.84304C17.6635 9.8734 17.7394 10.0039 17.7485 10.0555M17.5452 10.3014C17.5452 10.3014 17.6726 10.3621 17.788 10.1223M17.9731 9.95535C17.9701 9.95535 17.8821 10.1891 18.0369 10.2771C18.1886 10.3651 18.307 10.353 18.3707 10.3287C18.4406 10.3074 18.5134 10.2619 18.5134 10.2619M17.9064 10.2437C17.9064 10.2437 17.9155 10.5594 18.3829 10.872M17.9276 10.5412C17.9276 10.5412 17.9215 10.8204 18.1036 10.9448M17.8305 10.2133C17.8305 10.2133 17.6909 10.6292 17.5785 10.6686M17.788 10.5169C17.788 10.5169 17.7819 10.8143 17.7424 10.9206M17.706 10.9934C17.706 10.9934 17.8001 11.1148 17.9064 11.1027C18.0126 11.0936 18.0581 10.9691 18.1279 10.9873C18.2008 11.0086 18.2675 11.0663 18.4345 11.0511M18.1947 11.1755C18.1947 11.1755 18.1947 11.4214 18.2402 11.4457C18.2827 11.4699 18.2615 11.6946 18.2615 11.6946M17.6089 11.0602C17.6089 11.0602 17.6028 11.2909 17.5755 11.3728C17.5452 11.4548 17.4875 11.5944 17.4996 11.7158M17.3145 11.8494C17.3388 11.8402 17.4207 11.7674 17.4207 11.7674M17.4632 11.819C17.4632 11.819 17.2568 12.7053 17.3145 13.2334M17.5118 11.8645C17.5118 11.8645 17.4055 12.5262 17.4541 12.6537M17.4602 11.8433L17.8639 11.8736M17.9215 11.819C17.9215 11.819 18.0308 11.8797 18.1856 11.8676M17.873 12.1438C17.873 12.1438 17.8548 13.2759 17.8244 13.5279M18.4648 12.4018C18.4648 12.4018 18.5893 13.3973 18.6621 13.4884M18.2251 12.5262C18.2251 12.5262 18.3009 13.4064 18.3465 13.4854M17.1324 13.7919C17.1324 13.7919 17.2841 13.7434 17.4177 13.6007C17.5694 13.8071 17.8062 13.6098 17.8062 13.6098C17.8062 13.6098 18.1704 13.8587 18.3343 13.5795C18.5863 13.7434 18.7107 13.5552 18.7107 13.5552C18.7107 13.5552 18.8018 13.6948 18.8685 13.6796M18.4709 13.7767C18.4709 13.7767 18.6561 14.657 18.9353 14.9059" stroke="black" stroke-width="0.0348736"/>
<path d="M17.5055 13.6861C17.5055 13.6861 17.5268 14.4206 17.5693 14.9397M17.4691 14.5178C17.4691 14.5178 17.4448 14.9973 17.4175 15.0338M17.1868 15.0793C17.1868 15.0793 17.2384 15.2887 17.5025 15.0945C17.7666 14.9032 17.7726 15.1673 17.7817 15.1946C17.7908 15.225 17.8333 15.4314 17.9335 15.2584M18.146 14.9761C18.146 14.9761 18.1035 15.401 18.4829 15.0914C18.8623 14.7788 18.926 15.0854 18.9382 15.1825M18.152 8.19531C18.152 8.19531 18.1186 8.40778 18.3433 8.38653C18.3129 8.50491 18.404 8.54133 18.404 8.54133M18.5679 8.67185C18.5739 8.67185 18.6711 8.73255 18.5679 8.81147M18.2431 8.83879C18.2431 8.83879 18.2917 8.89949 18.3433 8.88432C18.3979 8.86914 18.4829 8.93592 18.4829 8.93592C18.4829 8.93592 18.5557 8.9602 18.5648 8.94502M17.9487 9.0209C17.9487 9.0209 18.1126 9.08465 18.2218 8.82665M17.6482 8.74773L17.7423 8.7538M16.5798 11.783L16.5889 11.9924M16.3825 11.7648C16.3825 11.7648 16.5191 11.9924 16.5039 12.1108" stroke="black" stroke-width="0.0348736"/>
<path d="M17.6604 8.84448H17.7484L17.6725 8.87787M18.1946 12.2379C18.1946 12.2379 18.2948 12.2258 18.2917 12.3957C18.3555 12.1833 18.486 12.1802 18.486 12.1802" stroke="black" stroke-width="0.0348736" stroke-linejoin="round"/>
<path d="M17.7817 8.57475C17.7969 8.57475 17.8485 8.55654 17.8576 8.57171C17.8697 8.58385 17.7999 8.596 17.7817 8.57475Z" stroke="black" stroke-width="0.0658724" stroke-linejoin="round"/>
<path d="M17.8486 17.0512C19.1156 16.9912 20.3092 16.439 21.1753 15.5123C21.1631 15.5002 21.4454 15.1056 21.67 15.1602C21.8946 15.2179 22.2194 15.8796 22.614 16.0222C22.8113 16.3318 22.5593 16.6141 22.4743 16.6687C22.3894 16.7264 22.0069 16.8812 21.9523 16.6566C21.8946 16.429 21.7823 16.4745 21.7823 16.4745C21.7823 16.4745 19.9763 18.2349 17.8911 18.1651C15.7361 18.1773 13.9574 16.4715 13.9574 16.4715L13.8026 16.6414C13.8026 16.6414 13.6326 16.8235 13.5476 16.8114C13.4626 16.7962 13.0954 16.5564 13.0681 16.3167C13.0377 16.0769 13.2927 15.9221 13.2927 15.9221C13.2927 15.9221 13.9149 15.4425 13.9847 15.1906C14.1274 15.0479 14.3945 15.2877 14.3945 15.2877C14.3945 15.2877 16.0305 17.1635 17.8486 17.0482V17.0512Z" fill="#FFC72C" stroke="black" stroke-width="0.0736221"/>
<path d="M13.2532 15.9581C13.2532 15.9581 13.4201 15.9156 13.4808 15.9854C13.5415 16.0552 13.9665 16.4711 13.9665 16.4711" stroke="black" stroke-width="0.0736221"/>
<path d="M13.6357 16.1556L13.4657 16.2801C13.4657 16.2801 13.8907 16.3651 13.7936 16.6443M22.4623 15.9462C22.4623 15.9462 22.3803 15.9007 22.2498 15.9978C22.1162 16.098 21.7854 16.4683 21.7854 16.4683" stroke="black" stroke-width="0.0736221"/>
<path d="M22.0858 16.1438L22.268 16.2834C22.268 16.2834 21.8885 16.3107 21.9705 16.6689" stroke="black" stroke-width="0.0736221"/>
<path d="M15.4022 16.4078C15.3901 16.4381 15.3597 16.4078 15.3355 16.4138C15.2747 16.4138 15.2201 16.4563 15.1655 16.4867L14.607 16.8115C14.5888 16.8054 14.5918 16.7902 14.5979 16.775L14.7496 16.0769C14.7557 16.0375 14.7679 15.9859 14.7284 15.9555C14.7132 15.9434 14.7375 15.9221 14.7496 15.9434L15.035 16.1467C15.0259 16.1741 15.0076 16.1528 14.9925 16.1437C14.953 16.1042 14.9044 16.1407 14.9075 16.1892L14.8043 16.6476C14.9318 16.5747 15.0592 16.5019 15.1867 16.4229C15.2292 16.4047 15.2626 16.344 15.2171 16.3076C15.1989 16.2955 15.1685 16.2681 15.1989 16.2621L15.4022 16.4078ZM15.6026 17.3791C15.5965 17.3973 15.5874 17.4003 15.5722 17.3882L15.2383 17.206C15.2414 17.1848 15.2505 17.1818 15.2656 17.1939C15.296 17.2151 15.3446 17.2243 15.3688 17.1878L15.4903 16.9663L15.6602 16.6567C15.6845 16.6172 15.6572 16.5717 15.6208 16.5565C15.6086 16.5504 15.5904 16.5444 15.6056 16.5322C15.6117 16.5231 15.6299 16.5413 15.639 16.5444L15.9607 16.7204C15.9577 16.7386 15.9486 16.7416 15.9334 16.7295C15.903 16.7083 15.8545 16.6992 15.8302 16.7356L15.7088 16.9572L15.5388 17.2667C15.5145 17.3032 15.5419 17.3517 15.5783 17.3669L15.6026 17.3791ZM16.8956 17.0755L16.8045 17.3305C16.7651 17.3275 16.7924 17.2789 16.7802 17.2546C16.7742 17.1965 16.7507 17.1415 16.7127 17.0971C16.6748 17.0527 16.6242 17.0208 16.5678 17.0057C16.4767 16.9814 16.3857 17.027 16.331 17.0998C16.2518 17.2078 16.2054 17.3364 16.1975 17.4701C16.1947 17.5082 16.2022 17.5464 16.2193 17.5806C16.2364 17.6148 16.2624 17.6437 16.2946 17.6644C16.3481 17.6978 16.4107 17.7137 16.4737 17.7099L16.5374 17.5187C16.5465 17.4762 16.501 17.4489 16.4676 17.4398C16.4615 17.4276 16.4737 17.4094 16.4889 17.4246L16.8227 17.546C16.8227 17.5855 16.7742 17.5399 16.7469 17.5581C16.7074 17.5733 16.7044 17.6219 16.6861 17.6583L16.6467 17.7736C16.4949 17.7827 16.3432 17.7524 16.2096 17.6765C16.0852 17.5976 15.9971 17.4428 16.0245 17.291C16.0427 17.1605 16.1246 17.0391 16.243 16.9814C16.3523 16.9207 16.4858 16.9238 16.6012 16.9693C16.6619 16.9905 16.7165 17.03 16.7651 17.0725C16.7954 17.1119 16.8501 17.1119 16.8743 17.0695L16.8956 17.0755ZM17.4389 17.9497C17.4389 17.9618 17.4389 17.977 17.4207 17.9679L17.0382 17.9102C17.0382 17.895 17.0382 17.8829 17.0564 17.892C17.0868 17.8981 17.1354 17.8981 17.1475 17.8617C17.1657 17.8101 17.1688 17.7554 17.1779 17.7038L17.2446 17.2607C17.2537 17.2303 17.2446 17.1939 17.2112 17.1818C17.19 17.1727 17.1718 17.1727 17.1505 17.1666C17.1505 17.1544 17.1505 17.1423 17.1688 17.1484L17.5512 17.2091C17.5512 17.2212 17.5512 17.2334 17.533 17.2273C17.5026 17.2182 17.4571 17.2212 17.4419 17.2576C17.4237 17.3062 17.4207 17.3608 17.4116 17.4124L17.3448 17.8556C17.3357 17.8859 17.3448 17.9254 17.3812 17.9375L17.4419 17.9497H17.4389ZM18.477 17.7008L18.4618 17.9709L17.7758 18.0043C17.7728 17.9891 17.7758 17.98 17.794 17.9831C17.8274 17.9831 17.8729 17.9679 17.879 17.9284L17.8699 17.7281L17.8487 17.3214C17.8517 17.2819 17.8183 17.2516 17.7788 17.2546C17.7667 17.2485 17.7333 17.2667 17.7363 17.2455C17.7303 17.2273 17.7576 17.2364 17.7667 17.2334L18.1491 17.2121C18.1491 17.2303 18.1491 17.2394 18.1279 17.2364C18.0945 17.2364 18.049 17.2425 18.0368 17.285C18.0338 17.3426 18.0399 17.4003 18.0429 17.458L18.0642 17.8829C18.0642 17.9163 18.0945 17.9497 18.1309 17.9436C18.1856 17.9406 18.2432 17.9436 18.2979 17.9284C18.3738 17.9072 18.4132 17.8313 18.4345 17.7615C18.4496 17.7433 18.4345 17.6947 18.4648 17.7008H18.477ZM19.0081 17.0391C18.9899 17.0391 18.999 17.0634 18.9929 17.0755C18.9626 17.3032 18.9353 17.5308 18.9019 17.7554C18.8958 17.807 18.8837 17.8647 18.8351 17.889C18.8169 17.8981 18.8321 17.9254 18.8503 17.9102L19.0779 17.8404C19.0749 17.804 19.0294 17.8404 19.0051 17.8313C18.9535 17.8313 18.9444 17.7676 18.9535 17.7281C18.9535 17.6978 18.9596 17.6735 18.9626 17.6462L19.2236 17.5672C19.257 17.6097 19.2934 17.6492 19.3238 17.6947C19.3481 17.7372 19.2934 17.7554 19.2631 17.7645C19.2449 17.7645 19.257 17.7949 19.2722 17.7827L19.6152 17.6795C19.6152 17.6401 19.5666 17.6795 19.5454 17.6492C19.4786 17.6037 19.4331 17.5369 19.3815 17.4762L19.0081 17.0391ZM19.0081 17.3123L19.1902 17.5339L18.9687 17.6006L19.0081 17.3123ZM20.1797 16.5292L20.2799 16.7113C20.2495 16.7416 20.2313 16.6779 20.204 16.6688C20.1814 16.649 20.153 16.6368 20.123 16.6341C20.093 16.6314 20.0629 16.6382 20.0371 16.6536L19.9764 16.687L20.2738 17.2425C20.289 17.288 20.3467 17.2971 20.3861 17.2728C20.3983 17.2607 20.4135 17.2546 20.4165 17.2759C20.3679 17.3062 20.3103 17.3335 20.2587 17.3608L20.0614 17.4671C20.0462 17.4519 20.0553 17.4428 20.0735 17.4367C20.0842 17.4328 20.0939 17.4265 20.1017 17.4182C20.1095 17.4099 20.1153 17.3999 20.1185 17.389C20.1218 17.3781 20.1224 17.3665 20.1204 17.3553C20.1184 17.3441 20.1137 17.3335 20.1069 17.3244L19.8125 16.7781C19.7578 16.8084 19.6911 16.8327 19.6759 16.8995C19.6607 16.945 19.682 16.9966 19.682 17.033C19.6668 17.0512 19.6607 17.027 19.6516 17.0148L19.5696 16.857L20.1797 16.5292ZM20.6441 16.253L20.8323 16.5049C20.8748 16.4745 20.9112 16.426 20.8991 16.3713C20.9052 16.3289 20.8445 16.2803 20.8657 16.2499C20.8778 16.2439 20.887 16.2742 20.8961 16.2833L21.1146 16.5717C21.0842 16.602 21.066 16.5383 21.0357 16.5292C20.9932 16.4988 20.9355 16.4836 20.89 16.517C20.8566 16.5292 20.8596 16.5474 20.8809 16.5686C20.9294 16.6324 20.978 16.7022 21.0326 16.7659C21.063 16.7963 21.1055 16.7659 21.1328 16.7416C21.2057 16.6931 21.2694 16.6142 21.2664 16.5231C21.2724 16.4806 21.2451 16.4381 21.2451 16.4017C21.2633 16.3805 21.2664 16.4138 21.2755 16.426L21.3787 16.6081L20.8445 17.0118C20.8232 16.9966 20.8445 16.9845 20.8596 16.9754C20.9082 16.945 20.893 16.8813 20.8596 16.8479L20.5136 16.3956C20.4833 16.3562 20.4286 16.3774 20.4013 16.4047C20.3861 16.4229 20.371 16.3896 20.3922 16.3865L20.893 16.0071L21.0296 16.1892C20.9993 16.2196 20.9689 16.1498 20.9355 16.1467C20.8687 16.1103 20.7898 16.1376 20.7352 16.1832L20.6411 16.253" fill="black"/>
</g>
</g>
<defs>
<linearGradient id="paint0_linear_3053_1921" x1="15.0016" y1="8.464" x2="14.6564" y2="8.41311" gradientUnits="userSpaceOnUse">
<stop stop-color="#FF0000"/>
<stop offset="1" stop-color="#FFFF00"/>
</linearGradient>
<linearGradient id="paint1_linear_3053_1921" x1="14.9772" y1="9.71889" x2="14.6319" y2="9.66799" gradientUnits="userSpaceOnUse">
<stop stop-color="#FF0000"/>
<stop offset="1" stop-color="#FFFF00"/>
</linearGradient>
<linearGradient id="paint2_linear_3053_1921" x1="14.9683" y1="10.9537" x2="14.6231" y2="10.9029" gradientUnits="userSpaceOnUse">
<stop stop-color="#FF0000"/>
<stop offset="1" stop-color="#FFFF00"/>
</linearGradient>
<linearGradient id="paint3_linear_3053_1921" x1="15.7787" y1="12.2924" x2="15.4334" y2="12.2415" gradientUnits="userSpaceOnUse">
<stop stop-color="#FF0000"/>
<stop offset="1" stop-color="#FFFF00"/>
</linearGradient>
<linearGradient id="paint4_linear_3053_1921" x1="14.862" y1="13.3886" x2="14.5168" y2="13.3377" gradientUnits="userSpaceOnUse">
<stop stop-color="#FF0000"/>
<stop offset="1" stop-color="#FFFF00"/>
</linearGradient>
<linearGradient id="paint5_linear_3053_1921" x1="14.8862" y1="14.6803" x2="14.541" y2="14.6294" gradientUnits="userSpaceOnUse">
<stop stop-color="#FF0000"/>
<stop offset="1" stop-color="#FFFF00"/>
</linearGradient>
<linearGradient id="paint6_linear_3053_1921" x1="19.4419" y1="8.48671" x2="19.0967" y2="8.43582" gradientUnits="userSpaceOnUse">
<stop stop-color="#FF0000"/>
<stop offset="1" stop-color="#FFFF00"/>
</linearGradient>
<linearGradient id="paint7_linear_3053_1921" x1="19.3997" y1="9.71522" x2="19.0544" y2="9.66433" gradientUnits="userSpaceOnUse">
<stop stop-color="#FF0000"/>
<stop offset="1" stop-color="#FFFF00"/>
</linearGradient>
<linearGradient id="paint8_linear_3053_1921" x1="19.3452" y1="10.9745" x2="19" y2="10.9236" gradientUnits="userSpaceOnUse">
<stop stop-color="#FF0000"/>
<stop offset="1" stop-color="#FFFF00"/>
</linearGradient>
<linearGradient id="paint9_linear_3053_1921" x1="19.4088" y1="12.2094" x2="19.0635" y2="12.1585" gradientUnits="userSpaceOnUse">
<stop stop-color="#FF0000"/>
<stop offset="1" stop-color="#FFFF00"/>
</linearGradient>
<linearGradient id="paint10_linear_3053_1921" x1="19.3936" y1="13.4491" x2="19.0483" y2="13.3982" gradientUnits="userSpaceOnUse">
<stop stop-color="#FF0000"/>
<stop offset="1" stop-color="#FFFF00"/>
</linearGradient>
<linearGradient id="paint11_linear_3053_1921" x1="19.3997" y1="14.692" x2="19.0544" y2="14.6411" gradientUnits="userSpaceOnUse">
<stop stop-color="#FF0000"/>
<stop offset="1" stop-color="#FFFF00"/>
</linearGradient>
<clipPath id="clip0_3053_1921">
<rect width="24" height="24" fill="white"/>
</clipPath>
<clipPath id="clip1_3053_1921">
<rect width="24" height="24" rx="12" fill="white"/>
</clipPath>
</defs>
</svg>
