<svg width="24" height="24" viewBox="0 0 24 24" fill="none" xmlns="http://www.w3.org/2000/svg">
<g clip-path="url(#clip0_2214_4379)">
<g clip-path="url(#clip1_2214_4379)">
<path d="M-3.99988 0H28.0001V24H-3.99988V0Z" fill="#CF142B"/>
<path d="M-3.99988 0H28.0001V16H-3.99988V0Z" fill="#00247D"/>
<path d="M-3.99988 0H28.0001V8H-3.99988V0Z" fill="#FFCC00"/>
<path d="M13.424 8.7247L12.9619 9.61802L13.4821 9.89253L13.424 8.7247Z" fill="white"/>
<path d="M13.424 8.72476L13.5528 9.72227L12.97 9.80229L13.424 8.72476Z" fill="white"/>
<path d="M14.2406 9.57027L13.2482 9.4068L13.1479 9.9864L14.2406 9.57027Z" fill="white"/>
<path d="M14.2406 9.57035L13.3317 10.001L13.0755 9.47154L14.2406 9.57035Z" fill="white"/>
<path d="M12.3674 9.24L13.0742 9.95558L13.496 9.54563L12.3674 9.24Z" fill="white"/>
<path d="M12.3675 9.23998L13.3559 9.42579L13.252 10.0047L12.3675 9.23998Z" fill="white"/>
<path d="M13.6887 10.6081L13.5375 9.61372L12.9553 9.69743L13.6887 10.6081Z" fill="white"/>
<path d="M13.6887 10.6082L12.9983 9.8769L13.4227 9.46963L13.6887 10.6082Z" fill="white"/>
<path d="M12.531 10.4041L13.43 9.953L13.1705 9.42513L12.531 10.4041Z" fill="white"/>
<path d="M12.531 10.404L13.0132 9.52136L13.5317 9.79915L12.531 10.404Z" fill="white"/>
<path d="M16.1001 9.69858L15.3603 10.38L15.7553 10.8159L16.1001 9.69858Z" fill="white"/>
<path d="M16.1001 9.69863L15.8799 10.68L15.3049 10.5559L16.1001 9.69863Z" fill="white"/>
<path d="M16.5783 10.7724L15.7016 10.2794L15.4091 10.7897L16.5783 10.7724Z" fill="white"/>
<path d="M16.5782 10.7725L15.5768 10.8663L15.5172 10.2811L16.5782 10.7725Z" fill="white"/>
<path d="M14.931 9.82148L15.3504 10.7356L15.887 10.4947L14.931 9.82148Z" fill="white"/>
<path d="M14.931 9.82159L15.7963 10.3343L15.5006 10.8427L14.931 9.82159Z" fill="white"/>
<path d="M15.7047 11.5592L15.9027 10.5731L15.3269 10.4526L15.7047 11.5592Z" fill="white"/>
<path d="M15.7047 11.5592L15.306 10.6358L15.8441 10.3983L15.7047 11.5592Z" fill="white"/>
<path d="M14.6866 10.9715L15.6856 10.8551L15.6223 10.2703L14.6866 10.9715Z" fill="white"/>
<path d="M14.6866 10.9713L15.4416 10.3068L15.8338 10.7452L14.6866 10.9713Z" fill="white"/>
<path d="M18.2817 11.5291L17.3534 11.9164L17.5755 12.4611L18.2817 11.5291Z" fill="white"/>
<path d="M18.2817 11.5292L17.7391 12.3761L17.2412 12.0628L18.2817 11.5292Z" fill="white"/>
<path d="M18.3637 12.7019L17.7085 11.9388L17.2591 12.3183L18.3637 12.7019Z" fill="white"/>
<path d="M18.3637 12.7019L17.3906 12.4476L17.5347 11.8773L18.3637 12.7019Z" fill="white"/>
<path d="M17.141 11.2448L17.2225 12.2473L17.8091 12.2044L17.141 11.2448Z" fill="white"/>
<path d="M17.141 11.2447L17.7788 12.0224L17.327 12.3991L17.141 11.2447Z" fill="white"/>
<path d="M17.2737 13.1423L17.797 12.2834L17.2972 11.9732L17.2737 13.1423Z" fill="white"/>
<path d="M17.2737 13.1424L17.2148 12.1383L17.8018 12.0992L17.2737 13.1424Z" fill="white"/>
<path d="M16.518 12.2417L17.4966 12.474L17.6371 11.9029L16.518 12.2417Z" fill="white"/>
<path d="M16.518 12.2417L17.4548 11.8754L17.6734 12.4215L16.518 12.2417Z" fill="white"/>
<path d="M19.7056 13.9955L18.7009 14.042L18.7232 14.6298L19.7056 13.9955Z" fill="white"/>
<path d="M19.7056 13.9954L18.9061 14.6057L18.5454 14.141L19.7056 13.9954Z" fill="white"/>
<path d="M19.3816 15.1256L19.0269 14.1844L18.4748 14.3874L19.3816 15.1256Z" fill="white"/>
<path d="M19.3816 15.1256L18.5541 14.5538L18.8846 14.0672L19.3816 15.1256Z" fill="white"/>
<path d="M18.731 13.3382L18.4647 14.308L19.0306 14.4684L18.731 13.3382Z" fill="white"/>
<path d="M18.731 13.3381L19.0643 14.2871L18.5109 14.4865L18.731 13.3381Z" fill="white"/>
<path d="M18.2067 15.1665L18.9922 14.5384L18.6286 14.076L18.2067 15.1665Z" fill="white"/>
<path d="M18.2067 15.1665L18.4948 14.2029L19.0597 14.3668L18.2067 15.1665Z" fill="white"/>
<path d="M17.8046 14.0617L18.6447 14.6147L18.9721 14.126L17.8046 14.0617Z" fill="white"/>
<path d="M17.8046 14.0618L18.8101 14.038L18.8288 14.626L17.8046 14.0618Z" fill="white"/>
<path d="M4.29463 13.9954L5.09413 14.6057L5.45481 14.141L4.29463 13.9954Z" fill="white"/>
<path d="M4.29464 13.9955L5.29935 14.042L5.27696 14.6298L4.29464 13.9955Z" fill="white"/>
<path d="M5.26923 13.3381L4.93591 14.2871L5.48928 14.4865L5.26923 13.3381Z" fill="white"/>
<path d="M5.26921 13.3382L5.53553 14.308L4.96959 14.4684L5.26921 13.3382Z" fill="white"/>
<path d="M4.61867 15.1254L5.44611 14.5536L5.11565 14.067L4.61867 15.1254Z" fill="white"/>
<path d="M4.61865 15.1254L4.97328 14.1842L5.52539 14.3871L4.61865 15.1254Z" fill="white"/>
<path d="M6.19558 14.0618L5.19008 14.038L5.17141 14.626L6.19558 14.0618Z" fill="white"/>
<path d="M6.19555 14.0617L5.35543 14.6147L5.02805 14.126L6.19555 14.0617Z" fill="white"/>
<path d="M5.79347 15.1665L5.50536 14.2029L4.94044 14.3668L5.79347 15.1665Z" fill="white"/>
<path d="M5.79346 15.1665L5.00793 14.5384L5.37153 14.076L5.79346 15.1665Z" fill="white"/>
<path d="M5.71854 11.5292L6.26111 12.3761L6.75896 12.0628L5.71854 11.5292Z" fill="white"/>
<path d="M5.71855 11.5291L6.64679 11.9164L6.42472 12.4611L5.71855 11.5291Z" fill="white"/>
<path d="M6.8592 11.2447L6.22142 12.0224L6.67321 12.3991L6.8592 11.2447Z" fill="white"/>
<path d="M6.85916 11.2448L6.77769 12.2473L6.19104 12.2044L6.85916 11.2448Z" fill="white"/>
<path d="M5.63656 12.7019L6.60966 12.4476L6.46556 11.8773L5.63656 12.7019Z" fill="white"/>
<path d="M5.63656 12.7019L6.29171 11.9388L6.74112 12.3183L5.63656 12.7019Z" fill="white"/>
<path d="M7.48215 12.2417L6.54542 11.8754L6.32679 12.4215L7.48215 12.2417Z" fill="white"/>
<path d="M7.48218 12.2417L6.50359 12.474L6.3631 11.9029L7.48218 12.2417Z" fill="white"/>
<path d="M6.72654 13.1422L6.78538 12.1381L6.19847 12.0989L6.72654 13.1422Z" fill="white"/>
<path d="M6.72656 13.1423L6.20323 12.2834L6.70305 11.9732L6.72656 13.1423Z" fill="white"/>
<path d="M7.90007 9.69863L8.12026 10.68L8.69523 10.5559L7.90007 9.69863Z" fill="white"/>
<path d="M7.90004 9.69858L8.63985 10.38L8.24488 10.8159L7.90004 9.69858Z" fill="white"/>
<path d="M9.06919 9.82159L8.20389 10.3343L8.4996 10.8427L9.06919 9.82159Z" fill="white"/>
<path d="M9.06921 9.82148L8.64979 10.7356L8.11318 10.4947L9.06921 9.82148Z" fill="white"/>
<path d="M7.42193 10.7725L8.42332 10.8663L8.48296 10.2811L7.42193 10.7725Z" fill="white"/>
<path d="M7.42189 10.7724L8.29854 10.2794L8.59104 10.7897L7.42189 10.7724Z" fill="white"/>
<path d="M9.31362 10.9713L8.55864 10.3068L8.16643 10.7452L9.31362 10.9713Z" fill="white"/>
<path d="M9.31364 10.9715L8.31462 10.8551L8.37795 10.2703L9.31364 10.9715Z" fill="white"/>
<path d="M8.29556 11.5592L8.69427 10.6358L8.15615 10.3983L8.29556 11.5592Z" fill="white"/>
<path d="M8.29558 11.5592L8.09757 10.5731L8.67332 10.4526L8.29558 11.5592Z" fill="white"/>
<path d="M10.5762 8.72452L10.4475 9.72203L11.0302 9.80205L10.5762 8.72452Z" fill="white"/>
<path d="M10.5762 8.72446L11.0383 9.61778L10.5181 9.89229L10.5762 8.72446Z" fill="white"/>
<path d="M11.6328 9.23998L10.6443 9.42579L10.7483 10.0047L11.6328 9.23998Z" fill="white"/>
<path d="M11.6328 9.24L10.926 9.95558L10.5042 9.54563L11.6328 9.24Z" fill="white"/>
<path d="M9.75956 9.57011L10.6685 10.0008L10.9247 9.47129L9.75956 9.57011Z" fill="white"/>
<path d="M9.75954 9.57027L10.752 9.4068L10.8523 9.9864L9.75954 9.57027Z" fill="white"/>
<path d="M11.4692 10.404L10.987 9.52136L10.4685 9.79915L11.4692 10.404Z" fill="white"/>
<path d="M11.4692 10.4041L10.5702 9.953L10.8297 9.42513L11.4692 10.4041Z" fill="white"/>
<path d="M10.3115 10.6082L11.0019 9.8769L10.5775 9.46963L10.3115 10.6082Z" fill="white"/>
<path d="M10.3115 10.6083L10.4627 9.61396L11.0449 9.69767L10.3115 10.6083Z" fill="white"/>
</g>
</g>
<defs>
<clipPath id="clip0_2214_4379">
<path d="M0.00012207 12C0.00012207 5.37258 5.37271 0 12.0001 0C18.6275 0 24.0001 5.37258 24.0001 12C24.0001 18.6274 18.6275 24 12.0001 24C5.37271 24 0.00012207 18.6274 0.00012207 12Z" fill="white"/>
</clipPath>
<clipPath id="clip1_2214_4379">
<rect width="32" height="24" fill="white" transform="translate(-3.99988)"/>
</clipPath>
</defs>
</svg>
