<svg width="24" height="24" viewBox="0 0 24 24" fill="none" xmlns="http://www.w3.org/2000/svg">
<g clip-path="url(#clip0_2214_3022)">
<path d="M23.2536 16.1737C23.736 14.8738 24 13.4677 24 11.9998C24 10.532 23.736 9.12599 23.2536 7.82596L12 6.78247L0.746391 7.82596C0.264047 9.12599 0 10.532 0 11.9998C0 13.4677 0.264047 14.8738 0.746391 16.1737L12 17.2172L23.2536 16.1737Z" fill="white"/>
<path d="M12.0002 23.9999C17.1598 23.9999 21.5583 20.7434 23.2538 16.1738H0.746582C2.44214 20.7434 6.84061 23.9999 12.0002 23.9999Z" fill="#D80027"/>
<path d="M12.0002 0C6.84061 0 2.44214 3.2565 0.746582 7.82611H23.2538C21.5583 3.2565 17.1598 0 12.0002 0Z" fill="#D80027"/>
</g>
<defs>
<clipPath id="clip0_2214_3022">
<rect width="24" height="24" fill="white"/>
</clipPath>
</defs>
</svg>
