<svg width="24" height="24" viewBox="0 0 24 24" fill="none" xmlns="http://www.w3.org/2000/svg">
<g clip-path="url(#clip0_2214_3678)">
<g clip-path="url(#clip1_2214_3678)">
<path d="M0 0H32V12H0V0Z" fill="#002B7F"/>
<path d="M0 12H32V24H0V12Z" fill="#CE1126"/>
<path d="M8.65599 4.89193L8.57999 7.39193H6.04399C5.73199 6.78393 5.47599 6.27193 5.47599 5.57193C5.47599 4.98793 5.93599 4.52393 6.59599 4.52393C7.29599 4.52393 8.06799 4.75993 8.65599 4.89193Z" fill="#FFD83D"/>
<path d="M5.77995 5.00799V6.44799V5.00799ZM5.97995 4.85999V6.77999V4.85999ZM6.18795 4.75999V7.04799V4.75999ZM6.38795 4.71199V6.50799V4.71199ZM6.59196 4.70399V6.51599V4.70399ZM6.79595 4.63599V6.51599V4.63599ZM6.99995 4.63599V6.51599V4.63599ZM7.20396 4.65599V6.53599V4.65599ZM7.40795 4.67599V6.55199V4.67599ZM7.61196 4.79199V6.67199V4.79199ZM7.81195 4.81199V6.92799V4.81199ZM8.01995 4.81199V6.69199V4.81199ZM8.21995 4.81199V6.69199V4.81199Z" fill="#FFD83D"/>
<path d="M5.77995 5.00799V6.44799M5.97995 4.85999V6.77999M6.18795 4.75999V7.04799M6.38795 4.71199V6.50799M6.59196 4.70399V6.51599M6.79595 4.63599V6.51599M6.99995 4.63599V6.51599M7.20396 4.65599V6.53599M7.40795 4.67599V6.55199M7.61195 4.79199V6.67199M7.81195 4.81199V6.92799M8.01995 4.81199V6.69199M8.21995 4.81199V6.69199" stroke="black" stroke-width="0.06" stroke-linecap="round" stroke-linejoin="round"/>
<path d="M7.05596 4.71997C7.48796 4.78797 8.43196 5.23197 8.32396 5.82797C8.17196 6.67597 7.67596 6.33597 7.01996 6.21597L6.52396 6.37997C6.34396 6.55997 6.08396 6.72797 5.90796 6.50797H5.61196V7.65997H8.86796V4.87997L7.05596 4.71997Z" fill="#000001" stroke="black" stroke-width="0.06" stroke-linecap="round" stroke-linejoin="round"/>
<path d="M8.51198 4.71597C8.62023 4.71597 8.70798 4.62822 8.70798 4.51997C8.70798 4.41173 8.62023 4.32397 8.51198 4.32397C8.40373 4.32397 8.31598 4.41173 8.31598 4.51997C8.31598 4.62822 8.40373 4.71597 8.51198 4.71597Z" fill="#FFD83D" stroke="black" stroke-width="0.08" stroke-linecap="round" stroke-linejoin="round"/>
<path d="M8.06798 4.60806C8.17623 4.60806 8.26398 4.52031 8.26398 4.41206C8.26398 4.30382 8.17623 4.21606 8.06798 4.21606C7.95974 4.21606 7.87198 4.30382 7.87198 4.41206C7.87198 4.52031 7.95974 4.60806 8.06798 4.60806Z" fill="#FFD83D" stroke="black" stroke-width="0.08" stroke-linecap="round" stroke-linejoin="round"/>
<path d="M7.61598 4.496C7.72423 4.496 7.81198 4.40825 7.81198 4.3C7.81198 4.19176 7.72423 4.104 7.61598 4.104C7.50773 4.104 7.41998 4.19176 7.41998 4.3C7.41998 4.40825 7.50773 4.496 7.61598 4.496Z" fill="#FFD83D" stroke="black" stroke-width="0.08" stroke-linecap="round" stroke-linejoin="round"/>
<path d="M7.16398 4.42008C7.27223 4.42008 7.35998 4.33232 7.35998 4.22408C7.35998 4.11583 7.27223 4.02808 7.16398 4.02808C7.05573 4.02808 6.96798 4.11583 6.96798 4.22408C6.96798 4.33232 7.05573 4.42008 7.16398 4.42008Z" fill="#FFD83D" stroke="black" stroke-width="0.08" stroke-linecap="round" stroke-linejoin="round"/>
<path d="M6.71198 4.37589C6.82023 4.37589 6.90798 4.28813 6.90798 4.17989C6.90798 4.07164 6.82023 3.98389 6.71198 3.98389C6.60373 3.98389 6.51598 4.07164 6.51598 4.17989C6.51598 4.28813 6.60373 4.37589 6.71198 4.37589Z" fill="#FFD83D" stroke="black" stroke-width="0.08" stroke-linecap="round" stroke-linejoin="round"/>
<path d="M6.27199 4.40006C6.38024 4.40006 6.46799 4.3123 6.46799 4.20406C6.46799 4.09581 6.38024 4.00806 6.27199 4.00806C6.16374 4.00806 6.07599 4.09581 6.07599 4.20406C6.07599 4.3123 6.16374 4.40006 6.27199 4.40006Z" fill="#FFD83D" stroke="black" stroke-width="0.08" stroke-linecap="round" stroke-linejoin="round"/>
<path d="M5.84799 4.54386C5.95624 4.54386 6.04399 4.4561 6.04399 4.34786C6.04399 4.23961 5.95624 4.15186 5.84799 4.15186C5.73974 4.15186 5.65199 4.23961 5.65199 4.34786C5.65199 4.4561 5.73974 4.54386 5.84799 4.54386Z" fill="#FFD83D" stroke="black" stroke-width="0.08" stroke-linecap="round" stroke-linejoin="round"/>
<path d="M5.49198 4.80802C5.60023 4.80802 5.68798 4.72026 5.68798 4.61202C5.68798 4.50377 5.60023 4.41602 5.49198 4.41602C5.38373 4.41602 5.29598 4.50377 5.29598 4.61202C5.29598 4.72026 5.38373 4.80802 5.49198 4.80802Z" fill="#FFD83D" stroke="black" stroke-width="0.08" stroke-linecap="round" stroke-linejoin="round"/>
<path d="M5.23998 5.17203C5.34823 5.17203 5.43598 5.08428 5.43598 4.97603C5.43598 4.86778 5.34823 4.78003 5.23998 4.78003C5.13173 4.78003 5.04398 4.86778 5.04398 4.97603C5.04398 5.08428 5.13173 5.17203 5.23998 5.17203Z" fill="#FFD83D" stroke="black" stroke-width="0.08" stroke-linecap="round" stroke-linejoin="round"/>
<path d="M5.11598 5.60391C5.22423 5.60391 5.31198 5.51616 5.31198 5.40791C5.31198 5.29967 5.22423 5.21191 5.11598 5.21191C5.00773 5.21191 4.91998 5.29967 4.91998 5.40791C4.91998 5.51616 5.00773 5.60391 5.11598 5.60391Z" fill="#FFD83D" stroke="black" stroke-width="0.08" stroke-linecap="round" stroke-linejoin="round"/>
<path d="M5.11999 6.04801C5.22823 6.04801 5.31599 5.96025 5.31599 5.85201C5.31599 5.74376 5.22823 5.65601 5.11999 5.65601C5.01174 5.65601 4.92399 5.74376 4.92399 5.85201C4.92399 5.96025 5.01174 6.04801 5.11999 6.04801Z" fill="#FFD83D" stroke="black" stroke-width="0.08" stroke-linecap="round" stroke-linejoin="round"/>
<path d="M5.20797 6.48404C5.31622 6.48404 5.40397 6.39629 5.40397 6.28804C5.40397 6.17979 5.31622 6.09204 5.20797 6.09204C5.09973 6.09204 5.01197 6.17979 5.01197 6.28804C5.01197 6.39629 5.09973 6.48404 5.20797 6.48404Z" fill="#FFD83D" stroke="black" stroke-width="0.08" stroke-linecap="round" stroke-linejoin="round"/>
<path d="M8.59998 4.78011L8.57998 5.04011C8.08798 4.96011 7.39198 4.68811 6.73998 4.68811C6.13998 4.68811 5.67598 4.92811 5.67598 5.53611C5.67598 6.13211 5.92798 6.67611 6.26398 7.22811L5.91598 7.38811C5.60398 6.78811 5.34398 6.26811 5.34398 5.57211C5.34398 4.98811 5.80398 4.41211 6.59598 4.41211C7.29598 4.41211 8.01198 4.65211 8.59998 4.78011Z" fill="#FFD83D" stroke="black" stroke-width="0.08" stroke-linecap="round" stroke-linejoin="round"/>
<path d="M9.10399 4.89193L9.17999 7.39193H11.716C12.028 6.78393 12.284 6.27193 12.284 5.57193C12.284 4.98793 11.824 4.52393 11.164 4.52393C10.464 4.52393 9.69199 4.75993 9.10399 4.89193Z" fill="#FFD83D"/>
<path d="M11.98 5.00799V6.44799V5.00799ZM11.78 4.85999V6.77999V4.85999ZM11.572 4.75999V7.04799V4.75999ZM11.372 4.71199V6.50799V4.71199ZM11.168 4.70399V6.51599V4.70399ZM10.964 4.63599V6.51599V4.63599ZM10.76 4.63599V6.51599V4.63599ZM10.556 4.65599V6.53599V4.65599ZM10.352 4.67599V6.55199V4.67599ZM10.148 4.79199V6.67199V4.79199ZM9.94799 4.81199V6.92799V4.81199ZM9.73999 4.81199V6.69199V4.81199ZM9.53999 4.81199V6.69199V4.81199Z" fill="#FFD83D"/>
<path d="M11.98 5.00799V6.44799M11.78 4.85999V6.77999M11.572 4.75999V7.04799M11.372 4.71199V6.50799M11.168 4.70399V6.51599M10.964 4.63599V6.51599M10.76 4.63599V6.51599M10.556 4.65599V6.53599M10.352 4.67599V6.55199M10.148 4.79199V6.67199M9.94799 4.81199V6.92799M9.73999 4.81199V6.69199M9.53999 4.81199V6.69199" stroke="black" stroke-width="0.06" stroke-linecap="round" stroke-linejoin="round"/>
<path d="M10.704 4.71997C10.272 4.78797 9.32799 5.23197 9.43599 5.82797C9.58799 6.67597 10.084 6.33597 10.74 6.21597L11.236 6.37997C11.416 6.55997 11.676 6.72797 11.852 6.50797H12.148V7.65997H8.89199V4.87997L10.704 4.71997Z" fill="#000001" stroke="black" stroke-width="0.06" stroke-linecap="round" stroke-linejoin="round"/>
<path d="M9.24799 4.71597C9.13974 4.71597 9.05199 4.62822 9.05199 4.51997C9.05199 4.41173 9.13974 4.32397 9.24799 4.32397C9.35624 4.32397 9.44399 4.41173 9.44399 4.51997C9.44399 4.62822 9.35624 4.71597 9.24799 4.71597Z" fill="#FFD83D" stroke="black" stroke-width="0.08" stroke-linecap="round" stroke-linejoin="round"/>
<path d="M9.69199 4.60806C9.58374 4.60806 9.49599 4.52031 9.49599 4.41206C9.49599 4.30382 9.58374 4.21606 9.69199 4.21606C9.80024 4.21606 9.88799 4.30382 9.88799 4.41206C9.88799 4.52031 9.80024 4.60806 9.69199 4.60806Z" fill="#FFD83D" stroke="black" stroke-width="0.08" stroke-linecap="round" stroke-linejoin="round"/>
<path d="M10.144 4.496C10.0357 4.496 9.94799 4.40825 9.94799 4.3C9.94799 4.19176 10.0357 4.104 10.144 4.104C10.2522 4.104 10.34 4.19176 10.34 4.3C10.34 4.40825 10.2522 4.496 10.144 4.496Z" fill="#FFD83D" stroke="black" stroke-width="0.08" stroke-linecap="round" stroke-linejoin="round"/>
<path d="M10.596 4.42008C10.4877 4.42008 10.4 4.33232 10.4 4.22408C10.4 4.11583 10.4877 4.02808 10.596 4.02808C10.7042 4.02808 10.792 4.11583 10.792 4.22408C10.792 4.33232 10.7042 4.42008 10.596 4.42008Z" fill="#FFD83D" stroke="black" stroke-width="0.08" stroke-linecap="round" stroke-linejoin="round"/>
<path d="M11.048 4.37589C10.9397 4.37589 10.852 4.28813 10.852 4.17989C10.852 4.07164 10.9397 3.98389 11.048 3.98389C11.1562 3.98389 11.244 4.07164 11.244 4.17989C11.244 4.28813 11.1562 4.37589 11.048 4.37589Z" fill="#FFD83D" stroke="black" stroke-width="0.08" stroke-linecap="round" stroke-linejoin="round"/>
<path d="M11.488 4.40006C11.3797 4.40006 11.292 4.3123 11.292 4.20406C11.292 4.09581 11.3797 4.00806 11.488 4.00806C11.5962 4.00806 11.684 4.09581 11.684 4.20406C11.684 4.3123 11.5962 4.40006 11.488 4.40006Z" fill="#FFD83D" stroke="black" stroke-width="0.08" stroke-linecap="round" stroke-linejoin="round"/>
<path d="M11.912 4.54386C11.8037 4.54386 11.716 4.4561 11.716 4.34786C11.716 4.23961 11.8037 4.15186 11.912 4.15186C12.0202 4.15186 12.108 4.23961 12.108 4.34786C12.108 4.4561 12.0202 4.54386 11.912 4.54386Z" fill="#FFD83D" stroke="black" stroke-width="0.08" stroke-linecap="round" stroke-linejoin="round"/>
<path d="M12.268 4.80802C12.1597 4.80802 12.072 4.72026 12.072 4.61202C12.072 4.50377 12.1597 4.41602 12.268 4.41602C12.3762 4.41602 12.464 4.50377 12.464 4.61202C12.464 4.72026 12.3762 4.80802 12.268 4.80802Z" fill="#FFD83D" stroke="black" stroke-width="0.08" stroke-linecap="round" stroke-linejoin="round"/>
<path d="M12.52 5.17203C12.4117 5.17203 12.324 5.08428 12.324 4.97603C12.324 4.86778 12.4117 4.78003 12.52 4.78003C12.6282 4.78003 12.716 4.86778 12.716 4.97603C12.716 5.08428 12.6282 5.17203 12.52 5.17203Z" fill="#FFD83D" stroke="black" stroke-width="0.08" stroke-linecap="round" stroke-linejoin="round"/>
<path d="M12.644 5.60391C12.5357 5.60391 12.448 5.51616 12.448 5.40791C12.448 5.29967 12.5357 5.21191 12.644 5.21191C12.7522 5.21191 12.84 5.29967 12.84 5.40791C12.84 5.51616 12.7522 5.60391 12.644 5.60391Z" fill="#FFD83D" stroke="black" stroke-width="0.08" stroke-linecap="round" stroke-linejoin="round"/>
<path d="M12.64 6.04801C12.5317 6.04801 12.444 5.96025 12.444 5.85201C12.444 5.74376 12.5317 5.65601 12.64 5.65601C12.7482 5.65601 12.836 5.74376 12.836 5.85201C12.836 5.96025 12.7482 6.04801 12.64 6.04801Z" fill="#FFD83D" stroke="black" stroke-width="0.08" stroke-linecap="round" stroke-linejoin="round"/>
<path d="M12.552 6.48404C12.4437 6.48404 12.356 6.39629 12.356 6.28804C12.356 6.17979 12.4437 6.09204 12.552 6.09204C12.6602 6.09204 12.748 6.17979 12.748 6.28804C12.748 6.39629 12.6602 6.48404 12.552 6.48404Z" fill="#FFD83D" stroke="black" stroke-width="0.08" stroke-linecap="round" stroke-linejoin="round"/>
<path d="M9.15999 4.78011L9.17999 5.04011C9.67199 4.96011 10.368 4.68811 11.02 4.68811C11.62 4.68811 12.084 4.92811 12.084 5.53611C12.084 6.13211 11.832 6.67611 11.496 7.22811L11.844 7.38811C12.156 6.78811 12.416 6.26811 12.416 5.57211C12.416 4.98811 11.956 4.41211 11.164 4.41211C10.464 4.41211 9.74799 4.65211 9.15999 4.78011Z" fill="#FFD83D" stroke="black" stroke-width="0.08" stroke-linecap="round" stroke-linejoin="round"/>
<path d="M8.87997 2.12412L8.67197 2.51212L8.87997 2.89612L9.08397 2.51212L8.87997 2.12012V2.12412ZM8.87997 3.10012L8.67197 3.48412L8.87997 3.87212L9.07997 3.48012L8.87997 3.10012ZM8.14397 3.00012L8.46797 3.20412L8.79197 3.00012L8.47197 2.79212L8.14397 3.00012ZM8.96397 3.00012L9.28797 3.20412L9.61597 3.00012L9.28797 2.79212L8.96397 3.00012Z" fill="#FFD83D" stroke="black" stroke-width="0.08" stroke-linecap="round" stroke-linejoin="round"/>
<path d="M8.87997 3.16014C8.96613 3.16014 9.03597 3.0903 9.03597 3.00414C9.03597 2.91799 8.96613 2.84814 8.87997 2.84814C8.79382 2.84814 8.72397 2.91799 8.72397 3.00414C8.72397 3.0903 8.79382 3.16014 8.87997 3.16014Z" fill="#FFD83D" stroke="black" stroke-width="0.08" stroke-linecap="round" stroke-linejoin="round"/>
<path d="M8.87996 4.42008C9.11192 4.42008 9.29996 4.23204 9.29996 4.00008C9.29996 3.76812 9.11192 3.58008 8.87996 3.58008C8.648 3.58008 8.45996 3.76812 8.45996 4.00008C8.45996 4.23204 8.648 4.42008 8.87996 4.42008Z" fill="#FFD83D" stroke="black" stroke-width="0.08" stroke-linecap="round" stroke-linejoin="round"/>
<path d="M8.77197 3.59595V3.85995C8.67276 3.86477 8.57392 3.87546 8.47597 3.89195M9.28397 3.89195C9.18471 3.8752 9.08453 3.86452 8.98397 3.85995V3.59595M8.47197 4.10395C8.60672 4.08053 8.7432 4.06849 8.87997 4.06795C9.01864 4.06795 9.15197 4.07995 9.27997 4.10395" stroke="black" stroke-width="0.06" stroke-linecap="round" stroke-linejoin="round"/>
<path d="M8.47196 4.70801C8.43196 5.38801 8.35196 6.08801 8.08396 6.59201L8.51596 6.41601C8.66796 5.84401 8.69996 5.10401 8.74396 4.75201L8.47196 4.70801ZM9.28796 4.70801L9.01196 4.75201C9.05996 5.10401 9.09196 5.84401 9.23996 6.41601L9.67196 6.59201C9.40796 6.08801 9.32796 5.39201 9.28796 4.70801Z" fill="#FFD83D" stroke="black" stroke-width="0.08" stroke-linecap="round" stroke-linejoin="round"/>
<path d="M8.87997 6.18799C8.35997 6.18799 7.97997 6.42799 7.95997 7.05199C7.83197 6.82799 7.29997 6.13199 6.79997 6.22399C6.50397 6.27999 6.23997 6.69199 6.28797 7.15999C6.03997 6.45599 5.32397 6.33999 4.79597 6.75999C5.26397 7.13999 5.47197 8.27199 5.86397 8.75999H11.892C12.284 8.27199 12.492 7.13999 12.96 6.75999C12.436 6.33999 11.716 6.45599 11.472 7.15999C11.512 6.69199 11.252 6.27999 10.952 6.22399C10.456 6.13199 9.92397 6.82799 9.79597 7.05199C9.77597 6.43199 9.39597 6.18799 8.87597 6.18799H8.87997Z" fill="#FFD83D" stroke="black" stroke-width="0.08" stroke-linecap="round" stroke-linejoin="round"/>
<path d="M11.884 8.75992C11.884 8.98392 10.54 9.22792 8.87997 9.22792C7.21997 9.22792 5.87197 8.98792 5.87197 8.75992C5.87197 8.53992 7.21997 8.41992 8.87997 8.41992C10.536 8.41992 11.884 8.53992 11.884 8.75992Z" fill="#000001" stroke="black" stroke-width="0.06" stroke-linecap="round" stroke-linejoin="round"/>
<path d="M8.87997 4.71604C8.95729 4.71604 9.01997 4.65336 9.01997 4.57604C9.01997 4.49872 8.95729 4.43604 8.87997 4.43604C8.80265 4.43604 8.73997 4.49872 8.73997 4.57604C8.73997 4.65336 8.80265 4.71604 8.87997 4.71604Z" fill="#FFD83D" stroke="black" stroke-width="0.06" stroke-linecap="round" stroke-linejoin="round"/>
<path d="M8.87996 5.02793C8.9617 5.02793 9.02796 4.96167 9.02796 4.87993C9.02796 4.7982 8.9617 4.73193 8.87996 4.73193C8.79822 4.73193 8.73196 4.7982 8.73196 4.87993C8.73196 4.96167 8.79822 5.02793 8.87996 5.02793Z" fill="#FFD83D" stroke="black" stroke-width="0.06" stroke-linecap="round" stroke-linejoin="round"/>
<path d="M8.87997 5.37195C8.97054 5.37195 9.04397 5.29852 9.04397 5.20795C9.04397 5.11737 8.97054 5.04395 8.87997 5.04395C8.78939 5.04395 8.71597 5.11737 8.71597 5.20795C8.71597 5.29852 8.78939 5.37195 8.87997 5.37195Z" fill="#FFD83D" stroke="black" stroke-width="0.06" stroke-linecap="round" stroke-linejoin="round"/>
<path d="M8.87997 5.76003C8.9838 5.76003 9.06797 5.67586 9.06797 5.57203C9.06797 5.4682 8.9838 5.38403 8.87997 5.38403C8.77614 5.38403 8.69197 5.4682 8.69197 5.57203C8.69197 5.67586 8.77614 5.76003 8.87997 5.76003Z" fill="#FFD83D" stroke="black" stroke-width="0.06" stroke-linecap="round" stroke-linejoin="round"/>
<path d="M8.87995 6.17997C8.99262 6.17997 9.08395 6.08864 9.08395 5.97597C9.08395 5.86331 8.99262 5.77197 8.87995 5.77197C8.76729 5.77197 8.67595 5.86331 8.67595 5.97597C8.67595 6.08864 8.76729 6.17997 8.87995 6.17997Z" fill="#FFD83D" stroke="black" stroke-width="0.06" stroke-linecap="round" stroke-linejoin="round"/>
<path d="M8.79996 6.36816C8.77329 6.36816 8.75996 6.38683 8.75996 6.42416L8.78396 6.59616C8.79196 6.65616 8.82396 6.63616 8.83596 6.59616C8.84396 6.54816 8.83996 6.51616 8.84396 6.43216C8.83863 6.3895 8.82263 6.36816 8.79596 6.36816H8.79996ZM8.95996 6.36816C8.93329 6.36816 8.91863 6.3895 8.91596 6.43216C8.91596 6.51616 8.91596 6.54816 8.92396 6.59216C8.93196 6.63616 8.96396 6.65616 8.97596 6.59216L8.99596 6.42416C9.00396 6.38416 8.97996 6.36816 8.95996 6.36816ZM8.65196 6.39216C8.64135 6.39216 8.63118 6.39638 8.62368 6.40388C8.61618 6.41138 8.61196 6.42156 8.61196 6.43216C8.61463 6.47216 8.61996 6.52283 8.62796 6.58416C8.63596 6.64416 8.67996 6.62416 8.68396 6.58416C8.6893 6.5495 8.6893 6.4975 8.68396 6.42816C8.68396 6.40416 8.67596 6.39083 8.65996 6.38816H8.65196V6.39216ZM9.09596 6.39216C9.08263 6.39216 9.07329 6.4055 9.06796 6.43216L9.07596 6.58416C9.07596 6.62416 9.12396 6.64416 9.12796 6.58416C9.12796 6.52416 9.14396 6.47616 9.14396 6.43616C9.14129 6.4095 9.12796 6.39483 9.10396 6.39216H9.09596ZM8.47996 6.46016C8.45329 6.46816 8.44263 6.4855 8.44796 6.51216C8.46129 6.5655 8.46929 6.61883 8.47196 6.67216C8.47196 6.71616 8.50796 6.70016 8.51196 6.67216L8.51596 6.51216C8.51329 6.47216 8.49996 6.45483 8.47596 6.46016H8.47996ZM9.26396 6.46016C9.25063 6.46283 9.24263 6.48016 9.23996 6.51216L9.24796 6.67216C9.24796 6.70016 9.28796 6.71616 9.28796 6.67216C9.28796 6.61883 9.29463 6.5655 9.30796 6.51216C9.31063 6.4855 9.30129 6.46816 9.27996 6.46016H9.26796H9.26396ZM6.90396 6.46816C6.87729 6.47083 6.86929 6.49083 6.87996 6.52816C6.90396 6.58416 6.93196 6.61616 6.95596 6.67216C6.97996 6.72816 7.01196 6.69216 6.99996 6.65616L6.94396 6.50816C6.93063 6.4815 6.91729 6.46816 6.90396 6.46816ZM10.856 6.46816C10.84 6.46816 10.8266 6.4815 10.816 6.50816C10.78 6.58416 10.768 6.62016 10.756 6.65616C10.748 6.69616 10.78 6.72416 10.804 6.67216L10.876 6.52816C10.8866 6.49083 10.88 6.47083 10.856 6.46816ZM7.06396 6.46816C7.04263 6.47616 7.03596 6.4935 7.04396 6.52016C7.07063 6.56816 7.09463 6.61883 7.11596 6.67216C7.13196 6.71616 7.17196 6.70416 7.15596 6.66416L7.11596 6.51616C7.09729 6.47883 7.07996 6.46283 7.06396 6.46816ZM10.684 6.46816C10.668 6.47083 10.6546 6.48683 10.644 6.51616C10.616 6.59616 10.612 6.62016 10.6 6.66416C10.584 6.70416 10.624 6.71616 10.64 6.67216L10.712 6.52016C10.72 6.4935 10.7146 6.47616 10.696 6.46816H10.684ZM7.26396 6.50816C7.23729 6.51616 7.22929 6.5415 7.23996 6.58416C7.25863 6.6295 7.27996 6.67883 7.30396 6.73216C7.32796 6.78816 7.36396 6.77616 7.35596 6.74016C7.34796 6.7055 7.33196 6.6455 7.30796 6.56016C7.29463 6.52016 7.27996 6.50283 7.26396 6.50816ZM10.496 6.50816C10.4773 6.5055 10.4613 6.52283 10.448 6.56016C10.4213 6.6455 10.4066 6.7055 10.404 6.74016C10.392 6.78016 10.432 6.78816 10.452 6.73216C10.4786 6.67883 10.5 6.6295 10.516 6.58416C10.5266 6.5415 10.52 6.51616 10.496 6.50816ZM6.76796 6.53616C6.74396 6.53616 6.72796 6.57616 6.73996 6.60416C6.75996 6.64416 6.77596 6.66016 6.79596 6.70816C6.81996 6.75616 6.84396 6.72016 6.83596 6.68816C6.82263 6.65616 6.81196 6.61883 6.80396 6.57616C6.79596 6.54683 6.78263 6.5335 6.76396 6.53616H6.76796ZM10.992 6.53616C10.976 6.5335 10.9626 6.54683 10.952 6.57616L10.924 6.68816C10.916 6.72016 10.94 6.75616 10.964 6.70816C10.988 6.66016 10.996 6.64816 11.02 6.60416C11.032 6.57616 11.012 6.54016 10.992 6.53616ZM8.31196 6.64816C8.28396 6.64816 8.25996 6.68016 8.27196 6.70816C8.28529 6.75083 8.29996 6.80016 8.31596 6.85616C8.33196 6.90816 8.36796 6.88416 8.36396 6.84816L8.34396 6.68816C8.33596 6.6615 8.32396 6.64816 8.30796 6.64816H8.31196ZM9.44796 6.64816C9.43196 6.64816 9.42129 6.6615 9.41596 6.68816L9.39196 6.84816C9.39196 6.88416 9.42796 6.90816 9.43996 6.85616L9.48796 6.70816C9.49596 6.68016 9.47196 6.64816 9.44796 6.64816ZM8.87996 6.69616C8.84796 6.69616 8.84396 6.73616 8.84396 6.76416C8.84216 6.85537 8.81441 6.94417 8.76396 7.02016C8.72396 7.06816 8.67196 7.05616 8.62396 7.02816L8.49196 6.94016C8.43596 6.90016 8.39596 6.92416 8.45996 7.01616C8.64396 7.28016 8.84396 7.50416 8.84396 7.93616C8.84396 7.98416 8.85596 8.00683 8.87996 8.00416C8.91596 8.00016 8.91196 7.98816 8.91196 7.93216C8.91196 7.50416 9.11196 7.28016 9.29596 7.01216C9.35996 6.92416 9.31996 6.90016 9.26796 6.94016L9.13596 7.02816C9.08396 7.05616 9.03196 7.06816 8.99596 7.02016C8.94551 6.94417 8.91776 6.85537 8.91596 6.76416C8.91196 6.73616 8.90796 6.69616 8.87596 6.69616H8.87996ZM7.46796 6.63216H7.45996C7.44929 6.63483 7.44529 6.64816 7.44796 6.67216L7.49196 6.82816C7.50396 6.86816 7.54796 6.85616 7.53996 6.80816L7.51596 6.68416C7.50529 6.65216 7.48929 6.63483 7.46796 6.63216ZM10.292 6.63216C10.2706 6.63216 10.2546 6.6495 10.244 6.68416C10.228 6.74016 10.228 6.75616 10.22 6.80416C10.208 6.85616 10.256 6.86416 10.264 6.82816L10.312 6.66816C10.312 6.64683 10.3066 6.63483 10.296 6.63216H10.292ZM6.62796 6.64816C6.59863 6.6535 6.59329 6.6775 6.61196 6.72016C6.63596 6.76816 6.67996 6.82416 6.69996 6.86016C6.71996 6.89616 6.75596 6.86816 6.73196 6.82816C6.70796 6.78816 6.69996 6.73616 6.66796 6.67616C6.66532 6.66774 6.65997 6.66042 6.65273 6.65535C6.64549 6.65029 6.63678 6.64776 6.62796 6.64816ZM11.128 6.64816C11.1146 6.64816 11.1013 6.6575 11.088 6.67616C11.064 6.73483 11.044 6.7855 11.028 6.82816C11.004 6.86816 11.036 6.89216 11.056 6.86016C11.076 6.82816 11.12 6.76816 11.144 6.72016C11.168 6.68016 11.152 6.64816 11.128 6.64816ZM5.35996 6.78016C5.33596 6.78016 5.32796 6.82816 5.35196 6.86016L5.45596 6.96816C5.48796 7.00016 5.49596 6.96016 5.47996 6.92816L5.40796 6.82016C5.38929 6.7935 5.37329 6.78016 5.35996 6.78016ZM12.396 6.78016C12.3826 6.78016 12.368 6.7935 12.352 6.82016L12.276 6.92816C12.26 6.96016 12.268 7.00016 12.304 6.96816L12.408 6.86016C12.432 6.82816 12.424 6.78016 12.396 6.78016ZM5.56396 6.82016C5.53729 6.82016 5.53063 6.8375 5.54396 6.87216L5.61996 7.02416C5.63996 7.06416 5.69996 7.07616 5.67596 7.01616L5.62396 6.86416C5.60796 6.8375 5.58796 6.82416 5.56396 6.82416V6.82016ZM12.196 6.82016C12.1693 6.82016 12.148 6.83483 12.132 6.86416L12.084 7.01616C12.06 7.07616 12.12 7.06416 12.14 7.02416C12.164 6.97883 12.188 6.92816 12.212 6.87216C12.228 6.8375 12.2226 6.82016 12.196 6.82016ZM5.17196 6.83616C5.13996 6.83616 5.13996 6.86416 5.16796 6.88416C5.20529 6.91083 5.24529 6.9415 5.28796 6.97616C5.33996 7.01616 5.35596 6.97616 5.32796 6.94416C5.29996 6.91216 5.27996 6.88016 5.21196 6.84416C5.19596 6.83883 5.18263 6.83616 5.17196 6.83616ZM12.584 6.83616C12.5733 6.83616 12.56 6.83883 12.544 6.84416C12.48 6.88016 12.452 6.91216 12.424 6.94416C12.4 6.98016 12.42 7.01616 12.468 6.97616C12.5106 6.9415 12.5506 6.91083 12.588 6.88416C12.62 6.86416 12.616 6.83616 12.588 6.83616H12.584ZM8.19996 6.86416C8.17863 6.86416 8.16929 6.88016 8.17196 6.91216L8.21196 7.05616C8.21996 7.10016 8.27196 7.10016 8.26396 7.05616C8.25863 7.01616 8.24929 6.96416 8.23596 6.90016C8.23063 6.87616 8.21996 6.86283 8.20396 6.86016H8.19996V6.86416ZM9.55196 6.86416C9.53863 6.86416 9.52796 6.8775 9.51996 6.90416C9.50663 6.9655 9.49729 7.0175 9.49196 7.06016C9.48396 7.10016 9.53596 7.10016 9.54396 7.05616L9.58396 6.91216C9.58929 6.88283 9.5813 6.86683 9.55996 6.86416H9.55196ZM6.99196 6.78416C6.97596 6.78683 6.97329 6.8095 6.98396 6.85216C7.02639 6.96744 7.04806 7.08933 7.04796 7.21216C7.03463 7.25483 7.00929 7.26816 6.97196 7.25216L6.85996 7.18416C6.82796 7.16416 6.79196 7.18816 6.83996 7.22816C7.07996 7.42816 7.25196 7.65616 7.31996 7.93216C7.32796 7.98816 7.36396 7.99616 7.35596 7.93216C7.29996 7.58416 7.28796 7.29616 7.37196 7.12016C7.40396 7.05216 7.37196 6.98816 7.32396 7.09616C7.28796 7.16816 7.23596 7.19616 7.19196 7.13616C7.12944 7.03854 7.07589 6.93545 7.03196 6.82816C7.02396 6.8015 7.01329 6.78683 6.99996 6.78416H6.99596H6.99196ZM10.756 6.78416C10.7426 6.78416 10.732 6.7975 10.724 6.82416C10.696 6.90416 10.608 7.07216 10.564 7.13616C10.52 7.20016 10.468 7.16816 10.436 7.09616C10.384 6.98816 10.356 7.05216 10.384 7.12016C10.468 7.29616 10.456 7.58416 10.404 7.93216C10.392 7.99616 10.428 7.98816 10.444 7.93216C10.5168 7.6507 10.6832 7.40242 10.916 7.22816C10.964 7.18816 10.928 7.16416 10.896 7.18816L10.784 7.24816C10.744 7.2695 10.7186 7.25616 10.708 7.20816C10.7 7.16016 10.716 7.05216 10.776 6.84816C10.7813 6.8135 10.7773 6.79216 10.764 6.78416H10.756ZM5.77596 6.88016C5.75596 6.88016 5.73596 6.89616 5.74796 6.92816C5.76396 6.98416 5.79596 7.04016 5.80796 7.07216C5.81996 7.10416 5.85596 7.09216 5.84796 7.04416L5.82796 6.92016C5.82263 6.8935 5.80529 6.88016 5.77596 6.88016ZM11.98 6.88016C11.9533 6.88016 11.936 6.8935 11.928 6.92016L11.912 7.04416C11.904 7.09216 11.94 7.10816 11.952 7.07216C11.96 7.04016 11.992 6.98416 12.008 6.92816C12.016 6.89616 12.0066 6.88016 11.98 6.88016ZM6.52796 6.81216C6.50396 6.80816 6.49996 6.87216 6.51996 6.90016L6.63196 7.02416C6.66396 7.06416 6.68396 7.02816 6.66396 6.99616L6.55996 6.84416C6.54663 6.82283 6.53596 6.81216 6.52796 6.81216ZM11.228 6.81216C11.22 6.81216 11.2093 6.82283 11.196 6.84416L11.092 6.99616C11.072 7.02816 11.092 7.06416 11.128 7.02416L11.236 6.90016C11.256 6.87216 11.256 6.80816 11.228 6.81216ZM5.94796 6.97216C5.92929 6.9695 5.92263 6.98283 5.92796 7.01216C5.93596 7.05483 5.94663 7.09616 5.95996 7.13616C5.97196 7.17616 5.99996 7.17216 5.99996 7.13216L5.98796 7.00416C5.98697 6.99426 5.98232 6.98509 5.97492 6.97843C5.96752 6.97178 5.95791 6.96811 5.94796 6.96816V6.97216ZM11.808 6.97216C11.7986 6.97198 11.7895 6.97507 11.7822 6.98092C11.7749 6.98677 11.7698 6.99499 11.768 7.00416L11.756 7.13216C11.756 7.17216 11.788 7.18016 11.796 7.13616L11.832 7.01616C11.8346 6.9815 11.8266 6.9655 11.808 6.96816V6.97216ZM6.47196 7.02816C6.44796 7.02816 6.42796 7.05616 6.45596 7.09216C6.49996 7.15216 6.55196 7.19216 6.57196 7.21216C6.59196 7.23216 6.63196 7.22816 6.60396 7.18416L6.51196 7.04416C6.50396 7.02816 6.49063 7.02283 6.47196 7.02816ZM11.272 7.02816C11.2613 7.02816 11.2533 7.0335 11.248 7.04416L11.152 7.18416C11.124 7.22816 11.168 7.23616 11.188 7.21616C11.208 7.19616 11.256 7.15216 11.304 7.09216C11.332 7.05216 11.308 7.02816 11.284 7.02816H11.272ZM5.64396 7.19216C5.62529 7.19216 5.62529 7.2095 5.64396 7.24416C5.70574 7.31909 5.75075 7.40638 5.77596 7.50016C5.77996 7.55616 5.75596 7.55616 5.73196 7.55616C5.65596 7.55616 5.61996 7.50016 5.55596 7.48416C5.48796 7.47216 5.47596 7.50416 5.52396 7.54016C5.75348 7.68484 5.95309 7.87223 6.11196 8.09216C6.15196 8.16816 6.20396 8.19216 6.17596 8.12416C6.09883 7.96798 6.06564 7.79376 6.07996 7.62016C6.09996 7.50816 6.12796 7.43616 6.12396 7.37216C6.12396 7.31216 6.08396 7.31616 6.07196 7.37216L6.03196 7.48416C6.01596 7.50416 5.95996 7.51616 5.91196 7.44816C5.84393 7.36469 5.769 7.28708 5.68796 7.21616C5.67463 7.20283 5.66129 7.19483 5.64796 7.19216H5.64396ZM12.112 7.19216C12.0986 7.19216 12.084 7.20016 12.068 7.21616C11.9883 7.28725 11.9147 7.36485 11.848 7.44816C11.796 7.51616 11.74 7.50416 11.728 7.48816L11.688 7.37216C11.672 7.31616 11.636 7.31216 11.632 7.37216C11.632 7.43616 11.656 7.50816 11.676 7.62016C11.696 7.73216 11.676 7.90816 11.584 8.12416C11.552 8.19216 11.608 8.16416 11.648 8.09216C11.8057 7.87262 12.0039 7.68525 12.232 7.54016C12.28 7.50416 12.272 7.47216 12.204 7.48416C12.136 7.49616 12.1 7.55616 12.028 7.55616C12.004 7.55616 11.976 7.55616 11.98 7.50016C11.984 7.44416 12.052 7.32416 12.112 7.24416C12.1333 7.20683 12.1333 7.1895 12.112 7.19216Z" fill="#000001"/>
<path d="M6.00395 8.50797L6.08395 8.75197L6.00395 8.50797ZM6.16395 8.45997L6.23595 8.70797L6.16395 8.45997ZM6.33995 8.42797L6.38795 8.68397L6.33995 8.42797ZM6.49995 8.39997L6.55195 8.65197L6.49995 8.39997ZM6.70395 8.37997L6.74395 8.63597L6.70395 8.37997ZM6.92395 8.37997L6.96795 8.63197L6.92395 8.37997ZM7.13995 8.30797L7.17195 8.56397L7.13995 8.30797ZM7.33995 8.31997L7.37195 8.57597L7.33995 8.31997ZM7.53595 8.29597L7.56795 8.55197L7.53595 8.29597ZM7.72795 8.27197L7.74795 8.53197L7.72795 8.27197ZM7.93995 8.27197L7.95595 8.53197L7.93995 8.27197ZM8.13195 8.25997L8.14395 8.51997L8.13195 8.25997ZM8.33995 8.24797L8.35195 8.50397L8.33995 8.24797ZM8.57995 8.23997L8.59195 8.49997L8.57995 8.23997ZM11.752 8.50797L11.672 8.75197L11.752 8.50797ZM11.592 8.45997L11.524 8.70797L11.592 8.45997ZM11.42 8.42797L11.372 8.68397L11.42 8.42797ZM11.26 8.39997L11.208 8.65197L11.26 8.39997ZM11.048 8.37997L11.008 8.63597L11.048 8.37997ZM10.832 8.37997L10.788 8.63597L10.832 8.37997ZM10.62 8.30797L10.588 8.56397L10.62 8.30797ZM10.416 8.31997L10.384 8.57597L10.416 8.31997ZM10.224 8.29597L10.188 8.55197L10.224 8.29597ZM10.028 8.27197L10.008 8.53197L10.028 8.27197ZM9.81595 8.27197L9.79995 8.53197L9.81595 8.27197ZM9.62795 8.25997L9.61595 8.51997L9.62795 8.25997ZM9.41595 8.24797L9.40795 8.50397L9.41595 8.24797ZM9.17595 8.23997L9.16795 8.49997L9.17595 8.23997ZM8.87995 8.21997V8.50797V8.21997Z" fill="#FFD83D"/>
<path d="M6.00395 8.50797L6.08395 8.75197M6.16395 8.45997L6.23595 8.70797M6.33995 8.42797L6.38795 8.68397M6.49995 8.39997L6.55195 8.65197M6.70395 8.37997L6.74395 8.63597M6.92395 8.37997L6.96795 8.63197M7.13995 8.30797L7.17195 8.56397M7.33995 8.31997L7.37195 8.57597M7.53595 8.29597L7.56795 8.55197M7.72795 8.27197L7.74795 8.53197M7.93995 8.27197L7.95595 8.53197M8.13195 8.25997L8.14395 8.51997M8.33995 8.24797L8.35195 8.50397M8.57995 8.23997L8.59195 8.49997M11.752 8.50797L11.672 8.75197M11.592 8.45997L11.524 8.70797M11.42 8.42797L11.372 8.68397M11.26 8.39997L11.208 8.65197M11.048 8.37997L11.008 8.63597M10.832 8.37997L10.788 8.63597M10.62 8.30797L10.588 8.56397M10.416 8.31997L10.384 8.57597M10.224 8.29597L10.188 8.55197M10.028 8.27197L10.008 8.53197M9.81595 8.27197L9.79995 8.53197M9.62795 8.25997L9.61595 8.51997M9.41595 8.24797L9.40795 8.50397M9.17595 8.23997L9.16795 8.49997M8.87995 8.21997V8.50797" stroke="black" stroke-width="0.06" stroke-linecap="round" stroke-linejoin="round"/>
</g>
</g>
<defs>
<clipPath id="clip0_2214_3678">
<path d="M0 12C0 5.37258 5.37258 0 12 0C18.6274 0 24 5.37258 24 12C24 18.6274 18.6274 24 12 24C5.37258 24 0 18.6274 0 12Z" fill="white"/>
</clipPath>
<clipPath id="clip1_2214_3678">
<rect width="32" height="24" fill="white"/>
</clipPath>
</defs>
</svg>
