<svg width="24" height="24" viewBox="0 0 24 24" fill="none" xmlns="http://www.w3.org/2000/svg">
<g clip-path="url(#clip0_2214_2956)">
<g clip-path="url(#clip1_2214_2956)">
<path d="M-4 0H28V24H-4V0Z" fill="#FF0000"/>
<path d="M9.60001 4.66504C9.37001 4.66504 8.98501 4.74004 8.99001 4.91504C8.34001 4.81004 8.27501 5.07504 8.31501 5.31504C8.38168 5.21837 8.44668 5.16671 8.51001 5.16004C8.59335 5.15004 8.68335 5.17337 8.78001 5.23004C8.86945 5.28648 8.95028 5.35552 9.02001 5.43504C8.79001 5.49004 8.61001 5.45504 8.43001 5.42504C8.32848 5.4028 8.23188 5.36213 8.14501 5.30504C8.07001 5.25504 8.04501 5.20504 7.93001 5.09004C7.79501 4.95004 7.65001 4.99004 7.69501 5.20504C7.80001 5.40504 7.97501 5.49504 8.19501 5.53504C8.30001 5.55004 8.46001 5.58504 8.64001 5.58504C8.82001 5.58504 9.02001 5.56004 9.13001 5.58504C9.06501 5.62504 8.99001 5.70004 8.84001 5.72504C8.69001 5.75004 8.46501 5.63504 8.32501 5.60504C8.34001 5.72004 8.49001 5.83004 8.78001 5.89004C9.26002 5.99004 9.65501 6.07004 9.92001 6.21504C10.1298 6.33157 10.3149 6.48781 10.465 6.67504C10.7 6.95004 10.715 7.16504 10.725 7.21504C10.775 7.65504 10.62 7.90504 10.33 7.98504C10.19 8.02004 9.93001 7.95004 9.84001 7.84004C9.74001 7.73004 9.65501 7.54004 9.68002 7.24004C9.70501 7.13004 9.83501 6.82504 9.72501 6.76504C9.20364 6.47858 8.66417 6.22638 8.11001 6.01004C7.98501 5.96004 7.88501 6.13004 7.84501 6.20004C7.4756 6.14926 7.12223 6.01649 6.81077 5.81145C6.49932 5.60641 6.23768 5.3343 6.04501 5.01504C5.83501 4.63504 5.48001 5.01504 5.54001 5.38004C5.63501 5.78004 5.94001 6.07004 6.31001 6.28004C6.68001 6.49004 7.16001 6.69004 7.63501 6.68004C7.89501 6.73004 7.89001 7.06004 7.58501 7.12504C6.98001 7.12504 6.49501 7.11504 6.04001 6.67504C5.69501 6.36004 5.50501 6.73504 5.60001 6.94504C5.77001 7.60004 6.70501 7.78504 7.65001 7.57504C8.02001 7.51504 7.80001 7.90504 7.70001 7.91004C7.30001 8.19504 6.59501 8.47004 5.97001 7.91004C5.68501 7.69004 5.49001 7.87004 5.60001 8.18504C5.87501 9.01004 6.93501 8.83504 7.66001 8.43504C7.84501 8.33004 8.01501 8.57004 7.79001 8.75504C6.88501 9.38504 6.43501 9.39504 6.02501 9.15504C5.51501 8.95004 5.47501 9.51504 5.77501 9.70504C6.11001 9.90504 6.96501 9.75504 7.59501 9.35504C7.86501 9.15504 7.87501 9.47004 7.70501 9.59504C6.96001 10.24 6.66501 10.41 5.89001 10.305C5.50501 10.275 5.51001 10.75 5.81001 10.935C6.22501 11.19 7.03501 10.77 7.66001 10.245C7.92501 10.105 7.97001 10.335 7.84001 10.61C7.56305 11.0015 7.18682 11.3122 6.75001 11.51C6.40001 11.645 6.07001 11.625 5.83501 11.545C5.54501 11.445 5.51001 11.745 5.67001 12.015C5.76501 12.18 6.16001 12.23 6.59001 12.08C7.02001 11.93 7.48001 11.57 7.79501 11.155C8.07001 10.91 8.04001 11.235 7.91001 11.465C7.28001 12.465 6.70001 12.835 5.93501 12.775C5.60001 12.715 5.52001 12.975 5.73501 13.225C6.11501 13.535 6.58501 13.525 7.00501 13.215C7.37001 12.865 8.07501 12.095 8.44501 11.685C8.70501 11.48 8.79001 11.685 8.71001 12.105C8.64001 12.345 8.47001 12.605 7.99501 12.785C7.67001 12.97 7.91501 13.225 8.15501 13.235C8.29001 13.235 8.56001 13.075 8.77001 12.845C9.04001 12.535 9.06002 12.33 9.21002 11.85C9.35002 11.62 9.60501 11.73 9.60501 11.97C9.48001 12.45 9.38001 12.535 9.13001 12.73C8.89501 12.955 9.29501 13.03 9.43002 12.935C9.82001 12.675 9.96001 12.335 10.09 12.025C10.19 11.805 10.46 11.91 10.33 12.275C10.03 13.145 9.53001 13.485 8.66501 13.665C8.58001 13.68 8.52501 13.73 8.55501 13.83L8.90501 14.18C8.37001 14.34 7.93501 14.43 7.39501 14.58L6.65501 14.09C6.59001 13.93 6.55501 13.68 6.16501 13.855C5.90501 13.735 5.78001 13.78 5.63501 13.905C5.84501 13.905 5.93501 13.965 6.02001 14.06C6.13001 14.345 6.38001 14.375 6.63501 14.295C6.80001 14.43 6.88501 14.54 7.05501 14.68L6.22001 14.655C5.92001 14.34 5.69001 14.355 5.48001 14.605C5.31501 14.63 5.25001 14.63 5.14001 14.825C5.31001 14.755 5.42001 14.735 5.49501 14.81C5.81001 14.995 6.01501 14.955 6.17001 14.81L7.04501 14.865C6.93501 14.965 6.78501 15.015 6.67001 15.105C6.22001 14.975 5.98001 15.155 5.90001 15.52C5.83682 15.6663 5.81603 15.8275 5.84001 15.985C5.87668 15.8317 5.95835 15.715 6.08501 15.635C6.48501 15.735 6.63501 15.57 6.66001 15.33C6.86001 15.17 7.15001 15.135 7.34501 14.975C7.57501 15.045 7.68501 15.09 7.91501 15.165C7.99501 15.415 8.18335 15.5084 8.48001 15.445C8.83001 15.455 8.77001 15.605 8.80001 15.72C8.90001 15.555 8.89501 15.39 8.67501 15.24C8.59501 15.025 8.41501 14.925 8.18501 15.05C7.96501 14.99 7.91001 14.9 7.69001 14.835C8.24001 14.66 8.63001 14.62 9.18002 14.445L9.56501 14.785C9.64168 14.835 9.70501 14.835 9.75501 14.785C10.1 14.285 10.255 13.85 10.57 13.52C10.695 13.38 10.85 13.2 11.02 13.155C11.105 13.13 11.21 13.145 11.28 13.22C11.345 13.29 11.4 13.425 11.38 13.63C11.345 13.915 11.275 14.01 11.195 14.18C11.115 14.35 11.015 14.46 10.91 14.595C10.71 14.86 10.44 15.015 10.28 15.12C9.96001 15.325 9.83001 15.235 9.58001 15.22C9.26002 15.255 9.18001 15.41 9.44001 15.625C9.68001 15.755 9.90001 15.77 10.08 15.735C10.23 15.705 10.41 15.51 10.54 15.405C10.68 15.24 10.92 15.435 10.755 15.63C10.46 15.98 10.17 16.21 9.80502 16.205C9.42001 16.255 9.49501 16.47 9.74501 16.575C10.205 16.76 10.615 16.41 10.825 16.175C10.985 16 11.1 15.995 11.075 16.27C10.91 16.765 10.695 16.955 10.335 16.98C10.045 16.95 10.04 17.18 10.255 17.33C10.735 17.66 11.085 17.09 11.25 16.75C11.365 16.44 11.545 16.585 11.565 16.84C11.565 17.185 11.415 17.46 11 17.81C11.315 18.315 11.685 18.83 12 19.335L12.96 8.63504L12 6.95004C11.9 6.86004 11.56 6.46004 11.475 6.40004C11.44 6.37004 11.425 6.35004 11.47 6.33004C11.515 6.31004 11.62 6.29004 11.695 6.28004C11.495 6.07504 11.315 6.01004 10.93 5.90004C11.025 5.86004 11.115 5.88004 11.395 5.87004C11.2236 5.6388 10.9893 5.46175 10.72 5.36004C10.93 5.21004 10.97 5.20004 11.18 5.02504C10.8488 4.99958 10.5216 4.93582 10.205 4.83504C10.0161 4.74483 9.81319 4.68735 9.60501 4.66504H9.60001ZM9.64001 5.08504C9.83001 5.08504 9.94501 5.15004 9.94501 5.23004C9.94501 5.31004 9.83001 5.37504 9.64001 5.37504C9.45001 5.37504 9.33001 5.30004 9.33001 5.22504C9.33001 5.14504 9.45001 5.08504 9.64001 5.08504Z" fill="#000001"/>
<path d="M14.4 4.66504C14.63 4.66504 15.015 4.74004 15.01 4.91504C15.66 4.81004 15.725 5.07504 15.685 5.31504C15.6183 5.21837 15.5533 5.16671 15.49 5.16004C15.4067 5.15004 15.3167 5.17337 15.22 5.23004C15.1305 5.28648 15.0497 5.35552 14.98 5.43504C15.21 5.49004 15.39 5.45504 15.57 5.42504C15.6715 5.4028 15.7681 5.36213 15.855 5.30504C15.93 5.25504 15.955 5.20504 16.07 5.09004C16.205 4.95004 16.35 4.99004 16.305 5.20504C16.2 5.40504 16.025 5.49504 15.805 5.53504C15.7 5.55004 15.54 5.58504 15.36 5.58504C15.18 5.58504 14.98 5.56004 14.87 5.58504C14.935 5.62504 15.01 5.70004 15.16 5.72504C15.31 5.75004 15.535 5.63504 15.675 5.60504C15.66 5.72004 15.51 5.83004 15.22 5.89004C14.74 5.99004 14.345 6.07004 14.08 6.21504C13.8702 6.33157 13.6851 6.48781 13.535 6.67504C13.3 6.95004 13.285 7.16504 13.275 7.21504C13.225 7.65504 13.38 7.90504 13.67 7.98504C13.81 8.02004 14.07 7.95004 14.16 7.84004C14.26 7.73004 14.345 7.54004 14.32 7.24004C14.295 7.13004 14.165 6.82504 14.275 6.76504C14.7964 6.47858 15.3358 6.22638 15.89 6.01004C16.015 5.96004 16.115 6.13004 16.155 6.20004C16.5244 6.14926 16.8778 6.01649 17.1892 5.81145C17.5007 5.60641 17.7623 5.3343 17.955 5.01504C18.165 4.63504 18.52 5.01504 18.46 5.38004C18.365 5.78004 18.06 6.07004 17.69 6.28004C17.32 6.49004 16.84 6.69004 16.365 6.68004C16.105 6.73004 16.11 7.06004 16.415 7.12504C17.02 7.12504 17.505 7.11504 17.96 6.67504C18.305 6.36004 18.495 6.73504 18.4 6.94504C18.23 7.60004 17.295 7.78504 16.35 7.57504C15.98 7.51504 16.2 7.90504 16.3 7.91004C16.7 8.19504 17.405 8.47004 18.03 7.91004C18.315 7.69004 18.51 7.87004 18.4 8.18504C18.125 9.01004 17.065 8.83504 16.34 8.43504C16.155 8.33004 15.985 8.57004 16.21 8.75504C17.115 9.38504 17.565 9.39504 17.975 9.15504C18.485 8.95004 18.525 9.51504 18.225 9.70504C17.89 9.90504 17.035 9.75504 16.405 9.35504C16.135 9.15504 16.125 9.47004 16.295 9.59504C17.04 10.24 17.335 10.41 18.11 10.305C18.495 10.275 18.49 10.75 18.19 10.935C17.775 11.19 16.965 10.77 16.34 10.245C16.075 10.105 16.03 10.335 16.16 10.61C16.4369 11.0015 16.8132 11.3122 17.25 11.51C17.6 11.645 17.93 11.625 18.165 11.545C18.455 11.445 18.49 11.745 18.33 12.015C18.235 12.18 17.84 12.23 17.41 12.08C16.98 11.93 16.52 11.57 16.205 11.155C15.93 10.91 15.96 11.235 16.09 11.465C16.72 12.465 17.3 12.835 18.065 12.775C18.4 12.715 18.48 12.975 18.265 13.225C17.885 13.535 17.415 13.525 16.995 13.215C16.63 12.865 15.925 12.095 15.555 11.685C15.295 11.48 15.21 11.685 15.29 12.105C15.36 12.345 15.53 12.605 16.005 12.785C16.33 12.97 16.085 13.225 15.845 13.235C15.71 13.235 15.44 13.075 15.23 12.845C14.96 12.535 14.94 12.33 14.79 11.85C14.65 11.62 14.395 11.73 14.395 11.97C14.52 12.45 14.62 12.535 14.87 12.73C15.105 12.955 14.705 13.03 14.57 12.935C14.18 12.675 14.04 12.335 13.91 12.025C13.81 11.805 13.54 11.91 13.67 12.275C13.97 13.145 14.47 13.485 15.335 13.665C15.42 13.68 15.475 13.73 15.445 13.83L15.095 14.18C15.63 14.34 16.065 14.43 16.605 14.58L17.345 14.09C17.41 13.93 17.445 13.68 17.835 13.855C18.095 13.735 18.22 13.78 18.365 13.905C18.155 13.905 18.065 13.965 17.98 14.06C17.87 14.345 17.62 14.375 17.365 14.295C17.2 14.43 17.115 14.54 16.945 14.68L17.78 14.655C18.08 14.34 18.31 14.355 18.52 14.605C18.685 14.63 18.75 14.63 18.86 14.825C18.69 14.755 18.58 14.735 18.505 14.81C18.19 14.995 17.985 14.955 17.83 14.81L16.955 14.865C17.065 14.965 17.215 15.015 17.33 15.105C17.78 14.975 18.02 15.155 18.1 15.52C18.1632 15.6663 18.184 15.8275 18.16 15.985C18.1233 15.8317 18.0417 15.715 17.915 15.635C17.515 15.735 17.365 15.57 17.34 15.33C17.14 15.17 16.85 15.135 16.655 14.975C16.425 15.045 16.315 15.09 16.085 15.165C16.005 15.415 15.8167 15.5084 15.52 15.445C15.17 15.455 15.23 15.605 15.2 15.72C15.1 15.555 15.105 15.39 15.325 15.24C15.405 15.025 15.585 14.925 15.815 15.05C16.035 14.99 16.09 14.9 16.31 14.835C15.76 14.66 15.37 14.62 14.82 14.445L14.435 14.785C14.3583 14.835 14.295 14.835 14.245 14.785C13.9 14.285 13.745 13.85 13.43 13.52C13.305 13.38 13.15 13.2 12.98 13.155C12.895 13.13 12.79 13.145 12.72 13.22C12.655 13.29 12.6 13.425 12.62 13.63C12.655 13.915 12.725 14.01 12.805 14.18C12.885 14.35 12.985 14.46 13.09 14.595C13.29 14.86 13.56 15.015 13.72 15.12C14.04 15.325 14.17 15.235 14.42 15.22C14.74 15.255 14.82 15.41 14.56 15.625C14.32 15.755 14.1 15.77 13.92 15.735C13.77 15.705 13.59 15.51 13.46 15.405C13.32 15.24 13.08 15.435 13.245 15.63C13.54 15.98 13.83 16.21 14.195 16.205C14.58 16.255 14.505 16.47 14.255 16.575C13.795 16.76 13.385 16.41 13.175 16.175C13.015 16 12.9 15.995 12.925 16.27C13.09 16.765 13.305 16.955 13.665 16.98C13.955 16.95 13.96 17.18 13.745 17.33C13.265 17.66 12.915 17.09 12.75 16.75C12.635 16.44 12.455 16.585 12.435 16.84C12.435 17.185 12.585 17.46 13 17.81C12.685 18.315 12.315 18.83 12 19.335L11.04 8.63504L12 6.95004C12.1 6.86004 12.44 6.46004 12.525 6.40004C12.56 6.37004 12.575 6.35004 12.53 6.33004C12.485 6.31004 12.38 6.29004 12.305 6.28004C12.505 6.07504 12.685 6.01004 13.07 5.90004C12.975 5.86004 12.885 5.88004 12.605 5.87004C12.7764 5.6388 13.0107 5.46175 13.28 5.36004C13.07 5.21004 13.03 5.20004 12.82 5.02504C13.1512 4.99958 13.4784 4.93582 13.795 4.83504C13.9839 4.74483 14.1868 4.68735 14.395 4.66504H14.4ZM14.36 5.08504C14.17 5.08504 14.055 5.15004 14.055 5.23004C14.055 5.31004 14.17 5.37504 14.36 5.37504C14.55 5.37504 14.67 5.30004 14.67 5.22504C14.67 5.14504 14.55 5.08504 14.36 5.08504Z" fill="#000001"/>
</g>
</g>
<defs>
<clipPath id="clip0_2214_2956">
<path d="M0 12C0 5.37258 5.37258 0 12 0C18.6274 0 24 5.37258 24 12C24 18.6274 18.6274 24 12 24C5.37258 24 0 18.6274 0 12Z" fill="white"/>
</clipPath>
<clipPath id="clip1_2214_2956">
<rect width="32" height="24" fill="white" transform="translate(-4)"/>
</clipPath>
</defs>
</svg>
