<svg width="24" height="24" viewBox="0 0 24 24" fill="none" xmlns="http://www.w3.org/2000/svg">
<path d="M15.1559 5.27734L7.9701 13.4642C7.66606 13.8106 7.25172 14.0413 6.79715 14.1174L4.71994 14.4651C4.43713 14.5124 4.17615 14.6468 3.9734 14.8496C3.43552 15.3875 3.43552 16.2596 3.9734 16.7974L5.82791 18.6519L7.70311 20.5272C8.22956 21.0536 9.08311 21.0536 9.60955 20.5272C9.82482 20.3119 9.96088 20.0301 9.9956 19.7277L10.2402 17.5968C10.297 17.1022 10.5361 16.6466 10.9109 16.319L19.4819 8.82697C20.4759 7.95808 21.2201 6.83967 21.6376 5.58718C21.8597 4.92073 21.6862 4.18598 21.1895 3.68925L20.8814 3.38114C20.3419 2.84165 19.5425 2.65609 18.8205 2.90279L18.5817 2.9844C17.259 3.43633 16.0779 4.22689 15.1559 5.27734Z" stroke="white" stroke-width="2" stroke-linecap="round"/>
<path d="M13.2908 6.71289L4.91427 5.97158C4.59705 5.9435 4.28369 6.05738 4.0585 6.28256V6.28256C3.53821 6.80285 3.68189 7.68019 4.34096 8.00734L9.79102 10.7126" stroke="white" stroke-width="2"/>
<path d="M16.828 10.5867C16.7857 10.0361 17.1979 9.55541 17.7485 9.51314C18.2992 9.47088 18.7799 9.88301 18.8221 10.4337L16.828 10.5867ZM17.8251 10.5102L18.8221 10.4337L19.5176 19.4945L18.5206 19.571L17.5235 19.6475L16.828 10.5867L17.8251 10.5102ZM16.4768 20.1329L15.5807 20.5769L12.8948 15.1561L13.7908 14.7121L14.6869 14.2681L17.3728 19.6889L16.4768 20.1329ZM18.2075 20.417L18.9146 21.1241C17.9087 22.13 16.2124 21.8516 15.5807 20.5769L16.4768 20.1329L17.3728 19.6889C17.397 19.7377 17.4619 19.7484 17.5004 19.7099L18.2075 20.417ZM18.5206 19.571L19.5176 19.4945C19.5641 20.0996 19.3438 20.6949 18.9146 21.1241L18.2075 20.417L17.5004 19.7099C17.5168 19.6935 17.5253 19.6707 17.5235 19.6475L18.5206 19.571Z" fill="white"/>
<path d="M3.85547 20.5093L6.85547 17.5093" stroke="white" stroke-width="2" stroke-linecap="round"/>
</svg>
