<svg width="24" height="24" viewBox="0 0 24 24" fill="none" xmlns="http://www.w3.org/2000/svg">
<g clip-path="url(#clip0_2214_3364)">
<g clip-path="url(#clip1_2214_3364)">
<path fill-rule="evenodd" clip-rule="evenodd" d="M0 0H32V24H0V0Z" fill="#BE0027"/>
<path fill-rule="evenodd" clip-rule="evenodd" d="M0 24L32 23.985V12L0 24Z" fill="#B4D7F4"/>
<path fill-rule="evenodd" clip-rule="evenodd" d="M0 0L32 0.015V12L0 0Z" fill="#239E46"/>
<path fill-rule="evenodd" clip-rule="evenodd" d="M9.30999 18.0199C8.77499 18.1699 8.47 18.5849 8.475 18.9749L11.115 18.9649C11.135 18.5449 10.79 18.1549 10.265 17.9999C12.845 17.9499 15.085 16.9799 15.495 16.3599C15.095 16.1849 14.625 16.4649 14.295 16.3999C15.08 16.0349 17.445 14.5049 17.06 12.8649C16.76 13.7749 15.86 14.5299 15.47 14.7349C16.355 13.3949 17.56 11.9949 16.515 10.9149C16.565 11.5399 16.115 12.2299 15.915 12.2849C16.43 10.8649 16.915 9.0849 15.81 7.9149C15.955 8.3399 15.895 9.5349 15.695 9.5899C15.635 8.6249 15.47 6.5999 14.455 6.6249C14.775 6.9149 14.915 7.6949 14.925 8.4849C14.7173 7.93892 14.3496 7.46838 13.87 7.1349C13.3688 6.26671 12.6547 5.54053 11.795 5.0249C11.885 5.6599 11.96 6.1599 12.845 6.8199C12.385 6.7899 11.925 5.9149 11.43 5.8899C11.035 5.8699 10.73 6.2449 10.085 6.0299C10.155 6.2399 10.455 6.3349 10.52 6.4899C10.38 6.5899 10.055 6.4749 9.78499 6.3399C10.16 6.8399 10.735 7.1399 11.225 7.0399C11.81 6.9299 12.435 6.9899 13.035 7.3299C12.6648 7.40735 12.2838 7.41751 11.91 7.3599C12.255 7.7099 12.485 7.9449 13.09 7.9399C13.625 7.9399 13.91 7.6499 14.045 7.8299C14.385 8.2299 14.61 8.6299 14.895 9.0999C14.27 9.1649 14.46 8.3949 13.765 7.9999C13.37 8.7999 14.215 9.7599 14.78 10.1599C14.764 10.7064 14.8861 11.2481 15.135 11.7349C15.31 12.0599 15.535 12.3949 15.45 13.1299C15.105 12.8799 14.775 12.0399 14.9 11.3749C14.47 11.4899 14.3 12.2449 14.5 12.6249C14.65 12.9099 14.75 13.4649 14.58 13.7099C14.41 13.9399 14.395 13.9099 14.395 14.4099C14.4 14.6999 14.235 15.0499 13.97 15.2949C14.0467 15.0389 14.0655 14.7691 14.025 14.5049C13.815 14.8649 13.28 15.2349 13.115 15.6249C12.95 16.0149 12.91 16.6849 12.115 16.8399C11.085 17.0399 10.73 17.2199 10.075 17.4899C10 16.9899 10.22 15.9399 10.64 16.0049C11.045 16.0749 12.29 15.5749 11.84 14.5299C11.755 14.8599 11.465 15.1799 11.145 15.1949C11.49 14.7549 12.095 14.2949 11.8 13.5549C11.6204 13.927 11.3375 14.2394 10.985 14.4549C11.405 13.6549 11.035 13.4049 10.535 14.0749C10.345 14.3299 10.23 14.8449 10.11 15.4999C9.90999 14.9699 9.92499 14.2699 9.68999 13.6999C9.45 13.0849 10.015 12.9249 10.28 12.9749C10.93 13.1499 12.025 13.1499 11.945 12.0699C11.66 12.4349 11.17 12.5449 10.635 12.4199C11.235 11.9799 11.705 11.1549 11.035 10.7199C11.005 10.9751 10.9121 11.2188 10.7646 11.4291C10.6171 11.6394 10.4197 11.8098 10.19 11.9249C10.083 11.5191 10.0779 11.0932 10.175 10.6849C9.915 10.9649 9.725 11.5349 9.57 12.1949C9.555 11.5449 9.68 11.0799 9.77 10.7299C9.91 10.2249 10.25 10.5549 10.77 10.5899C11.28 10.6199 11.97 10.3399 11.84 9.6549C11.67 9.9299 11.315 10.0349 10.955 10.0049C11.39 9.7399 12.145 9.2749 11.73 8.5549C11.555 8.8249 11.5 9.0549 10.995 9.1399C11.125 8.8399 11.145 8.4049 11.545 8.2399C10.845 8.0949 10.445 8.5549 10.235 9.2749C10.155 8.7749 10.055 8.5949 10.035 8.2249C10.415 7.8099 10.455 6.9849 9.63499 6.8049C9.58126 7.09532 9.6019 7.39461 9.695 7.6749C9.31 7.4449 8.77 7.3199 8.405 7.6399C8.655 7.9049 9.02999 8.1399 9.615 7.8499C9.475 8.2999 9.115 8.2249 8.625 8.0499C8.92499 8.6149 9.305 8.7149 9.725 8.6499C9.945 9.2299 9.95499 9.6699 9.30999 10.5099C9.33999 9.9899 9.305 9.5999 8.89 9.1749C8.53 8.8249 8.24 9.1899 8.79999 9.9649C8.46 9.7149 8.08 9.2149 7.965 8.7099C7.855 9.3299 7.955 10.0649 8.29999 10.4799C8.13499 10.6549 7.95 10.4599 7.67499 10.0299C7.775 11.3999 8.35999 11.6649 9.14499 11.3599C9.16499 12.1099 9.165 12.8049 9.20999 13.7099C8.75499 13.0499 8.175 12.5599 7.855 12.4399C7.755 12.8049 8.12999 13.2899 8.345 13.5549C8.01999 13.4849 7.31999 12.9549 7.31999 12.9549C7.24999 13.5599 8.03499 14.1249 8.54499 14.3749C7.94499 14.3499 7.67999 14.1249 7.29499 13.7549C7.30499 15.4449 9.125 15.1499 9.47 14.8899L9.62 17.5149C9.105 17.4249 9.145 17.2649 8.705 17.2299C7.48 17.1799 6.51 15.7599 6.19 14.7149C6.095 14.8849 6.16999 15.0649 6.085 15.2799C5.88499 14.7649 5.635 14.0999 5.29 13.7899C5.38 14.0899 5.38999 14.3949 5.35999 14.9549C5.24 14.5949 5.13499 14.4799 5.12499 14.0549C5.13 13.7299 5.44 13.4899 5.425 13.0299C5.41 12.6949 5.105 11.9649 5.05999 11.4049C4.90999 11.9849 4.82 12.5949 4.59 12.9549C4.705 12.3349 4.66999 11.9049 4.85999 11.4899C5.07999 11.0549 5.265 10.6599 5.12 10.2199C4.98 10.3899 5.025 10.5449 4.67 10.9599C4.595 10.5099 5.13 9.7849 5.65 9.4949C6.015 9.3049 6.475 8.6149 6.175 8.1449C5.83 8.3949 5.675 8.7249 5.19 9.2949C5.54 7.9449 6.44 7.5849 7.515 7.5799C7.75 7.5799 8.23 7.4949 8.365 7.1799C8.065 7.2949 7.705 7.3099 7.38499 7.2499C7.62 6.9049 8.105 6.9499 8.565 6.9499C8.92 6.9499 9.48 6.8999 9.705 6.3899C9.21077 6.58195 8.66897 6.61515 8.155 6.4849C8.84 6.1349 9.905 6.0949 10.455 5.6299C9.83 5.1649 8.27 5.7399 7.285 6.4149C7.56 6.1649 7.995 5.7149 8.23499 5.3549C7.69499 5.0949 6.335 6.6049 5.865 7.5049C5.415 7.7549 5.24 8.1549 5.065 8.4299C5.3 7.6249 5.325 7.0399 5.525 6.3799C4 6.8999 4.63 9.7299 4.3 10.4099C4.34 9.6599 4.305 8.7049 4 8.2099C3.53 8.5699 3.48999 10.6849 3.92999 12.4449C3.76999 11.9749 3.47 11.5349 3.375 10.9599C2.675 12.2299 3.78499 13.7349 4.70999 14.9199C4.00999 14.5549 3.325 13.7749 2.87 13.1199C2.995 15.3999 5.37 15.8699 5.74 16.4299C5.24 16.1949 4.285 15.7349 3.875 16.2199C4.44458 16.3255 4.99121 16.5303 5.49 16.8249C6.11 17.5949 7.27499 17.9349 9.30999 18.0199Z" fill="#F3E295"/>
</g>
</g>
<defs>
<clipPath id="clip0_2214_3364">
<path d="M0 12C0 5.37258 5.37258 0 12 0C18.6274 0 24 5.37258 24 12C24 18.6274 18.6274 24 12 24C5.37258 24 0 18.6274 0 12Z" fill="white"/>
</clipPath>
<clipPath id="clip1_2214_3364">
<rect width="32" height="24" fill="white"/>
</clipPath>
</defs>
</svg>
