<svg width="24" height="24" viewBox="0 0 24 24" fill="none" xmlns="http://www.w3.org/2000/svg">
<g clip-path="url(#clip0_2214_3643)">
<g clip-path="url(#clip1_2214_3643)">
<mask id="mask0_2214_3643" style="mask-type:luminance" maskUnits="userSpaceOnUse" x="-4" y="0" width="32" height="24">
<path d="M-3.99844 0H27.9984V24H-3.99844V0Z" fill="white"/>
</mask>
<g mask="url(#mask0_2214_3643)">
<path fill-rule="evenodd" clip-rule="evenodd" d="M-6 18H30V24H-6V18ZM-6 0H30V6H-6V0Z" fill="#EE161F"/>
<path fill-rule="evenodd" clip-rule="evenodd" d="M-6 6H30V18H-6V6Z" fill="white"/>
<path d="M11.8172 6.0938C11.4516 6.82036 11.2078 6.82036 10.5984 7.31255C10.3547 7.55161 9.98907 7.67349 10.4766 7.92192C9.98438 8.16099 9.74063 8.28286 9.49688 8.77036L9.61876 8.89224C9.61876 8.89224 10.0875 8.66724 10.1063 8.77036C10.1906 8.8688 9.49688 9.23911 9.40782 9.30005L8.89219 9.62817C8.27813 10.111 7.90782 9.98911 7.54688 10.7204L8.76563 10.5985C9.00938 11.4516 8.15626 11.5735 7.54688 11.9391L6.56719 12.5485C6.81563 13.4016 7.54688 12.9141 8.15626 12.6704L8.27813 12.7922V13.036L7.05938 13.6454C7.05938 13.6454 5.61563 14.4704 5.59219 14.4985C5.58282 14.5454 5.59219 14.7422 5.59219 14.7422C6.07969 14.8641 6.81094 14.986 7.30313 14.7422C7.91251 14.4985 8.03438 14.2547 8.76563 14.2547C8.06129 14.803 7.2163 15.141 6.32813 15.2297V15.7172C7.05938 15.7172 7.54688 15.7172 8.15626 15.5954L9.74063 15.1079C10.1063 15.1079 10.4766 15.4735 10.35 15.8391C9.98907 17.1797 8.52188 16.936 8.03438 18.0329L9.98438 17.2969C10.4719 17.0532 10.9594 16.8141 11.5688 16.936C12.3 17.1797 12.3 17.6672 13.275 17.911L13.0313 17.3016C13.275 17.4235 13.5188 17.4235 13.7672 17.5454C14.3766 17.7891 14.4984 18.0329 15.2297 17.911C14.6203 17.1797 14.4984 17.3016 14.0109 16.8141C13.5234 16.0829 13.275 14.986 14.0109 14.8641L14.8641 15.1079C15.7172 15.2297 15.7172 14.986 16.9359 15.4735C17.6719 15.7172 17.9156 16.0829 18.7641 15.8391C18.4031 14.986 17.0625 14.3766 16.2047 14.1329C17.1844 13.5235 16.9359 14.3766 18.2813 14.011V13.7672C17.3109 13.0313 16.9406 12.4219 15.6 12.4219L17.6766 12.1782V11.9344C17.6766 11.9344 15.6281 11.4 15.5813 11.3766C15.5953 11.3157 15.6469 11.2219 15.7828 11.1657C16.1719 11.4188 17.3438 11.3907 17.4141 11.386C17.3766 11.086 16.8188 10.8375 16.3359 10.5938C16.3359 10.5938 14.2406 9.30474 14.2313 9.19224C14.2734 8.86411 15.0891 9.2438 15.9656 9.49692C15.7219 9.00942 15.2344 8.76567 14.7469 8.6438L15.4781 8.52192C14.9906 7.42505 13.7719 7.54692 13.0406 7.05942C12.5484 6.6938 12.5484 6.45005 11.8172 6.08911V6.0938Z" fill="#00A850"/>
<path fill-rule="evenodd" clip-rule="evenodd" d="M10.5 14.2031C10.5891 13.9171 10.7063 13.6593 10.1625 13.4109C9.61876 13.1624 10.4344 14.3999 10.5 14.2078V14.2031ZM11.1422 13.6265C11.0344 13.6406 10.9734 14.039 11.1938 14.1515C11.4375 14.189 11.2406 13.6312 11.1422 13.6265ZM11.775 13.5796C11.6625 13.6171 11.6578 14.1796 12.0563 14.0765C12.4594 13.9781 12.0563 13.5374 11.775 13.5843V13.5796ZM12.5156 12.1406C12.6 11.9999 12.5109 11.4374 12.1688 11.6718C11.8266 11.9062 12.4031 12.1781 12.5156 12.1406ZM11.7656 11.6718C11.8734 11.6296 11.8828 11.2828 11.5781 11.3765C11.2828 11.4656 11.6859 11.7421 11.7656 11.6718ZM11.0906 11.8077C11.0906 11.8077 10.8797 11.5171 10.7156 11.5781C10.5141 11.7749 11.1047 11.8124 11.0906 11.8077ZM8.76563 12.7359C8.85469 12.7453 9.51563 12.6281 9.74532 12.3702C9.97501 12.1124 8.56876 12.4781 8.56876 12.4827C8.56876 12.4874 8.70001 12.7124 8.76563 12.7359ZM15.3797 11.0953C15.4125 11.0343 15.0281 10.7624 14.7984 10.8702C14.7375 11.0718 15.3797 11.1374 15.3797 11.0953ZM14.0766 10.439C14.1516 10.3359 13.9125 9.90931 13.4344 10.1484C12.9563 10.3828 13.9359 10.6078 14.0766 10.4437V10.439ZM12.5719 10.1906C12.5719 10.1906 12.6891 9.80619 12.975 9.88119C13.3031 10.1296 12.5859 10.2046 12.5719 10.1906ZM12.2906 9.89994C12.2438 9.79213 11.9484 9.85306 11.6063 10.0828C11.2594 10.3031 12.3938 10.1484 12.2906 9.89525V9.89994ZM13.1672 8.864C13.1672 8.864 13.4719 8.72338 13.5656 8.864C13.6922 9.06556 13.1625 8.864 13.1672 8.864ZM12.9094 8.72806C12.8484 8.60619 12.5109 8.59213 12.5203 8.77494C12.4641 8.91556 12.9609 8.88744 12.9094 8.72806ZM12.1031 8.72806C12.0703 8.65775 11.5875 8.72806 11.4469 9.01869C11.6813 9.13119 12.2109 8.91088 12.1031 8.72806ZM11.0719 9.02338C11.0719 9.02338 10.4438 9.41244 10.4016 9.69369C10.4203 9.93744 11.1891 9.25306 11.1891 9.25306C11.1891 9.25306 11.2547 8.98119 11.0766 9.02338H11.0719ZM10.3734 8.67181C10.3922 8.59213 10.6875 8.40931 10.7109 8.42338C10.7344 8.50306 10.4719 8.71869 10.3734 8.67181ZM10.575 10.1531C10.5891 10.0359 9.82501 10.0453 10.1109 10.3968C10.3547 10.6921 10.6266 10.2046 10.575 10.1531ZM9.87188 10.6546C9.83438 10.5796 9.77813 10.3734 9.67501 10.3546C9.58594 10.3546 9.12657 10.4484 9.08907 10.5234C9.07032 10.5843 9.28126 10.964 9.35157 10.9734C9.43594 11.0062 9.86251 10.6921 9.87657 10.6546H9.87188ZM14.0156 13.2421C14.0391 13.1578 14.8266 12.8906 15.0938 13.1484C15.4125 13.5843 13.9969 13.3828 14.0156 13.2421ZM16.1719 13.7531C16.3453 13.4624 15.6422 13.1156 15.3469 13.4484C15.45 13.8468 16.0313 13.9921 16.1719 13.7531Z" fill="white" stroke="white" stroke-width="0.15" stroke-linecap="round" stroke-linejoin="round"/>
</g>
</g>
</g>
<defs>
<clipPath id="clip0_2214_3643">
<path d="M0 12C0 5.37258 5.37258 0 12 0C18.6274 0 24 5.37258 24 12C24 18.6274 18.6274 24 12 24C5.37258 24 0 18.6274 0 12Z" fill="white"/>
</clipPath>
<clipPath id="clip1_2214_3643">
<rect width="32" height="24" fill="white" transform="translate(-4)"/>
</clipPath>
</defs>
</svg>
