<svg width="24" height="24" viewBox="0 0 24 24" fill="none" xmlns="http://www.w3.org/2000/svg">
<g clip-path="url(#clip0_3053_1925)">
<g clip-path="url(#clip1_3053_1925)">
<path d="M-3.90051 0H28.0995V24H-3.90051V0Z" fill="#008000"/>
<path d="M12.6622 14.9199C14.1704 14.9199 15.3929 13.6973 15.3929 12.1892C15.3929 10.6811 14.1704 9.4585 12.6622 9.4585C11.1541 9.4585 9.93152 10.6811 9.93152 12.1892C9.93152 13.6973 11.1541 14.9199 12.6622 14.9199Z" fill="#FFE000"/>
<path d="M13.5137 14.4366C14.7551 14.4366 15.7613 13.4303 15.7613 12.189C15.7613 10.9477 14.7551 9.94141 13.5137 9.94141C12.2724 9.94141 11.2661 10.9477 11.2661 12.189C11.2661 13.4303 12.2724 14.4366 13.5137 14.4366Z" fill="#008000"/>
<path d="M4.0566 12.3161C5.63482 12.3161 6.91423 11.0367 6.91423 9.45846C6.91423 7.88023 5.63482 6.60083 4.0566 6.60083C2.47838 6.60083 1.19897 7.88023 1.19897 9.45846C1.19897 11.0367 2.47838 12.3161 4.0566 12.3161Z" fill="#FFE000"/>
<path d="M3.86023 11.6159H4.57668C4.57668 11.6159 4.60534 11.5504 4.5685 11.5176C4.52755 11.4849 4.37608 11.4767 4.41702 11.362C4.4989 11.1246 4.51527 11.1983 4.5685 10.6333C4.60744 10.1496 4.63474 9.66498 4.65038 9.17993H4.54393C4.54393 9.17993 4.5644 9.45423 4.50299 9.8145C4.44567 10.1748 4.4252 10.2034 4.3597 10.4818C4.32884 10.6385 4.28362 10.792 4.2246 10.9404C4.16728 11.1041 4.15909 11.1082 4.06902 11.2597C3.97486 11.4071 4.00761 11.3498 3.95849 11.4398C3.92983 11.4849 3.90117 11.4726 3.8807 11.5053C3.86432 11.5381 3.86023 11.6159 3.86023 11.6159Z" fill="#802000" stroke="#7B3100" stroke-width="0.05625"/>
<path d="M4.40457 7.37891C4.41395 7.50649 4.39723 7.63465 4.35544 7.75556C4.29871 7.88205 4.26674 8.01824 4.26128 8.15677C4.18759 8.18133 4.1098 7.9971 4.03611 8.10764C4.08933 8.25912 4.21624 8.37785 4.29813 8.51295C4.3145 8.55389 4.43732 8.66443 4.36363 8.68899C4.18759 8.62758 4.14255 8.40241 4.03611 8.26731C3.97381 8.15079 3.88286 8.05206 3.77184 7.98043C3.66081 7.90881 3.53337 7.86664 3.40154 7.85791C3.29918 7.862 2.97576 7.83744 3.05764 8.00939C3.18046 8.09127 3.33603 8.14858 3.45885 8.24274C3.55301 8.25093 3.71677 8.40651 3.70859 8.46382C3.54483 8.39832 3.47113 8.32053 3.29918 8.25093C3.06173 8.16086 2.7383 8.21409 2.6032 8.44745C2.58273 8.50886 2.54588 8.6849 2.62367 8.70537C2.71374 8.56617 2.84065 8.40651 3.02898 8.45154C3.17636 8.46382 2.86522 8.72584 2.98394 8.67262C3.02489 8.65624 3.10677 8.59892 3.17227 8.59074C3.23368 8.59074 3.26643 8.63168 3.31147 8.63986C3.40563 8.65215 3.43429 8.68899 3.42201 8.71356C3.41382 8.73812 3.38106 8.71356 3.2869 8.74631C3.24187 8.76268 3.2173 8.80363 3.16408 8.8241C3.10677 8.84047 2.99213 8.84457 2.95119 8.8241C2.79971 8.76269 2.55407 8.77087 2.50904 8.9592C2.50904 9.04108 2.43535 8.95101 2.40259 8.98786C2.37394 9.07792 2.36984 9.16799 2.23883 9.1598C2.15695 9.24169 2.07507 9.33175 1.96863 9.39316C2.03004 9.53236 2.26749 9.25397 2.25521 9.37269C2.15286 9.51598 2.31253 9.54464 2.37803 9.4341C2.49676 9.31128 2.64414 9.15981 2.81609 9.28672C2.89797 9.36451 2.9471 9.24578 3.00851 9.24578C3.04945 9.34813 3.09448 9.25397 3.13952 9.22531C3.20912 9.21712 3.18865 9.31538 3.27053 9.25397C3.43838 9.14343 3.64308 9.23759 3.80684 9.13115C3.98289 9.04927 3.83141 9.19256 3.78637 9.24987C3.70859 9.39726 3.77409 9.59377 3.61033 9.68384C3.54073 9.85988 3.68812 10.0932 3.54073 10.2243C3.52026 10.3061 3.72906 10.2979 3.78637 10.3307C3.89282 10.3307 3.78637 10.0932 3.88872 10.0605C4.02792 10.1424 4.01973 9.90492 3.99107 9.83122C4.00745 9.66746 4.01564 9.47914 4.09752 9.32766C4.18759 9.14343 4.26947 9.40545 4.17121 9.47914C4.11389 9.64699 4.03201 9.86398 4.15893 10.0236C4.19987 10.0318 4.22853 10.1219 4.27356 10.1465C4.32269 10.1751 4.38819 10.1424 4.39638 10.0605C4.46189 9.81485 4.42913 9.55283 4.5192 9.31128C4.58061 9.23759 4.66659 9.299 4.70343 9.3686C4.82625 9.51189 4.91223 9.68793 5.05961 9.80666C5.19913 9.86372 5.31279 9.97009 5.37895 10.1055C5.37895 10.212 5.6819 10.2283 5.59184 10.1055C5.50586 9.99499 5.56318 9.87626 5.64915 9.79847C5.69828 9.81075 5.686 9.72478 5.64915 9.75753C5.58774 9.74525 5.58365 9.63471 5.66553 9.68793C5.80882 9.73297 5.65734 9.58558 5.60412 9.58149C5.48539 9.5078 5.35029 9.42592 5.29297 9.29491C5.44854 9.29491 5.60821 9.38088 5.76378 9.33175C5.8907 9.26625 6.01761 9.33175 6.06265 9.44639C6.1609 9.43001 6.11996 9.33175 6.06265 9.299C6.13225 9.27034 6.18547 9.20893 6.0954 9.15571C6.05446 9.09839 6.15681 8.99195 6.0258 9.00014C6.0299 8.89779 5.99305 8.80772 5.88251 8.77087C5.77197 8.6808 5.44854 8.91007 5.46083 8.70127C5.42807 8.58664 5.59184 8.6849 5.63687 8.62758C5.6819 8.50476 5.4117 8.52114 5.50177 8.42288C5.55908 8.39013 5.83338 8.33691 5.62049 8.29597C5.57236 8.31008 5.5217 8.31335 5.47216 8.30557C5.42261 8.29778 5.3754 8.27912 5.33391 8.25093C5.25613 8.37785 5.03914 8.17724 5.07599 8.40651C5.04733 8.49248 4.85082 8.71765 4.7976 8.5457C4.83854 8.4106 5.07599 8.36966 5.0023 8.18543C4.99001 8.07489 4.89585 8.2059 4.85491 8.19771C4.83035 8.12811 4.92042 8.04214 4.98592 8.02576C5.10874 8.12402 5.10874 7.90294 5.23156 7.92341C5.31754 7.90294 5.2029 7.86609 5.17834 7.84972C5.2029 7.78831 5.33801 7.75556 5.207 7.69824C5.08827 7.61636 5.0023 7.78421 4.90813 7.7924C4.81807 7.69005 4.99001 7.64092 5.03914 7.5877C5.04324 7.54676 4.94089 7.57542 4.96954 7.53857C4.9982 7.49354 5.18243 7.48944 5.09237 7.41575C4.95471 7.37374 4.80656 7.38246 4.67478 7.44032C4.5929 7.46488 4.57242 7.64502 4.50283 7.63683C4.47417 7.55495 4.51511 7.39938 4.40457 7.37891ZM5.01867 9.11068C5.11693 9.0943 5.01867 9.26216 4.97773 9.25806C4.97773 9.20074 4.83035 9.20484 4.92451 9.15162C4.9533 9.13264 4.98516 9.11879 5.01867 9.11068Z" fill="#008000"/>
<path d="M19.2152 15.6206L19.3956 16.1816L19.9468 15.9729L19.6208 16.4639L20.1277 16.7647L19.5402 16.8159L19.621 17.3998L19.2152 16.9725L18.8092 17.3996L18.89 16.8159L18.3027 16.7645L18.8097 16.4637L18.4834 15.9726L19.0346 16.1814L19.2152 15.6206Z" fill="#FFE000"/>
<path d="M15.9396 10.4338L16.12 10.9949L16.6712 10.7861L16.3451 11.2772L16.8521 11.578L16.2646 11.6292L16.3454 12.2131L15.9396 11.7857L15.5335 12.2128L15.6144 11.6292L15.0271 11.5777L15.534 11.2769L15.2078 10.7858L15.7589 10.9946L15.9396 10.4338Z" fill="#FFE000"/>
<path d="M19.2152 6.8855L19.3956 7.44651L19.9468 7.23776L19.6208 7.72884L20.1277 8.02963L19.5402 8.08084L19.621 8.66473L19.2152 8.23734L18.8092 8.66447L18.89 8.08084L18.3027 8.02937L18.8097 7.72858L18.4834 7.2375L19.0346 7.44625L19.2152 6.8855Z" fill="#FFE000"/>
<path d="M22.1269 9.56055L22.3073 10.1216L22.8584 9.91281L22.5324 10.4039L23.0393 10.7047L22.4518 10.7559L22.5327 11.3398L22.1269 10.9124L21.7208 11.3395L21.8016 10.7559L21.2144 10.7044L21.7213 10.4036L21.395 9.91255L21.9462 10.1213L22.1269 9.56055Z" fill="#FFE000"/>
<path d="M20.5255 12.189L20.6682 12.5386L21.0447 12.5662L20.7561 12.81L20.8463 13.1766L20.5255 12.9775L20.2047 13.1769L20.2947 12.8103L20.0061 12.5664L20.3831 12.5389L20.5255 12.189Z" fill="#FFE000"/>
</g>
</g>
<defs>
<clipPath id="clip0_3053_1925">
<rect width="24" height="24" fill="white" transform="translate(-0.000488281)"/>
</clipPath>
<clipPath id="clip1_3053_1925">
<rect x="-0.000488281" width="24" height="24" rx="12" fill="white"/>
</clipPath>
</defs>
</svg>
