<svg width="24" height="24" viewBox="0 0 24 24" fill="none" xmlns="http://www.w3.org/2000/svg">
<g clip-path="url(#clip0_2214_3423)">
<path d="M-6.10352e-05 12.0001C-6.10352e-05 13.4679 0.263986 14.874 0.74633 16.174L11.9999 16.6958L23.2535 16.174C23.7359 14.874 23.9999 13.4679 23.9999 12.0001C23.9999 10.5323 23.7359 9.12619 23.2535 7.82621L11.9999 7.30444L0.74633 7.82616C0.263986 9.12619 -6.10352e-05 10.5323 -6.10352e-05 12.0001H-6.10352e-05Z" fill="#FFDA44"/>
<path d="M12 0C6.8404 0 2.44188 3.2565 0.746368 7.82611H23.2536C21.5581 3.2565 17.1596 0 12 0Z" fill="#D80027"/>
<path d="M23.2536 16.1738H0.746368C2.44188 20.7434 6.8404 23.9999 12 23.9999C17.1596 23.9999 21.5581 20.7434 23.2536 16.1738Z" fill="#496E2D"/>
<path d="M11.9998 7.82617L13.0357 11.0146H16.3886L13.6763 12.9854L14.7122 16.174L11.9998 14.2033L9.28738 16.174L10.3235 12.9854L7.61118 11.0146H10.9639L11.9998 7.82617Z" fill="black"/>
</g>
<defs>
<clipPath id="clip0_2214_3423">
<rect width="24" height="24" fill="white"/>
</clipPath>
</defs>
</svg>
