<svg width="24" height="24" viewBox="0 0 24 24" fill="none" xmlns="http://www.w3.org/2000/svg">
<g clip-path="url(#clip0_2214_2929)">
<g clip-path="url(#clip1_2214_2929)">
<path d="M0 0H32V12H0V0Z" fill="#0038A8"/>
<path d="M0 12H32V24H0V12Z" fill="#CE1126"/>
<path d="M20.785 12L0 24V0" fill="white"/>
<path d="M1.335 2.12012L2.05 2.75012L2.88 2.29012L2.51 3.16512L3.21 3.81512L2.26 3.73512L1.855 4.59512L1.64 3.67012L0.699997 3.55012L1.515 3.05012L1.335 2.12012ZM17.525 10.7351L17.545 11.6851L18.445 12.0001L17.545 12.3101L17.525 13.2601L16.95 12.5051L16.04 12.7801L16.58 12.0001L16.04 11.2201L16.95 11.4951L17.525 10.7351ZM1.86 19.4051L2.26 20.2651L3.21 20.1851L2.515 20.8351L2.885 21.7101L2.055 21.2551L1.335 21.8751L1.515 20.9401L0.699997 20.4501L1.645 20.3301L1.86 19.4051ZM7.57 6.95512L7.26 7.26512L7.415 9.61512L7.265 9.63012L6.98 7.48512L6.725 7.73512L7.105 9.65512C6.79792 9.71622 6.50576 9.83682 6.245 10.0101L5.16 8.39012H4.8L6.12 10.1051L6 10.2051L4.445 8.43012H4.005V8.87012L5.775 10.4201L5.675 10.5451L3.96 9.23012V9.58512L5.585 10.6701C5.41166 10.9301 5.29333 11.2168 5.23 11.5301L3.315 11.1501L3.06 11.4001L5.205 11.6851C5.195 11.7385 5.19 11.7901 5.19 11.8401L2.84 11.6901L2.53 12.0001L2.84 12.3101L5.19 12.1551L5.205 12.3101L3.06 12.5951L3.31 12.8451L5.23 12.4651C5.2911 12.7722 5.4117 13.0644 5.585 13.3251L3.96 14.4101V14.7701L5.675 13.4551L5.775 13.5751L4.005 15.1251V15.5651H4.45L6 13.7951L6.125 13.8951L4.8 15.6101H5.16L6.245 13.9851C6.505 14.1585 6.79166 14.2768 7.105 14.3401L6.725 16.2601L6.975 16.5101L7.26 14.3651C7.31 14.3751 7.36166 14.3801 7.415 14.3801L7.265 16.7301L7.57 17.0401L7.885 16.7301L7.73 14.3801L7.88 14.3651L8.165 16.5151L8.42 16.2601L8.04 14.3401C8.34707 14.279 8.63923 14.1584 8.9 13.9851L9.985 15.6101H10.345L9.025 13.8951L9.145 13.7951L10.7 15.5651H11.14V15.1251L9.37 13.5751L9.47 13.4551L11.185 14.7701V14.4101L9.56 13.3251C9.73333 13.0651 9.85166 12.7785 9.915 12.4651L11.83 12.8451L12.085 12.5951L9.94 12.3101C9.95 12.2601 9.955 12.2085 9.955 12.1551L12.305 12.3051L12.615 12.0001L12.305 11.6901L9.955 11.8401L9.94 11.6901L12.085 11.4051L11.835 11.1551L9.915 11.5301C9.85389 11.223 9.73329 10.9309 9.56 10.6701L11.185 9.58512V9.23012L9.47 10.5451L9.37 10.4251L11.14 8.87512V8.43012H10.7L9.15 10.2051L9.025 10.1051L10.345 8.39012H9.985L8.9 10.0101C8.64 9.83678 8.35333 9.71845 8.04 9.65512L8.42 7.74012L8.17 7.49012L7.885 9.63012L7.73 9.61512L7.88 7.26512L7.57 6.95512Z" fill="#FCD116"/>
</g>
</g>
<defs>
<clipPath id="clip0_2214_2929">
<path d="M0 12C0 5.37258 5.37258 0 12 0C18.6274 0 24 5.37258 24 12C24 18.6274 18.6274 24 12 24C5.37258 24 0 18.6274 0 12Z" fill="white"/>
</clipPath>
<clipPath id="clip1_2214_2929">
<rect width="32" height="24" fill="white"/>
</clipPath>
</defs>
</svg>
