<svg width="24" height="24" viewBox="0 0 24 24" fill="none" xmlns="http://www.w3.org/2000/svg">
<g clip-path="url(#clip0_2214_4402)">
<g clip-path="url(#clip1_2214_4402)">
<mask id="mask0_2214_4402" style="mask-type:luminance" maskUnits="userSpaceOnUse" x="-1" y="0" width="33" height="25">
<path d="M31.9976 0.000732422H-0.00350952V24.001H31.9976V0.000732422Z" fill="white"/>
</mask>
<g mask="url(#mask0_2214_4402)">
<path d="M-0.114838 -0.00512695H49.1176V23.9895H-0.114838V-0.00512695Z" fill="#006400"/>
<path d="M-0.114838 3.42285H49.1176V20.5619H-0.114838V3.42285Z" fill="#FFD200"/>
<path d="M-0.114838 6.85059H49.1176V17.134H-0.114838V6.85059Z" fill="#D40000"/>
<path d="M-0.114838 10.2783H49.1176V13.7061H-0.114838V10.2783Z" fill="#000001"/>
<path d="M-0.114838 -0.00512695V23.9895L16.296 11.9922L-0.114838 -0.00512695Z" fill="black" stroke="black" stroke-width="1.15731"/>
<path d="M-0.114838 -0.00512695V23.9895L16.296 11.9922L-0.114838 -0.00512695Z" fill="white"/>
<path d="M6.12713 5.95923L9.37998 15.7113L0.869812 9.68411H11.3903L2.87427 15.7113L6.12713 5.95923Z" fill="#D40000"/>
<path d="M4.73808 14.4889L5.31246 14.3861L6.3733 14.3461L6.76599 14.3804L7.64514 14.5232L7.70961 14.4375V13.8205L7.81511 13.2892L7.99094 12.7522L8.18435 12.3237L8.43051 11.8781L8.82906 11.9752H8.93456L8.94628 11.901L8.10229 11.1983L7.22314 10.5413L5.95131 9.61575L5.83409 9.58719L5.69928 8.61598L5.59965 8.32461L5.46484 8.21035L5.21282 8.13037L4.93149 8.1418L4.80255 8.21035L4.53295 8.26748L4.39228 8.29034L4.29851 8.39888L4.28678 8.53599L4.67947 8.54742L4.77911 8.58741L4.76739 8.6274L4.54467 8.65597L4.43917 8.69025L4.56225 8.78165L4.69119 8.82736L4.8553 8.88449L4.89047 8.99875L4.90219 10.4727L4.81427 10.7012L4.78497 11.1297L4.91391 11.6439L4.58569 12.0095L4.39814 12.3351L4.36298 12.5351L4.26334 12.735L4.25162 12.8607L4.31609 12.9978L4.56811 13.8091L4.69705 14.4775L4.73808 14.4889Z" fill="#FFCC00"/>
<path d="M5.04282 8.10742C4.93732 8.10742 4.89043 8.11885 4.7908 8.17027C4.70808 8.21598 4.61601 8.24329 4.52119 8.25025C4.37467 8.25025 4.25745 8.35308 4.25745 8.48448V8.57018L4.46844 8.56446C5.08971 8.5816 4.52705 8.63873 4.48016 8.64444C4.32778 8.67301 4.51533 8.79298 4.69702 8.85583C4.89043 8.91296 4.87871 8.87868 4.87871 9.71278C4.87871 10.3926 4.87871 10.4897 4.8201 10.644C4.74391 10.8725 4.74391 11.2153 4.8201 11.4438C4.85527 11.5352 4.87871 11.6152 4.87871 11.6323C4.87871 11.6495 4.78494 11.7523 4.67358 11.878C4.46844 12.1065 4.34536 12.3408 4.34536 12.5064C4.33805 12.5597 4.31797 12.6106 4.28675 12.655C4.21056 12.7521 4.21056 12.9178 4.28089 12.9806C4.35708 13.0492 4.66772 14.226 4.67358 14.4489C4.67358 14.5288 4.6853 14.5288 5.16004 14.4374C5.54687 14.3632 6.45532 14.346 6.91834 14.4031C7.12934 14.4317 7.3755 14.4774 7.46341 14.4946C7.74474 14.5688 7.73302 14.5803 7.73302 14.2489C7.73517 13.7268 7.83652 13.2096 8.03193 12.7235C8.144 12.4466 8.27926 12.179 8.43634 11.9237C8.43634 11.9237 8.54184 11.9351 8.67078 11.9694C8.91108 12.0265 8.98141 12.0208 8.98141 11.9123C8.98141 11.8551 8.72939 11.6495 7.49272 10.7126C6.99394 10.3146 6.47975 9.93536 5.95127 9.57566C5.9122 9.57566 5.8868 9.56233 5.87508 9.53567L5.78717 8.99294C5.74614 8.713 5.68753 8.43878 5.66409 8.38165C5.58594 8.21406 5.41792 8.12266 5.16004 8.10742H5.04282ZM5.04868 8.16455H5.1659C5.55273 8.1874 5.62306 8.29024 5.72856 8.96437L5.79889 9.50139C5.8028 9.54329 5.74028 9.60613 5.61134 9.68992C5.38965 9.84175 5.19216 10.0246 5.02524 10.2327L4.94904 10.3355L4.93146 10.0955V9.42141C4.94904 8.92438 4.93146 8.87868 4.76735 8.82155C4.63255 8.77584 4.45672 8.73014 4.50361 8.70157C4.56222 8.6673 4.62083 8.69015 4.76149 8.65016C4.8201 8.63873 4.81424 8.64444 4.80252 8.59874C4.7908 8.52447 4.70874 8.48448 4.49189 8.49591C4.31606 8.50733 4.29847 8.50162 4.31019 8.45592C4.33755 8.36451 4.42546 8.30928 4.57394 8.29024C4.66374 8.28058 4.75106 8.25543 4.83182 8.21597C4.89725 8.17763 4.97235 8.15785 5.04868 8.15884V8.16455ZM5.92197 9.63851H5.94541C6.04505 9.65565 8.9228 11.8494 8.9228 11.9123C8.9228 11.9389 8.90327 11.9523 8.86419 11.9523C8.84075 11.9523 8.10812 11.7523 7.24069 11.5067C5.8575 11.1067 5.65822 11.0496 5.59961 10.9753C5.55789 10.9256 5.53462 10.8635 5.53355 10.7992C5.53249 10.735 5.5537 10.6722 5.59375 10.6211C5.62189 10.5879 5.64193 10.5488 5.65236 10.5069C5.65236 10.4383 5.50584 10.6097 5.47653 10.7068C5.44723 10.8211 5.50584 11.0153 5.59375 11.0782C5.62892 11.1067 5.89266 11.1924 6.17985 11.2781C6.67218 11.4152 6.70734 11.4324 6.73079 11.5124C6.7894 11.7009 6.58426 11.9237 6.29121 11.9865C6.18153 12.0127 6.07805 12.0593 5.98644 12.1237C5.68246 12.3693 5.34272 12.5695 4.97835 12.7178C4.9549 12.735 4.9256 12.8264 4.90802 12.9121C4.87285 13.1006 4.86113 13.1291 4.80252 13.1291C4.77126 13.133 4.76735 13.1063 4.7908 13.0492C4.83182 12.9349 4.82596 12.7978 4.78494 12.7978C4.75758 12.7978 4.74391 12.8321 4.74391 12.9006C4.74391 12.9578 4.72633 13.0263 4.70288 13.0435C4.67358 13.0777 4.66772 13.0549 4.67944 12.9121C4.69116 12.8149 4.6853 12.7407 4.67358 12.7407C4.64427 12.7407 4.59152 12.8835 4.57394 13.0092C4.56613 13.0853 4.5544 13.0796 4.53877 12.992C4.52119 12.9235 4.52705 12.8778 4.5798 12.7921C4.61311 12.73 4.63305 12.662 4.63841 12.5921C4.63841 12.5179 4.69702 12.4436 4.97249 12.1751C5.14832 11.998 5.36518 11.7752 5.44137 11.678C5.57617 11.5181 5.58203 11.5067 5.57617 11.341C5.57617 11.2496 5.56445 11.1639 5.55273 11.1525C5.51756 11.1182 5.47067 11.301 5.49412 11.3981C5.50584 11.4895 5.49412 11.5181 5.3007 11.7409C5.16156 11.8962 5.01487 12.0449 4.86113 12.1865C4.63255 12.3922 4.5505 12.5064 4.5505 12.6093C4.5505 12.6435 4.52705 12.7235 4.49189 12.7978C4.45672 12.8721 4.445 12.9463 4.45672 12.9635C4.46453 12.9825 4.45867 12.9825 4.43914 12.9635C4.41179 12.9406 4.40983 12.8835 4.43328 12.7921C4.44669 12.7437 4.45067 12.6933 4.445 12.6435C4.41569 12.5864 4.37467 12.655 4.35708 12.7978C4.34536 12.8778 4.32778 12.9406 4.31019 12.9292C4.26917 12.9063 4.28089 12.7578 4.33364 12.6778C4.36294 12.6378 4.39225 12.5464 4.40983 12.4722C4.45086 12.2608 4.54463 12.0894 4.74977 11.8609L4.93732 11.6438L4.87871 11.4552C4.8001 11.2005 4.79605 10.9294 4.86699 10.6726C4.94123 10.4593 5.09752 10.2365 5.33587 10.0041C5.57031 9.78133 5.79889 9.64422 5.92197 9.63851ZM6.80112 11.4781C6.80852 11.4776 6.81602 11.478 6.82311 11.4795C6.8302 11.481 6.83673 11.4834 6.84227 11.4867C6.84781 11.4899 6.85222 11.4939 6.85523 11.4983C6.85824 11.5027 6.85978 11.5075 6.85973 11.5124C6.85613 11.5191 6.8494 11.5249 6.84047 11.529C6.83155 11.5332 6.82086 11.5354 6.80991 11.5354C6.79896 11.5354 6.78828 11.5332 6.77935 11.529C6.77042 11.5249 6.76369 11.5191 6.76009 11.5124C6.75979 11.5045 6.76371 11.4967 6.77119 11.4905C6.77867 11.4842 6.78924 11.4798 6.80112 11.4781ZM6.94764 11.4952C6.95505 11.4947 6.96254 11.4952 6.96963 11.4967C6.97673 11.4981 6.98326 11.5006 6.98879 11.5038C6.99433 11.5071 6.99875 11.511 7.00176 11.5154C7.00477 11.5199 7.0063 11.5247 7.00625 11.5295C7.00266 11.5362 6.99592 11.5421 6.987 11.5462C6.97807 11.5503 6.96739 11.5525 6.95644 11.5525C6.94548 11.5525 6.9348 11.5503 6.92588 11.5462C6.91695 11.5421 6.91022 11.5362 6.90662 11.5295C6.90631 11.5216 6.91023 11.5139 6.91771 11.5076C6.92519 11.5014 6.93577 11.497 6.94764 11.4952ZM7.10003 11.5238C7.10743 11.5233 7.11493 11.5237 7.12202 11.5252C7.12911 11.5267 7.13564 11.5291 7.14118 11.5324C7.14672 11.5356 7.15114 11.5396 7.15415 11.544C7.15716 11.5484 7.15869 11.5532 7.15864 11.5581C7.15504 11.5648 7.14831 11.5706 7.13938 11.5747C7.13046 11.5789 7.11978 11.5811 7.10882 11.5811C7.09787 11.5811 7.08719 11.5789 7.07826 11.5747C7.06933 11.5706 7.0626 11.5648 7.059 11.5581C7.0587 11.5502 7.06262 11.5424 7.0701 11.5362C7.07758 11.5299 7.08815 11.5256 7.10003 11.5238ZM7.24069 11.5524C7.2481 11.5518 7.25559 11.5523 7.26268 11.5538C7.26978 11.5553 7.27631 11.5577 7.28184 11.5609C7.28738 11.5642 7.2918 11.5682 7.29481 11.5726C7.29782 11.577 7.29935 11.5818 7.2993 11.5866C7.29571 11.5934 7.28897 11.5992 7.28005 11.6033C7.27112 11.6074 7.26044 11.6097 7.24949 11.6097C7.23853 11.6097 7.22785 11.6074 7.21893 11.6033C7.21 11.5992 7.20327 11.5934 7.19967 11.5866C7.19936 11.5787 7.20328 11.571 7.21076 11.5647C7.21824 11.5585 7.22882 11.5541 7.24069 11.5524ZM6.87145 11.5866C6.87885 11.5861 6.88635 11.5866 6.89344 11.5881C6.90053 11.5895 6.90706 11.592 6.9126 11.5952C6.91814 11.5985 6.92256 11.6024 6.92557 11.6069C6.92858 11.6113 6.93011 11.6161 6.93006 11.6209C6.92646 11.6276 6.91973 11.6335 6.9108 11.6376C6.90188 11.6417 6.8912 11.6439 6.88024 11.6439C6.86929 11.6439 6.85861 11.6417 6.84968 11.6376C6.84075 11.6335 6.83402 11.6276 6.83042 11.6209C6.83012 11.613 6.83404 11.6053 6.84152 11.599C6.849 11.5928 6.85957 11.5884 6.87145 11.5866ZM7.01212 11.6095C7.01952 11.609 7.02701 11.6094 7.03411 11.6109C7.0412 11.6124 7.04773 11.6148 7.05327 11.6181C7.0588 11.6213 7.06322 11.6253 7.06623 11.6297C7.06924 11.6341 7.07077 11.6389 7.07073 11.6438C7.06713 11.6505 7.0604 11.6563 7.05147 11.6604C7.04254 11.6646 7.03186 11.6668 7.02091 11.6668C7.00995 11.6668 6.99927 11.6646 6.99035 11.6604C6.98142 11.6563 6.97469 11.6505 6.97109 11.6438C6.97079 11.6359 6.97471 11.6281 6.98218 11.6219C6.98966 11.6156 7.00024 11.6112 7.01212 11.6095ZM7.31689 11.6209C7.32429 11.6204 7.33179 11.6209 7.33888 11.6223C7.34597 11.6238 7.3525 11.6263 7.35804 11.6295C7.36357 11.6327 7.36799 11.6367 7.371 11.6411C7.37401 11.6456 7.37554 11.6504 7.3755 11.6552C7.3719 11.6619 7.36517 11.6677 7.35624 11.6719C7.34731 11.676 7.33663 11.6782 7.32568 11.6782C7.31473 11.6782 7.30405 11.676 7.29512 11.6719C7.28619 11.6677 7.27946 11.6619 7.27586 11.6552C7.27556 11.6473 7.27948 11.6395 7.28696 11.6333C7.29443 11.627 7.30501 11.6227 7.31689 11.6209ZM7.15864 11.6209C7.16604 11.6204 7.17354 11.6209 7.18063 11.6223C7.18772 11.6238 7.19425 11.6263 7.19979 11.6295C7.20533 11.6327 7.20975 11.6367 7.21276 11.6411C7.21576 11.6456 7.2173 11.6504 7.21725 11.6552C7.21365 11.6619 7.20692 11.6677 7.19799 11.6719C7.18907 11.676 7.17839 11.6782 7.16743 11.6782C7.15648 11.6782 7.1458 11.676 7.13687 11.6719C7.12794 11.6677 7.12121 11.6619 7.11761 11.6552C7.11731 11.6473 7.12123 11.6395 7.12871 11.6333C7.13619 11.627 7.14676 11.6227 7.15864 11.6209ZM7.45169 11.6552C7.45755 11.6552 7.66855 11.7009 7.92057 11.7695L8.38359 11.9009L8.29568 12.0551L8.15501 12.3065C8.0964 12.4207 8.08468 12.4207 7.80335 12.3579C7.49858 12.2893 7.01798 12.2265 6.52565 12.1865L6.05677 12.1465L6.2326 12.0837L6.54324 11.9466C6.66046 11.8837 6.70734 11.8723 6.88903 11.8894C7.15473 11.9047 7.3247 11.859 7.39894 11.7523L7.45755 11.6552H7.45169ZM6.93592 11.6895C6.94333 11.6889 6.95082 11.6894 6.95791 11.6909C6.96501 11.6924 6.97153 11.6948 6.97707 11.6981C6.98261 11.7013 6.98703 11.7053 6.99004 11.7097C6.99305 11.7141 6.99458 11.7189 6.99453 11.7238C6.99093 11.7305 6.9842 11.7363 6.97528 11.7404C6.96635 11.7445 6.95567 11.7468 6.94471 11.7468C6.93376 11.7468 6.92308 11.7445 6.91415 11.7404C6.90523 11.7363 6.8985 11.7305 6.8949 11.7238C6.89459 11.7158 6.89851 11.7081 6.90599 11.7019C6.91347 11.6956 6.92405 11.6912 6.93592 11.6895ZM7.26414 11.6895C7.27154 11.6889 7.27904 11.6894 7.28613 11.6909C7.29322 11.6924 7.29975 11.6948 7.30529 11.6981C7.31083 11.7013 7.31524 11.7053 7.31825 11.7097C7.32126 11.7141 7.3228 11.7189 7.32275 11.7238C7.31831 11.7293 7.31159 11.734 7.30332 11.7373C7.29505 11.7406 7.28555 11.7423 7.27586 11.7423C7.26617 11.7423 7.25667 11.7406 7.2484 11.7373C7.24013 11.734 7.23341 11.7293 7.22897 11.7238C7.22867 11.7158 7.23259 11.7081 7.24007 11.7019C7.24755 11.6956 7.25812 11.6912 7.27 11.6895H7.26414ZM6.79526 11.6895C6.80266 11.6889 6.81016 11.6894 6.81725 11.6909C6.82434 11.6924 6.83087 11.6948 6.83641 11.6981C6.84195 11.7013 6.84636 11.7053 6.84937 11.7097C6.85238 11.7141 6.85391 11.7189 6.85387 11.7238C6.85027 11.7305 6.84354 11.7363 6.83461 11.7404C6.82568 11.7445 6.815 11.7468 6.80405 11.7468C6.7931 11.7468 6.78242 11.7445 6.77349 11.7404C6.76456 11.7363 6.75783 11.7305 6.75423 11.7238C6.75578 11.7168 6.76054 11.7104 6.76787 11.7053C6.7752 11.7002 6.78476 11.6967 6.79526 11.6952V11.6895ZM7.10589 11.7009C7.11945 11.6998 7.13314 11.7022 7.14407 11.7075C7.15501 11.7128 7.16233 11.7207 7.1645 11.7295C7.1609 11.7362 7.15417 11.742 7.14524 11.7461C7.13632 11.7503 7.12564 11.7525 7.11468 11.7525C7.10373 11.7525 7.09305 11.7503 7.08412 11.7461C7.0752 11.742 7.06846 11.7362 7.06486 11.7295C7.06641 11.7226 7.07117 11.7161 7.0785 11.711C7.08583 11.7059 7.09539 11.7024 7.10589 11.7009ZM6.71907 11.7637C6.72647 11.7632 6.73396 11.7637 6.74106 11.7652C6.74815 11.7667 6.75468 11.7691 6.76022 11.7723C6.76575 11.7756 6.77017 11.7795 6.77318 11.784C6.77619 11.7884 6.77772 11.7932 6.77768 11.798C6.77408 11.8047 6.76735 11.8106 6.75842 11.8147C6.74949 11.8188 6.73881 11.821 6.72786 11.821C6.7169 11.821 6.70622 11.8188 6.6973 11.8147C6.68837 11.8106 6.68164 11.8047 6.67804 11.798C6.67774 11.7901 6.68166 11.7824 6.68913 11.7761C6.69661 11.7699 6.70719 11.7655 6.71907 11.7637ZM6.86559 11.7637C6.8738 11.7631 6.88213 11.7636 6.88993 11.7654C6.89772 11.7672 6.90476 11.7702 6.91046 11.7741C6.91617 11.778 6.92038 11.7827 6.92277 11.7879C6.92516 11.793 6.92565 11.7984 6.9242 11.8037C6.9206 11.8105 6.91387 11.8163 6.90494 11.8204C6.89602 11.8245 6.88533 11.8267 6.87438 11.8267C6.86343 11.8267 6.85275 11.8245 6.84382 11.8204C6.83489 11.8163 6.82816 11.8105 6.82456 11.8037C6.82426 11.7958 6.82818 11.7881 6.83566 11.7818C6.84314 11.7756 6.85371 11.7712 6.86559 11.7695V11.7637ZM7.01798 11.7752C7.03154 11.7741 7.04523 11.7764 7.05616 11.7818C7.06709 11.7871 7.07441 11.795 7.07659 11.8037C7.07299 11.8105 7.06626 11.8163 7.05733 11.8204C7.0484 11.8245 7.03772 11.8267 7.02677 11.8267C7.01582 11.8267 7.00513 11.8245 6.99621 11.8204C6.98728 11.8163 6.98055 11.8105 6.97695 11.8037C6.9785 11.7968 6.98325 11.7904 6.99059 11.7853C6.99792 11.7802 7.00747 11.7766 7.01798 11.7752ZM7.18208 11.7752C7.18949 11.7746 7.19698 11.7751 7.20407 11.7766C7.21117 11.7781 7.2177 11.7805 7.22323 11.7838C7.22877 11.787 7.23319 11.791 7.2362 11.7954C7.23921 11.7998 7.24074 11.8046 7.24069 11.8094C7.23709 11.8162 7.23036 11.822 7.22144 11.8261C7.21251 11.8302 7.20183 11.8325 7.19088 11.8325C7.17992 11.8325 7.16924 11.8302 7.16032 11.8261C7.15139 11.822 7.14466 11.8162 7.14106 11.8094C7.14075 11.8015 7.14467 11.7938 7.15215 11.7875C7.15963 11.7813 7.17021 11.7769 7.18208 11.7752ZM5.9923 12.2379C6.68417 12.2557 7.37286 12.3361 8.04951 12.4779C8.05537 12.4836 8.01435 12.6207 7.94988 12.7864L7.83266 13.1291C7.83266 13.1558 7.78381 13.1615 7.68613 13.1463C7.19967 13.072 5.79303 13.0777 5.25382 13.1577C4.94318 13.2034 4.90216 13.1977 4.9256 13.1349L4.98421 12.9349L5.01938 12.7807L5.33587 12.6207C5.5469 12.5159 5.7471 12.3915 5.93369 12.2493H5.98644L5.9923 12.2379ZM4.40983 13.0492C4.42937 13.0492 4.46063 13.0644 4.50361 13.0949C4.56222 13.1291 4.63255 13.1577 4.66185 13.1577C4.81424 13.1577 4.89629 13.3691 5.02524 14.0718L5.07212 14.3232C5.08385 14.3803 5.07212 14.3917 4.93732 14.4203C4.77321 14.4546 4.73219 14.4603 4.73219 14.4374C4.73219 14.3803 4.56808 13.6547 4.49775 13.3977L4.40397 13.0549H4.40983V13.0492ZM6.08608 13.1634H6.25605L6.19744 13.2206C6.0978 13.3348 6.05091 13.3405 5.98058 13.2663L5.92197 13.1806C5.92197 13.1691 5.99816 13.1577 6.08608 13.1577V13.1634ZM6.4436 13.1634H6.76009L6.68976 13.232C6.60771 13.3234 6.60185 13.3234 6.51393 13.232L6.4436 13.1577V13.1634ZM6.9242 13.1634H7.00039C7.04142 13.1634 7.11761 13.1634 7.1645 13.1749L7.25242 13.192L7.17036 13.2663C7.11957 13.312 7.08831 13.3348 7.07659 13.3348L6.99453 13.2434L6.9242 13.1634ZM7.42239 13.1806L7.49272 13.1977C7.53375 13.2091 7.62166 13.2148 7.68613 13.2206H7.80335L7.71544 13.2948L7.60994 13.3691C7.60408 13.3691 7.55133 13.3234 7.5103 13.272L7.42239 13.1806ZM5.65236 13.1863H5.66409C5.66799 13.2053 5.64846 13.2377 5.60548 13.2834L5.54687 13.3634L5.45895 13.2948L5.37104 13.2206L5.5117 13.2034L5.65236 13.1863ZM5.78717 13.1977L5.88094 13.2777L5.97472 13.3634L5.79889 13.3748L5.62306 13.3805L5.70511 13.2948L5.78717 13.1977ZM6.84215 13.1977C6.85778 13.1977 6.87341 13.2034 6.88903 13.2148L6.96523 13.312C6.99649 13.3539 6.97695 13.3729 6.90662 13.3691L6.76009 13.3405L6.68976 13.3234L6.76595 13.2491C6.79721 13.211 6.82456 13.192 6.84801 13.192L6.84215 13.1977ZM6.35568 13.1977C6.38304 13.1939 6.41429 13.2187 6.44946 13.272C6.49049 13.3348 6.49049 13.3348 6.33224 13.3348H6.17399L6.25605 13.2605C6.29512 13.2225 6.32833 13.2034 6.35568 13.2034V13.1977ZM7.35205 13.2091L7.42239 13.2777C7.50444 13.3539 7.51616 13.3919 7.45755 13.3919L7.29344 13.3748L7.1645 13.3634L7.25828 13.2891L7.35205 13.2091ZM5.28898 13.2491C5.3007 13.2491 5.34759 13.2777 5.38276 13.3177L5.45309 13.3919L5.30656 13.4148L5.10143 13.4434C5.05845 13.4548 5.07799 13.4243 5.16004 13.352C5.22646 13.2872 5.26944 13.2529 5.28898 13.2491ZM5.07212 13.2491H5.09557C5.14246 13.2605 5.14246 13.272 5.0604 13.352L4.97249 13.4377L4.94318 13.3634C4.91974 13.3063 4.9256 13.2891 4.97835 13.2663L5.07212 13.2491ZM7.76818 13.352C7.77991 13.352 7.77991 13.3634 7.76818 13.3862C7.75646 13.4319 7.70371 13.4434 7.70371 13.3977C7.70371 13.3862 7.71739 13.3729 7.74474 13.3577L7.76818 13.352ZM6.51393 13.4434C6.96523 13.4434 7.42239 13.4548 7.53374 13.4662C7.71544 13.4891 7.73302 13.4948 7.73302 13.5633C7.73302 13.6433 7.70957 13.649 7.46341 13.609C7.39308 13.5919 7.09417 13.569 6.80698 13.5462C6.24959 13.5135 5.69027 13.5326 5.1366 13.6033C5.02524 13.6148 4.99593 13.6033 4.99593 13.569C4.99593 13.4948 5.59375 13.4434 6.51393 13.4434ZM5.91025 13.609H6.22674L6.15641 13.6833C6.06849 13.7747 6.06263 13.7747 5.98058 13.6833L5.91025 13.609ZM6.32052 13.609L6.40257 13.689L6.48463 13.7804L6.31466 13.7861H6.14469L6.2326 13.6947L6.32052 13.609ZM6.4436 13.609H6.76009L6.68976 13.6833C6.60771 13.7747 6.60185 13.7747 6.51393 13.6833L6.4436 13.609ZM5.69339 13.609C5.70511 13.609 5.69144 13.6376 5.65236 13.6947C5.60548 13.7519 5.57617 13.7823 5.56445 13.7861C5.54491 13.7823 5.51561 13.7576 5.47653 13.7119L5.4062 13.6376H5.5117C5.56533 13.6379 5.6187 13.6302 5.66995 13.6148L5.69339 13.609ZM5.81061 13.6376L5.8868 13.7062L5.97472 13.7804L5.82233 13.7919L5.65236 13.8033L5.73442 13.7176L5.81061 13.6376ZM6.83042 13.6376L6.91248 13.729C7.00625 13.8261 7.00039 13.8318 6.7894 13.7919L6.68976 13.7747L6.76009 13.7062L6.83042 13.6376ZM6.94764 13.6376H7.08831C7.23679 13.6338 7.26414 13.6681 7.17036 13.7404C7.10003 13.7976 7.10003 13.7976 7.01798 13.7119L6.94764 13.6376ZM5.15418 13.6662C5.22451 13.6662 5.21865 13.6719 5.13073 13.7576C5.06626 13.8204 5.0604 13.8204 5.03696 13.7747C5.02524 13.7138 5.06431 13.6776 5.15418 13.6662ZM7.42825 13.6776C7.4556 13.6776 7.49467 13.6814 7.54547 13.689L7.68027 13.7119L7.60408 13.7804L7.53374 13.849L7.46927 13.769L7.41066 13.6776H7.42825ZM5.31829 13.7062C5.33392 13.7062 5.35541 13.7195 5.38276 13.7462C5.44137 13.8033 5.44137 13.8033 5.39448 13.8261L5.25382 13.849H5.16004L5.23623 13.769C5.27531 13.7309 5.3007 13.71 5.31243 13.7062H5.31829ZM7.31689 13.7233C7.33642 13.7195 7.35987 13.7385 7.38722 13.7804L7.43997 13.849H7.31689C7.23874 13.849 7.19967 13.8376 7.19967 13.8147C7.21139 13.788 7.23679 13.7633 7.27586 13.7404L7.31689 13.7233ZM7.69199 13.7976C7.70371 13.7976 7.70762 13.8071 7.70371 13.8261C7.70371 13.8833 7.65097 13.9233 7.62752 13.8833C7.62361 13.8642 7.63338 13.8433 7.65683 13.8204L7.69199 13.7976ZM6.17399 13.8661C6.6839 13.8661 7.24656 13.9004 7.58063 13.9575L7.67441 13.9747V14.226C7.67441 14.4146 7.66269 14.4774 7.63338 14.4774L7.34033 14.4203C6.66261 14.3083 5.97216 14.289 5.28898 14.3632L5.15418 14.3803L5.11901 14.1689L5.09557 13.9518C5.09557 13.9518 5.23037 13.9233 5.38862 13.9061C5.58203 13.8776 5.86922 13.8661 6.17399 13.8661Z" fill="black"/>
<path d="M7.1997 12.4377C7.02387 12.4377 6.90079 12.5577 6.90079 12.7348C6.90079 13.009 7.21728 13.1462 7.40483 12.9519C7.59239 12.7577 7.46344 12.4377 7.1997 12.4377ZM7.1997 12.5063C7.26188 12.5063 7.32151 12.5304 7.36547 12.5732C7.40944 12.6161 7.43414 12.6742 7.43414 12.7348C7.43414 12.9062 7.24073 13.0205 7.08248 12.9462C6.92423 12.8605 6.93595 12.5977 7.10592 12.5292L7.1997 12.5063Z" fill="black"/>
<path d="M6.02163 12.4036C5.8458 12.4036 5.72272 12.5235 5.72272 12.7006C5.72272 12.9749 6.03921 13.112 6.22676 12.9177C6.41432 12.7235 6.28537 12.4036 6.02163 12.4036ZM6.02163 12.4721C6.08381 12.4721 6.14344 12.4962 6.1874 12.5391C6.23137 12.5819 6.25607 12.64 6.25607 12.7006C6.25607 12.872 6.06266 12.9863 5.90441 12.912C5.74616 12.8263 5.75788 12.5635 5.92785 12.495L6.02163 12.4721Z" fill="black"/>
<path d="M5.04284 8.29589C5.01837 8.29735 4.99528 8.30805 4.97798 8.32597C4.96068 8.34389 4.95039 8.36776 4.94907 8.39302C4.94907 8.42109 4.95987 8.44802 4.97911 8.46787C4.99834 8.48772 5.02443 8.49887 5.05163 8.49887C5.07884 8.49887 5.10492 8.48772 5.12416 8.46787C5.14339 8.44802 5.1542 8.42109 5.1542 8.39302C5.15354 8.37892 5.15007 8.36511 5.14401 8.35245C5.13795 8.3398 5.12944 8.32856 5.11899 8.31945C5.10854 8.31034 5.09639 8.30355 5.08329 8.2995C5.07019 8.29544 5.05642 8.29422 5.04284 8.29589ZM5.0487 8.33017C5.06638 8.33011 5.08344 8.33655 5.09647 8.34819C5.10951 8.35984 5.11756 8.37584 5.11904 8.39302C5.11904 8.40968 5.11162 8.42567 5.09844 8.43745C5.08525 8.44924 5.06736 8.45586 5.0487 8.45586C5.03005 8.45586 5.01216 8.44924 4.99897 8.43745C4.98578 8.42567 4.97837 8.40968 4.97837 8.39302C4.97984 8.37584 4.9879 8.35984 5.00093 8.34819C5.01397 8.33655 5.03102 8.33011 5.0487 8.33017Z" fill="black"/>
</g>
</g>
</g>
<defs>
<clipPath id="clip0_2214_4402">
<path d="M0.00012207 12C0.00012207 5.37258 5.37271 0 12.0001 0C18.6275 0 24.0001 5.37258 24.0001 12C24.0001 18.6274 18.6275 24 12.0001 24C5.37271 24 0.00012207 18.6274 0.00012207 12Z" fill="white"/>
</clipPath>
<clipPath id="clip1_2214_4402">
<rect width="32" height="24" fill="white"/>
</clipPath>
</defs>
</svg>
