<svg width="24" height="24" viewBox="0 0 24 24" fill="none" xmlns="http://www.w3.org/2000/svg">
<g clip-path="url(#clip0_3053_1890)">
<g clip-path="url(#clip1_3053_1890)">
<path d="M24 24V0H-8V24H24Z" fill="#000066"/>
<path d="M-8 0H8V12H-8V0Z" fill="#012169"/>
<path d="M-6.125 0L-0.0250001 4.525L6.05 0H8V1.55L2 6.025L8 10.475V12H6L0 7.525L-5.975 12H-8V10.5L-2.025 6.05L-8 1.6V0H-6.125Z" fill="white"/>
<path d="M2.6 7.025L8 11V12L1.225 7.025H2.6ZM-2 7.525L-1.85 8.4L-6.65 12H-8L-2 7.525ZM8 0V0.075L1.775 4.775L1.825 3.675L6.75 0H8ZM-8 0L-2.025 4.4H-3.525L-8 1.05V0Z" fill="#C8102E"/>
<path d="M-1.975 0V12H2.025V0H-1.975ZM-8 4V8H8V4H-8Z" fill="white"/>
<path d="M-8 4.825V7.225H8V4.825H-8ZM-1.175 0V12H1.225V0H-1.175Z" fill="#C8102E"/>
<path d="M21.055 9.8501C21.045 13.2401 20.505 16.9001 16.085 18.6401C11.66 16.8951 11.12 13.2401 11.11 9.8501H21.055Z" fill="#128BBF"/>
<path d="M16.085 18.6401C18.085 17.8501 19.335 16.5601 20.05 15.1901C19.94 15.1501 19.71 15.1451 19.62 15.1801C19.51 15.1701 15.345 14.8651 14.855 14.6851C14.425 14.5351 12.805 14.8201 12.045 15.0851C12.75 16.5501 13.975 17.8101 16.085 18.6351V18.6401Z" fill="#E8ECE9"/>
<path d="M12.99 16.535C13.06 16.515 13.19 16.52 13.24 16.525C13.3 16.54 13.31 16.545 13.33 16.475C13.35 16.415 13.4 16.43 13.44 16.46C13.475 16.495 13.575 16.48 13.615 16.425C13.645 16.3783 13.6734 16.375 13.7 16.415C13.74 16.45 13.75 16.44 13.795 16.43C13.83 16.42 13.895 16.38 13.93 16.315C13.96 16.255 14.01 16.235 14.035 16.265C14.0617 16.2983 14.0934 16.315 14.13 16.315C14.17 16.305 14.18 16.345 14.175 16.39C14.17 16.435 14.19 16.45 14.28 16.375C14.365 16.455 14.39 16.425 14.39 16.34C14.3924 16.1884 14.3756 16.0373 14.34 15.89C14.305 15.845 14.27 15.725 14.265 15.625C14.255 15.44 14.255 15.43 14.03 15.32C14.03 15.255 14.015 15.225 13.86 15.235C13.86 15.215 13.835 15.15 13.805 15.125C13.775 15.1 13.765 15.085 13.78 15.01C13.845 15.015 13.92 15.005 13.955 14.95C13.99 14.895 14.12 14.91 14.195 14.94C14.265 14.9733 14.3717 14.9783 14.515 14.955C14.575 14.915 14.6584 14.8666 14.765 14.81C14.86 14.76 14.885 14.735 14.89 14.66C14.905 14.465 14.84 14.245 14.785 14.14C14.73 14.035 14.71 13.91 14.635 13.745C14.555 13.57 14.555 13.525 14.46 13.42C14.435 13.39 14.41 13.365 14.4 13.305C14.3963 13.2293 14.3642 13.1579 14.31 13.105C14.145 12.955 14.08 12.475 14.015 12.115C13.98 11.915 14.005 11.43 13.915 11.355C13.77 11.235 13.7 11.255 13.6 11.22C13.53 11.12 13.5 10.93 13.435 10.755C13.335 10.775 13.26 10.88 13.185 10.92C13.12 10.955 13.105 10.955 13.105 11.055C13.105 11.155 13.055 11.285 12.955 11.435C12.855 11.585 12.695 11.545 12.555 11.77C12.255 11.41 12.255 11.305 12.23 11.205C12.205 11.105 12.16 11.08 11.99 10.935C11.99 10.89 11.97 10.72 11.99 10.62C11.86 10.52 11.77 10.535 11.71 10.61C11.65 10.685 11.61 10.8 11.51 10.845C11.46 10.915 11.29 11.09 11.155 11.295C11.28 13.18 11.705 15.045 12.99 16.535Z" fill="#69522B"/>
<path d="M21.055 9.85011C21.06 8.57011 20.99 7.33011 21.02 6.24511C19.37 5.51011 17.19 5.36011 16.085 5.36011C14.98 5.36011 12.795 5.51011 11.145 6.24511C11.175 7.33011 11.105 8.57011 11.11 9.84511L21.055 9.85011Z" fill="#BCA76B"/>
<path d="M11.38 11.3299C11.43 11.4149 11.53 11.5649 11.54 11.6449C11.58 11.5649 11.61 11.5299 11.615 11.4849C11.62 11.4399 11.68 11.3349 11.665 11.2849C11.64 11.2349 11.625 11.1949 11.68 11.2349C11.74 11.2699 11.73 11.3349 11.72 11.4349C11.68 11.6999 11.57 11.7549 11.555 11.9349C11.715 12.3049 11.595 12.4399 11.77 12.8099C11.795 12.8249 11.87 12.7949 11.89 12.7999C11.985 12.7349 12.05 12.7599 12.185 12.7849C12.315 12.8149 12.385 12.9049 12.385 12.9849C12.385 13.0649 12.385 13.0849 12.41 13.1349C12.435 13.1849 12.495 13.2599 12.48 13.3149C12.47 13.3649 12.495 13.3999 12.51 13.4299C12.525 13.4599 12.505 13.5149 12.485 13.5549C12.4617 13.5882 12.48 13.6432 12.54 13.7199C12.605 13.7999 12.76 14.1399 12.76 14.3399C12.76 14.5399 12.77 14.6349 12.85 14.6699C12.935 14.7099 12.96 14.7399 12.95 14.8249C12.94 14.9099 12.99 15.3599 13 15.4299C13.01 15.4999 13.035 15.4849 13.07 15.5249C13.105 15.5649 13.12 15.6049 13.23 15.6049C13.34 15.6049 13.445 15.5899 13.515 15.6049C13.615 15.7349 13.675 15.9199 13.695 16.0299C13.72 16.1449 13.715 16.2999 13.755 16.2999C13.795 16.2999 13.83 16.3049 13.82 16.1649C13.81 16.0249 13.8 16.0049 13.75 15.9349C13.7 15.8649 13.675 15.8349 13.7 15.7849C13.7253 15.7338 13.7323 15.6756 13.72 15.6199C13.71 15.5699 13.695 15.4849 13.785 15.5949L13.935 15.7649C13.9583 15.8116 13.9683 15.8699 13.965 15.9399C13.9617 16.0066 13.9767 16.0266 14.01 15.9999C14.05 15.9649 14.095 16.0199 14.075 16.0899C14.055 16.1599 14.0783 16.2049 14.145 16.2249C14.2083 16.2416 14.245 16.2699 14.255 16.3099C14.27 16.3599 14.325 16.3799 14.325 16.2849C14.325 16.1849 14.29 15.9849 14.26 15.9149C14.235 15.8499 14.21 15.7149 14.21 15.6299C14.2 15.5499 14.185 15.5299 14.145 15.5099C14.105 15.4966 14.08 15.4699 14.07 15.4299C14.065 15.3949 14.03 15.3799 14.01 15.3799C13.9833 15.3799 13.9633 15.3632 13.95 15.3299C13.9367 15.3099 13.9183 15.2999 13.895 15.2999C13.865 15.2999 13.825 15.3149 13.81 15.2699C13.795 15.2249 13.775 15.1699 13.75 15.1299C13.725 15.0899 13.7 15.0849 13.695 14.9649C13.695 14.8449 13.69 14.8249 13.65 14.7849C13.615 14.7399 13.55 14.6249 13.52 14.5799C13.495 14.5299 13.47 14.4799 13.47 14.5799C13.47 14.6849 13.47 14.7399 13.53 14.7799C13.595 14.8149 13.615 14.8149 13.585 14.8699C13.56 14.9199 13.585 14.9599 13.595 14.9999C13.61 15.0349 13.63 15.0749 13.595 15.1149C13.56 15.1549 13.53 15.1399 13.535 15.0799C13.535 15.0132 13.5217 14.9532 13.495 14.8999C13.465 14.8499 13.445 14.8199 13.41 14.8499C13.38 14.8749 13.35 14.8449 13.375 14.8199C13.3917 14.7999 13.3917 14.7832 13.375 14.7699C13.3583 14.7566 13.3583 14.7349 13.375 14.7049C13.405 14.6699 13.405 14.6549 13.39 14.5799C13.375 14.5049 13.255 14.1249 13.2 14.0399C13.145 13.9549 13.15 13.8899 13.22 13.9749C13.29 14.0599 13.35 14.1349 13.36 14.2049C13.3633 14.2716 13.3767 14.3182 13.4 14.3449C13.4233 14.3749 13.44 14.3616 13.45 14.3049C13.46 14.2449 13.5 14.2649 13.43 14.1549C13.35 14.0399 13.21 13.8499 13.155 13.5049C13.105 13.1699 13.08 12.9449 13.025 12.8549C12.975 12.7549 12.955 12.7399 12.95 12.6549C12.945 12.5699 12.95 12.4799 12.91 12.4149C12.875 12.3499 12.845 12.3399 12.84 12.4349C12.84 12.5349 12.845 12.7499 12.875 12.7849C12.905 12.8199 12.885 12.9199 12.875 12.9749C12.875 13.0249 12.79 13.0849 12.965 13.1899C13.035 13.2349 13.025 13.2899 13.015 13.3299C13.0117 13.3732 12.9917 13.3649 12.955 13.3049C12.9183 13.2449 12.88 13.1982 12.84 13.1649C12.805 13.1299 12.795 13.1099 12.805 13.0349C12.805 12.9599 12.825 12.9049 12.805 12.8799C12.785 12.8549 12.77 12.8749 12.755 12.9149C12.75 12.9599 12.74 13.0799 12.715 13.1099C12.6983 13.1432 12.6817 13.1232 12.665 13.0499C12.6483 12.9766 12.665 12.8766 12.715 12.7499C12.7598 12.6162 12.7684 12.473 12.74 12.3349C12.705 12.1699 12.72 12.1199 12.595 11.9849C12.47 11.8499 12.33 11.7249 12.27 11.5549C12.21 11.3849 12.2 11.2399 12.135 11.1649C12.0733 11.0865 11.9989 11.0189 11.915 10.9649V10.7149C11.9183 10.6549 11.885 10.6266 11.815 10.6299C11.7517 10.6499 11.7017 10.6999 11.665 10.7799C11.615 10.8649 11.585 10.8299 11.525 10.9649C11.465 11.1099 11.375 11.1799 11.375 11.3299H11.38Z" fill="#CFA763"/>
<path d="M11.77 12.9099C11.815 12.9349 11.855 12.9599 11.92 12.9249C11.985 12.8899 12.065 12.7949 12.15 12.8899C12.235 12.9799 12.285 13.1299 12.285 13.2499C12.285 13.3699 12.285 13.5899 12.42 13.7149C12.555 13.8399 12.63 13.9649 12.635 14.1299C12.648 14.2902 12.6747 14.4492 12.715 14.6049C12.7312 14.6744 12.7657 14.7383 12.815 14.7899C12.855 14.8299 12.89 14.9549 12.895 15.0899C12.9 15.2149 12.88 15.3049 12.895 15.3699C12.91 15.4349 12.895 15.4899 12.845 15.4599C12.795 15.4249 12.785 15.4099 12.76 15.3599C12.73 15.2999 12.7 15.3099 12.725 15.3949C12.75 15.4799 12.835 15.5499 12.905 15.5499C12.975 15.5499 13 15.5599 13.04 15.5999C13.09 15.6499 13.09 15.6699 13.165 15.6699C13.245 15.6699 13.255 15.6699 13.325 15.6899C13.395 15.7099 13.395 15.6999 13.435 15.6899C13.4717 15.6799 13.505 15.7099 13.535 15.7799C13.5771 15.8832 13.6089 15.9904 13.63 16.0999C13.63 16.1499 13.63 16.2099 13.67 16.2649C13.705 16.3149 13.695 16.3699 13.65 16.3399C13.605 16.3099 13.61 16.3149 13.575 16.3199C13.54 16.3299 13.525 16.3099 13.475 16.2849C13.435 16.2549 13.46 16.2649 13.42 16.1999C13.37 16.1299 13.345 16.1166 13.345 16.1599C13.345 16.2249 13.345 16.2699 13.31 16.2399C13.28 16.2166 13.255 16.2166 13.235 16.2399C13.205 16.2699 13.195 16.2899 13.16 16.2399C13.13 16.1799 13.09 16.1799 13.06 16.1699C13.03 16.1599 13.025 16.1599 13.01 16.1099C12.9867 16.0666 12.95 16.0466 12.9 16.0499C12.8567 16.0499 12.8333 16.0332 12.83 15.9999C12.8167 15.9666 12.8 15.9432 12.78 15.9299C12.755 15.9099 12.765 15.8749 12.76 15.8349C12.755 15.7949 12.72 15.8149 12.7 15.8049C12.68 15.7949 12.66 15.7999 12.66 15.7449C12.66 15.6899 12.64 15.6749 12.625 15.6349C12.605 15.5999 12.625 15.5599 12.635 15.5199C12.645 15.4699 12.635 15.4499 12.605 15.4099C12.575 15.3699 12.605 15.3349 12.515 15.2599C12.43 15.1849 12.385 15.2499 12.355 15.0699C12.33 14.8899 12.275 14.5199 12.225 14.4649C12.1817 14.4049 12.1383 14.3649 12.095 14.3449C12.045 14.3299 12.015 14.3449 12.01 14.2399C12.005 14.1399 11.97 14.0049 11.91 13.9399L11.78 13.8299C11.75 13.7999 11.735 13.7499 11.78 13.6599C11.825 13.5699 11.805 13.4449 11.8 13.3849C11.795 13.3249 11.78 13.2499 11.79 13.1849C11.8 13.1199 11.795 13.0399 11.78 12.9949C11.765 12.9499 11.74 12.9449 11.77 12.9099Z" fill="#CFA763"/>
<path d="M13.425 15.865C13.39 15.93 13.35 15.905 13.32 15.875C13.29 15.845 13.25 15.84 13.265 15.78C13.28 15.72 13.275 15.71 13.235 15.68L13.215 15.67H13.165C13.09 15.67 13.085 15.645 13.04 15.605L13.015 15.58V15.62C13.015 15.68 13.015 15.67 12.955 15.685C12.895 15.7 12.905 15.625 12.895 15.575L12.885 15.55C12.82 15.535 12.75 15.465 12.725 15.395C12.7 15.315 12.73 15.3 12.76 15.355C12.79 15.41 12.795 15.425 12.845 15.455C12.895 15.485 12.91 15.435 12.895 15.37L12.89 15.3C12.88 15.28 12.8633 15.2633 12.84 15.25C12.755 15.215 12.78 15.2 12.79 15.135C12.7933 15.0683 12.77 15.0567 12.72 15.1C12.6733 15.14 12.6534 15.1033 12.66 14.99C12.67 14.82 12.59 14.88 12.575 14.955C12.56 15.03 12.53 14.985 12.5 14.875C12.47 14.765 12.42 14.74 12.415 14.845C12.415 14.9317 12.3867 14.95 12.33 14.9L12.355 15.07C12.385 15.25 12.43 15.185 12.515 15.26C12.6 15.335 12.575 15.37 12.605 15.41C12.6384 15.4433 12.6484 15.48 12.635 15.52C12.625 15.56 12.605 15.6 12.625 15.635C12.64 15.675 12.66 15.69 12.66 15.745C12.66 15.795 12.68 15.795 12.7 15.805L12.745 15.81C12.755 15.79 12.7684 15.7733 12.785 15.76C12.85 15.69 12.95 15.76 12.985 15.84C13.0184 15.9267 13.0567 15.94 13.1 15.88C13.15 15.815 13.135 15.83 13.19 15.885C13.24 15.945 13.265 15.935 13.265 15.935C13.265 15.935 13.315 15.91 13.36 15.945C13.395 15.975 13.42 15.97 13.49 15.87C13.56 15.77 13.455 15.8 13.425 15.865Z" fill="#D7C99C"/>
<path d="M13.47 16.6202C13.6 16.6102 13.955 16.5052 13.995 16.4702C14.08 16.5352 14.235 16.6152 14.295 16.6152C14.175 16.6352 14.0966 16.6319 14.06 16.6052C14.075 16.6402 14.12 16.7002 14.145 16.7052C14.025 16.7002 13.895 16.6752 13.845 16.6302C13.745 16.6752 13.57 16.6802 13.47 16.6202ZM13.705 16.7802C13.755 16.7952 13.985 16.8302 14.015 16.8302C13.935 16.8952 14 16.9602 14.13 16.9502C14.065 16.9552 14 16.9802 14.045 16.9902C14.155 17.0102 14.46 16.9302 14.52 16.8952C14.42 17.0302 13.915 17.1502 13.705 16.7802ZM13.915 17.1102C13.975 17.0802 14.13 17.0902 14.205 17.1252C14.12 17.1552 13.96 17.1552 13.915 17.1102Z" fill="#7FB8C1"/>
<path d="M14.15 17.1052C14.26 17.0852 14.575 17.1602 14.685 17.0952C14.645 17.1952 14.45 17.2052 14.38 17.1852C14.31 17.1652 14.245 17.1352 14.2 17.1402C14.225 17.1252 14.185 17.1252 14.15 17.1052ZM14.26 17.2552C14.345 17.2702 14.645 17.2352 14.74 17.2002C14.84 17.2302 15.03 17.2852 15.075 17.2752C14.98 17.3352 14.805 17.3002 14.745 17.2752C14.6684 17.31 14.5848 17.3267 14.5007 17.3241C14.4166 17.3215 14.3343 17.2996 14.26 17.2602V17.2552Z" fill="#7FB8C1"/>
<path d="M14.405 17.3102C14.5217 17.3302 14.635 17.3186 14.745 17.2752C14.785 17.2952 14.87 17.3152 14.955 17.3102C15.005 17.3402 15.08 17.3852 15.155 17.3902C15.08 17.4202 14.805 17.3902 14.755 17.3602C14.6098 17.3569 14.4653 17.3824 14.33 17.4352C14.33 17.4002 14.35 17.3452 14.405 17.3102ZM14.26 16.7002C14.355 16.7302 14.695 16.7152 14.87 16.6352C14.94 16.6052 14.98 16.6552 14.9 16.6852C14.62 16.7852 14.4 16.8202 14.235 16.7352C14.17 16.7002 14.165 16.6702 14.26 16.7002ZM15.93 16.2402C15.51 16.4402 15.23 16.4902 14.65 16.3152C14.6 16.3002 14.56 16.3152 14.62 16.3552C14.68 16.3902 15 16.4802 15.075 16.4852C15.155 16.4852 15.125 16.5252 15.075 16.5352C15.035 16.5502 15.02 16.5852 15.08 16.5602C15.2654 16.5258 15.4565 16.5396 15.635 16.6002C15.695 16.6269 15.72 16.6269 15.71 16.6002C15.71 16.5769 15.735 16.5619 15.785 16.5552C15.8383 16.5519 15.85 16.5402 15.82 16.5202C15.7867 16.5102 15.7833 16.4986 15.81 16.4852C15.8367 16.4719 15.8317 16.4602 15.795 16.4502C15.755 16.4452 15.73 16.4352 15.765 16.4152C15.8117 16.3952 15.8583 16.3819 15.905 16.3752C15.915 16.3452 15.9 16.2702 15.93 16.2402Z" fill="#7FB8C1"/>
<path d="M15.2349 16.2901C15.4749 16.3051 15.9149 16.2001 16.1499 15.9701C16.2299 16.0201 16.3449 16.0701 16.3999 16.0851C16.4649 16.0951 16.5199 16.1501 16.4249 16.1501C16.3299 16.1501 16.1999 16.1101 16.1449 16.0851C15.8299 16.2751 15.4699 16.3351 15.2399 16.3151C15.1749 16.3151 15.1599 16.2851 15.2349 16.2901ZM14.8549 15.6151C14.8249 15.6201 14.6849 15.6551 14.6449 15.6501C14.6099 15.6501 14.5699 15.6601 14.5749 15.6851C14.5749 15.7101 14.5849 15.7301 14.5249 15.7251C14.4749 15.7151 14.4249 15.7401 14.4099 15.7551C14.3949 15.7701 14.3849 15.7901 14.4449 15.7951C14.4999 15.7951 14.5299 15.8051 14.5949 15.7751C14.6599 15.7451 14.7249 15.7001 14.7949 15.6951C14.8649 15.6951 14.9349 15.6001 14.8549 15.6151Z" fill="#7FB8C1"/>
<path d="M14.66 15.78C14.72 15.82 15.01 15.9201 15.12 15.9101C15.23 15.9001 15.205 15.955 15.125 15.97C15.0354 15.9824 14.9441 15.9758 14.8572 15.9508C14.7702 15.9259 14.6894 15.883 14.62 15.825C14.55 15.775 14.615 15.755 14.66 15.78Z" fill="#7FB8C1"/>
<path d="M16.05 15.9252C15.83 15.9952 15.6 15.9752 15.505 15.9452C15.415 15.9252 15.33 15.9152 15.39 15.9752C15.45 16.0352 15.655 16.0752 15.77 16.0452C15.365 16.1402 15.26 16.1302 15.16 16.1152C15.0371 16.1011 14.9131 16.0995 14.79 16.1102C14.73 16.1102 14.645 16.1102 14.61 16.0852C14.575 16.0602 14.565 16.0202 14.67 16.0352C14.775 16.0452 14.79 16.0202 14.7 16.0102C14.605 15.9952 14.48 16.0352 14.6 16.1102C14.73 16.1902 15 16.1102 15.175 16.1552C15.33 16.1965 15.4927 16.1999 15.6494 16.1651C15.806 16.1303 15.952 16.0583 16.075 15.9552C16.09 15.9452 16.125 15.9052 16.055 15.9252H16.05ZM15.53 15.7002C15.48 15.7002 15.4 15.6752 15.355 15.6552C15.31 15.6352 15.255 15.6352 15.295 15.6952C15.345 15.7602 15.545 15.7952 15.615 15.7652C15.685 15.7352 15.655 15.7002 15.725 15.7452C15.795 15.7902 15.875 15.8152 15.925 15.8152C15.975 15.8152 15.995 15.8152 15.935 15.7852C15.8783 15.7618 15.8483 15.7385 15.845 15.7152C15.845 15.6902 15.83 15.6752 15.885 15.6902C15.935 15.7052 15.995 15.7402 16.035 15.7152C16.075 15.6902 16.155 15.6452 16.22 15.6452L16.24 15.6052C16.14 15.5952 16.075 15.6252 16.05 15.6352C16.02 15.6485 15.9766 15.6518 15.92 15.6452C15.87 15.6352 15.8 15.6302 15.785 15.6202C15.765 15.6068 15.775 15.5952 15.815 15.5852C15.855 15.5752 15.87 15.5452 15.815 15.5602C15.75 15.5702 15.59 15.5602 15.505 15.5352C15.42 15.5102 15.385 15.5052 15.355 15.5202C15.315 15.5352 15.32 15.5702 15.375 15.5702C15.425 15.5752 15.54 15.5902 15.58 15.6252C15.6233 15.6618 15.62 15.6685 15.57 15.6452C15.525 15.6302 15.44 15.6402 15.53 15.7002ZM17.495 15.5552C17.335 15.6752 17.14 15.7052 16.905 15.7152C16.835 15.7202 16.855 15.7402 16.915 15.7452C17.16 15.7702 17.44 15.6802 17.535 15.5852C17.56 15.5552 17.56 15.5102 17.495 15.5552ZM16.385 15.8302C16.5194 15.8487 16.6518 15.8805 16.78 15.9252C16.8366 15.9185 16.8583 15.9035 16.845 15.8802C16.835 15.8602 16.825 15.8352 16.935 15.8402H17.335C17.375 15.8302 17.46 15.7652 17.5 15.7602C17.4 15.7652 16.995 15.7902 16.94 15.7802C16.8966 15.7768 16.86 15.7835 16.83 15.8002C16.8066 15.8235 16.7766 15.8268 16.74 15.8102C16.695 15.7952 16.625 15.7752 16.585 15.8002C16.545 15.8252 16.46 15.8002 16.385 15.8302Z" fill="#7FB8C1"/>
<path d="M17.3399 15.845C17.3749 15.83 17.4599 15.765 17.4999 15.76C17.5699 15.755 17.6499 15.785 17.6899 15.79C17.7299 15.795 17.7699 15.79 17.7399 15.76C17.7149 15.73 17.7399 15.675 17.8499 15.69C17.9599 15.705 18.0199 15.725 18.1299 15.71C18.2399 15.695 18.2849 15.78 18.4899 15.7C18.4749 15.78 18.5149 15.79 18.5499 15.77C18.5866 15.75 18.6366 15.7634 18.6999 15.81C18.7949 15.88 19.1599 15.86 19.2499 15.845C19.3499 15.83 19.3949 15.88 19.3249 15.9C19.2583 15.9267 19.2349 15.9517 19.2549 15.975C19.2699 16 19.2849 16.025 19.1999 16.015C19.1149 16.005 19.0999 16.03 19.0499 16.065C19.0099 16.095 18.9999 16.105 18.8799 16.085C18.7599 16.065 18.735 16.08 18.67 16.09C18.605 16.1 18.59 16.1 18.52 16.08C18.46 16.055 18.3199 16.035 18.2299 16.065C18.1449 16.09 18.0799 16.115 18.0049 16.095C17.9249 16.075 17.92 16.085 17.97 16.035C18.02 15.985 18.03 15.995 18.12 15.985C18.215 15.97 18.285 15.945 18.22 15.905C18.155 15.87 18.135 15.875 18.045 15.915C17.96 15.965 17.915 15.985 17.82 15.935C17.72 15.88 17.6699 15.89 17.6049 15.905C17.5399 15.92 17.4299 15.885 17.3399 15.845ZM17.6649 16.005C17.5399 16.025 17.5049 15.945 17.3749 15.96C17.3349 15.965 17.2599 16.02 17.3599 16.01C17.4599 16 17.5699 16.06 17.67 16.05C17.77 16.04 17.72 16 17.67 16.005H17.6649ZM17.5199 16.105C17.5849 16.075 17.7199 16.12 17.7799 16.11C17.8349 16.1 17.8899 16.135 17.8299 16.155C17.7699 16.175 17.6299 16.12 17.5599 16.14C17.4949 16.155 17.4299 16.135 17.5199 16.1V16.105ZM16.2199 16.45C16.3099 16.45 16.6349 16.44 16.7599 16.17C16.7666 16.1434 16.7866 16.1434 16.8199 16.17C16.8649 16.19 17.0149 16.28 17.2949 16.305C17.3699 16.315 17.4549 16.355 17.2949 16.34C17.1449 16.33 16.8949 16.29 16.8049 16.24C16.6649 16.455 16.4099 16.485 16.2199 16.48C16.1049 16.48 16.1349 16.445 16.2199 16.45Z" fill="#7FB8C1"/>
<path d="M16.9199 16.0801C16.8749 16.1401 16.7249 16.2451 16.6599 16.2501C16.5899 16.2501 16.3849 16.2351 16.3349 16.2151C16.2849 16.1951 16.2199 16.2051 16.2949 16.2551C16.3699 16.3051 16.5499 16.3401 16.6249 16.3251C16.6949 16.3101 16.7799 16.2851 16.8399 16.3201C16.8999 16.3551 16.9999 16.4201 17.0649 16.4101C17.1408 16.3939 17.2191 16.3939 17.2949 16.4101C17.3349 16.4351 17.4049 16.4901 17.2999 16.4601C17.1949 16.4301 17.1099 16.4501 17.0599 16.4301C17.1099 16.5051 17.2349 16.6301 17.3399 16.6301C17.3649 16.6301 17.3849 16.6701 17.3299 16.6951C17.3799 16.7201 17.4999 16.7401 17.5649 16.6801C17.5483 16.7034 17.5549 16.7201 17.5849 16.7301C17.6099 16.7451 17.6449 16.7601 17.5949 16.7651C17.5449 16.7751 17.4349 16.7851 17.3999 16.7751C17.5996 16.8899 17.8327 16.9323 18.0599 16.8951C18.1149 16.8851 18.1449 16.8601 18.0599 16.8651C17.8749 16.8701 17.8649 16.8651 17.8349 16.8501C17.7983 16.8301 17.8066 16.8134 17.8599 16.8001C17.9099 16.7801 18.04 16.7601 18.095 16.7601C18.145 16.7601 18.205 16.7401 18.095 16.7401C17.985 16.7401 17.845 16.7401 17.795 16.7201C17.735 16.7051 17.6949 16.6801 17.7499 16.6401C17.8099 16.6051 17.8699 16.6151 17.8999 16.5801C17.7149 16.5801 17.5 16.4801 17.62 16.3951C17.65 16.3784 17.6399 16.3701 17.5899 16.3701C17.5449 16.3651 17.4099 16.3251 17.3549 16.2901C17.2949 16.2601 17.3349 16.2351 17.3799 16.2251C17.2749 16.2451 17.0599 16.1851 16.9199 16.0801ZM18.52 16.0801C18.42 16.1501 18.2349 16.1801 18.1549 16.1801C18.0749 16.1867 18.0666 16.1984 18.1299 16.2151C18.1899 16.2201 18.2599 16.2301 18.2849 16.2201C18.3099 16.2101 18.33 16.2101 18.37 16.2301C18.4341 16.2546 18.5047 16.2563 18.57 16.2351C18.65 16.2101 18.7749 16.2001 18.8249 16.2051C18.8749 16.2101 18.9349 16.2051 18.8299 16.1801C18.7299 16.1501 18.56 16.1701 18.52 16.1801C18.48 16.1901 18.3699 16.1801 18.4249 16.1651C18.476 16.1478 18.5247 16.1243 18.57 16.0951L18.52 16.0801ZM18.4649 16.2851C18.3691 16.3582 18.2549 16.4032 18.1349 16.4151C18.2449 16.4551 18.3449 16.5701 18.4149 16.5651C18.3783 16.5917 18.3366 16.6117 18.2899 16.6251C18.3599 16.6451 18.4799 16.6251 18.5799 16.5701C18.7399 16.6151 18.9549 16.5851 19.0249 16.5201C18.9199 16.5201 18.7899 16.4851 18.7349 16.4401C18.7883 16.4334 18.8299 16.4117 18.8599 16.3751C18.7349 16.4001 18.5249 16.3401 18.4649 16.2851Z" fill="#7FB8C1"/>
<path d="M18.29 16.625C18.34 16.62 18.38 16.585 18.415 16.565C18.325 16.595 17.935 16.535 17.815 16.43C17.7 16.33 17.7 16.405 17.78 16.48C17.865 16.55 18.01 16.66 18.29 16.625ZM18.58 16.875C18.53 16.9 18.295 16.915 18.22 16.9C18.1433 16.8834 18.1133 16.89 18.13 16.92C18.15 16.95 18.16 16.98 18.095 16.97C18.03 16.96 17.92 16.975 17.875 16.99C17.83 17.005 17.775 17.05 17.87 17.03C17.97 17.015 18.055 16.995 18.13 17.015C18.205 17.035 18.465 17.04 18.515 17.015C18.565 16.99 18.535 16.995 18.51 16.995C18.485 16.995 18.475 16.98 18.51 16.965C18.545 16.95 18.57 16.9 18.58 16.875ZM16.315 16.56C16.215 16.605 15.89 16.69 15.805 16.695C15.6917 16.745 15.6083 16.77 15.555 16.77C15.6292 16.8125 15.7151 16.83 15.8 16.82C15.765 16.85 15.69 16.89 15.665 16.905C15.75 16.895 15.855 16.915 15.9 16.92C15.7912 16.9782 15.668 17.0042 15.545 16.995C15.5716 17.0417 15.61 17.0667 15.66 17.07C15.555 17.1 15.43 17.1 15.36 17.08C15.39 17.1334 15.4233 17.1634 15.46 17.17C15.37 17.18 15.26 17.195 15.17 17.145C15.24 17.235 15.3933 17.2667 15.63 17.24C15.865 17.215 16.06 17.11 16.115 17.065C16.015 17.08 15.885 17.085 15.82 17.07C15.9841 17.0269 16.1408 16.9595 16.285 16.87C16.2283 16.87 16.1783 16.8567 16.135 16.83C16.2783 16.8345 16.4216 16.8176 16.56 16.78C16.46 16.755 16.405 16.695 16.375 16.655C16.6711 16.7407 16.9839 16.751 17.285 16.685C17.33 16.675 17.335 16.62 17.245 16.625C17.095 16.635 16.8 16.59 16.725 16.555C16.795 16.605 16.88 16.64 16.94 16.655C16.8 16.69 16.605 16.715 16.315 16.555V16.56Z" fill="#7FB8C1"/>
<path d="M15.665 16.9052C15.69 16.8902 15.765 16.8552 15.8 16.8202C15.7151 16.8301 15.6292 16.8126 15.555 16.7702C15.6083 16.7702 15.6916 16.7452 15.805 16.6952C15.605 16.6902 15.475 16.6902 15.405 16.6502C15.33 16.6152 15.205 16.6252 15.155 16.6352C15.105 16.6452 15.12 16.7252 15.325 16.7052C15.199 16.7651 15.0579 16.786 14.92 16.7652C14.9466 16.8418 14.9516 16.9018 14.935 16.9452C15.1103 17.0285 15.301 17.0745 15.495 17.0802C15.365 17.0302 15.295 16.9752 15.405 16.9652C15.51 16.9552 15.57 16.9302 15.665 16.9052ZM15.325 17.2552C15.585 17.2352 15.935 17.2302 16.215 16.9952C16.285 16.9352 16.33 16.9552 16.265 17.0202C16.115 17.1502 15.75 17.3252 15.405 17.3302C15.26 17.3302 15.195 17.2652 15.325 17.2552ZM17.275 16.8302C17.21 16.8552 17.025 16.8802 16.975 16.8802C16.925 16.8652 16.84 16.8652 16.8 16.8902C16.7466 16.9202 16.75 16.9368 16.81 16.9402L16.985 16.9502C16.935 16.9752 16.905 17.0152 16.895 17.0302C16.98 17.0102 17.145 17.0452 17.185 17.0702C17.1483 17.0802 17.115 17.0752 17.085 17.0552C17.23 17.2052 17.665 17.2052 17.735 17.1802C17.7016 17.2102 17.6683 17.2285 17.635 17.2352C17.76 17.2602 17.9 17.2552 18.04 17.1752C17.99 17.1852 17.855 17.1702 17.82 17.1652C17.8495 17.1369 17.8856 17.1163 17.925 17.1052C17.875 17.0952 17.7 17.1002 17.66 17.1202C17.68 17.0868 17.7066 17.0585 17.74 17.0352C17.525 17.0352 17.265 17.0352 17.17 16.9852C17.32 16.9952 17.49 16.9102 17.56 16.9102C17.44 16.9052 17.31 16.8802 17.275 16.8302ZM16.73 16.9502C16.625 16.9702 16.465 17.0152 16.42 17.0352C16.375 17.0602 16.33 17.0752 16.425 17.0752L16.46 17.0652C16.42 17.0652 16.375 17.0652 16.445 17.0452C16.52 17.0202 16.61 16.9702 16.73 16.9452V16.9502ZM16.515 17.2002C16.555 17.2002 16.715 17.2002 16.785 17.1452C16.85 17.1952 16.985 17.2652 17.065 17.2652C17.15 17.2652 17.145 17.2902 17.065 17.2952C16.995 17.3052 16.85 17.2602 16.78 17.2052C16.68 17.2452 16.6 17.2152 16.515 17.2002ZM15.255 17.9252C15.425 17.9902 15.65 18.0402 15.81 17.9852C15.905 18.0652 16.095 18.0702 16.195 18.0502C16.3 18.0302 16.395 18.0152 16.505 18.0552C16.615 18.0952 16.855 18.0952 16.92 18.1502C16.86 18.1502 16.735 18.1502 16.705 18.1602C16.675 18.1668 16.6883 18.1835 16.745 18.2102C16.5346 18.206 16.327 18.2596 16.145 18.3652C16.18 18.2802 16.285 18.1652 16.46 18.1652C16.36 18.1352 16.045 18.1302 15.945 18.1902C15.9163 18.16 15.8941 18.1243 15.88 18.0852C15.715 18.1802 15.385 18.0452 15.255 17.9252ZM14.825 17.6252C15.025 17.5952 15.16 17.5302 15.225 17.4752C15.255 17.5052 15.405 17.5352 15.565 17.4902C15.53 17.5102 15.53 17.5602 15.54 17.5852C15.44 17.5852 15.235 17.6352 15.165 17.6702C15.1 17.7052 14.9 17.7302 14.835 17.6952C14.7683 17.6585 14.765 17.6352 14.825 17.6252Z" fill="#7FB8C1"/>
<path d="M15.54 17.5851C15.44 17.5851 15.235 17.6351 15.165 17.6701C15.1816 17.7035 15.19 17.7368 15.19 17.7701C15.4548 17.6953 15.7304 17.6665 16.005 17.6851C15.925 17.6901 15.77 17.7751 15.685 17.7851C15.8428 17.7759 16.001 17.7894 16.155 17.8251C16.2116 17.8418 16.22 17.8718 16.18 17.9151C16.12 17.9801 16.12 17.9651 16.21 17.9651C16.3 17.9651 16.475 17.9551 16.56 17.8751C16.525 17.8401 16.44 17.8551 16.41 17.8301C16.466 17.8116 16.5172 17.7808 16.56 17.7401C16.41 17.7401 16.36 17.7401 16.31 17.7251C16.26 17.7101 16.225 17.7001 16.285 17.6701C16.3265 17.6509 16.3639 17.6237 16.395 17.5901C16.285 17.6201 16.12 17.6401 15.98 17.5351C16.03 17.5451 16.155 17.5351 16.2 17.5201C16.1533 17.4935 16.1116 17.4785 16.075 17.4751C16.19 17.4251 16.41 17.3751 16.68 17.4851C16.815 17.4701 16.965 17.4751 17.065 17.5051C17.115 17.4601 17.205 17.3551 17.25 17.3301C16.93 17.3601 16.35 17.3001 16.365 17.1301C16.265 17.2651 16.025 17.3401 15.915 17.3201C15.91 17.3701 15.95 17.4301 15.99 17.4601C15.88 17.4851 15.695 17.5001 15.61 17.4851C15.66 17.5351 15.75 17.5751 15.805 17.5701C15.69 17.5701 15.63 17.5901 15.54 17.5851Z" fill="#7FB8C1"/>
<path d="M16.21 17.9651C16.295 17.9651 16.475 17.9551 16.56 17.8751C16.525 17.8401 16.44 17.8551 16.41 17.8301C16.466 17.8116 16.5172 17.7808 16.56 17.7401C16.79 17.7251 16.995 17.7351 17.09 17.7051C17.185 17.6751 17.44 17.6901 17.49 17.6751C17.27 17.7101 17.23 17.7301 17.215 17.7651C17.2 17.8001 17.285 17.8301 17.34 17.8301C17.24 17.8301 17.12 17.9301 17.11 17.9701C16.975 17.8951 16.915 17.9801 16.9 18.0101C16.85 17.9901 16.665 17.9951 16.575 18.0751C16.455 18.0401 16.375 18.0201 16.255 18.0401C16.33 18.0201 16.315 17.9751 16.205 17.9651H16.21ZM17.25 17.3301H17.545C17.5078 17.3474 17.474 17.3711 17.445 17.4001C17.63 17.3751 17.885 17.3651 17.955 17.3751C17.865 17.3601 17.775 17.4201 17.73 17.4501C17.68 17.4751 17.71 17.5001 17.77 17.5001C17.835 17.5101 17.92 17.5601 17.805 17.5451C17.69 17.5301 17.465 17.5301 17.41 17.5351C17.36 17.5451 17.325 17.5201 17.405 17.5051C17.4817 17.4918 17.5383 17.4735 17.575 17.4501C17.51 17.4651 17.385 17.4651 17.345 17.4501C17.305 17.4351 17.285 17.4201 17.33 17.4101C17.375 17.4001 17.34 17.3851 17.295 17.3901C17.245 17.3901 17.13 17.4401 17.065 17.5051C17.1383 17.4285 17.2 17.3701 17.25 17.3301ZM16.425 17.4551C16.505 17.5551 16.625 17.6085 16.785 17.6151C16.82 17.6151 16.885 17.6651 16.805 17.6651C16.575 17.6751 16.46 17.6201 16.36 17.4751C16.34 17.4451 16.38 17.4051 16.425 17.4551ZM19.325 16.2251C19.255 16.2751 19.165 16.3501 19.225 16.4651L19.245 16.4551C19.5055 16.1421 19.7365 15.8057 19.935 15.4501V15.4151C19.8629 15.4768 19.782 15.5274 19.695 15.5651C19.725 15.6451 19.575 15.7651 19.495 15.7951C19.525 15.8451 19.515 15.9301 19.445 15.9451C19.46 15.9951 19.405 15.9951 19.345 16.0201C19.2783 16.0435 19.2367 16.0701 19.22 16.1001C19.255 16.0801 19.305 16.0651 19.33 16.0751C19.355 16.0851 19.365 16.1251 19.315 16.1351C19.265 16.1485 19.2317 16.1668 19.215 16.1901C19.29 16.1651 19.39 16.1801 19.32 16.2251H19.325ZM14.525 14.9951C14.61 15.0501 14.755 15.1451 14.94 15.1301C15.035 15.2051 15.175 15.2651 15.24 15.2801C15.115 15.3301 14.98 15.3751 14.945 15.4151C14.89 15.3651 14.815 15.3651 14.795 15.3401C14.7483 15.3868 14.745 15.4185 14.785 15.4351C14.9078 15.4739 15.0364 15.4908 15.165 15.4851C15.23 15.4651 15.25 15.5201 15.195 15.5351C15.045 15.5901 14.76 15.5401 14.665 15.3851C14.57 15.2301 14.48 15.1701 14.215 15.3151C14.185 15.2351 14.185 15.2151 14.135 15.2151C14.085 15.2151 13.985 15.1501 14.06 15.1551C14.135 15.1551 14.35 15.1251 14.525 14.9951Z" fill="#7FB8C1"/>
<path d="M14.5899 15.3401C14.5449 15.3551 14.4199 15.4251 14.3699 15.4301C14.3249 15.4301 14.2449 15.5001 14.3299 15.5001C14.4149 15.5001 14.5199 15.4151 14.5799 15.4001C14.6399 15.4001 14.6449 15.3301 14.5899 15.3401ZM14.9499 15.5951V15.6701C14.9399 15.6901 14.9399 15.7151 14.9749 15.6901C15.0099 15.6651 15.0349 15.6301 15.0699 15.6451C15.1049 15.6651 15.1949 15.6651 15.2349 15.6601C15.2816 15.6568 15.2799 15.6434 15.2299 15.6201C15.1823 15.6005 15.1314 15.5903 15.0799 15.5901C15.0459 15.592 15.0119 15.5868 14.9799 15.5751C14.9499 15.5651 14.9399 15.5718 14.9499 15.5951ZM16.2399 15.6051L16.2199 15.6451C16.3199 15.6451 16.5699 15.6651 16.6449 15.7151C16.7199 15.6551 16.7099 15.6351 16.7599 15.6451C16.8149 15.6601 16.8849 15.6751 16.9149 15.6601C16.9416 15.6468 16.9699 15.6451 16.9999 15.6551C17.0299 15.6551 17.0999 15.6451 17.1449 15.6201C17.1899 15.5951 17.2699 15.5651 17.3149 15.5651C17.3649 15.5651 17.4249 15.5551 17.3349 15.5401C17.2439 15.5324 17.1521 15.5426 17.0649 15.5701C17.0149 15.5851 16.8799 15.5951 16.7999 15.5951C16.7149 15.5951 16.6049 15.6351 16.5099 15.6101C16.4149 15.5851 16.2899 15.6051 16.2399 15.6051ZM17.7849 15.5651C17.9049 15.6251 18.1449 15.6701 18.3349 15.6651C18.3649 15.6651 18.4349 15.6951 18.3499 15.7051C18.1399 15.7284 17.9466 15.6918 17.7699 15.5951C17.7199 15.5701 17.7399 15.5451 17.7849 15.5651ZM17.9099 15.5651C18.0966 15.5551 18.2233 15.5718 18.2899 15.6151C18.3899 15.5801 18.5849 15.5651 18.6299 15.5701C18.6699 15.5801 18.7199 15.5601 18.6199 15.5351C18.5199 15.5101 18.2849 15.5051 18.2099 15.5201C18.1349 15.5351 17.9099 15.5401 17.8349 15.5301C17.8616 15.5301 17.8866 15.5418 17.9099 15.5651ZM18.6249 15.6351C18.7099 15.5901 18.9649 15.6351 19.0399 15.6001C18.9849 15.6651 19.2149 15.6701 19.4099 15.6201C19.3349 15.6701 19.1699 15.6751 19.0999 15.7051C19.0299 15.7351 18.9899 15.7151 18.9399 15.6901C18.8849 15.6651 18.7449 15.6201 18.6249 15.6401V15.6351Z" fill="#7FB8C1"/>
<path d="M19.41 15.6201C19.21 15.6701 18.985 15.6701 19.04 15.6001C18.965 15.6351 18.71 15.5901 18.625 15.6351C18.715 15.5851 18.785 15.6251 18.85 15.5151C18.89 15.5251 18.985 15.5301 19.015 15.4851C19.075 15.5001 19.175 15.5251 19.205 15.5551C19.235 15.5851 19.28 15.5451 19.245 15.5001C19.33 15.4651 19.275 15.5351 19.485 15.4851C19.53 15.4751 19.635 15.4551 19.67 15.4551C19.5902 15.5202 19.5029 15.5756 19.41 15.6201Z" fill="#7FB8C1"/>
<path d="M21.055 9.8501C21.045 13.2401 20.505 16.9001 16.085 18.6401C11.66 16.8951 11.12 13.2401 11.11 9.8501H21.055Z" stroke="black" stroke-width="0.25"/>
<path d="M13.085 11.375C13.0142 11.4717 12.9281 11.5561 12.83 11.625C12.73 11.695 12.595 11.75 12.67 11.875C12.74 11.995 12.8 12.01 12.815 12.105C12.83 12.2 12.85 12.275 12.925 12.3C12.995 12.32 13.025 12.305 13.025 12.455C13.025 12.605 13.025 12.665 13.09 12.72C13.155 12.78 13.15 12.84 13.175 12.97C13.205 13.11 13.205 13.405 13.295 13.61C13.38 13.81 13.575 14.19 13.555 14.27C13.53 14.35 13.505 14.405 13.59 14.5C13.675 14.595 13.74 14.73 13.74 14.81C13.75 14.89 13.765 14.92 13.85 14.89C13.9109 14.8733 13.9662 14.8405 14.01 14.795C14.0434 14.7617 14.1 14.7667 14.18 14.81C14.26 14.855 14.38 14.895 14.455 14.855C14.525 14.805 14.56 14.745 14.625 14.745C14.725 14.675 14.765 14.52 14.785 14.48C14.81 14.435 14.795 14.435 14.75 14.39C14.705 14.345 14.73 14.275 14.72 14.205C14.72 14.1383 14.68 14.025 14.6 13.865C14.51 13.71 14.46 13.515 14.4 13.465C14.345 13.415 14.315 13.29 14.31 13.235C14.3 13.175 14.235 13.125 14.19 13.085C14.15 13.035 14.105 12.975 14.055 12.72C14.005 12.465 13.965 12.29 13.965 12.245C13.9717 12.2117 13.955 12.1917 13.915 12.185C13.875 12.17 13.85 12.095 13.865 12.06C13.88 12.025 13.85 11.99 13.835 11.945C13.82 11.9 13.835 11.825 13.865 11.78C13.895 11.735 13.89 11.615 13.86 11.515C13.83 11.415 13.8 11.325 13.685 11.315C13.57 11.295 13.545 11.265 13.505 11.175C13.46 11.08 13.415 10.915 13.405 10.875C13.385 10.845 13.365 10.835 13.28 10.91C13.19 10.98 13.165 11.005 13.165 11.14C13.165 11.225 13.175 11.255 13.205 11.305C13.235 11.355 13.24 11.37 13.265 11.505C13.29 11.64 13.41 11.855 13.25 11.98C13.09 12.105 13.11 12.13 13.12 12.22C13.13 12.31 13.075 12.36 13.045 12.24C13.0184 12.1233 13.0484 12.04 13.135 11.99C13.22 11.93 13.3 11.86 13.24 11.78C13.187 11.6707 13.158 11.5514 13.155 11.43C13.155 11.3333 13.1317 11.3167 13.085 11.38V11.375Z" fill="#CFA763"/>
<path d="M11.79 13.21C11.79 13.2733 11.795 13.3317 11.805 13.385C11.81 13.445 11.825 13.57 11.785 13.66C11.735 13.755 11.75 13.8 11.785 13.83C11.875 13.805 11.885 13.705 11.865 13.66C11.8417 13.6033 11.845 13.5483 11.875 13.495C11.905 13.4483 11.905 13.41 11.875 13.38C11.855 13.345 11.855 13.345 11.885 13.245C11.91 13.155 11.845 13.155 11.79 13.21ZM12.72 14.61C12.7 14.54 12.64 14.295 12.635 14.13C12.635 13.9733 12.565 13.835 12.425 13.715C12.32 13.615 12.295 13.465 12.29 13.345C12.21 13.295 12.175 13.315 12.185 13.405C12.19 13.505 12.285 13.55 12.275 13.69C12.26 13.83 12.26 13.795 12.325 13.865C12.4017 13.935 12.4217 13.9883 12.385 14.025C12.35 14.055 12.345 14.105 12.395 14.125C12.445 14.145 12.45 14.195 12.445 14.245C12.44 14.295 12.485 14.305 12.515 14.345C12.54 14.38 12.545 14.465 12.515 14.515C12.485 14.565 12.485 14.645 12.535 14.6C12.585 14.56 12.61 14.6 12.645 14.665C12.68 14.725 12.71 14.705 12.745 14.69L12.72 14.605V14.61ZM12.295 11.61C12.24 11.61 12.205 11.66 12.235 11.825C12.255 11.925 12.175 11.9 12.145 11.85C12.12 11.8 12.095 11.695 12.04 11.6C11.985 11.505 12.01 11.665 12 11.75C11.995 11.835 12.05 11.835 12.1 11.91C12.15 11.98 12.11 12.01 12.05 12.01C11.99 12.01 12.025 12.125 12.04 12.205C12.055 12.285 12.025 12.3 11.98 12.235C11.935 12.17 11.965 12.065 11.975 11.945C11.985 11.825 11.99 11.85 11.91 11.825C11.83 11.8 11.84 11.775 11.87 11.705C11.9 11.635 11.93 11.6 11.895 11.565C11.855 11.5283 11.8633 11.5067 11.92 11.5C11.98 11.49 11.96 11.45 12.01 11.435C12.06 11.42 12.08 11.44 12.09 11.35C12.095 11.27 12.12 11.22 12.18 11.25C12.215 11.365 12.26 11.55 12.295 11.61ZM13.62 12.9C13.64 12.745 13.625 12.585 13.69 12.53C13.755 12.475 13.84 12.355 13.83 12.6C13.82 12.845 13.815 12.83 13.765 12.89C13.715 12.945 13.67 12.96 13.72 13.055C13.77 13.15 13.78 13.155 13.77 13.3C13.765 13.44 13.765 13.5 13.82 13.57C13.875 13.64 13.895 13.65 13.91 13.73C13.9294 13.8223 13.9744 13.9072 14.04 13.975C14.105 14.03 14.18 14.2 14.185 14.315C14.19 14.43 14.295 14.455 14.385 14.535C14.485 14.615 14.365 14.675 14.295 14.635C14.22 14.6 14.25 14.635 14.205 14.685C14.16 14.735 14.15 14.745 14.11 14.66C14.075 14.57 13.955 14.51 13.895 14.495C13.835 14.47 13.785 14.38 13.735 14.285C13.7134 14.246 13.6833 14.2122 13.6469 14.1863C13.6106 14.1603 13.5689 14.1428 13.525 14.135C13.5517 14.2017 13.5617 14.2467 13.555 14.27C13.53 14.35 13.505 14.405 13.59 14.5C13.675 14.595 13.74 14.73 13.74 14.81C13.75 14.89 13.765 14.92 13.85 14.89C13.9109 14.8734 13.9662 14.8405 14.01 14.795C14.0433 14.7617 14.1 14.7667 14.18 14.81C14.26 14.855 14.38 14.895 14.455 14.855C14.525 14.805 14.56 14.745 14.625 14.745C14.725 14.675 14.765 14.52 14.785 14.48C14.81 14.435 14.795 14.435 14.75 14.39C14.705 14.345 14.73 14.275 14.72 14.205C14.72 14.1383 14.68 14.025 14.6 13.865C14.51 13.71 14.46 13.515 14.4 13.465C14.345 13.415 14.315 13.29 14.31 13.235C14.3 13.175 14.235 13.125 14.19 13.085C14.15 13.035 14.105 12.975 14.055 12.72L13.97 12.295C13.92 12.375 13.8867 12.3917 13.87 12.345C13.845 12.275 13.815 12.24 13.785 12.285C13.755 12.325 13.75 12.245 13.75 12.21C13.75 12.175 13.745 12.17 13.705 12.17C13.67 12.17 13.7 12.11 13.685 12.005C13.67 11.895 13.65 11.88 13.635 12.01C13.62 12.14 13.545 12.22 13.575 12.245C13.6017 12.2783 13.5967 12.3367 13.56 12.42C13.5485 12.4515 13.5434 12.485 13.5452 12.5185C13.5469 12.552 13.5553 12.5848 13.57 12.615C13.59 12.67 13.555 12.78 13.54 12.875C13.525 12.965 13.6 13.06 13.62 12.9ZM13.02 12.455C13.02 12.605 13.02 12.665 13.09 12.72C13.155 12.78 13.15 12.835 13.175 12.97C13.2 13.105 13.205 13.405 13.295 13.61L13.395 13.825C13.44 13.785 13.48 13.725 13.495 13.685C13.52 13.635 13.455 13.535 13.4 13.45C13.345 13.365 13.41 13.335 13.46 13.225C13.51 13.12 13.455 13.11 13.375 13.08C13.295 13.055 13.295 12.98 13.25 12.865C13.205 12.75 13.215 12.7 13.24 12.635C13.27 12.5683 13.2533 12.525 13.19 12.505C13.135 12.49 13.15 12.45 13.17 12.375C13.19 12.305 13.205 12.29 13.12 12.31C13.0633 12.3267 13.03 12.3433 13.02 12.36V12.455Z" fill="#D7C99C"/>
<path d="M14.395 12.3999L14.22 14.2999M14.92 13.5599C14.8444 13.8965 14.756 14.2301 14.655 14.5599M17.19 12.6449C17.325 12.7699 17.5 12.7949 17.695 12.8949M18.065 13.4899L17.965 14.2199M17.965 13.5199L17.795 14.2699M14.8 13.5849C14.7133 13.8949 14.615 14.1916 14.505 14.4749" stroke="black" stroke-width="0.0625"/>
<path d="M18.57 15.3499L18.555 15.3549H18.525L18.51 15.3599H18.495L18.48 15.3649L18.47 15.3749L18.46 15.3849L18.45 15.3999L18.44 15.4099L18.425 15.4299L18.42 15.4349L18.41 15.4449L18.405 15.4549C18.3671 15.488 18.32 15.509 18.27 15.5149C18.2188 15.525 18.1662 15.525 18.115 15.5149C18.0417 15.5182 17.9817 15.5066 17.935 15.4799C17.885 15.4549 17.825 15.4749 17.785 15.4949C17.755 15.5099 17.75 15.5449 17.715 15.5499C17.695 15.5799 17.605 15.5749 17.565 15.5649C17.4983 15.5649 17.4367 15.5516 17.38 15.5249C17.345 15.4999 17.28 15.4799 17.24 15.5249C17.2133 15.5516 17.1767 15.5682 17.13 15.5749C17.055 15.5749 16.965 15.5899 16.905 15.5599C16.84 15.5549 16.82 15.5199 16.755 15.4999C16.69 15.4899 16.66 15.5249 16.615 15.5399C16.5817 15.5666 16.5283 15.5766 16.455 15.5699C16.385 15.5699 16.305 15.5799 16.255 15.5499C16.205 15.5499 16.165 15.5149 16.12 15.4949C16.08 15.4599 16.005 15.4949 15.97 15.5149C15.905 15.5249 15.885 15.5699 15.805 15.5649C15.74 15.5599 15.7 15.5299 15.64 15.5149C15.585 15.4899 15.54 15.4499 15.45 15.4549C15.4167 15.4882 15.3683 15.5049 15.305 15.5049C15.255 15.5049 15.2083 15.5016 15.165 15.4949C15.06 15.4949 15.01 15.3799 14.935 15.3199L14.55 14.9499C14.57 14.8849 14.58 14.8699 14.545 14.8249C14.555 14.7599 14.51 14.7499 14.53 14.6849C14.56 14.6349 14.48 14.6399 14.46 14.6149C14.41 14.6049 14.395 14.5699 14.35 14.5549L14.235 14.4899L14.125 14.4349C14.095 14.4116 14.065 14.3899 14.035 14.3699L13.95 14.2999C13.92 14.2832 13.89 14.2649 13.86 14.2449C13.83 14.2182 13.7967 14.1966 13.76 14.1799C13.715 14.1649 13.675 14.1299 13.62 14.1199C13.585 14.1199 13.575 14.0399 13.64 14.0449C13.69 14.0449 13.715 14.0749 13.75 14.0949C13.8033 14.1216 13.8617 14.1416 13.925 14.1549L14.04 14.2049C14.08 14.2349 14.13 14.2399 14.175 14.2699C14.22 14.2899 14.275 14.3099 14.295 14.3349C14.335 14.3499 14.355 14.3749 14.395 14.3899C14.4083 14.4032 14.43 14.4199 14.46 14.4399C14.4933 14.4499 14.5267 14.4666 14.56 14.4899C14.5933 14.5032 14.6217 14.5199 14.645 14.5399C14.675 14.5499 14.885 14.6549 14.875 14.6399C15.08 14.6799 15.175 14.6899 15.375 14.7249L16.88 14.7449L17.425 14.5199L17.59 14.2549L18.395 14.1099C18.38 14.0949 19.805 14.0599 19.835 14.1799C19.85 14.2299 19.885 14.3299 19.84 14.3549C19.81 14.3699 18.49 14.1899 18.475 14.3049C18.465 14.3549 18.475 14.6799 18.485 14.7299L18.505 14.8799L18.53 15.0399L18.55 15.1899L18.57 15.3499Z" fill="#666666"/>
<path d="M14.49 13.3298C14.25 13.6048 14.01 13.8248 13.75 14.0348M15.825 12.2048L16.61 11.5298M15.475 12.8748C15.63 12.9848 15.805 13.0798 16.045 13.1398M15.365 11.8498C15.465 11.9998 15.575 12.1498 15.915 12.2448M15.14 10.3098C15.0069 10.4734 14.8374 10.6035 14.645 10.6898M15.425 11.2598C15.5496 11.3645 15.6942 11.4428 15.85 11.4898M15.425 13.6148C15.4879 13.9565 15.5663 14.2952 15.66 14.6298" stroke="black" stroke-width="0.0625"/>
<path d="M15.36 14.6249C15.765 14.2049 16.11 13.7599 16.34 13.2449M17.17 11.7399C17.3 11.8749 17.435 11.9799 17.645 12.0399M17.735 11.2399C17.845 11.4399 17.98 11.5849 18.105 11.7449M16.53 10.6199C16.52 10.8199 16.4 11.0149 16.315 11.1849" stroke="black" stroke-width="0.0625"/>
<path d="M16.815 10.7149C16.665 10.8799 16.53 11.0499 16.33 11.1499M16.84 10.0149C16.7305 10.0892 16.6131 10.1513 16.49 10.1999M18.32 11.5099C18.2 11.6549 18.08 11.8199 17.885 11.9449M18.345 12.6949C18.19 12.8449 18.05 13.0149 17.875 13.1249M18.37 14.1149C18.6734 13.9516 18.96 13.7599 19.23 13.5399C19.005 13.7599 18.77 13.9799 18.52 14.1399M18.44 11.5399C18.49 11.6699 18.605 11.8149 18.72 11.9049" stroke="black" stroke-width="0.0625"/>
<path d="M18.275 10.2501L18.25 14.1451L18.535 14.1301L18.415 10.2351L18.275 10.2501Z" fill="#BCA76B" stroke="#472B1F" stroke-width="0.05"/>
<path d="M18.46 15.27L18.615 15.4C18.75 15.52 18.825 15.52 19.005 15.4C19.07 15.41 19.135 15.45 19.205 15.435C19.275 15.4317 19.34 15.4234 19.4 15.41C19.47 15.39 19.485 15.305 19.51 15.24C19.545 15.175 19.575 15.09 19.63 15.035C19.695 14.985 19.765 14.945 19.81 14.875C19.8533 14.815 19.865 14.745 19.845 14.665L19.83 14.465C19.82 14.37 19.895 14.305 19.88 14.215C19.845 14.18 19.77 14.165 19.715 14.15C19.6113 14.1259 19.506 14.1092 19.4 14.1L19.135 14.085L18.885 14.07C18.785 14.0667 18.6883 14.0684 18.595 14.075C18.53 14.09 18.445 14.085 18.385 14.115C18.3637 14.1796 18.3519 14.247 18.35 14.315L18.335 14.495C18.335 14.61 18.32 14.72 18.355 14.825L18.405 15.085C18.405 15.155 18.405 15.22 18.455 15.27H18.46Z" fill="#333333" stroke="black" stroke-width="0.1625"/>
<path d="M18.785 13.375L19.175 14.1M19.75 14.135C19.64 14.015 19.55 13.8733 19.48 13.71" stroke="black" stroke-width="0.0625"/>
<path d="M19.725 13.01L19.855 13.1H19.86C19.82 13.065 19.78 13.02 19.725 13.01ZM19.46 13.045L19.445 13.05L19.265 13.75L19.46 13.045ZM20.31 13.075C20.2667 13.0783 20.2233 13.0917 20.18 13.115L20.255 13.09L20.355 13.075H20.305H20.31ZM19.48 13.71L19.445 13.715C19.4769 13.7136 19.5084 13.7223 19.535 13.74L19.48 13.71ZM19.55 13.745C19.5933 13.7783 19.64 13.805 19.69 13.825L19.55 13.745ZM19.965 13.785L19.725 13.835C19.8083 13.8283 19.8883 13.8117 19.965 13.785Z" fill="#472B1F"/>
<path d="M19.465 13L19.265 13.75L19.48 13.705L19.705 13.835L20.045 13.765L20.22 13.79C20.27 13.55 20.255 13.27 20.395 13.065L20.255 13.09L20.03 13.165L19.85 13.1L19.71 13H19.465Z" fill="white"/>
<path d="M19.795 13.095C19.7494 13.16 19.7218 13.2359 19.715 13.315L19.565 13.27H19.395V13.275L19.345 13.455C19.345 13.455 19.48 13.435 19.545 13.445C19.585 13.45 19.665 13.495 19.665 13.495L19.6 13.775L19.645 13.8L19.735 13.825L19.775 13.82C19.7916 13.7133 19.8166 13.6233 19.85 13.55C19.85 13.55 19.99 13.585 20.065 13.58L20.255 13.565L20.28 13.385C20.255 13.39 20.135 13.42 20.07 13.415C20.0123 13.4009 19.9567 13.3791 19.905 13.35C19.9216 13.29 19.945 13.2283 19.975 13.165L19.795 13.095Z" fill="#C8102E"/>
<path d="M19.32 13C19.225 12.75 19.115 12.345 19.07 12.02" stroke="black" stroke-width="0.0875"/>
<path d="M19.4 13.06C19.4 13.06 19.62 13.01 19.715 13.025C19.815 13.045 19.87 13.155 19.975 13.175C20.09 13.19 20.185 13.085 20.305 13.075L20.47 13.09L20.39 13.365L20.325 13.595V13.8C20.325 13.8 20.14 13.75 20.04 13.77C19.915 13.78 19.82 13.845 19.7 13.835C19.61 13.815 19.57 13.74 19.475 13.72C19.41 13.7 19.225 13.75 19.225 13.75L19.4 13.06Z" stroke="#472B1F" stroke-width="0.1625"/>
<path d="M19.44 13.05L19.35 13.055L19.07 14.055L19.2 14.065L19.44 13.05Z" fill="#BCA76B" stroke="#472B1F" stroke-width="0.0375"/>
<path d="M19.35 13.055C19.31 13.035 19.285 12.97 19.3 12.93C19.325 12.88 19.4 12.875 19.45 12.89C19.505 12.905 19.58 12.96 19.56 13.015C19.54 13.08 19.41 13.09 19.35 13.055Z" fill="#BCA76B" stroke="#472B1F" stroke-width="0.0375"/>
<path d="M20.385 13.0801C20.25 13.2801 20.26 13.5451 20.21 13.7801L20.325 13.8001V13.6001L20.395 13.3651L20.47 13.0951L20.385 13.0801Z" fill="#472B1F"/>
<path d="M18.77 12.2649C18.915 12.3649 19.055 12.6149 19.255 12.8149M19.035 11.8999C18.9204 11.5608 18.8531 11.2074 18.835 10.8499M18.625 13.5099L18.845 14.0899M18.845 10.5749C18.65 10.5249 18.47 10.3949 18.445 10.2849M17.595 10.7649C17.72 10.7749 18.155 10.4549 18.22 10.2849M18.7 13.4249L19.005 14.0749M18.675 13.6449L18.9 13.5649M18.715 13.7649L18.95 13.6649M18.81 14.0149L19.07 13.9049M18.545 12.7299L18.86 13.0649M17.885 13.5399L17.67 14.2649M17.825 13.6999H18.045M17.775 13.8799L18.025 13.8849M17.715 14.0649L17.99 14.1149" stroke="black" stroke-width="0.0625"/>
<path d="M18.44 10.1501C18.39 10.1351 18.25 10.1301 18.195 10.1751C18.17 10.1951 18.195 10.2751 18.23 10.2751C18.3 10.2751 18.395 10.2751 18.43 10.2601C18.455 10.2351 18.475 10.1601 18.44 10.1501Z" fill="#BCA76B" stroke="#472B1F" stroke-width="0.05"/>
<path d="M17.65 10.76C17.745 11.14 18.145 11.075 18.13 10.73L17.65 10.76Z" fill="#BCA76B"/>
<path d="M17.65 10.76C17.745 11.14 18.145 11.075 18.13 10.73" stroke="#472B1F" stroke-width="0.0625"/>
<path d="M18.02 10.74C18.145 11.18 18.67 11.11 18.645 10.71L18.02 10.74Z" fill="#BCA76B"/>
<path d="M18.02 10.74C18.145 11.18 18.67 11.11 18.645 10.71" stroke="#472B1F" stroke-width="0.0875"/>
<path d="M18.465 10.735C18.585 11.055 18.75 10.995 18.95 10.7L18.465 10.735ZM19.065 10.585L17.585 10.67V10.77L19.085 10.69L19.065 10.585ZM17.7 12.07C17.8 12.48 18.215 12.42 18.2 12.04L17.7 12.07Z" fill="#BCA76B"/>
<path d="M18.465 10.735C18.585 11.055 18.75 10.995 18.95 10.7M17.7 12.07C17.8 12.48 18.215 12.42 18.2 12.04M19.065 10.585L17.585 10.67V10.77L19.085 10.69L19.065 10.585Z" stroke="#472B1F" stroke-width="0.0625"/>
<path d="M18.09 12.05C18.21 12.535 18.755 12.46 18.735 12.03L18.09 12.05Z" fill="#BCA76B"/>
<path d="M18.09 12.05C18.21 12.535 18.755 12.46 18.735 12.03" stroke="#472B1F" stroke-width="0.0875"/>
<path d="M18.55 12.0501C18.67 12.4001 18.84 12.3351 19.055 12.0201L18.55 12.0501ZM19.175 11.9001L17.64 11.9601V12.0701L19.19 12.0151L19.175 11.9001ZM17.665 13.2451C17.765 13.6751 18.19 13.6051 18.175 13.2101L17.665 13.2451Z" fill="#BCA76B"/>
<path d="M18.55 12.0501C18.67 12.4001 18.84 12.3351 19.055 12.0201M17.665 13.2451C17.765 13.6751 18.19 13.6051 18.175 13.2101M19.175 11.9001L17.64 11.9601V12.0701L19.19 12.0151L19.175 11.9001Z" stroke="#472B1F" stroke-width="0.0625"/>
<path d="M18.06 13.2302C18.16 13.8652 18.75 13.6352 18.72 13.1802L18.06 13.2302Z" fill="#BCA76B"/>
<path d="M18.06 13.2302C18.16 13.8652 18.75 13.6352 18.72 13.1802" stroke="#472B1F" stroke-width="0.0875"/>
<path d="M18.53 13.215C18.665 13.575 18.84 13.505 19.05 13.175L18.53 13.215Z" fill="#BCA76B"/>
<path d="M18.53 13.215C18.665 13.575 18.84 13.505 19.05 13.175" stroke="#472B1F" stroke-width="0.0875"/>
<path d="M19.175 13.05L17.6 13.14V13.25L19.19 13.165L19.175 13.05Z" fill="#BCA76B" stroke="#472B1F" stroke-width="0.0625"/>
<path d="M18.65 11.345L18.065 11.36V11.51L18.655 11.505L18.65 11.345ZM18.65 12.58L18.07 12.595V12.745L18.66 12.74L18.65 12.58Z" fill="#BCA76B" stroke="#472B1F" stroke-width="0.0375"/>
<path d="M17.185 13.2549L17.62 14.2949M15 13.5849C14.95 13.9099 14.875 14.3249 14.79 14.6399" stroke="black" stroke-width="0.0875"/>
<path d="M19.845 14.2149C19.4092 14.1264 18.9624 14.1045 18.52 14.1499C18.23 14.1699 17.935 14.1799 17.665 14.2649C17.6217 14.2783 17.5867 14.2949 17.56 14.3149C17.48 14.3899 17.475 14.5149 17.41 14.5999C17.345 14.6849 17.11 14.8249 17.015 14.8849C16.39 14.8949 15.69 14.8849 14.9 14.7699L14.8 14.6449L14.75 14.5999L14.87 14.6499H15.15L15.835 14.6299C15.835 14.6299 16.41 14.6299 16.695 14.6149L17.185 14.5749C17.225 14.5783 17.2583 14.5716 17.285 14.5549C17.335 14.5249 17.35 14.4649 17.385 14.4099C17.415 14.3699 17.435 14.3099 17.485 14.2799C17.605 14.1949 17.765 14.1999 17.895 14.1749C18.06 14.1399 18.205 14.1349 18.37 14.1099L18.93 14.0599C19.05 14.0533 19.1717 14.0533 19.295 14.0599C19.475 14.0699 19.68 14.0599 19.84 14.1499C19.87 14.1599 19.925 14.1949 19.905 14.2249C19.89 14.2449 19.865 14.2149 19.84 14.2149H19.845Z" fill="black" stroke="black" stroke-width="0.05"/>
<path d="M16.975 10.0149C17.07 10.0899 17.24 10.1499 17.41 10.1749M16.78 12.6499C16.58 12.7899 16.3733 12.8932 16.16 12.9599M17.335 14.4999L16.99 13.5999M17.06 13.3049L17.46 14.3349M17.01 13.5699L17.275 13.4799" stroke="black" stroke-width="0.0625"/>
<path d="M16.83 9.87988L16.75 14.6699L17.035 14.6549L16.985 9.88488L16.83 9.87988Z" fill="#BCA76B" stroke="#472B1F" stroke-width="0.05"/>
<path d="M17.175 10.6201C17.2817 10.8335 17.4633 11.0001 17.72 11.1201" stroke="black" stroke-width="0.0875"/>
<path d="M16.24 10.33C16.33 10.74 16.755 10.68 16.74 10.3L16.24 10.33Z" fill="#BCA76B"/>
<path d="M16.24 10.33C16.33 10.74 16.755 10.68 16.74 10.3" stroke="#472B1F" stroke-width="0.0625"/>
<path d="M16.63 10.315C16.745 10.795 17.29 10.72 17.27 10.29L16.63 10.315Z" fill="#BCA76B"/>
<path d="M16.63 10.315C16.745 10.795 17.29 10.72 17.27 10.29" stroke="#472B1F" stroke-width="0.0875"/>
<path d="M17.085 10.315C17.205 10.665 17.415 10.695 17.595 10.28L17.085 10.315ZM17.72 10.155L16.175 10.225V10.335L17.73 10.27L17.72 10.155ZM16.24 11.295C16.33 11.705 16.755 11.645 16.74 11.265L16.24 11.295Z" fill="#BCA76B"/>
<path d="M17.085 10.315C17.205 10.665 17.415 10.695 17.595 10.28M16.24 11.295C16.33 11.705 16.755 11.645 16.74 11.265M17.72 10.155L16.175 10.225V10.335L17.73 10.27L17.72 10.155Z" stroke="#472B1F" stroke-width="0.0625"/>
<path d="M16.63 11.2801C16.745 11.7601 17.29 11.6851 17.27 11.2551L16.63 11.2801Z" fill="#BCA76B"/>
<path d="M16.63 11.2801C16.745 11.7601 17.29 11.6851 17.27 11.2551" stroke="#472B1F" stroke-width="0.0875"/>
<path d="M17.085 11.2801C17.205 11.6301 17.56 11.5701 17.595 11.2451L17.085 11.2801ZM17.72 11.1201L16.175 11.1901V11.3001L17.73 11.2351L17.72 11.1201Z" fill="#BCA76B"/>
<path d="M17.085 11.2801C17.205 11.6301 17.56 11.5701 17.595 11.2451M17.72 11.1201L16.175 11.1901V11.3001L17.73 11.2351L17.72 11.1201Z" stroke="#472B1F" stroke-width="0.0625"/>
<path d="M16.7 11.825C16.565 11.92 16.44 12.025 16.255 12.085" stroke="black" stroke-width="0.0875"/>
<path d="M16.195 12.2C16.285 12.61 16.705 12.55 16.695 12.175L16.195 12.2Z" fill="#BCA76B"/>
<path d="M16.195 12.2C16.285 12.61 16.705 12.55 16.695 12.175" stroke="#472B1F" stroke-width="0.0625"/>
<path d="M16.58 12.1799C16.7 12.6649 17.245 12.5949 17.23 12.1599L16.58 12.1799Z" fill="#BCA76B"/>
<path d="M16.58 12.1799C16.7 12.6649 17.245 12.5949 17.23 12.1599" stroke="#472B1F" stroke-width="0.0875"/>
<path d="M17.04 12.18C17.16 12.53 17.475 12.42 17.545 12.155L17.04 12.18ZM17.67 12.03L16.13 12.095V12.205L17.685 12.14L17.67 12.03Z" fill="#BCA76B"/>
<path d="M17.04 12.18C17.16 12.53 17.475 12.42 17.545 12.155M17.67 12.03L16.13 12.095V12.205L17.685 12.14L17.67 12.03Z" stroke="#472B1F" stroke-width="0.0625"/>
<path d="M16.395 13.2899C16.355 13.7649 16.165 14.1899 16.04 14.6399M16.565 13.2949C16.525 13.7549 16.38 14.1849 16.265 14.6199M16.71 13.2549C16.6692 13.7136 16.5923 14.1683 16.48 14.6149" stroke="black" stroke-width="0.0625"/>
<path d="M16.215 13.065C16.305 13.48 16.725 13.42 16.715 13.04L16.215 13.065Z" fill="#BCA76B"/>
<path d="M16.215 13.065C16.305 13.48 16.725 13.42 16.715 13.04" stroke="#472B1F" stroke-width="0.0625"/>
<path d="M16.6 13.0501C16.72 13.5301 17.265 13.4601 17.245 13.0251L16.6 13.0501Z" fill="#BCA76B"/>
<path d="M16.6 13.0501C16.72 13.5301 17.265 13.4601 17.245 13.0251" stroke="#472B1F" stroke-width="0.0875"/>
<path d="M17.06 13.05C17.18 13.4 17.49 13.335 17.565 13.02L17.06 13.05ZM17.69 12.895L16.15 12.96V13.07L17.7 13.005L17.69 12.895Z" fill="#BCA76B"/>
<path d="M17.06 13.05C17.18 13.4 17.49 13.335 17.565 13.02M17.69 12.895L16.15 12.96V13.07L17.7 13.005L17.69 12.895Z" stroke="#472B1F" stroke-width="0.0625"/>
<path d="M17.2 10.8L16.65 10.825V10.975H17.2V10.8ZM17.18 11.74L16.685 11.75V11.89H17.18V11.74ZM17.205 12.645L16.68 12.665V12.81H17.21L17.205 12.645Z" fill="#BCA76B" stroke="#472B1F" stroke-width="0.0375"/>
<path d="M16.385 13.465L16.67 13.52M16.32 13.73L16.65 13.74M16.265 13.925L16.61 14.025M16.175 14.225L16.575 14.21M16.1 14.475L16.525 14.465M16.005 13.28C15.955 13.765 16.27 14.225 16.425 14.63M17.3 14.38L17.57 14.295M17.235 14.23L17.54 14.1M17.14 14L17.455 13.905M17.065 13.78L17.375 13.7" stroke="black" stroke-width="0.0625"/>
<path d="M15.4 15.4849C15.36 15.4816 15.3234 15.4749 15.29 15.4649L15.19 15.4299C15.1534 15.4099 15.12 15.3883 15.09 15.3649L15.005 15.2949L14.905 15.1999L14.815 15.0999C14.7817 15.0699 14.7517 15.0383 14.725 15.0049C14.7 14.9799 14.695 14.9299 14.675 14.9049C14.635 14.8949 14.58 14.8899 14.575 14.8349C14.565 14.8049 14.56 14.7699 14.525 14.7749C14.505 14.7749 14.5 14.7999 14.51 14.7849C14.49 14.7749 14.495 14.8199 14.495 14.7949L14.47 14.8449C14.45 14.8883 14.46 14.9149 14.5 14.9249C14.54 14.9299 14.55 14.9749 14.585 14.9949C14.6117 15.0283 14.6434 15.0583 14.68 15.0849L14.755 15.1849C14.775 15.2116 14.8 15.2366 14.83 15.2599L14.895 15.3449L14.985 15.4199L15.075 15.4699C15.105 15.4866 15.1384 15.5016 15.175 15.5149C15.2117 15.5283 15.2534 15.5349 15.3 15.5349C15.34 15.5383 15.3784 15.5299 15.415 15.5099C15.45 15.4849 15.415 15.4899 15.395 15.4849H15.4ZM17.64 14.3949C17.5859 14.5369 17.5081 14.6688 17.41 14.7849C17.74 14.8499 18.005 14.7599 18.3 14.7099C18.2734 14.5766 18.2667 14.4383 18.28 14.2949C18.045 14.3199 17.88 14.3749 17.64 14.3949Z" fill="black"/>
<path d="M17.67 14.43C17.63 14.535 17.595 14.645 17.515 14.735C17.785 14.795 18.005 14.71 18.25 14.665C18.2 14.565 18.215 14.465 18.23 14.355C18.0467 14.3783 17.86 14.4033 17.67 14.43Z" fill="#333333"/>
<path d="M14.825 14.91L15.78 14.98C16.55 15.005 17.43 14.97 18.19 14.88C18.22 14.88 18.275 14.87 18.285 14.9C18.295 14.93 18.245 14.98 18.21 14.985C17.335 15.1 16.45 15.055 15.57 15.05L15.05 14.995L14.825 14.91Z" fill="black"/>
<path d="M15.175 12.7651C14.925 12.9551 14.685 13.1451 14.405 13.2551M15.21 11.8601C14.985 12.0251 14.76 12.2251 14.525 12.3201" stroke="black" stroke-width="0.0875"/>
<path d="M15.13 10.2149L15.125 14.6899L15.37 14.6699L15.225 10.1899L15.13 10.2149Z" fill="#BCA76B" stroke="#472B1F" stroke-width="0.05"/>
<path d="M15.225 10.1899C15.425 10.4099 15.585 10.5299 15.75 10.6699" stroke="black" stroke-width="0.0875"/>
<path d="M15.29 10.0599C15.24 10.0349 15.105 10.0299 15.055 10.0949C15.025 10.1249 15.05 10.2399 15.085 10.2399C15.155 10.2399 15.245 10.2449 15.275 10.2149C15.305 10.1849 15.325 10.0799 15.29 10.0649V10.0599Z" fill="#BCA76B" stroke="#472B1F" stroke-width="0.0625"/>
<path d="M15.15 15.2649C15.16 15.2316 15.1834 15.2149 15.22 15.2149C15.2667 15.2083 15.305 15.2099 15.335 15.2199L15.405 15.2549L15.47 15.3049C15.55 15.3299 15.51 15.2399 15.555 15.2349C15.6 15.2299 15.635 15.2199 15.665 15.2349C15.6917 15.2449 15.7117 15.2616 15.725 15.2849L15.77 15.3249C15.775 15.3499 15.865 15.3899 15.87 15.3349C15.885 15.2999 15.875 15.2349 15.935 15.2399C16.0017 15.2433 16.0634 15.2499 16.12 15.2599C16.15 15.2699 16.1784 15.2866 16.205 15.3099C16.23 15.3199 16.225 15.3499 16.245 15.3449C16.31 15.3949 16.295 15.3099 16.315 15.2799C16.33 15.2549 16.375 15.2649 16.395 15.2449C16.435 15.2316 16.4784 15.2249 16.525 15.2249L16.615 15.2749C16.635 15.2883 16.6517 15.3099 16.665 15.3399C16.67 15.3699 16.7 15.3949 16.725 15.3699C16.74 15.3399 16.765 15.3399 16.79 15.3199C16.8167 15.3166 16.8367 15.3033 16.85 15.2799C16.865 15.2799 16.88 15.2449 16.9 15.2299C16.93 15.2166 16.97 15.2099 17.02 15.2099C17.07 15.2199 17.1084 15.2333 17.135 15.2499C17.1484 15.2699 17.165 15.2866 17.185 15.2999C17.2 15.3249 17.235 15.2999 17.255 15.2899L17.325 15.2499C17.345 15.2299 17.3767 15.2183 17.42 15.2149C17.47 15.2099 17.495 15.2349 17.53 15.2399C17.5734 15.2499 17.6067 15.2633 17.63 15.2799C17.6634 15.3066 17.6934 15.3099 17.72 15.2899C17.755 15.2899 17.73 15.2249 17.74 15.2099C17.78 15.1799 17.875 15.1799 17.925 15.1999L18.045 15.2099C18.065 15.2199 18.0784 15.2399 18.085 15.2699C18.1 15.2949 18.175 15.2949 18.2 15.2749C18.22 15.2749 18.195 15.2399 18.185 15.2299L18.145 15.1799C18.18 15.1599 18.195 15.1949 18.23 15.1999C18.2467 15.2099 18.2667 15.2233 18.29 15.2399C18.3134 15.2566 18.3467 15.2633 18.39 15.2599C18.43 15.2749 18.415 15.3349 18.365 15.3199C18.33 15.3349 18.27 15.3199 18.23 15.3249H18.02C17.98 15.3283 17.9367 15.3333 17.89 15.3399C17.85 15.3433 17.81 15.3449 17.77 15.3449C17.72 15.3516 17.67 15.3533 17.62 15.3499C17.58 15.3566 17.5384 15.3616 17.495 15.3649C17.4584 15.3683 17.4184 15.3699 17.375 15.3699C17.315 15.3849 17.24 15.3699 17.175 15.3749C17.1317 15.3816 17.0934 15.3849 17.06 15.3849L16.935 15.3949C16.8884 15.3983 16.845 15.3999 16.805 15.3999C16.73 15.4149 16.655 15.3999 16.58 15.4049C16.54 15.4049 16.4984 15.4016 16.455 15.3949H16.35C16.32 15.3799 16.265 15.3949 16.235 15.3799H15.74C15.715 15.3649 15.665 15.3799 15.625 15.3699H15.44C15.39 15.3599 15.34 15.3699 15.295 15.3499C15.23 15.3399 15.145 15.3199 15.155 15.2649H15.15Z" fill="black" stroke="black" stroke-width="0.1125"/>
<path d="M14.605 10.77C14.685 11.055 15.055 11.01 15.04 10.75L14.605 10.77Z" fill="#BCA76B"/>
<path d="M14.605 10.77C14.685 11.055 15.055 11.01 15.04 10.75" stroke="#472B1F" stroke-width="0.05"/>
<path d="M14.94 10.75C15.045 11.09 15.525 11.045 15.505 10.74L14.94 10.75Z" fill="#BCA76B"/>
<path d="M14.94 10.75C15.045 11.09 15.525 11.045 15.505 10.74" stroke="#472B1F" stroke-width="0.0625"/>
<path d="M15.35 10.7499C15.45 10.9999 15.635 11.0249 15.79 10.7349L15.35 10.7499ZM15.895 10.6499L14.545 10.6999V10.7699L15.905 10.7299L15.895 10.6499Z" fill="#BCA76B"/>
<path d="M15.35 10.7499C15.45 10.9999 15.635 11.0249 15.79 10.7349M15.895 10.6499L14.545 10.6999V10.7699L15.905 10.7299L15.895 10.6499Z" stroke="#472B1F" stroke-width="0.05"/>
<path d="M14.975 11.3C14.855 11.4 14.635 11.535 14.535 11.525" stroke="black" stroke-width="0.0875"/>
<path d="M14.735 10.925C14.4474 12.0132 14.1053 13.0862 13.71 14.14" stroke="black" stroke-width="0.0875"/>
<path d="M14.595 11.6001C14.67 11.9151 15.05 11.8651 15.04 11.5801L14.595 11.6001Z" fill="#BCA76B"/>
<path d="M14.595 11.6001C14.67 11.9151 15.05 11.8651 15.04 11.5801" stroke="#472B1F" stroke-width="0.05"/>
<path d="M14.91 11.595C15.01 12.015 15.51 11.945 15.49 11.575L14.91 11.595Z" fill="#BCA76B"/>
<path d="M14.91 11.595C15.01 12.015 15.51 11.945 15.49 11.575" stroke="#472B1F" stroke-width="0.0875"/>
<path d="M15.35 11.5901C15.465 11.8501 15.685 11.8751 15.85 11.5751L15.35 11.5901ZM15.91 11.4451L14.535 11.5101V11.6101L15.925 11.5601L15.91 11.4451ZM14.515 12.4001C14.605 12.7851 15.015 12.7251 15 12.3751L14.515 12.4001Z" fill="#BCA76B"/>
<path d="M15.35 11.5901C15.465 11.8501 15.685 11.8751 15.85 11.5751M14.515 12.4001C14.605 12.7851 15.015 12.7251 15 12.3751M15.91 11.4451L14.535 11.5101V11.6101L15.925 11.5601L15.91 11.4451Z" stroke="#472B1F" stroke-width="0.0625"/>
<path d="M14.895 12.4C15.015 12.95 15.585 12.875 15.565 12.365L14.895 12.4Z" fill="#BCA76B"/>
<path d="M14.895 12.4C15.015 12.95 15.585 12.875 15.565 12.365" stroke="#472B1F" stroke-width="0.1"/>
<path d="M15.34 12.3901C15.46 12.7101 15.67 12.7401 15.835 12.3651L15.34 12.3901ZM15.95 12.2451L14.375 12.3101L14.385 12.4001L15.965 12.3551L15.95 12.2451ZM14.49 13.3301C14.58 13.7401 15.025 13.6801 15.015 13.3101L14.49 13.3301Z" fill="#BCA76B"/>
<path d="M15.34 12.3901C15.46 12.7101 15.67 12.7401 15.835 12.3651M14.49 13.3301C14.58 13.7401 15.025 13.6801 15.015 13.3101M15.95 12.2451L14.375 12.3101L14.385 12.4001L15.965 12.3551L15.95 12.2451Z" stroke="#472B1F" stroke-width="0.0625"/>
<path d="M15.655 13.545C15.7516 13.935 15.86 14.2967 15.98 14.63M15.535 13.53C15.585 13.91 15.69 14.275 15.8 14.63" stroke="black" stroke-width="0.0875"/>
<path d="M14.895 13.315C15.005 13.865 15.585 13.82 15.575 13.29L14.895 13.315Z" fill="#BCA76B"/>
<path d="M14.895 13.315C15.005 13.865 15.585 13.82 15.575 13.29" stroke="#472B1F" stroke-width="0.0875"/>
<path d="M15.38 13.315C15.51 13.665 15.73 13.695 15.91 13.29L15.38 13.315ZM16.035 13.145L14.29 13.21V13.34L16.065 13.275L16.035 13.145Z" fill="#BCA76B"/>
<path d="M15.38 13.315C15.51 13.665 15.73 13.695 15.91 13.29M16.035 13.145L14.29 13.21V13.34L16.065 13.275L16.035 13.145Z" stroke="#472B1F" stroke-width="0.0875"/>
<path d="M15.47 11.175L14.97 11.19V11.3H15.48L15.47 11.175ZM15.47 11.99L14.97 12V12.115H15.48L15.47 11.99ZM15.505 12.875L14.965 12.89V13H15.515L15.505 12.875Z" fill="#BCA76B" stroke="#472B1F" stroke-width="0.0375"/>
<path d="M15.705 13.6599L15.42 13.7199M15.75 13.8749L15.465 13.9349M15.815 14.1149L15.525 14.0999M15.9 14.3399L15.6 14.3899M14.56 14.2949L14.86 14.3549M14.645 14.0499L14.915 14.1099M14.715 13.8599L14.965 13.9249M14.765 13.6899L14.99 13.7349" stroke="black" stroke-width="0.0625"/>
<path d="M18.345 14.6948C18.845 14.6698 19.445 14.6098 19.855 14.7698M18.38 14.8598C18.84 14.7898 19.38 14.7548 19.78 14.9048M18.43 15.1948C18.7915 15.1129 19.1663 15.1078 19.53 15.1798M18.465 15.2748C18.8067 15.3541 19.1617 15.3576 19.505 15.2848" stroke="black" stroke-width="0.125"/>
<path d="M13.575 14.105L14.66 14.755L14.685 14.73L14.345 14.495C14.095 14.345 13.855 14.195 13.575 14.105Z" fill="black"/>
<path d="M18.785 14.64L18.775 14.28M18.895 14.28V14.655M19.095 14.655V14.27M19.325 14.305V14.675M19.46 14.3V14.68M19.64 14.34V14.69M19.73 14.335V14.73M18.83 14.8V15.14M18.715 14.815V15.14M19.015 14.805L19 15.13M19.125 14.8L19.12 15.125M19.29 14.8L19.27 15.11M19.445 14.84L19.385 15.13" stroke="black" stroke-width="0.0625"/>
<path d="M18.35 14.3001C18.85 14.2401 19.345 14.3151 19.84 14.3651" stroke="black" stroke-width="0.125"/>
<path d="M21.055 9.85011C21.06 8.57011 20.99 7.33011 21.02 6.24511C19.37 5.51011 17.19 5.36011 16.085 5.36011C14.98 5.36011 12.795 5.51011 11.145 6.24511C11.175 7.33011 11.105 8.57011 11.11 9.84511L21.055 9.85011Z" stroke="black" stroke-width="0.25"/>
<path d="M15.785 7.77002C15.785 7.77002 15.965 8.04002 16.015 8.18002C16.0383 8.25669 16.0466 8.33002 16.04 8.40002C16.03 8.53502 15.98 8.66502 15.94 8.79002C15.91 8.88002 15.84 8.95002 15.88 9.03502C15.895 9.07502 15.915 9.11502 15.96 9.11002C15.985 9.10502 16 9.07002 16.02 9.05002L16.07 9.02002C16.095 9.01002 16.13 9.02502 16.15 9.00502C16.17 8.98502 16.175 8.96169 16.165 8.93502C16.15 8.92002 16.125 8.93502 16.1 8.93502C16.075 8.93502 16.04 8.96002 16.015 8.94502C15.99 8.93002 15.975 8.86002 15.975 8.86002L16.055 8.64002C16.08 8.58002 16.12 8.52502 16.13 8.46002V8.40002C16.13 8.36502 16.12 8.33002 16.145 8.30002C16.155 8.29002 16.195 8.31002 16.205 8.29002C16.235 8.21502 16.1 8.16502 16.065 8.09002C16.065 8.06335 16.0616 8.03502 16.055 8.00502C16.03 7.94002 15.955 7.83002 15.955 7.83002L15.785 7.77002Z" fill="#69737C" stroke="black" stroke-width="0.0875"/>
<path d="M16.345 7.97994C16.345 7.97994 16.5 8.17994 16.52 8.29494C16.5134 8.31827 16.5067 8.34494 16.5 8.37494C16.5 8.41494 16.525 8.45494 16.525 8.49994C16.515 8.63494 16.445 8.75994 16.41 8.88994L16.34 9.22494L16.44 9.21494L16.46 9.04494L16.535 8.75494L16.585 8.55494C16.6084 8.51494 16.63 8.47327 16.65 8.42994C16.66 8.36994 16.68 8.30494 16.65 8.24994C16.6367 8.23327 16.62 8.22161 16.6 8.21494C16.5673 8.17749 16.5403 8.13536 16.52 8.08994C16.495 8.03994 16.47 7.93994 16.47 7.93994C16.445 7.95494 16.345 7.97994 16.345 7.97994Z" fill="#66452B" stroke="black" stroke-width="0.0875"/>
<path d="M15.595 7.61512L15.71 7.71012L15.9 7.82512L15.995 7.83512L16.095 7.87012L16.225 7.86512L16.32 7.96512L16.34 7.98012L16.45 7.96512L16.49 7.92012L16.69 7.62012L16.64 7.12012L15.69 7.17512L15.595 7.61512Z" fill="white"/>
<path d="M16.62 6.77C16.7521 6.87179 16.8713 6.98933 16.975 7.12C17.05 7.21 17.095 7.335 17.215 7.39C17.375 7.56 18.06 7.76 18.065 7.81501C17.905 7.75001 17.835 7.96501 17.68 7.93001C17.54 7.97001 17.42 7.88001 17.3 7.83001C17.11 7.82001 16.92 7.83 16.755 7.925C16.665 7.975 16.56 7.9 16.49 7.925L16.48 7.935L16.47 7.945M15.595 7.62C15.485 7.565 15.405 7.46 15.3 7.4C15.225 7.29 15.12 7.175 15.125 7.03C15.115 6.88001 15.075 6.67 15.145 6.53C15.095 6.415 15.025 6.38 14.965 6.275C14.925 6.12 14.77 6.03 14.865 5.915C14.965 5.82 15.04 5.715 15.175 5.665C15.2851 5.64224 15.3995 5.6509 15.505 5.69C15.64 5.705 15.715 5.82 15.79 5.925C15.8784 6.06284 15.9363 6.21796 15.96 6.38C16.025 6.51 16.195 6.54 16.32 6.595C16.42 6.645 16.53 6.69 16.62 6.77" fill="white"/>
<path d="M17.37 7.65997C17.32 7.65497 17.19 7.70997 17.22 7.62497C17.09 7.61497 16.95 7.64497 16.82 7.59997C16.6865 7.53878 16.5476 7.49023 16.405 7.45497C16.27 7.45497 16.105 7.47997 16 7.36997C15.89 7.30497 15.73 7.34997 15.63 7.25497C15.5795 7.21365 15.5386 7.16184 15.5101 7.10313C15.4816 7.04442 15.4662 6.98022 15.465 6.91497C15.45 6.78497 15.4 6.60997 15.545 6.52997C15.645 6.49997 15.735 6.52997 15.795 6.42997C15.9132 6.41758 16.032 6.44772 16.13 6.51497C16.255 6.57497 16.395 6.61497 16.515 6.68497C16.63 6.75997 16.725 6.85997 16.835 6.94497C16.92 7.04497 17.02 7.12997 17.075 7.24997C17.14 7.37997 17.275 7.44997 17.39 7.51997C17.455 7.53997 17.62 7.61997 17.465 7.63497C17.4383 7.64497 17.405 7.6533 17.365 7.65997H17.37Z" fill="black"/>
<path d="M16.025 7.23001C15.9537 7.22657 15.8847 7.20412 15.825 7.16501C15.79 7.14001 15.675 7.07501 15.75 7.02501C15.805 7.02001 15.875 7.05001 15.925 7.00501C16.005 6.99001 16.085 6.99001 16.16 6.95501C16.23 6.91501 16.31 6.94001 16.38 6.91501C16.43 6.89001 16.42 6.78501 16.5 6.80501C16.575 6.78501 16.55 6.92501 16.49 6.88001C16.445 6.93501 16.56 6.95501 16.59 6.99001C16.65 7.06001 16.515 7.07501 16.505 7.12501C16.42 7.15001 16.355 7.04501 16.275 7.07501C16.26 7.10001 16.275 7.16001 16.22 7.14501C16.145 7.10001 16.085 7.15001 16.02 7.16001C16.04 7.17501 15.99 7.23501 16.02 7.23001H16.025ZM17.48 7.73001C17.44 7.71001 17.39 7.73001 17.345 7.73001C17.315 7.73001 17.2867 7.72667 17.26 7.72001C17.215 7.72001 17.135 7.67001 17.12 7.73501C17.12 7.76001 17.195 7.77501 17.135 7.78501C17.0817 7.78501 17.0267 7.77167 16.97 7.74501C16.945 7.72501 16.9 7.69501 16.915 7.74501C16.93 7.79501 16.885 7.81001 16.845 7.81001C16.7903 7.80857 16.7376 7.78925 16.695 7.75501C16.665 7.78501 16.735 7.83501 16.775 7.84001C16.815 7.87001 16.715 7.86001 16.69 7.85501C16.6567 7.84501 16.6233 7.84834 16.59 7.86501C16.54 7.87501 16.54 7.92001 16.595 7.91501C16.645 7.93001 16.705 7.95001 16.76 7.92501C16.8142 7.88892 16.8756 7.86504 16.94 7.85501L17.09 7.83001H17.295C17.3517 7.84334 17.4017 7.83501 17.445 7.80501C17.48 7.79501 17.565 7.76001 17.505 7.73501C17.4983 7.73167 17.49 7.73167 17.48 7.73501V7.73001Z" fill="#69737C"/>
<path d="M17.3 7.8249C17.3267 7.8249 17.35 7.82157 17.37 7.8149L17.455 7.7849C17.49 7.7849 17.505 7.7349 17.47 7.7299L17.405 7.6949L17.335 7.6549L17.385 7.5949L17.46 7.5799H17.52L17.605 7.6149L17.69 7.6549L17.765 7.6749C17.7917 7.68824 17.82 7.69824 17.85 7.7049C17.88 7.7149 17.89 7.7449 17.925 7.7399C17.9583 7.74657 17.9883 7.75824 18.015 7.7749C18.0417 7.7849 18.0583 7.7999 18.065 7.8199C18.04 7.8199 18.015 7.7949 17.99 7.8049C17.965 7.8049 17.95 7.8299 17.925 7.8249C17.915 7.8549 17.875 7.8499 17.855 7.8799L17.76 7.9349C17.7474 7.94041 17.7338 7.94325 17.72 7.94325C17.7062 7.94325 17.6926 7.94041 17.68 7.9349C17.6467 7.93157 17.6167 7.92824 17.59 7.9249C17.5567 7.93157 17.525 7.9299 17.495 7.9199C17.465 7.9099 17.4417 7.8949 17.425 7.8749L17.32 7.8399L17.29 7.8249H17.3ZM15.25 5.6499C15.2267 5.6499 15.2 5.65324 15.17 5.6599C15.1233 5.6699 15.0833 5.69324 15.05 5.7299C15.0123 5.77564 14.9686 5.81601 14.92 5.8499C14.8954 5.86682 14.8749 5.88903 14.86 5.9149C14.8967 5.93824 14.9283 5.9349 14.955 5.9049C14.9883 5.86824 15.0267 5.8399 15.07 5.8199C15.11 5.8099 15.15 5.8299 15.19 5.8299C15.22 5.85034 15.2541 5.86399 15.29 5.8699L15.37 5.8849C15.4067 5.89824 15.4433 5.90824 15.48 5.9149C15.5267 5.92157 15.57 5.92157 15.61 5.9149H15.64L15.63 5.9449C15.63 5.97157 15.6383 5.99657 15.655 6.0199L15.695 6.0849L15.73 6.1649L15.76 6.2299C15.7633 6.25657 15.775 6.27824 15.795 6.2949L15.845 6.3649L15.885 6.4299C15.9 6.4449 15.92 6.4699 15.945 6.4649C15.9717 6.4649 15.9983 6.46157 16.025 6.4549H16.015C15.9917 6.43824 15.975 6.41657 15.965 6.3899L15.955 6.3149C15.955 6.28824 15.9483 6.26324 15.935 6.2399L15.915 6.1799C15.9017 6.15324 15.8933 6.13157 15.89 6.1149L15.855 6.0399L15.82 5.9699L15.78 5.9049L15.75 5.8799C15.75 5.8699 15.745 5.85824 15.735 5.8449C15.7117 5.82157 15.6933 5.79657 15.68 5.7699C15.6433 5.73657 15.6017 5.7149 15.555 5.7049L15.405 5.6599L15.28 5.6499H15.255H15.25Z" fill="black"/>
<path d="M15.73 6.3249C15.73 6.2899 15.68 6.2999 15.665 6.3249C15.645 6.35157 15.6233 6.37657 15.6 6.3999C15.55 6.4349 15.5 6.4399 15.45 6.4699C15.4333 6.4999 15.4083 6.5249 15.375 6.5449C15.335 6.56157 15.305 6.58657 15.285 6.6199C15.28 6.6449 15.26 6.6849 15.285 6.7049C15.32 6.7199 15.285 6.7549 15.29 6.7749C15.305 6.7999 15.35 6.8099 15.375 6.7949C15.4083 6.77157 15.4383 6.74657 15.465 6.7199C15.4983 6.67657 15.5367 6.64323 15.58 6.6199C15.6095 6.61132 15.6357 6.59386 15.655 6.5699C15.68 6.5499 15.655 6.5199 15.695 6.5099C15.725 6.49323 15.7467 6.47157 15.76 6.4449C15.78 6.4149 15.745 6.3899 15.75 6.3599C15.75 6.3499 15.745 6.33823 15.735 6.3249H15.73Z" fill="#69737C"/>
<path d="M16.26 9.25011H16.075C16.045 9.24011 16.025 9.19011 15.98 9.21011C15.9467 9.22011 15.915 9.23678 15.885 9.26011C15.8541 9.27599 15.8269 9.29812 15.805 9.32511C15.8 9.34511 15.745 9.36511 15.795 9.36511C15.835 9.37011 15.86 9.32511 15.895 9.32011C15.93 9.30511 15.97 9.32011 15.995 9.31511H16.085L16.185 9.32511C16.23 9.32511 16.165 9.35511 16.15 9.36511C16.1167 9.37845 16.0783 9.38678 16.035 9.39011C15.9917 9.39345 15.9533 9.39845 15.92 9.40511C15.8867 9.42178 15.8533 9.44178 15.82 9.46511C15.8 9.47511 15.75 9.50011 15.8 9.50011C15.8333 9.50011 15.865 9.49511 15.895 9.48511L16.065 9.44011C16.105 9.43011 16.1433 9.42011 16.18 9.41011C16.205 9.41011 16.265 9.39511 16.245 9.44011C16.2217 9.46984 16.1905 9.49237 16.155 9.50511C16.1283 9.52511 16.0967 9.53844 16.06 9.54511C16.035 9.53511 15.975 9.55511 16.02 9.58511C16.04 9.62011 16.085 9.59511 16.11 9.58511L16.21 9.54011L16.32 9.49011C16.3533 9.48011 16.3867 9.46678 16.42 9.45011C16.4533 9.43345 16.4817 9.40845 16.505 9.37511C16.5183 9.34511 16.54 9.32511 16.57 9.31511C16.605 9.30511 16.64 9.31511 16.67 9.30511C16.71 9.30511 16.7 9.23511 16.665 9.23011L16.575 9.17011C16.5417 9.15344 16.5033 9.14678 16.46 9.15011C16.4436 9.15122 16.4277 9.15636 16.4137 9.16509C16.3998 9.17381 16.3882 9.18584 16.38 9.20011C16.36 9.22511 16.355 9.27011 16.315 9.26011C16.295 9.26345 16.2767 9.26011 16.26 9.25011ZM15.36 9.48011C15.36 9.48011 15.39 9.35511 15.435 9.31011C15.535 9.21511 15.795 9.15011 15.795 9.15011C15.68 9.20011 15.545 9.16011 15.435 9.19511C15.345 9.22011 15.19 9.34011 15.19 9.34011C15.19 9.34011 15.25 9.21511 15.29 9.16511C15.425 9.02011 15.63 9.00511 15.79 9.03011L15.97 9.05011C15.97 9.05011 16 9.07011 15.985 9.10011C15.96 9.15511 15.875 9.19011 15.815 9.21511C15.655 9.30011 15.455 9.36511 15.355 9.48011H15.36Z" fill="#66452B" stroke="black" stroke-width="0.0875"/>
<path d="M15.9 9.03001C15.755 9.12501 15.425 9.30001 15.435 9.31001C15.435 9.31001 15.72 9.24501 15.85 9.18001C15.895 9.16001 15.96 9.14501 15.975 9.09501C15.9783 9.06834 15.97 9.04501 15.95 9.02501C15.9424 9.02062 15.9338 9.01831 15.925 9.01831C15.9162 9.01831 15.9076 9.02062 15.9 9.02501V9.03001Z" fill="#69737C" stroke="black" stroke-width="0.0875"/>
<path d="M16.585 8.27002C16.555 8.27002 16.55 8.33502 16.545 8.37002C16.545 8.39502 16.545 8.44002 16.57 8.44002C16.595 8.44002 16.61 8.39002 16.61 8.35502C16.61 8.33002 16.615 8.27502 16.585 8.27002Z" fill="#69737C"/>
<path d="M16.44 9.21497C16.44 9.18997 16.405 9.20497 16.39 9.20997C16.3567 9.21663 16.325 9.23163 16.295 9.25497L16.225 9.29997L16.08 9.37497L16.015 9.39997C16.0017 9.40663 16.0033 9.40997 16.02 9.40997C16.0533 9.41997 16.0867 9.4183 16.12 9.40497L16.23 9.36997C16.2567 9.35663 16.2833 9.34497 16.31 9.33497C16.325 9.32497 16.375 9.31497 16.39 9.30997C16.42 9.28997 16.41 9.26997 16.445 9.26997C16.47 9.26997 16.47 9.23497 16.445 9.22997V9.21497H16.44Z" fill="#69737C" stroke="black" stroke-width="0.0875"/>
<path d="M16.115 9.52005C16.1417 9.52005 16.1667 9.51505 16.19 9.50505L16.285 9.47505L16.325 9.45505C16.3502 9.43671 16.3707 9.41274 16.385 9.38505L16.42 9.32005C16.42 9.30005 16.41 9.29505 16.39 9.30505L16.34 9.34505L16.29 9.38505C16.2767 9.40838 16.26 9.43172 16.24 9.45505L16.21 9.47505L16.13 9.51005L16.115 9.52005Z" fill="#69737C" stroke="black" stroke-width="0.0875"/>
<path d="M16.46 7.64489C16.47 7.66156 16.4767 7.67823 16.48 7.69489L16.49 7.76989C16.49 7.79489 16.465 7.80989 16.46 7.83489V7.88489C16.45 7.90989 16.46 7.93489 16.45 7.96489C16.435 7.98989 16.4 7.96989 16.375 7.97489C16.3483 7.98489 16.33 7.97989 16.32 7.95989L16.26 7.89989C16.2333 7.87656 16.2117 7.85156 16.195 7.82489L16.15 7.75489L16.14 7.72989M16.225 7.86489H16.095C16.08 7.86489 16.045 7.86489 16.035 7.84989C16.0217 7.84989 16.0083 7.84489 15.995 7.83489C15.9817 7.83156 15.97 7.83156 15.96 7.83489M15.96 7.83489C15.9467 7.81156 15.9317 7.79323 15.915 7.77989L15.88 7.75489L15.855 7.72489L15.83 7.68489L15.81 7.64489V7.63489M15.96 7.83489C15.955 7.85989 15.92 7.83489 15.905 7.82489L15.865 7.80989L15.83 7.78989L15.79 7.76489L15.74 7.73989L15.69 7.69989C15.6633 7.68656 15.6433 7.66989 15.63 7.64989C15.6067 7.63989 15.595 7.62323 15.595 7.59989L15.58 7.53989C15.5767 7.53323 15.575 7.52489 15.575 7.51489" stroke="black" stroke-width="0.0875"/>
<path d="M17.37 7.85005L17.43 7.84005L17.49 7.83005C17.5067 7.81339 17.525 7.80505 17.545 7.80505C17.5717 7.80505 17.5933 7.80172 17.61 7.79505C17.6156 7.78729 17.6232 7.78129 17.6321 7.77775C17.6409 7.7742 17.6506 7.77327 17.66 7.77505C17.68 7.77505 17.6983 7.77839 17.715 7.78505L17.77 7.80005L17.82 7.82505C17.84 7.83505 17.81 7.85005 17.805 7.85505C17.785 7.86505 17.765 7.85505 17.75 7.87005C17.73 7.88005 17.7167 7.89339 17.71 7.91005C17.6967 7.92339 17.68 7.93005 17.66 7.93005H17.61C17.5933 7.93672 17.5767 7.93672 17.56 7.93005L17.51 7.92005C17.4933 7.90672 17.4767 7.89839 17.46 7.89505L17.385 7.86005L17.37 7.85005Z" fill="#BCA76B"/>
<path d="M14.98 6.13494C14.935 6.12494 14.89 6.14494 14.85 6.14494H14.59C14.525 6.15994 14.46 6.18994 14.395 6.19494C14.305 6.19827 14.2167 6.19994 14.13 6.19994C14.065 6.20494 14.13 6.12494 14.17 6.12494C14.25 6.09827 14.3317 6.07827 14.415 6.06494C14.4817 6.05494 14.5433 6.04327 14.6 6.02994L14.75 5.98994C14.8067 5.9766 14.86 5.97327 14.91 5.97994C14.9633 5.9666 15.0183 5.94994 15.075 5.92994C15.125 5.90494 15.175 5.91994 15.225 5.88994C15.25 5.84994 15.3 5.85494 15.35 5.85494C15.4033 5.8616 15.445 5.88494 15.475 5.92494C15.51 5.97494 15.405 5.96994 15.435 6.02494C15.4117 6.03827 15.385 6.04494 15.355 6.04494C15.31 6.04494 15.3 6.04494 15.28 6.03494C15.24 6.01494 15.2033 5.99327 15.17 5.96994C15.13 5.95994 15.125 6.03494 15.08 6.02494C15.02 6.04994 14.95 6.03994 14.885 6.04494C14.9283 6.05827 14.9683 6.07827 15.005 6.10494C15.02 6.12494 14.995 6.12494 14.98 6.12994V6.13494Z" fill="black" stroke="black" stroke-width="0.0625"/>
<path d="M15.24 5.95509L15.28 5.94009L15.305 5.90009C15.305 5.90009 15.34 5.95009 15.32 5.97009C15.3 5.99009 15.24 5.95509 15.24 5.95509ZM15.35 5.85509C15.355 5.85509 15.315 5.82509 15.35 5.81509C15.38 5.78009 15.43 5.81009 15.47 5.82009C15.55 5.84009 15.6167 5.88009 15.67 5.94009C15.745 6.02009 15.76 6.13009 15.82 6.22509L15.87 6.36509C15.885 6.40009 15.94 6.44009 15.91 6.48009C15.875 6.50009 15.84 6.47009 15.81 6.46509C15.76 6.46009 15.785 6.51009 15.81 6.51509C15.845 6.53009 15.86 6.58009 15.81 6.57509L15.68 6.56009C15.645 6.54009 15.69 6.51009 15.71 6.49509C15.73 6.48009 15.77 6.46009 15.76 6.42509C15.76 6.36509 15.72 6.31009 15.71 6.25009C15.7 6.20342 15.685 6.15842 15.665 6.11509C15.645 6.01509 15.555 5.95009 15.465 5.92009L15.35 5.86509V5.85509Z" fill="white"/>
<path d="M15.675 5.90495L15.715 5.92495L15.755 5.98495L15.765 6.01995C15.7684 6.03328 15.7767 6.04495 15.79 6.05495L15.805 6.10495L15.825 6.15495L15.84 6.18995C15.85 6.20662 15.8467 6.21662 15.83 6.21995L15.8 6.20495L15.765 6.15495L15.755 6.12495L15.74 6.07495L15.72 6.03995L15.7 5.98995C15.695 5.97495 15.665 5.93495 15.67 5.91495L15.675 5.90495ZM15.38 5.79495L15.36 5.77995L15.33 5.76495C15.31 5.76995 15.325 5.74995 15.315 5.75495L15.305 5.72995L15.29 5.70995C15.29 5.70995 15.28 5.69995 15.29 5.69995L15.32 5.70495L15.345 5.70995H15.4C15.4067 5.71328 15.4117 5.71495 15.415 5.71495C15.425 5.71828 15.4317 5.72495 15.435 5.73495C15.4417 5.74162 15.4467 5.74995 15.45 5.75995V5.77995L15.425 5.78995L15.395 5.79995L15.38 5.79495Z" fill="#BCA76B"/>
<path d="M15.355 5.78009C15.3417 5.78342 15.325 5.78509 15.305 5.78509L15.285 5.80509L15.255 5.81509L15.23 5.80009L15.215 5.78509L15.195 5.77509C15.1883 5.77509 15.185 5.76842 15.185 5.75509V5.73009L15.205 5.72009H15.255C15.2683 5.71675 15.28 5.71509 15.29 5.71509L15.31 5.73009L15.355 5.78009ZM15.435 5.73509L15.47 5.72509L15.505 5.73009C15.5217 5.73009 15.535 5.73509 15.545 5.74509L15.585 5.76509L15.62 5.78009L15.655 5.80009L15.685 5.83009C15.6883 5.84342 15.6833 5.85009 15.67 5.85009L15.635 5.83009C15.625 5.83009 15.6133 5.82675 15.6 5.82009L15.565 5.80509L15.515 5.78509L15.49 5.78009L15.445 5.75509C15.4383 5.75175 15.435 5.74509 15.435 5.73509Z" fill="white"/>
<path d="M15.62 6C15.57 6 15.52 6.02 15.47 6C15.435 6 15.405 6.03 15.37 6.04C15.33 6.035 15.32 6.095 15.285 6.09C15.25 6.09 15.215 6.065 15.185 6.075C15.2517 6.10167 15.315 6.135 15.375 6.175C15.4036 6.20314 15.4376 6.22524 15.475 6.24C15.51 6.255 15.54 6.28 15.525 6.315C15.515 6.355 15.455 6.365 15.455 6.405C15.45 6.445 15.405 6.465 15.39 6.495C15.375 6.525 15.34 6.545 15.34 6.575C15.345 6.615 15.39 6.585 15.39 6.555C15.4 6.53 15.425 6.485 15.46 6.505C15.485 6.54 15.52 6.475 15.55 6.49C15.5733 6.52 15.595 6.52167 15.615 6.495C15.64 6.485 15.675 6.47 15.65 6.445C15.65 6.41 15.69 6.41 15.71 6.395C15.735 6.385 15.76 6.345 15.735 6.325C15.71 6.29 15.735 6.24 15.705 6.21C15.68 6.175 15.705 6.125 15.685 6.09C15.6717 6.05 15.6517 6.02 15.625 6H15.62Z" fill="black"/>
<path d="M16.96 7.35998C16.91 7.35998 16.86 7.40498 16.8 7.40998C16.74 7.41498 16.82 7.44998 16.84 7.45998C16.895 7.49998 16.96 7.50998 17.02 7.53498C17.08 7.56498 17.1417 7.57498 17.205 7.56498C17.26 7.54998 17.22 7.49498 17.205 7.46498C17.17 7.41498 17.105 7.38998 17.065 7.34498C17.025 7.32164 16.9917 7.32664 16.965 7.35998H16.96Z" fill="#69737C"/>
<path d="M16.92 7.48507C16.9033 7.4884 16.8833 7.49007 16.86 7.49007C16.8333 7.49674 16.8083 7.49507 16.785 7.48507L16.715 7.46007C16.6916 7.45007 16.6733 7.43674 16.66 7.42007C16.645 7.40007 16.675 7.40007 16.69 7.40007C16.7133 7.39007 16.74 7.38674 16.77 7.39007L16.855 7.43007C16.8816 7.44007 16.9033 7.4534 16.92 7.47007V7.48507ZM17.2 7.46507C17.205 7.49007 17.165 7.46507 17.15 7.47507C17.1224 7.47754 17.0947 7.47235 17.07 7.46007C17.0233 7.43674 16.9783 7.42007 16.935 7.41007C16.915 7.40507 16.87 7.38507 16.905 7.36007C16.9283 7.33798 16.9581 7.32396 16.99 7.32007C17.02 7.32674 17.05 7.33674 17.08 7.35007C17.11 7.3634 17.1383 7.38007 17.165 7.40007C17.1916 7.42007 17.205 7.44174 17.205 7.46507H17.2Z" fill="white"/>
<path d="M16.43 7.18994C16.3878 7.21511 16.3391 7.22729 16.29 7.22494C16.245 7.23994 16.175 7.19994 16.16 7.25494C16.14 7.30494 16.195 7.32494 16.225 7.34494C16.315 7.39494 16.415 7.39494 16.51 7.39494C16.54 7.39494 16.625 7.38494 16.58 7.35494C16.53 7.31494 16.4884 7.26994 16.455 7.21994L16.43 7.18994ZM16.92 7.21994L16.86 7.20494L16.79 7.16494C16.7567 7.14494 16.7234 7.12827 16.69 7.11494C16.6734 7.10161 16.6734 7.09161 16.69 7.08494C16.71 7.08494 16.72 7.05994 16.74 7.07994C16.76 7.08994 16.7784 7.10661 16.795 7.12994C16.8117 7.15327 16.835 7.16661 16.865 7.16994C16.885 7.18494 16.915 7.19494 16.915 7.21994H16.92ZM16.85 7.30994C16.85 7.30994 16.765 7.33494 16.725 7.31994C16.6917 7.31327 16.6617 7.30327 16.635 7.28994C16.595 7.27327 16.5617 7.25161 16.535 7.22494C16.51 7.19994 16.535 7.15494 16.575 7.16494C16.595 7.15994 16.585 7.11494 16.625 7.13494C16.665 7.15494 16.71 7.17494 16.745 7.20494L16.82 7.26994L16.85 7.30994ZM16.19 6.68994C16.25 6.70494 16.32 6.72994 16.355 6.78994C16.405 6.84494 16.305 6.88494 16.255 6.84494C16.1817 6.80827 16.1067 6.77494 16.03 6.74494C15.95 6.75994 16.06 6.80494 16.08 6.81994C16.1234 6.84994 16.145 6.88327 16.145 6.91994C16.095 6.95994 16.03 6.91994 15.975 6.90994C15.915 6.90494 15.875 6.84994 15.84 6.80994C15.81 6.77661 15.7767 6.76661 15.74 6.77994C15.74 6.82994 15.78 6.84494 15.805 6.88994C15.825 6.91494 15.905 6.97994 15.83 6.98494C15.7696 6.96779 15.7178 6.92852 15.685 6.87494C15.65 6.83994 15.625 6.76494 15.695 6.75494C15.7617 6.72161 15.8317 6.70494 15.905 6.70494C15.98 6.69494 16.06 6.70494 16.14 6.68494C16.15 6.68494 16.2 6.65994 16.19 6.68494V6.68994Z" fill="#69737C"/>
<path d="M15.595 6.73511L15.575 6.78511V6.84511L15.595 6.89511C15.605 6.91511 15.6183 6.92844 15.635 6.93511C15.645 6.94844 15.6583 6.95844 15.675 6.96511L15.71 6.98511L15.76 6.99511C15.7767 6.99511 15.7883 6.99011 15.795 6.98011C15.805 6.97011 15.8017 6.96177 15.785 6.95511C15.7717 6.95511 15.76 6.94677 15.75 6.93011L15.715 6.89511C15.715 6.88177 15.7083 6.86844 15.695 6.85511L15.665 6.82011L15.63 6.78511L15.6 6.74511L15.595 6.73511ZM16.115 6.93511L15.985 6.91011C15.9417 6.89412 15.9036 6.86643 15.875 6.83011C15.8417 6.79677 15.8083 6.76844 15.775 6.74511C15.73 6.73011 15.715 6.79011 15.74 6.81011L15.82 6.91011L15.92 6.98011C15.9679 7.00524 16.0209 7.01893 16.075 7.02011C16.115 7.01677 16.1417 7.00011 16.155 6.97011C16.1483 6.94677 16.135 6.93677 16.115 6.94011V6.93511ZM15.995 7.20511C15.965 7.20511 15.9367 7.20011 15.91 7.19011C15.8883 7.17487 15.8711 7.15417 15.86 7.13011C15.8333 7.10011 15.8083 7.08177 15.785 7.07511C15.76 7.07011 15.725 7.08511 15.735 7.11511C15.7383 7.13844 15.7517 7.16011 15.775 7.18011C15.8083 7.20344 15.8417 7.22177 15.875 7.23511C15.895 7.24511 15.915 7.24844 15.935 7.24511C15.96 7.24511 15.985 7.25511 15.995 7.23011V7.20511ZM16.29 7.12011C16.3167 7.13344 16.325 7.15511 16.315 7.18511C16.295 7.21177 16.2667 7.22511 16.23 7.22511L16.15 7.22011L16.065 7.18011C16.035 7.17011 16.03 7.13511 16.015 7.11511C16 7.09511 16.04 7.08011 16.06 7.08511C16.085 7.09511 16.11 7.12511 16.13 7.13511L16.205 7.16011C16.225 7.16011 16.255 7.17011 16.265 7.15011L16.285 7.12011H16.29ZM16.54 7.05511C16.565 7.07511 16.55 7.12011 16.515 7.13011C16.4883 7.13344 16.465 7.13344 16.445 7.13011L16.345 7.08011C16.3183 7.07011 16.2967 7.05511 16.28 7.03511C16.27 7.00511 16.305 6.98511 16.33 6.99511C16.37 7.00177 16.41 7.01511 16.45 7.03511C16.4733 7.04844 16.5017 7.05677 16.535 7.06011L16.54 7.05511Z" fill="white"/>
<path d="M16.47 7.945L16.48 7.935L16.49 7.925C16.56 7.9 16.665 7.975 16.755 7.925C16.92 7.83 17.11 7.82001 17.3 7.83001C17.42 7.88001 17.54 7.97001 17.68 7.93001C17.835 7.96501 17.905 7.75 18.065 7.815C18.06 7.76 17.375 7.56 17.215 7.39C17.095 7.335 17.05 7.21 16.975 7.12C16.8713 6.98933 16.7521 6.87179 16.62 6.77C16.53 6.69 16.42 6.645 16.32 6.595C16.195 6.54 16.025 6.51 15.96 6.38C15.9363 6.21796 15.8784 6.06284 15.79 5.925C15.715 5.82 15.64 5.705 15.505 5.69C15.3995 5.6509 15.2851 5.64224 15.175 5.665C15.04 5.715 14.965 5.82 14.865 5.915C14.77 6.03 14.925 6.12 14.965 6.275C15.025 6.38 15.095 6.415 15.145 6.53C15.075 6.67 15.115 6.88 15.125 7.03C15.12 7.17501 15.225 7.29 15.3 7.4C15.405 7.46 15.485 7.565 15.595 7.62" stroke="black" stroke-width="0.0875"/>
</g>
</g>
<defs>
<clipPath id="clip0_3053_1890">
<path d="M0 12C0 5.37258 5.37258 0 12 0C18.6274 0 24 5.37258 24 12C24 18.6274 18.6274 24 12 24C5.37258 24 0 18.6274 0 12Z" fill="white"/>
</clipPath>
<clipPath id="clip1_3053_1890">
<rect width="32" height="24" fill="white" transform="translate(-8)"/>
</clipPath>
</defs>
</svg>
