<svg width="24" height="24" viewBox="0 0 24 24" fill="none" xmlns="http://www.w3.org/2000/svg">
<g clip-path="url(#clip0_2214_4222)">
<path d="M6.49757 1.33252C5.42329 1.887 4.41486 2.6138 3.5143 3.51436C2.61369 4.41497 1.8869 5.42339 1.33246 6.49768L9.04841 14.9515L17.5023 22.6675C18.5766 22.113 19.585 21.3862 20.4856 20.4857C21.3862 19.5851 22.1129 18.5767 22.6674 17.5024L14.9515 9.04847L6.49757 1.33252Z" fill="white"/>
<path d="M20.4857 20.4856C20.9891 19.9822 21.4381 19.4451 21.8333 18.8817L5.1184 2.16675C4.55501 2.56195 4.01787 3.01092 3.51448 3.51431C3.01109 4.0177 2.56212 4.55484 2.16687 5.11828L18.8818 21.8332C19.4451 21.4379 19.9823 20.989 20.4857 20.4856Z" fill="black"/>
<path d="M3.51431 20.4856C7.30026 24.2715 12.9861 24.9983 17.5023 22.6674L1.33251 6.49756C-0.998347 11.0138 -0.271457 16.6996 3.51431 20.4856Z" fill="#D80027"/>
<path d="M20.4856 3.51437C16.6997 -0.271537 11.0139 -0.998287 6.49768 1.33248L22.6674 17.5024C24.9984 12.9862 24.2716 7.30027 20.4856 3.51437Z" fill="#D80027"/>
</g>
<defs>
<clipPath id="clip0_2214_4222">
<rect width="24" height="24" fill="white"/>
</clipPath>
</defs>
</svg>
