<svg width="24" height="24" viewBox="0 0 24 24" fill="none" xmlns="http://www.w3.org/2000/svg">
<g clip-path="url(#clip0_2214_2973)">
<g clip-path="url(#clip1_2214_2973)">
<path fill-rule="evenodd" clip-rule="evenodd" d="M-4 0H28V12.18H-4V0Z" fill="#FF0000"/>
<path fill-rule="evenodd" clip-rule="evenodd" d="M-4 11.8201H28V24.0001H-4V11.8201Z" fill="#000001"/>
<path fill-rule="evenodd" clip-rule="evenodd" d="M7.435 7.40988C15.695 9.57488 10.385 20.1899 3.87 15.7699L3.43 16.4499C7.265 19.1799 11.06 16.9799 12.13 14.1299C13.24 11.1899 11.75 7.05488 7.5 6.62988L7.435 7.40988Z" fill="#FFEC00"/>
<path fill-rule="evenodd" clip-rule="evenodd" d="M4.5 16.54L5.585 17.045L5.075 18.135L3.99 17.625L4.5 16.54ZM11.95 11.565H13.15V12.765H11.95V11.565ZM11.365 9.62005L12.48 9.19005L12.915 10.305L11.8 10.74L11.365 9.62005ZM10.065 8.16505L10.92 7.32005L11.765 8.17005L10.915 9.01505L10.065 8.16505ZM8.755 6.17505L9.875 6.59505L9.45 7.71505L8.33 7.29505L8.755 6.17505ZM11.8 13.5L12.915 13.945L12.465 15.055L11.355 14.61L11.8 13.5ZM8.305 17L9.405 16.535L9.88 17.635L8.78 18.105L8.305 17ZM6.33 17.14H7.53V18.34H6.33V17.14ZM8.395 11.34L7.38 10.59L6.365 11.32L6.765 10.17L5.75 9.42005H6.975L7.4 8.29005L7.79 9.42505L9.025 9.41005L8.045 10.175L8.395 11.34Z" fill="#FFEC00"/>
<path fill-rule="evenodd" clip-rule="evenodd" d="M12.8 17.3201C12.74 17.3401 12.49 17.9401 12.315 18.2301L12.5 18.2801C13.18 18.5201 13.52 18.7401 13.81 19.1551C13.8776 19.2195 13.9655 19.2583 14.0587 19.2647C14.1518 19.2711 14.2443 19.2447 14.32 19.1901C14.32 19.1901 14.46 19.1401 14.64 18.9401C14.79 18.7151 14.75 18.5401 14.57 18.3851C14.02 17.9851 13.425 17.6851 12.8 17.3201Z" fill="#FFEE00"/>
<path fill-rule="evenodd" clip-rule="evenodd" d="M14.265 18.6399C14.265 18.6976 14.2421 18.7529 14.2013 18.7937C14.1605 18.8345 14.1052 18.8574 14.0475 18.8574C13.9898 18.8574 13.9345 18.8345 13.8937 18.7937C13.8529 18.7529 13.83 18.6976 13.83 18.6399C13.83 18.5829 13.8526 18.5282 13.893 18.4879C13.9333 18.4476 13.988 18.4249 14.045 18.4249C14.102 18.4249 14.1567 18.4476 14.197 18.4879C14.2373 18.5282 14.26 18.5829 14.26 18.6399H14.265ZM13.195 17.9599C13.195 18.0176 13.1721 18.0729 13.1313 18.1137C13.0905 18.1545 13.0352 18.1774 12.9775 18.1774C12.9198 18.1774 12.8645 18.1545 12.8237 18.1137C12.7829 18.0729 12.76 18.0176 12.76 17.9599C12.76 17.9022 12.7829 17.8469 12.8237 17.8061C12.8645 17.7653 12.9198 17.7424 12.9775 17.7424C13.0352 17.7424 13.0905 17.7653 13.1313 17.8061C13.1721 17.8469 13.195 17.9022 13.195 17.9599ZM13.74 18.3099C13.74 18.3676 13.7171 18.4229 13.6763 18.4637C13.6355 18.5045 13.5802 18.5274 13.5225 18.5274C13.4648 18.5274 13.4095 18.5045 13.3687 18.4637C13.3279 18.4229 13.305 18.3676 13.305 18.3099C13.305 18.2522 13.3279 18.1969 13.3687 18.1561C13.4095 18.1153 13.4648 18.0924 13.5225 18.0924C13.5802 18.0924 13.6355 18.1153 13.6763 18.1561C13.7171 18.1969 13.74 18.2522 13.74 18.3099Z" fill="#000001"/>
<path fill-rule="evenodd" clip-rule="evenodd" d="M12.225 18.1851C10.095 16.9701 7.86 15.6601 5.725 14.4451C4.79 13.8601 4.745 12.7751 5.375 11.9501C5.435 11.8351 5.515 11.8601 5.545 11.9251C5.62 12.3251 5.845 12.7401 6.115 13.0001C8.33107 14.3941 10.5263 15.8209 12.7 17.2801C12.53 17.5701 12.4 17.8951 12.225 18.1801V18.1851Z" fill="#FFEE00"/>
<path fill-rule="evenodd" clip-rule="evenodd" d="M10.86 15.2749L11.75 16.0749L10.95 16.9649L10.06 16.1649L10.86 15.2749Z" fill="#FFEC00"/>
<path d="M12.575 17.44L6.325 13.665M11.805 16.57L9.7 15.205M10.61 17.34L8.465 16.1" stroke="black" stroke-width="0.15"/>
</g>
</g>
<defs>
<clipPath id="clip0_2214_2973">
<path d="M0 12C0 5.37258 5.37258 0 12 0C18.6274 0 24 5.37258 24 12C24 18.6274 18.6274 24 12 24C5.37258 24 0 18.6274 0 12Z" fill="white"/>
</clipPath>
<clipPath id="clip1_2214_2973">
<rect width="32" height="24" fill="white" transform="translate(-4)"/>
</clipPath>
</defs>
</svg>
