<svg width="24" height="24" viewBox="0 0 24 24" fill="none" xmlns="http://www.w3.org/2000/svg">
<g clip-path="url(#clip0_2214_4081)">
<g clip-path="url(#clip1_2214_4081)">
<mask id="mask0_2214_4081" style="mask-type:luminance" maskUnits="userSpaceOnUse" x="-5" y="0" width="34" height="25">
<path d="M-4.00061 0.0012207H28.001V24.0012H-4.00061V0.0012207Z" fill="white"/>
</mask>
<g mask="url(#mask0_2214_4081)">
<path fill-rule="evenodd" clip-rule="evenodd" d="M-4.00061 0.0012207H28.0056V24.0012H-4.00061V0.0012207Z" fill="white"/>
<path fill-rule="evenodd" clip-rule="evenodd" d="M-0.494019 7.29077L2.83505 2.29905L3.667 2.85389L0.337936 7.84562L-0.494019 7.29077ZM0.753913 8.12304L4.08298 3.13131L4.91493 3.68616L1.58587 8.67788L0.753913 8.12304ZM2.00184 8.95531L5.33091 3.96358L6.16287 4.51842L2.8338 9.51015L2.00184 8.95531Z" fill="#000001"/>
<path fill-rule="evenodd" clip-rule="evenodd" d="M17.809 19.4973L21.138 14.5056L21.97 15.0604L18.6409 20.0522L17.809 19.4973ZM19.0569 20.3296L22.386 15.3379L23.2179 15.8927L19.8888 20.8844L19.0569 20.3296ZM20.3048 21.1618L23.6339 16.1701L24.4658 16.725L21.1368 21.7167L20.3048 21.1618Z" fill="#000001"/>
<path fill-rule="evenodd" clip-rule="evenodd" d="M19.0575 16.7241L23.2173 19.4983L19.0575 16.7241Z" fill="black"/>
<path d="M19.0575 16.7241L23.2173 19.4983" stroke="white" stroke-width="0.5"/>
<path fill-rule="evenodd" clip-rule="evenodd" d="M6.99414 8.67871C7.87706 7.35482 9.24974 6.4359 10.8102 6.12409C12.3706 5.81228 13.991 6.13313 15.3149 7.01605C16.6388 7.89898 17.5577 9.27165 17.8696 10.8321C18.1814 12.3926 17.8605 14.013 16.9776 15.3368L6.99414 8.67871Z" fill="#CD2E3A"/>
<path fill-rule="evenodd" clip-rule="evenodd" d="M6.99417 8.67868C6.11124 10.0026 5.7904 11.623 6.1022 13.1834C6.41401 14.7439 7.33294 16.1166 8.65683 16.9995C9.98071 17.8824 11.6011 18.2033 13.1616 17.8914C14.722 17.5796 16.0947 16.6607 16.9776 15.3368C17.4191 14.6749 17.5795 13.8647 17.4236 13.0844C17.2677 12.3042 16.8082 11.6179 16.1463 11.1764C15.4843 10.735 14.6741 10.5745 13.8939 10.7304C13.1137 10.8863 12.4274 11.3458 11.9859 12.0078L6.99417 8.67868Z" fill="#0047A0"/>
<path d="M11.9859 12.008C12.9052 10.6296 12.533 8.76691 11.1546 7.84761C9.77615 6.92832 7.91348 7.30051 6.99418 8.67894C6.07489 10.0574 6.44709 11.92 7.82551 12.8393C9.20394 13.7586 11.0666 13.3864 11.9859 12.008Z" fill="#CD2E3A"/>
<path fill-rule="evenodd" clip-rule="evenodd" d="M2.84875 21.7185L-0.480313 16.7268L0.351642 16.1719L3.68071 21.1637L2.84875 21.7185ZM4.09669 20.8862L0.767619 15.8945L1.59957 15.3397L4.92864 20.3314L4.09669 20.8862ZM5.34462 20.054L2.01555 15.0622L2.8475 14.5074L6.17657 19.4991L5.34462 20.054Z" fill="#000001"/>
<path fill-rule="evenodd" clip-rule="evenodd" d="M21.1517 9.51196L17.8227 4.52024L18.6546 3.96539L21.9837 8.95712L21.1517 9.51196ZM22.3997 8.6797L19.0706 3.68797L19.9026 3.13313L23.2316 8.12485L22.3997 8.6797ZM23.6476 7.84743L20.3185 2.8557L21.1505 2.30086L24.4796 7.29258L23.6476 7.84743Z" fill="#000001"/>
<path fill-rule="evenodd" clip-rule="evenodd" d="M2.22412 18.5291L3.47205 17.6968L2.22412 18.5291ZM19.0712 7.29345L20.5271 6.32247L19.0712 7.29345ZM21.775 5.4902L23.023 4.65794L21.775 5.4902Z" fill="black"/>
<path d="M2.22412 18.5291L3.47205 17.6968M19.0712 7.29345L20.5271 6.32247M21.775 5.4902L23.023 4.65794" stroke="white" stroke-width="0.5"/>
</g>
</g>
</g>
<defs>
<clipPath id="clip0_2214_4081">
<path d="M0 12C0 5.37258 5.37258 0 12 0C18.6274 0 24 5.37258 24 12C24 18.6274 18.6274 24 12 24C5.37258 24 0 18.6274 0 12Z" fill="white"/>
</clipPath>
<clipPath id="clip1_2214_4081">
<rect width="32" height="24" fill="white" transform="translate(-4)"/>
</clipPath>
</defs>
</svg>
