<svg width="24" height="24" viewBox="0 0 24 24" fill="none" xmlns="http://www.w3.org/2000/svg">
<g clip-path="url(#clip0_3053_1926)">
<g clip-path="url(#clip1_3053_1926)">
<mask id="mask0_3053_1926" style="mask-type:luminance" maskUnits="userSpaceOnUse" x="-5" y="0" width="33" height="24">
<path d="M-4.00012 0H27.9999V24H-4.00012V0Z" fill="white"/>
</mask>
<g mask="url(#mask0_3053_1926)">
<path d="M-4.00043 0H27.9996V24H-4.00043V0Z" fill="white"/>
<path fill-rule="evenodd" clip-rule="evenodd" d="M-8.00031 0V1.6L9.5197 12L-7.9203 22.4V24H-5.36031L12.0797 13.6L29.4397 24H31.9997V22.4L14.6397 12L32.0797 1.6V0H29.4397L11.9997 10.4L-5.36031 0H-7.9203H-8.00031Z" fill="#DF112D"/>
<path d="M14.0792 3.59983C14.6392 5.67983 14.3192 8.23983 11.9992 9.67983C9.67922 8.23983 9.35922 5.67983 9.91922 3.59983C10.4792 3.11983 12.9592 2.79983 14.0792 3.59983Z" fill="#E8112D"/>
<path d="M11.9993 3.19981C12.7993 3.19981 13.4393 3.35981 14.0793 3.67981C14.1945 2.98673 14.4683 2.32964 14.8793 1.75981C14.4793 1.75981 14.3193 1.91981 14.3193 2.15981C14.2393 1.91981 13.8393 1.91981 13.6793 2.07981C14.1593 2.31981 13.8393 2.87981 13.4393 2.79981C13.1993 2.71981 13.1193 2.55981 13.1193 2.39981C13.1786 2.38979 13.232 2.35783 13.2689 2.31028C13.3058 2.26274 13.3235 2.20307 13.3185 2.1431C13.3134 2.08313 13.2861 2.02725 13.2418 1.98651C13.1975 1.94578 13.1395 1.92317 13.0793 1.92317C13.0191 1.92317 12.9611 1.94578 12.9169 1.98651C12.8726 2.02725 12.8452 2.08313 12.8401 2.1431C12.8351 2.20307 12.8528 2.26274 12.8897 2.31028C12.9266 2.35783 12.98 2.38979 13.0393 2.39981C12.8916 2.55055 12.6903 2.63681 12.4793 2.63981C12.3874 2.59637 12.3091 2.52875 12.2527 2.44419C12.1964 2.35963 12.1641 2.26133 12.1593 2.15981C12.1593 1.75981 12.6393 1.67981 12.7193 1.75981C12.7193 1.51981 12.2393 1.19981 12.1593 1.51981C12.2419 1.36447 12.271 1.18623 12.2421 1.01269C12.2132 0.839139 12.1278 0.679968 11.9993 0.559814C11.888 0.673879 11.8133 0.818579 11.7848 0.975365C11.7563 1.13215 11.7753 1.29388 11.8393 1.43981C11.6793 1.19981 11.2793 1.43981 11.2793 1.75981C11.3593 1.67981 11.7593 1.75981 11.7593 2.15981C11.7593 2.31981 11.7593 2.55981 11.5193 2.55981C11.4213 2.59822 11.3135 2.60336 11.2123 2.57445C11.1111 2.54554 11.0222 2.48418 10.9593 2.39981L11.1193 2.31981C11.1651 2.2934 11.2008 2.25262 11.221 2.20381C11.2413 2.155 11.2448 2.10088 11.2311 2.04985C11.2175 1.99882 11.1873 1.95373 11.1454 1.92156C11.1035 1.8894 11.0521 1.87197 10.9993 1.87197C10.9465 1.87197 10.8951 1.8894 10.8532 1.92156C10.8113 1.95373 10.7812 1.99882 10.7675 2.04985C10.7538 2.10088 10.7574 2.155 10.7776 2.20381C10.7978 2.25262 10.8336 2.2934 10.8793 2.31981C10.8793 2.55981 10.7193 2.71981 10.5593 2.71981C10.4754 2.71981 10.3935 2.6934 10.3254 2.64431C10.2573 2.59522 10.2064 2.52595 10.1798 2.44631C10.1533 2.36666 10.1525 2.28068 10.1775 2.20055C10.2025 2.12041 10.2521 2.05019 10.3193 1.99981C10.1593 1.83981 9.75931 1.83981 9.67931 2.15981C9.67931 1.91981 9.51931 1.75981 9.03931 1.75981C9.45033 2.32964 9.72411 2.98673 9.83931 3.67981C10.5041 3.33145 11.2495 3.16581 11.9993 3.19981Z" fill="#F9DD16"/>
<path d="M13.8391 5.28035H13.6791H13.9191C13.9991 5.28035 14.0791 5.20035 13.9991 5.12035H14.1591L13.9991 4.96035H14.1591L13.9991 4.80035H14.0791C14.0651 4.77603 14.0577 4.74844 14.0577 4.72035C14.0577 4.69227 14.0651 4.66468 14.0791 4.64035H13.5191L13.1191 4.56035L13.5991 4.32035C13.5991 4.16035 13.3591 3.92035 12.9591 4.08035L12.0791 4.00035L12.6391 3.84035L13.2791 3.76035H12.7191C12.4791 3.76035 11.9191 3.68035 11.9191 4.00035C11.9191 4.32035 12.4791 4.24035 13.0391 4.16035L13.5191 4.24035L13.0391 4.40035C12.8023 4.34565 12.556 4.34565 12.3191 4.40035H11.7591C11.5991 4.40035 11.3591 4.40035 11.1991 4.24035C11.1991 4.24035 10.8791 4.40035 10.8791 4.56035V4.80035C11.0391 4.96035 10.8791 4.88035 10.7191 4.88035L10.3191 4.80035C10.2391 4.64035 10.1591 4.56035 9.99915 4.64035V4.80035H10.1591C10.1348 4.78631 10.1072 4.77892 10.0791 4.77892C10.0511 4.77892 10.0235 4.78631 9.99915 4.80035V4.96035H10.2391H10.0791V5.04035H10.3991C10.3567 5.04035 10.316 5.05721 10.286 5.08722C10.256 5.11722 10.2391 5.15792 10.2391 5.20035C10.3191 5.12035 10.3991 5.20035 10.5591 5.20035L10.3991 5.28035C10.4791 5.28035 10.9591 5.36035 10.9591 5.20035V5.28035C10.9591 5.28035 11.1991 5.28035 11.1991 5.12035V5.28035C11.1991 5.28035 11.3591 5.28035 11.4391 5.12035V4.96035H11.8391C11.9991 4.80035 12.0791 4.96035 12.1591 4.88035H12.3191C12.3991 4.88035 12.4791 4.88035 12.5591 4.72035C12.7191 4.80035 12.9591 4.88035 13.4391 4.80035C13.6791 4.80035 13.8391 4.88035 13.8391 5.04035H13.4391C13.4391 5.04035 13.3591 5.12035 13.4391 5.20035C13.5191 5.28035 13.4391 5.20035 13.5191 5.20035C13.5191 5.20035 13.4391 5.28035 13.5191 5.36035L13.7591 5.28035H13.8391ZM10.6391 3.92035V4.00035L10.7191 4.16035L10.7991 3.92035H10.6391Z" fill="#F9DD16"/>
<path d="M11.1992 4.00017C11.2792 3.92017 11.3592 3.92017 11.3592 4.00017L11.2792 4.16017L11.1992 3.92017V4.00017Z" fill="#F9DD16"/>
<path d="M10.9591 3.84058C11.1991 3.84058 11.2791 4.00058 11.2791 4.16058L11.1191 4.48058L10.9591 4.56058L10.7991 4.48058C10.7991 4.24058 10.6391 4.32058 10.6391 4.16058C10.6391 4.00058 10.6391 3.84058 10.9591 3.84058Z" fill="#F9DD16"/>
<path d="M10.3191 4.48052H10.1591C10.2391 4.48052 10.2391 4.64052 10.4791 4.64052H10.3191C10.3991 4.64052 10.4791 4.80052 10.7191 4.80052C10.7191 4.88052 10.8791 4.80052 10.9591 4.96052C10.9591 4.88052 10.7991 4.72052 10.9591 4.56052C10.6391 4.56052 10.5591 4.40052 10.4791 4.32052C10.3191 4.24052 10.3191 4.08052 10.2391 3.92052C10.2391 3.92052 10.1591 3.76052 10.0791 3.84052V4.00052H9.99913C10.0791 4.00052 9.99913 4.16052 10.1591 4.24052C10.0791 4.16052 9.99913 4.08052 9.91913 4.16052H9.99913L10.3191 4.48052ZM12.3991 5.28052H12.7991L12.9591 5.20052V5.04052C12.8791 5.04052 12.7991 4.96052 12.8791 4.88052C12.6391 4.56052 12.1591 4.72052 12.1591 4.88052L12.4791 5.04052H12.5591H11.9991L12.0791 5.12052L11.9191 5.20052C11.9191 5.36052 12.0791 5.20052 12.0791 5.20052V5.28052C12.0791 5.28052 12.0791 5.36052 12.1591 5.28052C12.2109 5.26221 12.2674 5.26221 12.3191 5.28052H12.3991Z" fill="#F9DD16"/>
<path d="M10.9593 4.47958H11.0393V4.31958H10.7993V4.39958L10.9593 4.47958Z" fill="#FF0016"/>
<path d="M10.0792 3.84C10.0792 3.76 9.91923 3.84 9.91923 3.84H10.0792ZM10.0792 3.92L9.83923 4H9.99923L10.0792 3.92ZM10.0792 4.16H9.83923H9.99923H10.0792ZM10.0792 4.72C9.99923 4.72 9.91923 4.72 9.91923 4.88C9.91923 4.8 9.99923 4.88 10.0792 4.88V4.72ZM10.0792 4.88L9.91923 5.04L10.0792 4.96V4.8V4.88ZM10.0792 4.96C10.0792 4.96 9.99923 5.04 10.0792 5.12V4.88V4.96ZM12.0792 5.2C11.9992 5.2 11.9192 5.2 11.9192 5.36L12.0792 5.28V5.2ZM12.1592 5.2C12.0792 5.2 11.9992 5.36 12.0792 5.44L12.1592 5.36V5.28V5.2ZM12.1592 5.04C11.9992 5.04 11.9192 5.04 11.9192 5.2L12.0792 5.12L12.1592 5.04ZM13.4392 5.2C13.4392 5.2 13.2792 5.28 13.3592 5.36L13.4392 5.28V5.2ZM13.4392 5.12L13.2792 5.2H13.4392V4.96V5.12ZM13.4392 5.28C13.4392 5.28 13.3592 5.44 13.4392 5.44H13.5192V5.2L13.4392 5.28ZM11.0392 4.48V4.8C10.8792 4.8 10.8792 4.8 10.8792 4.64V4.48H10.9592H11.0392Z" fill="#0051BA"/>
<path d="M13.5191 6.95958H13.6791C13.6791 6.95958 13.7591 6.95958 13.6791 6.87958H13.8391L13.7591 6.71958H13.8391L13.7591 6.55958C13.745 6.53526 13.7376 6.50767 13.7376 6.47958C13.7376 6.45149 13.745 6.4239 13.7591 6.39958H13.3591L12.9591 6.31958C13.1991 6.39958 13.4391 6.23958 13.4391 6.07958C13.4391 5.91958 13.1991 5.75958 12.8791 5.91958L11.9991 5.83958L12.4791 5.67958H13.1191L12.5591 5.59958C12.3191 5.51958 11.8391 5.59958 11.8391 5.83958C11.8391 6.07958 12.3991 6.07958 12.8791 5.99958H13.2791L12.8791 6.15958C12.6684 6.11157 12.4497 6.11157 12.2391 6.15958L11.6791 6.23958C11.5991 6.23958 11.3591 6.23958 11.1991 6.07958L10.8791 6.31958L10.9591 6.63958C11.0391 6.71958 10.9591 6.63958 10.7991 6.63958H10.3991C10.3991 6.47958 10.2391 6.39958 10.1591 6.47958V6.55958H10.3191C10.2947 6.54554 10.2671 6.53814 10.2391 6.53814C10.211 6.53814 10.1834 6.54554 10.1591 6.55958V6.71958H10.3191H10.2391C10.3991 6.71958 10.3991 6.87958 10.4791 6.79958C10.4528 6.79281 10.4253 6.79281 10.3991 6.79958C10.3991 6.79958 10.5591 6.95958 10.6391 6.87958L10.5591 7.03958C10.5591 6.95958 11.0391 7.03958 11.0391 6.87958V7.03958C11.0391 7.03958 11.1991 7.03958 11.2791 6.87958H11.4391V6.71958H11.5991L11.8391 6.63958H12.2391C12.3191 6.63958 12.3991 6.63958 12.4791 6.47958C12.6391 6.55958 12.7991 6.63958 13.2791 6.55958C13.4391 6.55958 13.5191 6.55958 13.5191 6.71958V6.79958H13.1991V6.95958C13.1991 7.03958 13.2791 6.95958 13.3591 6.95958C13.2791 6.95958 13.1991 6.95958 13.2791 7.03958H13.3591L13.5191 6.95958ZM10.7991 5.75958H10.6391L10.7191 5.99958L10.7991 5.75958Z" fill="#F9DD16"/>
<path d="M11.1991 5.75952H11.3591L11.2791 5.99952L11.1991 5.75952Z" fill="#F9DD16"/>
<path d="M11.0391 5.67993C11.2791 5.67993 11.2791 5.83993 11.2791 5.99993C11.2791 6.15993 11.1991 5.99993 11.1191 6.23993L10.9591 6.31993H10.8791C10.8791 6.07993 10.7191 6.07993 10.7191 5.99993C10.7191 5.91993 10.7191 5.67993 11.0391 5.67993Z" fill="#F9DD16"/>
<path d="M10.3991 6.23993H10.3191C10.3191 6.23993 10.3191 6.39993 10.5591 6.39993H10.3991L10.7191 6.55993L11.0391 6.71993C11.0391 6.55993 10.8791 6.47993 10.9591 6.31993C10.7191 6.31993 10.6391 6.15993 10.5591 6.07993C10.3991 6.07993 10.3991 5.91993 10.3991 5.75993L10.2391 5.67993V5.83993H10.1591L10.2391 5.99993H10.0791C10.2391 5.99993 10.3191 6.23993 10.3991 6.23993ZM12.3191 6.95993H12.2391H12.8791V6.79993C12.7991 6.79993 12.7191 6.71993 12.7991 6.55993C12.5591 6.31993 12.1591 6.47993 12.1591 6.55993L12.4791 6.71993C12.4791 6.71993 12.6391 6.71993 12.4791 6.79993H12.3191C12.1591 6.79993 12.0791 6.71993 11.9991 6.79993V6.95993H12.0791C12.0791 6.95993 12.0791 7.03993 12.1591 6.95993C12.2109 6.94163 12.2673 6.94163 12.3191 6.95993Z" fill="#F9DD16"/>
<path d="M11.0393 6.23983C11.0393 6.23983 11.1193 6.15983 11.0393 6.07983C11.0393 6.15983 11.1193 6.15983 11.0393 6.07983C11.0393 6.15983 10.8793 6.15983 10.8793 6.07983V6.23983H11.0393Z" fill="#FF0016"/>
<path d="M10.9593 6.15983L10.7993 6.07983L10.9593 6.15983ZM10.9593 6.07983H10.7993H10.9593ZM10.9593 6.07983L10.7993 6.15983L10.9593 6.07983ZM11.0393 6.15983L11.1993 6.07983L11.0393 6.15983ZM11.0393 6.07983H11.1993H11.0393ZM11.0393 6.07983L11.1993 6.15983L11.0393 6.07983Z" fill="black"/>
<path d="M10.2393 5.59985L10.0793 5.67985H10.2393V5.59985ZM10.2393 5.75985L9.99933 5.83985H10.1593L10.2393 5.75985ZM10.1593 5.99985C10.1593 5.91985 9.99933 5.99985 9.99933 5.99985H10.1593ZM10.1593 6.47985L9.99933 6.55985H10.2393L10.1593 6.47985ZM10.1593 6.63985C10.1593 6.63985 9.99933 6.63985 10.1593 6.79985V6.63985ZM10.3193 6.63985L10.1593 6.87985L10.3193 6.79985V6.71985V6.63985ZM11.9193 6.87985C11.9193 6.87985 11.8393 6.87985 11.9193 7.03985L11.9993 6.95985V6.87985H11.9193ZM12.0793 6.95985C12.0793 6.95985 11.9193 7.03985 11.9993 7.11985L12.0793 7.03985V6.95985ZM12.0793 6.71985C11.9993 6.71985 11.8393 6.79985 11.9193 6.87985H11.9993V6.79985L12.0793 6.71985ZM13.1993 6.95985C13.1993 6.95985 13.1193 6.95985 13.1993 7.03985V6.87985V6.95985ZM13.1993 6.79985L13.1193 6.87985H13.2793V6.79985H13.1993ZM13.2793 7.03985C13.2793 7.03985 13.1993 7.03985 13.2793 7.11985V7.03985ZM11.0393 6.23985V6.55985V6.39985C11.0393 6.31985 11.0393 6.23985 10.9593 6.31985V6.23985H11.0393Z" fill="#0051BA"/>
<path d="M13.5175 8.34272C13.4727 8.34272 13.4727 8.40272 13.4615 8.40272C13.5511 8.40272 13.5959 8.36672 13.6183 8.31872V8.39072C13.6855 8.36672 13.7079 8.30672 13.6855 8.27072L13.7639 8.29472C13.7191 8.25872 13.7527 8.17472 13.6743 8.12672C13.6967 8.12672 13.7415 8.15072 13.7639 8.18672C13.7527 8.10272 13.7415 8.05472 13.6743 8.00672H13.7303C13.7156 7.99629 13.7038 7.98194 13.6959 7.9651C13.6881 7.94827 13.6845 7.92952 13.6855 7.91072C13.6855 7.86272 13.6631 7.86272 13.6183 7.87472L13.4167 7.88672C13.3047 7.88672 13.1927 7.88672 13.1031 7.81472C13.2487 7.88672 13.4391 7.74272 13.4391 7.63472C13.4391 7.51472 13.2823 7.39472 12.9911 7.46672C12.6999 7.53872 12.3415 7.51472 12.3415 7.40672C12.3415 7.29872 12.5991 7.28672 12.7335 7.31072C12.8679 7.33472 12.9575 7.34672 13.2039 7.25072C13.1479 7.27472 12.9463 7.28672 12.7895 7.23872C12.6327 7.19072 12.2519 7.19072 12.2519 7.40672C12.2519 7.63472 12.6551 7.61072 13.0135 7.55072C13.2151 7.52672 13.3271 7.55072 13.3271 7.61072C13.3271 7.68272 13.1367 7.70672 12.9911 7.69472C12.8373 7.67252 12.6809 7.68478 12.5319 7.73072C12.3863 7.77872 12.2855 7.73072 12.1287 7.76672C12.0503 7.76672 11.8599 7.76672 11.7703 7.59872C11.7143 7.64672 11.5463 7.73072 11.5127 7.82672C11.4791 7.89872 11.5127 7.98272 11.5575 8.06672C11.6247 8.16272 11.5239 8.15072 11.4455 8.15072C11.3559 8.15072 11.2215 8.15072 11.1543 8.05472C11.0871 7.98272 11.0087 7.92272 10.9415 7.97072C10.9079 8.00672 10.9415 8.04272 10.9639 8.03072L11.0535 8.05472C11.0355 8.04595 11.0156 8.04244 10.996 8.04455C10.9763 8.04666 10.9575 8.05431 10.9415 8.06672C10.9079 8.09072 10.9415 8.13872 10.9751 8.12672C10.9975 8.11472 11.0535 8.10272 11.0871 8.12672C11.0535 8.12672 11.0087 8.12672 10.9975 8.15072C10.9863 8.17472 10.9975 8.19872 11.0311 8.19872C11.0983 8.19872 11.1095 8.24672 11.1767 8.23472C11.161 8.23564 11.1458 8.24046 11.1322 8.24879C11.1186 8.25712 11.1069 8.26874 11.0983 8.28272C11.1655 8.24672 11.2215 8.33072 11.2999 8.30672C11.2775 8.31872 11.2215 8.35472 11.2215 8.37872C11.2663 8.31872 11.5799 8.42672 11.5799 8.29472L11.5687 8.39072C11.6023 8.36672 11.7255 8.35472 11.7703 8.27072C11.7703 8.29472 11.7703 8.33072 11.7479 8.34272C11.7815 8.34272 11.8375 8.31872 11.8935 8.23472C11.9159 8.19872 11.9159 8.17472 11.9159 8.15072C11.9719 8.15072 12.0055 8.13872 12.0503 8.10272C12.0951 8.06672 12.1399 8.13872 12.2183 8.07872C12.2855 8.03072 12.3527 8.07872 12.3975 8.05472C12.4311 8.03072 12.4871 8.05472 12.5319 8.03072C12.5767 8.00672 12.6439 8.04272 12.7111 7.98272C12.8231 8.03072 12.9687 8.10272 13.2935 8.04272C13.4727 8.00672 13.5399 8.07872 13.5399 8.16272C13.5399 8.23472 13.4951 8.23472 13.4727 8.23472C13.3607 8.24672 13.3271 8.19872 13.2823 8.21072C13.2599 8.22272 13.2375 8.27072 13.2823 8.29472C13.2487 8.30672 13.2487 8.34272 13.2711 8.35472C13.2935 8.36672 13.3271 8.35472 13.3607 8.34272C13.3159 8.35472 13.2823 8.39072 13.3047 8.42672C13.3159 8.45072 13.3495 8.46272 13.3831 8.42672C13.4167 8.37872 13.4727 8.34272 13.5175 8.34272ZM11.4343 7.38272C11.3447 7.34672 11.3223 7.34672 11.3335 7.43072C11.3335 7.46672 11.3671 7.51472 11.3895 7.53872C11.3895 7.50272 11.4007 7.41872 11.4343 7.39472V7.38272Z" fill="#F9DD16" stroke="black" stroke-width="0.00869483"/>
<path d="M11.7365 7.39474C11.8261 7.34674 11.8597 7.34674 11.8373 7.43074C11.8373 7.46674 11.8037 7.51474 11.7813 7.53874C11.7813 7.50274 11.7813 7.41874 11.7365 7.39474Z" fill="#F9DD16" stroke="black" stroke-width="0.00869483"/>
<path d="M11.591 7.33472C11.7702 7.33472 11.7926 7.43072 11.7814 7.53872C11.7814 7.65872 11.7254 7.61072 11.6918 7.77872C11.6806 7.82672 11.6358 7.83872 11.5798 7.83872C11.5462 7.83872 11.5014 7.83872 11.479 7.76672C11.4454 7.61072 11.3894 7.64672 11.3894 7.52672C11.3894 7.43072 11.4118 7.33472 11.591 7.33472Z" fill="#F9DD16" stroke="black" stroke-width="0.00869483"/>
<path d="M11.1318 7.77848C11.087 7.75448 11.0534 7.77848 11.031 7.77848C11.0982 7.79048 11.0982 7.87448 11.2326 7.89848C11.199 7.89848 11.1878 7.92248 11.1542 7.89848C11.2102 7.94648 11.2662 8.00648 11.4006 8.00648C11.479 8.00648 11.423 8.04248 11.3782 8.01848C11.423 8.07848 11.5238 8.03048 11.591 8.13848C11.591 8.05448 11.479 7.93448 11.535 7.85048C11.3446 7.83848 11.3334 7.73048 11.2326 7.64648C11.143 7.57448 11.1318 7.50248 11.0982 7.37048C11.087 7.31048 11.0198 7.27448 10.9862 7.28648C10.9526 7.28648 10.9302 7.32248 10.9638 7.34648C10.9862 7.37048 11.031 7.37048 11.031 7.43048C10.9974 7.38248 10.9414 7.37048 10.919 7.39448C10.9078 7.41848 10.919 7.45448 10.9414 7.45448C10.9974 7.45448 10.9638 7.52648 11.0198 7.57448C10.9638 7.51448 10.919 7.50248 10.8854 7.53848C10.8742 7.56248 10.8854 7.59848 10.9302 7.59848C10.9862 7.59848 11.0422 7.74248 11.1318 7.77848ZM12.5878 8.33048C12.5654 8.33048 12.5766 8.39048 12.5318 8.39048C12.6214 8.39048 12.6774 8.36648 12.711 8.33048L12.6886 8.39048C12.7334 8.35448 12.8566 8.34248 12.9126 8.35448C12.9686 8.36648 12.9798 8.34248 13.0022 8.30648C13.0246 8.25848 13.0022 8.23448 12.9686 8.21048C12.935 8.17448 12.9238 8.12648 12.935 8.05448C12.7782 7.81448 12.487 7.93448 12.487 8.03048C12.5878 8.16248 12.599 8.15048 12.6886 8.16248C12.767 8.18648 12.823 8.18648 12.767 8.23448C12.7446 8.25848 12.655 8.23448 12.599 8.24648C12.4534 8.24648 12.375 8.13848 12.3414 8.19848C12.3078 8.24648 12.3414 8.27048 12.4086 8.27048C12.3638 8.27048 12.2966 8.27048 12.3078 8.31848C12.3302 8.40248 12.3974 8.30648 12.431 8.33048C12.4086 8.33048 12.3638 8.34248 12.3638 8.36648C12.3638 8.39048 12.4198 8.42648 12.4758 8.36648C12.5084 8.3414 12.5478 8.32872 12.5878 8.33048Z" fill="#F9DD16" stroke="black" stroke-width="0.00869483"/>
<path d="M12.7113 7.98348C12.6665 7.95948 12.6105 7.94748 12.5545 7.95948M11.9273 7.95948C11.8825 8.05548 11.9049 8.10348 11.9161 8.15148M11.4681 7.47948C11.4905 7.50348 11.5129 7.45548 11.5577 7.50348M11.5577 7.50348C11.5465 7.49148 11.5241 7.53948 11.4905 7.50348M11.5577 7.50348V7.53948C11.5465 7.62348 11.5241 7.65948 11.5801 7.65948C11.6473 7.65948 11.6249 7.62348 11.6137 7.53948V7.50348M11.7145 7.49148C11.6809 7.49148 11.6585 7.45548 11.6137 7.50348M11.6137 7.50348C11.6249 7.49148 11.6473 7.53948 11.6809 7.50348" stroke="black" stroke-width="0.00869483"/>
<path d="M11.5913 7.80371C11.6361 7.80371 11.6585 7.80371 11.6585 7.73171C11.6585 7.70771 11.6921 7.69571 11.6697 7.64771C11.6921 7.69571 11.5913 7.69571 11.5913 7.67171C11.5913 7.69571 11.4793 7.69571 11.5017 7.64771C11.4905 7.69571 11.5241 7.70771 11.5129 7.73171C11.5129 7.80371 11.5353 7.80371 11.5913 7.80371Z" fill="#FF0016" stroke="black" stroke-width="0.00869483"/>
<path d="M11.5353 7.65978L11.4233 7.62378L11.5353 7.65978ZM11.5353 7.65978H11.4233H11.5353ZM11.5353 7.67178L11.4345 7.70778L11.5353 7.67178ZM11.6249 7.65978L11.7369 7.62378L11.6249 7.65978ZM11.6249 7.65978H11.7593H11.6249ZM11.6249 7.67178L11.7369 7.70778L11.6249 7.67178Z" fill="black"/>
<path d="M11.4233 7.62378L11.5353 7.65978H11.4233M11.5353 7.67178L11.4345 7.70778M11.7369 7.62378L11.6249 7.65978H11.7593M11.6249 7.67178L11.7369 7.70778" stroke="black" stroke-width="0.00869483"/>
<path d="M10.6392 7.59986H10.4792H10.5592H10.6392ZM10.6392 8.07986C10.6392 7.99986 10.5592 8.07986 10.5592 8.07986H10.6392ZM10.6392 8.07986C10.6392 8.07986 10.5592 8.23986 10.6392 8.23986V8.15986V8.07986ZM11.9992 8.31986C11.9992 8.31986 11.8392 8.39986 11.9192 8.47986V8.31986H11.9992ZM11.9992 8.39986V8.55986V8.47986V8.39986ZM11.9992 8.23986L11.9192 8.31986H11.9992V8.23986ZM12.8792 8.47986V8.55986H12.9592V8.47986H12.8792Z" fill="#0051BA"/>
</g>
</g>
</g>
<defs>
<clipPath id="clip0_3053_1926">
<rect width="24" height="24" fill="white"/>
</clipPath>
<clipPath id="clip1_3053_1926">
<rect width="24" height="24" rx="12" fill="white"/>
</clipPath>
</defs>
</svg>
