<svg width="24" height="24" viewBox="0 0 24 24" fill="none" xmlns="http://www.w3.org/2000/svg">
<g clip-path="url(#clip0_3053_1928)">
<g clip-path="url(#clip1_3053_1928)">
<path d="M-7.7702 0H24.2298V24H-7.7702V0Z" fill="#000066"/>
<path d="M-7.8 12L24.2 0V24L-7.8 12Z" fill="#BD1021"/>
<path d="M-4.7852 11.9999L24.2148 1.28491V22.7149" fill="white"/>
<path d="M14.67 13.2197C14.925 13.2347 14.92 13.4897 14.92 13.4897L15.82 13.5097C15.935 13.1947 16.06 13.2297 16.28 13.3897C16.4139 13.4808 16.5604 13.5515 16.715 13.5997C16.8 13.1497 17.44 13.2397 17.44 13.2397C17.72 12.5897 17.74 12.5947 17.575 12.5147C17.477 12.4651 17.3968 12.3866 17.345 12.2897C17.195 12.1047 17.115 11.8347 17.095 11.6697C17.075 11.5047 16.885 11.7497 16.845 11.6997C16.815 11.6497 16.53 11.6797 16.53 11.6797C16.6 11.7547 16.36 11.7097 16.36 11.7097C16.385 11.7297 16.36 11.7947 16.36 11.7947C16.34 11.7647 16.155 11.7347 16.155 11.7347C16.141 11.7642 16.1225 11.7912 16.1 11.8147C16 11.7747 15.8 11.7797 15.8 11.7797C15.6087 11.7733 15.4195 11.8219 15.255 11.9197C15.175 11.9647 14.885 12.1097 14.64 12.3447C14.405 12.5747 14.27 12.5447 14.27 12.5447C14.2 12.8047 13.63 13.1197 13.63 13.1197C13.54 13.1997 13.25 13.2397 13.105 13.1197C12.96 12.9997 13.105 12.7747 13.105 12.7747C13.165 12.6747 13.215 12.6797 13.22 12.3247C13.225 12.0897 13.47 11.8997 13.72 11.6247C14.035 11.2847 14.47 10.7247 14.47 10.7247C14.47 10.8947 14.56 10.9247 14.56 10.9247C14.645 10.7497 14.77 10.6097 14.77 10.6097C14.775 10.6247 14.795 10.6297 14.795 10.6297C14.895 10.4997 14.945 10.4497 14.945 10.4497C14.92 10.4347 14.645 10.4497 14.395 10.6697C14.145 10.8897 13.975 10.8197 13.975 10.8197C13.8 10.7597 13.785 10.6197 13.785 10.6197C13.66 10.0747 14.155 9.68474 14.155 9.68474C13.485 9.52474 13.97 8.66974 14.805 8.30974C15.635 7.94974 15.625 7.78474 15.625 7.78474C15.6616 7.83045 15.6919 7.88091 15.715 7.93474C15.72 7.93474 15.785 7.83974 16.265 7.62974C16.745 7.41474 16.975 7.22974 16.975 7.22974C17.035 7.34974 17.025 7.42974 17.025 7.42974C18.34 6.97474 19.625 5.91974 19.625 5.91974C19.665 6.00474 19.65 6.13974 19.65 6.13974C19.86 5.93974 20.635 5.47974 20.635 5.47974C20.6406 5.56303 20.6218 5.64615 20.581 5.71895C20.5401 5.79175 20.479 5.8511 20.405 5.88974C20.4243 5.92571 20.4378 5.96452 20.445 6.00474C20.6887 5.85218 20.9288 5.6938 21.165 5.52974C21.38 5.71474 21.185 6.01974 21.185 6.01974C21.265 6.00474 21.315 5.93974 21.315 5.93974C21.375 6.25974 21.02 6.53974 21.02 6.53974C21.085 6.53974 21.185 6.47474 21.185 6.47474C21.12 6.82474 20.465 7.20474 20.465 7.20474C20.56 7.29474 20.465 7.40474 20.385 7.45474C20.31 7.50474 20.17 7.61974 20.215 7.66474C20.255 7.71474 20.55 7.50474 20.55 7.50474C20.6 7.64974 20.225 7.93474 20.225 7.93474C20.485 7.96974 21.205 7.63974 21.205 7.63974C21.15 7.91974 20.875 8.13974 20.54 8.26474C20.205 8.38974 20.22 8.41474 20.22 8.41474C20.28 8.45474 20.745 8.32474 20.745 8.32474C20.605 8.63474 20.12 8.84974 20.12 8.84974C20.255 8.96474 20.435 8.82974 20.62 8.70474C20.8381 8.56755 21.0735 8.45994 21.32 8.38474C21.585 8.28974 21.78 8.35974 21.78 8.35974C21.919 8.31867 22.0682 8.32933 22.2 8.38974C22.635 8.42474 22.68 8.58474 22.68 8.58474C22.73 8.59474 22.765 8.61474 22.88 8.69974C22.985 8.77974 22.98 9.02974 22.98 9.15974C22.97 9.27974 22.935 9.27974 22.915 9.30974C22.895 9.34974 22.89 9.38974 22.89 9.43474C22.89 9.48474 22.78 9.77974 22.105 9.77974H21.09C21.03 9.77974 20.965 9.81474 20.965 9.81474C20.68 9.95474 20.83 9.71474 20.495 9.99474C20.155 10.2697 19.985 10.2247 19.985 10.2247C19.7961 10.4178 19.5903 10.5935 19.37 10.7497C19.17 10.8797 19.205 10.8647 19.385 10.9397C19.565 11.0147 19.825 10.9397 19.825 10.9397C19.655 11.0547 19.775 11.1097 19.775 11.1097C19.995 10.9747 20.135 11.0247 20.135 11.0247C20.205 11.2197 19.945 11.5247 19.945 11.5247C20.045 11.5397 20.235 11.5247 20.235 11.5247C20.185 11.6597 20.005 11.8047 19.865 11.8447C19.73 11.8947 19.75 11.9097 19.795 11.9947C19.83 12.0747 19.8 12.1597 19.8 12.1597C19.56 11.9947 19.55 12.1397 19.55 12.1397C19.525 12.3397 19.53 12.6197 19.53 12.6197C19.36 12.5347 19.355 12.6447 19.355 12.6447C19.305 12.8247 19.1 13.0297 19.1 13.0297C19.09 12.9197 18.99 12.8897 18.99 12.8897C18.88 13.0997 18.685 13.2247 18.685 13.2247C18.66 13.3997 18.71 13.6547 18.71 13.6547C18.58 13.6247 18.535 13.6247 18.51 13.6547C18.495 13.6897 18.54 13.7047 18.54 13.7047L20.21 13.7447C20.235 13.7447 20.335 13.7597 20.335 13.9347C20.335 14.1197 20.185 14.1297 20.185 14.1297L18.365 14.0847C18.365 14.0847 18.37 14.1347 18.275 14.1847C18.18 14.2347 18.215 14.1297 18.19 14.3547C18.16 14.5747 17.8 14.3347 17.8 14.3347C17.74 14.4247 17.6 14.5347 17.6 14.5347C17.515 14.2847 17.43 14.2147 17.3 14.4247C17.17 14.6397 17.54 14.6047 17.54 14.6047C17.54 14.6047 19.68 14.2897 19.795 14.2797C19.91 14.2647 20.04 14.2747 20.095 14.4347C20.145 14.5997 19.83 14.6247 19.83 14.6247L17.63 14.8647C17.585 14.9947 17.405 14.9847 17.405 14.9847C17.42 15.1097 17.29 15.1847 17.225 15.2347C17.155 15.2747 16.945 15.2597 16.945 15.2597C16.695 15.4297 16.565 15.2947 16.565 15.2947C16.4 15.3647 16.295 15.3347 16.16 15.2747C16.02 15.2147 16.035 15.0497 16.035 15.0497L14.645 15.1997C14.6049 15.2126 14.5676 15.233 14.535 15.2597C14.585 15.3247 14.435 15.4747 14.435 15.4747C14.48 15.4997 14.56 15.5797 14.57 15.7497C14.58 15.9347 14.345 15.9647 14.46 16.0997C14.575 16.2247 14.795 16.1147 15.035 15.9997C15.275 15.8847 15.51 15.8997 15.61 15.8997C15.71 15.8997 16 15.9797 16.18 16.0397C16.36 16.0997 16.42 16.0597 16.43 15.9697C16.44 15.8847 16.525 15.8547 16.525 15.8547C16.5 15.9447 16.55 15.9847 16.55 15.9847C16.6151 15.9743 16.6777 15.9523 16.735 15.9197C16.725 15.9897 16.635 16.0297 16.635 16.0297C16.465 16.1447 16.705 16.1047 16.705 16.1047C16.9552 16.0344 17.2159 16.0091 17.475 16.0297C17.7185 16.1015 17.9573 16.1883 18.19 16.2897C18.21 16.2297 18.195 16.0897 18.195 16.0897C18.345 16.1297 18.405 16.2147 18.405 16.2147C18.465 16.1547 18.425 16.0447 18.425 16.0447C18.91 16.3197 18.325 16.4447 18.17 16.4947C18.02 16.5447 18.02 16.6097 18.02 16.6097C18.1238 16.5757 18.2312 16.5538 18.34 16.5447C18.45 16.5347 18.41 16.5447 18.665 16.4947C18.925 16.4447 19.055 16.5547 19.055 16.5547C18.84 16.5647 18.78 16.6297 18.78 16.6297C18.91 16.7147 18.78 16.7997 18.78 16.7997C18.59 16.5497 18.42 16.8047 18.42 16.8047C18.5305 16.8047 18.6396 16.8286 18.74 16.8747L19.01 17.0097C19.19 17.0897 19.155 17.0397 19.29 17.0897C19.43 17.1397 19.375 17.2747 19.375 17.2747C19.3334 17.2041 19.2677 17.1508 19.19 17.1247C19.18 17.2747 19.035 17.2997 19.035 17.2997C19.215 17.0997 18.83 17.0097 18.645 17.0147C18.465 17.0147 18.33 17.1347 18.33 17.1347C18.695 17.4797 18.945 17.3647 18.945 17.3647C18.9 17.4897 18.6 17.4397 18.6 17.4397C18.74 17.5497 18.725 17.6197 18.725 17.6197C18.65 17.5497 18.525 17.5847 18.265 17.4197C18.005 17.2447 17.77 17.3047 17.77 17.3047C18.03 17.5697 17.68 17.7347 17.68 17.7347C17.55 17.8147 17.73 17.9097 17.73 17.9097C17.57 17.9397 17.55 17.7797 17.55 17.7797C17.465 17.7597 17.34 17.8597 17.34 17.8597C17.35 17.6997 17.57 17.7797 17.57 17.6097C17.58 17.4347 17.37 17.2997 16.755 17.3847C16.135 17.4697 15.955 17.2747 15.955 17.2747C15.905 17.2747 15.895 17.3247 15.895 17.3247C15.995 17.4247 16.04 17.4647 16.025 17.5347C16.005 17.5997 16.055 17.6247 16.055 17.6247C15.94 17.6147 15.935 17.4847 15.935 17.4847C15.935 17.5397 15.91 17.5447 15.87 17.5997C15.83 17.6547 15.87 17.7347 15.87 17.7347C15.82 17.6947 15.735 17.6447 15.82 17.5197C15.88 17.4297 15.685 17.3097 15.685 17.3097C15.61 17.2347 15.405 17.3097 15.405 17.3097C15.2874 17.3348 15.1656 17.3311 15.0498 17.2989C14.934 17.2667 14.8277 17.2069 14.74 17.1247C14.69 17.1247 14.595 17.0947 14.595 17.0947C14.15 17.2947 13.76 16.8647 13.76 16.8647C13.425 16.9297 13.27 16.7647 13.17 16.6047C13.1124 16.4957 13.0212 16.408 12.91 16.3547C12.78 16.2747 12.65 16.0447 12.78 15.9197C12.88 15.8147 12.855 15.7897 12.855 15.7897C12.68 15.4947 13.16 15.4047 13.17 15.3297C13.185 15.2297 13.285 15.1647 13.395 15.1597C13.505 15.1497 13.505 15.1597 13.58 15.0897C13.645 15.0147 13.78 15.1047 13.78 15.1047C13.815 15.0847 14.055 14.8997 14.265 14.9947C14.48 15.0897 14.66 15.0247 14.66 15.0247C14.81 14.9897 16.06 14.8247 16.06 14.8247C16.135 14.6997 16.195 14.5547 16.54 14.4747C16.885 14.3947 17.14 14.1747 17.14 14.1747C17.08 14.1147 16.98 14.1147 16.93 14.1097C16.875 14.1097 16.77 14.0097 16.77 14.0097C16.705 14.0397 16.67 14.0247 16.22 14.2997C15.815 14.5497 15.805 14.0597 15.805 14.0597H14.92C14.905 14.2447 14.77 14.3197 14.77 14.3197L14.445 14.3347C14.265 14.2447 14.265 13.9247 14.265 13.9247C13.295 13.9397 12.76 14.2847 12.76 14.2847C11.66 13.7247 10.8 13.5947 10.8 13.5947C11.5043 13.5437 12.1945 13.3712 12.84 13.0847C13.2723 13.3463 13.7609 13.5006 14.265 13.5347C14.29 13.2647 14.47 13.1997 14.47 13.1997L14.67 13.2197Z" fill="black"/>
<path d="M13.0851 15.4296C12.8101 15.5896 12.8601 15.6796 12.8851 15.7296C12.9101 15.7796 12.9101 15.8296 12.8351 15.9096C12.7601 15.9846 12.7651 16.0096 12.7651 16.0096C12.7801 16.2796 12.9651 16.3396 13.0501 16.4096C13.1201 16.4596 13.2301 16.6346 13.2301 16.6346C13.3751 16.8396 13.5251 16.8446 13.6351 16.8446C13.7501 16.8446 13.7351 16.8296 13.6851 16.7796L13.5151 16.6446C13.6264 16.6919 13.7269 16.7617 13.8101 16.8496C14.0901 17.1596 14.3501 17.1196 14.4651 17.1096C14.5801 17.0946 14.5651 17.0246 14.5651 17.0246C14.5261 17.0125 14.4858 17.0058 14.4451 17.0046C14.0201 16.9646 13.8951 16.6846 13.8951 16.6846C14.1109 16.8745 14.3876 16.9809 14.6751 16.9846C14.7951 16.9796 14.7901 17.0146 14.7601 17.0246L14.6401 17.0146C14.5851 17.0146 14.5851 17.0296 14.5951 17.0546C14.6101 17.0746 14.6651 17.0746 14.7301 17.0746C14.8001 17.0746 14.7451 17.0796 14.9201 17.2146C15.1001 17.3546 15.5351 17.2396 15.5351 17.2396C15.2501 17.1746 15.2151 17.0396 15.2151 17.0396C14.8301 17.0896 14.6751 16.8596 14.6751 16.8596C14.5879 16.7919 14.4941 16.7333 14.3951 16.6846C14.3344 16.6579 14.2805 16.618 14.2373 16.5679C14.194 16.5177 14.1625 16.4585 14.1451 16.3946C14.2101 16.4846 14.3301 16.5846 14.4801 16.6246C14.6301 16.6646 14.6701 16.6846 14.6701 16.6846C14.6316 16.6933 14.5914 16.6898 14.5551 16.6746C14.4051 16.6246 14.4901 16.6896 14.4901 16.6896C14.6601 16.8246 14.7051 16.8146 14.7051 16.8146C15.1351 16.8596 14.9201 16.6846 14.9201 16.6846C15.2301 16.7596 15.2801 16.6446 15.2801 16.6446C15.3451 16.7796 15.5801 16.7296 15.5801 16.7296C15.2701 16.8796 15.5051 16.8346 15.5051 16.8346C15.8201 16.7796 15.8851 16.8596 15.8851 16.8596C15.9651 16.9346 16.0551 16.9296 16.0551 16.9296C16.0551 16.9296 16.1151 16.9296 16.2301 16.9496C16.3501 16.9746 16.5401 17.0746 16.7101 17.0596C16.8851 17.0346 16.9101 17.0896 16.9101 17.0896C16.8801 17.0746 16.8001 17.0646 16.6701 17.1246C16.5351 17.1896 16.3001 17.2046 15.9601 17.1246C15.6201 17.0446 15.5901 17.0596 15.5901 17.0596C15.666 17.1072 15.7253 17.177 15.7601 17.2596C15.7751 17.3196 15.8351 17.3196 15.8351 17.3196C15.8601 17.2446 15.9601 17.2146 15.9601 17.2146C16.0382 17.27 16.122 17.317 16.2101 17.3546C16.2301 17.3196 16.2101 17.2896 16.2101 17.2896C16.3401 17.4146 16.4901 17.3746 16.4901 17.3746C16.5301 17.3496 16.5201 17.2746 16.5201 17.2746C16.5701 17.2746 16.5801 17.3046 16.6201 17.3346C16.6551 17.3546 16.7701 17.3396 16.7701 17.3396C16.7301 17.3196 16.6951 17.2546 16.6951 17.2546C16.8701 17.1396 17.2451 17.1896 17.2451 17.1896C17.5101 17.2396 17.4801 17.4146 17.4801 17.4146C17.5272 17.4425 17.5694 17.478 17.6051 17.5196C17.6301 17.4596 17.6051 17.3946 17.6051 17.3946C17.7351 17.4546 17.7551 17.5946 17.7551 17.5946C17.9051 17.4346 17.6201 17.2546 17.6201 17.2546C17.7551 17.2346 17.9051 17.2446 17.9951 17.2546C18.117 17.2758 18.2309 17.3293 18.3251 17.4096C18.4301 17.4946 18.6201 17.5346 18.6201 17.5346C18.6151 17.4996 18.5101 17.4346 18.4851 17.4246C18.4651 17.4146 18.4551 17.3796 18.4551 17.3796C18.5501 17.3996 18.6101 17.3896 18.6101 17.3896C18.2901 17.1896 18.2051 17.0946 18.2051 17.0946C18.3251 17.1096 18.3951 17.0346 18.3951 17.0346C18.1401 17.0346 18.1251 16.9746 18.1251 16.9746C18.1601 16.9796 18.2801 17.0096 18.4351 16.9796C18.5901 16.9496 18.7951 16.9796 18.7951 16.9796C18.6851 16.7996 18.2601 16.8296 18.1201 16.8396C17.9801 16.8496 17.9301 16.8296 17.9301 16.8296C17.9501 16.8196 17.9751 16.7996 18.0801 16.7946C18.1901 16.7946 18.2951 16.8046 18.4201 16.7146C18.5351 16.6346 18.7051 16.6646 18.7051 16.6646C18.6651 16.5846 18.4701 16.5546 18.3051 16.6646C18.1301 16.7696 17.9801 16.7396 17.9801 16.7396C18.2451 16.6996 18.3251 16.6046 18.3251 16.6046C18.2451 16.5846 18.2001 16.6096 18.0351 16.6446C17.8751 16.6746 17.8351 16.6196 17.8351 16.6196C18.0101 16.5146 18.1351 16.4696 18.1351 16.4696C17.9851 16.4396 17.8451 16.3696 17.8451 16.3696C17.6851 16.5196 17.5651 16.5996 17.2601 16.4496C16.9601 16.2896 16.8001 16.3096 16.8001 16.3096C16.9142 16.246 17.0437 16.2152 17.1743 16.2205C17.3048 16.2258 17.4314 16.267 17.5401 16.3396C17.7401 16.4546 17.7901 16.3596 17.7901 16.3596C17.7301 16.3246 17.7401 16.2846 17.7401 16.2846C18.2201 16.5296 18.4301 16.3846 18.5351 16.3096C18.6401 16.2346 18.4851 16.1396 18.4851 16.1396C18.4751 16.2896 18.2851 16.3696 18.1251 16.3146C17.9751 16.2646 17.8251 16.1946 17.6051 16.0996C17.3851 16.0096 17.1051 16.0596 16.8501 16.1096C16.5901 16.1646 16.5551 16.1396 16.5301 16.1196C16.5051 16.0996 16.4951 16.0346 16.3601 16.0896C16.2301 16.1446 15.9201 15.9996 15.7301 15.9546C15.5401 15.9046 15.2251 15.9296 14.9551 16.0796C14.6851 16.2346 14.5451 16.1946 14.4651 16.1596C14.3851 16.1196 14.3301 16.0196 14.4201 15.9296C14.5101 15.8396 14.5201 15.8146 14.5101 15.6796C14.5001 15.5496 14.3701 15.4696 14.3701 15.4696C14.4901 15.3446 14.5201 15.3196 14.4801 15.2696C14.4401 15.2096 14.5001 15.2096 14.5701 15.1796C14.6401 15.1496 14.6101 15.1446 14.5951 15.1046C14.5751 15.0646 14.5351 15.0746 14.5351 15.0746C14.3801 15.0796 14.2901 15.0346 14.2901 15.0346C14.0301 14.9146 13.7851 15.1496 13.7851 15.1496C13.6351 15.0346 13.6001 15.1146 13.5751 15.1396C13.5501 15.1646 13.4951 15.1896 13.4251 15.1896C13.3651 15.1996 13.2701 15.2246 13.2351 15.2846C13.2351 15.2846 13.2051 15.3346 13.2401 15.3846C13.2401 15.3846 13.2801 15.4446 13.2101 15.5196C13.1351 15.5946 13.1101 15.6096 13.1351 15.6846C13.1551 15.7496 13.1501 15.8046 13.1201 15.8496C13.1201 15.8496 13.0851 15.8146 13.0951 15.7646C13.1051 15.7146 13.1051 15.6846 13.0951 15.6646C13.0951 15.6646 13.0201 15.7346 13.0051 15.7846C13.0051 15.7846 12.9751 15.7046 13.0851 15.5996C13.1851 15.4996 13.2351 15.4396 13.2051 15.3996C13.1851 15.3696 13.1051 15.4196 13.0901 15.4296H13.0851Z" fill="#FFC221"/>
<path d="M13.39 16.6C13.39 16.6 13.255 16.5 13.27 16.355C13.285 16.22 13.285 16.205 13.27 16.17C13.27 16.17 13.245 16.185 13.25 16.24C13.25 16.29 13.24 16.345 13.235 16.355C13.235 16.355 13.17 16.24 13.135 16.215C13.135 16.215 13.165 16.095 13.125 16.045C13.09 15.99 13.05 15.985 13.005 16.005C12.945 16.025 12.9 16.08 13.105 16.245C13.105 16.245 13.18 16.31 13.23 16.44C13.28 16.57 13.37 16.59 13.385 16.6H13.39ZM14.04 16.21C14.04 16.21 14.035 16.135 14.105 15.995C14.1297 15.9529 14.1439 15.9055 14.1465 15.8568C14.1492 15.8081 14.14 15.7595 14.12 15.715C14.105 15.675 14.09 15.69 14.165 15.63C14.25 15.555 14.13 15.46 14.28 15.33C14.28 15.33 14.37 15.25 14.395 15.215C14.395 15.215 14.245 15.295 14.135 15.34C14.035 15.38 13.655 15.57 13.735 15.695C13.825 15.82 13.815 15.83 13.8 15.885C13.8 15.885 13.57 15.76 13.65 15.565C13.65 15.565 13.69 15.49 13.785 15.395C13.875 15.315 13.825 15.415 14 15.31C14 15.31 14.135 15.23 14.215 15.115C14.215 15.115 14.115 15.175 14.085 15.185C14.085 15.185 13.885 15.225 13.795 15.31C13.715 15.395 13.54 15.545 13.595 15.71C13.595 15.71 13.395 15.69 13.345 15.475C13.345 15.475 12.965 15.945 13.765 16.165C13.765 16.165 13.915 16.205 14.045 16.215L14.04 16.21Z" fill="black"/>
<path d="M17.55 14.6497C17.85 14.5997 19.57 14.3397 19.73 14.3247C19.9 14.3097 19.965 14.2847 20.025 14.4247C20.09 14.5747 19.785 14.5797 19.785 14.5797L17.73 14.8147C17.63 14.8247 17.605 14.7847 17.605 14.7847L17.53 14.6847C17.53 14.6847 17.505 14.6547 17.55 14.6447V14.6497Z" fill="#FFC221"/>
<path d="M13.335 15.5846C13.335 15.5846 13.115 16.0496 13.985 16.1646C13.985 16.1646 13.99 16.1146 14.025 16.0396C14.065 15.9646 14.14 15.8146 14.065 15.7196C13.995 15.6246 14.125 15.6746 14.14 15.5496C14.165 15.4246 14.13 15.4396 14.19 15.3596C14.19 15.3596 13.92 15.4596 13.81 15.5846C13.71 15.7046 13.955 15.7946 13.81 15.9296C13.81 15.9296 13.685 15.8796 13.61 15.7496C13.61 15.7496 13.445 15.7496 13.335 15.5846Z" fill="#5A3719"/>
<path d="M14.195 16.1597C14.195 16.1597 14.41 16.3447 14.665 16.3397C14.92 16.3247 15.035 16.2597 15.1 16.1597C15.1 16.1597 15.15 16.2347 15.15 16.2897C15.15 16.2897 15.37 16.1047 15.75 16.2647C16.13 16.4247 16.02 16.3797 16.105 16.3897C16.105 16.3897 15.94 16.3647 15.57 16.5347C15.185 16.7097 14.185 16.6497 14.19 16.1597H14.195Z" fill="black"/>
<path d="M13.8351 15.3299C13.8351 15.3299 13.9301 15.3449 14.0251 15.2349C14.0251 15.2349 13.8951 15.2599 13.8351 15.3349V15.3299ZM13.1001 16.1999C13.1001 16.1999 12.9201 16.0599 13.0351 16.0299C13.0351 16.0299 13.1201 16.0149 13.1001 16.1999Z" fill="#5A3719"/>
<path d="M17.0299 17.0898C17.0299 17.0898 17.1299 16.9148 17.4049 16.9148C17.6799 16.9148 17.7099 17.0448 18.0599 17.0648C18.0599 17.0648 17.6399 17.1848 17.3499 17.0798C17.1999 17.0248 17.0599 17.0698 17.0299 17.0898Z" fill="black"/>
<path d="M14.285 16.2849C14.285 16.2849 14.705 16.5349 15.07 16.2599C15.07 16.2599 15.1 16.2899 15.13 16.3599C15.13 16.3599 15.41 16.0899 15.905 16.3799C15.905 16.3799 15.845 16.3749 15.61 16.4699C15.305 16.6049 14.54 16.6949 14.285 16.2799V16.2849Z" fill="#5A3719"/>
<path d="M15.885 16.5347C15.885 16.5347 16.285 16.5847 16.62 16.5647C16.825 16.5547 17.05 16.5147 16.94 16.5847C16.825 16.6497 16.885 16.6597 17.36 16.6197C17.83 16.5697 17.355 16.7047 17.68 16.7497C17.68 16.7497 16.885 17.1497 15.885 16.5347Z" fill="black"/>
<path d="M16.9299 16.2849C16.9299 16.2849 17.1599 16.1999 17.3799 16.2999C17.5949 16.3999 17.5599 16.4099 17.7049 16.4249C17.7049 16.4249 17.6049 16.5699 17.3699 16.4549C17.1299 16.3399 17.0699 16.3149 16.9299 16.2849ZM17.1899 16.9999C17.1899 16.9999 17.4199 16.8849 17.6699 16.9999C17.6999 17.0199 17.7699 17.0499 17.8349 17.0599C17.8349 17.0599 17.6449 17.1249 17.4449 17.0599C17.3599 17.0349 17.2949 17.0149 17.1899 16.9999ZM16.0549 16.5899C16.0549 16.5899 16.5699 16.6399 16.8449 16.5849C16.8449 16.5849 16.5249 16.7349 17.3299 16.6699C17.3299 16.6699 17.5049 16.6499 17.4799 16.6749C17.4649 16.6999 17.4499 16.7249 17.5399 16.7499C17.5399 16.7499 16.9399 17.0199 16.0549 16.5899Z" fill="#5A3719"/>
<path d="M13.505 16.1595C13.505 16.1595 13.515 16.1945 13.625 16.2445C13.7112 16.2858 13.7815 16.3543 13.825 16.4395C13.8424 16.4746 13.8669 16.5056 13.8971 16.5306C13.9272 16.5556 13.9623 16.5739 14 16.5845C14 16.5845 13.6 16.6695 13.42 16.4545C13.42 16.4545 13.285 16.3045 13.5 16.1545" fill="black"/>
<path d="M16.655 17.0796C16.655 17.0796 16.5 17.0696 16.28 16.9946C16.065 16.9196 16.01 16.9846 15.885 16.8946C15.765 16.7996 15.52 16.8596 15.475 16.8646C15.425 16.8696 15.295 16.8646 15.46 16.7596C15.46 16.7596 15.33 16.7596 15.28 16.6896C15.28 16.6896 15.22 16.7496 15 16.7296C15 16.7296 15.1 16.8796 14.7 16.8346C14.7671 16.912 14.8557 16.9676 14.9546 16.9943C15.0535 17.021 15.158 17.0176 15.255 16.9846C15.255 16.9946 15.23 17.1096 15.405 17.1596C15.595 17.2046 15.63 17.2396 15.725 17.2746C15.725 17.2746 15.74 17.1996 15.495 17.0246C15.495 17.0246 15.625 17.0146 15.815 17.0596C16.005 17.1046 16.425 17.2146 16.655 17.0796ZM16.755 17.2646C16.755 17.2646 16.795 17.3546 16.915 17.3346C17.0851 17.2953 17.2631 17.3092 17.425 17.3746C17.425 17.3746 17.46 17.2146 17.075 17.2046C17.075 17.2046 16.835 17.2146 16.755 17.2646ZM13.495 16.2146C13.495 16.2146 13.345 16.3396 13.48 16.4646C13.6 16.5796 13.79 16.5696 13.88 16.5646C13.88 16.5646 13.83 16.5346 13.78 16.4646C13.73 16.3896 13.73 16.3396 13.63 16.2946C13.525 16.2496 13.515 16.2396 13.495 16.2146ZM13.345 15.5846C13.345 15.5846 13.115 16.0496 13.995 16.1646C13.995 16.1646 13.995 16.1146 14.03 16.0396C14.06 15.9646 14.135 15.8146 14.07 15.7196C13.99 15.6246 14.125 15.6746 14.145 15.5496C14.165 15.4246 14.13 15.4396 14.195 15.3596C14.195 15.3596 13.92 15.4596 13.81 15.5846C13.71 15.7046 13.955 15.7946 13.81 15.9296C13.81 15.9296 13.685 15.8796 13.61 15.7496C13.61 15.7496 13.445 15.7496 13.335 15.5846H13.345Z" fill="#5A3719"/>
<path d="M15.635 16.6646C15.635 16.6646 15.82 16.6346 16.285 16.8096C16.755 16.9796 16.95 16.9396 17.015 16.9346C17.015 16.9346 16.755 17.0746 16.345 16.8946C15.985 16.7346 15.965 16.7946 15.635 16.6646Z" fill="black"/>
<path d="M18.5599 16.5599C18.5599 16.5599 18.6599 16.5599 18.7299 16.5849C18.7299 16.5849 18.7649 16.5499 18.8649 16.5349C18.8649 16.5349 18.7999 16.4749 18.5599 16.5599ZM18.2399 16.2999C18.2399 16.2999 18.3449 16.2999 18.3799 16.2399C18.3799 16.2399 18.3249 16.1749 18.2399 16.1399C18.2399 16.1399 18.2599 16.2199 18.2399 16.2999ZM14.6549 15.1099C14.6549 15.1099 14.6299 15.0599 14.7449 15.0399L16.3099 14.8149C16.3099 14.8149 16.3849 14.8149 16.3949 14.8649C16.4099 14.9199 16.3899 14.9599 16.0349 14.9999L14.7549 15.1599C14.7549 15.1599 14.6599 15.1749 14.6549 15.1099Z" fill="#FFC221"/>
<path d="M16.07 15.0446C16.07 15.0446 16.07 15.2496 16.28 15.2796C16.48 15.3096 16.555 15.2696 16.605 15.1646C16.62 15.1296 16.685 14.9146 16.595 14.8996C16.555 14.8946 16.495 14.8996 16.45 14.9146C16.38 14.9496 16.315 14.9846 16.335 15.0146C16.385 15.0946 16.395 15.1146 16.385 15.1146C16.325 15.1296 16.295 15.0846 16.285 15.0546C16.27 15.0146 16.31 14.9946 16.175 15.0146C16.115 15.0196 16.075 15.0196 16.075 15.0446H16.07ZM16.945 14.8846C17.045 14.8996 17.04 15.1246 16.915 15.2296C16.775 15.3396 16.645 15.2946 16.645 15.2946C16.575 15.2696 16.585 15.2746 16.64 15.1946C16.69 15.1196 16.715 15.0146 16.685 14.9446C16.675 14.9196 16.7 14.8996 16.735 14.8946C16.735 14.8946 16.835 14.8746 16.945 14.8846Z" fill="#FFC221"/>
<path d="M17.0351 14.9048C17.0351 14.9048 17.1151 15.0048 17.0151 15.1798C17.0151 15.1798 16.9751 15.2298 17.0701 15.2248C17.1601 15.2148 17.3751 15.1148 17.3551 14.9848C17.3551 14.9848 17.3451 14.9548 17.2901 14.9548C17.2351 14.9548 17.2801 14.9298 17.3051 14.9148C17.3251 14.9148 17.4001 14.8848 17.2101 14.7648C17.2101 14.7648 17.1801 14.7348 17.1451 14.7498C17.1151 14.7598 17.0151 14.7998 17.0151 14.8598C17.0151 14.8848 17.0351 14.9098 17.0351 14.9098V14.9048Z" fill="#FFC221"/>
<path d="M17.2402 14.7448C17.2402 14.7448 17.3902 14.8498 17.3902 14.8848C17.3902 14.9148 17.3752 14.9598 17.4152 14.9498C17.4552 14.9498 17.6152 14.9148 17.5652 14.8098C17.5252 14.7048 17.4801 14.6598 17.4051 14.6398C17.3301 14.6098 17.3101 14.6448 17.2451 14.6948C17.2451 14.6948 17.2002 14.7248 17.2402 14.7448ZM16.4351 14.8948C16.4351 14.8948 16.4601 14.8198 16.3251 14.7848C16.3251 14.7848 16.3801 14.7348 16.4951 14.7648C16.6051 14.7848 16.5951 14.8648 16.5951 14.8698C16.5951 14.8698 16.5051 14.8698 16.4351 14.8948ZM16.7251 14.8748C16.7251 14.8748 16.8751 14.8498 16.9501 14.8548C16.9501 14.8548 16.8702 14.6898 16.6652 14.7398C16.6652 14.7398 16.7401 14.8298 16.7251 14.8748ZM16.9902 14.8348C16.9902 14.8348 16.9901 14.7798 17.1201 14.7298C17.1201 14.7298 17.0601 14.6698 16.9701 14.6798C16.8701 14.6798 16.8451 14.7148 16.8451 14.7148C16.8451 14.7148 16.9602 14.7548 16.9902 14.8348ZM17.0402 14.6548C17.0402 14.6548 17.1251 14.6748 17.1751 14.7198C17.1751 14.7198 17.2502 14.6348 17.3152 14.6198C17.3152 14.6198 17.1902 14.5498 17.0402 14.6548Z" fill="#FFC221"/>
<path d="M12.76 14.2446C12.76 14.2446 13.12 13.9346 13.32 13.9746C13.52 14.0146 13.42 13.9846 13.64 13.9496C13.86 13.9196 14.09 13.8946 14.18 13.9046C14.18 13.9046 13.91 13.7146 13.435 13.7196C13.435 13.7196 13.105 13.8346 12.87 13.9846C12.87 13.9846 12.425 13.7396 11.97 13.8846C11.97 13.8846 12.465 14.0696 12.76 14.2446Z" fill="#5A3719"/>
<path d="M16.5799 14.7698L16.6399 14.7598C16.6399 14.7598 16.7399 14.8848 16.6699 14.8848C16.6099 14.8848 16.6299 14.8698 16.6199 14.8348C16.6144 14.8092 16.6003 14.7863 16.5799 14.7698ZM16.1299 14.7798C16.1299 14.7798 16.0899 14.8298 16.1599 14.8198C16.2449 14.8048 16.2299 14.8198 16.3149 14.7548C16.3149 14.7548 16.3749 14.6998 16.4749 14.7348C16.4749 14.7348 16.5649 14.7648 16.6349 14.7298C16.7049 14.6898 16.7199 14.6948 16.7599 14.6998C16.7999 14.6998 16.7999 14.7098 16.8449 14.6698C16.8949 14.6348 16.9849 14.6648 17.0399 14.6198C17.0949 14.5698 17.1649 14.6098 17.0399 14.5198C17.0399 14.5198 17.0149 14.4948 17.0149 14.4698C17.0149 14.4698 17.0649 14.4898 17.1049 14.5198C17.1449 14.5598 17.2049 14.5448 17.2149 14.5398C17.2149 14.5398 17.2249 14.4248 17.3299 14.3248C17.4449 14.2248 17.4449 14.2148 17.3799 14.2148C17.3149 14.2148 17.2049 14.1848 17.1649 14.2148C17.1249 14.2448 16.8049 14.4548 16.6149 14.4898C16.4249 14.5248 16.2499 14.5798 16.1299 14.7798ZM11.0649 13.6098C11.0649 13.6098 11.6499 13.7598 11.7799 13.8198C11.7799 13.8198 11.8099 13.7248 11.5449 13.6498C11.5449 13.6498 12.1899 13.6298 12.8649 13.9398C12.8649 13.9398 13.1949 13.6598 14.2499 13.7448C14.2499 13.7448 14.2499 13.6548 14.2599 13.5798C14.2599 13.5798 13.5199 13.5598 12.8399 13.1448C12.8399 13.1448 12.2249 13.4448 11.0649 13.6098ZM14.2999 13.8898C14.2649 13.2998 14.4899 13.2398 14.4899 13.2398C14.4899 13.2398 14.5949 13.2398 14.7099 13.2648C14.7099 13.2648 14.5299 13.4798 14.5799 13.9048C14.5799 13.9048 14.5999 13.9698 14.4449 13.9698C14.2899 13.9698 14.2999 13.8948 14.2999 13.8948V13.8898Z" fill="#FFC221"/>
<path d="M14.4599 14.2846C14.4599 14.2846 14.3449 14.1696 14.3349 14.0396C14.3349 14.0396 14.3349 14.0096 14.4449 14.0096C14.5599 14.0096 14.5699 13.9996 14.5949 14.0646C14.6249 14.1296 14.6949 14.2646 14.7099 14.2796L14.4599 14.2846Z" fill="#5A3719"/>
<path d="M14.6951 13.9846C14.6858 13.91 14.6824 13.8348 14.6851 13.7596C14.6901 13.4296 14.7451 13.4596 14.7701 13.4996H14.8851C14.8851 13.4996 14.8001 13.1296 14.7001 13.3496C14.6267 13.5125 14.6007 13.6927 14.6251 13.8696C14.6301 13.9696 14.6401 14.0346 14.6551 14.0696L14.6951 13.9846Z" fill="#FFC221"/>
<path d="M15.98 13.9849C15.98 13.9849 16.195 14.0249 15.865 14.0999C15.865 14.0999 15.88 14.5099 16.275 14.2249C16.275 14.2249 16.51 14.0749 16.675 14.0149C16.675 14.0149 16.755 13.9849 16.745 13.9249C16.745 13.9249 16.755 13.8499 16.67 13.8699C16.67 13.8699 16.6 13.8699 16.555 13.8549C16.555 13.8549 16.505 13.7949 16.475 13.8149C16.445 13.8399 16.37 13.8249 16.43 13.8999C16.49 13.9699 16.505 13.9499 16.53 13.9299C16.56 13.9099 16.685 13.8599 16.575 13.9649C16.465 14.0699 16.365 13.9049 16.325 13.8749L15.98 13.9849ZM14.88 14.0349H14.78C14.78 14.0349 14.73 14.1149 14.695 13.9849L14.66 14.0649C14.66 14.0649 14.775 14.5049 14.88 14.0349Z" fill="#5A3719"/>
<path d="M14.74 13.5296C14.74 13.5296 14.69 13.8196 14.755 13.9896L15.81 14.0146C15.81 14.0146 15.8 13.8146 15.81 13.5296H15.67C15.67 13.5296 15.645 13.7596 15.67 13.9046H15.645C15.645 13.9046 15.625 13.7046 15.645 13.5296H15.52C15.52 13.5296 15.5 13.7446 15.52 13.9046H15.495C15.495 13.9046 15.475 13.7196 15.495 13.5296H15.37C15.37 13.5296 15.345 13.7246 15.37 13.9046H15.34C15.34 13.9046 15.315 13.7096 15.34 13.5296H15.205C15.205 13.5296 15.175 13.7096 15.205 13.9046H15.18C15.18 13.9046 15.15 13.7246 15.18 13.5296H15.045C15.045 13.5296 15.015 13.7396 15.045 13.9046H15.015C15.015 13.9046 14.995 13.7046 15.02 13.5296H14.895C14.895 13.5296 14.86 13.7046 14.895 13.9046H14.86C14.86 13.9046 14.84 13.7546 14.87 13.5296H14.74ZM15.855 14.0496C15.855 14.0496 15.83 13.5396 15.925 13.3996C16.025 13.2696 16.05 13.2996 16.215 13.3996C16.385 13.5096 16.6 13.6246 16.64 13.6396C16.67 13.6546 16.72 13.6646 16.72 13.7596C16.72 13.8546 16.735 13.8796 16.59 13.7596C16.5509 13.7217 16.5051 13.6912 16.455 13.6696C16.325 13.6246 16.485 13.6946 16.53 13.7646C16.57 13.8146 16.605 13.8146 16.5 13.8396C16.2829 13.9029 16.0678 13.973 15.855 14.0496Z" fill="#FFC221"/>
<path d="M16.22 13.6799C16.22 13.6799 16.145 13.5899 16.245 13.5649C16.345 13.5449 16.35 13.7149 16.37 13.8199C16.385 13.9299 16.245 13.7149 16.23 13.6849L16.22 13.6799ZM16.085 14.1299C16.085 14.1299 15.97 14.1749 16.05 14.2099C16.12 14.2449 16.325 14.0749 16.26 14.0849C16.18 14.0999 16.085 14.1349 16.085 14.1349V14.1299ZM16.235 13.9799C16.235 13.9799 16.335 13.9649 16.315 14.0049C16.3 14.0549 16.265 14.0249 16.245 14.0149C16.23 14.0049 16.165 13.9799 16.24 13.9749L16.235 13.9799Z" fill="black"/>
<path d="M16.77 13.8399C16.77 13.8399 16.8 14.0399 16.97 14.0899C16.97 14.0899 17.07 14.1099 17.045 14.0249C17.045 14.0249 17.03 13.9499 17.015 13.9249C17 13.8899 16.935 13.8749 16.925 13.8699C16.915 13.8699 16.91 13.8449 16.955 13.8599C17.005 13.8749 17.005 13.8799 17.005 13.8449C17.005 13.8099 16.975 13.8249 16.935 13.8049C16.915 13.7949 16.935 13.7849 16.95 13.7899C16.97 13.7899 17.015 13.8049 17.015 13.7399C17.015 13.7399 17.02 13.6999 16.97 13.6999C16.915 13.6999 16.92 13.6699 16.935 13.6649C16.95 13.6649 17.01 13.7049 17.03 13.6349C17.045 13.5699 16.95 13.6099 16.96 13.5749C16.975 13.5349 17.045 13.5899 17.045 13.5499C17.055 13.5099 17.11 13.4949 17.015 13.4799C16.97 13.4749 17.015 13.4499 17.065 13.4599C17.115 13.4649 17.145 13.3999 17.18 13.3799C17.21 13.3549 17.39 13.2499 17.15 13.2849C16.915 13.3199 16.845 13.4349 16.835 13.4599C16.7754 13.5771 16.7527 13.7096 16.77 13.8399Z" fill="#FFC221"/>
<path d="M17.32 13.9895C17.355 13.9895 17.38 13.9895 17.39 14.0145C17.43 14.0945 17.34 14.0645 17.29 14.1245C17.24 14.1845 17.24 14.1745 17.17 14.1495C17.1 14.1295 17.07 14.0245 17.07 14.0245C17.07 13.9895 17.095 13.9845 17.13 13.9945C17.13 13.9945 17.245 14.0045 17.325 13.9945L17.32 13.9895ZM17.07 13.9495C17.07 13.9495 17.07 13.9695 17.115 13.9745C17.15 13.9745 17.265 13.9895 17.34 13.9695C17.34 13.9695 17.36 13.9645 17.35 13.9195C17.35 13.9195 17.35 13.8845 17.29 13.8995C17.225 13.9095 17.14 13.8995 17.105 13.8945C17.075 13.8845 17.055 13.8945 17.065 13.9445L17.07 13.9495ZM17.06 13.8045C17.06 13.8045 17.055 13.8695 17.115 13.8745C17.18 13.8845 17.26 13.8845 17.29 13.8745C17.315 13.8745 17.36 13.8645 17.365 13.8245C17.365 13.7895 17.375 13.7645 17.3 13.7845C17.225 13.8045 17.13 13.7845 17.12 13.7845C17.115 13.7845 17.06 13.7695 17.06 13.8045ZM17.085 13.6795C17.085 13.6795 17.07 13.7095 17.075 13.7395C17.075 13.7645 17.12 13.7745 17.2 13.7745C17.28 13.7745 17.35 13.7645 17.36 13.7395C17.365 13.7045 17.385 13.6745 17.325 13.6895C17.26 13.6945 17.175 13.6995 17.145 13.6895C17.115 13.6745 17.09 13.6695 17.085 13.6795Z" fill="#FFC221"/>
<path d="M20.075 13.9996C20.075 13.9996 20.075 14.0496 20.12 14.1096L17.86 14.0446C17.86 14.0446 17.89 14.0246 17.9 13.9346L20.075 13.9996Z" fill="#5A3719"/>
<path d="M17.105 13.5898C17.105 13.5898 17.085 13.6448 17.125 13.6598C17.16 13.6698 17.235 13.6798 17.325 13.6648C17.325 13.6648 17.375 13.6648 17.39 13.6148C17.405 13.5648 17.405 13.5948 17.275 13.5748C17.275 13.5748 17.235 13.5598 17.35 13.5598C17.35 13.5598 17.42 13.5598 17.425 13.5498C17.44 13.5398 17.525 13.4648 17.41 13.4748C17.295 13.4748 17.355 13.4498 17.41 13.4498C17.47 13.4498 17.49 13.4648 17.51 13.4498C17.53 13.4348 17.51 13.4398 17.475 13.4098C17.44 13.3798 17.47 13.3848 17.49 13.4048C17.515 13.4198 17.53 13.4298 17.555 13.4048C17.58 13.3798 17.535 13.3448 17.555 13.3548C17.57 13.3548 17.585 13.3948 17.655 13.3548C17.735 13.3198 17.83 13.3398 17.855 13.3548C17.885 13.3798 17.965 13.4048 18.01 13.3548C18.06 13.3148 17.955 13.2698 17.995 13.2648C18.045 13.2598 18.075 13.2748 18.09 13.2398C18.11 13.1998 18.02 13.1698 18.105 13.1498C18.185 13.1248 18.115 12.8998 18.09 12.8748C18.09 12.8748 17.995 12.9298 17.9 13.0898C17.795 13.2548 17.735 13.3498 17.6 13.2998C17.405 13.2248 17.3 13.3298 17.275 13.3498C17.225 13.3798 17.375 13.3898 17.285 13.3948C17.2 13.3948 17.2 13.4048 17.195 13.4148C17.185 13.4298 17.195 13.4398 17.21 13.4448C17.225 13.4448 17.255 13.4748 17.205 13.4748C17.155 13.4748 17.115 13.4598 17.13 13.5198C17.13 13.5198 17.13 13.5298 17.16 13.5348C17.19 13.5348 17.2 13.5748 17.145 13.5748C17.105 13.5748 17.105 13.5848 17.105 13.5898ZM17.31 14.1548C17.31 14.1548 17.275 14.1798 17.325 14.1848C17.385 14.1848 17.41 14.1998 17.43 14.1698C17.45 14.1398 17.52 14.1498 17.47 14.1098C17.42 14.0698 17.39 14.0948 17.31 14.1598V14.1548Z" fill="#FFC221"/>
<path d="M17.545 13.4749C17.545 13.4749 17.735 13.2999 17.89 13.4149C18.05 13.5399 18.06 13.5549 18.065 13.5599C18.065 13.5599 18.085 13.5749 18.045 13.6099C18 13.6499 18.045 13.6499 18.09 13.6249C18.135 13.5999 18.14 13.6249 18.16 13.6499C18.185 13.6749 18.215 13.6899 18.145 13.6899H17.915C17.915 13.6899 17.81 13.6999 17.865 13.6549C17.915 13.6099 17.905 13.5599 17.88 13.5549C17.85 13.5549 17.88 13.5849 17.865 13.6049C17.845 13.6249 17.81 13.6399 17.77 13.6399C17.73 13.6399 17.7 13.6699 17.76 13.6899C17.815 13.7099 17.75 13.7249 17.72 13.7249C17.69 13.7249 17.545 13.7349 17.695 13.7549C17.845 13.7699 17.68 13.7699 17.795 13.8299C17.915 13.8999 17.825 14.0449 17.78 14.0599C17.78 14.0599 17.73 14.0849 17.79 14.0799C17.855 14.0699 17.89 14.0649 17.84 14.0999C17.8 14.1299 17.71 14.2449 17.59 14.1599C17.59 14.1599 17.53 14.1299 17.63 14.1249C17.73 14.1249 17.55 14.0999 17.515 14.0749C17.49 14.0599 17.365 13.9399 17.44 13.9499C17.52 13.9699 17.49 13.9249 17.445 13.9099C17.405 13.8949 17.395 13.8299 17.445 13.8399C17.495 13.8549 17.545 13.8849 17.595 13.8799C17.63 13.8799 17.62 13.8649 17.535 13.8399C17.45 13.8099 17.415 13.8049 17.435 13.7399C17.455 13.6649 17.55 13.7649 17.525 13.7099C17.505 13.6599 17.425 13.6849 17.465 13.6149C17.505 13.5449 17.515 13.5749 17.54 13.5849C17.555 13.5899 17.59 13.5849 17.535 13.5449C17.495 13.5199 17.535 13.4799 17.545 13.4749Z" fill="#FFC221"/>
<path d="M17.6801 13.5246C17.6801 13.5246 17.6801 13.4996 17.7201 13.5046C17.7501 13.5046 17.7401 13.4946 17.7501 13.4846C17.7601 13.4846 17.8451 13.5096 17.7651 13.5346C17.7351 13.5496 17.6851 13.5446 17.6851 13.5246H17.6801Z" fill="black"/>
<path d="M17.8651 13.7246C17.8651 13.7246 17.8001 13.7546 17.8551 13.8246C17.9051 13.8746 17.9051 13.8996 17.9051 13.9346C17.9001 13.9746 20.0751 13.9996 20.0751 13.9996C20.0751 13.9996 20.0751 13.8546 20.1651 13.7746L17.8651 13.7246Z" fill="#FFC221"/>
<path d="M20.11 13.9597C20.11 13.9597 20.12 13.8397 20.19 13.8047C20.225 13.7797 20.27 13.7897 20.29 13.8847C20.32 14.0197 20.205 14.1397 20.155 14.0847C20.105 14.0347 20.115 13.9597 20.115 13.9597H20.11Z" fill="#5A3719"/>
<path d="M17.615 14.4698C17.615 14.4698 17.76 14.3448 17.785 14.2898C17.785 14.2898 18.175 14.5698 18.15 14.3098L18.16 14.1798C18.16 14.1798 18.305 14.1948 18.325 14.0798L17.96 14.0648C17.96 14.0648 17.92 14.0598 17.86 14.1198C17.81 14.1798 17.69 14.2448 17.585 14.1898C17.585 14.1898 17.535 14.1498 17.49 14.1898C17.44 14.2148 17.44 14.2248 17.48 14.2648C17.52 14.3048 17.6 14.4098 17.615 14.4648V14.4698ZM18.455 13.6998L18.24 13.6898C18.24 13.6898 18.165 13.5798 18.01 13.4598C18.01 13.4598 17.965 13.4398 18.05 13.3698C18.14 13.2998 18.165 13.2298 18.165 13.1948C18.165 13.1648 18.165 13.1098 18.195 13.1448C18.225 13.1848 18.445 13.3898 18.485 13.3298C18.515 13.2698 18.52 13.2448 18.52 13.2248C18.53 13.2048 18.535 13.1498 18.57 13.2098C18.6 13.2648 18.62 13.2498 18.625 13.3998C18.625 13.3998 18.625 13.5498 18.65 13.5998C18.65 13.5998 18.37 13.5148 18.46 13.6998H18.455ZM17.525 13.2398C17.525 13.2398 17.69 13.3398 17.775 13.2098C17.85 13.0848 17.905 13.0698 17.845 12.9448C17.785 12.8298 17.845 12.7748 17.89 12.7248C17.94 12.6748 17.98 12.6848 17.98 12.4948C17.99 12.2998 18.12 12.2448 18.18 12.1798C18.24 12.1198 18.39 12.0298 18.16 11.9948C17.94 11.9548 17.49 11.8448 17.375 11.6698C17.26 11.4948 17.21 11.5948 17.21 11.6048C17.21 11.6148 17.17 11.7398 17.285 11.9698C17.4 12.1998 17.495 12.3498 17.61 12.4198C17.72 12.4948 17.82 12.5348 17.76 12.6898C17.7 12.8448 17.61 13.1198 17.525 13.2398Z" fill="#7B3C20"/>
<path d="M18.1301 12.75C18.1301 12.75 18.1601 13.15 18.4451 13.29C18.4451 13.29 18.5101 13.14 18.4851 12.985C18.4851 12.985 18.5801 12.99 18.6051 13.035C18.6051 13.035 18.6051 12.92 18.4751 12.875C18.3401 12.84 18.4051 12.575 18.4551 12.55C18.5001 12.52 18.4851 12.465 18.4551 12.42C18.4201 12.37 18.4151 12.305 18.5251 12.335C18.6401 12.365 18.6251 12.305 18.5501 12.25C18.4851 12.195 18.4851 12.125 18.5851 12.125C18.6851 12.125 18.8351 12.03 18.7451 12.005C18.6451 11.975 18.6201 11.94 18.7451 11.905C18.8801 11.865 18.9451 11.82 18.8451 11.805C18.7451 11.795 18.6801 11.76 18.7751 11.745C18.8701 11.73 18.7601 11.63 18.6501 11.63C18.5351 11.62 18.3001 11.665 18.4851 11.515C18.6751 11.365 18.2151 11.475 18.4051 11.375C18.5951 11.275 18.3401 11.32 18.3051 11.32C18.2701 11.32 18.2701 11.32 18.2851 11.27C18.2951 11.22 18.2601 11.19 18.2001 11.225C18.1501 11.255 18.1501 11.255 18.1501 11.19C18.1501 11.115 18.0851 11.17 18.0451 11.19C18.0001 11.205 17.8951 11.285 17.8501 11.24C17.8151 11.195 17.7901 11.155 17.6601 11.23C17.5301 11.305 17.5601 11.24 17.5601 11.205C17.5601 11.17 17.6101 11.035 17.4401 11.18C17.2701 11.325 17.4051 11.03 17.2651 11.13C17.1301 11.23 17.1151 11.25 17.0901 11.205C17.0651 11.155 17.0401 11.12 16.8901 11.22C16.7351 11.315 16.8501 11.155 16.8651 11.12C16.8901 11.09 16.9551 10.87 16.8201 11.04C16.8201 11.04 16.7551 11.16 16.6101 10.945C16.6101 10.945 16.4601 11.16 16.4151 11.065C16.3751 10.965 16.3401 10.965 16.2851 11.025C16.2351 11.085 16.2751 11.02 16.2501 10.965C16.2301 10.915 16.2151 10.82 15.9601 11.005C15.7051 11.195 16.0501 11.055 15.8551 11.14C15.6601 11.225 15.1801 11.49 15.6151 11.435C16.0501 11.37 15.4051 11.6 15.5551 11.645C15.7051 11.685 15.6551 11.82 16.2251 11.66C16.7851 11.51 16.6951 11.64 16.9851 11.51C17.2751 11.39 16.9151 11.555 17.3051 11.55C17.6901 11.54 17.3701 11.55 17.4451 11.63C17.5201 11.71 17.8451 11.895 18.1501 11.93C18.4551 11.96 18.5351 11.845 18.4451 11.98C18.3551 12.11 18.3251 12.16 18.2751 12.21C18.2251 12.25 18.0751 12.36 18.0751 12.54C18.0751 12.725 17.8351 12.755 17.9251 12.955L18.1301 12.755V12.75Z" fill="#5A3719"/>
<path d="M18.6349 13.1946C18.6349 13.1946 18.5649 13.1446 18.5649 13.0546C18.5649 13.0546 18.6149 13.0646 18.6349 13.0946C18.6349 13.0946 18.8099 12.8946 18.5949 12.8246C18.3899 12.7546 18.4949 12.5596 18.5649 12.5596C18.6349 12.5596 18.6499 12.5446 18.5849 12.4596C18.5249 12.3846 18.5349 12.3796 18.6499 12.3596C18.7649 12.3396 18.7549 12.3096 18.6999 12.2846C18.6641 12.2633 18.632 12.2362 18.6049 12.2046C18.6049 12.2046 18.9449 12.0596 18.8349 11.9896C18.7249 11.9246 18.8349 11.9396 18.9349 11.8746C19.0349 11.8046 19.0449 11.7896 19.0599 11.7596C19.0599 11.7596 18.9599 11.7746 18.8899 11.7596C18.8899 11.7596 18.9749 11.7146 18.8899 11.6446C18.8049 11.5746 18.7749 11.5146 18.6399 11.5446C18.5049 11.5796 18.5499 11.5346 18.5999 11.4796C18.6499 11.4246 18.6299 11.3946 18.5349 11.3796C18.5349 11.3796 18.5449 11.3196 18.6199 11.2546C18.6199 11.2546 18.4349 11.2646 18.3699 11.2346C18.3699 11.2346 18.4499 11.1846 18.4499 11.1196C18.4499 11.1196 18.3499 11.1546 18.2249 11.1446C18.2249 11.1446 18.2999 11.0796 18.2999 11.0246C18.2999 11.0246 18.0799 11.0746 17.9799 11.1496C17.9799 11.1496 17.9549 11.1496 17.9399 11.1196C17.9199 11.0996 17.9099 11.0696 17.6649 11.1496C17.6649 11.1496 17.6899 11.0396 17.7499 10.9996C17.8099 10.9596 17.7999 10.8696 17.4249 11.1046C17.4249 11.1046 17.3749 11.0746 17.3299 10.9596C17.3299 10.9596 17.2449 11.0746 17.1849 11.1146C17.1849 11.1146 17.1349 11.1396 17.1349 11.0646C17.1449 10.9896 17.0999 11.0396 17.0649 11.0646C17.0249 11.0846 16.9999 11.1396 17.0149 10.9896C17.0299 10.8396 16.9649 10.8096 16.9649 10.8096C16.9649 10.8096 16.8499 10.9746 16.7799 10.9946C16.7799 10.9946 16.6549 10.8746 16.6099 10.7946C16.5699 10.7146 16.5699 10.6846 16.5249 10.8246C16.4799 10.9596 16.4249 10.9746 16.4249 10.9746C16.4249 10.9746 16.3499 10.9096 16.3449 10.8746C16.3449 10.8746 16.3299 10.9096 16.3049 10.9246C16.3049 10.9246 16.2399 10.8496 16.2449 10.7396C16.2449 10.7396 15.8349 10.9646 15.7849 11.0996C15.7849 11.0996 15.3999 11.0746 15.2449 11.1046C15.2449 11.1046 15.2799 10.9846 15.3799 10.9196C15.3799 10.9196 15.2799 10.9096 15.2799 10.8046C15.2799 10.8046 15.3599 10.8146 15.4099 10.8046C15.4599 10.7946 15.3399 10.6496 15.4649 10.6446C15.5899 10.6396 15.6749 10.7046 15.6149 10.5346C15.5649 10.3696 15.5849 10.3696 15.5849 10.3696C15.5849 10.3696 15.8049 10.4996 15.8399 10.4646C15.8799 10.4346 15.8149 10.3646 16.0099 10.3946C16.2049 10.4296 16.1499 10.3196 16.2299 10.3096C16.3049 10.3096 16.3449 10.3596 16.2949 10.0046C16.2449 9.64962 16.5349 10.1796 16.3399 9.64462C16.3399 9.64462 16.2899 9.47962 16.1749 9.40962C16.1749 9.40962 16.1449 9.52462 16.0149 9.42462C15.8849 9.32462 15.6249 9.28462 15.7349 9.20462C15.8449 9.11962 15.8949 9.00962 15.8649 8.94462C15.8649 8.94462 15.7349 9.07462 15.5149 8.97962C15.3349 8.90462 15.2949 9.04462 15.1149 9.00462C15.1149 9.00462 15.1149 8.95462 15.2699 8.83462C15.4199 8.71962 15.1799 8.87462 15.0899 8.89962C14.9949 8.91962 14.9699 8.89962 15.1649 8.74462C15.3649 8.59462 15.7649 8.31962 15.7149 8.09462C15.7149 8.09462 15.8049 8.20962 16.0499 8.12462C16.2999 8.03962 16.4799 8.00962 16.5499 7.87462C16.6382 7.7622 16.7467 7.66725 16.8699 7.59462C16.9249 7.56962 16.9899 7.54462 16.9149 7.66962C16.8349 7.78962 16.7149 7.99962 16.3749 8.13962C16.0349 8.27962 15.8999 8.37962 15.8399 8.45462C15.7799 8.52962 15.4699 8.69462 15.6749 8.66962C15.8749 8.63462 16.2199 8.66962 16.0549 8.61962C15.8949 8.57462 15.7099 8.64962 15.8599 8.51462C16.0099 8.37962 16.0349 8.33462 16.2549 8.24462C16.4749 8.14962 16.7149 7.93962 16.6899 8.16462C16.6649 8.38462 16.2599 8.61962 16.1599 8.69462C16.0599 8.76462 16.0999 8.75462 16.0999 8.78462C16.0999 8.81462 16.0799 8.87462 16.0399 8.89962C15.9999 8.92962 16.0149 8.95962 16.0249 9.01962C16.0349 9.08462 16.0149 9.10962 16.0449 9.11962C16.0749 9.12462 16.1049 9.12962 16.1149 9.17462C16.1249 9.22462 16.1449 9.22462 16.2049 9.22462C16.2599 9.21462 16.3049 9.22462 16.3049 9.25462C16.3049 9.28962 16.3649 9.33962 16.3699 9.23462C16.3749 9.12462 16.4199 9.10962 16.3099 9.15962C16.1999 9.20462 16.1799 9.18962 16.1799 9.13962C16.1799 9.08962 16.1699 9.09962 16.1299 9.09462C16.0799 9.09462 16.0649 9.02962 16.1449 8.98462C16.2249 8.94462 16.2249 8.98462 16.3249 8.90462C16.4249 8.81962 16.4249 8.80462 16.4399 8.75462C16.4549 8.71962 16.2949 8.87462 16.2199 8.90462C16.1449 8.94462 16.1699 8.87962 16.1799 8.79962C16.1949 8.71462 16.3799 8.59962 16.4649 8.59962C16.5549 8.59962 16.7449 8.64962 16.6649 8.76462C16.5799 8.87962 16.3449 9.02462 16.4399 9.03462C16.5449 9.04462 16.5599 9.00462 16.6199 9.05462C16.6799 9.10462 16.6199 9.21462 16.5999 9.27462C16.573 9.32681 16.5356 9.37279 16.4899 9.40962C16.4899 9.40962 16.3799 9.21962 16.3849 9.36962C16.3849 9.52462 16.3599 9.57962 16.3849 9.58462C16.4099 9.58962 16.5249 9.66962 16.5649 9.66962C16.6049 9.66962 16.3599 9.78462 16.4649 9.79462C16.5649 9.79962 16.7299 9.74462 16.7849 9.64462C16.7849 9.64462 16.5749 9.59462 16.4899 9.51462C16.4899 9.51462 16.7349 9.45462 16.6649 9.22462C16.6649 9.22462 16.9099 9.28962 16.7999 9.39962C16.6999 9.50462 16.6349 9.48962 16.7249 9.51962C16.8199 9.54962 16.8599 9.57962 16.8599 9.57962C16.8599 9.57962 16.9249 9.60962 16.8849 9.65962C16.8499 9.70962 16.8499 9.78962 16.8849 9.78462C16.9099 9.78462 17.0149 9.73462 16.9299 9.68462C16.8399 9.63462 17.0249 9.64462 16.9499 9.59962C16.8699 9.54962 16.8499 9.54462 16.8299 9.51962C16.8049 9.50462 17.8149 8.90962 17.3049 9.12962C17.3049 9.12962 17.4099 8.89962 17.5599 8.89962C17.7099 8.89962 17.7199 9.01462 17.6349 9.10962C17.5499 9.19462 17.4949 9.33962 17.2999 9.36962C17.2999 9.36962 17.5799 9.50462 17.2499 9.72962C17.2499 9.72962 17.1749 9.76462 17.1999 9.78962C17.2249 9.81462 17.4249 9.70462 17.4499 9.63962C17.4637 9.60593 17.4841 9.57532 17.5098 9.54957C17.5356 9.52382 17.5662 9.50344 17.5999 9.48962C17.8161 9.36773 18.0064 9.20466 18.1599 9.00962C18.2749 8.81462 18.2999 8.80962 18.5199 8.63462C18.7399 8.45962 18.6999 8.49462 18.7299 8.45462C18.7549 8.40962 18.7649 8.33962 18.8649 8.28462C18.9649 8.22462 19.3549 8.01462 19.4799 7.92462C19.5999 7.83462 19.8499 7.67462 19.9599 7.53462C20.0649 7.39962 20.3599 7.22462 20.4299 7.25462C20.4999 7.28962 20.4199 7.39462 20.2549 7.52462C20.0799 7.64962 19.6549 7.98962 19.5899 8.04462C19.4203 8.18132 19.2316 8.29249 19.0299 8.37462C18.8949 8.38962 18.9099 8.43962 18.8299 8.52462C18.7499 8.60962 18.5649 8.79462 18.5049 8.84462C18.4399 8.89462 18.2899 8.99462 18.2849 9.06962C18.2749 9.14462 18.3099 9.14962 18.1899 9.25962C18.0121 9.42261 17.8117 9.55902 17.5949 9.66462C17.5949 9.66462 17.8199 9.74462 17.6849 9.89462C17.5549 10.0446 17.5599 10.0246 17.5549 10.0346C17.5549 10.0346 17.8899 9.98462 17.6549 10.2496C17.6549 10.2496 17.6049 10.3246 17.7099 10.2496C17.8249 10.1546 17.7799 10.0446 17.7599 10.0246C17.7599 10.0246 17.9449 9.90962 18.1549 9.90962C18.3599 9.90962 18.3549 9.89462 18.1649 9.83962C18.1649 9.83962 18.2999 9.67962 18.4149 9.75962C18.5249 9.83462 18.4849 9.88462 18.3699 9.94962C18.2499 10.0096 18.0799 10.0346 17.9449 10.1096C17.9449 10.1096 18.1949 10.1596 18.3249 10.0546C18.4549 9.95462 18.4649 10.0046 18.4749 10.0246C18.4999 10.0446 18.5149 10.0746 18.4549 10.1546C18.3949 10.2396 18.3899 10.2446 18.3949 10.2646C18.3949 10.2846 18.3899 10.3396 18.2699 10.3646C18.1549 10.3796 18.0949 10.4296 18.1399 10.4846C18.1749 10.5446 18.1749 10.6846 18.0799 10.6696C17.9799 10.6546 17.9999 10.5746 17.9649 10.5446C17.9249 10.5146 17.8699 10.4696 17.6949 10.5546C17.5149 10.6496 17.5049 10.5396 17.5099 10.4796C17.5099 10.4796 17.3949 10.5796 17.2999 10.4896C17.1999 10.3946 17.2899 10.3596 17.3499 10.3146C17.3999 10.2646 17.6249 10.1646 17.4899 10.1896C17.3549 10.2046 17.1549 10.2096 17.1099 10.1096C17.0599 10.0046 17.2099 10.0146 17.2299 10.0246C17.2549 10.0346 17.3449 10.1096 17.3549 10.0096C17.3549 9.90962 17.5049 9.89462 17.4549 9.87962C17.4049 9.85962 17.3299 9.92462 17.3099 9.94462C17.3099 9.94462 17.2099 9.79962 17.0399 9.84462C16.8699 9.89462 17.0899 9.87962 17.1399 9.88462C17.1799 9.89462 17.1549 9.97462 17.0049 10.1146C16.8549 10.2496 16.9199 10.2046 17.0299 10.2046C17.1449 10.2046 17.4249 10.2046 17.2599 10.3346C17.0999 10.4696 17.0349 10.5346 16.9599 10.5146C16.8699 10.4896 16.9599 10.4346 16.9999 10.4096C17.0399 10.3846 17.0599 10.3496 16.9799 10.3796C16.8999 10.4046 16.8749 10.4146 16.8099 10.3046C16.7499 10.1896 16.7699 10.2246 16.7999 10.1496C16.8299 10.0746 16.8899 9.99962 16.8199 10.0246C16.7399 10.0546 16.7499 10.0596 16.7549 9.97462C16.7599 9.88962 16.6699 9.86962 16.6699 9.86962C16.6699 9.86962 16.7099 9.95462 16.6749 10.0096C16.6449 10.0596 16.6399 10.0796 16.6949 10.0896C16.7449 10.1096 16.7949 10.1546 16.7249 10.2046C16.6549 10.2496 16.6649 10.2396 16.7049 10.2696C16.7549 10.3046 16.8199 10.3346 16.7499 10.4046C16.6799 10.4746 16.7349 10.4546 16.7699 10.4546C16.8099 10.4546 16.8849 10.4846 16.8849 10.5546C16.8849 10.6146 16.8849 10.6296 16.9999 10.5696C17.1149 10.5046 17.3349 10.5146 17.3349 10.5996C17.3349 10.6896 17.3049 10.7146 17.4249 10.6396C17.5449 10.5646 17.5999 10.7096 17.6849 10.6396C17.7649 10.5646 17.8149 10.4996 17.9149 10.6196C18.0099 10.7396 17.9799 10.7696 17.8649 10.8596C17.7499 10.9446 17.9199 10.8796 18.0099 10.8346C18.0999 10.7896 18.3449 10.7596 18.4849 10.8246C18.6299 10.8846 18.6699 10.8746 18.7749 10.8246C18.8799 10.7846 18.9349 10.7746 19.0899 10.8796C19.2549 10.9896 19.3749 11.0096 19.4599 11.0046C19.4599 11.0046 19.2849 11.0746 19.0849 11.0846C18.8849 11.0996 18.7849 11.1346 18.7499 11.1646C18.7499 11.1646 18.8649 11.2396 18.8899 11.3246C18.8899 11.3246 19.0199 11.3096 19.0799 11.3346C19.0799 11.3346 19.0499 11.4296 19.1299 11.4796C19.2099 11.5296 19.2649 11.5496 19.2049 11.6146C19.1449 11.6846 19.2999 11.6546 19.2099 11.7496C19.1249 11.8496 19.1049 11.8996 19.0999 11.9746C19.0999 12.0546 19.1199 12.0646 19.0449 12.0746C18.9649 12.0796 19.0549 12.1696 19.0199 12.2746C18.9849 12.3746 18.7699 12.3596 18.7799 12.6346C18.7799 12.6346 18.8399 12.4996 18.9699 12.3846C19.0949 12.2646 19.0999 12.2546 19.0949 12.1846C19.0949 12.1146 19.0899 12.1296 19.1549 12.0746C19.2249 12.0246 19.1249 11.9746 19.1949 11.8946C19.2599 11.8196 19.2049 11.8346 19.2849 11.7596C19.3599 11.6796 19.2099 11.6746 19.2949 11.5946C19.3699 11.5146 19.0949 11.4196 19.1799 11.3696C19.2549 11.3196 19.3949 11.2496 18.9299 11.2546C18.9299 11.2546 19.0449 11.0746 19.4299 11.1096C19.4299 11.1096 19.3299 11.1896 19.3199 11.2596L19.3999 11.2846C19.3999 11.2846 19.3799 11.3396 19.3049 11.3996C19.3049 11.3996 19.5149 11.5146 19.5499 11.5896C19.5499 11.5896 19.4199 11.6296 19.3849 11.6796C19.3849 11.6796 19.4449 11.7446 19.4649 11.8296C19.4649 11.8296 19.3199 11.8096 19.3049 11.9146C19.2849 12.0196 19.2399 11.9496 19.2399 12.0146C19.2399 12.0796 19.2449 12.0996 19.1949 12.1146C19.1449 12.1146 19.1899 12.1696 19.1949 12.2046C19.2049 12.2396 19.2249 12.3196 19.2149 12.3446C19.2149 12.3446 19.1399 12.3446 19.1099 12.3546C19.1099 12.3546 19.1299 12.5046 19.0449 12.5296C18.9599 12.5496 19.0949 12.5796 18.9999 12.5946C18.9099 12.6096 18.9249 12.6196 18.8149 12.8196C18.8149 12.8196 18.9099 12.7696 19.0049 12.6996C19.1049 12.6346 18.9949 12.6496 19.1549 12.4996C19.3199 12.3346 19.2899 12.3246 19.2749 12.2446C19.2649 12.1646 19.2599 12.0946 19.3199 12.0196C19.3799 11.9446 19.3949 11.8596 19.6049 11.8696C19.6049 11.8696 19.5449 11.7296 19.4699 11.6946C19.4699 11.6946 19.5699 11.6296 19.6699 11.6196C19.6699 11.6196 19.5799 11.5046 19.3899 11.3996C19.3899 11.3996 19.5399 11.2696 19.5849 11.2046C19.5849 11.2046 19.5099 11.2196 19.4499 11.2046C19.4499 11.2046 19.4799 11.1396 19.6199 11.0496C19.6199 11.0496 19.6949 11.1196 19.6899 11.1946C19.6899 11.1946 19.9299 11.0596 20.0649 11.0746C20.0649 11.0746 20.1349 11.2446 19.7999 11.5746C19.7999 11.5746 20.0099 11.5896 20.0999 11.5746C20.0999 11.5746 20.0499 11.7346 19.7999 11.8246C19.5499 11.9246 19.8499 12.0346 19.5949 12.0146C19.3449 11.9946 19.4199 12.0796 19.4249 12.2096C19.4349 12.3396 19.4399 12.4746 19.4349 12.5096C19.4349 12.5096 19.2349 12.4446 19.2349 12.6396C19.2399 12.8396 19.1349 12.8796 19.1099 12.8946C19.1099 12.8946 19.0499 12.8446 18.9599 12.8096C18.9599 12.8096 18.8349 13.0546 18.6349 13.1946Z" fill="#5A3719"/>
<path d="M18.34 10.7248C18.34 10.7248 18.41 10.7148 18.53 10.7848C18.645 10.8598 18.76 10.7098 18.63 10.6698C18.5 10.6298 18.63 10.5798 18.75 10.6798C18.87 10.7748 18.915 10.7248 18.96 10.6948C19 10.6598 19.055 10.6398 18.975 10.5848C18.895 10.5298 19.025 10.5548 19.09 10.5998C19.15 10.6348 19.125 10.6748 19.12 10.6848C19.11 10.6948 19.105 10.8298 19.22 10.7098C19.34 10.5848 19.405 10.4698 19.4 10.4098C19.4 10.4098 19.465 10.4498 19.475 10.5248C19.485 10.5998 19.575 10.4848 19.605 10.4448C19.635 10.4048 19.685 10.2948 19.68 10.2248C19.68 10.2248 19.76 10.3498 19.88 10.2248C20 10.0998 19.95 10.1748 20.09 10.1398C20.2538 10.0959 20.4014 10.0056 20.515 9.87981C20.615 9.75481 20.62 9.83981 20.745 9.80981C20.87 9.77981 21.13 9.59981 21.155 9.50481C21.175 9.40981 21.17 9.34981 21.135 9.38481C21.1 9.41481 21.115 9.38481 21.06 9.35481C21.005 9.31981 20.925 9.39981 20.925 9.39981C20.925 9.39981 21.005 9.45981 20.94 9.48481C20.88 9.51481 20.825 9.59981 20.71 9.56481C20.595 9.53481 20.47 9.67481 20.47 9.67481C20.47 9.67481 20.57 9.75481 20.435 9.80981C20.3 9.85981 20.32 9.87981 20.24 9.81981C20.24 9.81981 20.095 10.0048 20.01 10.0448C20.01 10.0448 19.975 10.0448 19.95 10.0048C19.95 10.0048 19.85 10.1098 19.81 10.1298C19.81 10.1298 19.745 10.0798 19.695 10.0548C19.695 10.0548 19.58 10.1998 19.485 10.2398C19.485 10.2398 19.455 10.1898 19.395 10.1548C19.395 10.1548 19.365 10.3348 19.165 10.4448C19.165 10.4448 19.175 10.3948 19.075 10.3298C19.075 10.3298 18.825 10.5448 18.73 10.5648C18.63 10.5848 18.72 10.5198 18.73 10.4898C18.75 10.4648 18.81 10.3748 18.69 10.3398C18.57 10.3048 18.59 10.3648 18.565 10.3748C18.535 10.3848 18.535 10.3548 18.455 10.3648C18.375 10.3748 18.39 10.4098 18.355 10.4248C18.315 10.4348 18.175 10.3998 18.185 10.4948C18.19 10.5848 18.26 10.6498 18.135 10.7048C18.01 10.7548 18.185 10.7448 18.34 10.7248Z" fill="#7B3C20"/>
<path d="M18.845 10.4647C18.845 10.4647 18.875 10.3397 18.77 10.2897C18.77 10.2897 19.43 10.1847 18.93 9.92974C18.93 9.92974 19.525 9.81474 19.38 9.62474C19.245 9.43474 19.11 9.47474 19.09 9.47474C19.07 9.47474 19.215 9.36974 19.255 9.38474C19.29 9.39974 19.765 9.57974 19.645 9.41974C19.525 9.26974 19.535 9.27474 19.515 9.22974C19.515 9.22974 19.67 9.22974 19.91 9.45974C19.91 9.45974 19.96 9.40974 19.955 9.31474C19.955 9.31474 20.12 9.36474 20.175 9.41474C20.175 9.41474 20.205 9.35474 20.19 9.32474C20.19 9.32474 20.34 9.39974 20.39 9.48474C20.39 9.48474 20.455 9.42474 20.465 9.35474C20.465 9.35474 20.615 9.41974 20.65 9.46474C20.65 9.46474 20.7 9.39974 20.68 9.31474C20.68 9.31474 20.925 9.37974 20.955 9.23474C20.955 9.23474 21.2 9.28474 21.04 9.37974C20.84 9.50474 21.02 9.34974 20.81 9.49474C20.65 9.60974 20.56 9.73974 20.48 9.71474C20.425 9.68974 20.355 9.85974 20.28 9.77974C20.205 9.69474 20.205 9.72974 20.145 9.81474C20.1038 9.87722 20.0569 9.9358 20.005 9.98974C20.005 9.98974 19.965 9.96474 19.925 9.92974C19.925 9.92974 19.885 10.0097 19.825 10.0697C19.825 10.0697 19.775 10.0047 19.695 9.96974C19.695 9.96974 19.58 10.1047 19.505 10.1547C19.505 10.1547 19.435 10.0847 19.36 10.0597C19.36 10.0597 19.35 10.2497 19.205 10.3447C19.205 10.3447 19.175 10.2847 19.075 10.2447C19.075 10.2447 19.005 10.3597 18.845 10.4597V10.4647Z" fill="#5A3719"/>
<path d="M18.5 10.1745C18.5 10.1745 18.42 10.2345 18.47 10.2995C18.52 10.3695 18.525 10.2895 18.59 10.2845C18.655 10.2745 19.465 10.1345 18.73 9.91947C18.73 9.91947 18.765 9.88947 18.885 9.87947C19.015 9.86447 19.475 9.74447 19.26 9.57947C19.045 9.41947 18.865 9.63447 19.045 9.43947C19.195 9.28447 19.075 9.20947 19.075 9.20947C19.075 9.20947 18.65 9.48947 18.555 9.54447C18.465 9.59447 18.325 9.69447 18.485 9.74447C18.65 9.79447 18.755 9.57447 18.77 9.62447C18.785 9.67447 18.45 9.86447 18.5 9.94447C18.545 10.0345 18.535 10.1095 18.62 10.0895C18.7 10.0745 18.92 10.1295 18.745 10.1245C18.56 10.1195 18.495 10.1745 18.495 10.1745H18.5Z" fill="#5A3719"/>
<path d="M18.79 9.76453C18.79 9.76453 18.715 9.81953 18.815 9.79453C18.915 9.76953 19.11 9.72453 19.075 9.67453C19.035 9.62453 18.905 9.68453 18.79 9.76453Z" fill="black"/>
<path d="M20.0901 8.92488C20.0901 8.92488 20.4651 8.91488 20.6151 9.01988C20.7651 9.11988 20.8451 9.18988 20.8901 9.20988C20.8901 9.20988 20.8851 9.34988 20.6401 9.24488C20.6401 9.24488 20.6601 9.31488 20.6301 9.38488C20.6301 9.38488 20.5451 9.32488 20.4401 9.29988C20.4401 9.29988 20.4201 9.34988 20.3901 9.38488C20.3901 9.38488 20.2851 9.27488 20.1601 9.23988C20.1601 9.23988 20.1401 9.29488 20.1201 9.31988C20.1201 9.31988 19.9901 9.23988 19.8901 9.23988C19.8901 9.23988 19.9101 9.32488 19.8901 9.35488C19.8901 9.35488 19.6201 9.13988 19.3751 9.16488C19.3751 9.16488 19.4901 9.33988 19.5651 9.41988C19.5651 9.41988 19.0751 9.38488 19.1651 9.11988C19.2401 8.85488 19.1551 8.91988 19.4751 8.91988H20.0901V8.92488Z" fill="#7B3C20"/>
<path d="M17.7851 9.65466C17.7851 9.65466 17.7301 9.70466 17.7851 9.73966C17.8401 9.77966 18.0351 9.63966 18.0601 9.61966C18.0901 9.59966 18.1601 9.59966 18.0601 9.67466C17.9601 9.74966 17.8701 9.82466 17.8101 9.90466C17.8101 9.90466 18.1301 9.81466 18.3401 9.63466C18.5551 9.44966 18.3351 9.56966 18.6901 9.39466C19.0551 9.21966 19.2451 8.93966 19.0501 8.96966C18.8601 8.99966 18.6851 9.21966 18.5301 9.30466C18.3801 9.38966 18.2951 9.40466 18.3201 9.35466C18.3401 9.30466 18.4551 9.32466 18.6651 9.15466C18.8701 8.98966 18.8251 9.00466 18.8251 8.94466C18.8251 8.88466 18.7501 8.74466 19.0601 8.57466C19.3701 8.40966 20.3401 7.84966 20.4251 7.64966C20.4251 7.64966 20.1401 7.67966 19.7651 7.95466C19.5595 8.12661 19.3347 8.27425 19.0951 8.39466C18.9951 8.43466 19.0051 8.40466 18.9401 8.48966C18.7786 8.65982 18.6101 8.82329 18.4351 8.97966C18.3701 9.02966 18.3451 9.05966 18.3401 9.16966C18.3401 9.21966 17.9201 9.53466 17.7901 9.65466H17.7851Z" fill="#5A3719"/>
<path d="M19.07 8.91466C19.07 8.91466 18.995 8.94466 18.92 8.91466C18.855 8.87966 18.88 8.73466 19.045 8.63966C19.2432 8.53158 19.4551 8.45085 19.675 8.39966C19.675 8.39966 19.65 8.58966 19.17 8.75466C19.17 8.75466 19.2 8.85466 19.07 8.91466Z" fill="#5A3719"/>
<path d="M19.2399 8.78967C19.2399 8.78967 19.2549 8.83967 19.2399 8.87967C19.2399 8.87967 20.1349 8.96467 20.5949 8.41967C20.5949 8.41967 19.9599 8.47967 19.7099 8.63467C19.7099 8.63467 19.8699 8.43467 20.3449 8.26967C20.8199 8.10467 21.0149 7.89967 21.0549 7.78467C21.0549 7.78467 20.4549 7.99967 20.1699 7.99967C20.1699 7.99967 20.1099 7.99967 20.0549 8.02467C19.9999 8.05967 19.6149 8.33467 19.5149 8.38467C19.5149 8.38467 19.7299 8.36467 19.8099 8.29467C19.8099 8.29467 19.6599 8.69467 19.2399 8.79467V8.78967Z" fill="#AA5323"/>
<path d="M17.52 9.29947C17.52 9.29947 17.405 9.38447 17.455 9.41947C17.505 9.46447 17.585 9.46947 17.755 9.32447C17.935 9.17447 18.36 8.81447 18.095 8.79947C18.095 8.79947 17.745 8.77947 17.76 8.98947C17.77 9.19947 17.54 9.28947 17.52 9.29947ZM16.725 9.17447C16.725 9.17447 16.955 9.30947 16.865 9.41947C16.865 9.41947 17.565 8.82947 17.365 8.69947C17.175 8.56947 17.02 8.81447 17.065 8.83447C17.115 8.86447 17.215 8.81447 17.18 8.86447C17.0375 8.97828 16.8871 9.08187 16.73 9.17447H16.725ZM16.545 8.98447C16.545 8.98447 16.695 9.03447 16.705 9.09947C16.71 9.15947 17.165 8.77947 17.045 8.61447C16.99 8.53947 16.745 8.51447 16.725 8.65447C16.715 8.80447 16.955 8.63947 16.875 8.74447C16.765 8.87947 16.58 8.96447 16.545 8.98447ZM18.175 8.66447C18.175 8.66447 18.08 8.73447 18.17 8.77947C18.26 8.81447 18.31 8.74947 18.355 8.71447C18.4 8.67447 18.62 8.51447 18.665 8.41447C18.715 8.31447 18.79 8.27947 18.87 8.22947C18.945 8.17947 19.5 7.89947 19.845 7.59447C20.185 7.28947 20.045 7.36947 20.395 7.17447C20.745 6.97947 20.98 6.79947 21.055 6.58447C21.055 6.58447 20.89 6.63447 20.745 6.73447C20.5695 6.84738 20.3911 6.95575 20.21 7.05947C20.145 7.08447 20.06 7.08947 20.01 7.13947C19.96 7.18947 19.96 7.25447 19.795 7.38947C19.62 7.53447 18.745 8.15447 18.635 8.23947C18.479 8.37826 18.3257 8.51995 18.175 8.66447Z" fill="#5A3719"/>
<path d="M17.4701 8.86957C17.4701 8.86957 17.5701 8.81957 17.7501 8.82957C17.9301 8.83957 18.6401 8.14957 18.8501 8.01457C19.1695 7.79524 19.4813 7.56511 19.7851 7.32457C19.8751 7.23457 19.8851 7.14457 19.9651 7.09457C20.0401 7.04457 20.1151 7.04957 20.2851 6.94957C20.4601 6.84957 21.3001 6.34957 21.2501 6.05957C21.2501 6.05957 20.0001 6.80957 19.7151 7.04957C19.3155 7.36114 18.9035 7.65638 18.4801 7.93457C18.3401 8.02957 18.2301 8.18457 17.9851 8.37457C17.7501 8.56957 17.5101 8.73457 17.4701 8.87457V8.86957Z" fill="#AA5323"/>
<path d="M17.21 8.59988C17.21 8.59988 17.44 8.57988 17.47 8.69488C17.47 8.69488 17.97 8.35488 18.08 8.21488C18.19 8.07488 18.04 8.15488 18.325 7.96988C18.7838 7.66413 19.234 7.34568 19.675 7.01488C19.81 6.89988 20.065 6.73988 20.27 6.60488C20.47 6.46488 21.265 6.07488 21.175 5.75488L20.465 6.22988C20.33 6.31988 20.27 6.26988 20.14 6.37488C20.01 6.47988 19.715 6.68988 19.665 6.75488C19.4355 6.95156 19.1951 7.13519 18.945 7.30488C18.725 7.45488 18.24 7.73488 18 7.94488C17.7405 8.16936 17.4771 8.3894 17.21 8.60488V8.59988Z" fill="#AA5323"/>
<path d="M16.49 8.53956C16.49 8.53956 16.605 8.53956 16.645 8.58456C16.645 8.58456 16.86 8.38956 17.09 8.58456C17.09 8.58456 17.93 8.00956 18.015 7.86456C18.1 7.72456 18.24 7.71956 18.565 7.48456C18.895 7.24456 19.1 7.13956 19.315 6.97456C19.535 6.80456 19.72 6.60956 19.875 6.50956C20.03 6.40956 20.425 6.14956 20.365 5.92456C20.365 5.92456 20.04 6.10456 19.835 6.33456C19.625 6.56456 19.645 6.36956 19.43 6.55956C19.1831 6.78692 18.9094 6.98336 18.615 7.14456C18.34 7.27956 18.505 7.26456 18.305 7.39456C18.11 7.51956 18.125 7.49456 18.055 7.51956C17.9568 7.54269 17.8679 7.59498 17.8 7.66956C17.72 7.75456 17.53 7.86956 17.32 7.99456C17.027 8.14998 16.7491 8.33244 16.49 8.53956Z" fill="#AA5323"/>
<path d="M16.745 8.09964C16.745 8.09964 16.695 8.00464 16.78 7.93464C16.86 7.86964 17.01 7.69464 17.03 7.58464C17.055 7.46964 17.035 7.48964 17.27 7.39464C17.9466 7.11035 18.5876 6.74789 19.18 6.31464C19.27 6.23964 19.5 6.08464 19.595 6.00464C19.595 6.00464 19.635 6.12964 19.535 6.21464C19.1916 6.48388 18.8326 6.73264 18.46 6.95964C18.2936 7.03962 18.1331 7.13152 17.98 7.23464C17.885 7.31464 17.9 7.33464 17.47 7.54964C17.045 7.75464 17.02 7.77964 17.035 7.79464C17.05 7.81464 17.245 7.72964 17.335 7.67464C17.425 7.62464 17.775 7.45964 17.885 7.37464C17.9963 7.28411 18.1132 7.20061 18.235 7.12464C18.5416 6.94878 18.8418 6.76199 19.135 6.56464C19.31 6.42964 19.36 6.38964 19.4 6.41464C19.435 6.43464 19.5 6.43464 19.42 6.51464C19.34 6.59464 19.085 6.81464 18.985 6.87964C18.885 6.94464 18.58 7.12964 18.495 7.16964C18.41 7.21964 18.375 7.29464 18.325 7.32964C18.28 7.36964 18.14 7.46464 17.975 7.50464C17.81 7.54464 17.775 7.66964 17.66 7.74464C17.545 7.81464 16.76 8.24464 16.735 8.25964C16.735 8.25964 16.78 8.20964 16.745 8.09964Z" fill="#AA5323"/>
<path d="M19.4851 6.31998C19.4851 6.31998 19.4401 6.35998 19.4651 6.37998C19.4951 6.40998 19.6051 6.48998 19.7451 6.34998C19.9406 6.16787 20.1495 6.00073 20.3701 5.84998C20.4851 5.77498 20.5501 5.70998 20.5451 5.61498C20.5451 5.61498 19.9751 5.91498 19.4851 6.31998ZM20.2651 6.26998C20.2651 6.26998 20.3501 6.12498 20.5651 5.98498C20.7801 5.84998 21.1051 5.64998 21.1401 5.60498C21.1401 5.60498 21.2201 5.68998 21.0551 5.79498C20.8727 5.90792 20.6927 6.02461 20.5151 6.14498C20.4801 6.17998 20.4151 6.22498 20.2651 6.26998Z" fill="#AA5323"/>
<path d="M15.9201 7.85C15.9201 7.85 15.6801 7.98 15.7651 8.06C15.8501 8.135 15.9751 8.11 16.0351 8.09L16.1951 8.04C16.2151 8.04 16.4201 7.975 16.4751 7.88C16.5251 7.78 16.6651 7.67 16.7751 7.59C16.8851 7.515 16.9251 7.43 16.9101 7.375L15.9201 7.85ZM14.5001 8.95C14.5001 8.95 14.6701 8.85 14.9001 8.915C14.9001 8.915 14.8901 8.86 14.8501 8.83C14.8501 8.83 15.1351 8.755 15.1951 8.63C15.2551 8.505 15.2701 8.53 15.3201 8.5C15.3801 8.46 15.7551 8.16 15.7101 8.095C15.6651 8.03 15.6601 7.94 15.6251 7.91C15.6251 7.91 15.5501 8.015 15.1751 8.195C14.8151 8.375 14.4051 8.505 14.1051 8.905C13.8101 9.305 13.8401 9.535 14.2051 9.64C14.2051 9.64 14.4551 9.48 15.0851 9.535C15.7051 9.59 15.9151 9.825 15.9551 9.865C15.9951 9.91 16.1201 10.065 16.0001 10.32C16.0001 10.32 16.1251 10.375 16.1301 10.255C16.1451 10.14 16.1501 10.165 16.1801 10.18C16.2101 10.2 16.2451 10.205 16.2301 10.11C16.2177 9.98321 16.1785 9.86051 16.1151 9.75C16.0601 9.675 16.1251 9.71 16.1601 9.72C16.1951 9.735 16.3251 9.845 16.2501 9.645C16.1751 9.455 16.1501 9.545 16.1501 9.555C16.1501 9.57 16.1301 9.615 15.9601 9.485C15.8283 9.38514 15.6791 9.31055 15.5201 9.265C15.4051 9.235 15.4851 9.235 15.5551 9.215C15.6251 9.185 15.7101 9.175 15.7451 9.095C15.7451 9.095 15.6751 9.11 15.5551 9.065C15.458 9.03647 15.3557 9.03065 15.256 9.04799C15.1563 9.06533 15.0619 9.10536 14.9801 9.165C14.9801 9.165 15.0401 8.94 14.8551 8.95C14.6751 8.965 14.5451 8.96 14.3551 9.11C14.3551 9.11 14.3401 8.88 14.5251 8.76C14.7101 8.635 14.6851 8.71 14.7851 8.68C14.8851 8.65 14.9001 8.545 14.8551 8.51C14.8551 8.51 15.0951 8.555 15.4951 8.22C15.4951 8.22 15.2801 8.505 15.0201 8.56C15.0201 8.56 14.9751 8.71 14.7351 8.745C14.4951 8.78 14.5051 8.915 14.5051 8.95H14.5001Z" fill="#7B3C20"/>
<path d="M13.82 10.3346C13.82 10.3346 13.93 9.62961 14.595 9.57961C15.165 9.52961 15.35 9.6046 15.465 9.6446C15.58 9.6846 15.865 9.76461 15.755 9.85461C15.645 9.94461 15.58 9.92961 15.58 9.92961C15.58 9.92961 15.705 9.78461 15.59 9.76461C15.475 9.73961 15.47 9.80961 15.455 9.86461C15.435 9.92961 15.43 9.9946 15.375 10.0446C15.375 10.0446 15.315 9.97461 15.23 10.0346C15.145 10.0946 15.22 10.0946 15.255 10.0846C15.285 10.0746 15.33 10.0596 15.32 10.1096C15.315 10.1596 15.27 10.2496 15.13 10.3196C14.995 10.3896 15 10.3846 14.84 10.4146C14.675 10.4396 14.525 10.5046 14.315 10.6796C14.105 10.8596 13.88 10.7996 13.835 10.6046C13.795 10.4346 13.815 10.3346 13.815 10.3346H13.82Z" fill="#5A3719"/>
<path d="M14.57 10.3096C14.57 10.3096 14.63 10.1746 14.52 10.1096C14.52 10.1096 14.175 10.1696 14.07 10.0646C14.07 10.0646 14.445 10.0446 14.68 9.94964C14.91 9.86464 14.845 9.79964 14.765 9.77964C14.685 9.76464 14.535 9.80464 14.52 9.87964C14.52 9.87964 14.47 9.79964 14.53 9.74964C14.5627 9.72393 14.6014 9.70681 14.6424 9.69983C14.6835 9.69284 14.7256 9.69621 14.765 9.70964C14.85 9.72964 14.92 9.76964 15.195 9.62964C15.195 9.62964 15.35 9.66464 15.36 9.76964C15.36 9.87964 15.345 9.91964 15.33 9.93464C15.32 9.95464 15.3 9.98464 15.265 9.98464C15.235 9.97464 15.19 9.96964 15.15 10.0446C15.1233 10.1165 15.0785 10.1802 15.02 10.2296C15.02 10.2296 15.095 9.99964 14.895 9.94464C14.895 9.94464 14.73 10.0446 14.605 10.0496C14.605 10.0496 14.765 10.1996 14.565 10.3096H14.57Z" fill="black"/>
<path d="M14.9351 9.88992C14.9351 9.88992 14.8551 9.80991 14.9551 9.79491C15.0551 9.78991 15.1851 9.86492 15.1651 9.92992C15.1351 9.98992 15.0151 9.98492 14.9351 9.88992Z" fill="#5A3719"/>
<path d="M20.6 8.77961C20.6 8.77961 20.415 8.82961 20.59 8.94461C20.76 9.05961 20.84 9.15461 20.965 9.18461C21.09 9.21961 21.215 9.25961 21.215 9.38461C21.215 9.50961 21.19 9.55961 21.12 9.64461C21.055 9.72961 21.16 9.76461 21.25 9.71961C21.34 9.66961 21.415 9.64461 21.475 9.60961C21.53 9.57461 21.625 9.57961 21.545 9.62461C21.45 9.67461 21.36 9.69961 21.475 9.69961C21.59 9.70461 22.285 9.71961 22.43 9.66961C22.58 9.62461 22.77 9.60961 22.78 9.41961C22.78 9.41961 22.79 9.33961 22.845 9.29961C22.895 9.26461 22.935 9.18461 22.855 9.23961C22.78 9.29461 22.72 9.32461 22.705 9.30461C22.69 9.28961 22.68 9.27461 22.74 9.24961C22.8 9.22461 22.83 9.24961 22.885 9.17461C22.935 9.09461 22.935 9.10461 22.905 9.07461C22.875 9.04461 22.815 9.02461 22.845 8.98461C22.875 8.94461 22.905 8.83461 22.775 8.89961C22.65 8.96461 22.395 9.13961 22.275 9.16461C22.165 9.18961 22.075 9.22461 21.92 9.25461C21.77 9.28961 21.67 9.32461 21.495 9.41961C21.33 9.50961 21.345 9.36461 21.37 9.34461C21.37 9.34461 21.435 9.45961 21.605 9.30961C21.775 9.16461 21.72 9.30461 22.135 9.16461C22.55 9.02961 22.45 9.00961 22.61 8.92461C22.775 8.83961 22.93 8.83461 22.81 8.72461C22.7 8.60461 22.69 8.59961 22.545 8.72461C22.3097 8.89723 22.0344 9.00733 21.745 9.04461C21.745 9.04461 22.685 8.64461 22.59 8.58461C22.508 8.53064 22.4188 8.48856 22.325 8.45961C22.26 8.44461 22.24 8.42961 22.09 8.49961C21.94 8.56461 21.915 8.57961 21.875 8.58461C21.825 8.58461 21.7 8.61461 21.525 8.70461C21.345 8.79961 21.25 8.83461 21.125 8.90461C21.125 8.90461 21.21 8.73961 21.58 8.62961C21.95 8.51961 22.135 8.41961 22.1 8.39961C22.065 8.37961 21.965 8.35961 21.9 8.37461C21.825 8.38961 21.85 8.36961 21.62 8.45961C21.395 8.54961 21.49 8.52961 21.31 8.56961C21.125 8.60461 21.055 8.64461 20.965 8.68461C20.965 8.68461 21.005 8.63461 21.12 8.58961C21.185 8.56961 21.055 8.54461 21.23 8.53961H21.28C21.4305 8.5055 21.5753 8.44993 21.71 8.37461C21.675 8.36961 21.455 8.34461 21.235 8.45461C21.01 8.55461 21.11 8.51961 21.035 8.52961C20.955 8.54961 20.785 8.64961 20.735 8.69961C20.68 8.74461 20.6 8.77461 20.6 8.77461V8.77961Z" fill="white"/>
<path d="M15.105 9.78957C15.105 9.78957 15.195 9.81457 15.215 9.87957C15.24 9.93957 15.295 9.84957 15.295 9.82457C15.29 9.79457 15.235 9.67457 15.145 9.72957C15.045 9.78457 15.095 9.78457 15.105 9.78957Z" fill="#5A3719"/>
<path d="M14.8651 10.9997C14.8651 10.9997 15.0501 10.9097 15.2101 10.9247C15.2101 10.9247 15.1451 10.7047 15.2551 10.7397C15.3601 10.7797 15.3301 10.7597 15.3551 10.7597C15.3551 10.7597 15.3601 10.6147 15.3301 10.5597C15.3301 10.5597 15.4451 10.5847 15.5601 10.5847C15.5601 10.5847 15.4501 10.3797 15.5701 10.2347C15.5918 10.2757 15.6216 10.3119 15.6577 10.3411C15.6938 10.3704 15.7354 10.392 15.7801 10.4047V10.2897C15.7801 10.2897 15.8651 10.2747 15.9301 10.3097C16.0001 10.3497 16.0551 9.92973 15.8551 9.84473C15.8551 9.84473 15.8051 9.91973 15.6201 9.95973C15.4351 9.99973 15.4351 10.0347 15.3601 10.1747C15.2851 10.3147 15.2101 10.3197 15.0501 10.4247C14.9001 10.5247 14.8001 10.7247 14.8001 10.7447C14.8001 10.7447 14.8751 10.8447 14.8651 10.9997Z" fill="#7B3C20"/>
<path d="M21.125 8.58983C21.19 8.57983 21.055 8.54483 21.225 8.53983H21.275C21.4272 8.50618 21.5737 8.4506 21.71 8.37483C21.675 8.36983 21.455 8.34483 21.235 8.44983C21.015 8.55483 21.11 8.51983 21.035 8.53483C20.955 8.54983 20.785 8.64983 20.735 8.69983C20.68 8.74483 20.6 8.77483 20.6 8.77483C20.6 8.77483 20.415 8.82483 20.59 8.94483C20.76 9.05983 20.84 9.15483 20.965 9.18483C21.09 9.21983 21.215 9.25983 21.215 9.38483C21.2177 9.43235 21.2106 9.47992 21.1943 9.52462C21.1779 9.56933 21.1527 9.61023 21.12 9.64483C21.055 9.72983 21.16 9.76483 21.25 9.71983C21.34 9.66983 21.415 9.64483 21.475 9.60983C21.53 9.57483 21.625 9.57983 21.54 9.62483C21.45 9.67483 21.36 9.69983 21.475 9.69983C21.59 9.70483 22.285 9.71983 22.43 9.66983C22.58 9.62483 22.77 9.60983 22.78 9.41983C22.78 9.41983 22.79 9.33983 22.845 9.29983C22.895 9.26483 22.935 9.18483 22.855 9.23983C22.78 9.29483 22.715 9.32483 22.705 9.30483C22.69 9.28983 22.68 9.27483 22.74 9.24983C22.8 9.22483 22.83 9.24983 22.885 9.17483C22.935 9.09483 22.935 9.10483 22.905 9.07483L22.855 9.02983C22.855 9.02983 22.81 8.99483 22.76 9.02483C22.65 9.08555 22.5322 9.13097 22.41 9.15983C22.33 9.16483 22.235 9.20483 22.085 9.27983C21.935 9.35483 21.675 9.50983 21.635 9.36483L21.495 9.41483C21.325 9.50483 21.345 9.37983 21.37 9.34483C21.37 9.34483 21.28 9.44483 21.285 9.35483C21.285 9.26483 21.345 9.27983 21.45 9.24983C21.55 9.21983 21.7 9.14983 21.64 9.09983C21.575 9.04983 21.505 9.14983 21.43 9.18983C21.36 9.22483 21.215 9.24983 21.19 9.14483C21.17 9.03983 21.17 8.96483 20.975 8.95483C20.775 8.94483 20.78 8.81983 20.835 8.76483C20.89 8.71483 20.935 8.62483 21.12 8.58983H21.125Z" fill="#999999"/>
<path d="M21.7499 9.54496C21.7499 9.54496 22.0549 9.40496 22.3349 9.33996C22.6199 9.27496 22.3949 9.34996 22.3499 9.35996C22.2999 9.37496 21.8649 9.51996 21.7599 9.56996C21.6599 9.61996 21.6749 9.57996 21.7499 9.54996V9.54496ZM21.8199 9.60996C21.8199 9.60996 22.1649 9.49496 22.2299 9.53996C22.2949 9.58996 22.2399 9.56996 22.1649 9.57996C22.0849 9.58496 21.8799 9.61996 21.8249 9.61996C21.7699 9.61996 21.8199 9.60996 21.8199 9.60996ZM22.3699 9.48496C22.3699 9.48496 22.4399 9.47496 22.4449 9.50496C22.4499 9.52496 22.4149 9.52996 22.3799 9.52496C22.3449 9.51996 22.3149 9.49996 22.3749 9.48496H22.3699Z" fill="black"/>
<path d="M13.27 12.4947C13.27 12.4947 13.255 12.1847 13.41 12.0347C13.565 11.8847 14.3 11.1097 14.415 10.8947C14.415 10.8947 14.515 10.9597 14.515 11.0847C14.515 11.0847 14.64 10.8697 14.74 10.7847C14.74 10.7847 14.825 10.8747 14.815 11.0547C14.815 11.0547 14.99 10.9597 15.265 10.9597C15.265 10.9597 15.165 11.0797 15.16 11.1547C15.16 11.1547 15.54 11.1047 15.745 11.1397C15.745 11.1397 15.215 11.4397 15.36 11.4647C15.515 11.4897 15.67 11.4647 15.67 11.4647C15.67 11.4647 15.5 11.6297 15.23 11.6647C15.23 11.6647 15.575 11.6647 15.64 11.7397C15.64 11.7397 15.31 11.7897 15.04 11.9897C15.04 11.9897 15.02 11.9797 15.02 11.9047C15.02 11.9047 15.005 11.9747 14.93 12.0397C14.855 12.0997 14.675 12.2397 14.605 12.3047C14.535 12.3697 14.415 12.5047 14.275 12.5047C14.275 12.5047 14.305 12.3997 14.205 12.3647C14.1531 12.347 14.0971 12.3446 14.0439 12.3579C13.9907 12.3712 13.9425 12.3996 13.905 12.4397C13.905 12.4397 13.555 12.4447 13.435 12.4647C13.435 12.4647 13.515 12.3347 13.585 12.3347C13.665 12.3347 13.965 12.3847 13.99 12.1747C14.02 11.9747 13.8 12.0247 13.88 11.9047C13.965 11.7847 13.945 11.7947 13.95 11.7747C13.95 11.7747 13.88 11.8147 13.84 11.9247C13.8075 12.0463 13.7331 12.1525 13.63 12.2247C13.5316 12.2881 13.4494 12.3737 13.39 12.4747C13.39 12.4747 13.325 12.4747 13.27 12.4947Z" fill="white"/>
<path d="M13.61 12.3098C13.61 12.3098 13.625 12.2698 13.725 12.2498C13.835 12.2348 13.84 12.1848 13.825 12.1598C13.81 12.1398 13.75 12.1398 13.85 12.0198C13.85 12.0198 13.89 12.0348 13.91 12.0598C13.94 12.0898 14.055 12.3348 13.61 12.3098Z" fill="white"/>
<path d="M13.365 12.0947C13.365 12.2947 13.63 12.2197 13.63 12.2197C13.5595 12.2717 13.4957 12.3321 13.44 12.3997C13.46 12.2997 13.29 12.2747 13.29 12.2747C13.3053 12.2111 13.3306 12.1503 13.365 12.0947ZM14.33 11.0197L14.415 10.8947C14.415 10.8947 14.515 10.9597 14.515 11.0847C14.515 11.0847 14.64 10.8697 14.74 10.7847C14.74 10.7847 14.825 10.8747 14.815 11.0547C14.815 11.0547 14.99 10.9597 15.265 10.9597C15.265 10.9597 15.165 11.0797 15.16 11.1547C15.16 11.1547 15.54 11.1047 15.745 11.1397C15.745 11.1397 15.215 11.4397 15.36 11.4647C15.515 11.4897 15.67 11.4647 15.67 11.4647C15.67 11.4647 15.5 11.6297 15.23 11.6647C15.23 11.6647 15.575 11.6647 15.64 11.7397C15.64 11.7397 15.54 11.7547 15.41 11.7997C15.41 11.7997 15.315 11.7097 15.03 11.7247C15.03 11.7247 15.25 11.5947 15.43 11.5547C15.43 11.5547 15.35 11.4547 15.23 11.5497C15.23 11.5497 14.985 11.3847 15.19 11.2397C15.19 11.2397 15.05 11.2147 14.955 11.2797C14.955 11.2797 14.955 11.1647 15.06 11.1147C15.06 11.1147 14.79 11.0647 14.725 11.2647C14.725 11.2647 14.675 11.1897 14.7 11.0947C14.7 11.0947 14.535 11.1897 14.46 11.2947C14.46 11.2947 14.435 11.0947 14.33 11.0197ZM13.81 12.2997C13.765 12.3097 13.695 12.3147 13.61 12.3097C13.61 12.3097 13.62 12.2847 13.675 12.2597C13.675 12.2597 13.695 12.2997 13.81 12.2997Z" fill="#999999"/>
<path d="M14.3001 11.5347C14.3001 11.5347 14.4251 11.6347 14.4651 11.6847C14.4651 11.6847 14.5801 11.6147 14.6151 11.5497C14.6151 11.5497 14.7101 11.6047 14.7351 11.6897C14.7351 11.6897 14.8001 11.6497 14.8101 11.5897C14.8101 11.5897 14.9601 11.6197 15.0201 11.6697C15.0201 11.6697 15.0401 11.5197 15.0201 11.4297C15.0201 11.4297 15.1251 11.4397 15.1901 11.4647C15.1901 11.4647 15.1301 11.3647 15.4401 11.2397C15.4401 11.2397 15.2051 11.2947 15.1151 11.3897C15.1151 11.3897 15.0151 11.3997 14.9701 11.3697V11.5947C14.9701 11.5947 14.9101 11.5647 14.7951 11.5397C14.7951 11.5397 14.7651 11.5897 14.7451 11.5997C14.7451 11.5997 14.6701 11.5397 14.6401 11.4647C14.6401 11.4647 14.5251 11.5697 14.4901 11.6147C14.4901 11.6147 14.3751 11.5347 14.3001 11.5347Z" fill="black"/>
<path d="M13.595 13.0645C13.595 13.0645 13.645 13.0845 13.76 12.9945C13.875 12.9045 14.195 12.6995 14.22 12.5345C14.255 12.3695 14.12 12.3645 14.02 12.4095C13.91 12.4595 13.955 12.5445 13.96 12.5795C13.96 12.6095 13.97 12.7245 13.795 12.8795L13.595 13.0645Z" fill="#FFC221"/>
<path d="M13.5649 13.1145C13.5649 13.1145 13.3049 13.0045 13.5349 12.8895C13.7649 12.7745 13.8699 12.7445 13.8949 12.6445C13.9249 12.5495 13.9049 12.5695 13.8199 12.6095C13.7349 12.6445 13.4099 12.7995 13.3599 12.6595C13.3599 12.6595 13.4949 12.7095 13.6599 12.6295C13.8299 12.5445 13.9699 12.5245 13.8599 12.4895C13.6763 12.4703 13.4909 12.4788 13.3099 12.5145C13.2399 12.5345 13.2599 12.5295 13.2449 12.5945C13.2349 12.6595 13.1649 12.7945 13.1349 12.8295C13.1099 12.8695 13.0449 13.0295 13.1649 13.1045C13.2258 13.1384 13.294 13.1571 13.3636 13.1588C13.4333 13.1606 13.5024 13.1454 13.5649 13.1145Z" fill="#FFC221"/>
<path d="M13.4649 12.5498C13.4649 12.5498 13.3999 12.5598 13.4149 12.5848C13.4249 12.6098 13.4399 12.6048 13.4649 12.6048C13.4799 12.6048 13.5149 12.5948 13.5199 12.5798C13.5199 12.5648 13.4799 12.5448 13.4649 12.5548V12.5498Z" fill="black"/>
<path d="M13.5449 13.0549C13.5449 13.0549 13.4249 12.9999 13.5649 12.9249C13.6999 12.8499 13.8449 12.7749 13.8649 12.7449C13.8649 12.7449 13.7999 12.8399 13.5449 13.0549Z" fill="white"/>
</g>
</g>
<defs>
<clipPath id="clip0_3053_1928">
<rect width="24" height="24" fill="white"/>
</clipPath>
<clipPath id="clip1_3053_1928">
<rect width="24" height="24" rx="12" fill="white"/>
</clipPath>
</defs>
</svg>
