<svg width="24" height="24" viewBox="0 0 24 24" fill="none" xmlns="http://www.w3.org/2000/svg">
<g clip-path="url(#clip0_2214_3699)">
<g clip-path="url(#clip1_2214_3699)">
<mask id="mask0_2214_3699" style="mask-type:luminance" maskUnits="userSpaceOnUse" x="0" y="0" width="32" height="24">
<path d="M0 0H32V24H0V0Z" fill="white"/>
</mask>
<g mask="url(#mask0_2214_3699)">
<path d="M0 0H32V24H0V0Z" fill="#CC0000"/>
<path d="M0 0H32V1.715H0V0Z" fill="#CC0000"/>
<path d="M0 1.71509H32V3.43009H0V1.71509Z" fill="white"/>
<path d="M0 3.42993H32V5.14493H0V3.42993Z" fill="#CC0000"/>
<path d="M0 5.14502H32V6.85002H0V5.14502Z" fill="white"/>
<path d="M0 6.85498H32V8.56998H0V6.85498Z" fill="#CC0000"/>
<path d="M0 8.57007H32V10.2851H0V8.57007Z" fill="white"/>
<path d="M0 10.2849H32V11.9999H0V10.2849Z" fill="#CC0000"/>
<path d="M0 12H32V13.715H0V12Z" fill="white"/>
<path d="M0 13.7151H32V15.4301H0V13.7151Z" fill="#CC0000"/>
<path d="M0 15.4299H32V17.1449H0V15.4299Z" fill="white"/>
<path d="M0 17.145H32V18.85H0V17.145Z" fill="#CC0000"/>
<path d="M0 18.855H32V20.57H0V18.855Z" fill="white"/>
<path d="M0 20.5701H32V22.2851H0V20.5701Z" fill="#CC0000"/>
<path d="M0 22.2849H32V23.9999H0V22.2849Z" fill="white"/>
<path d="M0 0.0249023H16V13.7399H0V0.0249023Z" fill="#000066"/>
<path d="M10.375 3.69005L10.675 5.72505L11.825 4.02505L11.205 5.98505L12.98 4.94505L11.575 6.44505L13.625 6.28505L11.71 7.02505L13.625 7.76505L11.575 7.60505L12.98 9.10505L11.205 8.06505L11.82 10.03L10.67 8.32505L10.37 10.36L10.075 8.32505L8.92501 10.025L9.54501 8.06505L7.77001 9.10505L9.17001 7.60505L7.12001 7.76505L9.04001 7.02505L7.12501 6.28505L9.17501 6.44505L7.77001 4.94505L9.54501 5.98505L8.92501 4.02005L10.075 5.72505L10.375 3.69005ZM8.71001 3.77505C8.16869 3.53281 7.57531 3.43005 6.98405 3.47615C6.3928 3.52225 5.82252 3.71573 5.32528 4.03894C4.82805 4.36214 4.41971 4.80476 4.13754 5.32638C3.85538 5.848 3.7084 6.432 3.71001 7.02505C3.7084 7.61809 3.85538 8.20209 4.13754 8.72371C4.41971 9.24533 4.82805 9.68795 5.32528 10.0112C5.82252 10.3344 6.3928 10.5278 6.98405 10.5739C7.57531 10.62 8.16869 10.5173 8.71001 10.275C8.11224 10.7044 7.40759 10.9606 6.67362 11.0153C5.93965 11.07 5.20481 10.9211 4.55001 10.585C3.89595 10.2485 3.34735 9.73819 2.96451 9.11012C2.58167 8.48206 2.37942 7.76059 2.38001 7.02505C2.38025 6.28968 2.5832 5.56862 2.96656 4.94109C3.34992 4.31356 3.89885 3.80385 4.55303 3.46798C5.20721 3.1321 5.94131 2.98306 6.67468 3.03724C7.40804 3.09141 8.11228 3.3467 8.71001 3.77505Z" fill="#FFCC00"/>
</g>
</g>
</g>
<defs>
<clipPath id="clip0_2214_3699">
<path d="M0 12C0 5.37258 5.37258 0 12 0C18.6274 0 24 5.37258 24 12C24 18.6274 18.6274 24 12 24C5.37258 24 0 18.6274 0 12Z" fill="white"/>
</clipPath>
<clipPath id="clip1_2214_3699">
<rect width="32" height="24" fill="white"/>
</clipPath>
</defs>
</svg>
