<svg width="24" height="24" viewBox="0 0 24 24" fill="none" xmlns="http://www.w3.org/2000/svg">
<g clip-path="url(#clip0_2214_3985)">
<g clip-path="url(#clip1_2214_3985)">
<path fill-rule="evenodd" clip-rule="evenodd" d="M0 0H32V24H0V0Z" fill="#CE1126"/>
<path fill-rule="evenodd" clip-rule="evenodd" d="M0 0H16V12H0V0Z" fill="#002B7F"/>
<path fill-rule="evenodd" clip-rule="evenodd" d="M9.00001 11.4649L7.96501 10.7649L6.97001 11.4699L7.29501 10.2249L6.34501 9.4649L7.57001 9.3899L7.97501 8.2099L8.41501 9.4099L9.61501 9.4449L8.66501 10.2599L9.00001 11.4649ZM8.82001 3.1849L7.99001 2.6499L7.19001 3.1699L7.41001 2.1699L6.68001 1.5349L7.65001 1.4549L8.01001 0.524902L8.38001 1.4599L9.33501 1.5449L8.60001 2.2149L8.82001 3.1849ZM5.17001 6.1599L4.37001 5.6099L3.53501 6.1599L3.79501 5.1899L3.04001 4.5499L4.00001 4.4999L4.35001 3.5499L4.69001 4.4949L5.67001 4.5499L4.92001 5.1749L5.17001 6.1599ZM12.5 5.4999L11.73 4.9999L10.98 5.4999L11.2 4.5849L10.5 3.9949L11.415 3.9199L11.73 3.0599L12.08 3.9299L12.965 3.9799L12.28 4.5949L12.5 5.4999ZM10.345 7.6699L9.83001 7.3499L9.31501 7.6799L9.45001 7.0649L8.99001 6.6499L9.59001 6.5999L9.82001 6.0199L10.065 6.5999L10.66 6.6499L10.205 7.0649L10.345 7.6699Z" fill="white"/>
</g>
</g>
<defs>
<clipPath id="clip0_2214_3985">
<path d="M0 12C0 5.37258 5.37258 0 12 0C18.6274 0 24 5.37258 24 12C24 18.6274 18.6274 24 12 24C5.37258 24 0 18.6274 0 12Z" fill="white"/>
</clipPath>
<clipPath id="clip1_2214_3985">
<rect width="32" height="24" fill="white"/>
</clipPath>
</defs>
</svg>
