<svg width="24" height="24" viewBox="0 0 24 24" fill="none" xmlns="http://www.w3.org/2000/svg">
<g clip-path="url(#clip0_3053_1900)">
<g clip-path="url(#clip1_3053_1900)">
<path d="M-3.90002 0H28.1V24H-3.90002V0Z" fill="white"/>
<path d="M-1.20013 11.9998H30.7999V23.9998H-1.20013V11.9998ZM2.79987 11.9998C2.79987 14.1215 3.64272 16.1563 5.14301 17.6566C6.6433 19.1569 8.67813 19.9998 10.7999 19.9998C12.9216 19.9998 14.9564 19.1569 16.4567 17.6566C17.957 16.1563 18.7999 14.1215 18.7999 11.9998C18.7999 9.87802 17.957 7.84319 16.4567 6.3429C14.9564 4.84261 12.9216 3.99976 10.7999 3.99976C8.67813 3.99976 6.6433 4.84261 5.14301 6.3429C3.64272 7.84319 2.79987 9.87802 2.79987 11.9998Z" fill="#D00C33"/>
</g>
</g>
<defs>
<clipPath id="clip0_3053_1900">
<rect width="24" height="24" fill="white"/>
</clipPath>
<clipPath id="clip1_3053_1900">
<rect width="24" height="24" rx="12" fill="white"/>
</clipPath>
</defs>
</svg>
