<svg width="24" height="24" viewBox="0 0 24 24" fill="none" xmlns="http://www.w3.org/2000/svg">
<g clip-path="url(#clip0_2214_4396)">
<g clip-path="url(#clip1_2214_4396)">
<mask id="mask0_2214_4396" style="mask-type:luminance" maskUnits="userSpaceOnUse" x="-9" y="0" width="34" height="24">
<path d="M-8.00143 0H24.0001V24H-8.00143V0Z" fill="white"/>
</mask>
<g mask="url(#mask0_2214_4396)">
<path fill-rule="evenodd" clip-rule="evenodd" d="M-11.9998 0H24.0002V24H-11.9998V0Z" fill="#198A00"/>
<path fill-rule="evenodd" clip-rule="evenodd" d="M19.7767 8.625H24.0001V24H19.7767V8.625Z" fill="#EF7D00"/>
<path fill-rule="evenodd" clip-rule="evenodd" d="M15.558 8.61572H19.7767V23.9907H15.558V8.61572Z" fill="#000001"/>
<path fill-rule="evenodd" clip-rule="evenodd" d="M11.2501 8.625H15.558V24H11.2455L11.2501 8.625Z" fill="#DE2010"/>
<path fill-rule="evenodd" clip-rule="evenodd" d="M21.1689 3.07495C21.1689 3.07495 22.7626 2.39526 22.9126 2.25464C22.983 2.33901 22.2751 3.19214 20.9017 3.5062C22.1486 3.21558 23.2126 2.28745 23.433 2.31558C23.4939 2.32964 23.4798 3.22026 20.6205 3.9937C22.5986 3.47808 23.747 2.52183 23.733 2.62495C23.747 2.64839 23.5361 3.37495 21.8064 3.94214C22.2892 3.82964 23.6017 3.03276 23.5876 3.18745C23.6298 3.24839 22.322 4.9312 19.9501 4.38276C21.8439 4.87495 23.0673 3.68901 23.2408 3.71245C23.2783 3.71714 22.8939 4.7437 20.5126 4.80933C21.6517 4.69214 21.3236 4.80464 21.3236 4.80464C21.3236 4.80464 20.6533 5.32964 19.8376 4.97339C20.4751 5.14683 20.5455 5.1562 20.5595 5.20776C20.5173 5.28276 19.997 5.38589 19.4861 5.11401C19.8939 5.28276 20.2595 5.31089 20.2642 5.37183C20.2595 5.39058 20.0017 5.54058 19.7673 5.43276C19.533 5.32495 17.4095 4.02183 17.4095 4.02183L21.0376 3.02339L21.1689 3.07026V3.07495ZM16.9033 6.6187C16.5845 6.6187 16.5751 6.89995 16.5751 6.89995C16.5751 6.89995 16.5517 6.92339 16.5658 7.05933L16.6455 6.93745C16.683 6.94214 16.8283 6.98433 17.058 6.8062C16.847 7.02651 16.9736 7.1062 16.9736 7.1062C16.9736 7.1062 16.9267 7.27964 17.0861 7.31245C17.0392 7.24214 17.0673 7.1812 17.0673 7.1812C17.0673 7.1812 17.2923 7.15776 17.2783 6.88589C17.283 7.13433 17.4189 7.19526 17.4189 7.19526C17.4189 7.19526 17.4189 7.3312 17.5642 7.34526C17.4892 7.27495 17.5033 7.16714 17.5033 7.16714C17.5033 7.16714 17.6908 7.02651 17.5361 6.79214C17.6298 6.73589 17.7095 6.5812 17.7095 6.5812C17.7095 6.5812 17.5783 6.52495 17.5173 6.47808C17.4892 6.41714 17.5173 6.07964 17.5173 6.07964L17.433 5.6437L17.208 6.32339C17.2173 6.22964 17.222 6.6187 16.9033 6.6187Z" fill="#EF7D00" stroke="black" stroke-width="0.046875" stroke-linejoin="round"/>
<path fill-rule="evenodd" clip-rule="evenodd" d="M18.4783 5.63906C18.4877 5.64375 18.7173 5.90156 18.9423 5.8875C19.0267 5.81719 18.7689 5.66719 18.7689 5.62969C18.8627 5.71406 19.2423 6.04219 19.4908 5.925C19.5845 5.78438 19.3127 5.80781 19.0127 5.42813C19.2236 5.56875 19.7486 5.87344 19.997 5.75625C20.0955 5.64375 19.4486 5.29219 19.2283 5.02031L18.6658 4.73438L17.9064 5.35781L18.483 5.63906H18.4783Z" fill="#EF7D00" stroke="black" stroke-width="0.046875" stroke-linejoin="round"/>
<path fill-rule="evenodd" clip-rule="evenodd" d="M17.6205 3.50628C17.6205 3.50628 17.8783 3.35628 18.9142 3.43128C19.0267 3.44534 19.6173 3.22972 19.8095 3.16409C20.1095 3.10784 21.0751 2.90159 21.3283 2.70472C21.5158 2.68128 21.2814 3.03753 21.047 3.12659C20.8033 3.23441 19.9173 3.54378 19.5986 3.50159C19.9783 3.50628 19.7673 3.81566 19.1392 3.67034C19.4392 3.83909 19.3267 3.86722 19.3267 3.86722C19.3267 3.86722 18.797 3.89534 18.6564 3.77347C19.0126 3.90941 18.8626 3.96097 18.8626 3.96097C18.8626 3.96097 18.5017 3.99378 18.333 3.91409C18.5908 3.99378 18.4595 4.04066 18.4595 4.04066C18.4595 4.04066 18.2486 4.07816 18.0751 4.01253C17.897 3.95159 17.6345 3.51097 17.6205 3.51097V3.50628Z" fill="#EF7D00" stroke="black" stroke-width="0.046875" stroke-linecap="round" stroke-linejoin="round"/>
<path fill-rule="evenodd" clip-rule="evenodd" d="M18.033 5.78442L18.0705 6.4688L18.033 6.52505C18.0189 6.5438 17.5501 6.45005 17.6111 6.8063C17.6111 6.9563 17.6111 6.9938 17.7142 7.07349C17.6908 6.97974 17.6955 6.90942 17.6955 6.90942C17.6955 6.90942 17.8314 6.98911 17.958 6.7688C17.8689 6.98442 17.9298 7.06411 17.9533 7.0688C17.972 7.1063 17.9158 7.27974 18.0939 7.27505C18.0236 7.20942 18.0564 7.11567 18.0564 7.11567C18.0564 7.11567 18.2439 7.08755 18.1783 6.75474C18.2439 6.68911 18.272 6.75474 18.272 6.75474C18.272 6.75474 18.2908 6.95161 18.4548 6.90942C18.5251 6.95161 18.4408 7.05942 18.4408 7.05942C18.4408 7.05942 18.558 7.05942 18.5955 6.96567C18.6283 6.86255 18.6705 6.68442 18.4783 6.60942C18.4548 6.53911 18.5533 6.53442 18.5533 6.53442C18.5533 6.53442 18.6751 6.57661 18.7126 6.63755C18.7501 6.69849 18.7361 6.47817 18.5814 6.45005C18.3939 6.45005 18.3845 6.40786 18.3845 6.40317L18.3376 5.76099L18.033 5.78442Z" fill="#EF7D00" stroke="black" stroke-width="0.046875" stroke-linejoin="round"/>
<path fill-rule="evenodd" clip-rule="evenodd" d="M18.6845 6.36549C18.6845 6.33268 18.3658 5.90143 18.4501 5.84987C18.5298 5.86393 18.6611 6.0608 18.7736 5.99518C18.7408 5.92018 18.6423 5.96237 18.5345 5.76549C18.422 5.54049 18.408 5.20768 18.0189 4.84674C18.272 5.23112 18.8345 5.45612 18.8626 5.34362C18.8908 5.23112 18.3611 4.80924 18.3892 4.70612C18.4923 4.91237 19.0173 5.38112 19.4017 5.34362C19.4298 5.24987 19.0876 5.07174 18.9986 4.90299C18.7501 4.73424 18.0892 4.16705 18.0798 4.0358C17.9639 3.83781 17.8054 3.66809 17.6158 3.53893L17.5783 3.45924C17.4283 3.10768 17.6251 2.99049 17.7423 2.97643C17.8361 2.96237 17.8642 2.97643 17.9298 2.94362L17.6908 2.84987C17.7986 2.92955 18.0658 2.85924 18.0095 3.08424C18.1267 3.03737 18.3798 2.73736 17.7236 2.67174C17.508 2.42799 16.6314 2.28736 16.4111 3.35611C16.4298 3.37018 16.4392 3.38424 16.4955 3.42174C16.2142 3.29049 15.4689 3.18737 15.2017 3.14049C14.4705 2.93424 13.7158 2.42799 13.6455 2.48893C13.5517 2.5358 14.0861 3.03268 14.058 3.04205C13.641 2.80465 13.2106 2.59179 12.7689 2.40455C12.4876 2.30143 12.2111 2.05768 12.183 2.10455C12.0798 2.31549 12.6283 2.84986 12.7314 2.9108C12.8345 2.97174 13.6361 3.34674 13.622 3.35143C12.4126 2.80299 12.2158 2.69986 12.1501 2.63893C12.0423 2.61549 11.7845 2.26393 11.7142 2.28736C11.672 2.32486 11.7517 2.87799 12.3283 3.13112C12.422 3.19674 13.5658 3.60455 13.5564 3.63736C13.5564 3.64674 12.2439 3.0983 12.197 3.07486C11.9439 2.98111 11.6345 2.63424 11.5783 2.67174C11.522 2.70924 11.7189 3.08424 11.972 3.20143C12.108 3.25768 12.6189 3.5108 13.0783 3.67018C13.1064 3.68424 12.2486 3.34674 11.8361 3.17799C11.6486 3.07487 11.5642 2.94362 11.5361 2.97174C11.4892 2.99987 11.6017 3.55299 12.9283 3.86237C12.9611 3.88112 13.397 3.76393 13.3736 3.77799C13.1301 3.83924 12.8826 3.8831 12.633 3.90924C12.6189 3.94674 12.7173 4.14362 13.4017 4.10611C13.4861 4.10143 13.9642 3.93268 13.922 3.96549C13.6943 4.05238 13.4628 4.12902 13.2283 4.19518C13.1861 4.19518 12.9658 4.2233 12.9564 4.24205C12.947 4.27955 13.1205 4.42018 13.4861 4.43893C13.8142 4.45768 14.433 4.24205 14.4236 4.25612C14.4048 4.27018 13.8236 4.47174 13.8095 4.48112C13.7861 4.49518 13.5751 4.50455 13.5658 4.5233C13.547 4.56549 13.8751 4.87018 14.8361 4.54205C14.7423 4.6733 14.2736 4.76237 14.2736 4.7858C14.2736 4.80924 14.3767 4.90299 14.5408 4.94049C14.6205 4.95924 14.733 4.95455 14.8361 4.94049C15.0236 4.90299 15.2111 4.83268 15.4595 4.60299C15.4876 4.6733 14.8455 5.00143 14.8736 5.02955C15.0142 5.1608 15.4783 5.01549 15.5064 4.99674C15.5392 4.98268 16.397 4.49518 16.397 4.43424C16.4111 4.50924 15.2861 5.1233 15.3001 5.14674C15.3705 5.25924 15.7548 5.14205 15.7689 5.12799L16.2751 4.85612C16.2892 4.85143 15.722 5.18424 15.7689 5.24049C15.7455 5.4608 16.6595 5.09049 16.7298 5.04362C16.7626 5.02018 16.2892 5.24987 16.2892 5.35768C16.4439 5.61549 16.9314 5.5358 17.0064 5.47955C17.0439 5.45143 16.9595 5.66705 16.9876 5.6483C17.0453 5.5893 17.0928 5.5212 17.1283 5.44674C17.1189 5.52174 17.0626 5.63424 17.0345 5.76549C17.0064 5.89674 16.9923 6.04205 16.9501 6.19674C16.9408 6.26237 17.2501 6.0608 17.2033 5.57799C17.2314 5.83112 17.1095 6.29987 17.1423 6.32799C17.2033 6.37487 17.3861 6.09362 17.4048 5.90143C17.4564 5.99518 17.5689 6.19674 17.6673 6.24362C17.658 6.0983 17.6673 6.10299 17.6205 5.96237C17.6455 5.76549 17.658 5.51393 17.658 5.20768C17.9205 5.70924 18.0283 5.92487 17.9533 6.30924C18.033 6.34205 18.1548 6.03737 18.1455 5.88737C18.1728 6.01402 18.2398 6.12866 18.3368 6.21464C18.4337 6.30062 18.5555 6.35346 18.6845 6.36549Z" fill="#EF7D00" stroke="black" stroke-width="0.0515625" stroke-linecap="round" stroke-linejoin="round"/>
<path fill-rule="evenodd" clip-rule="evenodd" d="M14.3158 3.17334C14.3158 3.17334 14.133 3.30928 13.9127 3.2999C13.9689 3.5249 14.4283 3.35146 14.4283 3.35146C14.4283 3.35146 14.208 3.5999 14.0486 3.6374C14.1423 3.71709 14.5455 3.68897 14.6111 3.65147C14.6767 3.61397 14.7986 3.45459 14.7986 3.45459C14.7986 3.45459 14.3861 3.93272 14.3298 3.92803C14.3158 3.98428 14.7564 3.96553 14.8455 3.88115C14.9345 3.79678 15.1736 3.6749 15.1736 3.6749C15.1736 3.6749 14.5642 4.09678 14.5408 4.09678C14.7658 4.15303 15.2205 4.02178 15.5111 3.84365C15.0798 4.12959 15.0423 4.18115 14.822 4.27959C15.0189 4.32178 15.1173 4.45303 15.7736 4.16709C16.1486 3.98896 16.3642 3.66084 16.3642 3.66084C16.0778 3.99829 15.7353 4.28373 15.3517 4.50459C15.3283 4.55146 15.7923 4.74834 16.3783 4.13428" fill="#EF7D00"/>
<path d="M14.3158 3.17334C14.3158 3.17334 14.133 3.30928 13.9127 3.2999C13.9689 3.5249 14.4283 3.35146 14.4283 3.35146C14.4283 3.35146 14.208 3.5999 14.0486 3.6374C14.1423 3.71709 14.5455 3.68897 14.6111 3.65147C14.6767 3.61397 14.7986 3.45459 14.7986 3.45459C14.7986 3.45459 14.3861 3.93272 14.3298 3.92803C14.3158 3.98428 14.7564 3.96553 14.8455 3.88115C14.9345 3.79678 15.1736 3.6749 15.1736 3.6749C15.1736 3.6749 14.5642 4.09678 14.5408 4.09678C14.7658 4.15303 15.2205 4.02178 15.5111 3.84365C15.0798 4.12959 15.0423 4.18115 14.822 4.27959C15.0189 4.32178 15.1173 4.45303 15.7736 4.16709C16.1486 3.98896 16.3642 3.66084 16.3642 3.66084C16.0778 3.99829 15.7353 4.28373 15.3517 4.50459C15.3283 4.55146 15.7923 4.74834 16.3783 4.13428" stroke="black" stroke-width="0.0515625" stroke-linecap="round" stroke-linejoin="round"/>
<path fill-rule="evenodd" clip-rule="evenodd" d="M17.5033 4.5C17.5033 4.5 17.5455 4.6875 17.7048 4.82812C17.8642 4.96875 17.8736 5.10938 17.8736 5.10938M17.4283 3.28125C17.4283 3.28125 17.4798 3.45469 17.6439 3.5625C17.8127 3.66563 18.0658 4.00312 18.0798 4.06406C18.0986 4.13437 18.197 4.65469 18.1877 4.71094M16.4158 3.53906C16.4252 3.60938 16.1814 3.92813 16.5189 4.30781C16.2095 4.68281 16.2095 4.72969 16.2095 4.72969C16.2095 4.72969 16.383 4.82344 16.6877 4.56094C17.1939 5.17969 17.0252 5.46094 17.0252 5.46094" fill="#EF7D00"/>
<path d="M17.5033 4.5C17.5033 4.5 17.5455 4.6875 17.7048 4.82812C17.8642 4.96875 17.8736 5.10938 17.8736 5.10938M17.4283 3.28125C17.4283 3.28125 17.4798 3.45469 17.6439 3.5625C17.8127 3.66563 18.0658 4.00312 18.0798 4.06406C18.0986 4.13437 18.197 4.65469 18.1877 4.71094M16.4158 3.53906C16.4252 3.60938 16.1814 3.92813 16.5189 4.30781C16.2095 4.68281 16.2095 4.72969 16.2095 4.72969C16.2095 4.72969 16.383 4.82344 16.6877 4.56094C17.1939 5.17969 17.0252 5.46094 17.0252 5.46094" stroke="black" stroke-width="0.0515625" stroke-linecap="round"/>
<path fill-rule="evenodd" clip-rule="evenodd" d="M16.983 5.025C16.983 5.025 16.9361 4.95938 17.0205 4.71094C17.0955 4.80469 17.1798 4.81875 17.2126 4.85156C17.2501 4.89375 17.6345 4.94531 17.6533 5.20312" fill="#EF7D00"/>
<path d="M16.983 5.025C16.983 5.025 16.9361 4.95938 17.0205 4.71094C17.0955 4.80469 17.1798 4.81875 17.2126 4.85156C17.2501 4.89375 17.6345 4.94531 17.6533 5.20312" stroke="black" stroke-width="0.0515625" stroke-linecap="round" stroke-linejoin="round"/>
<path fill-rule="evenodd" clip-rule="evenodd" d="M17.433 2.69532C17.433 2.67657 17.3533 2.50782 17.0674 2.71407C17.222 2.72344 17.372 2.81251 17.433 2.69532Z" fill="#EF7D00" stroke="black" stroke-width="0.0515625"/>
<path fill-rule="evenodd" clip-rule="evenodd" d="M20.1611 3.44531C20.1752 3.45469 21.0142 3.63281 21.2955 3.54375C20.9392 4.02187 20.222 3.69844 20.222 3.69844C20.5736 3.80156 20.5877 3.79219 20.7002 3.89531C20.7377 3.98906 20.0533 3.94219 19.833 3.81563C20.4564 4.0125 20.4705 4.00313 20.4892 4.07344C20.5173 4.18125 19.4673 4.04531 19.3783 3.90938C19.6595 4.125 19.8095 4.16719 19.9642 4.26562C19.7767 4.35 19.4252 4.43438 18.783 3.97969C19.6267 4.74844 20.3908 4.70156 20.5127 4.8375C20.2173 5.27344 19.0736 4.57969 18.5486 4.22812C18.0236 3.87656 19.697 5.07656 19.8517 5.05781C19.7767 5.175 19.2236 5.07188 19.1861 5.01094" fill="#EF7D00"/>
<path d="M20.1611 3.44531C20.1752 3.45469 21.0142 3.63281 21.2955 3.54375C20.9392 4.02187 20.222 3.69844 20.222 3.69844C20.5736 3.80156 20.5877 3.79219 20.7002 3.89531C20.7377 3.98906 20.0533 3.94219 19.833 3.81563C20.4564 4.0125 20.4705 4.00313 20.4892 4.07344C20.5173 4.18125 19.4673 4.04531 19.3783 3.90938C19.6595 4.125 19.8095 4.16719 19.9642 4.26562C19.7767 4.35 19.4252 4.43438 18.783 3.97969C19.6267 4.74844 20.3908 4.70156 20.5127 4.8375C20.2173 5.27344 19.0736 4.57969 18.5486 4.22812C18.0236 3.87656 19.697 5.07656 19.8517 5.05781C19.7767 5.175 19.2236 5.07188 19.1861 5.01094" stroke="black" stroke-width="0.0515625" stroke-linejoin="round"/>
<path fill-rule="evenodd" clip-rule="evenodd" d="M20.3767 4.25146C20.283 4.26553 19.9877 4.26553 19.9455 4.25615L20.3767 4.25146Z" fill="#EF7D00"/>
<path d="M20.3767 4.25146C20.283 4.26553 19.9877 4.26553 19.9455 4.25615" stroke="black" stroke-width="0.0515625" stroke-linecap="round"/>
<path fill-rule="evenodd" clip-rule="evenodd" d="M14.0674 3.04688C14.0674 3.04688 14.7049 3.38437 14.9767 3.36094C14.9248 3.40472 14.8641 3.4367 14.7986 3.45469C14.8642 3.48281 15.0517 3.58125 15.333 3.52031L15.1783 3.66094C15.1783 3.66094 15.422 3.75469 15.6939 3.61406L15.5627 3.7875L15.7549 3.80156" fill="#EF7D00"/>
<path d="M14.0674 3.04688C14.0674 3.04688 14.7049 3.38437 14.9767 3.36094C14.9248 3.40472 14.8641 3.4367 14.7986 3.45469C14.8642 3.48281 15.0517 3.58125 15.333 3.52031L15.1783 3.66094C15.1783 3.66094 15.422 3.75469 15.6939 3.61406L15.5627 3.7875L15.7549 3.80156" stroke="black" stroke-width="0.0515625" stroke-linecap="round" stroke-linejoin="round"/>
</g>
</g>
</g>
<defs>
<clipPath id="clip0_2214_4396">
<path d="M0.00012207 12C0.00012207 5.37258 5.37271 0 12.0001 0C18.6275 0 24.0001 5.37258 24.0001 12C24.0001 18.6274 18.6275 24 12.0001 24C5.37271 24 0.00012207 18.6274 0.00012207 12Z" fill="white"/>
</clipPath>
<clipPath id="clip1_2214_4396">
<rect width="32" height="24" fill="white" transform="translate(-7.99988)"/>
</clipPath>
</defs>
</svg>
