<svg width="24" height="24" viewBox="0 0 24 24" fill="none" xmlns="http://www.w3.org/2000/svg">
<g clip-path="url(#clip0_2214_4203)">
<path d="M12 24C18.6274 24 24 18.6274 24 12C24 5.37258 18.6274 0 12 0C5.37258 0 0 5.37258 0 12C0 18.6274 5.37258 24 12 24Z" fill="white"/>
<path d="M23.2536 7.82617H0.746391C0.264 9.12616 0 10.5322 0 12.0001C0 13.4679 0.264 14.874 0.746391 16.174H23.2537C23.736 14.874 24 13.4679 24 12.0001C24 10.5322 23.736 9.12616 23.2536 7.82617Z" fill="#0052B4"/>
<path d="M11.9991 0.000244141C8.36206 0.000244141 5.10317 1.61856 2.90253 4.17413H21.0957C18.8951 1.61856 15.6362 0.000244141 11.9991 0.000244141Z" fill="#D80027"/>
<path d="M21.0957 19.8264H2.90253C5.10317 22.382 8.36206 24.0003 11.9991 24.0003C15.6362 24.0003 18.8951 22.382 21.0957 19.8264Z" fill="#D80027"/>
</g>
<defs>
<clipPath id="clip0_2214_4203">
<rect width="24" height="24" fill="white"/>
</clipPath>
</defs>
</svg>
