<svg width="24" height="24" viewBox="0 0 24 24" fill="none" xmlns="http://www.w3.org/2000/svg">
<g clip-path="url(#clip0_2214_4068)">
<g clip-path="url(#clip1_2214_4068)">
<mask id="mask0_2214_4068" style="mask-type:luminance" maskUnits="userSpaceOnUse" x="0" y="0" width="33" height="24">
<path d="M0 0H32.0016V24H0V0Z" fill="white"/>
</mask>
<g mask="url(#mask0_2214_4068)">
<path fill-rule="evenodd" clip-rule="evenodd" d="M0 23.775L46.2844 0H0V23.775Z" fill="#0000D6"/>
<path fill-rule="evenodd" clip-rule="evenodd" d="M48 0L1.27502 24H48V0Z" fill="#006000"/>
<path fill-rule="evenodd" clip-rule="evenodd" d="M48 0H45.4266L0 22.7531V24H2.57344L48 1.29375V0Z" fill="#FFCC00"/>
<path fill-rule="evenodd" clip-rule="evenodd" d="M3.34688 0.426514L3.9 2.0437H5.70469L4.24687 3.03276L4.80469 4.64526L3.34688 3.6562L1.88906 4.64995L2.44688 3.03745L0.989063 2.03901H2.78906L3.34688 0.426514ZM12.3047 0.426514L12.8625 2.0437H14.6672L13.2047 3.03745L13.7672 4.64995L12.3 3.6562L10.8469 4.65464L11.4047 3.04214L9.94219 2.0437H11.7469L12.3047 0.426514ZM12.3047 7.19995L12.8625 8.81714H14.6672L13.2047 9.81089L13.7672 11.4234L12.3047 10.4249L10.8516 11.4234L11.4094 9.81089L9.94687 8.81245H11.7516L12.3047 7.19995ZM7.85156 3.85308L8.40937 5.46558H10.2094L8.75625 6.46401L9.30938 8.07651L7.85625 7.07808L6.39375 8.07651L6.95625 6.46401L5.49375 5.46558H7.29844L7.85156 3.85308ZM3.34688 7.19995L3.9 8.81714H5.70469L4.24687 9.81089L4.80469 11.4234L3.34688 10.4249L1.88906 11.4234L2.45156 9.81089L0.984375 8.81245H2.78438L3.34688 7.19995Z" fill="white"/>
</g>
</g>
</g>
<defs>
<clipPath id="clip0_2214_4068">
<path d="M0 12C0 5.37259 5.37259 0 12 0C18.6275 0 24 5.37259 24 12C24 18.6275 18.6275 24 12 24C5.37259 24 0 18.6275 0 12Z" fill="white"/>
</clipPath>
<clipPath id="clip1_2214_4068">
<rect width="32" height="24" fill="white"/>
</clipPath>
</defs>
</svg>
