<svg width="24" height="24" viewBox="0 0 24 24" fill="none" xmlns="http://www.w3.org/2000/svg">
<g clip-path="url(#clip0_2214_3523)">
<g clip-path="url(#clip1_2214_3523)">
<path d="M-4 0H28V8H-4V0Z" fill="#FF9933"/>
<path d="M-4 8H28V16H-4V8Z" fill="white"/>
<path d="M-4 16H28V24H-4V16Z" fill="#128807"/>
<path d="M12 15.2C13.7673 15.2 15.2 13.7674 15.2 12C15.2 10.2327 13.7673 8.80005 12 8.80005C10.2327 8.80005 8.8 10.2327 8.8 12C8.8 13.7674 10.2327 15.2 12 15.2Z" fill="#000088"/>
<path d="M12 14.8C13.5464 14.8 14.8 13.5463 14.8 12C14.8 10.4536 13.5464 9.19995 12 9.19995C10.4536 9.19995 9.19999 10.4536 9.19999 12C9.19999 13.5463 10.4536 14.8 12 14.8Z" fill="white"/>
<path d="M12 12.5599C12.3093 12.5599 12.56 12.3092 12.56 11.9999C12.56 11.6907 12.3093 11.4399 12 11.4399C11.6907 11.4399 11.44 11.6907 11.44 11.9999C11.44 12.3092 11.6907 12.5599 12 12.5599Z" fill="#000088"/>
<path d="M14.7572 12.5094C14.836 12.5198 14.9084 12.4643 14.9187 12.3854C14.9291 12.3066 14.8736 12.2343 14.7948 12.2239C14.7159 12.2135 14.6436 12.269 14.6332 12.3478C14.6228 12.4267 14.6783 12.499 14.7572 12.5094Z" fill="#000088"/>
<path d="M12 14.8001L12.096 13.1201L12 12.3201L11.904 13.1201L12 14.8001Z" fill="#000088"/>
<path d="M14.5314 13.2055C14.6049 13.2359 14.6891 13.201 14.7195 13.1275C14.75 13.0541 14.7151 12.9698 14.6416 12.9394C14.5681 12.9089 14.4839 12.9438 14.4535 13.0173C14.423 13.0908 14.4579 13.175 14.5314 13.2055Z" fill="#000088"/>
<path d="M11.2753 14.7045L11.8028 13.1066L11.9171 12.309L11.6174 13.0569L11.2753 14.7045Z" fill="#000088"/>
<path d="M14.1331 13.8196C14.1962 13.868 14.2866 13.8561 14.3351 13.793C14.3835 13.7299 14.3716 13.6395 14.3085 13.5911C14.2454 13.5427 14.155 13.5546 14.1066 13.6177C14.0582 13.6808 14.0701 13.7712 14.1331 13.8196Z" fill="#000088"/>
<path d="M10.6 14.4247L11.5231 13.0178L11.84 12.277L11.3569 12.9218L10.6 14.4247Z" fill="#000088"/>
<path d="M13.5895 14.3098C13.6379 14.3729 13.7283 14.3848 13.7914 14.3364C13.8545 14.288 13.8664 14.1976 13.818 14.1345C13.7696 14.0714 13.6792 14.0595 13.6161 14.1079C13.553 14.1563 13.5411 14.2467 13.5895 14.3098Z" fill="#000088"/>
<path d="M10.0201 13.98L11.2759 12.8599L11.7737 12.2263L11.1402 12.7241L10.0201 13.98Z" fill="#000088"/>
<path d="M12.9375 14.6427C12.968 14.7161 13.0522 14.751 13.1257 14.7206C13.1992 14.6902 13.234 14.6059 13.2036 14.5325C13.1732 14.459 13.0889 14.4241 13.0155 14.4545C12.942 14.485 12.9071 14.5692 12.9375 14.6427Z" fill="#000088"/>
<path d="M9.57512 13.4L11.078 12.6432L11.7229 12.16L10.982 12.4769L9.57512 13.4Z" fill="#000088"/>
<path d="M12.2217 14.7951C12.2321 14.874 12.3044 14.9295 12.3832 14.9191C12.4621 14.9087 12.5176 14.8364 12.5072 14.7575C12.4968 14.6787 12.4245 14.6232 12.3457 14.6335C12.2668 14.6439 12.2113 14.7163 12.2217 14.7951Z" fill="#000088"/>
<path d="M9.29541 12.7248L10.943 12.3827L11.6909 12.083L10.8933 12.1973L9.29541 12.7248Z" fill="#000088"/>
<path d="M11.4907 14.7573C11.4803 14.8361 11.5358 14.9085 11.6147 14.9188C11.6935 14.9292 11.7659 14.8737 11.7762 14.7949C11.7866 14.716 11.7311 14.6437 11.6523 14.6333C11.5734 14.6229 11.5011 14.6784 11.4907 14.7573Z" fill="#000088"/>
<path d="M9.2 12.0001L10.88 12.0961L11.68 12.0001L10.88 11.9041L9.2 12.0001Z" fill="#000088"/>
<path d="M10.7945 14.5316C10.764 14.6051 10.7989 14.6893 10.8724 14.7198C10.9459 14.7502 11.0301 14.7153 11.0605 14.6418C11.091 14.5684 11.0561 14.4841 10.9826 14.4537C10.9091 14.4232 10.8249 14.4581 10.7945 14.5316Z" fill="#000088"/>
<path d="M9.29542 11.2753L10.8933 11.8029L11.6909 11.9172L10.943 11.6174L9.29542 11.2753Z" fill="#000088"/>
<path d="M10.1804 14.1333C10.1319 14.1964 10.1438 14.2867 10.2069 14.3352C10.27 14.3836 10.3604 14.3717 10.4088 14.3086C10.4573 14.2455 10.4454 14.1551 10.3823 14.1067C10.3192 14.0583 10.2288 14.0702 10.1804 14.1333Z" fill="#000088"/>
<path d="M9.57514 10.6L10.9821 11.5231L11.7229 11.84L11.0781 11.3568L9.57514 10.6Z" fill="#000088"/>
<path d="M9.69026 13.5896C9.62717 13.6381 9.61527 13.7285 9.66368 13.7915C9.71209 13.8546 9.80249 13.8665 9.86559 13.8181C9.92868 13.7697 9.94058 13.6793 9.89217 13.6162C9.84375 13.5531 9.75336 13.5412 9.69026 13.5896Z" fill="#000088"/>
<path d="M10.0201 10.0201L11.1402 11.2759L11.7737 11.7737L11.2759 11.1401L10.0201 10.0201Z" fill="#000088"/>
<path d="M9.35761 12.9375C9.28413 12.9679 9.24924 13.0521 9.27968 13.1256C9.31011 13.1991 9.39435 13.234 9.46782 13.2035C9.5413 13.1731 9.57619 13.0889 9.54575 13.0154C9.51532 12.9419 9.43108 12.907 9.35761 12.9375Z" fill="#000088"/>
<path d="M10.6001 9.57506L11.3569 11.078L11.8401 11.7228L11.5232 10.982L10.6001 9.57506Z" fill="#000088"/>
<path d="M9.20499 12.2218C9.12614 12.2322 9.07064 12.3045 9.08102 12.3833C9.0914 12.4622 9.16374 12.5177 9.24259 12.5073C9.32143 12.4969 9.37694 12.4246 9.36656 12.3458C9.35618 12.2669 9.28384 12.2114 9.20499 12.2218Z" fill="#000088"/>
<path d="M11.2754 9.29537L11.6175 10.943L11.9172 11.6909L11.8029 10.8933L11.2754 9.29537Z" fill="#000088"/>
<path d="M9.24278 11.4906C9.16394 11.4802 9.0916 11.5357 9.08122 11.6146C9.07084 11.6934 9.12634 11.7657 9.20519 11.7761C9.28404 11.7865 9.35638 11.731 9.36676 11.6522C9.37714 11.5733 9.32163 11.501 9.24278 11.4906Z" fill="#000088"/>
<path d="M12 9.19993L11.904 10.8799L12 11.6799L12.096 10.8799L12 9.19993Z" fill="#000088"/>
<path d="M9.46857 10.7945C9.39509 10.7641 9.31086 10.799 9.28042 10.8725C9.24999 10.9459 9.28488 11.0302 9.35836 11.0606C9.43183 11.0911 9.51607 11.0562 9.5465 10.9827C9.57693 10.9092 9.54204 10.825 9.46857 10.7945Z" fill="#000088"/>
<path d="M12.7247 9.29548L12.1971 10.8934L12.0828 11.691L12.3826 10.9431L12.7247 9.29548Z" fill="#000088"/>
<path d="M9.86686 10.1804C9.80376 10.132 9.71337 10.1439 9.66495 10.207C9.61654 10.2701 9.62844 10.3605 9.69154 10.4089C9.75463 10.4573 9.84503 10.4454 9.89344 10.3823C9.94185 10.3192 9.92995 10.2288 9.86686 10.1804Z" fill="#000088"/>
<path d="M13.4 9.57525L12.4769 10.9822L12.16 11.723L12.6432 11.0782L13.4 9.57525Z" fill="#000088"/>
<path d="M10.4105 9.69017C10.3621 9.62708 10.2717 9.61517 10.2086 9.66359C10.1455 9.712 10.1336 9.8024 10.182 9.86549C10.2304 9.92859 10.3208 9.94049 10.3839 9.89207C10.447 9.84366 10.4589 9.75326 10.4105 9.69017Z" fill="#000088"/>
<path d="M13.9799 10.02L12.7241 11.1401L12.2263 11.7737L12.8598 11.2759L13.9799 10.02Z" fill="#000088"/>
<path d="M11.0625 9.35733C11.032 9.28386 10.9478 9.24897 10.8743 9.2794C10.8008 9.30984 10.766 9.39407 10.7964 9.46755C10.8268 9.54102 10.9111 9.57591 10.9845 9.54548C11.058 9.51505 11.0929 9.43081 11.0625 9.35733Z" fill="#000088"/>
<path d="M14.4249 10.6L12.922 11.3568L12.2771 11.84L13.018 11.5231L14.4249 10.6Z" fill="#000088"/>
<path d="M11.7783 9.20489C11.7679 9.12605 11.6956 9.07054 11.6168 9.08092C11.5379 9.0913 11.4824 9.16364 11.4928 9.24249C11.5032 9.32133 11.5755 9.37684 11.6543 9.36646C11.7332 9.35608 11.7887 9.28374 11.7783 9.20489Z" fill="#000088"/>
<path d="M14.7046 11.2752L13.057 11.6173L12.3091 11.917L13.1067 11.8027L14.7046 11.2752Z" fill="#000088"/>
<path d="M12.5093 9.24272C12.5197 9.16388 12.4642 9.09154 12.3853 9.08116C12.3065 9.07078 12.2342 9.12628 12.2238 9.20513C12.2134 9.28398 12.2689 9.35632 12.3477 9.3667C12.4266 9.37708 12.4989 9.32157 12.5093 9.24272Z" fill="#000088"/>
<path d="M14.8 11.9999L13.12 11.9039L12.32 11.9999L13.12 12.0959L14.8 11.9999Z" fill="#000088"/>
<path d="M13.2056 9.46839C13.236 9.39491 13.2011 9.31067 13.1277 9.28024C13.0542 9.24981 12.9699 9.2847 12.9395 9.35817C12.9091 9.43165 12.944 9.51588 13.0174 9.54632C13.0909 9.57675 13.1752 9.54186 13.2056 9.46839Z" fill="#000088"/>
<path d="M14.7046 12.7247L13.1067 12.1971L12.3091 12.0828L13.057 12.3826L14.7046 12.7247Z" fill="#000088"/>
<path d="M13.8197 9.86674C13.8681 9.80365 13.8562 9.71325 13.7931 9.66484C13.73 9.61643 13.6396 9.62833 13.5912 9.69142C13.5428 9.75452 13.5547 9.84491 13.6178 9.89333C13.6808 9.94174 13.7712 9.92984 13.8197 9.86674Z" fill="#000088"/>
<path d="M14.4249 13.4L13.018 12.4769L12.2771 12.16L12.922 12.6432L14.4249 13.4Z" fill="#000088"/>
<path d="M14.3098 10.4104C14.3728 10.3619 14.3847 10.2715 14.3363 10.2085C14.2879 10.1454 14.1975 10.1335 14.1344 10.1819C14.0713 10.2303 14.0594 10.3207 14.1078 10.3838C14.1563 10.4469 14.2467 10.4588 14.3098 10.4104Z" fill="#000088"/>
<path d="M13.9799 13.9799L12.8599 12.7241L12.2263 12.2263L12.7241 12.8599L13.9799 13.9799Z" fill="#000088"/>
<path d="M14.6424 11.0625C14.7159 11.0321 14.7508 10.9479 14.7203 10.8744C14.6899 10.8009 14.6057 10.766 14.5322 10.7965C14.4587 10.8269 14.4238 10.9111 14.4543 10.9846C14.4847 11.0581 14.5689 11.093 14.6424 11.0625Z" fill="#000088"/>
<path d="M13.4 14.4249L12.6431 12.922L12.16 12.2772L12.4768 13.018L13.4 14.4249Z" fill="#000088"/>
<path d="M14.795 11.7782C14.8739 11.7678 14.9294 11.6955 14.919 11.6167C14.9086 11.5378 14.8363 11.4823 14.7574 11.4927C14.6786 11.5031 14.6231 11.5754 14.6335 11.6542C14.6438 11.7331 14.7162 11.7886 14.795 11.7782Z" fill="#000088"/>
<path d="M12.7247 14.7046L12.3826 13.057L12.0828 12.3091L12.1971 13.1067L12.7247 14.7046Z" fill="#000088"/>
</g>
</g>
<defs>
<clipPath id="clip0_2214_3523">
<path d="M0 12C0 5.37258 5.37258 0 12 0C18.6274 0 24 5.37258 24 12C24 18.6274 18.6274 24 12 24C5.37258 24 0 18.6274 0 12Z" fill="white"/>
</clipPath>
<clipPath id="clip1_2214_3523">
<rect width="32" height="24" fill="white" transform="translate(-4)"/>
</clipPath>
</defs>
</svg>
