<svg width="24" height="24" viewBox="0 0 24 24" fill="none" xmlns="http://www.w3.org/2000/svg">
<g clip-path="url(#clip0_2214_3102)">
<g clip-path="url(#clip1_2214_3102)">
<path fill-rule="evenodd" clip-rule="evenodd" d="M-4 0H28V24H-4V0Z" fill="#229E45"/>
<path fill-rule="evenodd" clip-rule="evenodd" d="M12.07 21.8L27.145 12.015L11.98 2.19995L-3.145 12.035L12.07 21.8Z" fill="#F8E509"/>
<path fill-rule="evenodd" clip-rule="evenodd" d="M18.64 12C18.64 15.515 15.785 18.365 12.26 18.365C11.0004 18.363 9.76956 17.9876 8.72323 17.2863C7.6769 16.5849 6.862 15.589 6.38155 14.4246C5.9011 13.2602 5.77667 11.9794 6.02399 10.7443C6.27131 9.50918 6.87928 8.37509 7.77104 7.48543C8.6628 6.59577 9.7983 5.99048 11.034 5.74606C12.2697 5.50165 13.5502 5.62909 14.7135 6.11228C15.8768 6.59547 16.8707 7.41271 17.5696 8.46069C18.2685 9.50867 18.641 10.7403 18.64 12Z" fill="#2B49A3"/>
<path fill-rule="evenodd" clip-rule="evenodd" d="M10.165 15.8151L9.965 15.7001L9.765 15.8001L9.81 15.5751L9.65 15.4051L9.875 15.3801L9.985 15.1801L10.08 15.3901L10.3 15.4301L10.135 15.5801M14.435 16.8951L14.24 16.7801L14.04 16.8801L14.08 16.6551L13.925 16.4901L14.15 16.4651L14.255 16.2601L14.355 16.4701L14.575 16.5101L14.405 16.6651M12.595 15.1651L12.425 15.0651L12.25 15.1551L12.29 14.9601L12.15 14.8151L12.35 14.7951L12.44 14.6151L12.52 14.8001L12.715 14.8351L12.565 14.9701M16.915 14.5451L16.745 14.4451L16.57 14.5351L16.61 14.3401L16.475 14.2001L16.67 14.1801L16.76 14.0051L16.84 14.1851L17.03 14.2201L16.885 14.3501M12.52 13.2501L12.32 13.1401L12.12 13.2401L12.16 13.0101L12.005 12.8451L12.23 12.8201L12.335 12.6151L12.435 12.8251L12.655 12.8651L12.485 13.0251M7.255 11.2751L7.055 11.1651L6.855 11.2651L6.905 11.0351L6.74 10.8701L6.97 10.8451L7.07 10.6401L7.17 10.8501L7.39 10.8901L7.225 11.0451M7.89 13.9051L7.69 13.7901L7.49 13.8901L7.535 13.6651L7.375 13.5001L7.6 13.4701L7.705 13.2701L7.805 13.4801L8.025 13.5201L7.86 13.6751M14.46 10.3101L14.28 10.2101L14.1 10.3001L14.14 10.1001L14 9.95012L14.2 9.92512L14.295 9.74512L14.38 9.93512L14.58 9.97012L14.43 10.1051M14.095 12.0201L13.96 11.9401L13.815 12.0101L13.845 11.8501L13.735 11.7351L13.895 11.7151L13.97 11.5751L14.035 11.7251L14.185 11.7501L14.075 11.8601M6.965 14.3801L6.83 14.3051L6.695 14.3701L6.725 14.2201L6.62 14.1101L6.77 14.0901L6.84 13.9551L6.905 14.0951L7.055 14.1251L6.94 14.2251M16.95 14.9901L16.84 14.9351L16.73 14.9851L16.755 14.8701L16.67 14.7901L16.79 14.7751L16.85 14.6751L16.9 14.7751L17.025 14.8001L16.93 14.8751" fill="#FFFFEF"/>
<path fill-rule="evenodd" clip-rule="evenodd" d="M6.965 14.3801L6.83 14.3051L6.695 14.3701L6.725 14.2201L6.62 14.1101L6.77 14.0901L6.84 13.9551L6.905 14.0951L7.055 14.1251L6.94 14.2251" fill="#FFFFEF"/>
<path fill-rule="evenodd" clip-rule="evenodd" d="M6.965 14.3801L6.83 14.3051L6.695 14.3701L6.725 14.2201L6.62 14.1101L6.77 14.0901L6.84 13.9551L6.905 14.0951L7.055 14.1251L6.94 14.2251M9.055 14.3751L8.925 14.3051L8.79 14.3701L8.82 14.2201L8.715 14.1101L8.865 14.0901L8.935 13.9551L9 14.0951L9.15 14.1201L9.035 14.2251M8.795 15.0751L8.665 15.0001L8.53 15.0701L8.56 14.9201L8.455 14.8051L8.605 14.7851L8.675 14.6501L8.74 14.7901L8.89 14.8201L8.775 14.9201M13.145 13.8101L13.015 13.7301L12.875 13.8001L12.905 13.6501L12.805 13.5351L12.955 13.5201L13.025 13.3851L13.085 13.5251L13.235 13.5501L13.125 13.6551M11.87 13.8051L11.735 13.7301L11.6 13.8001L11.63 13.6501L11.53 13.5351L11.68 13.5201L11.75 13.3801L11.81 13.5251L11.96 13.5501L11.85 13.6551M8.41 13.3651L8.325 13.3151L8.24 13.3551L8.26 13.2601L8.195 13.1901L8.29 13.1801L8.33 13.0951L8.37 13.1851L8.465 13.2001L8.395 13.2651M16.785 15.5351L16.655 15.4601L16.52 15.5301L16.55 15.3801L16.445 15.2651L16.595 15.2451L16.665 15.1101L16.73 15.2501L16.88 15.2801L16.765 15.3801M15.725 15.6801L15.615 15.6101L15.5 15.6701L15.525 15.5401L15.44 15.4501L15.565 15.4351L15.625 15.3201L15.675 15.4401L15.8 15.4601L15.705 15.5501M16.225 15.6651L16.125 15.6051L16.02 15.6551L16.04 15.5401L15.96 15.4551L16.075 15.4401L16.13 15.3401L16.18 15.4401L16.295 15.4651L16.21 15.5451M17.665 14.4051L17.565 14.3551L17.465 14.4051L17.49 14.2901L17.41 14.2051L17.525 14.1901L17.575 14.0901L17.625 14.1951L17.73 14.2151L17.65 14.2951M15.71 16.3851L15.585 16.3151L15.45 16.3751L15.48 16.2351L15.38 16.1351L15.53 16.1201L15.595 15.9951L15.655 16.1251L15.805 16.1501L15.69 16.2451M15.72 16.9551L15.6 16.8851L15.48 16.9501L15.51 16.8101L15.415 16.7101L15.55 16.6901L15.61 16.5651L15.665 16.6951L15.8 16.7201L15.7 16.8201M14.75 15.6651L14.655 15.6051L14.555 15.6551L14.575 15.5451L14.5 15.4601L14.61 15.4501L14.66 15.3501L14.71 15.4501L14.82 15.4701L14.74 15.5501M13.85 15.6651L13.75 15.6051L13.65 15.6551L13.675 15.5451L13.595 15.4601L13.71 15.4501L13.76 15.3501L13.81 15.4501L13.915 15.4701L13.835 15.5501M12.315 14.3201L12.215 14.2651L12.115 14.3151L12.14 14.2001L12.06 14.1201L12.17 14.1051L12.22 14.0051L12.27 14.1051L12.38 14.1301L12.3 14.2051M12.485 17.0551L12.405 17.0101L12.315 17.0551L12.335 16.9551L12.27 16.8851L12.365 16.8751L12.41 16.7901L12.45 16.8801L12.545 16.8951L12.475 16.9601M10.165 12.6301L9.965 12.5151L9.765 12.6151L9.81 12.3901L9.65 12.2251L9.875 12.1951L9.985 11.9951L10.08 12.2051L10.3 12.2451L10.135 12.4001" fill="#FFFFEF"/>
<path fill-rule="evenodd" clip-rule="evenodd" d="M18.22 14.2899C18.3438 13.9685 18.4408 13.6373 18.51 13.2999C15.12 10.3249 11.345 8.79991 6.575 9.11491C6.40212 9.44972 6.25988 9.79948 6.15 10.1599C11.8 9.61991 15.95 12.1199 18.22 14.2899Z" fill="white"/>
<path d="M16.7 12.62L16.815 12.685C16.7961 12.7184 16.7907 12.7578 16.8 12.795C16.8117 12.8312 16.8367 12.8616 16.87 12.88C16.9033 12.9067 16.9367 12.9184 16.97 12.915C17 12.915 17.0217 12.9034 17.035 12.88L17.045 12.835L17.02 12.785C17.01 12.7684 16.985 12.7384 16.945 12.695C16.9043 12.6523 16.8736 12.6011 16.855 12.545C16.8454 12.5025 16.85 12.458 16.868 12.4182C16.8861 12.3785 16.9166 12.3458 16.955 12.325C16.9915 12.3105 17.0315 12.307 17.07 12.315C17.117 12.3259 17.1613 12.3463 17.2 12.375C17.27 12.425 17.3133 12.4784 17.33 12.535C17.3372 12.5631 17.3383 12.5924 17.3331 12.6208C17.3279 12.6493 17.3166 12.6764 17.3 12.7L17.18 12.625C17.1967 12.5917 17.2 12.5634 17.19 12.54C17.1833 12.5134 17.1633 12.49 17.13 12.47C17.1047 12.4488 17.073 12.4365 17.04 12.435C17.0309 12.4347 17.022 12.4369 17.014 12.4413C17.0061 12.4457 16.9995 12.4522 16.995 12.46C16.985 12.4734 16.9833 12.49 16.99 12.51C16.9967 12.5367 17.0233 12.5734 17.07 12.62C17.1167 12.6667 17.15 12.7084 17.17 12.745C17.1873 12.778 17.195 12.8151 17.1924 12.8522C17.1897 12.8893 17.1768 12.9249 17.155 12.955C17.1318 12.9893 17.0987 13.0155 17.06 13.03C17.0225 13.0473 16.9806 13.0526 16.94 13.045C16.8967 13.035 16.85 13.0134 16.8 12.98C16.7267 12.93 16.6817 12.875 16.665 12.815C16.6558 12.7815 16.6537 12.7463 16.6589 12.7119C16.664 12.6774 16.6763 12.6445 16.695 12.615L16.7 12.62ZM16.12 12.24L16.245 12.305C16.2278 12.3391 16.2242 12.3784 16.235 12.415C16.2478 12.4494 16.2727 12.4778 16.305 12.495C16.3417 12.5217 16.375 12.5317 16.405 12.525C16.435 12.525 16.4567 12.5117 16.47 12.485L16.48 12.445C16.48 12.4284 16.4717 12.4117 16.455 12.395L16.375 12.305C16.3183 12.2517 16.285 12.205 16.275 12.165C16.2678 12.1392 16.2658 12.1121 16.2692 12.0855C16.2727 12.0589 16.2814 12.0332 16.295 12.01C16.3149 11.9799 16.3425 11.9557 16.375 11.94C16.4095 11.9248 16.4477 11.9196 16.485 11.925C16.5312 11.9328 16.5755 11.9498 16.615 11.975C16.6917 12.025 16.7367 12.0767 16.75 12.13C16.7595 12.1581 16.7626 12.1879 16.7591 12.2173C16.7556 12.2467 16.7457 12.275 16.73 12.3L16.605 12.23C16.6217 12.1967 16.625 12.1684 16.615 12.145C16.6017 12.1117 16.58 12.0884 16.55 12.075C16.5227 12.0545 16.4892 12.0439 16.455 12.045C16.4468 12.0456 16.4388 12.0482 16.4319 12.0525C16.4249 12.0569 16.4191 12.0629 16.415 12.07C16.405 12.0834 16.4033 12.1 16.41 12.12C16.42 12.1467 16.4483 12.1834 16.495 12.23C16.545 12.28 16.5783 12.32 16.595 12.35C16.6145 12.3816 16.6248 12.418 16.6248 12.455C16.6248 12.4921 16.6145 12.5285 16.595 12.56C16.5739 12.5953 16.5425 12.6233 16.505 12.64C16.4675 12.6573 16.4256 12.6626 16.385 12.655C16.3335 12.6464 16.2843 12.6277 16.24 12.6C16.1754 12.5656 16.1256 12.5087 16.1 12.44C16.0893 12.4071 16.0856 12.3724 16.089 12.338C16.0925 12.3035 16.103 12.2702 16.12 12.24ZM15.41 12.05L15.775 11.45L16.215 11.725L16.155 11.825L15.835 11.625L15.755 11.76L16.055 11.945L15.99 12.045L15.69 11.86L15.59 12.025L15.925 12.225L15.865 12.325L15.41 12.05ZM14.375 11.2L14.43 11.1L14.7 11.235L14.575 11.485C14.535 11.495 14.485 11.4984 14.425 11.495C14.3673 11.4892 14.3113 11.4722 14.26 11.445C14.1999 11.415 14.1483 11.3703 14.11 11.315C14.0756 11.2633 14.0581 11.2022 14.06 11.14C14.0632 11.0755 14.0802 11.0124 14.11 10.955C14.14 10.8949 14.1848 10.8433 14.24 10.805C14.2925 10.7679 14.3557 10.7486 14.42 10.75C14.4667 10.75 14.52 10.7667 14.58 10.8C14.66 10.8367 14.7117 10.8834 14.735 10.94C14.761 10.9946 14.7663 11.0568 14.75 11.115L14.615 11.075C14.6233 11.0416 14.6197 11.0062 14.605 10.975C14.5917 10.945 14.565 10.9217 14.525 10.905C14.5015 10.8923 14.4756 10.8844 14.449 10.8818C14.4224 10.8793 14.3955 10.8821 14.37 10.89C14.32 10.9067 14.2767 10.95 14.24 11.02C14.2033 11.09 14.1917 11.1534 14.205 11.21C14.2128 11.2357 14.2256 11.2596 14.2428 11.2802C14.26 11.3008 14.2811 11.3178 14.305 11.33C14.3317 11.3467 14.36 11.355 14.39 11.355H14.48L14.52 11.275L14.375 11.2ZM9.865 10.085L9.965 9.38505L10.175 9.42005L10.23 9.91005L10.425 9.46005L10.635 9.49005L10.535 10.18L10.4 10.16L10.485 9.61505L10.265 10.14L10.13 10.12L10.075 9.55505L9.995 10.105L9.865 10.085ZM9.16 10L9.225 9.30005L9.74 9.35005L9.73 9.47005L9.355 9.43505L9.34 9.58505L9.69 9.62005L9.675 9.74005L9.325 9.70505L9.31 9.89505L9.7 9.93005L9.69 10.05L9.16 10Z" fill="#309E3A"/>
<path d="M6.825 9.56508C6.825 9.49174 6.83667 9.43174 6.86 9.38508C6.87779 9.34968 6.90146 9.31755 6.93 9.29008C6.95526 9.26375 6.98598 9.24327 7.02 9.23008C7.07 9.21341 7.12 9.20508 7.17 9.20508C7.27333 9.20841 7.35667 9.24174 7.42 9.30508C7.45197 9.34268 7.47563 9.38663 7.48941 9.43402C7.5032 9.48142 7.50681 9.53119 7.5 9.58008C7.5 9.69008 7.46667 9.77841 7.4 9.84508C7.33096 9.90496 7.24123 9.93547 7.15 9.93008C7.06013 9.9288 6.97419 9.89299 6.91 9.83008C6.87846 9.79407 6.85465 9.75197 6.84003 9.70639C6.82541 9.66081 6.82029 9.61271 6.825 9.56508Z" fill="#309E3A"/>
<path d="M6.97 9.5652C6.97 9.64186 6.98666 9.70186 7.02 9.7452C7.05333 9.78853 7.1 9.8102 7.16 9.8102C7.21204 9.81078 7.26227 9.79105 7.3 9.7552C7.33333 9.7152 7.35166 9.65353 7.355 9.5702C7.35833 9.4902 7.34166 9.4302 7.305 9.3902C7.27012 9.35185 7.22172 9.32855 7.17 9.3252C7.11724 9.32595 7.06692 9.34751 7.03 9.3852C6.99333 9.4252 6.97333 9.4852 6.97 9.5652Z" fill="#F7FFFF"/>
<path d="M7.65 9.9251L7.66 9.2251H7.96C8.03333 9.2251 8.08667 9.23343 8.12 9.2501C8.15333 9.2601 8.18 9.28176 8.2 9.3151C8.23 9.3651 8.23 9.3851 8.23 9.4301C8.22945 9.47802 8.21171 9.52415 8.18 9.5601C8.14207 9.59324 8.09502 9.61415 8.045 9.6201L8.12 9.6801C8.14 9.7001 8.165 9.73843 8.195 9.7951L8.28 9.9351H8.11L8.01 9.7751L7.94 9.6751L7.895 9.6451L7.825 9.6351H7.795V9.9251H7.65Z" fill="#309E3A"/>
<path d="M7.8 9.52522H7.9C7.97 9.52522 8.01334 9.52188 8.03 9.51522C8.04667 9.51188 8.06 9.50355 8.07 9.49022C8.08334 9.47022 8.08834 9.45355 8.085 9.44022C8.085 9.41022 8.07834 9.39022 8.065 9.38022C8.055 9.36688 8.03834 9.35688 8.015 9.35022H7.915L7.8 9.34521V9.52522Z" fill="white"/>
<path d="M8.45 9.26001L8.71 9.27501C8.76667 9.27501 8.81 9.28001 8.84 9.29001C8.87861 9.30472 8.91296 9.32877 8.94 9.36001C8.9688 9.39497 8.98932 9.43599 9 9.48001C9.01333 9.52668 9.01833 9.58168 9.015 9.64501C9.01524 9.69607 9.00678 9.74679 8.99 9.79501C8.97 9.84501 8.94167 9.88501 8.905 9.91501C8.87587 9.93901 8.84168 9.95611 8.805 9.96501C8.77167 9.97501 8.73 9.97834 8.68 9.97501L8.415 9.96001L8.45 9.26001Z" fill="#309E3A"/>
<path d="M8.585 9.38501L8.56 9.85001H8.75C8.77667 9.85001 8.79667 9.84168 8.81 9.82501C8.82667 9.81168 8.84 9.79001 8.85 9.76001C8.86 9.73001 8.86667 9.68668 8.87 9.63001L8.865 9.50501C8.85831 9.47846 8.84447 9.45426 8.825 9.43501L8.765 9.40001L8.65 9.38501H8.585Z" fill="white"/>
<path d="M11.88 10.5101L12.045 9.83008L12.265 9.88008L12.425 9.93008C12.4617 9.95008 12.4883 9.98174 12.505 10.0251C12.5217 10.0684 12.525 10.1151 12.515 10.1651C12.505 10.2051 12.4883 10.2384 12.465 10.2651C12.4464 10.2868 12.4235 10.3043 12.3976 10.3163C12.3717 10.3284 12.3436 10.3348 12.315 10.3351C12.2817 10.3351 12.2317 10.3267 12.165 10.3101L12.08 10.2851L12.02 10.5451L11.88 10.5101Z" fill="#309E3A"/>
<path d="M12.15 9.97998L12.11 10.17L12.185 10.19C12.2383 10.2033 12.275 10.2083 12.295 10.205C12.3142 10.2016 12.332 10.1927 12.3462 10.1794C12.3604 10.1661 12.3704 10.1489 12.375 10.13C12.375 10.1066 12.3717 10.085 12.365 10.065C12.354 10.0447 12.3364 10.0288 12.315 10.02L12.22 9.99498L12.155 9.97998H12.15Z" fill="white"/>
<path d="M12.53 10.7049L12.765 10.0449L13.04 10.1449C13.1133 10.1716 13.1633 10.1949 13.19 10.2149C13.2167 10.2383 13.2333 10.2683 13.24 10.3049C13.25 10.3599 13.25 10.3799 13.24 10.4199C13.22 10.4699 13.19 10.5066 13.15 10.5299C13.11 10.5499 13.06 10.5549 13 10.5449C13.02 10.5683 13.0367 10.5949 13.05 10.6249L13.09 10.7599L13.12 10.9149L12.965 10.8599L12.915 10.6799L12.88 10.5599L12.85 10.5199C12.84 10.5066 12.8183 10.4949 12.785 10.4849L12.76 10.4749L12.66 10.7549L12.53 10.7049Z" fill="#309E3A"/>
<path d="M12.8 10.3698L12.895 10.4048C12.9617 10.4282 13.0033 10.4398 13.02 10.4398C13.0367 10.4398 13.0517 10.4348 13.065 10.4248C13.0817 10.4148 13.0917 10.3998 13.095 10.3798C13.105 10.3598 13.105 10.3398 13.095 10.3198C13.0866 10.3011 13.0726 10.2854 13.055 10.2748L12.955 10.2398L12.855 10.2048L12.795 10.3698H12.8Z" fill="white"/>
<path d="M13.35 10.68C13.3672 10.6215 13.3961 10.567 13.435 10.52C13.4606 10.4901 13.491 10.4648 13.525 10.445L13.625 10.41C13.675 10.4067 13.7267 10.4133 13.78 10.43C13.8691 10.4551 13.9446 10.5144 13.99 10.595C14.03 10.675 14.0333 10.77 14 10.88C13.9888 10.9273 13.9679 10.9717 13.9387 11.0104C13.9094 11.0491 13.8724 11.0814 13.83 11.105C13.7533 11.1483 13.6667 11.155 13.57 11.125C13.4809 11.0999 13.4054 11.0406 13.36 10.96C13.3391 10.9165 13.3275 10.8692 13.3258 10.8211C13.324 10.7729 13.3323 10.7249 13.35 10.68Z" fill="#309E3A"/>
<path d="M13.49 10.72C13.4667 10.7967 13.4667 10.86 13.49 10.91C13.525 10.985 13.55 10.99 13.605 11.01C13.655 11.0267 13.705 11.02 13.755 10.99C13.8017 10.9634 13.8367 10.91 13.86 10.83C13.8867 10.7567 13.8867 10.695 13.86 10.645C13.8375 10.5988 13.7982 10.563 13.75 10.545C13.7 10.5303 13.6461 10.5357 13.6 10.56C13.55 10.5867 13.5133 10.64 13.49 10.72Z" fill="white"/>
<path d="M14.715 11.6549L15.035 11.0349L15.3 11.1699C15.35 11.1939 15.3956 11.226 15.435 11.2649C15.4617 11.2882 15.475 11.3199 15.475 11.3599C15.475 11.4199 15.475 11.4349 15.455 11.4699C15.435 11.5143 15.3994 11.5499 15.355 11.5699C15.305 11.5832 15.2533 11.5799 15.2 11.5599C15.22 11.5932 15.2333 11.6216 15.24 11.6449C15.25 11.6749 15.2567 11.7216 15.26 11.7849L15.27 11.9449L15.12 11.8699L15.1 11.6849L15.085 11.5599L15.06 11.5099L15 11.4749L14.975 11.4599L14.84 11.7199L14.715 11.6549Z" fill="#309E3A"/>
<path d="M15.025 11.36L15.12 11.41C15.18 11.4433 15.2183 11.46 15.235 11.46C15.2517 11.46 15.2683 11.4566 15.285 11.45C15.2983 11.4433 15.31 11.43 15.32 11.41C15.33 11.39 15.3333 11.37 15.33 11.35L15.295 11.3L15.205 11.25L15.105 11.2L15.025 11.36Z" fill="white"/>
<path d="M17.305 12.935C17.3375 12.8836 17.38 12.8394 17.43 12.805C17.4638 12.7838 17.501 12.7686 17.54 12.76C17.5764 12.7532 17.6136 12.7532 17.65 12.76C17.7 12.77 17.7467 12.79 17.79 12.82C17.867 12.8707 17.9209 12.9497 17.94 13.04C17.9533 13.1266 17.93 13.2183 17.87 13.315C17.8458 13.3564 17.8134 13.3925 17.7747 13.4209C17.7359 13.4492 17.6918 13.4694 17.645 13.48C17.5545 13.4965 17.4611 13.4768 17.385 13.425C17.308 13.3743 17.2541 13.2952 17.235 13.205C17.2217 13.115 17.245 13.025 17.305 12.935Z" fill="#309E3A"/>
<path d="M17.43 13.015C17.3833 13.0817 17.365 13.1417 17.375 13.195C17.3846 13.2454 17.4133 13.2901 17.455 13.32C17.505 13.3533 17.555 13.3633 17.605 13.35C17.655 13.3367 17.7033 13.2967 17.75 13.23C17.7967 13.16 17.815 13.1 17.805 13.05C17.795 13 17.7683 12.9567 17.725 12.92C17.655 12.865 17.625 12.88 17.575 12.895C17.525 12.905 17.475 12.945 17.425 13.015H17.43Z" fill="white"/>
<path d="M11.09 10.2251L11.205 9.73511L11.565 9.82011L11.55 9.90011L11.285 9.84011L11.26 9.95011L11.505 10.0051L11.485 10.0901L11.24 10.0301L11.21 10.1651L11.485 10.2301L11.465 10.3101L11.09 10.2251Z" fill="#309E3A"/>
</g>
</g>
<defs>
<clipPath id="clip0_2214_3102">
<path d="M0 12C0 5.37258 5.37258 0 12 0C18.6274 0 24 5.37258 24 12C24 18.6274 18.6274 24 12 24C5.37258 24 0 18.6274 0 12Z" fill="white"/>
</clipPath>
<clipPath id="clip1_2214_3102">
<rect width="32" height="24" fill="white" transform="translate(-4)"/>
</clipPath>
</defs>
</svg>
