<svg width="24" height="24" viewBox="0 0 24 24" fill="none" xmlns="http://www.w3.org/2000/svg">
<g clip-path="url(#clip0_2214_3081)">
<g clip-path="url(#clip1_2214_3081)">
<path d="M-6 0H30V24H-6V0Z" fill="#FFDA44"/>
<path d="M-6 24H30V0L-6 24Z" fill="#FF9811"/>
<path d="M13.2699 7.50446C13.0704 7.43366 12.9416 7.53666 12.9481 7.79422C12.9546 8.05178 13.0898 8.1999 13.2893 8.1033L13.2699 7.5045V7.50446Z" fill="white" stroke="black" stroke-width="0.02084"/>
<path d="M13.4451 7.02215C13.279 6.89095 13.1239 6.94719 13.0473 7.19319C12.9706 7.43919 13.0511 7.62287 13.2711 7.59551L13.4451 7.02219V7.02215Z" fill="white" stroke="black" stroke-width="0.02084"/>
<path d="M13.7219 6.55524C13.5787 6.39904 13.4167 6.42972 13.3016 6.66024C13.1865 6.89076 13.2366 7.08496 13.4583 7.09324L13.7219 6.55524ZM13.5403 8.82444C13.2956 8.9146 13.2698 9.24944 13.4245 9.45548C13.5791 9.66152 13.8623 9.70016 14.0168 9.45548L13.5404 8.82428L13.5403 8.82444Z" fill="white" stroke="black" stroke-width="0.02084"/>
<path d="M13.2571 8.11598C13.0253 8.0387 12.8164 8.3501 12.7806 8.6311C12.7356 8.98526 12.2333 9.10114 12.5103 9.63562C12.5681 9.29434 12.7936 9.10762 12.9738 9.09474C13.154 9.08186 13.4246 9.04322 13.5405 8.8243L13.2571 8.11598ZM13.9911 9.49398C13.7206 9.55838 13.6819 9.91898 13.8751 10.1765C14.0404 10.3971 14.5576 10.3439 14.5448 10.125L13.9911 9.49398ZM14.7575 11.664C14.7703 11.4322 14.397 11.342 14.2167 11.3871C14.0363 11.4322 13.6918 11.3807 13.6114 11.1875C13.547 11.342 13.6404 11.5095 13.9012 11.5931C14.0985 11.6565 14.0944 11.7992 14.0364 11.8636C14.1845 11.8894 14.6224 11.8894 14.7575 11.664V11.664Z" fill="white" stroke="black" stroke-width="0.02084"/>
<path d="M14.5451 10.1832C14.2811 10.0673 14.1246 10.2438 14.0236 10.415C13.8754 10.6661 13.4183 10.3442 13.2637 10.679C13.4731 10.5889 13.6861 10.7811 13.7853 10.8464C14.0686 11.0332 14.6159 10.9752 14.6933 10.5374L14.5451 10.1832Z" fill="white" stroke="black" stroke-width="0.02084"/>
<path d="M14.6995 10.4922C14.4355 10.6918 14.3325 10.93 14.339 11.091C14.3455 11.252 14.5708 11.6061 14.8155 11.6255C14.9572 11.3357 15.028 10.724 14.6995 10.4922H14.6995ZM13.6051 11.735C13.6051 11.6384 13.7468 11.5998 13.8432 11.6319C13.9397 11.6641 14.0879 11.7607 14.0364 11.8638L13.6051 11.735ZM12.1495 11.207C12.1238 11.0911 12.3105 10.8915 12.5616 11.0009C12.8128 11.1104 12.845 11.3229 12.7418 11.4066L12.1495 11.207V11.207Z" fill="white" stroke="black" stroke-width="0.02084"/>
<path d="M12.7611 11.4191C12.7418 11.3547 12.9226 11.2261 13.2313 11.3032C13.5403 11.3805 13.6161 11.5795 13.6048 11.7346L12.7611 11.4191ZM12.1175 11.2067C12.2785 11.0844 12.2175 10.8525 12.0723 10.7817C11.8083 10.6529 11.905 10.3181 11.7375 10.2537C11.57 10.1893 11.4092 10.0734 11.4027 9.95752C11.319 10.1185 11.3705 10.2666 11.4865 10.3696C11.6025 10.4727 11.3963 10.8912 11.5443 11.0007L12.1175 11.2067ZM8.6659 11.1167C8.5307 10.9042 8.2087 10.9429 8.0735 11.091C7.9383 11.239 7.95762 11.458 8.08638 11.5546L8.6659 11.1167ZM9.4387 10.8011C9.38718 10.5178 9.0459 10.4856 8.85918 10.5564C8.67246 10.6273 8.54366 10.9106 8.66598 11.1166L9.43874 10.8011H9.4387Z" fill="white" stroke="black" stroke-width="0.02084"/>
<path d="M9.95392 10.7624C10.0762 10.5242 9.83804 10.17 9.56756 10.1185C9.3418 10.0755 9.07496 10.0767 8.98804 9.85449C8.93332 10.0477 9.0782 10.17 9.24564 10.2795C9.41308 10.389 9.2134 10.6723 9.48388 10.8333L9.95396 10.7625L9.95392 10.7624Z" fill="white" stroke="black" stroke-width="0.02084"/>
<path d="M9.9283 10.7708C9.87194 10.6001 9.98626 10.3731 10.2176 10.389C10.4489 10.4049 10.5808 10.573 10.4788 10.7832L9.92826 10.7708H9.9283Z" fill="white" stroke="black" stroke-width="0.02084"/>
<path d="M10.4431 10.7837C10.4113 10.6068 10.5563 10.3981 10.7831 10.4463C11.0099 10.4945 11.1168 10.6794 10.9865 10.8732L10.4431 10.7837Z" fill="white" stroke="black" stroke-width="0.02084"/>
<path d="M10.9547 10.8649C10.9317 10.6866 11.087 10.4853 11.3112 10.5448C11.5353 10.6043 11.6329 10.7944 11.4929 10.9814L10.9547 10.8649ZM7.0691 13.8149C6.63766 13.8149 6.5323 13.9176 6.47026 14.3622C6.39298 14.9159 7.14638 14.9803 7.0691 13.8149Z" fill="white" stroke="black" stroke-width="0.02084"/>
<path d="M7.26231 13.2353C6.59907 12.9842 6.23851 14.0338 5.58171 13.8471C5.81671 14.2205 6.38643 13.8477 6.59907 13.8857C6.95967 13.9501 7.73879 13.8149 7.26231 13.2353ZM6.83071 14.6713C6.50231 14.5233 6.14815 15.0255 6.21255 15.2444C6.29431 15.5225 7.04319 15.2959 6.83071 14.6713ZM5.29831 16.8349C5.47863 16.8863 5.69751 16.9894 5.65891 17.3371C5.62031 17.6848 4.96351 18.3931 4.37111 18.4318C3.77871 18.4705 3.56619 19.1851 3.05751 18.9855C3.53399 18.8955 3.53399 18.3545 3.90747 18.1871C3.63699 18.0905 3.49535 18.7023 3.14767 18.7023C2.79999 18.7023 2.63255 19.256 2.20755 19.2173C1.78255 19.1786 1.73783 19.8915 0.887548 19.9C0.237148 19.9063 -0.567692 20.6661 -0.857452 20.3378C-0.226412 20.2477 0.0282277 19.898 0.404628 19.5135C1.00991 18.8955 1.69247 19.1723 1.92423 18.625C1.64735 18.8117 1.32543 18.9018 1.00991 18.8955C0.613828 18.8873 0.179268 19.5265 -0.265052 19.2431C-0.00749248 19.211 0.159948 19.1015 0.430387 18.8181C0.707308 18.528 1.11371 18.7155 1.43491 18.419C1.93715 17.9553 2.36859 18.3417 2.85151 17.7621C2.71627 17.6978 2.42651 17.7428 2.15607 17.8845C1.88563 18.0261 1.53791 17.7878 1.22883 17.9553C1.26743 17.5755 1.98863 17.7928 2.43939 17.5303C2.94811 17.2341 3.36987 17.321 3.77231 17.3565C3.21211 17.3533 2.99319 16.8219 2.22051 16.9765C1.88351 17.044 1.61523 16.5129 1.28039 16.7833C1.28999 16.5838 1.64099 16.4228 2.00159 16.616C2.36219 16.8092 2.50751 16.4469 3.22503 16.8993C3.52123 17.086 4.02991 16.7833 4.35183 16.983C4.30999 16.8607 4.12647 16.7833 3.91079 16.7995C4.04599 16.5227 4.91851 16.558 5.29839 16.835L5.29831 16.8349Z" fill="white" stroke="black" stroke-width="0.02084"/>
<path d="M5.87152 16.4161C5.5882 16.1972 5.1954 16.4612 4.92496 16.3581C4.92496 16.5384 5.01512 16.8089 5.31132 16.9119C5.40148 16.8476 5.80712 16.4934 5.87152 16.4161Z" fill="white" stroke="black" stroke-width="0.02084"/>
<path d="M6.31591 15.7916C5.87159 15.5662 5.79434 16.1264 5.44662 16.0105C5.4595 16.1715 5.5883 16.3711 5.87162 16.4162L6.31591 15.7916Z" fill="white" stroke="black" stroke-width="0.02084"/>
<path d="M6.5799 15.2828C5.9231 15.0252 5.83938 15.6563 5.45306 15.534C5.54322 15.7529 6.09698 15.8688 6.3803 15.7916L6.5799 15.2828ZM7.4811 12.5204C7.30722 12.2758 6.94022 12.4754 6.88226 12.7651C6.8243 13.0549 6.96594 13.4606 7.21066 13.3704L7.4811 12.5204Z" fill="white" stroke="black" stroke-width="0.02084"/>
<path d="M7.92552 11.7475C7.62288 11.6767 7.27516 11.7089 7.3138 12.0051C7.19788 12.0566 7.16568 12.4365 7.4812 12.5202L7.92552 11.7475V11.7475Z" fill="white" stroke="black" stroke-width="0.02084"/>
<path d="M8.12511 11.5481C7.82891 11.2004 7.49859 11.2085 7.31379 11.3549C6.97251 11.6254 6.64087 11.4708 6.63123 11.7413C6.83731 11.5835 7.01759 11.7735 7.18499 11.7155C7.35239 11.6575 7.47475 11.9795 7.93839 11.8443L8.12511 11.5481ZM7.41031 16.7449C7.45539 16.8286 7.73226 16.8672 7.8675 16.7256C8.04671 16.5377 7.84819 16.0172 7.56487 15.9786C7.28155 15.94 7.25579 16.5646 7.41031 16.7449Z" fill="white" stroke="black" stroke-width="0.02084"/>
<path d="M7.08832 16.7576C7.49396 16.9056 7.66784 16.5708 7.44892 16.3584C7.39092 16.4292 7.17844 16.6868 7.08832 16.7576Z" fill="white" stroke="black" stroke-width="0.02084"/>
<path d="M5.56872 17.3112C5.49144 17.543 5.0922 17.5817 4.64148 18.3028C4.19076 19.024 3.75932 18.7214 3.64984 19.2172C4.19072 18.7793 4.61552 19.0702 4.93764 18.6376C5.42704 17.9808 5.83 18.0751 6.01944 17.6331C6.28984 17.0021 7.47468 17.015 7.53908 16.0234C7.13988 15.9461 5.87776 17.015 5.56872 17.3111V17.3112ZM15.7299 7.57516C16.2451 7.74256 16.2579 8.41224 16.8502 8.63116C17.4426 8.85008 17.5008 9.37808 17.9836 9.24932C17.5329 9.12696 17.565 8.6054 17.095 8.4766C16.5437 8.32556 16.3352 7.48496 15.8972 7.3562M18.0931 11.0716C18.1833 11.2776 18.1704 11.6446 17.8484 11.7412C18.0223 11.8507 18.2798 11.7476 18.4214 11.5094C18.209 11.9795 18.3506 12.4045 18.6854 12.4882C18.5244 12.1598 18.8851 12.0052 18.7693 11.7928C18.9818 11.8829 19.1685 12.1727 19.162 12.353C19.439 12.0439 18.956 11.6318 19.0461 11.342L18.0931 11.0716V11.0716ZM14.7575 14.3812C14.442 14.1043 14.3074 14.4536 14.1522 14.3328C14.0074 14.2202 13.8142 14.204 13.7402 14.3168C14.0107 14.3264 13.8785 14.5357 14.4034 14.5872C13.8785 14.6226 13.9752 15.2086 13.6242 15.1796C13.9977 15.5338 14.1909 14.8641 14.4935 14.9736C14.4034 14.9993 14.6352 15.2118 14.4742 15.4951C14.735 15.4887 14.8412 15.1281 14.8735 14.9414L14.7575 14.3812ZM7.80952 17.3884C7.6936 17.2918 7.35876 17.2467 7.23 17.324C7.10124 17.4014 7.14632 17.4205 7.3008 17.4335C7.45528 17.4465 7.65492 17.6964 7.32016 17.7104C7.1656 17.7167 7.21712 18.0902 6.89516 18.116C7.02716 18.277 7.40388 18.1707 7.53908 17.9937C7.51332 18.1385 7.70648 18.2705 7.62924 18.4444C7.86748 18.4702 7.72904 17.9616 8.10576 17.9872C7.9512 18.0066 8.0156 18.3542 8.28604 18.2641C8.12504 18.3414 8.20876 18.5281 8.38904 18.4831C8.27316 18.5217 8.23452 18.6697 8.39548 18.7536C8.55004 18.5411 8.37616 17.7812 7.80952 17.3884V17.3884ZM21.8343 10.2836C22.3272 10.2836 22.7266 9.88396 22.7266 9.39108C22.7266 8.8982 22.3271 8.49868 21.8343 8.49868C21.3415 8.49868 20.9418 8.89828 20.9418 9.39108C20.9418 9.88388 21.3413 10.2836 21.8343 10.2836Z" fill="white"/>
<path d="M15.7299 7.57516C16.2451 7.74256 16.2579 8.41224 16.8502 8.63116C17.4426 8.85008 17.5008 9.37808 17.9836 9.24932C17.5329 9.12696 17.565 8.6054 17.095 8.4766C16.5437 8.32556 16.3352 7.48496 15.8972 7.3562M5.56872 17.3112C5.49144 17.543 5.0922 17.5817 4.64148 18.3028C4.19076 19.024 3.75932 18.7214 3.64984 19.2172C4.19072 18.7793 4.61552 19.0702 4.93764 18.6376C5.42704 17.9808 5.83 18.0751 6.01944 17.6331C6.28984 17.0021 7.47468 17.015 7.53908 16.0234C7.13988 15.9461 5.87776 17.015 5.56872 17.3111V17.3112ZM18.0931 11.0716C18.1833 11.2776 18.1704 11.6446 17.8484 11.7412C18.0223 11.8507 18.2798 11.7476 18.4214 11.5094C18.209 11.9795 18.3506 12.4045 18.6854 12.4882C18.5244 12.1598 18.8851 12.0052 18.7693 11.7928C18.9818 11.8829 19.1685 12.1727 19.162 12.353C19.439 12.0439 18.956 11.6318 19.0461 11.342L18.0931 11.0716V11.0716ZM14.7575 14.3812C14.442 14.1043 14.3074 14.4536 14.1522 14.3328C14.0074 14.2202 13.8142 14.204 13.7402 14.3168C14.0107 14.3264 13.8785 14.5357 14.4034 14.5872C13.8785 14.6226 13.9752 15.2086 13.6242 15.1796C13.9977 15.5338 14.1909 14.8641 14.4935 14.9736C14.4034 14.9993 14.6352 15.2118 14.4742 15.4951C14.735 15.4887 14.8412 15.1281 14.8735 14.9414L14.7575 14.3812ZM7.80952 17.3884C7.6936 17.2918 7.35876 17.2467 7.23 17.324C7.10124 17.4014 7.14632 17.4205 7.3008 17.4335C7.45528 17.4465 7.65492 17.6964 7.32016 17.7104C7.1656 17.7167 7.21712 18.0902 6.89516 18.116C7.02716 18.277 7.40388 18.1707 7.53908 17.9937C7.51332 18.1385 7.70648 18.2705 7.62924 18.4444C7.86748 18.4702 7.72904 17.9616 8.10576 17.9872C7.9512 18.0066 8.0156 18.3542 8.28604 18.2641C8.12504 18.3414 8.20876 18.5281 8.38904 18.4831C8.27316 18.5217 8.23452 18.6697 8.39548 18.7536C8.55004 18.5411 8.37616 17.7812 7.80952 17.3884V17.3884ZM21.8343 10.2836C22.3272 10.2836 22.7266 9.88396 22.7266 9.39108C22.7266 8.8982 22.3271 8.49868 21.8343 8.49868C21.3415 8.49868 20.9418 8.89828 20.9418 9.39108C20.9418 9.88388 21.3413 10.2836 21.8343 10.2836Z" stroke="black" stroke-width="0.02084"/>
<path d="M17.1723 11.3617C17.4428 11.1041 17.855 10.9753 18.1382 11.1685C18.4213 11.3616 19.3617 11.5935 19.8253 11.2715C20.289 10.9495 20.5078 10.7821 20.7138 10.8207C20.8685 11.0526 21.0552 11.162 21.287 11.1813C21.3578 11.2586 21.609 11.323 21.7507 11.3037C21.9567 11.3552 22.2078 11.2908 22.4074 11.0719C22.7166 11.1169 23.0062 10.8851 23.1157 10.5375C23.444 10.4988 23.4634 10.1317 23.2574 9.88707C23.0642 9.84847 23.2124 9.19807 22.5104 9.32687C22.8067 9.50719 22.5812 9.86775 22.826 10.0352C22.6585 10.0352 22.4428 10.106 22.3913 10.3572C22.4557 10.1833 22.3817 10.0674 22.3365 10.0288C22.343 9.88067 22.0147 9.51687 21.7055 9.64887C21.9277 9.69715 21.8022 10.0545 21.9632 10.1897C21.8472 10.1962 21.7248 10.2541 21.654 10.3571C21.5703 10.2091 21.2742 10.0545 21.0938 10.0416C21.0938 9.99011 21.0842 9.88711 21.0617 9.83563C20.9812 9.68107 20.9135 9.49755 20.9457 9.26251C20.7912 9.42991 20.6624 9.66171 20.5852 9.82915C20.3405 9.66175 19.7352 9.90643 19.4518 9.97079C19.1685 10.0351 18.2155 9.88067 17.9965 9.64883C17.7775 9.41699 17.3527 9.27539 16.9535 9.15947C16.4045 9.00015 16.3997 8.39967 15.7944 7.98755C15.7816 8.73451 16.9149 11.1041 17.1724 11.3617H17.1723ZM10.8619 17.0537C11.3384 17.0537 11.7248 16.6673 11.7248 16.1908C11.7248 15.7143 11.3384 15.328 10.8619 15.328C10.3854 15.328 9.99908 15.7143 9.99908 16.1908C9.99908 16.6673 10.3854 17.0537 10.8619 17.0537Z" fill="white" stroke="black" stroke-width="0.02084"/>
<path d="M8.80112 16.3904C8.97496 16.6158 9.27115 16.603 9.39351 16.5836C9.49655 16.854 9.82492 16.8476 9.9666 16.9956C10.1083 17.1436 10.5911 17.131 10.7328 17.0471C10.6041 17.0343 10.4367 16.9571 10.2757 16.8218C10.0814 16.6586 10.1726 16.3324 10.0181 16.2166C10.134 16.0878 10.1533 15.8753 10.1276 15.7916C10.25 15.7207 10.3401 15.6048 10.353 15.5468C10.5655 15.534 10.7522 15.4245 10.8295 15.3408C10.939 15.4438 11.2158 15.3086 11.364 15.4824C11.3962 15.0574 10.9905 14.8321 10.72 14.9738C10.6105 14.9158 10.3208 14.9545 10.2693 15.0318C10.1791 14.9931 9.928 15.1219 9.81208 15.2056C9.94088 15.1348 9.96016 14.9223 9.90864 14.845C10.0181 14.7999 10.1405 14.6518 10.1533 14.5424C10.3079 14.5681 10.5396 14.4651 10.6426 14.4908C10.4753 14.2719 10.1984 14.1946 9.91508 14.214C9.62208 14.2301 9.49656 14.4361 9.45792 14.6583C9.28408 14.7613 9.22612 15.109 9.29052 15.2314C9.19068 15.2282 9.09732 15.3248 9.05872 15.3795C8.92352 15.3215 8.73032 15.2797 8.59188 15.2797M8.65312 14.9288C8.59516 14.7614 8.67192 14.6107 8.71108 14.4781C8.81088 14.1401 8.74972 14.0531 8.44708 14.0982C8.42132 14.2592 8.57588 14.7872 8.65312 14.9288Z" fill="white"/>
<path d="M8.80112 16.3904C8.97496 16.6158 9.27115 16.603 9.39351 16.5836C9.49655 16.854 9.82492 16.8476 9.9666 16.9956C10.1083 17.1436 10.5911 17.131 10.7328 17.0471C10.6041 17.0343 10.4367 16.9571 10.2757 16.8218C10.0814 16.6586 10.1726 16.3324 10.0181 16.2166C10.134 16.0878 10.1533 15.8753 10.1276 15.7916C10.25 15.7207 10.3401 15.6048 10.353 15.5468C10.5655 15.534 10.7522 15.4245 10.8295 15.3408C10.939 15.4438 11.2158 15.3086 11.364 15.4824C11.3962 15.0574 10.9905 14.8321 10.72 14.9738C10.6105 14.9158 10.3208 14.9545 10.2693 15.0318C10.1791 14.9931 9.928 15.1219 9.81208 15.2056C9.94088 15.1348 9.96016 14.9223 9.90864 14.845C10.0181 14.7999 10.1405 14.6518 10.1533 14.5424C10.3079 14.5681 10.5396 14.4651 10.6426 14.4908C10.4753 14.2719 10.1984 14.1946 9.91508 14.214C9.62208 14.2301 9.49656 14.4361 9.45792 14.6583C9.28408 14.7613 9.22612 15.109 9.29052 15.2314C9.19068 15.2282 9.09732 15.3248 9.05872 15.3795C8.92352 15.3215 8.73032 15.2797 8.59188 15.2797M8.65312 14.9288C8.59516 14.7614 8.67192 14.6107 8.71108 14.4781C8.81088 14.1401 8.74972 14.0531 8.44708 14.0982C8.42132 14.2592 8.57588 14.7872 8.65312 14.9288Z" stroke="black" stroke-width="0.02084"/>
<path d="M8.43109 14.1172C8.50837 14.1944 8.78205 14.2298 8.81101 13.9852C8.84429 13.7043 8.73053 13.5956 8.48581 13.705C8.46653 13.7694 8.44397 14.0334 8.43109 14.1172Z" fill="white" stroke="black" stroke-width="0.02084"/>
<path d="M8.48911 13.6957C8.59215 13.7376 8.8143 13.8213 8.93662 13.583C9.03926 13.3832 8.90442 13.2289 8.69194 13.2417C8.64042 13.2997 8.53743 13.5057 8.48911 13.6957Z" fill="white" stroke="black" stroke-width="0.02084"/>
<path d="M8.67911 13.2225C8.70487 13.2998 8.96887 13.5573 9.16203 13.3706C9.35519 13.1839 9.35523 12.907 9.06543 12.804C8.98815 12.8168 8.75635 13.0872 8.67911 13.2225Z" fill="white" stroke="black" stroke-width="0.02084"/>
<path d="M9.06509 12.8041C9.12305 12.9651 9.30333 13.242 9.63817 13.1132C9.97301 12.9845 9.83137 12.5659 9.67681 12.4822C9.58665 12.4886 9.21961 12.656 9.06509 12.8041Z" fill="white" stroke="black" stroke-width="0.02084"/>
<path d="M9.67711 12.4821C9.65135 12.6238 9.67711 13.0101 10.1343 13.0037C10.5914 12.9972 10.4627 12.4628 10.3468 12.3855C10.16 12.3855 9.84455 12.3919 9.67711 12.4821Z" fill="white" stroke="black" stroke-width="0.02084"/>
<path d="M10.3659 12.4045C10.3144 12.5139 10.1983 13.2345 11.0935 13.0355C11.2094 13.0097 11.5121 12.3465 10.3659 12.4045Z" fill="white" stroke="black" stroke-width="0.02084"/>
<path d="M10.8551 12.4689C10.7651 12.559 10.9968 13.2867 11.6021 13.1643C12.2074 13.0419 11.6988 12.353 10.8551 12.4689Z" fill="white" stroke="black" stroke-width="0.02084"/>
<path d="M11.3703 12.5784C11.2738 12.778 11.4188 13.3704 12.1656 13.3704C12.8425 13.3704 12.1301 12.5912 11.3703 12.5784Z" fill="white" stroke="black" stroke-width="0.02084"/>
<path d="M11.9563 12.7525C11.9078 12.8631 11.8485 13.4912 12.729 13.5445C13.3665 13.5831 13.212 12.6817 11.9563 12.7525Z" fill="white" stroke="black" stroke-width="0.02084"/>
<path d="M12.9031 13.0164C12.7938 13.2096 12.6778 13.6925 13.6436 13.7311C14.2625 13.7559 13.8819 13.0292 12.9031 13.0164Z" fill="white" stroke="black" stroke-width="0.02084"/>
<path d="M13.7079 13.1644C13.5662 13.3576 13.6706 13.7366 14.0297 13.8084C14.4805 13.8985 14.5449 13.4736 14.2359 13.2675C13.9269 13.0614 13.7079 13.1644 13.7079 13.1644Z" fill="white" stroke="black" stroke-width="0.02084"/>
<path d="M14.1459 13.2544C14.0429 13.4347 14.1067 13.8726 14.7897 13.8726C14.9314 13.8726 15.4724 13.3188 14.1459 13.2544ZM8.85951 21.6516C9.41271 21.6516 9.86119 21.2031 9.86119 20.6499C9.86119 20.0968 9.41271 19.6481 8.85951 19.6481C8.30631 19.6481 7.85779 20.0966 7.85779 20.6499C7.85779 21.2032 8.30627 21.6516 8.85951 21.6516Z" fill="white" stroke="black" stroke-width="0.02084"/>
<path d="M16.2063 7.08596C16.129 7.16324 15.9682 7.39504 15.9358 7.48516C15.601 8.48968 16.4948 9.24 17.0176 10.3184C17.4298 11.1684 17.3783 12.5077 16.7343 13.3576C16.514 13.6484 16.5798 13.7311 16.2965 14.0273C16.1878 14.141 16.0646 14.2849 16.1033 14.697C16.2836 14.6326 16.5412 14.8 16.5926 14.9417C16.7214 14.8773 16.9018 14.9031 16.9661 14.9803C17.185 14.8773 17.3653 14.9288 17.5584 15.1349C17.726 15.1091 17.9063 15.1349 18.0736 15.3152C18.1638 15.1349 18.3441 15.0705 18.4728 15.1091C18.46 14.8773 18.6918 14.7099 18.8978 14.8C18.8334 14.491 19.1168 14.2591 19.3873 14.3493C19.619 14.169 20.0826 14.1561 20.3145 14.4266C19.9023 14.3107 19.9153 14.7486 19.5675 14.7099C19.6576 14.9675 19.4258 15.1156 19.1941 15.1992C19.3421 15.1284 19.5031 15.0447 19.5546 15.1348C19.6834 15.0222 19.941 15.064 20.0054 15.122C20.176 15.0673 20.3403 15.1091 20.4174 15.3152C20.6493 15.4568 20.8038 15.8174 20.6365 16.0879C20.585 15.8046 20.3918 15.8174 20.3145 15.7015C20.1341 15.7659 19.9538 15.7659 19.9023 15.65C19.7993 15.753 19.4516 15.8432 19.2971 15.6886C19.2391 15.9204 19.0395 16.1136 18.8076 16.1136C18.8721 16.2939 18.6918 16.6031 18.5501 16.7576C18.7691 16.8734 18.7046 17.131 18.6531 17.2856C18.988 17.337 18.7046 17.6332 19.2841 17.8264C19.001 17.9166 18.4471 17.8264 18.3698 17.4787C18.0865 17.4659 17.8933 17.1826 17.9063 16.8862C17.6873 16.6802 17.6551 16.384 17.9578 16.178C17.7001 16.2553 17.5584 15.8432 17.185 16.0106C16.9993 16.0939 16.509 15.9526 16.5154 15.7788C16.4381 15.9076 15.9681 15.8561 15.9036 15.6372C15.7491 15.7208 15.3884 15.5792 15.3949 15.3667C15.1952 15.4568 14.9249 15.2959 14.9377 15.0898C14.7511 15.064 14.7317 14.8966 14.7446 14.755C14.5771 14.6777 14.6222 14.5167 14.6866 14.3236C14.5708 14.1948 14.6222 14.0145 14.7124 13.847C14.5836 13.7182 14.6094 13.5637 14.6479 13.3834C14.0298 13.3319 13.2554 13.1828 11.4799 12.6365C8.80124 11.8123 8.08004 13.744 8.67244 14.9546C9.35592 16.3514 8.59516 16.6546 8.827 17.6978C9.07168 17.7493 9.20044 17.9553 9.1876 18.1743C9.3324 18.1806 9.43544 18.3158 9.38396 18.5735C9.50628 18.551 9.66408 18.5863 9.76708 18.6893C9.85724 18.522 10.1535 18.4833 10.308 18.6765C10.6428 18.6506 10.8102 18.9211 10.7974 19.256C10.9776 19.578 10.9132 19.9708 10.7201 20.2218C10.7394 20.0866 10.7201 19.8935 10.7138 19.7776C10.7018 19.5645 10.4046 19.52 10.4368 19.3461C10.2822 19.359 10.1341 19.2753 10.0826 19.1595C9.99248 19.2366 9.86368 19.2625 9.75424 19.2238C9.92808 19.3011 10.0633 19.6101 10.0118 19.8161C10.102 19.9708 10.0826 20.2541 9.97316 20.3764C9.92164 20.6274 9.72848 20.7176 9.47736 20.6081C9.61904 20.5181 9.67056 20.3571 9.66408 20.2218C9.57396 20.1446 9.52888 19.9964 9.52244 19.9063C9.27132 19.9449 8.9236 19.7324 8.85948 19.6484C8.30624 19.6484 7.85776 20.097 7.85776 20.6503C7.832 20.4441 7.57136 20.2411 7.60356 20.0673C7.44904 19.5908 7.66796 19.1464 8.299 19.0564C8.22176 18.8761 8.4922 18.6892 8.38916 18.4833C8.25756 18.2201 8.01572 17.878 7.65516 17.4788C7.87408 17.1052 7.80968 16.6031 7.68088 16.294C7.49596 15.8501 7.32028 15.9592 6.66348 16.6803C5.59308 17.8556 4.16508 17.5303 2.903 18.303C2.56764 18.5083 2.23336 18.5863 2.59392 18.2258C2.95448 17.8652 3.90752 17.5046 4.52564 17.1955C5.68324 16.6166 6.66344 15.6501 7.0498 13.7699C7.95768 9.35148 11.2994 10.8079 13.4114 11.6321C15.3942 12.4059 15.0341 10.6533 14.0296 9.59728C12.8222 8.32804 13.0637 7.33076 13.6304 6.53228C14.6477 6.3906 16.5989 6.74476 16.2061 7.08608L16.2063 7.08596Z" fill="white" stroke="black" stroke-width="0.02084"/>
<path d="M19.7931 17.94C20.4018 17.94 20.8953 17.4467 20.8953 16.838C20.8953 16.2293 20.4017 15.7358 19.7931 15.7358C19.1845 15.7358 18.6909 16.2293 18.6909 16.838C18.6909 17.4467 19.1845 17.94 19.7931 17.94Z" fill="white" stroke="black" stroke-width="0.02084"/>
<path d="M15.5884 7.13599C15.3437 8.21779 15.5497 8.70715 15.9104 9.18363C16.6555 10.1685 17.2497 12.4161 16.3997 13.884" stroke="black" stroke-width="0.02084"/>
<path d="M16.8762 12.6153C16.9792 12.5766 17.1723 12.4543 17.2175 12.2418M16.9534 12.1453C16.9856 11.9585 17.2752 11.8781 17.2817 11.6785M16.9598 11.4173C16.9405 11.2241 17.2496 11.0502 17.2045 10.8571M16.7926 10.7221C16.7668 10.6126 17.0501 10.4065 16.9729 10.2327M16.5802 10.0461C16.5222 9.9237 16.7154 9.78206 16.6317 9.65326M16.271 9.50486C16.2517 9.42118 16.3708 9.23766 16.3065 9.12822M15.9618 8.86766C15.9875 8.83546 16.0906 8.75818 16.0486 8.66162M15.7494 8.40086C15.7912 8.3783 15.9167 8.33966 15.9007 8.24634" stroke="black" stroke-width="0.02084" stroke-linecap="round"/>
<path d="M9.30377 20.5417C9.04617 20.4516 8.72425 20.5804 8.65985 20.7994M8.85297 20.9989C8.88517 20.7801 9.22001 20.6834 9.32301 20.7864C9.11053 20.6706 9.00749 21.0826 9.19421 21.0956M10.9266 15.9057C10.7721 15.983 10.7271 16.2663 10.9266 16.4789M11.1582 15.9701C11.0489 16.0603 11.0552 16.3307 11.2162 16.3951C11.081 16.2985 11.2162 16.1311 11.3129 16.1247C11.4095 16.1182 11.4737 16.2341 11.3579 16.35M20.2054 16.6073C19.8449 16.5108 19.5551 16.9293 19.8834 17.3028C19.8771 16.9422 20.1346 16.704 20.4501 16.7683M20.305 17.0177C20.2163 17.0177 20.1665 17.087 20.1665 17.1545C20.1665 17.2254 20.2276 17.293 20.3275 17.293C20.392 17.293 20.4435 17.219 20.4435 17.161M21.5766 9.11212C21.6346 9.33104 21.9372 9.4212 22.1754 9.36972M22.1754 9.22812C21.9887 9.23456 21.8342 9.06072 21.8471 8.9126C21.8471 9.02208 22.0982 9.0736 22.1754 9.00276" stroke="black" stroke-width="0.02084" stroke-linecap="round" stroke-linejoin="round"/>
<path d="M9.39379 16.5816C9.34227 16.4528 9.54835 16.324 9.55479 16.2016C9.56123 16.0792 9.78659 15.9827 10.0184 16.2145M9.90899 14.8432C9.86391 14.8625 9.82527 14.8883 9.78663 14.9012M10.3534 15.5448C10.2986 15.5481 10.186 15.5416 10.1248 15.4997M10.1282 15.7896C10.0831 15.8122 9.98327 15.8508 9.92531 15.8637M7.91939 19.6788C7.91295 19.7948 8.02887 19.9621 8.09323 20.0136M8.42179 19.402C8.35739 19.4985 8.31879 19.666 8.35739 19.7819M9.38099 19.7884C9.26507 19.7111 9.34235 19.5114 9.32947 19.3827C9.31659 19.2541 9.46467 19.0479 9.75447 19.2217M8.29939 19.0544C8.41531 19.0351 8.53763 19.0414 8.61491 19.0736M9.76739 18.6872C9.71587 18.758 9.70299 18.8354 9.69659 18.8869M10.3082 18.6744C10.218 18.6744 10.1408 18.7387 10.1022 18.8032M9.05899 15.3776C9.16203 15.4131 9.42923 15.5772 9.43891 15.7479M10.1538 14.5404C9.83827 14.534 9.71595 14.212 9.95419 14.212M10.7206 14.9716C10.5983 15.0231 10.6563 15.2356 10.8301 15.3387M9.96699 16.9936C9.90579 16.9164 9.98631 16.6911 10.1859 16.7586M10.437 19.344C10.4498 19.1477 10.6978 19.0317 10.7976 19.2539M9.52259 19.904C9.50647 19.6883 9.61595 19.6175 9.71251 19.6047C9.80907 19.5919 9.94759 19.6722 10.012 19.8139M7.60379 20.0652C7.61667 19.9364 7.72615 19.8012 7.84203 19.8205M19.3874 14.3472C19.3036 14.4084 19.2489 14.682 19.5676 14.7078M18.8982 14.798C18.8982 14.8302 18.94 14.8753 18.9659 14.8946M20.4178 15.3132C20.3341 15.2488 20.1183 15.5096 20.3148 15.6996M18.3702 17.4768C18.3219 17.2933 18.4925 17.245 18.6535 17.2836M17.9582 16.176C18.0547 16.1116 18.1514 16.0408 18.2737 16.0086M17.9066 16.884C17.9066 16.7295 17.9838 16.6008 18.0546 16.5622M18.473 15.1072C18.4602 15.2939 18.5375 15.4743 18.5955 15.5708M20.0058 15.12C19.9123 15.149 19.8286 15.1844 19.7933 15.2617M19.9026 15.648C19.9478 15.6094 19.9993 15.5643 20.0218 15.5321M22.3366 10.0264C22.3366 10.2067 22.1113 10.3033 21.9633 10.1874M22.8262 10.0328C22.9259 10.1101 23.2704 10.0361 23.1899 9.83643M22.4074 11.0696C22.3366 11.0567 22.2142 10.9795 22.1627 10.9151M23.1158 10.5352C23 10.561 22.9226 10.5352 22.8646 10.5095M21.287 11.1792C21.3513 11.1792 21.5058 11.1535 21.6122 11.0987M21.0938 10.0396C21.0101 10.03 20.9488 10.0461 20.9006 10.0783M22.3914 10.3548C22.3689 10.4353 22.3109 10.5609 22.2401 10.6156" stroke="black" stroke-width="0.02084" stroke-linecap="round"/>
<path d="M20.875 10.6383C21.036 10.5675 21.2356 11.1148 21.622 10.9217M21.6542 10.3547C21.6027 10.4255 21.5705 10.5351 21.564 10.6316" stroke="black" stroke-width="0.02084" stroke-linecap="round" stroke-linejoin="round"/>
<path d="M13.9528 9.51867C14.0043 9.51227 14.0945 9.49291 14.1138 9.42851M7.32678 15.5135C7.51998 15.623 7.65518 15.8097 7.57146 16.0866M16.1804 8.92627C16.2384 8.96491 16.4574 8.96491 16.5797 8.91987M16.7344 9.05507C16.7279 9.14523 16.7537 9.48647 16.5799 9.55731M16.6444 9.51227C16.8054 9.56379 17.1274 9.54447 17.2304 9.24827M17.0048 9.49907C17.0885 9.62787 17.1141 9.87899 16.8631 10.0142M17.0692 9.71187C17.2559 9.77627 17.6873 9.78267 17.6422 9.41567M17.4944 9.71187C17.6232 9.89215 18.1899 10.1047 18.0997 9.73119M16.9728 10.2331C17.1916 10.2846 17.5008 10.1365 17.372 9.75015M17.99 9.94347C18.0221 10.0916 18.7433 10.2461 18.6468 9.91127M18.5116 10.1047C18.6469 10.4138 19.3616 10.388 19.1363 9.97587M19.0204 10.2975C19.1621 10.4714 19.7932 10.3683 19.5421 9.94975M19.5352 10.2911C19.928 10.5873 20.3852 10.1623 19.8893 9.85319M20.1148 10.1947C20.4626 10.4716 20.8876 9.96927 20.5849 9.82763M17.3652 10.0787C17.4747 10.1109 17.7065 10.098 17.758 9.89839M17.6712 10.0335C17.6584 10.3265 18.151 10.4392 18.2765 10.1011M18.1124 10.2847C18.2025 10.4779 18.6339 10.5551 18.7047 10.2782M18.634 10.4071C18.7048 10.6003 19.0783 10.581 19.1813 10.3813M19.046 10.5103C19.1618 10.7614 19.6383 10.7614 19.7478 10.3944M19.6644 10.5551C19.8511 10.671 20.2504 10.6259 20.2181 10.2653M20.1408 10.5231C20.4176 10.7485 20.8105 10.5295 20.6173 10.1496M20.598 10.8191C20.7461 10.7933 20.8233 10.4971 20.6688 10.4199M17.166 10.8707C17.475 10.7033 17.533 10.42 17.3205 10.1431M17.43 10.5875C17.6232 10.7034 17.9901 10.5811 18.0545 10.2977M17.694 10.6195C17.8033 10.7611 17.8227 10.935 17.681 11.096M17.784 10.7999C18.1252 10.5874 18.5501 10.9802 18.2347 11.2184M18.1768 10.7807C18.2541 10.7614 18.3893 10.6197 18.4021 10.4587M18.3312 10.9287C18.4729 10.7806 19.4389 11.0832 18.827 11.3923M18.782 10.5231C18.9687 10.5939 19.0653 10.8579 18.782 10.9481M19.0268 11.1671C19.2328 10.9546 19.8768 11.0898 19.6449 11.3603M19.4904 11.0831C19.6062 10.6903 20.2952 10.935 20.0699 11.096M19.3488 10.6903C19.3681 10.7676 19.3745 10.9607 19.2458 11.0638M19.9284 10.6131C19.9541 10.6775 19.9477 10.7998 19.8897 10.8771M20.366 10.6195C20.4047 10.6903 20.469 10.8255 20.3273 10.935M14.8544 7.65747C14.8607 8.02447 14.9896 8.26919 15.4854 8.03739M15.0088 8.09547C14.7641 8.42387 15.0409 8.77803 15.5239 8.42387M14.2552 8.25627C14.59 8.61687 15.1889 8.35287 14.8025 7.80551M15.2084 8.56547C15.1439 8.91963 15.4337 8.99047 15.6719 8.82947M13.9592 8.31427C14.0202 8.67031 14.3842 8.95175 14.7383 8.73283M14.3972 8.80387C14.3972 9.31259 15.099 9.37051 15.26 8.84251M15.0088 9.16427C15.2341 9.62787 15.7235 9.44115 15.8845 9.15787M14.5128 8.42387C14.6029 8.64923 14.7833 8.90039 15.2018 8.71363M13.2252 8.31427C13.2832 8.50099 13.618 8.72639 14.0043 8.46879M13.4632 8.55267C13.257 8.85531 13.6692 9.13863 14.165 8.68787M13.708 8.92627C13.7917 9.35127 13.959 9.69255 14.5643 9.14519M14.2616 9.36387C14.4806 9.63427 14.8154 9.80171 15.1309 9.34455" stroke="black" stroke-width="0.02084"/>
<path d="M15.3628 9.44116C15.3435 9.76312 15.4078 9.92408 15.6589 9.9112C15.8569 9.90108 16.0453 9.7438 16.1548 9.5764M15.614 9.91156C15.6075 10.2786 15.8972 10.5684 16.4381 10.1949M15.8392 10.3428C15.7362 10.6196 16.0452 11.0704 16.6505 10.8386M14.558 9.60876C14.5195 9.96292 14.8478 10.2012 15.3758 9.74396M14.8156 10.0016C14.8349 10.2913 15.1633 10.639 15.6463 10.1368M15.0472 10.3688C15.0085 10.8646 15.4657 11.0062 15.852 10.6264M14.3584 10.0016C14.4614 10.008 14.5451 9.91788 14.5965 9.85344M14.5772 10.362C14.6673 10.3813 14.822 10.2976 14.8735 10.1946M14.8028 10.948C14.9058 11.0574 15.2535 10.9802 15.2985 10.8321M15.1892 10.9416C15.3824 11.3923 15.8973 11.373 16.1099 10.8643M16.0132 11.0448C16.1097 11.3088 16.3545 11.4762 16.7537 11.386M16.2064 11.3152C15.9811 11.6822 16.2772 12.1136 16.7794 11.6886M16.3288 11.8624C16.3031 12.0942 16.5156 12.3582 16.8053 12.3904M15.3756 11.1864C15.2983 11.7079 15.6717 11.9591 16.1419 11.6822M14.8284 11.4376C14.9507 11.5342 15.1697 11.547 15.3757 11.4698M15.6268 11.7724C15.5108 12.2102 15.9616 12.5258 16.3479 12.0364M15.0024 11.5084C15.0089 11.7337 15.2279 11.9784 15.6077 11.9076M16.67 12.3584C16.4123 12.5322 16.3608 12.8413 16.7215 13.0409M16.0388 12.268C16.0518 12.532 16.1741 12.6801 16.4638 12.7058M15.6592 12.1328C15.2729 12.4869 15.6527 12.899 16.1099 12.5513M15.9296 12.6608C15.8008 13.0664 16.2837 13.3111 16.5413 12.899M15.1312 11.798C14.9895 12.1972 15.1699 12.4612 15.4982 12.4354M14.6224 11.7208C14.6417 11.959 14.8477 12.0427 15.0795 11.9912M14.7704 11.972C14.5965 12.3068 14.8605 12.4871 15.2084 12.3583M16.2644 13.1052C16.2064 13.3176 16.2385 13.4722 16.5541 13.543M16.2836 13.408C15.9036 13.5818 15.8714 13.9489 16.1676 14.1871M15.9776 12.9992C15.7781 13.1795 15.8166 13.4917 16.0356 13.6141M14.2876 11.824C14.0686 12.0397 14.2779 12.6353 14.7607 12.3102M15.5432 12.5772C15.2469 12.8218 15.3822 13.2662 15.8715 13.1438M15.0536 12.3904C14.8991 12.8282 15.0473 12.9828 15.3949 12.9892M13.9656 11.8044C13.7016 12.004 13.7724 12.2873 13.8884 12.4161C14.0044 12.5449 14.2231 12.4869 14.2939 12.3195M13.4116 11.6308C13.1154 12.0107 13.4116 12.4614 13.8303 12.3262M14.996 12.7576C14.6933 12.867 14.4625 13.1418 14.6481 13.3822C14.7577 13.5238 15.2341 13.5432 15.3693 12.9958M14.4484 12.4032C14.2745 12.6543 14.3324 12.8926 14.6544 13.0149M14.4292 12.8736C14.2424 12.9766 14.12 13.099 14.1652 13.3243M14.0108 12.4808C13.94 12.7834 14.0236 12.9702 14.2103 13.0603M14.0044 12.8412C13.7145 12.8218 13.5665 12.9442 13.6631 13.2275M13.6888 12.912C13.4055 12.8089 13.3603 12.5642 13.4826 12.3067M13.444 12.6868C13.1348 12.6996 12.9997 12.8542 12.9997 13.0667M13.0252 11.4824C12.7999 11.579 12.729 11.8816 12.8127 12.049C12.8963 12.2164 13.1605 12.2293 13.3215 12.1198M12.3944 11.2444C12.1884 11.4762 12.4265 11.9269 12.7937 11.8174M11.8664 11.064C11.6732 11.3344 11.8857 11.7852 12.3815 11.6564M12.4072 12.912C12.3557 12.59 12.6905 12.3775 13.1027 12.796M12.9032 12.146C12.7809 12.2554 12.723 12.4293 12.7422 12.571M11.3384 10.9096C11.1259 11.2702 11.3836 11.5986 11.8407 11.4698M12.5296 11.8044C12.2269 12.107 12.3299 12.4096 12.5553 12.5835M12.3364 12.1588C11.8792 12.1652 11.8535 12.6932 12.2271 12.8606M11.9888 11.6308C11.8021 11.7596 11.7441 12.1137 12.0661 12.2554M11.976 12.4228C11.7828 12.3326 11.551 12.4421 11.5703 12.6674M11.686 12.4292C11.5121 12.017 11.0035 12.0879 11.0487 12.5129M11.8276 11.9204C11.7183 11.9397 11.4993 12.004 11.4156 12.1715M11.448 11.4568C11.242 11.6886 11.4028 11.9654 11.5703 12.0234M10.8364 10.8064C10.7977 11.0832 10.9072 11.2185 11.2549 11.1927M10.9584 11.1608C10.8231 11.4956 11.0034 11.6437 11.3511 11.6244M11.0356 11.5728C10.8296 11.8174 10.9713 12.0815 11.1708 12.1909M10.9392 11.882C10.5722 11.8369 10.5142 12.2619 10.6365 12.4615" stroke="black" stroke-width="0.02084"/>
<path d="M10.6428 10.7744C10.4175 10.871 10.2887 11.1543 10.4111 11.3282C10.5334 11.502 10.7781 11.4441 10.9133 11.3539M10.4884 11.4052C10.3017 11.6885 10.4691 11.901 10.6687 11.9847" stroke="black" stroke-width="0.02084"/>
<path d="M9.76717 10.7419C9.61909 10.8965 9.70921 11.212 10.0698 11.2185C10.3601 11.2237 10.5077 10.948 10.4175 10.7549M10.0184 11.2183C9.90249 11.4759 9.97329 11.7528 10.4112 11.7077M10.598 12.1135C10.3276 11.9912 9.96693 12.1135 10.1215 12.4355M10.0828 11.6563C9.97329 11.8109 10.012 12.0298 10.1343 12.165M10.0636 12.0683C9.88325 12.1005 9.70941 12.1971 9.81889 12.4805M9.79277 12.2487C9.56097 12.1779 9.26477 12.3453 9.44505 12.5835M9.40677 12.3583C9.20717 12.3261 8.96893 12.5386 9.16209 12.7511M9.08477 12.5771C8.90445 12.6222 8.69197 12.8283 8.87869 12.9893M9.99277 11.5663C9.73517 11.6822 9.70945 11.972 9.83177 12.1845M9.72197 11.0319C9.33561 11.1801 9.34205 11.6952 9.76705 11.8561M9.58677 11.7399C9.35497 11.8751 9.30989 12.1327 9.46445 12.3001M9.18117 10.8387C9.02661 10.8903 9.03949 11.3667 9.45161 11.3539M8.75637 10.9995C8.44729 11.2056 8.82077 11.7271 9.32301 11.3537M9.04597 11.4823C9.00089 11.6949 9.05885 11.9267 9.40013 11.9524M9.06517 11.7659C8.82049 11.8561 8.77541 12.3583 9.21969 12.397M8.28637 11.3087C7.97085 11.5985 8.54397 11.8496 8.75645 11.4311M7.84837 11.7915C7.69381 11.9783 8.23469 12.4677 8.47297 11.6499M8.53077 11.6371C8.54365 11.8303 8.65957 11.9462 8.89777 11.9591M8.89157 12.1459C8.51165 12.2039 8.38933 12.6804 8.81429 12.7834M8.18957 12.0815C8.17669 12.2618 8.36341 12.4099 8.57593 12.3777M8.76917 12.7703C8.42145 12.8476 8.37637 13.2983 8.68549 13.2726M8.52437 13.6911C8.23457 13.6042 8.22817 13.2597 8.48573 13.1309" stroke="black" stroke-width="0.02084"/>
<path d="M8.28638 13.3883C8.0417 13.5365 8.1383 13.8906 8.26706 13.9421C8.39582 13.9936 8.49886 13.9292 8.51178 13.8198M8.49238 14.3155C8.51814 14.4829 7.89674 14.4186 8.2155 13.897M8.21198 14.3447C8.00274 14.6731 8.34398 14.9403 8.5597 14.6603M8.24118 14.7407C8.15746 15.0047 8.47618 15.1947 8.68222 14.9887M7.54558 12.2679C7.42966 12.5062 8.00918 12.5963 8.04782 12.1069M7.38478 12.6223C7.2689 13.0859 8.14458 12.9894 7.91922 12.3905M7.93838 12.6995C8.0607 12.7703 8.42778 12.7768 8.5179 12.384M8.25398 12.7123C8.27974 12.8347 8.38918 12.9827 8.49222 13.0279M7.83558 12.8347C7.79694 13.0859 8.04806 13.2919 8.33782 13.2726M7.88038 13.0795C7.73874 13.2727 7.69366 13.6462 8.13798 13.6719M7.20438 13.1439C7.13358 13.3435 7.5521 13.5496 7.79678 13.2212M7.07558 13.6523C7.04014 13.8037 7.41686 14.0065 7.62934 13.3626M7.46198 13.6911C7.55214 13.8521 7.85478 13.9809 8.0415 13.6654M7.73878 13.8587C7.6615 14.0841 7.87398 14.2966 8.13158 14.2322M7.25598 13.8071C7.20446 14.1291 7.57794 14.3158 7.80974 14.1484M7.01118 13.9487C6.90174 14.3609 7.42974 14.5154 7.62934 14.2063M7.49438 14.3287C7.5137 14.5605 7.8743 14.7601 8.15762 14.567M6.85038 14.5219C6.82462 14.6249 7.25606 14.728 7.32042 14.3674M7.10158 14.6119C7.20458 14.8759 7.5523 14.9403 7.75194 14.6184M7.63598 14.7471C7.68106 14.9918 7.99658 15.1271 8.27346 14.9596M8.38918 15.0563C8.31838 15.3847 8.65962 15.6487 8.8721 15.4685M7.84198 14.9983C7.73898 15.3589 8.1897 15.565 8.44082 15.3654M7.30118 14.8179C7.27542 15.1527 7.53942 15.3524 7.84206 15.2043M6.72798 14.8503C6.63782 15.0693 7.11434 15.2495 7.3397 15.0629M6.43158 15.4491C6.55394 15.5908 6.9789 15.4491 7.01754 15.1336M6.90198 15.3651C7.0565 15.5455 7.42354 15.642 7.57166 15.2557M7.44278 15.4555C7.43634 15.7324 7.93218 15.9321 8.09314 15.4233M8.67558 15.5231C8.6305 15.6583 8.73678 15.8741 8.9589 15.8998M8.26678 15.4395C8.23458 15.5941 8.45998 15.8097 8.69822 15.7229M8.74358 15.7871C8.67918 15.9545 8.7339 16.196 8.95926 16.1928M8.76598 16.0995C8.59858 16.2412 8.66938 16.4923 8.9109 16.502M8.67918 16.3375C8.44094 16.4984 8.52466 16.8526 8.84014 16.8335M7.95798 15.6551C7.95798 16.0029 8.38938 16.0543 8.4731 15.7324M8.30558 15.9383C8.24118 16.1444 8.40858 16.344 8.67258 16.2861M8.35718 18.4239C8.41518 18.5078 8.65338 18.3661 8.58898 18.2245C8.52458 18.0828 8.27222 18.1598 8.29922 18.3081M8.53078 18.1663C8.56298 17.883 8.22814 17.838 8.14442 18.0827M8.26678 17.9411C8.3505 17.7995 8.06718 17.6063 7.95126 17.8123M8.05438 17.7283C8.13166 17.5222 7.8097 17.4322 7.78394 17.6189M7.71318 17.3483C7.75182 17.2453 8.11238 17.3097 7.95786 17.5222M8.23478 17.7799C8.37646 17.6511 8.13822 17.3871 7.9901 17.4838M9.18758 18.1727C9.07486 18.1855 8.95894 18.2595 9.04266 18.4979C9.1007 18.6633 9.34854 18.6717 9.38394 18.5719" stroke="black" stroke-width="0.02084"/>
<path d="M9.02357 18.292C8.91409 18.2212 8.67585 18.3403 8.78533 18.5721C8.86773 18.7467 9.07509 18.6751 9.10729 18.585M8.40837 18.6236C8.46305 18.7201 8.73673 18.6784 8.78505 18.5721M8.59517 18.3048C8.65313 18.2661 8.75933 18.3143 8.78189 18.3626M8.57597 16.7176C8.38925 16.8399 8.50517 17.2134 8.79489 17.1168M8.51797 17.0204C8.36985 17.1362 8.50509 17.4969 8.78197 17.3617M8.56317 17.3616C8.46017 17.4646 8.55997 17.7511 8.82717 17.6964M8.52437 17.5032C8.46637 17.4773 8.31509 17.4967 8.25065 17.5932M8.35717 16.1992C8.21553 16.3344 8.28309 16.6113 8.54709 16.6338M8.30557 16.4824C8.10269 16.5822 8.10269 16.9845 8.50837 17.0007M8.28957 16.9364C8.17689 17.0265 8.23161 17.3742 8.52137 17.3291M8.38277 17.3164C8.34089 17.3582 8.33445 17.4645 8.36989 17.5096M8.25397 17.1844C8.15097 17.1876 8.01573 17.2617 7.98025 17.3679M7.79357 16.9944C7.83221 16.8914 8.15097 16.8979 8.17349 17.2005M8.20557 16.84C8.16049 16.8497 8.07357 16.8915 8.05105 16.9785M8.06717 15.8968C7.92869 16.0223 7.86113 16.4184 8.28285 16.4956M7.78717 16.7144C7.78717 16.6081 8.07373 16.5179 8.17353 16.6757M7.60357 16.138C7.64541 16.2185 7.84501 16.328 7.96737 16.2378M6.56677 15.5072C6.56037 15.6939 6.71489 15.8613 6.92737 15.8356C7.13985 15.8098 7.18497 15.6231 7.12057 15.5007M6.95957 15.842C6.81789 16.0158 6.99177 16.2605 7.15277 16.1897M7.12077 15.7196C7.20449 15.6874 7.48137 15.6488 7.56509 15.7775M6.22557 15.7712C6.16117 15.8678 6.56041 15.9644 6.69561 15.7776M6.56037 15.874C6.54745 16.0028 6.61189 16.2217 6.94029 16.1316" stroke="black" stroke-width="0.02084"/>
<path d="M6.99198 16.3311C7.0435 16.2216 6.79878 16.0413 6.61206 16.2409C6.42534 16.4405 6.63782 16.6659 6.75374 16.5886M6.13558 15.8999C6.03898 16.0673 6.41246 16.3732 6.62498 16.0899M5.88758 16.1895C5.75238 16.328 5.91978 16.5823 6.12262 16.505C6.32546 16.4277 6.30614 16.2153 6.25786 16.1605" stroke="black" stroke-width="0.02084"/>
<path d="M5.62678 16.4471C5.5173 16.5469 5.62354 16.7819 5.7749 16.7819C5.92626 16.7819 6.01958 16.6629 5.99058 16.5115M6.24158 16.4279C6.22226 16.576 6.44118 16.679 6.58286 16.5407M6.58958 16.2699C6.6089 16.2377 6.59282 16.183 6.56066 16.1572M5.39198 16.6467C5.26646 16.7466 5.5369 17.0234 5.7075 16.769M6.36078 16.5919C6.28026 16.6691 6.40906 16.8719 6.53782 16.8107M5.91998 16.7335C5.9393 16.8718 6.20974 16.9748 6.38038 16.7625M6.06798 16.8719C6.02614 16.9589 6.10986 17.0974 6.2129 17.0781M8.63078 17.6675C8.53102 17.8638 8.8497 18.0925 9.08154 17.8542M8.86238 17.9603C8.8141 18.0665 8.87206 18.2146 8.95898 18.2693M8.55998 18.1823C8.58254 18.0856 8.72094 17.9955 8.84654 18.0406M8.39238 17.9279C8.4117 17.8411 8.52758 17.7541 8.61454 17.7767M15.9744 13.9099C15.5172 13.9164 15.7104 14.6504 16.1032 14.5023M15.8264 14.4511C15.7362 14.5992 15.9101 14.8343 16.1032 14.6958M16.052 14.7247C15.9167 14.9501 16.3997 15.2946 16.5928 14.9404M16.4384 15.0755C16.4447 15.288 17.0629 15.4232 16.9729 14.9982M16.9148 15.2299C17.0628 15.481 17.6166 15.5068 17.5586 15.1333M17.4364 15.3911C17.5524 15.5585 18.0932 15.6615 18.0739 15.3138M15.2404 13.2727C15.3176 13.4723 15.5816 13.5432 15.8714 13.4272M15.0732 13.4143C15.2535 13.5302 14.9895 14.0582 14.7127 13.8457M15.0732 13.7427C15.2729 13.8393 15.5175 13.7685 15.5883 13.4851M15.466 13.7039C15.4853 13.852 15.6978 13.9679 15.9747 13.91M14.97 13.8587C15.2277 14.0776 14.8541 14.5284 14.6867 14.3223M15.0668 14.0259C15.1891 14.1161 15.5046 14.0646 15.5368 13.8263M15.3952 14.0259C15.421 14.1804 15.5433 14.2384 15.7172 14.2448M14.996 14.2383C15.1247 14.4186 15.4467 14.4701 15.5883 14.2319M15.8264 14.644C15.6267 14.6826 15.4336 14.541 15.4464 14.3671C15.4722 14.6118 15.1696 14.7406 14.9764 14.6311M14.7448 14.7535C14.9121 14.8372 15.0925 14.5217 14.9508 14.3028M14.938 15.0883C15.1377 15.1012 15.1633 14.7986 14.9767 14.6311M15.3952 15.3651C15.5627 15.3265 15.511 14.9594 15.1053 14.9272M15.9036 15.6359C16.0646 15.5908 15.9357 15.1852 15.4916 15.2109M16.5156 15.7775C16.6249 15.6101 16.2644 15.3268 15.9683 15.4749M16.818 16.0091C17.0177 16.0671 17.1528 15.5391 16.5218 15.6228M17.1852 16.0091C17.3592 15.964 17.4815 15.6485 16.9729 15.7515M17.5716 16.0351C17.7261 16.1124 17.7969 15.6616 17.3268 15.784M15.3692 14.5799C15.4337 14.6958 15.4079 14.9212 15.2855 14.9791M15.3884 14.8503C15.5172 14.9018 15.6911 14.8568 15.7941 14.6507M15.614 14.8503C15.6525 14.9405 15.6655 15.1208 15.5817 15.2109M15.6464 15.0047C15.7881 15.082 15.9554 14.979 16.0262 14.8308M15.936 14.9595C16.039 15.0239 16.1292 15.3266 15.9553 15.4489M16.052 15.3075C16.1743 15.3139 16.3547 15.3139 16.4705 15.1594M16.3868 15.2431C16.4963 15.2753 16.6249 15.4556 16.58 15.6166M16.5864 15.5583C16.7089 15.5454 16.9212 15.4617 16.9792 15.3136M16.9212 15.4103C17.0244 15.4683 17.0952 15.5906 17.0822 15.7323M17.082 15.6291C17.2043 15.6227 17.3138 15.5583 17.346 15.4231M17.314 15.5135C17.4041 15.5457 17.5137 15.6487 17.5201 15.7711M17.5072 15.6935C17.5973 15.6806 17.6617 15.6227 17.7197 15.5325M17.9644 15.5199C18.0804 15.6358 17.9259 16.0222 17.6876 15.9514M15.4916 7.71552C15.2533 7.85716 14.5771 7.81212 14.9119 7.25192M15.556 7.33552C15.086 7.52224 14.5063 7.16168 15.1117 6.76888M14.9508 6.64032C14.558 6.64032 14.2939 7.27136 14.8221 7.49028M13.4248 6.90432C13.3218 7.10392 13.6888 7.32284 13.9399 7.12324C14.1345 6.9686 14.1201 6.55016 14.0043 6.38916M13.2252 7.38072C13.0964 7.80568 14.043 7.83144 13.8949 7.15532M13.1736 8.01192C13.2057 8.33388 14.0816 8.23084 13.7981 7.58048M13.9012 7.39992C13.972 7.49652 14.1652 7.66392 14.4935 7.63172M14.0556 6.94272C14.0846 7.0586 14.2809 7.14876 14.5321 7.06188M5.26958 16.7399C5.04746 16.8978 5.38874 17.1456 5.51426 16.8719M5.09558 16.8623C4.87346 17.02 5.21474 17.2678 5.34026 16.9942M4.91198 16.9815C4.68978 17.1394 5.0311 17.3872 5.15666 17.1135M4.71878 17.0911C4.50626 17.2038 4.75418 17.4806 4.9699 17.2359M4.50958 17.1975C4.29706 17.31 4.54502 17.587 4.7607 17.3423M5.58838 16.8655C5.58514 17.0297 5.89746 17.0974 6.0101 16.8525M5.78478 17.0171C5.68818 17.1394 5.8653 17.2908 5.9619 17.2359M5.36918 16.9943C5.3595 17.1328 5.62994 17.2133 5.76198 17.062M5.51758 17.1395C5.43062 17.2522 5.60126 17.4035 5.71078 17.3583M5.18918 17.1199C5.19878 17.2294 5.35334 17.3549 5.52078 17.2841M5.28878 17.2679C5.22438 17.3259 5.25658 17.4612 5.34674 17.5031M4.95398 17.2583C4.92822 17.3582 5.0989 17.5353 5.27274 17.4193M4.98918 17.3743C4.88618 17.4548 4.89902 17.5771 5.03102 17.5931M4.74158 17.3615C4.7287 17.429 4.81566 17.5385 4.92514 17.5257M4.19078 17.3551C4.08778 17.4098 4.35178 17.6899 4.51594 17.4291M3.93638 17.4707C3.80758 17.532 4.12638 17.841 4.26802 17.5255M4.77038 17.4579C4.67054 17.4804 4.60618 17.6254 4.68986 17.6832M4.44518 17.5095C4.4323 17.5675 4.55466 17.664 4.6545 17.6287M4.36158 17.5355C4.26498 17.5967 4.3165 17.7672 4.42918 17.7415M4.01718 17.6479C3.92702 17.7154 3.98818 17.8507 4.11378 17.8186M4.18118 17.6383C4.18442 17.6736 4.2649 17.7285 4.33254 17.706M3.70478 17.5803C3.59214 17.6286 3.59858 17.912 3.9785 17.7575M3.45038 17.6931C3.29258 17.7704 3.3441 17.983 3.68862 17.7801M3.71758 17.7963C3.67574 17.8285 3.6307 17.9702 3.78838 17.9153M3.42798 17.8635C3.36358 17.9215 3.40546 18.0407 3.54718 17.9955M3.09638 17.8831C2.9805 17.9508 3.23478 18.041 3.40546 17.8606M3.17358 17.9667C3.12206 18.0182 3.12206 18.1695 3.25726 18.1149M2.84518 18.0279C2.7679 18.0859 2.8999 18.1632 3.14138 18.0569M2.94158 18.1115C2.85142 18.1855 2.86106 18.2788 2.9931 18.2498M2.67438 18.1535C2.57458 18.2437 2.71946 18.3048 2.8933 18.2307M2.67758 18.2535C2.5069 18.3307 2.58098 18.4723 2.68718 18.4177M8.37638 18.7459C8.33678 18.8311 8.46654 18.9004 8.5889 18.8811C8.70638 18.8626 8.81882 18.7658 8.7305 18.6301M8.73678 18.7975C8.85266 18.8877 9.05874 18.7847 9.05874 18.6494" stroke="black" stroke-width="0.02084"/>
<path d="M15.8389 5.15415C15.3237 4.89655 14.2549 4.42007 13.9522 4.80643C14.229 4.69055 15.0404 4.81287 15.71 5.43103L15.8389 5.15415Z" fill="white" stroke="black" stroke-width="0.02084"/>
<path d="M16.1513 5.12685C15.5556 4.43297 15.2048 4.58829 14.7765 4.34929C14.3741 4.12473 13.7333 4.07885 13.6091 4.43597C14.197 4.14969 14.7367 4.58993 15.0681 4.64317C15.5235 4.71629 15.7805 5.06833 15.9137 5.23021L16.1513 5.12685ZM18.3953 5.03805C18.0861 4.32973 17.4251 4.51473 17.1331 4.21385C16.7083 3.77601 15.633 3.37033 15.1886 3.67297C16.1673 3.62145 16.5841 4.34757 17.1075 4.60021C17.481 4.78053 17.8801 5.16681 18.3953 5.03805ZM17.2365 4.96085C16.7085 4.30405 15.897 3.72453 15.5237 3.94345C16.013 3.96921 16.1675 4.31049 16.5153 4.52941C16.8632 4.74833 16.7085 5.06385 17.2365 4.96085ZM14.7249 6.12005C14.1711 5.91401 13.0894 5.81097 12.5871 6.44205C13.4242 6.58365 14.6862 6.50641 14.7249 6.12005Z" fill="white" stroke="black" stroke-width="0.02084"/>
<path d="M14.6221 6.36486C14.0683 6.10726 13.6358 6.46706 13.1153 6.41638C12.1237 6.31978 11.4154 6.37774 11.3253 6.85422C11.8919 6.34554 12.8449 6.7641 13.2313 6.66106C13.6176 6.55802 15.0471 6.64818 15.4978 6.84134C15.2659 6.55802 14.9055 6.48078 14.6221 6.36486ZM16.3605 4.89006C16.2318 4.46506 16.2382 4.01434 16.8757 4.04654C16.7147 3.84694 16.1223 3.7439 16.0257 4.49086C15.3238 3.97574 14.5575 3.88558 14.416 4.3299C14.7765 4.02082 15.3367 4.24618 16.0063 5.00602C16.0643 4.97382 16.2188 4.90942 16.3605 4.8901L16.3605 4.89006ZM15.3949 5.47606C14.9957 5.2185 14.4547 4.79994 15.4014 4.63254C14.9957 4.41362 14.4033 4.51018 14.4677 5.25714C13.3859 4.81926 12.6091 4.96706 12.4457 5.39878C12.2654 5.8753 12.9353 6.1393 13.0511 5.83666C12.9287 5.88818 12.5102 5.74654 12.7291 5.47606C12.9479 5.20558 14.0701 5.40866 15.1374 5.96546C15.4335 6.12002 16.4509 6.09426 15.3949 5.47606ZM15.1113 6.18446C14.8033 5.55558 13.8041 6.1265 13.6028 5.51734C13.3276 6.40982 15.0236 5.91598 15.1113 6.18446ZM21.4669 6.86686C21.6764 6.97098 21.8576 6.8073 21.5371 6.67894C21.7467 6.78298 21.9296 6.62326 21.6091 6.49482C21.8187 6.59886 22.0016 6.43914 21.6811 6.31074C21.5956 6.39678 21.4732 6.71234 21.4669 6.86686ZM21.5761 5.65646C22.0398 5.1671 21.5376 4.99966 22.1041 4.49742C22.5678 4.0865 22.1926 3.81262 22.6323 3.4929C22.7739 3.3899 23.0829 3.18382 23.1088 2.97778C23.2955 3.44138 22.5291 3.50578 22.5806 4.25274C22.6134 4.72834 22.2919 4.68678 22.1686 5.48906C22.1428 5.65646 22.0269 6.02994 21.5761 5.65646Z" fill="white" stroke="black" stroke-width="0.02084"/>
<path d="M21.7825 5.87534C22.04 5.32158 22.3357 5.33222 22.4778 5.11554C22.7483 4.70342 23.3213 5.18634 23.8043 4.81934C23.7207 5.3409 23.0703 5.15414 22.787 5.48902C22.5037 5.8239 22.2719 5.97838 21.7825 5.87534Z" fill="white" stroke="black" stroke-width="0.02084"/>
<path d="M21.8469 6.05574C22.2977 5.69514 22.6299 5.93574 22.9416 5.74666C23.7271 5.27014 24.0427 5.84322 24.7446 5.61786C24.5578 6.06858 23.5211 5.68226 23.0704 6.0171C22.6198 6.35194 21.0356 6.6739 21.8469 6.05574ZM20.5333 8.62494C20.5268 8.4189 20.3336 8.15486 20.0631 8.1227C19.7927 8.09054 19.6768 7.80718 19.4708 7.7943C19.2648 7.78142 19.1295 7.3693 18.8461 7.37574C18.5628 7.38218 18.4469 7.74922 19.1101 8.08406C19.7733 8.4189 20.5075 8.80522 20.5333 8.62494ZM19.6961 8.79894C19.4128 8.81182 19.3741 9.22394 19.1038 9.23682C19.4771 9.43642 19.7476 9.14666 19.9408 8.8891L19.6961 8.79894Z" fill="white" stroke="black" stroke-width="0.02084"/>
<path d="M19.9281 8.85014C19.6834 9.05618 19.6126 9.48762 19.9668 9.60994C19.7542 9.31694 20.3402 9.18494 20.1599 8.9145L19.9281 8.85014Z" fill="white" stroke="black" stroke-width="0.02084"/>
<path d="M20.1725 8.86335C19.9793 9.23683 20.4752 9.28187 20.3463 9.56523C20.6296 9.50083 20.6748 8.96639 20.4171 8.82471L20.1725 8.86335Z" fill="white" stroke="black" stroke-width="0.02084"/>
<path d="M18.2793 8.06445C18.743 8.03869 19.167 8.28953 19.4513 8.69549C19.6316 8.95305 20.2368 9.05609 20.443 8.85001C20.6491 8.64393 20.5331 8.20609 20.018 8.34777C19.8892 8.12885 19.5157 8.20613 19.3355 8.02581C19.1553 7.84549 18.4596 7.33041 18.2793 8.06445Z" fill="white" stroke="black" stroke-width="0.02084"/>
<path d="M20.0181 8.34798C19.8958 8.37374 19.8571 8.58622 19.9343 8.6957L20.0181 8.34798ZM20.2821 8.47678C20.3208 8.54118 20.2949 8.6313 20.2756 8.67638L20.2821 8.47678ZM19.0137 8.08398C19.2519 8.09686 19.297 8.27074 19.5545 8.3351L19.0137 8.08398Z" fill="white"/>
<path d="M20.0181 8.34798C19.8958 8.37374 19.8571 8.58622 19.9343 8.6957M20.2821 8.47678C20.3208 8.54118 20.2949 8.6313 20.2756 8.67638M19.0137 8.08398C19.2519 8.09686 19.297 8.27074 19.5545 8.3351" stroke="black" stroke-width="0.02084" stroke-linecap="round"/>
<path d="M18.8561 7.49807C19.6789 7.70411 20.3318 7.88443 20.7366 8.11623C21.1415 8.34803 21.7683 8.41243 22.3168 8.25791C22.8653 8.10339 23.9229 7.96171 23.8708 8.64427C24.1583 8.30295 23.7925 7.93591 23.0611 7.87151C23.0743 7.53671 22.7159 7.23403 22.4583 7.43363C22.6966 7.40147 22.9023 7.84575 22.4323 8.02603C22.5236 7.69123 22.1906 7.38855 21.8446 7.53667C22.0666 7.60107 22.2911 7.97335 21.7944 8.11619C21.4809 8.20635 21.0239 8.09047 20.6844 7.88439C20.3449 7.67831 18.4383 6.93139 18.8561 7.49807Z" fill="white" stroke="black" stroke-width="0.02084"/>
<path d="M20.9325 7.16314C20.675 7.27902 20.8423 7.5495 20.4432 7.70402C20.044 7.85854 19.767 8.2127 19.8572 8.51534C20.1277 7.92294 20.6042 7.9487 20.7715 7.7169C20.9388 7.4851 21.1837 7.14382 20.9325 7.16314Z" fill="white" stroke="black" stroke-width="0.02084"/>
<path d="M21.0033 7.20157C20.9905 7.67161 20.6205 7.50037 20.765 8.16101C20.8101 8.36705 20.8938 8.70189 20.7521 9.03673C21.1675 8.73409 20.9003 8.09833 21.0869 7.85837C21.1771 7.74249 21.2929 7.56217 21.3381 7.40765C21.2415 7.67805 21.248 8.18037 21.512 8.30913C21.2995 7.80685 22.0851 7.39477 21.5441 6.81525C21.4669 6.95693 21.2221 7.20801 21.0033 7.20157ZM19.6897 6.73157C19.7542 6.82817 19.8185 7.07285 19.7605 7.20809C19.8894 7.13081 20.0762 6.93121 20.134 6.79597C20.398 6.83461 20.501 7.16301 20.25 7.30465C20.4045 7.30465 20.6685 7.30465 20.8165 7.13081C20.6364 6.93121 20.0762 6.62209 19.6897 6.73157H19.6897Z" fill="white" stroke="black" stroke-width="0.02084"/>
<path d="M15.6845 5.808C15.6428 5.77 15.5725 5.73392 15.4463 5.708C15.0565 5.62808 15.2578 5.27664 15.5897 5.27976C16.2978 4.50708 16.6955 5.10272 17.5583 4.85804C17.8603 4.77244 18.0677 4.79776 18.2322 4.86892C18.6185 4.61132 19.0717 4.68332 19.4002 4.98596C19.4367 4.92792 19.4857 4.8836 19.5545 4.86448C19.857 4.78048 20.1017 5.0384 20.1853 5.37328C20.4212 5.32956 20.6905 5.44628 20.8677 5.60728C21.113 5.48128 21.282 5.47568 21.3442 5.6052C21.5632 5.5022 21.8469 5.4376 21.9885 5.78528C22.1301 6.13296 21.6537 6.03 21.5763 6.76408C21.5287 7.21688 21.0227 7.39508 20.6233 7.12464C19.9847 6.69196 19.3613 6.62236 19.0522 7.2792C18.743 7.93604 18.501 8.3176 17.7515 8.1034C17.4812 8.02612 17.1333 8.12916 16.9145 8.42536C16.6957 8.72156 16.3607 8.44464 15.9615 8.47684C16.4637 8.3996 16.2713 8.27324 16.7085 8.24504C17.1077 8.21928 17.0047 7.84584 17.2622 7.79432C16.2577 8.05192 16.2963 7.6784 15.4722 7.93596C15.8327 7.47236 16.3994 7.72992 16.6827 7.45948C15.9357 7.4466 15.6017 6.9586 15.266 7.16328C14.738 7.48528 14.9697 8.40188 13.5919 8.32232C12.9222 8.28368 12.4972 8.37384 12.098 8.77312C12.7935 7.33072 13.7395 8.12312 14.1972 7.66556C14.4677 7.39512 14.6737 7.18904 14.8153 6.93148C14.8652 6.84084 14.9327 6.789 15.017 6.76896C13.8709 6.40836 14.564 5.84664 15.6845 5.80804L15.6845 5.808Z" fill="white" stroke="black" stroke-width="0.02084"/>
<path d="M21.3437 5.60522C21.3612 5.64142 21.3702 5.68842 21.3702 5.74654C21.3702 6.02982 20.9452 6.04274 20.9195 6.4613C20.906 6.68022 20.8809 6.80254 20.7327 6.77678C20.5845 6.75102 20.4559 6.51922 20.5975 6.24878" fill="white"/>
<path d="M21.3437 5.60522C21.3612 5.64142 21.3702 5.68842 21.3702 5.74654C21.3702 6.02982 20.9452 6.04274 20.9195 6.4613C20.906 6.68022 20.8809 6.80254 20.7327 6.77678C20.5845 6.75102 20.4559 6.51922 20.5975 6.24878" stroke="black" stroke-width="0.02084" stroke-linecap="round"/>
<path d="M15.8969 5.38614C15.7902 5.31118 15.6836 5.28074 15.5879 5.27986L15.8969 5.38614ZM18.2297 4.86694C18.5707 5.01454 18.737 5.36878 19.2324 5.38614C19.7092 5.40286 20.0052 6.09446 20.8035 5.6437C20.8252 5.6315 20.8463 5.6201 20.8669 5.60954M19.4001 4.98614C19.3289 5.09934 19.3128 5.25726 19.3323 5.3959L19.4001 4.98614ZM17.8417 6.44214C17.2365 6.44214 17.0819 6.75122 17.0819 7.04742C17.0819 7.34362 17.3652 7.72998 17.8675 7.72998C18.3697 7.72998 18.6402 7.4209 18.6402 7.08606C18.6402 6.75122 18.331 6.44214 17.8417 6.44214Z" fill="white"/>
<path d="M15.8969 5.38614C15.7902 5.31118 15.6836 5.28074 15.5879 5.27986M18.2297 4.86694C18.5707 5.01454 18.737 5.36878 19.2324 5.38614C19.7092 5.40286 20.0052 6.09446 20.8035 5.6437C20.8252 5.6315 20.8463 5.6201 20.8669 5.60954M19.4001 4.98614C19.3289 5.09934 19.3128 5.25726 19.3323 5.3959M17.8417 6.44214C17.2365 6.44214 17.0819 6.75122 17.0819 7.04742C17.0819 7.34362 17.3652 7.72998 17.8675 7.72998C18.3697 7.72998 18.6402 7.4209 18.6402 7.08606C18.6402 6.75122 18.331 6.44214 17.8417 6.44214Z" stroke="black" stroke-width="0.02084"/>
<path d="M17.9509 7.71673C17.9381 7.54933 17.6354 7.57505 17.6482 7.44629C17.6611 7.31753 17.8157 7.26597 17.8157 7.08569C17.8157 6.90541 18.0861 6.89249 18.1762 7.03417C18.2664 7.17585 18.5369 7.45269 18.5949 7.31105M18.1765 7.03433C18.0348 7.17597 17.9705 7.46573 18.1572 7.69113L18.1765 7.03433ZM18.3697 7.25313C18.3247 7.34973 18.3119 7.49781 18.3634 7.58793L18.3697 7.25313Z" fill="white"/>
<path d="M17.9509 7.71673C17.9381 7.54933 17.6354 7.57505 17.6482 7.44629C17.6611 7.31753 17.8157 7.26597 17.8157 7.08569C17.8157 6.90541 18.0861 6.89249 18.1762 7.03417C18.2664 7.17585 18.5369 7.45269 18.5949 7.31105M18.1765 7.03433C18.0348 7.17597 17.9705 7.46573 18.1572 7.69113M18.3697 7.25313C18.3247 7.34973 18.3119 7.49781 18.3634 7.58793" stroke="black" stroke-width="0.02084"/>
<path d="M20.7745 6.78002C21.2478 6.81866 21.3283 6.29706 20.9742 6.2649M20.1921 5.37322C20.0279 5.16398 19.6513 5.09314 19.6448 5.53742" stroke="black" stroke-width="0.02084"/>
<path d="M19.5997 6.04297C19.4387 5.64377 19.0265 5.58577 18.8075 5.78537C18.6254 5.95153 18.6209 6.38425 19.0137 6.47441C19.1489 6.31345 19.4129 6.10089 19.5997 6.04297ZM19.4225 5.79177C19.1907 5.58569 18.8493 5.97529 19.1585 6.33265L19.4225 5.79177ZM15.0125 6.76737C15.1677 6.73057 15.3945 6.80649 15.7423 6.97005C15.9613 7.07309 16.6182 7.29205 17.0302 7.07309C16.6052 7.22765 16.2833 6.58369 15.9613 6.66097C15.6393 6.73825 15.0502 6.85737 14.8023 6.62233C15.4075 6.66097 15.733 6.18149 16.4249 6.59657C16.6182 6.71249 16.8629 6.78977 17.0817 6.77689C16.5152 6.09433 15.7682 6.53217 15.6909 5.97845C16.0322 6.34549 16.866 5.89473 17.291 6.58373M15.8133 6.08137C15.7336 5.98217 15.7696 5.88337 15.6841 5.80517L15.8133 6.08137Z" fill="white"/>
<path d="M19.4225 5.79177C19.1907 5.58569 18.8493 5.97529 19.1585 6.33265M15.0125 6.76737C15.1677 6.73057 15.3945 6.80649 15.7423 6.97005C15.9613 7.07309 16.6182 7.29205 17.0302 7.07309C16.6052 7.22765 16.2833 6.58369 15.9613 6.66097C15.6393 6.73825 15.0502 6.85737 14.8023 6.62233C15.4075 6.66097 15.733 6.18149 16.4249 6.59657C16.6182 6.71249 16.8629 6.78977 17.0817 6.77689C16.5152 6.09433 15.7682 6.53217 15.6909 5.97845C16.0322 6.34549 16.866 5.89473 17.291 6.58373M15.8133 6.08137C15.7336 5.98217 15.7696 5.88337 15.6841 5.80517M19.5997 6.04297C19.4387 5.64377 19.0265 5.58577 18.8075 5.78537C18.6254 5.95153 18.6209 6.38425 19.0137 6.47441C19.1489 6.31345 19.4129 6.10089 19.5997 6.04297Z" stroke="black" stroke-width="0.02084"/>
<path d="M20.1922 5.37284C20.0505 5.22152 19.7415 5.34064 19.8283 5.64652C19.896 5.50488 20.0408 5.38572 20.1922 5.37284ZM19.3166 6.19764C19.4141 6.12684 19.5147 6.06872 19.5996 6.04236C19.5532 5.9278 19.4864 5.84132 19.4092 5.781C19.3356 5.73012 19.1239 6.01476 19.3166 6.19764Z" fill="black"/>
<path d="M18.9362 5.6762C18.7043 5.52168 18.4918 5.53456 18.421 5.66332C18.2537 5.65692 18.1152 5.77924 18.1087 6.02392M18.4662 6.127C18.1894 5.93708 17.8093 6.00788 17.8352 6.43288M17.6678 6.6742C17.803 6.56472 17.9961 6.48748 18.1443 6.68064M19.735 6.2558C19.6834 6.3266 19.6448 6.43608 19.7284 6.60352C19.6254 6.46832 19.368 6.46832 19.0909 6.82888M20.3466 6.2366C20.0118 6.27524 20.0182 6.49416 20.2886 6.59076M17.9642 5.4186C17.6808 5.36064 17.4748 5.52808 17.8676 5.66972M18.505 5.2254C18.1056 5.1288 17.9446 5.2318 18.125 5.322M17.3522 6.829C17.3394 6.97068 17.4165 7.1574 17.6483 6.94492M17.4298 7.2538C17.4298 7.29244 17.4232 7.33748 17.3974 7.36968M16.5022 5.367C16.2575 5.2962 16.2125 5.0708 16.4958 5.09012M16.4186 5.8886C16.148 5.79844 16.148 5.53444 16.3734 5.5602M16.921 5.7534C16.6054 5.67612 16.5926 5.4572 16.831 5.4894M16.9594 5.0838C16.792 5.07092 16.5344 5.25768 16.9659 5.36712M17.4298 5.4574C17.037 5.39944 17.0434 5.56044 17.2751 5.66348M17.7258 5.0838C17.4231 5.02584 17.3201 5.20616 17.5261 5.2834M16.773 6.1978C16.6988 6.13664 16.6378 5.84364 16.9918 5.9306M17.507 6.1078C17.2688 6.0434 17.0434 6.2752 17.2623 6.41044M17.8222 5.831C17.5712 5.78592 17.3586 5.85676 17.4938 5.94688" stroke="black" stroke-width="0.02084" stroke-linecap="round"/>
<path d="M20.1785 5.37378C20.037 5.39998 19.9102 5.48314 19.8281 5.64738L20.1785 5.37378Z" fill="white"/>
<path d="M20.1785 5.37378C20.037 5.39998 19.9102 5.48314 19.8281 5.64738" stroke="black" stroke-width="0.02084"/>
</g>
</g>
<defs>
<clipPath id="clip0_2214_3081">
<path d="M0 12C0 5.37258 5.37258 0 12 0C18.6274 0 24 5.37258 24 12C24 18.6274 18.6274 24 12 24C5.37258 24 0 18.6274 0 12Z" fill="white"/>
</clipPath>
<clipPath id="clip1_2214_3081">
<rect width="36" height="24" fill="white" transform="translate(-6)"/>
</clipPath>
</defs>
</svg>
