<svg width="32" height="32" viewBox="0 0 32 32" fill="none" xmlns="http://www.w3.org/2000/svg">
<mask id="path-1-outside-1_3881_123" maskUnits="userSpaceOnUse" x="4.43102" y="3.11298" width="23" height="26" fill="black">
<rect fill="white" x="4.43102" y="3.11298" width="23" height="26"/>
<path d="M16.0779 6.97536C18.1549 6.97536 20.1135 7.42643 21.9536 8.32856C23.7937 9.2307 25.3141 10.5288 26.5148 12.2229C26.6641 12.4371 26.7161 12.6334 26.6707 12.812C26.6252 12.9905 26.531 13.1382 26.3883 13.2551C26.2456 13.3653 26.0817 13.414 25.8967 13.4011C25.7117 13.3881 25.5608 13.281 25.444 13.0798C24.3859 11.5674 23.0261 10.4089 21.3645 9.60408C19.703 8.7991 17.9408 8.38688 16.0779 8.36741C14.2021 8.36099 12.4416 8.76347 10.7962 9.57487C9.15081 10.3861 7.81211 11.5641 6.78009 13.109C6.62432 13.3232 6.45063 13.4433 6.25902 13.4692C6.06761 13.4951 5.90054 13.4626 5.75781 13.3719C5.59542 13.2874 5.49319 13.1543 5.45113 12.9726C5.40888 12.791 5.43322 12.6254 5.52415 12.4761C6.70532 10.7236 8.22735 9.36866 10.0902 8.41122C11.9531 7.45398 13.949 6.97536 16.0779 6.97536ZM16.0779 9.81817C18.7261 9.81817 20.9816 10.722 22.8445 12.5295C24.7072 14.3373 25.6385 16.5393 25.6385 19.1355C25.6385 20.1416 25.2897 21.0049 24.592 21.7254C23.8943 22.4458 23.0392 22.8061 22.0267 22.8061C21.0011 22.8061 20.1297 22.4637 19.4125 21.7788C18.6952 21.094 18.3365 20.2584 18.3365 19.2719C18.3365 18.6293 18.1208 18.0793 17.6893 17.6217C17.2576 17.1641 16.7237 16.9353 16.0875 16.9353C15.4644 16.9353 14.9338 17.1641 14.4957 17.6217C14.0576 18.0793 13.8385 18.6293 13.8385 19.2719C13.8385 21.2061 14.3822 22.8384 15.4695 24.1689C16.5566 25.4996 18.1322 26.3824 20.1962 26.8172C20.404 26.8431 20.5435 26.9339 20.6147 27.0897C20.6862 27.2455 20.7057 27.4078 20.6732 27.5766C20.6278 27.7519 20.5386 27.893 20.4056 28.0001C20.2724 28.1072 20.0695 28.1381 19.7969 28.0927C17.4733 27.6318 15.6673 26.5998 14.3788 24.9967C13.0906 23.3934 12.4464 21.4851 12.4464 19.2719C12.4464 18.2463 12.8001 17.3716 13.5076 16.6479C14.215 15.9243 15.075 15.5625 16.0875 15.5625C17.1 15.5625 17.9633 15.9081 18.6774 16.5994C19.3914 17.2906 19.7484 18.136 19.7484 19.1355C19.7484 19.7717 19.9691 20.312 20.4103 20.7566C20.8517 21.2011 21.3905 21.4234 22.0267 21.4234C22.6498 21.4234 23.1771 21.2011 23.6086 20.7566C24.0403 20.312 24.2561 19.7717 24.2561 19.1355C24.2561 16.9157 23.4561 15.0481 21.8561 13.5325C20.2563 12.0168 18.3237 11.259 16.0583 11.259C13.7931 11.259 11.8719 12.0379 10.2947 13.5956C8.71746 15.1534 7.92884 17.0519 7.92884 19.2912C7.92884 20.0442 7.98074 20.7582 8.08452 21.4333C8.1885 22.1082 8.35732 22.7605 8.59099 23.3902C8.66226 23.6173 8.66547 23.8071 8.60063 23.9598C8.53578 24.1123 8.41895 24.2242 8.25013 24.2957C8.05541 24.367 7.86877 24.3718 7.69021 24.3103C7.51185 24.2486 7.37399 24.0943 7.27663 23.8476C7.07529 23.2896 6.90491 22.6194 6.76549 21.8373C6.62588 21.0551 6.55607 20.2 6.55607 19.2719C6.55607 16.6821 7.48751 14.459 9.35039 12.6026C11.2131 10.7463 13.4556 9.81817 16.0779 9.81817ZM16.0875 4.11298C17.3727 4.11298 18.6286 4.26388 19.8553 4.5657C21.0821 4.86752 22.2601 5.31693 23.3895 5.91394C23.6037 6.01792 23.7303 6.1624 23.7692 6.34739C23.8081 6.53237 23.792 6.69944 23.7207 6.8486C23.6298 6.99795 23.4999 7.11322 23.3311 7.19442C23.1625 7.27542 22.9808 7.25751 22.7861 7.14068C21.754 6.60851 20.67 6.20125 19.534 5.91891C18.3982 5.63656 17.2494 5.49539 16.0875 5.49539C14.9063 5.49539 13.7494 5.63004 12.6167 5.89934C11.484 6.16883 10.4017 6.58261 9.36967 7.14068C9.14905 7.25751 8.95278 7.29324 8.78084 7.24787C8.60871 7.2025 8.47396 7.10193 8.3766 6.94615C8.30533 6.82932 8.28917 6.66536 8.32812 6.45429C8.36706 6.24341 8.47085 6.09581 8.63947 6.01149C9.76885 5.34283 10.9697 4.85924 12.242 4.56073C13.5141 4.26223 14.7959 4.11298 16.0875 4.11298ZM16.0875 12.7001C17.905 12.7001 19.4628 13.3248 20.7608 14.5741C22.059 15.8236 22.7081 17.3441 22.7081 19.1355C22.7081 19.3692 22.6529 19.5622 22.5425 19.7147C22.4323 19.8674 22.2603 19.9437 22.0267 19.9437C21.7799 19.9437 21.5965 19.8674 21.4764 19.7147C21.3564 19.5622 21.2965 19.3692 21.2965 19.1355C21.2965 17.7141 20.7885 16.5133 19.7727 15.5333C18.7568 14.5531 17.5284 14.063 16.0875 14.063C14.6402 14.063 13.4134 14.5725 12.4073 15.5917C11.4014 16.6107 10.8984 17.8374 10.8984 19.2719C10.8984 20.7841 11.1321 22.1082 11.5994 23.2442C12.0667 24.38 12.8423 25.5126 13.9261 26.642C14.0819 26.7977 14.1614 26.9616 14.1647 27.1335C14.1681 27.3057 14.121 27.4534 14.0237 27.5766C13.8938 27.7454 13.7088 27.825 13.4687 27.8152C13.2284 27.8055 13.0304 27.7162 12.8746 27.5474C11.7388 26.3921 10.8951 25.1379 10.3435 23.7845C9.79163 22.4312 9.51571 20.927 9.51571 19.2719C9.51571 17.4544 10.1519 15.9047 11.4242 14.6229C12.6963 13.341 14.2507 12.7001 16.0875 12.7001ZM16.0875 18.4345C16.3017 18.4345 16.4689 18.5059 16.589 18.6486C16.7091 18.7915 16.7692 18.9668 16.7692 19.1744C16.7692 20.8556 17.3079 22.1229 18.3853 22.9764C19.4627 23.8298 20.7641 24.2565 22.2895 24.2565C22.4842 24.2565 22.7065 24.2371 22.9563 24.1981C23.2062 24.1592 23.4382 24.1397 23.6524 24.1397C23.8407 24.1397 24.0013 24.1966 24.1343 24.3103C24.2675 24.4238 24.3276 24.5617 24.3145 24.7239C24.3145 24.9186 24.2691 25.0695 24.1781 25.1766C24.0874 25.2837 23.9705 25.3632 23.8276 25.4152C23.555 25.5126 23.2775 25.5727 22.9952 25.5954C22.7128 25.618 22.4776 25.6293 22.2895 25.6293C20.3813 25.6293 18.7569 25.076 17.4165 23.9694C16.0762 22.8628 15.4061 21.2645 15.4061 19.1744C15.4061 18.9668 15.4662 18.7915 15.5863 18.6486C15.7062 18.5059 15.8733 18.4345 16.0875 18.4345Z"/>
</mask>
<path d="M16.0779 6.97536C18.1549 6.97536 20.1135 7.42643 21.9536 8.32856C23.7937 9.2307 25.3141 10.5288 26.5148 12.2229C26.6641 12.4371 26.7161 12.6334 26.6707 12.812C26.6252 12.9905 26.531 13.1382 26.3883 13.2551C26.2456 13.3653 26.0817 13.414 25.8967 13.4011C25.7117 13.3881 25.5608 13.281 25.444 13.0798C24.3859 11.5674 23.0261 10.4089 21.3645 9.60408C19.703 8.7991 17.9408 8.38688 16.0779 8.36741C14.2021 8.36099 12.4416 8.76347 10.7962 9.57487C9.15081 10.3861 7.81211 11.5641 6.78009 13.109C6.62432 13.3232 6.45063 13.4433 6.25902 13.4692C6.06761 13.4951 5.90054 13.4626 5.75781 13.3719C5.59542 13.2874 5.49319 13.1543 5.45113 12.9726C5.40888 12.791 5.43322 12.6254 5.52415 12.4761C6.70532 10.7236 8.22735 9.36866 10.0902 8.41122C11.9531 7.45398 13.949 6.97536 16.0779 6.97536ZM16.0779 9.81817C18.7261 9.81817 20.9816 10.722 22.8445 12.5295C24.7072 14.3373 25.6385 16.5393 25.6385 19.1355C25.6385 20.1416 25.2897 21.0049 24.592 21.7254C23.8943 22.4458 23.0392 22.8061 22.0267 22.8061C21.0011 22.8061 20.1297 22.4637 19.4125 21.7788C18.6952 21.094 18.3365 20.2584 18.3365 19.2719C18.3365 18.6293 18.1208 18.0793 17.6893 17.6217C17.2576 17.1641 16.7237 16.9353 16.0875 16.9353C15.4644 16.9353 14.9338 17.1641 14.4957 17.6217C14.0576 18.0793 13.8385 18.6293 13.8385 19.2719C13.8385 21.2061 14.3822 22.8384 15.4695 24.1689C16.5566 25.4996 18.1322 26.3824 20.1962 26.8172C20.404 26.8431 20.5435 26.9339 20.6147 27.0897C20.6862 27.2455 20.7057 27.4078 20.6732 27.5766C20.6278 27.7519 20.5386 27.893 20.4056 28.0001C20.2724 28.1072 20.0695 28.1381 19.7969 28.0927C17.4733 27.6318 15.6673 26.5998 14.3788 24.9967C13.0906 23.3934 12.4464 21.4851 12.4464 19.2719C12.4464 18.2463 12.8001 17.3716 13.5076 16.6479C14.215 15.9243 15.075 15.5625 16.0875 15.5625C17.1 15.5625 17.9633 15.9081 18.6774 16.5994C19.3914 17.2906 19.7484 18.136 19.7484 19.1355C19.7484 19.7717 19.9691 20.312 20.4103 20.7566C20.8517 21.2011 21.3905 21.4234 22.0267 21.4234C22.6498 21.4234 23.1771 21.2011 23.6086 20.7566C24.0403 20.312 24.2561 19.7717 24.2561 19.1355C24.2561 16.9157 23.4561 15.0481 21.8561 13.5325C20.2563 12.0168 18.3237 11.259 16.0583 11.259C13.7931 11.259 11.8719 12.0379 10.2947 13.5956C8.71746 15.1534 7.92884 17.0519 7.92884 19.2912C7.92884 20.0442 7.98074 20.7582 8.08452 21.4333C8.1885 22.1082 8.35732 22.7605 8.59099 23.3902C8.66226 23.6173 8.66547 23.8071 8.60063 23.9598C8.53578 24.1123 8.41895 24.2242 8.25013 24.2957C8.05541 24.367 7.86877 24.3718 7.69021 24.3103C7.51185 24.2486 7.37399 24.0943 7.27663 23.8476C7.07529 23.2896 6.90491 22.6194 6.76549 21.8373C6.62588 21.0551 6.55607 20.2 6.55607 19.2719C6.55607 16.6821 7.48751 14.459 9.35039 12.6026C11.2131 10.7463 13.4556 9.81817 16.0779 9.81817ZM16.0875 4.11298C17.3727 4.11298 18.6286 4.26388 19.8553 4.5657C21.0821 4.86752 22.2601 5.31693 23.3895 5.91394C23.6037 6.01792 23.7303 6.1624 23.7692 6.34739C23.8081 6.53237 23.792 6.69944 23.7207 6.8486C23.6298 6.99795 23.4999 7.11322 23.3311 7.19442C23.1625 7.27542 22.9808 7.25751 22.7861 7.14068C21.754 6.60851 20.67 6.20125 19.534 5.91891C18.3982 5.63656 17.2494 5.49539 16.0875 5.49539C14.9063 5.49539 13.7494 5.63004 12.6167 5.89934C11.484 6.16883 10.4017 6.58261 9.36967 7.14068C9.14905 7.25751 8.95278 7.29324 8.78084 7.24787C8.60871 7.2025 8.47396 7.10193 8.3766 6.94615C8.30533 6.82932 8.28917 6.66536 8.32812 6.45429C8.36706 6.24341 8.47085 6.09581 8.63947 6.01149C9.76885 5.34283 10.9697 4.85924 12.242 4.56073C13.5141 4.26223 14.7959 4.11298 16.0875 4.11298ZM16.0875 12.7001C17.905 12.7001 19.4628 13.3248 20.7608 14.5741C22.059 15.8236 22.7081 17.3441 22.7081 19.1355C22.7081 19.3692 22.6529 19.5622 22.5425 19.7147C22.4323 19.8674 22.2603 19.9437 22.0267 19.9437C21.7799 19.9437 21.5965 19.8674 21.4764 19.7147C21.3564 19.5622 21.2965 19.3692 21.2965 19.1355C21.2965 17.7141 20.7885 16.5133 19.7727 15.5333C18.7568 14.5531 17.5284 14.063 16.0875 14.063C14.6402 14.063 13.4134 14.5725 12.4073 15.5917C11.4014 16.6107 10.8984 17.8374 10.8984 19.2719C10.8984 20.7841 11.1321 22.1082 11.5994 23.2442C12.0667 24.38 12.8423 25.5126 13.9261 26.642C14.0819 26.7977 14.1614 26.9616 14.1647 27.1335C14.1681 27.3057 14.121 27.4534 14.0237 27.5766C13.8938 27.7454 13.7088 27.825 13.4687 27.8152C13.2284 27.8055 13.0304 27.7162 12.8746 27.5474C11.7388 26.3921 10.8951 25.1379 10.3435 23.7845C9.79163 22.4312 9.51571 20.927 9.51571 19.2719C9.51571 17.4544 10.1519 15.9047 11.4242 14.6229C12.6963 13.341 14.2507 12.7001 16.0875 12.7001ZM16.0875 18.4345C16.3017 18.4345 16.4689 18.5059 16.589 18.6486C16.7091 18.7915 16.7692 18.9668 16.7692 19.1744C16.7692 20.8556 17.3079 22.1229 18.3853 22.9764C19.4627 23.8298 20.7641 24.2565 22.2895 24.2565C22.4842 24.2565 22.7065 24.2371 22.9563 24.1981C23.2062 24.1592 23.4382 24.1397 23.6524 24.1397C23.8407 24.1397 24.0013 24.1966 24.1343 24.3103C24.2675 24.4238 24.3276 24.5617 24.3145 24.7239C24.3145 24.9186 24.2691 25.0695 24.1781 25.1766C24.0874 25.2837 23.9705 25.3632 23.8276 25.4152C23.555 25.5126 23.2775 25.5727 22.9952 25.5954C22.7128 25.618 22.4776 25.6293 22.2895 25.6293C20.3813 25.6293 18.7569 25.076 17.4165 23.9694C16.0762 22.8628 15.4061 21.2645 15.4061 19.1744C15.4061 18.9668 15.4662 18.7915 15.5863 18.6486C15.7062 18.5059 15.8733 18.4345 16.0875 18.4345Z" fill="#2D2D3A"/>
<path d="M16.0779 6.97536C18.1549 6.97536 20.1135 7.42643 21.9536 8.32856C23.7937 9.2307 25.3141 10.5288 26.5148 12.2229C26.6641 12.4371 26.7161 12.6334 26.6707 12.812C26.6252 12.9905 26.531 13.1382 26.3883 13.2551C26.2456 13.3653 26.0817 13.414 25.8967 13.4011C25.7117 13.3881 25.5608 13.281 25.444 13.0798C24.3859 11.5674 23.0261 10.4089 21.3645 9.60408C19.703 8.7991 17.9408 8.38688 16.0779 8.36741C14.2021 8.36099 12.4416 8.76347 10.7962 9.57487C9.15081 10.3861 7.81211 11.5641 6.78009 13.109C6.62432 13.3232 6.45063 13.4433 6.25902 13.4692C6.06761 13.4951 5.90054 13.4626 5.75781 13.3719C5.59542 13.2874 5.49319 13.1543 5.45113 12.9726C5.40888 12.791 5.43322 12.6254 5.52415 12.4761C6.70532 10.7236 8.22735 9.36866 10.0902 8.41122C11.9531 7.45398 13.949 6.97536 16.0779 6.97536ZM16.0779 9.81817C18.7261 9.81817 20.9816 10.722 22.8445 12.5295C24.7072 14.3373 25.6385 16.5393 25.6385 19.1355C25.6385 20.1416 25.2897 21.0049 24.592 21.7254C23.8943 22.4458 23.0392 22.8061 22.0267 22.8061C21.0011 22.8061 20.1297 22.4637 19.4125 21.7788C18.6952 21.094 18.3365 20.2584 18.3365 19.2719C18.3365 18.6293 18.1208 18.0793 17.6893 17.6217C17.2576 17.1641 16.7237 16.9353 16.0875 16.9353C15.4644 16.9353 14.9338 17.1641 14.4957 17.6217C14.0576 18.0793 13.8385 18.6293 13.8385 19.2719C13.8385 21.2061 14.3822 22.8384 15.4695 24.1689C16.5566 25.4996 18.1322 26.3824 20.1962 26.8172C20.404 26.8431 20.5435 26.9339 20.6147 27.0897C20.6862 27.2455 20.7057 27.4078 20.6732 27.5766C20.6278 27.7519 20.5386 27.893 20.4056 28.0001C20.2724 28.1072 20.0695 28.1381 19.7969 28.0927C17.4733 27.6318 15.6673 26.5998 14.3788 24.9967C13.0906 23.3934 12.4464 21.4851 12.4464 19.2719C12.4464 18.2463 12.8001 17.3716 13.5076 16.6479C14.215 15.9243 15.075 15.5625 16.0875 15.5625C17.1 15.5625 17.9633 15.9081 18.6774 16.5994C19.3914 17.2906 19.7484 18.136 19.7484 19.1355C19.7484 19.7717 19.9691 20.312 20.4103 20.7566C20.8517 21.2011 21.3905 21.4234 22.0267 21.4234C22.6498 21.4234 23.1771 21.2011 23.6086 20.7566C24.0403 20.312 24.2561 19.7717 24.2561 19.1355C24.2561 16.9157 23.4561 15.0481 21.8561 13.5325C20.2563 12.0168 18.3237 11.259 16.0583 11.259C13.7931 11.259 11.8719 12.0379 10.2947 13.5956C8.71746 15.1534 7.92884 17.0519 7.92884 19.2912C7.92884 20.0442 7.98074 20.7582 8.08452 21.4333C8.1885 22.1082 8.35732 22.7605 8.59099 23.3902C8.66226 23.6173 8.66547 23.8071 8.60063 23.9598C8.53578 24.1123 8.41895 24.2242 8.25013 24.2957C8.05541 24.367 7.86877 24.3718 7.69021 24.3103C7.51185 24.2486 7.37399 24.0943 7.27663 23.8476C7.07529 23.2896 6.90491 22.6194 6.76549 21.8373C6.62588 21.0551 6.55607 20.2 6.55607 19.2719C6.55607 16.6821 7.48751 14.459 9.35039 12.6026C11.2131 10.7463 13.4556 9.81817 16.0779 9.81817ZM16.0875 4.11298C17.3727 4.11298 18.6286 4.26388 19.8553 4.5657C21.0821 4.86752 22.2601 5.31693 23.3895 5.91394C23.6037 6.01792 23.7303 6.1624 23.7692 6.34739C23.8081 6.53237 23.792 6.69944 23.7207 6.8486C23.6298 6.99795 23.4999 7.11322 23.3311 7.19442C23.1625 7.27542 22.9808 7.25751 22.7861 7.14068C21.754 6.60851 20.67 6.20125 19.534 5.91891C18.3982 5.63656 17.2494 5.49539 16.0875 5.49539C14.9063 5.49539 13.7494 5.63004 12.6167 5.89934C11.484 6.16883 10.4017 6.58261 9.36967 7.14068C9.14905 7.25751 8.95278 7.29324 8.78084 7.24787C8.60871 7.2025 8.47396 7.10193 8.3766 6.94615C8.30533 6.82932 8.28917 6.66536 8.32812 6.45429C8.36706 6.24341 8.47085 6.09581 8.63947 6.01149C9.76885 5.34283 10.9697 4.85924 12.242 4.56073C13.5141 4.26223 14.7959 4.11298 16.0875 4.11298ZM16.0875 12.7001C17.905 12.7001 19.4628 13.3248 20.7608 14.5741C22.059 15.8236 22.7081 17.3441 22.7081 19.1355C22.7081 19.3692 22.6529 19.5622 22.5425 19.7147C22.4323 19.8674 22.2603 19.9437 22.0267 19.9437C21.7799 19.9437 21.5965 19.8674 21.4764 19.7147C21.3564 19.5622 21.2965 19.3692 21.2965 19.1355C21.2965 17.7141 20.7885 16.5133 19.7727 15.5333C18.7568 14.5531 17.5284 14.063 16.0875 14.063C14.6402 14.063 13.4134 14.5725 12.4073 15.5917C11.4014 16.6107 10.8984 17.8374 10.8984 19.2719C10.8984 20.7841 11.1321 22.1082 11.5994 23.2442C12.0667 24.38 12.8423 25.5126 13.9261 26.642C14.0819 26.7977 14.1614 26.9616 14.1647 27.1335C14.1681 27.3057 14.121 27.4534 14.0237 27.5766C13.8938 27.7454 13.7088 27.825 13.4687 27.8152C13.2284 27.8055 13.0304 27.7162 12.8746 27.5474C11.7388 26.3921 10.8951 25.1379 10.3435 23.7845C9.79163 22.4312 9.51571 20.927 9.51571 19.2719C9.51571 17.4544 10.1519 15.9047 11.4242 14.6229C12.6963 13.341 14.2507 12.7001 16.0875 12.7001ZM16.0875 18.4345C16.3017 18.4345 16.4689 18.5059 16.589 18.6486C16.7091 18.7915 16.7692 18.9668 16.7692 19.1744C16.7692 20.8556 17.3079 22.1229 18.3853 22.9764C19.4627 23.8298 20.7641 24.2565 22.2895 24.2565C22.4842 24.2565 22.7065 24.2371 22.9563 24.1981C23.2062 24.1592 23.4382 24.1397 23.6524 24.1397C23.8407 24.1397 24.0013 24.1966 24.1343 24.3103C24.2675 24.4238 24.3276 24.5617 24.3145 24.7239C24.3145 24.9186 24.2691 25.0695 24.1781 25.1766C24.0874 25.2837 23.9705 25.3632 23.8276 25.4152C23.555 25.5126 23.2775 25.5727 22.9952 25.5954C22.7128 25.618 22.4776 25.6293 22.2895 25.6293C20.3813 25.6293 18.7569 25.076 17.4165 23.9694C16.0762 22.8628 15.4061 21.2645 15.4061 19.1744C15.4061 18.9668 15.4662 18.7915 15.5863 18.6486C15.7062 18.5059 15.8733 18.4345 16.0875 18.4345Z" stroke="#2D2D3A" stroke-width="0.2" mask="url(#path-1-outside-1_3881_123)"/>
</svg>
