<svg width="24" height="24" viewBox="0 0 24 24" fill="none" xmlns="http://www.w3.org/2000/svg">
<g clip-path="url(#clip0_2214_3154)">
<g clip-path="url(#clip1_2214_3154)">
<path d="M3.50451 0H20.4895V24H3.49951L3.50451 0Z" fill="white"/>
<path d="M-4.98547 0H3.50453V24H-4.98547V0ZM20.4895 0H28.9795V24H20.4945L20.4895 0ZM6.04953 11.6L5.38453 11.82L8.45453 14.52C8.68953 15.205 8.37453 15.41 8.17453 15.77L11.5045 15.35L11.4245 18.7L12.1195 18.685L11.9645 15.355L15.2995 15.755C15.0945 15.32 14.9095 15.09 15.0995 14.395L18.1645 11.845L17.6295 11.645C17.1895 11.305 17.8195 10.015 17.9095 9.2C17.9095 9.2 16.1245 9.815 16.0095 9.49L15.5495 8.615L13.9195 10.405C13.7445 10.45 13.6695 10.38 13.6245 10.23L14.3745 6.49L13.1845 7.16C13.0779 7.20333 12.9912 7.16667 12.9245 7.05L11.7745 4.75L10.5945 7.14C10.5012 7.22333 10.4179 7.235 10.3445 7.175L9.19953 6.54L9.88453 10.245C9.82953 10.395 9.69953 10.435 9.54953 10.355L7.98953 8.59C7.78953 8.915 7.64953 9.445 7.37953 9.565C7.10953 9.685 6.20453 9.34 5.59953 9.215C5.80953 9.955 6.44953 11.195 6.04953 11.6Z" fill="#D52B1E"/>
</g>
</g>
<defs>
<clipPath id="clip0_2214_3154">
<path d="M-0.000488281 12C-0.000488281 5.37258 5.3721 0 11.9995 0C18.6269 0 23.9995 5.37258 23.9995 12C23.9995 18.6274 18.6269 24 11.9995 24C5.3721 24 -0.000488281 18.6274 -0.000488281 12Z" fill="white"/>
</clipPath>
<clipPath id="clip1_2214_3154">
<rect width="32" height="24" fill="white" transform="translate(-4.00049)"/>
</clipPath>
</defs>
</svg>
