<svg width="24" height="24" viewBox="0 0 24 24" fill="none" xmlns="http://www.w3.org/2000/svg">
<g clip-path="url(#clip0_2214_3649)">
<g clip-path="url(#clip1_2214_3649)">
<path d="M-4 0H28V24H-4V0Z" fill="white"/>
<path d="M-4 16.8H28V24H-4V16.8Z" fill="#009543"/>
<path d="M-4 0H28V7.2H-4V0Z" fill="#00209F"/>
<path d="M11.98 7.65014C11.845 7.65014 11.71 7.80014 11.71 7.80014L11.725 9.42014L11.21 9.95514H11.625V10.8801L9.17501 14.1801L8.81501 14.0501L8.18001 15.4001C8.18001 15.4001 9.74501 16.3801 12.015 16.3501C14.505 16.3251 15.86 15.3551 15.86 15.3551L15.21 14.0251L14.885 14.1651L12.405 10.8851V9.93014H12.815L12.255 9.40014V7.79014C12.255 7.79014 12.12 7.64014 11.98 7.64514V7.65014Z" fill="black" stroke="black" stroke-width="0.08"/>
<path d="M12.835 11.5201H11.14C11.14 11.5201 10.53 10.2251 10.625 9.32012C10.725 8.40012 11.255 7.96512 11.955 7.95512C12.785 7.95012 13.215 8.36012 13.345 9.28512C13.475 10.2001 12.835 11.5201 12.835 11.5201Z" stroke="black" stroke-width="0.4"/>
<path d="M9.02501 14.605C8.99501 14.64 8.79001 15.05 8.79001 15.05L9.14001 14.975L9.02501 14.605ZM9.22501 15.13L8.85501 15.25L9.30001 15.425L9.22501 15.13ZM9.39001 14.615L9.57501 15.16L10.025 15.03L9.91001 14.77L9.39001 14.615ZM9.68001 15.355L9.74001 15.575L10.34 15.725L10.1 15.215L9.68001 15.355ZM10.34 14.89L10.555 15.4L11.005 15.225L10.855 15L10.34 14.89ZM10.64 15.585L10.71 15.775L11.41 15.875L11.115 15.415L10.635 15.585H10.64ZM11.31 15.035L11.57 15.49L12.22 15.25L12.15 15.075L11.31 15.04V15.035ZM11.69 15.655L11.825 15.895L12.635 15.87L12.335 15.42L11.685 15.655H11.69ZM12.545 15.055L12.765 15.435L13.285 15.185L13.145 14.985L12.545 15.055ZM13.395 15.345L12.88 15.6L13.015 15.825L13.705 15.715L13.395 15.345ZM13.56 14.945L13.825 15.28L14.26 14.935L14.11 14.785L13.56 14.945ZM14.355 15.12L13.94 15.435L14.05 15.63L14.62 15.48L14.355 15.12ZM14.925 14.47L15.025 14.615L14.74 15.04L14.445 14.66L14.925 14.47ZM15.12 14.835L15.295 15.185L14.945 15.305L14.915 15.14L15.115 14.84L15.12 14.835Z" fill="white"/>
</g>
</g>
<defs>
<clipPath id="clip0_2214_3649">
<path d="M0 12C0 5.37258 5.37258 0 12 0C18.6274 0 24 5.37258 24 12C24 18.6274 18.6274 24 12 24C5.37258 24 0 18.6274 0 12Z" fill="white"/>
</clipPath>
<clipPath id="clip1_2214_3649">
<rect width="32" height="24" fill="white" transform="translate(-4)"/>
</clipPath>
</defs>
</svg>
