<svg width="24" height="24" viewBox="0 0 24 24" fill="none" xmlns="http://www.w3.org/2000/svg">
<g clip-path="url(#clip0_2214_4147)">
<g clip-path="url(#clip1_2214_4147)">
<path d="M-4 0H28V24H-4V0Z" fill="#3E5EB9"/>
<path d="M-4 4.5H28V19.5H-4V4.5Z" fill="#FFD900"/>
<path d="M-4 6H28V18H-4V6Z" fill="#B10C0C"/>
<path d="M23.414 9.25806L21.956 9.77406L23.408 10.2841L24.866 9.77406L23.414 9.25806Z" fill="white" stroke="black" stroke-width="0.06"/>
<path d="M22.448 9.6001H1.39401C1.29128 9.6001 1.20801 9.67666 1.20801 9.7711C1.20801 9.86554 1.29128 9.9421 1.39401 9.9421H22.448C22.5507 9.9421 22.634 9.86554 22.634 9.7711C22.634 9.67666 22.5507 9.6001 22.448 9.6001Z" fill="#FFD900" stroke="black" stroke-width="0.06"/>
<path d="M22.124 9.9421C22.1687 9.94071 22.2113 9.92273 22.2434 9.89168C22.2756 9.86062 22.2951 9.81871 22.298 9.7741C22.2965 9.72843 22.2777 9.68503 22.2454 9.65272C22.2131 9.62041 22.1697 9.6016 22.124 9.6001M21.956 9.9421C21.9996 9.93927 22.0408 9.92067 22.0717 9.88975C22.1026 9.85884 22.1212 9.81773 22.124 9.7741C22.1226 9.72941 22.1046 9.68684 22.0736 9.65468C22.0425 9.62251 22.0006 9.60306 21.956 9.6001M21.782 9.9421C21.8267 9.94071 21.8693 9.92273 21.9014 9.89168C21.9336 9.86062 21.9531 9.81871 21.956 9.7741C21.9545 9.72843 21.9357 9.68503 21.9034 9.65272C21.8711 9.62041 21.8277 9.6016 21.782 9.6001" fill="#FFD900"/>
<path d="M22.124 9.9421C22.1687 9.94071 22.2113 9.92273 22.2434 9.89168C22.2756 9.86062 22.2951 9.81871 22.298 9.7741C22.2965 9.72843 22.2777 9.68503 22.2454 9.65272C22.2131 9.62041 22.1697 9.6016 22.124 9.6001M21.956 9.9421C21.9996 9.93927 22.0408 9.92067 22.0717 9.88975C22.1026 9.85884 22.1212 9.81773 22.124 9.7741C22.1226 9.72941 22.1046 9.68684 22.0736 9.65468C22.0425 9.62251 22.0006 9.60306 21.956 9.6001M21.782 9.9421C21.8267 9.94071 21.8693 9.92273 21.9014 9.89168C21.9336 9.86062 21.9531 9.81871 21.956 9.7741C21.9545 9.72843 21.9357 9.68503 21.9034 9.65272C21.8711 9.62041 21.8277 9.6016 21.782 9.6001" stroke="black" stroke-width="0.06"/>
<path d="M22.016 10.2839L20.558 10.7999L22.01 11.3099L23.468 10.7999L22.016 10.2839Z" fill="white" stroke="black" stroke-width="0.06"/>
<path d="M21.05 10.626H-0.00400254C-0.106727 10.626 -0.190002 10.7025 -0.190002 10.797C-0.190002 10.8914 -0.106727 10.968 -0.00400254 10.968H21.05C21.1527 10.968 21.236 10.8914 21.236 10.797C21.236 10.7025 21.1527 10.626 21.05 10.626Z" fill="#FFD900" stroke="black" stroke-width="0.06"/>
<path d="M20.726 10.968C20.7707 10.9666 20.8133 10.9486 20.8454 10.9176C20.8776 10.8865 20.897 10.8446 20.9 10.8C20.8985 10.7543 20.8797 10.7109 20.8474 10.6786C20.8151 10.6463 20.7717 10.6275 20.726 10.626M20.558 10.968C20.6016 10.9652 20.6427 10.9465 20.6737 10.9156C20.7046 10.8847 20.7232 10.8436 20.726 10.8C20.7246 10.7553 20.7066 10.7127 20.6756 10.6806C20.6445 10.6484 20.6026 10.6289 20.558 10.626M20.384 10.968C20.4287 10.9666 20.4713 10.9486 20.5034 10.9176C20.5356 10.8865 20.555 10.8446 20.558 10.8C20.5565 10.7543 20.5377 10.7109 20.5054 10.6786C20.4731 10.6463 20.4297 10.6275 20.384 10.626" fill="#FFD900"/>
<path d="M20.726 10.968C20.7707 10.9666 20.8133 10.9486 20.8454 10.9176C20.8776 10.8865 20.897 10.8446 20.9 10.8C20.8985 10.7543 20.8797 10.7109 20.8474 10.6786C20.8151 10.6463 20.7717 10.6275 20.726 10.626M20.558 10.968C20.6016 10.9652 20.6427 10.9465 20.6737 10.9156C20.7046 10.8847 20.7232 10.8436 20.726 10.8C20.7246 10.7553 20.7066 10.7127 20.6756 10.6806C20.6445 10.6484 20.6026 10.6289 20.558 10.626M20.384 10.968C20.4287 10.9666 20.4713 10.9486 20.5034 10.9176C20.5356 10.8865 20.555 10.8446 20.558 10.8C20.5565 10.7543 20.5377 10.7109 20.5054 10.6786C20.4731 10.6463 20.4297 10.6275 20.384 10.626" stroke="black" stroke-width="0.06"/>
<path d="M26.318 11.7419H-2.31999C-2.45917 11.7419 -2.57199 11.8575 -2.57199 11.9999C-2.57199 12.1424 -2.45917 12.2579 -2.31999 12.2579H26.318C26.4572 12.2579 26.57 12.1424 26.57 11.9999C26.57 11.8575 26.4572 11.7419 26.318 11.7419Z" fill="#FFD900" stroke="black" stroke-width="0.066"/>
<path d="M20.41 12C18.695 13.715 16.41 17.145 11.84 17.145C7.83999 17.145 4.98499 13.715 3.26999 12C4.97999 10.285 7.83999 6.85498 11.84 6.85498C16.41 6.85498 18.695 10.285 20.41 12Z" fill="white" stroke="black" stroke-width="0.06"/>
<path d="M11.24 8.64998C11.7 9.15998 11.315 9.36498 11.8 9.39998C12.31 9.43498 12.02 9.93998 12.45 9.95998C12.75 9.96998 12.42 11.17 12.705 11.56C13 11.975 13.245 11.685 13.255 11.98C13.255 12.29 12.455 12.255 12.44 13.205C12.415 13.75 11.76 13.785 11.73 14.135C11.69 14.465 13.02 14.65 13 14.945C12.985 15.245 11.565 15.195 11.5 15.53C11.47 15.83 13.45 16.08 13.61 16.955C13.31 17.055 12.475 17.14 11.84 17.145C7.83999 17.145 4.98499 13.715 3.26999 11.995C4.98499 10.285 7.83999 6.85498 11.84 6.85498C11.84 6.85498 10.655 7.93998 11.24 8.64498V8.64998Z" fill="black"/>
<path d="M6.68001 11.5439V10.1699V11.5439ZM7.50801 10.1699V11.5439V10.1699ZM8.33601 10.1699V11.5439V10.1699Z" fill="black"/>
<path d="M6.68001 11.5439V10.1699M7.50801 10.1699V11.5439M8.33601 10.1699V11.5439" stroke="white" stroke-width="0.414"/>
<path d="M6.68002 13.8301V12.4561V13.8301ZM7.50802 12.4561V13.8301V12.4561ZM8.33602 12.4561V13.8301V12.4561Z" fill="black"/>
<path d="M6.68002 13.8301V12.4561M7.50802 12.4561V13.8301M8.33602 12.4561V13.8301" stroke="white" stroke-width="0.414"/>
<path d="M9.17601 11.5439V10.1699V11.5439ZM10.004 10.1699V11.5439V10.1699ZM10.832 10.1699V11.5439V10.1699Z" fill="black"/>
<path d="M9.17601 11.5439V10.1699M10.004 10.1699V11.5439M10.832 10.1699V11.5439" stroke="white" stroke-width="0.414"/>
<path d="M9.17601 13.8301V12.4561V13.8301ZM10.004 12.4561V13.8301V12.4561ZM10.832 12.4561V13.8301V12.4561Z" fill="black"/>
<path d="M9.17601 13.8301V12.4561M10.004 12.4561V13.8301M10.832 12.4561V13.8301" stroke="white" stroke-width="0.414"/>
<path d="M12.968 11.5439V10.1699V11.5439ZM13.796 10.1699V11.5439V10.1699ZM14.624 10.1699V11.5439V10.1699Z" fill="black"/>
<path d="M12.968 11.5439V10.1699M13.796 10.1699V11.5439M14.624 10.1699V11.5439" stroke="black" stroke-width="0.414"/>
<path d="M12.968 13.8301V12.4561V13.8301ZM13.796 12.4561V13.8301V12.4561ZM14.624 12.4561V13.8301V12.4561Z" fill="black"/>
<path d="M12.968 13.8301V12.4561M13.796 12.4561V13.8301M14.624 12.4561V13.8301" stroke="black" stroke-width="0.414"/>
<path d="M15.464 11.5439V10.1699V11.5439ZM16.292 10.1699V11.5439V10.1699ZM17.12 10.1699V11.5439V10.1699Z" fill="black"/>
<path d="M15.464 11.5439V10.1699M16.292 10.1699V11.5439M17.12 10.1699V11.5439" stroke="black" stroke-width="0.414"/>
<path d="M15.464 13.8301V12.4561V13.8301ZM16.292 12.4561V13.8301V12.4561ZM17.12 12.4561V13.8301V12.4561Z" fill="black"/>
<path d="M15.464 13.8301V12.4561M16.292 12.4561V13.8301M17.12 12.4561V13.8301" stroke="black" stroke-width="0.414"/>
<path d="M24.52 11.7999C24.26 12.2449 24.72 11.6499 25.84 12.3999C25.953 12.4948 26.0457 12.6114 26.1127 12.7428C26.1797 12.8742 26.2196 13.0178 26.23 13.1649C26.18 13.1299 26.135 13.0499 26.08 13.0049C26 13.0849 26.16 13.4549 26.18 13.6299C26.005 13.5299 26.02 13.4899 25.965 13.3699C25.975 13.5099 25.93 13.9099 26.005 14.0699C25.865 14.0299 25.875 13.9199 25.805 13.8949C25.855 14.0699 25.76 14.2549 25.785 14.4549C25.705 14.3749 25.615 14.3099 25.58 14.2799C25.57 14.3799 25.425 14.6199 25.42 14.7099C25.3692 14.6741 25.3335 14.6206 25.32 14.5599C25.1612 14.749 25.0269 14.9573 24.92 15.1799C24.685 14.9799 24.09 14.4799 24.01 14.2099C23.94 14.3599 23.84 14.4099 23.65 14.5199C23.57 14.0999 23.275 13.6299 23.43 13.2649L23.125 13.4749C23.2158 13.1071 23.389 12.7648 23.6316 12.4737C23.8741 12.1827 24.1796 11.9506 24.525 11.7949L24.52 11.7999Z" fill="#333333" stroke="black" stroke-width="0.05"/>
<path d="M23.55 14.025C23.66 13.81 23.76 13.74 23.83 13.6C23.95 13.36 23.97 13.16 24.08 13.19C24.18 13.22 24.18 13.32 24.045 13.56C23.91 13.8 23.845 13.85 23.55 14.025ZM24.28 14.535C24.27 14.375 24.315 14.305 24.31 14.2C24.29 14.01 24.215 13.885 24.315 13.875C24.415 13.87 24.46 13.93 24.46 14.115C24.46 14.305 24.43 14.355 24.28 14.535ZM24.835 14.855C24.79 14.63 24.825 14.53 24.795 14.38C24.745 14.12 24.65 13.95 24.745 13.925C24.84 13.9 24.895 13.985 24.93 14.25C24.96 14.51 24.945 14.585 24.835 14.86V14.855ZM25.41 13.255C25.275 13.155 25.195 13.145 25.11 13.08C24.96 12.96 24.88 12.84 24.83 12.9C24.78 12.96 24.815 13.03 24.98 13.135C25.145 13.24 25.19 13.25 25.41 13.255ZM25.315 14.015C25.245 13.865 25.165 13.83 25.125 13.735C25.045 13.565 25.045 13.42 24.95 13.455C24.865 13.495 24.855 13.57 24.95 13.735C25.05 13.895 25.1 13.925 25.31 14.015H25.315Z" fill="#B3B3B3"/>
<path d="M-1.31 12.23C-1.33 12.1 -1.3 12.08 -1.38 11.98C-1.26 12.03 -1.26 12.165 -1.115 12.07C-1.065 12.045 -1.04 12.045 -1.105 11.895C-0.955002 11.905 -0.470003 12.07 -0.390003 12.075C-0.185003 12.085 0.189998 11.86 0.449998 12.135C0.699998 12.385 0.609998 12.65 0.609998 12.995C0.509997 12.945 0.559998 12.93 0.449998 12.8C0.529998 13.11 0.449998 13.655 0.449998 13.98C0.409997 13.9 0.414998 13.935 0.374998 13.855C0.274997 14.15 0.144998 14.205 0.144998 14.56C0.104998 14.42 0.144998 14.45 0.0999975 14.38C-2.38419e-06 14.605 -0.700002 14.795 -0.430002 15.02C-0.670002 14.88 -0.780002 14.89 -0.880002 14.77C-0.930002 14.8 -0.973336 14.8534 -1.01 14.93C-1.435 14.74 -1.285 14.32 -1.615 14.035C-1.675 14.155 -1.65 14.14 -1.715 14.33C-1.775 14.065 -1.795 13.895 -1.87 13.7C-1.935 13.81 -1.93 13.765 -2.05 13.93C-2.1 13.61 -2.175 13.53 -2.15 13.315C-2.27 13.405 -2.19 13.365 -2.315 13.475C-2.195 12.65 -1.685 12.035 -1.315 12.225L-1.31 12.23Z" fill="#333333" stroke="black" stroke-width="0.065"/>
<path d="M-1.83 13.5849C-1.725 13.3149 -1.63 13.2349 -1.555 13.0649C-1.43 12.7599 -1.41 12.5149 -1.305 12.5499C-1.205 12.5899 -1.205 12.7099 -1.345 13.0099C-1.485 13.3099 -1.545 13.3699 -1.83 13.5849ZM-1.42 14.2499C-1.38 14.0099 -1.31 13.9299 -1.28 13.7699C-1.23 13.4999 -1.255 13.2999 -1.16 13.3099C-1.06 13.3199 -1.04 13.4249 -1.105 13.6899C-1.17 13.9649 -1.215 14.0299 -1.425 14.2499H-1.42ZM-0.930002 14.7199C-0.915002 14.4899 -0.860002 14.3949 -0.850002 14.2449C-0.835002 13.9849 -0.890002 13.7949 -0.800002 13.7949C-0.700002 13.7949 -0.670002 13.8899 -0.700002 14.1499C-0.730002 14.4099 -0.760002 14.4799 -0.930002 14.7199ZM0.129998 13.1999C-0.070002 12.9999 -0.190002 12.9599 -0.320002 12.8299C-0.550002 12.5999 -0.665002 12.3899 -0.750002 12.4649C-0.835002 12.5399 -0.780002 12.6499 -0.535002 12.8649C-0.295002 13.0899 -0.210002 13.1199 0.134998 13.1999H0.129998ZM0.00999796 13.9799C-0.120002 13.7799 -0.220002 13.7249 -0.305002 13.5899C-0.455002 13.3649 -0.505002 13.1699 -0.590002 13.2149C-0.675002 13.2599 -0.655002 13.3649 -0.495002 13.5899C-0.335002 13.8149 -0.270002 13.8499 0.00999796 13.9799Z" fill="#B3B3B3"/>
<path d="M9.07001 7.77002C8.83001 8.23002 9.48501 7.62002 10.51 8.39002C10.7602 8.65583 10.9211 8.99325 10.97 9.35502C10.7612 9.28815 10.5601 9.19932 10.37 9.09002C10.37 9.09002 10.82 9.55002 10.82 10.07C10.66 9.97002 10.58 9.98502 10.52 9.86502C10.52 10.03 10.67 10.14 10.67 10.4C10.5715 10.3207 10.4661 10.2504 10.355 10.19C10.505 10.455 10.08 10.965 10.295 11.13C10.1149 11.1041 9.94185 11.042 9.78633 10.9475C9.6308 10.8529 9.496 10.728 9.39001 10.58C9.31001 10.63 9.30001 10.715 9.29501 10.81C9.31001 10.815 8.73001 10.375 8.78501 10.21C8.71853 10.2926 8.68001 10.3941 8.67501 10.5C8.45637 10.3169 8.29066 10.0787 8.19501 9.81002C8.10501 9.93002 8.09501 9.93002 8.00001 10.06C7.93001 9.62502 7.93001 9.64002 8.07001 9.27002L7.79001 9.48502C7.86313 9.12224 8.01588 8.78022 8.23723 8.48364C8.45858 8.18706 8.74302 7.94332 9.07001 7.77002Z" fill="#333333" stroke="black" stroke-width="0.05"/>
<path d="M8.48 10.01C8.52 9.695 8.6 9.58 8.63 9.37C8.67 9.02 8.62 8.75 8.75 8.76C8.87 8.77 8.91 8.9 8.85 9.26C8.785 9.615 8.73 9.7 8.485 10.015L8.48 10.01ZM9.145 10.59C9.12 10.33 9.17 10.21 9.15 10.04C9.125 9.74 9.02999 9.53 9.13999 9.515C9.24999 9.5 9.31 9.595 9.32 9.905C9.33 10.205 9.305 10.29 9.145 10.59ZM10.185 11.07C10.07 10.835 9.97 10.77 9.9 10.62C9.77 10.355 9.74 10.145 9.645 10.18C9.545 10.22 9.55 10.33 9.695 10.59C9.835 10.84 9.9 10.895 10.18 11.07H10.185ZM10.54 8.995C10.25 8.845 10.105 8.845 9.92 8.745C9.595 8.575 9.40499 8.39 9.33999 8.495C9.26999 8.595 9.36 8.7 9.695 8.855C10.03 9.01 10.135 9.015 10.535 8.995H10.54ZM10.64 9.86C10.44 9.69 10.31 9.66 10.175 9.55C9.935 9.35 9.82 9.165 9.745 9.24C9.665 9.32 9.71499 9.42 9.96499 9.605C10.215 9.79 10.3 9.81 10.645 9.86H10.64Z" fill="#B3B3B3"/>
</g>
</g>
<defs>
<clipPath id="clip0_2214_4147">
<path d="M0 12C0 5.37258 5.37258 0 12 0C18.6274 0 24 5.37258 24 12C24 18.6274 18.6274 24 12 24C5.37258 24 0 18.6274 0 12Z" fill="white"/>
</clipPath>
<clipPath id="clip1_2214_4147">
<rect width="32" height="24" fill="white" transform="translate(-4)"/>
</clipPath>
</defs>
</svg>
