<svg width="24" height="24" viewBox="0 0 24 24" fill="none" xmlns="http://www.w3.org/2000/svg">
<g clip-path="url(#clip0_2214_3946)">
<g clip-path="url(#clip1_2214_3946)">
<path d="M12.8 0H32V24H12.8V0Z" fill="#FF0000"/>
<path d="M0 0H12.8V24H0V0Z" fill="#006600"/>
<path fill-rule="evenodd" clip-rule="evenodd" d="M16.975 15.3101C15.36 15.2601 7.97499 10.6501 7.92499 9.91011L8.32999 9.23511C9.06499 10.3001 16.615 14.7851 17.36 14.6251L16.975 15.3101Z" fill="#FFFF00" stroke="black" stroke-width="0.03" stroke-linecap="round" stroke-linejoin="round"/>
<path fill-rule="evenodd" clip-rule="evenodd" d="M8.24501 9.14014C8.10001 9.53014 10.175 10.8101 12.665 12.3301C15.155 13.8501 17.31 14.7801 17.465 14.6501L17.54 14.5101C17.51 14.5635 17.4383 14.5735 17.325 14.5401C16.65 14.3451 14.895 13.5401 12.72 12.2201C10.54 10.9001 8.65001 9.68514 8.35501 9.17014C8.33135 9.12207 8.321 9.06856 8.32501 9.01514H8.31501L8.25501 9.12514L8.24501 9.14014ZM17.01 15.3301C16.9867 15.3735 16.9283 15.3868 16.835 15.3701C16.235 15.3051 14.405 14.4151 12.24 13.1201C9.72001 11.6101 7.64001 10.2401 7.87001 9.88014L7.93001 9.77014L7.94001 9.77514C7.74001 10.3851 12.045 12.8451 12.3 13.0051C14.79 14.5451 16.89 15.4501 17.075 15.2151L17.01 15.3301Z" fill="#FFFF00" stroke="black" stroke-width="0.03" stroke-linecap="round" stroke-linejoin="round"/>
<path fill-rule="evenodd" clip-rule="evenodd" d="M12.81 10.36C14.42 10.345 16.41 10.14 17.56 9.67995L17.31 9.27995C16.635 9.65495 14.635 9.90495 12.795 9.93995C10.625 9.91995 9.09 9.71495 8.32 9.19995L8.09 9.62995C9.5 10.23 10.95 10.355 12.81 10.36Z" fill="#FFFF00" stroke="black" stroke-width="0.03" stroke-linecap="round" stroke-linejoin="round"/>
<path fill-rule="evenodd" clip-rule="evenodd" d="M17.625 9.69003C17.585 9.75503 16.835 10.01 15.735 10.2C14.7653 10.347 13.7858 10.4189 12.805 10.415C11.8654 10.4186 10.9265 10.3584 9.99501 10.235C8.84001 10.055 8.24501 9.80503 8.02001 9.71503L8.07501 9.60503C8.71001 9.85503 9.31001 10.005 10.01 10.115C10.9347 10.2398 11.8669 10.3016 12.8 10.3C13.7757 10.301 14.75 10.2291 15.715 10.085C16.84 9.90003 17.455 9.66503 17.545 9.56003L17.625 9.69003ZM17.405 9.28503C17.285 9.38503 16.675 9.60003 15.605 9.77003C14.681 9.90374 13.7486 9.97058 12.815 9.97003C11.715 9.97003 10.81 9.89003 10.125 9.79003C9.03501 9.65003 8.45501 9.39003 8.24501 9.32003L8.31001 9.21003C8.47501 9.29503 9.03001 9.52003 10.135 9.67503C11.0233 9.79401 11.9188 9.85082 12.815 9.84503C13.742 9.84532 14.6677 9.77847 15.585 9.64503C16.66 9.49503 17.24 9.22503 17.33 9.15503L17.405 9.28503ZM7.51501 12.3C8.50501 12.835 10.71 13.1 12.795 13.12C14.695 13.125 17.165 12.83 18.09 12.34L18.065 11.805C17.775 12.255 15.125 12.69 12.775 12.675C10.425 12.66 8.24001 12.295 7.51001 11.825V12.3" fill="#FFFF00"/>
<path d="M7.51501 12.3C8.50501 12.835 10.71 13.1 12.795 13.12C14.695 13.125 17.165 12.83 18.09 12.34L18.065 11.805C17.775 12.255 15.125 12.69 12.775 12.675C10.425 12.66 8.24001 12.295 7.51001 11.825V12.3M17.625 9.69003C17.585 9.75503 16.835 10.01 15.735 10.2C14.7653 10.347 13.7858 10.4189 12.805 10.415C11.8654 10.4186 10.9265 10.3584 9.99501 10.235C8.84001 10.055 8.24501 9.80503 8.02001 9.71503L8.07501 9.60503C8.71001 9.85503 9.31001 10.005 10.01 10.115C10.9347 10.2398 11.8669 10.3016 12.8 10.3C13.7757 10.301 14.75 10.2291 15.715 10.085C16.84 9.90003 17.455 9.66503 17.545 9.56003L17.625 9.69003ZM17.405 9.28503C17.285 9.38503 16.675 9.60003 15.605 9.77003C14.681 9.90374 13.7486 9.97058 12.815 9.97003C11.715 9.97003 10.81 9.89003 10.125 9.79003C9.03501 9.65003 8.45501 9.39003 8.24501 9.32003L8.31001 9.21003C8.47501 9.29503 9.03001 9.52003 10.135 9.67503C11.0233 9.79401 11.9188 9.85082 12.815 9.84503C13.742 9.84532 14.6677 9.77847 15.585 9.64503C16.66 9.49503 17.24 9.22503 17.33 9.15503L17.405 9.28503Z" stroke="black" stroke-width="0.03" stroke-linecap="round" stroke-linejoin="round"/>
<path fill-rule="evenodd" clip-rule="evenodd" d="M18.14 12.2251V12.3501C18 12.5201 17.13 12.7701 16.04 12.9501C14.9571 13.1058 13.864 13.1793 12.77 13.1701C11.7327 13.179 10.6962 13.1071 9.67001 12.9551C8.90429 12.8666 8.15606 12.6644 7.45001 12.3551V12.2101C7.93501 12.5301 9.24501 12.7701 9.68501 12.8401C10.475 12.9601 11.49 13.0501 12.77 13.0501C14.115 13.0501 15.19 12.9551 16.02 12.8301C16.805 12.7151 17.92 12.4201 18.14 12.2251ZM18.14 11.7751V11.9001C18 12.0651 17.13 12.3151 16.04 12.4951C14.9572 12.6525 13.8641 12.7277 12.77 12.7201C11.7328 12.7262 10.6965 12.6544 9.67001 12.5051C8.90429 12.4166 8.15606 12.2144 7.45001 11.9051V11.7551C7.93501 12.0801 9.25001 12.3151 9.68501 12.3851C10.7064 12.5347 11.7377 12.6066 12.77 12.6001C14.115 12.6001 15.195 12.5001 16.02 12.3751C16.805 12.2651 17.92 11.9701 18.14 11.7751ZM12.79 15.2151C10.51 15.2051 8.55501 14.5951 8.14001 14.4951L8.44001 14.9651C9.84252 15.4616 11.3224 15.7038 12.81 15.6801C14.545 15.6301 16.06 15.4951 17.125 14.9751L17.435 14.4851C16.71 14.8301 14.235 15.2151 12.785 15.2151" fill="#FFFF00"/>
<path d="M12.79 15.2151C10.51 15.2051 8.55501 14.5951 8.14001 14.4951L8.44001 14.9651C9.84252 15.4616 11.3224 15.7038 12.81 15.6801C14.545 15.6301 16.06 15.4951 17.125 14.9751L17.435 14.4851C16.71 14.8301 14.235 15.2151 12.785 15.2151M18.14 12.2251V12.3501C18 12.5201 17.13 12.7701 16.04 12.9501C14.9571 13.1058 13.864 13.1793 12.77 13.1701C11.7327 13.179 10.6962 13.1071 9.67001 12.9551C8.90429 12.8666 8.15606 12.6644 7.45001 12.3551V12.2101C7.93501 12.5301 9.24501 12.7701 9.68501 12.8401C10.475 12.9601 11.49 13.0501 12.77 13.0501C14.115 13.0501 15.19 12.9551 16.02 12.8301C16.805 12.7151 17.92 12.4201 18.14 12.2251ZM18.14 11.7751V11.9001C18 12.0651 17.13 12.3151 16.04 12.4951C14.9572 12.6525 13.8641 12.7277 12.77 12.7201C11.7328 12.7262 10.6965 12.6544 9.67001 12.5051C8.90429 12.4166 8.15606 12.2144 7.45001 11.9051V11.7551C7.93501 12.0801 9.25001 12.3151 9.68501 12.3851C10.7064 12.5347 11.7377 12.6066 12.77 12.6001C14.115 12.6001 15.195 12.5001 16.02 12.3751C16.805 12.2651 17.92 11.9701 18.14 11.7751Z" stroke="black" stroke-width="0.03" stroke-linecap="round" stroke-linejoin="round"/>
<path fill-rule="evenodd" clip-rule="evenodd" d="M17.245 14.8649L17.105 15.0649C16.605 15.2449 15.805 15.4349 15.475 15.4849C14.5895 15.6498 13.6907 15.7335 12.79 15.7349C10.77 15.7049 9.11499 15.3099 8.33999 14.9699L8.27499 14.8649L8.28499 14.8449L8.38999 14.8899C9.8131 15.3604 11.3011 15.6051 12.8 15.6149C13.74 15.6149 14.675 15.5099 15.43 15.3749C16.59 15.1399 17.06 14.9649 17.205 14.8849L17.24 14.8649H17.245ZM17.51 14.4249L17.41 14.5999C17.14 14.6999 16.41 14.9099 15.345 15.0599C14.645 15.1549 14.21 15.2499 12.815 15.2749C11.2203 15.2592 9.63535 15.0236 8.10499 14.5749L8.04999 14.4499C9.60491 14.8797 11.2072 15.1148 12.82 15.1499C14.095 15.1249 14.64 15.0299 15.335 14.9349C16.575 14.7449 17.2 14.5349 17.385 14.4799V14.4699L17.515 14.4199L17.51 14.4249Z" fill="#FFFF00" stroke="black" stroke-width="0.03" stroke-linecap="round" stroke-linejoin="round"/>
<path fill-rule="evenodd" clip-rule="evenodd" d="M17.54 11.88C17.545 13.38 16.775 14.73 16.16 15.32C15.2525 16.2072 14.039 16.7119 12.77 16.73C11.255 16.755 9.82999 15.77 9.44499 15.335C8.5837 14.4216 8.0935 13.2202 8.06999 11.965C8.15999 10.325 8.80499 9.185 9.73499 8.4C10.6393 7.65779 11.7752 7.25616 12.945 7.265C13.6282 7.29751 14.297 7.47268 14.9084 7.77924C15.5198 8.08581 16.0603 8.51697 16.495 9.045C17.12 9.805 17.395 10.63 17.54 11.88ZM12.78 6.75C14.1787 6.74996 15.5208 7.30286 16.5136 8.28817C17.5064 9.27347 18.0694 10.6113 18.08 12.01C18.08 12.704 17.9433 13.3913 17.6777 14.0325C17.4121 14.6737 17.0228 15.2563 16.532 15.7471C16.0413 16.2378 15.4587 16.6271 14.8175 16.8927C14.1763 17.1583 13.489 17.295 12.795 17.295C12.101 17.295 11.4137 17.1583 10.7725 16.8927C10.1313 16.6271 9.54869 16.2378 9.05793 15.7471C8.56717 15.2563 8.17788 14.6737 7.91228 14.0325C7.64669 13.3913 7.50999 12.704 7.50999 12.01C7.50499 9.11 9.87499 6.75 12.78 6.75Z" fill="#FFFF00" stroke="black" stroke-width="0.03" stroke-linecap="round" stroke-linejoin="round"/>
<path fill-rule="evenodd" clip-rule="evenodd" d="M12.795 6.7251C15.705 6.7251 18.075 9.0951 18.075 12.0051C18.075 14.9151 15.705 17.2851 12.8 17.2851C9.89499 17.2851 7.51999 14.9151 7.51999 12.0051C7.51999 9.0951 9.88999 6.7251 12.8 6.7251H12.795ZM7.62999 12.0001C7.62999 14.8401 9.96499 17.1651 12.795 17.1651C15.625 17.1651 17.96 14.8401 17.96 12.0001C17.96 9.1601 15.625 6.8351 12.795 6.8351C9.96499 6.8351 7.62999 9.1601 7.62999 12.0001Z" fill="#FFFF00" stroke="black" stroke-width="0.03" stroke-linecap="round" stroke-linejoin="round"/>
<path fill-rule="evenodd" clip-rule="evenodd" d="M12.8 7.16504C14.0811 7.169 15.3086 7.67967 16.2145 8.58555C17.1204 9.49143 17.631 10.7189 17.635 12C17.6324 13.282 17.1223 14.5108 16.2162 15.4178C15.3102 16.3247 14.082 16.8361 12.8 16.84C10.15 16.84 7.965 14.66 7.965 12C7.96895 10.7189 8.47962 9.49143 9.3855 8.58555C10.2914 7.67967 11.5189 7.169 12.8 7.16504ZM8.08 12C8.08 14.6 10.21 16.72 12.8 16.72C15.39 16.72 17.52 14.595 17.52 12C17.52 9.40504 15.39 7.28004 12.8 7.28004C11.5506 7.28791 10.3546 7.78772 9.47114 8.67119C8.58767 9.55466 8.08786 10.7506 8.08 12Z" fill="#FFFF00" stroke="black" stroke-width="0.03" stroke-linecap="round" stroke-linejoin="round"/>
<path fill-rule="evenodd" clip-rule="evenodd" d="M13.015 6.69995H12.56V17.315H13.01L13.015 6.69995Z" fill="#FFFF00" stroke="black" stroke-width="0.03" stroke-linecap="round" stroke-linejoin="round"/>
<path fill-rule="evenodd" clip-rule="evenodd" d="M12.965 6.64014H13.08V17.3751H12.97V6.64014H12.965ZM12.515 6.64014H12.635V17.3751H12.52L12.515 6.64014Z" fill="#FFFF00" stroke="black" stroke-width="0.03" stroke-linecap="round" stroke-linejoin="round"/>
<path fill-rule="evenodd" clip-rule="evenodd" d="M18.08 12.2099V11.8199L17.76 11.5199L15.945 11.0399L13.335 10.7749L10.185 10.9349L7.945 11.4649L7.495 11.7999V12.1949L8.64 11.6799L11.36 11.2549H13.975L15.895 11.4649L17.225 11.7849L18.08 12.2099Z" fill="#FFFF00" stroke="black" stroke-width="0.03" stroke-linecap="round" stroke-linejoin="round"/>
<path fill-rule="evenodd" clip-rule="evenodd" d="M12.8 11.1901C14.045 11.1901 15.25 11.3051 16.215 11.4901C17.205 11.6901 17.9 11.9401 18.14 12.2151V12.3551C17.85 12.0051 16.915 11.7551 16.19 11.6051C15.24 11.4251 14.04 11.3051 12.795 11.3051C11.49 11.3051 10.27 11.4351 9.33001 11.6151C8.58001 11.7651 7.57501 12.0651 7.45001 12.3551V12.2101C7.51501 12.0101 8.26501 11.7101 9.31501 11.4951C10.26 11.3101 11.48 11.1901 12.795 11.1901H12.8ZM12.8 10.7351C13.945 10.7328 15.0879 10.8332 16.215 11.0351C17.205 11.2351 17.9 11.4851 18.14 11.7651V11.9001C17.85 11.5551 16.915 11.3001 16.19 11.1551C15.24 10.9701 14.04 10.8551 12.795 10.8551C11.6346 10.8514 10.4763 10.9552 9.33501 11.1651C8.61001 11.3001 7.56501 11.6101 7.45001 11.9001V11.7601C7.52001 11.5601 8.28001 11.2451 9.31501 11.0451C10.265 10.8601 11.48 10.7351 12.8 10.7351ZM12.77 8.42506C14.735 8.41506 16.45 8.70006 17.235 9.10006L17.52 9.60006C16.84 9.23006 14.99 8.85006 12.775 8.90006C10.97 8.91506 9.04001 9.10006 8.07501 9.62006L8.41501 9.05006C9.21001 8.63506 11.08 8.42506 12.77 8.42506Z" fill="#FFFF00" stroke="black" stroke-width="0.03" stroke-linecap="round" stroke-linejoin="round"/>
<path fill-rule="evenodd" clip-rule="evenodd" d="M12.8 8.83497C13.8259 8.81765 14.8515 8.88959 15.865 9.04997C16.665 9.19997 17.43 9.41997 17.54 9.53997L17.625 9.68997C17.36 9.51997 16.695 9.32497 15.845 9.16497C14.995 9.00497 13.91 8.94997 12.795 8.95497C11.53 8.94997 10.545 9.01497 9.70498 9.16497C9.12595 9.24621 8.56376 9.4201 8.03998 9.67997L8.12498 9.52497C8.42498 9.37497 8.88998 9.18997 9.67998 9.04497C10.555 8.88497 11.55 8.83997 12.8 8.83497ZM12.8 8.38497C13.87 8.37497 14.93 8.43497 15.755 8.58497C16.2895 8.66432 16.8068 8.83337 17.285 9.08497L17.41 9.28497C17.2 9.04997 16.41 8.82497 15.705 8.70497C14.885 8.55997 13.87 8.50497 12.8 8.49497C11.8039 8.48609 10.8089 8.55967 9.82498 8.71497C9.31046 8.7864 8.81076 8.94002 8.34498 9.16997L8.45498 9.00497C8.74498 8.85497 9.21498 8.71497 9.80498 8.59997C10.7954 8.44263 11.7972 8.36904 12.8 8.37997V8.38497ZM15.42 14.2C14.5534 14.0498 13.6744 13.9828 12.795 14C9.51998 14.04 8.46498 14.675 8.33498 14.865L8.08498 14.465C8.92498 13.865 10.705 13.525 12.815 13.555C13.9116 13.5716 14.855 13.655 15.645 13.805L15.42 14.205" fill="#FFFF00"/>
<path d="M15.42 14.2C14.5534 14.0498 13.6744 13.9828 12.795 14C9.51998 14.04 8.46498 14.675 8.33498 14.865L8.08498 14.465C8.92498 13.865 10.705 13.525 12.815 13.555C13.9116 13.5716 14.855 13.655 15.645 13.805L15.42 14.205M12.8 8.83497C13.8259 8.81765 14.8515 8.88959 15.865 9.04997C16.665 9.19997 17.43 9.41997 17.54 9.53997L17.625 9.68997C17.36 9.51997 16.695 9.32497 15.845 9.16497C14.995 9.00497 13.91 8.94997 12.795 8.95497C11.53 8.94997 10.545 9.01497 9.70498 9.16497C9.12595 9.24621 8.56376 9.4201 8.03998 9.67997L8.12498 9.52497C8.42498 9.37497 8.88998 9.18997 9.67998 9.04497C10.555 8.88497 11.55 8.83997 12.8 8.83497ZM12.8 8.38497C13.87 8.37497 14.93 8.43497 15.755 8.58497C16.2895 8.66432 16.8068 8.83337 17.285 9.08497L17.41 9.28497C17.2 9.04997 16.41 8.82497 15.705 8.70497C14.885 8.55997 13.87 8.50497 12.8 8.49497C11.8039 8.48609 10.8089 8.55967 9.82498 8.71497C9.31046 8.7864 8.81076 8.94002 8.34498 9.16997L8.45498 9.00497C8.74498 8.85497 9.21498 8.71497 9.80498 8.59997C10.7954 8.44263 11.7972 8.36904 12.8 8.37997V8.38497Z" stroke="black" stroke-width="0.03" stroke-linecap="round" stroke-linejoin="round"/>
<path fill-rule="evenodd" clip-rule="evenodd" d="M12.78 13.9451C13.69 13.9601 14.58 13.9951 15.445 14.1551L15.385 14.2651C14.585 14.1151 13.725 14.0651 12.785 14.0651C11.57 14.0551 10.35 14.1701 9.28498 14.4751C8.94998 14.5701 8.39498 14.7851 8.33498 14.9651L8.27498 14.8651C8.29498 14.7551 8.62498 14.5351 9.25498 14.3651C10.475 14.0151 11.615 13.9501 12.78 13.9451ZM12.82 13.4851C13.7805 13.4841 14.7392 13.5678 15.685 13.7351L15.62 13.8501C14.6964 13.6807 13.7589 13.5987 12.82 13.6051C11.61 13.6051 10.325 13.6951 9.15498 14.0351C8.77998 14.1451 8.12498 14.3851 8.10498 14.5701L8.04498 14.4601C8.05498 14.2901 8.61998 14.0651 9.12998 13.9201C10.305 13.5751 11.595 13.4901 12.82 13.4851Z" fill="#FFFF00" stroke="black" stroke-width="0.03" stroke-linecap="round" stroke-linejoin="round"/>
<path fill-rule="evenodd" clip-rule="evenodd" d="M17.47 14.5251L17.08 15.1401L15.945 14.1351L13.015 12.1601L9.70499 10.3451L7.98999 9.76014L8.35499 9.08014L8.47999 9.01514L9.54499 9.28014L13.065 11.0951L15.095 12.3751L16.8 13.6001L17.495 14.4001L17.47 14.5251Z" fill="#FFFF00" stroke="black" stroke-width="0.03" stroke-linecap="round" stroke-linejoin="round"/>
<path fill-rule="evenodd" clip-rule="evenodd" d="M7.92999 9.77517C8.22999 9.57517 10.44 10.5552 12.76 11.9552C15.065 13.3552 17.275 14.9352 17.075 15.2302L17.01 15.3352L16.98 15.3602C16.985 15.3552 17.02 15.3102 16.98 15.2052C16.88 14.8802 15.31 13.6302 12.715 12.0602C10.18 10.5552 8.06999 9.64517 7.86499 9.90517L7.92999 9.77517ZM17.55 14.5202C17.74 14.1402 15.69 12.5952 13.145 11.0902C10.545 9.61517 8.66499 8.74517 8.31999 9.00517L8.24999 9.15017C8.24666 9.15017 8.25332 9.14184 8.26999 9.12517C8.32999 9.07517 8.43499 9.07517 8.47999 9.07517C9.06999 9.08517 10.755 9.86017 13.12 11.2152C14.16 11.8152 17.5 13.9652 17.485 14.5652C17.485 14.6152 17.49 14.6252 17.47 14.6552L17.555 14.5252L17.55 14.5202Z" fill="#FFFF00" stroke="black" stroke-width="0.03" stroke-linecap="round" stroke-linejoin="round"/>
<path d="M9.63202 12.5882C9.63369 13.0021 9.71699 13.4116 9.87714 13.7932C10.0373 14.1748 10.2712 14.5211 10.5654 14.8122C10.8567 15.108 11.2036 15.3432 11.5862 15.5043C11.9688 15.6654 12.3796 15.7492 12.7947 15.7509C13.2109 15.752 13.6232 15.6706 14.0077 15.5113C14.3922 15.352 14.7413 15.118 15.0347 14.8229C15.3286 14.5307 15.5618 14.1834 15.7211 13.8008C15.8803 13.4182 15.9624 13.008 15.9627 12.5936V8.36955L9.63202 8.35889V12.5882Z" fill="white" stroke="black" stroke-width="0.0373334"/>
<path d="M9.76004 12.5936C9.75998 12.9909 9.8392 13.3842 9.99305 13.7505C10.1469 14.1169 10.3723 14.4488 10.656 14.7269C11.2239 15.2977 11.9949 15.6199 12.8001 15.6229C13.6036 15.6228 14.3745 15.3045 14.9441 14.7376C15.2268 14.459 15.4512 14.1269 15.6042 13.7606C15.7571 13.3943 15.8355 13.0012 15.8347 12.6042V8.49756H9.76004V12.5936ZM14.6134 9.72956V12.3376L14.6081 12.6096C14.6105 12.8479 14.5644 13.0843 14.4728 13.3043C14.3811 13.5243 14.2457 13.7235 14.0747 13.8896C13.7356 14.2299 13.2752 14.4217 12.7947 14.4229C12.2934 14.4229 11.8507 14.2096 11.52 13.8789C11.1797 13.5397 10.9879 13.0794 10.9867 12.5989V9.7189L14.6134 9.72956Z" fill="#FF0000" stroke="black" stroke-width="0.0266667"/>
<path d="M10.144 9.5697C10.1494 9.27636 10.3574 9.20703 10.3574 9.20703C10.3627 9.20703 10.5867 9.2817 10.5867 9.57503L10.144 9.5697Z" fill="#FFFF00"/>
<path d="M9.96271 9.21236L9.92538 9.54837H10.1494C10.1494 9.27103 10.3627 9.22836 10.3627 9.22836C10.368 9.22836 10.576 9.28703 10.5814 9.54837H10.8054L10.7627 9.20703L9.96271 9.21236ZM9.90938 9.5537H10.8161C10.8338 9.5537 10.8445 9.56614 10.848 9.59103C10.848 9.61948 10.8374 9.6337 10.8161 9.6337H9.90938C9.8916 9.6337 9.88094 9.61948 9.87738 9.59103C9.87738 9.56614 9.88982 9.5537 9.91471 9.5537H9.90938Z" fill="#FFFF00" stroke="black" stroke-width="0.0266667"/>
<path d="M10.24 9.54831C10.24 9.37231 10.3627 9.32431 10.3627 9.32431C10.3627 9.32431 10.4854 9.37764 10.4854 9.54831H10.24ZM9.93071 9.0683H10.8C10.8178 9.07186 10.8285 9.08608 10.832 9.11097C10.832 9.12875 10.8214 9.13942 10.8 9.14297H9.93071C9.91293 9.14297 9.90227 9.13053 9.89871 9.10564C9.89871 9.08786 9.90938 9.07719 9.93071 9.07364V9.0683ZM9.95205 9.14831H10.7734C10.7912 9.14831 10.8018 9.16075 10.8054 9.18564C10.8089 9.21053 10.7983 9.22297 10.7734 9.22297H9.94671C9.92538 9.22297 9.91471 9.21053 9.91471 9.18564C9.91471 9.16075 9.92538 9.14831 9.94671 9.14831H9.95205ZM10.2187 8.58297H10.2827V8.62564H10.3307V8.58297H10.4V8.63097H10.448V8.57764H10.512V8.6843C10.512 8.70564 10.5032 8.7163 10.4854 8.7163H10.2507C10.2329 8.7163 10.2223 8.70741 10.2187 8.68964V8.58297ZM10.464 8.72697L10.48 9.0683H10.2507L10.2667 8.72164H10.464" fill="#FFFF00"/>
<path d="M10.464 8.72697L10.48 9.0683H10.2507L10.2667 8.72164H10.464M10.24 9.54831C10.24 9.37231 10.3627 9.32431 10.3627 9.32431C10.3627 9.32431 10.4854 9.37764 10.4854 9.54831H10.24ZM9.93071 9.0683H10.8C10.8178 9.07186 10.8285 9.08608 10.832 9.11097C10.832 9.12875 10.8214 9.13942 10.8 9.14297H9.93071C9.91293 9.14297 9.90227 9.13053 9.89871 9.10564C9.89871 9.08786 9.90938 9.07719 9.93071 9.07364V9.0683ZM9.95205 9.14831H10.7734C10.7912 9.14831 10.8018 9.16075 10.8054 9.18564C10.8089 9.21053 10.7983 9.22297 10.7734 9.22297H9.94671C9.92538 9.22297 9.91471 9.21053 9.91471 9.18564C9.91471 9.16075 9.92538 9.14831 9.94671 9.14831H9.95205ZM10.2187 8.58297H10.2827V8.62564H10.3307V8.58297H10.4V8.63097H10.448V8.57764H10.512V8.6843C10.512 8.70564 10.5032 8.7163 10.4854 8.7163H10.2507C10.2329 8.7163 10.2223 8.70741 10.2187 8.68964V8.58297Z" stroke="black" stroke-width="0.0266667"/>
<path d="M10.1867 8.88696V9.0683H9.97336V8.88696H10.1867Z" fill="#FFFF00" stroke="black" stroke-width="0.0266667"/>
<path d="M10.752 8.88696V9.0683H10.5387V8.88696H10.752Z" fill="#FFFF00" stroke="black" stroke-width="0.0266667"/>
<path d="M9.93604 8.74829H10V8.80162H10.048V8.74829H10.112V8.80162H10.16V8.74829H10.224V8.85496C10.224 8.87629 10.2151 8.88696 10.1974 8.88696H9.96803C9.96068 8.8843 9.954 8.88005 9.94847 8.87452C9.94294 8.86899 9.9387 8.86231 9.93604 8.85496V8.74829Z" fill="#FFFF00" stroke="black" stroke-width="0.0266667"/>
<path d="M10.5014 8.74829H10.5654V8.80162H10.6134V8.74829H10.6774V8.80162H10.7254V8.74829H10.7894V8.85496C10.7894 8.87629 10.7805 8.88696 10.7627 8.88696H10.5334C10.526 8.8843 10.5193 8.88005 10.5138 8.87452C10.5083 8.86899 10.504 8.86231 10.5014 8.85496V8.74829Z" fill="#FFFF00" stroke="black" stroke-width="0.0266667"/>
<path d="M10.3414 8.83357C10.3414 8.80157 10.3894 8.80157 10.3894 8.83357V8.9189H10.3414V8.83357Z" fill="#000001"/>
<path d="M10.0587 8.951C10.0587 8.919 10.1014 8.919 10.1014 8.951V9.015H10.0587V8.951Z" fill="#000001"/>
<path d="M10.6241 8.951C10.6241 8.919 10.6667 8.919 10.6667 8.951V9.015H10.6241V8.951Z" fill="#000001"/>
<path d="M10.144 12.0389C10.1494 11.7456 10.3574 11.6763 10.3574 11.6763C10.3627 11.6763 10.5867 11.7509 10.5867 12.0443L10.144 12.0389Z" fill="#FFFF00"/>
<path d="M9.96271 11.6816L9.92538 12.0176H10.1494C10.1494 11.7403 10.3627 11.6976 10.3627 11.6976C10.368 11.6976 10.576 11.7563 10.5814 12.0176H10.8054L10.7627 11.6763L9.96271 11.6816ZM9.90938 12.0229H10.8161C10.8338 12.0229 10.8445 12.0354 10.848 12.0603C10.848 12.0887 10.8374 12.1029 10.8161 12.1029H9.90938C9.8916 12.1029 9.88094 12.0887 9.87738 12.0603C9.87738 12.0354 9.88982 12.0229 9.91471 12.0229H9.90938Z" fill="#FFFF00" stroke="black" stroke-width="0.0266667"/>
<path d="M10.24 12.0175C10.24 11.8415 10.3627 11.7935 10.3627 11.7935C10.3627 11.7935 10.4854 11.8469 10.4854 12.0175H10.24ZM9.93071 11.5375H10.8C10.8178 11.5411 10.8285 11.5553 10.832 11.5802C10.832 11.598 10.8214 11.6087 10.8 11.6122H9.93071C9.91293 11.6122 9.90227 11.5998 9.89871 11.5749C9.89871 11.5571 9.90938 11.5464 9.93071 11.5429V11.5375ZM9.95205 11.6175H10.7734C10.7912 11.6175 10.8018 11.63 10.8054 11.6549C10.8089 11.6798 10.7983 11.6922 10.7734 11.6922H9.94671C9.92538 11.6922 9.91471 11.6798 9.91471 11.6549C9.91471 11.63 9.92538 11.6175 9.94671 11.6175H9.95205ZM10.2187 11.0522H10.2827V11.0949H10.3307V11.0522H10.4V11.1002H10.448V11.0469H10.512V11.1535C10.512 11.1749 10.5032 11.1855 10.4854 11.1855H10.2507C10.2329 11.1855 10.2223 11.1767 10.2187 11.1589V11.0522ZM10.464 11.1962L10.48 11.5375H10.2507L10.2667 11.1909H10.464" fill="#FFFF00"/>
<path d="M10.464 11.1962L10.48 11.5375H10.2507L10.2667 11.1909H10.464M10.24 12.0175C10.24 11.8415 10.3627 11.7935 10.3627 11.7935C10.3627 11.7935 10.4854 11.8469 10.4854 12.0175H10.24ZM9.93071 11.5375H10.8C10.8178 11.5411 10.8285 11.5553 10.832 11.5802C10.832 11.598 10.8214 11.6087 10.8 11.6122H9.93071C9.91293 11.6122 9.90227 11.5998 9.89871 11.5749C9.89871 11.5571 9.90938 11.5464 9.93071 11.5429V11.5375ZM9.95205 11.6175H10.7734C10.7912 11.6175 10.8018 11.63 10.8054 11.6549C10.8089 11.6798 10.7983 11.6922 10.7734 11.6922H9.94671C9.92538 11.6922 9.91471 11.6798 9.91471 11.6549C9.91471 11.63 9.92538 11.6175 9.94671 11.6175H9.95205ZM10.2187 11.0522H10.2827V11.0949H10.3307V11.0522H10.4V11.1002H10.448V11.0469H10.512V11.1535C10.512 11.1749 10.5032 11.1855 10.4854 11.1855H10.2507C10.2329 11.1855 10.2223 11.1767 10.2187 11.1589V11.0522Z" stroke="black" stroke-width="0.0266667"/>
<path d="M10.1867 11.3564V11.5378H9.97336V11.3564H10.1867Z" fill="#FFFF00" stroke="black" stroke-width="0.0266667"/>
<path d="M10.752 11.3564V11.5378H10.5387V11.3564H10.752Z" fill="#FFFF00" stroke="black" stroke-width="0.0266667"/>
<path d="M9.93604 11.2178H10V11.2711H10.048V11.2178H10.112V11.2711H10.16V11.2178H10.224V11.3244C10.224 11.3458 10.2151 11.3564 10.1974 11.3564H9.96803C9.96068 11.3538 9.954 11.3495 9.94847 11.344C9.94294 11.3385 9.9387 11.3318 9.93604 11.3244V11.2178Z" fill="#FFFF00" stroke="black" stroke-width="0.0266667"/>
<path d="M10.5014 11.2178H10.5654V11.2711H10.6134V11.2178H10.6774V11.2711H10.7254V11.2178H10.7894V11.3244C10.7894 11.3458 10.7805 11.3564 10.7627 11.3564H10.5334C10.526 11.3538 10.5193 11.3495 10.5138 11.344C10.5083 11.3385 10.504 11.3318 10.5014 11.3244V11.2178Z" fill="#FFFF00" stroke="black" stroke-width="0.0266667"/>
<path d="M10.3414 11.3031C10.3414 11.2711 10.3894 11.2711 10.3894 11.3031V11.3884H10.3414V11.3031Z" fill="#000001"/>
<path d="M10.0587 11.4202C10.0587 11.3882 10.1014 11.3882 10.1014 11.4202V11.4842H10.0587V11.4202Z" fill="#000001"/>
<path d="M10.6241 11.4202C10.6241 11.3882 10.6667 11.3882 10.6667 11.4202V11.4842H10.6241V11.4202Z" fill="#000001"/>
<path d="M11.1066 14.6125C10.9022 14.402 10.9995 14.2056 10.9995 14.2056C11.0033 14.2018 11.2141 14.0954 11.4223 14.3021L11.1066 14.6125Z" fill="#FFFF00"/>
<path d="M10.7253 14.4896L10.9374 14.7528L11.0952 14.5939C10.8984 14.3985 11.0185 14.217 11.0185 14.217C11.0222 14.2133 11.2104 14.107 11.3996 14.2874L11.5575 14.1284L11.2852 13.9182L10.7253 14.4896ZM10.9299 14.768L11.5688 14.1246C11.5813 14.112 11.5976 14.1132 11.6178 14.1282C11.638 14.1483 11.6405 14.1658 11.6255 14.181L10.9866 14.8243C10.9741 14.8369 10.9565 14.8345 10.9338 14.817C10.9162 14.7994 10.9161 14.7818 10.9336 14.7642L10.9299 14.768Z" fill="#FFFF00" stroke="black" stroke-width="0.0266667"/>
<path d="M11.1591 14.5294C11.0342 14.4054 11.0866 14.2845 11.0866 14.2845C11.0866 14.2845 11.2109 14.2351 11.332 14.3553L11.1591 14.5294ZM10.6005 14.4107L11.2131 13.7938C11.2282 13.7837 11.2458 13.7862 11.2659 13.8012C11.2785 13.8137 11.2786 13.8288 11.2661 13.8464L10.6535 14.4633C10.641 14.4759 10.6246 14.4747 10.6045 14.4597C10.5919 14.4472 10.5918 14.4321 10.6043 14.4144L10.6005 14.4107ZM10.6723 14.4519L11.2511 13.8691C11.2636 13.8565 11.28 13.8577 11.3001 13.8727C11.3203 13.8877 11.3216 13.9041 11.3041 13.9217L10.7216 14.5083C10.7065 14.5234 10.6902 14.5223 10.6725 14.5047C10.6549 14.4872 10.6535 14.4708 10.6686 14.4557L10.6723 14.4519ZM10.4591 13.8643L10.5042 13.8189L10.5345 13.849L10.5683 13.8149L10.538 13.7849L10.5869 13.7357L10.6209 13.7695L10.6548 13.7354L10.6169 13.6979L10.662 13.6524L10.7377 13.7276C10.7528 13.7426 10.7541 13.7565 10.7416 13.7691L10.5763 13.9356C10.5637 13.9482 10.5499 13.9495 10.5348 13.9395L10.4591 13.8643ZM10.7341 13.7917L10.9876 14.0209L10.826 14.1836L10.5913 13.928L10.7304 13.788" fill="#FFFF00"/>
<path d="M10.7341 13.7917L10.9876 14.0209L10.826 14.1836L10.5913 13.928L10.7304 13.788M11.1591 14.5294C11.0342 14.4054 11.0866 14.2845 11.0866 14.2845C11.0866 14.2845 11.2109 14.2351 11.332 14.3553L11.1591 14.5294ZM10.6005 14.4107L11.2131 13.7938C11.2282 13.7837 11.2458 13.7862 11.2659 13.8012C11.2785 13.8137 11.2786 13.8288 11.2661 13.8464L10.6535 14.4633C10.641 14.4759 10.6246 14.4747 10.6045 14.4597C10.5919 14.4472 10.5918 14.4321 10.6043 14.4144L10.6005 14.4107ZM10.6723 14.4519L11.2511 13.8691C11.2636 13.8565 11.28 13.8577 11.3001 13.8727C11.3203 13.8877 11.3216 13.9041 11.3041 13.9217L10.7216 14.5083C10.7065 14.5234 10.6902 14.5223 10.6725 14.5047C10.6549 14.4872 10.6535 14.4708 10.6686 14.4557L10.6723 14.4519ZM10.4591 13.8643L10.5042 13.8189L10.5345 13.849L10.5683 13.8149L10.538 13.7849L10.5869 13.7357L10.6209 13.7695L10.6548 13.7354L10.6169 13.6979L10.662 13.6524L10.7377 13.7276C10.7528 13.7426 10.7541 13.7565 10.7416 13.7691L10.5763 13.9356C10.5637 13.9482 10.5499 13.9495 10.5348 13.9395L10.4591 13.8643Z" stroke="black" stroke-width="0.0266667"/>
<path d="M10.6522 14.1013L10.7809 14.2291L10.6306 14.3805L10.5019 14.2527L10.6522 14.1013Z" fill="#FFFF00" stroke="black" stroke-width="0.0266667"/>
<path d="M11.0506 13.7002L11.1793 13.828L11.0289 13.9793L10.9003 13.8516L11.0506 13.7002Z" fill="#FFFF00" stroke="black" stroke-width="0.0266667"/>
<path d="M10.3772 14.1814L10.4223 14.136L10.4602 14.1736L10.494 14.1395L10.4561 14.1019L10.5012 14.0565L10.5391 14.0941L10.5729 14.06L10.5351 14.0225L10.5802 13.977L10.6559 14.0522C10.671 14.0672 10.6723 14.0811 10.6598 14.0937L10.4982 14.2564C10.4911 14.2597 10.4834 14.2615 10.4756 14.2615C10.4677 14.2615 10.46 14.2599 10.4529 14.2566L10.3772 14.1814Z" fill="#FFFF00" stroke="black" stroke-width="0.0266667"/>
<path d="M10.7756 13.7803L10.8207 13.7349L10.8585 13.7724L10.8923 13.7384L10.8545 13.7008L10.8996 13.6554L10.9374 13.693L10.9713 13.6589L10.9334 13.6213L10.9785 13.5759L11.0542 13.6511C11.0693 13.6661 11.0706 13.6799 11.0581 13.6925L10.8965 13.8553C10.8894 13.8586 10.8817 13.8604 10.8739 13.8604C10.8661 13.8604 10.8584 13.8587 10.8513 13.8554L10.7756 13.7803Z" fill="#FFFF00" stroke="black" stroke-width="0.0266667"/>
<path d="M10.7234 13.9539C10.7007 13.9314 10.7345 13.8973 10.7572 13.9199L10.8178 13.98L10.7839 14.0141L10.7234 13.9539Z" fill="#000001"/>
<path d="M10.6075 14.2371C10.5847 14.2146 10.6148 14.1843 10.6375 14.2069L10.6829 14.2519L10.6529 14.2822L10.6075 14.2371Z" fill="#000001"/>
<path d="M11.0058 13.836C10.9831 13.8135 11.0132 13.7832 11.0359 13.8057L11.0813 13.8508L11.0512 13.8811L11.0058 13.836Z" fill="#000001"/>
<path d="M12.5814 9.5697C12.5867 9.27636 12.7947 9.20703 12.7947 9.20703C12.8 9.20703 13.024 9.2817 13.024 9.57503L12.5814 9.5697Z" fill="#FFFF00"/>
<path d="M12.4 9.21236L12.3627 9.54837H12.5867C12.5867 9.27103 12.8 9.22836 12.8 9.22836C12.8054 9.22836 13.0134 9.28703 13.0187 9.54837H13.2427L13.2 9.20703L12.4 9.21236ZM12.3467 9.5537H13.2534C13.2711 9.5537 13.2818 9.56614 13.2854 9.59103C13.2854 9.61948 13.2747 9.6337 13.2534 9.6337H12.3467C12.3289 9.6337 12.3183 9.61948 12.3147 9.59103C12.3147 9.56614 12.3271 9.5537 12.352 9.5537H12.3467Z" fill="#FFFF00" stroke="black" stroke-width="0.0266667"/>
<path d="M12.6774 9.54831C12.6774 9.37231 12.8 9.32431 12.8 9.32431C12.8 9.32431 12.9227 9.37764 12.9227 9.54831H12.6774ZM12.368 9.0683H13.2374C13.2551 9.07186 13.2658 9.08608 13.2694 9.11097C13.2694 9.12875 13.2587 9.13942 13.2374 9.14297H12.368C12.3503 9.14297 12.3396 9.13053 12.336 9.10564C12.336 9.08786 12.3467 9.07719 12.368 9.07364V9.0683ZM12.3894 9.14831H13.2107C13.2285 9.14831 13.2391 9.16075 13.2427 9.18564C13.2463 9.21053 13.2356 9.22297 13.2107 9.22297H12.384C12.3627 9.22297 12.352 9.21053 12.352 9.18564C12.352 9.16075 12.3627 9.14831 12.384 9.14831H12.3894ZM12.656 8.58297H12.72V8.62564H12.768V8.58297H12.8374V8.63097H12.8854V8.57764H12.9494V8.6843C12.9494 8.70564 12.9405 8.7163 12.9227 8.7163H12.688C12.6703 8.7163 12.6596 8.70741 12.656 8.68964V8.58297ZM12.9014 8.72697L12.9174 9.0683H12.688L12.704 8.72164H12.9014" fill="#FFFF00"/>
<path d="M12.9014 8.72697L12.9174 9.0683H12.688L12.704 8.72164H12.9014M12.6774 9.54831C12.6774 9.37231 12.8 9.32431 12.8 9.32431C12.8 9.32431 12.9227 9.37764 12.9227 9.54831H12.6774ZM12.368 9.0683H13.2374C13.2551 9.07186 13.2658 9.08608 13.2694 9.11097C13.2694 9.12875 13.2587 9.13942 13.2374 9.14297H12.368C12.3503 9.14297 12.3396 9.13053 12.336 9.10564C12.336 9.08786 12.3467 9.07719 12.368 9.07364V9.0683ZM12.3894 9.14831H13.2107C13.2285 9.14831 13.2391 9.16075 13.2427 9.18564C13.2463 9.21053 13.2356 9.22297 13.2107 9.22297H12.384C12.3627 9.22297 12.352 9.21053 12.352 9.18564C12.352 9.16075 12.3627 9.14831 12.384 9.14831H12.3894ZM12.656 8.58297H12.72V8.62564H12.768V8.58297H12.8374V8.63097H12.8854V8.57764H12.9494V8.6843C12.9494 8.70564 12.9405 8.7163 12.9227 8.7163H12.688C12.6703 8.7163 12.6596 8.70741 12.656 8.68964V8.58297Z" stroke="black" stroke-width="0.0266667"/>
<path d="M12.624 8.88696V9.0683H12.4107V8.88696H12.624Z" fill="#FFFF00" stroke="black" stroke-width="0.0266667"/>
<path d="M13.1893 8.88696V9.0683H12.976V8.88696H13.1893Z" fill="#FFFF00" stroke="black" stroke-width="0.0266667"/>
<path d="M12.3734 8.74829H12.4374V8.80162H12.4854V8.74829H12.5494V8.80162H12.5974V8.74829H12.6614V8.85496C12.6614 8.87629 12.6525 8.88696 12.6347 8.88696H12.4054C12.398 8.8843 12.3913 8.88005 12.3858 8.87452C12.3803 8.86899 12.376 8.86231 12.3734 8.85496V8.74829Z" fill="#FFFF00" stroke="black" stroke-width="0.0266667"/>
<path d="M12.9387 8.74829H13.0027V8.80162H13.0507V8.74829H13.1147V8.80162H13.1627V8.74829H13.2267V8.85496C13.2267 8.87629 13.2178 8.88696 13.2 8.88696H12.9707C12.9633 8.8843 12.9567 8.88005 12.9511 8.87452C12.9456 8.86899 12.9414 8.86231 12.9387 8.85496V8.74829Z" fill="#FFFF00" stroke="black" stroke-width="0.0266667"/>
<path d="M12.7787 8.83357C12.7787 8.80157 12.8267 8.80157 12.8267 8.83357V8.9189H12.7787V8.83357Z" fill="#000001"/>
<path d="M12.496 8.951C12.496 8.919 12.5387 8.919 12.5387 8.951V9.015H12.496V8.951Z" fill="#000001"/>
<path d="M13.0614 8.951C13.0614 8.919 13.104 8.919 13.104 8.951V9.015H13.0614V8.951Z" fill="#000001"/>
<path d="M15.4454 9.5697C15.4401 9.27636 15.2321 9.20703 15.2321 9.20703C15.2267 9.20703 15.0027 9.2817 15.0027 9.57503L15.4454 9.5697Z" fill="#FFFF00"/>
<path d="M15.6267 9.21236L15.6641 9.54837H15.4401C15.4401 9.27103 15.2267 9.22836 15.2267 9.22836C15.2214 9.22836 15.0134 9.28703 15.0081 9.54837H14.7841L14.8267 9.20703L15.6267 9.21236ZM15.6801 9.5537H14.7734C14.7556 9.5537 14.745 9.56614 14.7414 9.59103C14.7414 9.61948 14.7521 9.6337 14.7734 9.6337H15.6801C15.6978 9.6337 15.7085 9.61948 15.7121 9.59103C15.7121 9.56614 15.6996 9.5537 15.6747 9.5537H15.6801Z" fill="#FFFF00" stroke="black" stroke-width="0.0266667"/>
<path d="M15.3494 9.54831C15.3494 9.37231 15.2267 9.32431 15.2267 9.32431C15.2267 9.32431 15.1041 9.37764 15.1041 9.54831H15.3494ZM15.6587 9.0683H14.7894C14.7716 9.07186 14.761 9.08608 14.7574 9.11097C14.7574 9.12875 14.7681 9.13942 14.7894 9.14297H15.6587C15.6765 9.14297 15.6872 9.13053 15.6907 9.10564C15.6907 9.08786 15.6801 9.07719 15.6587 9.07364V9.0683ZM15.6374 9.14831H14.8161C14.7983 9.14831 14.7876 9.16075 14.7841 9.18564C14.7805 9.21053 14.7912 9.22297 14.8161 9.22297H15.6427C15.6641 9.22297 15.6747 9.21053 15.6747 9.18564C15.6747 9.16075 15.6641 9.14831 15.6427 9.14831H15.6374ZM15.3707 8.58297H15.3067V8.62564H15.2587V8.58297H15.1894V8.63097H15.1414V8.57764H15.0774V8.6843C15.0774 8.70564 15.0863 8.7163 15.1041 8.7163H15.3387C15.3565 8.7163 15.3672 8.70741 15.3707 8.68964V8.58297ZM15.1254 8.72697L15.1094 9.0683H15.3387L15.3227 8.72164H15.1254" fill="#FFFF00"/>
<path d="M15.1254 8.72697L15.1094 9.0683H15.3387L15.3227 8.72164H15.1254M15.3494 9.54831C15.3494 9.37231 15.2267 9.32431 15.2267 9.32431C15.2267 9.32431 15.1041 9.37764 15.1041 9.54831H15.3494ZM15.6587 9.0683H14.7894C14.7716 9.07186 14.761 9.08608 14.7574 9.11097C14.7574 9.12875 14.7681 9.13942 14.7894 9.14297H15.6587C15.6765 9.14297 15.6872 9.13053 15.6907 9.10564C15.6907 9.08786 15.6801 9.07719 15.6587 9.07364V9.0683ZM15.6374 9.14831H14.8161C14.7983 9.14831 14.7876 9.16075 14.7841 9.18564C14.7805 9.21053 14.7912 9.22297 14.8161 9.22297H15.6427C15.6641 9.22297 15.6747 9.21053 15.6747 9.18564C15.6747 9.16075 15.6641 9.14831 15.6427 9.14831H15.6374ZM15.3707 8.58297H15.3067V8.62564H15.2587V8.58297H15.1894V8.63097H15.1414V8.57764H15.0774V8.6843C15.0774 8.70564 15.0863 8.7163 15.1041 8.7163H15.3387C15.3565 8.7163 15.3672 8.70741 15.3707 8.68964V8.58297Z" stroke="black" stroke-width="0.0266667"/>
<path d="M15.4027 8.88696V9.0683H15.6161V8.88696H15.4027Z" fill="#FFFF00" stroke="black" stroke-width="0.0266667"/>
<path d="M14.8374 8.88696V9.0683H15.0507V8.88696H14.8374Z" fill="#FFFF00" stroke="black" stroke-width="0.0266667"/>
<path d="M15.6534 8.74829H15.5894V8.80162H15.5414V8.74829H15.4774V8.80162H15.4294V8.74829H15.3654V8.85496C15.3654 8.87629 15.3743 8.88696 15.392 8.88696H15.6214C15.6287 8.8843 15.6354 8.88005 15.6409 8.87452C15.6465 8.86899 15.6507 8.86231 15.6534 8.85496V8.74829Z" fill="#FFFF00" stroke="black" stroke-width="0.0266667"/>
<path d="M15.0881 8.74829H15.0241V8.80162H14.9761V8.74829H14.9121V8.80162H14.8641V8.74829H14.8001V8.85496C14.8001 8.87629 14.809 8.88696 14.8267 8.88696H15.0561C15.0634 8.8843 15.0701 8.88005 15.0756 8.87452C15.0812 8.86899 15.0854 8.86231 15.0881 8.85496V8.74829Z" fill="#FFFF00" stroke="black" stroke-width="0.0266667"/>
<path d="M15.2481 8.83357C15.2481 8.80157 15.2001 8.80157 15.2001 8.83357V8.9189H15.2481V8.83357Z" fill="#000001"/>
<path d="M15.5307 8.951C15.5307 8.919 15.4881 8.919 15.4881 8.951V9.015H15.5307V8.951Z" fill="#000001"/>
<path d="M14.9654 8.951C14.9654 8.919 14.9227 8.919 14.9227 8.951V9.015H14.9654V8.951Z" fill="#000001"/>
<path d="M15.4454 12.0389C15.4401 11.7456 15.2321 11.6763 15.2321 11.6763C15.2268 11.6763 15.0028 11.7509 15.0028 12.0443L15.4454 12.0389Z" fill="#FFFF00"/>
<path d="M15.6268 11.6816L15.6641 12.0176H15.4401C15.4401 11.7403 15.2268 11.6976 15.2268 11.6976C15.2215 11.6976 15.0135 11.7563 15.0081 12.0176H14.7841L14.8268 11.6763L15.6268 11.6816ZM15.6801 12.0229H14.7735C14.7557 12.0229 14.745 12.0354 14.7415 12.0603C14.7415 12.0887 14.7521 12.1029 14.7735 12.1029H15.6801C15.6979 12.1029 15.7086 12.0887 15.7121 12.0603C15.7121 12.0354 15.6997 12.0229 15.6748 12.0229H15.6801Z" fill="#FFFF00" stroke="black" stroke-width="0.0266667"/>
<path d="M15.3495 12.0175C15.3495 11.8415 15.2268 11.7935 15.2268 11.7935C15.2268 11.7935 15.1041 11.8469 15.1041 12.0175H15.3495ZM15.6588 11.5375H14.7895C14.7717 11.5411 14.761 11.5553 14.7575 11.5802C14.7575 11.598 14.7681 11.6087 14.7895 11.6122H15.6588C15.6766 11.6122 15.6872 11.5998 15.6908 11.5749C15.6908 11.5571 15.6801 11.5464 15.6588 11.5429V11.5375ZM15.6375 11.6175H14.8161C14.7983 11.6175 14.7877 11.63 14.7841 11.6549C14.7806 11.6798 14.7912 11.6922 14.8161 11.6922H15.6428C15.6641 11.6922 15.6748 11.6798 15.6748 11.6549C15.6748 11.63 15.6641 11.6175 15.6428 11.6175H15.6375ZM15.3708 11.0522H15.3068V11.0949H15.2588V11.0522H15.1895V11.1002H15.1415V11.0469H15.0775V11.1535C15.0775 11.1749 15.0863 11.1855 15.1041 11.1855H15.3388C15.3566 11.1855 15.3672 11.1767 15.3708 11.1589V11.0522ZM15.1255 11.1962L15.1095 11.5375H15.3388L15.3228 11.1909H15.1255" fill="#FFFF00"/>
<path d="M15.1255 11.1962L15.1095 11.5375H15.3388L15.3228 11.1909H15.1255M15.3495 12.0175C15.3495 11.8415 15.2268 11.7935 15.2268 11.7935C15.2268 11.7935 15.1041 11.8469 15.1041 12.0175H15.3495ZM15.6588 11.5375H14.7895C14.7717 11.5411 14.761 11.5553 14.7575 11.5802C14.7575 11.598 14.7681 11.6087 14.7895 11.6122H15.6588C15.6766 11.6122 15.6872 11.5998 15.6908 11.5749C15.6908 11.5571 15.6801 11.5464 15.6588 11.5429V11.5375ZM15.6375 11.6175H14.8161C14.7983 11.6175 14.7877 11.63 14.7841 11.6549C14.7806 11.6798 14.7912 11.6922 14.8161 11.6922H15.6428C15.6641 11.6922 15.6748 11.6798 15.6748 11.6549C15.6748 11.63 15.6641 11.6175 15.6428 11.6175H15.6375ZM15.3708 11.0522H15.3068V11.0949H15.2588V11.0522H15.1895V11.1002H15.1415V11.0469H15.0775V11.1535C15.0775 11.1749 15.0863 11.1855 15.1041 11.1855H15.3388C15.3566 11.1855 15.3672 11.1767 15.3708 11.1589V11.0522Z" stroke="black" stroke-width="0.0266667"/>
<path d="M15.4028 11.3564V11.5378H15.6161V11.3564H15.4028Z" fill="#FFFF00" stroke="black" stroke-width="0.0266667"/>
<path d="M14.8374 11.3564V11.5378H15.0508V11.3564H14.8374Z" fill="#FFFF00" stroke="black" stroke-width="0.0266667"/>
<path d="M15.6534 11.2178H15.5894V11.2711H15.5414V11.2178H15.4774V11.2711H15.4294V11.2178H15.3654V11.3244C15.3654 11.3458 15.3743 11.3564 15.3921 11.3564H15.6214C15.6288 11.3538 15.6355 11.3495 15.641 11.344C15.6465 11.3385 15.6508 11.3318 15.6534 11.3244V11.2178Z" fill="#FFFF00" stroke="black" stroke-width="0.0266667"/>
<path d="M15.0881 11.2178H15.0241V11.2711H14.9761V11.2178H14.9121V11.2711H14.8641V11.2178H14.8001V11.3244C14.8001 11.3458 14.809 11.3564 14.8268 11.3564H15.0561C15.0635 11.3538 15.0702 11.3495 15.0757 11.344C15.0812 11.3385 15.0855 11.3318 15.0881 11.3244V11.2178Z" fill="#FFFF00" stroke="black" stroke-width="0.0266667"/>
<path d="M15.2481 11.3031C15.2481 11.2711 15.2001 11.2711 15.2001 11.3031V11.3884H15.2481V11.3031Z" fill="#000001"/>
<path d="M15.5308 11.4202C15.5308 11.3882 15.4881 11.3882 15.4881 11.4202V11.4842H15.5308V11.4202Z" fill="#000001"/>
<path d="M14.9655 11.4202C14.9655 11.3882 14.9228 11.3882 14.9228 11.4202V11.4842H14.9655V11.4202Z" fill="#000001"/>
<path d="M14.4829 14.6125C14.6873 14.402 14.5899 14.2056 14.5899 14.2056C14.5862 14.2018 14.3753 14.0954 14.1672 14.3021L14.4829 14.6125Z" fill="#FFFF00"/>
<path d="M14.8642 14.4896L14.6521 14.7528L14.4943 14.5939C14.6911 14.3985 14.571 14.217 14.571 14.217C14.5673 14.2133 14.3791 14.107 14.1899 14.2874L14.0321 14.1284L14.3043 13.9182L14.8642 14.4896ZM14.6596 14.768L14.0208 14.1246C14.0082 14.112 13.9919 14.1132 13.9717 14.1282C13.9515 14.1483 13.949 14.1658 13.964 14.181L14.6029 14.8243C14.6154 14.8369 14.633 14.8345 14.6557 14.817C14.6733 14.7994 14.6734 14.7818 14.6559 14.7642L14.6596 14.768Z" fill="#FFFF00" stroke="black" stroke-width="0.0266667"/>
<path d="M14.4304 14.5294C14.5553 14.4054 14.5029 14.2845 14.5029 14.2845C14.5029 14.2845 14.3786 14.2351 14.2575 14.3553L14.4304 14.5294ZM14.989 14.4107L14.3764 13.7938C14.3614 13.7837 14.3437 13.7862 14.3236 13.8012C14.311 13.8137 14.3109 13.8288 14.3234 13.8464L14.936 14.4633C14.9485 14.4759 14.9649 14.4747 14.985 14.4597C14.9976 14.4472 14.9977 14.4321 14.9852 14.4144L14.989 14.4107ZM14.9172 14.4519L14.3384 13.8691C14.3259 13.8565 14.3096 13.8577 14.2894 13.8727C14.2692 13.8877 14.2679 13.9041 14.2854 13.9217L14.8679 14.5083C14.883 14.5234 14.8993 14.5223 14.917 14.5047C14.9346 14.4872 14.936 14.4708 14.9209 14.4557L14.9172 14.4519ZM15.1304 13.8643L15.0853 13.8189L15.055 13.849L15.0212 13.8149L15.0515 13.7849L15.0026 13.7357L14.9686 13.7695L14.9348 13.7354L14.9726 13.6979L14.9275 13.6524L14.8518 13.7276C14.8367 13.7426 14.8354 13.7565 14.8479 13.7691L15.0133 13.9356C15.0258 13.9482 15.0396 13.9495 15.0547 13.9395L15.1304 13.8643ZM14.8554 13.7917L14.6019 14.0209L14.7635 14.1836L14.9982 13.928L14.8591 13.788" fill="#FFFF00"/>
<path d="M14.8554 13.7917L14.6019 14.0209L14.7635 14.1836L14.9982 13.928L14.8591 13.788M14.4304 14.5294C14.5553 14.4054 14.5029 14.2845 14.5029 14.2845C14.5029 14.2845 14.3786 14.2351 14.2575 14.3553L14.4304 14.5294ZM14.989 14.4107L14.3764 13.7938C14.3614 13.7837 14.3437 13.7862 14.3236 13.8012C14.311 13.8137 14.3109 13.8288 14.3234 13.8464L14.936 14.4633C14.9485 14.4759 14.9649 14.4747 14.985 14.4597C14.9976 14.4472 14.9977 14.4321 14.9852 14.4144L14.989 14.4107ZM14.9172 14.4519L14.3384 13.8691C14.3259 13.8565 14.3096 13.8577 14.2894 13.8727C14.2692 13.8877 14.2679 13.9041 14.2854 13.9217L14.8679 14.5083C14.883 14.5234 14.8993 14.5223 14.917 14.5047C14.9346 14.4872 14.936 14.4708 14.9209 14.4557L14.9172 14.4519ZM15.1304 13.8643L15.0853 13.8189L15.055 13.849L15.0212 13.8149L15.0515 13.7849L15.0026 13.7357L14.9686 13.7695L14.9348 13.7354L14.9726 13.6979L14.9275 13.6524L14.8518 13.7276C14.8367 13.7426 14.8354 13.7565 14.8479 13.7691L15.0133 13.9356C15.0258 13.9482 15.0396 13.9495 15.0547 13.9395L15.1304 13.8643Z" stroke="black" stroke-width="0.0266667"/>
<path d="M14.9373 14.1013L14.8086 14.2291L14.9589 14.3805L15.0876 14.2527L14.9373 14.1013Z" fill="#FFFF00" stroke="black" stroke-width="0.0266667"/>
<path d="M14.5389 13.7002L14.4102 13.828L14.5605 13.9793L14.6892 13.8516L14.5389 13.7002Z" fill="#FFFF00" stroke="black" stroke-width="0.0266667"/>
<path d="M15.2122 14.1814L15.1672 14.136L15.1293 14.1736L15.0955 14.1395L15.1333 14.1019L15.0882 14.0565L15.0504 14.0941L15.0166 14.06L15.0544 14.0225L15.0093 13.977L14.9336 14.0522C14.9185 14.0672 14.9172 14.0811 14.9297 14.0937L15.0913 14.2564C15.0984 14.2597 15.1061 14.2615 15.1139 14.2615C15.1217 14.2615 15.1295 14.2599 15.1366 14.2566L15.2122 14.1814Z" fill="#FFFF00" stroke="black" stroke-width="0.0266667"/>
<path d="M14.8139 13.7803L14.7688 13.7349L14.731 13.7724L14.6972 13.7384L14.735 13.7008L14.6899 13.6554L14.6521 13.693L14.6183 13.6589L14.6561 13.6213L14.611 13.5759L14.5353 13.6511C14.5202 13.6661 14.5189 13.6799 14.5314 13.6925L14.693 13.8553C14.7001 13.8586 14.7078 13.8604 14.7156 13.8604C14.7234 13.8604 14.7312 13.8587 14.7382 13.8554L14.8139 13.7803Z" fill="#FFFF00" stroke="black" stroke-width="0.0266667"/>
<path d="M14.8661 13.9539C14.8888 13.9314 14.855 13.8973 14.8323 13.9199L14.7717 13.98L14.8056 14.0141L14.8661 13.9539Z" fill="#000001"/>
<path d="M14.982 14.2371C15.0047 14.2146 14.9747 14.1843 14.952 14.2069L14.9065 14.2519L14.9366 14.2822L14.982 14.2371Z" fill="#000001"/>
<path d="M14.5837 13.836C14.6064 13.8135 14.5763 13.7832 14.5536 13.8057L14.5082 13.8508L14.5383 13.8811L14.5837 13.836Z" fill="#000001"/>
<path d="M12.4054 12.1297C12.4027 12.2426 12.4449 12.3519 12.5227 12.4337C12.5579 12.4741 12.6013 12.5064 12.6501 12.5285C12.6989 12.5506 12.7518 12.5619 12.8054 12.5617C12.9191 12.5546 13.0134 12.5119 13.088 12.4337C13.1658 12.3519 13.208 12.2426 13.2054 12.1297V11.5537H12.4054V12.1297Z" fill="#003399"/>
<path d="M12.592 11.8524C12.6362 11.8524 12.672 11.8166 12.672 11.7724C12.672 11.7282 12.6362 11.6924 12.592 11.6924C12.5478 11.6924 12.512 11.7282 12.512 11.7724C12.512 11.8166 12.5478 11.8524 12.592 11.8524Z" fill="white"/>
<path d="M13.0347 11.8524C13.0789 11.8524 13.1147 11.8166 13.1147 11.7724C13.1147 11.7282 13.0789 11.6924 13.0347 11.6924C12.9905 11.6924 12.9547 11.7282 12.9547 11.7724C12.9547 11.8166 12.9905 11.8524 13.0347 11.8524Z" fill="white"/>
<path d="M12.8107 12.0655C12.8548 12.0655 12.8907 12.0297 12.8907 11.9855C12.8907 11.9413 12.8548 11.9055 12.8107 11.9055C12.7665 11.9055 12.7307 11.9413 12.7307 11.9855C12.7307 12.0297 12.7665 12.0655 12.8107 12.0655Z" fill="white"/>
<path d="M12.592 12.2896C12.6362 12.2896 12.672 12.2538 12.672 12.2096C12.672 12.1655 12.6362 12.1296 12.592 12.1296C12.5478 12.1296 12.512 12.1655 12.512 12.2096C12.512 12.2538 12.5478 12.2896 12.592 12.2896Z" fill="white"/>
<path d="M13.0347 12.2896C13.0789 12.2896 13.1147 12.2538 13.1147 12.2096C13.1147 12.1655 13.0789 12.1296 13.0347 12.1296C12.9905 12.1296 12.9547 12.1655 12.9547 12.2096C12.9547 12.2538 12.9905 12.2896 13.0347 12.2896Z" fill="white"/>
<path d="M12.4054 10.743C12.4027 10.8559 12.4449 10.9652 12.5227 11.047C12.5579 11.0874 12.6013 11.1197 12.6501 11.1418C12.6989 11.1638 12.7518 11.1752 12.8054 11.175C12.9191 11.1679 13.0134 11.1252 13.088 11.047C13.1658 10.9652 13.208 10.8559 13.2054 10.743V10.167H12.4054V10.743Z" fill="#003399"/>
<path d="M12.592 10.4657C12.6362 10.4657 12.672 10.4298 12.672 10.3857C12.672 10.3415 12.6362 10.3057 12.592 10.3057C12.5478 10.3057 12.512 10.3415 12.512 10.3857C12.512 10.4298 12.5478 10.4657 12.592 10.4657Z" fill="white"/>
<path d="M13.0347 10.4657C13.0789 10.4657 13.1147 10.4298 13.1147 10.3857C13.1147 10.3415 13.0789 10.3057 13.0347 10.3057C12.9905 10.3057 12.9547 10.3415 12.9547 10.3857C12.9547 10.4298 12.9905 10.4657 13.0347 10.4657Z" fill="white"/>
<path d="M12.8107 10.679C12.8548 10.679 12.8907 10.6432 12.8907 10.599C12.8907 10.5549 12.8548 10.519 12.8107 10.519C12.7665 10.519 12.7307 10.5549 12.7307 10.599C12.7307 10.6432 12.7665 10.679 12.8107 10.679Z" fill="white"/>
<path d="M12.592 10.9029C12.6362 10.9029 12.672 10.8671 12.672 10.8229C12.672 10.7787 12.6362 10.7429 12.592 10.7429C12.5478 10.7429 12.512 10.7787 12.512 10.8229C12.512 10.8671 12.5478 10.9029 12.592 10.9029Z" fill="white"/>
<path d="M13.0347 10.9029C13.0789 10.9029 13.1147 10.8671 13.1147 10.8229C13.1147 10.7787 13.0789 10.7429 13.0347 10.7429C12.9905 10.7429 12.9547 10.7787 12.9547 10.8229C12.9547 10.8671 12.9905 10.9029 13.0347 10.9029Z" fill="white"/>
<path d="M11.296 12.1297C11.2934 12.2426 11.3356 12.3519 11.4134 12.4337C11.4486 12.4741 11.492 12.5064 11.5408 12.5285C11.5896 12.5506 11.6425 12.5619 11.696 12.5617C11.8098 12.5546 11.904 12.5119 11.9787 12.4337C12.0565 12.3519 12.0987 12.2426 12.096 12.1297V11.5537H11.296V12.1297Z" fill="#003399"/>
<path d="M11.4827 11.8524C11.5269 11.8524 11.5627 11.8166 11.5627 11.7724C11.5627 11.7282 11.5269 11.6924 11.4827 11.6924C11.4386 11.6924 11.4027 11.7282 11.4027 11.7724C11.4027 11.8166 11.4386 11.8524 11.4827 11.8524Z" fill="white"/>
<path d="M11.9254 11.8524C11.9696 11.8524 12.0054 11.8166 12.0054 11.7724C12.0054 11.7282 11.9696 11.6924 11.9254 11.6924C11.8812 11.6924 11.8454 11.7282 11.8454 11.7724C11.8454 11.8166 11.8812 11.8524 11.9254 11.8524Z" fill="white"/>
<path d="M11.7014 12.0655C11.7456 12.0655 11.7814 12.0297 11.7814 11.9855C11.7814 11.9413 11.7456 11.9055 11.7014 11.9055C11.6572 11.9055 11.6214 11.9413 11.6214 11.9855C11.6214 12.0297 11.6572 12.0655 11.7014 12.0655Z" fill="white"/>
<path d="M11.4827 12.2896C11.5269 12.2896 11.5627 12.2538 11.5627 12.2096C11.5627 12.1655 11.5269 12.1296 11.4827 12.1296C11.4386 12.1296 11.4027 12.1655 11.4027 12.2096C11.4027 12.2538 11.4386 12.2896 11.4827 12.2896Z" fill="white"/>
<path d="M11.9254 12.2896C11.9696 12.2896 12.0054 12.2538 12.0054 12.2096C12.0054 12.1655 11.9696 12.1296 11.9254 12.1296C11.8812 12.1296 11.8454 12.1655 11.8454 12.2096C11.8454 12.2538 11.8812 12.2896 11.9254 12.2896Z" fill="white"/>
<path d="M13.5147 12.1297C13.5121 12.2426 13.5542 12.3519 13.632 12.4337C13.6672 12.4741 13.7107 12.5064 13.7594 12.5285C13.8082 12.5506 13.8612 12.5619 13.9147 12.5617C14.0285 12.5546 14.1227 12.5119 14.1974 12.4337C14.2752 12.3519 14.3174 12.2426 14.3147 12.1297V11.5537H13.5147V12.1297Z" fill="#003399"/>
<path d="M13.7014 11.8524C13.7456 11.8524 13.7814 11.8166 13.7814 11.7724C13.7814 11.7282 13.7456 11.6924 13.7014 11.6924C13.6572 11.6924 13.6214 11.7282 13.6214 11.7724C13.6214 11.8166 13.6572 11.8524 13.7014 11.8524Z" fill="white"/>
<path d="M14.1441 11.8524C14.1882 11.8524 14.2241 11.8166 14.2241 11.7724C14.2241 11.7282 14.1882 11.6924 14.1441 11.6924C14.0999 11.6924 14.0641 11.7282 14.0641 11.7724C14.0641 11.8166 14.0999 11.8524 14.1441 11.8524Z" fill="white"/>
<path d="M13.92 12.0655C13.9642 12.0655 14 12.0297 14 11.9855C14 11.9413 13.9642 11.9055 13.92 11.9055C13.8758 11.9055 13.84 11.9413 13.84 11.9855C13.84 12.0297 13.8758 12.0655 13.92 12.0655Z" fill="white"/>
<path d="M13.7014 12.2896C13.7456 12.2896 13.7814 12.2538 13.7814 12.2096C13.7814 12.1655 13.7456 12.1296 13.7014 12.1296C13.6572 12.1296 13.6214 12.1655 13.6214 12.2096C13.6214 12.2538 13.6572 12.2896 13.7014 12.2896Z" fill="white"/>
<path d="M14.1441 12.2896C14.1882 12.2896 14.2241 12.2538 14.2241 12.2096C14.2241 12.1655 14.1882 12.1296 14.1441 12.1296C14.0999 12.1296 14.0641 12.1655 14.0641 12.2096C14.0641 12.2538 14.0999 12.2896 14.1441 12.2896Z" fill="white"/>
<path d="M12.4054 13.5057C12.4027 13.6186 12.4449 13.7279 12.5227 13.8097C12.5579 13.85 12.6013 13.8824 12.6501 13.9044C12.6989 13.9265 12.7518 13.9379 12.8054 13.9377C12.9191 13.9306 13.0134 13.8879 13.088 13.8097C13.1658 13.7279 13.208 13.6186 13.2054 13.5057V12.9297H12.4054V13.5057Z" fill="#003399"/>
<path d="M12.592 13.2284C12.6362 13.2284 12.672 13.1925 12.672 13.1484C12.672 13.1042 12.6362 13.0684 12.592 13.0684C12.5478 13.0684 12.512 13.1042 12.512 13.1484C12.512 13.1925 12.5478 13.2284 12.592 13.2284Z" fill="white"/>
<path d="M13.0347 13.2284C13.0789 13.2284 13.1147 13.1925 13.1147 13.1484C13.1147 13.1042 13.0789 13.0684 13.0347 13.0684C12.9905 13.0684 12.9547 13.1042 12.9547 13.1484C12.9547 13.1925 12.9905 13.2284 13.0347 13.2284Z" fill="white"/>
<path d="M12.8107 13.4417C12.8548 13.4417 12.8907 13.4059 12.8907 13.3617C12.8907 13.3176 12.8548 13.2817 12.8107 13.2817C12.7665 13.2817 12.7307 13.3176 12.7307 13.3617C12.7307 13.4059 12.7665 13.4417 12.8107 13.4417Z" fill="white"/>
<path d="M12.592 13.6656C12.6362 13.6656 12.672 13.6298 12.672 13.5856C12.672 13.5414 12.6362 13.5056 12.592 13.5056C12.5478 13.5056 12.512 13.5414 12.512 13.5856C12.512 13.6298 12.5478 13.6656 12.592 13.6656Z" fill="white"/>
<path d="M13.0347 13.6656C13.0789 13.6656 13.1147 13.6298 13.1147 13.5856C13.1147 13.5414 13.0789 13.5056 13.0347 13.5056C12.9905 13.5056 12.9547 13.5414 12.9547 13.5856C12.9547 13.6298 12.9905 13.6656 13.0347 13.6656Z" fill="white"/>
</g>
</g>
<defs>
<clipPath id="clip0_2214_3946">
<path d="M0 12C0 5.37258 5.37258 0 12 0C18.6274 0 24 5.37258 24 12C24 18.6274 18.6274 24 12 24C5.37258 24 0 18.6274 0 12Z" fill="white"/>
</clipPath>
<clipPath id="clip1_2214_3946">
<rect width="32" height="24" fill="white"/>
</clipPath>
</defs>
</svg>
