<svg width="24" height="24" viewBox="0 0 24 24" fill="none" xmlns="http://www.w3.org/2000/svg">
<g clip-path="url(#clip0_2214_3686)">
<path d="M12 24C18.6274 24 24 18.6274 24 12C24 5.37258 18.6274 0 12 0C5.37258 0 0 5.37258 0 12C0 18.6274 5.37258 24 12 24Z" fill="white"/>
<path d="M12 0C6.84046 0 2.44195 3.2565 0.746429 7.82611H23.2537C21.5581 3.2565 17.1596 0 12 0Z" fill="#D80027"/>
<path d="M12 23.9999C17.1596 23.9999 21.5581 20.7434 23.2536 16.1738H0.746429C2.44194 20.7434 6.84046 23.9999 12 23.9999Z" fill="#338AF3"/>
</g>
<defs>
<clipPath id="clip0_2214_3686">
<rect width="24" height="24" fill="white"/>
</clipPath>
</defs>
</svg>
