<svg width="24" height="24" viewBox="0 0 24 24" fill="none" xmlns="http://www.w3.org/2000/svg">
<g clip-path="url(#clip0_3053_1896)">
<mask id="mask0_3053_1896" style="mask-type:luminance" maskUnits="userSpaceOnUse" x="-4" y="0" width="33" height="24">
<path d="M-3.90002 0H28.1V24H-3.90002V0Z" fill="white"/>
</mask>
<g mask="url(#mask0_3053_1896)">
<path fill-rule="evenodd" clip-rule="evenodd" d="M-11.9 0H36.1V24H-11.9V0Z" fill="#0071BC"/>
<path fill-rule="evenodd" clip-rule="evenodd" d="M14.6 18.2851C14.6 18.2851 15.36 17.4801 16.09 17.6351C16.31 16.7851 17.14 16.7151 17.14 16.7151C17.14 16.7151 17.055 15.7801 18.115 15.5751C18.145 14.9401 18.79 14.4101 18.79 14.4101C18.79 14.4101 18.66 13.4251 19.33 13.1951C18.92 12.4151 19.47 11.8451 19.465 11.8301C19.455 11.8151 18.765 10.5901 19.385 10.2401C18.735 9.69012 18.945 9.07012 18.945 9.07012C18.945 9.07012 18.235 8.88512 18.49 8.03512C17.905 7.93511 17.79 6.99012 17.79 6.99012C17.79 6.99012 16.89 7.17512 16.78 6.39012C16.18 6.48512 16.12 5.90012 16.11 5.90012C16.105 5.90012 14.935 6.21512 14.7 5.33012C14.245 5.56512 14.05 5.14512 14.05 5.14512C14.05 5.14512 13.4 5.47012 13.01 4.84512C12.235 5.33012 11.8 4.82512 11.8 4.82512C11.8 4.82512 10.785 5.49512 10.45 4.97512C9.85001 5.58512 9.31001 5.32512 9.31001 5.32512C9.31001 5.32512 8.86001 6.12512 8.12501 5.92512C7.96001 6.67012 7.11501 6.68512 7.11501 6.68512C7.11501 6.68512 7.20501 7.34012 6.19501 7.52011C6.06501 8.29511 5.53501 8.42011 5.53501 8.42011C5.53501 8.42011 5.58501 9.18012 5.11001 9.42011C5.28001 9.84512 4.84001 10.3651 4.84001 10.3651C4.84001 10.3651 5.31001 10.9501 4.67001 11.6101C5.28501 11.7701 4.84001 12.8301 4.84001 12.8301C4.84001 12.8301 5.69001 13.2101 5.15501 13.9151C5.76501 14.1151 5.57501 14.5951 5.58001 14.8801C5.97001 15.0551 6.31001 14.9701 6.14501 15.7501C7.33501 15.8851 6.77501 16.5401 6.77501 16.5401C6.77501 16.5401 7.32501 16.5651 7.11001 17.0051C8.12501 16.9801 8.27501 17.7651 8.27501 17.7651C8.27501 17.7651 9.21501 17.5151 9.34001 17.8801C9.46501 18.2451 8.93001 20.7151 8.93001 20.7151C8.93001 20.7151 8.13001 20.7151 7.54001 20.0751C6.15001 20.0401 6.46001 19.1251 6.44001 19.1251C6.41501 19.1251 5.97501 19.2951 5.75001 18.5301C4.82001 18.7201 4.85001 17.9401 4.84001 17.9301C4.83501 17.9251 4.42501 17.7401 4.57501 17.3551C3.62001 17.4401 3.69001 16.5051 3.69001 16.5051C3.48001 16.4201 3.40501 16.2251 3.43501 16.0301C3.31001 15.9851 2.46001 15.9701 2.90001 14.8501C2.09001 14.3601 2.59501 13.8001 2.59501 13.8001C2.59501 13.8001 1.47501 13.2201 2.34001 12.5501C1.69001 11.6001 2.39001 11.1251 2.39001 11.1251C2.39001 11.1251 1.49501 10.2201 2.40501 9.57512C2.25501 8.20012 3.07501 7.87011 3.07501 7.87011C3.07501 7.87011 2.64501 6.75012 3.81501 6.28012C3.89001 5.14512 4.71001 5.11512 4.71001 5.11512C4.71001 5.11512 4.73001 4.21512 6.02001 4.30512C6.27001 3.50012 7.14501 3.66012 7.14501 3.66012C7.14501 3.66012 7.41501 2.68512 8.61001 3.15512C9.21501 1.97012 10.12 2.57512 10.12 2.57512C10.12 2.57512 10.69 2.20512 10.97 2.32512C11.335 1.70012 12.11 2.29512 12.605 2.42012C12.79 2.34512 13.435 1.86012 13.93 2.47012C14.59 2.04512 15.155 2.82012 15.155 2.82012C15.155 2.82012 16.06 2.36012 16.485 3.41012C18.41 3.23512 18.135 4.49512 18.135 4.49512C18.135 4.49512 19.645 4.15012 19.315 5.66012C20.695 5.75512 20.555 6.66012 20.555 6.66012C20.555 6.66012 21.425 7.32012 21.045 7.91012C21.82 7.95012 21.535 8.69512 21.535 8.69512C21.535 8.69512 22.13 8.92512 21.635 9.84512C22.77 10.7501 21.855 11.6551 21.85 11.6451C21.84 11.6401 22.455 12.3751 21.9 13.2251C22.07 14.5751 21.39 14.9151 21.39 14.9151C21.39 14.9151 21.565 15.7901 20.805 16.0351C20.79 17.0601 19.82 17.1851 19.82 17.1851C19.82 17.1851 20.08 17.6351 19.12 18.1001C19.08 18.7851 18.08 18.8401 18.08 18.8401C18.08 18.8401 17.985 20.1001 16.71 19.7601C16.405 20.7701 14.91 20.4701 14.88 20.4601C14.855 20.4451 14.595 18.2901 14.595 18.2851H14.6Z" fill="white" stroke="black" stroke-width="0.07125"/>
<path fill-rule="evenodd" clip-rule="evenodd" d="M5.34986 6.2002C5.34986 6.2002 5.66986 6.4802 5.60986 6.9002C5.54986 7.3152 5.30986 7.8952 5.35986 8.3252C5.38986 8.5002 5.37486 8.8102 5.37486 8.8102C5.37486 8.8102 5.08986 8.4002 5.08486 7.9602C5.07986 7.5202 5.39486 7.1052 5.39486 6.7802C5.39486 6.4552 5.33986 6.1952 5.34486 6.2052L5.34986 6.2002ZM5.18986 6.3302C5.18986 6.3302 4.76986 6.7302 4.71486 7.1152C4.67486 7.3152 4.66486 8.2502 4.65486 8.6652C4.64486 8.7902 4.59486 9.2902 4.58486 9.4752C4.56986 9.6552 4.88986 9.1652 4.90986 8.7602C4.89986 8.3452 4.89986 7.4702 4.93986 7.3352C4.97986 7.1652 4.96986 6.9802 5.02986 6.8102L5.18986 6.3302Z" fill="#217900" stroke="black" stroke-width="0.07125" stroke-linejoin="round"/>
<path fill-rule="evenodd" clip-rule="evenodd" d="M14.3997 5.02426C14.3997 5.02426 14.9397 4.77426 15.0997 4.30426C15.2597 3.83426 14.6247 3.83426 14.5447 3.98426C14.4597 4.13426 14.6147 4.49926 14.5747 4.59926C14.5347 4.69926 14.3147 4.92926 14.3997 5.01926V5.02426Z" fill="#FFD200" stroke="#EF8A10" stroke-width="0.07125"/>
<path fill-rule="evenodd" clip-rule="evenodd" d="M9.5898 5.1942C9.5898 5.1942 9.9398 4.7092 9.8498 4.2242C9.7548 3.7442 9.2098 4.0442 9.2098 4.2142C9.2098 4.3842 9.5198 4.6292 9.5348 4.7342C9.5498 4.8392 9.4698 5.1542 9.5848 5.1892L9.5898 5.1942ZM8.6348 5.4792C8.6348 5.4792 8.9848 4.9942 8.8948 4.5142C8.8048 4.0292 8.2548 4.3292 8.2548 4.4992C8.2548 4.6692 8.5698 4.9192 8.5848 5.0242C8.5948 5.1242 8.5198 5.4392 8.6348 5.4792ZM7.5798 5.8042C7.5798 5.8042 7.9298 5.3242 7.8398 4.8392C7.7448 4.3542 7.1998 4.6542 7.1998 4.8242C7.1998 4.9942 7.5098 5.2442 7.5248 5.3492C7.5398 5.4492 7.4598 5.7642 7.5748 5.8042H7.5798ZM6.8298 6.5492C6.8298 6.5492 7.1848 6.0642 7.0948 5.5842C7.0048 5.0992 6.4548 5.3992 6.4548 5.5692C6.4548 5.7392 6.7698 5.9892 6.7798 6.0942C6.7948 6.1942 6.7148 6.5092 6.8298 6.5492ZM6.0498 7.2692C6.0498 7.2692 6.3998 6.7842 6.3098 6.2992C6.2198 5.8142 5.6698 6.1192 5.6698 6.2892C5.6698 6.4592 5.9848 6.7042 5.9998 6.8092C6.0098 6.9142 5.9348 7.2292 6.0498 7.2692Z" fill="#FFD200" stroke="#EF8A10" stroke-width="0.09375"/>
<path fill-rule="evenodd" clip-rule="evenodd" d="M7.84974 3.08424C7.84974 3.08424 7.37974 3.45424 7.33974 3.94424C7.29974 4.43424 7.90474 4.29424 7.94974 4.12924C7.99974 3.96424 7.76474 3.64424 7.77974 3.53924C7.79474 3.43924 7.95474 3.15424 7.84974 3.08924V3.08424ZM9.41474 2.60424C9.41474 2.60424 8.94974 2.97424 8.90474 3.46424C8.86474 3.95424 9.46974 3.81424 9.51974 3.64924C9.56474 3.48424 9.32974 3.15924 9.34474 3.05424C9.35974 2.95424 9.51974 2.66924 9.41474 2.60424ZM3.57974 6.82924C3.57974 6.82924 3.67974 7.41924 4.08974 7.69424C4.49974 7.96424 4.66474 7.36424 4.54474 7.24424C4.42474 7.12424 4.02974 7.17424 3.94474 7.11424C3.85974 7.04924 3.69474 6.77424 3.57974 6.82924ZM2.79974 8.82924C2.79974 8.82924 2.79974 9.42924 3.16474 9.76424C3.52474 10.0942 3.78474 9.52924 3.68474 9.39424C3.58474 9.25924 3.18474 9.24424 3.11474 9.16924C3.03974 9.08924 2.91474 8.79424 2.79974 8.83424V8.82924ZM4.59974 11.0692C4.59974 11.0692 4.38974 10.5092 3.93474 10.3192C3.47974 10.1392 3.43474 10.7592 3.57474 10.8542C3.71974 10.9442 4.09474 10.8192 4.18974 10.8642C4.28974 10.9092 4.50474 11.1442 4.60474 11.0642L4.59974 11.0692ZM4.22974 10.0992C4.22974 10.0992 4.58974 9.62424 4.50974 9.14424C4.42474 8.65924 3.87474 8.94424 3.86974 9.11424C3.86974 9.28424 4.16974 9.53924 4.18474 9.64424C4.19474 9.74924 4.10974 10.0592 4.22974 10.1042V10.0992ZM15.5097 5.50424C15.5097 5.50424 16.0497 5.25424 16.2097 4.78924C16.3697 4.32424 15.7347 4.31924 15.6547 4.46424C15.5697 4.61424 15.7247 4.98424 15.6847 5.07924C15.6447 5.17924 15.4247 5.41424 15.5097 5.50424ZM17.1497 6.32424C17.1497 6.32424 17.4697 5.81924 17.3447 5.34424C17.2197 4.86924 16.6947 5.20424 16.7047 5.37424C16.7147 5.53924 17.0447 5.76924 17.0647 5.87424C17.0847 5.97424 17.0297 6.29424 17.1497 6.32424ZM21.6297 10.9742C21.6297 10.9742 21.4147 10.4192 20.9597 10.2292C20.5047 10.0442 20.4597 10.6692 20.5997 10.7592C20.7447 10.8542 21.1247 10.7242 21.2147 10.7692C21.3147 10.8192 21.5297 11.0542 21.6297 10.9742ZM19.4397 11.3242C19.4397 11.3242 19.4497 10.7242 19.8147 10.3942C20.1797 10.0642 20.4347 10.6392 20.3347 10.7742C20.2297 10.9092 19.8347 10.9142 19.7547 10.9892C19.6847 11.0642 19.5547 11.3592 19.4397 11.3192V11.3242ZM19.0897 4.98424C19.0897 4.98424 18.5247 4.76924 18.0897 4.98424C17.6397 5.20424 18.0797 5.65424 18.2397 5.60924C18.4047 5.55924 18.5597 5.19424 18.6597 5.15424C18.7597 5.11424 19.0797 5.10424 19.0847 4.98424H19.0897ZM17.7997 3.91424C17.7997 3.91424 17.2447 3.69924 16.7997 3.91424C16.3597 4.13424 16.7947 4.58424 16.9597 4.53924C17.1197 4.48924 17.2797 4.12424 17.3747 4.08424C17.4747 4.04424 17.7947 4.03424 17.7997 3.91424ZM15.8997 2.89424C15.8997 2.89424 15.4247 3.25924 15.3797 3.74424C15.3297 4.23424 15.9397 4.09924 15.9897 3.93924C16.0397 3.77424 15.8047 3.44924 15.8197 3.34424C15.8397 3.24424 15.9997 2.96424 15.8997 2.89424ZM14.6597 2.59424C14.6597 2.59424 14.4397 3.14924 14.6547 3.59424C14.8697 4.03924 15.3197 3.60424 15.2747 3.44424C15.2297 3.27924 14.8647 3.11924 14.8247 3.02424C14.7847 2.92424 14.7797 2.59924 14.6597 2.59424ZM11.1347 4.74424C11.1347 4.74424 11.5197 4.28424 11.4647 3.79424C11.4097 3.30924 10.8397 3.56924 10.8297 3.73924C10.8147 3.90924 11.1097 4.17924 11.1147 4.28424C11.1197 4.38424 11.0197 4.69424 11.1347 4.73924V4.74424Z" fill="#FFD200" stroke="#EF8A10" stroke-width="0.07125"/>
<path fill-rule="evenodd" clip-rule="evenodd" d="M13.2399 5.72007C13.2399 5.72007 14.1649 5.78007 14.2099 6.31007C14.2549 6.84007 13.9899 7.16507 13.9899 7.16507C13.9899 7.16507 14.1049 8.31507 13.1999 8.65007C12.2299 8.76507 10.7049 8.67507 10.7049 8.67507C10.7049 8.67507 10.2549 8.78507 10.0749 7.86007C9.97071 7.33778 9.89393 6.81039 9.84491 6.28007C9.84491 6.28007 9.93491 5.76007 10.5899 5.73007C11.2399 5.69507 13.2299 5.73007 13.2399 5.72007Z" fill="#8C8A8C" stroke="black" stroke-width="0.07125"/>
<path d="M13.9849 7.16016C13.9849 7.16016 13.4849 7.78016 13.5349 8.03516" stroke="black" stroke-width="0.07125" stroke-linecap="round"/>
<path fill-rule="evenodd" clip-rule="evenodd" d="M13.315 8.61523C13.44 8.72023 13.555 8.83523 13.58 9.21523L13.63 9.98523L14.28 15.8152L14.85 20.0302L14.89 20.6802C14.89 20.6802 14.755 21.1652 14.37 21.2052C14.095 21.7852 12.585 21.9552 12.435 21.9502C12.3 21.9402 11.82 21.7402 11.53 21.7652C11.235 21.7902 10.73 21.9852 10.505 21.9552C10.28 21.9202 9.765 21.7452 9.675 21.3752C9.04 21.1752 8.94 20.6902 8.94 20.6902L9.625 15.8152L10.29 9.64523C10.29 9.64523 10.37 8.82523 10.7 8.70023C11.045 8.67023 12.82 8.73523 13.315 8.61523Z" fill="#8C8A8C" stroke="black" stroke-width="0.07125"/>
<path d="M9.81994 17.0549L9.68494 21.3699M14.0099 17.6249L14.3899 21.1849" stroke="black" stroke-width="0.07125"/>
<path d="M2.92992 14.8152L2.91492 14.8652M20.8499 14.6602L20.8649 14.7102" stroke="black" stroke-width="0.0375"/>
<path d="M2.45001 8.99023C2.45001 8.99023 2.73001 9.38523 2.78501 9.61023C2.83501 9.83523 2.93001 10.2802 3.05001 10.4602C3.17501 10.6452 3.88001 11.6552 3.92001 12.0752C3.92501 12.3552 3.62501 12.8252 3.18501 12.8352C2.90501 12.8252 2.19502 12.6452 2.16502 12.0352C2.13502 11.4202 2.38002 11.4102 2.41502 11.0352C2.44002 10.6652 2.45001 9.00023 2.45001 8.99023Z" stroke="#6B18B5" stroke-width="0.07125" stroke-linejoin="round"/>
<path d="M7.32492 3.63985C7.32492 3.63985 7.02492 3.65985 6.80492 3.78485C6.62992 3.88985 6.32992 4.04985 6.12492 4.33485C5.59492 4.74485 4.79992 4.93485 4.54992 5.28485C4.39992 5.51485 4.40992 6.06985 4.78492 6.30985C5.02492 6.44485 5.73492 6.65985 6.07492 6.15485C6.41492 5.64485 6.20992 5.50485 6.37492 5.17485C6.61054 4.61726 6.931 4.09947 7.32492 3.63985ZM14.4499 2.89985C14.4499 2.89985 14.2299 2.69985 13.9849 2.62485C13.7849 2.57485 13.4549 2.59485 13.1099 2.55985C12.4449 2.46985 11.7599 1.98985 11.3449 2.04985C11.0749 2.09985 10.6799 2.49985 10.7699 2.92985C10.8349 3.19985 11.1349 3.73985 11.7399 3.63485C12.3399 3.52985 12.3399 3.39485 12.6899 3.28485C13.5599 2.79985 14.4399 2.89985 14.4499 2.89985ZM21.5199 9.76985C21.5699 9.65485 21.4749 9.43985 21.4099 9.19485C21.3499 8.99485 21.2549 8.69485 21.0249 8.41985C20.7549 7.80985 20.7999 6.96985 20.5249 6.64985C20.3399 6.44985 19.7949 6.31985 19.4749 6.62985C19.2799 6.82985 18.9049 7.45985 19.3149 7.91485C19.7249 8.36485 19.9049 8.19985 20.1849 8.43985C20.8599 8.88985 21.1849 9.68985 21.5199 9.76985ZM21.2749 15.0999C21.3699 14.9749 21.5349 14.7298 21.5149 14.5248C21.4999 14.3648 21.5899 13.8749 21.5999 13.6599C21.6599 12.9949 22.0749 12.4498 21.9599 11.8748C21.8949 11.6048 21.4999 11.2248 21.0699 11.3348C20.8099 11.4148 20.2199 11.7348 20.3549 12.3348C20.4899 12.9348 20.6849 12.9198 20.8099 13.2698C21.1749 13.9948 20.9449 14.8549 21.2749 15.0999Z" stroke="#6B18B5" stroke-width="0.0375" stroke-linejoin="round"/>
<path d="M16.3749 19.3401C16.3749 19.3401 16.2599 19.5601 16.7149 19.7501M17.2799 18.8301C17.2799 18.8301 17.7799 18.7051 18.1199 18.8301M18.7799 17.5601C18.7799 17.5701 18.7099 17.7851 19.1099 18.1001M19.0699 17.0001C19.0699 17.0001 19.3649 17.2151 19.8599 17.2001M16.0899 17.6301C16.0899 17.6301 16.1049 18.2051 15.8099 18.4701M17.0799 16.7451C17.0799 16.7451 17.5649 16.8651 17.9649 16.6651M20.1949 15.9001C20.1949 15.9001 20.2999 16.0501 20.8399 16.0251M18.0949 15.5601C18.1099 15.5701 18.7299 15.7701 19.1199 15.5901M19.3299 13.2001C19.3299 13.2001 19.3549 13.1651 19.5449 13.8351M19.8049 11.3151C19.8049 11.3151 19.7799 11.6701 19.4949 11.8251M21.6399 9.85508C21.6399 9.85508 21.2199 10.1951 21.2999 10.3301M19.5649 9.61008C19.5649 9.61008 19.7799 9.97508 19.4249 10.2251M18.5099 8.05008C18.5099 8.05008 18.8849 8.03508 19.0499 8.35508M17.8099 6.99008H18.0949M19.2949 5.69008C19.2949 5.69508 19.3699 5.76508 19.2249 5.91508M16.6249 5.72508C16.6249 5.72508 16.8249 6.03508 16.7899 6.42008M17.7799 4.66508C17.8699 4.65508 18.1649 4.52508 18.1649 4.52508M16.4949 3.42508C16.4899 3.42508 16.3849 3.81008 16.5749 3.95008M16.0199 5.20008C16.0199 5.62008 16.3499 5.51508 16.1199 5.91508M15.2099 4.85008C15.0178 4.98475 14.8432 5.14261 14.6899 5.32008M13.8699 4.63508C13.8699 4.63508 14.0899 4.85008 14.0349 5.14508M13.2349 4.46008C13.2349 4.46008 13.1249 4.79008 12.9799 4.87508M12.0799 4.37508C12.0749 4.39008 11.8999 4.76508 11.7799 4.83008M10.4999 4.38008C10.5099 4.38008 10.6749 4.73008 10.4599 4.98008M10.1349 2.58008C10.1449 2.59008 10.1699 2.85008 10.0049 3.08008M8.56986 3.17508C8.56986 3.18008 8.63986 3.47008 8.17986 3.56508M7.68486 5.82508C7.69486 5.84008 8.12986 5.91008 8.12986 5.91008M6.59986 6.83008C6.60986 6.82008 7.12986 6.66508 7.12986 6.66508M5.75986 7.48008C5.77486 7.48008 6.12486 7.54508 6.20986 7.50008M5.50986 7.80008C5.50986 7.80008 5.62486 7.86508 5.52986 8.45008M3.81986 6.27508L4.02986 6.58508M3.10486 7.88508C3.10486 7.87508 3.31486 8.19508 3.59486 8.25508M4.74486 9.51508C4.88076 9.49304 5.01457 9.45959 5.14486 9.41508M4.59986 10.6901C4.60986 10.6901 4.59486 10.4751 4.85986 10.3251M4.24986 11.2351C4.24986 11.2451 4.49986 11.5551 4.67486 11.6001M4.09986 11.8351C4.12986 11.8251 4.39986 11.5901 4.70986 11.6101M4.01486 12.6401C4.01486 12.6401 4.02486 12.9101 4.82486 12.8401M4.09486 13.5901C4.09486 13.5801 4.32986 13.0501 4.80486 12.8501M4.73486 14.2701C4.73486 14.2701 4.80486 14.0401 5.20486 13.8851M5.17986 15.1601C5.17986 15.1601 5.46486 14.9251 5.56986 14.8951M5.53486 15.8601C5.53486 15.8601 5.70986 16.0401 6.14486 15.7251M3.44486 16.0051C3.49486 15.9951 4.12986 15.8501 4.34486 16.1801M3.69486 16.5301C3.69486 16.5301 4.36486 16.4401 4.44986 16.5101M6.08486 16.6651C6.08486 16.6651 5.99486 16.8501 6.81986 16.5451M7.10986 16.9951C6.95986 17.2451 7.14486 17.4451 6.94986 17.5601M4.59986 17.3451C4.62486 17.3251 4.89986 17.2301 4.85986 16.8301M4.84986 17.9451C4.88486 17.9351 5.34486 17.7351 5.43986 17.8401M5.75486 18.5251C5.75486 18.5251 5.81486 18.1151 5.94486 18.0751M6.44486 19.1401C6.44486 19.1401 6.82986 19.1351 6.99486 19.0101M7.18486 17.7601C7.19486 17.7701 7.53986 17.9501 8.28486 17.7701M7.46486 19.4201C7.46486 19.4201 7.56486 19.9501 7.56486 20.0701" stroke="black" stroke-width="0.07125"/>
<path fill-rule="evenodd" clip-rule="evenodd" d="M20.7996 11.2721C20.7789 11.1064 20.6938 10.9486 20.5869 10.8778C20.4629 10.8007 20.3342 10.8168 20.2491 10.9201C20.1639 11.0233 20.1112 11.1898 20.1319 11.3556C20.1537 11.5296 20.2377 11.6791 20.3457 11.7582C20.4697 11.8353 20.5984 11.8192 20.6835 11.7159C20.7687 11.6127 20.8294 11.4452 20.8007 11.2804L20.7996 11.2721Z" fill="#DE2010" stroke="black" stroke-width="0.0925741"/>
<path fill-rule="evenodd" clip-rule="evenodd" d="M20.7297 10.3871C20.7089 10.2214 20.6239 10.0636 20.517 9.99282C20.393 9.91573 20.2643 9.93182 20.1791 10.0351C20.094 10.1383 20.0413 10.3048 20.062 10.4706C20.0838 10.6446 20.1678 10.7941 20.2757 10.8732C20.3997 10.9502 20.5284 10.9342 20.6136 10.8309C20.6987 10.7277 20.7595 10.5602 20.7307 10.3954L20.7297 10.3871Z" fill="#DE2010" stroke="black" stroke-width="0.0925741"/>
<path fill-rule="evenodd" clip-rule="evenodd" d="M20.5436 9.43879C20.5084 9.27549 20.4098 9.12585 20.2971 9.06471C20.1668 8.99881 20.04 9.02615 19.9643 9.13646C19.8885 9.24678 19.8507 9.41729 19.8859 9.58059C19.9228 9.75206 20.0197 9.89352 20.1341 9.96284C20.2644 10.0287 20.3912 10.0014 20.467 9.89108C20.5427 9.78076 20.5885 9.60854 20.5454 9.44695L20.5436 9.43879Z" fill="#DE2010" stroke="black" stroke-width="0.0925745"/>
<path fill-rule="evenodd" clip-rule="evenodd" d="M20.2227 8.46197C20.1471 8.31304 20.0136 8.19348 19.889 8.16309C19.7462 8.13259 19.6306 8.19134 19.5855 8.31732C19.5403 8.4433 19.5472 8.61784 19.6229 8.76677C19.7023 8.92314 19.832 9.03525 19.9604 9.07309C20.1032 9.10359 20.2188 9.04483 20.2639 8.91886C20.309 8.79288 20.3094 8.61467 20.2265 8.46941L20.2227 8.46197Z" fill="#DE2010" stroke="black" stroke-width="0.0925744"/>
<path fill-rule="evenodd" clip-rule="evenodd" d="M19.8728 7.66704C19.7972 7.51811 19.6637 7.39856 19.5391 7.36816C19.3963 7.33767 19.2807 7.39642 19.2355 7.5224C19.1904 7.64838 19.1973 7.82291 19.2729 7.97184C19.3524 8.12822 19.4821 8.24033 19.6104 8.27817C19.7533 8.30867 19.8689 8.24991 19.914 8.12393C19.9591 7.99795 19.9595 7.81975 19.8766 7.67449L19.8728 7.66704Z" fill="#DE2010" stroke="black" stroke-width="0.0925744"/>
<path fill-rule="evenodd" clip-rule="evenodd" d="M19.3774 6.87471C19.2894 6.73272 19.1463 6.6249 19.0196 6.60516C18.8747 6.58686 18.7645 6.6552 18.7302 6.78455C18.6959 6.9139 18.7175 7.08722 18.8055 7.22921C18.8979 7.3783 19.0367 7.47902 19.1678 7.50585C19.3126 7.52415 19.4229 7.45581 19.4572 7.32647C19.4914 7.19712 19.4767 7.01952 19.3818 6.8818L19.3774 6.87471Z" fill="#DE2010" stroke="black" stroke-width="0.0925742"/>
<path fill-rule="evenodd" clip-rule="evenodd" d="M18.8235 6.1049C18.7222 5.97209 18.5693 5.87861 18.4413 5.87122C18.2953 5.86701 18.1922 5.94569 18.1706 6.07774C18.1489 6.2098 18.1872 6.38022 18.2885 6.51304C18.3949 6.65249 18.5427 6.73932 18.6758 6.75336C18.8218 6.75756 18.9249 6.67889 18.9465 6.54683C18.9681 6.41478 18.9363 6.23943 18.8286 6.11154L18.8235 6.1049Z" fill="#DE2010" stroke="black" stroke-width="0.0925744"/>
<path fill-rule="evenodd" clip-rule="evenodd" d="M18.1624 5.39325C18.0429 5.27652 17.8781 5.2062 17.7503 5.21743C17.6053 5.23443 17.5147 5.32723 17.5124 5.46102C17.5102 5.59482 17.5727 5.7579 17.6922 5.87462C17.8177 5.99718 17.9766 6.06167 18.1103 6.05627C18.2553 6.03927 18.3459 5.94647 18.3482 5.81268C18.3504 5.67889 18.2935 5.51 18.1684 5.39908L18.1624 5.39325Z" fill="#DE2010" stroke="black" stroke-width="0.0925747"/>
<path fill-rule="evenodd" clip-rule="evenodd" d="M17.4231 4.73924C17.2933 4.63401 17.1227 4.57914 16.9966 4.60208C16.8537 4.63234 16.772 4.73308 16.7821 4.86651C16.7922 4.99994 16.8695 5.15658 16.9992 5.26182C17.1354 5.37231 17.2995 5.42192 17.4322 5.40424C17.575 5.37397 17.6567 5.27324 17.6467 5.1398C17.6366 5.00637 17.5644 4.84344 17.4296 4.7445L17.4231 4.73924Z" fill="#DE2010" stroke="black" stroke-width="0.0925742"/>
<path fill-rule="evenodd" clip-rule="evenodd" d="M16.6372 4.21534C16.4918 4.1331 16.3145 4.10732 16.1939 4.15088C16.0581 4.20444 15.9942 4.31735 16.0263 4.44726C16.0584 4.57717 16.1606 4.7188 16.306 4.80104C16.4587 4.88738 16.6288 4.90905 16.7566 4.86961C16.8925 4.81604 16.9563 4.70314 16.9242 4.57323C16.8921 4.44332 16.7939 4.29463 16.6445 4.21945L16.6372 4.21534Z" fill="#DE2010" stroke="black" stroke-width="0.0925745"/>
<path fill-rule="evenodd" clip-rule="evenodd" d="M15.758 3.75013C15.6057 3.68147 15.4268 3.67194 15.3106 3.72629C15.1802 3.792 15.1269 3.91025 15.1707 4.0367C15.2145 4.16314 15.3292 4.29489 15.4814 4.36355C15.6413 4.43564 15.8127 4.44174 15.9364 4.39082C16.0668 4.32512 16.1201 4.20687 16.0764 4.08042C16.0326 3.95397 15.9212 3.81484 15.7656 3.75357L15.758 3.75013Z" fill="#DE2010" stroke="black" stroke-width="0.0925744"/>
<path fill-rule="evenodd" clip-rule="evenodd" d="M14.8957 3.40225C14.7392 3.34396 14.56 3.34644 14.4478 3.40846C14.3221 3.48276 14.2768 3.60431 14.3289 3.72754C14.3811 3.85077 14.5044 3.97453 14.6609 4.03282C14.8253 4.09404 14.9966 4.08864 15.1167 4.02953C15.2424 3.95524 15.2877 3.83368 15.2355 3.71045C15.1834 3.58722 15.0629 3.45587 14.9036 3.40517L14.8957 3.40225Z" fill="#DE2010" stroke="black" stroke-width="0.0925744"/>
<path fill-rule="evenodd" clip-rule="evenodd" d="M14.0191 3.13017C13.8586 3.084 13.6801 3.10015 13.5729 3.17055C13.4533 3.25423 13.4174 3.37888 13.4788 3.49777C13.5402 3.61666 13.6726 3.73065 13.8331 3.77683C14.0017 3.82531 14.1721 3.80686 14.2873 3.73876C14.407 3.65509 14.4429 3.53043 14.3814 3.41154C14.32 3.29265 14.1899 3.17087 14.0272 3.13248L14.0191 3.13017Z" fill="#DE2010" stroke="black" stroke-width="0.0925744"/>
<path fill-rule="evenodd" clip-rule="evenodd" d="M13.0576 2.96434C12.8919 2.94344 12.718 2.98688 12.623 3.07295C12.5176 3.17405 12.5014 3.30274 12.5804 3.41076C12.6594 3.51877 12.8077 3.61102 12.9734 3.63192C13.1475 3.65387 13.313 3.60939 13.4164 3.52436C13.5217 3.42326 13.5379 3.29456 13.459 3.18655C13.38 3.07853 13.2327 2.97824 13.0659 2.96538L13.0576 2.96434Z" fill="#DE2010" stroke="black" stroke-width="0.0925742"/>
<path fill-rule="evenodd" clip-rule="evenodd" d="M12.1038 2.91115C11.9369 2.90445 11.7673 2.96255 11.68 3.0564C11.5836 3.16612 11.5784 3.29573 11.6663 3.39662C11.7542 3.49751 11.9099 3.57678 12.0768 3.58349C12.252 3.59053 12.4132 3.53209 12.5089 3.43857C12.6053 3.32885 12.6105 3.19925 12.5226 3.09836C12.4347 2.99746 12.2794 2.91009 12.1121 2.91149L12.1038 2.91115Z" fill="#DE2010" stroke="black" stroke-width="0.0925747"/>
<path fill-rule="evenodd" clip-rule="evenodd" d="M11.2286 2.94118C11.0617 2.93448 10.8922 2.99258 10.8048 3.08643C10.7084 3.19615 10.7032 3.32576 10.7911 3.42665C10.879 3.52754 11.0347 3.60681 11.2016 3.61352C11.3769 3.62055 11.538 3.56212 11.6337 3.4686C11.7301 3.35888 11.7353 3.22928 11.6474 3.12838C11.5595 3.02749 11.4042 2.94012 11.2369 2.94152L11.2286 2.94118Z" fill="#DE2010" stroke="black" stroke-width="0.0925747"/>
<path fill-rule="evenodd" clip-rule="evenodd" d="M10.2087 3.06156C10.0458 3.09878 9.89745 3.19923 9.8377 3.31268C9.77342 3.4438 9.80233 3.57025 9.91358 3.64461C10.0248 3.71897 10.1958 3.75473 10.3586 3.71751C10.5296 3.67842 10.6699 3.57983 10.7378 3.46452C10.8021 3.3334 10.7732 3.20696 10.6619 3.13259C10.5507 3.05823 10.3779 3.01457 10.2168 3.0597L10.2087 3.06156Z" fill="#DE2010" stroke="black" stroke-width="0.0925743"/>
<path fill-rule="evenodd" clip-rule="evenodd" d="M9.27987 3.29449C9.12064 3.34502 8.98103 3.45737 8.93084 3.57536C8.8776 3.71133 8.91684 3.83496 9.03384 3.89989C9.15084 3.96483 9.32417 3.98637 9.4834 3.93584C9.65059 3.88278 9.78224 3.77296 9.84039 3.65244C9.89363 3.51647 9.85439 3.39284 9.73739 3.3279C9.62039 3.26297 9.4446 3.2337 9.28783 3.29196L9.27987 3.29449Z" fill="#DE2010" stroke="black" stroke-width="0.0925745"/>
<path fill-rule="evenodd" clip-rule="evenodd" d="M8.43232 3.66046C8.28025 3.7296 8.15501 3.85778 8.11924 3.98091C8.08257 4.12225 8.13625 4.24033 8.26016 4.29087C8.38406 4.3414 8.55872 4.34214 8.7108 4.273C8.87047 4.20041 8.9881 4.07568 9.03148 3.9491C9.06815 3.80775 9.01446 3.68967 8.89056 3.63914C8.76666 3.58861 8.58864 3.58049 8.43992 3.657L8.43232 3.66046Z" fill="#DE2010" stroke="black" stroke-width="0.0925741"/>
<path fill-rule="evenodd" clip-rule="evenodd" d="M7.58628 4.09276C7.44066 4.17462 7.32682 4.31302 7.30168 4.43875C7.27721 4.5827 7.34077 4.69577 7.46853 4.73555C7.59629 4.77533 7.77038 4.76117 7.916 4.67931C8.0689 4.59336 8.17546 4.45906 8.20788 4.32924C8.23236 4.18528 8.1688 4.07221 8.04104 4.03243C7.91328 3.99265 7.73521 3.99975 7.59356 4.08867L7.58628 4.09276Z" fill="#DE2010" stroke="black" stroke-width="0.0925737"/>
<path fill-rule="evenodd" clip-rule="evenodd" d="M6.78251 4.63719C6.64665 4.73439 6.54852 4.88434 6.5372 5.01205C6.52851 5.15782 6.60398 5.26331 6.73531 5.28897C6.86664 5.31464 7.03816 5.28164 7.17402 5.18444C7.31668 5.08239 7.40801 4.9373 7.42613 4.80472C7.43482 4.65896 7.35935 4.55347 7.22802 4.5278C7.09669 4.50214 6.92045 4.52854 6.78931 4.63234L6.78251 4.63719Z" fill="#DE2010" stroke="black" stroke-width="0.0925741"/>
<path fill-rule="evenodd" clip-rule="evenodd" d="M6.04476 5.19866C5.91761 5.30701 5.83252 5.46472 5.83204 5.59293C5.83572 5.73891 5.91984 5.83764 6.05287 5.85209C6.1859 5.86655 6.35402 5.81916 6.48117 5.71082C6.61468 5.59705 6.69341 5.44476 6.70024 5.31113C6.69656 5.16515 6.61244 5.06642 6.47941 5.05197C6.34638 5.03751 6.17301 5.07873 6.05111 5.19325L6.04476 5.19866Z" fill="#DE2010" stroke="black" stroke-width="0.0925736"/>
<path fill-rule="evenodd" clip-rule="evenodd" d="M5.38963 5.88228C5.27058 5.99947 5.19702 6.16287 5.20573 6.29079C5.21987 6.43613 5.31086 6.52857 5.44458 6.53346C5.5783 6.53834 5.74259 6.47901 5.86164 6.36183C5.98665 6.23879 6.05426 6.08124 6.0515 5.94746C6.03736 5.80212 5.94637 5.70968 5.81265 5.7048C5.67893 5.69992 5.50896 5.75346 5.39559 5.87643L5.38963 5.88228Z" fill="#DE2010" stroke="black" stroke-width="0.0925741"/>
<path fill-rule="evenodd" clip-rule="evenodd" d="M4.82661 6.64394C4.71779 6.77067 4.65816 6.93966 4.67755 7.06641C4.7038 7.21005 4.80221 7.29456 4.93587 7.28823C5.06953 7.2819 5.22828 7.20903 5.33711 7.08229C5.45138 6.94922 5.50556 6.78656 5.49161 6.65348C5.46536 6.50984 5.36695 6.42533 5.23329 6.43166C5.09963 6.43799 4.93473 6.50558 4.83206 6.6376L4.82661 6.64394Z" fill="#DE2010" stroke="black" stroke-width="0.0925743"/>
<path fill-rule="evenodd" clip-rule="evenodd" d="M4.31119 7.41869C4.21649 7.55631 4.17523 7.73069 4.20803 7.85465C4.24945 7.99468 4.35631 8.0682 4.48853 8.04766C4.62076 8.02711 4.77082 7.93773 4.86552 7.80011C4.96494 7.65561 5.00147 7.48811 4.97341 7.35727C4.93199 7.21724 4.82513 7.14372 4.69291 7.16426C4.56068 7.18481 4.40394 7.26959 4.31592 7.41181L4.31119 7.41869Z" fill="#DE2010" stroke="black" stroke-width="0.0925742"/>
<path fill-rule="evenodd" clip-rule="evenodd" d="M3.88421 8.29701C3.81456 8.44885 3.80387 8.62773 3.85747 8.74421C3.92233 8.87504 4.04023 8.92912 4.16695 8.88616C4.29368 8.84321 4.42616 8.72938 4.49581 8.57754C4.56894 8.41811 4.57615 8.24682 4.52603 8.12275C4.46117 7.99192 4.34327 7.93784 4.21655 7.98079C4.08982 8.02375 3.94997 8.1342 3.88769 8.28942L3.88421 8.29701Z" fill="#DE2010" stroke="black" stroke-width="0.0925739"/>
<path fill-rule="evenodd" clip-rule="evenodd" d="M3.54559 9.22108C3.49 9.37861 3.49556 9.55772 3.5595 9.66886C3.63595 9.79327 3.75827 9.83644 3.88058 9.78217C4.00289 9.7279 4.12451 9.60253 4.1801 9.445C4.23848 9.2796 4.23013 9.10836 4.16897 8.98934C4.09252 8.86493 3.9702 8.82176 3.84789 8.87603C3.72558 8.9303 3.59632 9.05297 3.54837 9.2132L3.54559 9.22108Z" fill="#DE2010" stroke="black" stroke-width="0.092574"/>
<path fill-rule="evenodd" clip-rule="evenodd" d="M3.25061 10.9686C3.23518 11.1019 3.28433 11.24 3.37348 11.3139C3.47801 11.3957 3.60717 11.4053 3.71252 11.3391C3.81787 11.273 3.90518 11.1517 3.92061 11.0184C3.93681 10.8784 3.88689 10.7469 3.79851 10.6663C3.69398 10.5846 3.56483 10.575 3.45947 10.6411C3.35412 10.7073 3.25874 10.8279 3.25138 10.9619L3.25061 10.9686Z" fill="#DE2010" stroke="black" stroke-width="0.0829209"/>
<path fill-rule="evenodd" clip-rule="evenodd" d="M3.32788 10.1547C3.29075 10.3175 3.31686 10.4948 3.39315 10.5979C3.48339 10.7127 3.60985 10.7415 3.72512 10.6735C3.84039 10.6056 3.9468 10.4671 3.98392 10.3042C4.0229 10.1332 3.99494 9.96404 3.92051 9.85284C3.83027 9.73803 3.7038 9.7092 3.58853 9.77716C3.47327 9.84512 3.35896 9.98183 3.32974 10.1465L3.32788 10.1547Z" fill="#DE2010" stroke="black" stroke-width="0.0925737"/>
<path fill-rule="evenodd" clip-rule="evenodd" d="M20.1 9.73476C20.2099 9.61976 20.3099 9.58476 20.4349 9.62976C20.385 9.32476 20.295 9.21976 20.1749 9.25976C20.0599 9.29476 20.0049 9.44976 20.1 9.73476ZM20.2649 10.6448C20.3799 10.5398 20.4799 10.5148 20.6049 10.5648C20.585 10.2648 20.4949 10.1498 20.375 10.1798C20.2549 10.2048 20.195 10.3598 20.2649 10.6448ZM19.875 8.89476C19.9499 8.75976 20.0399 8.70476 20.1749 8.70976C20.0499 8.42976 19.9349 8.35476 19.8249 8.41976C19.725 8.48476 19.715 8.64976 19.875 8.89976V8.89476ZM19.4699 8.06476C19.545 7.92476 19.635 7.86976 19.7699 7.87976C19.6449 7.59476 19.525 7.51976 19.42 7.58476C19.32 7.64976 19.3099 7.81476 19.4699 8.06476ZM18.495 6.53976C18.5449 6.38976 18.625 6.31976 18.755 6.30976C18.59 6.04976 18.4599 5.99476 18.37 6.07476C18.28 6.15476 18.2949 6.32476 18.495 6.53976ZM17.8499 5.87476C17.9 5.72476 17.97 5.65476 18.0999 5.63476C17.93 5.38476 17.8 5.33476 17.71 5.41476C17.62 5.49976 17.64 5.66476 17.8499 5.87476ZM16.5149 4.74976C16.5149 4.58976 16.565 4.49976 16.68 4.43976C16.44 4.25476 16.2949 4.24976 16.24 4.35476C16.1849 4.45976 16.2499 4.60976 16.5149 4.74976ZM17.2149 5.27476C17.235 5.11976 17.3 5.03476 17.43 4.99976C17.22 4.77476 17.085 4.73976 17.01 4.83476C16.935 4.93476 16.975 5.08976 17.21 5.27476H17.2149ZM15.715 4.30976C15.7 4.15476 15.74 4.05976 15.85 3.98476C15.59 3.82476 15.45 3.83476 15.4 3.94476C15.355 4.05976 15.44 4.19976 15.72 4.30976H15.715ZM14.91 3.94976C14.87 3.79976 14.895 3.69976 14.995 3.60976C14.715 3.48976 14.575 3.51476 14.545 3.63476C14.515 3.75476 14.62 3.87976 14.91 3.94976ZM14.035 3.67976C13.98 3.52976 13.995 3.42976 14.09 3.32976C13.8 3.23476 13.665 3.27476 13.64 3.39476C13.625 3.51476 13.74 3.63476 14.035 3.67976ZM13.17 3.50976C13.11 3.36976 13.12 3.25976 13.205 3.15976C12.905 3.08476 12.775 3.13476 12.765 3.25976C12.75 3.37976 12.875 3.48976 13.17 3.50976ZM12.26 3.43976C12.18 3.30476 12.18 3.19976 12.26 3.08976C11.955 3.04476 11.825 3.10976 11.83 3.22976C11.83 3.35476 11.965 3.44976 12.26 3.43976ZM10.475 3.57476C10.365 3.46476 10.34 3.35976 10.385 3.23476C10.085 3.26476 9.97495 3.35476 10.005 3.47476C10.035 3.59476 10.19 3.65476 10.475 3.57476ZM11.355 3.45976C11.26 3.33476 11.245 3.22976 11.31 3.10976C11.005 3.09976 10.885 3.17476 10.9 3.29976C10.915 3.41976 11.06 3.49976 11.35 3.45976H11.355ZM9.60995 3.75976C9.48995 3.66476 9.44495 3.56976 9.47495 3.43976C9.17495 3.51476 9.08495 3.61976 9.12995 3.72976C9.17995 3.84476 9.33995 3.87976 9.60995 3.75976ZM7.95995 4.51976C7.81995 4.44976 7.75995 4.36476 7.76495 4.22976C7.48495 4.35976 7.41495 4.47976 7.48495 4.57976C7.54995 4.67976 7.71495 4.68976 7.95995 4.51976ZM8.75995 4.11476C8.62495 4.02976 8.57995 3.93476 8.59995 3.80476C8.30495 3.89476 8.21995 4.00476 8.27495 4.11476C8.32995 4.22476 8.49495 4.25476 8.75495 4.11476H8.75995ZM6.47995 5.55476C6.32995 5.51476 6.24995 5.43976 6.22995 5.30476C5.97995 5.49476 5.93995 5.62476 6.02495 5.70976C6.11495 5.79476 6.27495 5.76976 6.47495 5.55476H6.47995ZM7.18495 4.97476C7.03495 4.92476 6.96495 4.84476 6.95495 4.71476C6.69495 4.87476 6.63995 5.00476 6.71995 5.09976C6.79995 5.18976 6.96995 5.17476 7.18495 4.97476ZM5.84995 6.17476C5.69995 6.14476 5.61495 6.07976 5.57995 5.94976C5.34995 6.15476 5.31995 6.29476 5.41495 6.36976C5.50995 6.44976 5.66495 6.40476 5.84995 6.16976V6.17476ZM5.28495 6.89976C5.12495 6.88976 5.03495 6.83476 4.99495 6.70976C4.78495 6.93476 4.76495 7.06976 4.86495 7.13976C4.96495 7.20976 5.11995 7.14976 5.28495 6.89976ZM4.81495 7.64976C4.65495 7.65976 4.56495 7.61476 4.49495 7.49976C4.32495 7.75476 4.32495 7.89976 4.43495 7.94976C4.54495 7.99976 4.68995 7.91976 4.81495 7.64976ZM4.39995 8.44976C4.24995 8.47976 4.14995 8.44976 4.06495 8.33976C3.92995 8.61476 3.94995 8.75476 4.06495 8.78976C4.17995 8.82976 4.31495 8.72976 4.39995 8.44476V8.44976ZM4.06995 9.26476C3.91995 9.31976 3.81995 9.30476 3.71995 9.21476C3.62995 9.50476 3.66995 9.63976 3.79495 9.65976C3.91495 9.67476 4.02995 9.55976 4.06995 9.25976V9.26476ZM3.84495 10.1748C3.70495 10.2398 3.59995 10.2348 3.49495 10.1498C3.42495 10.4498 3.47495 10.5748 3.59495 10.5848C3.71995 10.5998 3.82995 10.4748 3.84495 10.1748ZM3.75495 10.9348C3.62495 11.0048 3.51995 11.0148 3.40495 10.9598C3.36995 11.2048 3.43495 11.2998 3.55495 11.2898C3.67495 11.2798 3.76995 11.1698 3.75495 10.9348ZM19.105 7.32476C19.16 7.17476 19.24 7.10476 19.37 7.09476C19.2099 6.83476 19.0849 6.77976 18.9899 6.85476C18.8949 6.93476 18.91 7.10476 19.105 7.32476ZM20.365 11.5748C20.4799 11.4648 20.585 11.4398 20.705 11.4948C20.6849 11.1898 20.5949 11.0798 20.475 11.1048C20.36 11.1348 20.295 11.2848 20.365 11.5748Z" fill="#FFE300"/>
<path fill-rule="evenodd" clip-rule="evenodd" d="M19.1649 6.6001C19.1649 6.6001 18.8149 6.9451 18.8799 7.3601C18.9399 7.7751 19.2049 8.2901 19.1549 8.7251C19.1049 9.1551 19.0299 9.4401 19.0299 9.4401C19.0299 9.4401 19.4299 8.9851 19.4299 8.5401C19.4399 8.1051 19.1599 7.5251 19.1599 7.2051C19.1599 6.8851 19.1749 6.5951 19.1649 6.6051V6.6001ZM19.7999 8.0001C19.7999 8.0001 19.5349 8.2001 19.5599 8.6501C19.5849 9.1051 20.0599 9.9401 20.0599 9.9401C20.0599 9.9401 20.3999 10.6401 20.3849 10.8251C20.3749 11.0101 20.4499 10.6501 20.4149 10.2501C20.3799 9.8501 19.8649 8.9601 19.8649 8.9601C19.8649 8.9601 19.7549 8.7801 19.7649 8.4751C19.7749 8.1751 19.8049 8.0051 19.8049 8.0001H19.7999Z" fill="#217900" stroke="black" stroke-width="0.07125" stroke-linejoin="round"/>
<path fill-rule="evenodd" clip-rule="evenodd" d="M11.7499 2.36995C11.7499 2.27995 11.6399 2.19995 11.5099 2.19995C11.3799 2.19995 11.2749 2.27995 11.2749 2.36995C11.2749 2.45995 11.3749 2.53995 11.5099 2.53995C11.6449 2.53995 11.7449 2.46495 11.7449 2.36995H11.7499ZM11.8499 2.76995C11.8499 2.67995 11.7399 2.60495 11.5999 2.60495C11.4699 2.60495 11.3599 2.67495 11.3599 2.76495C11.3599 2.85495 11.4699 2.92995 11.6049 2.92995C11.7399 2.92995 11.8449 2.85495 11.8449 2.76495L11.8499 2.76995ZM12.1499 2.29995C12.1499 2.29995 11.8699 2.50495 11.9849 2.58995C12.0999 2.67495 12.4149 2.40995 12.4149 2.40995L12.1499 2.29995ZM20.3149 7.06995C20.3149 7.00995 20.2899 6.95495 20.2449 6.92495C20.223 6.90945 20.1968 6.90113 20.1699 6.90113C20.1431 6.90113 20.1169 6.90945 20.0949 6.92495C20.0499 6.95495 20.0249 7.00995 20.0249 7.06995C20.0249 7.12995 20.0499 7.18495 20.0949 7.21495C20.1169 7.23045 20.1431 7.23877 20.1699 7.23877C20.1968 7.23877 20.223 7.23045 20.2449 7.21495C20.2899 7.18495 20.3149 7.12995 20.3149 7.06995ZM20.2099 6.66995C20.2099 6.56995 20.1399 6.49495 20.0599 6.49495C19.9799 6.49495 19.9049 6.57495 19.9049 6.67495C19.9049 6.77495 19.9749 6.84995 20.0549 6.84995C20.1349 6.84995 20.2099 6.76995 20.2099 6.67495V6.66995ZM20.2849 7.47995C20.2849 7.42995 20.2549 7.38995 20.2249 7.38995C20.1949 7.38995 20.1649 7.42995 20.1649 7.47995C20.1649 7.52995 20.1899 7.57495 20.2249 7.57495C20.2599 7.57495 20.2849 7.52995 20.2849 7.47995ZM20.5299 6.75995C20.5299 6.69995 20.4999 6.65495 20.4699 6.65495C20.4349 6.65495 20.4099 6.69995 20.4099 6.75495C20.4099 6.80995 20.4349 6.86495 20.4699 6.86495C20.4999 6.86495 20.5299 6.81495 20.5299 6.75995ZM19.8599 6.82995C19.8599 6.77995 19.8299 6.74495 19.7999 6.74495C19.7699 6.74495 19.7399 6.78495 19.7399 6.82995C19.7399 6.87495 19.7649 6.91995 19.7999 6.91995C19.8349 6.91995 19.8599 6.87995 19.8599 6.82995ZM19.9649 7.39995C19.9649 7.32495 19.9099 7.26495 19.8399 7.26495C19.7699 7.26495 19.7149 7.32495 19.7149 7.39995C19.7149 7.47995 19.7649 7.53995 19.8399 7.53995C19.9149 7.53995 19.9649 7.47995 19.9649 7.39995ZM19.6349 7.14995C19.6349 7.08495 19.5849 7.02995 19.5299 7.02995C19.4699 7.02995 19.4199 7.07995 19.4199 7.14995C19.4199 7.21995 19.4699 7.26995 19.5299 7.26995C19.5849 7.26995 19.6299 7.21995 19.6299 7.14995H19.6349ZM19.5849 6.80995C19.5846 6.79267 19.5799 6.77576 19.5711 6.76086C19.5624 6.74596 19.5499 6.73359 19.5349 6.72495C19.5207 6.71609 19.5042 6.71139 19.4874 6.71139C19.4706 6.71139 19.4542 6.71609 19.4399 6.72495C19.4259 6.73419 19.4144 6.74683 19.4065 6.76169C19.3987 6.77654 19.3947 6.79314 19.3949 6.80995C19.3943 6.82808 19.3986 6.84603 19.4074 6.86188C19.4163 6.87773 19.4292 6.89089 19.4449 6.89995C19.4586 6.90785 19.4741 6.91201 19.4899 6.91201C19.5057 6.91201 19.5212 6.90785 19.5349 6.89995C19.5649 6.87995 19.5849 6.84995 19.5849 6.80995ZM21.0899 8.52995C20.9549 8.34995 20.7349 8.27495 20.5999 8.35995C20.4699 8.44495 20.4699 8.65995 20.6099 8.84495C20.7449 9.02495 20.9599 9.09995 21.0949 9.01495C21.2299 8.92495 21.2299 8.71495 21.0949 8.52995H21.0899ZM21.4799 11.865C21.5049 11.64 21.3999 11.445 21.2399 11.425C21.0799 11.41 20.9299 11.575 20.8999 11.795C20.8749 12.015 20.9849 12.21 21.1449 12.23C21.3049 12.25 21.4549 12.08 21.4799 11.865ZM21.5599 13.805C21.6099 13.585 21.5149 13.38 21.3599 13.345C21.1999 13.3149 21.0349 13.465 20.9899 13.685C20.9449 13.9 21.0399 14.105 21.1899 14.135C21.3499 14.17 21.5149 14.02 21.5599 13.8V13.805ZM21.9349 11.985C21.9349 11.9 21.8749 11.83 21.8049 11.83C21.7349 11.83 21.6699 11.9 21.6699 11.985C21.6699 12.075 21.7299 12.1449 21.8049 12.1449C21.8799 12.1449 21.9349 12.075 21.9349 11.985ZM21.6099 12.35L21.3399 12.66C21.3399 12.66 21.0849 12.665 21.0999 12.75C21.1099 12.83 21.4499 13.08 21.4499 13.18C21.4449 13.28 21.6699 13.155 21.6699 13.155L21.8549 12.6C21.8549 12.6 21.8449 12.215 21.7449 12.22C21.6449 12.2299 21.6199 12.345 21.6099 12.35ZM3.73991 12.23C3.74367 12.2111 3.74319 12.1916 3.73852 12.173C3.73385 12.1544 3.7251 12.137 3.71291 12.1221C3.70071 12.1073 3.68538 12.0953 3.668 12.0871C3.65062 12.0788 3.63164 12.0746 3.61241 12.0746C3.59319 12.0746 3.57421 12.0788 3.55683 12.0871C3.53945 12.0953 3.52411 12.1073 3.51192 12.1221C3.49973 12.137 3.49098 12.1544 3.48631 12.173C3.48164 12.1916 3.48116 12.2111 3.48491 12.23C3.49078 12.2594 3.5067 12.286 3.52995 12.3051C3.5532 12.3242 3.58234 12.3346 3.61241 12.3346C3.64249 12.3346 3.67163 12.3242 3.69488 12.3051C3.71813 12.286 3.73404 12.2594 3.73991 12.23ZM3.86491 11.83C3.86491 11.76 3.80491 11.7 3.73491 11.7C3.66491 11.7 3.60491 11.76 3.60491 11.835C3.60491 11.91 3.66491 11.97 3.73491 11.97C3.76984 11.9687 3.80291 11.9539 3.82716 11.9287C3.8514 11.9035 3.86494 11.8699 3.86491 11.835V11.83ZM2.79991 9.95995C2.74991 9.84995 2.64991 9.78995 2.57491 9.82495C2.49991 9.85995 2.47491 9.97495 2.52491 10.085C2.57491 10.195 2.67491 10.255 2.74991 10.22C2.82991 10.185 2.84991 10.07 2.79991 9.95995ZM3.12491 11.13C3.05491 10.99 2.91991 10.91 2.81491 10.955C2.70991 11 2.67991 11.15 2.74491 11.29C2.80991 11.43 2.94491 11.51 3.05491 11.465C3.16491 11.42 3.18991 11.27 3.12491 11.13ZM3.46491 11.99C3.48991 11.815 3.41491 11.65 3.30491 11.63C3.18991 11.605 3.08491 11.73 3.05991 11.905C3.03991 12.08 3.10991 12.24 3.22491 12.265C3.33491 12.29 3.44491 12.165 3.46491 11.99ZM2.91491 12.115C2.98491 11.95 2.95991 11.775 2.85991 11.725C2.75991 11.675 2.61991 11.76 2.54991 11.925C2.47991 12.09 2.50491 12.26 2.60991 12.315C2.71491 12.37 2.84491 12.28 2.91491 12.115Z" fill="#6B18B5"/>
<path fill-rule="evenodd" clip-rule="evenodd" d="M2.66495 11.74C2.66495 11.655 2.59995 11.59 2.51995 11.59C2.43995 11.59 2.37495 11.66 2.37495 11.74C2.37495 11.82 2.43995 11.89 2.52495 11.89C2.60995 11.89 2.66495 11.825 2.66495 11.74ZM2.54995 11.365C2.54995 11.29 2.48995 11.23 2.41995 11.23C2.40222 11.2306 2.38479 11.2347 2.36865 11.2421C2.35252 11.2495 2.338 11.26 2.32593 11.273C2.31385 11.286 2.30446 11.3013 2.29829 11.3179C2.29212 11.3345 2.28928 11.3522 2.28995 11.37C2.28995 11.44 2.34995 11.505 2.41995 11.505C2.48995 11.505 2.54995 11.44 2.54995 11.365ZM2.66995 10.65C2.66995 10.52 2.61495 10.42 2.54495 10.42C2.47495 10.42 2.41995 10.52 2.41995 10.65C2.41995 10.775 2.47495 10.88 2.54495 10.88C2.61495 10.88 2.66995 10.78 2.66995 10.65ZM3.05995 10.595C3.07495 10.47 3.03495 10.36 2.95995 10.345C2.89495 10.34 2.82495 10.435 2.80995 10.56C2.78995 10.685 2.83495 10.795 2.90495 10.805C2.96995 10.815 3.03995 10.72 3.05495 10.595H3.05995ZM5.80995 5.09497C5.86495 4.91497 5.80995 4.73497 5.69495 4.69497C5.57995 4.64997 5.44495 4.75997 5.39495 4.93997C5.34495 5.11997 5.39495 5.29997 5.50995 5.33997C5.62495 5.38497 5.75995 5.27497 5.80995 5.09497ZM5.28995 5.88997C5.43995 5.75497 5.50995 5.57497 5.43995 5.48497C5.36495 5.38997 5.17995 5.42497 5.02495 5.55497C4.86995 5.68497 4.80995 5.86497 4.87995 5.95497C4.95495 6.04997 5.13995 6.01997 5.28995 5.88997ZM4.98995 5.44997C5.13995 5.33497 5.19995 5.17997 5.12995 5.09997C5.05995 5.01997 4.87995 5.04997 4.72995 5.15997C4.57495 5.27497 4.50995 5.42997 4.57995 5.50997C4.64995 5.58997 4.82995 5.55997 4.98495 5.44997H4.98995ZM6.16495 4.67497C6.26495 4.59497 6.30995 4.48497 6.26495 4.42997C6.21495 4.37997 6.08995 4.39497 5.98495 4.47497C5.87995 4.55497 5.83995 4.65997 5.88995 4.71497C5.93995 4.76997 6.05995 4.74997 6.16495 4.67497Z" fill="#6B18B5"/>
<path fill-rule="evenodd" clip-rule="evenodd" d="M5.54988 5.42523C5.61988 5.31523 5.62488 5.20023 5.55988 5.16523C5.49488 5.13023 5.38488 5.18523 5.31488 5.29523C5.24488 5.40523 5.23988 5.52023 5.30488 5.55523C5.36988 5.59023 5.47988 5.53023 5.54988 5.42523ZM6.43488 4.96023C6.54488 4.86523 6.58488 4.74523 6.53488 4.68523C6.47488 4.62523 6.33488 4.65523 6.22488 4.74523C6.11488 4.83523 6.07488 4.96023 6.12988 5.02023C6.18988 5.08023 6.32488 5.05023 6.43488 4.96023ZM4.83488 6.04023C4.93488 6.04023 5.01488 5.98523 5.00488 5.92523C5.00488 5.87023 4.90988 5.82523 4.80488 5.83023C4.70488 5.83523 4.62488 5.89023 4.63488 5.94523C4.63988 6.00523 4.73488 6.04523 4.83488 6.04523V6.04023ZM6.76988 4.38523C6.83988 4.27523 6.84488 4.16023 6.77988 4.12523C6.71988 4.09023 6.60988 4.14523 6.53988 4.25523C6.46988 4.36523 6.46488 4.48023 6.52988 4.51523C6.59488 4.55023 6.69988 4.49523 6.76988 4.38523Z" fill="#6B18B5"/>
<path fill-rule="evenodd" clip-rule="evenodd" d="M18.4399 7.66988C18.4399 7.66988 18.7599 7.16488 18.6399 6.68488C18.5149 6.20988 17.9899 6.54988 17.9999 6.71988C18.0099 6.88488 18.3399 7.11488 18.3599 7.21988C18.3799 7.31988 18.3199 7.63488 18.4399 7.66988Z" fill="#FFD200" stroke="#EF8A10" stroke-width="0.0375"/>
<path fill-rule="evenodd" clip-rule="evenodd" d="M12.345 3.46502C12.345 3.46502 13.495 3.51002 13.5 4.25502C13.5 4.37002 13.5 4.50502 13.46 4.84002C13.69 4.71502 13.84 4.37502 13.81 4.15502C13.815 3.40002 12.785 2.88002 12.345 3.46502Z" fill="#217900" stroke="black" stroke-width="0.08625" stroke-linejoin="round"/>
<path fill-rule="evenodd" clip-rule="evenodd" d="M11.6149 3.42994C11.6149 3.42994 12.5399 3.23994 12.5499 3.97994C12.5549 4.72994 12.2499 4.84494 12.2499 4.84494C12.2499 4.84494 12.9649 4.69494 12.9699 3.93994C12.9699 3.17994 12.0549 2.84494 11.6149 3.42994Z" fill="#217900" stroke="black" stroke-width="0.08625" stroke-linejoin="round"/>
<path fill-rule="evenodd" clip-rule="evenodd" d="M14.7649 19.5002C14.7649 19.5002 19.1049 18.2702 20.4149 12.9502C19.6499 18.4052 14.8999 20.1502 14.8999 20.1502L14.7599 19.5002H14.7649Z" fill="#F7DF73" stroke="black" stroke-width="0.09375" stroke-linejoin="round"/>
<path fill-rule="evenodd" clip-rule="evenodd" d="M15.21 19.8302C15.345 19.8302 15.675 19.4602 15.865 19.4202C16.055 19.3802 16.075 19.1852 15.86 19.1802C15.64 19.1702 15.45 19.4302 15.45 19.4302C15.45 19.4302 15.26 19.5902 15.06 19.6102C14.86 19.6302 14.99 19.8802 15.21 19.8302Z" fill="#8C1800"/>
<path fill-rule="evenodd" clip-rule="evenodd" d="M17.71 17.9651C17.71 17.9651 17.26 18.2251 17.32 18.2901C17.385 18.3551 17.785 18.0401 17.795 18.0401C17.8 18.0301 17.965 17.8301 17.71 17.9651Z" fill="#8C1800" stroke="#8C1800" stroke-width="0.09375"/>
<path fill-rule="evenodd" clip-rule="evenodd" d="M16.135 19.1498C16.135 19.1498 16 19.0998 16.345 18.9698C16.695 18.8348 16.67 18.6798 16.785 18.6148C16.895 18.5498 17.135 18.3798 17.185 18.4798C17.235 18.5798 16.935 18.7798 16.86 18.7998C16.79 18.8198 16.445 19.1398 16.345 19.1648C16.245 19.1948 16.175 19.1798 16.135 19.1498Z" fill="#8C1800"/>
<path d="M18.3798 17.3C18.0798 17.635 18.0798 17.625 18.0798 17.625" stroke="#8C1800" stroke-width="0.1125" stroke-linecap="round"/>
<path d="M18.825 16.7603L18.54 17.1053" stroke="#8C1800" stroke-width="0.105" stroke-linecap="round"/>
<path d="M19.27 16.05L18.95 16.56" stroke="#8C1800" stroke-width="0.09375" stroke-linecap="round"/>
<path d="M19.6449 15.3301L19.3799 15.8551M19.8099 14.9551L19.7299 15.1351" stroke="#8C1800" stroke-width="0.08625" stroke-linecap="round"/>
<path d="M19.9999 14.4502L19.9299 14.6702" stroke="#8C1800" stroke-width="0.0525" stroke-linecap="round"/>
<path fill-rule="evenodd" clip-rule="evenodd" d="M9.07275 19.3866C9.07275 19.3866 4.76903 18.1366 3.47791 12.7117C4.23106 18.2812 8.94033 20.0413 8.94033 20.0413L9.07275 19.3866Z" fill="#F7DF73" stroke="black" stroke-width="0.0943761" stroke-linejoin="round"/>
<path fill-rule="evenodd" clip-rule="evenodd" d="M8.63494 19.7202C8.49994 19.7202 8.17494 19.3452 7.98494 19.3052C7.79494 19.2602 7.77494 19.0652 7.98994 19.0552C8.20994 19.0552 8.39494 19.3102 8.39494 19.3102C8.39494 19.3102 8.58494 19.4752 8.77994 19.5002C8.97994 19.5202 8.84994 19.7702 8.63494 19.7202Z" fill="#8C1800"/>
<path fill-rule="evenodd" clip-rule="evenodd" d="M6.15959 17.822C6.15959 17.822 6.60652 18.0941 6.54031 18.1621C6.48237 18.2217 6.0851 17.9071 6.07683 17.8986C6.06855 17.8901 5.9113 17.686 6.15959 17.822Z" fill="#8C1800" stroke="#8C1800" stroke-width="0.0943761"/>
<path fill-rule="evenodd" clip-rule="evenodd" d="M7.71984 19.0301C7.71984 19.0301 7.84984 18.9801 7.50984 18.8451C7.16984 18.7101 7.18484 18.5451 7.07484 18.4851C6.96484 18.4201 6.72484 18.2501 6.67484 18.3501C6.62484 18.4501 6.92484 18.6501 6.99984 18.6701C7.06984 18.6951 7.40984 19.0201 7.50984 19.0451C7.60984 19.0751 7.67484 19.0601 7.71984 19.0301Z" fill="#8C1800"/>
<path d="M5.4975 17.1506L5.78717 17.4823" stroke="#8C1800" stroke-width="0.113251" stroke-linecap="round"/>
<path d="M5.05051 16.5974L5.33191 16.946" stroke="#8C1800" stroke-width="0.10696" stroke-linecap="round"/>
<path d="M4.61195 15.8752L4.92645 16.3939" stroke="#8C1800" stroke-width="0.0943761" stroke-linecap="round"/>
<path d="M4.23949 15.1436L4.50433 15.6793M4.07396 14.7524L4.15672 14.9395" stroke="#8C1800" stroke-width="0.0880843" stroke-linecap="round"/>
<path d="M3.88352 14.2424L3.95801 14.472" stroke="#8C1800" stroke-width="0.0503339" stroke-linecap="round"/>
<path fill-rule="evenodd" clip-rule="evenodd" d="M20.62 11.9648C20.645 12.2998 20.97 12.6148 20.84 13.1998C20.68 13.8648 20.1 15.4348 20.2 15.7098C20.03 15.4748 20.06 15.2598 20.05 14.9298C20.03 14.6048 20.52 13.3848 20.565 12.9748C20.565 12.6048 20.6 12.0998 20.62 11.9648Z" fill="#217900" stroke="black" stroke-width="0.08625" stroke-linejoin="round"/>
<path fill-rule="evenodd" clip-rule="evenodd" d="M20.6199 11.97C20.6199 11.97 21.1549 12.645 21.1249 13.18C21.0999 13.715 20.7999 14.34 20.8999 14.615C20.7417 14.4129 20.6602 14.1614 20.6699 13.905C20.6549 13.58 20.9349 13.215 20.8749 12.86C20.8199 12.51 20.6149 11.97 20.6249 11.97H20.6199ZM3.1549 12.12C3.1349 12.455 2.8849 12.755 3.0149 13.335C3.1749 14 3.7649 14.835 3.6649 15.795C3.8399 15.56 3.8899 15.295 3.9049 14.97C3.9149 14.645 3.2549 13.545 3.2149 13.13C3.2149 12.76 3.1749 12.255 3.1549 12.12Z" fill="#217900" stroke="black" stroke-width="0.08625" stroke-linejoin="round"/>
<path fill-rule="evenodd" clip-rule="evenodd" d="M3.15495 12.1302C3.15495 12.1302 2.63495 12.7802 2.66495 13.3152C2.66995 13.6702 3.32495 15.1552 3.22495 15.4352C3.39995 15.2002 3.44495 15.2302 3.43995 14.8752C3.24995 13.9602 2.90495 13.3802 2.96495 13.0252C3.01995 12.6702 3.16495 12.1252 3.15495 12.1252V12.1302Z" fill="#217900" stroke="black" stroke-width="0.08625" stroke-linejoin="round"/>
<path d="M12.0258 6.1499L13.3074 10.1237H17.502L14.123 12.5826L15.4105 16.5564L12.0316 14.1033L8.65261 16.5564L9.93429 12.5826L6.5495 10.1237H10.7324L12.0258 6.1499Z" fill="white" stroke="black" stroke-width="0.0742847" stroke-linecap="square" stroke-linejoin="round"/>
</g>
</g>
<defs>
<clipPath id="clip0_3053_1896">
<rect width="24" height="24" rx="12" fill="white"/>
</clipPath>
</defs>
</svg>
