<svg width="24" height="24" viewBox="0 0 24 24" fill="none" xmlns="http://www.w3.org/2000/svg">
<g clip-path="url(#clip0_3053_1924)">
<g clip-path="url(#clip1_3053_1924)">
<path d="M-3.89999 0H28.1V24H-3.89999V0Z" fill="#CF142B"/>
<path d="M21.784 7.79932V14.9938C21.784 16.9126 17.9463 17.5403 17.9463 17.5403C17.9463 17.5403 14.0998 16.917 14.0998 14.9849V7.79932H21.7795H21.784Z" fill="white"/>
<path d="M21.784 14.9935C21.784 16.9123 17.9463 17.54 17.9463 17.54C17.9463 17.54 14.0998 16.9168 14.0998 14.9846C14.0998 14.9846 14.0998 14.8288 14.1799 14.7442C14.1799 14.7442 14.1354 15.0603 14.3803 15.3051C14.3803 15.3051 14.1888 14.9579 14.3803 14.624C14.3803 14.624 14.3046 15.0603 14.5762 15.3051C14.5762 15.3051 14.4292 14.9534 14.594 14.5617C14.594 14.5617 14.5138 15.1983 14.8032 15.3319C14.8032 15.3319 14.8833 14.9579 14.7676 14.7264C14.7676 14.7264 14.9679 14.8065 14.959 15.3408C14.959 15.3408 15.0214 15.2606 15.0392 14.8733C15.0392 14.8733 15.0481 15.3185 15.195 15.4209C15.195 15.4209 15.2484 15.3764 15.1816 15.176C15.1104 14.9801 15.2083 14.9089 15.2262 14.9089C15.2262 14.9089 15.1905 15.1315 15.3775 15.3007C15.3775 15.3007 15.2974 14.949 15.4087 14.9C15.4087 14.9 15.382 15.1983 15.6224 15.2606C15.6224 15.2606 15.6357 15.176 15.5868 15.0825C15.5868 15.0825 15.5422 14.9712 15.5734 14.8822C15.5734 14.8822 15.6491 15.1493 15.7515 15.1938C15.7515 15.1938 15.6892 15.0336 15.7515 14.8822C15.7515 14.8822 15.7604 15.1048 15.9607 15.1983C15.9607 15.1983 15.8272 15.0202 15.8761 14.8332L17.1539 14.8956L17.8217 14.9267L19.8117 14.7932L20.1501 14.4949C20.1501 14.4949 20.2881 14.6774 20.0699 14.9757C20.0699 14.9757 20.2836 14.9401 20.3504 14.6062C20.3504 14.6062 20.4395 14.7887 20.3193 14.9979C20.3193 14.9979 20.5552 14.7575 20.5864 14.4949C20.5864 14.4949 20.6799 14.7531 20.4573 15.0291C20.4573 15.0291 20.6532 14.9579 20.7377 14.6685C20.7377 14.6685 20.809 14.8466 20.6175 15.0914C20.6175 15.0914 20.9782 14.9089 20.9692 14.5127C20.9692 14.5127 21.1162 14.7264 20.947 15.0291C20.947 15.0291 21.1251 14.8644 21.1473 14.6151C21.1473 14.6151 21.2497 14.7264 21.1384 15.0336C21.1384 15.0336 21.361 14.8199 21.3966 14.5928C21.3966 14.5928 21.4412 14.8065 21.2542 15.0736C21.2542 15.0736 21.3833 15.038 21.5079 14.7798C21.5079 14.7798 21.5391 14.8866 21.4278 15.0736C21.4278 15.0736 21.5525 15.0514 21.6326 14.811C21.6326 14.811 21.646 14.9534 21.6103 15.0781C21.6103 15.0781 21.7038 15.0202 21.7261 14.7531C21.7268 14.8219 21.7452 14.8894 21.7795 14.949V14.9846L21.784 14.9935Z" fill="#2F8F22"/>
<path d="M19.8117 10.8313C19.8117 10.8313 19.6782 10.858 19.5001 10.8046C19.3309 10.7511 19.2641 10.7734 19.2107 10.8046C19.2107 10.8046 19.2775 10.6665 19.1083 10.5552C19.1083 10.5552 19.1617 10.6977 19.0861 10.76C19.0861 10.76 19.0549 10.7912 19.0148 10.7467C19.0148 10.7467 18.9569 10.6799 18.8902 10.6398C18.8902 10.6398 19.0371 10.5864 19.0104 10.4395C18.9837 10.2926 18.9035 10.2792 18.8635 10.257C18.8563 10.2922 18.8563 10.3285 18.8635 10.3638C18.8635 10.3638 18.7076 10.2748 18.9169 10.1546C19.1306 10.0344 19.095 9.95867 19.0549 9.89634C19.0138 9.83337 18.9609 9.77895 18.8991 9.73607C18.8991 9.73607 18.9436 9.8073 18.9302 9.86518C18.9258 9.9186 18.8234 9.95422 18.8412 9.86072C18.8635 9.75388 18.8412 9.77168 18.8412 9.66929C18.8412 9.66929 19.0282 9.73162 19.1083 9.54463C19.1083 9.54463 19.1795 9.35319 18.9391 9.2597C18.9391 9.2597 18.997 9.33984 18.9703 9.39326C18.9703 9.39326 18.9169 9.49121 18.859 9.41997C18.8011 9.34429 18.7611 9.32203 18.7655 9.23299C18.7655 9.23299 18.9837 9.26415 18.9258 9.02375C18.9258 9.02375 18.8857 9.18402 18.6052 8.97032C18.6052 8.97032 18.7922 8.78334 18.7165 8.63197C18.7165 8.63197 18.6943 8.56519 18.4984 8.60081C18.4984 8.60081 18.6676 8.49396 18.6008 8.40046C18.6008 8.40046 18.5607 8.34259 18.396 8.41827C18.396 8.41827 18.4628 8.31588 18.3025 8.19567C18.3025 8.19567 18.1956 8.2491 18.1422 8.30252C18.1422 8.30252 18.0354 8.16896 17.9641 8.11108C17.9641 8.11108 17.8395 8.16006 17.8083 8.30252C17.8083 8.30252 17.7504 8.23574 17.6169 8.19567C17.6169 8.19567 17.5546 8.32033 17.6391 8.41827C17.6391 8.41827 17.5768 8.41827 17.4611 8.3693C17.4611 8.3693 17.3364 8.31588 17.3587 8.41827C17.372 8.52512 17.3854 8.55183 17.4121 8.60526C17.4121 8.60526 17.1227 8.53848 17.1361 8.6943C17.1386 8.74692 17.1518 8.79849 17.1747 8.84592C17.1977 8.89335 17.23 8.93566 17.2696 8.97032C17.2696 8.97032 17.1138 9.18402 16.9758 9.02375C16.9758 9.02375 16.9224 9.07717 17.0292 9.21073C17.0292 9.21073 17.1361 9.32203 17.0426 9.39771C17.0426 9.39771 16.9313 9.48675 16.8779 9.30867C16.8779 9.30867 16.6953 9.49121 16.9135 9.62922C16.9135 9.62922 17.047 9.70936 17.1939 9.5847C17.1939 9.5847 17.1494 9.94086 17.0159 9.86963C17.0159 9.86963 16.9313 9.8162 17.0782 9.74052C17.0782 9.74052 16.8645 9.71381 16.8333 9.9186C16.8333 9.9186 16.8066 10.0744 16.9892 10.1412C16.9892 10.1412 17.1272 10.1946 16.9892 10.3015C16.9892 10.3015 16.8779 10.3772 16.9491 10.4974C16.9491 10.4974 17.0292 10.622 16.82 10.6398C16.82 10.6398 16.7131 10.6398 16.6731 10.622C16.6731 10.622 16.6285 10.7111 16.6553 10.8001C16.6553 10.8001 16.5529 10.7244 16.3214 10.809C16.0898 10.898 16.1032 10.8357 16.0898 10.8624L16.0186 10.9693C16.0186 10.9693 16.1433 11.1295 16.1477 11.1162L16.121 11.2943L16.1833 11.321L16.6642 11.1073L17.1539 10.8535L17.5501 10.8713L17.7994 10.9292L18.12 10.9559L18.3604 10.8313H18.6987L19.0727 11.0182L19.4956 11.272L19.7182 11.3165L19.8919 11.3032V10.9559L19.8117 10.8313Z" fill="#D40000" stroke="black" stroke-width="0.0567148" stroke-linejoin="round"/>
<path d="M15.9296 11.232C15.9296 11.232 16.1165 11.33 16.1967 11.2187C16.1967 11.2187 16.2946 11.0228 16.072 10.9515C16.072 10.9515 16.1967 10.8091 16.0631 10.6755C16.0631 10.6755 15.9919 10.6043 15.8761 10.6533C15.8761 10.6533 15.8227 10.5509 15.7114 10.5553C15.7114 10.5553 15.6046 10.5553 15.5778 10.6666C15.5778 10.6666 15.4354 10.6132 15.3597 10.6933C15.3597 10.6933 15.2261 10.8358 15.4087 10.9515L15.5378 10.9649L15.6624 10.9026L15.8093 10.9426C15.8093 10.9426 15.7693 11.0851 15.9296 11.232Z" fill="#D40000" stroke="black" stroke-width="0.0567148" stroke-linejoin="round"/>
<path d="M20.0877 10.8932C20.1502 10.8853 20.2136 10.8975 20.2688 10.9279C20.324 10.9583 20.3681 11.0054 20.3949 11.0624C20.5107 11.3384 20.2614 11.4898 20.2614 11.4898C20.2792 11.5476 20.2836 11.6322 20.2836 11.6322C20.6309 11.6768 20.5686 12.0685 20.5686 12.0685L20.4528 11.9706C20.2525 11.8905 20.0388 12.0685 19.8918 12.3535C19.7405 12.6473 19.8117 12.7764 19.8384 13.1237C19.8651 13.4665 20.4172 13.6757 20.4172 13.6757L19.9853 14.7887C19.8162 15.2339 19.4511 15.0514 19.3487 14.9534C19.2463 14.8644 19.2196 14.9178 19.1706 14.9534C19.1216 14.998 19.4066 15.2206 18.8812 15.4343C18.3604 15.6435 18.2713 15.8038 18.1823 15.8572C18.0932 15.9106 17.7371 15.8795 17.7015 15.8305C17.6569 15.786 17.6836 15.786 17.5456 15.7014C17.4121 15.6257 17.1806 15.5456 16.9313 15.4254C16.6819 15.3051 16.6908 15.1493 16.6953 15.1182C16.6953 15.087 16.7799 14.8288 16.4861 15.0336C16.1967 15.2428 15.9474 14.9356 15.9474 14.9356C15.8939 14.8599 15.6446 14.2055 15.6446 14.2055C15.5932 14.0232 15.5292 13.8447 15.4532 13.6713C15.4532 13.6713 15.4354 13.7069 15.6535 13.5822C15.8672 13.462 15.9652 13.2572 16.0409 13.0524C16.1165 12.8476 16.0409 12.4959 16.0141 12.4291C15.9874 12.3579 15.8272 12.0329 15.6268 11.9661C15.4309 11.8949 15.2929 12.073 15.2929 12.073C15.2929 12.073 15.235 11.6723 15.5867 11.6278C15.5867 11.6278 15.5867 11.5476 15.6046 11.4898C15.6046 11.4898 15.3552 11.3384 15.471 11.0624C15.471 11.0624 15.5511 10.8709 15.7737 10.8932L15.7248 11.0001C15.7248 11.0001 15.6713 11.561 16.4905 11.187C17.3141 10.8042 17.2919 10.7329 17.7682 10.9733L18.1066 10.9689C18.1066 10.9689 18.5963 10.7329 18.761 10.8353C18.9169 10.9377 19.4867 11.2538 19.4867 11.2538C19.4867 11.2538 20.0388 11.4631 20.1501 11.0757L20.0877 10.8932Z" fill="#64B4D1" stroke="black" stroke-width="0.0567148"/>
<path d="M17.6036 13.3378C17.6036 13.3378 17.5769 13.1642 17.5502 13.0529C17.5502 13.0529 17.4834 12.8793 17.5947 12.7502L17.7194 12.6032C17.7194 12.6032 17.7995 12.4964 17.8974 12.483C17.8974 12.483 17.9998 12.483 18.0043 12.4608C18.0176 12.4385 18.1289 12.2604 18.3872 12.4608C18.3872 12.4608 18.4673 12.3272 18.6009 12.3005C18.6009 12.3005 18.7344 12.2649 18.8012 12.3628C18.8012 12.3628 18.957 12.2471 19.0861 12.4385C19.0861 12.4385 19.2687 12.3317 19.4067 12.5409C19.4067 12.5409 19.5848 12.4519 19.6916 12.6344C19.8029 12.8258 19.7806 12.9015 19.7806 12.9015L19.8697 13.2043L20.1591 13.5604L19.4824 13.8186H19.1707L18.5608 13.9789L17.4789 14.0635L17.1807 13.7073L17.6081 13.3378H17.6036Z" fill="white" stroke="#00247D" stroke-width="0.0567148" stroke-miterlimit="10"/>
<path d="M16.6909 15.1406C16.6909 15.1406 16.5306 15.1451 16.446 15.194C16.3659 15.2297 16.2991 15.2742 16.2056 15.3365C16.2056 15.3365 16.1611 15.3944 15.9741 15.3588C15.9741 15.3588 15.6535 15.2831 15.6535 15.5369C15.6535 15.5369 15.2618 15.5636 15.422 15.9064C15.422 15.9064 15.5244 16.1735 15.747 15.9865C15.747 15.9865 15.6046 16.1868 15.8806 16.267C15.8806 16.267 16.0765 16.3204 16.1388 16.1112C16.1388 16.1112 16.17 16.031 16.0943 15.9331C16.0943 15.9331 16.1878 15.9153 16.2546 15.8129C16.2546 15.8129 16.0498 16.0711 16.2768 16.169C16.2768 16.169 16.5573 16.2358 16.5706 15.9464C16.5706 15.9464 16.5439 15.804 16.6597 15.755C16.6597 15.755 16.8823 15.7016 16.9713 15.4612C16.9713 15.4612 16.6597 15.2875 16.6909 15.1406ZM16.0364 12.5807C16.0364 12.5807 15.7871 12.4694 15.6624 12.5807C15.6624 12.5807 15.5066 12.4828 15.3285 12.5807C15.3285 12.5807 15.1638 12.6876 15.0481 12.8122C15.0481 12.8122 14.9679 12.879 14.9946 13.0972C14.9946 13.0972 15.0392 13.253 15.0169 13.3242C15.0169 13.3242 14.9635 13.3153 14.8522 13.4489C14.8522 13.4489 14.7142 13.6047 14.5851 13.4622C14.5851 13.4622 14.6296 13.667 14.8566 13.6314C14.8566 13.6314 14.7453 13.7204 14.8433 13.943C14.8433 13.943 14.9145 14.1033 14.7987 14.3081C14.7987 14.3081 14.9991 14.228 14.9946 13.9876C14.9946 13.9876 14.9724 13.8273 15.0392 13.7204C15.0392 13.7204 14.9724 13.8184 15.1104 14.0365C15.1104 14.0365 15.2172 14.1968 15.1326 14.3571C15.1326 14.3571 15.3285 14.2858 15.3107 14.0454C15.2929 13.805 15.1772 13.903 15.2484 13.6804C15.2484 13.6804 15.2707 13.7961 15.3285 13.8584C15.3729 13.8959 15.4062 13.9446 15.4251 13.9995C15.4439 14.0544 15.4474 14.1133 15.4354 14.1701C15.4354 14.1701 15.5511 14.0187 15.5244 13.8673C15.5168 13.7992 15.4972 13.7328 15.4666 13.6715L15.8405 13.4578L16.032 13.1239L16.0364 12.5807Z" fill="#D40000" stroke="black" stroke-width="0.0567148" stroke-linejoin="round"/>
<path d="M15.4666 13.5382C15.4666 13.5382 15.3107 13.5293 15.2885 13.4046M15.0169 13.3245C15.0169 13.3245 15.0703 13.3245 15.1238 13.3779C15.1238 13.3779 15.1549 13.4313 15.2083 13.4224" stroke="black" stroke-width="0.0567148" stroke-miterlimit="10"/>
<path d="M15.6982 13.0793C15.6982 13.0793 15.6181 13.0793 15.5646 13.0437C15.5646 13.0437 15.5246 13.0125 15.4978 13.0615C15.4978 13.0615 15.4533 13.1327 15.5335 13.1639C15.5335 13.1639 15.6314 13.2173 15.48 13.3153C15.48 13.3153 15.6581 13.244 15.5869 13.155C15.5869 13.155 15.5068 13.1016 15.5335 13.0793C15.5335 13.0793 15.5424 13.0615 15.578 13.0793C15.6047 13.106 15.667 13.0971 15.6982 13.0793Z" fill="black"/>
<path d="M18.1289 13.5157L18.2224 13.489L17.5991 11.3521H17.5813L18.1289 13.5157Z" fill="#784421" stroke="black" stroke-width="0.0567148"/>
<path d="M16.0632 15.8886C16.0632 15.8886 15.9207 15.804 15.7961 15.902C15.7961 15.902 15.8139 15.8485 15.9029 15.8263C15.9029 15.8263 15.9564 15.6838 16.0944 15.6972C16.0944 15.6972 16.0365 15.7684 15.9608 15.8218C15.9608 15.8218 16.0409 15.8307 16.0677 15.8886H16.0632Z" fill="black"/>
<path d="M15.551 16.2223C15.551 16.2223 15.3195 16.0798 15.4486 15.835C15.4486 15.835 15.4843 15.7682 15.551 15.7816C15.551 15.7816 15.698 15.8261 15.5867 16.0264C15.5867 16.0264 15.5243 16.1555 15.551 16.2268V16.2223ZM16.0185 16.4583C16.0185 16.4583 15.6891 16.3069 15.7914 16.0487C15.7914 16.0487 15.8226 15.9596 15.8983 15.9685C15.8983 15.9685 16.023 15.9774 16.0007 16.1466C16.0007 16.1466 15.9606 16.3069 16.0185 16.4583Z" fill="#64B4D1" stroke="#00247D" stroke-width="0.0567148" stroke-miterlimit="2.6"/>
<path d="M15.9518 15.5015C15.9518 15.5015 15.8494 15.5771 15.8138 15.6261C15.8138 15.6261 15.7692 15.5727 15.7158 15.546C15.7158 15.546 15.7826 15.5326 15.8138 15.5593C15.8138 15.5593 15.8672 15.5148 15.9473 15.5015H15.9518Z" fill="black"/>
<path d="M16.2413 16.3917C16.2413 16.3917 16.5084 16.3294 16.455 16.0578C16.455 16.0578 16.4283 15.9421 16.3214 15.9599C16.3214 15.9599 16.1878 15.9955 16.2769 16.1647C16.2769 16.1647 16.3259 16.2804 16.2413 16.3917Z" fill="#64B4D1" stroke="#00247D" stroke-width="0.0567148" stroke-miterlimit="2.6"/>
<path d="M17.4164 10.7421L17.6702 10.8266C17.6702 10.8266 17.9106 10.929 18.2178 10.8266L18.4493 10.7376L18.2935 10.978V11.1071L18.387 11.2496C18.387 11.2496 18.3291 11.2763 18.1466 11.1605C18.1466 11.1605 17.9507 11.0092 17.7192 11.1605C17.7192 11.1605 17.5856 11.2496 17.4788 11.2496L17.6346 11.0804L17.5767 10.9246L17.4164 10.7332V10.7421Z" fill="#F5CE00" stroke="black" stroke-width="0.0567148" stroke-miterlimit="2.6"/>
<path d="M16.3436 16.0757C16.3436 16.0757 16.3525 16.0579 16.3436 16.0535L16.3214 16.0624C16.3214 16.0624 16.2946 16.1069 16.3214 16.1692C16.3214 16.1692 16.3436 16.2093 16.3347 16.2494V16.2672C16.3347 16.2672 16.3481 16.2627 16.3481 16.2494C16.3481 16.2494 16.3659 16.2137 16.3392 16.1692C16.3392 16.1692 16.3124 16.1069 16.3436 16.0757Z" fill="white"/>
<path d="M19.9275 11.232C19.9275 11.232 19.7405 11.33 19.6604 11.2187C19.6604 11.2187 19.5669 11.0228 19.7895 10.9515C19.7895 10.9515 19.6648 10.8091 19.7939 10.6755C19.7939 10.6755 19.8652 10.6043 19.9809 10.6533C19.9809 10.6533 20.0344 10.5509 20.1457 10.5553C20.1457 10.5553 20.2525 10.5553 20.2792 10.6666C20.2792 10.6666 20.4261 10.6132 20.5018 10.6933C20.5018 10.6933 20.6265 10.8358 20.4484 10.9515L20.3193 10.9649L20.1902 10.9026L20.0566 10.9426C20.0566 10.9426 20.0922 11.0851 19.9231 11.232H19.9275Z" fill="#D40000" stroke="black" stroke-width="0.0567148" stroke-linejoin="round"/>
<path d="M18.4494 11.0848C18.4494 11.0848 18.4494 11.1205 18.4138 11.1294C18.4138 11.1294 18.3692 11.1427 18.347 11.0893V11.0759C18.347 11.0537 18.3336 10.9869 18.4093 10.929C18.4093 10.929 18.5251 10.8355 18.7477 10.9513C18.9624 11.072 19.1822 11.1834 19.4066 11.2852C19.4066 11.2852 19.5446 11.3564 19.7583 11.3653C19.7583 11.3653 20.0476 11.3876 20.1723 11.1828C20.1723 11.1828 20.2658 11.027 20.1723 10.9246C20.1723 10.9246 20.1322 10.8801 20.0699 10.889C20.0375 10.8962 20.0089 10.9152 19.9898 10.9424C19.9898 10.9424 19.9453 11.0047 19.9942 11.0537C19.9942 11.0537 20.0655 11.0982 20.0922 11.0092C20.0922 11.0181 20.1144 11.0848 20.0744 11.1383C20.0744 11.1383 19.8963 11.4054 19.411 11.1338L18.7744 10.7732C18.7744 10.7732 18.4583 10.6085 18.2579 10.8667C18.2579 10.8667 18.1066 11.0804 18.3069 11.2184C18.3069 11.2184 18.4583 11.3074 18.5473 11.165C18.5473 11.165 18.6275 11.027 18.5028 10.9691C18.5028 10.9691 18.396 10.9157 18.3559 11.0225C18.3114 11.1294 18.436 11.1561 18.4449 11.0804C18.4449 11.0804 18.4449 11.0626 18.4583 11.0804L18.4494 11.0848Z" fill="#F5CE00" stroke="black" stroke-width="0.0567148" stroke-miterlimit="2.6"/>
<path d="M15.9207 12.1891V11.7885C15.9207 11.7529 15.9207 11.735 15.9741 11.6905C16.0186 11.6549 16.0676 11.5881 16.1388 11.7662C16.1388 11.7662 16.2813 11.6104 16.3258 11.5881C16.3258 11.5881 16.4148 11.5213 16.4727 11.6193C16.4727 11.6193 16.5439 11.5035 16.6063 11.4768C16.6063 11.4768 16.7487 11.3878 16.7532 11.6638L16.8645 11.557C16.8645 11.557 16.9535 11.4902 17.0515 11.5881C17.0515 11.5881 17.2073 11.7484 17.2296 11.7929C17.2296 11.7929 17.2652 11.8374 17.2741 11.9131C17.2741 11.9131 17.2741 12.0022 17.3186 12.0467C17.3186 12.0467 17.3676 12.0912 17.4165 12.1001C17.4165 12.1001 17.5278 12.1046 17.5768 12.2159C17.5768 12.2159 17.5902 12.1936 17.648 12.7145V13.6717L17.007 14.433L15.9785 14.1391L15.569 13.9655L15.471 13.6717L15.8717 13.409L16.0854 12.8302L16.0186 12.4162L15.9207 12.1847V12.1891Z" fill="#E4CB5E" stroke="black" stroke-width="0.0567148" stroke-miterlimit="2.6"/>
<path d="M18.7521 12.6876L18.8056 12.6208L18.9169 12.5317C18.9169 12.5317 19.0949 12.9947 19.1038 13.0971V13.2396C19.1038 13.2396 19.371 13.3108 19.4244 13.716L19.2018 14.1256L18.8545 13.9297L18.7521 13.8629V12.692V12.6876Z" fill="#784421" stroke="black" stroke-width="0.0567148"/>
<path d="M15.4887 15.8932C15.4887 15.8932 15.4976 15.8798 15.4887 15.8665L15.4665 15.8843C15.4665 15.8843 15.3997 15.9599 15.4576 16.0802C15.4576 16.0802 15.4576 16.098 15.4709 16.0891C15.4709 16.0891 15.4843 16.0891 15.4709 16.0757C15.4709 16.0757 15.4219 15.9689 15.4887 15.8976V15.8932Z" fill="white"/>
<path d="M16.5307 15.8128C16.5307 15.8128 16.5352 15.7772 16.5129 15.7416C16.5129 15.7416 16.4995 15.7149 16.504 15.6748M16.7533 11.6636C16.7533 11.6636 16.7533 11.766 16.7845 11.8417C16.8112 11.9129 16.9136 12.042 16.918 12.1043" stroke="black" stroke-width="0.0567148" stroke-miterlimit="10"/>
<path d="M19.1707 15.1409C19.1707 15.1409 19.3309 15.1453 19.4155 15.1943C19.5046 15.2299 19.5669 15.2744 19.6604 15.3368C19.6604 15.3368 19.7049 15.3946 19.8919 15.359C19.8919 15.359 20.2124 15.2833 20.2124 15.5371C20.2124 15.5371 20.5998 15.5638 20.4439 15.9066C20.4439 15.9066 20.3371 16.1737 20.1145 15.9868C20.1145 15.9868 20.257 16.1871 19.9809 16.2672C19.9809 16.2672 19.785 16.3207 19.7272 16.1114C19.7272 16.1114 19.6916 16.0313 19.7717 15.9333C19.7717 15.9333 19.6782 15.9155 19.6159 15.8131C19.6159 15.8131 19.8162 16.0713 19.5936 16.1693C19.5936 16.1693 19.3131 16.2361 19.2953 15.9467C19.2953 15.9467 19.3176 15.8042 19.2063 15.7552C19.2063 15.7552 18.9837 15.7018 18.8857 15.4614C18.8857 15.4614 19.2063 15.2878 19.1751 15.1409H19.1707Z" fill="#D40000" stroke="black" stroke-width="0.0567148" stroke-linejoin="round"/>
<path d="M16.624 12.1088L16.8911 14.2369M16.6908 12.1044L16.9846 14.09M16.7398 12.0955L17.087 14.0632" stroke="black" stroke-width="0.0567148" stroke-miterlimit="10"/>
<path d="M17.2829 13.8942L17.3809 13.863L16.7576 11.7261H16.7354L17.2829 13.8942Z" fill="#784421" stroke="black" stroke-width="0.0567148"/>
<path d="M16.9313 12.0151L17.559 13.5956M16.8912 12.0374L17.4967 13.6846" stroke="black" stroke-width="0.0567148" stroke-miterlimit="10"/>
<path d="M15.9028 16.3027C15.9028 16.3027 15.8271 16.2359 15.8405 16.1112C15.8405 16.1112 15.8405 16.0845 15.8271 16.0801C15.8271 16.0801 15.8138 16.0756 15.8138 16.1068C15.8138 16.1068 15.7915 16.2359 15.8806 16.3071C15.8806 16.3071 15.885 16.3205 15.8984 16.316C15.8984 16.316 15.9073 16.316 15.8984 16.3027H15.9028Z" fill="white"/>
<path d="M16.9669 11.9932L17.6035 13.4356M16.7888 12.0822L17.1895 14.0277" stroke="black" stroke-width="0.0567148" stroke-miterlimit="10"/>
<path d="M20.0165 13.5158C19.736 13.3555 19.6737 13.0083 19.6737 13.0083C19.6335 12.7937 19.6583 12.572 19.7449 12.3716C19.923 11.9888 20.2391 11.9131 20.2391 11.9131C20.2391 11.9131 19.9319 12.1268 19.8473 12.4117C19.8473 12.4117 19.785 12.6566 19.8206 12.8881C19.8562 13.1329 19.8429 13.0706 19.9008 13.2576L20.0165 13.5247V13.5158Z" fill="#F5CE00" stroke="black" stroke-width="0.0567148" stroke-miterlimit="2.6"/>
<path d="M18.8011 12.6121L17.6168 12.9905L17.5545 13.5247C17.274 13.9299 16.6997 14.0011 16.6997 14.0011L17.1449 14.4775L17.9908 14.6555L18.4449 14.3083L18.8545 13.9343C18.81 13.734 18.8322 13.4357 18.8322 13.4357C18.8322 13.3823 18.8545 13.2665 18.8545 13.2665C18.8545 13.2665 18.7877 12.7901 18.8011 12.621V12.6121Z" fill="#784421" stroke="black" stroke-width="0.0567148"/>
<path d="M17.5678 13.391C17.5678 13.391 18.3513 13.1461 18.8143 12.9458M17.1938 13.8362C17.1938 13.8362 18.1732 13.6581 18.8544 13.2663L19.1037 13.0972" stroke="black" stroke-width="0.0567148" stroke-miterlimit="10"/>
<path d="M19.1038 13.2397L18.8367 13.4356C18.8367 13.4356 17.746 13.9343 16.9135 13.9521M18.8323 13.7918C18.8323 13.7918 17.9953 14.2281 17.5234 14.2281" stroke="black" stroke-width="0.0567148" stroke-miterlimit="10"/>
<path d="M19.8296 12.5807C19.8296 12.5807 20.0789 12.4694 20.2035 12.5807C20.2035 12.5807 20.3638 12.4828 20.5419 12.5807C20.5419 12.5807 20.7022 12.6876 20.8179 12.8122C20.8179 12.8122 20.898 12.879 20.8713 13.0972C20.8713 13.0972 20.8268 13.253 20.858 13.3242C20.858 13.3242 20.9069 13.3153 21.0138 13.4489C21.0138 13.4489 21.1607 13.6047 21.2809 13.4622C21.2809 13.4622 21.2453 13.667 21.0138 13.6314C21.0138 13.6314 21.1206 13.7204 21.0272 13.943C21.0272 13.943 20.9559 14.1033 21.0717 14.3081C21.0717 14.3081 20.8669 14.228 20.8758 13.9876C20.8758 13.9876 20.8936 13.8273 20.8313 13.7204C20.8313 13.7204 20.8936 13.8184 20.7556 14.0365C20.7556 14.0365 20.6487 14.1968 20.7378 14.3571C20.7378 14.3571 20.5374 14.2858 20.5597 14.0454C20.573 13.805 20.6933 13.903 20.6176 13.6804C20.6176 13.6804 20.5998 13.7961 20.5419 13.8584C20.4975 13.8959 20.4642 13.9446 20.4454 13.9995C20.4265 14.0544 20.423 14.1133 20.435 14.1701C20.435 14.1701 20.3193 14.0187 20.346 13.8673C20.3727 13.7115 20.3994 13.6715 20.3994 13.6715L20.0299 13.4578L19.8429 13.1239L19.8296 12.5807Z" fill="#D40000" stroke="black" stroke-width="0.0567148" stroke-linejoin="round"/>
<path d="M15.5912 13.934C15.5912 13.934 15.6269 13.7693 15.7827 13.8272C15.7827 13.8272 15.8361 13.56 16.1255 13.5511C16.4149 13.5422 16.4282 13.8361 16.4282 13.8539C16.4282 13.8539 16.5173 13.7292 16.6553 13.7426C16.6553 13.7426 16.9001 13.7292 16.8155 14.121L16.8601 14.1744C16.8601 14.1744 17.0426 13.7337 17.4255 13.845C17.4255 13.845 17.7994 13.9607 17.559 14.3213C17.559 14.3213 17.746 14.5662 17.8974 14.5439C18.0577 14.5217 18.1957 14.4727 18.3515 14.1967C18.5118 13.9207 18.8724 13.8761 18.9614 13.8939C19.0505 13.9073 19.1261 13.9741 19.1395 14.0364C19.1395 14.0364 19.3309 13.3998 20.021 13.4933L20.297 13.6402L20.4039 13.6847L20.2436 14.1299L19.8696 14.9847L19.5758 15.0737L19.2731 14.9001L19.1662 14.9535V15.2162L18.7655 15.5011L18.4895 15.6124L18.1868 15.8261L18.1111 16.0131C18.1111 16.0131 17.9464 15.9374 17.7549 16.0131L17.6926 15.8528L17.5145 15.6881L16.82 15.3587L16.6998 14.958L16.5707 14.9001L16.4282 15.0604L16.2279 15.0871L15.9162 14.8734L15.5868 13.9385L15.5912 13.934Z" fill="white" stroke="#00247D" stroke-width="0.0567148" stroke-miterlimit="10"/>
<path d="M18.6008 10.7998C18.6008 10.7998 18.3337 10.7909 18.347 11.067" stroke="black" stroke-width="0.0567148" stroke-miterlimit="2.6"/>
<path d="M20.3281 13.7069C19.874 13.5645 19.7493 13.0703 19.7493 13.0703C19.6949 12.8403 19.7136 12.5991 19.8028 12.3802C20.0164 11.8905 20.3682 11.8905 20.3682 11.8905C20.4135 11.884 20.4595 11.8951 20.4969 11.9216C20.5342 11.9482 20.5598 11.988 20.5685 12.033C20.5863 12.1398 20.5106 12.1799 20.5106 12.1799C20.3904 12.2467 20.3103 12.1576 20.3103 12.1576C20.2569 12.0864 20.2969 12.0285 20.2969 12.0285C20.3281 11.984 20.386 12.0107 20.386 12.0107C20.4438 12.0196 20.4305 12.0819 20.4305 12.0819C20.4305 12.0819 20.4483 12.0107 20.3771 12.0018C20.3771 12.0018 20.2346 11.9706 20.0743 12.171C20.0743 12.171 19.8651 12.4426 19.8651 12.7987C19.8651 12.7987 19.8384 13.4576 20.5195 13.6268C20.5195 13.6268 20.4483 13.7336 20.3147 14.121C20.3147 14.121 20.1678 14.6196 20.0298 14.8912C20.0298 14.8912 19.8384 15.274 19.411 15.1182C19.411 15.1182 19.1617 15.0069 19.1617 14.8288C19.1617 14.8288 19.1483 14.6597 19.2952 14.6508C19.2952 14.6508 19.4421 14.6374 19.4421 14.7621C19.4421 14.7621 19.4421 14.8956 19.2863 14.8689C19.2863 14.8689 19.2329 14.8555 19.2373 14.8021C19.2373 14.8021 19.2463 14.7487 19.3175 14.7754C19.3843 14.8021 19.3175 14.7754 19.3175 14.771C19.3175 14.771 19.2908 14.7576 19.2641 14.771C19.2641 14.771 19.2373 14.771 19.2373 14.8155C19.2373 14.8155 19.2373 14.8422 19.2685 14.8644L19.3442 14.8734C19.3442 14.8734 19.3887 14.9624 19.4778 14.9936C19.531 15.01 19.5873 15.0137 19.6422 15.0044C19.697 14.9951 19.749 14.9731 19.7938 14.9401C19.8536 14.8884 19.8995 14.8226 19.9274 14.7487C20.0173 14.5535 20.0946 14.3527 20.1589 14.1477C20.1589 14.1477 20.239 13.8939 20.3103 13.7604L20.3281 13.7069Z" fill="#F5CE00" stroke="black" stroke-width="0.0567148" stroke-miterlimit="2.6"/>
<path d="M19.037 14.9583C19.037 14.9583 19.126 14.9494 19.126 15.025C19.126 15.025 19.1216 15.1319 18.9836 15.1096C18.9836 15.1096 18.85 15.0829 18.8945 14.9316C18.8945 14.9316 18.9301 14.8292 19.0548 14.8425C19.0548 14.8425 19.1795 14.8425 19.2329 15.0117C19.2329 15.0117 19.2774 15.1586 19.2017 15.2788C19.1216 15.4124 18.9257 15.5014 18.8278 15.5459C18.8278 15.5459 18.4404 15.6928 18.3247 15.7819C18.3247 15.7819 18.1466 15.911 18.2267 16.0312C18.2267 16.0312 18.2579 16.0802 18.3024 16.0802C18.3024 16.0802 18.3558 16.0802 18.3603 16.0267C18.3603 16.0267 18.3603 16.0579 18.3291 16.0713C18.3291 16.0713 18.2935 16.0891 18.2534 16.0579C18.2534 16.0579 18.2089 16.0134 18.2445 15.9511C18.2445 15.9511 18.2891 15.8798 18.4048 15.9243C18.4048 15.9243 18.4939 15.9733 18.4582 16.0713C18.4582 16.0713 18.4182 16.1648 18.3069 16.1603C18.3069 16.1603 18.2223 16.1603 18.1644 16.1069C18.0754 16.0134 18.0754 15.8398 18.1555 15.7507C18.1555 15.7507 18.2223 15.6572 18.3647 15.5904L18.7654 15.4346C18.8812 15.3857 18.9836 15.3322 19.0504 15.2521C19.0504 15.2521 19.1082 15.1898 19.1305 15.074C19.1305 15.074 19.1483 14.985 19.0949 14.9672L19.0414 14.9538L19.037 14.9583Z" fill="#F5CE00" stroke="black" stroke-width="0.0567148" stroke-miterlimit="2.6"/>
<path d="M19.0461 14.9583C19.0461 14.9583 19.1395 14.9405 19.2019 15.0562C19.2019 15.0562 19.233 15.123 19.2375 15.1675M19.2687 14.7668C19.2687 14.7668 19.1752 14.7802 19.2241 14.9182C19.2731 15.0473 19.3577 15.0829 19.38 15.1052" stroke="black" stroke-width="0.0567148" stroke-miterlimit="2.6"/>
<path d="M17.4166 11.0851C17.4166 11.0851 17.4166 11.1207 17.4611 11.1296C17.4611 11.1296 17.4967 11.1385 17.519 11.0895V11.0762C17.519 11.0539 17.5323 10.9871 17.4655 10.9293C17.4655 10.9293 17.3409 10.8358 17.1183 10.9515C17.1183 10.9515 16.9402 11.0406 16.82 11.1118C16.82 11.1118 16.5039 11.281 16.4638 11.2899C16.4638 11.2899 16.3214 11.3611 16.1077 11.37C16.1077 11.37 15.8183 11.3923 15.6981 11.1875C15.6981 11.1875 15.6002 11.0317 15.6981 10.9293C15.6981 10.9293 15.7337 10.8848 15.796 10.8937C15.8228 10.8981 15.8495 10.9115 15.8762 10.9471C15.8762 10.9471 15.9207 11.0094 15.8717 11.0584C15.8717 11.0584 15.8005 11.1029 15.7738 11.0139C15.7738 11.0228 15.7604 11.0851 15.796 11.1474C15.796 11.1474 15.9741 11.4101 16.4549 11.1341L17.0916 10.7779C17.0916 10.7779 17.4121 10.6132 17.608 10.8669C17.608 10.8669 17.7594 11.0806 17.5635 11.2231C17.5635 11.2231 17.4166 11.3121 17.3186 11.1697C17.3186 11.1697 17.2474 11.0361 17.3631 10.9738C17.3631 10.9738 17.47 10.9204 17.519 11.0272C17.5635 11.1341 17.4299 11.1608 17.421 11.0851C17.421 11.0851 17.421 11.0673 17.4166 11.0851ZM15.8495 13.5203C16.1299 13.3645 16.1967 13.0084 16.1967 13.0084C16.2591 12.6522 16.121 12.3717 16.121 12.3717C15.943 11.9889 15.6313 11.9132 15.6313 11.9132C15.6313 11.9132 15.9341 12.1269 16.0186 12.4118C16.0186 12.4118 16.0899 12.6567 16.0454 12.8882C16.0097 13.133 16.0231 13.0707 15.9652 13.2577L15.8495 13.5203Z" fill="#F5CE00" stroke="black" stroke-width="0.0567148" stroke-miterlimit="2.6"/>
<path d="M17.2742 10.7998C17.2742 10.7998 17.5413 10.7909 17.5235 11.067" stroke="black" stroke-width="0.0567148" stroke-miterlimit="2.6"/>
<path d="M15.5333 13.7069C15.9919 13.5645 16.1121 13.0703 16.1121 13.0703C16.1679 12.8408 16.1508 12.5996 16.0631 12.3802C15.8494 11.8905 15.4977 11.8905 15.4977 11.8905C15.4524 11.884 15.4063 11.8951 15.369 11.9216C15.3317 11.9482 15.306 11.988 15.2974 12.033C15.284 12.1398 15.3552 12.1799 15.3552 12.1799C15.4799 12.2467 15.56 12.1576 15.56 12.1576C15.609 12.0864 15.5689 12.0285 15.5689 12.0285C15.5378 11.984 15.4799 12.0107 15.4799 12.0107C15.4265 12.0196 15.4354 12.0819 15.4354 12.0819C15.4354 12.0819 15.422 12.0107 15.4888 12.0018C15.4888 12.0018 15.6313 11.9706 15.7915 12.171C15.7915 12.171 16.0052 12.4426 16.0052 12.7987C16.0052 12.7987 16.0319 13.4576 15.3463 13.6268C15.3463 13.6268 15.422 13.7336 15.5511 14.121C15.5511 14.121 15.7025 14.6196 15.8449 14.8912C15.8449 14.8912 16.0319 15.274 16.4549 15.1182C16.4549 15.1182 16.7042 15.0069 16.7042 14.8288C16.7042 14.8288 16.722 14.6597 16.5706 14.6508C16.5706 14.6508 16.4237 14.6374 16.4237 14.7621C16.4237 14.7621 16.4237 14.8956 16.584 14.8689C16.584 14.8689 16.6374 14.8555 16.6285 14.8021C16.6285 14.8021 16.6196 14.7487 16.5528 14.7754C16.4816 14.8021 16.5528 14.7754 16.5528 14.771C16.5528 14.771 16.5751 14.7576 16.6018 14.771C16.6018 14.771 16.6285 14.771 16.6285 14.8155C16.6285 14.8155 16.6285 14.8422 16.5973 14.8644L16.5306 14.8734C16.5306 14.8734 16.486 14.9624 16.3881 14.9936C16.3358 15.0111 16.2799 15.0154 16.2256 15.0061C16.1712 14.9967 16.1199 14.9741 16.0765 14.9401C16.0167 14.8884 15.9708 14.8226 15.9429 14.7487C15.8515 14.5536 15.7727 14.3528 15.7069 14.1477C15.7069 14.1477 15.6268 13.8939 15.5645 13.7604L15.5378 13.7069H15.5333Z" fill="#F5CE00" stroke="black" stroke-width="0.0567148" stroke-miterlimit="2.6"/>
<path d="M16.8333 14.9583C16.8333 14.9583 16.7443 14.9494 16.7443 15.025C16.7443 15.025 16.7443 15.1319 16.8867 15.1096C16.8867 15.1096 17.0203 15.0829 16.9713 14.9316C16.9713 14.9316 16.9402 14.8292 16.8111 14.8425C16.8111 14.8425 16.6908 14.8425 16.633 15.0117C16.633 15.0117 16.5929 15.1586 16.6686 15.2788C16.7487 15.4124 16.9446 15.5014 17.0381 15.5459C17.0381 15.5459 17.4254 15.6928 17.5456 15.7819C17.5456 15.7819 17.7193 15.911 17.6391 16.0312C17.6391 16.0312 17.6124 16.0802 17.5634 16.0802C17.5634 16.0802 17.51 16.0802 17.5056 16.0267C17.5056 16.0267 17.5056 16.0579 17.5367 16.0713C17.5367 16.0713 17.5768 16.0891 17.6124 16.0579C17.6124 16.0579 17.6569 16.0134 17.6213 15.9511C17.6213 15.9511 17.5768 15.8798 17.47 15.9243C17.47 15.9243 17.372 15.9733 17.4165 16.0713C17.4165 16.0713 17.4477 16.1648 17.559 16.1603C17.559 16.1603 17.648 16.1603 17.7015 16.1069C17.7905 16.0134 17.7905 15.8398 17.7193 15.7507C17.7193 15.7507 17.6436 15.6572 17.5056 15.5904C17.421 15.5637 17.2607 15.497 17.1049 15.4346C16.9847 15.3857 16.8823 15.3322 16.8155 15.2521C16.8155 15.2521 16.7576 15.1898 16.7354 15.074C16.7354 15.074 16.722 14.985 16.7754 14.9672L16.8289 14.9538L16.8333 14.9583Z" fill="#F5CE00" stroke="black" stroke-width="0.0567148" stroke-miterlimit="2.6"/>
<path d="M16.82 14.9582C16.82 14.9582 16.7265 14.9404 16.6686 15.0561C16.6686 15.0561 16.6375 15.1229 16.6286 15.1674M16.5974 14.7667C16.5974 14.7667 16.6954 14.7801 16.6464 14.9181C16.593 15.0472 16.5128 15.0828 16.4861 15.1051M17.706 11.0493C17.706 11.0493 17.9375 10.9024 18.169 11.0627M16.4015 12.4561C16.4015 12.4561 16.4327 12.3226 16.2858 12.1C16.2858 12.1 16.1878 11.8907 16.1433 11.7661M16.4728 11.6192L16.5752 11.913L16.7087 12.2157" stroke="black" stroke-width="0.0567148" stroke-miterlimit="2.6"/>
<path d="M16.5084 12.5939C16.5084 12.5939 16.5974 12.6874 16.5885 12.8433M16.2279 12.4915C16.2279 12.4915 16.3214 12.5361 16.3125 12.7943C16.3125 12.7943 16.3081 12.9724 16.4461 13.0703M16.2101 13.1326C16.2101 13.1326 16.5084 13.1015 16.5307 13.2885C16.5307 13.2885 16.5307 13.4665 16.6375 13.4799C16.6375 13.4799 16.7844 13.4932 16.8156 13.6402M16.3081 13.3374C16.3081 13.3374 16.3615 13.4131 16.4149 13.4532M16.6909 13.1415C16.6909 13.1415 16.7622 13.2617 16.78 13.3241M17.0159 11.7659C17.0159 11.7659 17.0872 11.8594 17.1539 11.8994M17.292 12.3268C17.292 12.3268 17.4433 12.3981 17.4255 12.772C17.4255 12.772 17.3988 12.9946 17.4656 13.1148" stroke="black" stroke-width="0.0567148" stroke-miterlimit="10"/>
<path d="M16.593 12.0732L16.6108 12.1088C16.6108 12.1088 16.8779 12.1222 17.0159 11.9396L17.0025 11.904C17.0025 11.904 16.7666 11.8907 16.6019 12.0732H16.593Z" fill="#784421" stroke="black" stroke-width="0.0567148"/>
<path d="M17.5545 13.4936C17.5545 13.4936 18.4716 13.2264 18.8277 13.0662" stroke="black" stroke-width="0.0567148" stroke-miterlimit="10"/>
<path d="M17.4566 11.8015L17.4477 11.7748L17.8974 11.5967L17.9107 11.6323L17.4566 11.8015Z" fill="#784421" stroke="black" stroke-width="0.0567148"/>
<path d="M17.4966 11.784L17.7993 13.2665M17.55 11.7707L17.8928 13.2398M17.6079 11.7439L17.9819 13.2087M17.7593 11.6905L18.2712 12.7857M17.826 11.6727L18.3736 12.7501M17.8706 11.646L18.4671 12.7278M17.7771 13.2799L18.0086 13.2087M17.6034 13.1374C17.6034 13.1374 18.2801 12.9371 18.8055 12.7278M17.5856 13.2042C17.5856 13.2042 18.4538 12.9816 18.7966 12.8124M17.8527 13.9076L17.8973 14.0545L18.0219 14.01L17.9774 13.872M18.2 13.8141L18.2445 13.9477L18.3692 13.9076L18.3247 13.7741M17.6123 12.9905L17.6034 12.8035L18.7387 12.4607L18.7966 12.621M18.0842 12.6566L18.1421 12.8258M18.4805 12.5409L18.5517 12.7011M18.574 12.5097L18.6452 12.6566M18.663 12.4785L18.7342 12.6388M18.7342 12.4607L18.8589 12.3895L18.9123 12.5275M18.7966 12.4251L18.8589 12.572" stroke="black" stroke-width="0.0567148" stroke-miterlimit="10"/>
<path d="M15.9874 14.5884C15.9874 14.5884 15.7648 14.3613 15.9874 14.1432C15.9874 14.1432 15.7425 14.0274 15.7826 13.8315M16.388 14.7665C16.388 14.7665 16.1521 14.7976 16.2233 14.348C16.2233 14.348 16.1254 14.5261 16.0942 14.6151C16.0803 14.6594 16.0815 14.707 16.0976 14.7505C16.1137 14.7941 16.1438 14.831 16.1832 14.8555C16.2233 14.8822 16.4281 14.9356 16.4949 14.8021M16.1254 14.0809C16.1254 14.0809 16.0319 14.1654 16.0987 14.3213M16.2233 14.0987C16.2233 14.0987 16.2322 14.2545 16.3124 14.3391M16.2901 14.0408C16.2901 14.0408 16.2901 14.2189 16.4192 14.3346M16.3524 13.9785C16.3524 13.9785 16.3524 14.1788 16.5038 14.3079M17.1048 14.2767C17.1048 14.2767 17.176 14.1031 17.3363 14.1165C17.3363 14.1165 17.2606 14.1521 17.2606 14.2278C17.2606 14.2278 17.2517 14.3613 17.3897 14.3702C17.3897 14.3702 17.501 14.388 17.5589 14.3257" stroke="#00247D" stroke-width="0.0567148" stroke-miterlimit="10"/>
<path d="M17.4833 15.0339C17.4833 15.0339 17.0871 14.8469 17.1272 14.5842C17.1272 14.5842 17.145 14.4239 17.3053 14.3438M17.2162 14.513C17.2162 14.513 17.1806 14.6243 17.2607 14.7044M17.3097 14.4373C17.3097 14.4373 17.2563 14.562 17.3409 14.651M17.4076 14.3705C17.4076 14.3705 17.3453 14.4774 17.4166 14.5709M17.0426 15.0606C17.0426 15.0606 17.2563 15.252 17.4255 15.252M16.9758 15.1229C16.9758 15.1229 17.1761 15.2832 17.3053 15.3099M16.9046 15.1674C16.9046 15.1674 17.1494 15.3856 17.3053 15.3989M17.9152 15.6037C17.9152 15.6037 17.6703 15.7373 17.8618 15.8798M17.7549 15.4613L18.1556 15.2565M17.8573 15.5325C17.8573 15.5325 18.258 15.2876 18.3782 15.2342M18.0665 15.5548C18.0665 15.5548 18.4094 15.3233 18.5963 15.2209M18.2936 15.5369C18.2936 15.5369 18.5296 15.3589 18.7611 15.2209M18.8367 14.9938C18.8367 14.9938 18.721 14.8202 18.3381 14.9938C18.3381 14.9938 18.485 14.8647 18.7611 14.7623M19.1395 14.0366C19.1395 14.0366 19.1751 14.1746 19.1395 14.2592" stroke="#00247D" stroke-width="0.0567148" stroke-miterlimit="10"/>
<path d="M18.525 14.7045C18.525 14.7045 18.6051 14.5888 18.8055 14.5264C18.8055 14.5264 18.8589 14.66 19.0192 14.6377C19.0192 14.6377 19.2507 14.5888 19.1794 14.3261C19.1794 14.3261 19.1305 14.1391 18.8589 14.1169M19.6647 13.7919C19.6647 13.7919 19.9363 13.8453 19.9318 14.0634C19.9318 14.0634 19.9585 14.4018 19.6024 14.4641M19.8962 13.9299C19.8962 13.9299 19.9675 13.7652 20.1411 13.6984M19.9363 13.6004C19.9363 13.6004 20.012 13.7251 20.0609 13.7384M19.9007 13.6939C19.9007 13.6939 19.9675 13.7874 19.9897 13.8052M19.874 13.783C19.8928 13.8097 19.9153 13.8336 19.9407 13.8542M18.4582 12.483C18.4582 12.483 18.5116 12.3939 18.6497 12.4296M19.1884 13.133C19.1884 13.133 19.2774 12.7857 19.5668 12.9104M19.451 12.8837C19.451 12.8837 19.4777 12.7234 19.4065 12.6388M19.2462 12.8703C19.2462 12.8703 19.2863 12.9371 19.2507 12.9905" stroke="#00247D" stroke-width="0.0567148" stroke-miterlimit="10"/>
<path d="M19.8474 16.4542C19.8474 16.4542 20.1768 16.3072 20.0744 16.049C20.0744 16.049 20.0433 15.96 19.9676 15.9689C19.9676 15.9689 19.8429 15.9733 19.8652 16.147C19.8652 16.147 19.9097 16.3161 19.8429 16.4586L19.8474 16.4542Z" fill="#64B4D1" stroke="#00247D" stroke-width="0.0567148" stroke-miterlimit="2.6"/>
<path d="M19.9632 16.3027C19.9632 16.3027 20.0388 16.2359 20.0299 16.1112C20.0299 16.1112 20.021 16.0845 20.0299 16.0801C20.0299 16.0801 20.0478 16.0756 20.0478 16.1068C20.0478 16.1068 20.07 16.2359 19.9854 16.3071C19.9854 16.3071 19.981 16.3205 19.9676 16.316C19.9676 16.316 19.9587 16.316 19.9676 16.3027H19.9632Z" fill="white"/>
<path d="M20.3148 16.2223C20.3148 16.2223 20.5463 16.0798 20.4216 15.835C20.4216 15.835 20.3816 15.7682 20.3148 15.7816C20.3148 15.7816 20.1723 15.8261 20.2836 16.0264C20.2836 16.0264 20.337 16.1555 20.3148 16.2268V16.2223Z" fill="#64B4D1" stroke="#00247D" stroke-width="0.0567148" stroke-miterlimit="2.6"/>
<path d="M20.3727 15.8932C20.3727 15.8932 20.3638 15.8798 20.3727 15.8665L20.3905 15.8843C20.3905 15.8843 20.4573 15.9599 20.4039 16.0802C20.4039 16.0802 20.3994 16.098 20.3816 16.0891V16.0757C20.3816 16.0757 20.435 15.9689 20.3727 15.8976V15.8932Z" fill="white"/>
<path d="M19.6157 16.3917C19.6157 16.3917 19.3575 16.3294 19.4065 16.0578C19.4065 16.0578 19.4332 15.9421 19.5445 15.9599C19.5445 15.9599 19.6781 15.9955 19.589 16.1647C19.589 16.1647 19.54 16.2804 19.6202 16.3917H19.6157Z" fill="#64B4D1" stroke="#00247D" stroke-width="0.0567148" stroke-miterlimit="2.6"/>
<path d="M19.5178 16.0757V16.0535C19.5178 16.0535 19.5356 16.0535 19.5401 16.0624C19.5401 16.0624 19.5668 16.1069 19.5445 16.1692C19.5445 16.1692 19.5223 16.2093 19.5356 16.2494C19.5356 16.2494 19.5356 16.2627 19.5223 16.2672L19.5134 16.2494C19.5134 16.2494 19.5 16.2137 19.5223 16.1692C19.5223 16.1692 19.549 16.1069 19.5223 16.0757H19.5178Z" fill="white"/>
<path d="M19.8028 15.8888C19.8028 15.8888 19.9542 15.8042 20.07 15.9021C20.07 15.9021 20.0611 15.8487 19.9631 15.8265C19.9631 15.8265 19.9186 15.684 19.7761 15.6974C19.7761 15.6974 19.8295 15.7686 19.9097 15.822C19.9097 15.822 19.8295 15.8309 19.8028 15.8888ZM19.9097 15.5015C19.9097 15.5015 20.0165 15.5771 20.0521 15.6261C20.0521 15.6261 20.0922 15.5727 20.1412 15.546C20.1412 15.546 20.0878 15.5326 20.0521 15.5593C20.0521 15.5593 20.0032 15.5148 19.9186 15.5015H19.9097Z" fill="black"/>
<path d="M19.3398 15.8131C19.3398 15.8131 19.3264 15.7775 19.3531 15.7419C19.3531 15.7419 19.3709 15.7152 19.362 15.6751M20.4038 13.5382C20.4038 13.5382 20.5596 13.5293 20.5819 13.4046M20.849 13.3245C20.849 13.3245 20.7956 13.3245 20.7511 13.3779C20.7511 13.3779 20.711 13.4313 20.662 13.4224" stroke="black" stroke-width="0.0567148" stroke-miterlimit="10"/>
<path d="M20.1769 13.0793C20.1769 13.0793 20.257 13.0793 20.2971 13.0437C20.2971 13.0437 20.3461 13.0125 20.3728 13.0615C20.3728 13.0615 20.4173 13.1327 20.3372 13.1639C20.3372 13.1639 20.2392 13.2173 20.3951 13.3153C20.3951 13.3153 20.2081 13.244 20.2882 13.155C20.2882 13.155 20.3683 13.1016 20.3327 13.0793C20.3327 13.0793 20.3238 13.0615 20.2927 13.0793C20.2615 13.106 20.1992 13.0971 20.1769 13.0793Z" fill="black"/>
<path d="M20.2837 11.1386C20.2837 11.1386 20.3193 11.0851 20.3059 10.9427C20.2881 10.8002 20.4217 10.778 20.4662 10.818C20.4662 10.818 20.5196 10.8625 20.4662 10.956C20.4293 11.0368 20.3645 11.1016 20.2837 11.1386Z" fill="#64B4D1" stroke="#00247D" stroke-width="0.0567148" stroke-miterlimit="2.6"/>
<path d="M20.3282 11.0224C20.3282 11.0224 20.3816 10.9735 20.3549 10.8622L20.3638 10.8533H20.3772C20.3772 10.8533 20.4039 10.9779 20.3504 11.0403C20.3504 11.0403 20.3415 11.0536 20.3282 11.0403V11.0224Z" fill="white"/>
<path d="M20.2436 11.0847C20.2436 11.0847 20.2436 11.0223 20.1412 10.9244C20.0344 10.8176 20.119 10.7285 20.1858 10.7285C20.1858 10.7285 20.2436 10.7285 20.2748 10.8309C20.2949 10.9165 20.2839 11.0065 20.2436 11.0847Z" fill="#64B4D1" stroke="#00247D" stroke-width="0.0567148" stroke-miterlimit="2.6"/>
<path d="M20.2303 10.9513C20.2303 10.9513 20.2303 10.8801 20.1324 10.8044V10.7866H20.1502C20.1502 10.7866 20.2526 10.8668 20.2526 10.9558C20.2526 10.9558 20.2526 10.9692 20.2392 10.9692C20.2392 10.9692 20.2303 10.9692 20.2303 10.9513Z" fill="white"/>
<path d="M20.1056 11.0359C20.1056 11.0359 20.0744 10.9913 19.9498 10.9424C19.8207 10.8978 19.8518 10.7865 19.9053 10.7643C19.9053 10.7643 19.9631 10.742 20.021 10.8133C20.0736 10.8754 20.1021 10.9544 20.1011 11.0359H20.1056Z" fill="#64B4D1" stroke="#00247D" stroke-width="0.0567148" stroke-miterlimit="2.6"/>
<path d="M20.0432 10.947C20.0432 10.947 20.0164 10.8847 19.9007 10.8535C19.9007 10.8535 19.8918 10.8535 19.8918 10.8402C19.8918 10.8402 19.8918 10.8313 19.9051 10.8357C19.9051 10.8357 20.0342 10.8624 20.0699 10.9426L20.0654 10.9559C20.0654 10.9559 20.0521 10.9559 20.0476 10.947H20.0432Z" fill="white"/>
<path d="M20.1812 11.0847C20.1812 11.0847 20.1233 11.107 19.9853 11.0402C19.8473 10.9734 19.7894 11.0892 19.8161 11.1426C19.8161 11.1426 19.8384 11.2138 19.9408 11.196C20.0313 11.1911 20.1168 11.1531 20.1812 11.0892V11.0847Z" fill="#64B4D1" stroke="#00247D" stroke-width="0.0567148" stroke-miterlimit="2.6"/>
<path d="M19.8651 11.1294C19.8651 11.1294 19.9275 11.1739 20.0388 11.1294H20.0521C20.0521 11.1294 20.0521 11.1383 20.0432 11.1428C20.0432 11.1428 19.9275 11.1962 19.8473 11.1472C19.8473 11.1472 19.8384 11.1472 19.8473 11.1338H19.8651V11.1294Z" fill="white"/>
<path d="M19.9854 10.6531C19.9854 10.6531 20.0477 10.6887 20.0388 10.7644" stroke="black" stroke-width="0.0567148" stroke-miterlimit="2.6"/>
<path d="M20.2837 10.6663C20.2837 10.6663 20.3104 10.7508 20.2837 10.7998" stroke="black" stroke-width="0.0567148" stroke-miterlimit="10"/>
<path d="M15.5734 11.1382C15.5734 11.1382 15.5378 11.0848 15.5512 10.9424C15.569 10.791 15.4399 10.7776 15.3953 10.8177C15.3953 10.8177 15.3419 10.8622 15.3864 10.9557C15.4244 11.0373 15.4909 11.1022 15.5734 11.1382Z" fill="#64B4D1" stroke="#00247D" stroke-width="0.0567148" stroke-miterlimit="2.6"/>
<path d="M15.5245 11.0224C15.5245 11.0224 15.4799 10.9735 15.4977 10.8622V10.8533H15.4799C15.4799 10.8533 15.4577 10.9779 15.5111 11.0403C15.5111 11.0403 15.52 11.0536 15.5245 11.0403V11.0224Z" fill="white"/>
<path d="M15.6179 11.0847C15.6179 11.0847 15.6179 11.0223 15.7247 10.9244C15.8271 10.8176 15.7425 10.7285 15.6802 10.7285C15.6802 10.7285 15.6089 10.7285 15.5911 10.8309C15.5696 10.916 15.5791 11.0059 15.6179 11.0847Z" fill="#64B4D1" stroke="#00247D" stroke-width="0.0567148" stroke-miterlimit="2.6"/>
<path d="M15.6313 10.9513C15.6313 10.9513 15.6313 10.8801 15.7203 10.8044C15.7203 10.8044 15.7337 10.7911 15.7203 10.7866H15.7114C15.7114 10.7866 15.6046 10.8668 15.6046 10.9558C15.6046 10.9558 15.6046 10.9692 15.6224 10.9692C15.6224 10.9692 15.6313 10.9692 15.6313 10.9513Z" fill="white"/>
<path d="M15.7559 11.0359C15.7559 11.0359 15.7826 10.9913 15.9117 10.9424C16.0364 10.8978 16.0008 10.7865 15.9518 10.7643C15.9518 10.7643 15.8984 10.742 15.836 10.8133C15.7834 10.8754 15.755 10.9544 15.7559 11.0359Z" fill="#64B4D1" stroke="#00247D" stroke-width="0.0567148" stroke-miterlimit="2.6"/>
<path d="M15.8138 10.947C15.8138 10.947 15.8405 10.8847 15.9562 10.8535C15.9562 10.8535 15.9651 10.8535 15.9651 10.8402C15.9651 10.8402 15.9651 10.8313 15.9562 10.8357C15.9562 10.8357 15.8271 10.8624 15.7915 10.9426V10.9559C15.7915 10.9559 15.8093 10.9559 15.8138 10.947Z" fill="white"/>
<path d="M15.6758 11.0847C15.6758 11.0847 15.7382 11.107 15.8717 11.0402C16.0053 10.9734 16.0676 11.0892 16.0498 11.1426C16.0498 11.1426 16.0186 11.2138 15.9163 11.196C15.8257 11.1911 15.7402 11.1531 15.6758 11.0892V11.0847Z" fill="#64B4D1" stroke="#00247D" stroke-width="0.0567148" stroke-miterlimit="2.6"/>
<path d="M15.9919 11.1294C15.9919 11.1294 15.934 11.1739 15.8182 11.1294H15.8093V11.1428C15.8093 11.1428 15.934 11.1962 16.0097 11.1472C16.0097 11.1472 16.0186 11.1472 16.0097 11.1338H15.9919V11.1294Z" fill="white"/>
<path d="M15.8762 10.6531C15.8762 10.6531 15.8095 10.6887 15.8228 10.7644" stroke="black" stroke-width="0.0567148" stroke-miterlimit="2.6"/>
<path d="M15.5735 10.6663C15.5735 10.6663 15.5467 10.7508 15.5735 10.7998" stroke="black" stroke-width="0.0567148" stroke-miterlimit="10"/>
<path d="M18.5339 9.89209C18.5339 9.89209 18.5785 10.0123 18.5607 10.1236C18.5473 10.2304 18.5696 10.2527 18.6052 10.275C18.6363 10.2883 18.712 10.2572 18.7165 10.177C18.7165 10.177 18.8055 10.3462 18.6363 10.4575C18.6363 10.4575 18.5161 10.5332 18.4137 10.4397C18.3781 10.3996 18.3603 10.3061 18.3826 10.2171C18.3826 10.2171 18.4093 10.0969 18.3603 9.97223C18.3603 9.97223 18.4315 10.0435 18.4137 10.1904C18.4137 10.1904 18.3781 10.4575 18.574 10.4397C18.574 10.4397 18.7076 10.4397 18.7076 10.2794C18.7076 10.2794 18.6586 10.3328 18.6007 10.315C18.5738 10.3086 18.5505 10.2921 18.5355 10.2689C18.5206 10.2456 18.5152 10.2175 18.5206 10.1904C18.525 10.1191 18.5473 9.99894 18.5339 9.89209ZM18.3247 10.3106C18.3247 10.3106 18.3069 10.5243 18.1199 10.5732C18.1199 10.5732 18.1466 10.5332 18.1065 10.4263C18.1065 10.4263 18.062 10.3729 18.062 10.2794C18.062 10.2794 18.0086 10.3239 18.0754 10.4486C18.1199 10.5243 18.0754 10.6089 18.0709 10.6133C18.0531 10.6178 18.3781 10.5688 18.3202 10.315L18.3247 10.3106ZM18.0754 10.1102C18.0754 10.1102 18.0264 10.0568 18.022 9.94106C18.022 9.82086 17.9997 9.78969 17.9819 9.78079C17.9819 9.78079 18.0042 9.88319 17.9997 9.94106C17.9958 9.98635 18.0019 10.0319 18.0175 10.0746C18.0175 10.0746 17.9107 10.088 17.8439 9.94106C17.786 9.79415 17.7237 9.8075 17.6925 9.8075C17.6925 9.8075 17.7281 9.81195 17.7994 9.94106C17.8706 10.0746 17.8929 10.1058 18.0754 10.1058V10.1102ZM17.5946 9.7986C17.5946 9.7986 17.648 9.94106 17.6569 10.0123C17.6569 10.0123 17.5189 9.96777 17.4788 9.85647C17.4788 9.85647 17.3364 9.90099 17.3898 10.0657C17.3898 10.0657 17.2607 10.0212 17.2028 9.92325C17.2028 9.92325 17.274 9.97668 17.3408 9.99894C17.3408 9.99894 17.3319 9.86093 17.5011 9.81195C17.5011 9.81195 17.5278 9.93216 17.6168 9.95887L17.5946 9.7986ZM17.8172 9.55819C17.8172 9.55819 17.8706 9.62497 17.9685 9.62497C17.996 9.62703 18.0236 9.62196 18.0485 9.61026C18.0735 9.59857 18.095 9.58063 18.111 9.55819C18.111 9.55819 18.1065 9.67394 17.9685 9.67839C17.9685 9.67839 17.8216 9.67839 17.8216 9.55819H17.8172ZM17.2206 10.3818L17.3096 10.4664C17.3096 10.4664 17.3631 10.5198 17.3987 10.453C17.3987 10.453 17.4566 10.3462 17.5278 10.3551C17.5278 10.3551 17.4744 10.3863 17.4209 10.4887C17.4209 10.4887 17.412 10.5198 17.3675 10.5243C17.3453 10.5243 17.323 10.5332 17.2874 10.4931C17.2874 10.4931 17.2562 10.453 17.2206 10.3863V10.3818ZM17.9641 9.07292C17.8216 9.07292 17.9418 9.17977 17.9418 9.17977C17.9418 9.35785 17.8038 9.42018 17.7059 9.36675C17.6079 9.31333 17.6881 9.18867 17.6881 9.18867C17.6881 9.18867 17.5812 9.25545 17.6435 9.3623C17.7148 9.46915 17.8973 9.41573 17.9641 9.32223C18.0309 9.42018 18.2178 9.46915 18.2802 9.3623C18.3559 9.25545 18.2446 9.18422 18.2446 9.18422C18.2446 9.18422 18.3247 9.31333 18.2223 9.3623C18.1288 9.42018 17.9819 9.3623 17.9908 9.18422C17.9908 9.18422 18.111 9.07292 17.9685 9.07292H17.9641ZM18.0531 8.87703C18.0531 8.87703 18.1065 8.96607 18.0976 9.09963C18.0976 9.09963 18.1377 8.96607 18.0531 8.88148V8.87703ZM17.6079 9.08628C17.6079 9.08628 17.5946 8.98833 17.5011 8.97943C17.5011 8.97943 17.5857 9.0373 17.6079 9.08628ZM18.3202 9.08628C18.3202 9.08628 18.3336 8.98833 18.4315 8.97943C18.4315 8.97943 18.3514 9.0373 18.3247 9.08628H18.3202ZM17.4655 9.22874C17.4655 9.22874 17.5367 9.251 17.5812 9.19758L17.4655 9.22874ZM17.225 8.64553C17.225 8.64553 17.3096 8.64108 17.3942 8.76573C17.3942 8.76573 17.3096 8.81025 17.2874 8.83696C17.2874 8.83696 17.2874 8.79244 17.3319 8.76128C17.3319 8.76128 17.3141 8.69895 17.225 8.64998V8.64553ZM18.6497 8.64553C18.6497 8.64553 18.5607 8.64108 18.4761 8.76573C18.4761 8.76573 18.5651 8.81025 18.5829 8.83696C18.5829 8.83696 18.5829 8.79244 18.5384 8.76128C18.5384 8.76128 18.5562 8.69895 18.6497 8.64998V8.64553ZM17.9952 8.74347C17.9952 8.74347 18.0709 8.76573 18.1644 8.71231C18.1644 8.71231 18.2802 8.64998 18.3559 8.71231C18.3559 8.71231 18.2935 8.68114 18.1644 8.74347C18.1644 8.74347 18.0442 8.8147 17.9952 8.74347Z" fill="black"/>
<path d="M18.0754 8.82318C18.0754 8.82318 18.1377 8.71188 18.3425 8.73414C18.3425 8.73414 18.2846 8.89442 18.0754 8.82318Z" fill="white"/>
<path d="M18.209 8.83671C18.2286 8.83671 18.2446 8.81479 18.2446 8.78774C18.2446 8.7607 18.2286 8.73877 18.209 8.73877C18.1893 8.73877 18.1733 8.7607 18.1733 8.78774C18.1733 8.81479 18.1893 8.83671 18.209 8.83671Z" fill="#784421"/>
<path d="M18.209 8.81892C18.2213 8.81892 18.2312 8.80497 18.2312 8.78776C18.2312 8.77054 18.2213 8.75659 18.209 8.75659C18.1967 8.75659 18.1867 8.77054 18.1867 8.78776C18.1867 8.80497 18.1967 8.81892 18.209 8.81892Z" fill="black"/>
<path d="M17.6481 8.57851C17.6481 8.57851 17.7727 8.59187 17.8529 8.63194C17.8529 8.63194 17.933 8.68536 18.022 8.61858C18.022 8.61858 18.12 8.55625 18.1868 8.48057C18.1868 8.48057 18.0309 8.58297 17.9731 8.60077C17.9731 8.60077 17.9196 8.55625 17.9063 8.49838C17.9063 8.49838 17.9063 8.45386 17.9953 8.37817C17.9953 8.37817 17.884 8.41379 17.8618 8.50728C17.8759 8.54503 17.8971 8.57977 17.9241 8.60968C17.9241 8.60968 17.9063 8.62303 17.8529 8.58297C17.8529 8.58297 17.7282 8.54735 17.6481 8.58297V8.57851ZM17.9686 9.33536C17.8618 9.42885 17.9686 9.41994 17.9686 9.41994C17.9686 9.41994 18.0755 9.42885 17.9686 9.3309V9.33536ZM17.9063 8.74769C17.9063 8.74769 17.8262 8.76995 17.7282 8.71653C17.7282 8.71653 17.6125 8.6542 17.5368 8.71653C17.5368 8.71653 17.6036 8.68536 17.7282 8.74769C17.7282 8.74769 17.8573 8.81892 17.9063 8.74769Z" fill="black"/>
<path d="M17.8262 8.82318C17.8262 8.82318 17.7594 8.71188 17.5591 8.73414C17.5591 8.73414 17.6125 8.89442 17.8262 8.82318Z" fill="white"/>
<path d="M17.6881 8.83671C17.7077 8.83671 17.7237 8.81479 17.7237 8.78774C17.7237 8.7607 17.7077 8.73877 17.6881 8.73877C17.6684 8.73877 17.6524 8.7607 17.6524 8.78774C17.6524 8.81479 17.6684 8.83671 17.6881 8.83671Z" fill="#784421"/>
<path d="M17.6881 8.81892C17.7004 8.81892 17.7103 8.80497 17.7103 8.78776C17.7103 8.77054 17.7004 8.75659 17.6881 8.75659C17.6758 8.75659 17.6658 8.77054 17.6658 8.78776C17.6658 8.80497 17.6758 8.81892 17.6881 8.81892Z" fill="black"/>
<path d="M21.7973 7.79932V14.9938C21.7973 16.9126 17.9597 17.5403 17.9597 17.5403C17.9597 17.5403 14.1132 16.917 14.1132 14.9938V7.79932H21.8018H21.7973Z" stroke="black" stroke-width="0.0567148"/>
<path d="M-3.89999 0H12.1V12H-3.89999V0Z" fill="#000066"/>
<path d="M-2.02499 0L4.07501 4.525L10.15 0H12.1V1.55L6.10001 6.025L12.1 10.475V12H10.1L4.10001 7.525L-1.87499 12H-3.89999V10.5L2.07501 6.05L-3.89999 1.6V0H-2.02499Z" fill="white"/>
<path d="M6.70001 7.025L12.1 11V12L5.32501 7.025H6.70001ZM2.10001 7.525L2.25001 8.4L-2.54999 12H-3.89999L2.10001 7.525ZM12.1 0V0.075L5.87501 4.775L5.92501 3.675L10.85 0H12.1ZM-3.89999 0L2.07501 4.4H0.575006L-3.89999 1.05V0Z" fill="#C8102E"/>
<path d="M2.12501 0V12H6.12501V0H2.12501ZM-3.89999 4V8H12.1V4H-3.89999Z" fill="white"/>
<path d="M-3.89999 4.825V7.225H12.1V4.825H-3.89999ZM2.92501 0V12H5.32501V0H2.92501Z" fill="#C8102E"/>
</g>
</g>
<defs>
<clipPath id="clip0_3053_1924">
<rect width="24" height="24" fill="white"/>
</clipPath>
<clipPath id="clip1_3053_1924">
<rect width="24" height="24" rx="12" fill="white"/>
</clipPath>
</defs>
</svg>
