<svg width="24" height="24" viewBox="0 0 24 24" fill="none" xmlns="http://www.w3.org/2000/svg">
<g clip-path="url(#clip0_2214_4332)">
<g clip-path="url(#clip1_2214_4332)">
<path d="M0 16H32V24H0V16Z" fill="#1EB53A"/>
<path d="M0 0H32V8H0V0Z" fill="#0099B5"/>
<path d="M0 7.67993H32V16.3199H0V7.67993Z" fill="#CE1126"/>
<path d="M0 8.15991H32V15.8399H0V8.15991Z" fill="white"/>
<path d="M6.72 6.71996C8.31058 6.71996 9.6 5.43054 9.6 3.83996C9.6 2.24938 8.31058 0.959961 6.72 0.959961C5.12942 0.959961 3.84 2.24938 3.84 3.83996C3.84 5.43054 5.12942 6.71996 6.72 6.71996Z" fill="white"/>
<path d="M7.68 6.71996C9.27058 6.71996 10.56 5.43054 10.56 3.83996C10.56 2.24938 9.27058 0.959961 7.68 0.959961C6.08942 0.959961 4.8 2.24938 4.8 3.83996C4.8 5.43054 6.08942 6.71996 7.68 6.71996Z" fill="#0099B5"/>
<path d="M13.055 5.56909L12.8726 6.11629L13.151 6.21229" fill="white"/>
<path d="M13.055 5.56909L13.2374 6.11629L12.959 6.21229" fill="white"/>
<path d="M13.6028 5.96693L13.026 5.96255L13.0208 6.25699" fill="white"/>
<path d="M13.6028 5.96715L13.1387 6.30972L12.9614 6.07461" fill="white"/>
<path d="M12.5072 5.96715L12.9713 6.30972L13.1486 6.07461" fill="white"/>
<path d="M12.5072 5.96693L13.084 5.96255L13.0893 6.25699" fill="white"/>
<path d="M13.3936 6.61112L13.2195 6.06121L12.9378 6.14719" fill="white"/>
<path d="M13.3936 6.61105L12.9244 6.27557L13.0932 6.03426" fill="white"/>
<path d="M12.7164 6.61105L13.1856 6.27557L13.0168 6.03426" fill="white"/>
<path d="M12.7164 6.61112L12.8905 6.06121L13.1722 6.14719" fill="white"/>
<path d="M13.055 3.26514L12.8726 3.81234L13.151 3.90834" fill="white"/>
<path d="M13.055 3.26514L13.2374 3.81234L12.959 3.90834" fill="white"/>
<path d="M13.6028 3.66297L13.026 3.6586L13.0208 3.95304" fill="white"/>
<path d="M13.6028 3.66295L13.1387 4.00552L12.9614 3.77041" fill="white"/>
<path d="M12.5072 3.66295L12.9713 4.00552L13.1486 3.77041" fill="white"/>
<path d="M12.5072 3.66297L13.084 3.6586L13.0893 3.95304" fill="white"/>
<path d="M13.3936 4.30692L13.2195 3.75701L12.9378 3.84299" fill="white"/>
<path d="M13.3936 4.30709L12.9244 3.97161L13.0932 3.73031" fill="white"/>
<path d="M12.7164 4.30709L13.1856 3.97161L13.0168 3.73031" fill="white"/>
<path d="M12.7164 4.30692L12.8905 3.75701L13.1722 3.84299" fill="white"/>
<path d="M13.055 0.960938L12.8726 1.50814L13.151 1.60414" fill="white"/>
<path d="M13.055 0.960938L13.2374 1.50814L12.959 1.60414" fill="white"/>
<path d="M13.6028 1.35902L13.026 1.35464L13.0207 1.64908" fill="white"/>
<path d="M13.6028 1.359L13.1387 1.70156L12.9614 1.46646" fill="white"/>
<path d="M12.5072 1.359L12.9712 1.70156L13.1486 1.46646" fill="white"/>
<path d="M12.5072 1.35902L13.084 1.35464L13.0893 1.64908" fill="white"/>
<path d="M13.3936 2.00296L13.2195 1.45306L12.9378 1.53903" fill="white"/>
<path d="M13.3936 2.00314L12.9244 1.66766L13.0932 1.42635" fill="white"/>
<path d="M12.7164 2.00314L13.1856 1.66766L13.0168 1.42635" fill="white"/>
<path d="M12.7164 2.00296L12.8905 1.45306L13.1721 1.53903" fill="white"/>
<path d="M15.359 5.56909L15.1766 6.11629L15.455 6.21229" fill="white"/>
<path d="M15.359 5.56909L15.5414 6.11629L15.263 6.21229" fill="white"/>
<path d="M15.9068 5.96693L15.33 5.96255L15.3247 6.25699" fill="white"/>
<path d="M15.9068 5.96715L15.4427 6.30972L15.2654 6.07461" fill="white"/>
<path d="M14.8112 5.96715L15.2752 6.30972L15.4526 6.07461" fill="white"/>
<path d="M14.8112 5.96693L15.388 5.96255L15.3932 6.25699" fill="white"/>
<path d="M15.6975 6.61112L15.5235 6.06121L15.2418 6.14719" fill="white"/>
<path d="M15.6976 6.61105L15.2284 6.27557L15.3972 6.03426" fill="white"/>
<path d="M15.0204 6.61105L15.4896 6.27557L15.3208 6.03426" fill="white"/>
<path d="M15.0204 6.61112L15.1945 6.06121L15.4762 6.14719" fill="white"/>
<path d="M15.359 3.26514L15.1766 3.81234L15.455 3.90834" fill="white"/>
<path d="M15.359 3.26514L15.5414 3.81234L15.263 3.90834" fill="white"/>
<path d="M15.9068 3.66297L15.33 3.6586L15.3247 3.95304" fill="white"/>
<path d="M15.9068 3.66295L15.4427 4.00552L15.2654 3.77041" fill="white"/>
<path d="M14.8112 3.66295L15.2752 4.00552L15.4526 3.77041" fill="white"/>
<path d="M14.8112 3.66297L15.388 3.6586L15.3932 3.95304" fill="white"/>
<path d="M15.6975 4.30692L15.5235 3.75701L15.2418 3.84299" fill="white"/>
<path d="M15.6976 4.30709L15.2284 3.97161L15.3972 3.73031" fill="white"/>
<path d="M15.0204 4.30709L15.4896 3.97161L15.3208 3.73031" fill="white"/>
<path d="M15.0204 4.30692L15.1945 3.75701L15.4762 3.84299" fill="white"/>
<path d="M15.359 0.960938L15.1766 1.50814L15.455 1.60414" fill="white"/>
<path d="M15.359 0.960938L15.5414 1.50814L15.263 1.60414" fill="white"/>
<path d="M15.9068 1.35902L15.33 1.35464L15.3247 1.64908" fill="white"/>
<path d="M15.9068 1.359L15.4427 1.70156L15.2654 1.46646" fill="white"/>
<path d="M14.8112 1.359L15.2752 1.70156L15.4526 1.46646" fill="white"/>
<path d="M14.8112 1.35902L15.388 1.35464L15.3932 1.64908" fill="white"/>
<path d="M15.6975 2.00296L15.5235 1.45306L15.2418 1.53903" fill="white"/>
<path d="M15.6975 2.00314L15.2283 1.66766L15.3971 1.42635" fill="white"/>
<path d="M15.0204 2.00314L15.4896 1.66766L15.3208 1.42635" fill="white"/>
<path d="M15.0204 2.00296L15.1945 1.45306L15.4761 1.53903" fill="white"/>
<path d="M17.663 5.56909L17.4806 6.11629L17.759 6.21229" fill="white"/>
<path d="M17.663 5.56909L17.8454 6.11629L17.567 6.21229" fill="white"/>
<path d="M18.2108 5.96693L17.634 5.96255L17.6287 6.25699" fill="white"/>
<path d="M18.2108 5.96715L17.7467 6.30972L17.5694 6.07461" fill="white"/>
<path d="M17.1151 5.96715L17.5792 6.30972L17.7565 6.07461" fill="white"/>
<path d="M17.1151 5.96693L17.6919 5.96255L17.6972 6.25699" fill="white"/>
<path d="M18.0015 6.61112L17.8275 6.06121L17.5458 6.14719" fill="white"/>
<path d="M18.0015 6.61105L17.5323 6.27557L17.7011 6.03426" fill="white"/>
<path d="M17.3244 6.61105L17.7936 6.27557L17.6248 6.03426" fill="white"/>
<path d="M17.3244 6.61112L17.4985 6.06121L17.7801 6.14719" fill="white"/>
<path d="M17.663 3.26514L17.4806 3.81234L17.759 3.90834" fill="white"/>
<path d="M17.663 3.26514L17.8454 3.81234L17.567 3.90834" fill="white"/>
<path d="M18.2108 3.66297L17.634 3.6586L17.6287 3.95304" fill="white"/>
<path d="M18.2108 3.66295L17.7467 4.00552L17.5694 3.77041" fill="white"/>
<path d="M17.1151 3.66295L17.5792 4.00552L17.7565 3.77041" fill="white"/>
<path d="M17.1151 3.66297L17.6919 3.6586L17.6972 3.95304" fill="white"/>
<path d="M18.0015 4.30692L17.8275 3.75701L17.5458 3.84299" fill="white"/>
<path d="M18.0015 4.30709L17.5323 3.97161L17.7011 3.73031" fill="white"/>
<path d="M17.3244 4.30709L17.7936 3.97161L17.6248 3.73031" fill="white"/>
<path d="M17.3244 4.30692L17.4985 3.75701L17.7801 3.84299" fill="white"/>
<path d="M17.663 0.960938L17.4806 1.50814L17.759 1.60414" fill="white"/>
<path d="M17.663 0.960938L17.8454 1.50814L17.567 1.60414" fill="white"/>
<path d="M18.2108 1.35902L17.634 1.35464L17.6287 1.64908" fill="white"/>
<path d="M18.2108 1.359L17.7467 1.70156L17.5694 1.46646" fill="white"/>
<path d="M17.1152 1.359L17.5792 1.70156L17.7565 1.46646" fill="white"/>
<path d="M17.1151 1.35902L17.6919 1.35464L17.6972 1.64908" fill="white"/>
<path d="M18.0015 2.00296L17.8275 1.45306L17.5458 1.53903" fill="white"/>
<path d="M18.0015 2.00314L17.5323 1.66766L17.7011 1.42635" fill="white"/>
<path d="M17.3244 2.00314L17.7936 1.66766L17.6248 1.42635" fill="white"/>
<path d="M17.3244 2.00296L17.4985 1.45306L17.7801 1.53903" fill="white"/>
<path d="M8.44697 5.56909L8.26457 6.11629L8.54297 6.21229" fill="white"/>
<path d="M8.44698 5.56909L8.62938 6.11629L8.35098 6.21229" fill="white"/>
<path d="M8.9948 5.96693L8.41801 5.96255L8.41274 6.25699" fill="white"/>
<path d="M8.9948 5.96715L8.53074 6.30972L8.35341 6.07461" fill="white"/>
<path d="M7.89915 5.96715L8.36321 6.30972L8.54054 6.07461" fill="white"/>
<path d="M7.89914 5.96693L8.47592 5.96255L8.48119 6.25699" fill="white"/>
<path d="M8.78554 6.61112L8.61147 6.06121L8.32981 6.14719" fill="white"/>
<path d="M8.78553 6.61105L8.31633 6.27557L8.48514 6.03426" fill="white"/>
<path d="M8.10842 6.61105L8.57762 6.27557L8.40881 6.03426" fill="white"/>
<path d="M8.10841 6.61112L8.28248 6.06121L8.56414 6.14719" fill="white"/>
<path d="M10.751 5.56909L10.5686 6.11629L10.847 6.21229" fill="white"/>
<path d="M10.751 5.56909L10.9334 6.11629L10.655 6.21229" fill="white"/>
<path d="M11.2988 5.96693L10.722 5.96255L10.7167 6.25699" fill="white"/>
<path d="M11.2988 5.96715L10.8348 6.30972L10.6574 6.07461" fill="white"/>
<path d="M10.2032 5.96715L10.6672 6.30972L10.8446 6.07461" fill="white"/>
<path d="M10.2032 5.96693L10.78 5.96255L10.7852 6.25699" fill="white"/>
<path d="M11.0896 6.61112L10.9155 6.06121L10.6338 6.14719" fill="white"/>
<path d="M11.0896 6.61105L10.6204 6.27557L10.7892 6.03426" fill="white"/>
<path d="M10.4124 6.61105L10.8816 6.27557L10.7128 6.03426" fill="white"/>
<path d="M10.4125 6.61112L10.5865 6.06121L10.8682 6.14719" fill="white"/>
<path d="M10.751 3.26514L10.5686 3.81234L10.847 3.90834" fill="white"/>
<path d="M10.751 3.26514L10.9334 3.81234L10.655 3.90834" fill="white"/>
<path d="M11.2988 3.66297L10.722 3.6586L10.7167 3.95304" fill="white"/>
<path d="M11.2988 3.66295L10.8348 4.00552L10.6574 3.77041" fill="white"/>
<path d="M10.2032 3.66295L10.6672 4.00552L10.8446 3.77041" fill="white"/>
<path d="M10.2032 3.66297L10.78 3.6586L10.7852 3.95304" fill="white"/>
<path d="M11.0896 4.30692L10.9155 3.75701L10.6338 3.84299" fill="white"/>
<path d="M11.0896 4.30709L10.6204 3.97161L10.7892 3.73031" fill="white"/>
<path d="M10.4124 4.30709L10.8816 3.97161L10.7128 3.73031" fill="white"/>
<path d="M10.4125 4.30692L10.5865 3.75701L10.8682 3.84299" fill="white"/>
</g>
</g>
<defs>
<clipPath id="clip0_2214_4332">
<path d="M0 12C0 5.37258 5.37258 0 12 0C18.6274 0 24 5.37258 24 12C24 18.6274 18.6274 24 12 24C5.37258 24 0 18.6274 0 12Z" fill="white"/>
</clipPath>
<clipPath id="clip1_2214_4332">
<rect width="32" height="24" fill="white"/>
</clipPath>
</defs>
</svg>
