<svg width="24" height="24" viewBox="0 0 24 24" fill="none" xmlns="http://www.w3.org/2000/svg">
<g clip-path="url(#clip0_2214_3826)">
<g clip-path="url(#clip1_2214_3826)">
<path fill-rule="evenodd" clip-rule="evenodd" d="M-8 0H24V24H-8V0Z" fill="#00247D"/>
<path d="M16.5212 5.35938V6.11784L18.0382 5.35938H16.5212Z" fill="white"/>
<path d="M16.8246 6.26953L16.5212 5.66276L18.0382 5.35938L16.8246 6.26953Z" fill="white"/>
<path d="M16.5212 5.35938V6.11784L15.0043 5.35938H16.5212Z" fill="white"/>
<path d="M16.2179 6.26953L16.5212 5.66276L15.0043 5.35938L16.2179 6.26953Z" fill="white"/>
<path d="M16.954 5.67383L16.2326 5.90821L17.4227 7.11651L16.954 5.67383Z" fill="white"/>
<path d="M16.1821 6.24362L16.6654 5.76758L17.4227 7.11651L16.1821 6.24362Z" fill="white"/>
<path d="M16.0884 5.67383L16.8098 5.90821L16.5572 4.23114L16.0884 5.67383Z" fill="white"/>
<path d="M17.0478 5.66655L16.377 5.76758L16.5572 4.23114L17.0478 5.66655Z" fill="white"/>
<path d="M16.0884 5.67383L16.8098 5.90821L15.6197 7.11651L16.0884 5.67383Z" fill="white"/>
<path d="M16.8603 6.24362L16.377 5.76758L15.6197 7.11651L16.8603 6.24362Z" fill="white"/>
<path d="M16.5213 5.51367V6.01486L17.5237 5.51367H16.5213Z" fill="#CC142B"/>
<path d="M16.7218 6.1151L16.5213 5.71415L17.5237 5.51367L16.7218 6.1151Z" fill="#CC142B"/>
<path d="M16.5213 5.51367V6.01486L15.5189 5.51367H16.5213Z" fill="#CC142B"/>
<path d="M16.3208 6.1151L16.5213 5.71415L15.5189 5.51367L16.3208 6.1151Z" fill="#CC142B"/>
<path d="M16.8073 5.72168L16.3307 5.87656L17.1171 6.67499L16.8073 5.72168Z" fill="#CC142B"/>
<path d="M16.2973 6.09819L16.6166 5.78363L17.1171 6.67499L16.2973 6.09819Z" fill="#CC142B"/>
<path d="M16.2353 5.72168L16.7119 5.87656L16.545 4.76836L16.2353 5.72168Z" fill="#CC142B"/>
<path d="M16.8692 5.71687L16.426 5.78363L16.545 4.76836L16.8692 5.71687Z" fill="#CC142B"/>
<path d="M16.2353 5.72168L16.7119 5.87656L15.9255 6.67499L16.2353 5.72168Z" fill="#CC142B"/>
<path d="M16.7453 6.09819L16.426 5.78363L15.9255 6.67499L16.7453 6.09819Z" fill="#CC142B"/>
<path d="M20.496 8.86011L20.496 9.53504L21.8459 8.86011L20.496 8.86011Z" fill="white"/>
<path d="M20.766 9.67003L20.496 9.13008L21.8459 8.86011L20.766 9.67003Z" fill="white"/>
<path d="M20.496 8.86011L20.496 9.53504L19.1462 8.86011L20.496 8.86011Z" fill="white"/>
<path d="M20.2261 9.67003L20.496 9.13008L19.1462 8.86011L20.2261 9.67003Z" fill="white"/>
<path d="M20.8812 9.13989L20.2393 9.34846L21.2983 10.4237L20.8812 9.13989Z" fill="white"/>
<path d="M20.1943 9.64693L20.6244 9.22332L21.2983 10.4237L20.1943 9.64693Z" fill="white"/>
<path d="M20.1109 9.13989L20.7528 9.34846L20.528 7.85609L20.1109 9.13989Z" fill="white"/>
<path d="M20.9646 9.13341L20.3677 9.22332L20.528 7.85609L20.9646 9.13341Z" fill="white"/>
<path d="M20.1109 9.13989L20.7528 9.34846L19.6938 10.4237L20.1109 9.13989Z" fill="white"/>
<path d="M20.7978 9.64693L20.3677 9.22332L19.6938 10.4237L20.7978 9.64693Z" fill="white"/>
<path d="M20.4959 9.0144L20.4959 9.43206L21.3312 9.0144L20.4959 9.0144Z" fill="#CC142B"/>
<path d="M20.663 9.51559L20.4959 9.18147L21.3312 9.0144L20.663 9.51559Z" fill="#CC142B"/>
<path d="M20.4959 9.0144L20.4959 9.43206L19.6606 9.0144L20.4959 9.0144Z" fill="#CC142B"/>
<path d="M20.3288 9.51559L20.4959 9.18147L19.6606 9.0144L20.3288 9.51559Z" fill="#CC142B"/>
<path d="M20.7343 9.1875L20.337 9.31656L20.9924 9.98193L20.7343 9.1875Z" fill="#CC142B"/>
<path d="M20.3092 9.50126L20.5754 9.23913L20.9924 9.98193L20.3092 9.50126Z" fill="#CC142B"/>
<path d="M20.2576 9.1875L20.6548 9.31656L20.5157 8.39307L20.2576 9.1875Z" fill="#CC142B"/>
<path d="M20.7859 9.18349L20.4165 9.23913L20.5157 8.39307L20.7859 9.18349Z" fill="#CC142B"/>
<path d="M20.2576 9.1875L20.6548 9.31656L19.9994 9.98193L20.2576 9.1875Z" fill="#CC142B"/>
<path d="M20.6826 9.50126L20.4165 9.23913L19.9994 9.98193L20.6826 9.50126Z" fill="#CC142B"/>
<path d="M11.8918 10.0208L11.8918 10.7792L13.4088 10.0208L11.8918 10.0208Z" fill="white"/>
<path d="M12.1952 10.9309L11.8918 10.3241L13.4088 10.0208L12.1952 10.9309Z" fill="white"/>
<path d="M11.8918 10.0208L11.8918 10.7792L10.3749 10.0208L11.8918 10.0208Z" fill="white"/>
<path d="M11.5885 10.9309L11.8918 10.3241L10.3749 10.0208L11.5885 10.9309Z" fill="white"/>
<path d="M12.3247 10.3352L11.6034 10.5696L12.7935 11.7779L12.3247 10.3352Z" fill="white"/>
<path d="M11.5528 10.905L12.0362 10.429L12.7935 11.7779L11.5528 10.905Z" fill="white"/>
<path d="M11.459 10.3352L12.1804 10.5696L11.9278 8.89252L11.459 10.3352Z" fill="white"/>
<path d="M12.4184 10.3279L11.7476 10.429L11.9278 8.89252L12.4184 10.3279Z" fill="white"/>
<path d="M11.459 10.3352L12.1804 10.5696L10.9903 11.7779L11.459 10.3352Z" fill="white"/>
<path d="M12.2309 10.905L11.7476 10.429L10.9903 11.7779L12.2309 10.905Z" fill="white"/>
<path d="M11.8917 10.175L11.8917 10.6762L12.8941 10.175L11.8917 10.175Z" fill="#CC142B"/>
<path d="M12.0922 10.7765L11.8917 10.3755L12.8941 10.175L12.0922 10.7765Z" fill="#CC142B"/>
<path d="M11.8917 10.175L11.8917 10.6762L10.8893 10.175L11.8917 10.175Z" fill="#CC142B"/>
<path d="M11.6912 10.7765L11.8917 10.3755L10.8893 10.175L11.6912 10.7765Z" fill="#CC142B"/>
<path d="M12.1777 10.3828L11.7011 10.5377L12.4875 11.3361L12.1777 10.3828Z" fill="#CC142B"/>
<path d="M11.6677 10.7593L11.9871 10.4448L12.4875 11.3361L11.6677 10.7593Z" fill="#CC142B"/>
<path d="M11.6057 10.3828L12.0824 10.5377L11.9155 9.4295L11.6057 10.3828Z" fill="#CC142B"/>
<path d="M12.2397 10.378L11.7964 10.4448L11.9155 9.4295L12.2397 10.378Z" fill="#CC142B"/>
<path d="M11.6057 10.3828L12.0824 10.5377L11.296 11.3361L11.6057 10.3828Z" fill="#CC142B"/>
<path d="M12.1158 10.7593L11.7964 10.4448L11.296 11.3361L12.1158 10.7593Z" fill="#CC142B"/>
<path d="M16.5212 17.3379V18.1799L18.2052 17.3379H16.5212Z" fill="white"/>
<path d="M16.858 18.3483L16.5212 17.6747L18.2052 17.3379L16.858 18.3483Z" fill="white"/>
<path d="M16.5212 17.3379V18.1799L14.8373 17.3379H16.5212Z" fill="white"/>
<path d="M16.1844 18.3483L16.5212 17.6747L14.8373 17.3379L16.1844 18.3483Z" fill="white"/>
<path d="M17.0017 17.687L16.2009 17.9472L17.5221 19.2886L17.0017 17.687Z" fill="white"/>
<path d="M16.1448 18.3196L16.6814 17.7911L17.5221 19.2886L16.1448 18.3196Z" fill="white"/>
<path d="M16.0408 17.687L16.8416 17.9472L16.5612 16.0854L16.0408 17.687Z" fill="white"/>
<path d="M17.1058 17.6789L16.3611 17.7911L16.5612 16.0854L17.1058 17.6789Z" fill="white"/>
<path d="M16.0408 17.687L16.8416 17.9472L15.5204 19.2886L16.0408 17.687Z" fill="white"/>
<path d="M16.8976 18.3196L16.3611 17.7911L15.5204 19.2886L16.8976 18.3196Z" fill="white"/>
<path d="M16.5212 17.4922V18.0769L17.6907 17.4922H16.5212Z" fill="#CC142B"/>
<path d="M16.7551 18.1938L16.5212 17.7261L17.6907 17.4922L16.7551 18.1938Z" fill="#CC142B"/>
<path d="M16.5212 17.4922V18.0769L15.3518 17.4922H16.5212Z" fill="#CC142B"/>
<path d="M16.2874 18.1938L16.5212 17.7261L15.3518 17.4922L16.2874 18.1938Z" fill="#CC142B"/>
<path d="M16.8549 17.7346L16.2988 17.9153L17.2162 18.8468L16.8549 17.7346Z" fill="#CC142B"/>
<path d="M16.2598 18.1739L16.6324 17.8069L17.2162 18.8468L16.2598 18.1739Z" fill="#CC142B"/>
<path d="M16.1876 17.7346L16.7437 17.9153L16.549 16.6224L16.1876 17.7346Z" fill="#CC142B"/>
<path d="M16.9272 17.729L16.4101 17.8069L16.549 16.6224L16.9272 17.729Z" fill="#CC142B"/>
<path d="M16.1876 17.7346L16.7437 17.9153L15.8262 18.8468L16.1876 17.7346Z" fill="#CC142B"/>
<path d="M16.7827 18.1739L16.4101 17.8069L15.8262 18.8468L16.7827 18.1739Z" fill="#CC142B"/>
<path d="M-8 0H8V12H-8V0Z" fill="#012169"/>
<path d="M-6.125 0L-0.0250001 4.525L6.05 0H8V1.55L2 6.025L8 10.475V12H6L0 7.525L-5.975 12H-8V10.5L-2.025 6.05L-8 1.6V0H-6.125Z" fill="white"/>
<path d="M2.6 7.025L8 11V12L1.225 7.025H2.6ZM-2 7.525L-1.85 8.4L-6.65 12H-8L-2 7.525ZM8 0V0.075L1.775 4.775L1.825 3.675L6.75 0H8ZM-8 0L-2.025 4.4H-3.525L-8 1.05V0Z" fill="#C8102E"/>
<path d="M-1.975 0V12H2.025V0H-1.975ZM-8 4V8H8V4H-8Z" fill="white"/>
<path d="M-8 4.825V7.225H8V4.825H-8ZM-1.175 0V12H1.225V0H-1.175Z" fill="#C8102E"/>
</g>
</g>
<defs>
<clipPath id="clip0_2214_3826">
<path d="M0 12C0 5.37258 5.37258 0 12 0C18.6274 0 24 5.37258 24 12C24 18.6274 18.6274 24 12 24C5.37258 24 0 18.6274 0 12Z" fill="white"/>
</clipPath>
<clipPath id="clip1_2214_3826">
<rect width="32" height="24" fill="white" transform="translate(-8)"/>
</clipPath>
</defs>
</svg>
