<svg width="24" height="24" viewBox="0 0 24 24" fill="none" xmlns="http://www.w3.org/2000/svg">
<g clip-path="url(#clip0_2214_3785)">
<g clip-path="url(#clip1_2214_3785)">
<mask id="mask0_2214_3785" style="mask-type:luminance" maskUnits="userSpaceOnUse" x="0" y="0" width="33" height="24">
<path d="M0 0H32.0016V24H0V0Z" fill="white"/>
</mask>
<g mask="url(#mask0_2214_3785)">
<path fill-rule="evenodd" clip-rule="evenodd" d="M0 0H36V7.5H0V0Z" fill="#009A00"/>
<path fill-rule="evenodd" clip-rule="evenodd" d="M0 7.5H36V8.25H0V7.5Z" fill="white"/>
<path fill-rule="evenodd" clip-rule="evenodd" d="M0 8.25H36V15.75H0V8.25Z" fill="#000001"/>
<path fill-rule="evenodd" clip-rule="evenodd" d="M0 15.75H36V16.5H0V15.75Z" fill="white"/>
<path fill-rule="evenodd" clip-rule="evenodd" d="M0 16.5H36V24H0V16.5Z" fill="#FFCA00"/>
<path fill-rule="evenodd" clip-rule="evenodd" d="M0 0V24L15.75 12L0 0Z" fill="#FF0000"/>
<path fill-rule="evenodd" clip-rule="evenodd" d="M9.30469 15.6094L6.90469 13.8516L4.50469 15.6094L5.4375 12.7829L3.02344 11.0438L6 11.0532L6.90469 8.22192L7.81406 11.0579L10.7906 11.0438L8.37656 12.7829L9.30469 15.6094Z" fill="#FFCA00"/>
<path fill-rule="evenodd" clip-rule="evenodd" d="M4.81875 13.6359H6.55313C6.69375 13.7906 6.99844 13.8562 7.29375 13.6359C7.8375 13.3359 8.8875 13.6359 8.8875 13.6359L9.09375 13.4156L8.59219 11.7656L8.40938 11.5688C8.40938 11.5688 8.02031 11.3344 7.28438 11.4141C6.54844 11.4938 6.29063 11.3906 6.29063 11.3906C6.29063 11.3906 5.64844 11.4656 5.46563 11.5594L5.25938 11.7656L4.81875 13.6359Z" fill="white" stroke="black" stroke-width="0.128906" stroke-linecap="round" stroke-linejoin="round"/>
<path d="M5.17031 13.2093C5.17031 13.2093 6.82031 13.0031 7.29844 13.6359C7.03125 13.8234 6.79219 13.8375 6.53906 13.65C6.57656 13.5796 7.12969 13.0031 8.54063 13.1953" stroke="black" stroke-width="0.128906" stroke-linecap="round" stroke-linejoin="round"/>
<path d="M6.9375 11.5593L6.92344 13.3781M8.40937 11.5828L8.71875 13.0312" stroke="black" stroke-width="0.140625"/>
<path d="M5.48438 11.5593L5.31094 12.3093" stroke="black" stroke-width="0.128906" stroke-linecap="round" stroke-linejoin="round"/>
<path fill-rule="evenodd" clip-rule="evenodd" d="M3.69844 13.8328L4.10156 14.3109C4.14844 14.3391 4.19375 14.3391 4.2375 14.3109L4.8375 13.5891L5.09062 13.275C5.13125 13.225 5.14687 13.1781 5.1375 13.1344L5.625 12.6984L5.72812 12.7078C5.68125 12.6984 5.64844 12.675 5.68125 12.6234L5.79375 12.5391L5.87812 12.6469C5.87812 12.6469 5.75625 12.8063 5.74219 12.8063H5.61094L5.35781 13.0359L5.47031 13.1297L5.63437 13.5891L5.84062 13.4437L5.70937 12.975L5.99531 12.6609L5.8875 12.4922L5.9625 12.3984C5.9625 12.3984 6.96094 13.0266 7.35 12.8578C7.35937 12.8578 7.37344 12.4078 7.37344 12.4078C7.37344 12.4078 6.33281 12.3 6.30937 12.0937C6.28594 11.8875 6.54375 11.8594 6.54375 11.8594L6.43125 11.7094L6.45469 11.625L6.6375 11.85L7.04531 11.5031L9.45937 14.25C9.59062 14.1984 9.61875 14.1656 9.62812 14.0344L7.26562 11.3203L7.44375 11.1281C7.48125 11.0859 7.49062 11.0719 7.49062 11.0063L7.77187 10.7672C7.84609 10.7914 7.90924 10.8412 7.95 10.9078L8.71875 10.2656C8.7375 10.2844 8.79844 10.3031 8.84062 10.2844L10.1016 9.07031L8.72812 10.0406L8.68125 10.0078C8.68125 9.96562 8.72812 9.96094 8.68125 9.88594C8.625 9.82031 8.54531 9.94687 8.53594 9.94687C8.52656 9.94687 8.33437 9.88125 8.29219 9.79687L8.28281 10.0172L7.93125 10.3453L7.66406 10.3312L7.27969 10.7062L7.23281 10.8469L7.29375 10.9734C7.29375 10.9734 7.0875 11.1516 7.0875 11.1422C7.0875 11.1281 7.04531 11.0859 7.04062 11.0812L7.21875 10.9219L7.24219 10.8141L7.18594 10.7203C7.16719 10.7344 6.94219 10.9734 6.92812 10.9453L6.27187 10.2187L6.30937 10.0828L5.90156 9.6375C5.75156 9.58594 5.5125 9.57656 5.46562 9.90469C5.42812 9.97969 5.11875 9.91406 5.11875 9.91406L4.95 9.95156L3.99375 11.2969L4.52344 11.9344L5.61094 10.5609L5.64375 10.1719L5.86875 10.425C5.94687 10.4406 6.02031 10.4328 6.08906 10.4016L6.73125 11.1187L6.62344 11.2266L6.71719 11.3297L6.82969 11.2547L6.87187 11.3156C6.82187 11.3469 6.77344 11.3797 6.72656 11.4141C6.64219 11.3578 6.55781 11.2875 6.5625 11.1797L6.20156 11.4797L6.1875 11.5359L5.11406 12.4266L5.02031 12.4406L4.99687 12.7219L5.69531 12.1406V12.0563L5.76562 12.1172L6.30937 11.6812C6.30937 11.6812 6.34687 11.7281 6.33281 11.7281C6.31875 11.7281 5.85 12.1641 5.85 12.1641L5.84062 12.2109L5.75625 12.2859L5.70937 12.2484L5.05312 12.8297H4.95937L4.59844 13.1906C4.50469 13.2 4.425 13.2094 4.34531 13.2609L3.69844 13.8328Z" fill="black" stroke="black" stroke-width="0.128906" stroke-linecap="round" stroke-linejoin="round"/>
</g>
</g>
</g>
<defs>
<clipPath id="clip0_2214_3785">
<path d="M0 12C0 5.37258 5.37258 0 12 0C18.6274 0 24 5.37258 24 12C24 18.6274 18.6274 24 12 24C5.37258 24 0 18.6274 0 12Z" fill="white"/>
</clipPath>
<clipPath id="clip1_2214_3785">
<rect width="32" height="24" fill="white"/>
</clipPath>
</defs>
</svg>
