<svg width="24" height="24" viewBox="0 0 24 24" fill="none" xmlns="http://www.w3.org/2000/svg">
<g clip-path="url(#clip0_2214_4267)">
<g clip-path="url(#clip1_2214_4267)">
<path d="M-8 0H24V24H-8V0Z" fill="#009FCA"/>
<path fill-rule="evenodd" clip-rule="evenodd" d="M21.665 6.1349H23.05L21.935 6.8949L22.36 8.1299L21.245 7.3649L20.135 8.1299L20.56 6.8949L19.445 6.1349H20.82L21.245 4.8999L21.665 6.1349ZM18.205 15.9749H19.585L18.47 16.7349L18.895 17.9699L17.78 17.2049L16.665 17.9699L17.095 16.7349L15.98 15.9749H17.35L17.775 14.7399L18.205 15.9749ZM21.665 13.7449H23.05L21.935 14.5049L22.36 15.7399L21.245 14.9749L20.135 15.7399L20.56 14.5049L19.445 13.7449H20.82L21.245 12.5099L21.665 13.7449ZM6.79 20.8849H8.17L7.05 21.6399L7.48 22.8699L6.365 22.1099L5.25 22.8699L5.68 21.6399L4.56 20.8749H5.94L6.365 19.6449L6.79 20.8849ZM9.92 17.0599H8.54L9.655 16.2949L9.23 15.0649L10.345 15.8249L11.46 15.0649L11.03 16.2949L12.145 17.0599H10.77L10.345 18.2899L9.92 17.0599ZM13.985 11.4349H12.6L13.715 10.6749L13.29 9.4399L14.405 10.2049L15.52 9.4399L15.09 10.6749L16.205 11.4349H14.83L14.405 12.6699L13.985 11.4349ZM17.4 10.2699H16.02L17.14 9.5049L16.71 8.2749L17.825 9.0349L18.94 8.2749L18.51 9.5049L19.63 10.2699H18.25L17.825 11.4999L17.4 10.2699ZM13.985 19.9999H12.6L13.715 19.2399L13.3 17.9999L14.415 18.7599L15.53 17.9999L15.1 19.2349L16.215 19.9949H14.84L14.415 21.2299L13.985 19.9999ZM9.92 20.9949H8.54L9.655 20.2349L9.23 18.9999L10.345 19.7599L11.46 18.9999L11.03 20.2299L12.15 20.9999H10.775L10.35 22.2349L9.92 20.9949Z" fill="#FFF40D"/>
<path d="M-8 0H8V12H-8V0Z" fill="#012169"/>
<path d="M-6.125 0L-0.0250001 4.525L6.05 0H8V1.55L2 6.025L8 10.475V12H6L0 7.525L-5.975 12H-8V10.5L-2.025 6.05L-8 1.6V0H-6.125Z" fill="white"/>
<path d="M2.6 7.025L8 11V12L1.225 7.025H2.6ZM-2 7.525L-1.85 8.4L-6.65 12H-8L-2 7.525ZM8 0V0.075L1.775 4.775L1.825 3.675L6.75 0H8ZM-8 0L-2.025 4.4H-3.525L-8 1.05V0Z" fill="#C8102E"/>
<path d="M-1.975 0V12H2.025V0H-1.975ZM-8 4V8H8V4H-8Z" fill="white"/>
<path d="M-8 4.825V7.225H8V4.825H-8ZM-1.175 0V12H1.225V0H-1.175Z" fill="#C8102E"/>
</g>
</g>
<defs>
<clipPath id="clip0_2214_4267">
<path d="M0 12C0 5.37258 5.37258 0 12 0C18.6274 0 24 5.37258 24 12C24 18.6274 18.6274 24 12 24C5.37258 24 0 18.6274 0 12Z" fill="white"/>
</clipPath>
<clipPath id="clip1_2214_4267">
<rect width="32" height="24" fill="white" transform="translate(-8)"/>
</clipPath>
</defs>
</svg>
