<svg width="24" height="24" viewBox="0 0 24 24" fill="none" xmlns="http://www.w3.org/2000/svg">
<g clip-path="url(#clip0_2214_3718)">
<g clip-path="url(#clip1_2214_3718)">
<path d="M0 0H32V24H0V0Z" fill="white"/>
<path d="M16 0H32V24H16V0Z" fill="#CF142B"/>
<path d="M6.58473 2.76147H9.59529V5.62121C9.70955 5.6131 9.82749 5.63189 9.93996 5.6761C10.0524 5.72032 10.1564 5.78879 10.2438 5.87618C10.3312 5.96357 10.3996 6.06754 10.4439 6.18001C10.4881 6.29248 10.5069 6.41042 10.4988 6.52467H13.3585V9.53523H10.4988C10.5069 9.64949 10.4881 9.76743 10.4439 9.8799C10.3996 9.99237 10.3312 10.0963 10.2438 10.1837C10.1564 10.2711 10.0524 10.3396 9.93996 10.3838C9.82749 10.428 9.70955 10.4468 9.59529 10.4387V13.2984H6.58473V10.4387C6.47048 10.4468 6.35254 10.428 6.24007 10.3838C6.1276 10.3396 6.02363 10.2711 5.93624 10.1837C5.84885 10.0963 5.78038 9.99237 5.73616 9.8799C5.69194 9.76743 5.67316 9.64949 5.68127 9.53523H2.82153V6.52467H5.68127C5.67316 6.41042 5.69194 6.29248 5.73616 6.18001C5.78038 6.06754 5.84885 5.96357 5.93624 5.87618C6.02363 5.78879 6.1276 5.72032 6.24007 5.6761C6.35254 5.63189 6.47048 5.6131 6.58473 5.62121V2.76147Z" stroke="#CF142B" stroke-width="0.37632"/>
<path d="M9.57766 5.62269C9.69432 5.61154 9.81548 5.62869 9.93125 5.67274C10.047 5.7168 10.1541 5.78652 10.2438 5.87619C10.3335 5.96587 10.4032 6.07297 10.4472 6.18874C10.4913 6.30451 10.5085 6.42567 10.4973 6.54233V9.51761C10.5085 9.63426 10.4913 9.75542 10.4472 9.87119C10.4032 9.98696 10.3335 10.0941 10.2438 10.1837C10.1541 10.2734 10.047 10.3431 9.93125 10.3872C9.81548 10.4312 9.69432 10.4484 9.57766 10.4372H6.60238C6.48573 10.4484 6.36457 10.4312 6.2488 10.3872C6.13303 10.3431 6.02593 10.2734 5.93625 10.1837C5.84657 10.0941 5.77686 9.98696 5.7328 9.87119C5.68875 9.75542 5.6716 9.63426 5.68275 9.51761V6.54233C5.6716 6.42567 5.68875 6.30451 5.7328 6.18874C5.77686 6.07297 5.84657 5.96587 5.93625 5.87619C6.02593 5.78652 6.13303 5.7168 6.2488 5.67274C6.36457 5.62869 6.48573 5.61154 6.60238 5.62269H9.57766Z" fill="white"/>
<path d="M6.60237 2.7793H9.57765V13.281H6.60237V2.7793ZM2.83917 6.5425H13.3409V9.51778H2.83917V6.5425Z" fill="white" stroke="black" stroke-width="0.03528"/>
<path d="M6.7729 2.94971H9.40714V13.1103H6.7729V2.94971ZM3.0097 6.71291H13.1703V9.34715H3.0097V6.71291Z" fill="white" stroke="black" stroke-width="0.07056"/>
<path d="M8.09004 10.382C9.38901 10.382 10.442 9.32895 10.442 8.02998C10.442 6.731 9.38901 5.67798 8.09004 5.67798C6.79106 5.67798 5.73804 6.731 5.73804 8.02998C5.73804 9.32895 6.79106 10.382 8.09004 10.382Z" fill="white" stroke="black" stroke-width="0.07056"/>
<path d="M8.08997 9.77051C9.05121 9.77051 9.83045 8.99127 9.83045 8.03003C9.83045 7.06879 9.05121 6.28955 8.08997 6.28955C7.12873 6.28955 6.34949 7.06879 6.34949 8.03003C6.34949 8.99127 7.12873 9.77051 8.08997 9.77051Z" fill="white" stroke="black" stroke-width="0.07056"/>
<path d="M10.3568 6.14481C10.2752 6.20729 10.1201 6.36678 10.026 6.48365L9.93856 6.42926C10.0584 6.32562 10.2245 6.17201 10.3164 6.06249L10.3568 6.14481ZM10.2825 6.00884C10.1348 6.0522 9.85257 6.13526 9.73203 6.2117L9.70557 6.17348C9.75628 6.10071 9.81361 5.80157 9.81141 5.71631L9.90328 5.73689C9.87315 5.81039 9.84375 5.96768 9.83566 6.06984C9.93048 6.05294 10.1554 5.97944 10.2193 5.93313L10.2825 6.00884Z" fill="white" stroke="black" stroke-width="0.03528" stroke-linejoin="round"/>
<path d="M10.472 6.34556H10.3554C10.3659 6.28401 10.3491 6.20691 10.308 6.12677C10.2668 6.04662 10.2036 5.96812 10.1286 5.90398C10.0537 5.83984 9.97131 5.79383 9.89489 5.7734C9.81847 5.75296 9.75249 5.7593 9.70762 5.79139C9.66276 5.82348 9.64164 5.87944 9.6477 5.95019C9.65375 6.02095 9.68663 6.10237 9.74099 6.18125C9.79535 6.26012 9.86802 6.33185 9.94722 6.38479C10.0264 6.43773 10.1075 6.46879 10.1773 6.47294L10.2597 6.37467L10.3612 6.47617L10.2477 6.58966C10.1418 6.57391 10.0376 6.53587 9.94207 6.4781C9.84658 6.42033 9.76205 6.34417 9.69418 6.25478C9.62631 6.16539 9.57668 6.06484 9.54866 5.95993C9.52063 5.85501 9.51485 5.74818 9.53172 5.64665C9.63187 5.63001 9.7372 5.6354 9.84077 5.66247C9.94434 5.68953 10.0438 5.73766 10.1326 5.80368C10.2214 5.8697 10.2976 5.95212 10.3561 6.04551C10.4146 6.13891 10.4541 6.24117 10.472 6.34556Z" fill="white" stroke="black" stroke-width="0.03528" stroke-linejoin="round"/>
<path d="M9.9753 10.2967C9.91283 10.2151 9.75333 10.06 9.63647 9.96597L9.69086 9.8785C9.79449 9.99831 9.94811 10.1644 10.0576 10.2563L9.9753 10.2967ZM10.1113 10.2225C10.0679 10.0747 9.98486 9.79251 9.90842 9.67197L9.94664 9.64551C10.0194 9.69622 10.3185 9.75355 10.4038 9.75135L10.3832 9.84322C10.3097 9.81309 10.1524 9.78369 10.0503 9.7756C10.0672 9.87042 10.1407 10.0953 10.187 10.1593L10.1113 10.2225Z" fill="white" stroke="black" stroke-width="0.03528" stroke-linejoin="round"/>
<path d="M9.77455 10.4121V10.2956C9.83611 10.306 9.9132 10.2893 9.99335 10.2481C10.0735 10.2069 10.152 10.1437 10.2161 10.0688C10.2803 9.9938 10.3263 9.91143 10.3467 9.83501C10.3672 9.7586 10.3608 9.69261 10.3287 9.64775C10.2966 9.60288 10.2407 9.58177 10.1699 9.58782C10.0992 9.59388 10.0177 9.62675 9.93887 9.68111C9.85999 9.73548 9.78827 9.80814 9.73533 9.88734C9.68239 9.96654 9.65133 10.0476 9.64718 10.1175L9.74545 10.1999L9.64394 10.3014L9.53046 10.1878C9.5462 10.0819 9.58425 9.97768 9.64202 9.8822C9.69979 9.78671 9.77595 9.70217 9.86534 9.6343C9.95473 9.56643 10.0553 9.51681 10.1602 9.48878C10.2651 9.46076 10.3719 9.45498 10.4735 9.47184C10.4901 9.572 10.4847 9.67733 10.4576 9.7809C10.4306 9.88447 10.3825 9.98393 10.3164 10.0728C10.2504 10.1616 10.168 10.2377 10.0746 10.2962C9.98121 10.3547 9.87895 10.3942 9.77455 10.4121Z" fill="white" stroke="black" stroke-width="0.03528" stroke-linejoin="round"/>
<path d="M5.82334 9.91524C5.90492 9.85277 6.06001 9.69327 6.15409 9.57641L6.24155 9.6308C6.12175 9.73444 5.95564 9.88805 5.86376 9.99757L5.82334 9.91524ZM5.89757 10.0512C6.04531 10.0079 6.32755 9.9248 6.44809 9.84836L6.47455 9.88658C6.42383 9.95934 6.3665 10.2585 6.36871 10.3438L6.27683 10.3232C6.30697 10.2497 6.33637 10.0924 6.34445 9.99022C6.24964 10.0071 6.02473 10.0806 5.96078 10.1269L5.89757 10.0512Z" fill="white" stroke="black" stroke-width="0.03528" stroke-linejoin="round"/>
<path d="M5.70805 9.7145H5.82462C5.8142 9.77605 5.83092 9.85315 5.87208 9.93329C5.91324 10.0134 5.97643 10.0919 6.05141 10.1561C6.12638 10.2202 6.20875 10.2662 6.28516 10.2867C6.36158 10.3071 6.42757 10.3008 6.47243 10.2687C6.5173 10.2366 6.53841 10.1806 6.53236 10.1099C6.5263 10.0391 6.49343 9.95769 6.43906 9.87881C6.3847 9.79993 6.31203 9.72821 6.23284 9.67527C6.15364 9.62233 6.07255 9.59127 6.00271 9.58712L5.92032 9.68539L5.81881 9.58389L5.93237 9.4704C6.03828 9.48615 6.14249 9.52419 6.23798 9.58196C6.33347 9.63973 6.418 9.71589 6.48587 9.80528C6.55375 9.89467 6.60337 9.99522 6.6314 10.1001C6.65942 10.205 6.6652 10.3119 6.64833 10.4134C6.54818 10.43 6.44285 10.4247 6.33928 10.3976C6.23571 10.3705 6.13625 10.3224 6.04743 10.2564C5.9586 10.1904 5.88244 10.1079 5.82395 10.0145C5.76546 9.92115 5.72596 9.81889 5.70805 9.7145Z" fill="white" stroke="black" stroke-width="0.03528" stroke-linejoin="round"/>
<path d="M6.20475 5.76334C6.26723 5.84493 6.42672 6.00001 6.54359 6.09409L6.4892 6.18156C6.38556 6.06175 6.23195 5.89564 6.12243 5.80377L6.20475 5.76334ZM6.06878 5.83758C6.11214 5.98531 6.1952 6.26755 6.27164 6.38809L6.23342 6.41455C6.16065 6.36384 5.86151 6.30651 5.77625 6.30871L5.79683 6.21684C5.87033 6.24697 6.02762 6.27637 6.12978 6.28446C6.11288 6.18964 6.03938 5.96473 5.99307 5.90079L6.06878 5.83758Z" fill="white" stroke="black" stroke-width="0.03528" stroke-linejoin="round"/>
<path d="M6.4055 5.64793V5.7645C6.34395 5.75408 6.26685 5.7708 6.1867 5.81196C6.10656 5.85312 6.02805 5.91631 5.96392 5.99129C5.89978 6.06626 5.85377 6.14863 5.83333 6.22504C5.8129 6.30146 5.81924 6.36745 5.85133 6.41231C5.88341 6.45718 5.93937 6.47829 6.01013 6.47224C6.08089 6.46618 6.1623 6.43331 6.24118 6.37895C6.32006 6.32458 6.39178 6.25191 6.44472 6.17272C6.49767 6.09352 6.52873 6.01243 6.53287 5.94259L6.43461 5.8602L6.53611 5.75869L6.64959 5.87225C6.63385 5.97816 6.59581 6.08237 6.53803 6.17786C6.48026 6.27335 6.40411 6.35789 6.31471 6.42576C6.22532 6.49363 6.12477 6.54325 6.01986 6.57128C5.91495 6.5993 5.80812 6.60508 5.70659 6.58821C5.68995 6.48806 5.69534 6.38273 5.7224 6.27916C5.74947 6.17559 5.79759 6.07613 5.86361 5.98731C5.92963 5.89848 6.01205 5.82232 6.10545 5.76383C6.19885 5.70534 6.30111 5.66584 6.4055 5.64793Z" fill="white" stroke="black" stroke-width="0.03528" stroke-linejoin="round"/>
<path d="M6.22236 9.34575C6.16944 9.25314 6.09962 9.1348 6.0614 9.10393C6.08492 9.08776 6.11652 9.06424 6.13269 9.05983C6.13196 9.11863 6.22089 9.24064 6.22089 9.24064L6.35172 9.15465C6.31497 9.09805 6.28263 9.05469 6.25617 9.03778C6.28851 9.01426 6.32306 8.99442 6.33261 8.99221C6.33335 9.02088 6.35025 9.06865 6.40023 9.12745C6.40023 9.12745 6.52224 9.06277 6.56193 9.01279L6.61338 9.09658C6.55605 9.10761 6.2988 9.26784 6.22236 9.34575ZM6.04082 8.23075C5.90337 8.25574 5.83355 8.37261 5.85707 8.50417C5.88059 8.63721 5.99966 8.72835 6.13049 8.7063C6.26132 8.68351 6.33555 8.56297 6.31056 8.42332C6.28557 8.28367 6.17826 8.20576 6.04082 8.23075ZM6.06066 8.31013C6.17091 8.29029 6.26352 8.34394 6.27896 8.4292C6.29439 8.51446 6.22604 8.59899 6.11505 8.61883C6.00407 8.63868 5.91587 8.56812 5.90337 8.49682C5.89014 8.42406 5.94968 8.32998 6.06066 8.31013ZM6.32967 7.50163C6.2841 7.57366 6.18341 7.63981 6.09447 7.70082C6.08198 7.63761 6.03494 7.59718 5.98055 7.59351C5.92248 7.59057 5.86295 7.63687 5.85266 7.66774C5.83796 7.71037 5.81958 7.89339 5.81958 7.89339C5.93424 7.88457 6.18488 7.90441 6.27087 7.93602L6.28116 7.839C6.22457 7.8537 6.09668 7.82724 6.09668 7.82724L6.09962 7.78461L6.23192 7.68024C6.24882 7.66701 6.34805 7.5744 6.35099 7.50825C6.35172 7.48767 6.33408 7.49281 6.32967 7.50163ZM6.06434 7.82577C6.01215 7.82724 5.90337 7.82136 5.87324 7.80813C5.885 7.70302 5.91734 7.66554 5.9732 7.67068C6.02465 7.67583 6.07904 7.70523 6.06434 7.82577ZM6.56561 6.52335C6.46565 6.53143 6.3407 6.62551 6.34364 6.70636C6.34437 6.74899 6.35907 6.80779 6.41567 6.85042C6.47153 6.89305 6.52959 6.90555 6.5759 6.89673C6.62073 6.88864 6.69497 6.82617 6.69423 6.79162C6.69423 6.75781 6.61485 6.66373 6.56487 6.66373L6.64793 6.5748C6.66924 6.62625 6.7545 6.70122 6.78611 6.71077C6.75009 6.79677 6.70526 6.88644 6.61118 6.9298C6.5171 6.9739 6.41934 6.9717 6.33041 6.88791C6.24662 6.80853 6.27896 6.65565 6.33188 6.59611C6.38994 6.5307 6.49799 6.50277 6.50019 6.45205L6.56561 6.52335ZM7.03454 6.02869L7.05218 6.36238C7.05218 6.36238 7.05879 6.48072 7.03159 6.55422L7.13523 6.48145C7.09481 6.44911 7.10289 6.34989 7.10289 6.34989L7.27047 6.26022C7.27047 6.26022 7.34985 6.31093 7.34176 6.37267L7.48435 6.31461C7.4013 6.283 7.2984 6.21024 7.2984 6.21024L7.03454 6.02869ZM7.08819 6.13233L7.24107 6.23376L7.09186 6.31387L7.08819 6.13233ZM7.83642 5.78394C7.81731 5.86552 7.83789 6.02649 7.86802 6.16026C7.97166 6.1507 8.05104 6.14041 8.08632 6.09631L8.09588 6.20656C7.99371 6.20656 7.88125 6.21832 7.77836 6.23449C7.77982 6.08382 7.76439 5.8861 7.72176 5.80084L7.83642 5.78394ZM8.61478 5.83318C8.56701 5.90227 8.52732 6.05956 8.50674 6.1948C8.6067 6.2242 8.68461 6.24331 8.73385 6.21465L8.70225 6.32122C8.60743 6.28447 8.49792 6.2536 8.39649 6.23082C8.45235 6.0919 8.51041 5.90154 8.50233 5.80746L8.61478 5.83318ZM9.40197 6.18966L9.11091 6.35503C9.11091 6.35503 9.00801 6.41457 8.9301 6.42339L9.04108 6.48219C9.05211 6.43221 9.14472 6.39472 9.14472 6.39472L9.30054 6.50424C9.30054 6.50424 9.29025 6.59905 9.23145 6.6189L9.34684 6.72033C9.33876 6.63213 9.35713 6.50644 9.35713 6.50644L9.40197 6.18966ZM9.33288 6.28374L9.31009 6.46675L9.17118 6.369L9.33288 6.28374ZM9.55632 6.96876L9.51075 6.88276C9.58572 6.87688 9.81136 6.74458 9.915 6.67696L9.93117 6.70636L9.83415 7.14957C9.92088 7.11502 10.0583 7.04299 10.0958 7.0033L10.1473 7.10106C10.051 7.08709 9.87237 7.17529 9.73713 7.25761L9.7239 7.23409L9.80695 6.80265C9.80695 6.80265 9.58278 6.90408 9.55632 6.96876ZM10.2399 7.60968C10.2311 7.54426 10.2296 7.49943 10.198 7.48473L10.1943 7.45753L10.2744 7.4443C10.3075 7.5303 10.345 7.76991 10.3398 7.83165L10.2575 7.84488L10.2538 7.82209C10.281 7.79122 10.2538 7.67803 10.2538 7.67803C10.1318 7.69053 9.91941 7.72507 9.88927 7.76697L9.87016 7.65378C9.91353 7.66848 10.1274 7.64569 10.2399 7.60968ZM9.84517 8.58282C9.89074 8.51079 9.99291 8.44537 10.0818 8.3851C10.0943 8.44831 10.1406 8.48947 10.1958 8.49241C10.2538 8.49609 10.3134 8.45125 10.3237 8.41965C10.3391 8.37702 10.3582 8.19474 10.3582 8.19474C10.2435 8.20209 9.99364 8.18077 9.90765 8.14843L9.89663 8.24545C9.95322 8.23149 10.0811 8.25795 10.0811 8.25795L10.0782 8.30058L9.94513 8.40421C9.9275 8.41744 9.82753 8.50932 9.82386 8.57547C9.82312 8.59605 9.84076 8.59017 9.84517 8.58282ZM10.1134 8.26015C10.1656 8.25942 10.2744 8.26603 10.3045 8.27926C10.2921 8.38437 10.259 8.42185 10.2031 8.41597C10.1517 8.41009 10.098 8.38069 10.1134 8.26015ZM9.69744 8.87461L9.62908 8.99221C9.682 8.98413 9.7555 9.02602 9.81504 9.06498C9.83488 9.1179 9.91279 9.25314 9.90691 9.38544L9.99511 9.23403C9.95616 9.21639 9.91059 9.19728 9.88119 9.05542C9.99732 9.01206 10.084 8.99809 10.1208 9.01867L10.1987 8.88637C10.1083 8.94076 9.89589 8.99662 9.86061 8.98486C9.82386 8.96355 9.71949 8.93121 9.69744 8.87461Z" fill="black"/>
<path d="M9.17409 9.85733C9.22483 9.85733 9.26596 9.8162 9.26596 9.76546C9.26596 9.71472 9.22483 9.67358 9.17409 9.67358C9.12335 9.67358 9.08221 9.71472 9.08221 9.76546C9.08221 9.8162 9.12335 9.85733 9.17409 9.85733Z" fill="black"/>
<path d="M7.00588 9.85733C7.05662 9.85733 7.09775 9.8162 7.09775 9.76546C7.09775 9.71472 7.05662 9.67358 7.00588 9.67358C6.95514 9.67358 6.914 9.71472 6.914 9.76546C6.914 9.8162 6.95514 9.85733 7.00588 9.85733Z" fill="black"/>
<path d="M8.23336 10.2721C8.22381 10.2787 8.19808 10.2654 8.1922 10.2449C8.1922 10.2515 8.19073 10.2721 8.17824 10.2838C8.1481 10.3125 8.11576 10.2985 8.09004 10.2985C8.06431 10.2985 8.03197 10.3125 8.00184 10.2838C7.98934 10.2721 7.98787 10.2515 7.98787 10.2449C7.98199 10.2654 7.95627 10.2787 7.94671 10.2721C7.93789 10.2654 7.9423 10.2368 7.95994 10.225C7.95406 10.2265 7.93348 10.2316 7.91878 10.2235C7.88203 10.2037 7.88571 10.1684 7.87762 10.1442C7.86954 10.1199 7.84602 10.0934 7.86439 10.056C7.87174 10.0405 7.89085 10.0324 7.89673 10.0302C7.87542 10.031 7.85557 10.0104 7.85851 10.0001C7.86219 9.98908 7.89085 9.98467 7.90776 9.9979C7.90335 9.99275 7.89306 9.97511 7.896 9.95821C7.90335 9.91705 7.93789 9.9097 7.95847 9.89426C7.97979 9.87883 7.99743 9.84869 8.03859 9.85457C8.05549 9.85678 8.06872 9.87221 8.07313 9.87736C8.06578 9.85751 8.07901 9.83179 8.09004 9.83179C8.10106 9.83179 8.11429 9.85751 8.10694 9.87736C8.11135 9.87221 8.12458 9.85678 8.14149 9.85457C8.18265 9.84869 8.20029 9.87883 8.2216 9.89426C8.24218 9.9097 8.27673 9.91705 8.28408 9.95821C8.28702 9.97511 8.27673 9.99275 8.27232 9.9979C8.28922 9.98467 8.31789 9.98908 8.32156 10.0001C8.3245 10.0104 8.30466 10.031 8.28334 10.0302C8.28922 10.0324 8.30833 10.0405 8.31568 10.056C8.33406 10.0934 8.31054 10.1199 8.30245 10.1442C8.29437 10.1684 8.29804 10.2037 8.26129 10.2235C8.24659 10.2316 8.22601 10.2265 8.22013 10.225C8.23777 10.2368 8.24218 10.2654 8.23336 10.2721ZM8.02168 10.1692C8.03344 10.178 8.00184 10.2044 8.01433 10.2375C8.0283 10.2765 8.06725 10.2647 8.09004 10.2647C8.11282 10.2647 8.15178 10.2765 8.16574 10.2375C8.17824 10.2044 8.14663 10.178 8.15839 10.1692C8.17015 10.1603 8.18632 10.1986 8.22087 10.1978C8.26276 10.1956 8.2635 10.1559 8.27011 10.1339C8.27746 10.1118 8.30098 10.0787 8.26791 10.053C8.24071 10.031 8.2047 10.053 8.20029 10.0391C8.19588 10.0251 8.23704 10.0222 8.24733 9.98834C8.25835 9.94792 8.22013 9.93542 8.20176 9.92146C8.18265 9.90823 8.15839 9.87589 8.12385 9.89867C8.09518 9.91852 8.10474 9.95894 8.09004 9.95894C8.07534 9.95894 8.08489 9.91852 8.05623 9.89867C8.02168 9.87589 7.99743 9.90823 7.97832 9.92146C7.95994 9.93542 7.92172 9.94792 7.93275 9.98834C7.94304 10.0222 7.9842 10.0251 7.97979 10.0391C7.97538 10.053 7.93936 10.031 7.91217 10.053C7.87909 10.0787 7.90261 10.1118 7.90996 10.1339C7.91658 10.1559 7.91731 10.1956 7.95921 10.1978C7.99375 10.1986 8.00992 10.1603 8.02168 10.1692Z" fill="black"/>
<path d="M8.08999 10.2212C8.08338 10.2212 8.07529 10.2058 8.0797 10.1933C8.0775 10.1969 8.06941 10.2058 8.05912 10.2072C8.03413 10.2109 8.02384 10.1925 8.01135 10.1837C7.99885 10.1742 7.97827 10.1698 7.97386 10.1455C7.97166 10.1352 7.97827 10.1242 7.98048 10.1212C7.97019 10.1293 7.95328 10.1264 7.95108 10.1198C7.94887 10.1139 7.96137 10.1014 7.97386 10.1014C7.97019 10.1007 7.95916 10.0955 7.95475 10.0867C7.94373 10.0639 7.95769 10.0485 7.96284 10.0338C7.96725 10.0191 7.96504 9.99776 7.98709 9.986C7.99591 9.98086 8.00841 9.9838 8.01208 9.98527C8.00106 9.97792 7.99885 9.96101 8.004 9.9566C8.00988 9.95293 8.02531 9.96101 8.02899 9.97277C8.02899 9.9691 8.02972 9.9566 8.03707 9.94999C8.05545 9.93235 8.07456 9.94117 8.08999 9.94117C8.10543 9.94117 8.12454 9.93235 8.14291 9.94999C8.15026 9.9566 8.151 9.9691 8.151 9.97277C8.15467 9.96101 8.17011 9.95293 8.17599 9.9566C8.18113 9.96101 8.17893 9.97792 8.1679 9.98527C8.17158 9.9838 8.18407 9.98086 8.19289 9.986C8.21494 9.99776 8.21274 10.0191 8.21715 10.0338C8.22229 10.0485 8.23626 10.0639 8.22523 10.0867C8.22082 10.0955 8.2098 10.1007 8.20612 10.1014C8.21862 10.1014 8.23111 10.1139 8.22891 10.1198C8.2267 10.1264 8.2098 10.1293 8.19951 10.1212C8.20171 10.1242 8.20833 10.1352 8.20612 10.1455C8.20171 10.1698 8.18113 10.1742 8.16864 10.1837C8.15614 10.1925 8.14585 10.2109 8.12086 10.2072C8.11057 10.2058 8.10249 10.1969 8.10028 10.1933C8.10469 10.2058 8.09661 10.2212 8.08999 10.2212ZM8.08999 10.1374C8.09808 10.1374 8.09293 10.1595 8.10837 10.1698C8.12674 10.1822 8.13997 10.1653 8.15026 10.158C8.16055 10.1506 8.18113 10.1433 8.17452 10.122C8.16937 10.1036 8.14732 10.1021 8.14953 10.094C8.15173 10.0867 8.17084 10.0985 8.18628 10.0867C8.20392 10.0727 8.19142 10.0551 8.18775 10.0433C8.18334 10.0316 8.18334 10.0095 8.16055 10.0088C8.14144 10.0081 8.13336 10.0286 8.12674 10.0242C8.12013 10.0198 8.13777 10.0051 8.13115 9.98747C8.12307 9.96616 8.10249 9.97277 8.08999 9.97277C8.0775 9.97277 8.05692 9.96616 8.04883 9.98747C8.04222 10.0051 8.05986 10.0198 8.05324 10.0242C8.04663 10.0286 8.03854 10.0081 8.01943 10.0088C7.99665 10.0095 7.99665 10.0316 7.99224 10.0433C7.98856 10.0551 7.97607 10.0727 7.99371 10.0867C8.00914 10.0985 8.02825 10.0867 8.03046 10.094C8.03266 10.1021 8.01061 10.1036 8.00547 10.122C7.99885 10.1433 8.01943 10.1506 8.02972 10.158C8.04001 10.1653 8.05324 10.1822 8.07162 10.1698C8.08705 10.1595 8.08191 10.1374 8.08999 10.1374Z" fill="black"/>
<path d="M8.09003 10.1104C8.10951 10.1104 8.12531 10.0946 8.12531 10.0751C8.12531 10.0556 8.10951 10.0398 8.09003 10.0398C8.07054 10.0398 8.05475 10.0556 8.05475 10.0751C8.05475 10.0946 8.07054 10.1104 8.09003 10.1104Z" fill="black"/>
<path d="M6.89496 9.29013C7.69463 9.25746 8.49529 9.25746 9.29496 9.29013" stroke="black" stroke-width="0.035" stroke-linecap="round" stroke-linejoin="round"/>
<path d="M8 7.16504L8.065 7.24004M8.165 8.20004C8.16167 8.26671 8.165 8.32004 8.175 8.36004M8.015 8.21004C8.035 8.23504 8.065 8.32504 8.065 8.36004" stroke="black" stroke-width="0.02" stroke-linecap="round" stroke-linejoin="round"/>
<path d="M8.50998 9.28006C8.47998 9.29006 8.42998 9.32006 8.42998 9.34506C8.42998 9.37006 8.48998 9.37506 8.50998 9.38006C8.47498 9.39006 8.37498 9.41006 8.32998 9.39006C8.29998 9.40506 8.06998 9.35506 8.01998 9.35506C7.98998 9.35506 7.94998 9.32506 7.95498 9.27006C7.95498 9.26006 7.96498 9.23006 7.98998 9.22006C7.97498 9.19006 8.04498 9.14506 8.11498 9.10006C8.01498 9.11506 7.87998 9.07506 7.84498 9.03506C7.76498 9.00506 7.72998 9.03506 7.69498 9.10506C7.69498 9.22506 7.62998 9.28506 7.54498 9.27506C7.49498 9.26506 7.47998 9.29006 7.46498 9.30006L7.62998 9.35006C7.73998 9.45006 7.67998 9.53006 7.65498 9.55006C7.62998 9.57006 7.56998 9.55506 7.53498 9.55506C7.49498 9.55506 7.49498 9.57006 7.48498 9.57506C7.45164 9.59173 7.42998 9.59506 7.41998 9.58506C7.41998 9.57006 7.43498 9.50006 7.47998 9.49006C7.50498 9.49006 7.55498 9.47506 7.55498 9.45006C7.55498 9.42506 7.46498 9.43006 7.39498 9.40506C7.33998 9.38506 7.31998 9.35506 7.33998 9.26006C7.35498 9.16006 7.47498 9.14506 7.53498 9.14506C7.52498 9.10506 7.53498 9.03006 7.58498 8.98006C7.66498 8.90506 7.78498 8.93006 7.88998 8.94006C7.94998 8.90506 8.05998 8.85506 8.16998 8.85006C8.26998 8.85006 8.69998 8.73506 8.89498 8.76006C8.84498 8.69506 8.85998 8.54006 8.93998 8.49506C9.03998 8.43506 9.14998 8.59506 9.17998 8.56506C9.20998 8.53506 9.14498 8.49506 9.06998 8.41506C9.04998 8.38506 9.05498 8.38506 9.05498 8.37506C9.05498 8.34839 9.05998 8.32839 9.06998 8.31506C9.07998 8.31006 9.13998 8.33006 9.15498 8.35506C9.17831 8.38839 9.19998 8.39673 9.21998 8.38006C9.24498 8.36006 9.20998 8.37006 9.19498 8.33006C9.18998 8.30506 9.16998 8.28506 9.17498 8.26506C9.20753 8.23091 9.24664 8.2037 9.28998 8.18506C9.30664 8.20839 9.32164 8.23006 9.33498 8.25006C9.36998 8.30506 9.40498 8.29006 9.42998 8.33006C9.42998 8.35006 9.43831 8.37839 9.45498 8.41506C9.49705 8.48897 9.55729 8.55092 9.62998 8.59506C9.64664 8.60506 9.65664 8.61673 9.65998 8.63006C9.65998 8.65339 9.65331 8.67006 9.63998 8.68006C9.62998 8.69006 9.58998 8.69006 9.55998 8.67506C9.51331 8.64839 9.47831 8.63673 9.45498 8.64006C9.38498 8.65006 9.33998 8.76006 9.23998 8.76006C9.14998 8.75006 9.08998 8.61506 9.03498 8.65506C8.97998 8.69506 9.15998 8.80506 9.13498 8.85506C9.15498 8.86506 9.17998 8.90506 9.16998 8.94006C9.20995 8.93199 9.24786 8.91586 9.28138 8.89265C9.31491 8.86944 9.34336 8.83963 9.36498 8.80506C9.41498 8.73839 9.45164 8.70173 9.47498 8.69506C9.50498 8.68006 9.53998 8.69506 9.53998 8.72006L9.58498 8.73506C9.60498 8.75173 9.60831 8.76839 9.59498 8.78506L9.56498 8.76506C9.54831 8.76506 9.52831 8.77506 9.50498 8.79506C9.48831 8.82173 9.46831 8.85006 9.44498 8.88006L9.34498 8.99006C9.35498 9.01673 9.35831 9.04173 9.35498 9.06506C9.36498 9.06506 9.37664 9.06839 9.38998 9.07506C9.39664 9.07839 9.39664 9.09006 9.38998 9.11006C9.38998 9.13506 9.28998 9.24506 9.26998 9.24006C9.22998 9.24006 9.19998 9.19006 9.20498 9.17506C9.15998 9.19506 9.13998 9.14506 9.13998 9.12506C9.10845 9.15687 9.07111 9.18233 9.02998 9.20006C9.00998 9.21006 8.99664 9.20339 8.98998 9.18006C8.98498 9.20006 8.92498 9.22006 8.90998 9.22506C8.83498 9.24006 8.75498 9.27506 8.67998 9.27506L8.48998 9.27006L8.50998 9.28006Z" fill="white" stroke="black" stroke-width="0.025" stroke-linecap="round" stroke-linejoin="round"/>
<path d="M8.77503 8.57013C8.77503 8.60013 8.73003 8.67013 8.79503 8.73013C8.83503 8.76013 8.90003 8.78513 8.92003 8.83013C8.94003 8.86513 8.91503 8.89513 8.90503 8.89513C8.86503 8.88513 8.81003 8.95513 8.79003 9.00513C8.77003 8.93513 8.72503 8.95513 8.66503 8.96513C8.67503 8.88847 8.6317 8.84513 8.53503 8.83513C8.55003 8.82013 8.52503 8.80013 8.50503 8.78013C8.48503 8.76013 8.41503 8.77513 8.40503 8.76013C8.40503 8.74513 8.44003 8.71013 8.42003 8.68513C8.40003 8.65013 8.32003 8.67013 8.29003 8.66013C8.30003 8.6268 8.2967 8.59347 8.28003 8.56013C8.25503 8.51013 8.17003 8.53513 8.12503 8.52513C8.1617 8.49847 8.1717 8.46347 8.15503 8.42013C8.13503 8.37013 8.03503 8.42513 8.03503 8.37013C8.04003 8.34513 8.15503 8.33013 8.20003 8.32513C8.24503 8.32013 8.38503 8.36013 8.52503 8.39013C8.55503 8.42013 8.77503 8.48513 8.77503 8.57013Z" fill="white" stroke="black" stroke-width="0.015" stroke-linecap="round" stroke-linejoin="round"/>
<path d="M9.14 9.12994C9.21389 9.09197 9.28275 9.04494 9.345 8.98994M8.065 8.93994C8.125 8.93994 8.26 8.95994 8.3 9.00994C8.335 9.05994 8.36 9.14494 8.095 9.20994C8.175 9.20994 8.295 9.19494 8.335 9.20494C8.375 9.19494 8.46 9.16994 8.495 9.17994C8.48 9.18494 8.435 9.19994 8.435 9.22994C8.435 9.24661 8.45334 9.25994 8.49 9.26994M8.745 9.08994C8.84 9.10994 8.975 9.07994 8.995 9.17994" stroke="black" stroke-width="0.025" stroke-linecap="round" stroke-linejoin="round"/>
<path d="M9.06 8.34009C9.085 8.37009 9.16 8.41509 9.195 8.44009C9.245 8.48009 9.265 8.43509 9.23 8.37009" stroke="black" stroke-width="0.02" stroke-linecap="round" stroke-linejoin="round"/>
<path d="M8.405 8.76009C8.5052 8.73802 8.6074 8.72629 8.71 8.72509M8.29 8.66009C8.44 8.62009 8.6 8.63509 8.7 8.63509M8.675 8.95509L8.805 8.83009M8.535 8.83009C8.585 8.81509 8.665 8.78009 8.735 8.77009M8.525 8.39009C8.605 8.31509 8.695 8.32509 8.785 8.28009C8.835 8.25009 8.885 8.18009 8.935 8.12509C8.955 8.10175 8.98833 8.09009 9.035 8.09009C9.10833 8.10009 9.10667 8.11175 9.03 8.12509C8.97 8.13509 8.965 8.16009 8.945 8.20509C8.925 8.24509 8.945 8.29009 8.955 8.32009L8.915 8.43009C8.915 8.44342 8.92333 8.46175 8.94 8.48509M8.125 8.52509C8.325 8.48009 8.625 8.56009 8.68 8.56009" stroke="black" stroke-width="0.015" stroke-linecap="round" stroke-linejoin="round"/>
<path d="M9.38496 8.85009C9.44996 8.81509 9.44996 8.75009 9.53496 8.72009M9.20496 9.17509C9.28996 9.13509 9.30496 9.10009 9.35496 9.06509M9.41496 8.53009C9.37496 8.54009 9.36496 8.50509 9.32996 8.50009C9.28496 8.49009 9.25996 8.52009 9.25996 8.54509C9.25996 8.57009 9.28496 8.59509 9.30996 8.59509C9.33496 8.59509 9.35996 8.58009 9.41496 8.58509M9.22496 8.22509C9.25829 8.23175 9.28662 8.22842 9.30996 8.21509M9.39996 8.38009C9.38662 8.38009 9.37329 8.37509 9.35996 8.36509C9.34662 8.34509 9.34496 8.33175 9.35496 8.32509C9.35829 8.31509 9.36996 8.31842 9.38996 8.33509C9.41996 8.36009 9.40496 8.37009 9.39996 8.38009Z" stroke="black" stroke-width="0.01" stroke-linecap="round" stroke-linejoin="round"/>
<path d="M8.13495 7.53493C8.13286 7.53396 8.13075 7.53198 8.12888 7.52921C8.12701 7.52644 8.12545 7.52301 8.12439 7.51932C8.12334 7.51563 8.12283 7.51184 8.12293 7.5084C8.12303 7.50496 8.12373 7.50202 8.12495 7.49993C8.12288 7.49906 8.12078 7.49716 8.11892 7.49444C8.11706 7.49173 8.1155 7.48832 8.11445 7.48462C8.11339 7.48093 8.11288 7.4771 8.11297 7.47361C8.11306 7.47012 8.11375 7.4671 8.11495 7.46493C8.11289 7.46417 8.11081 7.46235 8.10895 7.45969C8.10709 7.45703 8.10553 7.45364 8.10448 7.44994C8.10342 7.44624 8.1029 7.44237 8.10298 7.43882C8.10307 7.43527 8.10375 7.43218 8.10495 7.42993C8.10307 7.42825 8.10133 7.42573 8.09992 7.42264C8.09852 7.41955 8.0975 7.41601 8.09699 7.4124C8.09647 7.40879 8.09648 7.40525 8.097 7.40217C8.09752 7.39909 8.09854 7.39658 8.09995 7.39493C8.09791 7.39455 8.09582 7.39301 8.09394 7.39053C8.09207 7.38804 8.0905 7.38471 8.08943 7.38097C8.08835 7.37722 8.08783 7.37322 8.08793 7.36947C8.08802 7.36572 8.08873 7.3624 8.08995 7.35993C8.08812 7.35848 8.08644 7.35616 8.08507 7.35322C8.0837 7.35027 8.0827 7.34682 8.08219 7.34322C8.08168 7.33962 8.08166 7.33601 8.08215 7.33279C8.08264 7.32957 8.08361 7.32685 8.08495 7.32493C8.08364 7.3251 8.08228 7.32475 8.08094 7.32391C8.0796 7.32306 8.07832 7.32174 8.07716 7.32C8.07481 7.3165 8.07313 7.31155 8.07246 7.30624C8.0718 7.30094 8.07222 7.29571 8.07362 7.29172C8.07503 7.28772 8.0773 7.28528 8.07995 7.28493C8.07814 7.28376 8.07645 7.28166 8.07509 7.27886C8.07372 7.27607 8.07273 7.27268 8.07221 7.26906C8.07169 7.26545 8.07168 7.26176 8.07216 7.25838C8.07265 7.25501 8.07361 7.25208 8.07495 7.24993C8.07312 7.24897 8.07142 7.24704 8.07003 7.24435C8.06865 7.24165 8.06764 7.2383 8.06712 7.23466C8.0666 7.23103 8.06659 7.22726 8.06709 7.22377C8.06759 7.22029 8.06858 7.21722 8.06995 7.21493C8.0673 7.21479 8.06475 7.21255 8.06288 7.2087C8.061 7.20485 8.05994 7.19971 8.05994 7.1944C8.05994 7.1891 8.061 7.18407 8.06288 7.18042C8.06475 7.17676 8.0673 7.17479 8.06995 7.17493C8.06802 7.1745 8.06621 7.17296 8.06474 7.17049C8.06327 7.16801 8.06221 7.16472 8.06168 7.161C8.06115 7.15729 8.06117 7.15331 8.06175 7.14957C8.06234 7.14583 8.06345 7.14248 8.06495 7.13993C8.06362 7.1402 8.0623 7.13996 8.06107 7.1392C8.05984 7.13845 8.05872 7.13721 8.05778 7.13555C8.05588 7.13219 8.05481 7.12732 8.05481 7.12202C8.05481 7.11671 8.05588 7.1114 8.05778 7.10726C8.05968 7.10312 8.06226 7.10048 8.06495 7.09993C8.06222 7.10075 8.05959 7.09944 8.05765 7.09627C8.05571 7.09311 8.05463 7.08835 8.05463 7.08305C8.05463 7.07774 8.05571 7.07233 8.05765 7.06799C8.05959 7.06366 8.06222 7.06075 8.06495 7.05993C8.06359 7.05809 8.06261 7.05544 8.06211 7.05227C8.06162 7.04909 8.06163 7.04551 8.06214 7.04191C8.06266 7.03831 8.06366 7.03483 8.06503 7.03184C8.06641 7.02884 8.06811 7.02645 8.06995 7.02493C8.06736 7.02398 8.0654 7.02096 8.06451 7.01654C8.06361 7.01212 8.06386 7.00666 8.06518 7.00135C8.06651 6.99605 8.06881 6.99134 8.07158 6.98826C8.07435 6.98518 8.07736 6.98398 8.07995 6.98493C8.07837 6.98369 8.0772 6.9815 8.07657 6.97861C8.07595 6.97571 8.07589 6.97223 8.07641 6.96857C8.07694 6.96491 8.07802 6.96122 8.07953 6.95792C8.08104 6.95462 8.08292 6.95185 8.08495 6.94993C8.08207 6.94994 8.07983 6.94784 8.07873 6.94409C8.07763 6.94035 8.07776 6.93526 8.07908 6.92996C8.08041 6.92465 8.08283 6.91956 8.0858 6.91581C8.08878 6.91205 8.09207 6.90994 8.09495 6.90993C8.09362 6.90792 8.09301 6.90488 8.09322 6.90123C8.09343 6.89758 8.09444 6.89352 8.09611 6.88963C8.09777 6.88574 8.10001 6.88222 8.1025 6.87957C8.10499 6.87693 8.1076 6.87531 8.10995 6.87493C8.10837 6.87336 8.10754 6.87066 8.1076 6.86723C8.10767 6.8638 8.10861 6.85982 8.11029 6.85589C8.11198 6.85196 8.11432 6.84828 8.11696 6.84541C8.1196 6.84253 8.1224 6.84061 8.12495 6.83993C8.12286 6.83897 8.1216 6.83668 8.12138 6.83343C8.12117 6.83019 8.12201 6.82618 8.12376 6.82208C8.12552 6.81799 8.12808 6.81405 8.13103 6.81092C8.13398 6.8078 8.13713 6.80569 8.13995 6.80493C8.13768 6.8032 8.13682 6.79971 8.13755 6.79521C8.13829 6.79071 8.14056 6.78557 8.14388 6.78093C8.14719 6.77629 8.15128 6.77252 8.15523 6.77046C8.15918 6.7684 8.16268 6.7682 8.16495 6.76993C8.16221 6.76878 8.16089 6.76584 8.16129 6.76174C8.16169 6.75765 8.16378 6.75274 8.16709 6.7481C8.17041 6.74346 8.17468 6.73946 8.17896 6.73699C8.18325 6.73452 8.18721 6.73378 8.18995 6.73493C8.18818 6.73333 8.18765 6.73056 8.18847 6.72712C8.18929 6.72368 8.1914 6.7198 8.19442 6.71618C8.19744 6.71256 8.20117 6.70943 8.20493 6.70737C8.2087 6.7053 8.21225 6.70444 8.21495 6.70493C8.21162 6.70382 8.21001 6.70091 8.21047 6.69684C8.21092 6.69277 8.21341 6.68788 8.21739 6.68324C8.22137 6.6786 8.22651 6.67459 8.23168 6.67209C8.23685 6.6696 8.24162 6.66882 8.24495 6.66993" fill="white"/>
<path d="M8.13495 7.53493C8.13286 7.53396 8.13075 7.53198 8.12888 7.52921C8.12701 7.52644 8.12545 7.52301 8.12439 7.51932C8.12334 7.51563 8.12283 7.51184 8.12293 7.5084C8.12303 7.50496 8.12373 7.50202 8.12495 7.49993C8.12288 7.49906 8.12078 7.49716 8.11892 7.49444C8.11706 7.49173 8.1155 7.48832 8.11445 7.48462C8.11339 7.48093 8.11288 7.4771 8.11297 7.47361C8.11306 7.47012 8.11375 7.4671 8.11495 7.46493C8.11289 7.46417 8.11081 7.46235 8.10895 7.45969C8.10709 7.45703 8.10553 7.45364 8.10448 7.44994C8.10342 7.44624 8.1029 7.44237 8.10298 7.43882C8.10307 7.43527 8.10375 7.43218 8.10495 7.42993C8.10307 7.42825 8.10133 7.42573 8.09992 7.42264C8.09852 7.41955 8.0975 7.41601 8.09699 7.4124C8.09647 7.40879 8.09648 7.40525 8.097 7.40217C8.09752 7.39909 8.09854 7.39658 8.09995 7.39493C8.09791 7.39455 8.09582 7.39301 8.09394 7.39053C8.09207 7.38804 8.0905 7.38471 8.08943 7.38097C8.08835 7.37722 8.08783 7.37322 8.08793 7.36947C8.08802 7.36572 8.08873 7.3624 8.08995 7.35993C8.08812 7.35848 8.08644 7.35616 8.08507 7.35322C8.0837 7.35027 8.0827 7.34682 8.08219 7.34322C8.08168 7.33962 8.08166 7.33601 8.08215 7.33279C8.08264 7.32957 8.08361 7.32685 8.08495 7.32493C8.08364 7.3251 8.08228 7.32475 8.08094 7.32391C8.0796 7.32306 8.07832 7.32174 8.07716 7.32C8.07481 7.3165 8.07313 7.31155 8.07246 7.30624C8.0718 7.30094 8.07222 7.29571 8.07362 7.29172C8.07503 7.28772 8.0773 7.28528 8.07995 7.28493C8.07814 7.28376 8.07645 7.28166 8.07509 7.27886C8.07372 7.27607 8.07273 7.27268 8.07221 7.26906C8.07169 7.26545 8.07168 7.26176 8.07216 7.25838C8.07265 7.25501 8.07361 7.25208 8.07495 7.24993C8.07312 7.24897 8.07142 7.24704 8.07003 7.24435C8.06865 7.24165 8.06764 7.2383 8.06712 7.23466C8.0666 7.23103 8.06659 7.22726 8.06709 7.22377C8.06759 7.22029 8.06858 7.21722 8.06995 7.21493C8.0673 7.21479 8.06475 7.21255 8.06288 7.2087C8.061 7.20485 8.05994 7.19971 8.05994 7.1944C8.05994 7.1891 8.061 7.18407 8.06288 7.18042C8.06475 7.17676 8.0673 7.17479 8.06995 7.17493C8.06802 7.1745 8.06621 7.17296 8.06474 7.17049C8.06327 7.16801 8.06221 7.16472 8.06168 7.161C8.06115 7.15729 8.06117 7.15331 8.06175 7.14957C8.06234 7.14583 8.06345 7.14248 8.06495 7.13993C8.06362 7.1402 8.0623 7.13996 8.06107 7.1392C8.05984 7.13845 8.05872 7.13721 8.05778 7.13555C8.05588 7.13219 8.05481 7.12732 8.05481 7.12202C8.05481 7.11671 8.05588 7.1114 8.05778 7.10726C8.05968 7.10312 8.06226 7.10048 8.06495 7.09993C8.06222 7.10075 8.05959 7.09944 8.05765 7.09627C8.05571 7.09311 8.05463 7.08835 8.05463 7.08305C8.05463 7.07774 8.05571 7.07233 8.05765 7.06799C8.05959 7.06366 8.06222 7.06075 8.06495 7.05993C8.06359 7.05809 8.06261 7.05544 8.06211 7.05227C8.06162 7.04909 8.06163 7.04551 8.06214 7.04191C8.06266 7.03831 8.06366 7.03483 8.06503 7.03184C8.06641 7.02884 8.06811 7.02645 8.06995 7.02493C8.06736 7.02398 8.0654 7.02096 8.06451 7.01654C8.06361 7.01212 8.06386 7.00666 8.06518 7.00135C8.06651 6.99605 8.06881 6.99134 8.07158 6.98826C8.07435 6.98518 8.07736 6.98398 8.07995 6.98493C8.07837 6.98369 8.0772 6.9815 8.07657 6.97861C8.07595 6.97571 8.07589 6.97223 8.07641 6.96857C8.07694 6.96491 8.07802 6.96122 8.07953 6.95792C8.08104 6.95462 8.08292 6.95185 8.08495 6.94993C8.08207 6.94994 8.07983 6.94784 8.07873 6.94409C8.07763 6.94035 8.07776 6.93526 8.07908 6.92996C8.08041 6.92465 8.08283 6.91956 8.0858 6.91581C8.08878 6.91205 8.09207 6.90994 8.09495 6.90993C8.09362 6.90792 8.09301 6.90488 8.09322 6.90123C8.09343 6.89758 8.09444 6.89352 8.09611 6.88963C8.09777 6.88574 8.10001 6.88222 8.1025 6.87957C8.10499 6.87693 8.1076 6.87531 8.10995 6.87493C8.10837 6.87336 8.10754 6.87066 8.1076 6.86723C8.10767 6.8638 8.10861 6.85982 8.11029 6.85589C8.11198 6.85196 8.11432 6.84828 8.11696 6.84541C8.1196 6.84253 8.1224 6.84061 8.12495 6.83993C8.12286 6.83897 8.1216 6.83668 8.12138 6.83343C8.12117 6.83019 8.12201 6.82618 8.12376 6.82208C8.12552 6.81799 8.12808 6.81405 8.13103 6.81092C8.13398 6.8078 8.13713 6.80569 8.13995 6.80493C8.13768 6.8032 8.13682 6.79971 8.13755 6.79521C8.13829 6.79071 8.14056 6.78557 8.14388 6.78093C8.14719 6.77629 8.15128 6.77252 8.15523 6.77046C8.15918 6.7684 8.16268 6.7682 8.16495 6.76993C8.16221 6.76878 8.16089 6.76584 8.16129 6.76174C8.16169 6.75765 8.16378 6.75274 8.16709 6.7481C8.17041 6.74346 8.17468 6.73946 8.17896 6.73699C8.18325 6.73452 8.18721 6.73378 8.18995 6.73493C8.18818 6.73333 8.18765 6.73056 8.18847 6.72712C8.18929 6.72368 8.1914 6.7198 8.19442 6.71618C8.19744 6.71256 8.20117 6.70943 8.20493 6.70737C8.2087 6.7053 8.21225 6.70444 8.21495 6.70493C8.21162 6.70382 8.21001 6.70091 8.21047 6.69684C8.21092 6.69277 8.21341 6.68788 8.21739 6.68324C8.22137 6.6786 8.22651 6.67459 8.23168 6.67209C8.23685 6.6696 8.24162 6.66882 8.24495 6.66993" stroke="black" stroke-width="0.005" stroke-linecap="round" stroke-linejoin="round"/>
<path d="M8.18 7.51992L8.135 7.53492M8.17 7.48492L8.125 7.49992M8.165 7.44992L8.115 7.46492M8.16 7.41492L8.11 7.42992M8.155 7.38492L8.1 7.39492M8.15 7.34492L8.09 7.35992M8.14 7.30992L8.085 7.32492M8.14 7.27492L8.08 7.28492M8.14 7.24492H8.07M8.14 7.20992H8.07M8.14 7.17492H8.065M8.14 7.13992H8.065M8.145 7.10492L8.065 7.09992M8.15 7.06992L8.07 7.05992M8.155 7.03992L8.07 7.02492M8.165 7.00492L8.08 6.98492M8.175 6.97492L8.085 6.94992M8.185 6.93992L8.095 6.90992M8.195 6.90992L8.11 6.87492M8.21 6.88492L8.125 6.83492M8.23 6.85492L8.14 6.80492M8.25 6.82992L8.165 6.76992M8.27 6.80492L8.19 6.73492M8.295 6.78492L8.215 6.70492M8.32 6.75492L8.245 6.66992" stroke="black" stroke-width="0.005" stroke-linecap="round" stroke-linejoin="round"/>
<path d="M8.64994 7.03486L8.52494 7.04986C8.51494 7.07486 8.51494 7.14486 8.51494 7.16986C8.62994 7.28486 8.74494 7.42986 8.75494 7.56486C8.79202 7.59479 8.81978 7.63469 8.83494 7.67986C8.91994 7.63486 9.00494 7.56486 9.07494 7.54486C9.12494 7.53486 9.20494 7.52986 9.24994 7.55486L9.52994 7.72486C9.58994 7.76486 9.63328 7.8082 9.65994 7.85486C9.68494 7.89486 9.68994 7.96986 9.67994 7.98986L9.50994 7.93986C9.50328 7.9132 9.50828 7.88486 9.52494 7.85486C9.53494 7.82486 9.53494 7.82486 9.50994 7.80486C9.48994 7.79486 9.47328 7.79486 9.45994 7.80486C9.43661 7.80486 9.41661 7.79486 9.39994 7.77486C9.3296 7.72935 9.25406 7.69242 9.17494 7.66486C9.14161 7.6582 9.10494 7.6682 9.06494 7.69486C9.04494 7.72486 8.98494 7.81486 8.93994 7.85986C8.92994 7.86986 8.92828 7.8832 8.93494 7.89986L9.11494 7.90486C9.18494 7.91486 9.26494 7.98486 9.30494 8.02986C9.47994 8.18986 9.54494 8.27986 9.59994 8.32986C9.62994 8.3532 9.64661 8.3832 9.64994 8.41986H9.47994C9.47994 8.35986 9.47328 8.3132 9.45994 8.27986C9.43994 8.25486 9.40494 8.26486 9.38994 8.26486C9.37328 8.26153 9.35661 8.24486 9.33994 8.21486C9.31494 8.16486 9.22494 8.09986 9.18494 8.07486C9.14494 8.04986 9.12994 8.05986 9.08494 8.05486C9.05161 8.04486 9.00994 8.04486 8.95994 8.05486C8.91494 8.06986 8.78994 8.10986 8.67494 8.12486C8.63494 8.14486 8.50994 8.16486 8.37494 8.19486C8.27494 8.21486 8.04994 8.25486 8.00494 8.25486C7.98994 8.35986 7.87494 8.51486 7.84494 8.52986C7.81161 8.57986 7.80828 8.6132 7.83494 8.62986C7.85994 8.65486 8.02994 8.65486 8.06994 8.65486L8.21494 8.65986C8.23994 8.66486 8.27994 8.69986 8.32494 8.72486C8.35494 8.73986 8.35994 8.75986 8.37994 8.78986C8.39661 8.80986 8.40994 8.82986 8.41994 8.84986H8.21994C8.21661 8.79653 8.19994 8.7682 8.16994 8.76486C8.13994 8.78486 8.10494 8.80986 8.06494 8.79486C7.90994 8.78486 7.80994 8.79486 7.66494 8.77986C7.61994 8.77986 7.58494 8.71986 7.59994 8.66486C7.61328 8.6182 7.61328 8.57486 7.59994 8.53486C7.58494 8.54986 7.52494 8.60486 7.49494 8.64486C7.44494 8.69986 7.47494 8.75986 7.49494 8.79486C7.51994 8.81986 7.68994 8.97986 7.70994 9.02486C7.72494 9.05486 7.79494 9.10486 7.85994 9.15986C7.88328 9.2032 7.91328 9.2382 7.94994 9.26486H7.69994L7.70994 9.19986C7.70994 9.18486 7.69494 9.15486 7.65994 9.15986C7.62494 9.16486 7.59994 9.12486 7.58994 9.09486C7.57994 9.06486 7.46494 8.91486 7.42994 8.88486L7.27994 8.73986C7.25994 8.73486 7.25494 8.69986 7.27994 8.67486C7.32358 8.61751 7.35737 8.5533 7.37994 8.48486C7.39494 8.43986 7.37994 8.43486 7.36994 8.42486C7.26049 8.34425 7.16862 8.24218 7.09994 8.12486C7.03324 8.13948 6.96372 8.13427 6.89994 8.10986C6.84328 8.07653 6.79494 8.0832 6.75494 8.12986C6.73494 8.16486 6.73494 8.21986 6.76994 8.24486C6.81994 8.2882 6.87494 8.34486 6.93494 8.41486C6.98494 8.47986 6.93994 8.52986 6.86994 8.58986C6.87994 8.61486 6.86994 8.60986 6.87994 8.65486C6.90494 8.68986 6.90494 8.77486 6.87494 8.78986C6.84161 8.80653 6.80828 8.8332 6.77494 8.86986C6.73494 8.91486 6.72494 8.86986 6.73494 8.79986C6.74494 8.75486 6.70994 8.71986 6.67994 8.68486C6.64994 8.64986 6.66494 8.55486 6.67994 8.52486C6.70494 8.49486 6.71994 8.43986 6.67994 8.39486C6.63494 8.35486 6.55494 8.26486 6.56494 8.14486C6.56676 8.11486 6.57567 8.08572 6.59094 8.05983C6.60621 8.03394 6.62741 8.01204 6.65279 7.99594C6.67817 7.97983 6.707 7.96998 6.73693 7.96718C6.76686 7.96439 6.79702 7.96873 6.82494 7.97986C6.97494 8.04486 7.05994 8.02986 7.10494 8.01986C7.14494 7.94653 7.20828 7.8832 7.29494 7.82986C7.37994 7.77986 7.54494 7.71486 7.70994 7.68986L8.11494 7.53986C8.16994 7.52986 8.16494 7.47986 8.16494 7.44986C8.11494 7.17486 8.12494 6.88486 8.34994 6.73986C8.37494 6.71486 8.36494 6.65486 8.39994 6.60986L8.46494 6.71986C8.56494 6.75486 8.73494 6.81486 8.80494 6.84986C8.83828 6.85986 8.86661 6.8682 8.88994 6.87486C8.91328 6.88153 8.92994 6.8982 8.93994 6.92486C8.94994 6.9582 8.94328 6.9832 8.91994 6.99986C8.90494 7.00486 8.82494 6.97986 8.80494 6.99986C8.80494 7.01653 8.82828 7.0332 8.87494 7.04986C8.88994 7.05986 8.85994 7.09986 8.83994 7.09986C8.82328 7.09986 8.80828 7.09486 8.79494 7.08486C8.74494 7.07486 8.69494 7.0582 8.64494 7.03486" fill="white"/>
<path d="M8.64994 7.03486L8.52494 7.04986C8.51494 7.07486 8.51494 7.14486 8.51494 7.16986C8.62994 7.28486 8.74494 7.42986 8.75494 7.56486C8.79202 7.59479 8.81978 7.63469 8.83494 7.67986C8.91994 7.63486 9.00494 7.56486 9.07494 7.54486C9.12494 7.53486 9.20494 7.52986 9.24994 7.55486L9.52994 7.72486C9.58994 7.76486 9.63328 7.8082 9.65994 7.85486C9.68494 7.89486 9.68994 7.96986 9.67994 7.98986L9.50994 7.93986C9.50328 7.9132 9.50828 7.88486 9.52494 7.85486C9.53494 7.82486 9.53494 7.82486 9.50994 7.80486C9.48994 7.79486 9.47328 7.79486 9.45994 7.80486C9.43661 7.80486 9.41661 7.79486 9.39994 7.77486C9.3296 7.72935 9.25406 7.69242 9.17494 7.66486C9.14161 7.6582 9.10494 7.6682 9.06494 7.69486C9.04494 7.72486 8.98494 7.81486 8.93994 7.85986C8.92994 7.86986 8.92828 7.8832 8.93494 7.89986L9.11494 7.90486C9.18494 7.91486 9.26494 7.98486 9.30494 8.02986C9.47994 8.18986 9.54494 8.27986 9.59994 8.32986C9.62994 8.3532 9.64661 8.3832 9.64994 8.41986H9.47994C9.47994 8.35986 9.47328 8.3132 9.45994 8.27986C9.43994 8.25486 9.40494 8.26486 9.38994 8.26486C9.37328 8.26153 9.35661 8.24486 9.33994 8.21486C9.31494 8.16486 9.22494 8.09986 9.18494 8.07486C9.14494 8.04986 9.12994 8.05986 9.08494 8.05486C9.05161 8.04486 9.00994 8.04486 8.95994 8.05486C8.91494 8.06986 8.78994 8.10986 8.67494 8.12486C8.63494 8.14486 8.50994 8.16486 8.37494 8.19486C8.27494 8.21486 8.04994 8.25486 8.00494 8.25486C7.98994 8.35986 7.87494 8.51486 7.84494 8.52986C7.81161 8.57986 7.80828 8.6132 7.83494 8.62986C7.85994 8.65486 8.02994 8.65486 8.06994 8.65486L8.21494 8.65986C8.23994 8.66486 8.27994 8.69986 8.32494 8.72486C8.35494 8.73986 8.35994 8.75986 8.37994 8.78986C8.39661 8.80986 8.40994 8.82986 8.41994 8.84986H8.21994C8.21661 8.79653 8.19994 8.7682 8.16994 8.76486C8.13994 8.78486 8.10494 8.80986 8.06494 8.79486C7.90994 8.78486 7.80994 8.79486 7.66494 8.77986C7.61994 8.77986 7.58494 8.71986 7.59994 8.66486C7.61328 8.6182 7.61328 8.57486 7.59994 8.53486C7.58494 8.54986 7.52494 8.60486 7.49494 8.64486C7.44494 8.69986 7.47494 8.75986 7.49494 8.79486C7.51994 8.81986 7.68994 8.97986 7.70994 9.02486C7.72494 9.05486 7.79494 9.10486 7.85994 9.15986C7.88328 9.2032 7.91328 9.2382 7.94994 9.26486H7.69994L7.70994 9.19986C7.70994 9.18486 7.69494 9.15486 7.65994 9.15986C7.62494 9.16486 7.59994 9.12486 7.58994 9.09486C7.57994 9.06486 7.46494 8.91486 7.42994 8.88486L7.27994 8.73986C7.25994 8.73486 7.25494 8.69986 7.27994 8.67486C7.32358 8.61751 7.35737 8.5533 7.37994 8.48486C7.39494 8.43986 7.37994 8.43486 7.36994 8.42486C7.26049 8.34425 7.16862 8.24218 7.09994 8.12486C7.03324 8.13948 6.96372 8.13427 6.89994 8.10986C6.84328 8.07653 6.79494 8.0832 6.75494 8.12986C6.73494 8.16486 6.73494 8.21986 6.76994 8.24486C6.81994 8.2882 6.87494 8.34486 6.93494 8.41486C6.98494 8.47986 6.93994 8.52986 6.86994 8.58986C6.87994 8.61486 6.86994 8.60986 6.87994 8.65486C6.90494 8.68986 6.90494 8.77486 6.87494 8.78986C6.84161 8.80653 6.80828 8.8332 6.77494 8.86986C6.73494 8.91486 6.72494 8.86986 6.73494 8.79986C6.74494 8.75486 6.70994 8.71986 6.67994 8.68486C6.64994 8.64986 6.66494 8.55486 6.67994 8.52486C6.70494 8.49486 6.71994 8.43986 6.67994 8.39486C6.63494 8.35486 6.55494 8.26486 6.56494 8.14486C6.56676 8.11486 6.57567 8.08572 6.59094 8.05983C6.60621 8.03394 6.62741 8.01204 6.65279 7.99594C6.67817 7.97983 6.707 7.96998 6.73693 7.96718C6.76686 7.96439 6.79702 7.96873 6.82494 7.97986C6.97494 8.04486 7.05994 8.02986 7.10494 8.01986C7.14494 7.94653 7.20828 7.8832 7.29494 7.82986C7.37994 7.77986 7.54494 7.71486 7.70994 7.68986L8.11494 7.53986C8.16994 7.52986 8.16494 7.47986 8.16494 7.44986C8.11494 7.17486 8.12494 6.88486 8.34994 6.73986C8.37494 6.71486 8.36494 6.65486 8.39994 6.60986L8.46494 6.71986C8.56494 6.75486 8.73494 6.81486 8.80494 6.84986C8.83828 6.85986 8.86661 6.8682 8.88994 6.87486C8.91328 6.88153 8.92994 6.8982 8.93994 6.92486C8.94994 6.9582 8.94328 6.9832 8.91994 6.99986C8.90494 7.00486 8.82494 6.97986 8.80494 6.99986C8.80494 7.01653 8.82828 7.0332 8.87494 7.04986C8.88994 7.05986 8.85994 7.09986 8.83994 7.09986C8.82328 7.09986 8.80828 7.09486 8.79494 7.08486C8.74494 7.07486 8.69494 7.0582 8.64494 7.03486" stroke="black" stroke-width="0.025" stroke-linecap="round" stroke-linejoin="round"/>
<path d="M8.36498 6.85498C8.36498 7.02498 8.41998 7.10998 8.51498 7.16998M8.83498 7.67998C8.84844 7.74597 8.84844 7.81399 8.83498 7.87998M7.59998 8.52998C7.72498 8.47498 7.83998 8.32998 7.83498 8.23998C7.83498 8.18998 7.78998 8.11498 7.67998 8.10998M7.82998 8.23998C7.86998 8.25498 7.94498 8.24498 8.00498 8.25498M8.63498 7.83998C8.73498 7.84498 8.86498 7.90498 8.93498 7.89998M8.58498 8.03998C8.67498 8.05998 8.67498 8.09998 8.84998 8.08998M8.54998 7.47998C8.64498 7.47998 8.69998 7.52998 8.74998 7.56498" stroke="black" stroke-width="0.025" stroke-linecap="round" stroke-linejoin="round"/>
<path d="M7.815 8.31998C7.885 8.32665 7.935 8.30331 7.965 8.24998M8.365 6.85498C8.365 6.99498 8.415 7.02998 8.525 7.04998" stroke="black" stroke-width="0.015" stroke-linecap="round" stroke-linejoin="round"/>
<path d="M8.89996 6.87991C8.89496 6.91491 8.88996 6.94491 8.94996 6.93991M8.64496 6.78491C8.59996 6.89491 8.82496 6.90991 8.82996 6.98491M7.57996 7.71991C7.68996 7.76991 7.67996 7.98491 7.67996 8.10991" stroke="black" stroke-width="0.01" stroke-linecap="round" stroke-linejoin="round"/>
<path d="M8.78 6.98505C8.745 7.05505 8.665 7.16005 8.59 7.21505C8.47333 7.30171 8.33833 7.36338 8.185 7.40005C8.16166 7.41005 8.135 7.41171 8.105 7.40505C8.07166 7.40505 8.04333 7.38171 8.02 7.33505C8.01 7.31505 8.015 7.20505 8.055 7.19005C8.09321 7.17526 8.13405 7.16845 8.175 7.17005C8.205 7.17005 8.22166 7.18338 8.225 7.21005C8.22166 7.23671 8.205 7.24838 8.175 7.24505C8.145 7.23505 8.1 7.21505 8.075 7.23505C8.055 7.24505 8.04 7.29505 8.055 7.32005C8.07166 7.35338 8.09 7.37005 8.11 7.37005L8.175 7.36505C8.32166 7.32505 8.45166 7.26505 8.565 7.18505C8.64 7.13505 8.715 7.01505 8.745 6.96505L8.78 6.98505ZM8.18 7.20005C8.135 7.19005 8.06 7.20005 8.055 7.22005C8.08833 7.20338 8.13 7.20338 8.18 7.22005C8.19666 7.21671 8.19666 7.21005 8.18 7.20005ZM8.48 6.82505L8.495 6.79005C8.5 6.78505 8.485 6.70505 8.565 6.74505C8.65 6.79505 8.585 6.83005 8.58 6.83505L8.56 6.87005" fill="white"/>
<path d="M8.48 6.82505L8.495 6.79005C8.5 6.78505 8.485 6.70505 8.565 6.74505C8.65 6.79505 8.585 6.83005 8.58 6.83505L8.56 6.87005M8.78 6.98505C8.745 7.05505 8.665 7.16005 8.59 7.21505C8.47333 7.30171 8.33833 7.36338 8.185 7.40005C8.16166 7.41005 8.135 7.41171 8.105 7.40505C8.07166 7.40505 8.04333 7.38171 8.02 7.33505C8.01 7.31505 8.015 7.20505 8.055 7.19005C8.09321 7.17526 8.13405 7.16845 8.175 7.17005C8.205 7.17005 8.22166 7.18338 8.225 7.21005C8.22166 7.23671 8.205 7.24838 8.175 7.24505C8.145 7.23505 8.1 7.21505 8.075 7.23505C8.055 7.24505 8.04 7.29505 8.055 7.32005C8.07166 7.35338 8.09 7.37005 8.11 7.37005L8.175 7.36505C8.32166 7.32505 8.45166 7.26505 8.565 7.18505C8.64 7.13505 8.715 7.01505 8.745 6.96505L8.78 6.98505ZM8.18 7.20005C8.135 7.19005 8.06 7.20005 8.055 7.22005C8.08833 7.20338 8.13 7.20338 8.18 7.22005C8.19666 7.21671 8.19666 7.21005 8.18 7.20005Z" stroke="black" stroke-width="0.01" stroke-linecap="round" stroke-linejoin="round"/>
<path d="M8.33502 6.75L8.81002 7" stroke="black" stroke-width="0.02" stroke-linecap="round" stroke-linejoin="round"/>
<path d="M7.73496 6.76998C7.62769 6.77395 7.52031 6.76556 7.41496 6.74498C7.37496 6.73998 7.25996 6.90498 7.19996 6.91498C7.13996 6.92998 7.07996 6.79498 6.99496 6.82498C6.94996 6.85998 6.99496 7.02498 6.96996 7.03998C6.94496 7.06498 6.86996 6.95998 6.81996 6.98998C6.76996 7.02998 6.85996 7.24498 6.83496 7.26998C6.80996 7.29498 6.70496 7.17498 6.66996 7.19998C6.63496 7.22498 6.70496 7.55998 6.66996 7.57498C6.63996 7.59498 6.48496 7.48498 6.46996 7.52999C6.44496 7.57999 6.68496 7.68498 6.74996 7.68998L6.81496 7.66498C6.83496 7.67498 7.02496 7.68998 7.04496 7.68998L7.14996 7.57999C7.31496 7.36499 7.49996 7.16499 7.73496 7.17999V6.76998Z" fill="white" stroke="black" stroke-width="0.015" stroke-linecap="round" stroke-linejoin="round"/>
<path d="M7.00997 6.82506L7.32497 6.81006M6.81997 6.99006L6.96997 6.94006M6.66997 7.19006L6.81497 7.13006M6.46497 7.53006L6.66497 7.35006M6.81497 7.66006C6.89997 7.51006 7.06497 7.35006 7.20997 7.26506M6.67497 7.57506C6.79497 7.43006 7.12997 7.19506 7.23997 7.17506M6.96997 7.04006C7.10997 6.98006 7.30997 6.97006 7.46997 6.95506M7.19497 6.91506C7.21497 6.91506 7.45497 6.88506 7.55997 6.89006M6.83497 7.27506C7.01497 7.16506 7.20663 7.07673 7.40997 7.01006" stroke="black" stroke-width="0.015" stroke-linecap="round" stroke-linejoin="round"/>
<path d="M8.40999 9.56007C8.42499 9.56507 8.43999 9.60007 8.43999 9.60007C8.43999 9.60007 8.40999 9.61507 8.39999 9.61007L6.92499 9.17007C6.88499 9.16007 6.89999 9.09007 6.94499 9.10507L8.40999 9.56007ZM7.00999 7.51007C6.99666 7.4734 6.97666 7.45174 6.94999 7.44507C6.93999 7.44507 6.90499 7.48007 6.90999 7.49007C6.90999 7.51007 6.95499 7.54007 6.96999 7.54007L7.00999 7.51007ZM7.14499 7.56007L7.01999 7.68507C7.00499 7.70007 7.03499 7.72507 7.04999 7.71007L7.17499 7.59007C7.18999 7.57507 7.15999 7.54507 7.14499 7.56007ZM7.08499 7.68007L7.46999 8.07507L7.54499 8.08507L7.53499 8.00507L7.13499 7.62507L7.08499 7.68007Z" fill="white" stroke="black" stroke-width="0.02" stroke-linecap="round" stroke-linejoin="round"/>
<path d="M7.48999 8.0299L7.10999 7.6499" stroke="black" stroke-width="0.005" stroke-linecap="round" stroke-linejoin="round"/>
<path d="M8 6.92995C8 6.90662 8.00833 6.88995 8.025 6.87995C8.05 6.86495 8.04 6.87495 8.055 6.87995L8.095 6.90495C8.105 6.91162 8.11166 6.91162 8.115 6.90495C8.115 6.89162 8.12 6.87828 8.13 6.86495L8.14 6.85495C8.15 6.85495 8.15333 6.84995 8.15 6.83995C8.14666 6.82995 8.15166 6.82328 8.165 6.81995C8.175 6.81995 8.195 6.83495 8.195 6.81995L8.21 6.73995C8.24 6.74495 8.23 6.70995 8.24 6.70995C8.27 6.71995 8.285 6.66995 8.265 6.64995C8.26833 6.61328 8.29666 6.59662 8.35 6.59995C8.345 6.57495 8.305 6.56495 8.28 6.52995C8.255 6.49495 8.18 6.44995 8.09 6.44995C8 6.44995 7.935 6.52995 7.9 6.56495C7.865 6.59995 7.8 6.61495 7.785 6.61495C7.76833 6.60495 7.75166 6.59828 7.735 6.59495H7.65C7.62 6.59495 7.61 6.61495 7.575 6.60995C7.555 6.60995 7.475 6.60995 7.45 6.61995C7.425 6.62995 7.45 6.67995 7.475 6.68495C7.485 6.68495 7.55 6.68495 7.575 6.69995C7.6 6.71495 7.675 6.71995 7.705 6.70495C7.77 6.68495 7.81 6.72495 7.88 6.74495L7.905 6.74995C7.90833 6.78995 7.90166 6.80828 7.885 6.80495H7.825L7.76 6.77495C7.73 6.77495 7.71 6.77828 7.7 6.78495C7.615 6.81995 7.315 7.05495 7.285 7.10995C7.25 7.16995 7.2 7.20495 7.155 7.29495C7.13 7.34495 7.08 7.40495 7.05 7.48495C7 7.50995 6.945 7.55495 6.935 7.56995C6.935 7.58328 6.94166 7.59328 6.955 7.59995C6.955 7.60995 6.965 7.61828 6.985 7.62495C6.98166 7.63828 6.98833 7.64495 7.005 7.64495C7.005 7.66162 7.01333 7.67328 7.03 7.67995L7.15 7.55495C7.15666 7.49828 7.17333 7.45162 7.2 7.41495C7.26254 7.33752 7.31935 7.25564 7.37 7.16995C7.385 7.14995 7.53 7.09495 7.57 7.05995C7.55732 7.13609 7.55732 7.21381 7.57 7.28995C7.595 7.38995 7.625 7.45495 7.645 7.53995C7.665 7.62495 7.645 7.67495 7.645 7.71495C7.645 7.73828 7.66166 7.75495 7.695 7.76495C7.72 7.78495 7.84 7.76495 7.875 7.77995C7.94833 7.79662 8 7.80662 8.03 7.80995C8.09004 7.7982 8.1523 7.80888 8.205 7.83995C8.235 7.86495 8.29 7.98995 8.31 8.03995C8.33 8.08995 8.44 8.14495 8.46 8.17495C8.485 8.19995 8.505 8.27495 8.5 8.30995C8.49333 8.34328 8.505 8.35662 8.535 8.34995C8.56 8.34995 8.66 8.36495 8.675 8.37495C8.695 8.38495 8.735 8.41995 8.75 8.41995C8.765 8.41995 8.835 8.42995 8.87 8.42495C8.905 8.41995 8.9 8.36995 8.885 8.36495L8.785 8.34495C8.73295 8.32009 8.6869 8.28427 8.65 8.23995C8.62333 8.19995 8.60166 8.15828 8.585 8.11495L8.43 7.88995L8.35 7.69995C8.335 7.66495 8.31 7.66495 8.285 7.65495C8.195 7.62995 8.16 7.61995 8.065 7.60495C8 7.58995 7.985 7.58495 7.975 7.53495C7.975 7.49495 7.945 7.42495 7.96 7.37495L7.98 7.28495C7.98 7.25995 8 7.21995 8 7.19995L8.01 7.04995L8 6.92995ZM8.07 7.33995C8.06 7.33995 8.02 7.34995 7.995 7.33995C7.99 7.33995 7.995 7.31995 7.995 7.31995C7.995 7.31995 7.985 7.30495 7.995 7.29995C7.99166 7.29328 7.99166 7.28662 7.995 7.27995C7.985 7.26995 7.985 7.26162 7.995 7.25495L8.065 7.24995C8.07833 7.27995 8.08 7.30995 8.07 7.33995Z" fill="white" stroke="black" stroke-width="0.025" stroke-linecap="round" stroke-linejoin="round"/>
<path d="M7.905 6.75489C7.925 6.76989 7.925 6.75489 7.96 6.74489C7.995 6.73489 8.025 6.76489 8.01 6.79489C7.99667 6.82822 8.00667 6.84822 8.04 6.85489C8.09 6.86489 8.09 6.81989 8.1 6.80489L8.135 6.76989C8.145 6.72989 8.185 6.73989 8.21 6.74489M8.26 6.64989C8.245 6.65989 8.2 6.62489 8.19 6.59489C8.18 6.55155 8.15 6.52822 8.1 6.52489C8.025 6.51989 7.95 6.55489 7.935 6.60989L7.92 6.69489C7.9 6.69489 7.88834 6.69822 7.885 6.70489L7.88 6.74489M7.565 7.05989L7.665 7.00989" stroke="black" stroke-width="0.025" stroke-linecap="round" stroke-linejoin="round"/>
<path d="M7.66996 7.01514C7.69496 7.08014 7.71996 7.14514 7.75496 7.16514M7.80996 7.19014C7.84996 7.21014 7.89163 7.21347 7.93496 7.20014M7.67996 7.67514C7.78496 7.67514 7.82996 7.72514 7.91496 7.75514C8.00496 7.78014 8.12496 7.76514 8.23996 7.82014M7.64496 7.33514C7.67829 7.35514 7.71163 7.36514 7.74496 7.36514M7.78996 7.36514C7.84996 7.37847 7.88829 7.4018 7.90496 7.43514M7.76496 7.49014C7.81496 7.54014 7.91496 7.58014 7.97496 7.58014" stroke="black" stroke-width="0.015" stroke-linecap="round" stroke-linejoin="round"/>
<path d="M7.85001 6.7999C7.89501 6.9599 7.90001 7.0199 8.01001 7.0499M7.80501 6.7949C7.85501 6.9499 7.90501 7.0349 8.01001 7.0449C7.88001 7.0399 7.81001 6.9299 7.76001 6.7749M8.58501 8.1149L8.46501 8.1799M8.35501 8.0899L8.51501 8.0099M8.33001 8.0599L8.49501 7.9799M8.59001 8.2849C8.57001 8.27157 8.55334 8.2499 8.54001 8.2199L8.50501 8.1399L8.48001 8.1549C8.46001 8.1549 8.45668 8.14824 8.47001 8.1349L8.49001 8.1249L8.46001 8.0649C8.45001 8.0649 8.45334 8.0599 8.47001 8.0499C8.48668 8.0399 8.49334 8.0399 8.49001 8.0499L8.52001 8.1099L8.54001 8.0999C8.55501 8.0899 8.56501 8.1149 8.55001 8.1199L8.52501 8.1299L8.56501 8.2099C8.58501 8.2449 8.59001 8.2549 8.59001 8.2849Z" stroke="black" stroke-width="0.01" stroke-linecap="round" stroke-linejoin="round"/>
<path d="M7.00496 7.65009L7.05996 7.60009M6.98496 7.62509L7.03496 7.57509M6.95496 7.60009L7.00996 7.55009M7.99996 7.32009H8.04996M7.99496 7.28009H8.04496M7.99496 7.30009H8.04496M8.10996 6.84009L8.13996 6.85509" stroke="black" stroke-width="0.005" stroke-linecap="round" stroke-linejoin="round"/>
</g>
</g>
<defs>
<clipPath id="clip0_2214_3718">
<path d="M0 12C0 5.37258 5.37258 0 12 0C18.6274 0 24 5.37258 24 12C24 18.6274 18.6274 24 12 24C5.37258 24 0 18.6274 0 12Z" fill="white"/>
</clipPath>
<clipPath id="clip1_2214_3718">
<rect width="32" height="24" fill="white"/>
</clipPath>
</defs>
</svg>
