<svg width="24" height="24" viewBox="0 0 24 24" fill="none" xmlns="http://www.w3.org/2000/svg">
<g clip-path="url(#clip0_2214_4019)">
<path d="M17.2174 1.19072C15.6398 0.427875 13.8699 0 12 0C10.1302 0 8.36028 0.427875 6.78265 1.19072L5.73917 12L6.78265 22.8093C8.36028 23.5721 10.1302 24 12 24C13.8699 24 15.6398 23.5721 17.2174 22.8093L18.2609 12L17.2174 1.19072Z" fill="#FFDA44"/>
<path d="M11.9999 7.82617L13.0358 11.0146H16.3887L13.6763 12.9854L14.7123 16.174L11.9999 14.2033L9.28744 16.174L10.3236 12.9854L7.61124 11.0146H10.9639L11.9999 7.82617Z" fill="#496E2D"/>
<path d="M6.78263 1.19116C2.76872 3.13212 0 7.24254 0 12C0 16.7575 2.76872 20.8679 6.78263 22.8089V1.19116Z" fill="#496E2D"/>
<path d="M17.2174 1.19116V22.8089C21.2313 20.8679 24 16.7575 24 12C24 7.24254 21.2313 3.13212 17.2174 1.19116Z" fill="#D80027"/>
</g>
<defs>
<clipPath id="clip0_2214_4019">
<rect width="24" height="24" fill="white"/>
</clipPath>
</defs>
</svg>
