<svg width="24" height="24" viewBox="0 0 24 24" fill="none" xmlns="http://www.w3.org/2000/svg">
<g clip-path="url(#clip0_3053_1920)">
<path d="M0 12C0 5.37258 5.37258 0 12 0C18.6274 0 24 5.37258 24 12C24 18.6274 18.6274 24 12 24C5.37258 24 0 18.6274 0 12Z" fill="white"/>
<g clip-path="url(#clip1_3053_1920)">
<path d="M-5.99997 0H30V24H-5.99997V0Z" fill="white"/>
<path d="M8 0H16V24H8V0Z" fill="#DC171D"/>
<path d="M-6 8H30V16H-6V8Z" fill="#012A87"/>
<path d="M12.0002 8.33203L11.6912 9.28309L12.1667 9.4376L12.0002 8.33203Z" fill="white"/>
<path d="M12.0002 8.33203L12.3092 9.28309L11.8337 9.4376L12.0002 8.33203Z" fill="white"/>
<path d="M12.9511 9.02344H11.9511V9.52344L12.9511 9.02344Z" fill="white"/>
<path d="M12.9511 9.02344L12.1421 9.61122L11.8482 9.20671L12.9511 9.02344Z" fill="white"/>
<path d="M11.0492 9.02368L11.8582 9.61147L12.1521 9.20696L11.0492 9.02368Z" fill="white"/>
<path d="M11.0492 9.02368H12.0492V9.52368L11.0492 9.02368Z" fill="white"/>
<path d="M12.5878 10.1414L12.2788 9.1903L11.8032 9.34481L12.5878 10.1414Z" fill="white"/>
<path d="M12.5878 10.1414L11.7788 9.55357L12.0726 9.14906L12.5878 10.1414Z" fill="white"/>
<path d="M11.4124 10.1416L12.2214 9.55382L11.9275 9.14931L11.4124 10.1416Z" fill="white"/>
<path d="M11.4124 10.1416L11.7214 9.19055L12.1969 9.34505L11.4124 10.1416Z" fill="white"/>
<path d="M17.333 10.541L17.024 11.4921L17.4995 11.6466L17.333 10.541Z" fill="white"/>
<path d="M17.333 10.541L17.6421 11.4921L17.1665 11.6466L17.333 10.541Z" fill="white"/>
<path d="M18.2844 11.2324H17.2844V11.7324L18.2844 11.2324Z" fill="white"/>
<path d="M18.2844 11.2324L17.4754 11.8202L17.1815 11.4157L18.2844 11.2324Z" fill="white"/>
<path d="M16.3821 11.2324L17.1911 11.8202L17.485 11.4157L16.3821 11.2324Z" fill="white"/>
<path d="M16.3821 11.2324H17.3821V11.7324L16.3821 11.2324Z" fill="white"/>
<path d="M17.9209 12.3506L17.6119 11.3995L17.1364 11.554L17.9209 12.3506Z" fill="white"/>
<path d="M17.9209 12.3506L17.1119 11.7628L17.4058 11.3583L17.9209 12.3506Z" fill="white"/>
<path d="M16.7452 12.3506L17.5543 11.7628L17.2604 11.3583L16.7452 12.3506Z" fill="white"/>
<path d="M16.7452 12.3506L17.0543 11.3995L17.5298 11.554L16.7452 12.3506Z" fill="white"/>
<path d="M14.209 13.6675L13.9 14.6185L14.3755 14.773L14.209 13.6675Z" fill="white"/>
<path d="M14.209 13.6675L14.518 14.6185L14.0425 14.773L14.209 13.6675Z" fill="white"/>
<path d="M15.1599 14.3569H14.1599V14.8569L15.1599 14.3569Z" fill="white"/>
<path d="M15.1599 14.3569L14.3509 14.9447L14.057 14.5402L15.1599 14.3569Z" fill="white"/>
<path d="M13.2575 14.3572L14.0665 14.945L14.3604 14.5405L13.2575 14.3572Z" fill="white"/>
<path d="M13.2575 14.3572H14.2575V14.8572L13.2575 14.3572Z" fill="white"/>
<path d="M14.7966 15.4768L14.4876 14.5258L14.012 14.6803L14.7966 15.4768Z" fill="white"/>
<path d="M14.7966 15.4768L13.9876 14.889L14.2814 14.4845L14.7966 15.4768Z" fill="white"/>
<path d="M13.6212 15.4751L14.4302 14.8873L14.1363 14.4828L13.6212 15.4751Z" fill="white"/>
<path d="M13.6212 15.4751L13.9302 14.524L14.4057 14.6785L13.6212 15.4751Z" fill="white"/>
<path d="M6.66696 10.541L6.97598 11.4921L6.50045 11.6466L6.66696 10.541Z" fill="white"/>
<path d="M6.66696 10.541L6.35794 11.4921L6.83347 11.6466L6.66696 10.541Z" fill="white"/>
<path d="M5.71558 11.2324H6.71558V11.7324L5.71558 11.2324Z" fill="white"/>
<path d="M5.71558 11.2324L6.52459 11.8202L6.81849 11.4157L5.71558 11.2324Z" fill="white"/>
<path d="M7.61792 11.2324L6.8089 11.8202L6.51501 11.4157L7.61792 11.2324Z" fill="white"/>
<path d="M7.61792 11.2324H6.61792V11.7324L7.61792 11.2324Z" fill="white"/>
<path d="M6.07907 12.3506L6.38809 11.3995L6.86362 11.554L6.07907 12.3506Z" fill="white"/>
<path d="M6.07907 12.3506L6.88809 11.7628L6.5942 11.3583L6.07907 12.3506Z" fill="white"/>
<path d="M7.25476 12.3506L6.44574 11.7628L6.73964 11.3583L7.25476 12.3506Z" fill="white"/>
<path d="M7.25476 12.3506L6.94574 11.3995L6.47022 11.554L7.25476 12.3506Z" fill="white"/>
<path d="M9.79102 13.6675L10.1 14.6185L9.6245 14.773L9.79102 13.6675Z" fill="white"/>
<path d="M9.79102 13.6675L9.482 14.6185L9.95753 14.773L9.79102 13.6675Z" fill="white"/>
<path d="M8.84012 14.3569H9.84012V14.8569L8.84012 14.3569Z" fill="white"/>
<path d="M8.84012 14.3569L9.64914 14.9447L9.94303 14.5402L8.84012 14.3569Z" fill="white"/>
<path d="M10.7425 14.3572L9.93348 14.945L9.63958 14.5405L10.7425 14.3572Z" fill="white"/>
<path d="M10.7425 14.3572H9.74249V14.8572L10.7425 14.3572Z" fill="white"/>
<path d="M9.20343 15.4768L9.51245 14.5258L9.98798 14.6803L9.20343 15.4768Z" fill="white"/>
<path d="M9.20343 15.4768L10.0124 14.889L9.71855 14.4845L9.20343 15.4768Z" fill="white"/>
<path d="M10.3788 15.4751L9.56983 14.8873L9.86372 14.4828L10.3788 15.4751Z" fill="white"/>
<path d="M10.3788 15.4751L10.0698 14.524L9.5943 14.6785L10.3788 15.4751Z" fill="white"/>
</g>
</g>
<defs>
<clipPath id="clip0_3053_1920">
<path d="M0 12C0 5.37258 5.37258 0 12 0C18.6274 0 24 5.37258 24 12C24 18.6274 18.6274 24 12 24C5.37258 24 0 18.6274 0 12Z" fill="white"/>
</clipPath>
<clipPath id="clip1_3053_1920">
<rect width="36" height="24" fill="white" transform="translate(-6)"/>
</clipPath>
</defs>
</svg>
