<svg width="24" height="24" viewBox="0 0 24 24" fill="none" xmlns="http://www.w3.org/2000/svg">
<g clip-path="url(#clip0_2214_3411)">
<g clip-path="url(#clip1_2214_3411)">
<path d="M-4 0H28V24H-4V0Z" fill="white"/>
<path d="M9.60001 0H14.4V24H9.60001V0Z" fill="#FF0000"/>
<path d="M-4 9.6001H28V14.4001H-4V9.6001Z" fill="#FF0000"/>
<path fill-rule="evenodd" clip-rule="evenodd" d="M3.34 18.655C3.39 17.815 3.54 17.1 3.54 17.1C3.54 17.1 3.05 17.15 2.8 17.15C2.55 17.15 2.06 17.1 2.06 17.1C2.06 17.1 2.21 17.815 2.26 18.66C1.415 18.61 0.699997 18.46 0.699997 18.46C0.699997 18.46 0.749997 18.83 0.749997 19.2C0.749997 19.57 0.699997 19.94 0.699997 19.94C0.699997 19.94 1.415 19.79 2.26 19.74C2.21 20.585 2.06 21.3 2.06 21.3C2.06 21.3 2.43 21.25 2.8 21.25C3.17 21.25 3.54 21.3 3.54 21.3C3.54 21.3 3.39 20.585 3.34 19.74C4.185 19.79 4.9 19.94 4.9 19.94C4.9 19.94 4.85 19.45 4.85 19.2C4.85 18.95 4.9 18.46 4.9 18.46C4.9 18.46 4.185 18.61 3.345 18.66L3.34 18.655ZM21.74 4.25495C21.79 3.41495 21.94 2.69995 21.94 2.69995C21.94 2.69995 21.45 2.74995 21.2 2.74995C20.95 2.74995 20.46 2.69995 20.46 2.69995C20.46 2.69995 20.61 3.41495 20.66 4.25495C19.815 4.20495 19.1 4.05995 19.1 4.05995C19.1 4.05995 19.15 4.42995 19.15 4.79995C19.15 5.16995 19.1 5.53995 19.1 5.53995C19.1 5.53995 19.815 5.38995 20.66 5.33995C20.61 6.18495 20.46 6.89995 20.46 6.89995C20.46 6.89995 20.83 6.84995 21.2 6.84995C21.57 6.84995 21.94 6.89995 21.94 6.89995C21.94 6.89995 21.79 6.18495 21.74 5.34495C22.585 5.39495 23.3 5.54495 23.3 5.54495C23.3 5.54495 23.25 5.04495 23.25 4.79995C23.25 4.55495 23.3 4.05995 23.3 4.05995C23.3 4.05995 22.585 4.20995 21.74 4.25995V4.25495ZM3.34 4.25495C3.39 3.41495 3.54 2.69995 3.54 2.69995C3.54 2.69995 3.05 2.74995 2.8 2.74995C2.55 2.74995 2.06 2.69995 2.06 2.69995C2.06 2.69995 2.21 3.41495 2.26 4.25995C1.415 4.20995 0.699997 4.05995 0.699997 4.05995C0.699997 4.05995 0.749997 4.42995 0.749997 4.79995C0.749997 5.16995 0.699997 5.53995 0.699997 5.53995C0.699997 5.53995 1.415 5.38995 2.26 5.33995C2.21 6.18495 2.06 6.89995 2.06 6.89995C2.06 6.89995 2.43 6.84995 2.8 6.84995C3.17 6.84995 3.54 6.89995 3.54 6.89995C3.54 6.89995 3.39 6.18495 3.34 5.33995C4.185 5.38995 4.9 5.53995 4.9 5.53995C4.9 5.53995 4.85 5.04995 4.85 4.79995C4.85 4.54995 4.9 4.05995 4.9 4.05995C4.9 4.05995 4.185 4.20995 3.345 4.25995L3.34 4.25495ZM21.74 18.655C21.79 17.815 21.94 17.1 21.94 17.1C21.94 17.1 21.45 17.15 21.2 17.15C20.95 17.15 20.46 17.1 20.46 17.1C20.46 17.1 20.61 17.815 20.66 18.66C19.815 18.61 19.1 18.46 19.1 18.46C19.1 18.46 19.15 18.83 19.15 19.2C19.15 19.57 19.1 19.94 19.1 19.94C19.1 19.94 19.815 19.79 20.66 19.74C20.61 20.585 20.46 21.3 20.46 21.3C20.46 21.3 20.83 21.25 21.2 21.25C21.57 21.25 21.94 21.3 21.94 21.3C21.94 21.3 21.79 20.585 21.74 19.74C22.585 19.79 23.3 19.94 23.3 19.94C23.3 19.94 23.25 19.45 23.25 19.2C23.25 18.95 23.3 18.46 23.3 18.46C23.3 18.46 22.585 18.61 21.74 18.66V18.655Z" fill="#FF0000"/>
</g>
</g>
<defs>
<clipPath id="clip0_2214_3411">
<path d="M0 12C0 5.37258 5.37258 0 12 0C18.6274 0 24 5.37258 24 12C24 18.6274 18.6274 24 12 24C5.37258 24 0 18.6274 0 12Z" fill="white"/>
</clipPath>
<clipPath id="clip1_2214_3411">
<rect width="32" height="24" fill="white" transform="translate(-4)"/>
</clipPath>
</defs>
</svg>
