<svg width="24" height="24" viewBox="0 0 24 24" fill="none" xmlns="http://www.w3.org/2000/svg">
<g clip-path="url(#clip0_2214_3503)">
<g clip-path="url(#clip1_2214_3503)">
<path d="M-4 0H28V24H-4" fill="#EC1B2E"/>
<path d="M13.315 5.15506C9.35001 4.90006 7.53002 10.0951 11.28 12.0151C9.98002 10.8951 10.25 9.25006 10.775 8.39506L10.87 8.45006C10.18 9.62506 10.31 11.0851 11.425 12.0001C10.79 11.3851 10.95 10.0501 12.03 9.55506C13.11 9.06006 13.21 7.59006 12.85 7.10006C12.36 6.24673 12.515 5.59839 13.315 5.15506ZM11.395 8.20006L11.16 8.57006L11.07 8.14006L10.64 8.02506L11.03 7.81006L11 7.36506L11.325 7.67006L11.74 7.50506L11.555 7.91006L11.835 8.25006L11.395 8.20006Z" fill="white"/>
<path d="M18.8237 11.613C17.8409 7.76326 12.3378 7.63768 11.6706 11.7975C12.334 10.215 13.982 9.96343 14.9573 10.1985L14.9344 10.3059C13.6037 10.0127 12.2553 10.5875 11.7296 11.9307C12.1183 11.1368 13.4374 10.8764 14.2419 11.7506C15.0464 12.6247 16.4754 12.2656 16.8302 11.7718C17.4903 11.0421 18.1548 10.9891 18.8237 11.613ZM15.3344 10.7279L14.9099 10.6188L15.291 10.4003L15.2675 9.9558L15.5925 10.2603L16.0065 10.0942L15.8168 10.4976L16.102 10.8413L15.6596 10.7905L15.4228 11.1618L15.3344 10.7279Z" fill="white"/>
<path d="M14.384 18.8476C17.7417 16.7234 16.1605 11.4508 11.9982 12.1016C13.7082 12.2436 14.4567 13.7332 14.5345 14.7335L14.4253 14.7448C14.2929 13.3886 13.3296 12.2839 11.8897 12.199C12.7649 12.3233 13.4201 13.4974 12.8374 14.5327C12.2546 15.5679 13.0377 16.816 13.617 17.0008C14.515 17.4031 14.7707 18.0188 14.384 18.8476ZM14.1475 15.2556L14.1202 14.8182L14.4457 15.1132L14.8612 14.9534L14.6721 15.3566L14.9579 15.699L14.5157 15.6433L14.2769 16.0207L14.1885 15.5843L13.7622 15.4738L14.1475 15.2556Z" fill="white"/>
<path d="M6.1315 16.8611C9.18936 19.3979 13.7153 16.2649 11.8101 12.5074C12.2035 14.1776 11.0181 15.3497 10.0908 15.7328L10.0463 15.6325C11.2952 15.0875 12.0482 13.8299 11.6839 12.4343C11.8362 13.3051 10.922 14.291 9.75734 14.0567C8.59264 13.8224 7.6477 14.9528 7.65093 15.5609C7.54577 16.5392 7.03929 16.9726 6.1315 16.8611ZM9.47461 15.5262L9.88221 15.365L9.70228 15.7657L9.98256 16.1115L9.54067 16.0562L9.30337 16.4339L9.21972 15.9961L8.78699 15.8856L9.17471 15.6667L9.14803 15.2271L9.47461 15.5262Z" fill="white"/>
<path d="M5.47082 8.39846C4.00305 12.0906 8.38138 15.4269 11.3662 12.4537C9.89932 13.344 8.41826 12.5789 7.76734 11.8154L7.84901 11.742C8.75328 12.7613 10.182 13.0889 11.3968 12.3112C10.6156 12.7251 9.39542 12.1603 9.25839 10.9802C9.12135 9.80014 7.7542 9.25078 7.17694 9.44174C6.21395 9.64407 5.64525 9.29631 5.47082 8.39846ZM7.77348 11.1654L8.05275 11.5033L7.61599 11.456L7.37374 11.8294L7.28978 11.3921L6.85729 11.2831L7.24779 11.0682L7.21911 10.6226L7.54712 10.9237L7.957 10.7624L7.77348 11.1654Z" fill="white"/>
</g>
</g>
<defs>
<clipPath id="clip0_2214_3503">
<path d="M0 12C0 5.37258 5.37258 0 12 0C18.6274 0 24 5.37258 24 12C24 18.6274 18.6274 24 12 24C5.37258 24 0 18.6274 0 12Z" fill="white"/>
</clipPath>
<clipPath id="clip1_2214_3503">
<rect width="32" height="24" fill="white" transform="translate(-4)"/>
</clipPath>
</defs>
</svg>
