<svg width="24" height="24" viewBox="0 0 24 24" fill="none" xmlns="http://www.w3.org/2000/svg">
<g clip-path="url(#clip0_3053_1913)">
<g clip-path="url(#clip1_3053_1913)">
<path fill-rule="evenodd" clip-rule="evenodd" d="M-3.90002 0H28.1V24H-3.90002V0Z" fill="#BE0027"/>
<path fill-rule="evenodd" clip-rule="evenodd" d="M-2.62018 1.36499H26.8548V22.785H-2.62018V1.36499Z" fill="#3B5AA3"/>
<path fill-rule="evenodd" clip-rule="evenodd" d="M11.8199 20.66C11.8853 20.6912 11.9568 20.7078 12.0293 20.7087C12.1018 20.7096 12.1737 20.6947 12.2399 20.665C19.1299 17 19.1299 6.94997 12.2449 3.33497C12.1763 3.30375 12.1015 3.28844 12.0262 3.29017C11.9509 3.2919 11.8769 3.31064 11.8099 3.34497C5.09485 7.01497 5.07485 16.95 11.8148 20.66H11.8199Z" fill="#CBE0E5"/>
<path fill-rule="evenodd" clip-rule="evenodd" d="M11.8197 20.8449C11.9197 20.9299 12.1397 20.9199 12.2397 20.8449C17.3147 17.0449 17.3397 14.6799 17.1197 14.6799H7.06974C6.91974 14.6799 7.15974 17.0899 11.8197 20.8449Z" fill="#ADD2D9"/>
<path fill-rule="evenodd" clip-rule="evenodd" d="M7.86489 16.5601C8.32453 16.4161 8.82113 16.4463 9.25989 16.6451C9.63989 16.8451 9.85989 16.8451 10.2699 16.8451C10.6999 16.8551 11.0349 17.1701 11.4999 17.1851C12.3549 17.2051 12.7149 17.6301 12.0499 17.6351C11.7399 17.6351 11.0649 17.4201 10.7399 17.4651C10.0599 17.5351 9.62989 17.6851 8.98989 18.4001L9.72989 18.9001C10.3699 18.6451 10.4749 18.3501 10.8299 18.3401C11.2299 18.3251 11.3649 18.0801 11.8299 18.0801C12.385 18.1265 12.944 18.0723 13.4799 17.9201C14.2199 17.7501 13.8699 17.2301 13.4199 17.0451C13.0549 16.8901 12.3799 17.0401 11.9599 16.8851C11.6399 16.7601 11.8999 16.5601 12.0749 16.5201C12.2449 16.4851 12.4299 16.5451 12.6449 16.5801C13.0299 16.6101 13.5149 16.5751 13.8499 16.5201C14.5499 16.4151 14.5199 16.2101 14.8499 16.2051C15.0999 16.1901 15.2849 16.1201 15.4499 16.0001C15.6499 15.8651 15.8549 15.6001 16.0949 15.6101L16.7299 15.6351L15.8299 17.6551L13.2949 20.2401L11.9799 20.7401L9.08989 18.8551L7.63489 16.6201L7.86989 16.5601H7.86489Z" fill="#FDF9A1"/>
<path fill-rule="evenodd" clip-rule="evenodd" d="M11.1898 14.5999L16.9898 14.5699L17.0898 14.0549C17.0898 14.0549 16.8848 14.0249 16.7148 14.0149C16.5098 13.9999 16.1498 14.2349 15.9148 14.2299C15.7398 14.2299 15.5498 13.9299 15.3798 13.9299C15.0798 13.9299 15.0598 14.1949 14.7798 14.2049C14.5548 14.1949 14.4598 14.0249 14.1648 14.0449C13.8648 14.0599 13.8848 14.2299 13.4998 14.2199C12.9898 14.2049 12.7848 13.7649 12.3748 13.7599C11.6948 13.7499 11.6748 14.4099 11.1848 14.5949L11.1898 14.5999Z" fill="#179A3B"/>
<path fill-rule="evenodd" clip-rule="evenodd" d="M11.1899 14.7198L17.1599 14.6898V14.5298L11.0499 14.5598L11.1849 14.7198H11.1899Z" fill="#FDF9A1"/>
<path fill-rule="evenodd" clip-rule="evenodd" d="M13.6399 16.5149C13.7349 16.8649 13.8299 16.9849 14.1999 17.0799C14.5649 17.1649 15.1249 16.8099 14.7799 16.4649C14.4499 16.1449 14.0999 16.0649 13.8049 15.7749C13.1799 15.1599 12.2399 13.6499 12.2399 12.5849C12.2399 11.6699 12.1499 9.7949 12.1499 8.0199C12.1499 7.9049 11.7999 8.3399 11.7999 8.4599C11.8199 10.0249 11.8199 11.2099 11.8799 12.7899C11.9799 13.9449 12.5299 14.7249 13.0149 15.4249C13.2299 15.7649 13.5449 16.1249 13.6399 16.5149Z" fill="#A79270"/>
<path d="M9.87532 11.9681C9.86202 11.9274 9.84449 11.891 9.82272 11.8587C9.80136 11.8261 9.77577 11.7983 9.74595 11.7753C9.71653 11.7523 9.68307 11.7348 9.64559 11.7227C9.60811 11.7106 9.567 11.7046 9.52226 11.7046C9.44891 11.7046 9.38221 11.7235 9.32216 11.7614C9.26211 11.7993 9.21435 11.8551 9.17888 11.9288C9.14342 12.0026 9.12568 12.0931 9.12568 12.2003C9.12568 12.3075 9.14362 12.398 9.17949 12.4717C9.21536 12.5455 9.26392 12.6013 9.32518 12.6392C9.38644 12.6771 9.45536 12.696 9.53194 12.696C9.60287 12.696 9.66534 12.6809 9.71935 12.6507C9.77376 12.62 9.81607 12.5769 9.8463 12.5213C9.87693 12.4653 9.89225 12.3994 9.89225 12.3236L9.93819 12.3333H9.56579V12.2003H10.0373V12.3333C10.0373 12.4352 10.0156 12.5239 9.97205 12.5993C9.92892 12.6746 9.86927 12.7331 9.7931 12.7746C9.71733 12.8157 9.63028 12.8363 9.53194 12.8363C9.42231 12.8363 9.32599 12.8105 9.24296 12.7589C9.16034 12.7073 9.09586 12.6339 9.04951 12.5388C9.00356 12.4437 8.98059 12.3309 8.98059 12.2003C8.98059 12.1023 8.99369 12.0143 9.01989 11.9361C9.04649 11.8575 9.08397 11.7906 9.13233 11.7354C9.1807 11.6802 9.23793 11.6379 9.30402 11.6084C9.37012 11.579 9.44287 11.5643 9.52226 11.5643C9.58756 11.5643 9.64841 11.5742 9.70484 11.5939C9.76166 11.6133 9.81225 11.6409 9.85658 11.6767C9.90131 11.7122 9.9386 11.7547 9.96842 11.8043C9.99824 11.8535 10.0188 11.9081 10.0301 11.9681H9.87532Z" fill="#BD0728"/>
<path d="M9.87532 11.9681L9.82475 11.9847L9.83673 12.0213H9.87532V11.9681ZM9.82272 11.8587L9.7782 11.8878L9.77863 11.8885L9.82272 11.8587ZM9.74595 11.7753L9.7132 11.8172L9.71348 11.8174L9.74595 11.7753ZM9.64559 11.7227L9.66192 11.6721L9.66192 11.6721L9.64559 11.7227ZM9.17888 11.9288L9.22683 11.9519L9.17888 11.9288ZM9.17949 12.4717L9.13165 12.495L9.17949 12.4717ZM9.32518 12.6392L9.2972 12.6844L9.32518 12.6392ZM9.71935 12.6507L9.74533 12.6971L9.74544 12.697L9.71935 12.6507ZM9.8463 12.5213L9.79962 12.4958L9.79956 12.4959L9.8463 12.5213ZM9.89225 12.3236L9.90321 12.2715L9.83905 12.258V12.3236H9.89225ZM9.93819 12.3333V12.3865L9.94915 12.2812L9.93819 12.3333ZM9.56579 12.3333H9.51259V12.3865H9.56579V12.3333ZM9.56579 12.2003V12.1471H9.51259V12.2003H9.56579ZM10.0373 12.2003H10.0905V12.1471H10.0373V12.2003ZM9.97205 12.5993L9.92598 12.5727L9.92587 12.5729L9.97205 12.5993ZM9.7931 12.7746L9.81847 12.8214L9.81856 12.8213L9.7931 12.7746ZM9.24296 12.7589L9.21479 12.804L9.21489 12.8041L9.24296 12.7589ZM9.04951 12.5388L9.00161 12.562L9.00169 12.5621L9.04951 12.5388ZM9.01989 11.9361L8.9695 11.919L8.96944 11.9192L9.01989 11.9361ZM9.13233 11.7354L9.17235 11.7704L9.13233 11.7354ZM9.30402 11.6084L9.28239 11.5598L9.30402 11.6084ZM9.70484 11.5939L9.68726 11.6441L9.68769 11.6443L9.70484 11.5939ZM9.85658 11.6767L9.82311 11.7181L9.82353 11.7184L9.85658 11.6767ZM9.96842 11.8043L9.92283 11.8317L9.92293 11.8319L9.96842 11.8043ZM10.0301 11.9681V12.0213H10.0942L10.0824 11.9583L10.0301 11.9681ZM9.92589 11.9516C9.91121 11.9067 9.89161 11.8657 9.86682 11.8289L9.77863 11.8885C9.79737 11.9162 9.81283 11.9482 9.82475 11.9847L9.92589 11.9516ZM9.86724 11.8296C9.84274 11.7921 9.81312 11.7599 9.77841 11.7331L9.71348 11.8174C9.73842 11.8366 9.75999 11.86 9.77821 11.8878L9.86724 11.8296ZM9.77869 11.7334C9.74408 11.7063 9.70501 11.686 9.66192 11.6721L9.62926 11.7733C9.66113 11.7836 9.68897 11.7983 9.71321 11.8172L9.77869 11.7334ZM9.66192 11.6721C9.6185 11.6581 9.5718 11.6514 9.52226 11.6514V11.7578C9.5622 11.7578 9.59772 11.7631 9.62926 11.7733L9.66192 11.6721ZM9.52226 11.6514C9.43922 11.6514 9.36261 11.673 9.29377 11.7164L9.35055 11.8064C9.40181 11.774 9.45861 11.7578 9.52226 11.7578V11.6514ZM9.29377 11.7164C9.22405 11.7604 9.17006 11.8244 9.13094 11.9058L9.22683 11.9519C9.25864 11.8857 9.30017 11.8382 9.35055 11.8064L9.29377 11.7164ZM9.13094 11.9058C9.09111 11.9886 9.07248 12.0875 9.07248 12.2003H9.17888C9.17888 12.0987 9.19572 12.0166 9.22683 11.9519L9.13094 11.9058ZM9.07248 12.2003C9.07248 12.3132 9.09134 12.4121 9.13165 12.495L9.22733 12.4485C9.1959 12.3838 9.17888 12.3018 9.17888 12.2003H9.07248ZM9.13165 12.495C9.17129 12.5765 9.22623 12.6405 9.2972 12.6844L9.35316 12.5939C9.30161 12.5621 9.25942 12.5144 9.22733 12.4485L9.13165 12.495ZM9.2972 12.6844C9.36741 12.7278 9.44613 12.7492 9.53194 12.7492V12.6428C9.4646 12.6428 9.40548 12.6263 9.35316 12.5939L9.2972 12.6844ZM9.53194 12.7492C9.61062 12.7492 9.68229 12.7324 9.74533 12.6971L9.69336 12.6042C9.64839 12.6294 9.59512 12.6428 9.53194 12.6428V12.7492ZM9.74544 12.697C9.80869 12.6614 9.85811 12.611 9.89304 12.5467L9.79956 12.4959C9.77404 12.5429 9.73882 12.5787 9.69325 12.6043L9.74544 12.697ZM9.89298 12.5468C9.92862 12.4816 9.94545 12.4066 9.94545 12.3236H9.83905C9.83905 12.3921 9.82524 12.4489 9.79962 12.4958L9.89298 12.5468ZM9.88129 12.3757L9.92723 12.3853L9.94915 12.2812L9.90321 12.2715L9.88129 12.3757ZM9.93819 12.2801H9.56579V12.3865H9.93819V12.2801ZM9.61899 12.3333V12.2003H9.51259V12.3333H9.61899ZM9.56579 12.2535H10.0373V12.1471H9.56579V12.2535ZM9.98414 12.2003V12.3333H10.0905V12.2003H9.98414ZM9.98414 12.3333C9.98414 12.4275 9.96409 12.5067 9.92598 12.5727L10.0181 12.6259C10.0671 12.5411 10.0905 12.443 10.0905 12.3333H9.98414ZM9.92587 12.5729C9.88764 12.6397 9.83516 12.6911 9.76764 12.7279L9.81856 12.8213C9.90339 12.7751 9.97021 12.7096 10.0182 12.6257L9.92587 12.5729ZM9.76773 12.7278C9.70079 12.7642 9.62268 12.7831 9.53194 12.7831V12.8895C9.63788 12.8895 9.73387 12.8673 9.81847 12.8214L9.76773 12.7278ZM9.53194 12.7831C9.431 12.7831 9.34464 12.7594 9.27104 12.7137L9.21489 12.8041C9.30733 12.8615 9.41363 12.8895 9.53194 12.8895V12.7831ZM9.27114 12.7138C9.19771 12.6679 9.1397 12.6025 9.09733 12.5155L9.00169 12.5621C9.05202 12.6654 9.12297 12.7467 9.21479 12.804L9.27114 12.7138ZM9.09741 12.5157C9.05568 12.4293 9.03379 12.3247 9.03379 12.2003H8.92739C8.92739 12.337 8.95145 12.4581 9.00161 12.562L9.09741 12.5157ZM9.03379 12.2003C9.03379 12.107 9.04627 12.0248 9.07033 11.953L8.96944 11.9192C8.94112 12.0037 8.92739 12.0976 8.92739 12.2003H9.03379ZM9.07028 11.9532C9.09493 11.8803 9.12916 11.8198 9.17235 11.7704L9.09231 11.7003C9.03878 11.7614 8.99805 11.8347 8.9695 11.919L9.07028 11.9532ZM9.17235 11.7704C9.21572 11.7209 9.2667 11.6833 9.32566 11.657L9.28239 11.5598C9.20915 11.5924 9.14568 11.6394 9.09231 11.7003L9.17235 11.7704ZM9.32566 11.657C9.38431 11.6309 9.44959 11.6175 9.52226 11.6175V11.5111C9.43615 11.5111 9.35594 11.5271 9.28239 11.5598L9.32566 11.657ZM9.52226 11.6175C9.58212 11.6175 9.63698 11.6265 9.68726 11.6441L9.72241 11.5437C9.65984 11.5218 9.59299 11.5111 9.52226 11.5111V11.6175ZM9.68769 11.6443C9.73891 11.6617 9.7839 11.6864 9.82312 11.7181L9.89004 11.6354C9.84059 11.5954 9.78442 11.5648 9.72198 11.5436L9.68769 11.6443ZM9.82353 11.7184C9.8632 11.7499 9.89625 11.7875 9.92283 11.8317L10.014 11.7769C9.98094 11.7219 9.93943 11.6745 9.88963 11.6351L9.82353 11.7184ZM9.92293 11.8319C9.94924 11.8753 9.96762 11.9238 9.9778 11.978L10.0824 11.9583C10.07 11.8924 10.0472 11.8317 10.0139 11.7767L9.92293 11.8319ZM10.0301 11.9149H9.87532V12.0213H10.0301V11.9149Z" fill="white"/>
<path d="M11.3709 11.5876H11.5208V12.4073C11.5208 12.492 11.5009 12.5675 11.461 12.634C11.4215 12.7001 11.3656 12.7523 11.2935 12.7906C11.2214 12.8285 11.1367 12.8474 11.0396 12.8474C10.9425 12.8474 10.8578 12.8285 10.7857 12.7906C10.7135 12.7523 10.6575 12.7001 10.6176 12.634C10.5781 12.5675 10.5584 12.492 10.5584 12.4073V11.5876H10.7083V12.3952C10.7083 12.4557 10.7216 12.5095 10.7482 12.5567C10.7748 12.6034 10.8127 12.6403 10.8619 12.6673C10.9114 12.6939 10.9707 12.7072 11.0396 12.7072C11.1085 12.7072 11.1678 12.6939 11.2173 12.6673C11.2669 12.6403 11.3048 12.6034 11.331 12.5567C11.3576 12.5095 11.3709 12.4557 11.3709 12.3952V11.5876Z" fill="#BD0728"/>
<path d="M11.3709 11.5876V11.5344H11.3177V11.5876H11.3709ZM11.5208 11.5876H11.574V11.5344H11.5208V11.5876ZM11.461 12.634L11.4153 12.6067L11.4153 12.6068L11.461 12.634ZM11.2935 12.7906L11.3182 12.8377L11.3184 12.8376L11.2935 12.7906ZM10.7857 12.7906L10.7607 12.8376L10.7609 12.8377L10.7857 12.7906ZM10.6176 12.634L10.5719 12.6612L10.5721 12.6615L10.6176 12.634ZM10.5584 11.5876V11.5344H10.5052V11.5876H10.5584ZM10.7083 11.5876H10.7615V11.5344H10.7083V11.5876ZM10.7482 12.5567L10.7019 12.5828L10.702 12.583L10.7482 12.5567ZM10.8619 12.6673L10.8362 12.7139L10.8367 12.7142L10.8619 12.6673ZM11.2173 12.6673L11.2425 12.7142L11.2428 12.714L11.2173 12.6673ZM11.331 12.5567L11.2846 12.5305L11.2846 12.5307L11.331 12.5567ZM11.3709 11.6408H11.5208V11.5344H11.3709V11.6408ZM11.4676 11.5876V12.4073H11.574V11.5876H11.4676ZM11.4676 12.4073C11.4676 12.4832 11.4498 12.5492 11.4153 12.6067L11.5066 12.6614C11.5519 12.5859 11.574 12.5007 11.574 12.4073H11.4676ZM11.4153 12.6068C11.3811 12.664 11.3327 12.7096 11.2686 12.7436L11.3184 12.8376C11.3986 12.7951 11.4618 12.7363 11.5066 12.6613L11.4153 12.6068ZM11.2688 12.7435C11.2056 12.7767 11.1298 12.7942 11.0396 12.7942V12.9006C11.1437 12.9006 11.2371 12.8803 11.3182 12.8377L11.2688 12.7435ZM11.0396 12.7942C10.9494 12.7942 10.8736 12.7767 10.8104 12.7435L10.7609 12.8377C10.8421 12.8803 10.9355 12.9006 11.0396 12.9006V12.7942ZM10.8106 12.7436C10.7465 12.7096 10.6978 12.6639 10.6632 12.6065L10.5721 12.6615C10.6172 12.7364 10.6806 12.7951 10.7607 12.8376L10.8106 12.7436ZM10.6634 12.6069C10.6292 12.5494 10.6116 12.4833 10.6116 12.4073H10.5052C10.5052 12.5006 10.527 12.5857 10.5719 12.6612L10.6634 12.6069ZM10.6116 12.4073V11.5876H10.5052V12.4073H10.6116ZM10.5584 11.6408H10.7083V11.5344H10.5584V11.6408ZM10.6551 11.5876V12.3952H10.7615V11.5876H10.6551ZM10.6551 12.3952C10.6551 12.4638 10.6703 12.5268 10.7019 12.5828L10.7945 12.5305C10.7729 12.4922 10.7615 12.4476 10.7615 12.3952H10.6551ZM10.702 12.583C10.7336 12.6386 10.7788 12.6824 10.8362 12.7139L10.8875 12.6207C10.8465 12.5982 10.816 12.5682 10.7944 12.5304L10.702 12.583ZM10.8367 12.7142C10.8956 12.7458 10.9638 12.7604 11.0396 12.7604V12.654C10.9775 12.654 10.9273 12.642 10.887 12.6204L10.8367 12.7142ZM11.0396 12.7604C11.1153 12.7604 11.1836 12.7458 11.2425 12.7142L11.1922 12.6204C11.1519 12.642 11.1017 12.654 11.0396 12.654V12.7604ZM11.2428 12.714C11.3007 12.6825 11.346 12.6386 11.3774 12.5827L11.2846 12.5307C11.2635 12.5682 11.2331 12.5981 11.1919 12.6206L11.2428 12.714ZM11.3773 12.5828C11.4089 12.5268 11.4241 12.4638 11.4241 12.3952H11.3177C11.3177 12.4476 11.3062 12.4922 11.2846 12.5305L11.3773 12.5828ZM11.4241 12.3952V11.5876H11.3177V12.3952H11.4241Z" fill="white"/>
<path d="M12.4645 12.8262H12.3073L12.7619 11.5881H12.9167L13.3713 12.8262H13.2141L12.8442 11.7839H12.8345L12.4645 12.8262ZM12.5225 12.3425H13.1561V12.4755H12.5225V12.3425Z" fill="#BD0728"/>
<path d="M12.4645 12.8262V12.8794H12.5021L12.5146 12.844L12.4645 12.8262ZM12.3073 12.8262L12.2574 12.8078L12.2311 12.8794H12.3073V12.8262ZM12.7619 11.5881V11.5349H12.7248L12.712 11.5697L12.7619 11.5881ZM12.9167 11.5881L12.9666 11.5697L12.9538 11.5349H12.9167V11.5881ZM13.3713 12.8262V12.8794H13.4475L13.4213 12.8078L13.3713 12.8262ZM13.2141 12.8262L13.164 12.844L13.1766 12.8794H13.2141V12.8262ZM12.8442 11.7839L12.8943 11.7661L12.8817 11.7307H12.8442V11.7839ZM12.8345 11.7839V11.7307H12.7969L12.7844 11.7661L12.8345 11.7839ZM12.5225 12.3425V12.2893H12.4693V12.3425H12.5225ZM13.1561 12.3425H13.2093V12.2893H13.1561V12.3425ZM13.1561 12.4755V12.5287H13.2093V12.4755H13.1561ZM12.5225 12.4755H12.4693V12.5287H12.5225V12.4755ZM12.4645 12.773H12.3073V12.8794H12.4645V12.773ZM12.3573 12.8445L12.8119 11.6064L12.712 11.5697L12.2574 12.8078L12.3573 12.8445ZM12.7619 11.6413H12.9167V11.5349H12.7619V11.6413ZM12.8668 11.6064L13.3214 12.8445L13.4213 12.8078L12.9666 11.5697L12.8668 11.6064ZM13.3713 12.773H13.2141V12.8794H13.3713V12.773ZM13.2643 12.8084L12.8943 11.7661L12.794 11.8017L13.164 12.844L13.2643 12.8084ZM12.8442 11.7307H12.8345V11.8371H12.8442V11.7307ZM12.7844 11.7661L12.4144 12.8084L12.5146 12.844L12.8846 11.8017L12.7844 11.7661ZM12.5225 12.3957H13.1561V12.2893H12.5225V12.3957ZM13.1029 12.3425V12.4755H13.2093V12.3425H13.1029ZM13.1561 12.4223H12.5225V12.5287H13.1561V12.4223ZM12.5757 12.4755V12.3425H12.4693V12.4755H12.5757Z" fill="white"/>
<path d="M13.9766 11.5812H14.1556L14.5764 12.609H14.5909L15.0116 11.5812H15.1906V12.8193H15.0503V11.8787H15.0382L14.6513 12.8193H14.5159L14.129 11.8787H14.1169V12.8193H13.9766V11.5812Z" fill="#BD0728"/>
<path d="M13.9766 11.5812V11.528H13.9234V11.5812H13.9766ZM14.1556 11.5812L14.2048 11.5611L14.1913 11.528H14.1556V11.5812ZM14.5764 12.609L14.5271 12.6291L14.5407 12.6622H14.5764V12.609ZM14.5909 12.609V12.6622H14.6266L14.6401 12.6291L14.5909 12.609ZM15.0116 11.5812V11.528H14.9759L14.9624 11.5611L15.0116 11.5812ZM15.1906 11.5812H15.2438V11.528H15.1906V11.5812ZM15.1906 12.8193V12.8725H15.2438V12.8193H15.1906ZM15.0503 12.8193H14.9971V12.8725H15.0503V12.8193ZM15.0503 11.8787H15.1035V11.8255H15.0503V11.8787ZM15.0382 11.8787V11.8255H15.0026L14.989 11.8584L15.0382 11.8787ZM14.6513 12.8193V12.8725H14.687L14.7005 12.8396L14.6513 12.8193ZM14.5159 12.8193L14.4667 12.8396L14.4803 12.8725H14.5159V12.8193ZM14.129 11.8787L14.1782 11.8584L14.1646 11.8255H14.129V11.8787ZM14.1169 11.8787V11.8255H14.0637V11.8787H14.1169ZM14.1169 12.8193V12.8725H14.1701V12.8193H14.1169ZM13.9766 12.8193H13.9234V12.8725H13.9766V12.8193ZM13.9766 11.6344H14.1556V11.528H13.9766V11.6344ZM14.1064 11.6014L14.5271 12.6291L14.6256 12.5888L14.2048 11.5611L14.1064 11.6014ZM14.5764 12.6622H14.5909V12.5558H14.5764V12.6622ZM14.6401 12.6291L15.0609 11.6014L14.9624 11.5611L14.5416 12.5888L14.6401 12.6291ZM15.0116 11.6344H15.1906V11.528H15.0116V11.6344ZM15.1374 11.5812V12.8193H15.2438V11.5812H15.1374ZM15.1906 12.7661H15.0503V12.8725H15.1906V12.7661ZM15.1035 12.8193V11.8787H14.9971V12.8193H15.1035ZM15.0503 11.8255H15.0382V11.9319H15.0503V11.8255ZM14.989 11.8584L14.6021 12.7991L14.7005 12.8396L15.0874 11.8989L14.989 11.8584ZM14.6513 12.7661H14.5159V12.8725H14.6513V12.7661ZM14.5651 12.7991L14.1782 11.8584L14.0798 11.8989L14.4667 12.8396L14.5651 12.7991ZM14.129 11.8255H14.1169V11.9319H14.129V11.8255ZM14.0637 11.8787V12.8193H14.1701V11.8787H14.0637ZM14.1169 12.7661H13.9766V12.8725H14.1169V12.7661ZM14.0298 12.8193V11.5812H13.9234V12.8193H14.0298Z" fill="white"/>
<path fill-rule="evenodd" clip-rule="evenodd" d="M9.07991 8.0449C9.00491 8.1949 9.25991 7.9999 9.31991 7.9799C9.65491 7.8599 9.78491 7.4399 10.3599 7.6949C10.8099 7.8899 11.4149 7.7749 11.0999 7.9749C10.7099 8.2099 9.92491 8.4699 9.90991 9.6349C9.97491 9.7449 9.97991 9.7299 10.0349 9.6049C10.1549 9.3349 10.7199 8.5999 10.9999 8.6599C11.1149 8.6899 11.4449 8.3249 11.4499 8.4299C11.4849 8.7199 10.9999 9.3099 11.0099 10.0949C11.0099 10.2799 11.2349 10.3399 11.3399 10.2099C11.4499 10.0949 11.5099 9.9799 11.6999 9.8299C12.0299 9.5599 11.9399 8.3999 11.9799 8.4549C12.2149 8.7549 12.2499 9.6199 12.5999 9.9699C12.8949 10.2649 13.1299 10.1199 13.0649 9.7199C12.9399 8.8999 12.5549 9.1349 12.3699 8.2899C12.3299 8.1249 12.3199 7.9799 12.5399 8.0449C12.8049 8.1249 12.9649 8.2449 13.1599 8.5449C13.3599 8.8349 13.7299 9.1099 13.9449 9.2749C14.3199 9.5649 14.4549 9.3149 14.2749 8.9449C14.0463 8.52469 13.6733 8.20144 13.2249 8.0349C12.9149 7.9249 12.8049 7.9149 12.5349 7.8649C12.4599 7.8499 12.3849 7.6949 12.5149 7.6099C12.8041 7.40139 13.1411 7.26899 13.4949 7.2249C13.8299 7.2149 14.0949 7.4849 14.3299 7.5549C14.7999 7.6749 14.7999 7.3799 14.5899 7.1549C14.4199 6.9699 14.0599 6.6549 13.7249 6.6999C13.0499 6.7849 13.0949 6.7649 12.6749 7.0399C12.5249 7.1299 12.3549 7.2299 12.4199 7.1199C12.5699 6.8449 12.4299 6.8949 12.6649 6.6149C12.8449 6.4149 12.9799 6.2649 13.1649 6.2149C13.3349 6.1699 13.5649 5.9899 13.6299 5.8949C13.7999 5.6649 13.6549 5.5299 13.3949 5.6099C13.1649 5.6699 13.0449 5.8199 12.8949 5.8599C12.5249 5.9799 12.2299 6.8099 12.1849 6.9299C12.1299 7.0699 12.0649 6.9999 12.0749 6.8799C12.1249 6.2949 12.1749 5.3049 11.9749 4.8999C11.6549 4.2999 11.6849 4.5799 11.5649 4.8649C11.3849 5.3149 11.4499 5.7399 11.5649 6.1799C11.6149 6.3999 11.7949 6.6499 11.8299 6.8249C11.8549 6.9599 11.7499 6.7849 11.6899 6.6999C11.4949 6.3999 11.3499 6.1999 11.0299 6.0349C10.7103 5.9034 10.3591 5.86863 10.0199 5.9349C9.92991 5.9649 10.1199 6.0949 10.1949 6.1549C10.4099 6.3249 10.8149 6.3799 11.0949 6.5499C11.3249 6.6949 11.5049 6.7849 11.5849 6.9849C11.6149 7.1349 11.6649 7.3549 11.5649 7.3499C11.3099 7.3349 10.9149 7.1099 10.0949 7.1999C9.67491 7.2599 9.31491 7.6149 9.07991 8.0449Z" fill="#239E46"/>
<path fill-rule="evenodd" clip-rule="evenodd" d="M10.8649 15.5303H11.0999V15.9253H10.8649V15.5303Z" fill="black"/>
<path fill-rule="evenodd" clip-rule="evenodd" d="M9.68485 12.8948C10.6249 14.1948 12.1349 14.9548 12.1649 15.5448H9.22485C9.89985 14.7348 10.3149 14.1848 9.68485 12.8948Z" fill="#FDF9FF"/>
<path fill-rule="evenodd" clip-rule="evenodd" d="M8.82992 15.5749C10.1099 15.8599 11.6349 16.0199 12.6099 15.5349C12.6199 15.8199 12.2949 16.2349 12.0249 16.2349H9.57492C9.85992 16.1899 10.0249 16.1049 10.4849 16.0849L9.18492 16.0949C9.03492 16.0999 8.78492 15.7149 8.82992 15.5749Z" fill="#A68861"/>
<path fill-rule="evenodd" clip-rule="evenodd" d="M11.73 21.2499C11.86 21.3249 12.065 21.3199 12.18 21.2599C19.57 17.3249 19.575 6.53986 12.19 2.65986C12.116 2.62563 12.0353 2.60874 11.9538 2.61047C11.8724 2.61221 11.7924 2.63252 11.72 2.66986C4.51997 6.60986 4.49997 17.2699 11.73 21.2549V21.2499ZM11.765 20.3649C11.8271 20.3954 11.8952 20.4117 11.9644 20.4126C12.0336 20.4134 12.1021 20.3988 12.165 20.3699C18.345 16.7299 18.42 7.11486 12.17 3.66986C12.05 3.57986 11.875 3.60986 11.755 3.66986C5.83497 7.17486 5.50497 16.3949 11.765 20.3649Z" fill="#BE0027"/>
<path d="M9.53984 11.2703C9.65318 11.2703 9.75318 11.2936 9.83984 11.3403C9.95651 11.4003 10.0282 11.5103 10.0548 11.6703H9.89984C9.87984 11.5836 9.83651 11.5169 9.76984 11.4703C9.70984 11.4303 9.63151 11.4103 9.53484 11.4103C9.42484 11.4103 9.32984 11.4553 9.24984 11.5453C9.17318 11.6286 9.13484 11.7553 9.13484 11.9253C9.13484 12.0653 9.16651 12.1819 9.22984 12.2753C9.29651 12.3653 9.40151 12.4103 9.54484 12.4103C9.65484 12.4103 9.74484 12.3786 9.81484 12.3153C9.89151 12.2519 9.92984 12.1486 9.92984 12.0053H9.54984V11.8703H10.0798V12.5203H9.97484L9.93484 12.3603C9.88151 12.4236 9.83151 12.4686 9.78484 12.4953C9.71151 12.5353 9.61984 12.5553 9.50984 12.5553C9.36651 12.5553 9.24151 12.5086 9.13484 12.4153C9.02151 12.2953 8.96484 12.1336 8.96484 11.9303C8.96484 11.7269 9.01984 11.5653 9.12984 11.4453C9.23651 11.3286 9.37318 11.2703 9.53984 11.2703Z" fill="#BD0728"/>
<path d="M10.7198 11.305V12.065C10.7198 12.1517 10.7365 12.2234 10.7698 12.28C10.8165 12.37 10.8998 12.415 11.0198 12.415C11.1565 12.415 11.2515 12.3684 11.3048 12.275C11.3315 12.2217 11.3448 12.1517 11.3448 12.065V11.3H11.5148V11.99C11.5148 12.1367 11.4915 12.2534 11.4448 12.34C11.3748 12.4834 11.2381 12.555 11.0348 12.555C10.8248 12.555 10.6831 12.4817 10.6098 12.335C10.5698 12.2517 10.5498 12.1367 10.5498 11.99V11.3L10.7198 11.305Z" fill="#BD0728"/>
<path d="M13.0199 12.025L12.8349 11.49L12.6349 12.025H13.0199ZM12.7499 11.3H12.9349L13.3849 12.525H13.1949L13.0749 12.16H12.5899L12.4549 12.525H12.2899L12.7499 11.3Z" fill="#BD0728"/>
<path d="M13.9499 11.3H14.1949L14.5399 12.335L14.8899 11.3H15.1249V12.52H14.9649V11.49L14.6149 12.52H14.4599L14.1099 11.49V12.52H13.9499V11.3Z" fill="#BD0728"/>
</g>
</g>
<defs>
<clipPath id="clip0_3053_1913">
<rect width="24" height="24" fill="white"/>
</clipPath>
<clipPath id="clip1_3053_1913">
<rect width="24" height="24" rx="12" fill="white"/>
</clipPath>
</defs>
</svg>
