<svg width="24" height="24" viewBox="0 0 24 24" fill="none" xmlns="http://www.w3.org/2000/svg">
<g clip-path="url(#clip0_2214_3751)">
<g clip-path="url(#clip1_2214_3751)">
<path fill-rule="evenodd" clip-rule="evenodd" d="M-4 0H6.665V24H-4V0Z" fill="#00319C"/>
<path fill-rule="evenodd" clip-rule="evenodd" d="M6.66501 0H17.335V24H6.66501V0Z" fill="#FFDE00"/>
<path fill-rule="evenodd" clip-rule="evenodd" d="M17.335 0H28V24H17.335V0Z" fill="#DE2110"/>
<path fill-rule="evenodd" clip-rule="evenodd" d="M14.02 16.0201L15.23 17.7701C15.3 17.8701 15.365 17.9651 15.265 18.0301C15.165 18.0951 15.195 18.3501 15.265 18.4501C15.4 18.6451 15.565 18.6751 15.665 18.6101L16.585 18.0301C16.685 17.9701 16.72 17.8051 16.585 17.6101C16.51 17.5101 16.285 17.3851 16.185 17.4501C16.08 17.5151 16.01 17.4151 15.945 17.3201L14.73 15.5701" fill="#FF1900"/>
<path d="M14.02 16.0201L15.23 17.7701C15.3 17.8701 15.365 17.9651 15.265 18.0301C15.165 18.0951 15.195 18.3501 15.265 18.4501C15.4 18.6451 15.565 18.6751 15.665 18.6101L16.585 18.0301C16.685 17.9701 16.72 17.8051 16.585 17.6101C16.51 17.5101 16.285 17.3851 16.185 17.4501C16.08 17.5151 16.01 17.4151 15.945 17.3201L14.73 15.5701" stroke="black" stroke-width="0.035"/>
<path fill-rule="evenodd" clip-rule="evenodd" d="M14.4949 14.7865C15.0361 15.4012 15.2244 16.106 14.9159 16.3539C14.6075 16.6019 13.913 16.304 13.3718 15.6893C12.8307 15.0746 12.645 14.3677 12.9535 14.1197C13.262 13.8718 13.9542 14.1671 14.4976 14.7844L14.4949 14.7865Z" fill="#A77B3B" stroke="black" stroke-width="0.084238"/>
<path fill-rule="evenodd" clip-rule="evenodd" d="M9.10001 15.3049L8.02501 17.1399C7.96501 17.2399 7.90501 17.3399 7.80001 17.2899C7.69501 17.2299 7.47001 17.3749 7.41001 17.4799C7.29001 17.6799 7.33501 17.8399 7.44501 17.8999L8.40501 18.4099C8.50501 18.4649 8.67501 18.4199 8.79501 18.2199C8.85001 18.1099 8.86501 17.8549 8.76001 17.7999C8.65501 17.7449 8.71001 17.6399 8.77501 17.5399L9.84501 15.7049" fill="#FF1900"/>
<path d="M9.10001 15.3049L8.02501 17.1399C7.96501 17.2399 7.90501 17.3399 7.80001 17.2899C7.69501 17.2299 7.47001 17.3749 7.41001 17.4799C7.29001 17.6799 7.33501 17.8399 7.44501 17.8999L8.40501 18.4099C8.50501 18.4649 8.67501 18.4199 8.79501 18.2199C8.85001 18.1099 8.86501 17.8549 8.76001 17.7999C8.65501 17.7449 8.71001 17.6399 8.77501 17.5399L9.84501 15.7049" stroke="black" stroke-width="0.035"/>
<path fill-rule="evenodd" clip-rule="evenodd" d="M12.56 14.0301H11.58C11.55 14.0601 11.27 15.8101 10.97 16.4801C10.605 17.2951 9.51 18.0151 9.51 18.0151C9.51 18.0151 10.165 18.2151 10.36 18.3451C10.41 18.3301 11.46 18.1101 11.58 16.8301C11.7 18.1101 10.85 18.6951 10.85 18.6951C10.85 18.6951 12.07 19.0451 12.07 19.8601C12.07 19.0451 13.29 18.6951 13.29 18.6951C13.29 18.6951 12.68 18.1101 12.555 16.8301C12.805 18.1101 13.73 18.3301 13.78 18.3451C13.975 18.2151 14.63 18.0151 14.63 18.0151C14.63 18.0151 13.535 17.2951 13.17 16.4801C12.87 15.8101 12.59 14.0601 12.56 14.0301ZM8.41 8.19507L10.24 8.78007C10.845 8.78007 11.46 8.19507 11.46 7.61007C11.48 6.31007 10.97 5.86006 10.85 5.86006L11.09 5.63007L10.725 5.28007C10.725 5.28007 10.85 4.67507 12.07 4.69507C13.29 4.71507 13.29 5.28007 13.29 5.86006C13.29 6.44007 12.68 6.44507 12.68 7.61007C12.68 8.19507 13.29 8.78007 13.9 8.78007L15.73 8.19507V14.0301H8.405L8.41 8.19507Z" fill="#A77B3B" stroke="black" stroke-width="0.085"/>
<path d="M11.2141 8.42847L11.3358 8.77926L11.4584 8.42847L11.5801 8.77926L11.8243 8.42847L11.9435 8.79797L12.0686 8.42847L12.2486 8.79797L12.4345 8.42847L12.5562 8.77926L12.6788 8.42847" stroke="black" stroke-width="0.00698122"/>
<path d="M11.7038 7.14722L11.4592 8.43116M11.8244 7.14722V8.43116M12.069 7.14722V8.43116M12.3136 7.14722L12.4342 8.43116M12.5582 7.14722L12.6788 8.43116" stroke="black" stroke-width="0.00673566"/>
<path fill-rule="evenodd" clip-rule="evenodd" d="M7.18309 4.69775C5.96347 5.28046 5.96347 6.44918 5.96347 7.03189C6.00481 7.56192 5.96347 18.696 5.96347 18.696C5.96347 18.696 6.04271 18.0375 6.57328 17.5306L7.17964 16.9478L7.78945 16.3651C8.23734 15.9767 8.39926 15.1964 8.39926 14.6137V6.44918C8.39926 6.44918 8.39926 5.86317 7.17964 4.69775H7.18309Z" fill="#A77B3B" stroke="black" stroke-width="0.0841958"/>
<path d="M8.40271 7.03193C8.38893 7.03193 7.7929 6.44922 7.7929 6.44922L7.18309 7.03193L6.57328 6.44922L5.96347 7.03193" stroke="black" stroke-width="0.0841958"/>
<path d="M8.40271 7.61309C8.38893 7.61309 7.7929 8.1958 7.7929 8.1958L7.18309 7.61309L6.57328 8.1958L5.96347 7.61309" stroke="black" stroke-width="0.0841958"/>
<path d="M8.40271 9.36201C8.38893 9.36201 7.7929 8.7793 7.7929 8.7793L7.18309 9.36201L6.57328 8.7793L5.96347 9.36201" stroke="black" stroke-width="0.0841958"/>
<path d="M7.78602 6.44775L7.79291 16.3657" stroke="black" stroke-width="0.115967"/>
<path d="M7.18601 7.03076L7.1929 16.9246" stroke="black" stroke-width="0.109865"/>
<path d="M6.57603 6.45044L6.58292 17.5338" stroke="black" stroke-width="0.116282"/>
<path fill-rule="evenodd" clip-rule="evenodd" d="M16.9519 4.69775C18.1715 5.28046 18.1715 6.44918 18.1715 7.03189C18.1302 7.56192 18.1715 18.696 18.1715 18.696C18.1715 18.696 18.0923 18.0375 17.5617 17.5306L16.9553 16.9478L16.3455 16.3651C15.8976 15.9767 15.7357 15.1964 15.7357 14.6137V6.44918C15.7357 6.44918 15.7357 5.86317 16.9553 4.69775H16.9519Z" fill="#A77B3B" stroke="black" stroke-width="0.0841958"/>
<path d="M15.7323 7.03193C15.7461 7.03193 16.3421 6.44922 16.3421 6.44922L16.9519 7.03193L17.5617 6.44922L18.1715 7.03193" stroke="black" stroke-width="0.0841958"/>
<path d="M15.7323 7.61309C15.7461 7.61309 16.3421 8.1958 16.3421 8.1958L16.9519 7.61309L17.5617 8.1958L18.1715 7.61309" stroke="black" stroke-width="0.0841958"/>
<path d="M15.7323 9.36201C15.7461 9.36201 16.3421 8.7793 16.3421 8.7793L16.9519 9.36201L17.5617 8.7793L18.1715 9.36201" stroke="black" stroke-width="0.0841958"/>
<path d="M16.349 6.44775L16.3421 16.3657" stroke="black" stroke-width="0.115967"/>
<path d="M16.954 7.03076L16.9471 16.9246" stroke="black" stroke-width="0.109865"/>
<path d="M17.564 6.45044L17.5571 17.5338" stroke="black" stroke-width="0.116282"/>
<path fill-rule="evenodd" clip-rule="evenodd" d="M10.4637 15.1434C10.1404 15.8849 9.5714 16.3681 9.19931 16.22C8.82722 16.0718 8.78561 15.3455 9.10893 14.604C9.43226 13.8626 10.0044 13.3806 10.3765 13.5288C10.7486 13.6769 10.7916 14.4002 10.4669 15.1447L10.4637 15.1434Z" fill="#A77B3B" stroke="black" stroke-width="0.0842176"/>
<path fill-rule="evenodd" clip-rule="evenodd" d="M8.405 8.78003H15.73V12.28H8.405V8.78003Z" fill="#FF0000"/>
<path fill-rule="evenodd" clip-rule="evenodd" d="M8.40499 12.28H15.73V14.03C15.73 15.195 13.9 15.195 12.07 16.36C10.235 15.2 8.39999 15.2 8.39999 14.03L8.40499 12.28Z" fill="#564DFF"/>
<path d="M8.40671 8.78003H15.7313V14.0343C15.7313 15.1997 13.9019 15.1997 12.069 16.3684C10.2396 15.1997 8.40671 15.1997 8.40671 14.031V8.78332V8.78003Z" stroke="#FFFF00" stroke-width="0.0673566"/>
<path fill-rule="evenodd" clip-rule="evenodd" d="M10.7245 9.01318C10.7245 9.01318 9.50418 9.87113 9.50418 10.692C9.50418 11.5128 10.7848 11.788 10.7848 11.788C10.7848 11.788 10.3579 11.788 10.3579 12.8824C10.3579 13.4312 11.6385 13.1576 11.6385 13.4312C11.6385 13.7048 11.6217 14.3665 11.6385 14.8008C11.6385 15.0745 10.7848 14.8008 10.7848 15.0745C10.7848 15.2105 11.4263 15.8953 12.0678 15.8953C12.7093 15.8953 13.3484 15.2105 13.3484 15.0745C13.3484 14.8008 12.4947 15.0745 12.4947 14.8008V13.4312C12.4947 13.1576 13.7753 13.4312 13.7753 12.8824C13.7753 11.788 13.3484 11.788 13.3484 11.788C13.3484 11.788 14.6315 11.5144 14.6315 10.692C14.6315 9.86958 13.4087 9.01318 13.4087 9.01318C13.4087 9.01318 14.0961 10.1447 14.0961 10.692C14.0961 10.9656 13.7753 11.5144 12.9216 11.5144C12.9216 11.5144 12.7045 11.2392 12.4947 11.5144C12.4947 11.5144 12.2487 11.2392 12.0678 11.5144C12.0051 11.6071 11.8942 11.2392 11.6385 11.5144C11.5324 11.587 11.4456 11.2392 11.2117 11.5144C10.7848 11.5144 9.93105 11.2392 9.93105 10.692C9.93105 10.1447 10.7245 9.01318 10.7245 9.01318Z" fill="#FFFF00" stroke="black" stroke-width="0.0482709"/>
<path fill-rule="evenodd" clip-rule="evenodd" d="M10.7496 13.9136C10.6628 13.9693 10.8605 14.8612 10.9184 14.8999C11.0052 14.954 11.5189 14.954 11.6033 14.8999C11.6636 14.8612 11.6033 14.0234 11.5189 13.9693C11.4321 13.9136 10.8099 13.8765 10.7472 13.9136H10.7496Z" fill="#FFFF00" stroke="black" stroke-width="0.0482709"/>
<path fill-rule="evenodd" clip-rule="evenodd" d="M13.3904 13.9136C13.4773 13.9693 13.2795 14.8612 13.2216 14.8999C13.1348 14.954 12.6211 14.954 12.5367 14.8999C12.4764 14.8612 12.5367 14.0234 12.6211 13.9693C12.7079 13.9136 13.3301 13.8765 13.3928 13.9136H13.3904Z" fill="#FFFF00" stroke="black" stroke-width="0.0482709"/>
<path fill-rule="evenodd" clip-rule="evenodd" d="M11.6277 13.5884C11.6277 13.6701 11.581 13.7486 11.4978 13.8064C11.4146 13.8642 11.3018 13.8967 11.1842 13.8967C11.0666 13.8967 10.9537 13.8642 10.8706 13.8064C10.7874 13.7486 10.7407 13.6701 10.7407 13.5884C10.7407 13.5066 10.7874 13.4282 10.8706 13.3703C10.9537 13.3125 11.0666 13.28 11.1842 13.28C11.3018 13.28 11.4146 13.3125 11.4978 13.3703C11.581 13.4282 11.6277 13.5066 11.6277 13.5884Z" fill="#FFFF00" stroke="black" stroke-width="0.0577815"/>
<path fill-rule="evenodd" clip-rule="evenodd" d="M13.3929 13.5886C13.3929 13.6704 13.3462 13.7488 13.263 13.8066C13.1798 13.8645 13.067 13.897 12.9494 13.897C12.8318 13.897 12.7189 13.8645 12.6358 13.8066C12.5526 13.7488 12.5059 13.6704 12.5059 13.5886C12.5059 13.5068 12.5526 13.4284 12.6358 13.3706C12.7189 13.3128 12.8318 13.2803 12.9494 13.2803C13.067 13.2803 13.1798 13.3128 13.263 13.3706C13.3462 13.4284 13.3929 13.5068 13.3929 13.5886Z" fill="#FFFF00" stroke="black" stroke-width="0.0577828"/>
<path fill-rule="evenodd" clip-rule="evenodd" d="M12.84 15.375C12.84 15.45 12.74 15.51 12.625 15.51C12.505 15.51 12.41 15.45 12.41 15.375C12.41 15.3 12.51 15.24 12.625 15.24C12.74 15.24 12.84 15.3 12.84 15.375ZM11.725 15.375C11.725 15.45 11.63 15.51 11.515 15.51C11.4 15.51 11.3 15.45 11.3 15.375C11.3 15.3 11.395 15.24 11.515 15.24C11.63 15.24 11.725 15.3 11.725 15.375Z" fill="black"/>
<path fill-rule="evenodd" clip-rule="evenodd" d="M12.0693 11.0002L11.8072 10.6693L11.3769 10.7239L11.4374 10.3128L11.0912 10.0655L11.4374 9.81498L11.3769 9.40387L11.8072 9.46168L12.0693 9.13086L12.3315 9.46168L12.7584 9.40387L12.7013 9.81498L13.0441 10.0655L12.7013 10.316L12.7584 10.7239L12.3282 10.6693L12.0693 11.0002Z" fill="#FFFF00" stroke="black" stroke-width="0.0361427"/>
<path fill-rule="evenodd" clip-rule="evenodd" d="M13.8984 12.2796L14.6323 12.6319L15.3661 12.2796L14.6323 11.9307L13.8984 12.2796Z" fill="#FFFF00" stroke="black" stroke-width="0.0370461"/>
<path fill-rule="evenodd" clip-rule="evenodd" d="M8.64844 12.2796L9.38228 12.6319L10.1161 12.2796L9.38228 11.9307L8.64844 12.2796Z" fill="#FFFF00" stroke="black" stroke-width="0.0370461"/>
<path fill-rule="evenodd" clip-rule="evenodd" d="M15.0311 14.3672C14.8064 14.2247 14.4279 14.2957 14.2158 14.4121C14.0037 14.5285 13.7916 14.6449 13.763 15.0668C13.5194 14.6614 13.7113 14.2866 14.0339 14.1095C14.2054 14.0313 14.4007 14.0145 14.584 14.0623C14.7674 14.1102 14.9266 14.2194 15.0328 14.37L15.0311 14.3672Z" fill="#FFFF00" stroke="black" stroke-width="0.0370605"/>
<path fill-rule="evenodd" clip-rule="evenodd" d="M9.99054 13.6799C9.99054 13.7414 9.96495 13.8004 9.9194 13.844C9.87385 13.8875 9.81207 13.9119 9.74765 13.9119C9.68323 13.9119 9.62145 13.8875 9.5759 13.844C9.53035 13.8004 9.50476 13.7414 9.50476 13.6799C9.50476 13.6183 9.53035 13.5593 9.5759 13.5157C9.62145 13.4722 9.68323 13.4478 9.74765 13.4478C9.81207 13.4478 9.87385 13.4722 9.9194 13.5157C9.96495 13.5593 9.99054 13.6183 9.99054 13.6799Z" fill="#FFFF00" stroke="black" stroke-width="0.0370461"/>
<path fill-rule="evenodd" clip-rule="evenodd" d="M9.74555 14.4948C9.74555 14.5563 9.71996 14.6154 9.6744 14.6589C9.62885 14.7024 9.56707 14.7269 9.50266 14.7269C9.43824 14.7269 9.37646 14.7024 9.33091 14.6589C9.28536 14.6154 9.25977 14.5563 9.25977 14.4948C9.25977 14.4332 9.28536 14.3742 9.33091 14.3307C9.37646 14.2871 9.43824 14.2627 9.50266 14.2627C9.56707 14.2627 9.62885 14.2871 9.6744 14.3307C9.71996 14.3742 9.74555 14.4332 9.74555 14.4948Z" fill="#FFFF00" stroke="black" stroke-width="0.0370461"/>
<path fill-rule="evenodd" clip-rule="evenodd" d="M9.62555 14.0299C9.62555 14.0915 9.59996 14.1505 9.55441 14.1941C9.50886 14.2376 9.44708 14.262 9.38266 14.262C9.31824 14.262 9.25646 14.2376 9.21091 14.1941C9.16536 14.1505 9.13977 14.0915 9.13977 14.0299C9.13977 13.9684 9.16536 13.9094 9.21091 13.8658C9.25646 13.8223 9.31824 13.7979 9.38266 13.7979C9.44708 13.7979 9.50886 13.8223 9.55441 13.8658C9.59996 13.9094 9.62555 13.9684 9.62555 14.0299Z" fill="#FFFF00" stroke="black" stroke-width="0.0370461"/>
<path fill-rule="evenodd" clip-rule="evenodd" d="M10.2356 14.4948C10.2356 14.5563 10.21 14.6154 10.1644 14.6589C10.1189 14.7024 10.0571 14.7269 9.99268 14.7269C9.92826 14.7269 9.86648 14.7024 9.82093 14.6589C9.77538 14.6154 9.74979 14.5563 9.74979 14.4948C9.74979 14.4332 9.77538 14.3742 9.82093 14.3307C9.86648 14.2871 9.92826 14.2627 9.99268 14.2627C10.0571 14.2627 10.1189 14.2871 10.1644 14.3307C10.21 14.3742 10.2356 14.4332 10.2356 14.4948Z" fill="#FFFF00" stroke="black" stroke-width="0.0370461"/>
<path fill-rule="evenodd" clip-rule="evenodd" d="M10.3556 14.0299C10.3556 14.0915 10.33 14.1505 10.2844 14.1941C10.2389 14.2376 10.1771 14.262 10.1127 14.262C10.0483 14.262 9.98647 14.2376 9.94092 14.1941C9.89537 14.1505 9.86978 14.0915 9.86978 14.0299C9.86978 13.9684 9.89537 13.9094 9.94092 13.8658C9.98647 13.8223 10.0483 13.7979 10.1127 13.7979C10.1771 13.7979 10.2389 13.8223 10.2844 13.8658C10.33 13.9094 10.3556 13.9684 10.3556 14.0299Z" fill="#FFFF00" stroke="black" stroke-width="0.0370461"/>
<path fill-rule="evenodd" clip-rule="evenodd" d="M9.99054 14.1447C9.99054 14.2062 9.96495 14.2653 9.9194 14.3088C9.87385 14.3523 9.81207 14.3768 9.74765 14.3768C9.68323 14.3768 9.62145 14.3523 9.5759 14.3088C9.53035 14.2653 9.50476 14.2062 9.50476 14.1447C9.50476 14.0831 9.53035 14.0241 9.5759 13.9806C9.62145 13.9371 9.68323 13.9126 9.74765 13.9126C9.81207 13.9126 9.87385 13.9371 9.9194 13.9806C9.96495 14.0241 9.99054 14.0831 9.99054 14.1447Z" fill="#FFFF00" stroke="black" stroke-width="0.0370461"/>
<path fill-rule="evenodd" clip-rule="evenodd" d="M10.89 6.01988C10.27 6.01988 10.19 6.11988 9.91 6.21488C9.91 5.94488 10.6 5.62988 11.21 5.62988C11.21 5.82488 11.05 6.01988 10.89 6.01988Z" fill="#DA4500"/>
<path fill-rule="evenodd" clip-rule="evenodd" d="M11.825 5.40004C11.825 5.52504 11.715 5.63004 11.58 5.63004C11.445 5.63004 11.335 5.52504 11.335 5.39504C11.335 5.26504 11.445 5.16504 11.58 5.16504C11.715 5.16504 11.825 5.26504 11.825 5.39504V5.40004Z" fill="#CAC9C7"/>
<path fill-rule="evenodd" clip-rule="evenodd" d="M9.26114 4.58272V4.93169H9.87095V6.67982H10.2396V4.93169H10.8494V4.58272H10.2396V4.11523H9.8675V4.58272H9.26114Z" fill="#FFFF00" stroke="black" stroke-width="0.0370461"/>
<path fill-rule="evenodd" clip-rule="evenodd" d="M11.215 5.62992C10.7187 5.60217 10.2217 5.66833 9.75 5.82492C9.75 5.46492 10.17 5.04492 10.89 5.04492C11.05 5.04492 11.215 5.43492 11.215 5.62992Z" fill="#DA4500"/>
<path fill-rule="evenodd" clip-rule="evenodd" d="M4.86295 11.8245C4.68724 11.4458 4.69132 11.3249 5.0039 11.7583L8.76913 18.8964L8.65387 18.9289L4.8649 11.826L4.86295 11.8245Z" fill="#008500" stroke="black" stroke-width="0.0128415"/>
<path fill-rule="evenodd" clip-rule="evenodd" d="M7.41999 16.5202C7.45999 15.9902 6.48999 15.4202 6.44999 15.4552C6.41499 15.4952 6.50999 15.8052 6.69499 15.9602C6.34499 15.7802 5.97499 15.6702 5.96499 15.7452C5.93499 15.8552 6.51499 16.1052 6.56499 16.2052C6.56499 16.2752 6.13499 16.2652 6.14499 16.3352C6.15499 16.4052 7.35999 17.0152 7.41999 16.5202ZM6.44999 14.9802C6.48999 14.4502 5.51999 13.8802 5.48499 13.9152C5.44499 13.9502 5.53999 14.2602 5.72499 14.4202C5.37499 14.2402 5.00499 14.1252 4.99499 14.2052C4.96999 14.3102 5.54499 14.5652 5.59499 14.6652C5.59999 14.7352 5.16999 14.7252 5.17499 14.7952C5.18499 14.8652 6.38999 15.4702 6.44999 14.9802ZM5.70999 13.5802C5.74999 13.0502 4.77999 12.4802 4.73999 12.5152C4.69999 12.5502 4.79999 12.8602 4.98499 13.0202C4.63499 12.8402 4.26499 12.7252 4.25499 12.8052C4.22999 12.9102 4.80499 13.1652 4.85499 13.2652C4.85499 13.3352 4.42999 13.3252 4.43499 13.3952C4.44499 13.4652 5.64999 14.0752 5.70999 13.5802ZM4.97999 12.0602C5.01499 11.5352 4.04999 10.9602 4.00999 10.9952C3.96999 11.0352 4.06999 11.3452 4.24999 11.5052C3.89999 11.3202 3.52999 11.2102 3.52499 11.2902C3.49499 11.3952 4.07499 11.6502 4.11999 11.7452C4.12499 11.8152 3.69499 11.8102 3.70499 11.8802C3.71499 11.9502 4.91499 12.5552 4.97999 12.0602Z" fill="#008F00"/>
<path fill-rule="evenodd" clip-rule="evenodd" d="M5.22999 11.995C5.69999 11.71 5.60499 10.625 5.55499 10.615C5.49999 10.61 5.29499 10.865 5.26999 11.105C5.21499 10.725 5.08999 10.375 5.01999 10.415C4.91499 10.455 5.03999 11.05 4.98499 11.145C4.93499 11.195 4.68499 10.855 4.63499 10.905C4.57499 10.955 4.77499 12.24 5.23499 11.995H5.22999ZM5.90999 13.325C6.44999 13.205 6.74499 12.155 6.69499 12.13C6.64499 12.105 6.36499 12.28 6.25999 12.5C6.33999 12.125 6.34499 11.755 6.25999 11.77C6.14499 11.775 6.05999 12.375 5.97499 12.445C5.90999 12.475 5.78999 12.08 5.72499 12.105C5.65499 12.135 5.39499 13.41 5.90999 13.325ZM6.71999 14.685C7.21499 14.445 7.21999 13.355 7.16999 13.345C7.11999 13.33 6.89499 13.57 6.84499 13.805C6.82499 13.42 6.73499 13.065 6.65999 13.1C6.54999 13.13 6.61999 13.73 6.55999 13.82C6.49999 13.865 6.28499 13.505 6.22499 13.55C6.16499 13.595 6.24499 14.89 6.72499 14.685H6.71999ZM7.59999 16.465C8.11499 16.27 8.23999 15.19 8.18999 15.17C8.13999 15.15 7.88999 15.37 7.81499 15.6C7.83499 15.215 7.78499 14.85 7.70499 14.88C7.58999 14.9 7.59999 15.505 7.52999 15.59C7.46499 15.625 7.28999 15.25 7.22999 15.29C7.16499 15.32 7.10499 16.625 7.59999 16.465Z" fill="#008F00"/>
<path fill-rule="evenodd" clip-rule="evenodd" d="M8.73421 18.3202C8.60321 18.5444 8.18889 18.5647 7.80384 18.3593C7.41879 18.1539 7.21944 17.8062 7.35044 17.582C7.48144 17.3578 7.89877 17.3391 8.28081 17.5429C8.66286 17.7468 8.86521 18.096 8.73421 18.3202Z" fill="#FF1900" stroke="black" stroke-width="0.0370602"/>
<path fill-rule="evenodd" clip-rule="evenodd" d="M18.6759 10.8105L18.7407 10.6431L18.9153 10.6981L18.9801 10.5308L19.1548 10.5858L19.0908 10.7508L19.2704 10.8073L19.2047 10.977L19.0251 10.9204L18.8635 11.3375L18.6889 11.2825L18.8505 10.8654L18.6759 10.8105ZM18.3009 12.2841L18.4755 12.339L16.5993 17.1816L16.4247 17.1267L18.3009 12.2841Z" fill="#FFFF00" stroke="black" stroke-width="0.0128539"/>
<path fill-rule="evenodd" clip-rule="evenodd" d="M16.3668 17.016L16.721 17.1275L16.2033 18.4636L15.8491 18.3521L16.3668 17.016ZM18.4495 11.3949L18.9808 11.5622C19.3325 11.673 18.5349 12.453 18.5349 12.453L18.1832 12.3422C18.1832 12.3422 18.0953 11.2834 18.4495 11.3949ZM18.9378 11.4059C18.9104 11.4766 18.8111 11.5088 18.7139 11.4782C18.6166 11.4476 18.5587 11.3659 18.5852 11.2975C18.6116 11.2292 18.7118 11.1946 18.8091 11.2253C18.9063 11.2559 18.9643 11.3376 18.9369 11.4083L18.9378 11.4059Z" fill="#FFFF00" stroke="black" stroke-width="0.0128539"/>
<path fill-rule="evenodd" clip-rule="evenodd" d="M16.651 17.71C16.7994 17.9241 16.6282 18.2852 16.2605 18.5179C15.8928 18.7506 15.4781 18.7603 15.3297 18.5462C15.1813 18.3322 15.3554 17.9693 15.7202 17.7384C16.085 17.5075 16.5027 17.4959 16.651 17.71Z" fill="#FF1900" stroke="black" stroke-width="0.0370626"/>
</g>
</g>
<defs>
<clipPath id="clip0_2214_3751">
<path d="M0 12C0 5.37258 5.37258 0 12 0C18.6274 0 24 5.37258 24 12C24 18.6274 18.6274 24 12 24C5.37258 24 0 18.6274 0 12Z" fill="white"/>
</clipPath>
<clipPath id="clip1_2214_3751">
<rect width="32" height="24" fill="white" transform="translate(-4)"/>
</clipPath>
</defs>
</svg>
