<svg width="24" height="24" viewBox="0 0 24 24" fill="none" xmlns="http://www.w3.org/2000/svg">
<g clip-path="url(#clip0_2214_2941)">
<g clip-path="url(#clip1_2214_2941)">
<path d="M0 0H32V24H0" fill="#BD3D44"/>
<path d="M0 2.76514H32H0ZM0 6.45014H32H0ZM0 10.1501H32H0ZM0 13.8501H32H0ZM0 17.5501H32H0ZM0 21.2501H32H0Z" fill="black"/>
<path d="M0 1.84009V3.69009H32V1.84009H0ZM0 5.52509V7.37509H32V5.52509H0ZM0 9.22509V11.0751H32V9.22509H0ZM0 12.9251V14.7751H32V12.9251H0ZM0 16.6251V18.4751H32V16.6251H0ZM0 20.3251V22.1751H32V20.3251H0Z" fill="white"/>
<path d="M0 0H18.24V12.925H0" fill="#192F5D"/>
<path d="M16.7 10.9L17.15 12.25L16 11.4H17.4L16.25 12.25L16.7 10.9ZM13.7 10.9L14.15 12.25L13 11.4H14.4L13.25 12.25L13.7 10.9ZM10.65 10.9L11.1 12.25L9.94999 11.4H11.35L10.2 12.25L10.65 10.9ZM7.59999 10.9L8.04999 12.25L6.89999 11.4H8.29999L7.14999 12.25L7.59999 10.9ZM4.54999 10.9L4.99999 12.25L3.84999 11.4H5.24999L4.09999 12.25L4.54999 10.9ZM1.49999 10.9L1.94999 12.25L0.799988 11.4H2.19999L1.04999 12.25L1.49999 10.9ZM15.2 9.60005L15.65 10.95L14.5 10.1H15.9L14.75 10.95L15.2 9.60005ZM12.15 9.60005L12.6 10.95L11.45 10.1H12.85L11.7 10.95L12.15 9.60005ZM9.14999 9.60005L9.59999 10.95L8.44999 10.1H9.84999L8.69999 10.95L9.14999 9.60005ZM6.09999 9.60005L6.54999 10.95L5.39999 10.1H6.79999L5.64999 10.95L6.09999 9.60005ZM3.04999 9.60005L3.49999 10.95L2.34999 10.1H3.74999L2.59999 10.95L3.04999 9.60005ZM16.7 8.30005L17.15 9.65005L16 8.80005H17.4L16.25 9.65005L16.7 8.30005ZM13.7 8.30005L14.15 9.65005L13 8.80005H14.4L13.25 9.65005L13.7 8.30005ZM10.65 8.30005L11.1 9.65005L9.94999 8.80005H11.35L10.2 9.65005L10.65 8.30005ZM7.59999 8.30005L8.04999 9.65005L6.89999 8.80005H8.29999L7.14999 9.65005L7.59999 8.30005ZM4.54999 8.30005L4.99999 9.65005L3.84999 8.80005H5.24999L4.09999 9.65005L4.54999 8.30005ZM1.49999 8.30005L1.94999 9.65005L0.799988 8.80005H2.19999L1.04999 9.65005L1.49999 8.30005ZM15.2 7.05005L15.65 8.40005L14.5 7.55005H15.9L14.75 8.40005L15.2 7.05005ZM12.15 7.05005L12.6 8.40005L11.45 7.55005H12.85L11.7 8.40005L12.15 7.05005ZM9.14999 7.05005L9.59999 8.40005L8.44999 7.55005H9.84999L8.69999 8.40005L9.14999 7.05005ZM6.09999 7.05005L6.54999 8.40005L5.39999 7.55005H6.79999L5.64999 8.40005L6.09999 7.05005ZM3.04999 7.05005L3.49999 8.40005L2.34999 7.55005H3.74999L2.59999 8.40005L3.04999 7.05005ZM16.7 5.75005L17.15 7.10005L16 6.25005H17.4L16.25 7.10005L16.7 5.75005ZM13.7 5.75005L14.15 7.10005L13 6.25005H14.4L13.25 7.10005L13.7 5.75005ZM10.65 5.75005L11.1 7.10005L9.94999 6.25005H11.35L10.2 7.10005L10.65 5.75005ZM7.59999 5.75005L8.04999 7.10005L6.89999 6.25005H8.29999L7.14999 7.10005L7.59999 5.75005ZM4.54999 5.75005L4.99999 7.10005L3.84999 6.25005H5.24999L4.09999 7.10005L4.54999 5.75005ZM1.49999 5.75005L1.94999 7.10005L0.799988 6.25005H2.19999L1.04999 7.10005L1.49999 5.75005ZM15.2 4.45005L15.65 5.80005L14.5 4.95005H15.9L14.75 5.80005L15.2 4.45005ZM12.15 4.45005L12.6 5.80005L11.45 4.95005H12.85L11.7 5.80005L12.15 4.45005ZM9.14999 4.45005L9.59999 5.80005L8.44999 4.95005H9.84999L8.69999 5.80005L9.14999 4.45005ZM6.09999 4.45005L6.54999 5.80005L5.39999 4.95005H6.79999L5.64999 5.80005L6.09999 4.45005ZM3.04999 4.45005L3.49999 5.80005L2.34999 4.95005H3.74999L2.59999 5.80005L3.04999 4.45005ZM16.7 3.15005L17.15 4.50005L16 3.65005H17.4L16.25 4.50005L16.7 3.15005ZM13.7 3.15005L14.15 4.50005L13 3.65005H14.4L13.25 4.50005L13.7 3.15005ZM10.65 3.15005L11.1 4.50005L9.94999 3.65005H11.35L10.2 4.50005L10.65 3.15005ZM7.59999 3.15005L8.04999 4.50005L6.89999 3.65005H8.29999L7.14999 4.50005L7.59999 3.15005ZM4.54999 3.15005L4.99999 4.50005L3.84999 3.65005H5.24999L4.09999 4.50005L4.54999 3.15005ZM1.49999 3.15005L1.94999 4.50005L0.799988 3.65005H2.19999L1.04999 4.50005L1.49999 3.15005ZM15.2 1.85005L15.65 3.20005L14.5 2.35005H15.9L14.75 3.20005L15.2 1.85005ZM12.15 1.85005L12.6 3.20005L11.45 2.35005H12.85L11.7 3.20005L12.15 1.85005ZM9.14999 1.85005L9.59999 3.20005L8.44999 2.35005H9.84999L8.69999 3.20005L9.14999 1.85005ZM6.09999 1.85005L6.54999 3.20005L5.39999 2.35005H6.79999L5.64999 3.20005L6.09999 1.85005ZM3.04999 1.85005L3.49999 3.20005L2.34999 2.35005H3.74999L2.59999 3.20005L3.04999 1.85005ZM16.7 0.550049L17.15 1.90005L16 1.05005H17.4L16.25 1.90005L16.7 0.550049ZM13.7 0.550049L14.15 1.90005L13 1.05005H14.4L13.25 1.90005L13.7 0.550049ZM10.65 0.550049L11.1 1.90005L9.94999 1.05005H11.35L10.2 1.90005L10.65 0.550049ZM7.59999 0.550049L8.04999 1.90005L6.89999 1.05005H8.29999L7.14999 1.90005L7.59999 0.550049ZM4.54999 0.550049L4.99999 1.90005L3.84999 1.05005H5.24999L4.09999 1.90005L4.54999 0.550049ZM1.49999 0.550049L1.94999 1.90005L0.799988 1.05005H2.19999L1.04999 1.90005L1.49999 0.550049Z" fill="white"/>
</g>
</g>
<defs>
<clipPath id="clip0_2214_2941">
<path d="M0 12C0 5.37258 5.37258 0 12 0C18.6274 0 24 5.37258 24 12C24 18.6274 18.6274 24 12 24C5.37258 24 0 18.6274 0 12Z" fill="white"/>
</clipPath>
<clipPath id="clip1_2214_2941">
<rect width="32" height="24" fill="white"/>
</clipPath>
</defs>
</svg>
