<svg width="24" height="24" viewBox="0 0 24 24" fill="none" xmlns="http://www.w3.org/2000/svg">
<g clip-path="url(#clip0_2214_4010)">
<g clip-path="url(#clip1_2214_4010)">
<mask id="mask0_2214_4010" style="mask-type:luminance" maskUnits="userSpaceOnUse" x="-4" y="0" width="32" height="24">
<path d="M-3.99844 0H27.9984V24H-3.99844V0Z" fill="white"/>
</mask>
<g mask="url(#mask0_2214_4010)">
<path fill-rule="evenodd" clip-rule="evenodd" d="M-6 0H30V24H-6V0Z" fill="#165D31"/>
<path fill-rule="evenodd" clip-rule="evenodd" d="M3.07031 6.80155C3.03281 7.36405 2.97656 8.34843 3.45938 8.45155C4.03594 8.5078 3.71719 7.47655 3.92813 7.28905C3.96563 7.1953 4.03594 7.1953 4.04063 7.31249V8.18905C4.04063 8.4703 4.22813 8.55468 4.36875 8.61093C4.51875 8.60155 4.62188 8.61093 4.67813 8.75155L4.75313 10.2656C4.75313 10.2656 5.1 10.3687 5.11875 9.41718C5.13281 8.85468 5.00625 8.39062 5.08125 8.2828C5.08125 8.17499 5.22188 8.1703 5.31563 8.22187C5.46563 8.32499 5.53125 8.45624 5.76563 8.40937C6.12188 8.30624 6.3375 8.1328 6.34219 7.86093C6.33515 7.59375 6.27956 7.33008 6.17813 7.0828C6.19688 7.03593 6.1125 6.90937 6.13125 6.86249C6.19219 6.96562 6.29063 6.95624 6.30938 6.86249C6.24844 6.66562 6.15469 6.47343 6.00469 6.39374C5.87813 6.28124 5.69063 6.29999 5.62969 6.53437C5.59219 6.80155 5.72344 7.11562 5.91563 7.37812C5.95781 7.47655 6.01406 7.6453 5.99063 7.7953C5.88438 7.85155 5.78594 7.8328 5.69531 7.73905C5.69531 7.73905 5.41406 7.52812 5.41406 7.47655C5.48906 6.99843 5.42813 6.94218 5.38594 6.80624C5.35781 6.62343 5.26875 6.56249 5.19844 6.44062C5.12813 6.36562 5.03438 6.36562 4.9875 6.44062C4.86094 6.65624 4.92188 7.1203 5.01094 7.33124C5.07656 7.52343 5.175 7.6453 5.12813 7.6453C5.09063 7.75312 5.01094 7.72499 4.95 7.59843C4.88162 7.33204 4.84852 7.05782 4.85156 6.7828C4.82813 6.56718 4.8 6.1078 4.65469 5.98593C4.57031 5.87343 4.44375 5.92968 4.39688 6.0328C4.38441 6.24221 4.38912 6.45229 4.41094 6.66093C4.50469 7.0078 4.5375 7.31718 4.58438 7.66874C4.59844 8.14218 4.3125 7.87499 4.32656 7.63593C4.38806 7.33539 4.38326 7.02505 4.3125 6.72655C4.26563 6.60468 4.21406 6.57655 4.09688 6.5953C4.00781 6.5953 3.77813 6.84374 3.7125 7.26562C3.7125 7.26562 3.65625 7.48124 3.63281 7.67343C3.6 7.88905 3.45938 8.04843 3.35625 7.6453C3.27188 7.34999 3.21563 6.6328 3.075 6.80155H3.07031Z" fill="white"/>
<path fill-rule="evenodd" clip-rule="evenodd" d="M4.64062 9.10308L3.14062 9.82495C3.15469 9.48276 3.84844 8.8687 4.32656 8.86401C4.63125 8.8687 4.55625 8.9812 4.63594 9.10308H4.64062Z" fill="white"/>
<path fill-rule="evenodd" clip-rule="evenodd" d="M4.37344 9.57178C3.58594 11.6108 6.225 11.8968 6.52031 9.65615C6.54844 9.5624 6.66094 9.47334 6.67969 9.62334C6.61875 11.653 4.63594 11.789 4.29844 11.1515C4.21914 10.9321 4.17946 10.7004 4.18125 10.4671C4.13437 10.0687 3.92344 10.2233 3.89062 10.6171C3.85781 10.8374 3.86719 10.8983 3.86719 11.1093C3.97031 12.7124 6.525 12.0233 6.94219 10.7015C7.1625 9.97022 6.90469 9.43115 7.02187 9.43115C7.275 9.70303 7.63125 9.46865 7.71094 9.3749C7.74375 9.32803 7.82812 9.29522 7.88437 9.35615C8.08125 9.49678 8.42812 9.43115 8.50312 9.18272C8.54687 8.93272 8.575 8.67959 8.5875 8.42334C8.42344 8.47022 8.30625 8.50303 8.29219 8.57334L8.25937 8.78897C8.24531 8.85928 8.10938 8.85928 8.1 8.77022C8.03906 8.48897 7.78594 8.45615 7.63125 8.8874C7.53281 8.97178 7.34531 8.99053 7.32656 8.86397C7.35 8.57334 7.23281 8.53584 6.99844 8.67178L6.77344 6.9749C6.86719 6.9749 6.96094 7.04522 7.05 6.93272C6.95625 6.62803 6.74531 6.00928 6.62812 5.9624C6.57656 5.89678 6.52969 5.93897 6.45469 5.95772C6.33281 5.99522 6.22031 6.09834 6.25781 6.30459C6.39844 7.18584 6.49219 7.85615 6.6375 8.74209C6.66094 8.84053 6.57656 8.97647 6.46406 8.9624C6.27656 8.83584 6.22969 8.57803 5.90156 8.5874C5.66719 8.5874 5.40469 8.84522 5.37187 9.08897C5.32969 9.28584 5.31562 9.49678 5.37187 9.66553C5.53594 9.8624 5.73281 9.84365 5.90625 9.80147C6.04688 9.74053 6.16406 9.5999 6.21563 9.63272C6.24844 9.6749 6.22031 10.1437 5.54531 10.4999C5.1375 10.6874 4.80937 10.7249 4.63594 10.3921C4.52812 10.1812 4.64531 9.38897 4.37344 9.57178Z" fill="white"/>
<path fill-rule="evenodd" clip-rule="evenodd" d="M7.73438 7.50009C7.88906 7.44384 8.63906 6.58134 8.63906 6.58134L8.52656 6.48759C8.48594 6.45321 8.48594 6.41884 8.52656 6.38446C8.71406 6.27196 8.65313 6.03759 8.55938 5.92509C8.49544 5.8951 8.42555 5.87994 8.35493 5.88075C8.28432 5.88157 8.21479 5.89832 8.15156 5.92978C8.02031 6.05634 7.99219 6.2579 8.09531 6.37978C8.19375 6.42665 8.29219 6.52978 8.22656 6.58603C7.91719 6.91415 7.07813 7.48134 7.17656 7.50009C7.19531 7.52821 7.71562 7.52821 7.72969 7.50009H7.73438ZM3.1875 10.547C2.90625 10.997 2.88281 11.6673 3.0375 11.8688C3.12188 11.9626 3.25781 12.0048 3.35625 11.972C3.53438 11.897 3.61406 11.536 3.57188 11.4095C3.51563 11.3157 3.45938 11.3048 3.40313 11.3766C3.28125 11.6298 3.22969 11.4563 3.21563 11.3157C3.20219 11.0776 3.21476 10.8386 3.25313 10.6032C3.28594 10.4063 3.25313 10.4626 3.1875 10.547ZM15.2391 9.82977C14.9672 9.23915 14.5875 8.6579 14.4703 8.43759C14.105 7.86012 13.7172 7.29719 13.3078 6.75009C13.0172 6.40321 13.7859 6.8954 13.2141 6.20165L12.7969 5.85009C12.7031 5.78446 12.4781 5.66259 12.4406 5.85946C12.4219 6.03759 12.4312 6.13134 12.4594 6.27665C12.4828 6.3704 12.6234 6.53446 12.6937 6.62821C13.6547 7.90108 14.4988 9.25816 15.2156 10.6829C15.3375 10.622 15.3094 9.92821 15.2391 9.82977Z" fill="white"/>
<path fill-rule="evenodd" clip-rule="evenodd" d="M14.0438 11.789C13.9875 11.8499 14.175 12.1077 14.4188 12.1077C14.8219 12.0608 15.1781 11.8358 15.5063 11.2358C15.6396 11.0363 15.7246 10.8084 15.7547 10.5702C15.7944 9.43229 15.7032 8.29357 15.4828 7.17647C15.4688 7.08272 15.4828 6.97022 15.4922 6.9421C15.5203 6.90928 15.6094 6.94209 15.6563 6.86241C15.7266 6.79209 15.4688 6.20616 15.3281 5.98584C15.2813 5.88272 15.2578 5.81709 15.1734 5.99522C15.0716 6.19177 15.0231 6.41158 15.0328 6.63272C15.225 7.96866 15.2859 9.13584 15.4078 10.4718C15.4219 10.603 15.4031 10.7905 15.3141 10.8655C14.9606 11.2596 14.5276 11.5743 14.0438 11.789ZM19.5047 11.7843C19.2141 11.953 19.2141 12.1452 19.4484 12.1499C19.8516 12.103 20.3297 12.0702 20.6578 11.5733C20.7737 11.3393 20.8407 11.0841 20.8547 10.8233C20.9137 9.70293 20.8397 8.57948 20.6344 7.47647C20.625 7.38272 20.5828 7.16241 20.5969 7.13428C20.625 7.06866 20.7563 7.13897 20.8031 7.06397C20.8688 6.99366 20.4609 6.46866 20.3156 6.24366C20.2688 6.14053 20.25 6.07491 20.1609 6.25303C20.0656 6.45111 20.036 6.67447 20.0766 6.89053C20.2922 8.34366 20.4516 9.43116 20.4844 10.7155C20.4656 10.8374 20.4609 10.903 20.4047 11.0577C20.2781 11.2171 20.1375 11.4233 20.0063 11.5218C19.875 11.6155 19.5938 11.7093 19.5047 11.7843Z" fill="white"/>
<path fill-rule="evenodd" clip-rule="evenodd" d="M19.7203 10.4858C19.7234 10.1452 19.7219 9.84835 19.7156 9.59522C19.7126 9.37688 19.6647 9.16149 19.575 8.96241C19.4906 8.77022 19.5422 8.61553 19.5 8.40928C19.4625 8.20303 19.4719 7.89366 19.4156 7.6546C19.3969 7.56085 19.35 7.25616 19.3641 7.22335C19.3875 7.15772 19.4766 7.22335 19.5234 7.14835C19.5891 7.07803 19.2891 6.3046 19.1391 6.08428C19.0875 5.98585 18.9844 6.01866 18.8672 6.17803C18.75 6.28585 18.7922 6.52491 18.8391 6.7546C19.125 8.26866 19.3453 9.6421 19.2984 11.0812C19.2797 11.203 19.7203 10.7155 19.7203 10.4858ZM17.5781 8.61085C17.3953 8.60147 17.0156 8.24991 16.9031 8.04835C16.8847 7.99909 16.8769 7.9465 16.8801 7.89401C16.8833 7.84152 16.8976 7.79029 16.9219 7.74366C16.9922 7.69678 17.0953 7.64991 17.175 7.69678C17.175 7.69678 17.2547 7.80928 17.2406 7.82335C17.3344 7.87022 17.3813 7.84678 17.3906 7.8046C17.3953 7.73428 17.3625 7.6921 17.3625 7.6171C17.4047 7.40147 17.6438 7.36866 17.7375 7.5046C17.8031 7.58897 17.8313 7.76241 17.8359 7.8796C17.8359 7.94053 17.7422 7.87022 17.6813 7.8796C17.6297 7.89835 17.6156 7.96397 17.6109 8.02022C17.6016 8.17491 17.5828 8.42335 17.5781 8.60616V8.61085ZM14.2125 10.8608C14.2594 10.4015 14.1938 9.58116 14.1891 9.30928C14.164 8.61008 14.1061 7.91244 14.0156 7.21866C13.9594 6.82491 14.175 7.26085 14.1469 7.03116C14.0766 6.6421 13.8609 6.37491 13.6031 6.02335C13.5234 5.90616 13.5234 5.88272 13.3969 6.05147C13.2563 6.36553 13.3781 6.58585 13.4156 6.83428C13.5984 7.64053 13.7063 8.38116 13.7578 9.1171C13.8118 9.88159 13.8181 10.6487 13.7766 11.414C13.9172 11.4187 14.1328 11.1937 14.2125 10.8608Z" fill="white"/>
<path fill-rule="evenodd" clip-rule="evenodd" d="M20.3438 10.125C20.0203 9.58123 19.5375 8.99998 19.4062 8.77967C18.9716 8.17268 18.515 7.58166 18.0375 7.0078C17.6391 6.58592 18.225 6.93748 17.9625 6.60936C17.7422 6.3703 17.6813 6.29061 17.4891 6.1453C17.3953 6.08436 17.3391 5.96717 17.3016 6.16873C17.2866 6.34332 17.2835 6.51872 17.2922 6.69373C17.2922 6.77342 17.3766 6.92811 17.4516 7.02186C18.4219 8.21717 19.4859 9.43592 20.3391 10.9687C20.4609 10.9078 20.4187 10.2187 20.3391 10.125H20.3438Z" fill="white"/>
<path fill-rule="evenodd" clip-rule="evenodd" d="M5.74688 9.12644C5.72344 9.16863 5.67188 9.22019 5.69063 9.27175C5.72188 9.3155 5.7625 9.33582 5.8125 9.33269C5.86406 9.33269 5.93906 9.34675 5.95313 9.31863C5.98438 9.28113 5.99375 9.22957 5.98125 9.16394C5.925 9.02332 5.775 9.07957 5.74688 9.12644Z" fill="#165D31"/>
<path fill-rule="evenodd" clip-rule="evenodd" d="M16.6031 16.9921C17.0344 17.0109 17.3156 17.0155 17.6953 17.0577L18.1453 17.0109C18.6422 16.964 18.6609 17.7187 18.6609 17.7187C18.6609 18.164 18.4875 18.1874 18.2672 18.2343C18.1406 18.253 18.0797 18.1593 18.0094 18.0655C17.9034 18.0995 17.7904 18.106 17.6812 18.0843C17.5 18.078 17.3203 18.0702 17.1422 18.0609C16.9547 18.0468 16.8516 18.0843 16.6594 18.0655C16.6219 18.1265 16.5656 18.2109 16.4531 18.1874C16.3594 18.1734 16.2422 17.9062 16.275 17.6952C16.3453 17.5452 16.3219 17.5968 16.3219 17.5312C14.5594 17.4843 12.7828 17.4046 11.0578 17.428C9.70781 17.4327 8.37656 17.489 7.04062 17.5452C6.32812 17.5359 5.78437 17.4234 5.40937 16.8749C5.44687 16.8749 7.22812 16.9734 7.74844 16.9405C8.70937 16.9312 9.59062 16.8515 10.5703 16.8234C12.5016 16.8562 14.4187 16.8562 16.35 16.9921C16.1625 16.8655 16.1625 16.5702 16.4437 16.4952C16.4672 16.4765 16.4812 16.6405 16.5234 16.6359C16.7531 16.6218 16.65 16.9312 16.6031 16.9921ZM8.84062 6.34211C8.55 7.17648 9.00937 8.09523 9.32812 8.00617C9.5625 8.09992 9.70312 7.6593 9.79687 7.18117C9.86719 7.04523 9.91406 7.03117 9.94687 7.10148C9.9375 7.73898 9.99375 7.8843 10.1578 8.07648C10.5234 8.35773 10.8281 8.11398 10.8516 8.09055L11.1328 7.80461C11.2016 7.73586 11.2812 7.73117 11.3719 7.79055C11.4609 7.87023 11.4469 8.00617 11.6344 8.09992C11.7937 8.16555 12.1266 8.11867 12.2062 7.98273C12.3094 7.79992 12.3375 7.73898 12.3844 7.67336C12.4594 7.57492 12.5859 7.61711 12.5859 7.64992C12.5719 7.70617 12.4969 7.75773 12.5484 7.86086C12.6422 7.92648 12.6609 7.8843 12.7125 7.87023C12.9 7.77648 13.0406 7.37336 13.0406 7.37336C13.0453 7.22336 12.9609 7.23273 12.9047 7.27023L12.7594 7.36867C12.6656 7.38273 12.4922 7.44367 12.4031 7.30773C12.3141 7.14836 12.3141 6.91867 12.2484 6.75461C12.2484 6.74523 12.1266 6.4968 12.2391 6.48273C12.2953 6.49211 12.4125 6.52492 12.4312 6.42648C12.4875 6.32805 12.3094 6.05148 12.1828 5.91086C12.075 5.79367 11.925 5.77961 11.7797 5.90148C11.6766 5.99523 11.6906 6.09836 11.6719 6.1968C11.6548 6.26739 11.6544 6.34097 11.6707 6.41174C11.687 6.48252 11.7195 6.54854 11.7656 6.60461C11.8687 6.80148 12.0516 7.0593 11.9906 7.42492C11.9906 7.42492 11.8828 7.59367 11.6953 7.57023C11.6156 7.55617 11.4891 7.52336 11.4234 7.01711C11.3719 6.64211 11.4328 6.10773 11.2734 5.8593C11.2125 5.70461 11.1703 5.5593 11.0297 5.81711C10.9922 5.92023 10.8281 6.07492 10.9453 6.38898C11.0562 6.672 11.0886 6.97971 11.0391 7.27961C10.9687 7.38273 10.9547 7.41555 10.8656 7.51398C10.7437 7.65461 10.6078 7.61711 10.5047 7.56555C10.4109 7.50461 10.3359 7.4718 10.2891 7.26086C10.2984 6.93273 10.3172 6.39367 10.2562 6.28117C10.1672 6.10305 10.0219 6.16867 9.96094 6.22492C9.68271 6.53511 9.49609 6.91647 9.42187 7.32648C9.3375 7.59836 9.24844 7.51867 9.1875 7.41086C9.0375 7.27023 9.02344 6.1593 8.84062 6.34211Z" fill="white"/>
<path fill-rule="evenodd" clip-rule="evenodd" d="M9.72187 8.16095C9.85781 8.0672 9.79687 8.00158 9.99375 8.19845C10.2479 8.64807 10.3954 9.15002 10.425 9.66564C10.4156 9.78751 10.5 9.86251 10.5422 9.83439C10.5609 9.55314 11.25 9.15939 11.8828 9.10314C11.9766 9.0797 11.9297 8.89689 11.9437 8.80314C11.9062 8.45158 12.1406 8.13283 12.4688 8.10939C12.9187 8.17501 13.0687 8.41408 13.0781 8.77501C13.0266 9.47814 12.2953 9.59533 11.8875 9.65158C11.8266 9.67501 11.7984 9.70314 11.8875 9.73595L13.6031 9.74533L13.6922 9.7922C13.7016 9.83908 13.6641 9.80158 13.5984 9.91408C13.5047 10.0801 13.4457 10.2635 13.425 10.4531C12.9141 10.6219 12.3844 10.6875 11.85 10.7578C11.6625 10.8516 11.5687 10.9781 11.6062 11.1188C11.6719 11.2735 12.0844 11.4328 12.0844 11.4375C12.1641 11.4844 12.2531 11.6016 12.0609 11.8406C11.2266 11.8031 10.575 11.4469 10.35 10.9453C10.2844 10.8938 10.2094 10.9453 10.1625 11.011C9.83437 11.4328 9.51562 11.8078 8.95781 12.0141C8.62969 12.0985 8.2875 11.9625 8.12812 11.7469C8.02031 11.6203 8.025 11.4844 7.9875 11.4563C7.80469 11.536 6.25781 12.1922 6.45469 11.8828C6.82969 11.4844 7.48594 11.1844 8.05781 10.7906C8.1 10.6547 8.175 10.2047 8.4 10.0594C8.41406 10.0594 8.36719 10.3219 8.37188 10.4344C8.37188 10.5281 8.3625 10.561 8.38125 10.5375C8.42344 10.5141 9.11719 9.96564 9.17812 9.79689C9.24375 9.70314 9.19219 9.45939 9.19219 9.45001C9.06094 9.11251 8.87812 9.08439 8.8125 8.91564C8.75156 8.69533 8.77969 8.4422 8.90625 8.3672C9.02187 8.27033 9.14531 8.27814 9.27656 8.39064C9.41719 8.5172 9.53906 8.76564 9.57656 8.94845C9.55312 9.01876 9.38906 8.90158 9.34219 8.93439C9.43241 9.03807 9.49241 9.16455 9.51562 9.30001C9.60938 9.68439 9.58125 9.83439 9.4875 10.0828C9.17812 10.7344 8.78437 10.9266 8.4375 11.1703C8.42812 11.1703 8.42344 11.3344 8.55 11.4235C8.59687 11.4703 8.77969 11.4938 8.99062 11.4235C9.44037 11.172 9.80447 10.7916 10.0359 10.3313C10.0758 9.98034 10.0373 9.62494 9.92344 9.29064C9.7875 8.97658 9.62812 8.53126 9.62812 8.52189C9.62344 8.32501 9.6375 8.25939 9.72187 8.16095ZM5.23125 6.35158C5.42812 6.44533 5.80312 6.40314 5.78437 6.08439L5.775 5.93908C5.7375 5.84533 5.625 5.86876 5.60156 5.96251C5.59219 5.99533 5.61562 6.04689 5.5875 6.06095C5.56875 6.0797 5.50781 6.07033 5.50781 5.98126C5.50469 5.95001 5.49375 5.92501 5.475 5.90626C5.46875 5.90001 5.45469 5.89689 5.43281 5.89689C5.40469 5.89689 5.40469 5.90158 5.39062 5.92501C5.38437 5.94689 5.37969 5.97189 5.37656 6.00001C5.37344 6.02814 5.36094 6.04376 5.33906 6.04689C5.31094 6.04689 5.31562 6.04689 5.29219 6.03751C5.27969 6.02814 5.27187 6.01251 5.26875 5.99064L5.25469 5.91564C5.24531 5.90314 5.22969 5.89376 5.20781 5.88751C5.1 5.88751 5.09063 6.01408 5.1 6.06095C5.09063 6.07033 5.08594 6.29064 5.23125 6.35158Z" fill="white"/>
<path fill-rule="evenodd" clip-rule="evenodd" d="M11.0203 8.7984C11.2172 8.89215 11.6906 8.84059 11.5734 8.5359L11.5641 8.3859C11.5219 8.29215 11.4141 8.31558 11.3906 8.41402C11.3813 8.44215 11.4047 8.49371 11.3719 8.50777C11.3578 8.52652 11.2922 8.51715 11.2969 8.43277C11.2938 8.40152 11.2828 8.37496 11.2641 8.35308C11.2547 8.34683 11.2391 8.34371 11.2172 8.34371C11.1938 8.34371 11.1938 8.35308 11.1797 8.37652C11.1703 8.3984 11.1656 8.4234 11.1656 8.45152C11.1594 8.47652 11.1453 8.49215 11.1234 8.4984C11.1 8.4984 11.1047 8.4984 11.0859 8.48433C11.0703 8.47496 11.0609 8.4609 11.0578 8.44215L11.0438 8.36715C11.0344 8.35152 11.0188 8.34215 10.9969 8.33902C10.8891 8.33902 10.8797 8.4609 10.8844 8.50777C10.8797 8.51715 10.875 8.74215 11.025 8.7984H11.0203ZM14.3953 7.7859C14.5922 7.87965 14.9625 7.83746 14.9484 7.5234L14.9391 7.3734C14.8969 7.27965 14.7891 7.30309 14.7656 7.39684C14.7563 7.42965 14.7797 7.48121 14.7469 7.49996C14.7328 7.51402 14.6672 7.50465 14.6719 7.41558C14.6688 7.38433 14.6578 7.35934 14.6391 7.34059C14.6297 7.33434 14.6141 7.33121 14.5922 7.33121C14.5703 7.33121 14.5578 7.34215 14.5547 7.36402L14.5406 7.43434C14.5375 7.46559 14.5234 7.48121 14.4984 7.48121C14.4609 7.48121 14.4797 7.48121 14.4609 7.47183C14.4453 7.46246 14.4359 7.4484 14.4328 7.42965C14.4328 7.3984 14.4281 7.37184 14.4188 7.34996C14.4063 7.33746 14.3906 7.32965 14.3719 7.32652C14.2641 7.32652 14.2547 7.4484 14.2594 7.49527C14.2547 7.50465 14.25 7.72496 14.4 7.7859H14.3953ZM16.1438 10.3312C15.8016 10.7203 15.9516 11.3625 16.0313 11.5031C16.1438 11.7281 16.2328 11.8734 16.4531 11.9859C16.6547 12.1312 16.8141 12.0421 16.8984 11.939C17.1 11.7281 17.1047 11.189 17.1984 11.0859C17.2641 10.889 17.4328 10.9218 17.5125 11.0109C17.5878 11.1161 17.6875 11.2013 17.8031 11.2593C17.9906 11.4234 18.2156 11.4562 18.4406 11.3062C18.5906 11.2171 18.6891 11.1093 18.7781 10.889C18.8719 10.6265 18.825 9.40777 18.8016 8.6859L18.6047 7.67809C18.6047 7.66871 18.5813 7.19996 18.5578 7.09215C18.5578 7.04527 18.5438 7.03121 18.5906 7.0359C18.6422 7.08277 18.6469 7.08277 18.6844 7.09683C18.7313 7.10621 18.7781 7.01715 18.7453 6.94215L18.2766 6.07027C18.2391 6.03277 18.1875 5.99527 18.1266 6.07965C18.0899 6.11159 18.0607 6.1513 18.0413 6.19589C18.0218 6.24048 18.0125 6.28883 18.0141 6.33746C18.0328 6.54683 18.0531 6.75465 18.075 6.9609L18.2625 8.02027C18.3234 8.77027 18.3375 9.38902 18.3984 10.1437C18.3891 10.4625 18.2906 10.739 18.1969 10.7812C18.1969 10.7812 18.0563 10.8609 17.9625 10.7718C17.8922 10.7437 17.6156 10.3078 17.6156 10.3078C17.475 10.1812 17.3813 10.214 17.2828 10.3078C17.0016 10.5796 16.8797 11.0765 16.6875 11.4234C16.6406 11.5031 16.5 11.564 16.35 11.4187C15.9656 10.889 16.1906 10.139 16.1438 10.3312ZM14.4844 5.93902C14.6625 6.00933 14.7844 6.37027 14.7469 6.5484C14.7094 6.75933 14.6156 6.99371 14.55 6.96559C14.475 6.93746 14.5969 6.74996 14.5266 6.55309C14.4891 6.42184 14.2453 6.18746 14.2734 6.12184C14.2266 5.97652 14.3766 5.9109 14.4844 5.93433V5.93902Z" fill="white"/>
<path fill-rule="evenodd" clip-rule="evenodd" d="M16.7156 10.5468C16.7484 10.1155 16.6875 9.85301 16.6781 9.59988C16.6687 9.34676 16.3922 7.41551 16.3359 7.22801C16.2656 6.86238 16.6031 7.18113 16.5656 6.96551C16.4484 6.70301 16.1625 6.31395 16.0734 6.08426C16.0172 5.99051 16.0406 5.89676 15.9187 6.06082C15.8133 6.34835 15.7764 6.65652 15.8109 6.96082C16.1016 8.47488 16.3969 9.73113 16.35 11.1702C16.4906 11.1702 16.6453 10.8561 16.7156 10.5468ZM19.7344 6.54832C19.8984 6.62801 19.9922 7.07801 19.9734 7.20457C19.9406 7.43895 19.8562 7.69207 19.7953 7.65926C19.725 7.63113 19.8094 7.31238 19.7766 7.21395C19.7391 7.07332 19.5187 6.8202 19.5422 6.7452C19.4953 6.58582 19.6359 6.5202 19.7344 6.54832ZM7.74844 9.73113C7.90312 9.79207 7.99687 10.1202 7.98281 10.2139C7.94531 10.3874 7.86562 10.5749 7.80469 10.5468C7.74375 10.528 7.81875 10.2936 7.79062 10.2186C7.77656 10.0452 7.56094 9.95145 7.56562 9.87645C7.52812 9.73582 7.65937 9.71238 7.75312 9.73113H7.74844Z" fill="white"/>
<path fill-rule="evenodd" clip-rule="evenodd" d="M11.4797 10.2282C11.6766 10.2375 11.775 10.3969 11.5922 10.4625C11.4047 10.5235 11.2312 10.575 11.2266 10.8375C11.2969 11.2125 11.1328 11.0813 11.0391 11.0344C10.9266 10.95 10.6078 10.7532 10.5609 10.3313C10.5563 10.2329 10.6359 10.1438 10.7625 10.1438C10.95 10.1954 11.2312 10.2 11.4797 10.2282Z" fill="#165D31"/>
<path fill-rule="evenodd" clip-rule="evenodd" d="M3.62812 5.83119C3.85312 5.89681 3.86719 6.23431 3.85312 6.33275C3.82031 6.51087 3.74062 6.70306 3.68437 6.67962C3.61875 6.65619 3.68437 6.41244 3.65156 6.33744C3.61875 6.23431 3.42656 6.03744 3.44531 5.98119C3.40312 5.864 3.53906 5.80775 3.62812 5.83119ZM8.12344 7.40619C7.94531 7.49994 7.87969 7.78119 7.9875 7.94994C8.09062 8.09056 8.25 8.039 8.26875 8.039C8.44219 8.05775 8.54531 7.71556 8.54531 7.71556C8.54531 7.71556 8.55 7.62181 8.34844 7.80462C8.25938 7.81869 8.25469 7.78587 8.23125 7.739C8.20979 7.64976 8.21802 7.55595 8.25469 7.47181C8.2875 7.38744 8.22187 7.34994 8.12344 7.40619ZM9.43594 5.69994C9.34219 5.76087 9.16875 5.94369 9.16406 6.14994C9.15937 6.26712 9.13594 6.26712 9.21094 6.33744C9.27187 6.42181 9.32344 6.41712 9.43594 6.35619C9.46416 6.33876 9.48837 6.31555 9.50695 6.28807C9.52554 6.2606 9.53808 6.22949 9.54375 6.19681C9.57188 6.06556 9.40312 6.26244 9.38437 6.11244C9.34687 5.97181 9.45469 5.91556 9.55781 5.78431C9.55781 5.69056 9.55781 5.62962 9.43125 5.69994H9.43594ZM10.4859 5.88744C10.4447 6.05815 10.4196 6.23235 10.4109 6.40775C10.3828 6.539 10.5516 6.59525 10.6219 6.4265C10.7344 6.12181 10.7344 5.99056 10.7437 5.864C10.7109 5.66244 10.575 5.66712 10.4859 5.88744ZM17.1422 9.2765C17.1609 9.25306 18.0797 8.6015 18.0797 8.6015C18.1734 8.56869 18.15 8.939 18.1078 8.93431C17.8228 9.20878 17.4951 9.43516 17.1375 9.60462C17.0906 9.63744 17.0484 9.35619 17.1375 9.2765H17.1422ZM17.9719 9.26712C18.1359 9.34681 18.2016 9.82025 18.1828 9.94681C18.1828 10.1999 18.0281 10.3968 17.9625 10.3687C17.8969 10.3359 17.9719 10.0546 17.9391 9.95619C17.9016 9.81556 17.7656 9.55775 17.7891 9.48275C17.7422 9.32337 17.8734 9.239 17.9766 9.26712H17.9719ZM12.5344 11.3015C12.6104 11.2127 12.6988 11.1354 12.7969 11.0718C12.8906 11.0249 12.975 11.1093 12.9703 11.1046C12.9844 11.1984 12.9141 11.2781 12.9375 11.3999C12.9563 11.4468 12.9703 11.5031 13.0594 11.4843C13.2047 11.3671 13.3406 11.3577 13.4812 11.3531C13.5984 11.3577 13.6031 11.5499 13.5281 11.5499C13.2609 11.6062 13.1437 11.6812 12.9516 11.7515C12.8578 11.8077 12.7828 11.7374 12.7828 11.7327C12.7828 11.7281 12.7312 11.6812 12.7641 11.5593C12.7734 11.4593 12.7359 11.4124 12.6516 11.4187C12.5953 11.4562 12.5391 11.4749 12.5109 11.4046C12.4922 11.3609 12.5 11.3265 12.5344 11.3015ZM18.9375 11.5546C18.975 11.6015 19.0031 11.6484 18.9328 11.7327L18.7594 11.8827C18.7312 11.9296 18.7125 12.014 18.8062 12.0374C18.975 12.0843 19.3687 11.8265 19.3687 11.8218C19.4344 11.7749 19.4156 11.6812 19.4062 11.6812C19.3687 11.639 19.2844 11.6671 19.2281 11.6577C19.2 11.6577 19.1109 11.6484 19.1531 11.564C19.1848 11.5227 19.2101 11.4769 19.2281 11.4281C19.2562 11.3749 19.225 11.3327 19.1344 11.3015C19.0359 11.2827 18.9937 11.2921 18.8859 11.3015C18.8359 11.3077 18.8062 11.3437 18.7969 11.4093C18.8016 11.5171 18.8672 11.5124 18.9375 11.5499V11.5546Z" fill="white"/>
<path fill-rule="evenodd" clip-rule="evenodd" d="M12.5672 8.89216C12.5438 8.93903 12.4594 8.93903 12.3797 8.89216C12.3 8.84528 12.2531 8.77028 12.2812 8.7281C12.3094 8.68591 12.3891 8.68591 12.4688 8.7281C12.5484 8.77028 12.5906 8.84997 12.5672 8.89216ZM8.39531 6.37966C8.34844 6.39372 8.28281 6.35154 8.25469 6.28591C8.22656 6.22029 8.24063 6.16403 8.2875 6.14997C8.33438 6.13591 8.39531 6.18278 8.42813 6.24372C8.46094 6.30466 8.44219 6.37028 8.39063 6.38435L8.39531 6.37966ZM16.65 17.5781C17.0906 17.5968 17.5031 17.5781 17.9391 17.6015C18.0188 17.6718 17.9625 17.8359 17.9109 17.8265L17.5453 17.8125C17.5406 17.6718 17.1844 17.6953 17.1937 17.8172C17.0016 17.8406 16.8281 17.8125 16.6312 17.8031C16.575 17.7328 16.5844 17.6062 16.65 17.5781Z" fill="#165D31"/>
</g>
</g>
</g>
<defs>
<clipPath id="clip0_2214_4010">
<path d="M0 12C0 5.37258 5.37258 0 12 0C18.6274 0 24 5.37258 24 12C24 18.6274 18.6274 24 12 24C5.37258 24 0 18.6274 0 12Z" fill="white"/>
</clipPath>
<clipPath id="clip1_2214_4010">
<rect width="32" height="24" fill="white" transform="translate(-4)"/>
</clipPath>
</defs>
</svg>
