<svg width="24" height="24" viewBox="0 0 24 24" fill="none" xmlns="http://www.w3.org/2000/svg">
<g clip-path="url(#clip0_2214_4185)">
<g clip-path="url(#clip1_2214_4185)">
<path d="M-4 0H28V24H-4V0Z" fill="#006600"/>
<path d="M-4 0H28V17.145H-4V0Z" fill="white"/>
<path d="M-4 0H28V6.855H-4V0Z" fill="#CC0000"/>
<path d="M11.04 11.6799C11.0871 11.6 11.1588 11.5375 11.2443 11.5017C11.3299 11.4659 11.4247 11.4587 11.5147 11.4812C11.6046 11.5037 11.6849 11.5547 11.7436 11.6265C11.8022 11.6984 11.836 11.7873 11.84 11.8799V13.5999H12.16V11.8849C12.164 11.7923 12.1978 11.7034 12.2564 11.6315C12.315 11.5597 12.3953 11.5087 12.4853 11.4862C12.5753 11.4637 12.6701 11.4709 12.7557 11.5067C12.8412 11.5425 12.9129 11.605 12.96 11.6849C13.0096 11.5333 13.0225 11.3721 12.9978 11.2144C12.973 11.0568 12.9113 10.9073 12.8176 10.7782C12.724 10.649 12.601 10.5439 12.4589 10.4714C12.3168 10.3989 12.1595 10.3611 12 10.3611C11.8404 10.3611 11.6832 10.3989 11.5411 10.4714C11.3989 10.5439 11.276 10.649 11.1823 10.7782C11.0887 10.9073 11.027 11.0568 11.0022 11.2144C10.9775 11.3721 10.9904 11.5333 11.04 11.6849" fill="#F8C300"/>
<path d="M11.27 11.2349C11.4103 11.2081 11.5554 11.2249 11.6859 11.283C11.8164 11.3411 11.926 11.4377 12 11.5599C12.074 11.4377 12.1836 11.3411 12.3141 11.283C12.4446 11.2249 12.5897 11.2081 12.73 11.2349C12.709 11.056 12.6231 10.891 12.4885 10.7713C12.354 10.6516 12.1801 10.5854 12 10.5854C11.8199 10.5854 11.646 10.6516 11.5115 10.7713C11.3769 10.891 11.291 11.056 11.27 11.2349Z" fill="white"/>
<path d="M11.84 12.915C11.8187 13.1587 11.7292 13.3915 11.5816 13.5865C11.434 13.7816 11.2344 13.931 11.0056 14.0177C10.7769 14.1044 10.5284 14.1248 10.2885 14.0766C10.0487 14.0283 9.82742 13.9134 9.65 13.745C9.57476 13.9371 9.45653 14.1093 9.30437 14.2485C9.15222 14.3877 8.97019 14.4902 8.77226 14.5482C8.57433 14.6061 8.36575 14.6179 8.16254 14.5827C7.95934 14.5475 7.7669 14.4662 7.6 14.345C7.725 15.595 9.6 15.34 9.74 14.125C10.325 15.16 11.62 14.86 12 13.595L11.84 12.915Z" fill="#F8C300"/>
<path d="M12.16 12.915C12.1813 13.1587 12.2708 13.3915 12.4184 13.5865C12.566 13.7816 12.7656 13.931 12.9944 14.0177C13.2231 14.1044 13.4716 14.1248 13.7115 14.0766C13.9513 14.0283 14.1726 13.9134 14.35 13.745C14.4252 13.9371 14.5435 14.1093 14.6956 14.2485C14.8478 14.3877 15.0298 14.4902 15.2277 14.5482C15.4257 14.6061 15.6342 14.6179 15.8375 14.5827C16.0407 14.5475 16.2331 14.4662 16.4 14.345C16.275 15.595 14.4 15.34 14.26 14.125C13.675 15.16 12.38 14.86 12 13.595L12.16 12.915Z" fill="#F8C300"/>
<path d="M10.59 15.1299C10.325 15.6949 9.805 15.7899 9.35 15.3349C9.35 15.3349 9.53 15.2049 9.73 15.1699C9.69 15.0149 9.765 14.7949 9.875 14.6799C10.0206 14.7754 10.1284 14.9186 10.18 15.0849C10.455 15.0499 10.59 15.1349 10.59 15.1349V15.1299Z" fill="#F8C300"/>
<path d="M12.6399 15.0666C12.2862 15.5808 11.7576 15.5896 11.3831 15.0664C11.3831 15.0664 11.5819 14.9675 11.7849 14.9656C11.7708 14.8062 11.8807 14.6014 12.008 14.5059C12.136 14.6239 12.219 14.7828 12.2427 14.9553C12.5198 14.9657 12.6391 15.0716 12.6391 15.0716L12.6399 15.0666Z" fill="#F8C300"/>
<path d="M14.6513 15.3343C14.2191 15.7845 13.6961 15.7078 13.411 15.1309C13.411 15.1309 13.6232 15.0655 13.8238 15.0965C13.8356 14.9368 13.9772 14.7525 14.1183 14.6788C14.2256 14.816 14.2818 14.9862 14.2773 15.1602C14.549 15.2152 14.6497 15.339 14.6497 15.339L14.6513 15.3343Z" fill="#F8C300"/>
<path d="M8.675 16.3901C10.8446 15.744 13.1554 15.744 15.325 16.3901" stroke="#F8C300" stroke-width="0.55"/>
<path d="M12.5176 8.94235L11.1625 7.95783H12.8375L11.4824 8.94235L12 7.34937L12.5176 8.94235Z" fill="#F8C300"/>
<path d="M10.1176 9.58712L8.76253 8.60261H10.4375L9.08242 9.58712L9.60001 7.99414L10.1176 9.58712Z" fill="#F8C300"/>
<path d="M8.3622 11.3425L7.00713 10.358H8.68209L7.32701 11.3425L7.84461 9.74951L8.3622 11.3425Z" fill="#F8C300"/>
<path d="M7.71762 13.7424L6.36255 12.7579H8.03751L6.68244 13.7424L7.20003 12.1494L7.71762 13.7424Z" fill="#F8C300"/>
<path d="M13.8824 9.58712L15.2375 8.60261H13.5625L14.9176 9.58712L14.4 7.99414L13.8824 9.58712Z" fill="#F8C300"/>
<path d="M15.6378 11.3425L16.9929 10.358H15.3179L16.673 11.3425L16.1554 9.74951L15.6378 11.3425Z" fill="#F8C300"/>
<path d="M16.2824 13.7424L17.6375 12.7579H15.9625L17.3176 13.7424L16.8 12.1494L16.2824 13.7424Z" fill="#F8C300"/>
</g>
</g>
<defs>
<clipPath id="clip0_2214_4185">
<path d="M0 12C0 5.37258 5.37258 0 12 0C18.6274 0 24 5.37258 24 12C24 18.6274 18.6274 24 12 24C5.37258 24 0 18.6274 0 12Z" fill="white"/>
</clipPath>
<clipPath id="clip1_2214_4185">
<rect width="32" height="24" fill="white" transform="translate(-4)"/>
</clipPath>
</defs>
</svg>
