<svg width="24" height="24" viewBox="0 0 24 24" fill="none" xmlns="http://www.w3.org/2000/svg">
<g clip-path="url(#clip0_2214_2949)">
<g clip-path="url(#clip1_2214_2949)">
<path fill-rule="evenodd" clip-rule="evenodd" d="M-4 0H28V24H-4V0Z" fill="#000001"/>
<path fill-rule="evenodd" clip-rule="evenodd" d="M17.335 0H28V24H17.335V0Z" fill="#009900"/>
<path fill-rule="evenodd" clip-rule="evenodd" d="M6.66501 0H17.335V24H6.66501V0Z" fill="#BF0000"/>
<path fill-rule="evenodd" clip-rule="evenodd" d="M13.0388 13.3716H13.4801C13.4801 13.5417 13.5865 13.7225 13.7194 13.8236H12.8686C13.0016 13.7066 13.0388 13.5577 13.0388 13.3716Z" fill="white" stroke="#BD6B00" stroke-width="0.0265865"/>
<path fill-rule="evenodd" clip-rule="evenodd" d="M10.2312 10.8564L10.4758 11.1223L13.5067 11.1329L13.7513 10.867L12.975 10.8511L12.6027 10.5852H11.3798L11.0288 10.8564H10.2312Z" fill="white"/>
<path fill-rule="evenodd" clip-rule="evenodd" d="M11.4702 10.548H12.5177C12.6559 10.4736 12.7038 10.2343 12.7038 10.1013C12.7038 9.70786 12.422 9.51644 12.1455 9.50581C12.0958 9.50226 12.0621 9.47922 12.0444 9.43668C12.0178 9.3516 12.0232 9.29311 11.9913 9.29843C11.97 9.29843 11.9753 9.3516 11.954 9.42605C11.9328 9.47213 11.8973 9.50049 11.8477 9.51112C11.5074 9.52707 11.2841 9.77699 11.2894 10.1013C11.2947 10.314 11.3213 10.4417 11.4702 10.548Z" fill="white" stroke="#BD6B00" stroke-width="0.0265865"/>
<path fill-rule="evenodd" clip-rule="evenodd" d="M9.75269 14.2755H14.2352L13.8364 13.9512H10.1462L9.75269 14.2755Z" fill="white"/>
<path fill-rule="evenodd" clip-rule="evenodd" d="M11.8105 13.0471L11.8902 13.2917H12.0764L11.9275 13.0471H11.8105ZM11.7041 13.2917L11.7573 13.5363H11.97L11.8902 13.2917H11.7041ZM12.0764 13.2917L12.2252 13.5363H12.539L12.2944 13.2917H12.0764ZM10.2419 13.8447C10.4067 13.6905 10.5131 13.5628 10.5131 13.3767H10.9172C10.9172 13.4831 10.9491 13.5363 11.0129 13.5363H11.4223V13.297H11.1246V11.9836C11.1139 11.5157 11.6882 11.2498 11.9221 11.2498H10.5237V11.2073H13.4642V11.2498H12.0551C12.4751 11.2498 12.8793 11.6486 12.8846 11.9836V12.3558H12.8314L12.8261 11.9889C12.8261 11.622 12.3635 11.2817 11.9913 11.2924C11.6722 11.2977 11.1724 11.6061 11.1777 11.9836V12.1006L11.9381 12.1059L11.9328 12.2388L12.0498 12.3133L12.289 12.3877V12.5898L12.4592 12.6376V12.8344L12.6613 12.9248V13.1268L12.7942 13.2066L12.7889 13.414L12.9643 13.5363H12.5496L12.8101 13.8287H12.422L12.2306 13.5363H11.9806L12.0923 13.8234H11.8264L11.7573 13.5363H11.4276V13.8447H10.2472H10.2419ZM11.4223 13.0471V13.2917H11.7041L11.651 13.0471H11.417H11.4223Z" fill="white"/>
<path d="M11.8902 13.2917L11.8105 13.0471H11.9275L12.0764 13.2917M11.8902 13.2917H12.0764M11.8902 13.2917L11.97 13.5363H11.7573M11.8902 13.2917H11.7041M12.0764 13.2917L12.2252 13.5363H12.539L12.2944 13.2917H12.0764ZM11.7041 13.2917L11.7573 13.5363M11.7041 13.2917H11.4223V13.0471H11.417H11.651L11.7041 13.2917ZM11.7573 13.5363L11.8264 13.8234H12.0923L11.9806 13.5363H12.2306L12.422 13.8287H12.8101L12.5496 13.5363H12.9643L12.7889 13.414L12.7942 13.2066L12.6613 13.1268V12.9248L12.4592 12.8344V12.6376L12.289 12.5898V12.3877L12.0498 12.3133L11.9328 12.2388L11.9381 12.1059L11.1777 12.1006V11.9836C11.1724 11.6061 11.6722 11.2977 11.9913 11.2924C12.3635 11.2817 12.8261 11.622 12.8261 11.9889L12.8314 12.3558H12.8846V11.9836C12.8793 11.6486 12.4751 11.2498 12.0551 11.2498H13.4642V11.2073H10.5237V11.2498H11.9221C11.6882 11.2498 11.1139 11.5157 11.1246 11.9836V13.297H11.4223V13.5363H11.0129C10.9491 13.5363 10.9172 13.4831 10.9172 13.3767H10.5131C10.5131 13.5628 10.4067 13.6905 10.2419 13.8447H10.2472H11.4276V13.5363H11.7573Z" stroke="#BD6B00" stroke-width="0.0265865"/>
<path fill-rule="evenodd" clip-rule="evenodd" d="M11.4383 12.6218H11.6137V13.0259H11.4383V12.6218Z" stroke="#BD6B00" stroke-width="0.0265865"/>
<path fill-rule="evenodd" clip-rule="evenodd" d="M11.1884 13.0526H11.3585V12.7548C11.3585 12.6272 11.4755 12.4942 11.5287 12.4889C11.5925 12.4889 11.6829 12.6112 11.6882 12.7442V13.0526H11.869V12.2869H11.1884V13.0526ZM12.5496 13.228H12.7623V13.3982H12.5496V13.228ZM12.422 12.9462H12.6347V13.111H12.422V12.9462ZM12.2146 12.6591H12.4273V12.8239H12.2146V12.6591ZM12.0391 12.4198H12.2518V12.5846H12.0391V12.4198Z" stroke="#BD6B00" stroke-width="0.0265865"/>
<path fill-rule="evenodd" clip-rule="evenodd" d="M11.8955 13.0524L12.1189 13.063L12.507 13.4033V13.2013L12.3741 13.1055V12.946L12.1827 12.8397V12.6642L11.9966 12.6004V12.3718L11.9062 12.292L11.8955 13.0524Z" stroke="#BD6B00" stroke-width="0.0265865"/>
<path fill-rule="evenodd" clip-rule="evenodd" d="M12.8208 12.5474H12.8739V12.9249H12.8208V12.5474Z" fill="white" stroke="#BD6B00" stroke-width="0.0265865"/>
<path fill-rule="evenodd" clip-rule="evenodd" d="M9.73142 11.2819C9.66761 11.1755 9.58786 11.4308 9.31667 11.6169C9.19438 11.702 9.10398 11.9306 9.10398 12.0795C9.10753 12.1858 9.10753 12.2886 9.10398 12.3879C9.09866 12.4464 9.02954 12.5899 9.0774 12.6272C9.19438 12.7122 9.34858 12.9143 9.4177 12.9834C9.48151 13.0366 9.53468 12.7016 9.57722 12.558C9.63039 12.3985 9.60913 12.2018 9.74738 12.0582C9.84309 11.9519 10.0877 11.8562 10.0664 11.8136L9.73142 11.2819Z" fill="white" stroke="#BD6B00" stroke-width="0.0265865"/>
<path fill-rule="evenodd" clip-rule="evenodd" d="M9.71546 12.1007C9.69435 12.0505 9.66565 12.0039 9.63039 11.9624C9.59664 11.9202 9.55273 11.8873 9.50277 11.8667C9.45344 11.853 9.40913 11.8253 9.37516 11.7869C9.35543 11.7637 9.34092 11.7365 9.33262 11.7072V11.6008L9.31667 11.6168C9.19437 11.7019 9.10397 11.9305 9.10397 12.0794V12.2017C9.11106 12.23 9.1217 12.2531 9.13588 12.2708L9.19437 12.3133L9.33793 12.3506C9.39179 12.3746 9.43917 12.411 9.47618 12.4569C9.51458 12.4981 9.54682 12.5447 9.5719 12.5952L9.58253 12.5526C9.62507 12.4091 9.61975 12.2389 9.72078 12.1007H9.71546Z" fill="#BF0000" stroke="#BD6B00" stroke-width="0.0265865"/>
<path d="M9.3326 11.5957C9.30601 11.7712 9.40704 11.835 9.50275 11.8669C9.59847 11.9041 9.67823 12.0051 9.71545 12.1008M9.09332 12.1806C9.13586 12.3401 9.24221 12.3189 9.33792 12.3508C9.43363 12.3827 9.53466 12.5103 9.5772 12.606" stroke="#BD6B00" stroke-width="0.0265865"/>
<path fill-rule="evenodd" clip-rule="evenodd" d="M9.64102 11.1755L9.69419 11.1436L10.6354 12.7334L10.5822 12.7653L9.64102 11.1755Z" fill="white" stroke="#BD6B00" stroke-width="0.0265865"/>
<path fill-rule="evenodd" clip-rule="evenodd" d="M9.74205 11.1117C9.74205 11.1399 9.73085 11.167 9.7109 11.1869C9.69096 11.2069 9.66391 11.2181 9.6357 11.2181C9.6075 11.2181 9.58045 11.2069 9.56051 11.1869C9.54056 11.167 9.52936 11.1399 9.52936 11.1117C9.52936 11.0835 9.54056 11.0565 9.56051 11.0365C9.58045 11.0166 9.6075 11.0054 9.6357 11.0054C9.66391 11.0054 9.69096 11.0166 9.7109 11.0365C9.73085 11.0565 9.74205 11.0835 9.74205 11.1117ZM10.5503 9.83557H10.9331V9.92064H10.5503V9.83557ZM10.5503 10.0004H10.9331V10.7342H10.5503V10.0004ZM10.529 9.73454H10.9544C10.965 9.59097 10.8215 9.43677 10.7417 9.43677C10.6566 9.44208 10.5237 9.59629 10.529 9.73454Z" fill="white" stroke="#BD6B00" stroke-width="0.0265865"/>
<path fill-rule="evenodd" clip-rule="evenodd" d="M11.6084 9.64935C11.5287 9.68125 11.4649 9.77164 11.4276 9.87799C11.3904 9.98434 11.3745 10.1066 11.3957 10.2023C11.3993 10.2378 11.4081 10.2644 11.4223 10.2821C11.4329 10.2998 11.4436 10.3087 11.4542 10.3087C11.4719 10.3087 11.4843 10.3034 11.4914 10.2927L11.5021 10.2502C11.495 10.1439 11.5003 10.0481 11.518 9.96307C11.5429 9.86915 11.5992 9.78659 11.6775 9.72911C11.6917 9.71847 11.7006 9.70606 11.7041 9.69188L11.6882 9.65466C11.6634 9.63694 11.6368 9.63517 11.6084 9.64935ZM11.6191 9.67061C11.6403 9.66352 11.658 9.6653 11.6722 9.67593L11.6775 9.68657C11.6775 9.69011 11.6722 9.6972 11.6616 9.70784C11.5792 9.7671 11.5208 9.85385 11.4968 9.95243C11.475 10.0501 11.4696 10.1507 11.4808 10.2502L11.4702 10.2821C11.4702 10.2821 11.4702 10.2874 11.4595 10.2821L11.4383 10.2662L11.417 10.2023C11.4028 10.0995 11.4152 9.9932 11.4542 9.88331C11.4932 9.78051 11.5464 9.70961 11.6137 9.67061H11.6191Z" fill="#BD6B00"/>
<path fill-rule="evenodd" clip-rule="evenodd" d="M11.7467 9.75037C11.6651 9.79291 11.6119 9.86735 11.5871 9.97369C11.5596 10.0759 11.5541 10.1829 11.5712 10.2874C11.5889 10.3583 11.6173 10.3938 11.6563 10.3938C11.674 10.4009 11.6882 10.3955 11.6988 10.3778C11.7094 10.3601 11.713 10.3424 11.7094 10.3246C11.6882 10.236 11.6828 10.1456 11.6935 10.0535C11.7077 9.96129 11.7467 9.88862 11.8105 9.83544C11.8282 9.82126 11.837 9.80708 11.837 9.79291L11.8264 9.761C11.8016 9.74328 11.775 9.73973 11.7467 9.75037ZM11.7573 9.77695C11.7786 9.76986 11.7963 9.76986 11.8105 9.77695L11.8158 9.79291L11.7998 9.81417C11.7299 9.87374 11.6844 9.95707 11.6722 10.0481C11.658 10.1474 11.6616 10.2396 11.6828 10.3246V10.3672L11.6563 10.3725C11.6403 10.3725 11.6031 10.3459 11.5925 10.2821C11.5765 10.1917 11.5818 10.0747 11.6084 9.97901C11.6368 9.87621 11.6864 9.80886 11.7573 9.77695Z" fill="#BD6B00"/>
<path fill-rule="evenodd" clip-rule="evenodd" d="M10.529 11.3296H10.9544V11.9145H10.529V11.3296ZM10.5556 12.2548H10.965V12.3824H10.5556V12.2548ZM10.5449 12.4728H10.9703V12.9354H10.5449V12.4728ZM10.513 13.0311H10.9756V13.2917H10.513V13.0311ZM10.5715 12.1485H10.9437L11.0182 12.0208H10.5077L10.5715 12.1485ZM11.0714 11.6912L11.0767 11.3721H11.3319C11.2217 11.457 11.1325 11.5662 11.0714 11.6912Z" fill="white" stroke="#BD6B00" stroke-width="0.0265865"/>
<path fill-rule="evenodd" clip-rule="evenodd" d="M10.5981 11.8241C10.5981 11.8932 10.6779 11.8666 10.6779 11.8294V11.5316C10.6779 11.4784 10.8055 11.4891 10.8055 11.5263V11.8453C10.8055 11.8985 10.8959 11.8932 10.8906 11.8453V11.4731C10.8906 11.3561 10.5981 11.3615 10.5981 11.4678V11.8241ZM10.5981 12.5313H10.9012V12.9035H10.5981V12.5313Z" stroke="#BD6B00" stroke-width="0.0265865"/>
<path fill-rule="evenodd" clip-rule="evenodd" d="M10.7896 12.691H10.8959V12.7441H10.7896V12.691ZM10.6035 12.691H10.7098V12.7441H10.6035V12.691ZM10.7098 12.5315H10.7896V12.691H10.7098V12.5315ZM10.7098 12.7441H10.7896V12.909H10.7098V12.7441ZM9.02421 8.75617C9.04548 9.04863 8.94977 9.21346 8.79557 9.18688C8.75303 9.02736 8.84874 8.91569 9.02421 8.75617ZM8.67859 9.4102C8.54034 9.34108 8.64137 8.79871 8.69454 8.57007C8.73176 8.86252 8.80089 9.27727 8.67859 9.4102Z" fill="white"/>
<path d="M10.7896 12.691H10.8959V12.7441H10.7896M10.7896 12.691V12.7441M10.7896 12.691V12.5315H10.7098V12.691M10.7896 12.691H10.7098M10.7896 12.7441H10.7098M10.7896 12.7441V12.909H10.7098V12.7441M10.7098 12.691H10.6035V12.7441H10.7098M10.7098 12.691V12.7441M9.02421 8.75617C9.04548 9.04863 8.94977 9.21346 8.79557 9.18688C8.75303 9.02736 8.84874 8.91569 9.02421 8.75617ZM8.67859 9.4102C8.54034 9.34108 8.64137 8.79871 8.69454 8.57007C8.73176 8.86252 8.80089 9.27727 8.67859 9.4102Z" stroke="#BD6B00" stroke-width="0.0265865"/>
<path fill-rule="evenodd" clip-rule="evenodd" d="M8.72646 9.43676C8.96042 9.51652 9.15184 9.26661 9.21033 8.97416C9.01891 9.24002 8.70519 9.24002 8.73177 9.43676H8.72646ZM8.55098 9.70795C8.3702 9.66009 8.47654 9.08582 8.51376 8.85718C8.55098 9.09646 8.6786 9.62819 8.55098 9.70795ZM8.61479 9.69199C8.62543 9.49525 8.82217 9.54843 8.96042 9.44208C8.93383 9.54843 8.85407 9.71858 8.61479 9.69199ZM8.39147 9.95786C8.21068 9.90469 8.31702 9.28788 8.30639 9.03265C8.35956 9.25598 8.52972 9.89937 8.39147 9.95786ZM8.47654 9.93127C8.62543 9.97913 8.82217 9.8781 8.83812 9.70263C8.70519 9.79302 8.50313 9.7239 8.47654 9.93127Z" fill="white" stroke="#BD6B00" stroke-width="0.0265865"/>
<path fill-rule="evenodd" clip-rule="evenodd" d="M8.25319 10.2291C8.08304 10.2451 8.15748 9.71868 8.15748 9.22949C8.22129 9.68678 8.39676 10.1068 8.25319 10.2291Z" fill="white" stroke="#BD6B00" stroke-width="0.0265865"/>
<path fill-rule="evenodd" clip-rule="evenodd" d="M8.31702 10.2078C8.434 10.261 8.64137 10.1706 8.69986 9.97382C8.48717 10.0642 8.34892 9.97382 8.31702 10.2078ZM9.67824 9.02734C9.64634 9.28789 9.54 9.43678 9.38579 9.41019C9.34326 9.25067 9.47087 9.14432 9.67824 9.02734ZM9.2635 9.68669C9.52404 9.72391 9.61444 9.52717 9.79523 9.26662C9.54531 9.44741 9.25286 9.47931 9.2635 9.69201V9.68669Z" fill="white" stroke="#BD6B00" stroke-width="0.0265865"/>
<path fill-rule="evenodd" clip-rule="evenodd" d="M9.18373 9.66002C9.04548 9.48986 9.18373 9.27185 9.29008 9.09106C9.26881 9.36225 9.35921 9.51645 9.18373 9.66002ZM9.13056 9.94183C9.10929 9.77168 9.39643 9.73446 9.52404 9.64406C9.47619 9.73977 9.4177 10.0003 9.12524 9.94183H9.13056Z" fill="white" stroke="#BD6B00" stroke-width="0.0265865"/>
<path fill-rule="evenodd" clip-rule="evenodd" d="M9.06674 9.94183C8.87 9.92056 8.94976 9.58557 9.09333 9.40479C9.03484 9.66002 9.19968 9.83549 9.06674 9.94183Z" fill="white" stroke="#BD6B00" stroke-width="0.0265865"/>
<path fill-rule="evenodd" clip-rule="evenodd" d="M8.91785 10.2237C8.69453 10.1174 8.8381 9.84086 8.91785 9.67603C8.88595 9.89403 9.06674 10.0589 8.91785 10.2184V10.2237Z" fill="white" stroke="#BD6B00" stroke-width="0.0265865"/>
<path fill-rule="evenodd" clip-rule="evenodd" d="M8.9604 10.1918C9.07739 10.3513 9.30603 10.1492 9.35388 9.91528C9.15714 10.0801 9.00826 10.0535 8.9604 10.1971V10.1918ZM8.44994 11.2712C8.42867 11.0426 8.59883 10.6331 8.47653 10.4098C8.46058 10.3779 8.51375 10.2981 8.55097 10.346C8.60415 10.4257 8.65732 10.6491 8.68391 10.564C8.71049 10.4789 8.71049 10.3194 8.79025 10.2875C8.84342 10.2715 8.91255 10.2556 8.89128 10.3407C8.87001 10.4151 8.82747 10.5215 8.87533 10.5268C8.90191 10.5268 8.98167 10.4204 9.0508 10.3673C9.10397 10.3247 9.18905 10.3992 9.10397 10.463C8.84874 10.6757 8.59883 10.7767 8.44994 11.2712ZM7.98734 14.7009C7.95543 14.7009 7.91821 14.6849 7.95543 14.7328C8.25852 15.105 8.3436 15.2113 8.78493 15.1581C9.22627 15.0997 9.33262 14.9774 9.64634 14.8019C9.83044 14.7076 10.044 14.6885 10.2419 14.7487C10.327 14.7753 10.3801 14.7753 10.3163 14.7115C10.2525 14.6477 10.1834 14.5679 10.1036 14.5094C9.90422 14.3792 9.66345 14.328 9.42833 14.3659C9.10929 14.419 8.83811 14.6264 8.51375 14.7062C8.34003 14.7413 8.16106 14.7413 7.98734 14.7062V14.7009ZM10.529 15.3655C10.5822 15.3761 10.6194 15.4825 10.6513 15.4134C10.6938 15.2911 10.6619 15.2007 10.6088 15.206C10.545 15.2219 10.4439 15.3655 10.529 15.3655Z" fill="white" stroke="#BD6B00" stroke-width="0.0265865"/>
<path fill-rule="evenodd" clip-rule="evenodd" d="M7.77998 11.0957C7.71617 11.0248 7.73389 10.9912 7.83315 10.9947C7.90759 10.9947 8.05647 11.0479 8.11496 11C8.16814 10.9628 8.14155 10.8033 8.16814 10.7342C8.17877 10.6863 8.20536 10.6278 8.27448 10.7235C8.46591 11.0319 8.69987 11.4041 8.80621 11.7657C8.85939 11.9678 8.80621 12.2868 8.62543 12.4995C8.62543 12.3187 8.56162 12.1964 8.48186 12.0422C8.37551 11.8455 7.99798 11.2978 7.77998 11.0904V11.0957Z" fill="white"/>
<path fill-rule="evenodd" clip-rule="evenodd" d="M8.57223 12.7122C8.78492 12.7122 8.82214 12.4303 8.82214 12.3506C8.71579 12.3719 8.53501 12.5473 8.57223 12.7122ZM10.4067 15.4718C10.5556 15.5037 10.5503 15.1422 10.3961 14.988C10.4652 15.2219 10.2897 15.4346 10.4014 15.4665L10.4067 15.4718ZM10.3429 15.4665C10.3535 15.6367 9.9175 15.4453 9.81116 15.307C10.0664 15.4187 10.3323 15.3283 10.3429 15.4665ZM10.1568 15.2219C10.1727 15.3868 9.78457 15.2379 9.66227 15.1103C9.92282 15.1953 10.1408 15.0837 10.1568 15.2166V15.2219ZM10.2259 15.2432C10.3801 15.2804 10.3535 14.9029 10.2046 14.7753C10.2791 15.0252 10.1089 15.206 10.2259 15.2432ZM10.0664 15.0146C10.2206 15.0518 10.1302 14.7274 10.0185 14.5998C10.0398 14.8338 9.96536 14.9986 10.0717 15.0146H10.0664ZM9.98663 15.0146C10.0026 15.1847 9.69949 15.0571 9.58251 14.8923C9.83774 14.972 9.97068 14.8763 9.98663 15.0146ZM9.90687 14.8816C10.0026 14.8125 9.90155 14.6264 9.71013 14.637C9.7314 14.7487 9.79521 14.9507 9.90687 14.8816ZM10.6513 15.6633C10.6566 15.8334 10.2259 15.7483 10.0877 15.5676C10.3642 15.6207 10.6353 15.525 10.646 15.6633H10.6513ZM8.92849 15.3549C8.94444 15.525 8.4712 15.3336 8.35422 15.1741C8.60413 15.2591 8.91253 15.2166 8.92849 15.3549ZM9.21562 15.424C9.31665 15.3549 9.11459 15.1741 8.94976 15.1315C8.97102 15.2432 9.10927 15.4931 9.21562 15.4293V15.424ZM9.24752 15.5463C9.25816 15.7005 8.74238 15.6154 8.60945 15.4718C9.05078 15.5516 9.23157 15.4134 9.24752 15.5463Z" fill="white" stroke="#BD6B00" stroke-width="0.0265865"/>
<path fill-rule="evenodd" clip-rule="evenodd" d="M9.49214 15.6473C9.54532 15.7909 9.05081 15.7537 8.87534 15.6739C9.15715 15.6739 9.4496 15.5463 9.49214 15.6473Z" fill="white" stroke="#BD6B00" stroke-width="0.0265865"/>
<path fill-rule="evenodd" clip-rule="evenodd" d="M9.72076 15.7537C9.77394 15.8813 9.31665 15.8813 9.09332 15.8068C9.39109 15.8068 9.66759 15.626 9.72076 15.7537ZM10.0558 15.8228C10.1408 15.977 9.65164 15.9876 9.49744 15.9132C9.77394 15.876 9.98663 15.7005 10.0558 15.8228ZM9.4868 15.5622C9.3326 15.6579 9.34324 15.3708 9.22094 15.1741C9.41236 15.3495 9.59315 15.4718 9.4868 15.5622Z" fill="white" stroke="#BD6B00" stroke-width="0.0265865"/>
<path fill-rule="evenodd" clip-rule="evenodd" d="M9.76332 15.6687C9.63571 15.7804 9.52936 15.3869 9.41238 15.1636C9.60381 15.3762 9.8803 15.573 9.76332 15.6634V15.6687ZM10.1249 15.775C10.0186 15.9027 9.69952 15.4028 9.58254 15.137C9.75801 15.3443 10.21 15.6687 10.1249 15.775ZM9.8165 16.1579C9.76332 16.3493 8.95509 15.9771 8.85938 15.7804C9.32731 16.025 9.82713 15.9718 9.8165 16.1526V16.1579ZM7.22697 12.2337C7.2057 12.2071 7.15253 12.2337 7.16316 12.2922C7.17912 12.372 7.2961 12.7814 7.49815 12.9197C7.64172 13.026 8.4021 13.1908 8.7424 13.2653C8.93028 13.3007 9.08803 13.3947 9.21564 13.5471C9.17199 13.3706 9.11873 13.1967 9.05612 13.026C8.99232 12.8665 8.82216 12.6963 8.64137 12.691C8.31702 12.6751 7.89163 12.6485 7.57791 12.5155C7.43581 12.4556 7.31267 12.3582 7.22165 12.2337H7.22697Z" fill="white" stroke="#BD6B00" stroke-width="0.0265865"/>
<path fill-rule="evenodd" clip-rule="evenodd" d="M9.10397 13.8555C9.21032 13.9299 9.32198 13.6587 9.19437 13.3982C9.18905 13.6481 8.99231 13.7332 9.10397 13.8555Z" fill="white" stroke="#BD6B00" stroke-width="0.0265865"/>
<path fill-rule="evenodd" clip-rule="evenodd" d="M9.20501 14.1054C9.34858 14.148 9.39112 13.8927 9.30072 13.6907C9.31668 13.9087 9.07208 14.0416 9.20501 14.1054Z" fill="white" stroke="#BD6B00" stroke-width="0.0265865"/>
<path fill-rule="evenodd" clip-rule="evenodd" d="M9.31666 14.3075C9.45491 14.3766 9.50276 14.116 9.40705 13.9299C9.41768 14.1692 9.21031 14.2437 9.31666 14.3021V14.3075Z" fill="white" stroke="#BD6B00" stroke-width="0.0265865"/>
<path fill-rule="evenodd" clip-rule="evenodd" d="M9.25818 14.3233C9.20501 14.4828 8.88597 14.1797 8.83279 14.0149C9.02953 14.2116 9.2954 14.185 9.25818 14.318V14.3233Z" fill="white" stroke="#BD6B00" stroke-width="0.0265865"/>
<path fill-rule="evenodd" clip-rule="evenodd" d="M9.11461 14.0734C9.05081 14.233 8.65201 13.8076 8.56161 13.6108C8.75836 13.8076 9.15715 13.9565 9.11461 14.0681V14.0734Z" fill="white" stroke="#BD6B00" stroke-width="0.0265865"/>
<path fill-rule="evenodd" clip-rule="evenodd" d="M9.03484 13.8236C8.97104 14.0097 8.54033 13.5152 8.41272 13.3397C8.62541 13.5311 9.0827 13.6906 9.03484 13.8236ZM9.01889 13.6428C9.17841 13.6109 9.01357 13.4833 8.82215 13.2759C8.81683 13.4939 8.84874 13.6481 9.01889 13.6428Z" fill="white" stroke="#BD6B00" stroke-width="0.0265865"/>
<path fill-rule="evenodd" clip-rule="evenodd" d="M8.75835 13.5152C8.82748 13.4461 8.69986 13.4142 8.54034 13.2334C8.51376 13.3557 8.68923 13.579 8.76367 13.5152H8.75835ZM9.50277 14.3234C9.58785 14.3766 9.64102 14.2011 9.53999 14.0469C9.51341 14.2171 9.42833 14.2596 9.50277 14.3234ZM7.68426 13.244C7.50879 13.3504 7.22697 12.925 7.15253 12.7495C7.30673 12.9516 7.71616 13.1324 7.68426 13.244Z" fill="white" stroke="#BD6B00" stroke-width="0.0265865"/>
<path fill-rule="evenodd" clip-rule="evenodd" d="M7.83844 13.4886C7.73741 13.5949 7.42901 13.3024 7.32266 13.1536C7.48218 13.2971 7.88098 13.3131 7.83844 13.4886Z" fill="white" stroke="#BD6B00" stroke-width="0.0265865"/>
<path fill-rule="evenodd" clip-rule="evenodd" d="M8.0033 13.7118C7.9714 13.8607 7.52474 13.5257 7.4184 13.3662C7.60982 13.5523 8.0352 13.5364 8.0033 13.7118Z" fill="white" stroke="#BD6B00" stroke-width="0.0265865"/>
<path fill-rule="evenodd" clip-rule="evenodd" d="M7.93416 13.8768C7.86503 14.0098 7.49814 13.6748 7.40775 13.5046C7.63639 13.696 7.99265 13.7439 7.93948 13.8768H7.93416ZM7.74805 13.2228C7.85972 13.1005 7.81186 13.042 7.72678 12.8506C7.68424 13.0473 7.61512 13.1271 7.74805 13.2228ZM7.90225 13.4514C8.11495 13.4621 7.90225 13.2068 7.84908 12.9888C7.87035 13.2334 7.79591 13.4302 7.90225 13.4514Z" fill="white" stroke="#BD6B00" stroke-width="0.0265865"/>
<path fill-rule="evenodd" clip-rule="evenodd" d="M8.03519 13.6533C8.17876 13.6214 8.14154 13.414 8.02456 13.1641C8.05114 13.4352 7.90226 13.5894 8.03519 13.6533ZM7.98202 14.0627C7.92884 14.2222 7.51409 13.85 7.45029 13.7011C7.66298 13.8819 8.01924 13.9404 7.98202 14.0627Z" fill="white" stroke="#BD6B00" stroke-width="0.0265865"/>
<path fill-rule="evenodd" clip-rule="evenodd" d="M8.23193 14.318C8.17344 14.4775 7.73742 14.1478 7.60449 13.967C7.86504 14.1797 8.26384 14.1585 8.23193 14.318Z" fill="white" stroke="#BD6B00" stroke-width="0.0265865"/>
<path fill-rule="evenodd" clip-rule="evenodd" d="M8.48716 14.5785C8.41804 14.8071 7.96075 14.4402 7.82782 14.2595C8.11495 14.4828 8.51907 14.419 8.48716 14.5785ZM8.06178 13.9936C8.18408 14.0521 8.23193 13.7065 8.16281 13.4565C8.16281 13.7224 7.9129 13.9245 8.05646 13.9883L8.06178 13.9936Z" fill="white" stroke="#BD6B00" stroke-width="0.0265865"/>
<path fill-rule="evenodd" clip-rule="evenodd" d="M8.26916 14.2701C8.41804 14.3126 8.3755 13.9351 8.24257 13.6852C8.22662 13.9351 8.12027 14.1638 8.26916 14.2701ZM8.53502 14.5307C8.69454 14.536 8.5882 14.2063 8.44995 14.0202C8.47122 14.2595 8.39677 14.4988 8.53502 14.5307ZM8.24257 14.6689C8.1894 14.754 8.07242 14.5998 7.87036 14.4828C8.05115 14.536 8.26384 14.5891 8.24257 14.6689ZM8.14686 11.8667C8.30638 11.7497 8.18408 11.537 8.14686 11.335C8.09369 11.5264 7.96607 11.7816 8.14686 11.8667ZM8.14686 12.1485C7.90758 12.1219 7.9448 11.8242 7.93417 11.6327C8.00861 11.8933 8.20003 11.9358 8.14686 12.1538V12.1485ZM8.17876 12.1113C8.3755 12.1007 8.36487 11.8773 8.3755 11.654C8.27448 11.8614 8.16281 11.8933 8.17876 12.1113Z" fill="white" stroke="#BD6B00" stroke-width="0.0265865"/>
<path fill-rule="evenodd" clip-rule="evenodd" d="M8.17343 12.3879C8.01391 12.4039 7.93947 12.2497 7.90756 12.0157C8.05113 12.2337 8.17874 12.1646 8.17343 12.3879ZM8.2266 12.372C8.42334 12.3986 8.38612 12.1699 8.38612 11.9998C8.32231 12.1593 8.16279 12.2124 8.2266 12.372Z" fill="white" stroke="#BD6B00" stroke-width="0.0265865"/>
<path fill-rule="evenodd" clip-rule="evenodd" d="M7.91821 12.2761C7.93416 12.425 8.02988 12.6802 8.18408 12.6217C8.24257 12.441 8.04583 12.4037 7.91821 12.2761Z" fill="white" stroke="#BD6B00" stroke-width="0.0265865"/>
<path fill-rule="evenodd" clip-rule="evenodd" d="M8.2266 12.6377C8.16279 12.5101 8.38612 12.441 8.42866 12.2708C8.45525 12.5154 8.43398 12.675 8.2266 12.6431V12.6377ZM7.59384 11.0851C7.71614 10.9575 7.60979 10.7448 7.57257 10.5427C7.5194 10.7341 7.43964 10.9894 7.59384 11.0851ZM7.59384 11.3297C7.38115 11.3563 7.32798 10.9203 7.30139 10.7288C7.37583 10.9894 7.62043 11.101 7.59384 11.335V11.3297ZM7.63638 11.3297C7.78527 11.2499 7.75336 11.0798 7.7959 10.9575C7.70019 11.1117 7.60448 11.1329 7.63638 11.3297Z" fill="white" stroke="#BD6B00" stroke-width="0.0265865"/>
<path fill-rule="evenodd" clip-rule="evenodd" d="M7.58854 11.6169C7.37053 11.6328 7.23759 11.1489 7.22696 10.9575C7.29608 11.2181 7.62044 11.3563 7.59385 11.6169H7.58854ZM7.63639 11.6062C7.84908 11.5584 7.8225 11.4201 7.79059 11.2021C7.72147 11.4254 7.60449 11.3776 7.63639 11.6062Z" fill="white" stroke="#BD6B00" stroke-width="0.0265865"/>
<path fill-rule="evenodd" clip-rule="evenodd" d="M7.58853 11.8933C7.34394 11.9358 7.35989 11.5423 7.16315 11.2605C7.3333 11.4732 7.6417 11.7391 7.58853 11.8933ZM7.6417 11.8773C7.83313 11.8879 7.8544 11.6061 7.84376 11.4891C7.79591 11.6061 7.5779 11.7125 7.64702 11.8826L7.6417 11.8773Z" fill="white" stroke="#BD6B00" stroke-width="0.0265865"/>
<path fill-rule="evenodd" clip-rule="evenodd" d="M7.20569 11.5903C7.29608 11.8934 7.42901 12.1965 7.58853 12.1752C7.66829 11.9998 7.43433 11.9785 7.20569 11.5903Z" fill="white" stroke="#BD6B00" stroke-width="0.0265865"/>
<path fill-rule="evenodd" clip-rule="evenodd" d="M7.64703 12.1271C7.58322 11.9942 7.80655 11.9304 7.84909 11.7603C7.87567 12.0048 7.8544 12.1644 7.64703 12.1271ZM7.2695 11.9357C7.40243 12.2069 7.46092 12.5206 7.64171 12.4728C7.71084 12.2601 7.43965 12.2175 7.2695 11.9357Z" fill="white" stroke="#BD6B00" stroke-width="0.0265865"/>
<path fill-rule="evenodd" clip-rule="evenodd" d="M7.67893 12.4249C7.59917 12.276 7.82249 12.2282 7.88098 12.0314C7.90757 12.2867 7.88098 12.4728 7.67893 12.4196V12.4249ZM8.06177 10.5905C8.18939 10.6224 8.32764 10.4788 8.27978 10.2608C8.1309 10.2927 8.06709 10.4309 8.06177 10.5905ZM7.64171 10.4788C7.65234 10.5426 7.7321 10.5479 7.70551 10.4575C7.68439 10.3991 7.68439 10.3352 7.70551 10.2767C7.72946 10.197 7.72946 10.1119 7.70551 10.0321C7.68424 9.97897 7.6098 10.0109 7.64171 10.0534C7.67361 10.096 7.67893 10.2023 7.65234 10.2502C7.62753 10.3281 7.62398 10.4044 7.64171 10.4788ZM8.85937 11.3296C8.80619 11.3987 8.70517 11.3508 8.78492 11.2498C8.84873 11.17 8.94444 11.1009 8.94444 11.0158C8.95508 10.9095 9.01357 10.75 9.07206 10.6915C9.13055 10.633 9.19967 10.7128 9.13587 10.7553C9.06674 10.7978 9.01889 10.9893 9.0242 11.0637C9.01889 11.17 8.91786 11.2498 8.85937 11.3296ZM8.69985 11.2073C8.64667 11.2817 8.57223 11.2339 8.61477 11.1169C8.65199 11.0371 8.65731 10.9308 8.69985 10.8723C8.76366 10.7819 8.85937 10.7074 8.91786 10.649C8.98166 10.5958 9.0242 10.649 8.97103 10.7021C8.90585 10.7672 8.84709 10.8385 8.79556 10.9148C8.72112 11.0318 8.75302 11.1275 8.69985 11.2073ZM7.86503 10.8244C7.85971 10.9308 7.94479 10.952 7.93947 10.8032C7.93947 10.6436 7.82249 10.4947 7.8863 10.2555C7.92884 10.1385 7.92884 9.92048 7.90757 9.80882C7.8863 9.69715 7.80122 9.76628 7.83845 9.85667C7.87035 9.96302 7.83313 10.1544 7.80654 10.2555C7.72678 10.5426 7.87035 10.6809 7.85971 10.8244H7.86503ZM8.09368 10.2395C8.08304 10.3405 7.99796 10.3459 8.02455 10.2129C8.04582 10.1101 8.04582 10.0162 8.02455 9.93112C7.99265 9.81945 8.00328 9.62803 8.02455 9.54827C8.05114 9.46319 8.1309 9.51105 8.09899 9.57486C8.0622 9.67544 8.05664 9.78478 8.08304 9.88858C8.11495 9.99492 8.10963 10.1438 8.09368 10.2448V10.2395ZM7.26418 12.2122C7.30672 12.2601 7.37052 12.2282 7.31735 12.1591C7.26418 12.1059 7.28013 12.0953 7.24823 12.0314C7.21632 11.957 7.22164 11.9198 7.18442 11.8719C7.1472 11.8188 7.09934 11.8719 7.13124 11.9092C7.17378 11.9623 7.16315 11.9942 7.18442 12.0421C7.23759 12.1218 7.22164 12.1644 7.26418 12.2122ZM8.34891 13.5203C8.41278 13.5576 8.46714 13.6091 8.50774 13.6709C8.54833 13.7328 8.57405 13.8031 8.58287 13.8766C8.58843 14.009 8.62484 14.1382 8.68921 14.2541C8.58287 14.2275 8.52969 14.0573 8.51374 13.8925C8.49779 13.7224 8.4074 13.6532 8.35422 13.5203H8.34891ZM8.62009 13.834C8.71048 13.9988 8.83278 14.0627 8.84342 14.185C8.85405 14.3285 8.86468 14.3338 8.90191 14.4721C8.79556 14.4455 8.76897 14.4349 8.74239 14.2222C8.72643 14.0733 8.60414 13.9723 8.62009 13.834Z" fill="white" stroke="#BD6B00" stroke-width="0.0265865"/>
<path fill-rule="evenodd" clip-rule="evenodd" d="M11.417 15.3656C11.4702 15.4613 11.5233 15.6048 11.6297 15.5783C11.6297 15.5091 11.518 15.456 11.417 15.3656ZM11.5765 15.3975C11.7733 15.4825 11.9487 15.4613 11.9753 15.5889C11.7839 15.6102 11.7094 15.5357 11.5712 15.3975H11.5765ZM10.7204 14.7222C10.8526 14.8249 10.9462 14.9691 10.9863 15.1316C11.0292 15.2786 11.0937 15.4184 11.1777 15.5464C11.0394 15.4534 10.9394 15.3137 10.8959 15.1529C10.8587 14.9933 10.8108 14.8711 10.7204 14.7275V14.7222ZM10.8853 14.7222C11.0341 14.8391 11.1724 14.9774 11.2149 15.1422C11.2575 15.2964 11.2841 15.4134 11.3851 15.5676C11.2256 15.4666 11.1671 15.3177 11.1192 15.1529C11.082 14.9933 10.9863 14.8764 10.8853 14.7275V14.7222ZM11.3745 15.1103C11.3712 15.0969 11.3732 15.0828 11.3802 15.0709C11.3871 15.059 11.3984 15.0503 11.4117 15.0465L11.5499 15.004C11.6031 14.988 11.635 15.0253 11.635 15.0518V15.1582C11.635 15.1901 11.6226 15.206 11.5978 15.206C11.5552 15.206 11.5127 15.2184 11.4702 15.2433C11.4347 15.261 11.4081 15.2521 11.3904 15.2167L11.3745 15.1103ZM11.9381 15.1103C11.9381 15.0749 11.9275 15.0536 11.9062 15.0465C11.866 15.029 11.8222 15.0217 11.7786 15.0253C11.7325 15.0253 11.713 15.0359 11.7201 15.0572V15.1688C11.7201 15.2114 11.7201 15.2114 11.7414 15.222C11.7874 15.2184 11.8317 15.2291 11.8743 15.2539C11.9062 15.2681 11.9257 15.2574 11.9328 15.222L11.9381 15.1103Z" fill="white"/>
<path fill-rule="evenodd" clip-rule="evenodd" d="M14.2724 11.2819C14.3362 11.1755 14.416 11.4308 14.6871 11.6169C14.8094 11.702 14.8998 11.9306 14.8998 12.0795C14.8963 12.1858 14.8963 12.2886 14.8998 12.3879C14.9052 12.4464 14.9743 12.5899 14.9264 12.6272C14.8094 12.7122 14.6552 12.9143 14.5861 12.9834C14.5223 13.0366 14.4691 12.7016 14.4266 12.558C14.3734 12.3985 14.3947 12.2018 14.2564 12.0582C14.1607 11.9519 13.9161 11.8562 13.9374 11.8136L14.2724 11.2819Z" fill="white" stroke="#BD6B00" stroke-width="0.0265865"/>
<path fill-rule="evenodd" clip-rule="evenodd" d="M14.2884 12.1007C14.3095 12.0505 14.3382 12.0039 14.3734 11.9624C14.4072 11.9202 14.4511 11.8873 14.501 11.8667C14.5504 11.853 14.5947 11.8253 14.6287 11.7869C14.6484 11.7637 14.6629 11.7365 14.6712 11.7072V11.6008L14.6871 11.6168C14.8094 11.7019 14.8998 11.9305 14.8998 12.0794V12.2017C14.8928 12.23 14.8821 12.2531 14.8679 12.2708L14.8094 12.3133L14.6659 12.3506C14.612 12.3746 14.5646 12.411 14.5276 12.4569C14.4892 12.4981 14.457 12.5447 14.4319 12.5952L14.4213 12.5526C14.3787 12.4091 14.3841 12.2389 14.283 12.1007H14.2884Z" fill="#BF0000" stroke="#BD6B00" stroke-width="0.0265865"/>
<path d="M14.6712 11.5957C14.6978 11.7712 14.5967 11.835 14.501 11.8669C14.4053 11.9041 14.3256 12.0051 14.2883 12.1008M14.9105 12.1806C14.8679 12.3401 14.7616 12.3189 14.6659 12.3508C14.5702 12.3827 14.4691 12.5103 14.4266 12.606" stroke="#BD6B00" stroke-width="0.0265865"/>
<path fill-rule="evenodd" clip-rule="evenodd" d="M14.3628 11.1755L14.3096 11.1436L13.3685 12.7334L13.4216 12.7653L14.3628 11.1755Z" fill="white" stroke="#BD6B00" stroke-width="0.0265865"/>
<path fill-rule="evenodd" clip-rule="evenodd" d="M14.2618 11.1117C14.2618 11.1399 14.273 11.167 14.2929 11.1869C14.3129 11.2069 14.3399 11.2181 14.3681 11.2181C14.3963 11.2181 14.4234 11.2069 14.4433 11.1869C14.4633 11.167 14.4745 11.1399 14.4745 11.1117C14.4745 11.0835 14.4633 11.0565 14.4433 11.0365C14.4234 11.0166 14.3963 11.0054 14.3681 11.0054C14.3399 11.0054 14.3129 11.0166 14.2929 11.0365C14.273 11.0565 14.2618 11.0835 14.2618 11.1117ZM13.4535 9.83557H13.0707V9.92064H13.4535V9.83557ZM13.4535 10.0004H13.0707V10.7342H13.4535V10.0004ZM13.4748 9.73454H13.0494C13.0388 9.59097 13.1824 9.43677 13.2621 9.43677C13.3472 9.44208 13.4801 9.59629 13.4748 9.73454Z" fill="white" stroke="#BD6B00" stroke-width="0.0265865"/>
<path fill-rule="evenodd" clip-rule="evenodd" d="M12.3954 9.64935C12.4752 9.68125 12.539 9.77164 12.5762 9.87799C12.6134 9.98434 12.6294 10.1066 12.6081 10.2023C12.6045 10.2378 12.5957 10.2644 12.5815 10.2821C12.5709 10.2998 12.5602 10.3087 12.5496 10.3087C12.5319 10.3087 12.5195 10.3034 12.5124 10.2927L12.5017 10.2502C12.5088 10.1439 12.5035 10.0481 12.4858 9.96307C12.4609 9.86915 12.4046 9.78659 12.3263 9.72911C12.3121 9.71847 12.3032 9.70606 12.2997 9.69188L12.3156 9.65466C12.3405 9.63694 12.367 9.63517 12.3954 9.64935ZM12.3848 9.67061C12.3635 9.66352 12.3458 9.6653 12.3316 9.67593L12.3263 9.68657C12.3263 9.69011 12.3316 9.6972 12.3422 9.70784C12.4246 9.7671 12.483 9.85385 12.5071 9.95243C12.5288 10.0501 12.5342 10.1507 12.523 10.2502L12.5336 10.2821C12.5336 10.2821 12.5336 10.2874 12.5443 10.2821L12.5656 10.2662L12.5868 10.2023C12.601 10.0995 12.5886 9.9932 12.5496 9.88331C12.5106 9.78051 12.4574 9.70961 12.3901 9.67061H12.3848Z" fill="#BD6B00"/>
<path fill-rule="evenodd" clip-rule="evenodd" d="M12.2571 9.75037C12.3387 9.79291 12.3918 9.86735 12.4166 9.97369C12.4442 10.0759 12.4497 10.1829 12.4326 10.2874C12.4149 10.3583 12.3865 10.3938 12.3475 10.3938C12.3298 10.4009 12.3156 10.3955 12.305 10.3778C12.2944 10.3601 12.2908 10.3424 12.2944 10.3246C12.3156 10.236 12.3209 10.1456 12.3103 10.0535C12.2961 9.96129 12.2571 9.88862 12.1933 9.83544C12.1756 9.82126 12.1667 9.80708 12.1667 9.79291L12.1774 9.761C12.2022 9.74328 12.2288 9.73973 12.2571 9.75037ZM12.2465 9.77695C12.2252 9.76986 12.2075 9.76986 12.1933 9.77695L12.188 9.79291L12.204 9.81417C12.2739 9.87374 12.3194 9.95707 12.3316 10.0481C12.3458 10.1474 12.3422 10.2396 12.3209 10.3246V10.3672L12.3475 10.3725C12.3635 10.3725 12.4007 10.3459 12.4113 10.2821C12.4273 10.1917 12.422 10.0747 12.3954 9.97901C12.367 9.87621 12.3174 9.80886 12.2465 9.77695Z" fill="#BD6B00"/>
<path fill-rule="evenodd" clip-rule="evenodd" d="M13.4748 11.3296H13.0494V11.9145H13.4748V11.3296ZM13.4482 12.2548H13.0388V12.3824H13.4482V12.2548ZM13.4588 12.4728H13.0335V12.9354H13.4588V12.4728ZM13.4907 13.0311H13.0281V13.2917H13.4907V13.0311ZM13.4323 12.1485H13.06L12.9856 12.0208H13.4961L13.4323 12.1485ZM12.9324 11.6912L12.9271 11.3721H12.6719C12.7821 11.457 12.8713 11.5662 12.9324 11.6912Z" fill="white" stroke="#BD6B00" stroke-width="0.0265865"/>
<path fill-rule="evenodd" clip-rule="evenodd" d="M13.4057 11.8241C13.4057 11.8932 13.3259 11.8666 13.3259 11.8294V11.5316C13.3259 11.4784 13.1983 11.4891 13.1983 11.5263V11.8453C13.1983 11.8985 13.1079 11.8932 13.1132 11.8453V11.4731C13.1132 11.3561 13.4057 11.3615 13.4057 11.4678V11.8241ZM13.4057 12.5313H13.1026V12.9035H13.4057V12.5313Z" stroke="#BD6B00" stroke-width="0.0265865"/>
<path fill-rule="evenodd" clip-rule="evenodd" d="M13.2143 12.691H13.1079V12.7441H13.2143V12.691ZM13.4004 12.691H13.294V12.7441H13.4004V12.691ZM13.294 12.5315H13.2143V12.691H13.294V12.5315ZM13.294 12.7441H13.2143V12.909H13.294V12.7441ZM14.9796 8.75617C14.9583 9.04863 15.054 9.21346 15.2082 9.18688C15.2508 9.02736 15.1551 8.91569 14.9796 8.75617ZM15.3252 9.4102C15.4635 9.34108 15.3624 8.79871 15.3093 8.57007C15.2721 8.86252 15.2029 9.27727 15.3252 9.4102Z" fill="white"/>
<path d="M13.2143 12.691H13.1079V12.7441H13.2143M13.2143 12.691V12.7441M13.2143 12.691V12.5315H13.294V12.691M13.2143 12.691H13.294M13.2143 12.7441H13.294M13.2143 12.7441V12.909H13.294V12.7441M13.294 12.691H13.4004V12.7441H13.294M13.294 12.691V12.7441M14.9796 8.75617C14.9583 9.04863 15.054 9.21346 15.2082 9.18688C15.2508 9.02736 15.1551 8.91569 14.9796 8.75617ZM15.3252 9.4102C15.4635 9.34108 15.3624 8.79871 15.3093 8.57007C15.2721 8.86252 15.2029 9.27727 15.3252 9.4102Z" stroke="#BD6B00" stroke-width="0.0265865"/>
<path fill-rule="evenodd" clip-rule="evenodd" d="M15.2774 9.43676C15.0434 9.51652 14.852 9.26661 14.7935 8.97416C14.9849 9.24002 15.2986 9.24002 15.272 9.43676H15.2774ZM15.4528 9.70795C15.6336 9.66009 15.5273 9.08582 15.4901 8.85718C15.4528 9.09646 15.3252 9.62819 15.4528 9.70795ZM15.389 9.69199C15.3784 9.49525 15.1816 9.54843 15.0434 9.44208C15.07 9.54843 15.1497 9.71858 15.389 9.69199ZM15.6123 9.95786C15.7931 9.90469 15.6868 9.28788 15.6974 9.03265C15.6443 9.25598 15.4741 9.89937 15.6123 9.95786ZM15.5273 9.93127C15.3784 9.97913 15.1816 9.8781 15.1657 9.70263C15.2986 9.79302 15.5007 9.7239 15.5273 9.93127Z" fill="white" stroke="#BD6B00" stroke-width="0.0265865"/>
<path fill-rule="evenodd" clip-rule="evenodd" d="M15.7506 10.2291C15.9207 10.2451 15.8463 9.71868 15.8463 9.22949C15.7825 9.68678 15.607 10.1068 15.7506 10.2291Z" fill="white" stroke="#BD6B00" stroke-width="0.0265865"/>
<path fill-rule="evenodd" clip-rule="evenodd" d="M15.6868 10.2078C15.5698 10.261 15.3624 10.1706 15.304 9.97382C15.5166 10.0642 15.6549 9.97382 15.6868 10.2078ZM14.3256 9.02734C14.3575 9.28789 14.4638 9.43678 14.618 9.41019C14.6606 9.25067 14.5329 9.14432 14.3256 9.02734ZM14.7403 9.68669C14.4798 9.72391 14.3894 9.52717 14.2086 9.26662C14.4585 9.44741 14.751 9.47931 14.7403 9.69201V9.68669Z" fill="white" stroke="#BD6B00" stroke-width="0.0265865"/>
<path fill-rule="evenodd" clip-rule="evenodd" d="M14.8201 9.66002C14.9583 9.48986 14.8201 9.27185 14.7137 9.09106C14.735 9.36225 14.6446 9.51645 14.8201 9.66002ZM14.8733 9.94183C14.8945 9.77168 14.6074 9.73446 14.4798 9.64406C14.5276 9.73977 14.5861 10.0003 14.8786 9.94183H14.8733Z" fill="white" stroke="#BD6B00" stroke-width="0.0265865"/>
<path fill-rule="evenodd" clip-rule="evenodd" d="M14.937 9.94183C15.1338 9.92056 15.054 9.58557 14.9105 9.40479C14.9689 9.66002 14.8041 9.83549 14.937 9.94183Z" fill="white" stroke="#BD6B00" stroke-width="0.0265865"/>
<path fill-rule="evenodd" clip-rule="evenodd" d="M15.0859 10.2237C15.3093 10.1174 15.1657 9.84086 15.0859 9.67603C15.1178 9.89403 14.937 10.0589 15.0859 10.2184V10.2237Z" fill="white" stroke="#BD6B00" stroke-width="0.0265865"/>
<path fill-rule="evenodd" clip-rule="evenodd" d="M15.0434 10.1918C14.9264 10.3513 14.6978 10.1492 14.6499 9.91528C14.8466 10.0801 14.9955 10.0535 15.0434 10.1971V10.1918ZM15.5538 11.2712C15.5751 11.0426 15.405 10.6331 15.5273 10.4098C15.5432 10.3779 15.49 10.2981 15.4528 10.346C15.3996 10.4257 15.3465 10.6491 15.3199 10.564C15.2933 10.4789 15.2933 10.3194 15.2135 10.2875C15.1604 10.2715 15.0912 10.2556 15.1125 10.3407C15.1338 10.4151 15.1763 10.5215 15.1285 10.5268C15.1019 10.5268 15.0221 10.4204 14.953 10.3673C14.8998 10.3247 14.8147 10.3992 14.8998 10.463C15.155 10.6757 15.405 10.7767 15.5538 11.2712ZM16.0164 14.7009C16.0483 14.7009 16.0856 14.6849 16.0483 14.7328C15.7453 15.105 15.6602 15.2113 15.2189 15.1581C14.7775 15.0997 14.6712 14.9774 14.3574 14.8019C14.1733 14.7076 13.9598 14.6885 13.7619 14.7487C13.6768 14.7753 13.6237 14.7753 13.6875 14.7115C13.7513 14.6477 13.8204 14.5679 13.9002 14.5094C14.0996 14.3792 14.3403 14.328 14.5755 14.3659C14.8945 14.419 15.1657 14.6264 15.49 14.7062C15.6637 14.7413 15.8427 14.7413 16.0164 14.7062V14.7009ZM13.4748 15.3655C13.4216 15.3761 13.3844 15.4825 13.3525 15.4134C13.3099 15.2911 13.3418 15.2007 13.395 15.206C13.4588 15.2219 13.5599 15.3655 13.4748 15.3655Z" fill="white" stroke="#BD6B00" stroke-width="0.0265865"/>
<path fill-rule="evenodd" clip-rule="evenodd" d="M16.2238 11.0957C16.2876 11.0248 16.2699 10.9912 16.1707 10.9947C16.0962 10.9947 15.9473 11.0479 15.8888 11C15.8357 10.9628 15.8623 10.8033 15.8357 10.7342C15.825 10.6863 15.7985 10.6278 15.7293 10.7235C15.5379 11.0319 15.3039 11.4041 15.1976 11.7657C15.1444 11.9678 15.1976 12.2868 15.3784 12.4995C15.3784 12.3187 15.4422 12.1964 15.522 12.0422C15.6283 11.8455 16.0058 11.2978 16.2238 11.0904V11.0957Z" fill="white"/>
<path fill-rule="evenodd" clip-rule="evenodd" d="M15.4316 12.7122C15.2189 12.7122 15.1816 12.4303 15.1816 12.3506C15.288 12.3719 15.4688 12.5473 15.4316 12.7122ZM13.5971 15.4718C13.4482 15.5037 13.4535 15.1422 13.6077 14.988C13.5386 15.2219 13.7141 15.4346 13.6024 15.4665L13.5971 15.4718ZM13.6609 15.4665C13.6503 15.6367 14.0863 15.4453 14.1926 15.307C13.9374 15.4187 13.6715 15.3283 13.6609 15.4665ZM13.847 15.2219C13.8311 15.3868 14.2192 15.2379 14.3415 15.1103C14.081 15.1953 13.863 15.0837 13.847 15.2166V15.2219ZM13.7779 15.2432C13.6237 15.2804 13.6503 14.9029 13.7991 14.7753C13.7247 15.0252 13.8949 15.206 13.7779 15.2432ZM13.9374 15.0146C13.7832 15.0518 13.8736 14.7274 13.9853 14.5998C13.964 14.8338 14.0384 14.9986 13.9321 15.0146H13.9374ZM14.0172 15.0146C14.0012 15.1847 14.3043 15.0571 14.4213 14.8923C14.166 14.972 14.0331 14.8763 14.0172 15.0146ZM14.0969 14.8816C14.0012 14.8125 14.1022 14.6264 14.2937 14.637C14.2724 14.7487 14.2086 14.9507 14.0969 14.8816ZM13.3525 15.6633C13.3472 15.8334 13.7779 15.7483 13.9161 15.5676C13.6396 15.6207 13.3684 15.525 13.3578 15.6633H13.3525ZM15.0753 15.3549C15.0593 15.525 15.5326 15.3336 15.6496 15.1741C15.3997 15.2591 15.0912 15.2166 15.0753 15.3549ZM14.7882 15.424C14.6871 15.3549 14.8892 15.1741 15.054 15.1315C15.0328 15.2432 14.8945 15.4931 14.7882 15.4293V15.424ZM14.7563 15.5463C14.7456 15.7005 15.2614 15.6154 15.3943 15.4718C14.953 15.5516 14.7722 15.4134 14.7563 15.5463Z" fill="white" stroke="#BD6B00" stroke-width="0.0265865"/>
<path fill-rule="evenodd" clip-rule="evenodd" d="M14.5117 15.6473C14.4585 15.7909 14.953 15.7537 15.1285 15.6739C14.8467 15.6739 14.5542 15.5463 14.5117 15.6473Z" fill="white" stroke="#BD6B00" stroke-width="0.0265865"/>
<path fill-rule="evenodd" clip-rule="evenodd" d="M14.283 15.7537C14.2298 15.8813 14.6871 15.8813 14.9105 15.8068C14.6127 15.8068 14.3362 15.626 14.283 15.7537ZM13.948 15.8228C13.863 15.977 14.3521 15.9876 14.5063 15.9132C14.2298 15.876 14.0172 15.7005 13.948 15.8228ZM14.517 15.5622C14.6712 15.6579 14.6605 15.3708 14.7828 15.1741C14.5914 15.3495 14.4106 15.4718 14.517 15.5622Z" fill="white" stroke="#BD6B00" stroke-width="0.0265865"/>
<path fill-rule="evenodd" clip-rule="evenodd" d="M14.2405 15.6687C14.3681 15.7804 14.4745 15.3869 14.5914 15.1636C14.4 15.3762 14.1235 15.573 14.2405 15.6634V15.6687ZM13.8789 15.775C13.9853 15.9027 14.3043 15.4028 14.4213 15.137C14.2458 15.3443 13.7938 15.6687 13.8789 15.775ZM14.1873 16.1579C14.2405 16.3493 15.0487 15.9771 15.1444 15.7804C14.6765 16.025 14.1767 15.9718 14.1873 16.1526V16.1579ZM16.7768 12.2337C16.7981 12.2071 16.8513 12.2337 16.8407 12.2922C16.8247 12.372 16.7077 12.7814 16.5057 12.9197C16.3621 13.026 15.6017 13.1908 15.2614 13.2653C15.0735 13.3007 14.9158 13.3947 14.7882 13.5471C14.8318 13.3706 14.8851 13.1967 14.9477 13.026C15.0115 12.8665 15.1817 12.6963 15.3624 12.691C15.6868 12.6751 16.1122 12.6485 16.4259 12.5155C16.568 12.4556 16.6911 12.3582 16.7822 12.2337H16.7768Z" fill="white" stroke="#BD6B00" stroke-width="0.0265865"/>
<path fill-rule="evenodd" clip-rule="evenodd" d="M14.8998 13.8555C14.7935 13.9299 14.6818 13.6587 14.8094 13.3982C14.8148 13.6481 15.0115 13.7332 14.8998 13.8555Z" fill="white" stroke="#BD6B00" stroke-width="0.0265865"/>
<path fill-rule="evenodd" clip-rule="evenodd" d="M14.7988 14.1054C14.6552 14.148 14.6127 13.8927 14.7031 13.6907C14.6871 13.9087 14.9317 14.0416 14.7988 14.1054Z" fill="white" stroke="#BD6B00" stroke-width="0.0265865"/>
<path fill-rule="evenodd" clip-rule="evenodd" d="M14.6871 14.3075C14.5489 14.3766 14.501 14.116 14.5967 13.9299C14.5861 14.1692 14.7935 14.2437 14.6871 14.3021V14.3075Z" fill="white" stroke="#BD6B00" stroke-width="0.0265865"/>
<path fill-rule="evenodd" clip-rule="evenodd" d="M14.7456 14.3233C14.7988 14.4828 15.1178 14.1797 15.171 14.0149C14.9743 14.2116 14.7084 14.185 14.7456 14.318V14.3233Z" fill="white" stroke="#BD6B00" stroke-width="0.0265865"/>
<path fill-rule="evenodd" clip-rule="evenodd" d="M14.8892 14.0734C14.953 14.233 15.3518 13.8076 15.4422 13.6108C15.2455 13.8076 14.8467 13.9565 14.8892 14.0681V14.0734Z" fill="white" stroke="#BD6B00" stroke-width="0.0265865"/>
<path fill-rule="evenodd" clip-rule="evenodd" d="M14.9689 13.8236C15.0327 14.0097 15.4634 13.5152 15.5911 13.3397C15.3784 13.5311 14.9211 13.6906 14.9689 13.8236ZM14.9849 13.6428C14.8254 13.6109 14.9902 13.4833 15.1816 13.2759C15.1869 13.4939 15.155 13.6481 14.9849 13.6428Z" fill="white" stroke="#BD6B00" stroke-width="0.0265865"/>
<path fill-rule="evenodd" clip-rule="evenodd" d="M15.2455 13.5152C15.1763 13.4461 15.304 13.4142 15.4635 13.2334C15.4901 13.3557 15.3146 13.579 15.2401 13.5152H15.2455ZM14.501 14.3234C14.416 14.3766 14.3628 14.2011 14.4638 14.0469C14.4904 14.2171 14.5755 14.2596 14.501 14.3234ZM16.3196 13.244C16.495 13.3504 16.7768 12.925 16.8513 12.7495C16.6971 12.9516 16.2877 13.1324 16.3196 13.244Z" fill="white" stroke="#BD6B00" stroke-width="0.0265865"/>
<path fill-rule="evenodd" clip-rule="evenodd" d="M16.1653 13.4886C16.2664 13.5949 16.5748 13.3024 16.6811 13.1536C16.5216 13.2971 16.1228 13.3131 16.1653 13.4886Z" fill="white" stroke="#BD6B00" stroke-width="0.0265865"/>
<path fill-rule="evenodd" clip-rule="evenodd" d="M16.0005 13.7118C16.0324 13.8607 16.4791 13.5257 16.5854 13.3662C16.394 13.5523 15.9686 13.5364 16.0005 13.7118Z" fill="white" stroke="#BD6B00" stroke-width="0.0265865"/>
<path fill-rule="evenodd" clip-rule="evenodd" d="M16.0696 13.8768C16.1388 14.0098 16.5056 13.6748 16.596 13.5046C16.3674 13.696 16.0111 13.7439 16.0643 13.8768H16.0696ZM16.2557 13.2228C16.1441 13.1005 16.1919 13.042 16.277 12.8506C16.3195 13.0473 16.3887 13.1271 16.2557 13.2228ZM16.1015 13.4514C15.8888 13.4621 16.1015 13.2068 16.1547 12.9888C16.1334 13.2334 16.2079 13.4302 16.1015 13.4514Z" fill="white" stroke="#BD6B00" stroke-width="0.0265865"/>
<path fill-rule="evenodd" clip-rule="evenodd" d="M15.9686 13.6533C15.825 13.6214 15.8622 13.414 15.9792 13.1641C15.9526 13.4352 16.1015 13.5894 15.9686 13.6533ZM16.0218 14.0627C16.0749 14.2222 16.4897 13.85 16.5535 13.7011C16.3408 13.8819 15.9845 13.9404 16.0218 14.0627Z" fill="white" stroke="#BD6B00" stroke-width="0.0265865"/>
<path fill-rule="evenodd" clip-rule="evenodd" d="M15.7719 14.318C15.8303 14.4775 16.2664 14.1478 16.3993 13.967C16.1387 14.1797 15.7399 14.1585 15.7719 14.318Z" fill="white" stroke="#BD6B00" stroke-width="0.0265865"/>
<path fill-rule="evenodd" clip-rule="evenodd" d="M15.5166 14.5785C15.5857 14.8071 16.043 14.4402 16.176 14.2595C15.8888 14.4828 15.4847 14.419 15.5166 14.5785ZM15.942 13.9936C15.8197 14.0521 15.7718 13.7065 15.841 13.4565C15.841 13.7224 16.0909 13.9245 15.9473 13.9883L15.942 13.9936Z" fill="white" stroke="#BD6B00" stroke-width="0.0265865"/>
<path fill-rule="evenodd" clip-rule="evenodd" d="M15.7347 14.2701C15.5858 14.3126 15.6283 13.9351 15.7612 13.6852C15.7772 13.9351 15.8835 14.1638 15.7347 14.2701ZM15.4688 14.5307C15.3093 14.536 15.4156 14.2063 15.5539 14.0202C15.5326 14.2595 15.607 14.4988 15.4688 14.5307ZM15.7612 14.6689C15.8144 14.754 15.9314 14.5998 16.1335 14.4828C15.9527 14.536 15.74 14.5891 15.7612 14.6689ZM15.857 11.8667C15.6974 11.7497 15.8197 11.537 15.857 11.335C15.9101 11.5264 16.0377 11.7816 15.857 11.8667ZM15.857 12.1485C16.0962 12.1219 16.059 11.8242 16.0696 11.6327C15.9952 11.8933 15.8038 11.9358 15.857 12.1538V12.1485ZM15.825 12.1113C15.6283 12.1007 15.6389 11.8773 15.6283 11.654C15.7293 11.8614 15.841 11.8933 15.825 12.1113Z" fill="white" stroke="#BD6B00" stroke-width="0.0265865"/>
<path fill-rule="evenodd" clip-rule="evenodd" d="M15.8304 12.3879C15.9899 12.4039 16.0643 12.2497 16.0962 12.0157C15.9527 12.2337 15.825 12.1646 15.8304 12.3879ZM15.7772 12.372C15.5804 12.3986 15.6177 12.1699 15.6177 11.9998C15.6815 12.1593 15.841 12.2124 15.7772 12.372Z" fill="white" stroke="#BD6B00" stroke-width="0.0265865"/>
<path fill-rule="evenodd" clip-rule="evenodd" d="M16.0856 12.2761C16.0696 12.425 15.9739 12.6802 15.8197 12.6217C15.7612 12.441 15.958 12.4037 16.0856 12.2761Z" fill="white" stroke="#BD6B00" stroke-width="0.0265865"/>
<path fill-rule="evenodd" clip-rule="evenodd" d="M15.7772 12.6377C15.841 12.5101 15.6177 12.441 15.5751 12.2708C15.5485 12.5154 15.5698 12.675 15.7772 12.6431V12.6377ZM16.4099 11.0851C16.2876 10.9575 16.394 10.7448 16.4312 10.5427C16.4844 10.7341 16.5641 10.9894 16.4099 11.0851ZM16.4099 11.3297C16.6226 11.3563 16.6758 10.9203 16.7024 10.7288C16.628 10.9894 16.3834 11.101 16.4099 11.335V11.3297ZM16.3674 11.3297C16.2185 11.2499 16.2504 11.0798 16.2079 10.9575C16.3036 11.1117 16.3993 11.1329 16.3674 11.3297Z" fill="white" stroke="#BD6B00" stroke-width="0.0265865"/>
<path fill-rule="evenodd" clip-rule="evenodd" d="M16.4152 11.6169C16.6333 11.6328 16.7662 11.1489 16.7768 10.9575C16.7077 11.2181 16.3833 11.3563 16.4099 11.6169H16.4152ZM16.3674 11.6062C16.1547 11.5584 16.1813 11.4201 16.2132 11.2021C16.2823 11.4254 16.3993 11.3776 16.3674 11.6062Z" fill="white" stroke="#BD6B00" stroke-width="0.0265865"/>
<path fill-rule="evenodd" clip-rule="evenodd" d="M16.4153 11.8933C16.6598 11.9358 16.6439 11.5423 16.8406 11.2605C16.6705 11.4732 16.3621 11.7391 16.4153 11.8933ZM16.3621 11.8773C16.1707 11.8879 16.1494 11.6061 16.16 11.4891C16.2079 11.6061 16.4259 11.7125 16.3568 11.8826L16.3621 11.8773Z" fill="white" stroke="#BD6B00" stroke-width="0.0265865"/>
<path fill-rule="evenodd" clip-rule="evenodd" d="M16.7981 11.5903C16.7077 11.8934 16.5748 12.1965 16.4153 12.1752C16.3355 11.9998 16.5695 11.9785 16.7981 11.5903Z" fill="white" stroke="#BD6B00" stroke-width="0.0265865"/>
<path fill-rule="evenodd" clip-rule="evenodd" d="M16.3568 12.1271C16.4206 11.9942 16.1972 11.9304 16.1547 11.7603C16.1281 12.0048 16.1494 12.1644 16.3568 12.1271ZM16.7343 11.9357C16.6014 12.2069 16.5429 12.5206 16.3621 12.4728C16.2929 12.2601 16.5641 12.2175 16.7343 11.9357Z" fill="white" stroke="#BD6B00" stroke-width="0.0265865"/>
<path fill-rule="evenodd" clip-rule="evenodd" d="M16.3249 12.4249C16.4046 12.276 16.1813 12.2282 16.1228 12.0314C16.0962 12.2867 16.1228 12.4728 16.3249 12.4196V12.4249ZM15.942 10.5905C15.8144 10.6224 15.6761 10.4788 15.724 10.2608C15.8729 10.2927 15.9367 10.4309 15.942 10.5905ZM16.3621 10.4788C16.3514 10.5426 16.2717 10.5479 16.2983 10.4575C16.3194 10.3991 16.3194 10.3352 16.2983 10.2767C16.2743 10.197 16.2743 10.1119 16.2983 10.0321C16.3195 9.97897 16.394 10.0109 16.3621 10.0534C16.3302 10.096 16.3249 10.2023 16.3514 10.2502C16.3763 10.3281 16.3798 10.4044 16.3621 10.4788ZM15.1444 11.3296C15.1976 11.3987 15.2986 11.3508 15.2189 11.2498C15.1551 11.17 15.0593 11.1009 15.0593 11.0158C15.0487 10.9095 14.9902 10.75 14.9317 10.6915C14.8732 10.633 14.8041 10.7128 14.8679 10.7553C14.937 10.7978 14.9849 10.9893 14.9796 11.0637C14.9849 11.17 15.0859 11.2498 15.1444 11.3296ZM15.3039 11.2073C15.3571 11.2817 15.4316 11.2339 15.389 11.1169C15.3518 11.0371 15.3465 10.9308 15.3039 10.8723C15.2401 10.7819 15.1444 10.7074 15.0859 10.649C15.0221 10.5958 14.9796 10.649 15.0328 10.7021C15.0979 10.7672 15.1567 10.8385 15.2082 10.9148C15.2827 11.0318 15.2508 11.1275 15.3039 11.2073ZM16.1388 10.8244C16.1441 10.9308 16.059 10.952 16.0643 10.8032C16.0643 10.6436 16.1813 10.4947 16.1175 10.2555C16.0749 10.1385 16.0749 9.92048 16.0962 9.80882C16.1175 9.69715 16.2026 9.76628 16.1653 9.85667C16.1334 9.96302 16.1707 10.1544 16.1972 10.2555C16.277 10.5426 16.1334 10.6809 16.1441 10.8244H16.1388ZM15.9101 10.2395C15.9207 10.3405 16.0058 10.3459 15.9792 10.2129C15.958 10.1101 15.958 10.0162 15.9792 9.93112C16.0111 9.81945 16.0005 9.62803 15.9792 9.54827C15.9526 9.46319 15.8729 9.51105 15.9048 9.57486C15.9416 9.67544 15.9471 9.78478 15.9207 9.88858C15.8888 9.99492 15.8942 10.1438 15.9101 10.2448V10.2395ZM16.7396 12.2122C16.6971 12.2601 16.6333 12.2282 16.6864 12.1591C16.7396 12.1059 16.7237 12.0953 16.7556 12.0314C16.7875 11.957 16.7821 11.9198 16.8194 11.8719C16.8566 11.8188 16.9044 11.8719 16.8725 11.9092C16.83 11.9623 16.8406 11.9942 16.8194 12.0421C16.7662 12.1218 16.7821 12.1644 16.7396 12.2122ZM15.6549 13.5203C15.591 13.5576 15.5366 13.6091 15.496 13.6709C15.4555 13.7328 15.4297 13.8031 15.4209 13.8766C15.4154 14.009 15.3789 14.1382 15.3146 14.2541C15.4209 14.2275 15.4741 14.0573 15.49 13.8925C15.506 13.7224 15.5964 13.6532 15.6496 13.5203H15.6549ZM15.3837 13.834C15.2933 13.9988 15.171 14.0627 15.1604 14.185C15.1497 14.3285 15.1391 14.3338 15.1019 14.4721C15.2082 14.4455 15.2348 14.4349 15.2614 14.2222C15.2773 14.0733 15.3996 13.9723 15.3837 13.834Z" fill="white" stroke="#BD6B00" stroke-width="0.0265865"/>
<path fill-rule="evenodd" clip-rule="evenodd" d="M12.5868 15.3656C12.5336 15.4613 12.4804 15.6048 12.3741 15.5783C12.3741 15.5091 12.4858 15.456 12.5868 15.3656ZM12.4273 15.3975C12.2305 15.4825 12.0551 15.4613 12.0285 15.5889C12.2199 15.6102 12.2943 15.5357 12.4326 15.3975H12.4273ZM13.2834 14.7222C13.1512 14.8249 13.0576 14.9691 13.0175 15.1316C12.9746 15.2786 12.9101 15.4184 12.8261 15.5464C12.9644 15.4534 13.0644 15.3137 13.1079 15.1529C13.1451 14.9933 13.193 14.8711 13.2834 14.7275V14.7222ZM13.1185 14.7222C12.9696 14.8391 12.8314 14.9774 12.7888 15.1422C12.7463 15.2964 12.7197 15.4134 12.6187 15.5676C12.7782 15.4666 12.8367 15.3177 12.8846 15.1529C12.9218 14.9933 13.0175 14.8764 13.1185 14.7275V14.7222ZM12.6293 15.1103C12.6326 15.0969 12.6306 15.0828 12.6236 15.0709C12.6167 15.059 12.6054 15.0503 12.5921 15.0465L12.4539 15.004C12.4007 14.988 12.3688 15.0253 12.3688 15.0518V15.1582C12.3688 15.1901 12.3812 15.206 12.406 15.206C12.4485 15.206 12.4911 15.2184 12.5336 15.2433C12.5691 15.261 12.5957 15.2521 12.6134 15.2167L12.6293 15.1103ZM12.0657 15.1103C12.0657 15.0749 12.0763 15.0536 12.0976 15.0465C12.1377 15.029 12.1816 15.0217 12.2252 15.0253C12.2713 15.0253 12.2908 15.0359 12.2837 15.0572V15.1688C12.2837 15.2114 12.2837 15.2114 12.2624 15.222C12.2164 15.2184 12.172 15.2291 12.1295 15.2539C12.0976 15.2681 12.0781 15.2574 12.071 15.222L12.0657 15.1103Z" fill="white"/>
<path fill-rule="evenodd" clip-rule="evenodd" d="M13.5173 16.6044C13.5138 16.6682 13.5315 16.7231 13.5705 16.7692C13.3272 16.6958 13.0652 16.7166 12.8367 16.8277C12.741 16.8703 12.624 16.7745 12.7357 16.6842C12.8952 16.5619 13.2515 16.631 13.5173 16.6044ZM10.4599 16.6044C10.4645 16.6585 10.4572 16.7129 10.4386 16.7639C10.6726 16.6735 10.9225 16.7533 11.1618 16.849C11.3213 16.9181 11.3372 16.7958 11.3106 16.7586C11.2799 16.7154 11.2402 16.6794 11.1944 16.6528C11.1485 16.6262 11.0975 16.6097 11.0448 16.6044H10.4599ZM10.6619 15.4505C10.591 15.4257 10.5201 15.4505 10.4492 15.525C10.2206 15.7483 9.94941 15.9663 9.7314 16.1418C9.65165 16.2109 9.57189 16.3385 9.91219 16.4608C9.92815 16.4715 10.1781 16.5672 10.3376 16.5672C10.4067 16.5672 10.4067 16.6629 10.3908 16.6895C10.3642 16.7426 10.3854 16.7639 10.3323 16.8118C10.2738 16.8649 10.3323 16.9234 10.3854 16.8809C10.5769 16.7107 10.8959 16.8224 11.199 16.9181C11.2734 16.9394 11.401 16.9341 11.401 16.833C11.401 16.732 11.4808 16.6522 11.5287 16.6469C11.6563 16.6682 12.2731 16.6735 12.4592 16.6522C12.5655 16.6363 12.5762 16.8065 12.6347 16.8649C12.6772 16.9128 12.8314 16.9234 12.9431 16.8756C13.1557 16.7799 13.4748 16.7799 13.6077 16.8756C13.6609 16.9128 13.7087 16.8756 13.6768 16.8384C13.6343 16.7852 13.6396 16.7533 13.6184 16.7107C13.5652 16.6044 13.6077 16.5831 13.6609 16.5778C14.2458 16.498 14.4372 16.3013 14.2564 16.1365C14.0225 15.9344 13.7672 15.727 13.5439 15.4878C13.4801 15.424 13.4376 15.3974 13.3153 15.4505C12.8916 15.6419 12.4346 15.7485 11.97 15.7643C11.5198 15.7352 11.0777 15.6309 10.6619 15.4559V15.4505Z" fill="white"/>
<path fill-rule="evenodd" clip-rule="evenodd" d="M13.4163 15.4824L13.3312 15.5037C12.8527 15.6738 12.4166 15.7908 11.9647 15.7908C11.5233 15.7908 11.0607 15.6632 10.6407 15.4931C10.6151 15.4827 10.5865 15.4827 10.5609 15.4931C10.5325 15.5001 10.5095 15.5126 10.4918 15.5303C10.2952 15.7268 10.0856 15.9097 9.86433 16.078C9.82711 16.1045 9.83243 16.1737 9.89092 16.1949C10.3323 16.3545 10.763 16.6469 11.9966 16.6363C13.2461 16.6256 13.6875 16.3385 14.081 16.2056C14.1093 16.1949 14.1324 16.1772 14.1501 16.1524L14.1554 16.1099L14.1235 16.0673C13.8948 15.8812 13.6556 15.7323 13.496 15.5143C13.4783 15.4895 13.4517 15.4806 13.4163 15.4877V15.4824ZM13.4163 15.509C13.4482 15.509 13.4677 15.5143 13.4748 15.525C13.6343 15.7536 13.8842 15.8972 14.1075 16.0833L14.1288 16.1205V16.1418C14.1182 16.1595 14.1004 16.1719 14.0756 16.179C13.6715 16.3172 13.2408 16.6044 12.0019 16.615C10.7683 16.6256 10.3429 16.3332 9.90155 16.1737C9.85901 16.1524 9.86433 16.1099 9.88028 16.0992C10.1072 15.9255 10.3163 15.7412 10.5077 15.5462L10.5662 15.5143H10.63C11.0503 15.6969 11.5014 15.798 11.9593 15.8121C12.422 15.8121 12.8633 15.6951 13.3418 15.5303L13.4216 15.509H13.4163Z" fill="#BD6B00"/>
<path fill-rule="evenodd" clip-rule="evenodd" d="M10.3908 7.45866C10.3908 7.38422 10.4971 7.3789 10.4865 7.47993C10.4705 7.60223 10.7258 7.92127 10.747 8.11801C10.763 8.25094 10.6673 8.3626 10.5769 8.43704C10.5239 8.47193 10.4628 8.49268 10.3995 8.49734C10.3363 8.50199 10.2728 8.49039 10.2153 8.46363C10.1674 8.42109 10.1249 8.28816 10.1621 8.23499C10.1728 8.21904 10.2312 8.43173 10.3589 8.43173C10.5343 8.43173 10.6779 8.29879 10.6779 8.18181C10.6885 7.97976 10.3961 7.66072 10.3908 7.45866ZM10.8959 7.95849C10.9278 7.93722 10.9704 8.02761 10.9384 8.04888C10.9065 8.07015 10.8587 7.97976 10.8959 7.95317V7.95849ZM10.9757 7.77238C10.9597 7.78302 10.9331 7.77238 10.9384 7.76175C10.9896 7.69075 11.0547 7.63103 11.1299 7.58628C11.1511 7.57564 11.183 7.60755 11.1724 7.6235C11.1182 7.68655 11.0511 7.73731 10.9757 7.77238ZM11.6456 7.24065C11.6616 7.20875 11.7573 7.17153 11.7839 7.15026C11.8052 7.12367 11.8158 7.17153 11.8052 7.18748C11.7892 7.2247 11.7041 7.27787 11.6669 7.28319C11.6457 7.27965 11.6386 7.26724 11.6456 7.24597V7.24065ZM11.8743 7.2566C11.9016 7.18553 11.9475 7.12309 12.0072 7.07582C12.0338 7.05986 12.0764 7.07582 12.0657 7.09709C12.0296 7.16742 11.9766 7.2277 11.9115 7.27256C11.8956 7.28851 11.869 7.27256 11.8743 7.2566ZM11.6776 7.40017C11.6669 7.4179 11.6687 7.43208 11.6829 7.44271C11.7183 7.45334 11.7538 7.45334 11.7892 7.44271C11.8211 7.42144 11.8052 7.28851 11.7626 7.35763C11.7307 7.40017 11.7095 7.38954 11.6776 7.40017ZM11.2894 7.69794C11.2203 7.64477 11.3107 7.57032 11.3798 7.6235C11.5234 7.72984 11.1671 8.14459 10.9757 8.33602C10.9384 8.37324 10.9065 8.28284 10.9544 8.23499C11.0927 8.11883 11.2128 7.98261 11.3107 7.83087C11.3319 7.80429 11.3479 7.7458 11.2894 7.69794ZM12.1029 7.347C12.1083 7.29383 12.0179 7.347 12.0179 7.27787C12.0179 7.24065 12.1189 7.21407 12.1614 7.2566C12.2306 7.33105 12.1774 7.45334 12.0551 7.46398C11.9594 7.46398 11.7892 7.60755 11.8158 7.63413C11.8424 7.67135 12.1029 7.69262 12.2571 7.67135C12.3528 7.6554 12.3316 7.74048 12.2359 7.75111C12.1402 7.76175 12.0657 7.75111 11.9806 7.78302C11.8743 7.8096 11.8318 7.94254 11.7733 7.99571C11.7626 8.00634 11.7307 7.95317 11.7414 7.9319C11.7839 7.86809 11.8477 7.77238 11.9221 7.74048C11.9647 7.72453 11.7945 7.71921 11.7414 7.70326C11.6988 7.69262 11.7095 7.63413 11.7254 7.60223C11.7467 7.55969 11.9062 7.39485 11.9753 7.40017C12.0338 7.40017 12.0976 7.38422 12.1029 7.347ZM12.3688 7.35763C12.3972 7.32573 12.4237 7.29383 12.4486 7.26192C12.4645 7.24597 12.4964 7.26192 12.4911 7.30446C12.4858 7.34168 12.4379 7.36827 12.4113 7.39485C12.3848 7.41081 12.3582 7.37358 12.3741 7.35763H12.3688ZM12.7144 7.23534C12.7623 7.23534 12.7676 7.32041 12.7251 7.33105C12.6932 7.34168 12.6719 7.24065 12.7144 7.23534ZM12.6028 7.5012C12.6028 7.58096 12.64 7.57564 12.7091 7.57032C12.7782 7.56501 12.8367 7.57033 12.8367 7.50652C12.8367 7.43739 12.7995 7.37359 12.7836 7.42144C12.7782 7.46398 12.7676 7.53842 12.741 7.50652C12.7197 7.47993 12.7304 7.47461 12.6878 7.51715C12.6613 7.54374 12.6613 7.50652 12.6453 7.48525C12.6347 7.4693 12.6028 7.49588 12.6028 7.50652V7.5012ZM12.1136 7.88405C12.0976 7.98507 12.1136 8.12332 12.1614 8.12332C12.2252 8.12332 12.3528 7.91063 12.4167 7.79365C12.4539 7.72984 12.5124 7.71921 12.4858 7.78833C12.4486 7.88936 12.4539 8.10737 12.4858 8.17118C12.5071 8.20308 12.6453 8.13928 12.6666 8.09142C12.7091 8.00103 12.6719 7.83619 12.6878 7.73516C12.6932 7.67135 12.757 7.6554 12.7516 7.71921L12.7463 8.11801C12.7463 8.17118 12.9005 8.24562 12.9218 8.0861C12.9324 7.99039 12.9856 7.88936 12.9218 7.78302C12.8793 7.71389 12.9803 7.71921 13.0335 7.81492C13.0707 7.87873 13.0016 7.98507 13.0069 8.06483C13.0069 8.19245 12.9112 8.26689 12.842 8.26689C12.7782 8.26689 12.7357 8.18713 12.6825 8.18713C12.6293 8.18713 12.5655 8.27753 12.523 8.27221C12.3316 8.26157 12.4326 7.99039 12.3741 7.98507C12.3103 7.98507 12.2412 8.25094 12.1614 8.24562C12.087 8.23499 12.0019 8.0223 12.0391 7.93722C12.0657 7.85214 12.1189 7.83087 12.1136 7.88405ZM13.0122 7.45866C12.9218 7.40549 13.0122 7.26192 13.0601 7.30978C13.1451 7.41612 13.2302 7.6554 13.294 7.67667C13.3312 7.68731 13.3259 7.49588 13.3525 7.41081C13.3738 7.34168 13.4482 7.36295 13.4376 7.44803C13.4323 7.47461 13.3312 7.78833 13.3419 7.79897C13.4127 7.93166 13.4714 8.07047 13.5173 8.21372C13.5333 8.27753 13.4588 8.23499 13.4482 8.22435C13.4004 8.14991 13.3206 7.87873 13.3206 7.89468L13.2302 8.30411C13.2196 8.35729 13.1398 8.34665 13.1611 8.25094C13.177 8.1765 13.2834 7.8096 13.2781 7.79365C13.2175 7.66233 13.1263 7.54745 13.0122 7.45866Z" fill="white"/>
<path fill-rule="evenodd" clip-rule="evenodd" d="M13.1717 8.34132C13.1504 8.34132 13.1079 8.39449 13.2355 8.42108C13.4004 8.45298 13.5865 8.39449 13.6396 8.22966C13.7088 8.03292 13.746 7.84681 13.7832 7.77769C13.8257 7.69793 13.8789 7.70324 13.8364 7.58626C13.8098 7.49587 13.7566 7.52246 13.746 7.57031C13.7194 7.69261 13.6077 8.10204 13.5705 8.17117C13.5067 8.30587 13.3738 8.36259 13.1717 8.34132Z" fill="white"/>
<path fill-rule="evenodd" clip-rule="evenodd" d="M13.512 7.6927C13.4907 7.65548 13.4482 7.6927 13.4588 7.72992C13.4587 7.73789 13.4603 7.7458 13.4636 7.75306C13.4669 7.76032 13.4718 7.76674 13.478 7.77184C13.4841 7.77695 13.4913 7.78061 13.499 7.78256C13.5068 7.78451 13.5148 7.78469 13.5226 7.78309C13.5599 7.78309 13.6396 7.78841 13.6396 7.72992C13.6396 7.68738 13.6024 7.65016 13.5811 7.69801C13.5528 7.73701 13.5297 7.73701 13.512 7.69801V7.6927ZM13.5492 7.53318C13.5386 7.54381 13.5492 7.59167 13.5652 7.58635C13.6263 7.58679 13.6865 7.57218 13.7406 7.54381C13.7513 7.53318 13.746 7.50659 13.73 7.50659C13.6768 7.50659 13.5918 7.50659 13.5492 7.53318ZM14.0171 7.65548C14.0597 7.59167 14.166 7.58635 14.1235 7.67675L13.7885 8.33077C13.746 8.40522 13.7141 8.36799 13.746 8.3095C13.7832 8.23506 14.0065 7.67143 14.0171 7.65548Z" fill="white"/>
<path fill-rule="evenodd" clip-rule="evenodd" d="M13.6077 8.43692C13.5971 8.39439 13.5279 8.33058 13.5386 8.44756C13.5492 8.64962 13.831 8.58581 13.9108 8.51668C13.9906 8.44756 13.9267 8.74533 14.0278 8.77723C14.0809 8.79318 14.1873 8.71874 14.2405 8.64962C14.384 8.46351 14.4797 8.19233 14.6127 8.01154C14.6659 7.9371 14.5861 7.88392 14.5595 7.94241C14.4319 8.14447 14.283 8.55922 14.1182 8.66557C13.9852 8.75064 14.0278 8.55922 14.0225 8.49541C14.0171 8.45288 13.964 8.38907 13.8948 8.44756C13.8382 8.49008 13.7689 8.51253 13.6981 8.51137C13.6609 8.51137 13.6237 8.51137 13.6077 8.43692Z" fill="white"/>
<path fill-rule="evenodd" clip-rule="evenodd" d="M14.1076 8.0647C14.1076 8.04875 14.0491 8.04343 14.0544 8.10192C14.0544 8.14446 14.1076 8.15509 14.1129 8.15509C14.1926 8.09129 14.0969 8.12319 14.1076 8.05938V8.0647ZM13.9853 8.29866C13.9693 8.29866 13.9533 8.35183 13.9959 8.35715L14.2033 8.34652C14.2245 8.34652 14.2352 8.29866 14.182 8.30398C14.1182 8.30398 14.0384 8.28803 13.9853 8.30398V8.29866ZM10.6885 7.41599C10.7151 7.41599 10.7736 7.49043 10.7683 7.51702C10.7683 7.52765 10.7045 7.51702 10.6885 7.50107C10.6726 7.48511 10.6779 7.41599 10.6885 7.41599ZM10.4067 7.96899C10.3535 8.00089 10.4173 8.05938 10.4599 8.0328C10.6088 7.93177 10.8321 7.83074 10.8853 7.634C10.9012 7.57019 10.9597 7.46916 11.0182 7.44789C11.0714 7.42131 11.1564 7.54892 11.2096 7.44789C11.2415 7.39472 11.3532 7.48511 11.3798 7.42662C11.4117 7.3575 11.3957 7.32028 11.3957 7.24584C11.3957 7.2033 11.3585 7.19266 11.3319 7.26179C11.3284 7.29724 11.3266 7.3256 11.3266 7.34686C11.3124 7.36104 11.2947 7.36459 11.2734 7.3575C11.2628 7.34686 11.2734 7.32028 11.2415 7.30433C11.2273 7.30078 11.2132 7.30433 11.199 7.31496C11.1618 7.38409 11.1458 7.44789 11.0873 7.36813C11.0395 7.31496 11.0129 7.2033 10.981 7.35218C10.9703 7.40535 10.8906 7.4798 10.8427 7.4798C10.7842 7.4798 10.8002 7.32028 10.6726 7.34686C10.6034 7.36282 10.6088 7.49043 10.6194 7.53297C10.6354 7.60209 10.8321 7.55424 10.8161 7.59678C10.7842 7.74034 10.5822 7.88391 10.4067 7.96899ZM9.19968 8.67087C9.19437 8.69746 9.22627 8.76127 9.25817 8.76658C9.29008 8.76658 9.31135 8.69746 9.30071 8.67087C9.29008 8.65492 9.205 8.65492 9.19968 8.67087ZM9.37515 8.93142C9.35388 8.91015 9.29008 8.96864 9.34325 9.01118C9.36984 9.03777 9.47618 9.06967 9.50277 9.02181C9.54531 8.95801 9.46555 8.72936 9.50277 8.70278C9.52936 8.67619 9.65165 8.85166 9.71546 8.86229C9.85903 8.88356 9.82181 8.6177 9.98133 8.63897C10.0824 8.6496 10.093 8.52199 10.077 8.43691C10.0664 8.35715 9.93879 8.24549 9.8803 8.19231C9.80586 8.12851 9.76863 8.24549 9.81649 8.27739C9.8803 8.33056 9.99196 8.43159 10.0079 8.4954C10.0132 8.52731 9.93347 8.59111 9.90157 8.57516C9.82712 8.53262 9.76332 8.36247 9.69951 8.32525C9.67824 8.31461 9.62507 8.3412 9.64634 8.39437C9.67824 8.45286 9.80585 8.53794 9.81117 8.60175C9.81649 8.65492 9.758 8.7719 9.71546 8.7719C9.67292 8.7719 9.55594 8.62833 9.51872 8.55921C9.49745 8.53262 9.43896 8.53262 9.42833 8.58048C9.42487 8.67869 9.4338 8.77695 9.45491 8.87293C9.46555 8.95801 9.40706 8.96332 9.37515 8.93142ZM9.16246 8.47413C9.14119 8.4954 9.205 8.53794 9.21563 8.5273C9.2369 8.50604 9.3273 8.40501 9.31135 8.36779C9.29539 8.33588 9.1731 8.26144 9.15183 8.29866C9.11461 8.35715 9.26881 8.38905 9.24222 8.40501L9.16246 8.47413ZM9.38047 8.02748C9.38047 8.02748 9.42301 8.16041 9.45491 8.10192C9.47618 8.0647 9.38047 8.02748 9.38047 8.02748ZM9.44428 8.24017C9.43364 8.24017 9.39111 8.27739 9.41769 8.29334C9.46023 8.31461 9.57189 8.33588 9.54531 8.25612C9.52936 8.20827 9.71546 8.25612 9.66761 8.12851C9.64746 8.08982 9.6159 8.05826 9.57721 8.03811C9.55594 8.03811 9.49745 8.0647 9.53467 8.08597C9.56126 8.0966 9.64102 8.14446 9.61443 8.17636C9.57721 8.20827 9.55594 8.16041 9.5134 8.17105C9.49213 8.17105 9.50809 8.23485 9.49213 8.25081C9.49213 8.26144 9.45491 8.22954 9.44428 8.23485V8.24017ZM9.73673 7.73503C9.70537 7.76335 9.68316 7.80037 9.67292 7.84137C9.67647 7.8591 9.68533 7.86796 9.69951 7.86796C9.73306 7.84382 9.75594 7.8076 9.76332 7.76693C9.76332 7.75098 9.75268 7.72439 9.73673 7.73503ZM9.88561 7.71908C9.84308 7.6659 9.93879 7.58083 9.97601 7.69249C10.0026 7.76161 10.2685 8.11256 10.3216 8.22954C10.3642 8.3093 10.3216 8.3412 10.2738 8.28271C10.1408 8.11256 10.0292 7.89986 9.88561 7.71908ZM10.1621 7.72439C10.21 7.67122 10.3057 7.56487 10.2791 7.5117C10.2525 7.45853 10.1993 7.45853 10.1887 7.47448C10.1355 7.5436 10.2312 7.52765 10.2153 7.54892C10.1869 7.59501 10.1639 7.64109 10.1462 7.68717C10.1408 7.70312 10.1515 7.73503 10.1621 7.72439ZM14.299 7.89455C14.2618 7.86796 14.3309 7.73503 14.3787 7.7882C14.501 7.93177 14.5595 8.40501 14.5967 8.76127C14.5967 8.76127 14.5436 8.80912 14.5436 8.79849C14.5436 8.61238 14.4638 8.0328 14.299 7.89455ZM11.4755 7.43726C11.4329 7.34155 11.534 7.30964 11.5499 7.37345C11.6191 7.68185 11.7892 7.91582 11.9221 8.12319C11.9594 8.187 11.9221 8.22954 11.8317 8.16573C11.7679 8.12319 11.6988 7.95835 11.6722 7.95304C11.6084 7.9424 11.4702 8.2189 11.1884 8.13914C11.1139 8.11787 11.1192 7.89986 11.1139 7.80415C11.1139 7.7563 11.1671 7.75098 11.1671 7.80415C11.1671 7.89455 11.1671 8.08065 11.2787 8.09129C11.3745 8.09129 11.5765 7.96367 11.6191 7.85733C11.6616 7.75098 11.518 7.5436 11.4755 7.43194V7.43726Z" fill="white"/>
<path fill-rule="evenodd" clip-rule="evenodd" d="M14.3734 8.72424C14.3947 8.66044 14.6978 8.14998 14.7403 8.03831C14.7616 7.98514 14.8467 8.13402 14.7616 8.21378C14.6871 8.27759 14.4691 8.63917 14.4266 8.76678C14.4053 8.81996 14.3522 8.79337 14.3734 8.72424Z" fill="white"/>
<path fill-rule="evenodd" clip-rule="evenodd" d="M14.8892 8.24021C14.9424 8.02752 15.0806 8.27212 14.9583 8.3891C14.7775 8.56989 14.7191 8.91551 14.4266 8.96868C14.3522 8.98463 14.2139 8.93146 14.1714 8.89956C14.1554 8.88892 14.182 8.81448 14.2299 8.8517C14.299 8.90488 14.4479 8.92083 14.5276 8.85702C14.7022 8.6883 14.8273 8.47498 14.8892 8.24021ZM11.8583 8.91551C11.8424 8.93146 11.8052 8.93146 11.7999 8.95273C11.7839 9.02717 11.7999 9.06971 11.7839 9.14415C11.768 9.2186 11.7148 9.2186 11.7201 9.16011C11.7201 9.08566 11.7892 8.974 11.7414 8.96868C11.7095 8.96337 11.6882 8.92083 11.7201 8.89956C11.7733 8.86765 11.8158 8.86056 11.8477 8.87829C11.8654 8.88892 11.869 8.90133 11.8583 8.91551Z" fill="white"/>
<path fill-rule="evenodd" clip-rule="evenodd" d="M11.8158 8.80938C11.7414 8.88382 11.6669 8.91041 11.5978 8.99548C11.5659 9.02739 11.5712 9.07524 11.5499 9.1231C11.534 9.17095 11.4755 9.17627 11.4595 9.17096C11.4329 9.14969 11.4383 9.06461 11.4064 9.10715C11.3745 9.14969 11.3585 9.21349 11.316 9.21349C11.2734 9.21349 11.2096 9.13373 11.2468 9.13373C11.3691 9.11778 11.3638 9.02739 11.4064 9.01675C11.4595 9.01144 11.4595 9.09651 11.4968 9.08056C11.518 9.06993 11.534 8.9689 11.5606 8.94231C11.6403 8.85723 11.7041 8.8147 11.7892 8.75089C11.8264 8.71898 11.8583 8.77748 11.8158 8.8147V8.80938ZM12.0976 9.07524C12.0338 9.08588 12.0444 9.16564 12.0657 9.17096C12.0923 9.18691 12.1401 9.19222 12.1561 9.10183C12.1667 9.06461 12.1721 9.28794 12.2518 9.20286C12.305 9.14969 12.4166 9.21349 12.4645 9.14969C12.5017 9.10183 12.5177 9.06993 12.4858 9.00612C12.4751 8.99017 12.4326 8.99548 12.4326 9.04334C12.4326 9.0912 12.406 9.13373 12.3635 9.12842C12.3422 9.1231 12.3741 9.02739 12.3528 9.0008C12.3408 8.99632 12.3276 8.99632 12.3156 9.0008C12.2997 9.02207 12.3316 9.11778 12.2837 9.12842C12.2199 9.13905 12.2518 9.06461 12.2305 9.05397C12.1401 9.01144 12.1348 9.06461 12.0976 9.06993V9.07524ZM12.5762 8.91572C12.624 8.90509 12.6081 8.90509 12.6825 8.8466C12.7091 8.82533 12.7144 8.88914 12.7091 8.91572C12.7091 8.95295 12.6559 8.92636 12.64 8.96358C12.6187 9.01144 12.6293 9.1231 12.6187 9.16564C12.6187 9.18691 12.5762 9.18691 12.5762 9.16564C12.5655 9.11246 12.5815 9.05929 12.5762 8.99017C12.5762 8.9689 12.5496 8.93168 12.5762 8.92104V8.91572ZM12.3103 8.78279C12.3032 8.82888 12.2997 8.86964 12.2997 8.90509C12.2997 8.93168 12.3528 8.91572 12.3528 8.91041C12.3528 8.86787 12.3635 8.80406 12.3528 8.78811C12.3351 8.77748 12.3209 8.7757 12.3103 8.78279Z" fill="white"/>
<path fill-rule="evenodd" clip-rule="evenodd" d="M11.9753 8.28809L11.9009 8.58586L11.7945 8.3838V8.59117L11.5606 8.31467L11.6403 8.61244L11.4276 8.43165L11.5446 8.63371L11.1724 8.39443L11.4064 8.67093L11.1086 8.52205L11.3213 8.70284L10.8427 8.52205L11.3053 8.75069C11.5155 8.65503 11.7445 8.60778 11.9753 8.61244C12.2412 8.61599 12.4627 8.66207 12.64 8.75069L13.1079 8.52205L12.6294 8.70284L12.842 8.52205L12.5496 8.67093L12.7782 8.39443L12.406 8.63371L12.523 8.43165L12.3103 8.60712L12.3901 8.31467L12.1614 8.59117V8.3838L12.0551 8.58586L11.9753 8.28809Z" fill="white"/>
<path d="M11.565 14.7501L11.55 14.8801H11.53L11.525 14.7901L11.5 14.7101L11.475 14.6451L11.425 14.5751L11.465 14.4651C11.4979 14.4996 11.5234 14.5404 11.54 14.5851C11.5579 14.6365 11.5664 14.6907 11.565 14.7451M11.915 14.5351C11.915 14.5684 11.9067 14.5934 11.89 14.6101C11.88 14.6268 11.8583 14.6384 11.825 14.6451L11.845 14.7201V14.8201L11.84 14.8851H11.82L11.815 14.8201L11.805 14.7701L11.785 14.7201L11.75 14.6501L11.7 14.5651L11.73 14.4651L11.78 14.5151C11.7933 14.5251 11.81 14.5301 11.83 14.5301C11.87 14.5301 11.89 14.5084 11.89 14.4651H11.91V14.5351M12.23 14.7751L12.205 14.8801C12.185 14.8801 12.1717 14.8684 12.165 14.8451L12.145 14.7801L12.14 14.6951L12.09 14.7051C12.0666 14.7062 12.0437 14.6991 12.025 14.6851C12.0163 14.6802 12.0093 14.6728 12.0048 14.6639C12.0004 14.655 11.9987 14.645 12 14.6351C12 14.5884 12.0117 14.5501 12.035 14.5201C12.0617 14.4868 12.0867 14.4684 12.11 14.4651C12.1333 14.4651 12.15 14.4718 12.16 14.4851L12.175 14.5301V14.6301C12.175 14.6734 12.18 14.7051 12.19 14.7251C12.19 14.7384 12.2033 14.7551 12.23 14.7751ZM12.13 14.6001C12.13 14.5701 12.1167 14.5568 12.09 14.5601L12.06 14.5651C12.0533 14.5684 12.05 14.5734 12.05 14.5801C12.05 14.5968 12.0667 14.6051 12.1 14.6051L12.13 14.6001ZM12.565 14.7501L12.55 14.8801C12.5233 14.8634 12.5 14.8301 12.48 14.7801L12.415 14.5751L12.325 14.8501L12.285 14.8851V14.7601C12.315 14.7268 12.3317 14.7018 12.335 14.6851L12.375 14.6001L12.4 14.4651H12.42L12.465 14.6001C12.475 14.6334 12.49 14.6601 12.51 14.6801L12.56 14.7501" fill="white"/>
<path d="M13.54 15.97C13.56 15.99 13.5717 16.01 13.575 16.03L13.595 16.11L13.555 16.115L13.505 16.04L13.45 15.98L13.365 15.905L13.265 15.82C13.245 15.81 13.235 15.8017 13.235 15.795L13.22 15.755L13.21 15.675L13.345 15.785L13.47 15.895L13.54 15.97ZM13.065 15.68L13.055 15.78H12.9L12.915 15.68H13.065ZM13.485 16.125L13.105 16.24L13.04 16.14L13.365 16.04L13.33 16L13.285 15.97C13.2868 15.9794 13.2858 15.9891 13.2823 15.998C13.2788 16.0068 13.2727 16.0145 13.265 16.02L13.215 16.05C13.1857 16.0593 13.1543 16.0593 13.125 16.05C13.0997 16.0471 13.0764 16.0346 13.06 16.015C13.0378 15.9826 13.0256 15.9444 13.025 15.905C13.025 15.855 13.04 15.825 13.07 15.815C13.1067 15.805 13.1567 15.8167 13.22 15.85C13.279 15.8773 13.3305 15.9185 13.37 15.97L13.485 16.125ZM13.195 15.925L13.155 15.91H13.125L13.1 15.925V15.955L13.125 15.965H13.155L13.175 15.95L13.195 15.925ZM12.795 15.845L12.77 15.945L12.61 15.93L12.635 15.83L12.795 15.845ZM13.17 16.23L13.085 16.25H13L12.925 16.23C12.9083 16.2567 12.8833 16.2767 12.85 16.29L12.77 16.32L12.71 16.335L12.66 16.235L12.715 16.22L12.78 16.2L12.825 16.175L12.775 16.15H12.73L12.72 16.165H12.695C12.6683 16.125 12.6633 16.0917 12.68 16.065C12.705 16.025 12.725 16.025 12.78 16.015C12.8223 16.0036 12.8664 16.0002 12.91 16.005C12.95 16.0084 12.975 16.0234 12.985 16.05C12.9917 16.06 12.995 16.0717 12.995 16.085L12.975 16.145H13.03L13.115 16.13L13.17 16.23ZM12.77 16.32L12.69 16.335C12.6521 16.3428 12.6127 16.3356 12.58 16.315C12.5407 16.2799 12.5114 16.2351 12.495 16.185L12.455 16.075C12.4475 16.0544 12.4334 16.0369 12.415 16.025L12.37 16L12.4 15.895C12.43 15.9084 12.4533 15.925 12.47 15.945L12.52 16.03L12.545 16.105L12.6 16.215C12.6167 16.2284 12.6333 16.2334 12.65 16.23L12.735 16.22L12.77 16.32ZM12.42 15.945L12.37 16.04L12.22 16.005L12.27 15.91L12.42 15.945ZM12.51 16.365L12.135 16.4L12.115 16.3L12.425 16.265L12.395 16.225L12.345 16.195L12.37 16.095C12.4033 16.115 12.43 16.1367 12.45 16.16C12.4667 16.1867 12.48 16.2217 12.49 16.265L12.51 16.365ZM12.21 16.415L12.1 16.405L12.015 16.38L11.95 16.4H11.765L11.705 16.385C11.6917 16.375 11.6783 16.3584 11.665 16.335C11.6441 16.3572 11.6185 16.3743 11.59 16.385L11.505 16.39H11.42L11.43 16.285H11.515C11.555 16.2884 11.59 16.2817 11.62 16.265C11.6385 16.2581 11.6546 16.2459 11.6661 16.2299C11.6777 16.2139 11.6843 16.1948 11.685 16.175L11.72 16.18L11.715 16.245C11.715 16.2584 11.72 16.27 11.73 16.28C11.7433 16.29 11.76 16.295 11.78 16.295H11.855C11.905 16.295 11.9383 16.2917 11.955 16.285C11.985 16.2784 12.0017 16.26 12.005 16.23L12.01 16.21C12.01 16.21 12.025 16.21 12.035 16.2L12.06 16.19V16.225L12.045 16.28L12.145 16.305C12.1483 16.295 12.1467 16.2834 12.14 16.27L12.125 16.24L12.13 16.225L12.145 16.215L12.195 16.17L12.22 16.22V16.27L12.21 16.415ZM11.645 15.98L11.545 16.045L11.48 16L11.41 16.05L11.315 16L11.405 15.935L11.48 15.975L11.555 15.925L11.645 15.975M11.495 16.385L11.13 16.325L11.17 16.225L11.48 16.275C11.48 16.255 11.4767 16.2384 11.47 16.225L11.445 16.185L11.525 16.1C11.545 16.1267 11.5567 16.1534 11.56 16.18C11.5633 16.2067 11.555 16.2417 11.535 16.285L11.495 16.385ZM11.19 16.335L11.11 16.32C11.0667 16.31 11.0417 16.29 11.035 16.26C11.025 16.23 11.0383 16.1834 11.075 16.12L11.135 16.02C11.1483 15.9967 11.1533 15.9767 11.15 15.96L11.135 15.925L11.245 15.845C11.2583 15.8717 11.2633 15.895 11.26 15.915C11.26 15.9417 11.2483 15.9717 11.225 16.005L11.185 16.075C11.1628 16.1083 11.1475 16.1457 11.14 16.185C11.14 16.205 11.1483 16.2167 11.165 16.22L11.245 16.24L11.19 16.335ZM11 15.935L10.875 15.99L10.785 15.905L10.915 15.855L11 15.935ZM10.95 16.265L10.87 16.335L10.785 16.365L10.665 16.36L10.525 16.325C10.4609 16.3064 10.4024 16.272 10.355 16.225C10.325 16.185 10.325 16.1484 10.355 16.115C10.3831 16.0825 10.417 16.0553 10.455 16.035C10.4917 16.0117 10.555 15.985 10.645 15.955L10.665 15.98L10.525 16.04C10.4983 16.0534 10.4767 16.07 10.46 16.09C10.4433 16.11 10.4467 16.1367 10.47 16.17C10.5611 16.2384 10.6711 16.2769 10.785 16.28C10.845 16.28 10.8833 16.2684 10.9 16.245C10.9133 16.2317 10.9217 16.215 10.925 16.195L10.935 16.115L11.06 16.04L11.055 16.115C11.0449 16.1453 11.0278 16.1728 11.005 16.195L10.95 16.265Z" fill="#BF0000"/>
</g>
</g>
<defs>
<clipPath id="clip0_2214_2949">
<path d="M0 12C0 5.37258 5.37258 0 12 0C18.6274 0 24 5.37258 24 12C24 18.6274 18.6274 24 12 24C5.37258 24 0 18.6274 0 12Z" fill="white"/>
</clipPath>
<clipPath id="clip1_2214_2949">
<rect width="32" height="24" fill="white" transform="translate(-4)"/>
</clipPath>
</defs>
</svg>
