<svg width="24" height="24" viewBox="0 0 24 24" fill="none" xmlns="http://www.w3.org/2000/svg">
<g clip-path="url(#clip0_2214_3608)">
<g clip-path="url(#clip1_2214_3608)">
<path d="M-4 0H28V24H-4V0Z" fill="#244AA5"/>
<path d="M8.65002 11.24C8.65002 11.24 8.71002 11.2 8.73002 11.195C8.75002 11.19 8.83002 11.165 8.83002 11.165C8.83002 11.165 8.88002 11.14 8.90502 11.14C8.93002 11.14 8.98502 11.17 9.00502 11.195C9.02502 11.22 9.10502 11.265 9.10502 11.265C9.10502 11.265 9.16502 11.285 9.18002 11.265C9.19336 11.245 9.21502 11.2333 9.24502 11.23C9.26835 11.2233 9.27836 11.2083 9.27502 11.185C9.27002 11.15 9.28502 11.14 9.30502 11.115C9.33002 11.09 9.37002 11.075 9.37002 11.075C9.37002 11.075 9.43002 11.05 9.43502 11.015C9.44002 10.98 9.50002 10.955 9.53502 10.95C9.57002 10.95 9.53502 10.93 9.62502 10.94C9.71002 10.95 9.72502 10.92 9.72502 10.895C9.73002 10.87 9.72502 10.845 9.78002 10.845C9.83336 10.8583 9.86002 10.8517 9.86002 10.825C9.86002 10.795 9.91002 10.775 9.82502 10.755C9.73502 10.73 9.74502 10.75 9.73502 10.705C9.73502 10.67 9.73502 10.675 9.68002 10.67C9.62502 10.665 9.65002 10.635 9.64502 10.605C9.63836 10.575 9.62835 10.5533 9.61502 10.54C9.60002 10.52 9.57002 10.52 9.57002 10.49C9.57002 10.46 9.56502 10.44 9.53502 10.44C9.50169 10.4433 9.48502 10.435 9.48502 10.415C9.48502 10.3817 9.49836 10.365 9.52502 10.365C9.55836 10.3583 9.57502 10.3383 9.57502 10.305C9.56502 10.275 9.56502 10.21 9.56502 10.21L9.61002 10.16C9.61002 10.16 9.74002 10.055 9.75002 10.035C9.76002 10.015 9.80502 9.99998 9.82502 10.04C9.84502 10.08 9.85502 10.09 9.87502 10.11C9.89002 10.13 9.94002 10.115 9.95002 10.095C9.96002 10.075 9.96502 9.99998 9.99502 9.95998C10.0284 9.92998 10.0467 9.89998 10.05 9.86998C10.0567 9.82665 10.0767 9.80665 10.11 9.80998C10.14 9.80998 10.16 9.76498 10.16 9.73998C10.16 9.71332 10.18 9.69332 10.22 9.67998C10.26 9.67498 10.285 9.64998 10.3 9.68998C10.315 9.72998 10.33 9.72498 10.355 9.73998C10.3884 9.75998 10.4184 9.76498 10.445 9.75498C10.47 9.73498 10.48 9.70498 10.51 9.71998C10.54 9.73665 10.56 9.72498 10.57 9.68498L10.585 9.58998C10.585 9.58998 10.59 9.56498 10.64 9.56498C10.69 9.56498 10.655 9.53498 10.68 9.51498C10.705 9.49498 10.71 9.47498 10.745 9.48498C10.78 9.49498 10.835 9.46998 10.81 9.43498C10.785 9.39998 10.72 9.35498 10.755 9.31498C10.79 9.27498 10.805 9.21498 10.77 9.20498C10.735 9.19998 10.68 9.20998 10.675 9.17498C10.67 9.13498 10.655 9.10498 10.7 9.09998C10.745 9.09498 10.81 9.09498 10.835 9.07498C10.86 9.05498 10.925 9.03998 10.925 8.98498C10.925 8.92998 10.945 8.91998 10.955 8.88498C10.965 8.84998 10.96 8.78498 10.93 8.75498C10.9 8.72498 10.86 8.67498 10.855 8.65498C10.845 8.63165 10.8184 8.60998 10.775 8.58998C10.735 8.57998 10.695 8.56998 10.695 8.53998C10.695 8.50998 10.725 8.54498 10.725 8.45998C10.725 8.37498 10.67 8.35998 10.67 8.35998L10.585 8.30998C10.585 8.30998 10.435 8.26998 10.395 8.26998C10.355 8.26998 10.305 8.22998 10.35 8.19998C10.395 8.16998 10.41 8.12498 10.395 8.08998C10.375 8.05498 10.365 8.02498 10.3 8.00998C10.2334 7.99998 10.2167 7.97665 10.25 7.93998C10.275 7.90498 10.285 7.87498 10.32 7.90498C10.35 7.92998 10.41 7.93998 10.455 7.91998C10.5 7.89998 10.52 7.87998 10.545 7.90498C10.57 7.92998 10.595 7.94498 10.63 7.91498C10.665 7.88498 10.73 7.87498 10.76 7.88998C10.785 7.90998 10.86 7.90498 10.88 7.88998C10.9 7.87498 10.95 7.83998 10.95 7.82498C10.95 7.80998 10.98 7.76498 11.005 7.74998C11.03 7.73498 11.07 7.67998 11.1 7.67998C11.13 7.67998 11.14 7.64498 11.14 7.62998C11.14 7.60498 11.165 7.55998 11.17 7.54498C11.175 7.52998 11.23 7.50498 11.27 7.54498C11.315 7.56998 11.37 7.58498 11.37 7.58498C11.37 7.58498 11.42 7.59498 11.455 7.58498C11.4708 7.57525 11.489 7.57009 11.5075 7.57009C11.5261 7.57009 11.5442 7.57525 11.56 7.58498C11.605 7.61498 11.66 7.61498 11.66 7.61498L11.675 7.54998C11.675 7.52998 11.685 7.48998 11.66 7.47498C11.635 7.45998 11.61 7.43998 11.655 7.40498C11.7 7.36998 11.705 7.37998 11.75 7.37998L11.86 7.38498C11.895 7.38498 11.95 7.41998 11.95 7.44998C11.9534 7.47665 11.97 7.49998 12 7.51998C12.03 7.53498 12.065 7.54998 12.05 7.57998C12.04 7.61332 12.05 7.62665 12.08 7.61998C12.1134 7.61998 12.1284 7.63498 12.125 7.66498C12.1217 7.68832 12.1384 7.70498 12.175 7.71498C12.2084 7.72832 12.225 7.74832 12.225 7.77498C12.225 7.81498 12.215 7.81998 12.225 7.84498L12.275 7.91498C12.275 7.91498 12.34 7.98998 12.255 7.94998C12.175 7.91498 12.155 7.89998 12.13 7.89998L12.08 7.92498L12.015 7.93498C11.985 7.93498 11.955 7.99498 12.005 8.00498C12.0484 8.01165 12.0684 8.03165 12.065 8.06498C12.06 8.11498 12.05 8.08998 12.025 8.11498C12 8.13998 11.985 8.12498 11.945 8.12498C11.905 8.12498 11.895 8.15998 11.895 8.18998C11.895 8.21998 11.91 8.21998 11.925 8.23998C11.945 8.27332 11.9717 8.27665 12.005 8.24998C12.03 8.22498 12.055 8.20498 12.07 8.25498C12.085 8.30498 12.115 8.30498 12.145 8.30498C12.175 8.30832 12.2017 8.30165 12.225 8.28498C12.2584 8.26832 12.28 8.28332 12.29 8.32998C12.3034 8.36332 12.325 8.38498 12.355 8.39498C12.385 8.40498 12.4017 8.42165 12.405 8.44498C12.415 8.47832 12.4334 8.48665 12.46 8.46998C12.4967 8.44665 12.5284 8.44498 12.555 8.46498L12.6 8.52498V8.57998L12.715 8.61998L12.725 8.66998C12.725 8.68998 12.7417 8.69665 12.775 8.68998H12.855C12.855 8.68998 12.895 8.67498 12.895 8.63998C12.895 8.60998 12.9117 8.59665 12.945 8.59998C12.97 8.59998 13.035 8.62498 13.05 8.58998C13.065 8.55498 13.12 8.54998 13.16 8.56498L13.31 8.62498C13.31 8.62498 13.295 8.62498 13.33 8.67998C13.365 8.73498 13.43 8.73498 13.43 8.73498C13.43 8.73498 13.43 8.78498 13.445 8.80498C13.46 8.82498 13.51 8.83498 13.535 8.81498C13.5684 8.78832 13.6034 8.77165 13.64 8.76498C13.695 8.75498 13.7 8.76498 13.7 8.74498C13.7 8.72498 13.665 8.70998 13.665 8.67498C13.665 8.63998 13.7 8.64498 13.705 8.60998C13.71 8.57998 13.745 8.60998 13.77 8.62998C13.795 8.64998 13.82 8.66998 13.82 8.68998C13.82 8.71498 13.87 8.78998 13.895 8.79998C13.92 8.80998 14 8.81498 14.025 8.78998C14.05 8.76498 14.105 8.74998 14.1 8.81498C14.095 8.87998 14.08 8.88498 14.12 8.90498C14.16 8.92498 14.17 9.00498 14.135 9.02498C14.1 9.04498 14.085 9.04998 14.085 9.08498C14.085 9.11998 14.075 9.16498 14.105 9.18498C14.1384 9.20832 14.155 9.22832 14.155 9.24498C14.155 9.26998 14.185 9.36498 14.185 9.36498C14.185 9.36498 14.205 9.45998 14.195 9.47998C14.195 9.50498 14.18 9.53998 14.23 9.53498C14.2767 9.52498 14.2984 9.53665 14.295 9.56998C14.29 9.61998 14.315 9.62998 14.285 9.64498C14.255 9.65998 14.235 9.71498 14.265 9.72498C14.295 9.73498 14.315 9.75165 14.325 9.77498C14.33 9.79498 14.375 9.83498 14.405 9.80998C14.435 9.78498 14.44 9.77998 14.465 9.77498C14.49 9.76998 14.505 9.75498 14.48 9.72498C14.4567 9.69832 14.455 9.67498 14.475 9.65498C14.5 9.63998 14.51 9.58998 14.51 9.58998C14.51 9.58998 14.545 9.53998 14.585 9.58998C14.625 9.63998 14.635 9.61998 14.66 9.61998C14.685 9.61998 14.7 9.64498 14.7 9.66998C14.7 9.69498 14.76 9.69498 14.76 9.73498L14.77 9.88498C14.77 9.88498 14.77 9.93998 14.805 9.95998C14.8384 9.97998 14.8417 9.99665 14.815 10.01C14.805 10.0433 14.8017 10.0767 14.805 10.11C14.81 10.16 14.815 10.135 14.79 10.16C14.7567 10.1833 14.7484 10.21 14.765 10.24C14.78 10.27 14.775 10.29 14.82 10.33C14.87 10.365 14.865 10.38 14.865 10.41C14.865 10.435 14.91 10.475 14.91 10.5C14.91 10.525 14.945 10.56 14.975 10.565C15.005 10.57 15.035 10.615 15.035 10.645L15.04 10.74C15.04 10.74 15.04 10.755 15.07 10.755C15.1 10.755 15.13 10.795 15.14 10.755C15.15 10.705 15.19 10.705 15.21 10.69C15.23 10.675 15.28 10.66 15.305 10.675C15.33 10.69 15.355 10.69 15.38 10.69L15.51 10.695C15.51 10.695 15.54 10.695 15.56 10.735C15.575 10.775 15.625 10.825 15.6 10.845C15.575 10.865 15.57 10.91 15.6 10.91C15.63 10.91 15.675 10.91 15.675 10.935C15.6684 10.9683 15.68 10.98 15.71 10.97C15.7367 10.9533 15.755 10.9533 15.765 10.97C15.775 10.9867 15.7967 10.9983 15.83 11.005C15.8567 11.0183 15.8767 11.0133 15.89 10.99C15.905 10.97 15.975 10.95 15.975 10.95C15.975 10.95 16.065 10.925 16.1 10.935L16.185 10.97C16.185 10.97 16.205 11.02 16.195 11.055C16.185 11.09 16.17 11.08 16.185 11.13C16.2 11.18 16.17 11.18 16.15 11.18C16.12 11.1633 16.1034 11.175 16.1 11.215C16.1 11.255 16.08 11.265 16.08 11.305C16.08 11.345 16.08 11.335 16.055 11.355C16.0284 11.375 16.03 11.3917 16.06 11.405C16.095 11.405 16.085 11.445 16.085 11.465L16.08 11.535C16.08 11.535 16.08 11.56 16.045 11.56C16.01 11.56 15.97 11.56 15.965 11.585C15.96 11.61 15.915 11.65 15.95 11.68C15.9834 11.7033 15.985 11.72 15.955 11.73C15.935 11.745 15.915 11.795 15.965 11.81C16.005 11.8267 16.0084 11.845 15.975 11.865C15.945 11.885 15.89 11.905 15.89 11.935C15.89 11.965 15.875 11.965 15.84 11.97C15.8 11.98 15.7967 12.0133 15.83 12.07C15.87 12.125 15.88 12.12 15.91 12.12C15.94 12.12 15.94 12.07 15.94 12.07L16.065 12.08C16.0984 12.08 16.13 12.075 16.16 12.065C16.185 12.045 16.245 12.02 16.245 12.065C16.245 12.11 16.26 12.115 16.285 12.13C16.315 12.155 16.32 12.135 16.345 12.17C16.37 12.2 16.375 12.17 16.395 12.135C16.41 12.1 16.445 12.065 16.475 12.105C16.5 12.15 16.5 12.135 16.535 12.135C16.57 12.135 16.585 12.155 16.585 12.18C16.585 12.205 16.615 12.205 16.66 12.2C16.705 12.195 16.705 12.225 16.72 12.25C16.735 12.275 16.745 12.27 16.77 12.27C16.7934 12.2733 16.8134 12.2667 16.83 12.25C16.85 12.23 16.87 12.2 16.895 12.235C16.92 12.27 16.965 12.26 16.975 12.225C16.99 12.185 17.04 12.155 17.07 12.195C17.1 12.24 17.12 12.24 17.15 12.245C17.1834 12.2383 17.2117 12.2483 17.235 12.275C17.255 12.305 17.31 12.345 17.27 12.375C17.23 12.405 17.185 12.45 17.22 12.465C17.2514 12.4726 17.2794 12.4901 17.3 12.515C17.325 12.535 17.4 12.55 17.435 12.555C17.47 12.555 17.495 12.565 17.535 12.53C17.575 12.495 17.62 12.5 17.615 12.545C17.61 12.59 17.63 12.635 17.63 12.635C17.63 12.635 17.66 12.705 17.66 12.73C17.66 12.755 17.655 12.76 17.71 12.795C17.76 12.825 17.75 12.845 17.795 12.815C17.8317 12.7883 17.8484 12.7633 17.845 12.74V12.655C17.845 12.655 17.905 12.645 17.925 12.63C17.95 12.61 18.04 12.565 18.065 12.585C18.09 12.605 18.115 12.6 18.14 12.59C18.1734 12.5833 18.205 12.58 18.235 12.58C18.255 12.58 18.295 12.585 18.345 12.55C18.39 12.51 18.39 12.52 18.42 12.55C18.4434 12.5767 18.4467 12.6033 18.43 12.63C18.41 12.65 18.43 12.695 18.47 12.695C18.51 12.695 18.52 12.72 18.52 12.745L18.535 12.83C18.535 12.85 18.535 12.865 18.605 12.88C18.665 12.895 18.655 12.93 18.665 12.96C18.685 12.99 18.6784 13.0067 18.645 13.01C18.595 13.015 18.595 13.025 18.595 13.05C18.585 13.075 18.535 13.085 18.535 13.085L18.485 13.075C18.485 13.075 18.445 13.075 18.43 13.095C18.415 13.115 18.38 13.16 18.4 13.195C18.4234 13.2317 18.4234 13.2583 18.4 13.275C18.38 13.29 18.365 13.37 18.345 13.355C18.32 13.335 18.295 13.355 18.27 13.37C18.245 13.385 18.25 13.455 18.295 13.48C18.3417 13.5167 18.3617 13.5383 18.355 13.545L18.405 13.625C18.405 13.625 18.39 13.64 18.38 13.67C18.365 13.695 18.33 13.75 18.365 13.76C18.4 13.77 18.385 13.83 18.35 13.83C18.315 13.83 18.275 13.81 18.27 13.855C18.265 13.9 18.245 13.885 18.21 13.88C18.175 13.875 18.09 13.855 18.065 13.895C18.04 13.935 18.035 13.955 17.995 13.95C17.955 13.945 17.97 14.015 17.985 14.04L18.035 14.105C18.035 14.105 18.07 14.13 18.07 14.185C18.0667 14.2317 18.05 14.235 18.02 14.195C18 14.16 17.955 14.165 17.95 14.205C17.945 14.245 17.935 14.315 17.9 14.315C17.86 14.315 17.8334 14.325 17.82 14.345C17.805 14.365 17.775 14.405 17.775 14.425C17.775 14.445 17.77 14.47 17.74 14.475C17.71 14.48 17.705 14.535 17.705 14.535C17.705 14.535 17.635 14.55 17.63 14.575C17.625 14.6 17.635 14.645 17.58 14.65C17.5576 14.6526 17.5361 14.6603 17.517 14.6724C17.498 14.6845 17.4819 14.7008 17.47 14.72C17.4467 14.7433 17.4467 14.7683 17.47 14.795C17.505 14.835 17.51 14.905 17.54 14.92C17.57 14.93 17.585 14.9517 17.585 14.985C17.58 15.03 17.545 15.06 17.59 15.06C17.6434 15.0567 17.6634 15.0733 17.65 15.11C17.63 15.145 17.63 15.15 17.6 15.165C17.56 15.185 17.545 15.185 17.545 15.225C17.545 15.265 17.555 15.27 17.525 15.285C17.495 15.3 17.495 15.32 17.495 15.355C17.495 15.39 17.485 15.375 17.45 15.41C17.41 15.4433 17.3734 15.4533 17.34 15.44C17.29 15.42 17.305 15.43 17.3 15.395C17.295 15.36 17.245 15.365 17.215 15.37C17.185 15.375 17.145 15.405 17.145 15.405C17.145 15.405 17.095 15.44 17.115 15.465C17.135 15.49 17.125 15.535 17.085 15.53C17.045 15.525 16.955 15.57 16.925 15.525C16.895 15.48 16.815 15.445 16.8 15.51C16.79 15.57 16.835 15.565 16.83 15.63C16.825 15.695 16.815 15.695 16.79 15.715C16.7734 15.735 16.7634 15.7567 16.76 15.78C16.76 15.805 16.75 15.865 16.79 15.885C16.83 15.905 16.85 15.965 16.85 16C16.8434 16.0367 16.8567 16.0583 16.89 16.065C16.94 16.0717 16.9667 16.0567 16.97 16.02C16.975 15.985 17.055 15.96 17.065 16.035C17.0584 16.105 17.07 16.1533 17.1 16.18C17.125 16.21 17.15 16.255 17.175 16.27C17.2 16.285 17.235 16.42 17.235 16.42C17.18 16.435 17.165 16.51 17.13 16.52C17.11 16.53 17.085 16.52 17.065 16.535C17.0617 16.555 17.0517 16.5683 17.035 16.575C16.99 16.595 17 16.53 16.945 16.555C16.9 16.575 16.895 16.63 16.83 16.605C16.795 16.595 16.775 16.455 16.765 16.425L16.71 16.335C16.67 16.275 16.595 16.335 16.57 16.315C16.53 16.29 16.545 16.245 16.485 16.24C16.365 16.23 16.45 16.315 16.4 16.33C16.3 16.365 16.3 16.24 16.23 16.3C16.205 16.32 16.28 16.335 16.26 16.37C16.245 16.4 16.175 16.45 16.175 16.485C16.185 16.535 16.235 16.55 16.25 16.585C16.3 16.7 16.225 16.775 16.115 16.685C16.055 16.64 16.04 16.55 15.95 16.56C15.93 16.5667 15.9134 16.575 15.9 16.585C15.875 16.585 15.86 16.565 15.835 16.57C15.8 16.585 15.835 16.61 15.825 16.63C15.825 16.63 15.775 16.665 15.775 16.68C15.745 16.71 15.755 16.74 15.715 16.77C15.685 16.795 15.66 16.78 15.625 16.82C15.59 16.855 15.585 16.915 15.54 16.95C15.515 16.97 15.5 16.895 15.47 16.945L15.46 16.965C15.45 16.9783 15.45 16.99 15.46 17C15.52 17.12 15.39 17.16 15.35 17.245C15.335 17.28 15.38 17.31 15.365 17.34L15.29 17.425C15.29 17.435 15.28 17.465 15.27 17.475C15.26 17.485 15.22 17.475 15.22 17.495C15.22 17.515 15.26 17.53 15.27 17.54C15.28 17.55 15.26 17.575 15.27 17.58C15.33 17.645 15.295 17.625 15.325 17.68C15.33 17.69 15.35 17.675 15.36 17.695C15.37 17.715 15.34 17.715 15.35 17.735C15.35 17.745 15.4 17.805 15.4 17.805C15.4 17.825 15.31 17.865 15.29 17.865C15.235 17.865 15.34 17.755 15.25 17.755C15.21 17.755 15.205 17.84 15.2 17.855H15.15C15.09 17.855 15.05 17.925 15.03 17.93C15.01 17.935 14.98 17.92 14.955 17.93C14.935 17.93 14.905 17.955 14.885 17.955C14.8717 17.955 14.86 17.9483 14.85 17.935C14.825 17.92 14.775 17.915 14.75 17.905C14.73 17.905 14.7 17.925 14.69 17.92C14.675 17.91 14.705 17.87 14.66 17.85L14.625 17.765C14.645 17.715 14.6534 17.6633 14.65 17.61C14.64 17.555 14.55 17.51 14.53 17.46C14.515 17.43 14.5 17.34 14.465 17.32C14.4266 17.2911 14.3958 17.2533 14.375 17.21C14.375 17.2 14.39 17.18 14.375 17.16C14.355 17.1467 14.3384 17.13 14.325 17.11C14.32 17.09 14.325 17.02 14.3 17.005C14.275 16.99 14.1 16.965 14.05 16.96C14.03 16.96 14.0134 16.955 14 16.945L13.97 16.91L13.92 16.92C13.9 16.9167 13.8834 16.9167 13.87 16.92C13.815 16.955 13.8 17.005 13.745 17.05C13.69 17.09 13.63 17.09 13.575 17.135C13.54 17.165 13.515 17.24 13.48 17.275C13.465 17.29 13.445 17.275 13.44 17.28C13.4067 17.3133 13.3734 17.3433 13.34 17.37C13.34 17.38 13.3367 17.3883 13.33 17.395L13.265 17.415H13.205C13.18 17.425 13.18 17.455 13.08 17.475L13.055 17.49L13.025 17.515H12.98C12.955 17.515 12.94 17.54 12.92 17.54C12.87 17.55 12.78 17.515 12.74 17.535C12.715 17.54 12.65 17.62 12.625 17.625C12.6117 17.6283 12.595 17.6267 12.575 17.62L12.545 17.73L12.425 17.835C12.415 17.8517 12.4017 17.8683 12.385 17.885C12.3684 17.9017 12.3517 17.91 12.335 17.91C12.305 17.9033 12.2784 17.8967 12.255 17.89C12.215 17.88 12.09 17.875 12.055 17.885C12.01 17.89 12.025 18.005 11.925 18.015L11.76 18.035C11.755 18.035 11.72 18.015 11.685 18.02C11.67 18.025 11.63 18.07 11.63 18.08V18.105L11.64 18.125C11.62 18.15 11.57 18.19 11.555 18.225L11.535 18.245C11.525 18.255 11.455 18.28 11.45 18.29C11.435 18.33 11.5 18.37 11.49 18.385C11.475 18.435 11.405 18.485 11.38 18.535C11.375 18.555 11.405 18.62 11.405 18.64C11.3884 18.71 11.38 18.7783 11.38 18.845L11.39 18.93L11.425 18.955L11.515 19.135C11.53 19.245 11.365 19.205 11.465 19.315C11.4717 19.335 11.485 19.3517 11.505 19.365L11.645 19.48C11.645 19.5 11.545 19.515 11.53 19.53C11.48 19.58 11.445 19.66 11.4 19.71C11.37 19.735 11.35 19.705 11.31 19.775C11.3 19.8 11.31 19.855 11.295 19.875C11.27 19.895 11.255 19.865 11.23 19.875C11.22 19.875 11.215 19.91 11.205 19.915C11.18 19.94 10.945 20.065 10.925 20.05C10.915 20.045 10.9 20.005 10.9 19.995C10.8967 19.975 10.8867 19.9583 10.87 19.945C10.81 19.895 10.72 19.88 10.66 19.945C10.65 19.965 10.6384 19.9817 10.625 19.995L10.525 20.075L10.5 20.1C10.475 20.1 10.42 20.035 10.4 20.015C10.38 19.985 10.3 19.915 10.295 19.88C10.295 19.76 10.2 19.635 10.165 19.52H10.22C10.285 19.475 10.27 19.37 10.385 19.41C10.4 19.39 10.4 19.37 10.425 19.36C10.4384 19.3533 10.45 19.345 10.46 19.335C10.5 19.275 10.545 19.045 10.505 18.985C10.47 18.935 10.43 18.935 10.405 18.85C10.4017 18.8267 10.4017 18.8 10.405 18.77L10.355 18.615C10.3384 18.6017 10.3267 18.59 10.32 18.58L10.31 18.425C10.275 18.315 10.14 18.25 10.135 18.235L10.085 18.15C10.0717 18.12 10.0617 18.0933 10.055 18.07C10.05 18.055 10.025 18.04 10.025 18.025C10.025 17.995 10.105 17.94 10.1 17.89C10.1 17.875 10.05 17.825 10.06 17.8C10.07 17.775 10.12 17.71 10.12 17.675C10.12 17.635 10.04 17.545 10.03 17.505C10.025 17.48 10.06 17.465 10.05 17.45C10.04 17.435 9.96002 17.355 9.95002 17.335C9.93502 17.32 9.97502 17.3 9.95002 17.27C9.92002 17.245 9.94502 17.25 9.93502 17.23C9.92169 17.2067 9.90502 17.1817 9.88502 17.155C9.87502 17.13 9.80502 16.88 9.81002 16.865C9.79336 16.8517 9.77835 16.835 9.76502 16.815L9.74502 16.755C9.74502 16.755 9.66502 16.73 9.65002 16.705C9.64002 16.69 9.63502 16.625 9.61502 16.595C9.60169 16.585 9.59002 16.5783 9.58002 16.575C9.57336 16.565 9.56835 16.5533 9.56502 16.54C9.54002 16.51 9.49502 16.54 9.46502 16.42C9.41835 16.3933 9.37836 16.3633 9.34502 16.33L9.32502 16.31C9.29169 16.3033 9.25836 16.2917 9.22502 16.275C9.21002 16.275 9.13502 16.275 9.12502 16.265L9.10502 16.225C9.06502 16.22 8.99502 16.225 8.96002 16.195C8.93502 16.17 8.93002 16.055 8.88002 16.07H8.86002C8.82502 16.02 8.71502 16.02 8.67002 15.99C8.66002 15.985 8.62002 15.99 8.62002 15.98L8.62502 15.915L8.57002 15.845C8.52502 15.835 8.54002 15.83 8.52002 15.815C8.44502 15.815 8.43502 15.825 8.39002 15.865C8.37669 15.875 8.36002 15.8817 8.34002 15.885C8.31502 15.9 8.31002 15.945 8.27502 15.925L8.24502 15.9C8.22502 15.88 8.21502 15.89 8.20502 15.86C8.14502 15.825 7.98002 15.935 7.94502 15.86C7.91502 15.845 7.89502 15.86 7.87002 15.84C7.86002 15.83 7.90502 15.69 7.78502 15.64L7.86502 15.585C7.87169 15.565 7.87169 15.5483 7.86502 15.535C7.86502 15.51 7.88002 15.465 7.87502 15.45L7.85002 15.4C7.84669 15.3833 7.84336 15.3633 7.84002 15.34L7.80002 15.32C7.76669 15.3 7.73836 15.2767 7.71502 15.25L7.69502 15.225C7.67502 15.21 7.60502 15.185 7.60502 15.155C7.61169 15.1483 7.61836 15.14 7.62502 15.13C7.62502 15.1133 7.63002 15.1 7.64002 15.09C7.67002 15.04 7.74502 15.065 7.73502 14.98C7.73002 14.94 7.70002 14.91 7.69502 14.87C7.68502 14.86 7.67669 14.8483 7.67002 14.835C7.59502 14.83 7.60502 14.755 7.58002 14.735C7.50502 14.685 7.44502 14.715 7.53002 14.615C7.54002 14.58 7.45502 14.525 7.44002 14.51C7.41002 14.48 7.42502 14.415 7.41002 14.385C7.41002 14.37 7.35502 14.34 7.34002 14.32L7.31502 14.27V14.265C7.32836 14.245 7.32836 14.2283 7.31502 14.215C7.31002 14.2 7.28502 14.205 7.28002 14.195C7.21336 14.1417 7.13169 14.1 7.03502 14.07C7.01002 14.06 7.02002 14.04 6.99502 14.03L6.84502 13.97C6.83502 13.97 6.82502 13.915 6.81502 13.895L6.77002 13.845C6.77002 13.795 6.74002 13.795 6.70002 13.765V13.735L6.73002 13.63C6.73502 13.61 6.76002 13.59 6.75502 13.57L6.73502 13.455C6.69502 13.355 6.65002 13.365 6.67502 13.23C6.66836 13.2033 6.67336 13.18 6.69002 13.16L6.70002 13.145L6.76002 13.1C6.78002 13.07 6.79502 13.005 6.82002 12.985L6.91002 12.925C6.92002 12.915 6.93002 12.88 6.92502 12.865C6.90502 12.8583 6.88502 12.855 6.86502 12.855C6.85169 12.8483 6.83336 12.8417 6.81002 12.835C6.80336 12.8283 6.79836 12.82 6.79502 12.81L6.78502 12.8C6.75836 12.7967 6.73502 12.7883 6.71502 12.775C6.68836 12.7683 6.66002 12.76 6.63002 12.75C6.58002 12.725 6.53002 12.65 6.48502 12.64C6.42502 12.625 6.38502 12.645 6.32502 12.65C6.29002 12.65 6.29002 12.63 6.26002 12.62C6.22002 12.605 6.25002 12.64 6.16002 12.61C6.14502 12.6 6.16002 12.57 6.16002 12.56H6.11002C6.04002 12.54 6.06502 12.47 6.04502 12.425C6.04002 12.415 6.00502 12.415 5.99502 12.415C5.98836 12.4117 5.98502 12.4083 5.98502 12.405L5.99502 12.4C6.00502 12.38 5.96002 12.33 5.96002 12.32C5.96502 12.305 6.06002 12.29 6.07002 12.29C6.07002 12.2767 6.06669 12.265 6.06002 12.255C6.06336 12.2283 6.07169 12.2 6.08502 12.17V12.16C6.05502 12.145 6.05002 12.125 6.02502 12.11C6.02836 12.0967 6.03502 12.085 6.04502 12.075C6.09002 11.95 6.16002 12.05 6.22002 11.935C6.23002 11.9217 6.24002 11.9033 6.25002 11.88H6.26002C6.27336 11.8833 6.28669 11.8833 6.30002 11.88C6.31002 11.8733 6.32336 11.8683 6.34002 11.865H6.36502C6.47502 11.845 6.45002 11.805 6.51502 11.76C6.53502 11.745 6.58502 11.74 6.60502 11.73C6.62836 11.75 6.66336 11.7733 6.71002 11.8C6.74502 11.81 6.86002 11.835 6.88002 11.85C6.90502 11.86 6.91002 11.89 6.93002 11.9C6.99502 11.94 6.95502 11.88 7.02002 11.89C7.08502 11.9 7.13502 11.96 7.19502 11.985L7.24502 11.98C7.26002 11.975 7.36002 11.955 7.37002 11.96L7.41002 11.975C7.42502 11.98 7.43502 11.95 7.45002 11.95C7.49002 11.96 7.49002 11.975 7.55002 11.97C7.55002 11.97 7.58002 11.805 7.61002 11.8C7.62502 11.795 7.67002 11.835 7.68002 11.84C7.70002 11.845 7.68002 11.805 7.68002 11.805C7.67002 11.79 7.64002 11.69 7.64502 11.68C7.65169 11.6833 7.66502 11.685 7.68502 11.685C7.71836 11.6783 7.75169 11.6633 7.78502 11.64L7.83502 11.565C7.84002 11.555 7.82502 11.525 7.83502 11.515L7.88002 11.485C7.90002 11.465 7.90002 11.435 7.93002 11.42C8.03002 11.41 8.06502 11.33 8.16002 11.32H8.19002L8.21002 11.35C8.21002 11.355 8.27502 11.395 8.28502 11.39C8.29502 11.3867 8.30336 11.38 8.31002 11.37C8.32502 11.375 8.38002 11.345 8.38502 11.325C8.38169 11.325 8.38002 11.315 8.38002 11.295L8.46002 11.235H8.53002C8.53669 11.2483 8.54502 11.2583 8.55502 11.265H8.61502C8.62502 11.265 8.63002 11.24 8.65002 11.24Z" fill="#D0A650"/>
<path d="M13.595 3.66992L14.4 6.14992L12.29 4.61492H14.9L12.79 6.14992L13.595 3.66992ZM16.735 4.22492L17.535 6.70492L15.43 5.16992H18.035L15.925 6.70492L16.735 4.22492ZM19.73 5.31492L20.53 7.79492L18.425 6.25992H21.03L18.92 7.79992L19.73 5.31992V5.31492ZM10.405 3.66992L9.59999 6.14992L11.71 4.61492H9.09999L11.21 6.14992L10.405 3.66992ZM7.26499 4.22492L6.46499 6.70492L8.56999 5.16992H5.96499L8.07499 6.70492L7.26499 4.22492ZM4.28499 5.31492L5.09499 7.79492L2.98499 6.25992H5.58999L3.47999 7.79492L4.28499 5.31492Z" fill="white"/>
</g>
</g>
<defs>
<clipPath id="clip0_2214_3608">
<path d="M0 12C0 5.37258 5.37258 0 12 0C18.6274 0 24 5.37258 24 12C24 18.6274 18.6274 24 12 24C5.37258 24 0 18.6274 0 12Z" fill="white"/>
</clipPath>
<clipPath id="clip1_2214_3608">
<rect width="32" height="24" fill="white" transform="translate(-4)"/>
</clipPath>
</defs>
</svg>
