<svg width="24" height="24" viewBox="0 0 24 24" fill="none" xmlns="http://www.w3.org/2000/svg">
<g clip-path="url(#clip0_2214_3459)">
<g clip-path="url(#clip1_2214_3459)">
<path d="M-4 0H28V24H-4V0Z" fill="#4997D0"/>
<path d="M6.66498 0H17.335V24H6.66498V0Z" fill="white"/>
<path d="M10.8701 15.1984C10.9796 15.1819 11.0405 15.1488 11.1135 15.124M11.2068 14.9546C11.2607 15.0096 11.3022 15.0759 11.3285 15.1488M10.9999 14.9381C11.0515 14.9871 11.0928 15.0461 11.1216 15.1116M9.11358 9.46731C9.07301 9.53342 8.99188 9.57887 8.91886 9.6078M8.90669 9.59953C8.90128 9.53893 8.90128 9.47833 8.90669 9.41772M8.82961 9.62432C8.82961 9.64085 8.84584 9.68217 8.85395 9.70696M8.93914 9.74828L8.85801 9.76068M8.69574 9.72349C8.69574 9.83092 8.70791 9.95488 8.71602 10.0499M8.64301 10.0086C8.66194 10.0444 8.68357 10.0706 8.70791 10.0871M8.52131 10.3557C8.54294 10.3887 8.56052 10.4438 8.57404 10.521M8.72414 10.3268L8.64301 10.3887M8.71197 10.5706C8.6714 10.6064 8.62407 10.6353 8.56998 10.6573M8.41583 12.3267C8.45704 12.4015 8.51215 12.4675 8.5781 12.5209M8.60244 12.5911C8.55958 12.5857 8.5182 12.5717 8.48074 12.5498M8.65923 12.901L8.72819 12.9423M8.71197 13.0828C8.76065 13.1214 8.81068 13.1751 8.86206 13.244M8.80527 13.3597C8.86206 13.3734 8.90533 13.3872 8.93508 13.401M8.89452 13.5043H8.97565M9.02839 13.2853L9.0081 13.4588M9.04867 13.5249L9.0649 13.4588M9.25556 13.7067L9.2515 13.839M10.8417 14.9918L10.793 15.0579M10.6957 14.8968L10.6673 14.8224" stroke="#24420E" stroke-width="0.0163766"/>
<path d="M12.2494 15.5082C12.2155 15.4594 12.1692 15.4208 12.1155 15.3966C11.8032 15.2314 11.4908 15.1529 11.1419 15.095C11.0567 15.0826 10.9756 15.0041 10.8904 14.9628C10.6876 14.8677 10.4645 14.8306 10.2697 14.7273C10.2576 14.7231 10.2089 14.6942 10.1886 14.6653C10.1075 14.5744 9.9655 14.5455 9.88031 14.4587C9.53955 14.1364 9.18257 13.8389 8.99596 13.405C8.76879 12.8803 8.48888 12.339 8.52539 11.744C8.54973 11.3638 8.49699 10.9837 8.58624 10.6283C8.72416 10.0912 8.89454 9.56639 9.21096 9.12427L9.15823 9.15732C8.85799 9.61214 8.64593 10.1213 8.5335 10.6572C8.4402 11.0167 8.49294 11.401 8.47265 11.7729C8.43209 12.372 8.71605 12.9133 8.93917 13.4381C9.12577 13.8678 9.48681 14.1694 9.82352 14.4959C9.91276 14.5785 10.0507 14.6074 10.1318 14.7025L10.213 14.7644C10.4117 14.8636 10.6348 14.9008 10.8377 15C10.9188 15.0413 10.9999 15.1157 11.0811 15.1322C11.4222 15.1757 11.7539 15.2762 12.0628 15.4297C12.1165 15.4539 12.1628 15.4924 12.1967 15.5413L12.2494 15.5041" fill="#406325"/>
<path d="M12.2494 15.5082C12.2155 15.4594 12.1692 15.4208 12.1155 15.3966C11.8032 15.2314 11.4908 15.1529 11.1419 15.095C11.0567 15.0826 10.9756 15.0041 10.8904 14.9628C10.6876 14.8677 10.4645 14.8306 10.2697 14.7273C10.2576 14.7231 10.2089 14.6942 10.1886 14.6653C10.1075 14.5744 9.9655 14.5455 9.88031 14.4587C9.53955 14.1364 9.18257 13.8389 8.99596 13.405C8.76879 12.8803 8.48888 12.339 8.52539 11.744C8.54973 11.3638 8.49699 10.9837 8.58624 10.6283C8.72416 10.0912 8.89454 9.56639 9.21096 9.12427L9.15823 9.15732C8.85799 9.61214 8.64593 10.1213 8.5335 10.6572C8.4402 11.0167 8.49294 11.401 8.47265 11.7729C8.43209 12.372 8.71605 12.9133 8.93917 13.4381C9.12577 13.8678 9.48681 14.1694 9.82352 14.4959C9.91276 14.5785 10.0507 14.6074 10.1318 14.7025L10.213 14.7644C10.4117 14.8636 10.6348 14.9008 10.8377 15C10.9188 15.0413 10.9999 15.1157 11.0811 15.1322C11.4222 15.1757 11.7539 15.2762 12.0628 15.4297C12.1165 15.4539 12.1628 15.4924 12.1967 15.5413L12.2494 15.5041" stroke="#24420E" stroke-width="0.0081883"/>
<path d="M9.01218 13.3016C8.92879 12.9838 8.926 12.6497 9.00407 12.3306C9.27586 12.8677 9.18662 13.3099 9.01218 13.3016ZM10.8742 15.1775C10.5434 15.2547 10.2376 15.4169 9.98578 15.6486C10.5983 15.6527 10.9594 15.3469 10.8742 15.1775ZM11.1784 14.9998C10.9012 14.6897 10.7058 14.3129 10.6105 13.9049C11.219 14.3552 11.3772 14.9089 11.1784 14.9998Z" fill="#67923D" stroke="#24420E" stroke-width="0.0081883"/>
<path d="M10.9715 15.0041C10.6794 14.752 10.4559 14.4275 10.3225 14.062C10.9431 14.4008 11.146 14.8966 10.9715 15.0041ZM10.3387 14.7231C10.3793 14.4008 10.1115 13.7231 10.0345 13.6488C9.91275 14.3306 10.1562 14.7892 10.3387 14.7231ZM9.23124 13.719C9.16573 13.4327 9.17271 13.1341 9.25152 12.8513C9.47464 13.3347 9.38539 13.7273 9.23124 13.719ZM8.67548 10.5456C8.89755 10.2529 9.19136 10.0249 9.52737 9.88452C9.25152 10.4878 8.79718 10.7068 8.67548 10.5456Z" fill="#67923D" stroke="#24420E" stroke-width="0.0081883"/>
<path d="M8.70389 10.3142C8.86513 9.98124 9.10832 9.69652 9.40974 9.48779C9.25965 10.1365 8.85398 10.4464 8.70389 10.3142ZM9.83569 14.4131C9.64825 14.0808 9.54637 13.7055 9.53956 13.3223C9.9939 13.8388 10.0264 14.3677 9.83163 14.4131H9.83569ZM8.67143 12.905C8.38747 12.9504 7.80331 12.7149 7.7384 12.6446C8.33067 12.5124 8.72823 12.7273 8.67143 12.905ZM8.58219 12.5042C8.61464 12.2769 8.93106 11.8513 9.00002 11.8182C8.95946 12.3141 8.69983 12.5868 8.58219 12.5042ZM10.6632 14.9255C10.2681 15.0152 9.90301 15.209 9.60446 15.4875C10.3347 15.4916 10.7687 15.128 10.6632 14.9255Z" fill="#67923D" stroke="#24420E" stroke-width="0.0081883"/>
<path d="M9.0162 13.2976C9.18658 13.3058 9.27582 12.8678 9.00403 12.3307C9.05519 12.6506 9.05929 12.9764 9.0162 13.2976ZM9.47054 14.124C9.22016 13.8965 8.91732 13.7373 8.59025 13.6612C8.95129 14.1612 9.39752 14.2851 9.47054 14.124ZM8.48072 11.934C8.36528 11.5575 8.15884 11.2165 7.88033 10.9423C7.94118 11.653 8.31034 12.0456 8.48072 11.934ZM8.82148 13.3513C8.61864 13.1984 8.05071 13.1282 7.96958 13.1529C8.38336 13.5 8.78902 13.5042 8.82148 13.3513ZM8.44015 12.3265C8.26493 12.0783 8.02843 11.8816 7.75458 11.7563C7.97769 12.2687 8.34685 12.4588 8.44015 12.3224V12.3265ZM8.55374 10.3597C8.58619 10.0457 8.32657 9.39283 8.25355 9.31845C8.1359 9.97957 8.37119 10.4217 8.54968 10.3597H8.55374ZM8.73223 9.74405C8.84176 9.47547 8.76468 8.81848 8.71195 8.73584C8.45232 9.29366 8.55779 9.75231 8.73223 9.74405Z" fill="#406325" stroke="#24420E" stroke-width="0.0081883"/>
<path d="M8.93514 9.42585C9.04738 9.1749 9.09619 8.89933 9.07712 8.62425C8.78504 9.02505 8.79316 9.40519 8.93514 9.42585ZM9.17854 9.1738C9.35831 8.96969 9.48397 8.72223 9.54364 8.45483C9.15014 8.74407 9.04872 9.10769 9.17854 9.1738ZM8.52542 10.9588C8.52947 10.996 8.48485 10.62 8.11975 10.2027C8.13598 10.8142 8.37126 11.0456 8.52542 10.9588ZM9.84788 14.5041C9.52524 14.3325 9.16512 14.2472 8.80127 14.2562C9.31241 14.6859 9.81137 14.6942 9.84788 14.5041ZM10.3387 14.7231C10.1521 14.7851 9.91279 14.3305 10.0304 13.6488C10.0831 14.0194 10.1855 14.3808 10.3347 14.7231H10.3387ZM10.8783 15.1776C10.9594 15.347 10.6024 15.6528 9.99392 15.6486C10.4807 15.442 10.8539 15.2396 10.8783 15.1817V15.1776ZM11.1744 14.9958C11.3732 14.9008 11.219 14.3553 10.6065 13.9049C10.9554 14.4504 11.1947 14.9214 11.1744 14.9958Z" fill="#406325" stroke="#24420E" stroke-width="0.0081883"/>
<path d="M10.9715 15C11.1419 14.8884 10.9431 14.4008 10.3225 14.062C10.7079 14.5248 10.9797 14.9297 10.9715 15ZM9.23529 13.719C9.38539 13.7273 9.47869 13.3348 9.25558 12.8513C9.28397 13.3058 9.2718 13.6777 9.23529 13.719ZM8.67548 10.5498C8.79718 10.7068 9.24341 10.4919 9.52332 9.88867C9.27365 10.1497 8.98805 10.3724 8.67548 10.5498Z" fill="#406325" stroke="#24420E" stroke-width="0.0081883"/>
<path d="M8.712 10.3142C8.85804 10.4464 9.25965 10.1365 9.40974 9.48779C9.08521 9.95471 8.77691 10.3059 8.712 10.3142ZM9.83569 14.409C10.0264 14.3636 9.99796 13.8388 9.53956 13.3223C9.74239 13.8801 9.86409 14.347 9.83569 14.409ZM8.66332 12.905C8.72011 12.7273 8.32662 12.5165 7.7384 12.6446C8.23737 12.7355 8.63087 12.8512 8.66332 12.905ZM8.58624 12.5083C8.70389 12.5827 8.9554 12.3141 9.00408 11.8182C8.89778 12.0674 8.75708 12.2997 8.58624 12.5083ZM10.6632 14.9296C10.7647 15.1362 10.3387 15.4957 9.60852 15.4916C10.1846 15.2478 10.6349 15.004 10.6632 14.9296Z" fill="#406325" stroke="#24420E" stroke-width="0.0081883"/>
<path d="M8.73223 13.0828C8.56235 12.8075 8.32457 12.5824 8.0426 12.4299C8.24544 12.9919 8.61865 13.2191 8.73223 13.0828Z" fill="#406325" stroke="#24420E" stroke-width="0.0081883"/>
<path d="M8.44827 10.9217C8.61053 10.7275 9.15818 10.5415 9.24337 10.5498C8.91884 10.9836 8.51317 11.0704 8.44827 10.9217ZM9.46648 14.124C9.39346 14.2892 8.95129 14.1653 8.58619 13.6653C8.85617 13.861 9.15272 14.0155 9.46648 14.124ZM8.47666 11.934C8.30628 12.0456 7.94524 11.653 7.88033 10.9423C8.14807 11.4919 8.4077 11.9133 8.47666 11.934ZM8.81742 13.3513C8.78902 13.5042 8.38336 13.5 7.97364 13.1571C8.24422 13.263 8.52843 13.3284 8.81742 13.3513ZM8.43204 12.3224C8.33874 12.4546 7.97769 12.2687 7.75458 11.7563C8.08722 12.0869 8.38336 12.3224 8.4361 12.3224H8.43204ZM8.54562 10.3556C8.36713 10.4217 8.1359 9.98369 8.24949 9.32257C8.35902 9.88039 8.49289 10.3225 8.54562 10.3556ZM8.72817 9.7399C8.55374 9.7523 8.44826 9.29365 8.70789 8.73583C8.67544 9.26472 8.68761 9.69858 8.72817 9.7399ZM8.93101 9.42587C8.79308 9.40108 8.78091 9.02507 9.07705 8.62426C8.98921 8.8825 8.93998 9.15273 8.93101 9.42587ZM9.17441 9.17382C9.04865 9.10358 9.14601 8.74409 9.5395 8.45898C9.38372 8.67753 9.26068 8.91844 9.17441 9.17382Z" fill="#67923D" stroke="#24420E" stroke-width="0.0081883"/>
<path d="M8.52531 10.9588C8.3671 11.0456 8.13587 10.8142 8.11965 10.2026C8.32789 10.6875 8.46311 10.9395 8.52531 10.9588ZM9.84372 14.504C9.80721 14.6941 9.3123 14.6859 8.80116 14.2603C9.33664 14.4379 9.78693 14.5371 9.84372 14.504ZM9.51108 14.1115C9.35794 13.8741 9.26588 13.6013 9.24334 13.3182C9.60844 13.6776 9.65712 14.0661 9.51919 14.1115H9.51108ZM8.82956 13.0785C8.68352 12.8389 8.66729 12.2149 8.70786 12.1281C9.04456 12.6199 9.004 13.0661 8.82956 13.0785ZM8.72003 13.0826C8.6105 13.219 8.23729 12.9959 8.03851 12.4298C8.23222 12.681 8.46197 12.9011 8.72003 13.0826Z" fill="#67923D" stroke="#24420E" stroke-width="0.0081883"/>
<path d="M8.4483 10.9217C8.51321 11.0705 8.91076 10.9837 9.23935 10.554C8.75255 10.8349 8.56189 10.9589 8.4483 10.9217ZM8.82557 13.0703C9.00001 13.0579 9.04057 12.6158 8.70387 12.1282C8.79348 12.4351 8.83456 12.7545 8.82557 13.0745V13.0703ZM9.5152 14.1116C9.65313 14.0703 9.60445 13.6777 9.24341 13.3183C9.4219 13.7191 9.53549 14.062 9.5152 14.1116Z" fill="#406325" stroke="#24420E" stroke-width="0.0081883"/>
<path d="M8.52133 11.6572C8.60247 11.3101 8.45237 10.7233 8.3469 10.5994C8.15623 11.2357 8.33878 11.6985 8.52133 11.6572Z" fill="#406325" stroke="#24420E" stroke-width="0.0081883"/>
<path d="M8.5132 11.7399C8.2698 11.7936 8.16027 11.244 8.34687 10.6201C8.38744 11.1779 8.46046 11.6986 8.50914 11.7358L8.5132 11.7399Z" fill="#67923D" stroke="#24420E" stroke-width="0.0081883"/>
<path d="M8.46045 11.7357C8.49607 11.3697 8.62163 11.0187 8.82555 10.7151C8.90668 11.3679 8.643 11.8018 8.46045 11.7357Z" fill="#67923D" stroke="#24420E" stroke-width="0.0081883"/>
<path d="M8.46448 11.7316C8.64703 11.7977 8.90665 11.3679 8.82552 10.7151C8.68354 11.2646 8.52127 11.6985 8.46448 11.7316Z" fill="#406325" stroke="#24420E" stroke-width="0.0081883"/>
<path d="M8.51721 12.1324C8.57339 11.7731 8.72173 11.4352 8.94722 11.1531C8.97967 11.8225 8.69165 12.2233 8.51721 12.1324Z" fill="#67923D" stroke="#24420E" stroke-width="0.0081883"/>
<path d="M8.5213 12.1365C8.69168 12.2275 8.9797 11.8308 8.94725 11.1655C8.76876 11.6944 8.58215 12.1118 8.5213 12.1365Z" fill="#406325" stroke="#24420E" stroke-width="0.0081883"/>
<path d="M8.62671 10.0291C8.65136 10.0291 8.67134 10.0088 8.67134 9.98368C8.67134 9.95858 8.65136 9.93823 8.62671 9.93823C8.60207 9.93823 8.58209 9.95858 8.58209 9.98368C8.58209 10.0088 8.60207 10.0291 8.62671 10.0291Z" fill="#BA1F3E" stroke="#511124" stroke-width="0.0081883"/>
<path d="M8.96747 9.77303C8.99212 9.77303 9.0121 9.75268 9.0121 9.72758C9.0121 9.70248 8.99212 9.68213 8.96747 9.68213C8.94283 9.68213 8.92285 9.70248 8.92285 9.72758C8.92285 9.75268 8.94283 9.77303 8.96747 9.77303Z" fill="#BA1F3E" stroke="#511124" stroke-width="0.0081883"/>
<path d="M8.82142 9.63241C8.84606 9.63241 8.86604 9.61206 8.86604 9.58696C8.86604 9.56185 8.84606 9.5415 8.82142 9.5415C8.79677 9.5415 8.77679 9.56185 8.77679 9.58696C8.77679 9.61206 8.79677 9.63241 8.82142 9.63241Z" fill="#BA1F3E" stroke="#511124" stroke-width="0.0081883"/>
<path d="M8.45227 12.5911C8.4814 12.5911 8.50501 12.567 8.50501 12.5374C8.50501 12.5077 8.4814 12.4836 8.45227 12.4836C8.42315 12.4836 8.39954 12.5077 8.39954 12.5374C8.39954 12.567 8.42315 12.5911 8.45227 12.5911Z" fill="#BA1F3E" stroke="#511124" stroke-width="0.0081883"/>
<path d="M8.55371 11.9299C8.58284 11.9299 8.60645 11.9059 8.60645 11.8762C8.60645 11.8466 8.58284 11.8225 8.55371 11.8225C8.52459 11.8225 8.50098 11.8466 8.50098 11.8762C8.50098 11.9059 8.52459 11.9299 8.55371 11.9299Z" fill="#BA1F3E" stroke="#511124" stroke-width="0.0081883"/>
<path d="M9.08918 13.4754C9.1183 13.4754 9.14191 13.4513 9.14191 13.4216C9.14191 13.392 9.1183 13.3679 9.08918 13.3679C9.06005 13.3679 9.03644 13.392 9.03644 13.4216C9.03644 13.4513 9.06005 13.4754 9.08918 13.4754Z" fill="#BA1F3E" stroke="#511124" stroke-width="0.0081883"/>
<path d="M8.85388 13.5537C8.88301 13.5537 8.90662 13.5297 8.90662 13.5C8.90662 13.4703 8.88301 13.4463 8.85388 13.4463C8.82476 13.4463 8.80115 13.4703 8.80115 13.5C8.80115 13.5297 8.82476 13.5537 8.85388 13.5537Z" fill="#BA1F3E" stroke="#511124" stroke-width="0.0081883"/>
<path d="M10.6509 14.843C10.6801 14.843 10.7037 14.819 10.7037 14.7893C10.7037 14.7596 10.6801 14.7356 10.6509 14.7356C10.6218 14.7356 10.5982 14.7596 10.5982 14.7893C10.5982 14.819 10.6218 14.843 10.6509 14.843Z" fill="#BA1F3E" stroke="#511124" stroke-width="0.0081883"/>
<path d="M10.7686 15.1362C10.7977 15.1362 10.8214 15.1122 10.8214 15.0825C10.8214 15.0529 10.7977 15.0288 10.7686 15.0288C10.7395 15.0288 10.7159 15.0529 10.7159 15.0825C10.7159 15.1122 10.7395 15.1362 10.7686 15.1362Z" fill="#BA1F3E" stroke="#511124" stroke-width="0.0081883"/>
<path d="M15.2919 10.3019C15.3203 10.3267 15.3406 10.3349 15.3852 10.3804M15.1175 9.59942C15.1175 9.54157 15.0931 9.44654 15.0809 9.39282M15.2229 9.51678C15.2229 9.59391 15.2081 9.66829 15.1783 9.73991M15.0079 9.71925C15.0782 9.78812 15.1499 9.84183 15.2229 9.8804M15.3771 9.92998C15.3825 10.0126 15.373 10.0953 15.3487 10.1779M15.3649 10.2399L15.4176 10.1448M15.3406 10.649C15.3974 10.6613 15.4542 10.7316 15.4826 10.7936M15.5028 10.7399L15.5677 10.649M15.6367 11.9216L15.5393 12.0621M15.3771 12.0621C15.4095 12.1199 15.442 12.1861 15.4826 12.2274M15.584 12.4712C15.5367 12.54 15.4741 12.5967 15.4014 12.6364M15.4095 12.8224C15.3649 12.8554 15.3081 12.9463 15.2594 13.0166M15.6002 12.1819L15.515 12.2191M15.4582 11.9133L15.5069 11.9547M15.1296 13.5H15.0485M14.9633 13.4257L14.9876 13.4918M14.6793 13.7025C14.6712 13.7796 14.6726 13.8568 14.6834 13.9339M14.8578 13.562L14.8984 13.6529M15.0566 13.6488L14.9552 13.6612M13.7057 14.7066L13.6652 14.7809M14.1479 14.6157C14.0884 14.6212 14.033 14.6184 13.9816 14.6074M13.7585 14.8553C13.7179 14.8388 13.6773 14.825 13.6368 14.814M13.0405 14.9256C13.0039 14.9545 12.9593 15.0247 12.9188 15.0908M12.8944 14.9049C12.7971 14.9586 12.7646 15.0578 12.7159 15.1446M12.8295 15.2603C12.7646 15.241 12.6929 15.2134 12.6145 15.1776M13.292 15.1487C13.1987 15.0991 13.1013 15.1074 13.0039 15.0908M13.4421 15.0743C13.2933 15.0468 13.154 15.0454 13.0242 15.0702M13.3406 14.9628L13.2838 14.938M13.0567 15.1652L12.9634 15.1115M15.3122 13.0786C15.2608 13.1171 15.2108 13.1708 15.1621 13.2397M15.2351 9.95064L15.1459 9.91759" stroke="#24420E" stroke-width="0.0163766"/>
<path d="M11.7748 15.5041C11.8126 15.4545 11.8573 15.4173 11.9087 15.3925C12.221 15.2272 12.5334 15.1528 12.8822 15.095C12.9674 15.0785 13.0486 15 13.1338 14.9628C13.3366 14.8636 13.5597 14.8264 13.7544 14.7272C13.7666 14.719 13.8153 14.6901 13.8356 14.6611C13.9167 14.5702 14.0587 14.5413 14.1439 14.4545C14.4846 14.1322 14.8416 13.8347 15.0282 13.4009C15.2554 12.8761 15.5353 12.3348 15.4988 11.7398C15.4744 11.3597 15.5272 10.9795 15.4379 10.6242C15.325 10.0871 15.113 9.57667 14.8132 9.12012L14.8659 9.15317C15.1667 9.60924 15.3787 10.1198 15.4907 10.6572C15.584 11.0126 15.5312 11.3968 15.5515 11.7729C15.5921 12.3679 15.3081 12.9092 15.085 13.4381C14.8984 13.8678 14.5374 14.1653 14.2007 14.4917C14.1114 14.5744 13.9735 14.6033 13.8924 14.6983L13.8112 14.7603C13.6124 14.8595 13.3893 14.9008 13.1865 14.9958C13.1054 15.0371 13.0242 15.1115 12.9431 15.128C12.602 15.1715 12.2703 15.272 11.9614 15.4255C11.9077 15.4497 11.8614 15.4883 11.8275 15.5371L11.7748 15.5041Z" fill="#406325" stroke="#24420E" stroke-width="0.0081883"/>
<path d="M14.9875 13.4257C15.1011 13.1199 14.9875 12.401 14.9307 12.3101C14.6589 12.9464 14.7928 13.4505 14.9875 13.4257Z" fill="#406325" stroke="#24420E" stroke-width="0.0081883"/>
<path d="M14.6995 13.7149C14.7928 13.4835 14.7279 12.9174 14.6833 12.8472C14.4602 13.3306 14.5495 13.7273 14.6995 13.7149ZM15.3851 10.6531C15.1803 10.3858 14.9104 10.1778 14.6022 10.0498C14.8537 10.5994 15.2715 10.8018 15.3851 10.6531Z" fill="#406325" stroke="#24420E" stroke-width="0.0081883"/>
<path d="M15.3202 10.3226C15.1866 10.0443 14.9838 9.80641 14.732 9.63257C14.8578 10.1697 15.1945 10.43 15.3202 10.3226ZM15.5109 10.9383C15.3689 10.773 14.8943 10.6119 14.8212 10.6201C15.1052 10.992 15.4541 11.0705 15.5109 10.9383ZM15.3973 12.8555C15.6875 12.8535 15.9719 12.7721 16.2208 12.62C15.6975 12.5043 15.3486 12.6985 15.3973 12.8555ZM15.3892 12.62C15.3892 12.3886 15.1336 11.9258 15.0646 11.8762C15.0444 12.3721 15.2634 12.682 15.3892 12.62Z" fill="#406325" stroke="#24420E" stroke-width="0.0081883"/>
<path d="M15.4094 12.0538C15.3526 11.6959 15.2043 11.3596 14.9794 11.0786C14.947 11.748 15.235 12.1447 15.4094 12.0538ZM13.2594 15.1652C13.5154 15.3943 13.8259 15.5511 14.16 15.6197C13.803 15.1114 13.3446 14.9958 13.2635 15.1652H13.2594Z" fill="#406325" stroke="#24420E" stroke-width="0.0081883"/>
<path d="M14.9877 13.4173C14.7889 13.4421 14.6591 12.9463 14.9309 12.31C14.9106 12.8967 14.939 13.3719 14.9877 13.4173ZM12.8214 15.2189C13.1519 15.299 13.4574 15.4624 13.7098 15.6941C13.0973 15.6982 12.7362 15.3924 12.8173 15.223L12.8214 15.2189ZM12.8214 14.8925C12.9025 14.5619 13.4299 14.0165 13.5313 13.9793C13.3853 14.6859 12.9756 15.033 12.8214 14.8925ZM13.6855 14.7231C13.6957 14.3444 13.8004 13.9747 13.9897 13.6487C14.1114 14.3264 13.868 14.785 13.6855 14.7231ZM14.5576 14.1198C14.8069 13.8929 15.1083 13.7338 15.4339 13.657C15.0728 14.157 14.6307 14.2809 14.5536 14.1198H14.5576ZM15.6002 11.9174C15.6408 11.6571 15.9937 11.1778 16.0708 11.1365C16.0221 11.6984 15.7341 12.0042 15.6002 11.9216V11.9174Z" fill="#67923D" stroke="#24420E" stroke-width="0.0081883"/>
<path d="M15.1255 13.4919C15.4319 13.3336 15.772 13.2555 16.1154 13.2646C15.6367 13.6654 15.1621 13.6695 15.1255 13.4919ZM15.5434 12.4795C15.7272 12.2203 15.9749 12.0151 16.2614 11.8845C16.0261 12.4217 15.6407 12.62 15.5434 12.4795ZM15.4825 10.5953C15.4825 10.2813 15.8071 9.65735 15.8882 9.59537C15.9328 10.2606 15.657 10.678 15.4825 10.5953ZM15.2026 9.52513C15.1326 9.25446 15.1312 8.9701 15.1986 8.69873C15.4217 9.14912 15.3487 9.52513 15.1986 9.52513H15.2026Z" fill="#67923D" stroke="#24420E" stroke-width="0.0081883"/>
<path d="M15.0282 9.43417C14.8156 9.16998 14.6707 8.85623 14.6063 8.521C15.085 8.90527 15.1905 9.36392 15.0282 9.43417ZM15.5028 10.8597C15.4907 10.8969 15.6245 10.5415 16.0789 10.2275C15.9166 10.8184 15.6326 10.9837 15.5028 10.8597ZM14.1195 14.5744C14.4856 14.3832 14.8927 14.2881 15.304 14.2975C14.728 14.7851 14.1601 14.7934 14.1195 14.5744ZM14.6996 13.7149C14.5495 13.7232 14.4562 13.3306 14.6793 12.8472C14.6509 13.3017 14.6631 13.6736 14.6996 13.7149ZM15.3852 10.6531C15.2757 10.8019 14.8578 10.6035 14.6063 10.0498C14.8341 10.2904 15.0968 10.4938 15.3852 10.6531ZM15.3162 10.3225C15.1905 10.43 14.8578 10.1738 14.7321 9.6325C15.0039 10.0209 15.2594 10.3143 15.3162 10.3225ZM15.5109 10.9423C15.4541 11.0704 15.1093 10.9961 14.8254 10.6242C15.2473 10.868 15.4136 10.9713 15.515 10.9423H15.5109ZM15.4055 12.8513C15.3527 12.6943 15.7016 12.5084 16.2249 12.6241C15.942 12.6569 15.6657 12.7336 15.4055 12.8513ZM15.3892 12.6199C15.2594 12.6819 15.0444 12.3762 15.0647 11.8803C15.1374 12.1428 15.2467 12.3932 15.3892 12.6241V12.6199Z" fill="#67923D" stroke="#24420E" stroke-width="0.0081883"/>
<path d="M15.4055 12.0621C15.2311 12.153 14.9471 11.7563 14.9795 11.0911C15.158 11.62 15.3446 12.0373 15.4055 12.0621ZM13.2676 15.1652C13.3488 14.9917 13.7991 15.1074 14.1601 15.6115C13.7139 15.3346 13.3285 15.1446 13.2676 15.1652Z" fill="#67923D" stroke="#24420E" stroke-width="0.0081883"/>
<path d="M13.6854 14.7147C13.872 14.7808 14.1114 14.3263 13.9937 13.6445C13.8801 14.223 13.7422 14.6817 13.6854 14.7189V14.7147Z" fill="#406325" stroke="#24420E" stroke-width="0.0081883"/>
<path d="M14.1033 14.5C14.2568 14.1501 14.321 13.7663 14.2899 13.3844C13.8842 13.9463 13.9085 14.4711 14.1033 14.5ZM12.8173 15.2231C12.7362 15.3925 13.0891 15.6983 13.7017 15.69C13.2149 15.4917 12.8416 15.2851 12.8173 15.2231ZM12.8254 14.8884C12.9796 15.0289 13.3852 14.6859 13.5313 13.9794C13.2027 14.4917 12.8944 14.8801 12.8254 14.8884ZM14.5576 14.1199C14.6306 14.2851 15.0728 14.1612 15.4379 13.6612C15.1679 13.8569 14.8714 14.0114 14.5576 14.1199ZM15.6042 11.9175C15.7381 12.0043 16.0221 11.6985 16.0707 11.1407C15.9536 11.4216 15.7964 11.6834 15.6042 11.9175ZM15.1255 13.4918C15.1661 13.6736 15.6326 13.6653 16.1154 13.2645C15.6083 13.4298 15.1823 13.5207 15.1296 13.4918H15.1255ZM15.5474 12.4753C15.6488 12.6158 16.0302 12.4175 16.2655 11.8803C16.0573 12.1148 15.8152 12.3154 15.5474 12.4753ZM15.4906 10.5911C15.661 10.6738 15.9369 10.2606 15.8882 9.59945C15.7259 10.1366 15.5474 10.5622 15.4866 10.5911H15.4906ZM15.2067 9.52094C15.3487 9.52507 15.4257 9.14906 15.1986 8.69454C15.2391 9.1284 15.2391 9.48375 15.2067 9.52094ZM15.0322 9.43004C15.1945 9.35979 15.089 8.90527 14.6103 8.521C14.7946 8.80095 14.9368 9.10734 15.0322 9.43004ZM15.5028 10.8638C15.6326 10.9878 15.9166 10.8225 16.0789 10.2275C15.7597 10.6435 15.5677 10.8556 15.5028 10.8638ZM14.1235 14.5785C14.1641 14.7934 14.728 14.7851 15.3 14.3017C14.6955 14.5 14.1885 14.6157 14.1235 14.5785Z" fill="#406325" stroke="#24420E" stroke-width="0.0081883"/>
<path d="M14.3994 14.2603C14.5161 14.0004 14.5663 13.7147 14.5454 13.4297C14.2412 13.8429 14.2534 14.2355 14.3994 14.2561V14.2603ZM15.1945 13.0744C15.3405 12.8389 15.3568 12.2108 15.3162 12.124C14.9795 12.6157 15.0201 13.062 15.1945 13.0744Z" fill="#406325" stroke="#24420E" stroke-width="0.0081883"/>
<path d="M14.1033 14.4958C13.9086 14.471 13.8883 13.9462 14.2858 13.3884C14.1398 13.9586 14.0668 14.4379 14.1033 14.4958ZM15.5312 11.6736C15.4907 11.3513 15.6935 10.8431 15.799 10.7439C15.9044 11.3389 15.6894 11.7356 15.5312 11.6736ZM14.3994 14.2561C14.2534 14.2355 14.2412 13.8429 14.5455 13.4297C14.4558 13.696 14.4066 13.9747 14.3994 14.2561ZM15.3487 9.95058C15.2594 9.70266 15.3487 9.12418 15.3974 9.0498C15.6124 9.55391 15.5028 9.96298 15.3487 9.95058ZM12.9918 14.9131C13.0932 14.5826 13.6489 14.0454 13.7544 14.0041C13.58 14.7272 13.1459 15.0619 12.9918 14.9131ZM15.2067 13.1942C15.3755 12.9194 15.6118 12.6944 15.8923 12.5413C15.6894 13.1033 15.3162 13.3306 15.2026 13.1942H15.2067ZM15.1986 13.0702C15.0241 13.0537 14.9836 12.6157 15.3203 12.124C15.2307 12.4308 15.1896 12.7503 15.1986 13.0702Z" fill="#67923D" stroke="#24420E" stroke-width="0.0081883"/>
<path d="M15.5312 11.748C15.7421 11.8266 15.8963 11.3431 15.7989 10.7605C15.7514 11.1013 15.6615 11.4346 15.5312 11.7522V11.748Z" fill="#406325" stroke="#24420E" stroke-width="0.0081883"/>
<path d="M15.5636 11.7315C15.5839 11.4216 15.2797 10.7811 15.1985 10.7109C15.1174 11.3637 15.3811 11.7976 15.5636 11.7315ZM15.3486 9.94645C15.5069 9.96298 15.6123 9.55804 15.3973 9.0498C15.4136 9.52498 15.3892 9.90926 15.3486 9.94645ZM12.9958 14.909C13.1499 15.0619 13.5799 14.7272 13.7544 14.0082C13.3974 14.5164 13.0648 14.9007 12.9958 14.909ZM15.2107 13.1942C15.3243 13.3306 15.6975 13.1074 15.9003 12.5413C15.7042 12.7932 15.4717 13.0133 15.2107 13.1942Z" fill="#406325" stroke="#24420E" stroke-width="0.0081883"/>
<path d="M15.5596 11.7274C15.3771 11.7977 15.1174 11.3679 15.1986 10.7151C15.3406 11.2605 15.5028 11.6944 15.5596 11.7274Z" fill="#67923D" stroke="#24420E" stroke-width="0.0081883"/>
<path d="M15.4339 10.1778C15.4585 10.1778 15.4785 10.1575 15.4785 10.1324C15.4785 10.1073 15.4585 10.0869 15.4339 10.0869C15.4093 10.0869 15.3893 10.1073 15.3893 10.1324C15.3893 10.1575 15.4093 10.1778 15.4339 10.1778Z" fill="#BA1F3E" stroke="#511124" stroke-width="0.0081883"/>
<path d="M15.588 10.6698C15.6127 10.6698 15.6326 10.6494 15.6326 10.6243C15.6326 10.5992 15.6127 10.5789 15.588 10.5789C15.5634 10.5789 15.5434 10.5992 15.5434 10.6243C15.5434 10.6494 15.5634 10.6698 15.588 10.6698Z" fill="#BA1F3E" stroke="#511124" stroke-width="0.0081883"/>
<path d="M15.6448 12.2275C15.674 12.2275 15.6976 12.2035 15.6976 12.1738C15.6976 12.1442 15.674 12.1201 15.6448 12.1201C15.6157 12.1201 15.5921 12.1442 15.5921 12.1738C15.5921 12.2035 15.6157 12.2275 15.6448 12.2275Z" fill="#BA1F3E" stroke="#511124" stroke-width="0.0081883"/>
<path d="M15.4338 11.9382C15.463 11.9382 15.4866 11.9142 15.4866 11.8845C15.4866 11.8549 15.463 11.8308 15.4338 11.8308C15.4047 11.8308 15.3811 11.8549 15.3811 11.8845C15.3811 11.9142 15.4047 11.9382 15.4338 11.9382Z" fill="#BA1F3E" stroke="#511124" stroke-width="0.0081883"/>
<path d="M14.8375 13.5869C14.8667 13.5869 14.8903 13.5629 14.8903 13.5332C14.8903 13.5035 14.8667 13.4795 14.8375 13.4795C14.8084 13.4795 14.7848 13.5035 14.7848 13.5332C14.7848 13.5629 14.8084 13.5869 14.8375 13.5869Z" fill="#BA1F3E" stroke="#511124" stroke-width="0.0081883"/>
<path d="M15.0931 13.6985C15.1223 13.6985 15.1459 13.6744 15.1459 13.6448C15.1459 13.6151 15.1223 13.5911 15.0931 13.5911C15.064 13.5911 15.0404 13.6151 15.0404 13.6448C15.0404 13.6744 15.064 13.6985 15.0931 13.6985Z" fill="#BA1F3E" stroke="#511124" stroke-width="0.0081883"/>
<path d="M13.3731 15.0371C13.4022 15.0371 13.4258 15.0131 13.4258 14.9834C13.4258 14.9537 13.4022 14.9297 13.3731 14.9297C13.344 14.9297 13.3204 14.9537 13.3204 14.9834C13.3204 15.0131 13.344 15.0371 13.3731 15.0371Z" fill="#BA1F3E" stroke="#511124" stroke-width="0.0081883"/>
<path d="M13.0891 15.2437C13.1182 15.2437 13.1419 15.2196 13.1419 15.1899C13.1419 15.1603 13.1182 15.1362 13.0891 15.1362C13.06 15.1362 13.0364 15.1603 13.0364 15.1899C13.0364 15.2196 13.06 15.2437 13.0891 15.2437Z" fill="#BA1F3E" stroke="#511124" stroke-width="0.0081883"/>
<path d="M15.1296 9.94662C15.1542 9.94662 15.1742 9.92627 15.1742 9.90117C15.1742 9.87606 15.1542 9.85571 15.1296 9.85571C15.1049 9.85571 15.085 9.87606 15.085 9.90117C15.085 9.92627 15.1049 9.94662 15.1296 9.94662Z" fill="#BA1F3E" stroke="#511124" stroke-width="0.0081883"/>
<path d="M10.1481 13.4959C10.14 13.5373 10.1806 13.591 10.2293 13.5786C10.2495 13.5786 10.2577 13.5579 10.2374 13.5579C10.2184 13.5634 10.2022 13.5593 10.1887 13.5455C10.179 13.5345 10.1723 13.521 10.1695 13.5065C10.1666 13.4919 10.1677 13.4769 10.1725 13.4629L10.1481 13.4959Z" fill="#8C959D" stroke="#485654" stroke-width="0.00409415"/>
<path d="M10.2657 13.5784C10.2252 13.628 10.1643 13.6487 10.1278 13.6156C10.1008 13.5908 10.094 13.5633 10.1075 13.533L10.067 13.5867C10.067 13.5867 10.0913 13.6404 10.1319 13.6611C10.1846 13.6817 10.2536 13.6487 10.2941 13.595C10.3266 13.5537 10.359 13.4958 10.3347 13.4462C10.3162 13.4142 10.2876 13.3894 10.2536 13.376L10.213 13.4173C10.2346 13.4118 10.2576 13.4173 10.282 13.4338C10.3347 13.4751 10.3063 13.5371 10.2657 13.5784Z" fill="#8C959D"/>
<path d="M10.2658 13.5787L10.2211 13.62C10.2022 13.631 10.1819 13.6351 10.1603 13.6324L10.1319 13.62L10.1116 13.5952C10.1062 13.5869 10.1021 13.5773 10.0994 13.5663C10.0967 13.5553 10.0994 13.5442 10.1075 13.5332L10.1116 13.5374L10.067 13.5911V13.5869L10.1075 13.6407L10.1359 13.6572L10.1684 13.6613C10.1915 13.6608 10.214 13.6537 10.2333 13.6407C10.2549 13.6296 10.2725 13.6159 10.286 13.5993L10.3266 13.5415C10.3374 13.5222 10.3415 13.5002 10.3388 13.4754C10.3388 13.4644 10.3361 13.4533 10.3307 13.4423C10.3125 13.4125 10.2855 13.3894 10.2536 13.3762H10.2576L10.2171 13.4217H10.213C10.2211 13.4161 10.2306 13.4134 10.2414 13.4134L10.2739 13.4217C10.2928 13.4327 10.305 13.4492 10.3104 13.4712C10.3131 13.4933 10.3104 13.5126 10.3023 13.5291C10.2942 13.5511 10.282 13.5677 10.2658 13.5787ZM10.2658 13.5787C10.282 13.5677 10.2928 13.5511 10.2982 13.5291C10.3036 13.507 10.3063 13.4878 10.3063 13.4712C10.3009 13.452 10.2887 13.4382 10.2698 13.4299C10.2509 13.4161 10.2333 13.4134 10.2171 13.4217H10.213L10.2536 13.3721C10.2876 13.3855 10.3162 13.4103 10.3347 13.4423C10.3428 13.4506 10.3469 13.4616 10.3469 13.4754C10.3469 13.5029 10.3415 13.5263 10.3307 13.5456C10.3226 13.5677 10.309 13.5869 10.2901 13.6035C10.2766 13.6227 10.259 13.6379 10.2374 13.6489C10.2184 13.6627 10.1954 13.6696 10.1684 13.6696C10.1565 13.6706 10.1444 13.6689 10.1332 13.6646C10.122 13.6603 10.1118 13.6535 10.1035 13.6448L10.0629 13.5869L10.1035 13.5332H10.1116L10.1075 13.5663C10.1075 13.5745 10.1103 13.5842 10.1157 13.5952L10.1359 13.6159C10.1414 13.6241 10.1495 13.6283 10.1603 13.6283C10.1819 13.631 10.2022 13.6283 10.2211 13.62L10.2658 13.5787Z" fill="#485654"/>
<path d="M13.43 9.90112L11.8032 11.5333L10.136 13.153L9.94935 13.3761C9.86822 13.4712 9.77086 13.5951 9.65727 13.7067C9.63699 13.7356 9.61265 13.7232 9.58831 13.7398C9.51529 13.7811 9.43821 13.8554 9.38548 13.9174L8.88651 14.4752C8.85406 14.5083 8.84865 14.5359 8.87028 14.5579L9.13802 14.9215C9.1867 14.9711 9.24349 14.9959 9.26783 14.9546C9.39359 14.7273 9.71406 14.3843 9.83576 14.1158C9.90473 13.9505 9.99397 13.6571 10.0589 13.5869C10.14 13.496 10.3469 13.2646 10.5376 13.0621L10.5781 13.0208C10.5862 13.0043 10.5984 12.9905 10.6146 12.9795C11.568 11.9878 12.6714 10.7854 13.4746 9.93831L13.43 9.90112Z" fill="#6C301E" stroke="#351710" stroke-width="0.0081883" stroke-linejoin="round"/>
<path d="M10.0507 13.157C10.0048 13.1515 9.96556 13.1322 9.93311 13.0991C9.98179 13.1156 10.0305 13.1322 10.0751 13.1115L10.0507 13.157Z" fill="#8C959D" stroke="#485654" stroke-width="0.00409415"/>
<path d="M15.1256 8.69458L13.8356 9.77716C13.8221 9.79094 13.8099 9.79094 13.7991 9.77716L13.6814 9.678V9.6532L13.7382 9.59536C13.7436 9.58985 13.7423 9.58158 13.7342 9.57056L13.7098 9.54577C13.699 9.54302 13.6896 9.54577 13.6814 9.55404L13.6246 9.61602C13.5922 9.61877 13.5733 9.63805 13.5679 9.67386C12.789 10.4465 12.1156 11.1366 11.3408 11.8969L10.4239 12.7894C10.3915 12.8307 10.2495 12.9092 10.1562 12.9712C10.1211 12.9932 10.0967 13.0139 10.0832 13.0332L10.0102 13.2604C9.98583 13.31 9.90875 13.4257 9.90875 13.434L10.0629 13.5869L10.5132 13.0952L10.5497 13.0538C10.52 13.0117 10.4845 12.9741 10.4442 12.9423L10.4158 12.9216C10.4158 12.9106 10.4226 12.901 10.4361 12.8927C11.5071 11.8349 12.6673 10.6738 13.6084 9.72758H13.649L13.7666 9.85567C13.7937 9.88322 13.8167 9.88873 13.8356 9.8722L15.1297 8.69458H15.1256Z" fill="#B2B6BA" stroke="#485654" stroke-width="0.0081883"/>
<path d="M10.0142 13.2522H10.0386L10.0588 13.2481L10.0872 13.1489L10.1197 13.0497C10.1116 13.0415 10.1021 13.036 10.0913 13.0332C10.1021 13.0332 10.1116 13.0387 10.1197 13.0497L10.0913 13.1489L10.0629 13.2481L10.0386 13.2563L10.0142 13.2522Z" fill="#485654"/>
<path d="M10.3063 13.1819C10.3198 13.1819 10.3307 13.1708 10.3307 13.1571C10.3307 13.1434 10.3198 13.1323 10.3063 13.1323C10.2929 13.1323 10.282 13.1434 10.282 13.1571C10.282 13.1708 10.2929 13.1819 10.3063 13.1819Z" stroke="#485654" stroke-width="0.0081883"/>
<path d="M10.1522 13.3389C10.1657 13.3389 10.1765 13.3278 10.1765 13.3141C10.1765 13.3004 10.1657 13.2893 10.1522 13.2893C10.1388 13.2893 10.1279 13.3004 10.1279 13.3141C10.1279 13.3278 10.1388 13.3389 10.1522 13.3389Z" stroke="#485654" stroke-width="0.0081883"/>
<path d="M12.9026 10.3019L13.0446 10.4465L13.0689 10.4217L12.9269 10.2812L12.9026 10.306V10.3019Z" fill="#8C959D" stroke="#485654" stroke-width="0.00409415"/>
<path d="M13.1873 13.5527C13.1934 13.5944 13.1503 13.646 13.1023 13.6312C13.0821 13.6302 13.0749 13.6092 13.0952 13.6102C13.1138 13.6166 13.1303 13.6133 13.1444 13.6002C13.1547 13.5897 13.162 13.5766 13.1655 13.5622C13.1691 13.5478 13.1687 13.5327 13.1646 13.5185L13.1873 13.5527Z" fill="#8C959D" stroke="#485654" stroke-width="0.00409416"/>
<path d="M13.0659 13.6296C13.104 13.6811 13.1638 13.7048 13.2018 13.6736C13.23 13.6502 13.2381 13.623 13.2261 13.5921L13.264 13.6477C13.264 13.6477 13.2371 13.7002 13.1956 13.7188C13.1419 13.7368 13.0746 13.7004 13.0367 13.6447C13.0063 13.6018 12.9766 13.5424 13.0033 13.4941C13.0234 13.463 13.0531 13.4397 13.0877 13.428L13.1263 13.4713C13.1049 13.4647 13.0817 13.469 13.0566 13.4843C13.0019 13.523 13.0273 13.5863 13.0659 13.6296Z" fill="#8C959D"/>
<path d="M13.0659 13.6294L13.1085 13.6729C13.1269 13.6848 13.1469 13.6899 13.1687 13.6883L13.1976 13.6773L13.2191 13.6535C13.2249 13.6456 13.2294 13.6361 13.2326 13.6253C13.2358 13.6144 13.2337 13.6033 13.2261 13.5918L13.2218 13.5958L13.2638 13.6516L13.264 13.6475L13.2209 13.6991L13.1918 13.7142L13.1592 13.7168C13.1361 13.7151 13.1139 13.7069 13.0953 13.6929C13.0742 13.6808 13.0573 13.6662 13.0446 13.649L13.0069 13.5892C12.997 13.5694 12.994 13.5472 12.9979 13.5226C12.9984 13.5116 13.0017 13.5007 13.0076 13.4899C13.0272 13.4611 13.0552 13.4393 13.0877 13.4277L13.0837 13.4275L13.122 13.475L13.1261 13.4752C13.1182 13.4693 13.1089 13.466 13.0981 13.4655L13.0653 13.4721C13.0459 13.4822 13.0329 13.4981 13.0265 13.5198C13.0227 13.5417 13.0245 13.5611 13.0318 13.578C13.0388 13.6004 13.0502 13.6176 13.0659 13.6294ZM13.0659 13.6294C13.0502 13.6176 13.0402 13.6005 13.0358 13.5782C13.0315 13.5559 13.0297 13.5366 13.0305 13.52C13.0368 13.5011 13.0497 13.4879 13.069 13.4806C13.0885 13.4678 13.1062 13.4659 13.122 13.475L13.1261 13.4752L13.0879 13.4236C13.0533 13.4354 13.0236 13.4587 13.0035 13.4897C12.995 13.4976 12.9905 13.5084 12.9898 13.5222C12.9885 13.5497 12.9928 13.5733 13.0026 13.5931C13.0097 13.6155 13.0223 13.6355 13.0404 13.6529C13.053 13.6729 13.0698 13.6889 13.0909 13.7009C13.1091 13.7156 13.1318 13.7237 13.1588 13.725C13.1706 13.7266 13.1827 13.7255 13.1941 13.7218C13.2056 13.7181 13.216 13.7118 13.2248 13.7035L13.2681 13.6477L13.2301 13.592L13.222 13.5916L13.2245 13.6249C13.2241 13.6331 13.2209 13.6426 13.215 13.6533L13.1938 13.673C13.188 13.681 13.1797 13.6847 13.1689 13.6841C13.1471 13.6858 13.127 13.6821 13.1085 13.6729L13.0659 13.6294Z" fill="#485654"/>
<path d="M10.0819 9.79884L11.6283 11.51L13.216 13.2107L13.3916 13.4429C13.4681 13.5419 13.5594 13.6705 13.6675 13.7876C13.6864 13.8175 13.7113 13.8063 13.7348 13.824C13.8058 13.8689 13.8792 13.9471 13.9289 14.0116L14.4005 14.5936C14.4313 14.6282 14.4354 14.656 14.4127 14.6769L14.1279 15.0268C14.0769 15.0739 14.019 15.0958 13.9966 15.0533C13.8819 14.8201 13.5783 14.4616 13.4696 14.1873C13.4087 14.0188 13.3336 13.7213 13.2721 13.6479C13.1955 13.5531 12.9999 13.3117 12.8192 13.1L12.7807 13.0567C12.7733 13.0398 12.7619 13.0254 12.7462 13.0136C11.8416 11.9757 10.7971 10.7198 10.0355 9.83377L10.0819 9.79884Z" fill="#6C301E" stroke="#351710" stroke-width="0.00818831" stroke-linejoin="round"/>
<path d="M13.3008 13.2192C13.347 13.2159 13.3871 13.1986 13.4211 13.1672C13.3717 13.1813 13.3223 13.1954 13.2787 13.1726L13.3008 13.2192Z" fill="#8C959D" stroke="#485654" stroke-width="0.00409416"/>
<path d="M8.44605 8.50947L9.68261 9.65495C9.69545 9.66938 9.70761 9.66998 9.71908 9.65676L9.84133 9.56357L9.84252 9.5388L9.78857 9.4782C9.78343 9.47243 9.78518 9.46424 9.79381 9.45364L9.81931 9.43009C9.83025 9.42787 9.83957 9.4311 9.84728 9.43975L9.90103 9.50449C9.93331 9.50885 9.9513 9.52905 9.95498 9.56509C10.6959 10.3756 11.3354 11.0983 12.0728 11.8963L12.9457 12.8333C12.9761 12.8762 13.1142 12.9617 13.2044 13.0282C13.2385 13.052 13.2618 13.0739 13.2744 13.0938L13.3364 13.3244C13.3583 13.3751 13.4298 13.4945 13.4294 13.5028L13.2681 13.6478L12.8419 13.1343L12.8074 13.0912C12.8391 13.0506 12.8764 13.0148 12.9181 12.985L12.9475 12.9658C12.948 12.9548 12.9417 12.9448 12.9286 12.9359C11.9097 11.8261 10.8065 10.6087 9.91189 9.61673L9.87137 9.61471L9.74772 9.73679C9.71939 9.76296 9.69617 9.76732 9.67805 9.74987L8.442 8.50927L8.44605 8.50947Z" fill="#B2B6BA" stroke="#485654" stroke-width="0.00818831"/>
<path d="M13.3327 13.3159L13.3084 13.3147L13.2883 13.3096L13.2647 13.2091L13.2371 13.1084C13.2456 13.1006 13.2553 13.0955 13.2662 13.0933C13.2554 13.0928 13.2457 13.0978 13.2371 13.1084L13.2607 13.2089L13.2843 13.3094L13.3082 13.3188L13.3327 13.3159Z" fill="#485654"/>
<path d="M13.0444 13.2314C13.0309 13.2308 13.0206 13.2191 13.0212 13.2054C13.0219 13.1918 13.0333 13.1812 13.0467 13.1819C13.0602 13.1826 13.0705 13.1942 13.0699 13.2079C13.0692 13.2215 13.0578 13.2321 13.0444 13.2314Z" stroke="#485654" stroke-width="0.00818831"/>
<path d="M13.1908 13.3957C13.1774 13.3951 13.167 13.3834 13.1677 13.3698C13.1683 13.3561 13.1797 13.3455 13.1932 13.3462C13.2066 13.3469 13.2169 13.3585 13.2163 13.3722C13.2156 13.3859 13.2042 13.3964 13.1908 13.3957Z" stroke="#485654" stroke-width="0.00818831"/>
<path d="M10.5893 10.2255L10.4406 10.3629L10.4175 10.3369L10.566 10.2036L10.5891 10.2296L10.5893 10.2255Z" fill="#8C959D" stroke="#485654" stroke-width="0.00409416"/>
<path d="M10.1359 14.6984C9.74345 14.6031 9.3332 14.6159 8.94727 14.7356C9.6085 15.0661 10.144 14.9256 10.1318 14.6942L10.1359 14.6984ZM13.7463 14.8347C14.0627 14.6984 14.8335 14.8058 14.9268 14.8761C14.2696 15.2025 13.7301 15.062 13.7422 14.8347H13.7463Z" fill="#67923D" stroke="#24420E" stroke-width="0.0081883"/>
<path d="M10.1277 14.7024C10.1399 14.9296 9.6085 15.0701 8.94727 14.7396C9.56793 14.7809 10.075 14.7561 10.1237 14.6982L10.1277 14.7024ZM13.7463 14.8387C13.7382 15.066 14.2696 15.2065 14.9308 14.8759C14.3102 14.9172 13.8031 14.8924 13.7503 14.8346L13.7463 14.8387Z" fill="#406325" stroke="#24420E" stroke-width="0.0081883"/>
<path d="M13.158 14.4753C12.3406 13.3224 11.2873 12.3638 10.0709 11.6656C10.2129 11.6573 10.5334 11.8267 10.6673 11.9135C11.6368 12.5498 12.4643 13.3928 13.3284 14.3844C13.2797 14.434 13.2473 14.4671 13.1905 14.5084L13.158 14.4753Z" fill="#B2B6BA" stroke="#485654" stroke-width="0.0081883"/>
<path d="M13.2433 14.467L13.1783 14.5166C12.2453 13.2935 10.9472 12.1242 10.0669 11.6655C11.2879 12.2357 12.3143 13.3886 13.2311 14.4588H13.2351L13.2433 14.467Z" fill="#8C959D"/>
<path d="M13.2433 14.467L13.1783 14.5166C12.7472 13.9526 12.2695 13.4273 11.7504 12.9464C11.3623 12.5835 10.9502 12.248 10.5172 11.9423C10.3711 11.8432 10.221 11.7509 10.0669 11.6655V11.6572C10.3914 11.8115 10.6957 11.9947 10.9796 12.2068C11.2636 12.4161 11.534 12.6448 11.791 12.8927C12.0474 13.1383 12.295 13.3933 12.5333 13.6571C12.774 13.9243 13.0093 14.1929 13.2392 14.4629L13.2433 14.467ZM13.2433 14.467C13.0107 14.1943 12.774 13.9271 12.5333 13.6654C12.2951 13.4014 12.0475 13.1464 11.791 12.901C11.534 12.6558 11.2636 12.4272 10.9796 12.215C10.6957 12.0029 10.3928 11.8211 10.071 11.6696V11.6614C10.3769 11.8383 10.671 12.0357 10.9512 12.2522C11.51 12.6867 12.0287 13.1721 12.5009 13.7026C12.739 13.9656 12.9664 14.2385 13.1824 14.5207L13.2433 14.467Z" fill="#485654"/>
<path d="M13.5232 14.2686C13.442 14.2933 13.3704 14.325 13.3082 14.3636C13.3 14.4214 13.227 14.4876 13.1662 14.4999L13.1418 14.4669H13.1337L13.1094 14.4793C13.0823 14.4765 13.0607 14.4903 13.0445 14.5206C13.0282 14.5619 13.0566 14.6156 13.0931 14.6487C13.1337 14.6776 13.1499 14.69 13.1905 14.69C13.2351 14.6776 13.2595 14.6363 13.2716 14.6239C13.4217 14.8098 13.5353 14.9131 13.726 15.0619C13.8112 15.0619 13.8558 15.0082 13.8274 14.9462C13.8166 14.9242 13.799 14.9159 13.7747 14.9214V14.9008C13.872 14.8098 13.9166 14.6942 13.8112 14.4958C13.7219 14.3305 13.6205 14.2727 13.5272 14.2727H13.5232V14.2686ZM13.7747 14.4586C13.7936 14.4862 13.8071 14.5137 13.8152 14.5413C13.8801 14.6652 13.8274 14.8181 13.7219 14.8636H13.7138C13.73 14.8346 13.6814 14.7727 13.657 14.7933C13.6692 14.7644 13.6286 14.7107 13.5962 14.7231C13.6124 14.6942 13.5759 14.6446 13.5394 14.6611C13.5556 14.6322 13.5272 14.5867 13.4866 14.595C13.4988 14.5619 13.4704 14.5206 13.4339 14.5289C13.4339 14.4986 13.4271 14.4779 13.4136 14.4669C13.4542 14.4338 13.5069 14.3801 13.5516 14.3553C13.6611 14.3057 13.73 14.3966 13.7747 14.4586Z" fill="#FAB81C" stroke="#6C301E" stroke-width="0.0081883"/>
<path d="M13.8233 14.5911C13.8017 14.5746 13.7936 14.5594 13.799 14.5456C13.8098 14.5291 13.826 14.5264 13.8477 14.5374C13.8693 14.5484 13.8788 14.5622 13.8761 14.5787C13.8652 14.5952 13.8477 14.5994 13.8233 14.5911Z" fill="#FAB81C" stroke="#6C301E" stroke-width="0.00409415"/>
<path d="M13.8112 14.5496C13.7895 14.5358 13.7814 14.5193 13.7868 14.5C13.7977 14.4862 13.8139 14.4849 13.8355 14.4959C13.8572 14.5069 13.8666 14.5207 13.8639 14.5372C13.8531 14.5537 13.8355 14.5579 13.8112 14.5496Z" fill="#FAB81C" stroke="#6C301E" stroke-width="0.00409415"/>
<path d="M13.7868 14.5C13.7652 14.489 13.7571 14.4752 13.7625 14.4587C13.7733 14.4421 13.7895 14.438 13.8112 14.4463C13.8328 14.4628 13.8409 14.4779 13.8355 14.4917C13.8301 14.5055 13.8139 14.5083 13.7868 14.5Z" fill="#FAB81C" stroke="#6C301E" stroke-width="0.00409415"/>
<path d="M13.7544 14.4588C13.7327 14.445 13.7246 14.4298 13.73 14.4133C13.7408 14.3995 13.7571 14.3968 13.7787 14.405C13.8003 14.4216 13.8098 14.4367 13.8071 14.4505C13.7963 14.467 13.7787 14.4698 13.7544 14.4588Z" fill="#FAB81C" stroke="#6C301E" stroke-width="0.00409415"/>
<path d="M13.7138 14.4174C13.6894 14.4037 13.6813 14.3899 13.6894 14.3761V14.3679C13.6976 14.372 13.7178 14.3761 13.7138 14.3637V14.3555L13.7381 14.3637C13.7598 14.3803 13.7679 14.3954 13.7625 14.4092C13.7571 14.423 13.7408 14.4257 13.7138 14.4174Z" fill="#FAB81C" stroke="#6C301E" stroke-width="0.00409415"/>
<path d="M13.2716 14.6241C13.3 14.5497 13.3527 14.4836 13.4136 14.467L13.2716 14.6241ZM13.2797 14.6365C13.3325 14.6447 13.4136 14.5827 13.4339 14.529L13.2797 14.6365ZM13.3284 14.6943C13.3933 14.7108 13.4623 14.6447 13.4907 14.5951L13.3284 14.6943ZM13.3893 14.7604C13.4704 14.7604 13.515 14.7067 13.5393 14.6612L13.3893 14.7604ZM13.4501 14.8224C13.5191 14.8224 13.5799 14.7687 13.5961 14.7232L13.4501 14.8224ZM13.5069 14.8802C13.5826 14.8747 13.6326 14.8472 13.657 14.7976L13.5069 14.8802ZM13.5759 14.9381C13.6448 14.9422 13.6976 14.9009 13.7138 14.8637L13.5759 14.9381ZM13.6489 15.0001C13.7138 15.0001 13.7584 14.9588 13.7746 14.9174L13.6489 15.0001Z" fill="#FAB81C"/>
<path d="M13.2716 14.6241C13.2896 14.5718 13.322 14.5259 13.3649 14.4918C13.3757 14.4808 13.392 14.4726 13.4136 14.467L13.3649 14.4918L13.3243 14.5332C13.3021 14.5604 13.2843 14.5911 13.2716 14.6241ZM13.2797 14.6365C13.2959 14.6365 13.3122 14.6337 13.3284 14.6282L13.369 14.6034L13.4095 14.5703C13.3876 14.5962 13.3597 14.616 13.3284 14.6282C13.3122 14.6365 13.2959 14.6392 13.2797 14.6365ZM13.3284 14.6943H13.3771L13.4176 14.6695C13.4455 14.6499 13.4689 14.6245 13.4866 14.5951L13.4582 14.6365L13.4217 14.6736L13.3811 14.6943H13.3284ZM13.3893 14.7604C13.4055 14.7604 13.4204 14.7577 13.4339 14.7522L13.4744 14.7315L13.515 14.6984L13.5393 14.6571C13.5275 14.6891 13.5063 14.7165 13.4785 14.7356L13.4379 14.7563L13.3893 14.7604ZM13.4501 14.8224C13.4826 14.8224 13.5109 14.8114 13.5353 14.7893C13.5601 14.7722 13.5809 14.7496 13.5961 14.7232C13.5934 14.737 13.5853 14.7508 13.5718 14.7645L13.5393 14.7935L13.4988 14.8183L13.4501 14.8224ZM13.5069 14.8802C13.5231 14.8802 13.538 14.8775 13.5515 14.872C13.5813 14.8646 13.609 14.8505 13.6326 14.8307L13.657 14.7935L13.6326 14.8348C13.6218 14.8458 13.6083 14.8541 13.5921 14.8596C13.565 14.8761 13.538 14.883 13.5109 14.8802H13.5069ZM13.5759 14.9381C13.604 14.937 13.6316 14.93 13.657 14.9174L13.6894 14.8968C13.7003 14.8858 13.7084 14.8747 13.7138 14.8637C13.7111 14.8775 13.7043 14.8885 13.6935 14.8968C13.677 14.9117 13.6578 14.9231 13.6368 14.9302C13.6159 14.9373 13.5938 14.94 13.5718 14.9381H13.5759ZM13.6489 15.0001L13.6894 14.9959L13.7219 14.9794L13.7503 14.9546L13.7746 14.9216C13.765 14.9469 13.7475 14.9682 13.7248 14.9824C13.702 14.9966 13.6754 15.0028 13.6489 15.0001Z" fill="#6C301E"/>
<path d="M10.6994 14.3672C11.5826 13.2656 12.6898 12.3723 13.9447 11.7488C13.8034 11.732 13.4737 11.8818 13.335 11.9603C12.3301 12.5369 11.4549 13.3284 10.5346 14.2661C10.5803 14.3186 10.6108 14.3535 10.6651 14.3982L10.6994 14.3672Z" fill="#B2B6BA" stroke="#485654" stroke-width="0.00818831"/>
<path d="M10.6148 14.3537L10.6768 14.4071C11.6794 13.2426 13.0433 12.1537 13.9487 11.749C12.6966 12.2445 11.605 13.3333 10.6275 14.3462L10.6234 14.346L10.6148 14.3537Z" fill="#8C959D"/>
<path d="M10.6149 14.3537L10.6768 14.4071C11.1399 13.8702 11.6474 13.3746 12.1936 12.9259C12.6022 12.5871 13.033 12.2771 13.4831 11.9981C13.6347 11.908 13.7899 11.8249 13.9487 11.749L13.9492 11.7407C13.6163 11.8751 13.3019 12.0396 13.0061 12.2342C12.7104 12.426 12.4271 12.6379 12.1562 12.8699C11.886 13.0996 11.6239 13.3391 11.3707 13.5881C11.1148 13.8403 10.8643 14.0942 10.6191 14.3498L10.6149 14.3537ZM10.6149 14.3537C10.8629 14.0955 11.1147 13.843 11.3702 13.5963C11.6233 13.3472 11.8854 13.1077 12.1558 12.8781C12.4265 12.6489 12.7098 12.437 13.0056 12.2424C13.3014 12.0478 13.6144 11.8847 13.9444 11.7529L13.9449 11.7446C13.6292 11.9027 13.3242 12.082 13.0318 12.2813C12.4487 12.6812 11.9027 13.1345 11.4004 13.6354C11.1474 13.8836 10.9045 14.1423 10.6725 14.411L10.6149 14.3537Z" fill="#485654"/>
<path d="M10.347 14.1388C10.4265 14.1684 10.4962 14.2044 10.5561 14.2466C10.5608 14.3049 10.6298 14.3753 10.6898 14.3913L10.7161 14.3598L10.7242 14.3603L10.7477 14.3741C10.7749 14.373 10.7957 14.3881 10.8101 14.4193C10.8239 14.4615 10.7924 14.5134 10.7541 14.5442C10.7119 14.5706 10.695 14.582 10.6545 14.5796C10.6107 14.5645 10.5888 14.5218 10.5773 14.5087C10.4167 14.6852 10.2973 14.7815 10.0983 14.9185C10.0133 14.9133 9.97184 14.857 10.0038 14.7968C10.0159 14.7755 10.0339 14.7683 10.0579 14.7753L10.0591 14.7547C9.96719 14.658 9.92938 14.5398 10.0462 14.3482C10.1449 14.1886 10.2495 14.137 10.3427 14.1427L10.3467 14.1429L10.347 14.1388ZM10.0848 14.3133C10.0643 14.3397 10.0492 14.3664 10.0395 14.3934C9.96751 14.5132 10.0112 14.669 10.1139 14.7207L10.122 14.7212C10.1075 14.6914 10.1597 14.6324 10.1828 14.6545C10.1723 14.6249 10.2159 14.5737 10.2476 14.5881C10.2331 14.5582 10.2724 14.5109 10.3079 14.5296C10.2934 14.4998 10.3244 14.4561 10.3644 14.4668C10.3542 14.4331 10.3849 14.3936 10.4209 14.404C10.4227 14.3738 10.4306 14.3536 10.4447 14.3434C10.4062 14.3079 10.3567 14.2511 10.3136 14.2237C10.2071 14.1676 10.133 14.2541 10.0848 14.3133Z" fill="#FAB81C" stroke="#6C301E" stroke-width="0.00818831"/>
<path d="M10.0286 14.4424C10.0511 14.4272 10.0601 14.4126 10.0555 14.3985C10.0457 14.3814 10.0296 14.3777 10.0074 14.3873C9.98515 14.397 9.97489 14.4102 9.97663 14.4269C9.98647 14.444 10.0038 14.4492 10.0286 14.4424Z" fill="#FAB81C" stroke="#6C301E" stroke-width="0.00409416"/>
<path d="M10.0431 14.4019C10.0655 14.3895 10.0746 14.3735 10.0703 14.3539C10.0603 14.3395 10.0442 14.3371 10.0219 14.3468C9.99969 14.3565 9.98944 14.3697 9.99118 14.3864C10.001 14.4035 10.0183 14.4087 10.0431 14.4019Z" fill="#FAB81C" stroke="#6C301E" stroke-width="0.00409416"/>
<path d="M10.0703 14.3538C10.0925 14.3441 10.1014 14.3308 10.097 14.314C10.0871 14.2969 10.0712 14.2918 10.0491 14.2987C10.0265 14.3139 10.0176 14.3285 10.0222 14.3426C10.0267 14.3567 10.0428 14.3604 10.0703 14.3538Z" fill="#FAB81C" stroke="#6C301E" stroke-width="0.00409416"/>
<path d="M10.1051 14.3145C10.1275 14.3021 10.1365 14.2874 10.132 14.2706C10.122 14.2562 10.106 14.2525 10.0839 14.2594C10.0614 14.2746 10.051 14.2892 10.0529 14.3031C10.0628 14.3202 10.0801 14.324 10.1051 14.3145Z" fill="#FAB81C" stroke="#6C301E" stroke-width="0.00409416"/>
<path d="M10.148 14.2758C10.1731 14.2635 10.182 14.2503 10.1747 14.236L10.1752 14.2278C10.1669 14.2314 10.1464 14.2343 10.1511 14.2222L10.1516 14.2139L10.1268 14.2207C10.1043 14.2359 10.0953 14.2505 10.0999 14.2646C10.1045 14.2787 10.1205 14.2824 10.148 14.2758Z" fill="#FAB81C" stroke="#6C301E" stroke-width="0.00409416"/>
<path d="M10.5774 14.5088C10.5534 14.4328 10.5046 14.3636 10.4448 14.3435L10.5774 14.5088ZM10.5686 14.5207C10.5155 14.5257 10.4381 14.459 10.421 14.4041L10.5686 14.5207ZM10.5166 14.5755C10.4509 14.5881 10.3859 14.5179 10.3604 14.4667L10.5166 14.5755ZM10.452 14.6378C10.371 14.6329 10.3296 14.5766 10.308 14.5297L10.452 14.6378ZM10.3877 14.696C10.3188 14.6918 10.2612 14.6345 10.2477 14.5882L10.3877 14.696ZM10.3276 14.7503C10.2523 14.7402 10.204 14.7097 10.1826 14.6587L10.3276 14.7503ZM10.2554 14.8039C10.1863 14.8039 10.1361 14.7594 10.1221 14.7213L10.2554 14.8039ZM10.1789 14.8614C10.1141 14.8574 10.072 14.8135 10.0582 14.7713L10.1789 14.8614Z" fill="#FAB81C"/>
<path d="M10.5774 14.5088C10.5625 14.4555 10.5328 14.4078 10.492 14.3712C10.4818 14.3595 10.4661 14.3503 10.4448 14.3435L10.492 14.3712L10.5301 14.4149C10.5507 14.4434 10.5667 14.4751 10.5774 14.5088ZM10.5686 14.5207C10.5524 14.5197 10.5363 14.516 10.5205 14.5095L10.4814 14.4823L10.4428 14.4468C10.4632 14.4739 10.4899 14.4955 10.5205 14.5095C10.5362 14.5187 10.5522 14.5224 10.5686 14.5207ZM10.5166 14.5755L10.468 14.5725L10.429 14.5453C10.4024 14.5241 10.3804 14.4974 10.3645 14.4669L10.3904 14.5099L10.4247 14.5492L10.464 14.5723L10.5166 14.5755ZM10.452 14.6378C10.4358 14.6368 10.4211 14.6332 10.408 14.6269L10.3687 14.6038L10.3301 14.5683L10.3082 14.5256C10.3182 14.5582 10.3378 14.5869 10.3644 14.6077L10.4037 14.6307L10.452 14.6378ZM10.3877 14.696C10.3553 14.694 10.3276 14.6813 10.3046 14.6579C10.2808 14.6392 10.2613 14.6154 10.2477 14.5882C10.2496 14.6021 10.2569 14.6163 10.2696 14.6309L10.3003 14.6617L10.3393 14.6889L10.3877 14.696ZM10.3276 14.7503C10.3114 14.7493 10.2967 14.7457 10.2836 14.7394C10.2543 14.7302 10.2274 14.7144 10.205 14.6932L10.1828 14.6546L10.2047 14.6973C10.2149 14.709 10.2279 14.7181 10.2438 14.7245C10.2698 14.7427 10.2964 14.7512 10.3236 14.7501L10.3276 14.7503ZM10.2554 14.8039C10.2274 14.8011 10.2002 14.7924 10.1756 14.7784L10.1444 14.7558C10.1343 14.7441 10.1268 14.7326 10.1221 14.7213C10.124 14.7352 10.1301 14.7466 10.1404 14.7555C10.1559 14.7715 10.1745 14.784 10.195 14.7923C10.2155 14.8007 10.2374 14.8047 10.2595 14.8041L10.2554 14.8039ZM10.1789 14.8614L10.1387 14.8548L10.1072 14.8363L10.0803 14.8099L10.0579 14.7754C10.0661 14.8012 10.0823 14.8236 10.1042 14.8392C10.126 14.8547 10.1523 14.8625 10.1789 14.8614Z" fill="#6C301E"/>
<path d="M9.12983 9.51697C9.45174 9.34406 9.72425 9.08926 9.92088 8.77734C9.28804 8.95089 9.00002 9.36822 9.12983 9.5211V9.51697ZM15.0444 9.71118C14.9061 9.38639 14.6882 9.10324 14.4116 8.88891C14.5252 9.51697 14.8984 9.831 15.0444 9.71531V9.71118Z" fill="#406325" stroke="#24420E" stroke-width="0.0081883"/>
<path d="M9.12983 9.51675C8.99596 9.36799 9.28398 8.95479 9.91682 8.78125C9.47059 9.12834 9.13794 9.45063 9.12983 9.51675ZM15.0444 9.71095C14.8943 9.83491 14.5292 9.52088 14.4156 8.89695C14.7077 9.35147 14.9836 9.70269 15.0444 9.71095Z" fill="#67923D" stroke="#24420E" stroke-width="0.0081883"/>
<path d="M10.8743 12.7441C10.8743 12.7441 10.6268 12.773 10.5538 12.4218C10.4808 12.0458 10.7688 12.0086 10.7688 12.0086C10.7688 12.0086 11.0974 11.9714 11.3043 11.9673L11.3935 12.711L10.8743 12.7441Z" fill="url(#paint0_radial_2214_3459)" stroke="#999270" stroke-width="0.0081883"/>
<path d="M10.9067 12.6326C10.9067 12.6326 10.7444 12.6615 10.712 12.4012C10.6876 12.2152 10.8012 12.1904 10.8012 12.1904L11.1744 12.2565V12.5954L10.9067 12.6326Z" fill="url(#paint1_radial_2214_3459)" stroke="#999270" stroke-width="0.0081883"/>
<path d="M10.8012 12.1903C10.8012 12.1903 11.0446 12.1738 11.1663 12.1572L11.219 12.3928L10.931 12.4093C10.931 12.4093 10.9107 12.1985 10.8012 12.1903Z" fill="url(#paint2_radial_2214_3459)" stroke="#999270" stroke-width="0.0081883"/>
<path d="M10.7526 12.0127C10.7526 12.0127 11.0568 11.9342 11.0974 12.2771C11.1055 12.368 11.0568 12.5746 10.9067 12.6325L11.4706 12.5705L11.4179 11.9507L11.2312 11.9672C11.2312 11.9672 10.8256 11.9796 10.7526 12.0085V12.0127Z" fill="url(#paint3_radial_2214_3459)" stroke="#999270" stroke-width="0.0081883"/>
<path d="M10.8742 12.744C10.8742 12.744 12.9796 12.5994 13.1946 12.6076C13.8356 12.2523 13.1946 10.8515 12.6551 10.0665C12.716 9.88878 11.4422 9.49211 10.8702 9.5293C10.7945 9.5293 10.7241 9.53343 10.6592 9.5417C10.3469 9.57475 10.3428 9.98382 10.4686 10.2441C10.5903 10.4921 11.7018 12.5167 10.9229 12.7357L10.8742 12.744Z" fill="#F9F0AA" stroke="#999270" stroke-width="0.0081883"/>
<path d="M13.1297 10.8929C12.9878 10.5912 12.8174 10.302 12.6551 10.0665C12.716 9.88878 11.4422 9.49211 10.8702 9.5293C10.7945 9.5293 10.7241 9.53343 10.6592 9.5417C10.3469 9.57475 10.3428 9.98382 10.4686 10.2441C10.5091 10.3185 10.643 10.5747 10.7891 10.8929" fill="url(#paint4_linear_2214_3459)"/>
<path d="M13.1297 10.8929C12.9878 10.5912 12.8174 10.302 12.6551 10.0665C12.716 9.88878 11.4422 9.49211 10.8702 9.5293C10.7945 9.5293 10.7241 9.53343 10.6592 9.5417C10.3469 9.57475 10.3428 9.98382 10.4686 10.2441C10.5091 10.3185 10.643 10.5747 10.7891 10.8929" stroke="#999270" stroke-width="0.0081883"/>
<path d="M10.9878 11.3762C11.215 11.9795 11.3407 12.6158 10.9229 12.7356L10.8742 12.7439C10.8742 12.7439 12.9837 12.5993 13.1946 12.6075C13.5435 12.4133 13.511 11.9133 13.3244 11.3679" fill="url(#paint5_linear_2214_3459)"/>
<path d="M10.9878 11.3762C11.215 11.9795 11.3407 12.6158 10.9229 12.7356L10.8742 12.7439C10.8742 12.7439 12.9837 12.5993 13.1946 12.6075C13.5435 12.4133 13.511 11.9133 13.3244 11.3679" stroke="#999270" stroke-width="0.0081883"/>
<path d="M10.6795 9.66153C10.5294 9.66153 10.4888 9.81028 10.4929 9.90119C10.4969 10.1491 10.6795 10.1574 10.6795 10.1574L10.9229 10.145L11.0365 9.64087L10.6795 9.66153Z" fill="url(#paint6_radial_2214_3459)" stroke="#999270" stroke-width="0.0081883"/>
<path d="M10.6795 9.66153L11.0365 9.64087L11.0771 10.0169L10.7606 10.0334C10.7606 10.0334 10.8621 9.73177 10.6795 9.66153Z" fill="url(#paint7_linear_2214_3459)" stroke="#999270" stroke-width="0.0081883"/>
<path d="M12.6551 10.0664C12.9269 10.0251 12.9228 9.65324 12.7362 9.50035C12.1074 9.47556 11.2839 9.49622 10.6836 9.54167C10.7525 9.54167 10.9432 9.5582 10.9635 9.81025C10.9684 9.86497 10.9598 9.92007 10.9386 9.97057C10.9173 10.0211 10.8841 10.0654 10.8418 10.0995C10.7948 10.1354 10.7382 10.1556 10.6795 10.1573H10.8255L10.9472 10.1408C11.7991 10.0292 12.651 10.0664 12.651 10.0664H12.6551Z" fill="url(#paint8_linear_2214_3459)" stroke="#999270" stroke-width="0.0081883"/>
<path d="M11.1298 10.6491C11.1244 10.6353 11.1136 10.6243 11.0974 10.6161C11.0838 10.6188 11.0771 10.6133 11.0771 10.5995H11.1095L11.1744 10.5913C11.188 10.5995 11.188 10.6064 11.1744 10.6119C11.1542 10.6119 11.1663 10.6326 11.1704 10.645L11.2231 10.7689C11.2285 10.7855 11.238 10.7951 11.2515 10.7979L11.2961 10.7937C11.3043 10.7827 11.307 10.7689 11.3043 10.7524C11.3002 10.74 11.3245 10.7442 11.3245 10.7524L11.3408 10.8103C11.3408 10.8158 11.3354 10.8172 11.3245 10.8144L11.2028 10.8227C11.1907 10.8227 11.1704 10.8351 11.1623 10.8227C11.1623 10.8061 11.1866 10.8144 11.1866 10.802L11.1744 10.7607L11.1298 10.6491ZM11.3245 10.6326C11.3218 10.6216 11.3124 10.6119 11.2961 10.6037C11.2826 10.6064 11.2745 10.6009 11.2718 10.5871C11.2799 10.5816 11.2894 10.5816 11.3002 10.5871L11.3692 10.5789C11.3813 10.5789 11.3854 10.5995 11.3692 10.5954C11.3583 10.5982 11.3556 10.6078 11.3611 10.6243L11.4219 10.7648C11.4219 10.7758 11.4287 10.7841 11.4422 10.7896C11.453 10.7896 11.4625 10.7937 11.4706 10.802C11.4679 10.8103 11.4598 10.8116 11.4462 10.8061C11.4273 10.8061 11.4057 10.8089 11.3813 10.8144C11.3705 10.8144 11.3638 10.8103 11.3611 10.802C11.357 10.7896 11.3813 10.802 11.3854 10.7855C11.3854 10.7745 11.38 10.7607 11.3692 10.7442L11.3245 10.6367V10.6326ZM11.5071 10.6656C11.5125 10.6712 11.5193 10.6712 11.5274 10.6656C11.5409 10.6656 11.549 10.6601 11.5517 10.6491C11.5517 10.6271 11.5422 10.6106 11.5233 10.5995C11.5098 10.5913 11.4949 10.5885 11.4787 10.5913L11.4828 10.6119L11.5071 10.6656ZM11.5314 10.7318C11.5368 10.7455 11.545 10.7593 11.5558 10.7731C11.5666 10.7786 11.5774 10.7786 11.5882 10.7731C11.6017 10.7703 11.6072 10.7634 11.6045 10.7524C11.6017 10.7221 11.5855 10.7015 11.5558 10.6904H11.5152L11.5233 10.7111L11.5314 10.7318ZM11.4503 10.6326C11.4449 10.6161 11.4354 10.6023 11.4219 10.5913C11.4111 10.594 11.4016 10.5913 11.3935 10.583C11.3935 10.5706 11.4178 10.5789 11.426 10.5747C11.4625 10.5747 11.499 10.5623 11.5314 10.5747C11.5639 10.5858 11.5842 10.6078 11.5923 10.6409C11.5923 10.6574 11.5842 10.6684 11.5679 10.6739L11.5882 10.678C11.6153 10.6863 11.6342 10.7028 11.645 10.7276C11.6558 10.7442 11.6558 10.7621 11.645 10.7813C11.6261 10.7951 11.6072 10.8006 11.5882 10.7979C11.5585 10.7979 11.5274 10.8006 11.4949 10.8061C11.4828 10.8061 11.4787 10.7855 11.4949 10.7855C11.5057 10.7827 11.5084 10.7745 11.503 10.7607L11.4503 10.6367V10.6326ZM11.7505 10.5541C11.7613 10.5568 11.7681 10.5637 11.7708 10.5747L11.7829 10.6119C11.7721 10.6147 11.764 10.6092 11.7586 10.5954C11.7505 10.5844 11.741 10.5789 11.7302 10.5789H11.6815C11.6761 10.5871 11.6775 10.5954 11.6856 10.6037L11.7099 10.6615C11.7207 10.6615 11.7316 10.6574 11.7424 10.6491C11.7424 10.6409 11.7302 10.6202 11.7505 10.6243C11.7586 10.6353 11.764 10.6477 11.7667 10.6615L11.787 10.707C11.7748 10.7194 11.7667 10.7028 11.7627 10.6904C11.7518 10.6794 11.7383 10.6753 11.7221 10.678C11.7194 10.678 11.7194 10.6822 11.7221 10.6904L11.7464 10.7524C11.7573 10.7634 11.7708 10.7676 11.787 10.7648C11.8032 10.7676 11.8167 10.7621 11.8276 10.7483C11.8357 10.74 11.8154 10.7194 11.8276 10.7152C11.8411 10.718 11.8479 10.7262 11.8479 10.74C11.8479 10.7538 11.8519 10.7648 11.86 10.7731C11.8573 10.7813 11.8519 10.7841 11.8438 10.7813L11.7221 10.7896C11.7059 10.7896 11.6856 10.7979 11.6815 10.7813C11.6815 10.7689 11.7099 10.7772 11.7059 10.7607L11.6896 10.7194L11.645 10.6078C11.6396 10.5913 11.6288 10.5816 11.6126 10.5789C11.6045 10.5789 11.5882 10.5789 11.5963 10.5623H11.6369L11.7505 10.5541ZM11.8438 10.6078C11.8411 10.594 11.8316 10.5816 11.8154 10.5706C11.8019 10.5734 11.7924 10.5679 11.787 10.5541C11.8005 10.5513 11.814 10.5513 11.8276 10.5541C11.86 10.5541 11.8925 10.5417 11.9249 10.5541C11.9601 10.5623 11.9817 10.5871 11.9898 10.6285C11.9898 10.645 11.9804 10.656 11.9614 10.6615C11.9493 10.6615 11.9695 10.6656 11.9736 10.6698C12.0007 10.6835 12.0196 10.7042 12.0304 10.7318C12.0345 10.74 12.0507 10.7607 12.0547 10.74C12.0588 10.7194 12.0791 10.74 12.075 10.7524C12.0723 10.7689 12.0629 10.7772 12.0466 10.7772C12.0304 10.7772 12.0155 10.7689 12.002 10.7524C11.9885 10.7249 11.9709 10.7015 11.9493 10.6822C11.9447 10.6785 11.9395 10.6759 11.9339 10.6745C11.9283 10.673 11.9225 10.6729 11.9168 10.6739V10.6946L11.9412 10.7442C11.952 10.7552 11.9655 10.7593 11.9817 10.7565C11.9939 10.7607 11.9898 10.7813 11.9736 10.7772H11.9046C11.8925 10.7855 11.8681 10.7772 11.8762 10.7648C11.8925 10.7648 11.8992 10.7579 11.8965 10.7442L11.856 10.6367L11.8438 10.6078ZM11.9006 10.6491C11.9114 10.6519 11.9236 10.6519 11.9371 10.6491C11.9479 10.6436 11.9506 10.634 11.9452 10.6202C11.9398 10.5982 11.9276 10.5816 11.9087 10.5706C11.9006 10.5706 11.8762 10.5623 11.8722 10.5747L11.9006 10.6409V10.6491ZM12.1927 10.7152C12.1981 10.729 12.2062 10.7386 12.217 10.7442C12.2278 10.7442 12.2373 10.7483 12.2454 10.7565C12.2427 10.7648 12.2346 10.7676 12.2211 10.7648H12.1562C12.1426 10.7703 12.1345 10.7662 12.1318 10.7524C12.1399 10.7442 12.1602 10.7524 12.1602 10.7359L12.1399 10.6904L12.0953 10.5706C12.0872 10.5596 12.0777 10.5555 12.0669 10.5582C12.0507 10.5555 12.0412 10.561 12.0385 10.5747C12.0439 10.5885 12.0439 10.5995 12.0385 10.6078C12.0277 10.605 12.0209 10.5982 12.0182 10.5871C12.0155 10.5761 12.0101 10.5623 12.002 10.5458C12.0074 10.5403 12.0142 10.5389 12.0223 10.5417L12.1927 10.5334C12.2062 10.5334 12.2129 10.5403 12.2129 10.5541L12.2292 10.5954C12.2211 10.6037 12.2129 10.5995 12.2048 10.583C12.1967 10.5665 12.1846 10.5568 12.1683 10.5541C12.1575 10.5541 12.1467 10.5568 12.1359 10.5623L12.144 10.5913L12.1927 10.7152ZM12.3468 10.678C12.3414 10.6808 12.3401 10.6863 12.3428 10.6946V10.7276C12.3509 10.7386 12.3617 10.7442 12.3752 10.7442C12.3833 10.7442 12.3793 10.7648 12.3671 10.7607H12.3184C12.3063 10.7648 12.286 10.7565 12.2981 10.7442C12.3063 10.7442 12.313 10.74 12.3184 10.7318V10.5252C12.3292 10.5169 12.3374 10.5196 12.3428 10.5334L12.4888 10.7194C12.4969 10.7304 12.5077 10.7359 12.5213 10.7359C12.5334 10.7359 12.5375 10.7565 12.5213 10.7524H12.4604C12.4496 10.7552 12.4401 10.7552 12.432 10.7524C12.4266 10.7442 12.4293 10.7386 12.4401 10.7359C12.4523 10.7359 12.4401 10.7194 12.4361 10.7111L12.4117 10.678H12.3468ZM12.3914 10.6574C12.3969 10.6574 12.3969 10.6546 12.3914 10.6491L12.3387 10.5789V10.6615H12.3914V10.6574ZM12.5172 10.583C12.5131 10.5665 12.505 10.5417 12.4847 10.5417C12.4685 10.5417 12.4618 10.5362 12.4645 10.5252H12.5334C12.5605 10.5196 12.5875 10.521 12.6146 10.5293C12.6795 10.5541 12.72 10.6009 12.7363 10.6698C12.7363 10.6973 12.7281 10.7194 12.7119 10.7359C12.6795 10.7524 12.6457 10.7565 12.6105 10.7483L12.5537 10.7524C12.5415 10.7524 12.5375 10.7318 12.5537 10.7359C12.5672 10.7304 12.5699 10.7207 12.5618 10.707L12.5172 10.583ZM12.5983 10.6863C12.601 10.7001 12.6078 10.7139 12.6186 10.7276H12.6592C12.6781 10.7221 12.6876 10.7097 12.6876 10.6904C12.6858 10.66 12.6775 10.6304 12.6632 10.6037C12.647 10.5761 12.6227 10.5568 12.5902 10.5458H12.5497V10.5623L12.5983 10.6863ZM11.7424 11.1987C11.7451 11.2124 11.7559 11.2207 11.7748 11.2235C11.7829 11.2235 11.8032 11.2235 11.8032 11.24C11.7924 11.2455 11.7816 11.2455 11.7708 11.24L11.7099 11.2483H11.6734C11.6653 11.2427 11.6667 11.2372 11.6775 11.2317C11.691 11.2317 11.6991 11.2262 11.7018 11.2152L11.6937 11.1821L11.645 11.0664C11.6423 11.0554 11.6328 11.0513 11.6166 11.0541C11.6058 11.0568 11.5963 11.0541 11.5882 11.0458C11.5882 11.0334 11.6085 11.0375 11.6166 11.0293L11.6572 11.0169C11.6653 11.0169 11.6694 11.021 11.6694 11.0293L11.7424 11.1987ZM11.7708 11.0127H11.8519C11.8681 11.0127 11.86 10.9921 11.8681 10.9921C11.8817 10.9976 11.8871 11.0072 11.8844 11.021C11.8844 11.0403 11.8762 11.0485 11.86 11.0458H11.7992L11.8195 11.0954L11.8438 11.0871C11.8844 11.0871 11.933 11.1119 11.9493 11.1532C11.9601 11.1753 11.9601 11.1959 11.9493 11.2152C11.933 11.2345 11.9114 11.2427 11.8844 11.24C11.8627 11.24 11.8438 11.2317 11.8276 11.2152C11.8235 11.2069 11.8235 11.1863 11.8357 11.1904C11.8546 11.1904 11.8641 11.1987 11.8641 11.2152C11.8722 11.2207 11.8817 11.2221 11.8925 11.2193C11.906 11.2193 11.9141 11.2124 11.9168 11.1987C11.9168 11.1766 11.9101 11.1574 11.8965 11.1408C11.8884 11.1243 11.8708 11.1147 11.8438 11.1119L11.8113 11.116C11.8005 11.1133 11.7951 11.1064 11.7951 11.0954L11.7667 11.0169L11.7748 11.0127H11.7708ZM12.0507 11.0541C12.0453 11.0348 12.0331 11.021 12.0142 11.0127C12.0061 11.0127 11.9858 11.0086 11.9979 10.9962H12.0629C12.0926 10.9907 12.121 10.9921 12.148 11.0003C12.2129 11.0251 12.2535 11.072 12.2697 11.1408C12.2724 11.1684 12.263 11.1904 12.2413 11.2069C12.2116 11.218 12.1791 11.2221 12.144 11.2193L12.0912 11.2276C12.0791 11.2276 12.075 11.2069 12.0912 11.2069C12.1021 11.2042 12.1048 11.1945 12.0994 11.178L12.0507 11.0541ZM12.1318 11.1574C12.1372 11.1711 12.1453 11.1849 12.1562 11.1987H12.1967C12.2129 11.1904 12.2211 11.1766 12.2211 11.1574C12.2211 11.1298 12.2116 11.1009 12.1927 11.0706C12.1737 11.0403 12.1494 11.0224 12.1196 11.0169H12.0791V11.0334L12.1318 11.1574ZM12.3914 10.9797C12.4023 10.9824 12.409 10.9893 12.4117 11.0003C12.4144 11.0114 12.4185 11.0224 12.4239 11.0334C12.4131 11.0417 12.405 11.0375 12.3996 11.021C12.3968 11.01 12.3887 11.0031 12.3752 11.0003H12.3225C12.3198 11.0114 12.3198 11.0196 12.3225 11.0251L12.3468 11.083C12.3603 11.083 12.3712 11.0802 12.3793 11.0747C12.3874 11.0664 12.3671 11.0458 12.3874 11.0499C12.3982 11.0554 12.4036 11.0664 12.4036 11.083L12.4239 11.1284C12.4198 11.145 12.4036 11.1284 12.3996 11.116C12.3914 11.105 12.3806 11.1009 12.3671 11.1036C12.3563 11.1036 12.3536 11.1064 12.359 11.1119L12.3833 11.1739C12.3941 11.1849 12.4077 11.189 12.4239 11.1863C12.4428 11.1863 12.4563 11.1821 12.4645 11.1739C12.4726 11.1656 12.4563 11.1491 12.4645 11.1408C12.4807 11.1436 12.4874 11.1505 12.4847 11.1615L12.4969 11.2028H12.4807L12.3549 11.2111C12.3414 11.2166 12.3292 11.2152 12.3184 11.2069C12.3103 11.1904 12.3387 11.1987 12.3428 11.1863L12.3306 11.1491L12.286 11.0293C12.2806 11.0155 12.2697 11.0058 12.2535 11.0003C12.2454 11.0003 12.2292 11.0003 12.2373 10.9838H12.2779L12.3914 10.9797ZM11.288 11.5706C11.2961 11.5898 11.3097 11.6009 11.3286 11.6036C11.3638 11.6119 11.3935 11.627 11.4178 11.6491C11.4314 11.6656 11.4381 11.6849 11.4381 11.7069C11.4354 11.7289 11.4219 11.7427 11.3976 11.7482C11.3759 11.7565 11.3529 11.7551 11.3286 11.7441C11.3205 11.74 11.3245 11.7606 11.3083 11.7565C11.3029 11.7455 11.3002 11.7331 11.3002 11.7193L11.284 11.678C11.2894 11.6697 11.2961 11.6725 11.3043 11.6862C11.3178 11.7138 11.3394 11.7289 11.3692 11.7317C11.3881 11.7317 11.3989 11.7234 11.4016 11.7069C11.3989 11.6849 11.3881 11.6683 11.3692 11.6573C11.3421 11.6491 11.3151 11.638 11.288 11.6243C11.2765 11.6175 11.2667 11.6079 11.2596 11.5964C11.2525 11.5849 11.2484 11.5717 11.2475 11.5582C11.2502 11.5389 11.261 11.5265 11.2799 11.521C11.2989 11.5155 11.3205 11.5155 11.3448 11.521C11.3502 11.5155 11.3583 11.5141 11.3692 11.5168C11.3692 11.5251 11.3719 11.5334 11.3773 11.5416L11.3894 11.5788C11.3786 11.5843 11.3719 11.5816 11.3692 11.5706C11.3583 11.5513 11.3448 11.5403 11.3286 11.5375C11.3124 11.5375 11.2989 11.5416 11.288 11.5499V11.5706ZM11.5558 11.5003C11.5693 11.5031 11.5761 11.5099 11.5761 11.521L11.5842 11.554C11.5788 11.5623 11.572 11.5595 11.5639 11.5458C11.5612 11.5347 11.5517 11.5279 11.5355 11.5251H11.4868C11.4841 11.5361 11.4841 11.5444 11.4868 11.5499L11.5071 11.6077C11.5206 11.6077 11.5314 11.605 11.5395 11.5995C11.5477 11.5912 11.5314 11.5747 11.5436 11.5706C11.5571 11.5761 11.5639 11.5857 11.5639 11.5995C11.5666 11.616 11.572 11.6339 11.5801 11.6532C11.572 11.6615 11.5652 11.6573 11.5598 11.6408C11.5544 11.6298 11.5436 11.6256 11.5274 11.6284C11.5166 11.6284 11.5125 11.6312 11.5152 11.6367L11.5395 11.6986C11.545 11.7097 11.5544 11.7138 11.5679 11.711C11.5869 11.711 11.6031 11.7069 11.6166 11.6986C11.6193 11.6876 11.6193 11.6766 11.6166 11.6656C11.6301 11.6601 11.6383 11.6642 11.641 11.678L11.6491 11.7193C11.6464 11.7276 11.641 11.7303 11.6328 11.7276L11.5111 11.7358C11.4949 11.7358 11.4787 11.7482 11.4706 11.7358C11.4706 11.7193 11.4909 11.7234 11.4949 11.711C11.4949 11.7028 11.4922 11.6918 11.4868 11.678L11.4462 11.554C11.4462 11.5403 11.4368 11.532 11.4178 11.5292C11.4043 11.5292 11.3989 11.5237 11.4016 11.5127H11.4422L11.5558 11.5003ZM11.7262 11.6739C11.7316 11.6876 11.7397 11.6973 11.7505 11.7028C11.7667 11.7 11.7775 11.7028 11.7829 11.711C11.7829 11.7276 11.7627 11.7193 11.7545 11.7193C11.7329 11.7193 11.7113 11.7221 11.6896 11.7276C11.6788 11.7276 11.6707 11.7248 11.6653 11.7193C11.6653 11.7028 11.6856 11.711 11.6896 11.7028L11.6856 11.6697L11.645 11.5458C11.6396 11.5292 11.6301 11.5196 11.6166 11.5168C11.6031 11.5196 11.5963 11.5141 11.5963 11.5003C11.6017 11.4976 11.6112 11.4976 11.6247 11.5003C11.6518 11.4948 11.6815 11.492 11.714 11.492C11.7288 11.4931 11.7431 11.4982 11.7553 11.507C11.7675 11.5157 11.777 11.5277 11.7829 11.5416C11.7911 11.5609 11.7911 11.5788 11.7829 11.5953C11.7613 11.6091 11.7383 11.6174 11.714 11.6201C11.7086 11.6201 11.7086 11.6243 11.714 11.6325L11.7262 11.6739ZM11.7018 11.5995H11.7302C11.7437 11.594 11.7491 11.5843 11.7464 11.5706C11.7464 11.5513 11.7397 11.5347 11.7262 11.521C11.7126 11.5072 11.6978 11.5044 11.6815 11.5127C11.6788 11.5182 11.6788 11.5251 11.6815 11.5334L11.7018 11.5995ZM11.9533 11.6615C11.9533 11.6725 11.9601 11.6807 11.9736 11.6862C11.9871 11.6862 11.9966 11.6904 12.002 11.6986C12.0101 11.711 11.9817 11.7069 11.9736 11.7069L11.9087 11.711C11.8979 11.711 11.8911 11.7069 11.8884 11.6986C11.8965 11.6904 11.9168 11.6986 11.9168 11.6821L11.9046 11.6325L11.8641 11.5127C11.8614 11.5044 11.8519 11.5017 11.8357 11.5044C11.8249 11.5044 11.8154 11.5086 11.8073 11.5168V11.5499C11.7965 11.5554 11.7911 11.5513 11.7911 11.5375L11.7748 11.4962C11.7775 11.4879 11.7843 11.4838 11.7951 11.4838L11.9614 11.4755C11.975 11.4755 11.9817 11.4824 11.9817 11.4962L11.9979 11.5375C11.9898 11.543 11.9831 11.5403 11.9777 11.5292C11.9695 11.5127 11.956 11.5031 11.9371 11.5003H11.9046L11.9128 11.5292L11.9533 11.6615ZM12.0385 11.5251C12.0385 11.5086 12.0304 11.4976 12.0142 11.492C12.0034 11.4948 11.9952 11.4893 11.9898 11.4755C11.9952 11.4728 12.0034 11.4728 12.0142 11.4755L12.0872 11.4673C12.0994 11.4631 12.1075 11.4838 12.0953 11.4838C12.0831 11.4838 12.071 11.492 12.075 11.5044L12.0953 11.5706L12.1237 11.6615C12.1264 11.6697 12.1332 11.6752 12.144 11.678C12.1602 11.6752 12.1683 11.6807 12.1683 11.6945H12.1399L12.075 11.7028C12.0669 11.7028 12.0507 11.6945 12.0588 11.6862C12.0723 11.6862 12.0804 11.6807 12.0831 11.6697L12.071 11.6201L12.0385 11.5251ZM12.2738 11.459C12.2846 11.4617 12.29 11.4686 12.29 11.4796L12.2981 11.5127C12.29 11.521 12.2833 11.5182 12.2779 11.5044C12.2752 11.4907 12.2657 11.4824 12.2495 11.4796H12.2048C12.2021 11.4907 12.2021 11.5003 12.2048 11.5086L12.2251 11.5623C12.2332 11.5623 12.244 11.5595 12.2576 11.554C12.2657 11.5499 12.2495 11.5292 12.2616 11.5292C12.2752 11.532 12.2819 11.5403 12.2819 11.554C12.2846 11.5733 12.29 11.5912 12.2981 11.6077C12.29 11.616 12.2833 11.6132 12.2779 11.5995C12.2724 11.5857 12.2616 11.5802 12.2454 11.5829C12.2413 11.5829 12.2251 11.5829 12.2332 11.5912L12.2535 11.6532C12.2616 11.6642 12.2711 11.6697 12.2819 11.6697C12.3008 11.6697 12.3171 11.6656 12.3306 11.6573C12.3333 11.6463 12.3346 11.6339 12.3346 11.6201C12.3482 11.6174 12.3549 11.6229 12.3549 11.6367L12.363 11.678C12.363 11.6862 12.3576 11.689 12.3468 11.6862L12.2251 11.6904C12.2089 11.6931 12.1954 11.6931 12.1846 11.6904C12.1805 11.6739 12.2048 11.678 12.2089 11.6697L12.2048 11.6367L12.1643 11.5127C12.1643 11.4962 12.1548 11.4865 12.1359 11.4838C12.1278 11.4838 12.1115 11.4755 12.1196 11.4673H12.1602L12.2779 11.459H12.2738ZM12.3549 11.5003C12.3495 11.4838 12.3387 11.4741 12.3225 11.4714C12.3103 11.4755 12.3022 11.4466 12.3225 11.4549H12.3833L12.4117 11.492L12.501 11.6119C12.4983 11.6119 12.4969 11.6077 12.4969 11.5995L12.5131 11.4507C12.5213 11.4425 12.5415 11.4507 12.5537 11.4425C12.5659 11.4425 12.5943 11.4425 12.5862 11.459C12.5672 11.459 12.5591 11.4673 12.5618 11.4838L12.6105 11.6325C12.6132 11.6491 12.624 11.6559 12.643 11.6532C12.6551 11.6532 12.6551 11.678 12.643 11.6739H12.5699C12.551 11.6794 12.5415 11.6752 12.5415 11.6615C12.5537 11.6615 12.574 11.6532 12.5659 11.6367L12.5253 11.5044V11.521L12.5172 11.6449L12.5131 11.678C12.5023 11.678 12.4956 11.6739 12.4929 11.6656L12.3752 11.5127L12.3833 11.5251C12.3941 11.5664 12.4063 11.6064 12.4198 11.6449C12.4252 11.6587 12.4361 11.6656 12.4523 11.6656C12.4631 11.6766 12.4604 11.6821 12.4442 11.6821H12.3833C12.3725 11.6766 12.3725 11.6711 12.3833 11.6656C12.3996 11.6601 12.4023 11.6491 12.3914 11.6325L12.3549 11.5003ZM12.7079 11.5334C12.7133 11.5361 12.72 11.5361 12.7281 11.5334C12.7417 11.5361 12.7511 11.5306 12.7565 11.5168C12.7565 11.4976 12.7498 11.481 12.7363 11.4673C12.72 11.459 12.7038 11.4562 12.6876 11.459V11.4796L12.7079 11.5334ZM12.7281 11.5995L12.7444 11.6408C12.7579 11.6463 12.7701 11.6477 12.7809 11.6449C12.7917 11.6449 12.7971 11.638 12.7971 11.6243C12.7971 11.5967 12.7849 11.5761 12.7606 11.5623H12.72V11.5747L12.7281 11.5995ZM12.6511 11.5003C12.6511 11.4838 12.643 11.47 12.6267 11.459C12.6132 11.459 12.6051 11.4549 12.6024 11.4466C12.5983 11.4342 12.6227 11.4466 12.6308 11.4425C12.6686 11.4397 12.7052 11.4397 12.7403 11.4425C12.7728 11.4535 12.7903 11.4755 12.793 11.5086C12.7903 11.5251 12.7809 11.5375 12.7647 11.5458C12.7701 11.543 12.7768 11.543 12.7849 11.5458C12.8066 11.554 12.8228 11.5706 12.8336 11.5953C12.8444 11.6119 12.8444 11.6298 12.8336 11.6491C12.8147 11.6628 12.7944 11.6683 12.7728 11.6656L12.6795 11.6697C12.6673 11.6697 12.6632 11.6491 12.6795 11.6532C12.693 11.6504 12.6957 11.6408 12.6876 11.6243L12.6511 11.5003ZM12.858 11.492C12.858 11.4755 12.8498 11.4617 12.8336 11.4507C12.8201 11.4507 12.812 11.4466 12.8093 11.4383C12.8174 11.4259 12.8336 11.4383 12.8498 11.4342H12.931C12.9661 11.437 12.9891 11.4562 12.9999 11.492C13.0053 11.5141 12.9999 11.5306 12.9837 11.5416L12.9675 11.5499C12.9945 11.5609 13.0135 11.5774 13.0243 11.5995L13.0446 11.6325C13.0527 11.6353 13.0567 11.6312 13.0567 11.6201C13.073 11.6119 13.0811 11.6325 13.073 11.6449C13.0621 11.6615 13.0486 11.667 13.0324 11.6615C13.0253 11.6606 13.0186 11.6578 13.0129 11.6535C13.0072 11.6491 13.0027 11.6433 12.9999 11.6367L12.9594 11.5664C12.9459 11.5582 12.9337 11.5568 12.9229 11.5623V11.5788L12.9431 11.6284C12.9513 11.6394 12.9621 11.6449 12.9756 11.6449C12.9918 11.6449 12.9918 11.6656 12.9756 11.6615H12.9026C12.8918 11.6642 12.8823 11.6642 12.8742 11.6615C12.8661 11.6408 12.8904 11.6491 12.8985 11.6408L12.8904 11.6036L12.858 11.492ZM12.9107 11.5334C12.9147 11.5458 12.935 11.5334 12.9431 11.5334C12.9567 11.5306 12.9621 11.5237 12.9594 11.5127C12.9594 11.4907 12.9526 11.4728 12.9391 11.459C12.9256 11.4507 12.912 11.4493 12.8985 11.4549C12.8931 11.4576 12.8931 11.4645 12.8985 11.4755L12.9107 11.5292V11.5334ZM13.1906 11.4259C13.2014 11.4287 13.2068 11.4356 13.2068 11.4466C13.2068 11.4576 13.2109 11.4686 13.219 11.4796C13.2082 11.4879 13.2001 11.4852 13.1947 11.4714C13.1947 11.4576 13.1865 11.4493 13.1703 11.4466H13.1176C13.1122 11.4521 13.1122 11.4604 13.1176 11.4714L13.1338 11.5292C13.1473 11.5292 13.1581 11.5265 13.1663 11.521C13.1784 11.5168 13.1622 11.5003 13.1744 11.492C13.1879 11.4948 13.1933 11.5044 13.1906 11.521C13.1933 11.5403 13.1987 11.5582 13.2068 11.5747C13.1987 11.5829 13.192 11.5802 13.1865 11.5664C13.1838 11.5526 13.1744 11.5471 13.1581 11.5499C13.1541 11.5499 13.1379 11.5416 13.1419 11.5499L13.1622 11.6201C13.1676 11.6312 13.1771 11.6353 13.1906 11.6325C13.2095 11.6325 13.2258 11.6298 13.2393 11.6243C13.242 11.6132 13.2433 11.6022 13.2433 11.5912C13.2596 11.5857 13.2663 11.5898 13.2636 11.6036L13.2717 11.6449C13.269 11.6532 13.2636 11.6559 13.2555 11.6532H13.1298C13.1162 11.6559 13.1054 11.6559 13.0973 11.6532C13.0851 11.6367 13.1054 11.6408 13.1135 11.6325C13.1216 11.6243 13.1135 11.6119 13.1135 11.6036L13.077 11.4755C13.077 11.459 13.0689 11.4493 13.0527 11.4466C13.031 11.4466 13.0243 11.4411 13.0324 11.4301H13.073L13.1906 11.4259ZM11.86 11.9672C11.86 11.9507 11.8519 11.9369 11.8357 11.9259C11.8195 11.9259 11.8127 11.9218 11.8154 11.9135L11.856 11.9094C11.8884 11.9066 11.9209 11.9066 11.9533 11.9094C12.0074 11.9231 12.0426 11.9548 12.0588 12.0044C12.0696 12.0375 12.0669 12.0691 12.0507 12.0994C12.0263 12.1242 11.9966 12.1353 11.9614 12.1325C11.9344 12.1325 11.9087 12.1353 11.8844 12.1408C11.8762 12.1449 11.86 12.1366 11.8681 12.1242C11.8844 12.1242 11.8925 12.1174 11.8925 12.1036L11.8762 12.0416L11.86 11.9672ZM11.9249 12.0705C11.9276 12.0843 11.933 12.0967 11.9412 12.1077C11.9547 12.1132 11.9682 12.1132 11.9817 12.1077C12.0007 12.1077 12.0128 12.0953 12.0182 12.0705C12.0214 12.0393 12.0158 12.0077 12.002 11.9796C11.9968 11.9668 11.9884 11.9556 11.9778 11.9469C11.9672 11.9382 11.9546 11.9324 11.9412 11.93H11.8965V11.9466L11.9249 12.0705ZM12.2129 11.8846C12.2238 11.8873 12.2292 11.8942 12.2292 11.9052L12.2373 11.9424C12.2265 11.9479 12.2197 11.9452 12.217 11.9342C12.2116 11.9204 12.2035 11.9121 12.1927 11.9094H12.1399C12.1345 11.9149 12.1345 11.9231 12.1399 11.9342C12.1399 11.9562 12.144 11.9755 12.1521 11.992C12.1656 11.992 12.1764 11.9893 12.1846 11.9838C12.1927 11.9755 12.1805 11.959 12.1927 11.9548C12.2035 11.9603 12.2089 11.97 12.2089 11.9838L12.2211 12.0375C12.2211 12.0499 12.2008 12.0375 12.2008 12.0292C12.1981 12.0154 12.1886 12.0099 12.1724 12.0127C12.1683 12.0127 12.1521 12.0085 12.1602 12.0168C12.1602 12.0361 12.1656 12.0581 12.1764 12.0829C12.1791 12.0939 12.1886 12.0981 12.2048 12.0953C12.2238 12.0953 12.24 12.0912 12.2535 12.0829L12.2616 12.0499C12.2697 12.0444 12.2752 12.0499 12.2779 12.0664C12.2779 12.0774 12.2806 12.0912 12.286 12.1077C12.2806 12.1132 12.2738 12.1146 12.2657 12.1118L12.144 12.1201C12.1305 12.1256 12.1183 12.1256 12.1075 12.1201C12.1021 12.1091 12.1075 12.1036 12.1237 12.1036C12.1345 12.0953 12.1359 12.0857 12.1278 12.0747L12.0994 11.9424C12.094 11.9259 12.0858 11.9163 12.075 11.9135C12.0588 11.9135 12.052 11.908 12.0547 11.897H12.0953L12.2129 11.8846ZM12.4766 12.054C12.4766 12.0678 12.4847 12.0774 12.501 12.0829C12.5118 12.0829 12.5213 12.0857 12.5294 12.0912C12.5334 12.1036 12.5131 12.0994 12.505 12.0994L12.4361 12.1036H12.4036C12.3928 12.0981 12.3941 12.0926 12.4077 12.0871C12.4212 12.0871 12.4307 12.0815 12.4361 12.0705L12.432 12.0375L12.4036 11.9218C12.4036 11.9108 12.3955 11.9066 12.3793 11.9094C12.3685 11.9149 12.359 11.9135 12.3509 11.9052C12.3509 11.8887 12.3712 11.8928 12.3793 11.8887L12.4239 11.8722C12.432 11.8722 12.4361 11.8763 12.4361 11.8846L12.4766 12.054ZM12.6267 11.9176C12.6267 11.8984 12.6173 11.8873 12.5983 11.8846C12.5821 11.8846 12.5713 11.8887 12.5659 11.897C12.5605 11.9135 12.5659 11.9273 12.5821 11.9383L12.6186 11.959L12.6267 11.9342V11.9176ZM12.6592 12.0375C12.6538 12.0182 12.6402 12.0044 12.6186 11.9961C12.6105 11.9934 12.6037 11.992 12.5983 11.992C12.592 11.9966 12.5872 12.0029 12.5843 12.0103C12.5814 12.0176 12.5807 12.0256 12.5821 12.0333C12.5902 12.0609 12.6037 12.0747 12.6227 12.0747C12.6389 12.0802 12.6524 12.0747 12.6632 12.0581V12.0375H12.6592ZM12.6997 12.0292C12.6997 12.0512 12.6916 12.0691 12.6754 12.0829C12.6538 12.0967 12.6267 12.0994 12.5943 12.0912C12.5699 12.0857 12.5537 12.0691 12.5456 12.0416C12.5456 12.0196 12.5524 12.0003 12.5659 11.9838C12.5699 11.9838 12.5862 11.9796 12.574 11.9755C12.5497 11.9672 12.5361 11.9507 12.5334 11.9259C12.5253 11.9039 12.5321 11.886 12.5537 11.8722C12.5717 11.8628 12.5924 11.8605 12.6119 11.8659C12.6314 11.8712 12.6483 11.8838 12.6592 11.9011C12.6673 11.9204 12.6673 11.9369 12.6592 11.9507L12.6348 11.9714C12.6565 11.9741 12.6727 11.9851 12.6835 12.0044C12.6916 12.0099 12.6957 12.0182 12.6957 12.0292H12.6997ZM12.8296 12.054C12.8404 12.054 12.8471 12.0485 12.8498 12.0375C12.8539 12.0292 12.8498 12.0085 12.862 12.0127C12.8701 12.0127 12.8742 12.0209 12.8742 12.0375C12.8769 12.054 12.8715 12.0691 12.858 12.0829C12.8498 12.0884 12.839 12.0898 12.8255 12.0871H12.7565C12.7457 12.0926 12.7363 12.0926 12.7281 12.0871C12.7254 12.0788 12.7254 12.0691 12.7281 12.0581C12.739 12.0306 12.7525 12.0085 12.7687 11.992C12.7876 11.981 12.7985 11.9658 12.8012 11.9466C12.8012 11.93 12.7985 11.9135 12.793 11.897C12.7902 11.8923 12.7864 11.8883 12.782 11.8851C12.7775 11.882 12.7725 11.8797 12.7672 11.8786C12.7619 11.8774 12.7565 11.8774 12.7511 11.8784C12.7458 11.8794 12.7408 11.8815 12.7363 11.8846C12.7227 11.8928 12.7187 11.9025 12.7241 11.9135C12.7322 11.9218 12.7484 11.9135 12.7525 11.93C12.7579 11.9438 12.7538 11.9521 12.7403 11.9548C12.7268 11.9576 12.7133 11.9479 12.6997 11.9259C12.6943 11.9011 12.7025 11.8818 12.7241 11.8681C12.7457 11.8543 12.7687 11.8515 12.793 11.8598C12.8174 11.8681 12.8336 11.8846 12.8417 11.9094C12.8471 11.9259 12.8458 11.9438 12.8377 11.9631C12.816 11.9879 12.793 12.0113 12.7687 12.0333C12.7633 12.0388 12.7619 12.0471 12.7647 12.0581C12.7701 12.0499 12.7768 12.0471 12.7849 12.0499L12.8296 12.054ZM12.9878 12.0375C12.9878 12.0485 12.9959 12.0568 13.0121 12.0623C13.0229 12.0623 13.0324 12.065 13.0405 12.0705C13.0486 12.0829 13.0283 12.0829 13.0202 12.0829H12.9107C12.9053 12.0719 12.908 12.0664 12.9188 12.0664C12.9296 12.0664 12.9391 12.0609 12.9472 12.0499V12.0168L12.9188 11.9011C12.9161 11.8901 12.9093 11.886 12.8985 11.8887C12.8877 11.8915 12.8782 11.8915 12.8701 11.8887C12.862 11.8722 12.8823 11.8722 12.8904 11.8681L12.9391 11.8515C12.9499 11.8515 12.9553 11.8557 12.9553 11.8639L12.9878 12.0375Z" fill="#B07E09"/>
<path d="M11.8316 8.66553L11.6774 8.8556C11.6287 9.07046 11.7504 9.23574 11.9898 9.37623C12.1804 9.50019 12.5374 9.52912 12.651 9.42995L12.0952 8.89279L11.8316 8.66553Z" fill="url(#paint9_radial_2214_3459)" stroke="#4C0505" stroke-width="0.0081883"/>
<path d="M12.9593 14.2398L12.8782 14.1365C12.5254 14.6238 12.0727 15.027 11.5516 15.3183C12.1642 15.1447 12.5658 14.6902 12.9593 14.2398ZM12.3305 15.7149C12.5588 15.2601 12.8051 14.8148 13.0688 14.3803L12.9836 14.2687C12.6834 14.7728 12.3346 15.372 12.3346 15.7149H12.3305ZM14.0262 10.9838C13.9877 10.7987 13.9292 10.6186 13.8518 10.4466C13.4163 9.70022 12.8058 9.07553 12.0749 8.62856V8.61617H12.0912L12.0871 8.61204H12.1033L12.0952 8.59964H12.1115L12.0993 8.58311H12.1155L12.1033 8.57072H12.1236L12.1115 8.55419H12.1277L12.1115 8.54179L12.1358 8.53766L12.1155 8.52526L12.1358 8.52113L12.1196 8.50874L12.1439 8.50047L12.1236 8.48808L12.148 8.47568L12.1236 8.45915L12.152 8.45089L12.1196 8.43849L12.148 8.42196H12.1155L12.1358 8.39304H12.1074L12.1196 8.37238H12.0952L12.1074 8.35172L12.079 8.35585L12.0912 8.33106L12.0668 8.34759L12.0749 8.31866L12.0465 8.33519L12.0506 8.30627L12.0263 8.32693L12.0303 8.298L12.01 8.31866V8.28974L11.9898 8.31453V8.28561L11.9735 8.30627L11.9654 8.28148L11.9492 8.30627L11.9451 8.27734L11.933 8.30627L11.9248 8.27734L11.9127 8.30627L11.9046 8.28148L11.8965 8.30627L11.8883 8.28148L11.8802 8.31453L11.8721 8.28561L11.8599 8.31866L11.8478 8.28974V8.3228L11.8315 8.29387V8.32693L11.8113 8.30214V8.33519L11.795 8.3104V8.33932L11.7788 8.32693L11.7869 8.35585L11.7666 8.34346L11.7748 8.36825L11.7585 8.35998L11.7626 8.38478H11.7464L11.7545 8.4013H11.7423L11.7504 8.41783C11.7357 8.46448 11.7302 8.51363 11.7342 8.56245C11.7342 8.57072 11.7585 8.57898 11.7626 8.58724C11.7707 8.60377 11.7734 8.61204 11.7707 8.61204C11.7058 8.71947 11.649 8.80211 11.6449 8.92607C11.6936 8.85996 11.7504 8.77732 11.8234 8.77732C11.7869 8.8393 11.7707 9.02937 11.8113 9.05829L11.8437 9.00458C11.8437 9.0459 11.8491 9.07757 11.8599 9.09961C11.8708 9.07206 11.8843 9.04865 11.9005 9.02937C11.9005 9.09272 11.9086 9.13818 11.9248 9.16572C11.9438 9.13542 11.9654 9.11338 11.9898 9.09961C11.9789 9.13542 11.9749 9.17261 11.9776 9.21118C12.0019 9.17261 12.0276 9.13818 12.0547 9.10788C12.0384 9.17399 12.0547 9.22357 12.0709 9.29382C12.0871 9.21118 12.0952 9.19878 12.1317 9.16572C12.1358 9.24423 12.1236 9.31448 12.1399 9.35993C12.1723 9.28968 12.1966 9.29795 12.221 9.2525C12.2129 9.31861 12.2007 9.38885 12.221 9.4467C12.2343 9.40321 12.2614 9.36544 12.2981 9.33927C12.2981 9.43017 12.3183 9.41364 12.2656 9.49215C12.2899 9.50042 12.367 9.47562 12.4116 9.45496C12.3914 9.50455 12.3954 9.54174 12.3751 9.57892C12.4157 9.55138 12.4549 9.51832 12.4928 9.47976C12.4766 9.5376 12.4319 9.59545 12.4522 9.64917C12.4684 9.59407 12.4995 9.55964 12.5455 9.54587C12.5374 9.57479 12.5333 9.63677 12.4928 9.6657C12.5901 9.67396 12.6307 9.60785 12.6794 9.55413C12.6753 9.60785 12.6794 9.6533 12.7443 9.73181C12.7321 9.63264 12.7524 9.6533 12.797 9.59545C12.8214 9.68222 12.8457 9.77726 12.935 9.84337C12.8944 9.74834 12.8944 9.69875 12.9106 9.6409C12.9228 9.70288 12.9796 9.77726 12.9917 9.83098C12.9999 9.76486 13.0134 9.70977 13.0323 9.6657C13.0621 9.73962 13.0813 9.81757 13.0891 9.89709C13.1107 9.85577 13.1256 9.81445 13.1337 9.77313C13.9369 10.6202 14.1154 11.7028 13.2351 12.8473C13.5516 12.6325 13.6327 12.2895 13.8071 11.9961C13.6368 12.3804 13.5637 12.8101 13.2595 13.1283C13.5516 12.8721 13.6124 12.6366 13.7869 12.3887C13.6043 12.9052 13.3406 13.4713 12.9836 13.9919L13.1784 14.2068L13.3406 13.9217C13.7219 13.2853 14.3426 12.3722 14.0302 10.9838H14.0262Z" fill="#448127" stroke="#34541F" stroke-width="0.0081883"/>
<path d="M11.7261 8.49625C11.6855 8.50451 11.6693 8.52104 11.6368 8.55409C11.6747 8.56236 11.7099 8.56649 11.7423 8.56649C11.7504 8.56098 11.7545 8.55272 11.7545 8.5417L11.7464 8.50038C11.7464 8.49211 11.722 8.49624 11.7139 8.50038L11.7261 8.49625Z" fill="#EAC102" stroke="#A08307" stroke-width="0.0081883"/>
<path d="M11.9086 8.5334C11.9265 8.5334 11.9411 8.5186 11.9411 8.50034C11.9411 8.48208 11.9265 8.46729 11.9086 8.46729C11.8907 8.46729 11.8762 8.48208 11.8762 8.50034C11.8762 8.5186 11.8907 8.5334 11.9086 8.5334Z" fill="black" stroke="black" stroke-width="0.00409415"/>
<path d="M11.9167 8.51279C11.9234 8.51279 11.9289 8.50539 11.9289 8.49626C11.9289 8.48714 11.9234 8.47974 11.9167 8.47974C11.91 8.47974 11.9045 8.48714 11.9045 8.49626C11.9045 8.50539 11.91 8.51279 11.9167 8.51279Z" fill="url(#paint10_radial_2214_3459)"/>
<path d="M12.3346 15.7025C12.408 15.4548 12.5087 15.2164 12.6348 14.9918C12.7249 14.8204 12.821 14.6522 12.9228 14.4877L13.0283 14.3224L12.9268 14.4877L12.6429 14.9959C12.5242 15.2225 12.4212 15.4572 12.3346 15.6984V15.7025ZM11.5679 15.31C12.0417 15.0997 12.456 14.7715 12.7727 14.3555C12.6129 14.5097 12.4613 14.6725 12.3184 14.843C12.0935 15.0374 11.8403 15.195 11.5679 15.31ZM13.081 14.0993C13.1135 14.0552 13.1432 14.0098 13.1702 13.9629C13.2573 13.8261 13.3386 13.6855 13.4136 13.5415C13.4677 13.4451 13.5191 13.3486 13.5678 13.2522L13.7179 12.963L13.6489 13.1076L13.5759 13.2564C13.4776 13.4497 13.3734 13.6398 13.2636 13.8266L13.081 14.0993ZM13.3203 13.0622C13.4596 12.8946 13.5757 12.7082 13.6652 12.5085C13.7967 12.2074 13.8789 11.8863 13.9086 11.5581L13.9045 11.7234C13.8702 11.9967 13.7906 12.2622 13.6692 12.5085C13.5776 12.708 13.4603 12.8942 13.3203 13.0622Z" fill="#34541F"/>
<path d="M13.2554 12.8224C13.3973 12.6688 13.5162 12.4947 13.6084 12.3059C13.6762 12.165 13.7358 12.0201 13.7869 11.872L13.799 11.8348L13.8112 11.7976L13.8355 11.7232C13.8767 11.5135 13.8795 11.2977 13.8436 11.0869C13.8462 11.1935 13.8556 11.2998 13.872 11.4051C13.872 11.5153 13.8626 11.6213 13.8436 11.7232C13.8328 11.7508 13.8247 11.777 13.8193 11.8017L13.8071 11.8389L13.7909 11.8761L13.6124 12.3141C13.5676 12.4087 13.5161 12.4999 13.4583 12.5868C13.3992 12.6738 13.3312 12.7542 13.2554 12.8265V12.8224Z" fill="#34541F"/>
<path d="M13.0161 14.029C13.0675 13.9628 13.1162 13.894 13.1622 13.8224L13.2352 13.7191L13.3041 13.6158L13.4258 13.3926L13.5313 13.1654C13.6043 13.0139 13.6719 12.8582 13.7341 12.6984C13.8553 12.384 13.9279 12.0522 13.9491 11.715C13.9838 11.3779 13.9479 11.0371 13.8437 10.7151C13.9587 11.0345 13.9977 11.3773 13.9573 11.715C13.9358 12.0535 13.8632 12.3866 13.7423 12.7026C13.6801 12.8596 13.6124 13.0139 13.5394 13.1654L13.4258 13.3926C13.3907 13.4698 13.3515 13.5441 13.3082 13.6158C13.2866 13.6543 13.2636 13.6901 13.2392 13.7232L13.1662 13.8265L13.0202 14.0331L13.0161 14.029Z" fill="#34541F"/>
<path d="M13.1297 14.1572C13.3206 13.8393 13.5018 13.5154 13.6733 13.1862C13.9209 12.6844 14.0422 12.1278 14.0262 11.5664C14.0262 11.3791 14.01 11.1946 13.9775 11.0128H13.9816C14.0168 11.1973 14.033 11.3819 14.0303 11.5664C14.0292 11.9391 13.9801 12.31 13.8842 12.6697C13.8309 12.8486 13.763 13.0228 13.6814 13.1903C13.5086 13.5182 13.3259 13.8407 13.1338 14.1572H13.1297ZM12.002 8.72363H12.0587C12.1166 8.7327 12.1727 8.75082 12.2251 8.77735C12.3605 8.85088 12.4837 8.94571 12.5902 9.05832C12.4823 8.94961 12.3593 8.85772 12.2251 8.78561C12.1542 8.75364 12.079 8.73275 12.002 8.72363Z" fill="#34541F"/>
<path d="M12.6672 9.16964C12.6672 9.16964 12.7889 9.24402 12.8579 9.35145C12.8579 9.35145 12.6672 9.31426 12.5333 9.16138" fill="#448127"/>
<path d="M12.6672 9.16964C12.7452 9.21381 12.8119 9.2761 12.8619 9.35145L12.8659 9.35971H12.8578C12.7948 9.34474 12.7346 9.31964 12.6793 9.28534C12.6252 9.25228 12.5752 9.21096 12.5292 9.16138C12.5957 9.23226 12.6777 9.28607 12.7686 9.31839L12.8578 9.34732V9.35558C12.8334 9.31673 12.8033 9.2819 12.7686 9.25228L12.6672 9.16964Z" fill="#34541F"/>
<path d="M12.3914 9.13257C12.3914 9.13257 12.6834 9.32264 12.7281 9.33917C12.7281 9.33917 12.6591 9.19455 12.5212 9.13257" fill="#448127"/>
<path d="M12.3914 9.13257L12.5577 9.23587L12.6834 9.31024L12.724 9.33504V9.33917C12.7022 9.29475 12.6734 9.25428 12.6388 9.21934C12.6045 9.18407 12.5648 9.15475 12.5212 9.13257C12.5674 9.15032 12.609 9.17859 12.6429 9.21521C12.6779 9.25139 12.7067 9.29329 12.7281 9.33917L12.7362 9.34743L12.724 9.3433L12.6388 9.29372L12.3914 9.13257Z" fill="#34541F"/>
<path d="M12.509 9.0376C12.509 9.0376 12.6591 9.10371 12.6956 9.21527C12.6956 9.21527 12.4197 9.09958 12.371 9.0376" fill="#448127"/>
<path d="M12.509 9.0376C12.5498 9.05383 12.5881 9.07611 12.6225 9.10371L12.6672 9.15329L12.6996 9.21527V9.22354H12.6915C12.5943 9.17757 12.4996 9.12654 12.4075 9.07065L12.371 9.0376L12.4075 9.06652L12.4481 9.09131C12.5266 9.14049 12.6094 9.182 12.6956 9.21527H12.6915C12.6861 9.19599 12.6753 9.17809 12.6591 9.16156L12.6185 9.11197C12.5858 9.0818 12.5489 9.05674 12.509 9.0376Z" fill="#34541F"/>
<path d="M12.2777 9.15723C12.2777 9.15723 12.5454 9.35143 12.6266 9.35143C12.6266 9.35143 12.5454 9.21507 12.4075 9.15723" fill="#448127"/>
<path d="M12.2777 9.15723L12.5779 9.3349L12.6266 9.3473L12.6225 9.35556C12.5974 9.31241 12.5659 9.2734 12.5292 9.23987C12.4926 9.2067 12.4517 9.17888 12.4075 9.15723C12.477 9.18538 12.5383 9.23085 12.586 9.28945L12.6266 9.35143L12.6347 9.35556H12.6266C12.6077 9.35556 12.5901 9.35143 12.5738 9.34317L12.5333 9.32251C12.4422 9.27743 12.3565 9.22199 12.2777 9.15723Z" fill="#34541F"/>
<path d="M12.2777 9.21525C12.2777 9.21525 12.4156 9.33921 12.4968 9.33921C12.4968 9.33921 12.4156 9.20285 12.2777 9.14087" fill="#448127"/>
<path d="M12.2777 9.21526L12.44 9.31856L12.4643 9.32683L12.4968 9.33509L12.4927 9.33922C12.4672 9.29753 12.4358 9.25993 12.3994 9.22766C12.3628 9.19449 12.3218 9.16667 12.2777 9.14502C12.3467 9.172 12.408 9.21602 12.4562 9.27311L12.4968 9.33509L12.5049 9.34336H12.4968L12.4319 9.32683C12.3939 9.30817 12.3584 9.28455 12.3264 9.25658L12.2777 9.21526Z" fill="#34541F"/>
<path d="M12.2047 8.94653C12.2047 8.94653 12.4968 9.15727 12.5292 9.27296C12.5292 9.27296 12.2696 9.149 12.2209 9.08702" fill="#448127"/>
<path d="M12.2047 8.94653C12.3145 9.02728 12.4164 9.11861 12.509 9.21925L12.5374 9.26883V9.28123L12.5292 9.27709L12.2534 9.11595L12.294 9.14074C12.3712 9.18948 12.4527 9.23097 12.5374 9.2647L12.5292 9.27296L12.5008 9.22338C12.4418 9.14634 12.3736 9.07696 12.298 9.01678L12.2047 8.94653Z" fill="#34541F"/>
<path d="M10.5821 14.9007C10.3271 15.037 10.0424 15.1052 9.75452 15.099C10.1602 14.7602 10.5537 14.7519 10.5821 14.9007ZM13.4136 15.0866C13.6246 15.2808 14.2655 15.4172 14.3669 15.3924C13.9369 14.9503 13.4704 14.9048 13.4136 15.0866Z" fill="#406325" stroke="#24420E" stroke-width="0.0081883"/>
<path d="M10.5821 14.9008C10.5537 14.7479 10.1561 14.7603 9.75452 15.0991C10.019 14.9911 10.298 14.9242 10.5821 14.9008ZM13.4177 15.0826C13.4745 14.9008 13.9369 14.9462 14.3669 15.3925C14.0671 15.2424 13.7473 15.1379 13.4177 15.0826Z" fill="#67923D" stroke="#24420E" stroke-width="0.0081883"/>
</g>
</g>
<defs>
<radialGradient id="paint0_radial_2214_3459" cx="0" cy="0" r="1" gradientUnits="userSpaceOnUse" gradientTransform="translate(10.6795 12.3392) scale(0.669348 0.681781)">
<stop offset="0.2" stop-color="#F9F0AA"/>
<stop offset="1" stop-color="#B07E09"/>
</radialGradient>
<radialGradient id="paint1_radial_2214_3459" cx="0" cy="0" r="1" gradientUnits="userSpaceOnUse" gradientTransform="translate(10.8499 12.5334) scale(0.442175 0.450387)">
<stop offset="0.2" stop-color="#F9F0AA"/>
<stop offset="1" stop-color="#B07E09"/>
</radialGradient>
<radialGradient id="paint2_radial_2214_3459" cx="0" cy="0" r="1" gradientUnits="userSpaceOnUse" gradientTransform="translate(10.9513 12.3514) scale(0.397552 0.404936)">
<stop offset="0.2" stop-color="#F9F0AA"/>
<stop offset="1" stop-color="#B07E09"/>
</radialGradient>
<radialGradient id="paint3_radial_2214_3459" cx="0" cy="0" r="1" gradientUnits="userSpaceOnUse" gradientTransform="translate(11.1258 12.2895) scale(0.705856 0.718968)">
<stop offset="0.2" stop-color="#F9F0AA"/>
<stop offset="1" stop-color="#B07E09"/>
</radialGradient>
<linearGradient id="paint4_linear_2214_3459" x1="11.7545" y1="10.3102" x2="11.6914" y2="9.18647" gradientUnits="userSpaceOnUse">
<stop offset="0.2" stop-color="#B07E09" stop-opacity="0"/>
<stop offset="1" stop-color="#B07E09"/>
</linearGradient>
<linearGradient id="paint5_linear_2214_3459" x1="12.1277" y1="11.8596" x2="12.2287" y2="13.0948" gradientUnits="userSpaceOnUse">
<stop offset="0.2" stop-color="#B07E09" stop-opacity="0"/>
<stop offset="1" stop-color="#B07E09"/>
</linearGradient>
<radialGradient id="paint6_radial_2214_3459" cx="0" cy="0" r="1" gradientUnits="userSpaceOnUse" gradientTransform="translate(10.6227 10.0293) scale(0.527365 0.53716)">
<stop offset="0.2" stop-color="#F9F0AA"/>
<stop offset="1" stop-color="#B07E09"/>
</radialGradient>
<linearGradient id="paint7_linear_2214_3459" x1="10.8458" y1="9.90945" x2="11.009" y2="9.54391" gradientUnits="userSpaceOnUse">
<stop offset="0.2" stop-color="#F9F0AA"/>
<stop offset="1" stop-color="#B07E09"/>
</linearGradient>
<linearGradient id="paint8_linear_2214_3459" x1="11.7302" y1="9.40118" x2="11.8396" y2="10.7727" gradientUnits="userSpaceOnUse">
<stop offset="0.2" stop-color="#F9F0AA"/>
<stop offset="1" stop-color="#B07E09"/>
</linearGradient>
<radialGradient id="paint9_radial_2214_3459" cx="0" cy="0" r="1" gradientUnits="userSpaceOnUse" gradientTransform="translate(11.9167 8.49612) scale(0.0121699 0.012396)">
<stop offset="0.3" stop-color="#A50A0A"/>
<stop offset="1" stop-color="#4C0505"/>
</radialGradient>
<radialGradient id="paint10_radial_2214_3459" cx="0" cy="0" r="1" gradientUnits="userSpaceOnUse" gradientTransform="translate(11.9161 8.49352) scale(0.011891 0.0126869)">
<stop stop-color="white"/>
<stop offset="1" stop-color="white" stop-opacity="0"/>
</radialGradient>
<clipPath id="clip0_2214_3459">
<path d="M0 12C0 5.37258 5.37258 0 12 0C18.6274 0 24 5.37258 24 12C24 18.6274 18.6274 24 12 24C5.37258 24 0 18.6274 0 12Z" fill="white"/>
</clipPath>
<clipPath id="clip1_2214_3459">
<rect width="32" height="24" fill="white" transform="translate(-4)"/>
</clipPath>
</defs>
</svg>
