<svg width="24" height="24" viewBox="0 0 24 24" fill="none" xmlns="http://www.w3.org/2000/svg">
<g clip-path="url(#clip0_3905_9815)">
<g clip-path="url(#clip1_3905_9815)">
<path d="M-0.323425 0.0112305H23.6766V24.0112H-0.323425V0.0112305Z" fill="#FFB700"/>
<path d="M0.675018 12.0112L3.96096 1.00964H7.24689V23.0128H3.96564L0.675018 12.0112Z" fill="#FF5B00"/>
<path d="M0.675018 1.00964H3.96096V23.0128H0.679706L0.675018 1.00964Z" fill="#005641"/>
<path d="M8.24063 1.00964H22.6781V23.0128H8.24063V1.00964Z" fill="#8D2029"/>
<path d="M21.3984 21.3347C21.3984 21.3347 21.5344 21.6113 21.6844 21.7238C21.9094 21.8878 22.3641 21.8785 22.5563 22.0707C22.7906 22.305 22.5375 22.605 22.5422 22.6332L22.5563 22.7925C22.5563 22.7925 22.3969 22.7925 22.3312 22.8066C22.2328 22.8207 22.1906 22.9003 22.0078 22.891C21.5438 22.8582 21.5625 22.441 21.5391 22.0847C21.5156 21.9441 21.4594 21.7707 21.4313 21.6347C21.4031 21.5175 21.3984 21.3347 21.3984 21.3347Z" fill="#FFB700" stroke="black" stroke-width="0.1125"/>
<path d="M9.65625 21.3347C9.65625 21.3347 9.52031 21.6113 9.37031 21.7238C9.14531 21.8878 8.69062 21.8785 8.49844 22.0707C8.26406 22.305 8.51719 22.605 8.5125 22.6332L8.49844 22.7925C8.49844 22.7925 8.65781 22.7925 8.72344 22.8066C8.82188 22.8207 8.86406 22.9003 9.04688 22.891C9.51094 22.8582 9.49219 22.441 9.51562 22.0847C9.53906 21.9441 9.59531 21.7707 9.62344 21.6347C9.65156 21.5175 9.65625 21.3347 9.65625 21.3347Z" fill="#FFB700" stroke="black" stroke-width="0.1125"/>
<path d="M21.3984 2.68774C21.3984 2.68774 21.5344 2.41118 21.6844 2.29868C21.9094 2.13462 22.3641 2.14399 22.5563 1.95181C22.7906 1.71743 22.5375 1.41743 22.5422 1.38931L22.5563 1.22993C22.5563 1.22993 22.3969 1.22993 22.3312 1.21587C22.2328 1.20181 22.1906 1.12212 22.0078 1.13149C21.5438 1.16431 21.5625 1.58149 21.5391 1.93774C21.5156 2.07837 21.4594 2.25181 21.4313 2.38774C21.4031 2.50493 21.3984 2.68774 21.3984 2.68774Z" fill="#FFB700" stroke="black" stroke-width="0.1125"/>
<path d="M9.65158 2.68774C9.65158 2.68774 9.51564 2.41118 9.36564 2.29868C9.14064 2.13462 8.68596 2.14399 8.49377 1.95181C8.25939 1.71743 8.51252 1.41743 8.50783 1.38931L8.49377 1.22993C8.49377 1.22993 8.65314 1.22993 8.71877 1.21587C8.81721 1.20181 8.85939 1.12212 9.04221 1.13149C9.50627 1.16431 9.48752 1.58149 9.51096 1.93774C9.53439 2.07837 9.59064 2.25181 9.61877 2.38774C9.64689 2.50493 9.65158 2.68774 9.65158 2.68774Z" fill="#FFB700" stroke="black" stroke-width="0.1125"/>
<path d="M13.3078 15.7538L13.3941 15.7013L13.4316 15.7538C13.4803 15.8213 13.6191 15.8175 13.7091 15.7538L13.7803 15.6975L13.8403 15.75C13.9153 15.8213 14.0578 15.8213 14.1516 15.75C14.2153 15.705 14.2266 15.7013 14.2641 15.7388C14.2903 15.7613 14.3653 15.7838 14.4291 15.795C14.5491 15.81 14.5491 15.81 14.6166 15.705C14.6766 15.6188 14.6841 15.585 14.6728 15.4988L14.6503 15.3C14.6428 15.2025 14.6466 15.2025 14.7853 15.15L14.9878 15.075C15.0441 15.0413 15.2016 14.8575 15.2016 14.82C15.2016 14.8125 15.1416 14.7975 15.0666 14.79C14.7666 14.755 14.7153 14.5925 14.9128 14.3025C15.2241 13.815 15.4153 13.3463 15.4153 13.05C15.4153 12.9175 15.4241 12.8675 15.4416 12.9C15.5128 13.0163 15.3853 13.515 15.1978 13.875L15.1228 14.0175L15.1941 14.0025C15.2316 13.9913 15.4716 13.89 15.7191 13.7775C16.4016 13.47 16.6341 13.41 17.0766 13.4288C17.4478 13.4438 17.6016 13.515 17.8641 13.7888C18.0028 13.9388 18.1378 14.04 18.3816 14.1938C18.8991 14.5163 18.9216 14.5463 18.9478 14.9288C18.9741 15.3113 18.9591 15.3375 18.6666 15.4013C18.4116 15.4588 18.2616 15.5713 18.2166 15.7388C18.1916 15.8238 18.2416 15.825 18.3666 15.7425L18.4603 15.6825L18.5016 15.7425C18.5578 15.8213 18.6703 15.8213 18.7641 15.7425L18.8391 15.6863L18.9141 15.7425C19.0266 15.8363 19.1766 15.8138 19.2216 15.6975C19.2291 15.6775 19.2541 15.6863 19.2966 15.7238C19.3828 15.7988 19.5966 15.8288 19.6191 15.7688C19.6266 15.7463 19.6116 15.6938 19.5816 15.6488C19.4578 15.4613 19.4166 15.375 19.4166 15.2738C19.4166 15.1313 19.4541 15.06 19.6191 14.9475C19.8141 14.805 19.8741 14.625 19.7241 14.625C19.6341 14.625 19.5403 14.5425 19.4803 14.4113C19.3603 14.1413 19.3866 13.8413 19.5666 13.3388C19.7041 13.043 19.7733 12.72 19.7691 12.3938C19.7691 12.1163 19.7616 12.0713 19.7016 11.9175C19.6548 11.8106 19.5969 11.7088 19.5291 11.6138L19.4241 11.475L19.5553 11.3625C19.9603 11.0288 19.8778 10.4813 19.3903 10.2713C19.2403 10.2038 19.2028 10.2 18.9403 10.2C18.7903 10.2 18.5466 10.2225 18.4153 10.2488C18.2392 10.2767 18.0612 10.2917 17.8828 10.2938C17.6278 10.2938 17.5828 10.2863 17.4853 10.2338C17.3841 10.1813 17.3653 10.155 17.3466 10.0275C17.3448 10.0155 17.3401 10.0041 17.3329 9.99433C17.3257 9.98453 17.3163 9.97663 17.3053 9.97129C17.2678 9.96004 17.1103 10.0988 17.0878 10.1588C17.0728 10.1925 17.0653 10.1888 17.0316 10.1475C16.9996 10.1068 16.9743 10.0612 16.9566 10.0125C16.9166 9.89004 16.9691 9.79504 17.1141 9.72754L17.2266 9.67504L17.1591 9.63379C17.0241 9.54754 16.7916 9.60754 16.7091 9.74629C16.6828 9.78379 16.6566 9.82129 16.6491 9.82129C16.6416 9.82129 16.5966 9.78379 16.5516 9.73504C16.3753 9.56254 16.4353 9.30754 16.6716 9.23254C16.7953 9.19129 16.9078 9.22129 16.9303 9.30754C16.9678 9.43129 17.0728 9.26629 17.0541 9.11254C17.0428 9.01129 17.0428 9.00754 17.1141 9.00754C17.2116 9.00754 17.4141 9.13504 17.4816 9.23254C17.5566 9.34879 17.5491 9.53254 17.4666 9.66754L17.4028 9.77254L17.4891 9.75754C17.6091 9.73129 17.7291 9.65629 17.7891 9.56254C17.8207 9.50283 17.8385 9.43677 17.8411 9.36925C17.8437 9.30174 17.831 9.2345 17.8041 9.17254C17.7478 9.07129 17.7553 9.05629 17.8378 9.09004C17.9728 9.14629 18.0478 9.21004 18.1003 9.31879C18.1528 9.41629 18.1566 9.43879 18.1303 9.54379C18.1124 9.60772 18.0845 9.66845 18.0478 9.72379C18.0028 9.78379 17.9991 9.79504 18.0366 9.79504C18.1041 9.79504 18.2391 9.73129 18.2878 9.68254C18.3141 9.65254 18.3516 9.58879 18.3703 9.53254L18.4078 9.43879L18.4453 9.51379C18.5016 9.61504 18.6141 9.70879 18.7491 9.76879C18.8953 9.82879 18.9553 9.83254 18.8803 9.77629C18.8278 9.73879 18.7303 9.45754 18.7641 9.43129C18.9259 9.52192 19.0737 9.63561 19.2028 9.76879C19.4166 9.96004 19.5516 10.0238 19.7466 10.0238C19.9978 10.0238 20.1441 9.80629 20.0316 9.60004C19.9678 9.48004 19.8216 9.46129 19.7316 9.56254C19.6941 9.60754 19.6816 9.65379 19.6941 9.70129C19.7091 9.76129 19.7053 9.76879 19.6491 9.76879C19.5741 9.76879 19.4316 9.67504 19.1766 9.46129C18.8216 9.15583 18.4136 8.91814 17.9728 8.76004C17.6743 8.69071 17.3659 8.67421 17.0616 8.71129C16.8216 8.75629 16.5366 8.89504 16.3791 9.04129C16.1053 9.30379 16.1016 9.65254 16.3678 9.97129L16.4428 10.0613L16.3941 10.1438C16.3559 10.2023 16.3368 10.2713 16.3395 10.3412C16.3422 10.411 16.3665 10.4783 16.4091 10.5338C16.4466 10.5863 16.4841 10.6275 16.4953 10.6275C16.5028 10.6225 16.5091 10.5975 16.5141 10.5525C16.5216 10.45 16.5641 10.385 16.6416 10.3575C16.7091 10.3313 16.7541 10.3463 17.0616 10.47C17.3878 10.5975 17.9241 10.605 18.4941 10.4925C18.7412 10.4361 18.9982 10.4386 19.2441 10.5C19.5141 10.6125 19.5741 10.9013 19.3791 11.1188C19.2928 11.2163 19.2141 11.2538 18.9403 11.3288C18.702 11.3919 18.4542 11.411 18.2091 11.385C17.8041 11.3813 17.6578 11.3888 17.4966 11.4225C17.3128 11.46 17.2041 11.4638 16.6791 11.4525L16.0678 11.4375L16.1353 11.49L16.2516 11.5763C16.3003 11.6025 16.2966 11.6063 16.2291 11.6325C16.1916 11.6475 16.1016 11.6588 16.0303 11.6588H15.9066L15.8916 11.7638C15.8815 11.8133 15.8815 11.8643 15.8916 11.9138C15.9066 11.9488 15.8966 11.9588 15.8616 11.9438C15.8353 11.9325 15.7641 11.9138 15.7003 11.9025C15.636 11.8887 15.5732 11.8686 15.5128 11.8425C15.4416 11.805 15.4341 11.805 15.4078 11.8538C15.3853 11.8913 15.1753 12.0488 15.1453 12.0488C15.1316 11.9515 15.1038 11.8568 15.0628 11.7675C15.0253 11.6888 14.9916 11.5988 14.9803 11.5725C14.9703 11.5325 14.9578 11.5288 14.9428 11.5613C14.9316 11.58 14.9166 11.6363 14.9053 11.6813C14.8919 11.7419 14.8691 11.8001 14.8378 11.8538L14.7816 11.9363L14.7441 11.865C14.7066 11.79 14.6466 11.7075 14.6241 11.7075C14.6166 11.7075 14.6078 11.7263 14.5978 11.7638C14.5791 11.8238 14.4328 12 14.3953 12C14.3841 12 14.3728 11.9513 14.3728 11.8875C14.3728 11.8313 14.3616 11.7788 14.3466 11.7788C14.3316 11.7813 14.3228 11.7938 14.3203 11.8163C14.3203 11.8613 14.1966 12.0038 14.1516 12.0038C14.1316 12.0038 14.1103 12.0163 14.0878 12.0413C14.0428 12.09 14.0053 12.0825 14.0241 12.0263C14.0293 11.9783 14.0242 11.9297 14.0091 11.8838L13.9716 11.7638C13.9666 11.7463 13.9166 11.7525 13.8216 11.7825C13.6716 11.8313 13.6191 11.82 13.6978 11.76C13.7278 11.7375 13.7728 11.6588 13.7953 11.5875C13.8216 11.5125 13.8591 11.4488 13.8778 11.4413C13.9053 11.4313 13.9028 11.4463 13.8703 11.4863C13.849 11.515 13.8349 11.5485 13.8291 11.5838C13.8291 11.6025 13.8103 11.6513 13.7916 11.6925C13.7728 11.7338 13.7541 11.7675 13.7578 11.7713C13.7616 11.775 13.8216 11.7525 13.8891 11.7225L14.0091 11.6625V11.715C14.0091 11.745 14.0241 11.82 14.0428 11.8838L14.0766 11.9963L14.1591 11.9588C14.2416 11.9213 14.3203 11.7863 14.3203 11.6775C14.3203 11.625 14.3503 11.6325 14.3653 11.6888C14.3653 11.7038 14.3878 11.7675 14.4028 11.8275L14.4403 11.9325L14.4966 11.865C14.5303 11.8275 14.5678 11.7525 14.5828 11.7038C14.6128 11.6138 14.6578 11.5725 14.6578 11.64C14.6578 11.685 14.7853 11.8575 14.8078 11.8425C14.8228 11.835 14.8453 11.7713 14.8641 11.7C14.9016 11.55 14.9578 11.4525 14.9953 11.475C15.0103 11.485 15.0141 11.4975 15.0066 11.5125C14.9991 11.52 15.0291 11.6175 15.0741 11.7225L15.1716 11.9588C15.1866 11.9963 15.2016 11.9963 15.2953 11.91C15.3516 11.8575 15.4078 11.8013 15.4116 11.7825C15.4228 11.7525 15.4341 11.7563 15.4866 11.79C15.5971 11.8484 15.7183 11.8841 15.8428 11.895C15.8503 11.8875 15.8578 11.82 15.8578 11.745L15.8616 11.6063L15.9366 11.6213C15.9741 11.6325 16.0603 11.6325 16.1241 11.6213L16.2366 11.6063L16.1353 11.5313C16.0791 11.4938 16.0228 11.445 16.0078 11.4225C15.9928 11.4 15.9441 11.3775 15.8878 11.3738C15.7341 11.3588 15.4603 11.2088 15.4603 11.1338C15.4653 11.1238 15.4928 11.1413 15.5428 11.1863C15.6478 11.28 15.7903 11.3363 15.9178 11.3363H16.0078L15.9516 11.2613C15.9116 11.2031 15.8859 11.1363 15.8766 11.0663C15.8691 10.9538 15.8578 10.9388 15.7416 10.86C15.6742 10.8123 15.6114 10.7583 15.5541 10.6988L15.4903 10.6275L15.4566 10.7138C15.4366 10.7663 15.4203 10.795 15.4078 10.8C15.4003 10.8 15.3628 10.77 15.3328 10.7363C15.3117 10.7118 15.2863 10.6915 15.2578 10.6763C15.2466 10.6763 15.2203 10.7213 15.1903 10.7775L15.1378 10.8788L15.1003 10.8225C15.0669 10.7766 15.0293 10.7339 14.9878 10.695C14.9403 10.655 14.9241 10.6325 14.9391 10.6275C14.9541 10.6275 15.0028 10.665 15.0516 10.7138L15.1341 10.8L15.1716 10.7363C15.1932 10.6921 15.1998 10.6421 15.1903 10.5938C15.1753 10.5288 15.1791 10.52 15.2016 10.5675C15.2339 10.6099 15.2718 10.6477 15.3141 10.68L15.3966 10.7475L15.4528 10.6463C15.5091 10.5413 15.5091 10.5413 15.5316 10.605C15.5691 10.6838 15.8128 10.8863 16.0191 11.0025C16.0566 11.0225 16.0441 10.96 15.9816 10.815C15.9638 10.7669 15.9536 10.7163 15.9516 10.665C15.9516 10.5975 15.9328 10.5675 15.8466 10.5C15.7932 10.4655 15.7485 10.4192 15.7159 10.3645C15.6834 10.3099 15.6639 10.2484 15.6591 10.185C15.6478 10.1213 15.6253 10.0538 15.6066 10.0313C15.5841 9.98879 15.5766 10.0213 15.5841 10.1288C15.5916 10.2075 15.5803 10.305 15.5616 10.3463L15.5316 10.4213L15.5091 10.3575C15.4941 10.3238 15.4341 10.2638 15.3778 10.2263C15.3216 10.1888 15.2803 10.1513 15.2878 10.1438C15.2953 10.1363 15.3553 10.17 15.4191 10.2188C15.5203 10.2975 15.5391 10.305 15.5541 10.2713C15.5691 10.2338 15.5541 10.0613 15.5241 9.94129C15.5091 9.88129 15.5091 9.88129 15.5841 9.95629C15.6341 10.0038 15.6703 10.0813 15.6928 10.1888C15.7228 10.3313 15.7378 10.3575 15.8691 10.4738C15.9478 10.545 16.0191 10.5975 16.0228 10.5938C16.0303 10.5863 16.0378 10.4063 16.0453 10.1888C16.0603 9.77254 16.0453 9.67129 15.9441 9.54379L15.8916 9.47629L15.9741 9.39004C16.0665 9.30164 16.1283 9.18602 16.1503 9.06004L16.1653 8.95879L16.0753 9.04504C16.0003 9.11629 15.9628 9.13129 15.8766 9.13129C15.7903 9.13129 15.7566 9.11629 15.7003 9.05629C15.6127 8.97194 15.5059 8.91017 15.3891 8.87629C15.3466 8.86129 15.3266 8.86879 15.3291 8.89879C15.3291 8.92129 15.3066 8.98129 15.2766 9.03754L15.2241 9.13504L15.1116 9.02254C15.0403 8.95879 14.9616 8.90254 14.8978 8.88754C14.7441 8.85004 14.7366 8.85004 14.7366 8.96629C14.7341 9.14379 14.6641 9.17504 14.5266 9.06004C14.4216 8.97004 14.3391 8.94754 14.1403 8.97379L13.9903 8.98879L14.0166 9.05629C14.0391 9.11254 14.0353 9.13879 13.9866 9.20254C13.9078 9.30754 13.8066 9.35254 13.6491 9.35254C13.5741 9.35254 13.4841 9.36754 13.4466 9.38629C13.4091 9.40504 13.3116 9.42379 13.2328 9.43129C13.1578 9.43879 13.0716 9.45379 13.0453 9.46129C13.0078 9.47629 13.0078 9.46129 13.0191 9.37879C13.0378 9.25129 12.9441 9.15379 12.8053 9.15379C12.6216 9.15379 12.5391 9.31879 12.6103 9.53629L12.6478 9.67879C12.6971 9.77257 12.7632 9.85647 12.8428 9.92629C12.9403 10.0238 13.0303 10.125 13.0453 10.1513C13.0755 10.1904 13.1139 10.2224 13.1578 10.245L13.2403 10.29L13.2291 10.2C13.2166 10.1 13.2366 10.0863 13.2891 10.1588C13.3078 10.1813 13.3566 10.2225 13.3941 10.245C13.4578 10.2825 13.4691 10.2825 13.4691 10.2525C13.4691 10.23 13.4803 10.1813 13.4953 10.1438L13.5216 10.0763L13.5703 10.17C13.5966 10.2225 13.6828 10.3388 13.7616 10.4325C13.9153 10.6088 14.0128 10.8075 13.9641 10.8525C13.9416 10.8713 13.8891 10.8713 13.7766 10.8488C13.6941 10.8338 13.5891 10.8225 13.5441 10.83C13.4578 10.8413 13.4503 10.83 13.5066 10.7625C13.5628 10.6875 13.5516 10.6763 13.4391 10.6763C13.3078 10.6763 12.9816 10.6125 12.8541 10.5638C12.7341 10.515 12.7041 10.5263 12.6666 10.6425L12.6028 10.8525L12.5653 10.965L12.7003 10.9538C12.7699 10.9465 12.8389 10.934 12.9066 10.9163C12.9331 10.9074 12.9611 10.9036 12.9891 10.905C12.9966 10.9088 12.9778 10.9538 12.9516 11.0063L12.8991 11.0963L12.9816 11.0813C13.0266 11.07 13.0941 11.0475 13.1316 11.0288C13.1991 10.9988 13.2066 10.9988 13.2591 11.085C13.3266 11.185 13.3678 11.1813 13.3828 11.0738C13.3928 10.9588 13.4328 10.9763 13.5028 11.1263C13.5703 11.2688 13.6378 11.3213 13.6528 11.2388C13.6603 11.2038 13.6866 11.1688 13.7316 11.1338C13.8141 11.0788 13.8728 11.095 13.9078 11.1825C13.9453 11.2763 13.8628 11.37 13.6303 11.5125C13.415 11.6314 13.2298 11.798 13.0887 11.9995C12.9477 12.201 12.8546 12.432 12.8166 12.675C12.7453 13.1175 12.9666 13.575 13.4016 13.9088C13.6116 14.0663 13.9453 14.2313 13.9228 14.1713C13.8328 13.8975 13.8366 13.3838 13.9266 13.2975C13.9416 13.2825 13.9378 13.335 13.9153 13.4138C13.8403 13.71 13.8778 13.9425 14.0653 14.49C14.2303 14.985 14.2078 15.1988 13.9678 15.3375C13.8928 15.3825 13.8441 15.39 13.6378 15.3863C13.4128 15.3863 13.3866 15.3863 13.3153 15.4463C13.2298 15.5347 13.1735 15.6473 13.1541 15.7688C13.1541 15.8163 13.2041 15.8113 13.3041 15.7538H13.3078Z" fill="#FFB700" stroke="black" stroke-width="0.56"/>
<path d="M16.9454 15.7426L17.0391 15.6826L17.1029 15.7426C17.1854 15.8213 17.2866 15.8176 17.3654 15.7388C17.4054 15.6988 17.4291 15.6801 17.4366 15.6826L17.4704 15.7426C17.4879 15.7751 17.5329 15.7938 17.6054 15.7988C17.6916 15.8026 17.7179 15.7988 17.7554 15.7463L17.7929 15.6826L17.8866 15.7426C18.1416 15.9076 18.2766 15.7351 18.1603 15.3938C18.1041 15.2213 18.1379 15.1238 18.3216 14.9063C18.4004 14.8126 18.4641 14.7113 18.4641 14.6813C18.4641 14.6401 18.4491 14.6326 18.3441 14.6363C18.2466 14.6363 18.2166 14.6251 18.1641 14.5688C18.0791 14.4738 18.0841 14.3663 18.1791 14.2463L18.2541 14.1526L18.1191 14.0626C18.0114 13.9829 17.911 13.8938 17.8191 13.7963C17.653 13.6022 17.4174 13.481 17.1628 13.4588L16.9866 13.4401V13.5751C16.9866 13.7438 17.0691 13.9088 17.2866 14.1863C17.5341 14.5013 17.5491 14.5501 17.5603 14.9626L17.5716 15.3113L17.4966 15.3788C17.4329 15.4388 17.4066 15.4501 17.1966 15.4613C16.9979 15.4726 16.9529 15.4838 16.8966 15.5363C16.8316 15.585 16.7863 15.6556 16.7691 15.7351C16.7578 15.7913 16.7616 15.8026 16.8029 15.8026C16.8291 15.8026 16.8928 15.7763 16.9454 15.7426ZM11.6128 14.8426C11.6352 14.8091 11.6481 14.7702 11.6503 14.7301C11.6503 14.6926 11.6728 14.6776 11.7703 14.6626L11.8866 14.6476L11.8116 14.5838C11.7179 14.5088 11.7066 14.4526 11.7891 14.4526C11.8716 14.4526 12.0066 14.3701 12.0291 14.3063C12.0366 14.2713 12.0316 14.2426 12.0141 14.2201C11.9691 14.1676 11.8829 14.1751 11.8679 14.2351C11.8491 14.2951 11.8229 14.2951 11.7554 14.2351C11.6616 14.1413 11.6579 13.9501 11.7554 13.8376C11.7966 13.7851 11.7966 13.7851 11.7404 13.7288C11.6804 13.6688 11.6354 13.5563 11.6654 13.5263C11.6729 13.5188 11.7216 13.5263 11.7703 13.5451C11.8453 13.5676 11.8716 13.5676 11.9016 13.5451C11.9878 13.4738 11.8941 13.3838 11.7516 13.4063C11.6966 13.4163 11.6666 13.4063 11.6616 13.3763C11.6541 13.3538 11.6054 13.3238 11.5491 13.3088C11.4479 13.2826 11.4478 13.2826 11.4478 13.3538C11.4478 13.4288 11.4053 13.4426 11.3203 13.3951C11.2528 13.3576 11.1891 13.3876 11.1891 13.4588C11.1891 13.5263 11.2516 13.5563 11.3766 13.5488C11.4666 13.5451 11.4704 13.6126 11.3841 13.7101L11.3203 13.7851L11.3691 13.8563C11.4441 13.9613 11.4366 14.1376 11.3578 14.2276L11.2941 14.2951L11.2529 14.2388C11.1929 14.1638 11.1141 14.1676 11.0916 14.2501C11.0803 14.3026 11.0916 14.3251 11.1591 14.3851C11.2041 14.4226 11.2716 14.4526 11.3054 14.4526C11.3916 14.4526 11.3878 14.5238 11.2978 14.5913L11.2228 14.6476L11.3353 14.6626C11.3953 14.6738 11.4478 14.6888 11.4478 14.7001C11.4478 14.7488 11.5228 14.8951 11.5453 14.8951C11.5653 14.8901 11.5878 14.8713 11.6128 14.8388V14.8426Z" fill="#FFB700" stroke="black" stroke-width="0.56"/>
<path d="M13.0453 14.2201C13.1466 14.1826 13.3641 13.9951 13.3641 13.9538C13.3641 13.9388 13.3041 13.8713 13.2291 13.8038C13.0791 13.6688 12.9103 13.4326 12.8653 13.2976C12.8428 13.2226 12.7341 13.1026 12.4266 12.8026L12.0178 12.4088L11.9016 12.4388C11.8341 12.4538 11.7553 12.4688 11.7253 12.4688C11.6691 12.4688 11.6691 12.4688 11.7441 12.5288L11.8191 12.5888L11.9316 12.5288C12.0328 12.4688 12.0366 12.4688 12.0478 12.5176C12.0553 12.5438 12.0403 12.5926 12.0103 12.6263C11.9841 12.6601 11.9691 12.7013 11.9728 12.7126C11.9803 12.7276 11.9616 12.7476 11.9166 12.7726C11.8416 12.8101 11.7853 12.9338 11.8453 12.9338C11.9016 12.9338 12.0216 12.7838 12.0066 12.7351C12.0016 12.7051 12.0041 12.6851 12.0141 12.6751C12.0628 12.6488 12.0591 12.7651 12.0141 12.8251C11.9841 12.8551 11.9691 12.8926 11.9766 12.9076C11.9816 12.9226 11.9616 12.9426 11.9166 12.9676C11.8416 13.0051 11.7853 13.1288 11.8453 13.1288C11.9053 13.1288 12.0216 12.9863 12.0103 12.9338C12.0028 12.9038 12.0041 12.8826 12.0141 12.8701C12.0478 12.8551 12.0628 12.9451 12.0366 12.9901C12.0285 13.0023 12.0242 13.0167 12.0242 13.0313C12.0242 13.046 12.0285 13.0603 12.0366 13.0726C12.0628 13.1213 12.0366 13.2113 11.9878 13.2413C11.9678 13.2538 11.9828 13.2788 12.0328 13.3163C12.1078 13.3688 12.1078 13.3763 12.1078 13.6163C12.1078 13.8188 12.1153 13.8713 12.1528 13.9051C12.1853 13.9426 12.2003 13.9426 12.1978 13.9051C12.1941 13.8488 12.2728 13.8151 12.3291 13.8151C12.3478 13.8151 12.4566 13.9088 12.5728 14.0213C12.6891 14.1338 12.8128 14.2351 12.8466 14.2388L12.9291 14.2538C12.9403 14.2538 12.9928 14.2426 13.0453 14.2163V14.2201ZM11.7966 13.2413C11.7966 13.1776 11.6616 13.1063 11.5003 13.0913C11.3691 13.0726 11.3691 13.0763 11.3691 13.1401C11.3691 13.1926 11.3878 13.2151 11.4816 13.2526C11.6241 13.3163 11.7966 13.3088 11.7966 13.2413Z" fill="#FFB700" stroke="black" stroke-width="0.56"/>
<path d="M11.9428 13.2338C12.0103 13.1738 12.0403 13.1063 11.9991 13.1063C11.9578 13.1063 11.8341 13.2113 11.8341 13.2563C11.8341 13.3163 11.8566 13.3125 11.9466 13.2338H11.9428ZM11.8041 13.0425C11.8116 13.01 11.7828 12.9788 11.7178 12.9488C11.5678 12.885 11.3953 12.8513 11.3541 12.885C11.2753 12.9488 11.3278 13.0313 11.4516 13.0463C11.5041 13.05 11.5716 13.065 11.6053 13.08C11.7028 13.1175 11.7928 13.0988 11.8041 13.0425ZM11.8041 12.8438C11.8116 12.795 11.7778 12.7763 11.5041 12.6788C11.2978 12.6038 11.2078 12.6413 11.2753 12.765C11.2978 12.8063 11.3353 12.825 11.4216 12.84C11.4853 12.8475 11.5716 12.8663 11.6128 12.8813C11.7278 12.9188 11.7903 12.9063 11.8003 12.8438H11.8041ZM11.9391 12.66C11.9803 12.6188 12.0141 12.57 12.0141 12.5475C12.0141 12.4913 11.8528 12.5963 11.8303 12.6713C11.8103 12.7588 11.8478 12.755 11.9428 12.66H11.9391ZM11.8041 12.6488C11.8116 12.5888 11.7166 12.5375 11.5191 12.495C11.3741 12.4625 11.3078 12.48 11.3203 12.5475C11.3278 12.585 11.3766 12.6113 11.5078 12.6525C11.7291 12.72 11.7928 12.72 11.8041 12.6488ZM11.9916 12.3713C12.2466 12.2588 12.2653 11.9775 12.0291 11.9025C11.9341 11.8725 11.8691 11.89 11.8341 11.955C11.8041 12.0075 11.8228 12.0975 11.8603 12.0975C11.8753 12.1 11.8841 12.1125 11.8866 12.135C11.8866 12.2363 11.5041 12.2775 11.3466 12.1988C11.2903 12.1725 11.2716 12.0975 11.3128 12.0975C11.3503 12.0975 11.3728 12.0225 11.3541 11.9738C11.3291 11.8988 11.2628 11.8763 11.1553 11.9063C10.9191 11.9663 10.9266 12.2438 11.1666 12.3563C11.4323 12.4526 11.7225 12.4578 11.9916 12.3713Z" fill="#FFB700" stroke="black" stroke-width="0.56"/>
<path d="M11.8378 12.1538C11.8503 12.1363 11.8453 12.1188 11.8228 12.1013C11.7728 12.0563 11.7753 11.9975 11.8303 11.925C11.8753 11.8725 11.8791 11.79 11.8941 10.9838C11.9203 9.59251 12.0253 8.54626 12.1603 8.29126C12.2166 8.19376 12.2091 8.19376 12.0666 8.29126C11.8796 8.42152 11.7287 8.59696 11.6278 8.80126C11.3953 9.23251 11.3166 9.81376 11.3166 11.0588C11.3166 11.7638 11.3203 11.8575 11.3616 11.9213C11.3991 11.9888 11.3991 12.0113 11.3766 12.0788C11.3578 12.12 11.3503 12.165 11.3578 12.1725C11.4103 12.2213 11.7853 12.21 11.8378 12.1538ZM13.9416 10.8263C13.9528 10.815 13.9341 10.7513 13.9041 10.6913C13.8591 10.5938 13.8403 10.5788 13.7766 10.5788C13.4767 10.5527 13.1843 10.4713 12.9141 10.3388C12.7228 10.2525 12.6516 10.2338 12.6328 10.2563C12.5728 10.3125 12.6703 10.4438 12.8203 10.515C13.0411 10.5946 13.2723 10.6413 13.5066 10.6538C13.6078 10.6538 13.6116 10.6538 13.5516 10.74L13.5141 10.8H13.6266L13.8141 10.8225C13.9266 10.8488 13.9266 10.8488 13.9416 10.8263Z" fill="#FFB700" stroke="black" stroke-width="0.56"/>
<path d="M15.1266 11.4526C15.1266 11.4151 15.0178 11.3213 14.9128 11.2576C14.8266 11.2088 14.8116 11.2051 14.8116 11.2463C14.8116 11.3063 14.7591 11.4601 14.7366 11.4601C14.7216 11.4551 14.7091 11.4338 14.6991 11.3963C14.6878 11.3588 14.6466 11.2838 14.6053 11.2351L14.5303 11.1413L14.4778 11.2276C14.4253 11.3101 14.3316 11.3888 14.2903 11.3888C14.2828 11.3888 14.2791 11.3438 14.2903 11.2951C14.2953 11.2301 14.2891 11.1926 14.2716 11.1826C14.2541 11.1726 14.2441 11.1751 14.2416 11.1901C14.2416 11.2201 14.1141 11.3626 14.0916 11.3626C14.0766 11.3601 14.0641 11.3301 14.0541 11.2726L14.0241 11.0926C14.0191 11.0501 14.0316 11.0751 14.0616 11.1676L14.1216 11.3213L14.1816 11.2276C14.2087 11.1888 14.229 11.1457 14.2416 11.1001C14.2416 11.0801 14.2503 11.0738 14.2678 11.0813C14.2828 11.0888 14.3016 11.1526 14.3091 11.2201L14.3278 11.3476L14.3953 11.2726L14.4928 11.1526C14.5191 11.1076 14.5228 11.1076 14.5791 11.1526C14.6091 11.1826 14.6578 11.2463 14.6878 11.2988C14.7178 11.3513 14.7441 11.3888 14.7478 11.3851L14.7703 11.2651L14.7853 11.1526C14.7891 11.1338 14.9878 11.2651 15.0628 11.3288C15.1078 11.3701 15.1528 11.4001 15.1603 11.3926C15.1678 11.3851 15.1753 11.3251 15.1753 11.2538C15.1753 11.1488 15.1641 11.1188 15.1003 11.0626C15.0253 10.9951 15.0253 10.9951 14.9953 11.0438C14.9578 11.1076 14.9166 11.1076 14.9166 11.0438C14.9166 10.9988 14.7741 10.8226 14.7403 10.8226C14.7253 10.8276 14.7028 10.8563 14.6728 10.9088C14.6278 10.9876 14.6166 10.9951 14.6091 10.9951C14.5716 10.9951 14.3728 10.7701 14.3728 10.7326C14.3728 10.7001 14.3891 10.7101 14.4216 10.7626C14.4551 10.8118 14.4941 10.8571 14.5378 10.8976C14.6128 10.9651 14.6428 10.9501 14.6728 10.8188C14.6853 10.7788 14.6978 10.7563 14.7103 10.7513C14.7403 10.7513 14.9128 10.9351 14.9353 10.9951L14.9616 11.0551L14.9803 10.9876C15.0028 10.9076 15.0316 10.9051 15.0666 10.9801C15.0816 11.0101 15.1566 11.0776 15.2316 11.1226L15.3703 11.2126L15.3966 11.1226C15.4166 11.0726 15.4316 11.0526 15.4416 11.0626C15.4566 11.0813 15.4191 11.2313 15.3928 11.2613C15.3928 11.2651 15.3441 11.2388 15.2953 11.2051L15.2016 11.1376V11.2576C15.2016 11.3213 15.1941 11.4001 15.1866 11.4301C15.1678 11.4901 15.1228 11.5051 15.1228 11.4526H15.1266ZM14.4328 10.5001C14.2678 10.3651 14.2453 10.3351 14.2453 10.2676L14.2491 10.2001L14.2603 10.2638C14.2678 10.3013 14.3128 10.3613 14.3653 10.4063L14.4628 10.4813L14.5191 10.4138C14.5528 10.3763 14.5791 10.3313 14.5791 10.3163C14.5791 10.2713 14.5866 10.2751 14.6991 10.3726C14.7966 10.4588 14.8003 10.4588 14.8116 10.4026C14.8228 10.3726 14.8191 10.3126 14.8116 10.2713C14.7741 10.1613 14.7803 10.1413 14.8303 10.2113L14.9203 10.3163C14.9578 10.3576 14.9616 10.3576 14.9766 10.3051C14.9878 10.2713 14.9953 10.2151 14.9953 10.1776V10.1063L15.0816 10.2076C15.1678 10.3051 15.1753 10.3088 15.1978 10.2601C15.2166 10.2338 15.2278 10.1701 15.2278 10.1213C15.2278 10.0563 15.2353 10.0363 15.2503 10.0613C15.2803 10.1063 15.2616 10.2188 15.2091 10.3163L15.1716 10.3913L15.1228 10.3126C15.0591 10.2151 15.0366 10.2151 14.9991 10.3201C14.9641 10.4201 14.9303 10.4301 14.8978 10.3501C14.8753 10.3013 14.8678 10.3088 14.8528 10.4138L14.8341 10.5263L14.7216 10.4401L14.6091 10.3538L14.5528 10.4101C14.5266 10.4438 14.5041 10.4851 14.5041 10.5001C14.5016 10.5376 14.4778 10.5376 14.4328 10.5001ZM15.8953 9.99007C15.8391 9.93757 15.7978 9.88507 15.8053 9.87757C15.8178 9.86507 15.8253 9.86257 15.8278 9.87007L15.9403 9.98257C16.0678 10.1176 16.0416 10.1213 15.8991 9.99007H15.8953ZM13.9453 9.78757C13.8928 9.71257 13.8966 9.66757 13.9641 9.58507C14.0091 9.52882 14.0316 9.52132 14.1141 9.53257C14.1703 9.53632 14.2866 9.58507 14.3728 9.63757C14.4973 9.7124 14.6401 9.75133 14.7853 9.75007L14.7216 9.64507C14.6366 9.52507 14.6416 9.50382 14.7366 9.58132C14.8341 9.66007 14.9503 9.68257 15.2128 9.67507L15.3403 9.67132L15.2653 9.59632C15.1641 9.49507 15.1941 9.48382 15.3103 9.58507C15.4153 9.67882 15.4116 9.68632 15.1828 9.70882C15.0874 9.71846 14.9911 9.71212 14.8978 9.69007C14.7703 9.65257 14.7628 9.65632 14.7891 9.69757C14.8066 9.72507 14.8228 9.74007 14.8378 9.74257C14.8528 9.74507 14.8616 9.75507 14.8641 9.77257C14.8641 9.82132 14.5866 9.77632 14.4516 9.71257C14.1516 9.55882 14.1141 9.54382 14.0391 9.56632C14.0188 9.57341 14.0002 9.58477 13.9847 9.59966C13.9692 9.61454 13.957 9.63258 13.9491 9.65257C13.9003 9.77632 14.0766 9.87382 14.1478 9.76507C14.1703 9.73132 14.1666 9.71257 14.1291 9.67132C14.0766 9.62132 14.0841 9.60882 14.1516 9.63382C14.2003 9.65257 14.2041 9.76882 14.1591 9.81382C14.1103 9.86257 13.9903 9.85132 13.9453 9.78757Z" fill="#000001" stroke="black" stroke-width="0.56"/>
<path d="M15.1416 9.48382C15.1041 9.44632 15.1341 9.43882 15.3028 9.43507C15.5128 9.43132 15.6403 9.39757 15.7903 9.30007C15.9103 9.22507 15.9441 9.24007 15.8278 9.31882C15.7266 9.39382 15.5653 9.44632 15.4041 9.46132L15.2128 9.48757C15.1778 9.49507 15.1528 9.49382 15.1378 9.48382H15.1416Z" fill="#000001" stroke="black" stroke-width="0.56"/>
<path d="M13.3078 15.7538L13.3941 15.7013L13.4316 15.7538C13.4803 15.8213 13.6191 15.8175 13.7091 15.7538L13.7803 15.6975L13.8403 15.75C13.9153 15.8213 14.0578 15.8213 14.1516 15.75C14.2153 15.705 14.2266 15.7013 14.2641 15.7388C14.2903 15.7613 14.3653 15.7838 14.4291 15.795C14.5491 15.81 14.5491 15.81 14.6166 15.705C14.6766 15.6188 14.6841 15.585 14.6728 15.4988L14.6503 15.3C14.6428 15.2025 14.6466 15.2025 14.7853 15.15L14.9878 15.075C15.0441 15.0413 15.2016 14.8575 15.2016 14.82C15.2016 14.8125 15.1416 14.7975 15.0666 14.79C14.7666 14.755 14.7153 14.5925 14.9128 14.3025C15.2241 13.815 15.4153 13.3463 15.4153 13.05C15.4153 12.9175 15.4241 12.8675 15.4416 12.9C15.5128 13.0163 15.3853 13.515 15.1978 13.875L15.1228 14.0175L15.1941 14.0025C15.2316 13.9913 15.4716 13.89 15.7191 13.7775C16.4016 13.47 16.6341 13.41 17.0766 13.4288C17.4478 13.4438 17.6016 13.515 17.8641 13.7888C18.0028 13.9388 18.1378 14.04 18.3816 14.1938C18.8991 14.5163 18.9216 14.5463 18.9478 14.9288C18.9741 15.3113 18.9591 15.3375 18.6666 15.4013C18.4116 15.4588 18.2616 15.5713 18.2166 15.7388C18.1916 15.8238 18.2416 15.825 18.3666 15.7425L18.4603 15.6825L18.5016 15.7425C18.5578 15.8213 18.6703 15.8213 18.7641 15.7425L18.8391 15.6863L18.9141 15.7425C19.0266 15.8363 19.1766 15.8138 19.2216 15.6975C19.2291 15.6775 19.2541 15.6863 19.2966 15.7238C19.3828 15.7988 19.5966 15.8288 19.6191 15.7688C19.6266 15.7463 19.6116 15.6938 19.5816 15.6488C19.4578 15.4613 19.4166 15.375 19.4166 15.2738C19.4166 15.1313 19.4541 15.06 19.6191 14.9475C19.8141 14.805 19.8741 14.625 19.7241 14.625C19.6341 14.625 19.5403 14.5425 19.4803 14.4113C19.3603 14.1413 19.3866 13.8413 19.5666 13.3388C19.7041 13.043 19.7733 12.72 19.7691 12.3938C19.7691 12.1163 19.7616 12.0713 19.7016 11.9175C19.6548 11.8106 19.5969 11.7088 19.5291 11.6138L19.4241 11.475L19.5553 11.3625C19.9603 11.0288 19.8778 10.4813 19.3903 10.2713C19.2403 10.2038 19.2028 10.2 18.9403 10.2C18.7903 10.2 18.5466 10.2225 18.4153 10.2488C18.2392 10.2767 18.0612 10.2917 17.8828 10.2938C17.6278 10.2938 17.5828 10.2863 17.4853 10.2338C17.3841 10.1813 17.3653 10.155 17.3466 10.0275C17.3448 10.0155 17.3401 10.0041 17.3329 9.99433C17.3257 9.98453 17.3163 9.97663 17.3053 9.97129C17.2678 9.96004 17.1103 10.0988 17.0878 10.1588C17.0728 10.1925 17.0653 10.1888 17.0316 10.1475C16.9996 10.1068 16.9743 10.0612 16.9566 10.0125C16.9166 9.89004 16.9691 9.79504 17.1141 9.72754L17.2266 9.67504L17.1591 9.63379C17.0241 9.54754 16.7916 9.60754 16.7091 9.74629C16.6828 9.78379 16.6566 9.82129 16.6491 9.82129C16.6416 9.82129 16.5966 9.78379 16.5516 9.73504C16.3753 9.56254 16.4353 9.30754 16.6716 9.23254C16.7953 9.19129 16.9078 9.22129 16.9303 9.30754C16.9678 9.43129 17.0728 9.26629 17.0541 9.11254C17.0428 9.01129 17.0428 9.00754 17.1141 9.00754C17.2116 9.00754 17.4141 9.13504 17.4816 9.23254C17.5566 9.34879 17.5491 9.53254 17.4666 9.66754L17.4028 9.77254L17.4891 9.75754C17.6091 9.73129 17.7291 9.65629 17.7891 9.56254C17.8207 9.50283 17.8385 9.43677 17.8411 9.36925C17.8437 9.30174 17.831 9.2345 17.8041 9.17254C17.7478 9.07129 17.7553 9.05629 17.8378 9.09004C17.9728 9.14629 18.0478 9.21004 18.1003 9.31879C18.1528 9.41629 18.1566 9.43879 18.1303 9.54379C18.1124 9.60772 18.0845 9.66845 18.0478 9.72379C18.0028 9.78379 17.9991 9.79504 18.0366 9.79504C18.1041 9.79504 18.2391 9.73129 18.2878 9.68254C18.3141 9.65254 18.3516 9.58879 18.3703 9.53254L18.4078 9.43879L18.4453 9.51379C18.5016 9.61504 18.6141 9.70879 18.7491 9.76879C18.8953 9.82879 18.9553 9.83254 18.8803 9.77629C18.8278 9.73879 18.7303 9.45754 18.7641 9.43129C18.9259 9.52192 19.0737 9.63561 19.2028 9.76879C19.4166 9.96004 19.5516 10.0238 19.7466 10.0238C19.9978 10.0238 20.1441 9.80629 20.0316 9.60004C19.9678 9.48004 19.8216 9.46129 19.7316 9.56254C19.6941 9.60754 19.6816 9.65379 19.6941 9.70129C19.7091 9.76129 19.7053 9.76879 19.6491 9.76879C19.5741 9.76879 19.4316 9.67504 19.1766 9.46129C18.8216 9.15583 18.4136 8.91814 17.9728 8.76004C17.6743 8.69071 17.3659 8.67421 17.0616 8.71129C16.8216 8.75629 16.5366 8.89504 16.3791 9.04129C16.1053 9.30379 16.1016 9.65254 16.3678 9.97129L16.4428 10.0613L16.3941 10.1438C16.3559 10.2023 16.3368 10.2713 16.3395 10.3412C16.3422 10.411 16.3665 10.4783 16.4091 10.5338C16.4466 10.5863 16.4841 10.6275 16.4953 10.6275C16.5028 10.6225 16.5091 10.5975 16.5141 10.5525C16.5216 10.45 16.5641 10.385 16.6416 10.3575C16.7091 10.3313 16.7541 10.3463 17.0616 10.47C17.3878 10.5975 17.9241 10.605 18.4941 10.4925C18.7412 10.4361 18.9982 10.4386 19.2441 10.5C19.5141 10.6125 19.5741 10.9013 19.3791 11.1188C19.2928 11.2163 19.2141 11.2538 18.9403 11.3288C18.702 11.3919 18.4542 11.411 18.2091 11.385C17.8041 11.3813 17.6578 11.3888 17.4966 11.4225C17.3128 11.46 17.2041 11.4638 16.6791 11.4525L16.0678 11.4375L16.1353 11.49L16.2516 11.5763C16.3003 11.6025 16.2966 11.6063 16.2291 11.6325C16.1916 11.6475 16.1016 11.6588 16.0303 11.6588H15.9066L15.8916 11.7638C15.8815 11.8133 15.8815 11.8643 15.8916 11.9138C15.9066 11.9488 15.8966 11.9588 15.8616 11.9438C15.8353 11.9325 15.7641 11.9138 15.7003 11.9025C15.636 11.8887 15.5732 11.8686 15.5128 11.8425C15.4416 11.805 15.4341 11.805 15.4078 11.8538C15.3853 11.8913 15.1753 12.0488 15.1453 12.0488C15.1316 11.9515 15.1038 11.8568 15.0628 11.7675C15.0253 11.6888 14.9916 11.5988 14.9803 11.5725C14.9703 11.5325 14.9578 11.5288 14.9428 11.5613C14.9316 11.58 14.9166 11.6363 14.9053 11.6813C14.8919 11.7419 14.8691 11.8001 14.8378 11.8538L14.7816 11.9363L14.7441 11.865C14.7066 11.79 14.6466 11.7075 14.6241 11.7075C14.6166 11.7075 14.6078 11.7263 14.5978 11.7638C14.5791 11.8238 14.4328 12 14.3953 12C14.3841 12 14.3728 11.9513 14.3728 11.8875C14.3728 11.8313 14.3616 11.7788 14.3466 11.7788C14.3316 11.7813 14.3228 11.7938 14.3203 11.8163C14.3203 11.8613 14.1966 12.0038 14.1516 12.0038C14.1316 12.0038 14.1103 12.0163 14.0878 12.0413C14.0428 12.09 14.0053 12.0825 14.0241 12.0263C14.0293 11.9783 14.0242 11.9297 14.0091 11.8838L13.9716 11.7638C13.9666 11.7463 13.9166 11.7525 13.8216 11.7825C13.6716 11.8313 13.6191 11.82 13.6978 11.76C13.7278 11.7375 13.7728 11.6588 13.7953 11.5875C13.8216 11.5125 13.8591 11.4488 13.8778 11.4413C13.9053 11.4313 13.9028 11.4463 13.8703 11.4863C13.849 11.515 13.8349 11.5485 13.8291 11.5838C13.8291 11.6025 13.8103 11.6513 13.7916 11.6925C13.7728 11.7338 13.7541 11.7675 13.7578 11.7713C13.7616 11.775 13.8216 11.7525 13.8891 11.7225L14.0091 11.6625V11.715C14.0091 11.745 14.0241 11.82 14.0428 11.8838L14.0766 11.9963L14.1591 11.9588C14.2416 11.9213 14.3203 11.7863 14.3203 11.6775C14.3203 11.625 14.3503 11.6325 14.3653 11.6888C14.3653 11.7038 14.3878 11.7675 14.4028 11.8275L14.4403 11.9325L14.4966 11.865C14.5303 11.8275 14.5678 11.7525 14.5828 11.7038C14.6128 11.6138 14.6578 11.5725 14.6578 11.64C14.6578 11.685 14.7853 11.8575 14.8078 11.8425C14.8228 11.835 14.8453 11.7713 14.8641 11.7C14.9016 11.55 14.9578 11.4525 14.9953 11.475C15.0103 11.485 15.0141 11.4975 15.0066 11.5125C14.9991 11.52 15.0291 11.6175 15.0741 11.7225L15.1716 11.9588C15.1866 11.9963 15.2016 11.9963 15.2953 11.91C15.3516 11.8575 15.4078 11.8013 15.4116 11.7825C15.4228 11.7525 15.4341 11.7563 15.4866 11.79C15.5971 11.8484 15.7183 11.8841 15.8428 11.895C15.8503 11.8875 15.8578 11.82 15.8578 11.745L15.8616 11.6063L15.9366 11.6213C15.9741 11.6325 16.0603 11.6325 16.1241 11.6213L16.2366 11.6063L16.1353 11.5313C16.0791 11.4938 16.0228 11.445 16.0078 11.4225C15.9928 11.4 15.9441 11.3775 15.8878 11.3738C15.7341 11.3588 15.4603 11.2088 15.4603 11.1338C15.4653 11.1238 15.4928 11.1413 15.5428 11.1863C15.6478 11.28 15.7903 11.3363 15.9178 11.3363H16.0078L15.9516 11.2613C15.9116 11.2031 15.8859 11.1363 15.8766 11.0663C15.8691 10.9538 15.8578 10.9388 15.7416 10.86C15.6742 10.8123 15.6114 10.7583 15.5541 10.6988L15.4903 10.6275L15.4566 10.7138C15.4366 10.7663 15.4203 10.795 15.4078 10.8C15.4003 10.8 15.3628 10.77 15.3328 10.7363C15.3117 10.7118 15.2863 10.6915 15.2578 10.6763C15.2466 10.6763 15.2203 10.7213 15.1903 10.7775L15.1378 10.8788L15.1003 10.8225C15.0669 10.7766 15.0293 10.7339 14.9878 10.695C14.9403 10.655 14.9241 10.6325 14.9391 10.6275C14.9541 10.6275 15.0028 10.665 15.0516 10.7138L15.1341 10.8L15.1716 10.7363C15.1932 10.6921 15.1998 10.6421 15.1903 10.5938C15.1753 10.5288 15.1791 10.52 15.2016 10.5675C15.2339 10.6099 15.2718 10.6477 15.3141 10.68L15.3966 10.7475L15.4528 10.6463C15.5091 10.5413 15.5091 10.5413 15.5316 10.605C15.5691 10.6838 15.8128 10.8863 16.0191 11.0025C16.0566 11.0225 16.0441 10.96 15.9816 10.815C15.9638 10.7669 15.9536 10.7163 15.9516 10.665C15.9516 10.5975 15.9328 10.5675 15.8466 10.5C15.7932 10.4655 15.7485 10.4192 15.7159 10.3645C15.6834 10.3099 15.6639 10.2484 15.6591 10.185C15.6478 10.1213 15.6253 10.0538 15.6066 10.0313C15.5841 9.98879 15.5766 10.0213 15.5841 10.1288C15.5916 10.2075 15.5803 10.305 15.5616 10.3463L15.5316 10.4213L15.5091 10.3575C15.4941 10.3238 15.4341 10.2638 15.3778 10.2263C15.3216 10.1888 15.2803 10.1513 15.2878 10.1438C15.2953 10.1363 15.3553 10.17 15.4191 10.2188C15.5203 10.2975 15.5391 10.305 15.5541 10.2713C15.5691 10.2338 15.5541 10.0613 15.5241 9.94129C15.5091 9.88129 15.5091 9.88129 15.5841 9.95629C15.6341 10.0038 15.6703 10.0813 15.6928 10.1888C15.7228 10.3313 15.7378 10.3575 15.8691 10.4738C15.9478 10.545 16.0191 10.5975 16.0228 10.5938C16.0303 10.5863 16.0378 10.4063 16.0453 10.1888C16.0603 9.77254 16.0453 9.67129 15.9441 9.54379L15.8916 9.47629L15.9741 9.39004C16.0665 9.30164 16.1283 9.18602 16.1503 9.06004L16.1653 8.95879L16.0753 9.04504C16.0003 9.11629 15.9628 9.13129 15.8766 9.13129C15.7903 9.13129 15.7566 9.11629 15.7003 9.05629C15.6127 8.97194 15.5059 8.91017 15.3891 8.87629C15.3466 8.86129 15.3266 8.86879 15.3291 8.89879C15.3291 8.92129 15.3066 8.98129 15.2766 9.03754L15.2241 9.13504L15.1116 9.02254C15.0403 8.95879 14.9616 8.90254 14.8978 8.88754C14.7441 8.85004 14.7366 8.85004 14.7366 8.96629C14.7341 9.14379 14.6641 9.17504 14.5266 9.06004C14.4216 8.97004 14.3391 8.94754 14.1403 8.97379L13.9903 8.98879L14.0166 9.05629C14.0391 9.11254 14.0353 9.13879 13.9866 9.20254C13.9078 9.30754 13.8066 9.35254 13.6491 9.35254C13.5741 9.35254 13.4841 9.36754 13.4466 9.38629C13.4091 9.40504 13.3116 9.42379 13.2328 9.43129C13.1578 9.43879 13.0716 9.45379 13.0453 9.46129C13.0078 9.47629 13.0078 9.46129 13.0191 9.37879C13.0378 9.25129 12.9441 9.15379 12.8053 9.15379C12.6216 9.15379 12.5391 9.31879 12.6103 9.53629L12.6478 9.67879C12.6971 9.77257 12.7632 9.85647 12.8428 9.92629C12.9403 10.0238 13.0303 10.125 13.0453 10.1513C13.0755 10.1904 13.1139 10.2224 13.1578 10.245L13.2403 10.29L13.2291 10.2C13.2166 10.1 13.2366 10.0863 13.2891 10.1588C13.3078 10.1813 13.3566 10.2225 13.3941 10.245C13.4578 10.2825 13.4691 10.2825 13.4691 10.2525C13.4691 10.23 13.4803 10.1813 13.4953 10.1438L13.5216 10.0763L13.5703 10.17C13.5966 10.2225 13.6828 10.3388 13.7616 10.4325C13.9153 10.6088 14.0128 10.8075 13.9641 10.8525C13.9416 10.8713 13.8891 10.8713 13.7766 10.8488C13.6941 10.8338 13.5891 10.8225 13.5441 10.83C13.4578 10.8413 13.4503 10.83 13.5066 10.7625C13.5628 10.6875 13.5516 10.6763 13.4391 10.6763C13.3078 10.6763 12.9816 10.6125 12.8541 10.5638C12.7341 10.515 12.7041 10.5263 12.6666 10.6425L12.6028 10.8525L12.5653 10.965L12.7003 10.9538C12.7699 10.9465 12.8389 10.934 12.9066 10.9163C12.9331 10.9074 12.9611 10.9036 12.9891 10.905C12.9966 10.9088 12.9778 10.9538 12.9516 11.0063L12.8991 11.0963L12.9816 11.0813C13.0266 11.07 13.0941 11.0475 13.1316 11.0288C13.1991 10.9988 13.2066 10.9988 13.2591 11.085C13.3266 11.185 13.3678 11.1813 13.3828 11.0738C13.3928 10.9588 13.4328 10.9763 13.5028 11.1263C13.5703 11.2688 13.6378 11.3213 13.6528 11.2388C13.6603 11.2038 13.6866 11.1688 13.7316 11.1338C13.8141 11.0788 13.8728 11.095 13.9078 11.1825C13.9453 11.2763 13.8628 11.37 13.6303 11.5125C13.415 11.6314 13.2298 11.798 13.0887 11.9995C12.9477 12.201 12.8546 12.432 12.8166 12.675C12.7453 13.1175 12.9666 13.575 13.4016 13.9088C13.6116 14.0663 13.9453 14.2313 13.9228 14.1713C13.8328 13.8975 13.8366 13.3838 13.9266 13.2975C13.9416 13.2825 13.9378 13.335 13.9153 13.4138C13.8403 13.71 13.8778 13.9425 14.0653 14.49C14.2303 14.985 14.2078 15.1988 13.9678 15.3375C13.8928 15.3825 13.8441 15.39 13.6378 15.3863C13.4128 15.3863 13.3866 15.3863 13.3153 15.4463C13.2298 15.5347 13.1735 15.6473 13.1541 15.7688C13.1541 15.8163 13.2041 15.8113 13.3041 15.7538H13.3078Z" fill="#FFB700"/>
<path d="M16.9454 15.7426L17.0391 15.6826L17.1029 15.7426C17.1854 15.8213 17.2866 15.8176 17.3654 15.7388C17.4054 15.6988 17.4291 15.6801 17.4366 15.6826L17.4704 15.7426C17.4879 15.7751 17.5329 15.7938 17.6054 15.7988C17.6916 15.8026 17.7179 15.7988 17.7554 15.7463L17.7929 15.6826L17.8866 15.7426C18.1416 15.9076 18.2766 15.7351 18.1603 15.3938C18.1041 15.2213 18.1379 15.1238 18.3216 14.9063C18.4004 14.8126 18.4641 14.7113 18.4641 14.6813C18.4641 14.6401 18.4491 14.6326 18.3441 14.6363C18.2466 14.6363 18.2166 14.6251 18.1641 14.5688C18.0791 14.4738 18.0841 14.3663 18.1791 14.2463L18.2541 14.1526L18.1191 14.0626C18.0114 13.9829 17.911 13.8938 17.8191 13.7963C17.653 13.6022 17.4174 13.481 17.1628 13.4588L16.9866 13.4401V13.5751C16.9866 13.7438 17.0691 13.9088 17.2866 14.1863C17.5341 14.5013 17.5491 14.5501 17.5603 14.9626L17.5716 15.3113L17.4966 15.3788C17.4329 15.4388 17.4066 15.4501 17.1966 15.4613C16.9979 15.4726 16.9529 15.4838 16.8966 15.5363C16.8316 15.585 16.7863 15.6556 16.7691 15.7351C16.7578 15.7913 16.7616 15.8026 16.8029 15.8026C16.8291 15.8026 16.8928 15.7763 16.9454 15.7426ZM11.6128 14.8426C11.6352 14.8091 11.6481 14.7702 11.6503 14.7301C11.6503 14.6926 11.6728 14.6776 11.7703 14.6626L11.8866 14.6476L11.8116 14.5838C11.7179 14.5088 11.7066 14.4526 11.7891 14.4526C11.8716 14.4526 12.0066 14.3701 12.0291 14.3063C12.0366 14.2713 12.0316 14.2426 12.0141 14.2201C11.9691 14.1676 11.8829 14.1751 11.8679 14.2351C11.8491 14.2951 11.8229 14.2951 11.7554 14.2351C11.6616 14.1413 11.6579 13.9501 11.7554 13.8376C11.7966 13.7851 11.7966 13.7851 11.7404 13.7288C11.6804 13.6688 11.6354 13.5563 11.6654 13.5263C11.6729 13.5188 11.7216 13.5263 11.7703 13.5451C11.8453 13.5676 11.8716 13.5676 11.9016 13.5451C11.9878 13.4738 11.8941 13.3838 11.7516 13.4063C11.6966 13.4163 11.6666 13.4063 11.6616 13.3763C11.6541 13.3538 11.6054 13.3238 11.5491 13.3088C11.4479 13.2826 11.4478 13.2826 11.4478 13.3538C11.4478 13.4288 11.4053 13.4426 11.3203 13.3951C11.2528 13.3576 11.1891 13.3876 11.1891 13.4588C11.1891 13.5263 11.2516 13.5563 11.3766 13.5488C11.4666 13.5451 11.4704 13.6126 11.3841 13.7101L11.3203 13.7851L11.3691 13.8563C11.4441 13.9613 11.4366 14.1376 11.3578 14.2276L11.2941 14.2951L11.2529 14.2388C11.1929 14.1638 11.1141 14.1676 11.0916 14.2501C11.0803 14.3026 11.0916 14.3251 11.1591 14.3851C11.2041 14.4226 11.2716 14.4526 11.3054 14.4526C11.3916 14.4526 11.3878 14.5238 11.2978 14.5913L11.2228 14.6476L11.3353 14.6626C11.3953 14.6738 11.4478 14.6888 11.4478 14.7001C11.4478 14.7488 11.5228 14.8951 11.5453 14.8951C11.5653 14.8901 11.5878 14.8713 11.6128 14.8388V14.8426Z" fill="#FFB700"/>
<path d="M13.0453 14.2201C13.1466 14.1826 13.3641 13.9951 13.3641 13.9538C13.3641 13.9388 13.3041 13.8713 13.2291 13.8038C13.0791 13.6688 12.9103 13.4326 12.8653 13.2976C12.8428 13.2226 12.7341 13.1026 12.4266 12.8026L12.0178 12.4088L11.9016 12.4388C11.8341 12.4538 11.7553 12.4688 11.7253 12.4688C11.6691 12.4688 11.6691 12.4688 11.7441 12.5288L11.8191 12.5888L11.9316 12.5288C12.0328 12.4688 12.0366 12.4688 12.0478 12.5176C12.0553 12.5438 12.0403 12.5926 12.0103 12.6263C11.9841 12.6601 11.9691 12.7013 11.9728 12.7126C11.9803 12.7276 11.9616 12.7476 11.9166 12.7726C11.8416 12.8101 11.7853 12.9338 11.8453 12.9338C11.9016 12.9338 12.0216 12.7838 12.0066 12.7351C12.0016 12.7051 12.0041 12.6851 12.0141 12.6751C12.0628 12.6488 12.0591 12.7651 12.0141 12.8251C11.9841 12.8551 11.9691 12.8926 11.9766 12.9076C11.9816 12.9226 11.9616 12.9426 11.9166 12.9676C11.8416 13.0051 11.7853 13.1288 11.8453 13.1288C11.9053 13.1288 12.0216 12.9863 12.0103 12.9338C12.0028 12.9038 12.0041 12.8826 12.0141 12.8701C12.0478 12.8551 12.0628 12.9451 12.0366 12.9901C12.0285 13.0023 12.0242 13.0167 12.0242 13.0313C12.0242 13.046 12.0285 13.0603 12.0366 13.0726C12.0628 13.1213 12.0366 13.2113 11.9878 13.2413C11.9678 13.2538 11.9828 13.2788 12.0328 13.3163C12.1078 13.3688 12.1078 13.3763 12.1078 13.6163C12.1078 13.8188 12.1153 13.8713 12.1528 13.9051C12.1853 13.9426 12.2003 13.9426 12.1978 13.9051C12.1941 13.8488 12.2728 13.8151 12.3291 13.8151C12.3478 13.8151 12.4566 13.9088 12.5728 14.0213C12.6891 14.1338 12.8128 14.2351 12.8466 14.2388L12.9291 14.2538C12.9403 14.2538 12.9928 14.2426 13.0453 14.2163V14.2201ZM11.7966 13.2413C11.7966 13.1776 11.6616 13.1063 11.5003 13.0913C11.3691 13.0726 11.3691 13.0763 11.3691 13.1401C11.3691 13.1926 11.3878 13.2151 11.4816 13.2526C11.6241 13.3163 11.7966 13.3088 11.7966 13.2413Z" fill="#FFB700"/>
<path d="M11.9428 13.2338C12.0103 13.1738 12.0403 13.1063 11.9991 13.1063C11.9578 13.1063 11.8341 13.2113 11.8341 13.2563C11.8341 13.3163 11.8566 13.3125 11.9466 13.2338H11.9428ZM11.8041 13.0425C11.8116 13.01 11.7828 12.9788 11.7178 12.9488C11.5678 12.885 11.3953 12.8513 11.3541 12.885C11.2753 12.9488 11.3278 13.0313 11.4516 13.0463C11.5041 13.05 11.5716 13.065 11.6053 13.08C11.7028 13.1175 11.7928 13.0988 11.8041 13.0425ZM11.8041 12.8438C11.8116 12.795 11.7778 12.7763 11.5041 12.6788C11.2978 12.6038 11.2078 12.6413 11.2753 12.765C11.2978 12.8063 11.3353 12.825 11.4216 12.84C11.4853 12.8475 11.5716 12.8663 11.6128 12.8813C11.7278 12.9188 11.7903 12.9063 11.8003 12.8438H11.8041ZM11.9391 12.66C11.9803 12.6188 12.0141 12.57 12.0141 12.5475C12.0141 12.4913 11.8528 12.5963 11.8303 12.6713C11.8103 12.7588 11.8478 12.755 11.9428 12.66H11.9391ZM11.8041 12.6488C11.8116 12.5888 11.7166 12.5375 11.5191 12.495C11.3741 12.4625 11.3078 12.48 11.3203 12.5475C11.3278 12.585 11.3766 12.6113 11.5078 12.6525C11.7291 12.72 11.7928 12.72 11.8041 12.6488ZM11.9916 12.3713C12.2466 12.2588 12.2653 11.9775 12.0291 11.9025C11.9341 11.8725 11.8691 11.89 11.8341 11.955C11.8041 12.0075 11.8228 12.0975 11.8603 12.0975C11.8753 12.1 11.8841 12.1125 11.8866 12.135C11.8866 12.2363 11.5041 12.2775 11.3466 12.1988C11.2903 12.1725 11.2716 12.0975 11.3128 12.0975C11.3503 12.0975 11.3728 12.0225 11.3541 11.9738C11.3291 11.8988 11.2628 11.8763 11.1553 11.9063C10.9191 11.9663 10.9266 12.2438 11.1666 12.3563C11.4323 12.4526 11.7225 12.4578 11.9916 12.3713Z" fill="#FFB700"/>
<path d="M11.8378 12.1538C11.8503 12.1363 11.8453 12.1188 11.8228 12.1013C11.7728 12.0563 11.7753 11.9975 11.8303 11.925C11.8753 11.8725 11.8791 11.79 11.8941 10.9838C11.9203 9.59251 12.0253 8.54626 12.1603 8.29126C12.2166 8.19376 12.2091 8.19376 12.0666 8.29126C11.8796 8.42152 11.7287 8.59696 11.6278 8.80126C11.3953 9.23251 11.3166 9.81376 11.3166 11.0588C11.3166 11.7638 11.3203 11.8575 11.3616 11.9213C11.3991 11.9888 11.3991 12.0113 11.3766 12.0788C11.3578 12.12 11.3503 12.165 11.3578 12.1725C11.4103 12.2213 11.7853 12.21 11.8378 12.1538ZM13.9416 10.8263C13.9528 10.815 13.9341 10.7513 13.9041 10.6913C13.8591 10.5938 13.8403 10.5788 13.7766 10.5788C13.4767 10.5527 13.1843 10.4713 12.9141 10.3388C12.7228 10.2525 12.6516 10.2338 12.6328 10.2563C12.5728 10.3125 12.6703 10.4438 12.8203 10.515C13.0411 10.5946 13.2723 10.6413 13.5066 10.6538C13.6078 10.6538 13.6116 10.6538 13.5516 10.74L13.5141 10.8H13.6266L13.8141 10.8225C13.9266 10.8488 13.9266 10.8488 13.9416 10.8263Z" fill="#FFB700"/>
<path d="M15.1266 11.4526C15.1266 11.4151 15.0178 11.3213 14.9128 11.2576C14.8266 11.2088 14.8116 11.2051 14.8116 11.2463C14.8116 11.3063 14.7591 11.4601 14.7366 11.4601C14.7216 11.4551 14.7091 11.4338 14.6991 11.3963C14.6878 11.3588 14.6466 11.2838 14.6053 11.2351L14.5303 11.1413L14.4778 11.2276C14.4253 11.3101 14.3316 11.3888 14.2903 11.3888C14.2828 11.3888 14.2791 11.3438 14.2903 11.2951C14.2953 11.2301 14.2891 11.1926 14.2716 11.1826C14.2541 11.1726 14.2441 11.1751 14.2416 11.1901C14.2416 11.2201 14.1141 11.3626 14.0916 11.3626C14.0766 11.3601 14.0641 11.3301 14.0541 11.2726L14.0241 11.0926C14.0191 11.0501 14.0316 11.0751 14.0616 11.1676L14.1216 11.3213L14.1816 11.2276C14.2087 11.1888 14.229 11.1457 14.2416 11.1001C14.2416 11.0801 14.2503 11.0738 14.2678 11.0813C14.2828 11.0888 14.3016 11.1526 14.3091 11.2201L14.3278 11.3476L14.3953 11.2726L14.4928 11.1526C14.5191 11.1076 14.5228 11.1076 14.5791 11.1526C14.6091 11.1826 14.6578 11.2463 14.6878 11.2988C14.7178 11.3513 14.7441 11.3888 14.7478 11.3851L14.7703 11.2651L14.7853 11.1526C14.7891 11.1338 14.9878 11.2651 15.0628 11.3288C15.1078 11.3701 15.1528 11.4001 15.1603 11.3926C15.1678 11.3851 15.1753 11.3251 15.1753 11.2538C15.1753 11.1488 15.1641 11.1188 15.1003 11.0626C15.0253 10.9951 15.0253 10.9951 14.9953 11.0438C14.9578 11.1076 14.9166 11.1076 14.9166 11.0438C14.9166 10.9988 14.7741 10.8226 14.7403 10.8226C14.7253 10.8276 14.7028 10.8563 14.6728 10.9088C14.6278 10.9876 14.6166 10.9951 14.6091 10.9951C14.5716 10.9951 14.3728 10.7701 14.3728 10.7326C14.3728 10.7001 14.3891 10.7101 14.4216 10.7626C14.4551 10.8118 14.4941 10.8571 14.5378 10.8976C14.6128 10.9651 14.6428 10.9501 14.6728 10.8188C14.6853 10.7788 14.6978 10.7563 14.7103 10.7513C14.7403 10.7513 14.9128 10.9351 14.9353 10.9951L14.9616 11.0551L14.9803 10.9876C15.0028 10.9076 15.0316 10.9051 15.0666 10.9801C15.0816 11.0101 15.1566 11.0776 15.2316 11.1226L15.3703 11.2126L15.3966 11.1226C15.4166 11.0726 15.4316 11.0526 15.4416 11.0626C15.4566 11.0813 15.4191 11.2313 15.3928 11.2613C15.3928 11.2651 15.3441 11.2388 15.2953 11.2051L15.2016 11.1376V11.2576C15.2016 11.3213 15.1941 11.4001 15.1866 11.4301C15.1678 11.4901 15.1228 11.5051 15.1228 11.4526H15.1266ZM14.4328 10.5001C14.2678 10.3651 14.2453 10.3351 14.2453 10.2676L14.2491 10.2001L14.2603 10.2638C14.2678 10.3013 14.3128 10.3613 14.3653 10.4063L14.4628 10.4813L14.5191 10.4138C14.5528 10.3763 14.5791 10.3313 14.5791 10.3163C14.5791 10.2713 14.5866 10.2751 14.6991 10.3726C14.7966 10.4588 14.8003 10.4588 14.8116 10.4026C14.8228 10.3726 14.8191 10.3126 14.8116 10.2713C14.7741 10.1613 14.7803 10.1413 14.8303 10.2113L14.9203 10.3163C14.9578 10.3576 14.9616 10.3576 14.9766 10.3051C14.9878 10.2713 14.9953 10.2151 14.9953 10.1776V10.1063L15.0816 10.2076C15.1678 10.3051 15.1753 10.3088 15.1978 10.2601C15.2166 10.2338 15.2278 10.1701 15.2278 10.1213C15.2278 10.0563 15.2353 10.0363 15.2503 10.0613C15.2803 10.1063 15.2616 10.2188 15.2091 10.3163L15.1716 10.3913L15.1228 10.3126C15.0591 10.2151 15.0366 10.2151 14.9991 10.3201C14.9641 10.4201 14.9303 10.4301 14.8978 10.3501C14.8753 10.3013 14.8678 10.3088 14.8528 10.4138L14.8341 10.5263L14.7216 10.4401L14.6091 10.3538L14.5528 10.4101C14.5266 10.4438 14.5041 10.4851 14.5041 10.5001C14.5016 10.5376 14.4778 10.5376 14.4328 10.5001ZM15.8953 9.99007C15.8391 9.93757 15.7978 9.88507 15.8053 9.87757C15.8178 9.86507 15.8253 9.86257 15.8278 9.87007L15.9403 9.98257C16.0678 10.1176 16.0416 10.1213 15.8991 9.99007H15.8953ZM13.9453 9.78757C13.8928 9.71257 13.8966 9.66757 13.9641 9.58507C14.0091 9.52882 14.0316 9.52132 14.1141 9.53257C14.1703 9.53632 14.2866 9.58507 14.3728 9.63757C14.4973 9.7124 14.6401 9.75133 14.7853 9.75007L14.7216 9.64507C14.6366 9.52507 14.6416 9.50382 14.7366 9.58132C14.8341 9.66007 14.9503 9.68257 15.2128 9.67507L15.3403 9.67132L15.2653 9.59632C15.1641 9.49507 15.1941 9.48382 15.3103 9.58507C15.4153 9.67882 15.4116 9.68632 15.1828 9.70882C15.0874 9.71846 14.9911 9.71212 14.8978 9.69007C14.7703 9.65257 14.7628 9.65632 14.7891 9.69757C14.8066 9.72507 14.8228 9.74007 14.8378 9.74257C14.8528 9.74507 14.8616 9.75507 14.8641 9.77257C14.8641 9.82132 14.5866 9.77632 14.4516 9.71257C14.1516 9.55882 14.1141 9.54382 14.0391 9.56632C14.0188 9.57341 14.0002 9.58477 13.9847 9.59966C13.9692 9.61454 13.957 9.63258 13.9491 9.65257C13.9003 9.77632 14.0766 9.87382 14.1478 9.76507C14.1703 9.73132 14.1666 9.71257 14.1291 9.67132C14.0766 9.62132 14.0841 9.60882 14.1516 9.63382C14.2003 9.65257 14.2041 9.76882 14.1591 9.81382C14.1103 9.86257 13.9903 9.85132 13.9453 9.78757Z" fill="#000001"/>
<path d="M15.1416 9.48382C15.1041 9.44632 15.1341 9.43882 15.3028 9.43507C15.5128 9.43132 15.6403 9.39757 15.7903 9.30007C15.9103 9.22507 15.9441 9.24007 15.8278 9.31882C15.7266 9.39382 15.5653 9.44632 15.4041 9.46132L15.2128 9.48757C15.1778 9.49507 15.1528 9.49382 15.1378 9.48382H15.1416Z" fill="#000001"/>
</g>
</g>
<defs>
<clipPath id="clip0_3905_9815">
<rect width="24" height="24" rx="12" fill="white"/>
</clipPath>
<clipPath id="clip1_3905_9815">
<rect width="24" height="24" fill="white" transform="translate(-0.323425 0.0112305)"/>
</clipPath>
</defs>
</svg>
