<svg width="24" height="24" viewBox="0 0 24 24" fill="none" xmlns="http://www.w3.org/2000/svg">
<g clip-path="url(#clip0_2214_3932)">
<g clip-path="url(#clip1_2214_3932)">
<path d="M-4 15.9849H28V23.9999H-4V15.9849Z" fill="#0038A8"/>
<path d="M-4 8H28V16H-4V8Z" fill="white"/>
<path d="M-4 0H28V8H-4V0Z" fill="#D52B1E"/>
<path d="M11.9983 15.0691C13.6933 15.0691 15.0674 13.695 15.0674 12C15.0674 10.305 13.6933 8.93091 11.9983 8.93091C10.3032 8.93091 8.92915 10.305 8.92915 12C8.92915 13.695 10.3032 15.0691 11.9983 15.0691Z" stroke="black" stroke-width="0.0800003"/>
<path d="M11.9983 14.5236C13.392 14.5236 14.5219 13.3937 14.5219 12C14.5219 10.6062 13.392 9.47632 11.9983 9.47632C10.6045 9.47632 9.47462 10.6062 9.47462 12C9.47462 13.3937 10.6045 14.5236 11.9983 14.5236Z" stroke="black" stroke-width="0.0363638"/>
<path d="M11.9983 13.9345C13.0667 13.9345 13.9328 13.0684 13.9328 12C13.9328 10.9316 13.0667 10.0654 11.9983 10.0654C10.9298 10.0654 10.0637 10.9316 10.0637 12C10.0637 13.0684 10.9298 13.9345 11.9983 13.9345Z" stroke="black" stroke-width="0.029091"/>
<path d="M10.365 13.185L10.01 13.395L9.9 13.21L9.865 13.13C9.85935 13.1084 9.86112 13.0855 9.87 13.065C9.88 13.045 9.89666 13.0284 9.92 13.015C9.93666 13.005 9.955 13 9.975 13L10.03 13.01L10.07 13.04V12.975L10.085 12.95L10.16 12.835L10.23 12.96L10.16 13.08L10.145 13.12L10.15 13.15L10.155 13.16L10.305 13.075L10.365 13.185ZM10.09 13.2L10.06 13.15L10.04 13.125L10.015 13.115L9.99 13.12L9.97 13.15C9.97 13.16 9.97666 13.175 9.99 13.195L10.015 13.245L10.09 13.2ZM9.755 12.925L9.645 12.6L9.73 12.57L9.795 12.775L9.86 12.755L9.795 12.565L9.875 12.54L9.94 12.725L10.015 12.7L9.945 12.49L10.035 12.465L10.145 12.795L9.755 12.925ZM9.61 12.44L9.59 12.23C9.58333 12.1834 9.59 12.1484 9.61 12.125C9.63 12.095 9.66 12.0784 9.7 12.075C9.74 12.0717 9.77333 12.0817 9.8 12.105C9.82333 12.1284 9.84 12.165 9.85 12.215L9.855 12.285L10.005 12.265L10.025 12.395L9.61 12.44ZM9.775 12.29L9.77 12.26C9.77 12.2367 9.76333 12.22 9.75 12.21L9.715 12.2L9.685 12.22C9.67833 12.2267 9.675 12.2434 9.675 12.27L9.68 12.305L9.775 12.29ZM9.6 11.665L9.615 11.535L9.855 11.565L9.925 11.585C9.945 11.595 9.96166 11.6084 9.975 11.625C9.98833 11.6417 9.99833 11.6584 10.005 11.675C10.015 11.705 10.0167 11.7367 10.01 11.77L10 11.835C9.99333 11.8584 9.985 11.8767 9.975 11.89C9.95441 11.9224 9.92221 11.9457 9.885 11.955H9.815L9.57 11.93L9.585 11.805L9.835 11.83C9.855 11.83 9.87166 11.8267 9.885 11.82C9.89833 11.8134 9.90833 11.7967 9.915 11.77C9.91734 11.7611 9.91719 11.7518 9.91454 11.7429C9.91189 11.7341 9.90686 11.7262 9.9 11.72C9.88666 11.7034 9.87 11.6934 9.85 11.69L9.6 11.665ZM9.65 11.365L9.735 11.135C9.745 11.095 9.76333 11.07 9.79 11.06C9.80191 11.0529 9.81517 11.0484 9.82894 11.0466C9.84272 11.0449 9.8567 11.0461 9.87 11.05C9.89333 11.06 9.91 11.075 9.92 11.095C9.93 11.1084 9.935 11.125 9.935 11.145C9.95166 11.1217 9.97 11.105 9.99 11.095C10.0126 11.0866 10.0374 11.0866 10.06 11.095C10.0804 11.1003 10.0986 11.1118 10.1121 11.1279C10.1255 11.1441 10.1335 11.1641 10.135 11.185V11.235L10.12 11.285L10.045 11.495L9.65 11.365ZM9.85 11.295L9.87 11.24V11.2C9.87 11.1934 9.86333 11.185 9.85 11.175H9.82C9.81 11.185 9.80166 11.1984 9.795 11.215L9.775 11.265L9.85 11.295ZM10 11.345L10.025 11.285C10.0317 11.265 10.0317 11.2484 10.025 11.235L10.005 11.215H9.97L9.945 11.26L9.925 11.32L10 11.345ZM9.85 10.865L9.915 10.755L10.185 10.915L10.285 10.745L10.375 10.795L10.205 11.075L9.85 10.865ZM10.1 10.485L10.18 10.385L10.5 10.65L10.42 10.75L10.1 10.485ZM10.655 10.27L10.765 10.22C10.7783 10.2534 10.7867 10.2817 10.79 10.305L10.775 10.38C10.76 10.4087 10.7397 10.4342 10.715 10.455C10.6877 10.4827 10.653 10.5018 10.615 10.51C10.5822 10.5185 10.5478 10.5185 10.515 10.51C10.4753 10.4925 10.4408 10.4649 10.415 10.43C10.365 10.38 10.3433 10.3284 10.35 10.275C10.3522 10.2466 10.3605 10.2189 10.3743 10.1939C10.3881 10.1689 10.4071 10.1471 10.43 10.13C10.462 10.1015 10.5023 10.084 10.545 10.08C10.5783 10.0734 10.6167 10.0817 10.66 10.105L10.59 10.2L10.56 10.185H10.525L10.495 10.205C10.4762 10.2235 10.4654 10.2487 10.465 10.275C10.4683 10.295 10.4817 10.3184 10.505 10.345C10.535 10.3784 10.5617 10.3984 10.585 10.405C10.605 10.4084 10.625 10.4017 10.645 10.385C10.665 10.3684 10.675 10.3517 10.675 10.335C10.675 10.3117 10.6683 10.29 10.655 10.27ZM11.095 10.11L10.97 10.18L10.985 10.25L10.87 10.31L10.81 9.87505L10.935 9.81005L11.265 10.1L11.145 10.165L11.095 10.11ZM11.03 10.045L10.92 9.93505L10.95 10.085L11.03 10.045ZM11.42 9.62005L11.61 9.59005H11.7C11.7267 9.59338 11.7483 9.60505 11.765 9.62505C11.79 9.65505 11.8 9.66005 11.81 9.68505C11.8233 9.70838 11.83 9.73338 11.83 9.76005C11.84 9.80672 11.8417 9.84005 11.835 9.86005L11.805 9.93005L11.755 9.97505L11.68 10L11.495 10.03L11.42 9.62005ZM11.565 9.69005L11.605 9.91505L11.635 9.91005C11.6617 9.90672 11.6783 9.90005 11.685 9.89005C11.6983 9.88338 11.7067 9.87172 11.71 9.85505V9.78505C11.7 9.74172 11.6867 9.71338 11.67 9.70005C11.6567 9.68338 11.6317 9.67838 11.595 9.68505L11.565 9.69005ZM11.955 9.55005L12.295 9.56505V9.65505L12.08 9.64505L12.075 9.71005L12.275 9.72005L12.27 9.80505L12.07 9.79505V9.87505L12.29 9.88505L12.285 9.98005L11.935 9.96505L11.955 9.55005ZM12.455 9.59005L12.575 9.62005L12.5 9.92005L12.7 9.97005L12.67 10.07L12.355 9.99005L12.455 9.59005ZM13.115 9.81005L13.3 9.92005C13.34 9.94338 13.3633 9.97005 13.37 10C13.3767 10.03 13.3717 10.0634 13.355 10.1C13.3356 10.1314 13.3054 10.1546 13.27 10.165C13.2367 10.1717 13.1983 10.1617 13.155 10.135L13.095 10.1L13.015 10.23L12.905 10.165L13.115 9.81005ZM13.135 10.03L13.165 10.045L13.215 10.06L13.245 10.04V10.005C13.245 9.99172 13.235 9.97838 13.215 9.96505L13.185 9.95005L13.135 10.03ZM13.495 10.51L13.39 10.41L13.33 10.445L13.23 10.36L13.63 10.16L13.73 10.26L13.56 10.665L13.46 10.575L13.495 10.51ZM13.535 10.425L13.605 10.285L13.47 10.365L13.535 10.425ZM13.585 10.7L13.93 10.465L14.045 10.64L14.095 10.725L14.09 10.785C14.081 10.8091 14.0631 10.8288 14.04 10.84C14.0233 10.8534 14.0067 10.86 13.99 10.86L13.93 10.85C13.92 10.8467 13.9067 10.8384 13.89 10.825L13.9 10.86L13.89 10.89L13.88 10.92L13.815 11.035L13.735 10.92L13.8 10.79L13.815 10.755L13.805 10.72L13.8 10.71L13.66 10.81L13.585 10.7ZM13.86 10.67L13.895 10.715L13.915 10.735C13.925 10.745 13.9333 10.7484 13.94 10.745L13.965 10.74L13.98 10.71C13.98 10.7 13.975 10.685 13.965 10.665L13.93 10.62L13.86 10.67ZM13.99 11.29L13.94 11.15L13.865 11.16L13.815 11.035L14.26 11.03L14.31 11.16L13.985 11.46L13.935 11.33L13.99 11.29ZM14.065 11.23L14.185 11.13L14.03 11.145L14.065 11.23ZM14.17 11.68L14.255 11.67L14.285 11.865L14.11 11.89L14.045 11.8L14.015 11.7C14.006 11.6586 14.0078 11.6156 14.02 11.575C14.0343 11.5432 14.0567 11.5156 14.085 11.495C14.1175 11.4714 14.1552 11.456 14.195 11.45C14.2352 11.4436 14.2764 11.447 14.315 11.46C14.3493 11.475 14.3788 11.4992 14.4 11.53C14.4167 11.56 14.43 11.5967 14.44 11.64V11.74L14.41 11.805C14.3967 11.8217 14.3767 11.8367 14.35 11.85L14.31 11.73C14.3233 11.7267 14.335 11.7167 14.345 11.7C14.355 11.6834 14.355 11.6667 14.345 11.65C14.3409 11.6265 14.3285 11.6052 14.31 11.59C14.2933 11.5734 14.26 11.57 14.21 11.58C14.1787 11.5825 14.149 11.5948 14.125 11.615C14.105 11.6384 14.0983 11.6634 14.105 11.69C14.105 11.7067 14.11 11.72 14.12 11.73L14.145 11.77H14.185L14.17 11.68ZM14.44 12.28L14.43 12.41L14.18 12.39L14.115 12.37L14.065 12.33L14.035 12.275L14.025 12.185L14.035 12.12L14.06 12.06L14.1 12.02L14.15 12L14.22 11.99L14.47 12.015L14.455 12.14L14.205 12.12C14.1783 12.12 14.16 12.125 14.15 12.135C14.1413 12.1399 14.1343 12.1473 14.1299 12.1562C14.1254 12.1651 14.1237 12.1752 14.125 12.185C14.125 12.2084 14.13 12.225 14.14 12.235C14.15 12.2517 14.1667 12.26 14.19 12.26L14.44 12.28ZM13.985 12.72L14.03 12.58L13.97 12.54L14.01 12.415L14.36 12.695L14.31 12.825L13.87 12.845L13.915 12.72H13.985ZM14.08 12.72L14.23 12.725L14.105 12.635L14.08 12.72ZM14.23 13.06L14.155 13.18H13.99L14.065 13.325L13.995 13.445L13.87 13.185L13.72 13.095L13.79 12.985L13.94 13.075L14.23 13.06Z" fill="black"/>
<path d="M12.405 10.5649C12.405 10.5649 13.575 11.0699 13.37 12.1099C13.165 13.1499 12.52 13.1399 12.26 13.2599C12.01 13.3699 11.83 13.5349 11.73 13.5099C11.63 13.4849 11.495 13.4099 11.495 13.4099C11.495 13.4099 11.485 13.5849 11.69 13.6099C11.895 13.6449 12.165 13.3449 12.29 13.3099C12.42 13.2799 13.215 13.1899 13.41 12.1349C13.635 11.0049 12.41 10.5999 12.41 10.5649H12.405Z" fill="#009B3A" stroke="black" stroke-width="0.005"/>
<path d="M12.995 10.79C12.9984 10.8168 12.9987 10.8396 12.996 10.8556C12.9934 10.8715 12.9877 10.88 12.9799 10.88C12.972 10.88 12.9621 10.8715 12.9515 10.8556C12.9409 10.8396 12.93 10.8168 12.92 10.79C12.9112 10.7664 12.9035 10.7404 12.8975 10.7144C12.8916 10.6885 12.8875 10.6634 12.8858 10.6415C12.8841 10.6196 12.8848 10.6016 12.8878 10.5891C12.8908 10.5766 12.896 10.5701 12.9029 10.5701C12.9098 10.5701 12.9183 10.5766 12.9274 10.5891C12.9366 10.6016 12.9462 10.6196 12.9554 10.6415C12.9646 10.6634 12.973 10.6885 12.9799 10.7144C12.9869 10.7404 12.992 10.7664 12.995 10.79Z" fill="#009B3A" stroke="black" stroke-width="0.005"/>
<path d="M12.955 10.8C12.9651 10.8205 12.9743 10.8411 12.9819 10.8606C12.9895 10.8801 12.9955 10.8982 12.9994 10.9138C13.0033 10.9295 13.0051 10.9423 13.0048 10.9517C13.0044 10.961 13.0019 10.9667 12.9973 10.9683C12.9927 10.9699 12.9861 10.9675 12.978 10.9612C12.9699 10.9549 12.9603 10.9448 12.9499 10.9315C12.9395 10.9182 12.9284 10.902 12.9172 10.8837C12.9061 10.8654 12.8951 10.8455 12.885 10.825C12.8645 10.7837 12.8485 10.7428 12.8406 10.7112C12.8327 10.6797 12.8335 10.6601 12.8427 10.6568C12.852 10.6534 12.8691 10.6667 12.8901 10.6935C12.9112 10.7204 12.9345 10.7587 12.955 10.8ZM12.84 10.875C12.8762 10.8868 12.9092 10.9013 12.9326 10.9158C12.9561 10.9304 12.9684 10.9439 12.9672 10.9538C12.9659 10.9637 12.9512 10.9693 12.9259 10.9695C12.9006 10.9697 12.8665 10.9646 12.83 10.955C12.7938 10.9433 12.7608 10.9288 12.7374 10.9142C12.7139 10.8997 12.7016 10.8862 12.7028 10.8763C12.7041 10.8664 12.7188 10.8608 12.7441 10.8606C12.7694 10.8603 12.8035 10.8655 12.84 10.875Z" fill="#009B3A" stroke="black" stroke-width="0.005"/>
<path d="M12.855 10.8351C12.8931 10.8607 12.9278 10.8887 12.9514 10.9129C12.9751 10.9371 12.9857 10.9556 12.9811 10.9642C12.9765 10.9728 12.9569 10.9709 12.9267 10.9589C12.8965 10.9469 12.8581 10.9257 12.82 10.9001C12.8011 10.8874 12.7829 10.874 12.7664 10.8606C12.7498 10.8473 12.7353 10.8342 12.7236 10.8222C12.6999 10.798 12.6892 10.7796 12.6939 10.7709C12.6985 10.7623 12.7181 10.7642 12.7483 10.7763C12.7785 10.7883 12.8169 10.8094 12.855 10.8351Z" fill="#009B3A" stroke="black" stroke-width="0.005"/>
<path d="M12.905 10.815C12.9356 10.8469 12.9623 10.8801 12.9793 10.9073C12.9963 10.9345 13.0021 10.9536 12.9954 10.9602C12.9888 10.9668 12.9703 10.9605 12.944 10.9427C12.9176 10.9248 12.8856 10.8969 12.855 10.865C12.8244 10.8332 12.7976 10.8 12.7807 10.7727C12.7637 10.7455 12.7579 10.7265 12.7645 10.7199C12.7712 10.7132 12.7897 10.7195 12.816 10.7374C12.8424 10.7552 12.8744 10.7832 12.905 10.815Z" fill="#009B3A" stroke="black" stroke-width="0.005"/>
<path d="M12.985 10.9601L12.935 10.9901C12.92 10.9901 12.905 10.9751 12.875 10.9901C12.845 11.0051 12.825 11.0351 12.82 11.0501C12.8167 11.0701 12.8317 11.0718 12.865 11.0551C12.8983 11.0384 12.9183 11.0201 12.925 11.0001L12.99 10.9651L13.03 10.9001C13.045 10.8801 13.09 10.8501 13.11 10.8101C13.1233 10.7768 13.12 10.7618 13.1 10.7651C13.0739 10.7802 13.053 10.8029 13.04 10.8301C13.03 10.8501 13.04 10.8801 13.025 10.9001L12.985 10.9601ZM13.35 11.0801C13.3512 11.1496 13.3465 11.215 13.337 11.2618C13.3275 11.3087 13.314 11.3331 13.2994 11.3298C13.2848 11.3265 13.2704 11.2957 13.2592 11.2442C13.2481 11.1927 13.2412 11.1246 13.24 11.0551C13.2388 10.9856 13.2435 10.9202 13.253 10.8734C13.2625 10.8265 13.276 10.8021 13.2906 10.8054C13.3052 10.8087 13.3196 10.8395 13.3308 10.891C13.3419 10.9426 13.3488 11.0106 13.35 11.0801Z" fill="#009B3A" stroke="black" stroke-width="0.005"/>
<path d="M13.29 11.075C13.3051 11.1454 13.3137 11.2131 13.3141 11.2633C13.3144 11.3135 13.3064 11.342 13.2918 11.3427C13.2773 11.3434 13.2573 11.3161 13.2363 11.2668C13.2153 11.2176 13.1951 11.1504 13.18 11.08C13.173 11.0471 13.1674 11.0145 13.1636 10.9841C13.1598 10.9537 13.1578 10.9261 13.1577 10.9028C13.1577 10.8795 13.1595 10.861 13.1632 10.8484C13.1669 10.8358 13.1724 10.8293 13.1792 10.8293C13.1861 10.8293 13.1943 10.8358 13.2034 10.8484C13.2124 10.861 13.2221 10.8795 13.232 10.9028C13.2418 10.9261 13.2515 10.9537 13.2606 10.9841C13.2697 11.0145 13.278 11.0471 13.285 11.08L13.29 11.075Z" fill="#009B3A" stroke="black" stroke-width="0.005"/>
<path d="M13.1 11.1351C13.1256 11.1524 13.1506 11.1709 13.1733 11.1897C13.1961 11.2084 13.2164 11.227 13.2329 11.2443C13.2494 11.2617 13.2618 11.2774 13.2695 11.2907C13.2772 11.304 13.2799 11.3146 13.2776 11.3218C13.2753 11.329 13.268 11.3328 13.2561 11.3328C13.2442 11.3329 13.2279 11.3292 13.2081 11.3221C13.1884 11.315 13.1656 11.3045 13.141 11.2913C13.1165 11.2781 13.0906 11.2624 13.065 11.2451C13.0394 11.2278 13.0145 11.2093 12.9917 11.1905C12.9689 11.1718 12.9486 11.1532 12.9322 11.1359C12.9157 11.1185 12.9032 11.1028 12.8955 11.0895C12.8878 11.0762 12.8851 11.0656 12.8874 11.0584C12.8897 11.0512 12.897 11.0474 12.9089 11.0474C12.9209 11.0473 12.9372 11.0509 12.9569 11.0581C12.9766 11.0652 12.9994 11.0757 13.024 11.0889C13.0486 11.1021 13.0744 11.1178 13.1 11.1351Z" fill="#009B3A" stroke="black" stroke-width="0.005"/>
<path d="M13.14 11.0799C13.1842 11.1335 13.2229 11.1892 13.2475 11.2346C13.2722 11.28 13.2809 11.3115 13.2716 11.3221C13.2623 11.3327 13.2359 11.3216 13.198 11.2912C13.1602 11.2608 13.1142 11.2135 13.07 11.1599C13.0272 11.1079 12.9899 11.054 12.9662 11.0102C12.9425 10.9663 12.9344 10.9361 12.9437 10.9262C12.953 10.9162 12.9789 10.9274 13.0157 10.9571C13.0525 10.9869 13.0972 11.0329 13.14 11.0849V11.0799Z" fill="#009B3A" stroke="black" stroke-width="0.005"/>
<path d="M13.215 11.0751C13.2479 11.1364 13.2748 11.1979 13.2896 11.2459C13.3045 11.294 13.3061 11.3247 13.2942 11.3313C13.2822 11.338 13.2577 11.32 13.226 11.2813C13.1943 11.2426 13.1579 11.1864 13.125 11.1251C13.1087 11.0947 13.0937 11.064 13.0809 11.0346C13.0681 11.0053 13.0577 10.978 13.0504 10.9542C13.0355 10.9061 13.0339 10.8754 13.0458 10.8688C13.0577 10.8621 13.0823 10.8802 13.114 10.9188C13.1457 10.9575 13.1821 11.0137 13.215 11.0751Z" fill="#009B3A" stroke="black" stroke-width="0.005"/>
<path d="M13.28 11.32L13.19 11.34C13.175 11.34 13.16 11.305 13.115 11.315C13.0683 11.3284 13.035 11.3484 13.015 11.375C13.0017 11.4017 13.0217 11.4117 13.075 11.405C13.135 11.395 13.155 11.355 13.185 11.355C13.2183 11.345 13.2517 11.3384 13.285 11.335C13.295 11.315 13.335 11.275 13.36 11.255C13.385 11.235 13.46 11.205 13.495 11.165C13.53 11.125 13.53 11.085 13.495 11.09C13.4569 11.1033 13.4226 11.1256 13.395 11.155C13.37 11.185 13.375 11.23 13.35 11.255L13.28 11.32ZM13.535 11.565C13.5238 11.6318 13.5078 11.6933 13.4905 11.7358C13.4733 11.7784 13.4561 11.7986 13.4428 11.7919C13.4296 11.7853 13.4213 11.7524 13.4198 11.7005C13.4184 11.6485 13.4238 11.5818 13.435 11.515C13.4405 11.4819 13.4473 11.4498 13.4549 11.4205C13.4626 11.3912 13.4709 11.3653 13.4794 11.3442C13.488 11.3231 13.4966 11.3073 13.5048 11.2977C13.513 11.2881 13.5206 11.2848 13.5272 11.2881C13.5337 11.2914 13.5391 11.3012 13.5431 11.3169C13.547 11.3325 13.5494 11.3539 13.5502 11.3796C13.5509 11.4053 13.5499 11.4349 13.5473 11.4667C13.5447 11.4985 13.5405 11.5319 13.535 11.565Z" fill="#009B3A" stroke="black" stroke-width="0.005"/>
<path d="M13.48 11.55C13.4817 11.5849 13.4819 11.6199 13.4806 11.6527C13.4793 11.6856 13.4766 11.7156 13.4726 11.7408C13.4686 11.7661 13.4634 11.7859 13.4574 11.7991C13.4513 11.8124 13.4446 11.8186 13.4375 11.8176C13.4305 11.8165 13.4234 11.8082 13.4166 11.793C13.4097 11.7779 13.4034 11.7563 13.398 11.7297C13.3926 11.703 13.3882 11.6719 13.3851 11.6384C13.382 11.6049 13.3802 11.5697 13.38 11.535C13.3783 11.5002 13.3781 11.4652 13.3794 11.4323C13.3807 11.3994 13.3834 11.3694 13.3874 11.3442C13.3914 11.319 13.3966 11.2991 13.4026 11.2859C13.4087 11.2727 13.4154 11.2664 13.4224 11.2674C13.4295 11.2685 13.4366 11.2769 13.4434 11.292C13.4502 11.3072 13.4566 11.3288 13.462 11.3554C13.4674 11.382 13.4718 11.4131 13.4749 11.4466C13.478 11.4801 13.4798 11.5154 13.48 11.55Z" fill="#009B3A" stroke="black" stroke-width="0.005"/>
<path d="M13.285 11.57C13.3108 11.5924 13.337 11.6179 13.3615 11.6445C13.386 11.6711 13.4081 11.6981 13.4262 11.7234C13.4443 11.7486 13.4577 11.7715 13.4656 11.7901C13.4734 11.8087 13.4754 11.8225 13.4714 11.8306C13.4674 11.8386 13.4575 11.8406 13.4424 11.8364C13.4274 11.8322 13.4076 11.8219 13.3847 11.8064C13.3618 11.7908 13.3363 11.7704 13.3104 11.7467C13.2844 11.723 13.2586 11.6968 13.235 11.67C13.2092 11.6476 13.183 11.6221 13.1585 11.5954C13.134 11.5688 13.1119 11.5418 13.0938 11.5166C13.0757 11.4913 13.0622 11.4685 13.0544 11.4499C13.0466 11.4313 13.0446 11.4174 13.0486 11.4093C13.0526 11.4013 13.0625 11.3993 13.0776 11.4035C13.0926 11.4077 13.1124 11.418 13.1353 11.4336C13.1582 11.4491 13.1837 11.4696 13.2096 11.4932C13.2356 11.5169 13.2614 11.5432 13.285 11.57Z" fill="#009B3A" stroke="black" stroke-width="0.005"/>
<path d="M13.335 11.5249C13.3516 11.5554 13.3669 11.5864 13.3801 11.6161C13.3933 11.6459 13.4041 11.6739 13.4119 11.6984C13.4196 11.723 13.4243 11.7436 13.4254 11.7592C13.4266 11.7748 13.4244 11.7851 13.4188 11.7893C13.4132 11.7936 13.4044 11.7918 13.3929 11.7841C13.3814 11.7764 13.3674 11.7629 13.3517 11.7444C13.3361 11.7259 13.319 11.7027 13.3016 11.6762C13.2841 11.6497 13.2666 11.6204 13.25 11.5899C13.2334 11.5595 13.2181 11.5285 13.2049 11.4987C13.1917 11.4689 13.1809 11.441 13.1731 11.4164C13.1654 11.3919 13.1607 11.3712 13.1596 11.3556C13.1584 11.34 13.1606 11.3298 13.1662 11.3255C13.1718 11.3212 13.1806 11.323 13.1921 11.3307C13.2036 11.3384 13.2176 11.3519 13.2332 11.3705C13.2489 11.389 13.266 11.4121 13.2834 11.4386C13.3009 11.4652 13.3184 11.4945 13.335 11.5249Z" fill="#009B3A" stroke="black" stroke-width="0.005"/>
<path d="M13.405 11.535C13.4152 11.5672 13.4242 11.5997 13.4312 11.6304C13.4383 11.6611 13.4434 11.6894 13.4462 11.7139C13.4491 11.7383 13.4496 11.7584 13.4477 11.7729C13.4459 11.7873 13.4417 11.796 13.4355 11.7983C13.4293 11.8006 13.4211 11.7965 13.4114 11.7863C13.4017 11.776 13.3907 11.7598 13.3791 11.7386C13.3674 11.7174 13.3553 11.6916 13.3435 11.6627C13.3316 11.6338 13.3202 11.6022 13.31 11.57C13.2993 11.5362 13.29 11.5022 13.2826 11.4701C13.2752 11.438 13.2699 11.4083 13.267 11.3828C13.2611 11.3312 13.2652 11.2997 13.2785 11.295C13.2917 11.2904 13.3131 11.3131 13.3377 11.3581C13.3624 11.4031 13.3884 11.4667 13.41 11.535H13.405Z" fill="#009B3A" stroke="black" stroke-width="0.005"/>
<path d="M13.425 11.79H13.34C13.325 11.79 13.315 11.75 13.27 11.75C13.2311 11.7492 13.1935 11.7635 13.165 11.79C13.145 11.8133 13.1617 11.8266 13.215 11.83C13.295 11.835 13.3 11.805 13.33 11.8H13.43L13.52 11.74C13.55 11.72 13.625 11.71 13.67 11.675C13.705 11.645 13.715 11.605 13.685 11.605C13.6435 11.6101 13.604 11.6256 13.57 11.65C13.545 11.67 13.54 11.715 13.51 11.735C13.49 11.745 13.43 11.79 13.425 11.785M13.55 12.105C13.5148 12.161 13.4773 12.2103 13.4458 12.2419C13.4143 12.2736 13.3914 12.285 13.3821 12.2737C13.3729 12.2625 13.378 12.2294 13.3963 12.1818C13.4147 12.1342 13.4448 12.076 13.48 12.02C13.5152 11.964 13.5527 11.9147 13.5842 11.8831C13.6157 11.8514 13.6386 11.84 13.6479 11.8512C13.6571 11.8625 13.6521 11.8956 13.6337 11.9432C13.6153 11.9907 13.5852 12.049 13.55 12.105Z" fill="#009B3A"/>
<path d="M13.425 11.79H13.34C13.325 11.79 13.315 11.75 13.27 11.75C13.2311 11.7492 13.1935 11.7635 13.165 11.79C13.145 11.8133 13.1617 11.8266 13.215 11.83C13.295 11.835 13.3 11.805 13.33 11.8H13.43L13.52 11.74C13.55 11.72 13.625 11.71 13.67 11.675C13.705 11.645 13.715 11.605 13.685 11.605C13.6435 11.6101 13.604 11.6256 13.57 11.65C13.545 11.67 13.54 11.715 13.51 11.735C13.49 11.745 13.43 11.79 13.425 11.785M13.55 12.105C13.5148 12.161 13.4773 12.2103 13.4458 12.2419C13.4143 12.2736 13.3914 12.285 13.3821 12.2737C13.3729 12.2625 13.378 12.2294 13.3963 12.1818C13.4147 12.1342 13.4448 12.076 13.48 12.02C13.5152 11.964 13.5527 11.9147 13.5842 11.8831C13.6157 11.8514 13.6386 11.84 13.6479 11.8512C13.6571 11.8625 13.6521 11.8956 13.6337 11.9432C13.6153 11.9907 13.5852 12.049 13.55 12.105Z" stroke="black" stroke-width="0.005"/>
<path d="M13.505 12.065C13.4803 12.1291 13.4519 12.1877 13.4261 12.2279C13.4002 12.268 13.379 12.2865 13.367 12.2792C13.3551 12.2719 13.3534 12.2395 13.3624 12.189C13.3714 12.1385 13.3903 12.0741 13.415 12.01C13.4397 11.9459 13.468 11.8873 13.4939 11.8471C13.5198 11.8069 13.541 11.7885 13.553 11.7957C13.5649 11.803 13.5666 11.8355 13.5576 11.886C13.5486 11.9365 13.5297 12.0009 13.505 12.065ZM13.32 12.005C13.345 12.0705 13.3643 12.1374 13.3735 12.1907C13.3828 12.2441 13.3813 12.2797 13.3694 12.2896C13.3574 12.2996 13.336 12.2831 13.3099 12.2438C13.2838 12.2045 13.255 12.1455 13.23 12.08C13.205 12.0144 13.1857 11.9476 13.1765 11.8942C13.1672 11.8408 13.1687 11.8053 13.1806 11.7953C13.1926 11.7854 13.214 11.8019 13.2401 11.8412C13.2662 11.8805 13.295 11.9394 13.32 12.005Z" fill="#009B3A" stroke="black" stroke-width="0.005"/>
<path d="M13.38 11.985C13.3863 12.0535 13.3871 12.1206 13.3822 12.1714C13.3772 12.2222 13.367 12.2526 13.3538 12.2559C13.3405 12.2592 13.3253 12.2352 13.3115 12.1891C13.2976 12.143 13.2863 12.0785 13.28 12.01C13.2769 11.9761 13.2751 11.9421 13.2747 11.9102C13.2743 11.8782 13.2754 11.8488 13.2778 11.8236C13.2803 11.7984 13.284 11.778 13.2889 11.7635C13.2938 11.749 13.2997 11.7407 13.3062 11.7391C13.3128 11.7374 13.3199 11.7425 13.3272 11.754C13.3344 11.7654 13.3417 11.7831 13.3486 11.8059C13.3554 11.8288 13.3617 11.8563 13.3671 11.8871C13.3725 11.9178 13.3769 11.9511 13.38 11.985Z" fill="#009B3A" stroke="black" stroke-width="0.005"/>
<path d="M13.45 12.02C13.4435 12.0886 13.432 12.1542 13.418 12.2023C13.4041 12.2504 13.3888 12.277 13.3755 12.2763C13.3623 12.2757 13.3521 12.2478 13.3473 12.1987C13.3425 12.1497 13.3435 12.0836 13.35 12.015C13.3532 11.981 13.3577 11.9474 13.3632 11.9161C13.3687 11.8848 13.375 11.8564 13.382 11.8326C13.3889 11.8088 13.3962 11.79 13.4035 11.7773C13.4108 11.7646 13.4179 11.7582 13.4245 11.7586C13.4377 11.7592 13.4479 11.7871 13.4527 11.8362C13.4575 11.8852 13.4565 11.9513 13.45 12.02Z" fill="#009B3A" stroke="black" stroke-width="0.005"/>
<path d="M13.365 12.265C13.365 12.265 13.295 12.24 13.285 12.23C13.275 12.22 13.28 12.19 13.235 12.165C13.1997 12.1511 13.1603 12.1511 13.125 12.165C13.0983 12.1717 13.1083 12.1883 13.155 12.215C13.205 12.245 13.245 12.225 13.27 12.235L13.36 12.28C13.385 12.27 13.44 12.265 13.47 12.26C13.5 12.255 13.575 12.28 13.63 12.26C13.675 12.245 13.695 12.21 13.665 12.2C13.6272 12.1911 13.5878 12.1911 13.55 12.2C13.515 12.205 13.495 12.25 13.46 12.25C13.435 12.25 13.365 12.27 13.36 12.265M13.41 12.65C13.3804 12.6782 13.3486 12.7054 13.3171 12.7296C13.2855 12.7537 13.255 12.7741 13.2278 12.7894C13.2006 12.8046 13.1774 12.8142 13.1599 12.8176C13.1424 12.8209 13.1312 12.8178 13.1269 12.8085C13.1227 12.7992 13.1255 12.784 13.1354 12.764C13.1452 12.744 13.1617 12.7197 13.1836 12.6929C13.2055 12.6662 13.2323 12.6376 13.262 12.6094C13.2917 12.5812 13.3235 12.554 13.355 12.53C13.3851 12.5001 13.4181 12.4709 13.4514 12.4446C13.4847 12.4183 13.5173 12.3958 13.5465 12.3788C13.5757 12.3619 13.6008 12.351 13.6195 12.3471C13.6383 12.3432 13.6502 12.3464 13.6544 12.3564C13.6586 12.3664 13.6548 12.383 13.6435 12.4047C13.6322 12.4264 13.6136 12.4526 13.5892 12.4813C13.5649 12.51 13.5355 12.5402 13.5034 12.5695C13.4714 12.5989 13.4377 12.6264 13.405 12.65" fill="#009B3A"/>
<path d="M13.365 12.265C13.365 12.265 13.295 12.24 13.285 12.23C13.275 12.22 13.28 12.19 13.235 12.165C13.1997 12.1511 13.1603 12.1511 13.125 12.165C13.0983 12.1717 13.1083 12.1883 13.155 12.215C13.205 12.245 13.245 12.225 13.27 12.235L13.36 12.28C13.385 12.27 13.44 12.265 13.47 12.26C13.5 12.255 13.575 12.28 13.63 12.26C13.675 12.245 13.695 12.21 13.665 12.2C13.6272 12.1911 13.5878 12.1911 13.55 12.2C13.515 12.205 13.495 12.25 13.46 12.25C13.435 12.25 13.365 12.27 13.36 12.265M13.41 12.65C13.3804 12.6782 13.3486 12.7054 13.3171 12.7296C13.2855 12.7537 13.255 12.7741 13.2278 12.7894C13.2006 12.8046 13.1774 12.8142 13.1599 12.8176C13.1424 12.8209 13.1312 12.8178 13.1269 12.8085C13.1227 12.7992 13.1255 12.784 13.1354 12.764C13.1452 12.744 13.1617 12.7197 13.1836 12.6929C13.2055 12.6662 13.2323 12.6376 13.262 12.6094C13.2917 12.5812 13.3235 12.554 13.355 12.53C13.3851 12.5001 13.4181 12.4709 13.4514 12.4446C13.4847 12.4183 13.5173 12.3958 13.5465 12.3788C13.5757 12.3619 13.6008 12.351 13.6195 12.3471C13.6383 12.3432 13.6502 12.3464 13.6544 12.3564C13.6586 12.3664 13.6548 12.383 13.6435 12.4047C13.6322 12.4264 13.6136 12.4526 13.5892 12.4813C13.5649 12.51 13.5355 12.5402 13.5034 12.5695C13.4714 12.5989 13.4377 12.6264 13.405 12.65" stroke="black" stroke-width="0.005"/>
<path d="M13.365 12.5951C13.3173 12.6558 13.2676 12.7087 13.2268 12.7422C13.1861 12.7757 13.1576 12.787 13.1476 12.7738C13.1377 12.7605 13.1471 12.7237 13.1738 12.6715C13.2005 12.6192 13.2423 12.5558 13.29 12.4951C13.3136 12.4651 13.338 12.4366 13.3617 12.4114C13.3854 12.3862 13.408 12.3647 13.4282 12.3481C13.4483 12.3315 13.4657 12.3201 13.4793 12.3147C13.4929 12.3093 13.5024 12.3099 13.5074 12.3164C13.5123 12.323 13.5125 12.3354 13.508 12.353C13.5035 12.3705 13.4944 12.3929 13.4812 12.4188C13.468 12.4446 13.4509 12.4735 13.431 12.5038C13.411 12.5341 13.3886 12.5651 13.365 12.5951Z" fill="#009B3A" stroke="black" stroke-width="0.005"/>
<path d="M13.185 12.46C13.1915 12.4998 13.1959 12.5432 13.1979 12.5867C13.1998 12.6302 13.1993 12.6725 13.1963 12.7101C13.1932 12.7477 13.1878 12.7796 13.1805 12.8031C13.1731 12.8266 13.1641 12.841 13.154 12.8452C13.144 12.8494 13.1333 12.8432 13.1227 12.8272C13.1122 12.8111 13.1022 12.7857 13.0935 12.7529C13.0848 12.7202 13.0777 12.6811 13.0727 12.6388C13.0678 12.5966 13.0651 12.5524 13.065 12.51C13.0585 12.4703 13.0541 12.4268 13.0521 12.3834C13.0502 12.3399 13.0507 12.2976 13.0537 12.2599C13.0568 12.2223 13.0622 12.1904 13.0695 12.1669C13.0769 12.1434 13.0859 12.129 13.096 12.1248C13.106 12.1206 13.1167 12.1268 13.1273 12.1429C13.1378 12.1589 13.1478 12.1844 13.1565 12.2171C13.1652 12.2499 13.1723 12.289 13.1773 12.3312C13.1822 12.3734 13.1849 12.4176 13.185 12.46Z" fill="#009B3A" stroke="black" stroke-width="0.005"/>
<path d="M13.255 12.4599C13.2394 12.5187 13.2214 12.5697 13.2037 12.6056C13.186 12.6414 13.1695 12.6601 13.1566 12.659C13.1438 12.6579 13.1352 12.637 13.1322 12.5993C13.1292 12.5617 13.1319 12.5093 13.14 12.4499C13.1456 12.4062 13.1539 12.3598 13.1643 12.3145C13.1748 12.2692 13.187 12.2262 13.2 12.1892C13.213 12.1521 13.2264 12.1221 13.2392 12.1015C13.2519 12.0809 13.2636 12.0704 13.2732 12.0708C13.2828 12.0712 13.2901 12.0826 13.2946 12.1039C13.299 12.1252 13.3003 12.1559 13.2986 12.1934C13.2968 12.231 13.2919 12.2743 13.2843 12.3197C13.2768 12.3652 13.2667 12.4115 13.255 12.4549" fill="#009B3A"/>
<path d="M13.255 12.4599C13.2394 12.5187 13.2214 12.5697 13.2037 12.6056C13.186 12.6414 13.1695 12.6601 13.1566 12.659C13.1438 12.6579 13.1352 12.637 13.1322 12.5993C13.1292 12.5617 13.1319 12.5093 13.14 12.4499C13.1456 12.4062 13.1539 12.3598 13.1643 12.3145C13.1748 12.2692 13.187 12.2262 13.2 12.1892C13.213 12.1521 13.2264 12.1221 13.2392 12.1015C13.2519 12.0809 13.2636 12.0704 13.2732 12.0708C13.2828 12.0712 13.2901 12.0826 13.2946 12.1039C13.299 12.1252 13.3003 12.1559 13.2986 12.1934C13.2968 12.231 13.2919 12.2743 13.2843 12.3197C13.2768 12.3652 13.2667 12.4115 13.255 12.4549" stroke="black" stroke-width="0.005"/>
<path d="M13.315 12.5199C13.3011 12.5632 13.2839 12.6089 13.2647 12.6531C13.2455 12.6973 13.225 12.7386 13.2049 12.7736C13.1847 12.8086 13.1656 12.8361 13.1491 12.8539C13.1327 12.8717 13.1193 12.8792 13.1103 12.8758C13.1012 12.8723 13.0967 12.858 13.0971 12.8341C13.0975 12.8102 13.1029 12.7774 13.1127 12.7385C13.1225 12.6996 13.1364 12.6557 13.1534 12.6107C13.1703 12.5657 13.1898 12.5208 13.21 12.4799C13.2238 12.4367 13.2411 12.391 13.2603 12.3468C13.2795 12.3026 13.3 12.2613 13.3201 12.2263C13.3402 12.1913 13.3594 12.1637 13.3758 12.1459C13.3923 12.1281 13.4057 12.1207 13.4147 12.1241C13.4238 12.1276 13.4283 12.1419 13.4279 12.1658C13.4275 12.1897 13.4221 12.2225 13.4123 12.2614C13.4025 12.3003 13.3885 12.3442 13.3716 12.3892C13.3546 12.4342 13.3352 12.4791 13.315 12.5199Z" fill="#009B3A" stroke="black" stroke-width="0.005"/>
<path d="M13.15 12.7649L13.07 12.6949C13.06 12.6799 13.075 12.6449 13.035 12.6049C12.995 12.5649 12.945 12.5549 12.915 12.5549C12.8817 12.5616 12.8867 12.5883 12.93 12.6349C12.98 12.6849 13.03 12.6749 13.05 12.6949C13.0833 12.7183 13.1117 12.7449 13.135 12.7749L13.265 12.7949C13.3 12.7949 13.375 12.8499 13.44 12.8499C13.49 12.8499 13.53 12.8249 13.5 12.7999C13.4623 12.7713 13.4172 12.7539 13.37 12.7499C13.33 12.7499 13.295 12.7899 13.26 12.7799L13.145 12.7649M13.03 13.1299C12.9514 13.1428 12.8769 13.1475 12.8228 13.143C12.7686 13.1385 12.7393 13.1252 12.7413 13.1059C12.7433 13.0867 12.7764 13.0632 12.8334 13.0405C12.8903 13.0178 12.9664 12.9978 13.045 12.9849C13.0839 12.9786 13.1222 12.9741 13.1578 12.9719C13.1933 12.9696 13.2254 12.9696 13.2523 12.9719C13.2791 12.9741 13.3001 12.9785 13.314 12.9849C13.328 12.9912 13.3347 12.9994 13.3337 13.0089C13.3327 13.0185 13.3241 13.0291 13.3083 13.0404C13.2925 13.0516 13.2698 13.0632 13.2416 13.0744C13.2134 13.0856 13.1802 13.0963 13.1439 13.1059C13.1076 13.1154 13.0689 13.1236 13.03 13.1299Z" fill="#009B3A"/>
<path d="M13.15 12.7649L13.07 12.6949C13.06 12.6799 13.075 12.6449 13.035 12.6049C12.995 12.5649 12.945 12.5549 12.915 12.5549C12.8817 12.5616 12.8867 12.5883 12.93 12.6349C12.98 12.6849 13.03 12.6749 13.05 12.6949C13.0833 12.7183 13.1117 12.7449 13.135 12.7749L13.265 12.7949C13.3 12.7949 13.375 12.8499 13.44 12.8499C13.49 12.8499 13.53 12.8249 13.5 12.7999C13.4623 12.7713 13.4172 12.7539 13.37 12.7499C13.33 12.7499 13.295 12.7899 13.26 12.7799L13.145 12.7649M13.03 13.1299C12.9514 13.1428 12.8769 13.1475 12.8228 13.143C12.7686 13.1385 12.7393 13.1252 12.7413 13.1059C12.7433 13.0867 12.7764 13.0632 12.8334 13.0405C12.8903 13.0178 12.9664 12.9978 13.045 12.9849C13.0839 12.9786 13.1222 12.9741 13.1578 12.9719C13.1933 12.9696 13.2254 12.9696 13.2523 12.9719C13.2791 12.9741 13.3001 12.9785 13.314 12.9849C13.328 12.9912 13.3347 12.9994 13.3337 13.0089C13.3327 13.0185 13.3241 13.0291 13.3083 13.0404C13.2925 13.0516 13.2698 13.0632 13.2416 13.0744C13.2134 13.0856 13.1802 13.0963 13.1439 13.1059C13.1076 13.1154 13.0689 13.1236 13.03 13.1299Z" stroke="black" stroke-width="0.005"/>
<path d="M13.025 13.05C12.9457 13.0805 12.8684 13.1029 12.81 13.1123C12.7516 13.1217 12.7169 13.1173 12.7136 13.1001C12.7103 13.0828 12.7386 13.0542 12.7923 13.0204C12.846 12.9866 12.9207 12.9505 13 12.92C13.0821 12.8884 13.1622 12.8652 13.2226 12.8555C13.283 12.8459 13.3188 12.8505 13.3221 12.8684C13.3254 12.8863 13.296 12.916 13.2403 12.951C13.1846 12.986 13.1071 13.0234 13.025 13.055" fill="#009B3A"/>
<path d="M13.025 13.05C12.9457 13.0805 12.8684 13.1029 12.81 13.1123C12.7516 13.1217 12.7169 13.1173 12.7136 13.1001C12.7103 13.0828 12.7386 13.0542 12.7923 13.0204C12.846 12.9866 12.9207 12.9505 13 12.92C13.0821 12.8884 13.1622 12.8652 13.2226 12.8555C13.283 12.8459 13.3188 12.8505 13.3221 12.8684C13.3254 12.8863 13.296 12.916 13.2403 12.951C13.1846 12.986 13.1071 13.0234 13.025 13.055" stroke="black" stroke-width="0.005"/>
<path d="M12.92 12.82C12.8879 12.8801 12.8534 12.9329 12.8222 12.9697C12.7909 13.0065 12.765 13.025 12.7486 13.0221C12.7322 13.0191 12.7263 12.995 12.7321 12.9536C12.7378 12.9123 12.7547 12.8563 12.78 12.795C12.7964 12.7552 12.8159 12.7144 12.8369 12.6757C12.8579 12.6369 12.88 12.6012 12.9015 12.5711C12.923 12.541 12.9434 12.5172 12.9612 12.5016C12.979 12.486 12.9938 12.4789 13.0044 12.4808C13.0151 12.4827 13.0214 12.4936 13.0228 12.5126C13.0242 12.5317 13.0207 12.5584 13.0126 12.5909C13.0046 12.6234 12.992 12.6609 12.976 12.7005C12.96 12.7401 12.9408 12.781 12.92 12.82Z" fill="#009B3A" stroke="black" stroke-width="0.005"/>
<path d="M12.995 12.86C12.9354 12.9275 12.8722 12.9882 12.8193 13.0289C12.7664 13.0695 12.7281 13.0868 12.7129 13.0768C12.6976 13.0669 12.7067 13.0305 12.738 12.9758C12.7694 12.9211 12.8204 12.8525 12.88 12.785C12.9095 12.7516 12.9402 12.7195 12.9703 12.6905C13.0005 12.6616 13.0295 12.6363 13.0557 12.6162C13.1086 12.5755 13.1469 12.5582 13.1621 12.5682C13.1774 12.5781 13.1683 12.6145 13.137 12.6692C13.1215 12.6963 13.1009 12.7271 13.0766 12.7598C13.0522 12.7926 13.0245 12.8266 12.995 12.86Z" fill="#009B3A" stroke="black" stroke-width="0.005"/>
<path d="M13.015 12.955C12.9789 12.9846 12.9405 13.0134 12.9025 13.0393C12.8645 13.0652 12.8279 13.0876 12.7952 13.1049C12.7625 13.1222 12.7345 13.1339 12.7132 13.1394C12.6919 13.1448 12.6778 13.1438 12.6718 13.1364C12.6659 13.129 12.6683 13.1154 12.6789 13.0965C12.6894 13.0776 12.7079 13.0539 12.733 13.0271C12.7581 13.0003 12.7892 12.971 12.8241 12.9412C12.859 12.9115 12.8968 12.8821 12.935 12.855C12.9965 12.8114 13.0556 12.7762 13.102 12.7555C13.1483 12.7349 13.179 12.7301 13.1885 12.742C13.1981 12.754 13.1859 12.7819 13.1542 12.8208C13.1224 12.8598 13.0732 12.9073 13.015 12.955Z" fill="#009B3A" stroke="black" stroke-width="0.005"/>
<path d="M12.72 13.0849L12.685 12.9749C12.68 12.9549 12.715 12.9349 12.7 12.8749C12.6843 12.8258 12.6503 12.7846 12.605 12.7599C12.5717 12.7433 12.5633 12.7699 12.58 12.8399C12.6 12.9099 12.65 12.9349 12.665 12.9699L12.705 13.0899L12.815 13.1849C12.845 13.2099 12.89 13.3049 12.95 13.3399C13 13.3749 13.05 13.3649 13.04 13.3299C13.0178 13.2818 12.9833 13.2404 12.94 13.2099C12.905 13.1799 12.85 13.1949 12.815 13.1699C12.795 13.1449 12.715 13.0899 12.715 13.0849" fill="#009B3A"/>
<path d="M12.72 13.0849L12.685 12.9749C12.68 12.9549 12.715 12.9349 12.7 12.8749C12.6843 12.8258 12.6503 12.7846 12.605 12.7599C12.5717 12.7433 12.5633 12.7699 12.58 12.8399C12.6 12.9099 12.65 12.9349 12.665 12.9699L12.705 13.0899L12.815 13.1849C12.845 13.2099 12.89 13.3049 12.95 13.3399C13 13.3749 13.05 13.3649 13.04 13.3299C13.0178 13.2818 12.9833 13.2404 12.94 13.2099C12.905 13.1799 12.85 13.1949 12.815 13.1699C12.795 13.1449 12.715 13.0899 12.715 13.0849" stroke="black" stroke-width="0.005"/>
<path d="M12.54 13.4001C12.4735 13.3964 12.4143 13.3862 12.3719 13.371C12.3296 13.3558 12.3066 13.3365 12.3066 13.3163C12.3066 13.2961 12.3296 13.2761 12.3719 13.2596C12.4143 13.243 12.4735 13.2309 12.54 13.2251C12.6065 13.2288 12.6657 13.239 12.708 13.2542C12.7504 13.2694 12.7734 13.2887 12.7734 13.3089C12.7734 13.3291 12.7504 13.3491 12.708 13.3656C12.6657 13.3821 12.6065 13.3943 12.54 13.4001Z" fill="#009B3A" stroke="black" stroke-width="0.005"/>
<path d="M12.5 13.125C12.4477 13.1927 12.3904 13.2518 12.3407 13.2894C12.291 13.3269 12.2531 13.3398 12.2352 13.3252C12.2173 13.3106 12.2209 13.2697 12.2452 13.2116C12.2696 13.1534 12.3127 13.0827 12.365 13.015C12.3904 12.9823 12.4172 12.9514 12.4439 12.9239C12.4706 12.8964 12.4966 12.873 12.5206 12.855C12.5446 12.837 12.566 12.8247 12.5836 12.8189C12.6012 12.813 12.6146 12.8137 12.6232 12.8209C12.6317 12.8282 12.6352 12.8418 12.6333 12.861C12.6315 12.8801 12.6244 12.9046 12.6125 12.9328C12.6006 12.961 12.5841 12.9925 12.564 13.0255C12.5438 13.0585 12.5204 13.0923 12.495 13.125" fill="#009B3A"/>
<path d="M12.5 13.125C12.4477 13.1927 12.3904 13.2518 12.3407 13.2894C12.291 13.3269 12.2531 13.3398 12.2352 13.3252C12.2173 13.3106 12.2209 13.2697 12.2452 13.2116C12.2696 13.1534 12.3127 13.0827 12.365 13.015C12.3904 12.9823 12.4172 12.9514 12.4439 12.9239C12.4706 12.8964 12.4966 12.873 12.5206 12.855C12.5446 12.837 12.566 12.8247 12.5836 12.8189C12.6012 12.813 12.6146 12.8137 12.6232 12.8209C12.6317 12.8282 12.6352 12.8418 12.6333 12.861C12.6315 12.8801 12.6244 12.9046 12.6125 12.9328C12.6006 12.961 12.5841 12.9925 12.564 13.0255C12.5438 13.0585 12.5204 13.0923 12.495 13.125" stroke="black" stroke-width="0.005"/>
<path d="M12.54 13.2651C12.4621 13.2985 12.3843 13.3219 12.3236 13.33C12.2629 13.3382 12.2243 13.3305 12.2164 13.3086C12.2084 13.2867 12.2317 13.2525 12.2811 13.2134C12.3306 13.1742 12.4021 13.1335 12.48 13.1001C12.5579 13.0666 12.6357 13.0432 12.6964 13.0351C12.7571 13.0269 12.7957 13.0346 12.8036 13.0565C12.8116 13.0784 12.7883 13.1126 12.7388 13.1517C12.6894 13.1909 12.6179 13.2316 12.54 13.2651ZM12.625 10.5951C12.6592 10.6271 12.6876 10.6589 12.7044 10.684C12.7213 10.7092 12.7254 10.726 12.716 10.731C12.7065 10.736 12.6843 10.7289 12.6535 10.7112C12.6228 10.6934 12.5859 10.6663 12.55 10.6351C12.5301 10.6178 12.5112 10.5998 12.4944 10.5822C12.4777 10.5647 12.4634 10.5479 12.4526 10.5331C12.4417 10.5183 12.4345 10.5056 12.4315 10.496C12.4284 10.4864 12.4295 10.4799 12.4347 10.4772C12.4399 10.4744 12.4491 10.4753 12.4618 10.4798C12.4744 10.4844 12.4901 10.4924 12.508 10.5035C12.5259 10.5146 12.5456 10.5285 12.5657 10.5442C12.5858 10.56 12.606 10.5773 12.625 10.5951ZM12.53 10.6701C12.5714 10.6777 12.6085 10.6876 12.6356 10.6982C12.6628 10.7088 12.6784 10.7194 12.6801 10.7285C12.6818 10.7376 12.6695 10.7447 12.6451 10.7486C12.6207 10.7525 12.5855 10.753 12.545 10.7501C12.5167 10.748 12.4867 10.7443 12.4575 10.7394C12.4282 10.7344 12.4003 10.7282 12.376 10.7212C12.3518 10.7143 12.3318 10.7069 12.3176 10.6995C12.3034 10.6921 12.2954 10.6849 12.2942 10.6786C12.293 10.6722 12.2987 10.6668 12.3107 10.6628C12.3228 10.6588 12.3409 10.6563 12.3637 10.6554C12.3865 10.6546 12.4134 10.6555 12.4422 10.658C12.471 10.6606 12.5011 10.6647 12.53 10.6701Z" fill="#009B3A" stroke="black" stroke-width="0.005"/>
<path d="M12.57 10.62C12.5954 10.633 12.6201 10.6466 12.6426 10.6602C12.6651 10.6738 12.685 10.687 12.7011 10.6992C12.7172 10.7113 12.7293 10.7222 12.7366 10.7311C12.7439 10.74 12.7463 10.7467 12.7437 10.751C12.7411 10.7553 12.7335 10.7569 12.7213 10.7559C12.7091 10.7549 12.6927 10.7513 12.6728 10.7451C12.653 10.739 12.6302 10.7306 12.6057 10.7202C12.5811 10.7099 12.5554 10.698 12.53 10.685C12.4786 10.6589 12.4315 10.6304 12.3989 10.6059C12.3663 10.5813 12.351 10.5627 12.3563 10.5541C12.3616 10.5454 12.3871 10.5475 12.4272 10.5599C12.4673 10.5723 12.5186 10.5939 12.57 10.62ZM11.185 13.1C11.185 13.1 11.44 13.155 11.665 13.235C11.89 13.315 12.23 13.595 12.32 13.615C12.42 13.615 12.565 13.58 12.62 13.435C12.46 13.475 12.37 13.54 12.22 13.46C12.165 13.44 11.99 13.28 11.795 13.195C11.605 13.11 11.22 13.015 11.22 13.015L11.185 13.1ZM11.46 10.775L11.755 10.62L11.43 10.705L11.39 10.76L11.46 10.775Z" fill="#009B3A" stroke="black" stroke-width="0.005"/>
<path d="M11.74 10.85C11.625 10.825 11.45 10.785 11.34 10.78C11.415 10.695 11.52 10.545 11.59 10.46C11.54 10.545 11.475 10.66 11.45 10.735C11.525 10.78 11.65 10.815 11.74 10.845" fill="#009B3A"/>
<path d="M11.74 10.85C11.625 10.825 11.45 10.785 11.34 10.78C11.415 10.695 11.52 10.545 11.59 10.46C11.54 10.545 11.475 10.66 11.45 10.735C11.525 10.78 11.65 10.815 11.74 10.845" stroke="black" stroke-width="0.005"/>
<path d="M11.405 10.7951L11.67 10.5901L11.365 10.7251L11.335 10.7901H11.405" fill="#009B3A"/>
<path d="M11.405 10.7951L11.67 10.5901L11.365 10.7251L11.335 10.7901H11.405" stroke="black" stroke-width="0.005"/>
<path d="M11.685 10.8449C11.57 10.8199 11.395 10.7799 11.285 10.7699C11.355 10.6849 11.46 10.5349 11.525 10.4399C11.485 10.5299 11.415 10.6449 11.39 10.7299C11.47 10.7749 11.595 10.8099 11.69 10.8449" fill="#009B3A"/>
<path d="M11.685 10.8449C11.57 10.8199 11.395 10.7799 11.285 10.7699C11.355 10.6849 11.46 10.5349 11.525 10.4399C11.485 10.5299 11.415 10.6449 11.39 10.7299C11.47 10.7749 11.595 10.8099 11.69 10.8449" stroke="black" stroke-width="0.005"/>
<path d="M11.365 10.8099L11.67 10.6799L11.34 10.7349L11.295 10.7849L11.36 10.8099" fill="#009B3A"/>
<path d="M11.365 10.8099L11.67 10.6799L11.34 10.7349L11.295 10.7849L11.36 10.8099" stroke="black" stroke-width="0.005"/>
<path d="M11.65 10.8501C11.535 10.8351 11.35 10.8151 11.24 10.8201C11.305 10.7201 11.39 10.5551 11.445 10.4551C11.415 10.5501 11.36 10.6751 11.345 10.7601C11.43 10.8001 11.56 10.8201 11.65 10.8451" fill="#009B3A"/>
<path d="M11.65 10.8501C11.535 10.8351 11.35 10.8151 11.24 10.8201C11.305 10.7201 11.39 10.5551 11.445 10.4551C11.415 10.5501 11.36 10.6751 11.345 10.7601C11.43 10.8001 11.56 10.8201 11.65 10.8451" stroke="black" stroke-width="0.005"/>
<path d="M11.33 10.8101L11.54 10.5601L11.275 10.7551L11.26 10.8201L11.33 10.8101Z" fill="#009B3A" stroke="black" stroke-width="0.005"/>
<path d="M11.65 10.865C11.525 10.865 11.33 10.85 11.21 10.865C11.27 10.75 11.345 10.565 11.39 10.45C11.37 10.555 11.325 10.7 11.32 10.795C11.41 10.825 11.55 10.845 11.65 10.865Z" fill="#009B3A" stroke="black" stroke-width="0.005"/>
<path d="M11.29 10.87L11.54 10.625L11.235 10.8L11.215 10.87H11.29Z" fill="#009B3A" stroke="black" stroke-width="0.005"/>
<path d="M11.595 10.87C11.46 10.87 11.255 10.865 11.12 10.88C11.21 10.755 11.33 10.55 11.4 10.425C11.35 10.54 11.28 10.695 11.25 10.8C11.345 10.835 11.49 10.85 11.595 10.87Z" fill="#009B3A" stroke="black" stroke-width="0.005"/>
<path d="M11.2 10.89L11.53 10.615L11.16 10.81L11.12 10.89H11.2Z" fill="#009B3A" stroke="black" stroke-width="0.005"/>
<path d="M11.55 10.88C11.415 10.9 11.205 10.92 11.08 10.955C11.145 10.82 11.235 10.605 11.29 10.47C11.26 10.59 11.205 10.75 11.19 10.86C11.29 10.88 11.44 10.875 11.545 10.88" fill="#009B3A"/>
<path d="M11.55 10.88C11.415 10.9 11.205 10.92 11.08 10.955C11.145 10.82 11.235 10.605 11.29 10.47C11.26 10.59 11.205 10.75 11.19 10.86C11.29 10.88 11.44 10.875 11.545 10.88" stroke="black" stroke-width="0.005"/>
<path d="M11.16 10.945L11.41 10.595L11.095 10.88L11.08 10.965L11.16 10.945Z" fill="#009B3A" stroke="black" stroke-width="0.005"/>
<path d="M11.47 10.92C11.34 10.935 11.13 10.945 11 10.97C11.075 10.84 11.175 10.63 11.24 10.5C11.2 10.615 11.14 10.775 11.12 10.885C11.22 10.91 11.37 10.91 11.47 10.92Z" fill="#009B3A" stroke="black" stroke-width="0.005"/>
<path d="M11.115 10.9801L11.435 10.7051L11.07 10.9001L11.035 10.9801H11.115Z" fill="#009B3A" stroke="black" stroke-width="0.005"/>
<path d="M11.435 10.935C11.3 10.965 11.09 11 10.965 11.04C11.025 10.905 11.105 10.685 11.155 10.55C11.13 10.67 11.085 10.83 11.075 10.94C11.175 10.955 11.325 10.94 11.435 10.935Z" fill="#009B3A" stroke="black" stroke-width="0.005"/>
<path d="M11.06 11L11.26 10.615L10.99 10.945L10.985 11.03L11.06 10.995" fill="#009B3A"/>
<path d="M11.06 11L11.26 10.615L10.99 10.945L10.985 11.03L11.06 10.995" stroke="black" stroke-width="0.005"/>
<path d="M11.435 10.955C11.285 10.995 11.065 11.045 10.935 11.095C10.985 10.94 11.04 10.695 11.08 10.54C11.065 10.675 11.035 10.855 11.04 10.98C11.155 10.99 11.315 10.965 11.43 10.955" fill="#009B3A"/>
<path d="M11.435 10.955C11.285 10.995 11.065 11.045 10.935 11.095C10.985 10.94 11.04 10.695 11.08 10.54C11.065 10.675 11.035 10.855 11.04 10.98C11.155 10.99 11.315 10.965 11.43 10.955" stroke="black" stroke-width="0.005"/>
<path d="M11.02 11.0851L11.28 10.7051L10.95 11.0101L10.935 11.1101L11.02 11.0851Z" fill="#009B3A" stroke="black" stroke-width="0.005"/>
<path d="M11.375 11C11.235 11.045 11.015 11.105 10.885 11.165C10.925 11.005 10.975 10.76 11.005 10.605C11 10.74 10.98 10.92 10.99 11.04C11.1 11.045 11.26 11.01 11.375 11Z" fill="#009B3A" stroke="black" stroke-width="0.005"/>
<path d="M10.97 11.14L11.165 10.72L10.885 11.08V11.18L10.97 11.14Z" fill="#009B3A" stroke="black" stroke-width="0.005"/>
<path d="M11.32 11.0599C11.18 11.0899 10.955 11.1349 10.82 11.1799C10.875 11.0299 10.945 10.7799 10.99 10.6299C10.97 10.7649 10.935 10.9499 10.935 11.0649C11.045 11.0799 11.205 11.0599 11.32 11.0549" fill="#009B3A"/>
<path d="M11.32 11.0599C11.18 11.0899 10.955 11.1349 10.82 11.1799C10.875 11.0299 10.945 10.7799 10.99 10.6299C10.97 10.7649 10.935 10.9499 10.935 11.0649C11.045 11.0799 11.205 11.0599 11.32 11.0549" stroke="black" stroke-width="0.005"/>
<path d="M10.92 11.1801L11.24 10.8501L10.865 11.0951L10.835 11.1851L10.92 11.1801Z" fill="#009B3A" stroke="black" stroke-width="0.005"/>
<path d="M11.26 11.1149C11.115 11.1349 10.895 11.1549 10.76 11.1899C10.825 11.0399 10.91 10.7999 10.96 10.6499C10.93 10.7849 10.885 10.9649 10.875 11.0849C10.985 11.1099 11.145 11.1049 11.26 11.1149Z" fill="#009B3A" stroke="black" stroke-width="0.005"/>
<path d="M10.86 11.1499L11.075 10.7349L10.78 11.0849V11.1799L10.86 11.1449" fill="#009B3A"/>
<path d="M10.86 11.1499L11.075 10.7349L10.78 11.0849V11.1799L10.86 11.1449" stroke="black" stroke-width="0.005"/>
<path d="M11.275 11.0651C11.125 11.1301 10.875 11.2151 10.73 11.2951C10.78 11.1101 10.83 10.8201 10.86 10.6401C10.86 10.7951 10.835 11.0101 10.845 11.1451C10.97 11.1451 11.145 11.0901 11.275 11.0651Z" fill="#009B3A" stroke="black" stroke-width="0.005"/>
<path d="M10.83 11.27L11.09 10.8L10.745 11.2L10.735 11.31L10.83 11.27Z" fill="#009B3A" stroke="black" stroke-width="0.005"/>
<path d="M11.215 11.125C11.065 11.195 10.825 11.295 10.685 11.38C10.725 11.2 10.76 10.905 10.785 10.73C10.785 10.88 10.775 11.095 10.79 11.23C10.915 11.215 11.09 11.155 11.215 11.125Z" fill="#009B3A" stroke="black" stroke-width="0.005"/>
<path d="M10.775 11.34L10.965 10.835L10.68 11.285L10.69 11.4L10.775 11.34Z" fill="#009B3A" stroke="black" stroke-width="0.005"/>
<path d="M11.15 11.1649C11 11.2399 10.76 11.3399 10.62 11.4299C10.655 11.2449 10.69 10.9549 10.715 10.7749C10.715 10.9249 10.705 11.1399 10.725 11.2749C10.85 11.2599 11.025 11.1949 11.15 11.1649Z" fill="#009B3A" stroke="black" stroke-width="0.005"/>
<path d="M10.735 11.4001L11.025 10.9551L10.655 11.3201L10.64 11.4301L10.735 11.4001Z" fill="#009B3A" stroke="black" stroke-width="0.005"/>
<path d="M11.135 11.1399C11 11.2499 10.785 11.4099 10.665 11.5299C10.665 11.3399 10.64 11.0549 10.625 10.8799C10.655 11.0249 10.69 11.2299 10.74 11.3549C10.86 11.3099 11.015 11.2049 11.14 11.1449" fill="#009B3A"/>
<path d="M11.135 11.1399C11 11.2499 10.785 11.4099 10.665 11.5299C10.665 11.3399 10.64 11.0549 10.625 10.8799C10.655 11.0249 10.69 11.2299 10.74 11.3549C10.86 11.3099 11.015 11.2049 11.14 11.1449" stroke="black" stroke-width="0.005"/>
<path d="M10.75 11.4251L10.78 10.8901L10.64 11.4101L10.68 11.5101L10.75 11.4251Z" fill="#009B3A" stroke="black" stroke-width="0.005"/>
<path d="M11.1 11.19C10.96 11.3 10.75 11.455 10.625 11.575C10.625 11.39 10.6 11.1 10.585 10.925C10.62 11.075 10.65 11.275 10.7 11.4C10.82 11.36 10.975 11.25 11.1 11.19Z" fill="#009B3A" stroke="black" stroke-width="0.005"/>
<path d="M10.715 11.515L10.85 10.99L10.615 11.47L10.63 11.58L10.715 11.515Z" fill="#009B3A" stroke="black" stroke-width="0.005"/>
<path d="M11.08 11.2C10.955 11.33 10.75 11.52 10.635 11.65C10.615 11.465 10.56 11.17 10.525 10.99C10.575 11.14 10.63 11.345 10.695 11.465C10.81 11.41 10.965 11.285 11.08 11.205" fill="#009B3A"/>
<path d="M11.08 11.2C10.955 11.33 10.75 11.52 10.635 11.65C10.615 11.465 10.56 11.17 10.525 10.99C10.575 11.14 10.63 11.345 10.695 11.465C10.81 11.41 10.965 11.285 11.08 11.205" stroke="black" stroke-width="0.005"/>
<path d="M10.715 11.5799L10.74 11.0249L10.605 11.5649L10.645 11.6649L10.715 11.5799Z" fill="#009B3A" stroke="black" stroke-width="0.005"/>
<path d="M11.04 11.2999C10.905 11.4099 10.69 11.5749 10.56 11.6999C10.56 11.5099 10.525 11.2099 10.51 11.0249C10.545 11.1749 10.585 11.3899 10.635 11.5199C10.76 11.4699 10.92 11.3649 11.04 11.2949" fill="#009B3A"/>
<path d="M11.04 11.2999C10.905 11.4099 10.69 11.5749 10.56 11.6999C10.56 11.5099 10.525 11.2099 10.51 11.0249C10.545 11.1749 10.585 11.3899 10.635 11.5199C10.76 11.4699 10.92 11.3649 11.04 11.2949" stroke="black" stroke-width="0.005"/>
<path d="M10.675 11.6451L10.865 11.1201L10.575 11.5851L10.585 11.7001L10.675 11.6451Z" fill="#009B3A" stroke="black" stroke-width="0.005"/>
<path d="M11.04 11.3C10.915 11.425 10.725 11.62 10.615 11.755C10.595 11.565 10.54 11.265 10.51 11.085C10.56 11.235 10.61 11.445 10.67 11.565C10.785 11.505 10.925 11.38 11.04 11.3Z" fill="#009B3A" stroke="black" stroke-width="0.005"/>
<path d="M10.68 11.6701L10.66 11.1201L10.57 11.6701L10.62 11.7651L10.68 11.6701Z" fill="#009B3A" stroke="black" stroke-width="0.005"/>
<path d="M10.98 11.3399C10.86 11.4699 10.675 11.6649 10.57 11.8049C10.545 11.6049 10.48 11.3149 10.445 11.1299C10.495 11.2799 10.56 11.4899 10.62 11.6099C10.73 11.5499 10.87 11.4199 10.98 11.3399Z" fill="#009B3A" stroke="black" stroke-width="0.005"/>
<path d="M10.65 11.725L10.71 11.165L10.545 11.695L10.58 11.805L10.65 11.725Z" fill="#009B3A" stroke="black" stroke-width="0.005"/>
<path d="M10.95 11.36C10.85 11.505 10.675 11.71 10.58 11.86C10.54 11.67 10.455 11.385 10.405 11.21C10.47 11.35 10.545 11.55 10.615 11.665C10.72 11.595 10.85 11.455 10.955 11.365" fill="#009B3A"/>
<path d="M10.95 11.36C10.85 11.505 10.675 11.71 10.58 11.86C10.54 11.67 10.455 11.385 10.405 11.21C10.47 11.35 10.545 11.55 10.615 11.665C10.72 11.595 10.85 11.455 10.955 11.365" stroke="black" stroke-width="0.005"/>
<path d="M10.65 11.7801L10.61 11.2151L10.54 11.7751L10.59 11.8751L10.645 11.7751" fill="#009B3A"/>
<path d="M10.65 11.7801L10.61 11.2151L10.54 11.7751L10.59 11.8751L10.645 11.7751" stroke="black" stroke-width="0.005"/>
<path d="M10.945 11.3951C10.845 11.5451 10.68 11.7601 10.595 11.9151C10.545 11.7251 10.445 11.4401 10.385 11.2651C10.455 11.4051 10.54 11.6051 10.62 11.7151C10.72 11.6401 10.845 11.4901 10.945 11.3951Z" fill="#009B3A" stroke="black" stroke-width="0.005"/>
<path d="M10.68 11.8301L10.74 11.2651L10.58 11.7951L10.61 11.9101L10.68 11.8301Z" fill="#009B3A" stroke="black" stroke-width="0.005"/>
<path d="M10.92 11.45C10.835 11.605 10.695 11.85 10.62 12.015C10.555 11.835 10.43 11.565 10.355 11.395C10.44 11.525 10.54 11.71 10.63 11.815C10.725 11.725 10.83 11.555 10.92 11.445" fill="#009B3A"/>
<path d="M10.92 11.45C10.835 11.605 10.695 11.85 10.62 12.015C10.555 11.835 10.43 11.565 10.355 11.395C10.44 11.525 10.54 11.71 10.63 11.815C10.725 11.725 10.83 11.555 10.92 11.445" stroke="black" stroke-width="0.005"/>
<path d="M10.665 11.8801L10.505 11.3401L10.555 11.9051L10.63 11.9851L10.66 11.8801" fill="#009B3A"/>
<path d="M10.665 11.8801L10.505 11.3401L10.555 11.9051L10.63 11.9851L10.66 11.8801" stroke="black" stroke-width="0.005"/>
<path d="M10.92 11.51C10.83 11.67 10.68 11.91 10.605 12.075C10.54 11.895 10.415 11.625 10.335 11.46C10.42 11.59 10.525 11.775 10.615 11.875C10.715 11.785 10.825 11.62 10.915 11.51" fill="#009B3A"/>
<path d="M10.92 11.51C10.83 11.67 10.68 11.91 10.605 12.075C10.54 11.895 10.415 11.625 10.335 11.46C10.42 11.59 10.525 11.775 10.615 11.875C10.715 11.785 10.825 11.62 10.915 11.51" stroke="black" stroke-width="0.005"/>
<path d="M10.67 11.98L10.61 11.415L10.56 11.98L10.615 12.08L10.67 11.98Z" fill="#009B3A" stroke="black" stroke-width="0.005"/>
<path d="M10.93 11.5601C10.835 11.7151 10.68 11.9551 10.605 12.1151C10.54 11.9351 10.42 11.6651 10.345 11.4951C10.43 11.6251 10.53 11.8151 10.62 11.9151C10.72 11.8301 10.835 11.6651 10.93 11.5601Z" fill="#009B3A" stroke="black" stroke-width="0.005"/>
<path d="M10.665 12.0251L10.56 11.4751L10.555 12.0351L10.62 12.1251L10.665 12.0251Z" fill="#009B3A" stroke="black" stroke-width="0.005"/>
<path d="M10.89 11.6399C10.79 11.7899 10.625 12.0149 10.54 12.1749C10.485 11.9899 10.375 11.7049 10.31 11.5349C10.385 11.6699 10.48 11.8649 10.56 11.9749C10.665 11.8949 10.79 11.7399 10.89 11.6399Z" fill="#009B3A" stroke="black" stroke-width="0.005"/>
<path d="M10.615 12.085L10.665 11.52L10.51 12.055L10.545 12.165L10.615 12.085Z" fill="#009B3A" stroke="black" stroke-width="0.005"/>
<path d="M10.895 11.6499C10.81 11.8149 10.665 12.0649 10.595 12.2299C10.525 12.0549 10.395 11.7899 10.31 11.6299C10.4 11.7499 10.51 11.9299 10.6 12.0299C10.7 11.9349 10.8 11.7649 10.895 11.6549" fill="#009B3A"/>
<path d="M10.895 11.6499C10.81 11.8149 10.665 12.0649 10.595 12.2299C10.525 12.0549 10.395 11.7899 10.31 11.6299C10.4 11.7499 10.51 11.9299 10.6 12.0299C10.7 11.9349 10.8 11.7649 10.895 11.6549" stroke="black" stroke-width="0.005"/>
<path d="M10.6 12.135L10.425 11.605L10.49 12.165L10.565 12.245L10.595 12.135" fill="#009B3A"/>
<path d="M10.6 12.135L10.425 11.605L10.49 12.165L10.565 12.245L10.595 12.135" stroke="black" stroke-width="0.005"/>
<path d="M10.87 11.6951C10.81 11.8751 10.71 12.1451 10.67 12.3301C10.57 12.1701 10.395 11.9401 10.29 11.7951C10.395 11.9001 10.535 12.0551 10.64 12.1301C10.72 12.0151 10.8 11.8301 10.87 11.6951Z" fill="#009B3A" stroke="black" stroke-width="0.005"/>
<path d="M10.75 12.175L10.565 11.655L10.645 12.215L10.72 12.285L10.75 12.175Z" fill="#009B3A" stroke="black" stroke-width="0.005"/>
<path d="M10.87 11.75C10.81 11.93 10.71 12.205 10.67 12.385C10.57 12.225 10.4 12 10.29 11.86C10.395 11.96 10.535 12.11 10.64 12.19C10.72 12.075 10.8 11.885 10.87 11.75Z" fill="#009B3A" stroke="black" stroke-width="0.005"/>
<path d="M10.75 12.265L10.51 11.78L10.65 12.32L10.735 12.38L10.755 12.265" fill="#009B3A"/>
<path d="M10.75 12.265L10.51 11.78L10.65 12.32L10.735 12.38L10.755 12.265" stroke="black" stroke-width="0.005"/>
<path d="M10.85 11.7949C10.815 11.9799 10.75 12.2699 10.725 12.4549C10.61 12.3099 10.41 12.1049 10.29 11.9849C10.405 12.0699 10.56 12.2049 10.675 12.2599C10.74 12.1349 10.795 11.9349 10.85 11.7949Z" fill="#009B3A" stroke="black" stroke-width="0.005"/>
<path d="M10.77 12.3399L10.64 11.7949L10.66 12.3599L10.73 12.4449L10.77 12.3449" fill="#009B3A"/>
<path d="M10.77 12.3399L10.64 11.7949L10.66 12.3599L10.73 12.4449L10.77 12.3449" stroke="black" stroke-width="0.005"/>
<path d="M10.85 11.8501C10.83 12.0451 10.79 12.3401 10.79 12.5251C10.66 12.4001 10.445 12.2251 10.315 12.1201C10.435 12.1901 10.6 12.3001 10.72 12.3401C10.77 12.2101 10.81 12.0001 10.85 11.8551" fill="#009B3A"/>
<path d="M10.85 11.8501C10.83 12.0451 10.79 12.3401 10.79 12.5251C10.66 12.4001 10.445 12.2251 10.315 12.1201C10.435 12.1901 10.6 12.3001 10.72 12.3401C10.77 12.2101 10.81 12.0001 10.85 11.8551" stroke="black" stroke-width="0.005"/>
<path d="M10.775 12.38L10.43 11.99L10.69 12.465L10.79 12.495L10.775 12.38Z" fill="#009B3A" stroke="black" stroke-width="0.005"/>
<path d="M10.86 11.9199C10.84 12.1099 10.8 12.4049 10.795 12.5899C10.665 12.4649 10.45 12.2899 10.32 12.1799C10.445 12.2499 10.61 12.3649 10.725 12.4049C10.78 12.2749 10.815 12.0649 10.86 11.9199Z" fill="#009B3A" stroke="black" stroke-width="0.005"/>
<path d="M10.815 12.47L10.55 12L10.715 12.535L10.8 12.59L10.815 12.475" fill="#009B3A"/>
<path d="M10.815 12.47L10.55 12L10.715 12.535L10.8 12.59L10.815 12.475" stroke="black" stroke-width="0.005"/>
<path d="M10.875 12.0001C10.86 12.1901 10.835 12.4851 10.835 12.6751C10.6785 12.5399 10.5149 12.413 10.345 12.2951C10.475 12.3551 10.645 12.4601 10.76 12.4951C10.81 12.3601 10.84 12.1451 10.875 11.9951" fill="#009B3A"/>
<path d="M10.875 12.0001C10.86 12.1901 10.835 12.4851 10.835 12.6751C10.6785 12.5399 10.5149 12.413 10.345 12.2951C10.475 12.3551 10.645 12.4601 10.76 12.4951C10.81 12.3601 10.84 12.1451 10.875 11.9951" stroke="black" stroke-width="0.005"/>
<path d="M10.85 12.56L10.52 12.145L10.76 12.635L10.85 12.675V12.56Z" fill="#009B3A" stroke="black" stroke-width="0.005"/>
<path d="M10.88 12.09C10.865 12.28 10.84 12.575 10.845 12.765C10.71 12.645 10.49 12.485 10.35 12.385C10.48 12.45 10.65 12.55 10.77 12.585C10.82 12.45 10.845 12.235 10.88 12.085" fill="#009B3A"/>
<path d="M10.88 12.09C10.865 12.28 10.84 12.575 10.845 12.765C10.71 12.645 10.49 12.485 10.35 12.385C10.48 12.45 10.65 12.55 10.77 12.585C10.82 12.45 10.845 12.235 10.88 12.085" stroke="black" stroke-width="0.005"/>
<path d="M10.875 12.6299L10.65 12.1299L10.775 12.6799L10.855 12.7449L10.875 12.6299Z" fill="#009B3A" stroke="black" stroke-width="0.005"/>
<path d="M10.885 12.145C10.895 12.34 10.895 12.635 10.915 12.825C10.7464 12.7139 10.5729 12.6105 10.395 12.515C10.525 12.56 10.7 12.635 10.825 12.655C10.86 12.51 10.865 12.3 10.885 12.145Z" fill="#009B3A" stroke="black" stroke-width="0.005"/>
<path d="M10.915 12.61L10.5 12.325L10.85 12.715L10.95 12.72L10.915 12.61Z" fill="#009B3A" stroke="black" stroke-width="0.005"/>
<path d="M10.9 12.165C10.915 12.36 10.935 12.655 10.965 12.84C10.815 12.745 10.575 12.625 10.425 12.55C10.56 12.59 10.74 12.66 10.865 12.675C10.89 12.53 10.885 12.32 10.9 12.165Z" fill="#009B3A" stroke="black" stroke-width="0.005"/>
<path d="M10.965 12.7149L10.615 12.3149L10.88 12.7949L10.975 12.8299L10.96 12.7149" fill="#009B3A"/>
<path d="M10.965 12.7149L10.615 12.3149L10.88 12.7949L10.975 12.8299L10.96 12.7149" stroke="black" stroke-width="0.005"/>
<path d="M10.93 12.24C10.955 12.43 10.98 12.725 11.025 12.91C10.875 12.825 10.625 12.72 10.475 12.655C10.61 12.685 10.795 12.745 10.915 12.755C10.935 12.605 10.925 12.395 10.93 12.24Z" fill="#009B3A" stroke="black" stroke-width="0.005"/>
<path d="M11.03 12.785L10.615 12.49L10.965 12.89L11.065 12.895L11.03 12.785Z" fill="#009B3A" stroke="black" stroke-width="0.005"/>
<path d="M10.945 12.3201C10.98 12.5101 11.03 12.8051 11.08 12.9851C10.925 12.9101 10.67 12.8301 10.515 12.7801C10.655 12.7951 10.84 12.8401 10.965 12.8301C10.975 12.6851 10.95 12.4801 10.945 12.3201Z" fill="#009B3A" stroke="black" stroke-width="0.005"/>
<path d="M11.08 12.8451L10.73 12.4351L10.99 12.9201L11.09 12.9601L11.08 12.8451Z" fill="#009B3A" stroke="black" stroke-width="0.005"/>
<path d="M10.965 12.3701C11.02 12.5551 11.095 12.8451 11.165 13.0201C11 12.9701 10.745 12.9201 10.585 12.8901C10.725 12.8901 10.91 12.9051 11.035 12.8851C11.035 12.7351 10.985 12.5301 10.965 12.3751" fill="#009B3A"/>
<path d="M10.965 12.3701C11.02 12.5551 11.095 12.8451 11.165 13.0201C11 12.9701 10.745 12.9201 10.585 12.8901C10.725 12.8901 10.91 12.9051 11.035 12.8851C11.035 12.7351 10.985 12.5301 10.965 12.3751" stroke="black" stroke-width="0.005"/>
<path d="M11.1 12.8451L10.615 12.7451L11.07 12.9701L11.165 12.9351L11.095 12.8451" fill="#009B3A"/>
<path d="M11.1 12.8451L10.615 12.7451L11.07 12.9701L11.165 12.9351L11.095 12.8451" stroke="black" stroke-width="0.005"/>
<path d="M11 12.4299C11.05 12.6149 11.125 12.8999 11.19 13.0749C11.03 13.0249 10.775 12.9749 10.615 12.9449C10.755 12.9449 10.94 12.9599 11.065 12.9449C11.065 12.7949 11.015 12.5849 11 12.4299Z" fill="#009B3A" stroke="black" stroke-width="0.005"/>
<path d="M11.175 12.8949L10.715 12.6699L11.125 13.0049L11.225 12.9949L11.175 12.8949Z" fill="#009B3A" stroke="black" stroke-width="0.005"/>
<path d="M10.975 12.46C11.065 12.63 11.2 12.895 11.3 13.045C11.13 13.035 10.87 13.045 10.71 13.045C10.845 13.02 11.03 12.995 11.145 12.945C11.11 12.8 11.025 12.61 10.975 12.46Z" fill="#009B3A" stroke="black" stroke-width="0.005"/>
<path d="M11.25 12.9449L10.77 12.8149L11.22 13.0649L11.31 13.0399L11.245 12.9399" fill="#009B3A"/>
<path d="M11.25 12.9449L10.77 12.8149L11.22 13.0649L11.31 13.0399L11.245 12.9399" stroke="black" stroke-width="0.005"/>
<path d="M11.02 12.5349C11.115 12.6999 11.25 12.9649 11.355 13.1149C11.185 13.1049 10.925 13.1149 10.765 13.1249C10.895 13.0899 11.085 13.0649 11.195 13.0149C11.165 12.8699 11.075 12.6799 11.025 12.5349" fill="#009B3A"/>
<path d="M11.02 12.5349C11.115 12.6999 11.25 12.9649 11.355 13.1149C11.185 13.1049 10.925 13.1149 10.765 13.1249C10.895 13.0899 11.085 13.0649 11.195 13.0149C11.165 12.8699 11.075 12.6799 11.025 12.5349" stroke="black" stroke-width="0.005"/>
<path d="M11.305 12.985L10.86 12.72L11.25 13.09H11.35L11.305 12.985Z" fill="#009B3A" stroke="black" stroke-width="0.005"/>
<path d="M11.06 12.575C11.165 12.73 11.325 12.975 11.44 13.12C11.245 13.1356 11.0513 13.164 10.86 13.205C10.99 13.155 11.17 13.105 11.28 13.04C11.23 12.9 11.125 12.715 11.06 12.575Z" fill="#009B3A" stroke="black" stroke-width="0.005"/>
<path d="M11.34 13.0251L10.86 13.0101L11.335 13.1551L11.42 13.1001L11.34 13.0251ZM11.62 10.6951L11.965 10.6401L11.62 10.6451L11.56 10.6751L11.62 10.6951Z" fill="#009B3A" stroke="black" stroke-width="0.005"/>
<path d="M11.81 10.7701C11.71 10.7401 11.56 10.6901 11.455 10.6701L11.825 10.4951C11.75 10.5451 11.635 10.6051 11.575 10.6551C11.635 10.6951 11.74 10.7351 11.81 10.7701Z" fill="#009B3A" stroke="black" stroke-width="0.005"/>
<path d="M11.6 10.705L11.94 10.615L11.59 10.66L11.54 10.695L11.605 10.705" fill="#009B3A"/>
<path d="M11.6 10.705L11.94 10.615L11.59 10.66L11.54 10.695L11.605 10.705" stroke="black" stroke-width="0.005"/>
<path d="M11.825 10.7951C11.705 10.7801 11.525 10.7601 11.41 10.7601C11.5 10.6801 11.62 10.5551 11.695 10.4751C11.645 10.5501 11.565 10.6451 11.53 10.7151C11.61 10.7501 11.735 10.7701 11.825 10.7951Z" fill="#009B3A" stroke="black" stroke-width="0.005"/>
<path d="M11.48 10.7299L11.83 10.6899L11.49 10.6799L11.425 10.7099L11.475 10.7299" fill="#009B3A"/>
<path d="M11.48 10.7299L11.83 10.6899L11.49 10.6799L11.425 10.7099L11.475 10.7299" stroke="black" stroke-width="0.005"/>
<path d="M11.735 10.805L11.36 10.74L11.705 10.55C11.635 10.6 11.535 10.67 11.485 10.72C11.55 10.75 11.66 10.78 11.735 10.805Z" fill="#009B3A" stroke="black" stroke-width="0.005"/>
<path d="M11.45 10.73L11.755 10.595L11.42 10.685L11.38 10.725H11.45" fill="#009B3A"/>
<path d="M11.45 10.73L11.755 10.595L11.42 10.685L11.38 10.725H11.45" stroke="black" stroke-width="0.005"/>
<path d="M11.725 10.845C11.64 10.81 11.5 10.745 11.415 10.72L11.635 10.48C11.595 10.545 11.535 10.63 11.505 10.7C11.565 10.75 11.655 10.8 11.725 10.845Z" fill="#009B3A" stroke="black" stroke-width="0.005"/>
<path d="M11.465 10.7499L11.705 10.6499L11.445 10.6799L11.415 10.7299L11.465 10.7499ZM11.265 12.9799H10.775L11.275 13.1049L11.355 13.0549L11.265 12.9799Z" fill="#009B3A" stroke="black" stroke-width="0.005"/>
<path d="M11.355 13.01L10.855 12.895L11.335 13.13L11.435 13.1L11.355 13.01Z" fill="#009B3A" stroke="black" stroke-width="0.005"/>
<path d="M11.44 13.045L10.94 13.02L11.44 13.17L11.525 13.12L11.44 13.045Z" fill="#009B3A" stroke="black" stroke-width="0.005"/>
<path d="M11.125 12.6951C11.25 12.8351 11.445 13.0651 11.58 13.1901C11.415 13.2151 11.165 13.2801 11.01 13.3251C11.13 13.2651 11.31 13.1951 11.41 13.1251C11.34 12.9951 11.21 12.8251 11.125 12.6951Z" fill="#009B3A" stroke="black" stroke-width="0.005"/>
<path d="M11.505 13.07L11.005 12.905L11.475 13.185L11.575 13.165L11.505 13.065" fill="#009B3A"/>
<path d="M11.505 13.07L11.005 12.905L11.475 13.185L11.575 13.165L11.505 13.065" stroke="black" stroke-width="0.005"/>
<path d="M11.17 12.7251C11.31 12.8551 11.52 13.0601 11.67 13.1751C11.51 13.2201 11.27 13.3151 11.12 13.3751C11.235 13.3051 11.4 13.2151 11.49 13.1251C11.41 13.0051 11.265 12.8501 11.17 12.7251Z" fill="#009B3A" stroke="black" stroke-width="0.005"/>
<path d="M11.55 13.1001L11.075 13.1951L11.575 13.2251L11.645 13.1601L11.545 13.1001" fill="#009B3A"/>
<path d="M11.55 13.1001L11.075 13.1951L11.575 13.2251L11.645 13.1601L11.545 13.1001" stroke="black" stroke-width="0.005"/>
<path d="M11.45 13.0701L10.96 13.1101L11.465 13.1951L11.545 13.1351L11.445 13.0701" fill="#009B3A"/>
<path d="M11.45 13.0701L10.96 13.1101L11.465 13.1951L11.545 13.1351L11.445 13.0701" stroke="black" stroke-width="0.005"/>
<path d="M11.54 13.1001L11.03 13.0151L11.53 13.2151L11.62 13.1801L11.54 13.1001Z" fill="#009B3A" stroke="black" stroke-width="0.005"/>
<path d="M11.625 13.125L11.125 13.135L11.635 13.25L11.715 13.195L11.625 13.125Z" fill="#009B3A" stroke="black" stroke-width="0.005"/>
<path d="M11.285 12.7999C11.425 12.9299 11.635 13.1399 11.78 13.2599C11.615 13.2949 11.365 13.3799 11.215 13.4299C11.335 13.3649 11.505 13.2849 11.6 13.2049C11.52 13.0799 11.38 12.9199 11.285 12.7949V12.7999Z" fill="#009B3A" stroke="black" stroke-width="0.005"/>
<path d="M11.695 13.1451L11.185 13.0151L11.675 13.2651L11.77 13.2351L11.695 13.1451Z" fill="#009B3A" stroke="black" stroke-width="0.005"/>
<path d="M11.33 12.825C11.48 12.945 11.71 13.135 11.865 13.235C11.705 13.29 11.475 13.41 11.335 13.48C11.445 13.395 11.6 13.295 11.685 13.205C11.595 13.085 11.435 12.94 11.335 12.825H11.33Z" fill="#009B3A" stroke="black" stroke-width="0.005"/>
<path d="M11.74 13.1699L11.275 13.2999H11.775L11.84 13.2249L11.74 13.1749V13.1699Z" fill="#009B3A" stroke="black" stroke-width="0.005"/>
<path d="M12.38 12.475L12 12.21L11.62 12.475L11.765 12.055L11.43 11.795H11.86L12 11.375L12.14 11.795H12.57L12.235 12.055L12.38 12.475Z" fill="#FEDF00" stroke="black" stroke-width="0.02"/>
</g>
</g>
<defs>
<clipPath id="clip0_2214_3932">
<path d="M0 12C0 5.37258 5.37258 0 12 0C18.6274 0 24 5.37258 24 12C24 18.6274 18.6274 24 12 24C5.37258 24 0 18.6274 0 12Z" fill="white"/>
</clipPath>
<clipPath id="clip1_2214_3932">
<rect width="32" height="24" fill="white" transform="translate(-4)"/>
</clipPath>
</defs>
</svg>
