<svg width="24" height="24" viewBox="0 0 24 24" fill="none" xmlns="http://www.w3.org/2000/svg">
<g clip-path="url(#clip0_2214_2959)">
<g clip-path="url(#clip1_2214_2959)">
<path d="M12 0H28V24H12V0Z" fill="white"/>
<path d="M-4 0H12V24H-4V0Z" fill="#006233"/>
<path d="M17.2 9C16.5396 7.85615 15.5202 6.96218 14.2999 6.45673C13.0797 5.95127 11.7267 5.8626 10.4509 6.20445C9.17513 6.5463 8.04778 7.29957 7.24373 8.34743C6.43967 9.3953 6.00385 10.6792 6.00385 12C6.00385 13.3208 6.43967 14.6047 7.24373 15.6526C8.04778 16.7004 9.17513 17.4537 10.4509 17.7956C11.7267 18.1374 13.0797 18.0487 14.2999 17.5433C15.5202 17.0378 16.5396 16.1439 17.2 15C16.5785 15.7763 15.7311 16.3404 14.7751 16.6143C13.8191 16.8882 12.8016 16.8585 11.8633 16.5291C10.9249 16.1997 10.112 15.5871 9.53697 14.7757C8.96188 13.9644 8.653 12.9945 8.653 12C8.653 11.0055 8.96188 10.0356 9.53697 9.22427C10.112 8.41294 10.9249 7.80026 11.8633 7.4709C12.8016 7.14154 13.8191 7.11176 14.7751 7.38568C15.7311 7.6596 16.5785 8.22369 17.2 9ZM17.4 12L12 10.24L15.36 14.84V9.16L12 13.76L17.4 12Z" fill="#D21034"/>
</g>
</g>
<defs>
<clipPath id="clip0_2214_2959">
<path d="M0 12C0 5.37258 5.37258 0 12 0C18.6274 0 24 5.37258 24 12C24 18.6274 18.6274 24 12 24C5.37258 24 0 18.6274 0 12Z" fill="white"/>
</clipPath>
<clipPath id="clip1_2214_2959">
<rect width="32" height="24" fill="white" transform="translate(-4)"/>
</clipPath>
</defs>
</svg>
