<svg width="24" height="24" viewBox="0 0 24 24" fill="none" xmlns="http://www.w3.org/2000/svg">
<g clip-path="url(#clip0_3053_1915)">
<path d="M-3.90051 0H28.0995V24H-3.90051V0Z" fill="#0021AD"/>
<path d="M-3.90051 0H28.0995V24L-3.90051 0Z" fill="#1C8A42"/>
<path d="M12.3767 14.4463C13.6065 14.4463 14.6034 13.4494 14.6034 12.2196C14.6034 10.9899 13.6065 9.99292 12.3767 9.99292C11.1469 9.99292 10.15 10.9899 10.15 12.2196C10.15 13.4494 11.1469 14.4463 12.3767 14.4463Z" fill="#FFC639"/>
<path d="M11.0168 11.2179C11.1709 11.4297 11.4021 11.7803 11.587 11.6879C11.7295 11.6879 11.8066 11.6994 11.8258 11.7957C12.0671 11.8196 12.3105 11.7815 12.5329 11.6851C12.7554 11.5887 12.9496 11.4372 13.0971 11.2448C13.0971 11.2448 13.1279 11.2448 13.1164 11.0715C13.1164 10.9944 13.2243 11.0098 13.2243 11.0329C13.2397 11.0715 13.2397 11.0984 13.2589 11.1023C13.2975 11.0869 13.3629 10.9867 13.413 10.9251C13.4246 10.8981 13.4169 10.8673 13.4207 10.8326C13.4477 10.7671 13.5132 10.7825 13.5286 10.8172L13.5517 10.8788C13.6211 10.9251 13.7443 10.8788 13.752 10.8788C13.7636 10.8249 13.7983 10.8326 13.7983 10.8326C13.8445 10.8211 13.8252 10.8249 13.8561 10.8403C13.8291 11.137 13.9138 11.1485 13.9061 11.3026C13.91 11.4721 13.8561 11.5184 13.8561 11.5838C13.8715 11.6609 14.1257 11.6647 14.0333 11.7341C13.9562 11.7726 14.0333 11.8497 13.9177 11.8805C13.5787 12.0538 13.517 12.2002 13.517 12.2002C13.517 12.2002 13.4323 12.362 13.4207 12.362C13.3629 12.4699 13.2936 12.4083 13.2512 12.4622C13.232 12.5277 13.2127 12.6741 13.2512 12.7473C13.2705 12.8513 13.2512 12.9091 13.2243 13.0131C13.2011 13.2288 13.1164 13.2635 13.1048 13.3367C13.0663 13.4215 13.1125 13.799 13.074 13.799C12.8236 13.8067 12.631 13.7528 12.5308 13.7335C12.6271 13.3136 12.5886 12.9476 12.5886 12.9091C12.5655 12.6086 12.1417 12.6818 12.0762 12.6394C12.0223 12.6317 11.9876 12.5893 11.9722 12.5701C11.9106 12.5624 11.8875 12.547 11.8297 12.5431C11.7989 12.5585 11.8181 12.5739 11.7526 12.5932C11.5793 12.6124 11.5061 12.4468 11.5061 12.4468C11.5138 12.389 11.1247 12.4583 10.9166 12.4083C10.828 12.4583 10.7895 12.6009 10.7202 12.6163C10.7202 12.6587 10.6046 12.5778 10.5815 12.5393C10.5738 12.4083 10.6894 12.3543 10.6894 12.3543C10.7818 12.2888 10.8357 12.2773 10.882 12.2349C10.9012 12.1232 10.8897 12.0423 10.9398 11.9614C10.9783 11.8959 11.0361 11.9229 11.0746 11.8997C11.117 11.8689 11.1362 11.684 11.0977 11.6301L10.9166 11.4683C10.8627 11.3103 10.9821 11.2063 11.0168 11.2179Z" fill="#1C8A42"/>
<path d="M21.6956 8.46071C21.5954 8.06391 20.6939 7.20096 20.0121 6.65392C19.8503 6.54605 19.7424 6.61154 19.7655 6.76949C19.8503 6.90818 19.9119 7.06228 19.9967 7.20482C20.0198 7.30113 20.066 7.36662 20.0891 7.45908C20.0891 7.45908 20.0968 7.62088 20.1122 7.63629C20.3203 7.86744 20.3511 8.06391 20.3511 8.06391C20.4573 8.29174 20.6079 8.49606 20.7941 8.66489C21.033 8.81514 20.8557 9.28128 20.8634 9.53169C20.8634 9.68579 20.7517 9.67038 20.6516 9.64726C19.8772 8.93456 19.1067 8.93456 18.4249 8.72653C18.1629 8.69956 18.1552 8.82669 18.2438 8.89604C18.6684 9.36897 19.1797 9.75607 19.7501 10.0364L20.0467 10.2213L20.3857 10.5025C20.6477 10.672 20.667 10.8261 20.667 10.8415C20.6747 11.1574 20.5052 11.404 20.4551 11.5041C20.3665 11.8393 20.1854 11.8971 20.1854 11.8971C18.7369 12.8756 17.9741 13.1299 15.6241 12.8255C15.5856 12.8101 15.3622 12.8448 15.6241 12.9411C16.2213 13.1414 17.6929 13.4612 19.1144 12.787C19.4612 12.5482 19.6846 12.6252 19.935 12.4788C20.287 12.2608 20.651 12.0627 21.0253 11.8855C21.345 11.7122 22.2311 11.5234 22.4352 11.3539C22.6702 11.3346 22.9129 11.3038 22.9284 11.1035C23.0054 11.0534 23.121 11.0919 23.2057 10.9263C23.3907 10.8916 23.3598 10.8261 23.3598 10.8261C23.3136 10.6951 23.1364 10.6412 23.0131 10.5449C22.8282 10.4832 22.7049 10.4678 22.5701 10.5295L22.443 10.5873C22.443 10.5873 22.2465 10.5603 22.2465 10.5449C21.8073 10.5218 21.8497 9.0694 21.6956 8.46456V8.46071Z" fill="#FFC639"/>
<path d="M22.7241 10.8417C22.7211 10.8504 22.7153 10.8581 22.7072 10.8645C22.6991 10.8709 22.6889 10.8758 22.6771 10.8789C22.6652 10.882 22.652 10.8832 22.6382 10.8826C22.6244 10.8819 22.6103 10.8794 22.5966 10.8751C22.583 10.8708 22.57 10.8648 22.5586 10.8575C22.5472 10.8502 22.5374 10.8417 22.53 10.8326C22.5225 10.8234 22.5174 10.8137 22.515 10.804C22.5127 10.7943 22.513 10.7849 22.5161 10.7762C22.5224 10.7586 22.5393 10.7453 22.5632 10.739C22.5871 10.7327 22.6161 10.7341 22.6436 10.7428C22.6712 10.7515 22.6952 10.7668 22.7103 10.7853C22.7254 10.8038 22.7304 10.8241 22.7241 10.8417Z" fill="#1C8A42"/>
<path d="M4.68913 10.7653L4.37353 10.4694L4.05548 10.7604L4.08999 10.3314L3.66345 10.2623L4.02096 10.0207L3.80892 9.64594L4.22067 9.77662L4.38093 9.3772L4.53626 9.77908L4.94801 9.65581L4.73104 10.0256L5.08608 10.2722L4.65954 10.3338L4.68913 10.7628V10.7653Z" fill="white"/>
<path d="M5.80368 14.3281L5.46343 14.1038L5.13305 14.3404L5.25139 13.9583L4.91608 13.7241L5.32536 13.7142L5.44864 13.332L5.58671 13.7093L5.99846 13.7068L5.67054 13.946L5.80121 14.3257L5.80368 14.3281Z" fill="white"/>
<path d="M4.75077 17.3998L4.43518 17.104L4.11712 17.3949L4.15164 16.9659L3.7251 16.8969L4.0826 16.6552L3.87057 16.2805L4.28231 16.4111L4.44258 16.0117L4.59791 16.4136L5.00966 16.2903L4.79269 16.6602L5.14773 16.9067L4.72118 16.9684L4.75077 17.3974V17.3998Z" fill="white"/>
<path d="M1.92527 13.8027L1.60968 13.5068L1.29162 13.7977L1.32614 13.3687L0.899597 13.2997L1.2571 13.0581L1.04507 12.6833L1.45681 12.814L1.61708 12.4146L1.77241 12.8164L2.18415 12.6932L1.96719 13.063L2.32223 13.3095L1.89568 13.3712L1.92527 13.8002V13.8027Z" fill="white"/>
<path d="M7.36179 12.861L7.0462 12.5651L6.72814 12.8561L6.76266 12.4271L6.33612 12.358L6.69363 12.1164L6.48159 11.7416L6.89334 11.8723L7.0536 11.4729L7.20893 11.8748L7.62068 11.7515L7.40371 12.1213L7.75875 12.3679L7.33221 12.4295L7.36179 12.8585V12.861Z" fill="white"/>
</g>
<defs>
<clipPath id="clip0_3053_1915">
<rect x="-0.000488281" width="24" height="24" rx="12" fill="white"/>
</clipPath>
</defs>
</svg>
