<svg width="24" height="24" viewBox="0 0 24 24" fill="none" xmlns="http://www.w3.org/2000/svg">
<g clip-path="url(#clip0_2214_3732)">
<path d="M1.6377 6.26086L12.1786 7.30434L22.7195 6.26086C20.6843 2.53073 16.7271 0 12.1786 0C7.6301 0 3.67296 2.53073 1.6377 6.26086Z" fill="#D80027"/>
<path d="M1.63779 17.7392L12.1787 18.7827L22.7196 17.7392C23.6498 16.0343 24.1787 14.0789 24.1787 12L12.1787 10.9565L0.178711 12C0.178711 14.0789 0.707602 16.0343 1.63779 17.7392Z" fill="#FFDA44"/>
<path d="M1.63779 6.26074C0.707602 7.96563 0.178711 9.92098 0.178711 11.9999H24.1787C24.1787 9.92098 23.6498 7.96563 22.7196 6.26074H12.1787H1.63779Z" fill="#151F6D"/>
<path d="M12.1786 24.0001C16.7271 24.0001 20.6843 21.4694 22.7195 17.7393H1.6377C3.67296 21.4694 7.6301 24.0001 12.1786 24.0001Z" fill="#6DA544"/>
</g>
<defs>
<clipPath id="clip0_2214_3732">
<rect width="24" height="24" fill="white"/>
</clipPath>
</defs>
</svg>
