<svg width="24" height="24" viewBox="0 0 24 24" fill="none" xmlns="http://www.w3.org/2000/svg">
<g clip-path="url(#clip0_2214_4392)">
<path d="M12.0001 24C18.6275 24 24.0001 18.6274 24.0001 12C24.0001 5.37258 18.6275 0 12.0001 0C5.37264 0 6.10352e-05 5.37258 6.10352e-05 12C6.10352e-05 18.6274 5.37264 24 12.0001 24Z" fill="white"/>
<path d="M12.0001 23.9999C17.1597 23.9999 21.5582 20.7434 23.2537 16.1738H0.74649C2.44201 20.7434 6.84052 23.9999 12.0001 23.9999Z" fill="black"/>
<path d="M12.0001 0C6.84052 0 2.44201 3.2565 0.74649 7.82611H23.2538C21.5582 3.2565 17.1597 0 12.0001 0Z" fill="#D80027"/>
</g>
<defs>
<clipPath id="clip0_2214_4392">
<rect width="24" height="24" fill="white"/>
</clipPath>
</defs>
</svg>
