<svg width="24" height="24" viewBox="0 0 24 24" fill="none" xmlns="http://www.w3.org/2000/svg">
<g clip-path="url(#clip0_2214_3192)">
<path d="M11.9995 0C10.5316 0 9.12554 0.264047 7.8256 0.746391L7.30383 12L7.82555 23.2536C9.12554 23.736 10.5316 24 11.9995 24C13.4673 24 14.8734 23.736 16.1734 23.2536L16.6951 12L16.1734 0.746391C14.8734 0.264047 13.4673 0 11.9995 0V0Z" fill="#FFDA44"/>
<path d="M23.9995 11.9999C23.9995 6.84037 20.743 2.44185 16.1734 0.746338V23.2536C20.743 21.558 23.9995 17.1595 23.9995 11.9999Z" fill="#D80027"/>
<path d="M7.82562 23.2536V0.746338C3.25601 2.44185 -0.000488281 6.84037 -0.000488281 11.9999C-0.000488281 17.1595 3.25601 21.558 7.82562 23.2536Z" fill="#0052B4"/>
</g>
<defs>
<clipPath id="clip0_2214_3192">
<rect width="24" height="24" fill="white" transform="translate(-0.000488281)"/>
</clipPath>
</defs>
</svg>
