<svg width="24" height="24" viewBox="0 0 24 24" fill="none" xmlns="http://www.w3.org/2000/svg">
<g clip-path="url(#clip0_2214_3727)">
<g clip-path="url(#clip1_2214_3727)">
<path d="M-4 0H28V24H-4V0Z" fill="#CD2A3E"/>
<path d="M-4 3.6001H28V20.4001H-4V3.6001Z" fill="#006233"/>
<path d="M19.5 7.72998C19.5 9.7191 18.7098 11.6268 17.3033 13.0333C15.8968 14.4398 13.9891 15.23 12 15.23C10.0109 15.23 8.10323 14.4398 6.6967 13.0333C5.29018 11.6268 4.5 9.7191 4.5 7.72998C4.33339 8.36997 4.24937 9.02866 4.25 9.68998C4.25 11.7454 5.06652 13.7167 6.51993 15.1701C7.97333 16.6235 9.94458 17.44 12 17.44C14.0554 17.44 16.0267 16.6235 17.4801 15.1701C18.9335 13.7167 19.75 11.7454 19.75 9.68998C19.7512 9.02862 19.6672 8.36987 19.5 7.72998Z" fill="#FFC400"/>
<path d="M12 4.68994L11.325 6.76494H9.15002L10.915 8.04494L10.24 10.1149L12.005 8.83494L13.77 10.1149L13.095 8.04494L14.86 6.76494H12.68L12 4.68994Z" fill="#FFC400"/>
</g>
</g>
<defs>
<clipPath id="clip0_2214_3727">
<path d="M0 12C0 5.37258 5.37258 0 12 0C18.6274 0 24 5.37258 24 12C24 18.6274 18.6274 24 12 24C5.37258 24 0 18.6274 0 12Z" fill="white"/>
</clipPath>
<clipPath id="clip1_2214_3727">
<rect width="32" height="24" fill="white" transform="translate(-4)"/>
</clipPath>
</defs>
</svg>
