<svg width="24" height="24" viewBox="0 0 24 24" fill="none" xmlns="http://www.w3.org/2000/svg">
<g clip-path="url(#clip0_3053_1899)">
<g clip-path="url(#clip1_3053_1899)">
<path d="M-3.9 0H28.1V24H-3.9V0Z" fill="#000066"/>
<path d="M-3.9 0H12.1V12H-3.9V0Z" fill="#012169"/>
<path d="M-2.025 0L4.075 4.525L10.15 0H12.1V1.55L6.1 6.025L12.1 10.475V12H10.1L4.1 7.525L-1.875 12H-3.9V10.5L2.075 6.05L-3.9 1.6V0H-2.025Z" fill="white"/>
<path d="M6.7 7.025L12.1 11V12L5.325 7.025H6.7ZM2.1 7.525L2.25 8.4L-2.55 12H-3.9L2.1 7.525ZM12.1 0V0.075L5.875 4.775L5.925 3.675L10.85 0H12.1ZM-3.9 0L2.075 4.4H0.574998L-3.9 1.05V0Z" fill="#C8102E"/>
<path d="M2.125 0V12H6.125V0H2.125ZM-3.9 4V8H12.1V4H-3.9Z" fill="white"/>
<path d="M-3.9 4.825V7.225H12.1V4.825H-3.9ZM2.925 0V12H5.325V0H2.925Z" fill="#C8102E"/>
<path d="M20.4698 9.54264V12.6585C20.4698 15.3607 19.1921 16.2881 17.4807 17.0221C15.7693 16.2881 14.4782 15.3607 14.4782 12.6585V9.53931H20.4698V9.54264Z" fill="white" stroke="white" stroke-width="0.31369" stroke-linejoin="round"/>
<path d="M12.6197 16.7687C12.7165 17.0223 13.4037 17.3592 14.2044 16.9289C14.7481 16.6219 15.0984 16.1949 15.4354 15.4276C15.5288 15.2341 15.5788 14.9939 15.3553 14.8505C15.1785 14.7204 14.8883 14.5769 14.7615 14.4502C14.6981 14.3834 14.6347 14.3367 14.588 14.29C14.6214 14.3234 14.6514 14.3534 14.6814 14.4001C15.0017 14.7838 14.6681 15.3442 14.3145 15.6812C14.0576 15.9214 13.5972 16.5119 12.9233 15.9514C12.7799 15.8246 12.4429 16.3517 12.6231 16.7687H12.6197ZM22.341 16.7687C22.2276 17.0223 21.5403 17.3592 20.7564 16.9289C20.2159 16.6219 19.8623 16.1949 19.512 15.4276C19.432 15.2341 19.3819 14.9939 19.6054 14.8505C19.7822 14.7204 20.0725 14.5769 20.1992 14.4502C20.2626 14.3834 20.3093 14.3367 20.3727 14.29C20.3394 14.3234 20.3093 14.3534 20.2793 14.4001C19.9591 14.7838 20.2927 15.3442 20.6296 15.6812C20.8865 15.9214 21.3635 16.5119 22.0374 15.9514C22.1809 15.8246 22.5011 16.3517 22.3377 16.7687H22.341Z" fill="#FCEA83" stroke="white" stroke-width="0.31369" stroke-linejoin="round"/>
<path d="M17.4805 18.1433C18.7582 18.1433 20.7265 17.5662 21.784 15.5512C21.9575 15.2176 21.784 15.0408 21.5739 14.9307C21.3363 14.811 21.1199 14.6532 20.9333 14.4636C21.1902 14.7205 21.1402 14.8973 20.9667 15.1842C20.1494 16.5453 19.0318 17.2325 17.4805 17.2325C15.9293 17.2325 14.8117 16.5453 13.9943 15.1842C13.8209 14.8973 13.7708 14.7205 14.011 14.467C13.8272 14.6589 13.6102 14.816 13.3705 14.9307C13.1637 15.0408 12.9869 15.2176 13.1637 15.5512C14.2179 17.5662 16.1995 18.1433 17.4805 18.1433Z" fill="#FCEA83" stroke="white" stroke-width="0.31369" stroke-linejoin="round"/>
<path d="M14.5214 15.4404C14.488 15.2802 14.2845 15.3436 14.2211 15.5371C14.1348 15.4265 14.0589 15.3081 13.9943 15.1835C13.8041 14.8966 13.7708 14.7031 14.0443 14.4329C14.1711 14.3061 14.428 14.1593 14.6014 14.3195C14.9684 14.623 14.7783 15.1201 14.5214 15.4404ZM20.4229 15.4404C20.4562 15.2802 20.6797 15.3436 20.7431 15.5371C20.8232 15.4237 20.9032 15.3136 20.9666 15.1835C21.1568 14.8966 21.1901 14.7031 20.8999 14.4329C20.7898 14.3061 20.5329 14.1593 20.3428 14.3195C19.9892 14.623 20.166 15.1201 20.4229 15.4404ZM12.6198 16.7681C12.4597 16.5279 12.3329 15.9007 12.2996 15.7439C12.2529 15.6005 12.2362 15.4704 12.413 15.4103C12.5898 15.3436 12.7466 15.5671 12.8267 15.7606C12.9067 15.9508 13.0368 16.2377 13.1803 16.5913C12.8267 16.3845 12.5398 16.5246 12.6198 16.7681ZM22.3411 16.7681C22.4845 16.5279 22.6113 15.9007 22.6613 15.7439C22.6947 15.6005 22.7247 15.4704 22.5479 15.4103C22.3711 15.3436 22.2143 15.5671 22.1342 15.7606C22.0542 15.9508 21.9241 16.2377 21.7806 16.5913C22.1342 16.3845 22.4045 16.5246 22.3411 16.7681Z" fill="#C8102E" stroke="white" stroke-width="0.31369" stroke-linejoin="round"/>
<path d="M16.2497 9.52592C16.0429 9.57262 15.8994 9.5893 15.706 9.41249C15.5792 9.28572 15.6092 9.06221 15.7393 8.9788C15.8828 8.88539 16.0095 8.82201 16.1863 8.86871C16.3632 8.91875 16.8269 9.34911 16.7134 9.36579C16.6 9.36579 16.4265 9.47588 16.2497 9.52592ZM16.7435 8.75862C16.8102 8.70858 16.8903 8.67856 17.0971 8.65854C17.2906 8.6452 17.4307 8.6452 17.4807 8.79198C17.5475 8.96546 17.5942 9.17229 17.7209 9.26904C17.6409 9.31574 17.2405 9.36579 17.0971 9.28572C16.9069 9.18898 16.8569 8.81867 16.7468 8.75862H16.7435ZM18.1213 8.7753C18.1846 8.72526 18.2647 8.72526 18.4715 8.74194C18.6784 8.75862 18.7584 8.7753 18.8051 8.91875C18.8552 9.07889 18.8051 9.28572 18.9052 9.42917C18.8051 9.46253 18.4882 9.46253 18.3748 9.34911C18.2013 9.22234 18.2147 8.85203 18.1213 8.77197V8.7753Z" fill="white" stroke="white" stroke-width="0.31369" stroke-linejoin="round"/>
<path d="M19.0785 8.86853C18.9351 8.83517 18.8383 8.82183 18.7783 8.86853C18.855 8.96528 18.7916 9.34893 18.9518 9.4757C19.0619 9.55576 19.3521 9.57578 19.4155 9.39563C19.4955 9.2355 19.4955 8.9953 19.0819 8.86853H19.0785ZM17.4339 8.7084C17.4806 8.6617 17.5773 8.64502 17.7675 8.64502C17.9776 8.64502 18.1011 8.67838 18.1678 8.80515C18.2345 8.96528 18.2145 9.17212 18.3279 9.30222C18.2812 9.36561 17.8475 9.36561 17.7208 9.26886C17.5439 9.15544 17.5273 8.78847 17.4339 8.7084ZM16.0761 8.85185C16.0761 8.77179 16.1862 8.75845 16.4764 8.74176C16.76 8.7084 16.7767 8.72508 16.8734 8.93192C16.9201 9.04535 16.9835 9.2355 17.1136 9.29889C16.76 9.38229 16.6465 9.42899 16.4564 9.31557C16.3175 9.22871 16.2028 9.10823 16.1228 8.96528C16.1061 8.91858 16.1061 8.86853 16.0727 8.85185H16.0761Z" fill="#073163" stroke="white" stroke-width="0.31369" stroke-linejoin="round"/>
<path d="M16.1057 7.43168C15.9923 7.43168 15.8989 7.38497 15.8321 7.30491C15.722 7.15812 15.4185 7.09474 15.2884 7.22484C15.2416 7.2582 15.1783 7.2582 15.1316 7.27155C15.0515 7.27155 14.9547 7.35161 14.9848 7.51174C15.0515 7.4617 15.0648 7.51174 15.1149 7.51174C15.1482 7.49506 15.1316 7.52842 15.1316 7.55845C15.1316 7.63851 15.305 7.79864 15.4652 7.78196C15.642 7.78196 15.722 7.84869 15.7521 7.88205C15.8021 7.92541 15.7687 7.91207 15.8021 7.99214C15.8488 8.03884 15.8655 8.05552 15.7854 8.11891C15.749 8.14928 15.7197 8.18728 15.6996 8.23023C15.6795 8.27318 15.6691 8.32002 15.6691 8.36744C15.6691 8.41486 15.6795 8.46171 15.6996 8.50466C15.7197 8.5476 15.749 8.58561 15.7854 8.61598C15.9923 8.77277 16.5194 9.0163 17.1132 8.54926C17.687 8.10223 18.581 8.3591 18.6478 8.5159C18.7278 8.67936 18.7578 8.77277 18.7745 8.85284C18.7912 8.91956 18.8713 8.98294 18.9847 8.96626C19.0948 8.96626 19.2216 9.01297 19.2849 9.06301C19.3683 9.10971 19.4784 9.09637 19.4484 8.94958C19.3817 8.50255 19.1115 8.43917 19.0814 8.23233C19.2382 8.24568 19.3483 8.24568 19.415 8.18229C19.4618 8.11891 19.5251 8.00548 19.5919 7.97546C19.6386 7.9421 19.6386 7.90873 19.5752 7.92541C19.4951 7.9421 19.4484 7.97546 19.3016 7.95878C18.5677 7.87871 16.506 7.31825 16.1057 7.43168Z" fill="#059334" stroke="white" stroke-width="0.31369" stroke-linejoin="round"/>
<path d="M19.3685 7.9756C19.2465 8.06164 19.1423 8.17038 19.0615 8.29586C18.9047 8.5027 18.4244 8.70953 17.8305 8.70953C17.2567 8.70953 16.9065 8.61613 16.6496 8.40929C16.5399 8.3216 16.4214 8.24557 16.296 8.18244C16.1225 8.10237 16.0891 7.92556 16.1358 7.78211C16.0891 7.86218 16.0591 7.94224 15.9623 7.92556C15.8956 7.92556 15.7689 7.92556 15.8022 7.99228C15.7855 7.95892 15.7855 7.91222 15.7689 7.8922L15.7355 7.86218C15.7855 7.89554 15.899 7.79879 15.979 7.79879C16.0424 7.81547 16.1225 7.73541 16.1058 7.63866L16.0591 7.43183C16.1859 7.36511 17.8639 7.67202 18.2008 7.70205C18.5344 7.71873 19.4952 7.86218 19.3685 7.9756Z" fill="black" stroke="white" stroke-width="0.31369" stroke-linejoin="round"/>
<path d="M16.3293 7.36837C16.4894 7.20824 16.6796 7.12818 16.873 7.17488H16.9198C17.0198 7.09482 17.24 7.07814 17.3701 7.14152H17.4335C17.6237 7.07814 17.9906 7.14152 18.1207 7.27163L18.1674 7.30499C18.6011 7.27163 18.8547 7.46178 19.1582 7.7687C19.1916 7.80206 19.2383 7.86211 19.3184 7.87879C19.4151 7.89547 19.4318 7.94551 19.3517 7.99222C19.2235 8.07154 19.1105 8.17324 19.0181 8.29246C18.8713 8.48595 18.4076 8.67944 17.8305 8.67944C17.2734 8.67944 16.9364 8.57936 16.6796 8.38921C16.5361 8.27912 16.426 8.21573 16.346 8.16569C16.2492 8.13233 16.1224 8.00556 16.1691 7.87879C16.2025 7.75202 16.1224 7.59189 16.0591 7.43176C16.1058 7.3984 16.2325 7.35169 16.2959 7.38505L16.3293 7.36837Z" fill="#059334" stroke="white" stroke-width="0.31369" stroke-linejoin="round"/>
<path d="M19.1581 7.76968C18.8578 7.46276 18.601 7.27261 18.1673 7.30263C18.1673 7.31931 18.1673 7.36935 18.1506 7.40271C18.4529 7.53834 18.7208 7.74014 18.9346 7.99319C19.0013 7.92647 19.1114 7.84974 19.1581 7.76968ZM18.1206 7.2726C17.9905 7.14583 17.6235 7.07911 17.4334 7.14584C17.4334 7.20922 17.4334 7.30597 17.4 7.36935C17.5134 7.41606 17.6068 7.52948 17.7036 7.63957C17.7703 7.62289 17.9271 7.57619 18.0072 7.55951C18.0549 7.46812 18.093 7.37196 18.1206 7.2726ZM17.37 7.1425C17.2399 7.07911 17.0163 7.09579 16.9196 7.17586C16.8862 7.24258 16.8729 7.36935 16.8729 7.43274C16.9396 7.43274 17.033 7.47944 17.063 7.5128C17.1631 7.47944 17.2899 7.41606 17.3366 7.36935C17.3533 7.30263 17.3833 7.20922 17.37 7.14584V7.1425ZM16.3291 7.36935C16.4892 7.20922 16.6794 7.12915 16.8729 7.17586C16.8395 7.2259 16.8262 7.31931 16.8262 7.41606C16.6494 7.39937 16.4259 7.44942 16.3291 7.5128V7.36935Z" fill="#00493D" stroke="white" stroke-width="0.31369" stroke-linejoin="round"/>
<path d="M18.8715 8.02302C18.6705 7.78505 18.4201 7.59379 18.1376 7.46256C18.1376 7.47924 18.1042 7.54263 18.0875 7.59267C18.1843 7.73612 18.3744 8.05638 18.4545 8.23319C18.5346 8.19983 18.7581 8.10308 18.8715 8.02302ZM17.6572 8.37664C17.6848 8.1586 17.7004 7.9392 17.7039 7.71944C17.7839 7.70276 17.9441 7.65605 18.0075 7.63937C18.0875 7.76948 18.281 8.10642 18.3611 8.26322C18.1676 8.30992 17.8473 8.38999 17.6572 8.37664ZM17.0967 7.60935C17.1768 7.57599 17.2902 7.50927 17.3669 7.44922C17.4337 7.49592 17.5604 7.60935 17.6071 7.67273C17.6071 7.81618 17.5604 8.23319 17.5438 8.37331C17.417 8.37331 17.2101 8.34328 17.0967 8.2799C17.1134 8.0397 17.1301 7.76948 17.0967 7.60935ZM16.2961 7.7995C16.3127 7.76614 16.3294 7.65605 16.3294 7.60935C16.4562 7.52928 16.7765 7.44922 17.0167 7.57599C17.0333 7.73612 17.0167 8.13645 17 8.23319C16.786 8.05919 16.5506 7.91343 16.2994 7.7995H16.2961Z" fill="#00493D" stroke="white" stroke-width="0.31369" stroke-linejoin="round"/>
<path d="M15.4984 7.5082C15.4651 7.5082 15.4484 7.41479 15.385 7.41479C15.3683 7.41479 15.3216 7.43148 15.3049 7.41479C15.3049 7.44816 15.3216 7.48152 15.3383 7.49486C15.355 7.54157 15.435 7.51154 15.4984 7.51154V7.5082Z" fill="black"/>
<path d="M15.4985 7.78173C15.6886 7.78173 15.722 7.54153 15.8187 7.52819M15.6086 7.79841C15.752 7.86513 15.8654 7.52819 15.9755 7.54153M15.3217 7.38474C15.3684 7.38474 15.4017 7.31802 15.4818 7.39808C15.5152 7.43144 15.5619 7.44812 15.5952 7.44812M15.5619 7.6216C15.4951 7.72168 15.3851 7.78173 15.3217 7.75171M15.2883 7.22461C15.2416 7.25797 15.2116 7.31802 15.1782 7.36806M15.1315 7.46147V7.54153" stroke="white" stroke-width="0.31369" stroke-linejoin="round"/>
<path d="M16.8432 7.22444C16.5063 6.96756 16.1059 6.72737 15.739 6.68066C16.1219 6.93594 16.4854 7.21917 16.8265 7.52802" fill="black"/>
<path d="M16.8432 7.22444C16.5063 6.96756 16.1059 6.72737 15.739 6.68066C16.1219 6.93594 16.4854 7.21917 16.8265 7.52802" stroke="white" stroke-width="0.31369" stroke-linejoin="round"/>
<path d="M17.0335 6.98413C16.6332 6.71057 16.1695 6.40699 15.7224 6.37697C16.1408 6.6194 16.5134 6.93329 16.8233 7.30439M17.5439 6.5371C17.7245 6.12657 17.992 5.76009 18.3279 5.46289C18.1678 5.79983 17.9943 6.48706 17.9109 6.76062" fill="black"/>
<path d="M17.0335 6.98413C16.6332 6.71057 16.1695 6.40699 15.7224 6.37697C16.1408 6.6194 16.5134 6.93329 16.8233 7.30439M17.5439 6.5371C17.7245 6.12657 17.992 5.76009 18.3279 5.46289C18.1678 5.79983 17.9943 6.48706 17.9109 6.76062" stroke="white" stroke-width="0.31369" stroke-linejoin="round"/>
<path d="M17.8974 6.45714C18.052 6.08123 18.3427 5.77745 18.7114 5.60645C18.4344 5.95205 18.2281 6.3488 18.1043 6.77406" fill="black"/>
<path d="M17.8974 6.45714C18.052 6.08123 18.3427 5.77745 18.7114 5.60645C18.4344 5.95205 18.2281 6.3488 18.1043 6.77406" stroke="white" stroke-width="0.31369" stroke-linejoin="round"/>
<path d="M18.0409 6.77392C18.3472 6.30506 18.7862 5.93806 19.3019 5.71973C18.9016 6.12005 18.3111 6.85398 18.1676 7.14422M18.2644 7.12754C18.5513 6.96741 19.1284 6.71053 19.5421 6.79394C19.2886 6.88735 18.5213 7.23763 18.1843 7.56123" fill="black"/>
<path d="M18.0409 6.77392C18.3472 6.30506 18.7862 5.93806 19.3019 5.71973C18.9016 6.12005 18.3111 6.85398 18.1676 7.14422M18.2644 7.12754C18.5513 6.96741 19.1284 6.71053 19.5421 6.79394C19.2886 6.88735 18.5213 7.23763 18.1843 7.56123" stroke="white" stroke-width="0.31369" stroke-linejoin="round"/>
<path d="M18.2011 7.01416C18.4713 6.72726 18.9683 6.29691 19.4954 6.1201C19.1118 6.48707 18.2945 7.32108 18.1844 7.44785M17.4338 6.84069C17.2403 6.24687 16.9534 5.68975 16.523 5.51294C16.8658 6.00301 17.1042 6.55826 17.2236 7.14427M17.0635 6.82401C16.7465 6.44036 16.3129 6.05672 15.8191 5.97665C16.3029 6.29325 16.6852 6.74267 16.92 7.27104" fill="black"/>
<path d="M18.2011 7.01416C18.4713 6.72726 18.9683 6.29691 19.4954 6.1201C19.1118 6.48707 18.2945 7.32108 18.1844 7.44785M17.4338 6.84069C17.2403 6.24687 16.9534 5.68975 16.523 5.51294C16.8658 6.00301 17.1042 6.55826 17.2236 7.14427M17.0635 6.82401C16.7465 6.44036 16.3129 6.05672 15.8191 5.97665C16.3029 6.29325 16.6852 6.74267 16.92 7.27104" stroke="white" stroke-width="0.31369" stroke-linejoin="round"/>
<path d="M17.2436 6.8077C16.8433 6.08711 16.5363 5.96034 16.3629 5.81689C16.5063 6.08711 16.8566 6.8077 17.0634 7.11128" fill="black"/>
<path d="M17.2436 6.8077C16.8433 6.08711 16.5363 5.96034 16.3629 5.81689C16.5063 6.08711 16.8566 6.8077 17.0634 7.11128" stroke="white" stroke-width="0.31369" stroke-linejoin="round"/>
<path d="M16.4429 6.76074C16.6711 6.90423 16.8666 7.09403 17.0167 7.31786" stroke="white" stroke-width="0.31369" stroke-linejoin="round"/>
<path d="M16.4429 7.0944C16.5363 7.17447 16.7131 7.27121 16.8733 7.41466L16.4429 7.0944ZM18.3445 7.3346C18.5046 7.20783 18.8549 7.00099 19.0317 6.93427L18.3445 7.3346ZM18.231 7.22451C18.3912 7.01434 18.7114 6.72744 18.8248 6.63069L18.231 7.22451ZM18.6781 6.23036C18.4631 6.47128 18.2604 6.72292 18.0709 6.98431L18.6781 6.23036ZM18.2644 6.08691C18.113 6.31087 17.9791 6.54621 17.8641 6.79082L18.2644 6.08691ZM17 6.12027C17.0968 6.37715 17.2736 6.8075 17.3336 6.98431L17 6.12027ZM16.8566 6.3905C16.9233 6.49058 17.0501 6.71076 17.0968 6.87089L16.8566 6.3905Z" fill="black"/>
<path d="M16.4429 7.0944C16.5363 7.17447 16.7131 7.27121 16.8733 7.41466M18.3445 7.3346C18.5046 7.20783 18.8549 7.00099 19.0317 6.93427M18.231 7.22451C18.3912 7.01434 18.7114 6.72744 18.8248 6.63069M18.6781 6.23036C18.4631 6.47128 18.2604 6.72292 18.0709 6.98431M18.2644 6.08691C18.113 6.31087 17.9791 6.54621 17.8641 6.79082M17 6.12027C17.0968 6.37715 17.2736 6.8075 17.3336 6.98431M16.8566 6.3905C16.9233 6.49058 17.0501 6.71076 17.0968 6.87089" stroke="white" stroke-width="0.31369" stroke-linejoin="round"/>
<path d="M17.4001 6.31001C17.4001 6.16656 17.4969 6.00977 17.5936 6.00977C17.7037 6.00977 17.7838 6.19992 17.7838 6.31001C17.7838 6.44012 17.687 6.55021 17.5936 6.55021C17.4936 6.55021 17.4001 6.4568 17.4001 6.31001Z" fill="black" stroke="white" stroke-width="0.31369" stroke-linejoin="round"/>
<path d="M17.1932 6.4398C17.2099 6.27967 17.32 6.1529 17.4167 6.16625C17.5135 6.18293 17.5602 6.37642 17.5435 6.48651C17.5268 6.61328 17.4167 6.71002 17.3366 6.69334C17.2566 6.69334 17.1765 6.58325 17.1932 6.4398ZM17.6235 6.48651C17.5902 6.34306 17.6569 6.18626 17.7537 6.16625C17.8471 6.1529 17.9438 6.3097 17.9605 6.4398C17.9938 6.56657 17.9104 6.69334 17.8304 6.69334C17.7537 6.71002 17.6402 6.62996 17.6235 6.48651Z" fill="black" stroke="white" stroke-width="0.31369" stroke-linejoin="round"/>
<path d="M17.3836 6.61323C17.3836 6.45644 17.4804 6.31299 17.5771 6.31299C17.6872 6.31299 17.7673 6.48646 17.7673 6.61323C17.7673 6.74334 17.6739 6.85343 17.5771 6.85343C17.4804 6.85343 17.3836 6.76002 17.3836 6.61323Z" fill="black" stroke="white" stroke-width="0.31369" stroke-linejoin="round"/>
<path d="M17.0965 6.69346C17.0965 6.55001 17.2099 6.39322 17.3033 6.39322C17.4034 6.39322 17.4968 6.58337 17.4968 6.69346C17.4968 6.82357 17.3834 6.93366 17.3033 6.93366C17.2099 6.93366 17.0965 6.84025 17.0965 6.69346ZM17.687 6.63008C17.687 6.48663 17.7871 6.32983 17.8805 6.32983C17.9906 6.32983 18.0706 6.51999 18.0706 6.63008C18.0706 6.76018 17.9772 6.87027 17.8805 6.87027C17.7837 6.87027 17.687 6.77353 17.687 6.63008Z" fill="black" stroke="white" stroke-width="0.31369" stroke-linejoin="round"/>
<path d="M17.6235 6.76012C17.6235 6.59999 17.7369 6.45654 17.8303 6.45654C17.9304 6.45654 18.0238 6.63002 18.0238 6.75679C18.0238 6.88689 17.9271 7.00032 17.8303 7.00032C17.7369 7.00032 17.6235 6.90024 17.6235 6.76012Z" fill="black" stroke="white" stroke-width="0.31369" stroke-linejoin="round"/>
<path d="M17.3703 6.90376C17.3703 6.74363 17.4637 6.60018 17.5604 6.60018C17.6739 6.60018 17.7539 6.79033 17.7539 6.90042C17.7539 7.03386 17.6538 7.14395 17.5604 7.14395C17.4637 7.14395 17.3669 7.04387 17.3669 6.90376H17.3703ZM16.97 6.90376C16.97 6.74363 17.05 6.60018 17.1301 6.60018C17.2102 6.60018 17.2735 6.79033 17.2735 6.90042C17.2735 7.03386 17.1935 7.14395 17.1301 7.14395C17.05 7.14395 16.97 7.04387 16.97 6.90376ZM17.864 6.87373C17.864 6.72695 17.9441 6.5835 18.0241 6.5835C18.1042 6.5835 18.1843 6.76031 18.1843 6.8704C18.1843 7.01385 18.0875 7.11059 18.0241 7.11059C17.9441 7.11059 17.864 7.01385 17.864 6.8704V6.87373Z" fill="black" stroke="white" stroke-width="0.31369" stroke-linejoin="round"/>
<path d="M17.9604 7.14026C17.9938 6.98347 18.0872 6.85336 18.1506 6.87338C18.2173 6.88672 18.2306 7.07688 18.2006 7.1903C18.1839 7.33375 18.0872 7.41382 18.0238 7.39714C17.9571 7.38379 17.927 7.27037 17.9571 7.1436L17.9604 7.14026Z" fill="black" stroke="white" stroke-width="0.31369" stroke-linejoin="round"/>
<path d="M17.6569 7.09357C17.6736 6.95012 17.767 6.80667 17.8471 6.82335C17.9438 6.82335 17.9905 7.0135 17.9772 7.12359C17.9605 7.27038 17.8771 7.36712 17.8004 7.35044C17.7203 7.35044 17.6402 7.23702 17.6569 7.09357ZM17.2099 7.14027C17.1598 6.98348 17.0631 6.87339 16.9997 6.88673C16.9363 6.90341 16.9196 7.09357 16.953 7.20699C16.9864 7.33376 17.0798 7.41383 17.1432 7.39715C17.1932 7.3838 17.2432 7.27038 17.2099 7.14361V7.14027Z" fill="black" stroke="white" stroke-width="0.31369" stroke-linejoin="round"/>
<path d="M17.0965 7.11039C17.0965 6.96694 17.1766 6.82349 17.2566 6.82349C17.3534 6.82349 17.4168 7.0003 17.4168 7.11039C17.4168 7.25384 17.3367 7.35058 17.2566 7.35058C17.1899 7.35058 17.0965 7.25384 17.0965 7.11039Z" fill="black" stroke="white" stroke-width="0.31369" stroke-linejoin="round"/>
<path d="M17.3369 7.17371C17.3369 7.01358 17.4337 6.87346 17.5271 6.87346C17.6405 6.87346 17.7206 7.04694 17.7206 7.17371C17.7206 7.30381 17.6238 7.4139 17.5271 7.4139C17.4337 7.4139 17.3369 7.31716 17.3369 7.17371ZM17.417 5.41561C17.3836 5.54238 17.2735 5.6558 17.3503 5.83261C17.2102 5.78257 17.0834 5.76589 16.97 5.896C17.1134 5.87932 17.2402 5.92936 17.3036 6.02277C17.1768 6.00609 17.1134 6.07281 17.08 6.15287C17.1935 6.11951 17.3036 6.08615 17.3536 6.10283C17.3036 6.15287 17.2235 6.2296 17.2102 6.29632C17.3036 6.21626 17.417 6.2296 17.4804 6.1829C17.4337 6.29632 17.5271 6.40641 17.6071 6.5165C17.5938 6.35971 17.6872 6.24962 17.6405 6.16622C17.784 6.19958 17.8006 6.32635 18.0075 6.32635C17.9274 6.27964 17.8807 6.11951 17.784 6.11951C17.8307 6.10283 18.0241 6.08615 18.0575 6.11951C18.0241 6.05279 17.9107 5.99274 17.8473 5.99274C17.9141 5.92602 18.0241 5.79925 18.1042 5.76589C17.9908 5.78257 17.8173 5.79925 17.7539 5.896C17.9107 5.76589 17.8807 5.52903 18.0542 5.49567C17.9608 5.47899 17.8173 5.54238 17.7039 5.6558C17.7539 5.55906 17.7539 5.43229 17.8173 5.39893C17.6872 5.43229 17.5438 5.59242 17.4971 5.67248C17.4901 5.5819 17.4628 5.49407 17.417 5.41561Z" fill="black" stroke="white" stroke-width="0.31369" stroke-linejoin="round"/>
<path d="M17.4969 5.67244C17.4969 5.71915 17.4969 5.81589 17.4802 5.84592L17.4969 5.67244ZM17.7037 5.65576C17.6703 5.68912 17.607 5.79921 17.607 5.89596L17.7037 5.65576Z" fill="black"/>
<path d="M17.4969 5.67244C17.4969 5.71915 17.4969 5.81589 17.4802 5.84592M17.7037 5.65576C17.6703 5.68912 17.607 5.79921 17.607 5.89596" stroke="white" stroke-width="0.31369" stroke-linejoin="round"/>
<path d="M17.8007 5.84619C17.7457 5.87904 17.7052 5.93148 17.6873 5.99298" stroke="white" stroke-width="0.31369" stroke-linejoin="round"/>
<path d="M12.6197 16.7695C12.7165 17.023 13.4037 17.3599 14.2044 16.9296C14.7481 16.6227 15.0984 16.1957 15.4354 15.4284C15.5288 15.2349 15.5788 14.9947 15.3553 14.8512C15.1785 14.7211 14.8883 14.5777 14.7615 14.4509C14.6981 14.3842 14.6347 14.3375 14.588 14.2908C14.6214 14.3241 14.6514 14.3542 14.6814 14.4009C15.0017 14.7845 14.6681 15.345 14.3145 15.6819C14.0576 15.9221 13.5972 16.5126 12.9233 15.9521C12.7799 15.8254 12.4429 16.3525 12.6231 16.7695H12.6197ZM22.341 16.7695C22.2276 17.023 21.5403 17.3599 20.7564 16.9296C20.2159 16.6227 19.8623 16.1957 19.512 15.4284C19.432 15.2349 19.3819 14.9947 19.6054 14.8512C19.7822 14.7211 20.0725 14.5777 20.1992 14.4509C20.2626 14.3842 20.3093 14.3375 20.3727 14.2908C20.3394 14.3241 20.3093 14.3542 20.2793 14.4009C19.9591 14.7845 20.2927 15.345 20.6296 15.6819C20.8865 15.9221 21.3635 16.5126 22.0374 15.9521C22.1809 15.8254 22.5011 16.3525 22.3377 16.7695H22.341Z" fill="#FCEA83" stroke="black" stroke-width="0.0457464"/>
<path d="M17.4805 18.144C18.7582 18.144 20.7265 17.5669 21.784 15.5519C21.9575 15.2183 21.784 15.0415 21.5739 14.9314C21.3363 14.8117 21.1199 14.654 20.9333 14.4644C21.1902 14.7212 21.1402 14.898 20.9667 15.1849C20.1494 16.5461 19.0318 17.2333 17.4805 17.2333C15.9293 17.2333 14.8117 16.5461 13.9943 15.1849C13.8209 14.898 13.7708 14.7212 14.011 14.4677C13.8272 14.6596 13.6102 14.8168 13.3705 14.9314C13.1637 15.0415 12.9869 15.2183 13.1637 15.5519C14.2179 17.5669 16.1995 18.144 17.4805 18.144Z" fill="#FCEA83" stroke="black" stroke-width="0.0457464"/>
<path d="M14.5214 15.4416C14.488 15.2815 14.2845 15.3448 14.2211 15.5383C14.1348 15.4277 14.0589 15.3093 13.9943 15.1847C13.8041 14.8978 13.7708 14.7043 14.0443 14.4341C14.1711 14.3073 14.428 14.1605 14.6014 14.3207C14.9684 14.6243 14.7783 15.1213 14.5214 15.4416ZM20.4229 15.4416C20.4562 15.2815 20.6797 15.3448 20.7431 15.5383C20.8232 15.4249 20.9032 15.3148 20.9666 15.1847C21.1568 14.8978 21.1901 14.7043 20.8999 14.4341C20.7898 14.3073 20.5329 14.1605 20.3428 14.3207C19.9892 14.6243 20.166 15.1213 20.4229 15.4416ZM12.6198 16.7693C12.4597 16.5291 12.3329 15.902 12.2996 15.7452C12.2529 15.6017 12.2362 15.4716 12.413 15.4116C12.5898 15.3448 12.7466 15.5684 12.8267 15.7618C12.9067 15.952 13.0368 16.2389 13.1803 16.5925C12.8267 16.3857 12.5398 16.5258 12.6198 16.7693ZM22.3411 16.7693C22.4845 16.5291 22.6113 15.902 22.6613 15.7452C22.6947 15.6017 22.7247 15.4716 22.5479 15.4116C22.3711 15.3448 22.2143 15.5684 22.1342 15.7618C22.0542 15.952 21.9241 16.2389 21.7806 16.5925C22.1342 16.3857 22.4045 16.5258 22.3411 16.7693Z" fill="#C8102E" stroke="black" stroke-width="0.0457464"/>
<path d="M13.5472 15.3294L13.4204 15.3961C13.3871 15.4095 13.3871 15.4428 13.3871 15.4595H13.3704L13.307 15.316H13.3237C13.3237 15.3294 13.3404 15.3494 13.3704 15.3294L13.6439 15.1859C13.6773 15.1693 13.6773 15.1526 13.6606 15.1392L13.674 15.1226L13.754 15.2827H13.7407C13.724 15.266 13.7073 15.2493 13.674 15.266L13.5639 15.3327L13.6106 15.4261L13.7407 15.3794C13.7741 15.3628 13.754 15.3294 13.754 15.3127H13.7707L13.8374 15.4595C13.8208 15.4428 13.8041 15.4261 13.7707 15.4428L13.5005 15.5863C13.4671 15.6029 13.4671 15.6196 13.4838 15.633L13.4671 15.6497L13.3871 15.5062L13.4038 15.4895C13.4204 15.5062 13.4371 15.5229 13.4705 15.5062L13.5972 15.4395L13.5472 15.3294ZM13.8208 15.5396C13.8541 15.5229 13.8541 15.5062 13.8341 15.4728H13.8508L14.0109 15.713L13.9008 15.7931V15.7798C13.9642 15.7297 13.9642 15.6663 13.9475 15.6497C13.9308 15.633 13.9142 15.6163 13.9142 15.6029C13.9008 15.6029 13.9008 15.5863 13.8675 15.6196L13.754 15.6997C13.7707 15.713 13.7874 15.7631 13.8675 15.713H13.8841L13.7073 15.8431V15.8265C13.7874 15.7597 13.754 15.713 13.7407 15.6997L13.6273 15.7798C13.5939 15.7931 13.5939 15.8131 13.5939 15.8265C13.6106 15.8265 13.6106 15.8431 13.6273 15.8598C13.6439 15.8932 13.694 15.9232 13.7707 15.8932L13.7874 15.9065L13.6606 15.9532L13.5005 15.6997H13.5172C13.5305 15.713 13.5505 15.7331 13.5806 15.713L13.8208 15.5396ZM14.0743 16.1467L13.9642 16.2401C13.9475 16.2568 13.9475 16.2902 13.9642 16.3069H13.9475L13.8341 16.1934L13.8508 16.1768C13.8675 16.1934 13.8841 16.2101 13.9175 16.1768L14.1243 15.9699C14.1577 15.9532 14.1577 15.9366 14.1377 15.9032L14.2511 16.0366C14.2344 16.0166 14.2044 16.0166 14.1844 16.0366L14.091 16.13L14.171 16.2101L14.2678 16.13C14.3012 16.0967 14.2845 16.0833 14.2678 16.0633L14.2845 16.05L14.3946 16.1768H14.3779C14.3645 16.1768 14.3445 16.1634 14.3145 16.1934L14.1077 16.3869C14.0743 16.4203 14.0743 16.4336 14.091 16.4503V16.467L13.9809 16.3369C13.9942 16.3369 14.0276 16.3536 14.0443 16.3369L14.1544 16.2268L14.0743 16.1467ZM14.3145 16.4837L14.3645 16.5304L14.4279 16.3869C14.4279 16.3869 14.3779 16.4003 14.2978 16.4503L14.3145 16.4837L14.2978 16.497L14.2645 16.4637C14.2511 16.4803 14.2344 16.4803 14.2177 16.497C14.171 16.5304 14.1844 16.5471 14.2044 16.5637V16.5771L14.1243 16.497H14.1377L14.2044 16.4803L14.5213 16.3069L14.538 16.3202C14.538 16.3202 14.5213 16.3369 14.3779 16.6571C14.3779 16.6905 14.3645 16.7038 14.3779 16.7372L14.2511 16.6271L14.2678 16.6104C14.2845 16.6438 14.3145 16.6438 14.3312 16.6104C14.3312 16.5938 14.3479 16.5604 14.3479 16.5437L14.2978 16.497L14.3145 16.4803V16.4837ZM14.4413 16.8006L14.4579 16.7839C14.4746 16.8006 14.4913 16.8006 14.5247 16.7839L14.7315 16.5137L14.7148 16.497C14.6815 16.4803 14.6348 16.4803 14.5881 16.5304V16.5137L14.6514 16.4336L14.8916 16.6104L14.8116 16.7038H14.7949C14.8416 16.6571 14.8282 16.5938 14.7949 16.5771V16.5604L14.5881 16.834C14.5547 16.8506 14.5714 16.8807 14.5881 16.8973H14.5714L14.4413 16.8006Z" fill="#00493D"/>
<path d="M14.8585 16.8634L14.7784 16.9768C14.7617 17.0102 14.7784 17.0235 14.7951 17.0436L14.7784 17.0569L14.6516 16.9601V16.9435C14.685 16.9601 14.6983 16.9601 14.715 16.9301L14.8918 16.6899C14.9052 16.6566 14.8918 16.6399 14.8751 16.6232L14.8918 16.6099L15.0186 16.7033V16.72C14.9852 16.7033 14.9719 16.7033 14.9519 16.7366L14.8751 16.8501L14.9719 16.9134L15.0519 16.8C15.0653 16.7667 15.0519 16.7533 15.0353 16.7366L15.0519 16.72L15.1787 16.8167V16.8334C15.162 16.8167 15.132 16.8167 15.112 16.8501L14.9552 17.1036C14.9218 17.1203 14.9385 17.137 14.9552 17.1536V17.167L14.8117 17.0736H14.8284C14.8418 17.0736 14.8618 17.0736 14.8751 17.0569L14.9552 16.9301L14.8585 16.8634ZM15.1787 17.3138L15.1954 17.2971C15.2121 17.3138 15.2421 17.3138 15.2588 17.2804L15.3856 17.0102C15.4022 16.9768 15.3856 16.9601 15.3689 16.9435L15.6424 17.0736L15.5757 17.2003L15.5624 17.1837C15.6091 17.1203 15.5624 17.0569 15.5457 17.0402C15.529 17.0402 15.5123 17.0235 15.499 17.0235C15.4823 17.0235 15.4823 17.0235 15.4656 17.0569C15.4489 17.0736 15.4022 17.167 15.4022 17.167C15.4189 17.1837 15.4489 17.217 15.5157 17.1336H15.529L15.4356 17.3271L15.4189 17.3138C15.4656 17.2137 15.4022 17.2003 15.3856 17.2003L15.3222 17.3271C15.3055 17.3605 15.3222 17.3772 15.3388 17.3772V17.3938L15.1787 17.3138ZM15.6424 17.5373C15.5957 17.5039 15.5957 17.4072 15.6424 17.3138C15.6758 17.2137 15.7392 17.137 15.8026 17.167C15.8493 17.1837 15.8359 17.2804 15.8026 17.3772C15.7525 17.4872 15.6891 17.5506 15.6424 17.5373H15.6257C15.7392 17.584 15.8192 17.5206 15.8659 17.4072C15.9126 17.3138 15.8993 17.2003 15.7992 17.1536C15.7058 17.1036 15.6091 17.167 15.5624 17.2804C15.5157 17.3938 15.529 17.5039 15.6291 17.5373H15.6424ZM16.1362 17.5673L16.2029 17.3772C16.2162 17.3438 16.2029 17.3271 16.1862 17.3104L16.2663 17.3271V17.3438C16.2496 17.3438 16.2329 17.3438 16.2162 17.3772L16.1528 17.5673C16.1195 17.6474 16.0728 17.7108 15.9794 17.6807C15.9126 17.6641 15.8659 17.584 15.8993 17.5039L15.9794 17.2971C15.9927 17.2637 15.9794 17.247 15.9627 17.2304V17.217L16.1061 17.2804V17.2971C16.0895 17.2804 16.0594 17.2804 16.0594 17.3138L15.976 17.5173C15.9594 17.5807 15.9594 17.644 16.0094 17.6607C16.0561 17.6774 16.1028 17.644 16.1328 17.564L16.1362 17.5673ZM16.2829 17.3605C16.2829 17.3438 16.2829 17.3438 16.2663 17.3438L16.3764 17.3605L16.4764 17.6641L16.5231 17.4706C16.5365 17.4372 16.5231 17.4239 16.5065 17.4072L16.5999 17.4239L16.5865 17.4405C16.5698 17.4405 16.5532 17.4405 16.5365 17.4739L16.4564 17.8242H16.4431L16.313 17.4405L16.2329 17.6974C16.2329 17.7441 16.2496 17.7441 16.2663 17.7608V17.7775L16.1695 17.7441V17.7274C16.1862 17.7441 16.2162 17.7274 16.2162 17.6941L16.2963 17.4072L16.2829 17.3605ZM16.8267 17.6807C16.7934 17.8242 16.7266 17.8575 16.6966 17.8575H16.6633C16.6633 17.8575 16.6499 17.8409 16.6633 17.8242L16.7133 17.5039C16.73 17.4872 16.73 17.4706 16.7467 17.4872H16.78C16.81 17.4872 16.8401 17.554 16.8267 17.6807L16.8734 17.6974C16.9068 17.5373 16.8401 17.4706 16.76 17.4572C16.6966 17.4405 16.5999 17.4239 16.5999 17.4239V17.4405C16.6166 17.4572 16.6499 17.4572 16.6332 17.5073L16.5865 17.7908C16.5698 17.8242 16.5532 17.8409 16.5365 17.8409H16.5231L16.6799 17.8742C16.76 17.8876 16.8401 17.8742 16.8734 17.6974L16.8267 17.6807ZM16.9702 17.5506C16.9702 17.5173 16.9368 17.5039 16.9201 17.5039V17.4872L17.2104 17.5206L17.1937 17.6474C17.1937 17.5673 17.1437 17.5373 17.1136 17.5373C17.0969 17.5206 17.0803 17.5206 17.0636 17.5206C17.0502 17.5206 17.0502 17.5206 17.0502 17.5673L17.0336 17.6974C17.0502 17.6974 17.0969 17.7108 17.1303 17.6174L17.1136 17.8242H17.0969C17.0969 17.7274 17.0502 17.7274 17.0302 17.7274L17.0169 17.8709C17.0169 17.9043 17.0169 17.9043 17.0336 17.9043L17.0669 17.9209C17.1136 17.9209 17.1603 17.9043 17.1937 17.8075H17.2104L17.177 17.9343L16.8734 17.9009C16.9068 17.9009 16.9201 17.8876 16.9402 17.8575L16.9702 17.5506ZM17.4973 17.7441C17.4973 17.8876 17.4472 17.9343 17.4005 17.9343C17.3838 17.9209 17.3838 17.9209 17.3672 17.9209L17.3538 17.9043L17.3705 17.5706C17.3705 17.5506 17.3705 17.5506 17.3838 17.5506H17.4172C17.4506 17.5506 17.4973 17.6007 17.4973 17.7441H17.5607C17.5607 17.584 17.4806 17.5373 17.4005 17.5373C17.3338 17.5206 17.2404 17.5206 17.2404 17.5206V17.5373C17.2571 17.5373 17.2904 17.5506 17.2904 17.584L17.2738 17.8876C17.2738 17.9209 17.2571 17.9343 17.2404 17.9343V17.951H17.3838C17.4639 17.951 17.544 17.9176 17.5607 17.7441H17.4939H17.4973ZM17.961 17.8709C17.961 17.9043 17.9777 17.9043 18.0077 17.9043V17.9209L17.8309 17.9343C17.8476 17.9209 17.8809 17.9009 17.8809 17.8709L17.8476 17.5706C17.8309 17.5373 17.8142 17.5373 17.7842 17.5373V17.5206L17.961 17.5039C17.9443 17.5206 17.9109 17.5373 17.9276 17.5706L17.961 17.8709ZM18.1211 17.9043V17.8876C18.1378 17.8876 18.1545 17.8709 18.1545 17.8409L18.0878 17.5073H18.0711C18.0377 17.5206 18.0077 17.5506 18.0244 17.6174H18.0077L17.991 17.5039L18.2812 17.4572L18.2946 17.5673H18.2812C18.2812 17.5039 18.2312 17.4872 18.1812 17.4872H18.1678L18.2345 17.8209C18.2345 17.8542 18.2479 17.8709 18.2812 17.8709V17.8876L18.1211 17.9043ZM18.8083 17.584L18.7416 17.3938C18.7416 17.3605 18.7116 17.3605 18.6949 17.3605V17.3438L18.775 17.3104V17.3271C18.7583 17.3438 18.7583 17.3438 18.7583 17.3772L18.825 17.584C18.8384 17.6507 18.8384 17.7441 18.745 17.7775C18.6782 17.7908 18.6015 17.7608 18.5848 17.6641L18.5181 17.4572C18.5048 17.4239 18.4881 17.4239 18.4714 17.4239L18.4547 17.4072L18.6148 17.3605V17.3772C18.6015 17.3938 18.5815 17.4105 18.6015 17.4405L18.6482 17.6474C18.6649 17.7141 18.7149 17.7441 18.7583 17.7441C18.8083 17.7274 18.825 17.6641 18.8083 17.584ZM18.9852 17.4706C19.0619 17.4372 19.0485 17.3938 19.0319 17.3438C19.0152 17.2971 18.9852 17.2637 18.9518 17.2804C18.9351 17.2804 18.9184 17.2971 18.9351 17.3138L18.9852 17.4706L18.9985 17.4872L19.0319 17.6174C19.0485 17.6507 19.0786 17.6507 19.0986 17.6307V17.6474L18.9518 17.7141L18.9351 17.6974C18.9685 17.6807 18.9685 17.6641 18.9685 17.6307L18.855 17.3605C18.8384 17.3138 18.8217 17.3271 18.7917 17.3271V17.3138L18.9518 17.247C19.0185 17.2337 19.0786 17.247 19.1119 17.3138C19.1286 17.3938 19.0952 17.4405 19.0319 17.4739C19.0152 17.4739 18.9985 17.4872 18.9985 17.4872L18.9852 17.4706Z" fill="#00493D"/>
<path d="M19.382 17.5178C19.3353 17.5378 19.2719 17.4711 19.2219 17.361C19.1752 17.2642 19.1752 17.1675 19.2219 17.1541C19.2719 17.1375 19.3353 17.2008 19.382 17.2976C19.4321 17.3943 19.4321 17.4877 19.382 17.5211C19.4821 17.4877 19.5121 17.3776 19.4621 17.2642C19.4154 17.1675 19.3186 17.1041 19.2219 17.1375C19.1994 17.1487 19.1795 17.1644 19.1632 17.1835C19.147 17.2027 19.1347 17.2249 19.1273 17.2489C19.1198 17.2729 19.1172 17.2981 19.1197 17.3231C19.1222 17.3481 19.1298 17.3723 19.1418 17.3943C19.1919 17.5044 19.2886 17.5678 19.382 17.5211V17.5178ZM19.3987 17.0741H19.3687L19.4621 17.0073L19.7523 17.1675L19.6523 16.994C19.6389 16.9606 19.6056 16.9606 19.5922 16.9606V16.944L19.6723 16.9106C19.6556 16.9306 19.6389 16.944 19.6723 16.9773L19.8324 17.2976L19.8157 17.3143L19.4621 17.1208L19.5922 17.361C19.6056 17.3943 19.6389 17.3943 19.6556 17.3776V17.3943L19.5755 17.441V17.4244C19.5922 17.4077 19.5922 17.391 19.5755 17.361L19.4488 17.1041L19.3987 17.0707V17.0741ZM20.1193 17.1208V17.1041C20.1193 17.0874 20.136 17.0707 20.1193 17.0407L19.9258 16.7705H19.9091C19.8758 16.7838 19.8624 16.8506 19.9091 16.8973L19.8958 16.9139L19.8291 16.8005L20.0693 16.6404L20.136 16.7405C20.0859 16.6904 20.0359 16.6904 20.0059 16.7071L19.9892 16.7204L20.1827 16.994C20.1994 17.0274 20.2294 17.0274 20.2494 17.0107V17.024L20.1193 17.1208Z" fill="#00493D"/>
<path d="M20.2962 16.737L20.3896 16.8505C20.4063 16.8638 20.4396 16.8638 20.4563 16.8505V16.8638L20.3262 16.9772V16.9606C20.3429 16.9439 20.3429 16.9272 20.3262 16.8972L20.136 16.657C20.1194 16.6236 20.1027 16.6403 20.0693 16.6403L20.1994 16.5302V16.5469C20.1994 16.5602 20.1827 16.5802 20.1994 16.6103L20.2795 16.7037L20.3729 16.6403L20.2962 16.5302C20.2795 16.4968 20.2461 16.5135 20.2294 16.5135L20.3596 16.4001V16.4168C20.3429 16.4335 20.3429 16.4501 20.3596 16.4835L20.5497 16.7204C20.5664 16.737 20.5831 16.737 20.5997 16.7204L20.6131 16.737L20.4863 16.8505L20.4696 16.8338C20.4863 16.8171 20.503 16.8004 20.4863 16.7671L20.3896 16.657L20.2962 16.737ZM20.4396 16.4001C20.4229 16.3868 20.3896 16.3868 20.3729 16.4001V16.3868L20.5831 16.1933L20.6798 16.29H20.6631C20.6131 16.2233 20.5497 16.2566 20.5197 16.2733C20.5197 16.29 20.503 16.29 20.4863 16.3067C20.4863 16.3067 20.4863 16.32 20.503 16.3534L20.5997 16.4501C20.6131 16.4335 20.6631 16.4001 20.5997 16.32H20.6131L20.7432 16.4668V16.4802C20.6631 16.4001 20.6298 16.4468 20.6131 16.4668L20.7132 16.5602C20.7265 16.5936 20.7432 16.5936 20.7432 16.5936L20.7899 16.5469C20.8066 16.5302 20.8233 16.4802 20.7899 16.3868H20.8066L20.87 16.4968L20.6631 16.7037L20.6464 16.6903C20.6631 16.6737 20.6798 16.657 20.6464 16.6236L20.4396 16.4001ZM20.8233 15.9531C20.8066 15.9697 20.8066 16.0031 20.8366 16.0198C20.87 16.0498 20.9033 16.0498 20.9667 16.0198C21.0001 16.0031 21.0601 15.9864 21.1102 16.0331C21.1902 16.1132 21.1569 16.1766 21.1435 16.2099C21.1268 16.2266 21.0935 16.2433 21.0768 16.2566C21.0601 16.2566 21.0601 16.2566 21.0601 16.2733V16.29L20.95 16.1933H20.9667C21.0301 16.2266 21.0935 16.24 21.1268 16.1933C21.1602 16.1599 21.1268 16.1265 21.1102 16.1132C21.0768 16.0798 21.0434 16.0798 20.9967 16.1132C20.95 16.1299 20.8866 16.1299 20.8366 16.0965C20.7732 16.0331 20.7732 15.9864 20.8032 15.9364L20.87 15.8897C20.8866 15.8897 20.8866 15.8897 20.87 15.8563L20.9834 15.9364H20.9667C20.8866 15.903 20.8366 15.923 20.8233 15.9531ZM20.9667 15.8263C20.9333 15.8096 20.9167 15.8263 20.9 15.843H20.8866L21.0635 15.5861L21.1735 15.6662L21.1569 15.6828C21.1369 15.6657 21.1115 15.6563 21.0851 15.6563C21.0588 15.6563 21.0334 15.6657 21.0134 15.6828C21.0134 15.6995 20.9967 15.7162 20.9967 15.7296C20.9834 15.7296 20.9834 15.7462 21.0134 15.7629C21.0301 15.7796 21.1268 15.843 21.1268 15.843C21.1435 15.8263 21.1735 15.7929 21.1102 15.7296V15.7129L21.2703 15.843C21.1735 15.7929 21.1569 15.843 21.1435 15.8563L21.2536 15.9364C21.287 15.9531 21.3003 15.9531 21.3003 15.9531C21.3003 15.9364 21.317 15.9197 21.3337 15.9064C21.3504 15.873 21.367 15.8263 21.3003 15.7629L21.317 15.7462L21.3971 15.843L21.2369 16.0832H21.2203C21.2369 16.0498 21.2369 16.0331 21.2069 16.0031L20.9667 15.8263ZM21.3971 15.5394L21.3504 15.6195C21.2836 15.5527 21.2536 15.506 21.2536 15.506L21.3971 15.5394H21.4304C21.4471 15.5394 21.4771 15.5527 21.4938 15.5527C21.5405 15.5694 21.5272 15.5861 21.5105 15.6195H21.5272L21.6072 15.4727C21.5739 15.506 21.5572 15.4894 21.5272 15.4894C21.1902 15.426 21.1602 15.4093 21.1602 15.4093V15.426L21.4137 15.7129C21.4304 15.7296 21.4304 15.7629 21.4304 15.7796H21.4471L21.4938 15.6995L21.4771 15.6828C21.4604 15.7162 21.4438 15.7296 21.4137 15.6828L21.3804 15.6495L21.4304 15.5394H21.3971ZM21.3003 15.1858C21.287 15.2025 21.287 15.2358 21.3337 15.2525C21.3804 15.2658 21.4004 15.2525 21.4471 15.2191C21.4938 15.1858 21.5405 15.1524 21.6039 15.1858C21.704 15.2358 21.684 15.3159 21.6706 15.3459L21.6206 15.4126V15.4426L21.4938 15.3759C21.5739 15.3926 21.6373 15.3759 21.6539 15.3292C21.6706 15.2959 21.6373 15.2658 21.6206 15.2492C21.5872 15.2358 21.5572 15.2492 21.5105 15.2825C21.4604 15.3292 21.4104 15.3492 21.3504 15.3159C21.2836 15.2825 21.2536 15.2358 21.2836 15.1858C21.2836 15.1524 21.317 15.1391 21.3337 15.1224C21.3337 15.1057 21.3337 15.1057 21.317 15.089V15.0757L21.4471 15.1391H21.4304C21.3504 15.1224 21.3003 15.1557 21.3003 15.1858Z" fill="#00493D"/>
<path d="M16.2498 9.52592C16.043 9.57262 15.8995 9.5893 15.706 9.41249C15.5793 9.28572 15.6093 9.06221 15.7394 8.9788C15.8829 8.88539 16.0096 8.82201 16.1864 8.86871C16.3632 8.91875 16.827 9.34911 16.7135 9.36579C16.6001 9.36579 16.4266 9.47588 16.2498 9.52592ZM16.7436 8.75862C16.8103 8.70858 16.8903 8.67856 17.0972 8.65854C17.2907 8.6452 17.4308 8.6452 17.4808 8.79198C17.5475 8.96546 17.5942 9.17229 17.721 9.26904C17.641 9.31574 17.2406 9.36579 17.0972 9.28572C16.907 9.18898 16.857 8.81867 16.7469 8.75862H16.7436ZM18.1213 8.7753C18.1847 8.72526 18.2648 8.72526 18.4716 8.74194C18.6785 8.75862 18.7585 8.7753 18.8052 8.91875C18.8553 9.07889 18.8052 9.28572 18.9053 9.42917C18.8052 9.46253 18.4883 9.46253 18.3749 9.34911C18.2014 9.22234 18.2148 8.85203 18.1213 8.77197V8.7753Z" fill="white" stroke="black" stroke-width="0.0457464"/>
<path d="M19.0786 8.86853C18.9352 8.83517 18.8384 8.82183 18.7784 8.86853C18.8551 8.96528 18.7917 9.34893 18.9518 9.4757C19.0619 9.55576 19.3522 9.57578 19.4156 9.39563C19.4956 9.2355 19.4956 8.9953 19.0819 8.86853H19.0786ZM17.4339 8.7084C17.4806 8.6617 17.5774 8.64502 17.7675 8.64502C17.9777 8.64502 18.1012 8.67838 18.1679 8.80515C18.2346 8.96528 18.2146 9.17212 18.328 9.30222C18.2813 9.36561 17.8476 9.36561 17.7208 9.26886C17.544 9.15544 17.5273 8.78847 17.4339 8.7084ZM16.0762 8.85185C16.0762 8.77179 16.1863 8.75845 16.4765 8.74176C16.7601 8.7084 16.7767 8.72508 16.8735 8.93192C16.9202 9.04535 16.9836 9.2355 17.1137 9.29889C16.7601 9.38229 16.6466 9.42899 16.4565 9.31557C16.3176 9.22871 16.2029 9.10823 16.1229 8.96528C16.1062 8.91858 16.1062 8.86853 16.0728 8.85185H16.0762Z" fill="#073163" stroke="black" stroke-width="0.0457464"/>
<path d="M16.8434 7.22395C16.5065 6.96708 16.1062 6.72688 15.7392 6.68018C16.1221 6.93545 16.4856 7.21868 16.8267 7.52753" fill="#F9D050"/>
<path d="M16.8434 7.22395C16.5065 6.96708 16.1062 6.72688 15.7392 6.68018C16.1221 6.93545 16.4856 7.21868 16.8267 7.52753" stroke="black" stroke-width="0.0196056"/>
<path d="M17.0337 6.98364C16.6334 6.71009 16.1697 6.40651 15.7227 6.37648C16.141 6.61891 16.5136 6.9328 16.8236 7.3039M17.5442 6.53661C17.7248 6.12609 17.9922 5.7596 18.3281 5.4624C18.168 5.79934 17.9945 6.48657 17.9111 6.76013" fill="#F9D050"/>
<path d="M17.0337 6.98364C16.6334 6.71009 16.1697 6.40651 15.7227 6.37648C16.141 6.61891 16.5136 6.9328 16.8236 7.3039M17.5442 6.53661C17.7248 6.12609 17.9922 5.7596 18.3281 5.4624C18.168 5.79934 17.9945 6.48657 17.9111 6.76013" stroke="black" stroke-width="0.0196056"/>
<path d="M17.8977 6.45665C18.0523 6.08074 18.3429 5.77696 18.7117 5.60596C18.4347 5.95157 18.2283 6.34831 18.1045 6.77358" fill="#F9D050"/>
<path d="M17.8977 6.45665C18.0523 6.08074 18.3429 5.77696 18.7117 5.60596C18.4347 5.95157 18.2283 6.34831 18.1045 6.77358" stroke="black" stroke-width="0.0196056"/>
<path d="M18.0411 6.77343C18.3474 6.30457 18.7864 5.93757 19.3021 5.71924C18.9018 6.11956 18.3113 6.8535 18.1679 7.14373M18.2646 7.12705C18.5515 6.96692 19.1287 6.71005 19.5423 6.79345C19.2888 6.88686 18.5215 7.23714 18.1846 7.56074" fill="#F9D050"/>
<path d="M18.0411 6.77343C18.3474 6.30457 18.7864 5.93757 19.3021 5.71924C18.9018 6.11956 18.3113 6.8535 18.1679 7.14373M18.2646 7.12705C18.5515 6.96692 19.1287 6.71005 19.5423 6.79345C19.2888 6.88686 18.5215 7.23714 18.1846 7.56074" stroke="black" stroke-width="0.0196056"/>
<path d="M18.2013 7.01367C18.4715 6.72677 18.9686 6.29642 19.4957 6.11961C19.112 6.48658 18.2947 7.32059 18.1846 7.44736M17.434 6.8402C17.2405 6.24638 16.9536 5.68926 16.5233 5.51245C16.866 6.00252 17.1045 6.55777 17.2238 7.14378M17.0637 6.82352C16.7468 6.43987 16.3131 6.05623 15.8194 5.97616C16.3032 6.29276 16.6854 6.74218 16.9202 7.27055" fill="#F9D050"/>
<path d="M18.2013 7.01367C18.4715 6.72677 18.9686 6.29642 19.4957 6.11961C19.112 6.48658 18.2947 7.32059 18.1846 7.44736M17.434 6.8402C17.2405 6.24638 16.9536 5.68926 16.5233 5.51245C16.866 6.00252 17.1045 6.55777 17.2238 7.14378M17.0637 6.82352C16.7468 6.43987 16.3131 6.05623 15.8194 5.97616C16.3032 6.29276 16.6854 6.74218 16.9202 7.27055" stroke="black" stroke-width="0.0196056"/>
<path d="M17.2438 6.80721C16.8435 6.08663 16.5366 5.95986 16.3631 5.81641C16.5065 6.08663 16.8568 6.80721 17.0637 7.11079" fill="#F9D050"/>
<path d="M17.2438 6.80721C16.8435 6.08663 16.5366 5.95986 16.3631 5.81641C16.5065 6.08663 16.8568 6.80721 17.0637 7.11079" stroke="black" stroke-width="0.0196056"/>
<path d="M16.4431 6.76025C16.6713 6.90374 16.8668 7.09354 17.0169 7.31737" stroke="black" stroke-width="0.0196056"/>
<path d="M16.4431 7.09391C16.5365 7.17398 16.7134 7.27072 16.8735 7.41417L16.4431 7.09391ZM18.3447 7.33411C18.5048 7.20734 18.8551 7.0005 19.0319 6.93378L18.3447 7.33411ZM18.2313 7.22402C18.3914 7.01385 18.7117 6.72695 18.8251 6.6302L18.2313 7.22402ZM18.6783 6.22988C18.4633 6.47079 18.2607 6.72243 18.0711 6.98382L18.6783 6.22988ZM18.2646 6.08643C18.1132 6.31038 17.9794 6.54572 17.8643 6.79033L18.2646 6.08643ZM17.0003 6.11979C17.097 6.37666 17.2738 6.80701 17.3339 6.98382L17.0003 6.11979ZM16.8568 6.39001C16.9235 6.49009 17.0503 6.71027 17.097 6.8704L16.8568 6.39001Z" fill="#F9D050"/>
<path d="M16.4431 7.09391C16.5365 7.17398 16.7134 7.27072 16.8735 7.41417M18.3447 7.33411C18.5048 7.20734 18.8551 7.0005 19.0319 6.93378M18.2313 7.22402C18.3914 7.01385 18.7117 6.72695 18.8251 6.6302M18.6783 6.22988C18.4633 6.47079 18.2607 6.72243 18.0711 6.98382M18.2646 6.08643C18.1132 6.31038 17.9794 6.54572 17.8643 6.79033M17.0003 6.11979C17.097 6.37666 17.2738 6.80701 17.3339 6.98382M16.8568 6.39001C16.9235 6.49009 17.0503 6.71027 17.097 6.8704" stroke="black" stroke-width="0.0196056"/>
<path d="M17.4004 6.30952C17.4004 6.16607 17.4971 6.00928 17.5939 6.00928C17.704 6.00928 17.784 6.19943 17.784 6.30952C17.784 6.43963 17.6873 6.54972 17.5939 6.54972C17.4938 6.54972 17.4004 6.45631 17.4004 6.30952Z" fill="#F9D050" stroke="black" stroke-width="0.0196056"/>
<path d="M17.1934 6.43932C17.2101 6.27919 17.3202 6.15242 17.4169 6.16576C17.5137 6.18244 17.5604 6.37593 17.5437 6.48602C17.527 6.61279 17.4169 6.70954 17.3369 6.69286C17.2568 6.69286 17.1768 6.58277 17.1934 6.43932ZM17.6238 6.48602C17.5904 6.34257 17.6571 6.18578 17.7539 6.16576C17.8473 6.15242 17.944 6.30921 17.9607 6.43932C17.9941 6.56609 17.9107 6.69286 17.8306 6.69286C17.7539 6.70954 17.6405 6.62947 17.6238 6.48602Z" fill="#F9D050" stroke="black" stroke-width="0.0196056"/>
<path d="M17.3839 6.61274C17.3839 6.45595 17.4806 6.3125 17.5773 6.3125C17.6874 6.3125 17.7675 6.48597 17.7675 6.61274C17.7675 6.74285 17.6741 6.85294 17.5773 6.85294C17.4806 6.85294 17.3839 6.75953 17.3839 6.61274Z" fill="#F9D050" stroke="black" stroke-width="0.0196056"/>
<path d="M17.0967 6.69298C17.0967 6.54953 17.2102 6.39273 17.3036 6.39273C17.4037 6.39273 17.4971 6.58289 17.4971 6.69298C17.4971 6.82308 17.3836 6.93317 17.3036 6.93317C17.2102 6.93317 17.0967 6.83976 17.0967 6.69298ZM17.6872 6.62959C17.6872 6.48614 17.7873 6.32935 17.8807 6.32935C17.9908 6.32935 18.0709 6.5195 18.0709 6.62959C18.0709 6.7597 17.9775 6.86979 17.8807 6.86979C17.784 6.86979 17.6872 6.77304 17.6872 6.62959Z" fill="#F9D050" stroke="black" stroke-width="0.0196056"/>
<path d="M17.6237 6.75964C17.6237 6.59951 17.7372 6.45605 17.8306 6.45605C17.9307 6.45605 18.0241 6.62953 18.0241 6.7563C18.0241 6.88641 17.9273 6.99983 17.8306 6.99983C17.7372 6.99983 17.6237 6.89975 17.6237 6.75964Z" fill="#F9D050" stroke="black" stroke-width="0.0196056"/>
<path d="M17.3705 6.90327C17.3705 6.74314 17.4639 6.59969 17.5607 6.59969C17.6741 6.59969 17.7542 6.78984 17.7542 6.89993C17.7542 7.03337 17.6541 7.14346 17.5607 7.14346C17.4639 7.14346 17.3672 7.04338 17.3672 6.90327H17.3705ZM16.9702 6.90327C16.9702 6.74314 17.0503 6.59969 17.1303 6.59969C17.2104 6.59969 17.2738 6.78984 17.2738 6.89993C17.2738 7.03337 17.1937 7.14346 17.1303 7.14346C17.0503 7.14346 16.9702 7.04338 16.9702 6.90327ZM17.8643 6.87324C17.8643 6.72646 17.9443 6.58301 18.0244 6.58301C18.1045 6.58301 18.1845 6.75982 18.1845 6.86991C18.1845 7.01336 18.0878 7.1101 18.0244 7.1101C17.9443 7.1101 17.8643 7.01336 17.8643 6.86991V6.87324Z" fill="#F9D050" stroke="black" stroke-width="0.0196056"/>
<path d="M17.9606 7.13977C17.994 6.98298 18.0874 6.85287 18.1508 6.87289C18.2175 6.88623 18.2309 7.07639 18.2008 7.18981C18.1842 7.33326 18.0874 7.41333 18.024 7.39665C17.9573 7.38331 17.9273 7.26988 17.9573 7.14311L17.9606 7.13977Z" fill="#F9D050" stroke="black" stroke-width="0.0196056"/>
<path d="M17.6572 7.09308C17.6738 6.94963 17.7672 6.80618 17.8473 6.82286C17.9441 6.82286 17.9908 7.01301 17.9774 7.1231C17.9607 7.26989 17.8773 7.36664 17.8006 7.34996C17.7205 7.34996 17.6405 7.23653 17.6572 7.09308ZM17.2101 7.13978C17.1601 6.98299 17.0633 6.8729 17 6.88624C16.9366 6.90292 16.9199 7.09308 16.9532 7.20651C16.9866 7.33328 17.08 7.41334 17.1434 7.39666C17.1934 7.38332 17.2435 7.26989 17.2101 7.14312V7.13978Z" fill="#F9D050" stroke="black" stroke-width="0.0196056"/>
<path d="M17.0967 7.1099C17.0967 6.96645 17.1768 6.823 17.2569 6.823C17.3536 6.823 17.417 6.99981 17.417 7.1099C17.417 7.25335 17.3369 7.35009 17.2569 7.35009C17.1902 7.35009 17.0967 7.25335 17.0967 7.1099Z" fill="#F9D050" stroke="black" stroke-width="0.0196056"/>
<path d="M17.3372 7.17322C17.3372 7.01309 17.4339 6.87297 17.5273 6.87297C17.6407 6.87297 17.7208 7.04645 17.7208 7.17322C17.7208 7.30332 17.6241 7.41341 17.5273 7.41341C17.4339 7.41341 17.3372 7.31667 17.3372 7.17322ZM17.4172 5.41512C17.3839 5.54189 17.2738 5.65531 17.3505 5.83212C17.2104 5.78208 17.0836 5.7654 16.9702 5.89551C17.1136 5.87883 17.2404 5.92887 17.3038 6.02228C17.177 6.0056 17.1136 6.07232 17.0803 6.15239C17.1937 6.11902 17.3038 6.08566 17.3538 6.10234C17.3038 6.15239 17.2237 6.22911 17.2104 6.29584C17.3038 6.21577 17.4172 6.22911 17.4806 6.18241C17.4339 6.29584 17.5273 6.40593 17.6074 6.51602C17.594 6.35922 17.6874 6.24913 17.6407 6.16573C17.7842 6.19909 17.8009 6.32586 18.0077 6.32586C17.9276 6.27916 17.8809 6.11902 17.7842 6.11902C17.8309 6.10234 18.0244 6.08566 18.0577 6.11902C18.0244 6.0523 17.911 5.99225 17.8476 5.99225C17.9143 5.92553 18.0244 5.79876 18.1045 5.7654C17.991 5.78208 17.8175 5.79876 17.7542 5.89551C17.911 5.7654 17.8809 5.52854 18.0544 5.49518C17.961 5.4785 17.8175 5.54189 17.7041 5.65531C17.7542 5.55857 17.7542 5.4318 17.8176 5.39844C17.6874 5.4318 17.544 5.59193 17.4973 5.67199C17.4904 5.58141 17.463 5.49358 17.4172 5.41512Z" fill="#F9D050" stroke="black" stroke-width="0.0196056"/>
<path d="M17.4971 5.67195C17.4971 5.71866 17.4971 5.8154 17.4804 5.84543L17.4971 5.67195ZM17.7039 5.65527C17.6706 5.68863 17.6072 5.79872 17.6072 5.89547L17.7039 5.65527Z" fill="#F9D050"/>
<path d="M17.4971 5.67195C17.4971 5.71866 17.4971 5.8154 17.4804 5.84543M17.7039 5.65527C17.6706 5.68863 17.6072 5.79872 17.6072 5.89547" stroke="black" stroke-width="0.0196056"/>
<path d="M17.8009 5.8457C17.7459 5.87855 17.7054 5.93099 17.6875 5.99249" stroke="black" stroke-width="0.0196056"/>
<path d="M16.1058 7.43143C15.9923 7.43143 15.8989 7.38473 15.8322 7.30466C15.7221 7.15788 15.4185 7.09449 15.2884 7.2246C15.2417 7.25796 15.1783 7.25796 15.1316 7.2713C15.0516 7.2713 14.9548 7.35137 14.9849 7.5115C15.0516 7.46146 15.0649 7.5115 15.115 7.5115C15.1483 7.49482 15.1316 7.52818 15.1316 7.5582C15.1316 7.63827 15.3051 7.7984 15.4652 7.78172C15.6421 7.78172 15.7221 7.84844 15.7521 7.8818C15.8022 7.92517 15.7688 7.91183 15.8022 7.99189C15.8489 8.0386 15.8656 8.05528 15.7855 8.11866C15.7491 8.14903 15.7198 8.18704 15.6997 8.22998C15.6796 8.27293 15.6691 8.31977 15.6691 8.3672C15.6691 8.41462 15.6796 8.46146 15.6997 8.50441C15.7198 8.54736 15.7491 8.58536 15.7855 8.61573C15.9923 8.77253 16.5194 9.01606 17.1133 8.54901C17.6871 8.10198 18.5811 8.35886 18.6478 8.51565C18.7279 8.67912 18.7579 8.77253 18.7746 8.85259C18.7913 8.91931 18.8714 8.9827 18.9848 8.96602C19.0949 8.96602 19.2216 9.01272 19.285 9.06276C19.3684 9.10947 19.4785 9.09613 19.4485 8.94934C19.3818 8.50231 19.1116 8.43892 19.0815 8.23209C19.2383 8.24543 19.3484 8.24543 19.4151 8.18205C19.4618 8.11866 19.5252 8.00524 19.5919 7.97521C19.6386 7.94185 19.6386 7.90849 19.5753 7.92517C19.4952 7.94185 19.4485 7.97521 19.3017 7.95853C18.5678 7.87847 16.5061 7.31801 16.1058 7.43143Z" fill="#059334" stroke="black" stroke-width="0.0457464"/>
<path d="M19.3685 7.97536C19.2466 8.06139 19.1424 8.17013 19.0616 8.29562C18.9048 8.50246 18.4244 8.70929 17.8306 8.70929C17.2568 8.70929 16.9065 8.61588 16.6497 8.40905C16.54 8.32135 16.4215 8.24532 16.296 8.18219C16.1226 8.10213 16.0892 7.92532 16.1359 7.78187C16.0892 7.86193 16.0592 7.942 15.9624 7.92532C15.8957 7.92532 15.7689 7.92532 15.8023 7.99204C15.7856 7.95868 15.7856 7.91197 15.7689 7.89196L15.7356 7.86193C15.7856 7.89529 15.899 7.79855 15.9791 7.79855C16.0425 7.81523 16.1226 7.73516 16.1059 7.63842L16.0592 7.43158C16.1859 7.36486 17.864 7.67178 18.2009 7.7018C18.5345 7.71848 19.4953 7.86193 19.3685 7.97536Z" fill="black" stroke="black" stroke-width="0.0457464"/>
<path d="M16.3294 7.36813C16.4895 7.208 16.6796 7.12793 16.8731 7.17464H16.9198C17.0199 7.09457 17.2401 7.07789 17.3702 7.14128H17.4336C17.6237 7.07789 17.9907 7.14128 18.1208 7.27138L18.1675 7.30474C18.6012 7.27138 18.8547 7.46154 19.1583 7.76846C19.1917 7.80182 19.2384 7.86187 19.3185 7.87855C19.4152 7.89523 19.4319 7.94527 19.3518 7.99197C19.2236 8.0713 19.1106 8.17299 19.0182 8.29222C18.8714 8.48571 18.4077 8.6792 17.8306 8.6792C17.2735 8.6792 16.9365 8.57912 16.6796 8.38896C16.5362 8.27887 16.4261 8.21549 16.346 8.16545C16.2493 8.13209 16.1225 8.00532 16.1692 7.87855C16.2026 7.75178 16.1225 7.59165 16.0591 7.43151C16.1058 7.39815 16.2326 7.35145 16.296 7.38481L16.3294 7.36813Z" fill="#059334" stroke="black" stroke-width="0.0457464"/>
<path d="M19.1582 7.76943C18.8579 7.46252 18.6011 7.27236 18.1674 7.30239C18.1674 7.31907 18.1674 7.36911 18.1507 7.40247C18.4529 7.5381 18.7209 7.73989 18.9347 7.99295C19.0014 7.92623 19.1115 7.8495 19.1582 7.76943ZM18.1207 7.27236C17.9906 7.14559 17.6236 7.07887 17.4334 7.14559C17.4334 7.20898 17.4334 7.30572 17.4001 7.36911C17.5135 7.41581 17.6069 7.52924 17.7037 7.63933C17.7704 7.62265 17.9272 7.57594 18.0072 7.55926C18.055 7.46788 18.093 7.37171 18.1207 7.27236ZM17.37 7.14225C17.2399 7.07887 17.0164 7.09555 16.9197 7.17562C16.8863 7.24234 16.873 7.36911 16.873 7.43249C16.9397 7.43249 17.0331 7.4792 17.0631 7.51256C17.1632 7.4792 17.29 7.41581 17.3367 7.36911C17.3534 7.30239 17.3834 7.20898 17.37 7.14559V7.14225ZM16.3292 7.36911C16.4893 7.20898 16.6795 7.12891 16.873 7.17562C16.8396 7.22566 16.8263 7.31907 16.8263 7.41581C16.6495 7.39913 16.4259 7.44917 16.3292 7.51256V7.36911Z" fill="#00493D" stroke="black" stroke-width="0.0457464"/>
<path d="M18.8716 8.02278C18.6706 7.78481 18.4201 7.59355 18.1377 7.46232C18.1377 7.479 18.1043 7.54238 18.0876 7.59242C18.1844 7.73588 18.3745 8.05614 18.4546 8.23295C18.5346 8.19959 18.7582 8.10284 18.8716 8.02278ZM17.6573 8.3764C17.6849 8.15836 17.7005 7.93896 17.704 7.7192C17.784 7.70251 17.9442 7.65581 18.0075 7.63913C18.0876 7.76924 18.2811 8.10618 18.3612 8.26297C18.1677 8.30968 17.8474 8.38974 17.6573 8.3764ZM17.0968 7.60911C17.1769 7.57574 17.2903 7.50902 17.367 7.44897C17.4337 7.49568 17.5605 7.60911 17.6072 7.67249C17.6072 7.81594 17.5605 8.23295 17.5438 8.37306C17.4171 8.37306 17.2102 8.34304 17.0968 8.27965C17.1135 8.03946 17.1302 7.76924 17.0968 7.60911ZM16.2962 7.79926C16.3128 7.7659 16.3295 7.65581 16.3295 7.60911C16.4563 7.52904 16.7765 7.44897 17.0167 7.57574C17.0334 7.73588 17.0167 8.1362 17.0001 8.23295C16.7861 8.05894 16.5506 7.91319 16.2995 7.79926H16.2962Z" fill="#00493D" stroke="black" stroke-width="0.0457464"/>
<path d="M15.4986 7.50796C15.4653 7.50796 15.4486 7.41455 15.3852 7.41455C15.3685 7.41455 15.3218 7.43123 15.3051 7.41455C15.3051 7.44791 15.3218 7.48127 15.3385 7.49462C15.3552 7.54132 15.4352 7.5113 15.4986 7.5113V7.50796Z" fill="black"/>
<path d="M15.4986 7.78149C15.6887 7.78149 15.7221 7.54129 15.8188 7.52795M15.6087 7.79817C15.7521 7.86489 15.8655 7.52795 15.9756 7.54129M15.3218 7.3845C15.3685 7.3845 15.4018 7.31777 15.4819 7.39784C15.5152 7.4312 15.5619 7.44788 15.5953 7.44788M15.5619 7.62136C15.4952 7.72144 15.3851 7.78149 15.3218 7.75146M15.2884 7.22437C15.2417 7.25773 15.2117 7.31777 15.1783 7.36782M15.1316 7.46123V7.54129" stroke="black" stroke-width="0.0457464"/>
<path d="M20.47 9.54386V12.6597C20.47 15.3619 19.1923 16.2894 17.4809 17.0233C15.7695 16.2894 14.4784 15.3619 14.4784 12.6597V9.54053H20.47V9.54386Z" fill="white"/>
<path d="M17.4808 12.1802C17.6243 12.1802 17.8478 12.0534 18.0413 11.8599C18.2481 11.6364 18.6017 11.5597 18.9687 11.8599C19.3357 12.1635 19.5592 12.0367 19.7527 11.8599C19.9428 11.6864 20.103 11.6197 20.4699 11.6197V9.54468H14.4751V11.623C14.842 11.623 15.0021 11.6898 15.1956 11.8632C15.3858 12.04 15.6093 12.1668 15.9796 11.8632C16.3633 11.563 16.6969 11.6397 16.9204 11.8632C17.0972 12.0567 17.3207 12.1835 17.4808 12.1835V12.1802Z" fill="#C8102E"/>
<path d="M17.4808 13.7813C17.6743 13.7813 18.058 13.5712 18.1514 13.5244C18.505 13.3143 18.7585 13.5078 18.9687 13.6045C19.1922 13.6979 19.6059 13.8114 19.8628 13.6045C20.1197 13.3943 20.2631 13.411 20.4399 13.411C20.4733 13.1708 20.4733 12.9306 20.4733 12.6604V12.4669C20.2464 12.4202 20.1363 12.4836 19.8961 12.6938C19.6559 12.9006 19.3824 12.8539 19.0288 12.7271C18.6952 12.5803 18.3616 12.3268 18.0246 12.7271C17.8849 12.8833 17.6899 12.979 17.4808 12.994C17.2406 12.994 17.0338 12.8372 16.9371 12.7271C16.5868 12.3268 16.2665 12.5803 15.9296 12.7271C15.5793 12.8539 15.289 12.9006 15.0522 12.6938C14.8287 12.4836 14.7152 12.4202 14.4751 12.4669V12.6604C14.4751 12.9306 14.4917 13.1708 14.5218 13.411C14.6986 13.411 14.8287 13.3943 15.0822 13.6045C15.3391 13.8114 15.7694 13.6979 15.9796 13.6045C16.2031 13.5078 16.4567 13.3143 16.8103 13.5244C16.907 13.5712 17.274 13.778 17.4808 13.778V13.7813ZM17.4808 14.4686C17.7578 14.4536 18.027 14.3711 18.2648 14.2284C18.5851 14.0515 18.8086 14.1283 19.1288 14.2917C19.4625 14.4519 19.736 14.4018 19.9295 14.2917C20.0229 14.225 20.103 14.0983 20.3098 14.1483C20.2164 14.5486 20.0696 14.8989 19.8961 15.1858C19.7598 15.231 19.6159 15.2487 19.4728 15.2378C19.3296 15.2269 19.19 15.1877 19.0621 15.1224C18.7285 14.9623 18.3115 14.8655 18.088 15.009C17.9067 15.127 17.697 15.1938 17.4808 15.2025C17.304 15.2025 17.0805 15.1358 16.8737 15.009C16.6502 14.8655 16.2332 14.9623 15.8995 15.1224C15.7719 15.1882 15.6324 15.228 15.4892 15.2395C15.3461 15.2509 15.202 15.2338 15.0655 15.1891C14.8921 14.8989 14.7486 14.5453 14.6519 14.1483C14.8587 14.0983 14.9388 14.2284 15.0355 14.2917C15.1551 14.3593 15.2901 14.3948 15.4275 14.3948C15.5648 14.3948 15.6999 14.3593 15.8195 14.2917C16.1531 14.1316 16.3766 14.0515 16.6969 14.225C16.9344 14.369 17.2035 14.4526 17.4808 14.4686ZM17.4808 17.024C18.0992 16.7843 18.6765 16.4501 19.1922 16.0332C19.0621 15.9865 18.9854 16.0165 18.872 15.9364C18.7585 15.8564 18.4249 15.8263 18.138 15.9865C17.9391 16.1025 17.7129 16.1637 17.4825 16.1637C17.2522 16.1637 17.0259 16.1025 16.827 15.9865C16.5367 15.8263 16.2031 15.8564 16.093 15.9364C15.9796 16.0165 15.8995 15.9865 15.7694 16.0365C16.2831 16.4556 16.861 16.789 17.4808 17.024Z" fill="#0B50A0"/>
<path d="M17.0638 10.3246C17.0805 10.358 17.0504 10.438 17.0638 10.468C17.0972 10.5348 17.0972 10.5681 17.1439 10.5982H17.2573C17.6076 10.5982 18.0246 10.4547 18.3749 10.4547C18.7118 10.4547 18.9186 10.5648 19.1088 10.5648C19.2222 10.5648 19.319 10.4847 19.319 10.4047C19.319 10.3246 19.1922 10.2779 18.9186 10.2779C18.535 10.2779 18.3282 10.3746 18.0079 10.3746C17.5275 10.3746 17.4474 10.1978 17.4474 10.1178C17.4474 10.0377 17.5275 9.92761 17.7844 9.92761C17.8644 9.92761 17.9278 9.91093 17.9612 9.87757C17.9779 9.84421 18.0246 9.78082 18.1213 9.73412C18.2314 9.6674 18.4549 9.73412 18.5684 9.65405C18.5684 9.72077 18.4716 9.81418 18.3915 9.84754C18.5517 9.7975 18.7251 9.7975 18.7585 9.92761C18.6784 9.87757 18.5517 9.91093 18.505 9.92761C18.4382 9.94095 18.4082 9.96097 18.3448 9.97431C18.4082 9.95763 18.4416 10.0844 18.535 10.0844C18.4416 10.1645 18.2814 10.1645 18.1213 10.1011C18.0713 10.0844 17.9445 10.0377 17.8644 10.0377C17.7043 10.0377 17.6076 10.0711 17.6076 10.1344C17.6076 10.2145 17.7076 10.2612 17.9912 10.2612C18.2815 10.2612 18.4416 10.1811 18.8719 10.1811C18.8386 10.1344 18.8886 10.0844 18.8252 10.0377C18.9854 10.0377 19.1588 10.0844 19.2256 10.1978C19.2089 10.0844 19.3023 9.99099 19.2723 9.89425C19.369 9.91093 19.4491 10.0043 19.4624 10.0844C19.4624 10.0377 19.5291 10.0377 19.5291 9.99099C19.5737 10.0151 19.6099 10.0524 19.6325 10.0978C19.6552 10.1431 19.6634 10.1944 19.6559 10.2445C19.7026 10.1645 19.7526 10.1978 19.7827 10.1011C19.816 10.1678 19.7994 10.358 19.6859 10.4213C19.786 10.3546 19.9261 10.3546 20.0229 10.468C19.9261 10.4547 19.8794 10.5014 19.8327 10.5181C19.5999 10.6371 19.3398 10.6923 19.0788 10.6782C18.8252 10.6615 18.7919 10.6115 18.6317 10.6115C18.7285 10.6282 18.9186 10.8217 19.0988 10.8217C19.2089 10.8217 19.2889 10.8217 19.3356 10.805C19.3823 10.7883 19.4624 10.805 19.5258 10.8384C19.5758 10.8851 19.6726 10.9318 19.736 10.9184C19.7193 10.9818 19.6859 11.0118 19.6392 11.0285C19.7193 11.0785 19.6726 11.1086 19.7526 11.172C19.7193 11.172 19.6859 11.2053 19.6392 11.1886C19.6859 11.2353 19.6859 11.3021 19.736 11.3321C19.7193 11.3321 19.6692 11.3488 19.6392 11.3321C19.6859 11.3988 19.6392 11.4755 19.6859 11.5089C19.736 11.5756 19.6392 11.6523 19.5592 11.589C19.5758 11.6357 19.5258 11.6857 19.4791 11.669C19.4324 11.6523 19.399 11.6023 19.4124 11.589C19.4124 11.5723 19.4124 11.5723 19.4324 11.5556C19.399 11.6056 19.3356 11.6056 19.3023 11.589C19.2889 11.5723 19.2689 11.5556 19.2689 11.5423C19.1588 11.5756 19.1121 11.4755 19.1288 11.4288C19.1422 11.3821 19.2389 11.3621 19.2723 11.3821C19.3056 11.3955 19.3356 11.4155 19.369 11.3821C19.4024 11.3654 19.4157 11.3321 19.4157 11.3021C19.4157 11.252 19.369 11.1086 19.1588 11.1253C18.9186 11.1419 18.535 11.0785 18.3448 11.0118C18.3282 10.9985 18.3115 10.9985 18.2948 10.9785C18.2948 11.0452 18.2314 11.0785 18.2314 11.1419C18.2314 11.222 18.2648 11.2854 18.3615 11.3154C18.3115 11.3955 18.2314 11.3821 18.2014 11.3321C18.2014 11.3821 18.1347 11.4122 18.1347 11.4755C18.1213 11.4422 18.1013 11.4288 18.088 11.3955C18.0413 11.5089 17.9111 11.5723 17.8478 11.5423C17.7677 11.6056 17.6743 11.589 17.6409 11.5256C17.5942 11.5589 17.5275 11.5589 17.4975 11.5256C17.4975 11.5723 17.4641 11.5589 17.4474 11.6223C17.4474 11.6557 17.3841 11.669 17.354 11.6557C17.3207 11.6357 17.304 11.5723 17.3373 11.5423C17.2906 11.5756 17.2406 11.5756 17.2106 11.5423C17.2106 11.5089 17.2106 11.4622 17.2439 11.4422H17.274C17.2406 11.4288 17.1939 11.4422 17.1605 11.4288C17.1272 11.3955 17.1272 11.3621 17.1439 11.3321C17.1605 11.3154 17.2106 11.2854 17.2439 11.3154L17.2573 11.3321C17.2573 11.2987 17.274 11.2687 17.2906 11.2687C17.324 11.252 17.3674 11.252 17.4174 11.3021C17.4508 11.3488 17.4808 11.3488 17.5775 11.3354C17.6576 11.3354 17.7844 11.252 17.8778 11.172C17.6109 11.1253 17.7677 10.9484 17.8478 10.8851C17.7844 10.8684 17.6876 10.8684 17.6242 10.9017C17.2906 11.0785 16.937 11.2854 16.7135 11.222C16.7166 11.2554 16.7281 11.2876 16.7469 11.3154C16.6968 11.3154 16.6001 11.3154 16.5701 11.2687C16.5534 11.3021 16.5233 11.3821 16.5534 11.4455C16.52 11.4122 16.4266 11.3788 16.3766 11.3654C16.4099 11.3988 16.3766 11.4622 16.3932 11.5089C16.3465 11.4622 16.2665 11.4288 16.2331 11.4622C16.1998 11.4956 16.1364 11.5089 16.0897 11.4956C16.0586 11.5395 16.0141 11.5723 15.9629 11.589C15.9629 11.5556 15.9629 11.5089 15.9462 11.4922C15.9295 11.5423 15.8795 11.6056 15.8194 11.6357C15.8194 11.6023 15.8194 11.5556 15.8028 11.5256C15.8028 11.589 15.676 11.6223 15.6593 11.669C15.676 11.6223 15.676 11.5723 15.676 11.5423C15.6583 11.5706 15.6349 11.595 15.6074 11.614C15.5798 11.6329 15.5487 11.646 15.5159 11.6523C15.5292 11.619 15.5492 11.5856 15.5292 11.5556C15.5159 11.6223 15.4191 11.6557 15.3391 11.6357C15.3391 11.669 15.2723 11.7157 15.1956 11.669C15.1456 11.6523 15.1155 11.6023 15.1456 11.5723C15.0822 11.5723 15.0188 11.5089 15.0522 11.4622C15.0522 11.4455 15.0655 11.4288 15.0655 11.4122C15.0188 11.3788 15.0021 11.3154 15.0522 11.2687C15.0655 11.252 15.1155 11.252 15.1456 11.252C15.1456 11.1253 15.259 11.1253 15.3057 11.2187C15.3391 11.2687 15.4358 11.3488 15.5159 11.3321C15.5492 11.3321 15.5626 11.3154 15.5959 11.3154C15.7394 11.268 15.8745 11.1982 15.9963 11.1086C16.0096 11.0619 16.0096 11.0285 16.0096 10.9985C15.9462 11.0318 15.8828 11.0619 15.8495 11.1086V11.0619C15.8028 11.0619 15.7227 11.0452 15.6893 11.0452C15.706 11.0285 15.7227 10.9484 15.7561 10.9318C15.676 10.9484 15.5959 10.9318 15.5292 10.9184C15.5626 10.8851 15.5626 10.8384 15.5792 10.7883C15.5459 10.805 15.4658 10.775 15.4024 10.7883C15.4191 10.7416 15.4358 10.6782 15.4825 10.6615C15.4158 10.6782 15.3391 10.6615 15.259 10.6282C15.3257 10.6282 15.3557 10.5481 15.4024 10.5481C15.2757 10.5481 15.2423 10.4847 15.1789 10.4547C15.2256 10.468 15.259 10.4213 15.3057 10.4213C15.259 10.4047 15.1789 10.3246 15.2123 10.2779C15.1956 10.2946 15.1789 10.3246 15.1456 10.3446C15.1122 10.358 15.0522 10.3446 15.0021 10.2946C14.9687 10.2279 14.9854 10.1511 15.0522 10.1344C15.0375 10.1335 15.0234 10.1284 15.0116 10.1197C14.9998 10.111 14.9907 10.0991 14.9855 10.0854C14.9802 10.0717 14.979 10.0568 14.9819 10.0424C14.9849 10.0281 14.9919 10.0148 15.0021 10.0043C15.0188 9.97098 15.0822 9.92761 15.1155 9.97098L15.1622 10.0377C15.1456 10.0043 15.1456 9.94095 15.1456 9.89425C15.1622 9.84754 15.1956 9.84754 15.2456 9.82753C15.289 9.82753 15.3224 9.87757 15.3224 9.92761C15.3224 9.97431 15.3391 10.0043 15.3557 10.0711L15.3691 10.0043C15.3691 9.94095 15.4491 9.95763 15.4992 9.97098C15.5459 9.99099 15.5626 10.0844 15.4992 10.1344C15.4658 10.1678 15.4825 10.2145 15.5159 10.2445C15.626 10.4213 15.8161 10.5648 15.9796 10.5815C15.9796 10.5148 16.0129 10.4547 16.0596 10.4047C16.0596 10.3713 16.073 10.3246 16.093 10.2946C16.1063 10.1978 16.153 10.1511 16.2164 10.1811C16.2031 10.1645 16.1831 10.1478 16.1831 10.1344C16.1364 10.0844 16.0897 10.0043 16.123 9.94095C16.1564 9.87757 16.2498 9.89425 16.2832 9.92761C16.2665 9.82753 16.3766 9.7508 16.3766 9.70076C16.3932 9.7508 16.4266 9.81418 16.4099 9.86089C16.4266 9.7975 16.5367 9.71744 16.6168 9.68741C16.5834 9.73412 16.6835 9.81418 16.6668 9.86089C16.7002 9.78082 16.8269 9.73412 16.9203 9.73412C16.887 9.76748 16.887 9.83086 16.887 9.86089C16.937 9.86089 17.0204 9.84754 17.0504 9.7975C17.0504 9.86422 17.0171 9.92761 16.9837 9.95763C17.0004 9.94095 17.0638 9.94095 17.1138 9.94095C17.0638 9.99099 17.0805 10.041 17.0338 10.0711C17.0972 10.0377 17.1772 10.0377 17.1939 10.1044C17.2273 10.1511 17.1772 10.2312 17.1439 10.2779C17.1105 10.2946 17.0805 10.3246 17.0638 10.3246Z" fill="#F9D050" stroke="black" stroke-width="0.0457464"/>
<path d="M16.0762 10.5176C15.9627 10.5643 15.9294 10.6777 15.9127 10.7411" stroke="black" stroke-width="0.0457464"/>
<path d="M16.0596 10.6282C15.8995 10.7283 15.8327 10.805 15.8661 10.9818M16.1363 11.1119C16.2364 11.0785 16.2964 11.0452 16.3765 10.9017" stroke="black" stroke-width="0.0457464"/>
<path d="M16.3296 10.9648C16.2962 11.0316 16.3296 11.1417 16.2829 11.1884C16.3258 11.167 16.3628 11.1355 16.3907 11.0965C16.4186 11.0575 16.4366 11.0123 16.443 10.9648" stroke="black" stroke-width="0.0457464"/>
<path d="M16.3632 11.1415C16.4265 11.1082 16.5233 11.0114 16.57 10.9013C16.5533 10.948 16.57 11.0281 16.5366 11.0782C16.6167 10.9981 16.6501 10.948 16.6667 10.868L16.6801 10.9347C16.7134 10.9013 16.7468 10.868 16.7468 10.8046M16.7435 10.8513V10.9314C16.8102 10.8847 16.8269 10.8213 16.8269 10.7412" stroke="black" stroke-width="0.0457464"/>
<path d="M16.8102 10.8381C16.9069 10.7713 16.9203 10.6779 16.9203 10.5345M16.9203 10.6946C16.987 10.6446 17.0003 10.6146 17.0003 10.4678M16.7935 10.0374C16.7601 10.0374 16.7268 10.0541 16.7268 10.1041C16.7268 10.1342 16.6801 10.1809 16.6801 10.2309C16.6667 10.2943 16.6334 10.311 16.5867 10.2943C16.5366 10.2609 16.5366 10.2609 16.5366 10.2142C16.5366 10.1475 16.6167 10.1342 16.6167 10.0708C16.6334 10.0374 16.65 9.99071 16.6667 9.99071C16.5867 10.0374 16.4732 10.0041 16.4566 9.91064" stroke="black" stroke-width="0.0457464"/>
<path d="M16.9368 10.0838C16.9034 10.1005 16.87 10.0505 16.8267 10.0705C16.81 10.0705 16.7599 10.0838 16.7466 10.0705" stroke="black" stroke-width="0.0457464"/>
<path d="M16.7134 10.1644C16.7301 10.181 16.8101 10.2144 16.8902 10.181C16.8235 10.1977 16.7768 10.1177 16.8402 10.0709M16.5699 10.0042C16.5032 10.0042 16.4565 10.0543 16.4732 10.1043C16.4899 10.151 16.5533 10.151 16.6 10.1177M16.4565 10.8049C16.4732 10.7882 16.4899 10.7582 16.4899 10.7382C16.5232 10.7382 16.5566 10.7248 16.5699 10.7081C16.6333 10.7081 16.68 10.6614 16.6967 10.6147C16.7301 10.6147 16.7467 10.5347 16.7634 10.5013C16.7768 10.518 16.8101 10.5013 16.8268 10.4346C16.8602 10.4546 16.9069 10.4346 16.9202 10.3879M16.2664 10.2778C16.2664 10.2945 16.233 10.3245 16.1996 10.3445C16.2163 10.3745 16.1996 10.4546 16.1696 10.4679C16.1863 10.5013 16.1696 10.548 16.1529 10.5814C16.1529 10.598 16.1696 10.6481 16.1696 10.6614M16.3297 9.95752C16.2964 10.0376 16.3131 10.1343 16.3764 10.151" stroke="black" stroke-width="0.0457464"/>
<path d="M16.3631 10.2112C16.3465 10.2946 16.3465 10.4047 16.3298 10.4548C16.3131 10.4881 16.2831 10.5982 16.4098 10.6282C16.5533 10.6616 16.6334 10.6449 16.7134 10.4047M16.9536 11.0286C16.9536 11.0452 16.9369 11.0786 16.9069 11.0786M17.0637 10.9985C17.0637 11.0319 17.0303 11.0786 17.017 11.0919M17.1771 10.9652C17.1771 10.9985 17.1771 11.0452 17.1438 11.0619M16.203 9.97437C16.2163 9.97437 16.2364 10.0077 16.2497 10.0378C16.203 10.0044 16.153 10.0845 16.183 10.1345M16.153 10.2446L16.0896 10.2946M16.1063 10.388C16.0896 10.388 16.0729 10.4047 16.0596 10.4047M15.339 10.1011C15.339 10.0845 15.339 10.0845 15.3556 10.0678M15.1955 10.0544C15.1788 10.0544 15.1788 10.0544 15.1622 10.0378M15.2089 10.2779H15.2422M15.1455 10.1812C15.1201 10.156 15.0874 10.1397 15.0521 10.1345M16.0262 10.775C15.9128 10.8684 15.8661 10.9485 15.8494 11.0619M16.1363 10.8517C16.108 10.9112 16.0642 10.9619 16.0095 10.9985M15.5158 11.3321C15.4624 11.3494 15.4057 11.3541 15.3502 11.346C15.2947 11.3379 15.2418 11.3172 15.1955 11.2854C15.1788 11.2688 15.1622 11.2688 15.1455 11.2521M15.9928 11.112C15.9795 11.172 15.9595 11.2521 15.9294 11.2688C16.0596 11.202 16.1696 11.1086 16.1863 10.9652M15.0654 11.4122C15.1154 11.3955 15.1655 11.4289 15.1955 11.3955M17.8477 10.8851C17.881 10.9018 17.9277 10.9185 17.9444 10.9318C17.9611 10.8985 18.0245 10.8517 18.0712 10.8384M16.7134 11.222C16.6967 11.1553 16.7301 11.0786 16.8268 11.0452M16.0896 11.4923C16.1063 11.4589 16.1063 11.4122 16.1229 11.3822M15.3857 11.5423C15.369 11.5757 15.339 11.6057 15.339 11.6357M15.1455 11.5723C15.1455 11.5723 15.1455 11.5557 15.1622 11.5557C15.1955 11.5423 15.2422 11.5089 15.2589 11.4756M17.3206 11.3488C17.2872 11.3655 17.2739 11.3488 17.2572 11.3321M17.3039 11.4289C17.3039 11.4289 17.2906 11.4456 17.2705 11.4456M17.384 11.5089C17.3673 11.5256 17.3506 11.5423 17.3373 11.5423M17.8477 11.5423C17.881 11.5256 17.8977 11.4923 17.9144 11.4289M17.6408 11.5256C17.6875 11.5089 17.7209 11.4756 17.7676 11.4289M18.0879 11.3955C18.0879 11.3622 18.0879 11.3321 18.1046 11.3021M19.2722 11.5423C19.2388 11.5089 19.2388 11.4622 19.2888 11.4289C19.3222 11.4122 19.3356 11.3955 19.3689 11.3822" stroke="black" stroke-width="0.0457464"/>
<path d="M18.2945 10.9785C18.0409 10.8684 18.0576 10.725 17.8474 10.7417M19.4321 11.4789C19.4488 11.4923 19.4321 11.5423 19.4321 11.5557M19.5755 11.4789C19.5588 11.5256 19.5588 11.5423 19.5588 11.589M18.3445 9.97437H18.2111M17.0001 10.5181C17.0001 10.5515 17.0501 10.6149 17.1769 10.6149C17.1602 10.6149 17.1435 10.5982 17.1435 10.5982M17.0635 10.3247C17.0501 10.3413 17.0301 10.3247 17.0301 10.3247C17.0001 10.2913 17.0501 10.2312 17.0968 10.1979C17.0501 10.2146 17.0168 10.2146 16.9834 10.2146C16.9501 10.3113 16.8566 10.358 16.7933 10.2946C16.7766 10.358 16.6965 10.4381 16.6331 10.4214C16.5664 10.388 16.5531 10.3413 16.5664 10.2946C16.4897 10.388 16.3929 10.328 16.3629 10.2946C16.3462 10.2613 16.3629 10.1812 16.3963 10.0845" stroke="black" stroke-width="0.0457464"/>
<path d="M18.0881 10.9314C18.0414 10.9648 17.9913 10.9314 17.9446 10.9814C17.9113 11.0148 17.9613 11.0281 17.9913 11.0281C17.978 11.0782 17.978 11.0949 18.0581 11.0949C18.0247 11.1416 18.1214 11.1582 18.1048 11.2216C18.1249 11.2008 18.1387 11.1747 18.1446 11.1464C18.1505 11.118 18.1482 11.0886 18.1381 11.0615C18.1214 11.0115 18.038 10.9814 18.0881 10.9314Z" fill="black"/>
<path d="M16.6335 10.4212C16.5668 10.3878 16.5535 10.3411 16.5668 10.2944C16.5535 10.3278 16.5234 10.3411 16.4901 10.3411C16.4234 10.4846 16.3466 10.6147 16.2499 10.6147C16.1365 10.628 16.1531 10.7415 16.2332 10.7415C16.41 10.7748 16.4901 10.7081 16.6335 10.4212ZM15.0522 10.0376C15.0989 9.99085 15.0656 9.94081 15.0356 9.92746C14.9855 9.91078 14.8921 9.92746 14.8421 10.0042C14.8921 9.99085 14.9421 9.99085 14.9555 10.0209C14.9722 10.0542 15.0022 10.0876 15.0522 10.0376ZM15.1323 9.75065C15.2424 9.75065 15.2758 9.76733 15.2891 9.81404C15.3058 9.8474 15.2758 9.8941 15.2424 9.8941C15.1957 9.8941 15.1456 9.86074 15.1623 9.8474C15.179 9.81404 15.179 9.76733 15.129 9.74731L15.1323 9.75065ZM15.4492 10.0042C15.5293 10.0209 15.5627 9.97083 15.5159 9.91078C15.4993 9.86074 15.4492 9.83072 15.3692 9.84406C15.4492 9.8941 15.3692 9.97417 15.4492 10.0042ZM14.8587 10.2777C14.8731 10.3061 14.8971 10.3284 14.9265 10.3407C14.9558 10.3529 14.9886 10.3543 15.0189 10.3445C15.0656 10.3245 15.0856 10.2777 15.0656 10.2444C15.0322 10.1977 14.9855 10.181 14.9722 10.2444C14.9388 10.3111 14.8921 10.2944 14.8587 10.2777ZM15.0989 11.2519C15.0656 11.1885 14.9722 11.1885 14.8921 11.2519C14.9255 11.2352 14.9855 11.2519 15.0022 11.2852C15.0189 11.3186 15.0522 11.3186 15.0689 11.3186C15.0823 11.3019 15.1156 11.2852 15.0989 11.2519ZM15.2257 11.1585C15.2257 11.0784 15.1156 11.0584 15.0522 11.0917C15.0856 11.0917 15.1323 11.1251 15.1323 11.1585C15.1456 11.1918 15.179 11.2052 15.1957 11.2052C15.229 11.1885 15.2424 11.1718 15.229 11.1585H15.2257ZM15.0656 11.4454C14.9722 11.4287 14.9221 11.5421 14.9221 11.6188C14.9388 11.5721 14.9888 11.5421 15.0356 11.5555C15.0823 11.5555 15.0989 11.5421 15.0989 11.5087C15.1156 11.4754 15.0989 11.462 15.0656 11.442V11.4454ZM15.0823 11.7156C15.1156 11.7323 15.149 11.6989 15.1623 11.6522C15.1623 11.6188 15.229 11.6188 15.2424 11.6355C15.2758 11.6522 15.2758 11.7156 15.2257 11.7489C15.1923 11.7656 15.1156 11.7823 15.0823 11.7156ZM17.3041 11.2352C17.2707 11.2219 17.194 11.1885 17.1306 11.2352C17.1773 11.2219 17.2107 11.2519 17.224 11.2852C17.224 11.3186 17.274 11.3319 17.2907 11.3019C17.3041 11.2852 17.3241 11.2519 17.3041 11.2352ZM17.1606 11.3486C17.0972 11.3153 17.0172 11.3953 17.0005 11.462C17.0331 11.4355 17.0723 11.4182 17.1139 11.412C17.1473 11.4287 17.1773 11.412 17.1773 11.3786C17.194 11.3653 17.194 11.3486 17.1606 11.3486ZM17.244 11.4787C17.194 11.4787 17.1306 11.5421 17.1306 11.6055C17.1439 11.5721 17.1773 11.5555 17.2107 11.5721C17.244 11.5721 17.2907 11.5555 17.2907 11.5254C17.2907 11.4921 17.274 11.4754 17.2407 11.4754L17.244 11.4787ZM17.3841 11.6055C17.3508 11.5888 17.3041 11.6055 17.3041 11.6522C17.3041 11.6989 17.3041 11.7489 17.2907 11.7656C17.3241 11.7323 17.3541 11.7156 17.3841 11.6989C17.4008 11.6856 17.4175 11.6355 17.3841 11.6055ZM19.1923 11.462C19.1589 11.4287 19.1122 11.4454 19.0955 11.4754C19.0789 11.5087 19.0622 11.5888 19.0955 11.6522C19.0955 11.6188 19.1289 11.5721 19.1623 11.5721C19.209 11.5555 19.2223 11.4921 19.1923 11.462ZM19.289 11.5254C19.2223 11.5588 19.2223 11.6689 19.2723 11.7323C19.2723 11.6989 19.289 11.6522 19.319 11.6355C19.3691 11.6355 19.3858 11.5721 19.3691 11.5421C19.3357 11.5087 19.3024 11.5254 19.289 11.5254ZM19.4792 11.5888C19.4458 11.5721 19.4125 11.6055 19.4125 11.6355C19.3991 11.6856 19.4325 11.7489 19.4792 11.779C19.4792 11.7456 19.4959 11.7156 19.5125 11.6989C19.5592 11.6655 19.5459 11.6055 19.4792 11.5888ZM19.6226 11.5721C19.5893 11.5721 19.5592 11.6188 19.5893 11.6689C19.6059 11.7022 19.6393 11.7156 19.7027 11.7022C19.686 11.7022 19.656 11.6522 19.6693 11.6355C19.686 11.6022 19.6693 11.5721 19.6226 11.5721Z" fill="#073163"/>
<path d="M15.179 14.5619L15.9796 12.0999L16.7803 14.5619L14.6819 13.044H17.2773L15.179 14.5619Z" fill="#F9D050"/>
<path d="M15.339 14.3384L17.0003 13.1241H14.9553L16.6 14.3384L15.9795 12.3901L15.339 14.3384Z" fill="#024919"/>
<path d="M18.1848 14.5619L18.9855 12.0999L19.7861 14.5619L17.6877 13.044H20.2832L18.1848 14.5619Z" fill="#F9D050"/>
<path d="M18.3449 14.3384L20.0062 13.1241H17.9612L19.6059 14.3384L18.9854 12.3901L18.3449 14.3384Z" fill="#024919"/>
<path d="M16.6803 16.3033L17.4809 13.8413L18.2816 16.3033L16.1832 14.7854H18.7786L16.6803 16.3033Z" fill="#F9D050"/>
<path d="M16.8404 16.0801L18.5017 14.8658H16.4567L18.1014 16.0801L17.4809 14.1318L16.8404 16.0801Z" fill="#024919"/>
<path d="M20.47 9.54386V12.6597C20.47 15.3619 19.1923 16.2894 17.4809 17.0233C15.7695 16.2894 14.4784 15.3619 14.4784 12.6597V9.54053H20.47V9.54386Z" stroke="black" stroke-width="0.0457464"/>
<path d="M-3.9 0H28.1V24H-3.9V0Z" fill="#012169"/>
<path d="M13.842 7.35034H22.2054L22.1932 13.3044C22.2624 15.6934 20.7728 17.1788 18.0298 17.8503C16.0804 17.362 13.838 16.3649 13.8298 13.3736L13.842 7.35034Z" fill="white"/>
<path d="M14.0252 7.5293H22.0182L22.0101 13.2351C22.0752 15.5264 20.6508 16.9467 18.0299 17.5898C16.1659 17.1258 14.0212 16.1653 14.0171 13.3002L14.0252 7.5293Z" fill="#00A2BD" stroke="black" stroke-width="0.0675"/>
<path d="M21.9571 13.9104C21.6641 16.0959 19.9792 17.0523 18.0298 17.561C16.3001 17.097 14.4403 16.3563 14.0821 13.9185L21.9571 13.9104Z" fill="#A53D08"/>
<path d="M17.7124 8.59201L17.7002 7.87573L18.2699 7.8798L18.274 8.59201H19.8286L19.8327 9.14957L18.274 9.15771L18.2618 15.7263L17.7083 15.7304L17.7002 9.14957L16.1536 9.15771V8.58794L17.7124 8.59201Z" fill="black"/>
<path fill-rule="evenodd" clip-rule="evenodd" d="M16.4508 14.1791L17.8752 15.6564C18.3677 15.1152 18.0258 13.0925 17.3787 12.7221C17.3014 12.9623 17.1712 13.2512 17.0287 13.3407C16.7235 13.5524 15.9665 13.7966 16.2189 13.9512C16.2758 13.8739 16.4264 13.8006 16.4997 13.9756C16.5811 14.2564 16.1822 14.2727 16.1822 14.2727C16.1822 14.2727 15.9299 14.2402 15.8851 13.9878C15.8444 13.7274 16.2636 13.4913 16.3002 13.4751C16.3328 13.4628 16.8822 13.3123 16.9758 12.828C17.0939 12.3477 17.2119 12.421 17.2322 12.4128C17.9526 12.482 18.4206 13.7681 18.4491 14.6716C18.4735 15.5751 18.0828 16.1774 18.0096 16.2181C17.9404 16.2547 16.3002 14.2687 16.3002 14.2687L16.4549 14.1791H16.4508Z" fill="#FF9A08" stroke="black" stroke-width="0.03"/>
<path d="M17.4926 12.8037L17.5008 15.4694L17.4926 12.8037ZM17.3298 12.8566L17.342 15.2741L17.3298 12.8566ZM17.1589 13.2066L17.167 15.1275L17.1589 13.2066ZM17.0165 13.3409L17.0246 14.9322L17.0165 13.3409ZM16.8659 13.4142V14.7572V13.4142ZM16.7031 13.52V14.5822V13.52ZM16.5606 13.6055V14.4194V13.6055Z" fill="#FF9A08"/>
<path d="M17.4926 12.8037L17.5008 15.4694M17.3298 12.8566L17.342 15.2741M17.1589 13.2066L17.167 15.1275M17.0165 13.3409L17.0246 14.9322M16.8659 13.4142V14.7572M16.7031 13.52V14.5822M16.5606 13.6055V14.4194" stroke="black" stroke-width="0.03"/>
<path d="M16.4305 14.3513L17.8956 16.0281" stroke="#FFDF00" stroke-width="0.03" stroke-linecap="round"/>
<path d="M17.969 13.293C17.969 13.293 18.6364 14.7459 18.0178 15.9383M16.2597 14.0418C16.2597 14.0418 16.3085 13.9156 16.3696 13.9686M16.1457 13.6715C16.1457 13.6715 15.8771 13.9034 16.0236 14.0581" stroke="#FFDF00" stroke-width="0.0525" stroke-linecap="round"/>
<path d="M18.2822 9.97113C18.3758 9.88973 18.4287 9.83683 18.4897 9.84904C18.5508 9.85718 18.6322 9.84904 18.6932 9.83276C18.8534 9.79556 19.0193 9.79003 19.1816 9.81648C19.2223 9.82462 19.2833 9.84497 19.3688 9.91822C19.4543 9.99148 19.5804 10.1217 19.5397 10.4717C19.499 10.8217 19.5112 10.9723 19.4909 11.1717C19.4583 11.5176 19.381 11.8025 19.2467 11.7822C19.4298 12.1078 19.4502 12.3926 19.5723 12.6165C19.6944 12.8403 19.7676 13.3002 19.7229 13.7967C19.674 14.2973 19.5438 15.4124 19.9386 16.1653C19.8735 16.2101 19.7147 16.1653 19.5723 16.0147C19.4298 15.8642 19.3688 15.8682 19.2548 15.9578C18.8967 16.2304 18.563 16.5601 18.0705 16.2304C17.9566 16.1572 17.924 16.0676 18.0054 15.8357C18.2089 15.2659 18.3107 14.4764 18.2781 14.1101V9.97113H18.2822Z" fill="#008021" stroke="black" stroke-width="0.01125"/>
<path d="M18.6201 9.62063C18.6526 9.71028 18.6511 9.80871 18.616 9.89737C18.5913 9.9517 18.5802 10.0112 18.5838 10.0708C18.5873 10.1304 18.6054 10.1882 18.6364 10.2392C18.7463 10.0764 18.905 10.109 19.0027 10.0195C19.0922 9.92586 19.1125 9.83632 19.1817 9.81597C19.1125 9.75493 19.0067 9.68574 19.0271 9.51074C19.0515 9.33167 19.2997 9.18516 19.0759 8.91656C19.0425 8.87356 18.9987 8.83964 18.9488 8.81792C18.8988 8.79619 18.8442 8.78735 18.7899 8.79221C18.7356 8.79707 18.6835 8.81548 18.6382 8.84573C18.5928 8.87599 18.5558 8.91713 18.5306 8.96539C18.5184 8.99795 18.5387 9.06307 18.5021 9.10377C18.4788 9.13588 18.4498 9.16346 18.4166 9.18516C18.3963 9.20144 18.384 9.22179 18.4085 9.25028C18.4166 9.26249 18.4329 9.26249 18.4492 9.26656L18.4166 9.3276C18.4044 9.33981 18.4085 9.35202 18.4247 9.3683C18.4044 9.42121 18.441 9.42935 18.4166 9.47004C18.3922 9.50667 18.3678 9.55144 18.441 9.59214C18.4654 9.60435 18.5631 9.6247 18.6201 9.62063ZM17.7044 10.5567C17.5742 10.5892 17.3625 10.5323 17.2038 10.5485C17.1306 10.5567 17.0736 10.52 17.0817 10.4509C17.0939 10.3817 17.1061 10.2718 17.0899 10.1741C17.0914 9.96371 17.1445 9.75689 17.2445 9.57179C17.325 9.42541 17.3774 9.26531 17.3992 9.0997C17.3992 9.02237 17.4073 8.94097 17.4724 8.89621C17.5213 8.86772 17.5294 8.83923 17.5457 8.81481C17.5864 8.75377 17.6271 8.74156 17.6271 8.77411C17.6311 8.79446 17.6271 8.81481 17.6067 8.83923C17.6474 8.80667 17.7207 8.76597 17.737 8.75784C17.7532 8.74156 17.8346 8.68458 17.8387 8.74156C17.8713 8.72528 17.8957 8.72528 17.9038 8.74156C17.912 8.7619 17.9038 8.77004 17.8916 8.78225C17.916 8.78225 17.9404 8.81888 17.8916 8.85551C17.9201 8.84737 17.9445 8.88807 17.8997 8.9247C17.859 8.96539 17.8021 8.98981 17.7899 9.02237C17.7736 9.05493 17.6596 9.14039 17.6149 9.15667C17.5701 9.17702 17.566 9.20144 17.566 9.26656C17.566 9.99097 17.4846 9.92993 17.4846 10.109C17.4846 10.1497 17.4724 10.1945 17.5172 10.1823C17.5773 10.1603 17.6405 10.1479 17.7044 10.1456V10.5526V10.5567ZM17.7329 12.1113C17.9445 12.0055 18.1887 11.9648 18.3149 11.9323C18.4611 11.8855 18.6027 11.8255 18.7381 11.7532C18.8399 11.7003 18.9213 11.6311 18.9782 11.6107C19.045 11.5895 19.1006 11.5427 19.1329 11.4805C19.2932 11.2102 19.3893 10.9066 19.4137 10.5933C19.4137 10.4305 19.373 10.2433 19.2102 10.3735C19.0442 10.5167 18.9203 10.7024 18.8521 10.9107C18.787 11.1712 18.73 11.2323 18.7178 11.2811C18.7015 11.334 18.6527 11.334 18.5875 11.3462C18.3819 11.3782 18.1898 11.4686 18.034 11.6067C17.8494 11.7434 17.6564 11.8684 17.4561 11.9811C17.3056 12.0666 17.2771 12.0747 17.2445 12.1439C17.212 12.209 17.1794 12.266 17.155 12.2904C17.1224 12.323 17.1143 12.3555 17.1224 12.3962C17.1265 12.4288 17.1143 12.5671 17.1102 12.616C17.1102 12.6648 17.1224 12.673 17.1387 12.677C17.155 12.677 17.1794 12.6689 17.1916 12.6119C17.1835 12.6689 17.2608 12.6526 17.2649 12.6078C17.2649 12.6689 17.3463 12.6323 17.3463 12.5753C17.3463 12.616 17.4154 12.5875 17.4154 12.5753C17.4317 12.5224 17.4439 12.4735 17.4643 12.4369C17.4887 12.3799 17.5172 12.3067 17.5742 12.2741C17.6352 12.2253 17.6067 12.1764 17.7329 12.1113ZM19.255 15.9573C19.2672 16.0102 19.2957 16.0671 19.3038 16.1038C19.312 16.1363 19.2957 16.1485 19.2875 16.1689C19.2329 16.2823 19.1945 16.4029 19.1736 16.527C19.1736 16.5759 19.1329 16.6247 19.1207 16.6573C19.1003 16.6898 19.1085 16.7183 19.1532 16.7509C19.1695 16.7631 19.2346 16.7427 19.2387 16.7102C19.2672 16.7346 19.3038 16.7264 19.3242 16.6898C19.3486 16.7102 19.3852 16.6979 19.4056 16.6613C19.4259 16.6735 19.4585 16.6491 19.4707 16.6288C19.5032 16.645 19.5358 16.6288 19.5358 16.5636C19.5358 16.5474 19.548 16.523 19.5561 16.5107C19.5643 16.4945 19.5684 16.466 19.5684 16.4416C19.5684 16.4131 19.5806 16.3602 19.605 16.3276C19.6294 16.2869 19.666 16.2259 19.6497 16.1648C19.6335 16.1078 19.609 16.1119 19.5887 16.0346C19.5358 15.9776 19.4666 15.9043 19.3934 15.8962C19.3201 15.8962 19.2794 15.941 19.255 15.9573ZM17.916 16.3602C17.9852 16.4253 18.1317 16.4253 18.2335 16.3195C18.1968 16.3032 18.1114 16.2625 18.0788 16.2381C18.0334 16.2894 17.978 16.3309 17.916 16.3602Z" fill="#FFE1CF" stroke="black" stroke-width="0.01125"/>
<path d="M18.5833 8.89697C18.6077 8.73418 18.7257 8.73418 18.799 8.75453C18.8316 8.7586 18.9048 8.76674 18.9781 8.74639C19.1164 8.70976 19.2223 8.7586 19.206 8.8929C19.2467 8.92139 19.2874 8.98651 19.2752 9.04349C19.2711 9.10046 19.2833 9.12488 19.3321 9.12895C19.385 9.13709 19.4949 9.20221 19.4217 9.29174C19.4909 9.33244 19.5438 9.44232 19.5071 9.51151C19.4705 9.58476 19.3606 9.59697 19.3118 9.53186C19.2589 9.55628 19.1775 9.56035 19.1246 9.50744C19.0879 9.54814 19.0025 9.54407 18.9821 9.50744C18.9659 9.46674 18.9414 9.45046 18.9048 9.43825C18.8682 9.42604 18.8641 9.3243 18.9211 9.31209C18.917 9.27953 18.9211 9.24697 18.9333 9.23069C18.9455 9.21442 18.9333 9.18186 18.9007 9.15744C18.8682 9.12895 18.8397 9.03535 18.8723 8.97837C18.8153 8.99872 18.6932 8.94174 18.6688 8.90511C18.6403 8.86442 18.6036 8.86442 18.5833 8.89697Z" fill="#870F00" stroke="black" stroke-width="0.01125"/>
<path d="M18.6199 9.62157C18.7094 9.60937 18.742 9.55646 18.8071 9.55646M18.4245 9.36518L18.4449 9.37739C18.4612 9.3896 18.4856 9.39367 18.5019 9.39367M18.449 9.2675L18.4897 9.29192M18.6606 8.89716C18.6077 8.84425 18.7501 8.7425 18.9048 8.88902C18.9373 8.92157 19.0065 8.92157 19.0269 8.91343M18.8722 8.97855C18.9455 8.96227 19.0472 8.96227 19.0798 9.04367C19.1123 9.12506 19.1734 9.06809 19.2222 9.16576C19.2711 9.25937 19.3443 9.36111 19.4257 9.28785M19.1245 9.50762C19.1129 9.48823 19.1055 9.46664 19.1027 9.44422C19.0999 9.4218 19.1018 9.39904 19.1083 9.37739C19.0798 9.34483 19.092 9.27564 19.1083 9.24309M18.9211 9.31227C18.9211 9.34076 18.9618 9.39367 19.0187 9.40181M19.3118 9.53204C19.2792 9.49134 19.2833 9.45064 19.2914 9.40181" stroke="black" stroke-width="0.01125"/>
<path d="M18.9699 9.05986C18.9699 9.10463 18.9943 9.16161 19.035 9.18196C19.0472 9.20638 19.092 9.27149 19.1897 9.26335M19.206 8.89707C19.1463 8.84329 19.0731 8.80672 18.9943 8.79126M18.6362 10.2401C18.5548 10.35 18.506 10.5006 18.5385 10.7122C18.5792 10.9238 18.6362 11.2331 18.4856 11.3715M19.2426 11.7825C19.1368 11.7541 18.9821 11.7541 18.8967 11.8192C18.8153 11.8802 18.6687 11.8843 18.5751 11.8354" stroke="black" stroke-width="0.01125"/>
<path d="M19.0146 11.7697C18.921 11.786 18.8803 11.8552 18.8803 12.0302C18.8803 12.2011 18.8396 12.4534 18.8722 12.7058M18.8477 11.847C18.7826 11.8633 18.7175 11.8633 18.7338 12.0302M18.5262 12.0302C18.5303 11.9325 18.5669 11.8348 18.632 11.8552M19.2059 12.0546C19.2059 11.8267 19.157 11.7656 19.0919 11.7697C19.1815 11.7697 19.2425 11.7819 19.2832 12.1441C19.3076 12.4209 19.3646 12.5104 19.4338 12.7302C19.6006 13.2837 19.5152 14.1343 19.6006 14.4395M19.0756 12.1197C19.3086 12.7692 19.3028 13.4805 19.0594 14.1261C19.2547 14.6715 19.4501 15.0662 19.4867 15.2901M18.514 13.3366C18.5466 13.2186 18.4245 13.2063 18.5303 12.7953C18.5751 12.6162 18.5832 12.5104 18.5547 12.4534" stroke="black" stroke-width="0.01125"/>
<path d="M18.5547 12.6978C18.514 12.8768 18.689 13.2187 18.6035 13.471M18.3797 13.5158C18.3797 13.6786 18.4163 13.8821 18.4082 14.0448C18.4 14.2036 18.4651 14.2768 18.5384 14.4274C18.8151 14.9728 18.9942 15.3594 18.9738 15.8722C18.9657 15.9698 18.9983 16.1652 18.9006 16.2222M18.3878 16.3605C18.4163 16.3605 18.4448 16.3443 18.4814 16.2629C18.5698 15.9592 18.6029 15.6422 18.5791 15.3268M18.6361 15.7175C18.6523 15.8233 18.6523 16.0431 18.5831 16.2222" stroke="black" stroke-width="0.01125"/>
<path d="M18.8152 15.3965C18.8559 15.6244 18.8559 15.832 18.8193 15.9785M18.7216 15.9785C18.7298 16.068 18.7705 16.3041 18.7013 16.3244M19.0757 14.8878C19.2507 15.1605 19.385 15.832 19.5315 15.9703M19.2222 15.8645C19.2222 15.7913 19.2181 15.6855 19.1734 15.6366M17.346 12.5762C17.3501 12.5273 17.342 12.4785 17.3989 12.3971M17.2646 12.6087C17.2728 12.4296 17.2687 12.4134 17.3216 12.3645M17.1914 12.6128C17.1914 12.4825 17.1792 12.4378 17.2321 12.3564M17.8385 8.74243L17.6553 8.8808M17.8914 8.78313C17.871 8.78313 17.8059 8.84011 17.6879 8.92964M17.8955 8.85639C17.8548 8.87266 17.7896 8.93778 17.7245 8.98662M17.6065 8.84418L17.5414 8.90929M19.2385 16.711C19.2303 16.7029 19.2303 16.6581 19.2507 16.6134M19.328 16.6907C19.3117 16.6785 19.328 16.6215 19.3362 16.5849M19.4053 16.6622C19.3891 16.6541 19.385 16.6215 19.4053 16.5808M19.4664 16.6296C19.4582 16.6296 19.4542 16.6052 19.4705 16.5564" stroke="black" stroke-width="0.01125"/>
<path d="M18.5467 9.04794C18.5792 9.08864 18.6158 9.08864 18.6199 9.11306C18.6281 9.14562 18.6321 9.14562 18.6362 9.15376C18.6443 9.16189 18.6199 9.16189 18.6118 9.15376H18.5548C18.5385 9.15376 18.5222 9.13341 18.5304 9.13341C18.5426 9.12934 18.5426 9.12527 18.5385 9.11713C18.5385 9.10492 18.5467 9.09271 18.5548 9.08864L18.5507 9.07643C18.5426 9.06422 18.5385 9.03573 18.5467 9.04387V9.04794ZM18.567 9.00317C18.6186 9.01054 18.6668 9.03323 18.7054 9.06829C18.7339 9.10085 18.7094 9.09271 18.6972 9.09271C18.685 9.09271 18.6565 9.08457 18.6403 9.06829C18.6189 9.04587 18.5924 9.02909 18.5629 9.01945C18.5507 9.01945 18.5385 9.00317 18.5629 9.00317H18.567Z" fill="black"/>
<path d="M-3.9 0H12.1V12H-3.9V0Z" fill="#012169"/>
<path d="M-2.025 0L4.075 4.525L10.15 0H12.1V1.55L6.1 6.025L12.1 10.475V12H10.1L4.1 7.525L-1.875 12H-3.9V10.5L2.075 6.05L-3.9 1.6V0H-2.025Z" fill="white"/>
<path d="M6.7 7.025L12.1 11V12L5.325 7.025H6.7ZM2.1 7.525L2.25 8.4L-2.55 12H-3.9L2.1 7.525ZM12.1 0V0.075L5.875 4.775L5.925 3.675L10.85 0H12.1ZM-3.9 0L2.075 4.4H0.574998L-3.9 1.05V0Z" fill="#C8102E"/>
<path d="M2.125 0V12H6.125V0H2.125ZM-3.9 4V8H12.1V4H-3.9Z" fill="white"/>
<path d="M-3.9 4.825V7.225H12.1V4.825H-3.9ZM2.925 0V12H5.325V0H2.925Z" fill="#C8102E"/>
</g>
</g>
<defs>
<clipPath id="clip0_3053_1899">
<rect width="24" height="24" fill="white"/>
</clipPath>
<clipPath id="clip1_3053_1899">
<rect width="24" height="24" rx="12" fill="white"/>
</clipPath>
</defs>
</svg>
