<svg width="24" height="24" viewBox="0 0 24 24" fill="none" xmlns="http://www.w3.org/2000/svg">
<g clip-path="url(#clip0_2214_3799)">
<g clip-path="url(#clip1_2214_3799)">
<mask id="mask0_2214_3799" style="mask-type:luminance" maskUnits="userSpaceOnUse" x="0" y="0" width="32" height="24">
<path d="M0 0H32V24H0V0Z" fill="white"/>
</mask>
<g mask="url(#mask0_2214_3799)">
<path fill-rule="evenodd" clip-rule="evenodd" d="M0 0H32V24H0V0Z" fill="white"/>
<path fill-rule="evenodd" clip-rule="evenodd" d="M-1.32001 0.01L-1.28001 17.29L25.625 0L-1.32001 0.01Z" fill="#3662A2"/>
<path fill-rule="evenodd" clip-rule="evenodd" d="M33.32 23.9799L33.25 6.01489L6.11499 23.9899L33.315 23.9799H33.32Z" fill="#38A100"/>
<path fill-rule="evenodd" clip-rule="evenodd" d="M-1.3 18.5899L-1.28 23.9999L4.595 23.9949L33.27 4.76989L33.235 0.0648926L27.435 0.0148926L-1.3 18.5849V18.5899Z" fill="#C70000"/>
<path fill-rule="evenodd" clip-rule="evenodd" d="M10.98 8.59995L9.88999 7.93995L9.25999 9.04495L8.64999 7.93495L7.54999 8.57995L7.57999 7.30995L6.30999 7.31995L6.96999 6.22995L5.86499 5.60495L6.97499 4.98995L6.33499 3.88995L7.60499 3.91995L7.59999 2.64495L8.68499 3.30495L9.31499 2.19995L9.92499 3.30995L11.025 2.66495L10.995 3.93495L12.265 3.92495L11.605 5.01495L12.71 5.63995L11.6 6.25495L12.24 7.35495L10.97 7.32495L10.98 8.59995Z" fill="#FFE700"/>
<path fill-rule="evenodd" clip-rule="evenodd" d="M11.62 5.62006C11.62 6.90006 10.575 7.93506 9.28999 7.93506C8.00499 7.93506 6.95999 6.90006 6.95999 5.62006C6.95999 4.34006 7.99999 3.31006 9.28999 3.31006C10.58 3.31006 11.62 4.34506 11.62 5.62006Z" fill="#3662A2"/>
<path fill-rule="evenodd" clip-rule="evenodd" d="M11.115 5.61992C11.115 6.10394 10.9227 6.56814 10.5805 6.91039C10.2382 7.25265 9.77402 7.44492 9.29 7.44492C8.80598 7.44492 8.34178 7.25265 7.99953 6.91039C7.65727 6.56814 7.465 6.10394 7.465 5.61992C7.465 5.1359 7.65727 4.67171 7.99953 4.32945C8.34178 3.9872 8.80598 3.79492 9.29 3.79492C9.77402 3.79492 10.2382 3.9872 10.5805 4.32945C10.9227 4.67171 11.115 5.1359 11.115 5.61992Z" fill="#FFE700"/>
</g>
</g>
</g>
<defs>
<clipPath id="clip0_2214_3799">
<path d="M0 12C0 5.37258 5.37258 0 12 0C18.6274 0 24 5.37258 24 12C24 18.6274 18.6274 24 12 24C5.37258 24 0 18.6274 0 12Z" fill="white"/>
</clipPath>
<clipPath id="clip1_2214_3799">
<rect width="32" height="24" fill="white"/>
</clipPath>
</defs>
</svg>
