<svg width="24" height="24" viewBox="0 0 24 24" fill="none" xmlns="http://www.w3.org/2000/svg">
<path d="M14.6584 3.88381L14.3996 2.91789L14.3996 2.9179L14.6584 3.88381ZM16.72 3.83791L16.9352 2.86135L16.9352 2.86134L16.72 3.83791ZM17.2913 5.47268L16.4252 4.97268L16.4252 4.97274L17.2913 5.47268ZM16.7659 6.38283L15.8998 5.8829C15.6745 6.27318 15.7381 6.76593 16.0551 7.08624L16.7659 6.38283ZM18.6008 9.50588L17.6378 9.77525C17.7586 10.2072 18.1523 10.5059 18.6008 10.5059V9.50588ZM20.0344 13.2686L21.0344 13.2686V13.2686H20.0344ZM18.5364 14.6016L18.5361 15.6016H18.5364V14.6016ZM18.0872 14.5225L18.4247 13.5812C17.9519 13.4116 17.4267 13.6191 17.1974 14.0661L18.0872 14.5225ZM16.5354 16.5645L15.8547 15.8319C15.5499 16.1152 15.4523 16.5575 15.6097 16.9427L16.5354 16.5645ZM16.636 17.0674H17.636V17.0671L16.636 17.0674ZM16.636 18.9317L17.636 18.9319V18.9317H16.636ZM12.1057 18.9317H11.1057V18.9319L12.1057 18.9317ZM12.1057 18.6416H13.1057C13.1057 18.3525 12.9806 18.0775 12.7626 17.8876C12.5446 17.6977 12.2551 17.6114 11.9687 17.6511L12.1057 18.6416ZM10.928 18.7237V19.7237H10.928L10.928 18.7237ZM9.27759 18.5615L9.47055 17.5803C9.17714 17.5226 8.8733 17.5993 8.64236 17.7892C8.41141 17.9792 8.27759 18.2625 8.27759 18.5615H9.27759ZM7.94458 20.2647V21.2647H7.94485L7.94458 20.2647ZM6.64673 20.2647L6.64657 21.2647H6.64673V20.2647ZM5.31372 17.0674L4.31372 17.0673V17.0674H5.31372ZM5.38892 16.627L6.33272 16.9575C6.46553 16.5782 6.35843 16.1563 6.06081 15.8863L5.38892 16.627ZM3.00024 11.3614L2.00024 11.3613V11.3614H3.00024ZM10.928 4.00002L10.928 3.00002H10.928V4.00002ZM13.4836 4.3926L13.1822 5.34609C13.461 5.43423 13.7644 5.39592 14.0126 5.24126L13.4836 4.3926ZM14.6584 3.88381L14.9173 4.84974C15.4403 4.70959 15.9848 4.69989 16.5048 4.81448L16.72 3.83791L16.9352 2.86134C16.1057 2.67856 15.236 2.69377 14.3996 2.91789L14.6584 3.88381ZM16.72 3.83791L16.5047 4.81448C16.5083 4.81525 16.4917 4.81089 16.4736 4.79355C16.4582 4.77883 16.4577 4.77018 16.461 4.78043C16.4646 4.79168 16.4695 4.81732 16.4652 4.85485C16.4609 4.89156 16.4484 4.93256 16.4252 4.97268L17.2913 5.47268L18.1573 5.97268C18.4757 5.42117 18.5546 4.76073 18.3658 4.17074C18.1696 3.55774 17.6774 3.02493 16.9352 2.86135L16.72 3.83791ZM17.2913 5.47268L16.4252 4.97274L15.8998 5.8829L16.7659 6.38283L17.6319 6.88277L18.1573 5.97262L17.2913 5.47268ZM16.7659 6.38283L16.0551 7.08624C16.8065 7.84553 17.3553 8.76518 17.6378 9.77525L18.6008 9.50588L19.5639 9.23651C19.1845 7.88034 18.4534 6.66639 17.4767 5.67943L16.7659 6.38283ZM18.6008 9.50588V10.5059H18.7014V9.50588V8.50588H18.6008V9.50588ZM18.7014 9.50588V10.5059C18.8855 10.5059 19.0344 10.6548 19.0344 10.8389H20.0344H21.0344C21.0344 9.55022 19.9901 8.50588 18.7014 8.50588V9.50588ZM20.0344 10.8389H19.0344V13.2686H20.0344H21.0344V10.8389H20.0344ZM20.0344 13.2686L19.0344 13.2686C19.0344 13.4527 18.8855 13.6016 18.7014 13.6016V14.6016V15.6016C19.9901 15.6016 21.0344 14.5572 21.0344 13.2686L20.0344 13.2686ZM18.7014 14.6016V13.6016H18.5364V14.6016V15.6016H18.7014V14.6016ZM18.5364 14.6016L18.5366 13.6016C18.501 13.6016 18.464 13.5953 18.4247 13.5812L18.0872 14.5225L17.7496 15.4638C17.9913 15.5505 18.2561 15.6015 18.5361 15.6016L18.5364 14.6016ZM18.0872 14.5225L17.1974 14.0661C16.861 14.7218 16.4066 15.3191 15.8547 15.8319L16.5354 16.5645L17.2161 17.297C17.9341 16.6298 18.5317 15.8468 18.9769 14.9789L18.0872 14.5225ZM16.5354 16.5645L15.6097 16.9427C15.6283 16.9882 15.636 17.0296 15.636 17.0677L16.636 17.0674L17.636 17.0671C17.6359 16.7488 17.5695 16.4515 17.4611 16.1863L16.5354 16.5645ZM16.636 17.0674H15.636V18.9317H16.636H17.636V17.0674H16.636ZM16.636 18.9317L15.636 18.9314C15.6359 19.1148 15.4867 19.2647 15.302 19.2647V20.2647V21.2647C16.5898 21.2647 17.6357 20.2209 17.636 18.9319L16.636 18.9317ZM15.302 20.2647V19.2647H13.4387V20.2647V21.2647H15.302V20.2647ZM13.4387 20.2647V19.2647C13.255 19.2647 13.1058 19.1158 13.1057 18.9314L12.1057 18.9317L11.1057 18.9319C11.106 20.22 12.1499 21.2647 13.4387 21.2647V20.2647ZM12.1057 18.9317H13.1057V18.6416H12.1057H11.1057V18.9317H12.1057ZM12.1057 18.6416L11.9687 17.6511C11.6274 17.6983 11.2801 17.7237 10.928 17.7237L10.928 18.7237L10.928 19.7237C11.3764 19.7236 11.8154 19.6913 12.2427 19.6322L12.1057 18.6416ZM10.928 18.7237V17.7237C10.4297 17.7237 9.94243 17.6731 9.47055 17.5803L9.27759 18.5615L9.08463 19.5428C9.67763 19.6594 10.2942 19.7237 10.928 19.7237V18.7237ZM9.27759 18.5615H8.27759V18.9307H9.27759H10.2776V18.5615H9.27759ZM9.27759 18.9307H8.27759C8.27759 19.1153 8.12776 19.2646 7.94431 19.2647L7.94458 20.2647L7.94485 21.2647C9.23382 21.2643 10.2776 20.2185 10.2776 18.9307H9.27759ZM7.94458 20.2647V19.2647H6.64673V20.2647V21.2647H7.94458V20.2647ZM6.64673 20.2647L6.64689 19.2647C6.46356 19.2646 6.31372 19.1155 6.31372 18.9307H5.31372H4.31372C4.31372 20.2185 5.35733 21.2645 6.64657 21.2647L6.64673 20.2647ZM5.31372 18.9307H6.31372V17.0674H5.31372H4.31372V18.9307H5.31372ZM5.31372 17.0674L6.31372 17.0675C6.31372 17.03 6.32013 16.9934 6.33272 16.9575L5.38892 16.627L4.44511 16.2965C4.36109 16.5364 4.31375 16.796 4.31372 17.0673L5.31372 17.0674ZM5.38892 16.627L6.06081 15.8863C4.77769 14.7223 4.00024 13.119 4.00024 11.3614H3.00024H2.00024C2.00024 13.7315 3.05315 15.8582 4.71703 17.3676L5.38892 16.627ZM3.00024 11.3614L4.00024 11.3614C4.00038 7.91655 7.03085 5.00002 10.928 5.00002V4.00002V3.00002C6.06841 3.00002 2.00042 6.675 2.00024 11.3613L3.00024 11.3614ZM10.928 4.00002L10.928 5.00002C11.7183 5.00003 12.476 5.12284 13.1822 5.34609L13.4836 4.3926L13.7851 3.43911C12.8873 3.15531 11.9264 3.00003 10.928 3.00002L10.928 4.00002ZM13.4836 4.3926L14.0126 5.24126C14.2889 5.06903 14.5935 4.93652 14.9173 4.84972L14.6584 3.88381L14.3996 2.9179C13.8869 3.0553 13.4001 3.26633 12.9547 3.54394L13.4836 4.3926Z" fill="white"/>
<path d="M2.2503 8.71919C2.52644 8.24089 2.36256 7.6293 1.88427 7.35316C1.40598 7.07702 0.794387 7.24089 0.518245 7.71919L2.2503 8.71919ZM1.23543 9.91198L0.286299 10.2269L0.286299 10.2269L1.23543 9.91198ZM1.38427 8.21919L0.518245 7.71919C0.076556 8.48421 0.00930904 9.39194 0.286299 10.2269L1.23543 9.91198L2.18456 9.5971C2.07438 9.26499 2.11421 8.95488 2.2503 8.71919L1.38427 8.21919ZM1.23543 9.91198L0.286299 10.2269C0.561679 11.0569 1.15485 11.7569 1.91652 12.1967L2.41652 11.3307L2.91652 10.4646C2.55288 10.2547 2.29635 9.93406 2.18456 9.5971L1.23543 9.91198ZM2.41652 11.3307L1.91652 12.1967C2.20679 12.3643 2.51586 12.4909 2.83371 12.5744L3.08772 11.6072L3.34173 10.64C3.19623 10.6018 3.05261 10.5432 2.91652 10.4646L2.41652 11.3307Z" fill="white"/>
<circle cx="14.5503" cy="9.95482" r="1.18114" fill="white"/>
</svg>
