<svg width="24" height="24" viewBox="0 0 24 24" fill="none" xmlns="http://www.w3.org/2000/svg">
<g clip-path="url(#clip0_2214_3976)">
<path d="M11.9999 24C18.6274 24 23.9999 18.6274 23.9999 12C23.9999 5.37258 18.6274 0 11.9999 0C5.37252 0 -6.10352e-05 5.37258 -6.10352e-05 12C-6.10352e-05 18.6274 5.37252 24 11.9999 24Z" fill="white"/>
<path d="M23.2535 16.174C23.7359 14.874 23.9999 13.4679 23.9999 12.0001C23.9999 10.5322 23.7359 9.12616 23.2535 7.82617H0.74633C0.263986 9.12616 -6.10352e-05 10.5322 -6.10352e-05 12.0001C-6.10352e-05 13.4679 0.263986 14.874 0.74633 16.174L11.9999 17.2174L23.2535 16.174Z" fill="#0052B4"/>
<path d="M11.9999 23.9999C17.1595 23.9999 21.558 20.7434 23.2536 16.1738H0.746338C2.44185 20.7434 6.84037 23.9999 11.9999 23.9999Z" fill="#D80027"/>
</g>
<defs>
<clipPath id="clip0_2214_3976">
<rect width="24" height="24" fill="white"/>
</clipPath>
</defs>
</svg>
