<svg width="24" height="24" viewBox="0 0 24 24" fill="none" xmlns="http://www.w3.org/2000/svg">
<g clip-path="url(#clip0_2214_3201)">
<g clip-path="url(#clip1_2214_3201)">
<path d="M-0.000488281 0H31.9995V24H-0.000488281V0Z" fill="#EE1C25"/>
<path d="M3.83952 8.8799L5.99949 2.3999L8.15946 8.8799L2.39954 4.9199H9.59945L3.83952 8.8799Z" fill="#FFFF00"/>
<path d="M13.208 2.52418L10.9851 3.01679L12.4679 1.28896L12.3225 3.61439L11.0889 1.55568L13.208 2.52418Z" fill="#FFFF00"/>
<path d="M15.4515 5.3673L13.2115 4.95922L15.2483 3.9417L14.2124 6.02871L13.8738 3.65272L15.4515 5.3673Z" fill="#FFFF00"/>
<path d="M15.1245 9.35631L13.2458 8.07013L15.5205 7.97181L13.7234 9.45485L14.3834 7.14736L15.1245 9.35631Z" fill="#FFFF00"/>
<path d="M12.299 11.962L11.0628 10.05L13.1989 10.8379L10.9685 11.5118L12.4685 9.63823L12.299 11.962Z" fill="#FFFF00"/>
</g>
</g>
<defs>
<clipPath id="clip0_2214_3201">
<path d="M-0.000488281 12C-0.000488281 5.37258 5.3721 0 11.9995 0C18.6269 0 23.9995 5.37258 23.9995 12C23.9995 18.6274 18.6269 24 11.9995 24C5.3721 24 -0.000488281 18.6274 -0.000488281 12Z" fill="white"/>
</clipPath>
<clipPath id="clip1_2214_3201">
<rect width="32" height="24" fill="white" transform="translate(-0.000488281)"/>
</clipPath>
</defs>
</svg>
