<svg width="24" height="24" viewBox="0 0 24 24" fill="none" xmlns="http://www.w3.org/2000/svg">
<g clip-path="url(#clip0_2214_3638)">
<path d="M12 24C18.6274 24 24 18.6274 24 12C24 5.37258 18.6274 0 12 0C5.37258 0 0 5.37258 0 12C0 18.6274 5.37258 24 12 24Z" fill="white"/>
<path d="M11.9995 0.000244141C6.45512 0.000244141 1.78984 3.7606 0.412842 8.86979H23.5861C22.2091 3.7606 17.5438 0.000244141 11.9995 0.000244141Z" fill="#A2001D"/>
<path d="M11.9995 24.0002C17.5438 24.0002 22.2091 20.2398 23.5861 15.1306H0.412842C1.78984 20.2398 6.45512 24.0002 11.9995 24.0002Z" fill="#A2001D"/>
</g>
<defs>
<clipPath id="clip0_2214_3638">
<rect width="24" height="24" fill="white"/>
</clipPath>
</defs>
</svg>
