<svg width="24" height="24" viewBox="0 0 24 24" fill="none" xmlns="http://www.w3.org/2000/svg">
<g clip-path="url(#clip0_3053_1923)">
<rect width="24" height="24" rx="12" fill="#012169"/>
<path d="M-3.9 0H12.1V12H-3.9V0Z" fill="#000066"/>
<path d="M-2.025 0L4.075 4.525L10.15 0H12.1V1.55L6.1 6.025L12.1 10.475V12H10.1L4.1 7.525L-1.875 12H-3.9V10.5L2.075 6.05L-3.9 1.6V0H-2.025Z" fill="white"/>
<path d="M6.7 7.025L12.1 11V12L5.325 7.025H6.7ZM2.1 7.525L2.25 8.4L-2.55 12H-3.9L2.1 7.525ZM12.1 0V0.075L5.875 4.775L5.925 3.675L10.85 0H12.1ZM-3.9 0L2.075 4.4H0.575L-3.9 1.05V0Z" fill="#C8102E"/>
<path d="M2.125 0V12H6.125V0H2.125ZM-3.9 4V8H12.1V4H-3.9Z" fill="white"/>
<path d="M-3.9 4.825V7.225H12.1V4.825H-3.9ZM2.925 0V12H5.325V0H2.925Z" fill="#C8102E"/>
<path d="M15.4143 9.32446C15.4143 14.0395 15.961 15.6642 17.0555 16.7587C17.7083 17.4067 17.9977 17.6506 19.0112 18.3168C20.0248 17.6506 20.3141 17.4067 20.9669 16.7587C22.0614 15.6642 22.6082 14.0395 22.6082 9.32446C21.8121 9.66531 21.3584 9.83056 20.7019 9.82045C20.1147 9.81142 19.4924 9.53867 19.0112 9.32446C18.53 9.53867 17.9078 9.8114 17.3205 9.82045C16.664 9.83056 16.2104 9.66531 15.4143 9.32446Z" fill="white"/>
<path d="M19.1244 11.6861C19.2934 12.0651 19.8354 12.4837 19.9843 12.6888C19.7947 12.8939 19.7568 12.8716 19.7817 13.2527C20.1114 12.9238 20.1173 12.8895 20.3294 12.9394C20.794 13.3813 20.4126 14.3306 20.0286 14.5369C19.6448 14.7571 19.7144 14.5293 19.1391 14.8052C19.4029 15.0203 19.7085 14.7737 19.9583 14.8396C20.094 14.9931 19.8938 15.2729 19.9992 15.5364C20.22 15.5162 20.1935 15.0913 20.2448 14.9373C20.4061 14.3729 21.3756 13.9792 21.4249 13.4615C21.6293 13.3701 21.8336 13.4329 22.0821 13.566C21.9584 13.081 21.5489 13.0862 21.4391 12.9347C21.1778 12.5541 20.9463 12.1198 20.3882 12.0072C19.9646 11.9217 19.9963 12.0329 19.7248 11.8564C19.5558 11.7309 19.0423 11.4936 19.1244 11.6861Z" fill="#FF9900"/>
<path d="M20.2546 12.2001C20.3033 12.2001 20.3429 12.1624 20.3429 12.1159C20.3429 12.0694 20.3033 12.0317 20.2546 12.0317C20.2058 12.0317 20.1663 12.0694 20.1663 12.1159C20.1663 12.1624 20.2058 12.2001 20.2546 12.2001Z" fill="white"/>
<path d="M17.7702 13.2919C18.0428 12.9724 18.1778 12.32 18.2984 12.0986C18.5772 12.1626 18.5742 12.205 18.916 12.006C18.4569 11.8817 18.4224 11.8928 18.3696 11.6907C18.5624 11.0926 19.6209 10.9707 19.9917 11.1979C20.3752 11.4186 20.1314 11.4663 20.6561 11.8224C20.7323 11.4996 20.3608 11.3571 20.3053 11.1158C20.3842 10.9297 20.7373 10.9678 20.9323 10.7558C20.8104 10.5792 20.4288 10.8 20.2619 10.8286C19.6632 10.9564 18.8452 10.323 18.3421 10.5233C18.1618 10.3938 18.1246 10.1922 18.1319 9.92049C17.7399 10.2514 17.9361 10.5941 17.8469 10.7574C17.6159 11.1555 17.3214 11.5535 17.4776 12.0766C17.5962 12.4736 17.6846 12.3949 17.6476 12.7062C17.6102 12.9073 17.6301 13.4511 17.7702 13.2919Z" fill="#FF9900"/>
<path d="M17.7202 12.0986C17.6974 12.0575 17.644 12.0418 17.6009 12.0635C17.5577 12.0853 17.5413 12.1362 17.564 12.1773C17.5868 12.2184 17.6402 12.2341 17.6833 12.2124C17.7265 12.1907 17.7429 12.1397 17.7202 12.0986Z" fill="white"/>
<path d="M19.9851 13.5199C19.5573 13.4628 18.9018 13.6901 18.6407 13.7062C18.5539 13.4456 18.5935 13.4261 18.2381 13.2502C18.364 13.689 18.3918 13.7115 18.2377 13.8592C17.601 14.0112 16.9441 13.2106 16.9563 12.7905C16.956 12.3634 17.1249 12.5377 17.1732 11.9254C16.844 12.0302 16.9083 12.407 16.7204 12.5772C16.5124 12.609 16.364 12.3013 16.0728 12.2518C15.9773 12.4426 16.3729 12.6397 16.485 12.761C16.9094 13.1835 16.7639 14.1785 17.204 14.4854C17.181 14.6996 17.0192 14.8342 16.7716 14.9688C17.2714 15.1174 17.4776 14.7801 17.6703 14.7684C18.1471 14.7509 18.6568 14.7853 19.0455 14.3873C19.3406 14.0852 19.2242 14.0538 19.5228 13.9228C19.7226 13.8493 20.2005 13.5519 19.9851 13.5199Z" fill="#FF9900"/>
<path d="M18.94 14.1764C18.9149 14.2162 18.9285 14.2679 18.9702 14.2919C19.012 14.3158 19.0663 14.3029 19.0914 14.2631C19.1165 14.2232 19.103 14.1715 19.0612 14.1476C19.0194 14.1236 18.9652 14.1365 18.94 14.1764Z" fill="white"/>
<path d="M16.3166 15.7603C16.5264 16.1585 16.7725 16.4777 17.0555 16.7608C17.7083 17.4088 17.9976 17.6526 19.0112 18.3188C20.0248 17.6526 20.3142 17.4088 20.9669 16.7608C21.25 16.4777 21.496 16.1585 21.7058 15.7603H16.3166Z" fill="#99CCFF"/>
</g>
<defs>
<clipPath id="clip0_3053_1923">
<rect width="24" height="24" rx="12" fill="white"/>
</clipPath>
</defs>
</svg>
