<svg width="24" height="24" viewBox="0 0 24 24" fill="none" xmlns="http://www.w3.org/2000/svg">
<g clip-path="url(#clip0_3053_1916)">
<g clip-path="url(#clip1_3053_1916)">
<path d="M-3.9 0H28.1V24H-3.9V0Z" fill="white"/>
<path fill-rule="evenodd" clip-rule="evenodd" d="M28.1 20.81C27.74 21.145 27.435 21.91 26.48 21.91C24.575 21.91 24.1 20.285 22.67 20.285C21.72 20.285 21.245 21.91 20.29 21.91C18.385 21.91 17.91 20.285 16.48 20.285C15.53 20.285 15.055 21.91 14.105 21.91C12.195 21.91 11.72 20.285 10.29 20.285C9.34 20.285 8.86 21.91 7.91 21.91C6.005 21.91 5.53 20.285 4.1 20.285C3.15 20.285 2.67 21.91 1.72 21.91C-0.19 21.91 -0.665 20.285 -2.09 20.285C-3.04 20.285 -3.33 21.445 -3.9 21.445V23.53C-3.33 23.53 -3.045 22.38 -2.085 22.38C-0.66 22.38 -0.185 24 1.715 24C2.67 24 3.145 22.375 4.1 22.375C5.53 22.375 6.005 24 7.915 24C8.865 24 9.335 22.375 10.29 22.375C11.72 22.375 12.195 24 14.1 24C15.05 24 15.53 22.375 16.48 22.375C17.91 22.375 18.385 24 20.29 24C21.24 24 21.72 22.375 22.67 22.375C24.1 22.375 24.58 24 26.48 24C27.43 24 27.74 23.54 28.1 23.21V20.81ZM28.1 16.75C27.74 17.085 27.435 17.85 26.48 17.85C24.575 17.85 24.1 16.225 22.67 16.225C21.72 16.225 21.245 17.85 20.29 17.85C18.385 17.85 17.91 16.225 16.48 16.225C15.53 16.225 15.055 17.85 14.105 17.85C12.195 17.85 11.72 16.225 10.29 16.225C9.34 16.225 8.86 17.85 7.91 17.85C6.005 17.85 5.53 16.225 4.1 16.225C3.15 16.225 2.67 17.85 1.72 17.85C-0.19 17.85 -0.665 16.225 -2.09 16.225C-3.04 16.225 -3.33 17.385 -3.9 17.385V19.475C-3.33 19.475 -3.045 18.32 -2.085 18.32C-0.66 18.32 -0.185 19.945 1.715 19.945C2.67 19.945 3.145 18.32 4.1 18.32C5.53 18.32 6.005 19.945 7.915 19.945C8.865 19.945 9.335 18.32 10.29 18.32C11.72 18.32 12.195 19.945 14.105 19.945C15.055 19.945 15.53 18.32 16.48 18.32C17.91 18.32 18.385 19.945 20.29 19.945C21.24 19.945 21.72 18.32 22.67 18.32C24.1 18.32 24.58 19.945 26.48 19.945C27.43 19.945 27.74 19.485 28.1 19.155V16.75ZM28.1 12.695C27.74 13.03 27.435 13.795 26.48 13.795C24.575 13.795 24.1 12.17 22.67 12.17C21.72 12.17 21.245 13.795 20.29 13.795C18.385 13.795 17.91 12.17 16.48 12.17C15.53 12.17 15.055 13.795 14.105 13.795C12.195 13.795 11.72 12.17 10.29 12.17C9.34 12.17 8.86 13.795 7.91 13.795C6.005 13.795 5.53 12.17 4.1 12.17C3.15 12.17 2.67 13.795 1.72 13.795C-0.19 13.795 -0.665 12.17 -2.09 12.17C-3.04 12.17 -3.33 13.33 -3.9 13.33V15.42C-3.33 15.42 -3.045 14.26 -2.085 14.26C-0.66 14.26 -0.185 15.885 1.715 15.885C2.67 15.885 3.145 14.26 4.1 14.26C5.53 14.26 6.005 15.885 7.915 15.885C8.865 15.885 9.335 14.26 10.29 14.26C11.72 14.26 12.195 15.885 14.105 15.885C15.055 15.885 15.53 14.26 16.48 14.26C17.91 14.26 18.385 15.885 20.29 15.885C21.24 15.885 21.72 14.26 22.67 14.26C24.1 14.26 24.58 15.885 26.48 15.885C27.43 15.885 27.74 15.425 28.1 15.095V12.695ZM28.1 8.64C27.74 8.97 27.435 9.74 26.48 9.74C24.575 9.74 24.1 8.115 22.67 8.115C21.72 8.115 21.245 9.74 20.29 9.74C18.385 9.74 17.91 8.115 16.48 8.115C15.53 8.115 15.055 9.74 14.105 9.74C12.195 9.74 11.72 8.115 10.29 8.115C9.34 8.115 8.86 9.74 7.91 9.74C6.005 9.74 5.53 8.115 4.1 8.115C3.15 8.115 2.67 9.74 1.72 9.74C-0.19 9.74 -0.665 8.115 -2.09 8.115C-3.04 8.115 -3.33 9.275 -3.9 9.275V11.36C-3.33 11.36 -3.045 10.21 -2.085 10.21C-0.66 10.21 -0.185 11.83 1.715 11.83C2.67 11.83 3.145 10.205 4.1 10.205C5.53 10.205 6.005 11.83 7.915 11.83C8.865 11.83 9.335 10.205 10.29 10.205C11.72 10.205 12.195 11.83 14.105 11.83C15.055 11.83 15.53 10.205 16.48 10.205C17.91 10.205 18.385 11.83 20.29 11.83C21.24 11.83 21.72 10.205 22.67 10.205C24.1 10.205 24.58 11.83 26.48 11.83C27.43 11.83 27.74 11.365 28.1 11.035V8.64ZM28.1 4.575C27.74 4.91 27.435 5.68 26.48 5.68C24.575 5.68 24.1 4.055 22.67 4.055C21.72 4.055 21.245 5.68 20.29 5.68C18.385 5.68 17.91 4.055 16.48 4.055C15.53 4.055 15.055 5.68 14.105 5.68C12.195 5.68 11.72 4.055 10.29 4.055C9.34 4.055 8.86 5.68 7.91 5.68C6.005 5.68 5.53 4.055 4.1 4.055C3.15 4.055 2.67 5.68 1.72 5.68C-0.19 5.68 -0.665 4.055 -2.09 4.055C-3.04 4.06 -3.33 5.22 -3.9 5.22V7.31C-3.33 7.31 -3.045 6.155 -2.09 6.155C-0.665 6.155 -0.185 7.78 1.72 7.78C2.67 7.78 3.145 6.155 4.1 6.155C5.53 6.155 6.005 7.78 7.915 7.78C8.865 7.78 9.335 6.155 10.285 6.155C11.72 6.155 12.195 7.78 14.1 7.78C15.05 7.78 15.53 6.155 16.48 6.155C17.91 6.155 18.385 7.78 20.29 7.78C21.24 7.78 21.72 6.155 22.67 6.155C24.1 6.155 24.58 7.78 26.48 7.78C27.43 7.78 27.74 7.315 28.1 6.985V4.585V4.575ZM28.1 0.525C27.74 0.855 27.435 1.625 26.48 1.625C24.575 1.625 24.1 0 22.67 0C21.72 0 21.245 1.625 20.29 1.625C18.385 1.625 17.91 0 16.48 0C15.53 0 15.055 1.625 14.105 1.625C12.195 1.625 11.72 0 10.29 0C9.34 0 8.86 1.625 7.91 1.625C6 1.625 5.53 0 4.1 0C3.15 0 2.67 1.625 1.72 1.625C-0.19 1.625 -0.665 0 -2.09 0C-3.04 0 -3.33 1.16 -3.9 1.16V3.255C-3.33 3.25 -3.045 2.1 -2.09 2.1C-0.665 2.1 -0.185 3.72 1.72 3.72C2.67 3.72 3.145 2.1 4.1 2.1C5.53 2.1 6.005 3.72 7.915 3.72C8.865 3.72 9.335 2.1 10.285 2.1C11.72 2.1 12.195 3.72 14.1 3.72C15.05 3.72 15.53 2.1 16.48 2.1C17.91 2.1 18.385 3.72 20.29 3.72C21.24 3.72 21.72 2.1 22.67 2.1C24.1 2.1 24.58 3.72 26.48 3.72C27.43 3.72 27.74 3.26 28.1 2.93V0.525Z" fill="#000063"/>
<path fill-rule="evenodd" clip-rule="evenodd" d="M18.64 6.58545L18.465 23.0354C18.465 23.9004 19.25 23.9004 19.335 23.0354L19.16 6.58545H18.64Z" fill="#A24300" stroke="white" stroke-width="0.105"/>
<path fill-rule="evenodd" clip-rule="evenodd" d="M20.4349 12.7004L19.8849 12.1054L19.7549 12.7104L19.5199 11.8354L19.2949 12.2754L19.2549 11.3454L19.0349 11.7854L18.9949 10.8554L18.7749 11.2954L18.6499 10.2004L18.4299 10.6404L18.2999 9.55037L18.0749 9.99037L17.9499 8.89537L17.8849 8.34537L17.9949 8.13037L18.2849 8.23537L18.7399 8.67037L19.6549 9.54037L19.0899 9.32537L20.0049 10.1954L19.4349 9.98037L20.3499 10.8454L19.7799 10.6354L20.6099 11.3354L20.0449 11.1254L20.8699 11.8254L20.3049 11.6154L20.9349 12.3754L20.2799 11.9954L20.4299 12.7104L20.4349 12.7004Z" fill="#006D00" stroke="white" stroke-width="0.09"/>
<path d="M20.4349 12.7004L17.9999 8.13037M19.6549 9.54037L18.3499 8.78037L18.0799 9.98537" stroke="black" stroke-width="0.015"/>
<path d="M20.01 10.1905L18.695 9.43555L18.43 10.6405" stroke="black" stroke-width="0.015"/>
<path d="M20.355 10.8403L19.045 10.0903L18.775 11.2903" stroke="black" stroke-width="0.015"/>
<path d="M20.6149 11.3355L19.3899 10.7405L19.0399 11.7905" stroke="black" stroke-width="0.015"/>
<path d="M20.875 11.8252L19.65 11.2302L19.3 12.2802" stroke="black" stroke-width="0.015"/>
<path d="M20.9399 12.3703L19.8249 11.5603L19.7549 12.7103" stroke="black" stroke-width="0.015"/>
<path fill-rule="evenodd" clip-rule="evenodd" d="M14.0499 4.89555L14.9399 5.23555L14.6799 4.56055L15.4599 5.32555L15.3849 4.77555L16.0149 5.69555L15.9399 5.14555L16.5699 6.06555L16.4949 5.51555L17.3099 6.55555L17.2349 6.00555L18.0499 7.04555L17.9799 6.49555L18.7899 7.53555L19.1999 8.05555L19.2349 8.33055L18.8999 8.36055L18.1999 8.14555L16.7899 7.71055L17.4549 7.65555L16.0499 7.22055L16.7149 7.16555L15.3099 6.73055L15.9749 6.67055L14.7549 6.36055L15.4199 6.30555L14.1999 5.99555L14.8649 5.93555L13.7899 5.47055L14.6449 5.53555L14.0549 4.90055L14.0499 4.89555Z" fill="#006D00" stroke="white" stroke-width="0.1"/>
<path d="M14.05 4.89551L19.235 8.33051M16.79 7.71051L18.495 7.84051L17.98 6.49551" stroke="black" stroke-width="0.015"/>
<path d="M16.0499 7.22049L17.7499 7.35049L17.2349 6.00049" stroke="black" stroke-width="0.015"/>
<path d="M15.31 6.7305L17.01 6.8605L16.495 5.5105" stroke="black" stroke-width="0.015"/>
<path d="M14.75 6.36051L16.275 6.36551L15.94 5.14551" stroke="black" stroke-width="0.015"/>
<path d="M14.2 5.99063L15.72 6.00063L15.385 4.77563" stroke="black" stroke-width="0.015"/>
<path d="M13.7899 5.47055L15.3449 5.75555L14.6849 4.56055" stroke="black" stroke-width="0.015"/>
<path fill-rule="evenodd" clip-rule="evenodd" d="M24.39 6.04033L23.65 6.58533L24.47 6.67533L23.325 6.94533L23.935 7.12533L22.7 7.21533L23.31 7.39533L22.075 7.48533L22.68 7.67033L21.235 7.85033L21.845 8.03033L20.4 8.21033L21.01 8.39033L19.565 8.57033L18.84 8.66033L18.54 8.57033L18.65 8.30033L19.185 7.85033L20.25 6.94533L20.02 7.48533L21.085 6.58533L20.855 7.12533L21.92 6.22533L21.69 6.76533L22.55 5.95033L22.325 6.49533L23.175 5.68033L22.95 6.22033L23.9 5.59033L23.465 6.22533L24.395 6.04533L24.39 6.04033Z" fill="#006D00" stroke="white" stroke-width="0.1"/>
<path d="M24.39 6.04028L18.54 8.57028M20.245 6.94528L19.375 8.21028L21.01 8.39028" stroke="black" stroke-width="0.015"/>
<path d="M21.0849 6.58545L20.2099 7.85045L21.8449 8.03045" stroke="black" stroke-width="0.015"/>
<path d="M21.92 6.22021L21.045 7.48521L22.68 7.67021" stroke="black" stroke-width="0.015"/>
<path d="M22.5499 5.9502L21.8849 7.1252L23.3099 7.3952" stroke="black" stroke-width="0.015"/>
<path d="M23.175 5.68018L22.51 6.85518L23.935 7.12518" stroke="black" stroke-width="0.015"/>
<path d="M23.9 5.59033L22.93 6.67533H24.465" stroke="black" stroke-width="0.015"/>
<path fill-rule="evenodd" clip-rule="evenodd" d="M24.2699 11.5153L23.3499 11.2503L23.6799 11.9003L22.8249 11.2003L22.9549 11.7353L22.2299 10.8753L22.3649 11.4153L21.6399 10.5503L21.7699 11.0903L20.8449 10.1203L20.9799 10.6603L20.0549 9.69031L20.1899 10.2303L19.2649 9.26031L18.8049 8.77531L18.7399 8.50531L19.0699 8.44531L19.7949 8.60531L21.2449 8.92531L20.5849 9.03531L22.0349 9.35531L21.3749 9.46531L22.8249 9.78531L22.1649 9.90031L23.4149 10.1103L22.7549 10.2203L24.0049 10.4303L23.3499 10.5503L24.4649 10.9253H23.6149L24.2649 11.5253L24.2699 11.5153Z" fill="#006D00" stroke="white" stroke-width="0.1"/>
<path d="M24.2699 11.5154L18.7399 8.50537M21.2399 8.92537L19.5299 8.93537L20.1899 10.2354" stroke="black" stroke-width="0.015"/>
<path d="M22.03 9.35522L20.32 9.36522L20.98 10.6652" stroke="black" stroke-width="0.015"/>
<path d="M22.8199 9.78564L21.1099 9.79564L21.7699 11.0956" stroke="black" stroke-width="0.015"/>
<path d="M23.4149 10.1104L21.8999 10.2254L22.3649 11.4154" stroke="black" stroke-width="0.015"/>
<path d="M24.01 10.4353L22.495 10.5453L22.955 11.7353" stroke="black" stroke-width="0.015"/>
<path d="M24.465 10.9205L22.89 10.7605L23.68 11.9005" stroke="black" stroke-width="0.015"/>
<path fill-rule="evenodd" clip-rule="evenodd" d="M14.6599 11.8304L15.1249 11.1804L14.4199 11.2854L15.2899 10.7904L14.7349 10.7654L15.7349 10.4154L15.1799 10.3854L16.1799 10.0354L15.6249 10.0054L16.7749 9.52538L16.2149 9.50038L17.3649 9.01538L16.8099 8.99038L17.9599 8.51038L18.5349 8.26538L18.8149 8.28038L18.7949 8.54538L18.4799 9.06538L17.8499 10.1054L17.8899 9.57538L17.2599 10.6154L17.2949 10.0804L16.6649 11.1204L16.6999 10.5904L16.2199 11.5004L16.2549 10.9704L15.7749 11.8804L15.8099 11.3504L15.1999 12.1204L15.3849 11.4604L14.6599 11.8304Z" fill="#006D00" stroke="white" stroke-width="0.09"/>
<path d="M14.6599 11.8305L18.8099 8.28052M17.8549 10.1055L18.2199 8.78552L16.8099 8.99052" stroke="black" stroke-width="0.015"/>
<path d="M17.26 10.6152L17.625 9.29517L16.215 9.49517" stroke="black" stroke-width="0.015"/>
<path d="M16.665 11.1205L17.035 9.80054L15.625 10.0055" stroke="black" stroke-width="0.015"/>
<path d="M16.2199 11.5005L16.4399 10.3105L15.1799 10.3855" stroke="black" stroke-width="0.015"/>
<path d="M15.7749 11.8802L15.9949 10.6902L14.7349 10.7652" stroke="black" stroke-width="0.015"/>
<path d="M15.1999 12.1203L15.6999 10.9453L14.4199 11.2853" stroke="black" stroke-width="0.015"/>
<path fill-rule="evenodd" clip-rule="evenodd" d="M23.0499 3.31038L22.1549 3.91038L22.0099 3.26538L21.4849 4.15538L21.3849 3.73038L20.9549 4.64038L20.8949 4.22038L20.5599 5.15538L20.3699 4.70538L20.0349 5.84038L19.8449 5.39038L19.5099 6.52538L19.3149 6.07538L18.9799 7.21038L18.8149 7.78038L18.9099 8.00538L19.2699 7.88538L19.8899 7.42538L21.1399 6.50538L20.4199 6.74038L21.6649 5.81538L20.9449 6.05538L22.1899 5.13038L21.4699 5.37038L22.7199 4.65038L21.8699 4.85038L23.1999 4.16538L22.3849 4.37538L23.3699 3.59538L22.5199 4.00038L23.0499 3.31038Z" fill="#006D00" stroke="white" stroke-width="0.1"/>
<path d="M22.7 3.6355L21.41 4.7455L18.91 8.0055" stroke="black" stroke-width="0.015"/>
<path d="M20.8648 6.64063L19.4348 7.31563L19.3148 6.27563" stroke="black" stroke-width="0.015"/>
<path d="M21.41 5.96033L19.96 6.63033L19.845 5.59033" stroke="black" stroke-width="0.015"/>
<path d="M21.925 5.27564L20.49 5.94564L20.38 4.91064" stroke="black" stroke-width="0.015"/>
<path d="M22.355 4.7654L21.015 5.2604L20.865 4.4104" stroke="black" stroke-width="0.015"/>
<path d="M22.8499 4.27542L21.4099 4.75042L21.3599 3.93042" stroke="black" stroke-width="0.015"/>
<path d="M23.0399 3.81021L21.7099 4.49021L21.9699 3.46021" stroke="black" stroke-width="0.015"/>
<path fill-rule="evenodd" clip-rule="evenodd" d="M18.2048 2.19043L18.6048 3.10043L19.1198 2.62043L19.0348 3.61043L19.3748 3.29043L19.1898 4.26043L19.4898 3.93043L19.2148 4.88043L19.6498 4.58043L19.2498 5.69543L19.6798 5.39543L19.2798 6.52043L19.7148 6.22043L19.3148 7.34043L19.1148 7.90043L18.8948 8.05043L18.6548 7.78543L18.4048 7.11543L17.9048 5.77043L18.3748 6.29543L17.8698 4.94543L18.3398 5.47543L17.8398 4.12543L18.2998 4.65043L17.6748 3.48043L18.2748 4.03543L17.5548 2.84043L18.1198 3.39043L17.7548 2.28043L18.2348 3.01043L18.2048 2.19043Z" fill="#006D00" stroke="white" stroke-width="0.1"/>
<path d="M18.31 2.62036L18.735 4.14536L18.895 8.04536" stroke="black" stroke-width="0.015"/>
<path d="M18.05 6.01025L18.86 7.22525L19.595 6.39025" stroke="black" stroke-width="0.015"/>
<path d="M17.9999 5.1853L18.8249 6.4053L19.5599 5.5703" stroke="black" stroke-width="0.015"/>
<path d="M17.975 4.36548L18.795 5.58548L19.515 4.75048" stroke="black" stroke-width="0.015"/>
<path d="M17.92 3.74536L18.76 4.76536L19.41 4.11536" stroke="black" stroke-width="0.015"/>
<path d="M17.8 3.10034L18.735 4.15034L19.285 3.47034" stroke="black" stroke-width="0.015"/>
<path d="M17.9149 2.62036L18.6349 3.79536L19.0399 2.80036" stroke="black" stroke-width="0.015"/>
<path fill-rule="evenodd" clip-rule="evenodd" d="M12.85 8.90037L14.015 8.09037L13.43 7.79037L14.455 7.96037L14.105 7.49537L15.095 7.87037L14.745 7.40537L15.74 7.77537L15.39 7.31537L16.59 7.72037L16.24 7.25537L17.405 7.86037L17.055 7.39537L18.255 7.80537L18.84 8.10537L19.015 8.33537L18.78 8.50037L18.135 8.59037L17.1 9.02037L17.29 8.65037L16.005 8.83037L16.47 8.51037L15.155 8.89037L15.625 8.56537L14.515 8.98037L15.01 8.46037L13.87 9.07037L14.37 8.55037L13.43 9.20037L13.955 8.48037L12.85 8.90037Z" fill="#006D00" stroke="white" stroke-width="0.095"/>
<path d="M13.215 8.68042L14.425 8.15542L15.07 8.06542L15.605 8.05542L16.53 8.11542L17.365 8.15042L19.015 8.33542" stroke="black" stroke-width="0.015"/>
<path d="M17.26 8.84528L18.185 8.27528L17.245 7.54028" stroke="black" stroke-width="0.015"/>
<path d="M16.225 8.7604L17.36 8.1504L16.425 7.4104" stroke="black" stroke-width="0.015"/>
<path d="M15.4848 8.74066L16.5298 8.11566L15.5798 7.43066M14.1048 8.91066L15.0698 8.06566L14.2898 7.64066" stroke="black" stroke-width="0.015"/>
<path d="M13.675 8.96528L14.425 8.16028L13.825 7.93528M14.745 8.82028L15.695 8.06028L14.935 7.54028" stroke="black" stroke-width="0.015"/>
<path fill-rule="evenodd" clip-rule="evenodd" d="M16.7767 17.7612L16.7657 16.3973L16.3706 15.7604C16.2716 15.4473 16.3201 15.296 16.4805 15.2853C16.6403 15.2758 16.7987 15.3663 17.0289 15.3764C17.2592 15.3865 17.2158 15.0228 17.556 15.0329C17.8962 15.043 18.4892 15.2252 18.9936 15.2556C19.4987 15.2853 19.7619 15.0936 20.3439 15.0734C20.9259 15.0532 21.0792 15.3258 21.1122 15.3258C21.1452 15.3258 21.3101 15.2151 21.4743 15.1948C21.6393 15.1746 21.6942 15.2556 21.6942 15.2556C21.6942 15.2556 21.6832 15.5991 21.6063 15.8009C21.5293 16.0033 21.2551 16.3366 21.2441 16.3366C21.2331 16.3366 21.1452 17.8219 21.1452 17.832C21.1452 17.8421 16.7767 17.7915 16.7767 17.7612Z" fill="#CC0000" stroke="black" stroke-width="0.00827291"/>
<path fill-rule="evenodd" clip-rule="evenodd" d="M21.2926 16.3601C21.2926 16.3601 21.7323 16.0505 21.744 15.3058C21.7504 14.8772 21.5215 14.5676 20.9485 14.5676C20.1466 14.5676 19.0013 14.8837 19.0013 14.8837V14.9891C19.0013 14.9891 19.9177 14.673 20.9492 14.673C21.407 14.673 21.6366 14.9826 21.6366 15.2993C21.6366 15.8267 21.1775 16.3607 21.1775 16.3607V17.2042H21.2926V16.3601Z" fill="#FFF100" stroke="black" stroke-width="0.00827291"/>
<path fill-rule="evenodd" clip-rule="evenodd" d="M21.5311 16.1393C21.5299 16.1538 21.532 16.1684 21.5372 16.1822C21.5424 16.196 21.5507 16.2086 21.5615 16.2193C21.5722 16.23 21.5853 16.2385 21.5998 16.2443C21.6143 16.2502 21.63 16.2532 21.6459 16.2532C21.6617 16.2532 21.6774 16.2502 21.6919 16.2443C21.7064 16.2385 21.7195 16.23 21.7303 16.2193C21.741 16.2086 21.7493 16.196 21.7545 16.1822C21.7598 16.1684 21.7618 16.1538 21.7607 16.1393C21.7585 16.1126 21.7454 16.0877 21.7242 16.0695C21.7029 16.0514 21.6749 16.0413 21.6459 16.0413C21.6168 16.0413 21.5889 16.0514 21.5676 16.0695C21.5463 16.0877 21.5332 16.1126 21.5311 16.1393Z" fill="white" stroke="black" stroke-width="0.00827291"/>
<path fill-rule="evenodd" clip-rule="evenodd" d="M21.646 15.8993C21.6448 15.9138 21.6469 15.9285 21.6522 15.9422C21.6574 15.956 21.6657 15.9686 21.6764 15.9793C21.6872 15.99 21.7003 15.9985 21.7148 16.0044C21.7293 16.0102 21.745 16.0132 21.7608 16.0132C21.7767 16.0132 21.7923 16.0102 21.8069 16.0044C21.8214 15.9985 21.8344 15.99 21.8452 15.9793C21.856 15.9686 21.8642 15.956 21.8695 15.9422C21.8747 15.9285 21.8768 15.9138 21.8756 15.8993C21.8734 15.8726 21.8604 15.8477 21.8391 15.8296C21.8178 15.8114 21.7899 15.8013 21.7608 15.8013C21.7318 15.8013 21.7038 15.8114 21.6825 15.8296C21.6612 15.8477 21.6482 15.8726 21.646 15.8993Z" fill="white" stroke="black" stroke-width="0.00827291"/>
<path fill-rule="evenodd" clip-rule="evenodd" d="M21.706 15.6495C21.7048 15.6641 21.7069 15.6787 21.7122 15.6925C21.7174 15.7062 21.7257 15.7189 21.7364 15.7295C21.7472 15.7402 21.7603 15.7488 21.7748 15.7546C21.7893 15.7604 21.805 15.7634 21.8208 15.7634C21.8367 15.7634 21.8523 15.7604 21.8669 15.7546C21.8814 15.7488 21.8944 15.7402 21.9052 15.7295C21.916 15.7189 21.9243 15.7062 21.9295 15.6925C21.9347 15.6787 21.9368 15.6641 21.9356 15.6495C21.9334 15.6229 21.9204 15.598 21.8991 15.5798C21.8778 15.5616 21.8499 15.5515 21.8208 15.5515C21.7918 15.5515 21.7638 15.5616 21.7425 15.5798C21.7212 15.598 21.7082 15.6229 21.706 15.6495Z" fill="white" stroke="black" stroke-width="0.00827291"/>
<path fill-rule="evenodd" clip-rule="evenodd" d="M21.7509 15.3893C21.7497 15.4038 21.7518 15.4184 21.757 15.4322C21.7623 15.446 21.7705 15.4586 21.7813 15.4693C21.7921 15.48 21.8051 15.4885 21.8197 15.4943C21.8342 15.5002 21.8499 15.5032 21.8657 15.5032C21.8816 15.5032 21.8972 15.5002 21.9117 15.4943C21.9263 15.4885 21.9393 15.48 21.9501 15.4693C21.9609 15.4586 21.9691 15.446 21.9744 15.4322C21.9796 15.4184 21.9817 15.4038 21.9805 15.3893C21.9783 15.3626 21.9653 15.3377 21.944 15.3195C21.9227 15.3014 21.8947 15.2913 21.8657 15.2913C21.8367 15.2913 21.8087 15.3014 21.7874 15.3195C21.7661 15.3377 21.7531 15.3626 21.7509 15.3893Z" fill="white" stroke="black" stroke-width="0.00827291"/>
<path fill-rule="evenodd" clip-rule="evenodd" d="M21.741 15.1095C21.7398 15.124 21.7419 15.1387 21.7471 15.1524C21.7523 15.1662 21.7606 15.1788 21.7714 15.1895C21.7821 15.2002 21.7952 15.2087 21.8097 15.2146C21.8242 15.2204 21.8399 15.2234 21.8557 15.2234C21.8716 15.2234 21.8873 15.2204 21.9018 15.2146C21.9163 15.2087 21.9294 15.2002 21.9401 15.1895C21.9509 15.1788 21.9592 15.1662 21.9644 15.1524C21.9696 15.1387 21.9717 15.124 21.9705 15.1095C21.9684 15.0828 21.9553 15.0579 21.934 15.0398C21.9127 15.0216 21.8848 15.0115 21.8557 15.0115C21.8267 15.0115 21.7987 15.0216 21.7775 15.0398C21.7562 15.0579 21.7431 15.0828 21.741 15.1095Z" fill="white" stroke="black" stroke-width="0.00827291"/>
<path fill-rule="evenodd" clip-rule="evenodd" d="M21.366 16.3544C21.3648 16.3689 21.3669 16.3835 21.3721 16.3973C21.3773 16.4111 21.3856 16.4237 21.3964 16.4344C21.4071 16.4451 21.4202 16.4536 21.4347 16.4594C21.4492 16.4653 21.4649 16.4683 21.4807 16.4683C21.4966 16.4683 21.5123 16.4653 21.5268 16.4594C21.5413 16.4536 21.5544 16.4451 21.5651 16.4344C21.5759 16.4237 21.5842 16.4111 21.5894 16.3973C21.5946 16.3835 21.5967 16.3689 21.5955 16.3544C21.5934 16.3277 21.5803 16.3028 21.559 16.2846C21.5377 16.2664 21.5098 16.2563 21.4807 16.2563C21.4517 16.2563 21.4237 16.2664 21.4025 16.2846C21.3812 16.3028 21.3681 16.3277 21.366 16.3544Z" fill="white" stroke="black" stroke-width="0.00827291"/>
<path fill-rule="evenodd" clip-rule="evenodd" d="M21.6411 14.8395C21.6399 14.854 21.642 14.8686 21.6472 14.8824C21.6525 14.8962 21.6607 14.9088 21.6715 14.9195C21.6823 14.9302 21.6953 14.9387 21.7099 14.9445C21.7244 14.9504 21.7401 14.9534 21.7559 14.9534C21.7717 14.9534 21.7874 14.9504 21.8019 14.9445C21.8165 14.9387 21.8295 14.9302 21.8403 14.9195C21.8511 14.9088 21.8593 14.8962 21.8646 14.8824C21.8698 14.8686 21.8719 14.854 21.8707 14.8395C21.8685 14.8128 21.8555 14.7879 21.8342 14.7697C21.8129 14.7516 21.7849 14.7415 21.7559 14.7415C21.7269 14.7415 21.6989 14.7516 21.6776 14.7697C21.6563 14.7879 21.6433 14.8128 21.6411 14.8395Z" fill="white" stroke="black" stroke-width="0.00827291"/>
<path fill-rule="evenodd" clip-rule="evenodd" d="M21.431 14.6244C21.4298 14.6389 21.4319 14.6535 21.4371 14.6673C21.4424 14.6811 21.4506 14.6937 21.4614 14.7044C21.4722 14.7151 21.4852 14.7236 21.4997 14.7295C21.5143 14.7353 21.5299 14.7383 21.5458 14.7383C21.5616 14.7383 21.5773 14.7353 21.5918 14.7295C21.6063 14.7236 21.6194 14.7151 21.6302 14.7044C21.6409 14.6937 21.6492 14.6811 21.6544 14.6673C21.6597 14.6535 21.6618 14.6389 21.6606 14.6244C21.6584 14.5977 21.6454 14.5728 21.6241 14.5546C21.6028 14.5365 21.5748 14.5264 21.5458 14.5264C21.5167 14.5264 21.4888 14.5365 21.4675 14.5546C21.4462 14.5728 21.4332 14.5977 21.431 14.6244Z" fill="white" stroke="black" stroke-width="0.00827291"/>
<path fill-rule="evenodd" clip-rule="evenodd" d="M21.146 14.4847C21.1448 14.4993 21.1469 14.5139 21.1521 14.5277C21.1574 14.5414 21.1656 14.5541 21.1764 14.5647C21.1872 14.5754 21.2002 14.584 21.2147 14.5898C21.2293 14.5956 21.2449 14.5986 21.2608 14.5986C21.2766 14.5986 21.2923 14.5956 21.3068 14.5898C21.3213 14.584 21.3344 14.5754 21.3452 14.5647C21.3559 14.5541 21.3642 14.5414 21.3694 14.5277C21.3747 14.5139 21.3768 14.4993 21.3756 14.4847C21.3734 14.4581 21.3604 14.4332 21.3391 14.415C21.3178 14.3968 21.2898 14.3867 21.2608 14.3867C21.2317 14.3867 21.2038 14.3968 21.1825 14.415C21.1612 14.4332 21.1482 14.4581 21.146 14.4847Z" fill="white" stroke="black" stroke-width="0.00827291"/>
<path fill-rule="evenodd" clip-rule="evenodd" d="M20.8561 14.4645C20.8549 14.479 20.857 14.4936 20.8622 14.5074C20.8674 14.5212 20.8757 14.5338 20.8865 14.5445C20.8972 14.5552 20.9103 14.5637 20.9248 14.5695C20.9393 14.5754 20.955 14.5784 20.9709 14.5784C20.9867 14.5784 21.0024 14.5754 21.0169 14.5695C21.0314 14.5637 21.0445 14.5552 21.0553 14.5445C21.066 14.5338 21.0743 14.5212 21.0795 14.5074C21.0848 14.4936 21.0868 14.479 21.0857 14.4645C21.0835 14.4378 21.0704 14.4129 21.0492 14.3947C21.0279 14.3766 20.9999 14.3665 20.9709 14.3665C20.9418 14.3665 20.9139 14.3766 20.8926 14.3947C20.8713 14.4129 20.8582 14.4378 20.8561 14.4645Z" fill="white" stroke="black" stroke-width="0.00827291"/>
<path fill-rule="evenodd" clip-rule="evenodd" d="M20.5561 14.4696C20.5549 14.4842 20.557 14.4988 20.5622 14.5125C20.5674 14.5263 20.5757 14.5389 20.5865 14.5496C20.5972 14.5603 20.6103 14.5688 20.6248 14.5747C20.6393 14.5805 20.655 14.5835 20.6709 14.5835C20.6867 14.5835 20.7024 14.5805 20.7169 14.5747C20.7314 14.5688 20.7445 14.5603 20.7553 14.5496C20.766 14.5389 20.7743 14.5263 20.7795 14.5125C20.7847 14.4988 20.7868 14.4842 20.7856 14.4696C20.7835 14.443 20.7704 14.418 20.7491 14.3999C20.7279 14.3817 20.6999 14.3716 20.6709 14.3716C20.6418 14.3716 20.6139 14.3817 20.5926 14.3999C20.5713 14.418 20.5582 14.443 20.5561 14.4696Z" fill="white" stroke="black" stroke-width="0.00827291"/>
<path fill-rule="evenodd" clip-rule="evenodd" d="M20.246 14.5194C20.2448 14.534 20.2469 14.5486 20.2521 14.5623C20.2574 14.5761 20.2656 14.5887 20.2764 14.5994C20.2872 14.6101 20.3002 14.6186 20.3147 14.6245C20.3293 14.6303 20.3449 14.6333 20.3608 14.6333C20.3766 14.6333 20.3923 14.6303 20.4068 14.6245C20.4213 14.6186 20.4344 14.6101 20.4452 14.5994C20.4559 14.5887 20.4642 14.5761 20.4694 14.5623C20.4747 14.5486 20.4768 14.534 20.4756 14.5194C20.4734 14.4928 20.4604 14.4678 20.4391 14.4497C20.4178 14.4315 20.3898 14.4214 20.3608 14.4214C20.3317 14.4214 20.3038 14.4315 20.2825 14.4497C20.2612 14.4678 20.2482 14.4928 20.246 14.5194Z" fill="white" stroke="black" stroke-width="0.00827291"/>
<path fill-rule="evenodd" clip-rule="evenodd" d="M19.941 14.5546C19.9398 14.5691 19.9419 14.5837 19.9471 14.5975C19.9523 14.6113 19.9606 14.6239 19.9714 14.6346C19.9821 14.6453 19.9952 14.6538 20.0097 14.6596C20.0242 14.6655 20.0399 14.6685 20.0557 14.6685C20.0716 14.6685 20.0873 14.6655 20.1018 14.6596C20.1163 14.6538 20.1294 14.6453 20.1401 14.6346C20.1509 14.6239 20.1592 14.6113 20.1644 14.5975C20.1696 14.5837 20.1717 14.5691 20.1705 14.5546C20.1684 14.5279 20.1553 14.503 20.134 14.4848C20.1127 14.4666 20.0848 14.4565 20.0557 14.4565C20.0267 14.4565 19.9987 14.4666 19.9775 14.4848C19.9562 14.503 19.9431 14.5279 19.941 14.5546Z" fill="white" stroke="black" stroke-width="0.00827291"/>
<path fill-rule="evenodd" clip-rule="evenodd" d="M19.606 14.5995C19.6048 14.614 19.6069 14.6286 19.6122 14.6424C19.6174 14.6562 19.6257 14.6688 19.6364 14.6795C19.6472 14.6902 19.6603 14.6987 19.6748 14.7045C19.6893 14.7104 19.705 14.7134 19.7208 14.7134C19.7367 14.7134 19.7523 14.7104 19.7669 14.7045C19.7814 14.6987 19.7944 14.6902 19.8052 14.6795C19.816 14.6688 19.8242 14.6562 19.8295 14.6424C19.8347 14.6286 19.8368 14.614 19.8356 14.5995C19.8334 14.5728 19.8204 14.5479 19.7991 14.5297C19.7778 14.5116 19.7499 14.5015 19.7208 14.5015C19.6918 14.5015 19.6638 14.5116 19.6425 14.5297C19.6212 14.5479 19.6082 14.5728 19.606 14.5995Z" fill="white" stroke="black" stroke-width="0.00827291"/>
<path fill-rule="evenodd" clip-rule="evenodd" d="M19.3261 14.6744C19.3249 14.689 19.327 14.7036 19.3322 14.7174C19.3374 14.7311 19.3457 14.7438 19.3565 14.7544C19.3672 14.7651 19.3803 14.7737 19.3948 14.7795C19.4093 14.7853 19.425 14.7883 19.4409 14.7883C19.4567 14.7883 19.4724 14.7853 19.4869 14.7795C19.5014 14.7737 19.5145 14.7651 19.5253 14.7544C19.536 14.7438 19.5443 14.7311 19.5495 14.7174C19.5547 14.7036 19.5568 14.689 19.5556 14.6744C19.5535 14.6478 19.5404 14.6229 19.5191 14.6047C19.4979 14.5865 19.4699 14.5764 19.4409 14.5764C19.4118 14.5764 19.3839 14.5865 19.3626 14.6047C19.3413 14.6229 19.3282 14.6478 19.3261 14.6744Z" fill="white" stroke="black" stroke-width="0.00827291"/>
<path fill-rule="evenodd" clip-rule="evenodd" d="M16.4686 16.1408C16.4698 16.1553 16.4677 16.1699 16.4625 16.1837C16.4573 16.1974 16.449 16.2101 16.4382 16.2208C16.4275 16.2314 16.4144 16.24 16.3999 16.2458C16.3854 16.2516 16.3697 16.2547 16.3538 16.2547C16.338 16.2547 16.3223 16.2516 16.3078 16.2458C16.2933 16.24 16.2802 16.2314 16.2695 16.2208C16.2587 16.2101 16.2504 16.1974 16.2452 16.1837C16.24 16.1699 16.2379 16.1553 16.2391 16.1408C16.2412 16.1141 16.2543 16.0892 16.2756 16.071C16.2968 16.0528 16.3248 16.0427 16.3538 16.0427C16.3829 16.0427 16.4108 16.0528 16.4321 16.071C16.4534 16.0892 16.4665 16.1141 16.4686 16.1408Z" fill="white" stroke="black" stroke-width="0.00827291"/>
<path fill-rule="evenodd" clip-rule="evenodd" d="M16.3537 15.9008C16.3549 15.9153 16.3528 15.9299 16.3475 15.9437C16.3423 15.9574 16.334 15.9701 16.3233 15.9808C16.3125 15.9915 16.2994 16 16.2849 16.0058C16.2704 16.0117 16.2547 16.0147 16.2389 16.0147C16.223 16.0147 16.2074 16.0117 16.1928 16.0058C16.1783 16 16.1653 15.9915 16.1545 15.9808C16.1437 15.9701 16.1355 15.9574 16.1302 15.9437C16.125 15.9299 16.1229 15.9153 16.1241 15.9008C16.1263 15.8741 16.1393 15.8492 16.1606 15.831C16.1819 15.8128 16.2098 15.8027 16.2389 15.8027C16.2679 15.8027 16.2959 15.8128 16.3172 15.831C16.3385 15.8492 16.3515 15.8741 16.3537 15.9008Z" fill="white" stroke="black" stroke-width="0.00827291"/>
<path fill-rule="evenodd" clip-rule="evenodd" d="M16.2936 15.6505C16.2947 15.6651 16.2927 15.6797 16.2874 15.6934C16.2822 15.7072 16.2739 15.7198 16.2632 15.7305C16.2524 15.7412 16.2393 15.7497 16.2248 15.7556C16.2103 15.7614 16.1946 15.7644 16.1788 15.7644C16.1629 15.7644 16.1472 15.7614 16.1327 15.7556C16.1182 15.7497 16.1051 15.7412 16.0944 15.7305C16.0836 15.7198 16.0753 15.7072 16.0701 15.6934C16.0649 15.6797 16.0628 15.6651 16.064 15.6505C16.0662 15.6239 16.0792 15.5989 16.1005 15.5808C16.1218 15.5626 16.1497 15.5525 16.1788 15.5525C16.2078 15.5525 16.2358 15.5626 16.2571 15.5808C16.2783 15.5989 16.2914 15.6239 16.2936 15.6505Z" fill="white" stroke="black" stroke-width="0.00827291"/>
<path fill-rule="evenodd" clip-rule="evenodd" d="M16.2536 15.3908C16.2548 15.4053 16.2527 15.4199 16.2475 15.4337C16.2422 15.4474 16.234 15.4601 16.2232 15.4708C16.2124 15.4814 16.1994 15.49 16.1848 15.4958C16.1703 15.5016 16.1546 15.5047 16.1388 15.5047C16.123 15.5047 16.1073 15.5016 16.0928 15.4958C16.0782 15.49 16.0652 15.4814 16.0544 15.4708C16.0436 15.4601 16.0354 15.4474 16.0301 15.4337C16.0249 15.4199 16.0228 15.4053 16.024 15.3908C16.0262 15.3641 16.0392 15.3392 16.0605 15.321C16.0818 15.3028 16.1098 15.2927 16.1388 15.2927C16.1678 15.2927 16.1958 15.3028 16.2171 15.321C16.2384 15.3392 16.2514 15.3641 16.2536 15.3908Z" fill="white" stroke="black" stroke-width="0.00827291"/>
<path fill-rule="evenodd" clip-rule="evenodd" d="M16.2636 15.1105C16.2647 15.125 16.2627 15.1396 16.2574 15.1534C16.2522 15.1672 16.2439 15.1798 16.2332 15.1905C16.2224 15.2012 16.2093 15.2097 16.1948 15.2155C16.1803 15.2214 16.1646 15.2244 16.1488 15.2244C16.1329 15.2244 16.1172 15.2214 16.1027 15.2155C16.0882 15.2097 16.0751 15.2012 16.0644 15.1905C16.0536 15.1798 16.0453 15.1672 16.0401 15.1534C16.0349 15.1396 16.0328 15.125 16.034 15.1105C16.0361 15.0838 16.0492 15.0589 16.0705 15.0407C16.0918 15.0226 16.1197 15.0125 16.1488 15.0125C16.1778 15.0125 16.2058 15.0226 16.2271 15.0407C16.2483 15.0589 16.2614 15.0838 16.2636 15.1105Z" fill="white" stroke="black" stroke-width="0.00827291"/>
<path fill-rule="evenodd" clip-rule="evenodd" d="M16.3586 14.8405C16.3598 14.855 16.3577 14.8696 16.3525 14.8834C16.3472 14.8971 16.339 14.9098 16.3282 14.9205C16.3174 14.9312 16.3044 14.9397 16.2898 14.9455C16.2753 14.9513 16.2596 14.9544 16.2438 14.9544C16.228 14.9544 16.2123 14.9513 16.1978 14.9455C16.1832 14.9397 16.1702 14.9312 16.1594 14.9205C16.1486 14.9098 16.1404 14.8971 16.1351 14.8834C16.1299 14.8696 16.1278 14.855 16.129 14.8405C16.1312 14.8138 16.1442 14.7889 16.1655 14.7707C16.1868 14.7525 16.2148 14.7424 16.2438 14.7424C16.2728 14.7424 16.3008 14.7525 16.3221 14.7707C16.3434 14.7889 16.3564 14.8138 16.3586 14.8405Z" fill="white" stroke="black" stroke-width="0.00827291"/>
<path fill-rule="evenodd" clip-rule="evenodd" d="M16.5636 14.6259C16.5647 14.6404 16.5626 14.655 16.5574 14.6688C16.5522 14.6825 16.5439 14.6952 16.5332 14.7059C16.5224 14.7166 16.5093 14.7251 16.4948 14.7309C16.4803 14.7367 16.4646 14.7398 16.4488 14.7398C16.4329 14.7398 16.4172 14.7367 16.4027 14.7309C16.3882 14.7251 16.3751 14.7166 16.3644 14.7059C16.3536 14.6952 16.3453 14.6825 16.3401 14.6688C16.3349 14.655 16.3328 14.6404 16.334 14.6259C16.3361 14.5992 16.3492 14.5743 16.3705 14.5561C16.3918 14.5379 16.4197 14.5278 16.4488 14.5278C16.4778 14.5278 16.5058 14.5379 16.5271 14.5561C16.5483 14.5743 16.5614 14.5992 16.5636 14.6259Z" fill="white" stroke="black" stroke-width="0.00827291"/>
<path fill-rule="evenodd" clip-rule="evenodd" d="M16.8536 14.4857C16.8548 14.5003 16.8527 14.5149 16.8475 14.5286C16.8422 14.5424 16.834 14.555 16.8232 14.5657C16.8124 14.5764 16.7994 14.5849 16.7848 14.5908C16.7703 14.5966 16.7546 14.5996 16.7388 14.5996C16.723 14.5996 16.7073 14.5966 16.6928 14.5908C16.6782 14.5849 16.6652 14.5764 16.6544 14.5657C16.6436 14.555 16.6354 14.5424 16.6301 14.5286C16.6249 14.5149 16.6228 14.5003 16.624 14.4857C16.6262 14.4591 16.6392 14.4342 16.6605 14.416C16.6818 14.3978 16.7098 14.3877 16.7388 14.3877C16.7678 14.3877 16.7958 14.3978 16.8171 14.416C16.8384 14.4342 16.8514 14.4591 16.8536 14.4857Z" fill="white" stroke="black" stroke-width="0.00827291"/>
<path fill-rule="evenodd" clip-rule="evenodd" d="M17.1387 14.4655C17.1399 14.48 17.1378 14.4946 17.1326 14.5084C17.1273 14.5221 17.1191 14.5348 17.1083 14.5455C17.0975 14.5562 17.0845 14.5647 17.07 14.5705C17.0554 14.5763 17.0398 14.5794 17.0239 14.5794C17.0081 14.5794 16.9924 14.5763 16.9779 14.5705C16.9634 14.5647 16.9503 14.5562 16.9395 14.5455C16.9288 14.5348 16.9205 14.5221 16.9153 14.5084C16.91 14.4946 16.9079 14.48 16.9091 14.4655C16.9113 14.4388 16.9243 14.4139 16.9456 14.3957C16.9669 14.3775 16.9949 14.3674 17.0239 14.3674C17.053 14.3674 17.0809 14.3775 17.1022 14.3957C17.1235 14.4139 17.1365 14.4388 17.1387 14.4655Z" fill="white" stroke="black" stroke-width="0.00827291"/>
<path fill-rule="evenodd" clip-rule="evenodd" d="M17.4436 14.4706C17.4448 14.4851 17.4427 14.4997 17.4375 14.5135C17.4323 14.5273 17.424 14.5399 17.4132 14.5506C17.4025 14.5613 17.3894 14.5698 17.3749 14.5756C17.3604 14.5815 17.3447 14.5845 17.3288 14.5845C17.313 14.5845 17.2973 14.5815 17.2828 14.5756C17.2683 14.5698 17.2552 14.5613 17.2445 14.5506C17.2337 14.5399 17.2254 14.5273 17.2202 14.5135C17.215 14.4997 17.2129 14.4851 17.2141 14.4706C17.2162 14.4439 17.2293 14.419 17.2506 14.4008C17.2718 14.3827 17.2998 14.3726 17.3288 14.3726C17.3579 14.3726 17.3858 14.3827 17.4071 14.4008C17.4284 14.419 17.4415 14.4439 17.4436 14.4706Z" fill="white" stroke="black" stroke-width="0.00827291"/>
<path fill-rule="evenodd" clip-rule="evenodd" d="M17.7536 14.5209C17.7548 14.5354 17.7527 14.55 17.7475 14.5638C17.7422 14.5776 17.734 14.5902 17.7232 14.6009C17.7124 14.6116 17.6994 14.6201 17.6848 14.6259C17.6703 14.6318 17.6546 14.6348 17.6388 14.6348C17.623 14.6348 17.6073 14.6318 17.5928 14.6259C17.5782 14.6201 17.5652 14.6116 17.5544 14.6009C17.5436 14.5902 17.5354 14.5776 17.5301 14.5638C17.5249 14.55 17.5228 14.5354 17.524 14.5209C17.5262 14.4942 17.5392 14.4693 17.5605 14.4511C17.5818 14.433 17.6098 14.4229 17.6388 14.4229C17.6678 14.4229 17.6958 14.433 17.7171 14.4511C17.7384 14.4693 17.7514 14.4942 17.7536 14.5209Z" fill="white" stroke="black" stroke-width="0.00827291"/>
<path fill-rule="evenodd" clip-rule="evenodd" d="M18.0636 14.5555C18.0647 14.5701 18.0626 14.5847 18.0574 14.5985C18.0522 14.6122 18.0439 14.6249 18.0332 14.6355C18.0224 14.6462 18.0093 14.6548 17.9948 14.6606C17.9803 14.6664 17.9646 14.6694 17.9488 14.6694C17.9329 14.6694 17.9172 14.6664 17.9027 14.6606C17.8882 14.6548 17.8751 14.6462 17.8644 14.6355C17.8536 14.6249 17.8453 14.6122 17.8401 14.5985C17.8349 14.5847 17.8328 14.5701 17.834 14.5555C17.8361 14.5289 17.8492 14.504 17.8705 14.4858C17.8918 14.4676 17.9197 14.4575 17.9488 14.4575C17.9778 14.4575 18.0058 14.4676 18.0271 14.4858C18.0483 14.504 18.0614 14.5289 18.0636 14.5555Z" fill="white" stroke="black" stroke-width="0.00827291"/>
<path fill-rule="evenodd" clip-rule="evenodd" d="M18.3886 14.6005C18.3898 14.615 18.3877 14.6296 18.3825 14.6434C18.3773 14.6572 18.369 14.6698 18.3582 14.6805C18.3475 14.6912 18.3344 14.6997 18.3199 14.7055C18.3054 14.7114 18.2897 14.7144 18.2738 14.7144C18.258 14.7144 18.2423 14.7114 18.2278 14.7055C18.2133 14.6997 18.2002 14.6912 18.1895 14.6805C18.1787 14.6698 18.1704 14.6572 18.1652 14.6434C18.16 14.6296 18.1579 14.615 18.1591 14.6005C18.1612 14.5738 18.1743 14.5489 18.1956 14.5307C18.2168 14.5125 18.2448 14.5024 18.2738 14.5024C18.3029 14.5024 18.3308 14.5125 18.3521 14.5307C18.3734 14.5489 18.3865 14.5738 18.3886 14.6005Z" fill="white" stroke="black" stroke-width="0.00827291"/>
<path fill-rule="evenodd" clip-rule="evenodd" d="M18.6736 14.6754C18.6748 14.69 18.6727 14.7046 18.6675 14.7183C18.6623 14.7321 18.654 14.7447 18.6432 14.7554C18.6325 14.7661 18.6194 14.7746 18.6049 14.7805C18.5904 14.7863 18.5747 14.7893 18.5588 14.7893C18.543 14.7893 18.5273 14.7863 18.5128 14.7805C18.4983 14.7746 18.4852 14.7661 18.4745 14.7554C18.4637 14.7447 18.4554 14.7321 18.4502 14.7183C18.445 14.7046 18.4429 14.69 18.4441 14.6754C18.4462 14.6488 18.4593 14.6239 18.4806 14.6057C18.5018 14.5875 18.5298 14.5774 18.5588 14.5774C18.5879 14.5774 18.6158 14.5875 18.6371 14.6057C18.6584 14.6239 18.6715 14.6488 18.6736 14.6754Z" fill="white" stroke="black" stroke-width="0.00827291"/>
<path fill-rule="evenodd" clip-rule="evenodd" d="M16.6336 16.3556C16.6348 16.3701 16.6327 16.3848 16.6275 16.3985C16.6223 16.4123 16.614 16.4249 16.6032 16.4356C16.5925 16.4463 16.5794 16.4548 16.5649 16.4607C16.5504 16.4665 16.5347 16.4695 16.5188 16.4695C16.503 16.4695 16.4873 16.4665 16.4728 16.4607C16.4583 16.4548 16.4452 16.4463 16.4345 16.4356C16.4237 16.4249 16.4154 16.4123 16.4102 16.3985C16.405 16.3848 16.4029 16.3701 16.4041 16.3556C16.4062 16.3289 16.4193 16.304 16.4406 16.2858C16.4618 16.2677 16.4898 16.2576 16.5188 16.2576C16.5479 16.2576 16.5758 16.2677 16.5971 16.2858C16.6184 16.304 16.6315 16.3289 16.6336 16.3556Z" fill="white" stroke="black" stroke-width="0.00827291"/>
<path fill-rule="evenodd" clip-rule="evenodd" d="M16.7119 16.3615C16.7119 16.3615 16.2722 16.052 16.2605 15.3073C16.2541 14.8786 16.483 14.5691 17.056 14.5691C17.8579 14.5691 19.0032 14.8852 19.0032 14.8852V14.9906C19.0032 14.9906 18.0868 14.6745 17.0553 14.6745C16.5975 14.6745 16.3679 14.984 16.3679 15.3007C16.3679 15.8282 16.827 16.3621 16.827 16.3621V17.2057H16.7119V16.3615Z" fill="#FFF100" stroke="black" stroke-width="0.00827291"/>
<path fill-rule="evenodd" clip-rule="evenodd" d="M17.508 16.7515C17.508 16.7515 17.541 16.6712 17.6608 16.6712C17.7423 16.6712 17.8134 16.7515 17.8134 16.8318V16.9926H17.8899V16.8318C17.8899 16.7515 17.9662 16.6712 18.0426 16.6712C18.1572 16.6712 18.1954 16.7515 18.1954 16.7515C18.1954 16.7515 18.1954 16.5104 18.0426 16.5104C17.9281 16.5104 17.8899 16.5907 17.8899 16.5907C17.8899 16.5907 17.9281 16.4703 17.9281 16.3496C17.9281 16.229 17.8518 16.1487 17.8518 16.1487C17.8518 16.1641 17.7753 16.2292 17.7753 16.3496C17.7753 16.4701 17.8134 16.5907 17.8134 16.5907C17.8134 16.5907 17.7753 16.5104 17.6608 16.5104C17.508 16.5104 17.508 16.7515 17.508 16.7515Z" fill="#FFF100" stroke="black" stroke-width="0.0066331"/>
<path fill-rule="evenodd" clip-rule="evenodd" d="M19.7979 16.7515C19.7979 16.7515 19.8309 16.6712 19.9508 16.6712C20.0322 16.6712 20.1034 16.7515 20.1034 16.8318V16.9926H20.1799V16.8318C20.1799 16.7515 20.2562 16.6712 20.3325 16.6712C20.4472 16.6712 20.4853 16.7515 20.4853 16.7515C20.4853 16.7515 20.4853 16.5104 20.3325 16.5104C20.2181 16.5104 20.1799 16.5907 20.1799 16.5907C20.1799 16.5907 20.2181 16.4703 20.2181 16.3496C20.2181 16.229 20.1417 16.1487 20.1417 16.1487C20.1417 16.1641 20.0652 16.2292 20.0652 16.3496C20.0652 16.4701 20.1034 16.5907 20.1034 16.5907C20.1034 16.5907 20.0652 16.5104 19.9508 16.5104C19.7979 16.5104 19.7979 16.7515 19.7979 16.7515Z" fill="#FFF100" stroke="black" stroke-width="0.0066331"/>
<path fill-rule="evenodd" clip-rule="evenodd" d="M16.712 17.8382V16.8887C16.712 16.8887 16.941 17.2054 17.285 17.2054C17.5663 17.2054 17.858 16.7833 17.858 16.7833C17.858 16.7833 18.1264 17.1 18.431 17.1C18.7026 17.1 19.0033 16.6917 19.0033 16.6917C19.0033 16.6917 19.2827 17.1 19.5763 17.1C19.8705 17.1 20.1493 16.7833 20.1493 16.7833C20.1493 16.7833 20.4487 17.2054 20.8367 17.2054C21.1801 17.2054 21.2952 16.8887 21.2952 16.8887V17.8382H16.712Z" fill="#FFF100" stroke="black" stroke-width="0.00827291"/>
<path fill-rule="evenodd" clip-rule="evenodd" d="M16.7079 17.8385V17.1003C16.7079 17.1003 17.3954 17.3105 17.3954 17.8385H16.7079Z" fill="#FFF100" stroke="black" stroke-width="0.00827291"/>
<path fill-rule="evenodd" clip-rule="evenodd" d="M21.2866 17.8385V17.1003C21.2866 17.1003 20.5991 17.3105 20.5991 17.8385H21.2866Z" fill="#FFF100" stroke="black" stroke-width="0.00827291"/>
<path fill-rule="evenodd" clip-rule="evenodd" d="M17.1705 17.8384C17.1705 17.3104 17.8579 16.9771 17.8579 16.9771C17.8579 16.9771 18.5454 17.3104 18.5454 17.8384H17.1705Z" fill="#FFF100" stroke="black" stroke-width="0.00827291"/>
<path fill-rule="evenodd" clip-rule="evenodd" d="M19.4604 17.8384C19.4604 17.3104 20.1479 16.9771 20.1479 16.9771C20.1479 16.9771 20.8353 17.3104 20.8353 17.8384H19.4604Z" fill="#FFF100" stroke="black" stroke-width="0.00827291"/>
<path fill-rule="evenodd" clip-rule="evenodd" d="M18.2004 17.8415C18.2004 17.3141 19.003 16.8926 19.003 16.8926C19.003 16.8926 19.8049 17.3141 19.8049 17.8415H18.2011H18.2004Z" fill="#FFF100" stroke="black" stroke-width="0.00827291"/>
<path fill-rule="evenodd" clip-rule="evenodd" d="M21.406 17.8384C21.1797 17.7331 20.3446 17.6277 18.9999 17.6277C17.6553 17.6277 16.762 17.7331 16.5351 17.8384C16.3087 17.9438 16.3087 18.1551 16.5351 18.2605C16.7614 18.3659 17.6559 18.4712 18.9999 18.4712C20.344 18.4712 21.1797 18.3659 21.406 18.2605C21.6323 18.1551 21.6323 17.9438 21.406 17.8384Z" fill="white" stroke="black" stroke-width="0.00822608"/>
<path fill-rule="evenodd" clip-rule="evenodd" d="M21.2948 18.2615C21.2948 18.4715 19.3848 18.4715 18.9998 18.4715C18.5848 18.4715 16.7098 18.5315 16.7098 18.2615C16.7098 18.0515 18.5998 18.0515 18.9998 18.0515C19.3998 18.0515 21.2948 18.0915 21.2948 18.2615Z" fill="#808080"/>
<path fill-rule="evenodd" clip-rule="evenodd" d="M16.9398 17.5015C16.9398 17.5715 16.8898 17.6315 16.8248 17.6315C16.7598 17.6315 16.7098 17.5715 16.7098 17.5015C16.7098 17.4315 16.7598 17.3765 16.8248 17.3765C16.8848 17.3765 16.9398 17.4365 16.9398 17.5015ZM21.2898 17.5015C21.2898 17.5715 21.2398 17.6315 21.1748 17.6315C21.1148 17.6315 21.0598 17.5715 21.0598 17.5015C21.0598 17.4315 21.1098 17.3765 21.1748 17.3765C21.2398 17.3765 21.2898 17.4365 21.2898 17.5015Z" fill="#CC0000"/>
<path fill-rule="evenodd" clip-rule="evenodd" d="M19.2299 17.4413C19.2299 17.5063 19.1249 17.5613 18.9999 17.5613C18.8799 17.5613 18.7699 17.5063 18.7699 17.4363C18.7699 17.3663 18.8699 17.3113 18.9999 17.3113C19.1299 17.3113 19.2299 17.3713 19.2299 17.4363V17.4413Z" fill="black"/>
<path fill-rule="evenodd" clip-rule="evenodd" d="M20.3298 17.4413C20.3298 17.5063 20.2498 17.5613 20.1548 17.5613C20.0598 17.5613 19.9848 17.5063 19.9848 17.4363C19.9848 17.3663 20.0648 17.3113 20.1548 17.3113C20.2448 17.3113 20.3298 17.3713 20.3298 17.4363V17.4413ZM17.9698 17.4413C17.9698 17.5063 17.8948 17.5613 17.7998 17.5613C17.7048 17.5613 17.6248 17.5063 17.6248 17.4363C17.6248 17.3663 17.6998 17.3113 17.7998 17.3113C17.8948 17.3113 17.9698 17.3713 17.9698 17.4363V17.4413Z" fill="#006300"/>
<path fill-rule="evenodd" clip-rule="evenodd" d="M18.5428 16.7135C18.5428 16.7135 18.6736 16.5332 18.8047 16.5332H18.9355V16.6533C18.9355 16.8343 18.7393 16.8948 18.7393 16.8948H19.2629C19.2629 16.8948 19.0664 16.8343 19.0664 16.6533V16.5332H19.1975C19.3283 16.5332 19.4591 16.7142 19.4591 16.7142V16.2314C19.4591 16.2314 19.3283 16.4124 19.1975 16.4124H19.0664V16.2916C19.0664 16.111 19.2629 16.0508 19.2629 16.0508H18.739C18.739 16.0508 18.9352 16.111 18.9352 16.2916V16.4124H18.8044C18.6732 16.4124 18.5424 16.2314 18.5424 16.2314V16.7138L18.5428 16.7135Z" fill="#FFF100" stroke="black" stroke-width="0.00780004"/>
<path fill-rule="evenodd" clip-rule="evenodd" d="M16.7035 17.1012H16.8345C16.8345 17.1012 16.7362 17.0485 16.7362 16.8902V16.7851H16.8016C16.8672 16.7851 16.9328 16.9435 16.9328 16.9435V16.5211C16.9328 16.5211 16.8672 16.6794 16.8016 16.6794H16.7362V16.5738C16.7362 16.4157 16.8345 16.363 16.8345 16.363H16.7035V17.1012Z" fill="#FFF100" stroke="black" stroke-width="0.00773959"/>
<path fill-rule="evenodd" clip-rule="evenodd" d="M21.2961 17.1012H21.1651C21.1651 17.1012 21.2634 17.0485 21.2634 16.8902V16.7851H21.1979C21.1323 16.7851 21.0667 16.9435 21.0667 16.9435V16.5211C21.0667 16.5211 21.1323 16.6794 21.1979 16.6794H21.2634V16.5738C21.2634 16.4157 21.1651 16.363 21.1651 16.363H21.2961V17.1012Z" fill="#FFF100" stroke="black" stroke-width="0.00773959"/>
<path fill-rule="evenodd" clip-rule="evenodd" d="M19.1177 16.4674C19.1177 16.4954 19.1057 16.5222 19.0842 16.5419C19.0627 16.5617 19.0336 16.5728 19.0033 16.5728C18.9729 16.5728 18.9438 16.5617 18.9223 16.5419C18.9009 16.5222 18.8888 16.4954 18.8888 16.4674C18.8888 16.4395 18.9009 16.4127 18.9223 16.3929C18.9438 16.3732 18.9729 16.3621 19.0033 16.3621C19.0336 16.3621 19.0627 16.3732 19.0842 16.3929C19.1057 16.4127 19.1177 16.4395 19.1177 16.4674Z" fill="white" stroke="black" stroke-width="0.00827291"/>
<path fill-rule="evenodd" clip-rule="evenodd" d="M18.5428 14.4986C18.5428 14.4986 18.6736 14.3183 18.8047 14.3183H18.9355V14.4384C18.9355 14.6194 18.7393 14.68 18.7393 14.68H19.2629C19.2629 14.68 19.0664 14.6194 19.0664 14.4384V14.3183H19.1975C19.3283 14.3183 19.4591 14.4993 19.4591 14.4993V14.0166C19.4591 14.0166 19.3283 14.1976 19.1975 14.1976H19.0664V14.0768C19.0664 13.8962 19.2629 13.8359 19.2629 13.8359H18.739C18.739 13.8359 18.9352 13.8962 18.9352 14.0768V14.1976H18.8044C18.6732 14.1976 18.5424 14.0166 18.5424 14.0166V14.499L18.5428 14.4986Z" fill="#FFF100" stroke="black" stroke-width="0.00780004"/>
<path fill-rule="evenodd" clip-rule="evenodd" d="M19.1277 14.2724C19.1277 14.3003 19.1156 14.3271 19.0942 14.3469C19.0727 14.3666 19.0436 14.3777 19.0132 14.3777C18.9829 14.3777 18.9538 14.3666 18.9323 14.3469C18.9108 14.3271 18.8988 14.3003 18.8988 14.2724C18.8988 14.2444 18.9108 14.2176 18.9323 14.1979C18.9538 14.1781 18.9829 14.167 19.0132 14.167C19.0436 14.167 19.0727 14.1781 19.0942 14.1979C19.1156 14.2176 19.1277 14.2444 19.1277 14.2724Z" fill="white" stroke="black" stroke-width="0.00827291"/>
<path fill-rule="evenodd" clip-rule="evenodd" d="M18.7743 14.6782H19.2328V14.9949H18.7736L18.7743 14.6782Z" fill="#FFF100" stroke="black" stroke-width="0.00827291"/>
<path fill-rule="evenodd" clip-rule="evenodd" d="M18.7743 14.8438H19.2328V16.0492H18.7736L18.7743 14.8438Z" fill="#FFF100" stroke="black" stroke-width="0.00827291"/>
<path fill-rule="evenodd" clip-rule="evenodd" d="M19.1136 15.8304C19.1147 15.845 19.1127 15.8596 19.1074 15.8734C19.1022 15.8871 19.0939 15.8998 19.0832 15.9105C19.0724 15.9211 19.0593 15.9297 19.0448 15.9355C19.0303 15.9413 19.0146 15.9443 18.9988 15.9443C18.9829 15.9443 18.9672 15.9413 18.9527 15.9355C18.9382 15.9297 18.9251 15.9211 18.9144 15.9105C18.9036 15.8998 18.8953 15.8871 18.8901 15.8734C18.8849 15.8596 18.8828 15.845 18.884 15.8304C18.8861 15.8038 18.8992 15.7789 18.9205 15.7607C18.9418 15.7425 18.9697 15.7324 18.9988 15.7324C19.0278 15.7324 19.0558 15.7425 19.0771 15.7607C19.0983 15.7789 19.1114 15.8038 19.1136 15.8304Z" fill="white" stroke="black" stroke-width="0.00827291"/>
<path fill-rule="evenodd" clip-rule="evenodd" d="M19.1136 15.5604C19.1147 15.575 19.1127 15.5896 19.1074 15.6034C19.1022 15.6171 19.0939 15.6297 19.0832 15.6404C19.0724 15.6511 19.0593 15.6597 19.0448 15.6655C19.0303 15.6713 19.0146 15.6743 18.9988 15.6743C18.9829 15.6743 18.9672 15.6713 18.9527 15.6655C18.9382 15.6597 18.9251 15.6511 18.9144 15.6404C18.9036 15.6297 18.8953 15.6171 18.8901 15.6034C18.8849 15.5896 18.8828 15.575 18.884 15.5604C18.8861 15.5338 18.8992 15.5089 18.9205 15.4907C18.9418 15.4725 18.9697 15.4624 18.9988 15.4624C19.0278 15.4624 19.0558 15.4725 19.0771 15.4907C19.0983 15.5089 19.1114 15.5338 19.1136 15.5604Z" fill="white" stroke="black" stroke-width="0.00827291"/>
<path fill-rule="evenodd" clip-rule="evenodd" d="M19.1136 15.3107C19.1147 15.3252 19.1127 15.3398 19.1074 15.3536C19.1022 15.3674 19.0939 15.38 19.0832 15.3907C19.0724 15.4014 19.0593 15.4099 19.0448 15.4157C19.0303 15.4216 19.0146 15.4246 18.9988 15.4246C18.9829 15.4246 18.9672 15.4216 18.9527 15.4157C18.9382 15.4099 18.9251 15.4014 18.9144 15.3907C18.9036 15.38 18.8953 15.3674 18.8901 15.3536C18.8849 15.3398 18.8828 15.3252 18.884 15.3107C18.8861 15.284 18.8992 15.2591 18.9205 15.2409C18.9418 15.2227 18.9697 15.2126 18.9988 15.2126C19.0278 15.2126 19.0558 15.2227 19.0771 15.2409C19.0983 15.2591 19.1114 15.284 19.1136 15.3107Z" fill="white" stroke="black" stroke-width="0.00827291"/>
<path fill-rule="evenodd" clip-rule="evenodd" d="M19.1136 15.0458C19.1147 15.0603 19.1127 15.0749 19.1074 15.0887C19.1022 15.1025 19.0939 15.1151 19.0832 15.1258C19.0724 15.1365 19.0593 15.145 19.0448 15.1508C19.0303 15.1567 19.0146 15.1597 18.9988 15.1597C18.9829 15.1597 18.9672 15.1567 18.9527 15.1508C18.9382 15.145 18.9251 15.1365 18.9144 15.1258C18.9036 15.1151 18.8953 15.1025 18.8901 15.0887C18.8849 15.0749 18.8828 15.0603 18.884 15.0458C18.8861 15.0191 18.8992 14.9942 18.9205 14.976C18.9418 14.9579 18.9697 14.9478 18.9988 14.9478C19.0278 14.9478 19.0558 14.9579 19.0771 14.976C19.0983 14.9942 19.1114 15.0191 19.1136 15.0458Z" fill="white" stroke="black" stroke-width="0.00827291"/>
<path fill-rule="evenodd" clip-rule="evenodd" d="M19.2448 17.8411C19.2448 17.8911 19.1398 17.9261 19.0048 17.9261C18.8698 17.9261 18.7798 17.8911 18.7798 17.8411C18.7798 17.7911 18.8798 17.7561 19.0098 17.7561C19.1398 17.7561 19.2448 17.7961 19.2448 17.8411ZM21.3498 18.0511C21.3348 18.0861 21.2198 18.0911 21.0948 18.0511C20.9648 18.0261 20.8748 17.9811 20.8848 17.9511C20.8998 17.9111 21.0148 17.9111 21.1398 17.9411C21.2698 17.9711 21.3598 18.0161 21.3498 18.0511ZM20.4648 17.9111C20.4648 17.9511 20.3498 17.9761 20.2148 17.9711C20.0898 17.9611 19.9848 17.9211 19.9898 17.8711C19.9948 17.8311 20.1098 17.8111 20.2398 17.8211C20.3698 17.8261 20.4748 17.8661 20.4648 17.9111ZM16.5898 18.0511C16.5998 18.0861 16.7148 18.0911 16.8398 18.0511C16.9698 18.0261 17.0648 17.9811 17.0498 17.9511C17.0348 17.9111 16.9248 17.9111 16.7998 17.9411C16.6698 17.9711 16.5798 18.0161 16.5898 18.0511ZM17.5148 17.8911C17.5198 17.9311 17.6348 17.9561 17.7648 17.9461C17.8948 17.9361 17.9998 17.8961 17.9898 17.8511C17.9898 17.8161 17.8748 17.7861 17.7398 17.7961C17.6148 17.8061 17.5098 17.8461 17.5148 17.8911Z" fill="black"/>
<path d="M-3.9 0H12.1V12H-3.9V0Z" fill="#012169"/>
<path d="M-2.025 0L4.075 4.525L10.15 0H12.1V1.55L6.1 6.025L12.1 10.475V12H10.1L4.1 7.525L-1.875 12H-3.9V10.5L2.075 6.05L-3.9 1.6V0H-2.025Z" fill="white"/>
<path d="M6.7 7.025L12.1 11V12L5.325 7.025H6.7ZM2.1 7.525L2.25 8.4L-2.55 12H-3.9L2.1 7.525ZM12.1 0V0.075L5.875 4.775L5.925 3.675L10.85 0H12.1ZM-3.9 0L2.075 4.4H0.575L-3.9 1.05V0Z" fill="#C8102E"/>
<path d="M2.125 0V12H6.125V0H2.125ZM-3.9 4V8H12.1V4H-3.9Z" fill="white"/>
<path d="M-3.9 4.825V7.225H12.1V4.825H-3.9ZM2.925 0V12H5.325V0H2.925Z" fill="#C8102E"/>
</g>
</g>
<defs>
<clipPath id="clip0_3053_1916">
<rect width="24" height="24" fill="white"/>
</clipPath>
<clipPath id="clip1_3053_1916">
<rect width="24" height="24" rx="12" fill="white"/>
</clipPath>
</defs>
</svg>
