<svg width="24" height="24" viewBox="0 0 24 24" fill="none" xmlns="http://www.w3.org/2000/svg">
<g clip-path="url(#clip0_2214_3900)">
<g clip-path="url(#clip1_2214_3900)">
<mask id="mask0_2214_3900" style="mask-type:luminance" maskUnits="userSpaceOnUse" x="-1" y="0" width="33" height="24">
<path d="M-0.0015564 0H31.9953V24H-0.0015564V0Z" fill="white"/>
</mask>
<g mask="url(#mask0_2214_3900)">
<path fill-rule="evenodd" clip-rule="evenodd" d="M-2.00311 0H33.9969V24H-2.00311V0Z" fill="#0C590B"/>
<path fill-rule="evenodd" clip-rule="evenodd" d="M-2.00311 0H7.02032V24H-2.00311V0Z" fill="white"/>
<path fill-rule="evenodd" clip-rule="evenodd" d="M21.3734 10.5656L19.9109 10.2562L19.1422 11.5359L18.9828 10.0546L17.5297 9.71714L18.8891 9.10776L18.7625 7.62183L19.7656 8.72808L21.1391 8.14683L20.3938 9.44058L21.3781 10.5656H21.3734Z" fill="white"/>
<path fill-rule="evenodd" clip-rule="evenodd" d="M21.9219 14.3438C21.6109 15.0253 21.168 15.6385 20.6188 16.1479C20.0695 16.6574 19.4248 17.053 18.7218 17.3119C18.0188 17.5707 17.2715 17.6878 16.523 17.6563C15.7745 17.6247 15.0397 17.4452 14.3609 17.1281C13.6785 16.8128 13.0649 16.366 12.5552 15.8134C12.0456 15.2607 11.65 14.613 11.3909 13.9072C11.1319 13.2015 11.0145 12.4516 11.0456 11.7004C11.0766 10.9493 11.2555 10.2116 11.5719 9.52969C11.8896 8.82224 12.3513 8.18881 12.9276 7.66984C13.5039 7.15087 14.182 6.75777 14.9188 6.51562C14.7257 6.67633 14.5411 6.84686 14.3656 7.02656C13.4511 8.03938 12.9656 9.36776 13.0116 10.7316C13.0575 12.0954 13.6312 13.3882 14.6118 14.3371C15.5925 15.2861 16.9033 15.8172 18.2679 15.8185C19.6325 15.8197 20.9443 15.291 21.9266 14.3438H21.9219Z" fill="white"/>
</g>
</g>
</g>
<defs>
<clipPath id="clip0_2214_3900">
<path d="M0 12C0 5.37258 5.37258 0 12 0C18.6274 0 24 5.37258 24 12C24 18.6274 18.6274 24 12 24C5.37258 24 0 18.6274 0 12Z" fill="white"/>
</clipPath>
<clipPath id="clip1_2214_3900">
<rect width="32" height="24" fill="white"/>
</clipPath>
</defs>
</svg>
