<svg width="24" height="24" viewBox="0 0 24 24" fill="none" xmlns="http://www.w3.org/2000/svg">
<g clip-path="url(#clip0_2214_3090)">
<g clip-path="url(#clip1_2214_3090)">
<mask id="mask0_2214_3090" style="mask-type:luminance" maskUnits="userSpaceOnUse" x="-4" y="0" width="32" height="24">
<path d="M-3.99844 0H27.9984V24H-3.99844V0Z" fill="white"/>
</mask>
<g mask="url(#mask0_2214_3090)">
<path fill-rule="evenodd" clip-rule="evenodd" d="M-3.99844 0H27.9984V24H-3.99844V0Z" fill="#000099"/>
<path fill-rule="evenodd" clip-rule="evenodd" d="M2.64844 0L26.6016 24.0141V0.0140625L2.64844 0Z" fill="#FFCC00"/>
<path fill-rule="evenodd" clip-rule="evenodd" d="M20.6203 22.5704L19.3125 21.6188L17.9719 22.5657L18.4781 21.0094L17.1562 20.0485H18.7969L19.3031 18.4922L19.8047 20.0532H21.4453L20.1328 21.0235L20.6203 22.5704ZM24.4313 23.0579L22.7906 23.0532L22.2891 21.4922L21.7828 23.0485H20.1422L21.4641 24.0094L20.9578 25.5657L22.2984 24.6188L23.6109 25.5704L23.1188 24.0235L24.4313 23.0579ZM17.1375 18.0329L18.45 17.0626L16.8094 17.0579L16.3078 15.5016L15.8016 17.0579L14.1609 17.0532L15.4828 18.0141L14.9766 19.5751L16.3172 18.6235L17.6297 19.5797L17.1375 18.0329ZM14.1234 15.0094L15.4359 14.0438L13.7953 14.0391L13.2938 12.4782L12.7828 14.0344H11.1469L12.4688 14.9954L11.9625 16.5516L13.3031 15.6047L14.6109 16.5563L14.1234 15.0094ZM11.1375 12.0282L12.45 11.0579H10.8094L10.3125 9.49224L9.80625 11.0485H8.16563L9.4875 12.0047L8.98125 13.5657L10.3219 12.6141L11.6344 13.5704L11.1422 12.0235L11.1375 12.0282ZM8.11875 9.01411L9.43125 8.04849L7.79062 8.0438L7.28906 6.48286L6.77813 8.03911H5.14219L6.46875 9.00005L5.9625 10.5563L7.30313 9.60943L8.61094 10.561L8.12344 9.01411H8.11875ZM5.1375 6.0188L6.44531 5.04849H4.80469L4.30781 3.48286L3.79688 5.0438H2.15625L3.4875 6.00005L2.97656 7.5563L4.31719 6.60942L5.62031 7.56567L5.1375 6.0188ZM2.1375 3.0188L3.44531 2.04849H1.80469L1.30781 0.482862L0.796875 2.0438H-0.84375L0.4875 3.00005L-0.0281248 4.56099L1.31719 3.60942L2.62031 4.56567L2.1375 3.0188ZM-0.8625 0.0187991L0.440625 -0.951514H-1.2L-1.70156 -2.51245L-2.20312 -0.956201H-3.84375L-2.51719 4.88758e-05L-3.02344 1.5563L-1.68281 0.609424L-0.379687 1.56567L-0.8625 0.0187991Z" fill="white"/>
</g>
</g>
</g>
<defs>
<clipPath id="clip0_2214_3090">
<path d="M0 12C0 5.37258 5.37258 0 12 0C18.6274 0 24 5.37258 24 12C24 18.6274 18.6274 24 12 24C5.37258 24 0 18.6274 0 12Z" fill="white"/>
</clipPath>
<clipPath id="clip1_2214_3090">
<rect width="32" height="24" fill="white" transform="translate(-4)"/>
</clipPath>
</defs>
</svg>
