<svg width="24" height="24" viewBox="0 0 24 24" fill="none" xmlns="http://www.w3.org/2000/svg">
<g clip-path="url(#clip0_2214_3892)">
<g clip-path="url(#clip1_2214_3892)">
<mask id="mask0_2214_3892" style="mask-type:luminance" maskUnits="userSpaceOnUse" x="0" y="0" width="32" height="24">
<path d="M0 0H32V24H0V0Z" fill="white"/>
</mask>
<g mask="url(#mask0_2214_3892)">
<path fill-rule="evenodd" clip-rule="evenodd" d="M-0.165039 -1.08008H34.95V26.5699H-0.165039V-1.08008Z" fill="#EF2D29"/>
<path fill-rule="evenodd" clip-rule="evenodd" d="M8.72998 15.865H35.515V26.25H8.72998V15.865Z" fill="#009025"/>
<path fill-rule="evenodd" clip-rule="evenodd" d="M8.72998 -1.77002H36.975V7.72998H8.72498L8.72998 -1.77002Z" fill="white"/>
<path d="M7.00008 3.47949H5.85286C5.79093 3.47949 5.74072 3.52636 5.74072 3.58418V4.12892C5.74072 4.18674 5.79093 4.23361 5.85286 4.23361H7.00008C7.06201 4.23361 7.11222 4.18674 7.11222 4.12892V3.58418C7.11222 3.52636 7.06201 3.47949 7.00008 3.47949Z" fill="white" stroke="#EF2D28" stroke-width="0.0131366"/>
<path d="M6.97122 3.51147H5.88255C5.82391 3.51147 5.77637 3.55477 5.77637 3.60818V4.10679C5.77637 4.16019 5.82391 4.20349 5.88255 4.20349H6.97122C7.02986 4.20349 7.0774 4.16019 7.0774 4.10679V3.60818C7.0774 3.55477 7.02986 3.51147 6.97122 3.51147Z" fill="white" stroke="#EF2D28" stroke-width="0.0121982"/>
<path fill-rule="evenodd" clip-rule="evenodd" d="M6.38142 3.69897L6.44699 3.70157L6.44969 3.73168L6.50376 3.7592L6.54567 3.72441L6.59636 3.75193L6.54905 3.78204L6.56054 3.82358L6.62002 3.82098V3.8755L6.5727 3.87342L6.54837 3.90769L6.60244 3.94663L6.56054 3.97882L6.51525 3.94455L6.44969 3.95805L6.45307 4.00841L6.38142 4.0136L6.37196 3.9648L6.31248 3.93988L6.27936 3.97415L6.22867 3.9487L6.25841 3.90977L6.22259 3.88484H6.17189L6.16919 3.81372L6.21988 3.81839L6.25571 3.77685L6.2138 3.74466L6.26787 3.70832L6.3064 3.73791L6.37196 3.72857L6.38142 3.69897Z" fill="white" stroke="#EF2D28" stroke-width="0.00770103"/>
<path d="M6.40014 3.91047C6.44018 3.91047 6.47264 3.88285 6.47264 3.84879C6.47264 3.81472 6.44018 3.78711 6.40014 3.78711C6.3601 3.78711 6.32764 3.81472 6.32764 3.84879C6.32764 3.88285 6.3601 3.91047 6.40014 3.91047Z" fill="white" stroke="#EF2D28" stroke-width="0.00829308"/>
<path fill-rule="evenodd" clip-rule="evenodd" d="M5.95203 3.54248L5.84584 3.63652L5.95203 3.54248ZM6.02249 3.54248L5.9163 3.63652L6.02249 3.54248ZM6.09196 3.54248L5.98676 3.63652L6.09196 3.54248ZM6.16242 3.54248L6.05722 3.63652L6.16242 3.54248ZM6.23288 3.54248L6.12768 3.63652L6.23288 3.54248ZM6.30334 3.54248L6.19814 3.63652L6.30334 3.54248ZM6.3738 3.54248L6.2686 3.63652L6.3738 3.54248ZM6.44426 3.54248L6.33906 3.63652L6.44426 3.54248ZM6.51472 3.54248L6.40853 3.63652L6.51472 3.54248ZM6.58518 3.54248L6.478 3.63652L6.58518 3.54248ZM6.65365 3.54248L6.54846 3.63652L6.65365 3.54248ZM6.72412 3.54248L6.61892 3.63652L6.72412 3.54248ZM6.44327 3.54248L6.33906 3.63652L6.44327 3.54248ZM6.79557 3.54248L6.69037 3.63652L6.79557 3.54248ZM6.86603 3.54248L6.76083 3.63652L6.86603 3.54248ZM6.93649 3.54248L6.83129 3.63652L6.93649 3.54248ZM7.00695 3.54248L6.90175 3.63652L7.00695 3.54248ZM6.90175 3.54248L7.00695 3.63652L6.90175 3.54248ZM6.83129 3.54248L6.93649 3.63652L6.83129 3.54248ZM6.76083 3.54248L6.86603 3.63652L6.76083 3.54248ZM6.69037 3.54248L6.79557 3.63652L6.69037 3.54248ZM6.61991 3.54248L6.72511 3.63652L6.61991 3.54248ZM6.54945 3.54248L6.65465 3.63652L6.54945 3.54248ZM6.47899 3.54248L6.58518 3.63652L6.47899 3.54248ZM6.40853 3.54248L6.51373 3.63652L6.40853 3.54248ZM6.33708 3.54248L6.44327 3.63652L6.33708 3.54248ZM6.26761 3.54248L6.37281 3.63652L6.26761 3.54248ZM6.19715 3.54248L6.30235 3.63652L6.19715 3.54248ZM6.12669 3.54248L6.23188 3.63652L6.12669 3.54248ZM6.40853 3.54248L6.51373 3.63652L6.40853 3.54248ZM6.05722 3.54248L6.16142 3.63652L6.05722 3.54248ZM5.98577 3.54248L6.09196 3.63652L5.98577 3.54248ZM5.91531 3.54248L6.0215 3.63652L5.91531 3.54248ZM5.84485 3.54248L5.95203 3.63652L5.84485 3.54248ZM5.95203 4.07657L5.84683 4.17151L5.95203 4.07657ZM6.0215 4.07657L5.91531 4.17151L6.0215 4.07657ZM6.09295 4.07657L5.98676 4.17151L6.09295 4.07657ZM6.16242 4.07657L6.05722 4.17151L6.16242 4.07657ZM6.23288 4.07657L6.12768 4.17151L6.23288 4.07657ZM6.30334 4.07657L6.19814 4.17151L6.30334 4.07657ZM6.3738 4.07657L6.2696 4.17151L6.3738 4.07657ZM6.44426 4.07657L6.33906 4.17151L6.44426 4.07657ZM6.51472 4.07657L6.40853 4.17151L6.51472 4.07657ZM6.58419 4.07657L6.478 4.17151L6.58419 4.07657ZM6.65663 4.07657L6.55045 4.17151L6.65663 4.07657ZM6.7261 4.07657L6.62091 4.17151L6.7261 4.07657ZM6.44426 4.07657L6.33906 4.17151L6.44426 4.07657ZM6.79557 4.07657L6.69037 4.17151L6.79557 4.07657ZM6.86603 4.07657L6.76083 4.17151L6.86603 4.07657ZM6.93649 4.07657L6.83129 4.17151L6.93649 4.07657ZM7.00695 4.07657L6.90175 4.17151L7.00695 4.07657ZM6.90175 4.07657L7.00695 4.17151L6.90175 4.07657ZM6.83129 4.07657L6.93649 4.17151L6.83129 4.07657ZM6.76083 4.07657L6.86603 4.17151L6.76083 4.07657ZM6.69037 4.07657L6.79557 4.17151L6.69037 4.07657ZM6.61991 4.07657L6.72511 4.17151L6.61991 4.07657ZM6.54945 4.07657L6.65564 4.17151L6.54945 4.07657ZM6.478 4.07657L6.58419 4.17151L6.478 4.07657ZM6.40853 4.07657L6.51373 4.17151L6.40853 4.07657ZM6.33906 4.07657L6.44426 4.17151L6.33906 4.07657ZM6.2686 4.07657L6.3738 4.17151L6.2686 4.07657ZM6.19814 4.07657L6.30334 4.17151L6.19814 4.07657ZM6.12768 4.07657L6.23288 4.17151L6.12768 4.07657ZM6.40952 4.07657L6.51472 4.17151L6.40952 4.07657ZM6.05821 4.07657L6.16242 4.17151L6.05821 4.07657ZM5.98676 4.07657L6.09295 4.17151L5.98676 4.07657ZM5.9163 4.07657L6.02249 4.17151L5.9163 4.07657ZM5.84683 4.07657L5.95203 4.17151L5.84683 4.07657Z" fill="white"/>
<path d="M5.95203 3.54248L5.84584 3.63652M6.02249 3.54248L5.9163 3.63652M6.09196 3.54248L5.98676 3.63652M6.16242 3.54248L6.05722 3.63652M6.23288 3.54248L6.12768 3.63652M6.30334 3.54248L6.19814 3.63652M6.3738 3.54248L6.2686 3.63652M6.44426 3.54248L6.33906 3.63652L6.44327 3.54248M6.51472 3.54248L6.40853 3.63652M6.58518 3.54248L6.478 3.63652M6.65365 3.54248L6.54846 3.63652M6.72412 3.54248L6.61892 3.63652M6.79557 3.54248L6.69037 3.63652M6.86603 3.54248L6.76083 3.63652M6.93649 3.54248L6.83129 3.63652M7.00695 3.54248L6.90175 3.63652M6.90175 3.54248L7.00695 3.63652M6.83129 3.54248L6.93649 3.63652M6.76083 3.54248L6.86603 3.63652M6.69037 3.54248L6.79557 3.63652M6.61991 3.54248L6.72511 3.63652M6.54945 3.54248L6.65465 3.63652M6.47899 3.54248L6.58518 3.63652M6.40853 3.54248L6.51373 3.63652M6.33708 3.54248L6.44327 3.63652M6.26761 3.54248L6.37281 3.63652M6.19715 3.54248L6.30235 3.63652M6.12669 3.54248L6.23188 3.63652M6.05722 3.54248L6.16142 3.63652M5.98577 3.54248L6.09196 3.63652M5.91531 3.54248L6.0215 3.63652M5.84485 3.54248L5.95203 3.63652M5.95203 4.07658L5.84683 4.17151M6.0215 4.07658L5.91531 4.17151M6.09295 4.07658L5.98676 4.17151M6.16242 4.07658L6.05722 4.17151M6.23288 4.07658L6.12768 4.17151M6.30334 4.07658L6.19814 4.17151M6.3738 4.07658L6.2696 4.17151M6.44426 4.07658L6.33906 4.17151M6.51472 4.07658L6.40853 4.17151M6.58419 4.07658L6.478 4.17151M6.65663 4.07658L6.55045 4.17151M6.7261 4.07658L6.62091 4.17151M6.79557 4.07658L6.69037 4.17151M6.86603 4.07658L6.76083 4.17151M6.93649 4.07658L6.83129 4.17151M7.00695 4.07658L6.90175 4.17151M6.90175 4.07658L7.00695 4.17151M6.83129 4.07658L6.93649 4.17151M6.76083 4.07658L6.86603 4.17151M6.69037 4.07658L6.79557 4.17151M6.61991 4.07658L6.72511 4.17151M6.54945 4.07658L6.65564 4.17151M6.478 4.07658L6.58419 4.17151M6.40853 4.07658L6.51373 4.17151M6.33906 4.07658L6.44426 4.17151M6.2686 4.07658L6.3738 4.17151M6.19814 4.07658L6.30334 4.17151M6.12768 4.07658L6.23288 4.17151M6.40952 4.07658L6.51472 4.17151M6.05821 4.07658L6.16242 4.17151M5.98676 4.07658L6.09295 4.17151M5.9163 4.07658L6.02249 4.17151M5.84683 4.07658L5.95203 4.17151" stroke="#EF2D28" stroke-width="0.0121982"/>
<path d="M2.38997 3.44946H1.24276C1.18082 3.44946 1.13062 3.49633 1.13062 3.55415V4.09889C1.13062 4.15671 1.18082 4.20358 1.24276 4.20358H2.38997C2.4519 4.20358 2.50211 4.15671 2.50211 4.09889V3.55415C2.50211 3.49633 2.4519 3.44946 2.38997 3.44946Z" fill="white" stroke="#EF2D28" stroke-width="0.0131366"/>
<path d="M2.36123 3.48145H1.27257C1.21392 3.48145 1.16638 3.52474 1.16638 3.57815V4.07676C1.16638 4.13017 1.21392 4.17346 1.27257 4.17346H2.36123C2.41988 4.17346 2.46742 4.13017 2.46742 4.07676V3.57815C2.46742 3.52474 2.41988 3.48145 2.36123 3.48145Z" fill="white" stroke="#EF2D28" stroke-width="0.0121982"/>
<path fill-rule="evenodd" clip-rule="evenodd" d="M1.77144 3.66895L1.837 3.67154L1.8397 3.70165L1.89378 3.72917L1.93568 3.69439L1.98638 3.7219L1.93906 3.75202L1.95055 3.79355L2.01003 3.79095V3.84547L1.96272 3.84339L1.93839 3.87766L1.99246 3.9166L1.95055 3.94879L1.90527 3.91452L1.8397 3.92802L1.84308 3.97838L1.77144 3.98357L1.76198 3.93477L1.7025 3.90985L1.66938 3.94412L1.61868 3.91868L1.64842 3.87974L1.6126 3.85482H1.56191L1.5592 3.78369L1.6099 3.78836L1.64572 3.74682L1.60381 3.71463L1.65789 3.67829L1.69641 3.70788L1.76198 3.69854L1.77144 3.66895Z" fill="white" stroke="#EF2D28" stroke-width="0.00770103"/>
<path d="M1.79016 3.8802C1.8302 3.8802 1.86266 3.85258 1.86266 3.81852C1.86266 3.78445 1.8302 3.75684 1.79016 3.75684C1.75011 3.75684 1.71765 3.78445 1.71765 3.81852C1.71765 3.85258 1.75011 3.8802 1.79016 3.8802Z" fill="white" stroke="#EF2D28" stroke-width="0.00829308"/>
<path fill-rule="evenodd" clip-rule="evenodd" d="M1.34204 3.51245L1.23586 3.60649L1.34204 3.51245ZM1.4125 3.51245L1.30632 3.60649L1.4125 3.51245ZM1.48197 3.51245L1.37678 3.60649L1.48197 3.51245ZM1.55243 3.51245L1.44724 3.60649L1.55243 3.51245ZM1.62289 3.51245L1.5177 3.60649L1.62289 3.51245ZM1.69335 3.51245L1.58816 3.60649L1.69335 3.51245ZM1.76381 3.51245L1.65862 3.60649L1.76381 3.51245ZM1.83427 3.51245L1.72908 3.60649L1.83427 3.51245ZM1.90473 3.51245L1.79855 3.60649L1.90473 3.51245ZM1.97519 3.51245L1.86801 3.60649L1.97519 3.51245ZM2.04367 3.51245L1.93847 3.60649L2.04367 3.51245ZM2.11413 3.51245L2.00894 3.60649L2.11413 3.51245ZM1.83328 3.51245L1.72908 3.60649L1.83328 3.51245ZM2.18558 3.51245L2.08039 3.60649L2.18558 3.51245ZM2.25604 3.51245L2.15085 3.60649L2.25604 3.51245ZM2.3265 3.51245L2.22131 3.60649L2.3265 3.51245ZM2.39696 3.51245L2.29177 3.60649L2.39696 3.51245ZM2.29177 3.51245L2.39696 3.60649L2.29177 3.51245ZM2.22131 3.51245L2.3265 3.60649L2.22131 3.51245ZM2.15085 3.51245L2.25604 3.60649L2.15085 3.51245ZM2.08039 3.51245L2.18558 3.60649L2.08039 3.51245ZM2.00993 3.51245L2.11512 3.60649L2.00993 3.51245ZM1.93947 3.51245L2.04466 3.60649L1.93947 3.51245ZM1.86901 3.51245L1.97519 3.60649L1.86901 3.51245ZM1.79855 3.51245L1.90374 3.60649L1.79855 3.51245ZM1.72709 3.51245L1.83328 3.60649L1.72709 3.51245ZM1.65763 3.51245L1.76282 3.60649L1.65763 3.51245ZM1.58717 3.51245L1.69236 3.60649L1.58717 3.51245ZM1.5167 3.51245L1.6219 3.60649L1.5167 3.51245ZM1.79855 3.51245L1.90374 3.60649L1.79855 3.51245ZM1.44724 3.51245L1.55144 3.60649L1.44724 3.51245ZM1.37578 3.51245L1.48197 3.60649L1.37578 3.51245ZM1.30532 3.51245L1.41151 3.60649L1.30532 3.51245ZM1.23486 3.51245L1.34204 3.60649L1.23486 3.51245ZM1.34204 4.04655L1.23685 4.14148L1.34204 4.04655ZM1.41151 4.04655L1.30532 4.14148L1.41151 4.04655ZM1.48296 4.04655L1.37678 4.14148L1.48296 4.04655ZM1.55243 4.04655L1.44724 4.14148L1.55243 4.04655ZM1.62289 4.04655L1.5177 4.14148L1.62289 4.04655ZM1.69335 4.04655L1.58816 4.14148L1.69335 4.04655ZM1.76381 4.04655L1.65961 4.14148L1.76381 4.04655ZM1.83427 4.04655L1.72908 4.14148L1.83427 4.04655ZM1.90473 4.04655L1.79855 4.14148L1.90473 4.04655ZM1.9742 4.04655L1.86801 4.14148L1.9742 4.04655ZM2.04665 4.04655L1.94046 4.14148L2.04665 4.04655ZM2.11611 4.04655L2.01092 4.14148L2.11611 4.04655ZM1.83427 4.04655L1.72908 4.14148L1.83427 4.04655ZM2.18558 4.04655L2.08039 4.14148L2.18558 4.04655ZM2.25604 4.04655L2.15085 4.14148L2.25604 4.04655ZM2.3265 4.04655L2.22131 4.14148L2.3265 4.04655ZM2.39696 4.04655L2.29177 4.14148L2.39696 4.04655ZM2.29177 4.04655L2.39696 4.14148L2.29177 4.04655ZM2.22131 4.04655L2.3265 4.14148L2.22131 4.04655ZM2.15085 4.04655L2.25604 4.14148L2.15085 4.04655ZM2.08039 4.04655L2.18558 4.14148L2.08039 4.04655ZM2.00993 4.04655L2.11512 4.14148L2.00993 4.04655ZM1.93947 4.04655L2.04565 4.14148L1.93947 4.04655ZM1.86801 4.04655L1.9742 4.14148L1.86801 4.04655ZM1.79855 4.04655L1.90374 4.14148L1.79855 4.04655ZM1.72908 4.04655L1.83427 4.14148L1.72908 4.04655ZM1.65862 4.04655L1.76381 4.14148L1.65862 4.04655ZM1.58816 4.04655L1.69335 4.14148L1.58816 4.04655ZM1.5177 4.04655L1.62289 4.14148L1.5177 4.04655ZM1.79954 4.04655L1.90473 4.14148L1.79954 4.04655ZM1.44823 4.04655L1.55243 4.14148L1.44823 4.04655ZM1.37678 4.04655L1.48296 4.14148L1.37678 4.04655ZM1.30632 4.04655L1.4125 4.14148L1.30632 4.04655ZM1.23685 4.04655L1.34204 4.14148L1.23685 4.04655Z" fill="white"/>
<path d="M1.34204 3.51245L1.23586 3.60649M1.4125 3.51245L1.30632 3.60649M1.48197 3.51245L1.37678 3.60649M1.55243 3.51245L1.44724 3.60649M1.62289 3.51245L1.5177 3.60649M1.69335 3.51245L1.58816 3.60649M1.76381 3.51245L1.65862 3.60649M1.83427 3.51245L1.72908 3.60649L1.83328 3.51245M1.90473 3.51245L1.79855 3.60649M1.97519 3.51245L1.86801 3.60649M2.04367 3.51245L1.93847 3.60649M2.11413 3.51245L2.00894 3.60649M2.18558 3.51245L2.08039 3.60649M2.25604 3.51245L2.15085 3.60649M2.3265 3.51245L2.22131 3.60649M2.39696 3.51245L2.29177 3.60649M2.29177 3.51245L2.39696 3.60649M2.22131 3.51245L2.3265 3.60649M2.15085 3.51245L2.25604 3.60649M2.08039 3.51245L2.18558 3.60649M2.00993 3.51245L2.11512 3.60649M1.93947 3.51245L2.04466 3.60649M1.86901 3.51245L1.97519 3.60649M1.79855 3.51245L1.90374 3.60649M1.72709 3.51245L1.83328 3.60649M1.65763 3.51245L1.76282 3.60649M1.58717 3.51245L1.69236 3.60649M1.5167 3.51245L1.6219 3.60649M1.44724 3.51245L1.55144 3.60649M1.37578 3.51245L1.48197 3.60649M1.30532 3.51245L1.41151 3.60649M1.23486 3.51245L1.34204 3.60649M1.34204 4.04655L1.23685 4.14148M1.41151 4.04655L1.30532 4.14148M1.48296 4.04655L1.37678 4.14148M1.55243 4.04655L1.44724 4.14148M1.62289 4.04655L1.5177 4.14148M1.69335 4.04655L1.58816 4.14148M1.76381 4.04655L1.65961 4.14148M1.83427 4.04655L1.72908 4.14148M1.90473 4.04655L1.79855 4.14148M1.9742 4.04655L1.86801 4.14148M2.04665 4.04655L1.94046 4.14148M2.11611 4.04655L2.01092 4.14148M2.18558 4.04655L2.08039 4.14148M2.25604 4.04655L2.15085 4.14148M2.3265 4.04655L2.22131 4.14148M2.39696 4.04655L2.29177 4.14148M2.29177 4.04655L2.39696 4.14148M2.22131 4.04655L2.3265 4.14148M2.15085 4.04655L2.25604 4.14148M2.08039 4.04655L2.18558 4.14148M2.00993 4.04655L2.11512 4.14148M1.93947 4.04655L2.04565 4.14148M1.86801 4.04655L1.9742 4.14148M1.79855 4.04655L1.90374 4.14148M1.72908 4.04655L1.83427 4.14148M1.65862 4.04655L1.76381 4.14148M1.58816 4.04655L1.69335 4.14148M1.5177 4.04655L1.62289 4.14148M1.79954 4.04655L1.90473 4.14148M1.44823 4.04655L1.55243 4.14148M1.37678 4.04655L1.48296 4.14148M1.30632 4.04655L1.4125 4.14148M1.23685 4.04655L1.34204 4.14148" stroke="#EF2D28" stroke-width="0.0121982"/>
<path fill-rule="evenodd" clip-rule="evenodd" d="M3.28384 5.02795C1.57736 6.70158 0.849394 6.91299 1.19164 7.04808C1.53389 7.18316 2.63249 6.31921 3.77545 5.17268C4.9184 4.02615 5.61851 3.00491 5.27627 2.86983C4.93402 2.73475 5.09936 3.24943 3.28384 5.02795Z" fill="white" stroke="#EF2D28" stroke-width="0.020415"/>
<path fill-rule="evenodd" clip-rule="evenodd" d="M1.84946 6.24561L2.44788 6.40264C1.88519 6.93762 1.25203 7.15676 1.07638 7.06272C0.900725 6.96867 1.39295 6.74865 1.85045 6.24649L1.84946 6.24561Z" fill="white" stroke="#EF2D28" stroke-width="0.0112599"/>
<path fill-rule="evenodd" clip-rule="evenodd" d="M1.84927 6.30811L2.34229 6.43351C1.79417 6.94793 1.25185 7.09381 1.11168 7.03068C0.970538 6.9684 1.40459 6.79181 1.84927 6.30811Z" fill="white" stroke="#EF2D28" stroke-width="0.0118056"/>
<path d="M3.68213 4.95654C3.68073 4.96461 3.67654 5.00061 3.67304 5.01489C3.67304 5.03475 3.67095 5.04965 3.66885 5.06517C3.66326 5.07882 3.66396 5.09123 3.64718 5.0962C3.63939 5.10858 3.62706 5.11822 3.61224 5.12351C3.59879 5.13306 3.58399 5.14099 3.56821 5.1471C3.55164 5.1533 3.53326 5.1546 3.51579 5.15082C3.50135 5.14089 3.4883 5.13179 3.47665 5.12351C3.47386 5.1111 3.47106 5.0931 3.46757 5.08068C3.473 5.09724 3.47605 5.11434 3.47665 5.13158C3.47525 5.1502 3.46757 5.15889 3.45918 5.17379" stroke="#EF2D28" stroke-width="0.0118555"/>
<path d="M3.52344 5.21639L3.51925 5.21266C3.52973 5.22197 3.52554 5.21763 3.50177 5.20459C3.48547 5.19797 3.4666 5.19301 3.44516 5.1897H3.38366C3.3599 5.1897 3.34382 5.1928 3.32705 5.19715C3.31447 5.20832 3.2963 5.21453 3.28302 5.22446C3.27122 5.23238 3.26224 5.24315 3.25716 5.25549C3.24528 5.26604 3.23759 5.28218 3.22641 5.29025C3.22152 5.30825 3.21173 5.30763 3.20474 5.32129C3.22571 5.32253 3.24178 5.32501 3.25297 5.3368C3.27114 5.34487 3.23759 5.32873 3.2306 5.32129C3.21662 5.31756 3.21313 5.31384 3.19146 5.31384C3.17189 5.30763 3.15931 5.31818 3.13905 5.32129C3.12716 5.32749 3.12367 5.32935 3.10829 5.32935" stroke="#EF2D28" stroke-width="0.0118555"/>
<path d="M3.28809 5.40945C3.279 5.40945 3.23846 5.41628 3.22239 5.40945C3.20422 5.40511 3.19443 5.39704 3.18325 5.38214C3.17766 5.37159 3.18325 5.40076 3.18325 5.41318C3.18115 5.43614 3.17347 5.43614 3.16089 5.45166C3.14831 5.45911 3.13503 5.46904 3.12175 5.47525C3.1101 5.48368 3.09685 5.4902 3.08261 5.49449C3.0677 5.49987 3.05465 5.50628 3.04347 5.51373C3.02879 5.52304 3.02949 5.53421 3.02111 5.54911C3.0232 5.56773 3.0267 5.5789 3.03858 5.58759C3.04417 5.60063 3.05535 5.61366 3.06514 5.62235C3.07562 5.64097 3.0882 5.64904 3.06094 5.65339C3.04557 5.65959 3.03718 5.65463 3.02111 5.65339" stroke="#EF2D28" stroke-width="0.0118555"/>
<path d="M3.01111 5.67989C2.99993 5.6774 2.96219 5.66623 2.94541 5.66064H2.88391C2.86085 5.66251 2.85595 5.66871 2.83638 5.67616C2.8231 5.68796 2.81472 5.69602 2.79655 5.70347C2.78746 5.71402 2.76859 5.73265 2.7616 5.7463C2.75591 5.76236 2.75308 5.77912 2.75321 5.79596C2.75321 5.81892 2.7602 5.82327 2.7616 5.84313C2.76643 5.86021 2.7755 5.87612 2.78816 5.88968C2.78956 5.89382 2.79235 5.8963 2.79655 5.89713" stroke="#EF2D28" stroke-width="0.0118555"/>
<path d="M2.80493 5.94774C2.80295 5.94774 2.79898 5.95754 2.79253 5.96587C2.77814 5.98057 2.77665 5.98155 2.75531 5.98155C2.73546 5.98057 2.73794 5.97371 2.72405 5.9693C2.7176 5.9595 2.70966 5.95166 2.70222 5.93843C2.69726 5.93059 2.69279 5.91834 2.68733 5.91099C2.68138 5.90168 2.67443 5.89483 2.66848 5.8865C2.66252 5.88405 2.66054 5.8816 2.6526 5.88013C2.67046 5.88307 2.67245 5.88944 2.68386 5.89874L2.69924 5.92618C2.70123 5.93941 2.7052 5.9497 2.70569 5.96587C2.70569 5.98302 2.70569 5.99478 2.69924 6.00898C2.6918 6.01633 2.68684 6.02417 2.67741 6.03054C2.66957 6.03806 2.66243 6.04626 2.65607 6.05504L2.62779 6.07317C2.61886 6.07856 2.60844 6.08395 2.59405 6.08542C2.57569 6.08395 2.57023 6.07905 2.55683 6.07317C2.54492 6.06484 2.53599 6.05945 2.52557 6.05161C2.51702 6.04464 2.50965 6.03637 2.50374 6.02711C2.48736 6.02319 2.47645 6.02466 2.46652 6.03348C2.45814 6.03933 2.45091 6.04663 2.44519 6.05504C2.44022 6.05749 2.43129 6.06484 2.42633 6.06729" stroke="#EF2D28" stroke-width="0.0113405"/>
<path d="M2.46213 6.07739C2.46706 6.07923 2.48557 6.09207 2.49297 6.09635C2.49791 6.11286 2.50593 6.12142 2.5084 6.13915C2.5121 6.15545 2.51354 6.17319 2.51272 6.19235C2.5084 6.21191 2.50038 6.22598 2.49297 6.24126C2.48064 6.24982 2.47447 6.25594 2.45843 6.2645C2.44362 6.26735 2.42697 6.26878 2.40846 6.26878C2.39612 6.27245 2.37391 6.27428 2.36219 6.26878C2.34492 6.26633 2.33196 6.2596 2.31963 6.25349C2.30544 6.24554 2.2968 6.23759 2.28138 6.23026C2.27274 6.21966 2.26246 6.20824 2.25053 6.19601C2.24066 6.18317 2.23388 6.17584 2.22709 6.16177C2.23408 6.17726 2.24046 6.19255 2.24621 6.20763C2.25547 6.22353 2.2604 6.22964 2.26164 6.24921C2.26781 6.26511 2.26596 6.28467 2.26596 6.30302C2.2641 6.31525 2.26349 6.33848 2.25794 6.34888V6.36049" stroke="#EF2D28" stroke-width="0.0116692"/>
<path d="M1.89312 6.42052V6.42673C1.8918 6.41136 1.89412 6.41875 1.90007 6.44891C1.91099 6.46134 1.93977 6.46488 1.9616 6.45956C1.98145 6.44448 1.98145 6.43294 2.01717 6.42673C2.0529 6.42851 2.06679 6.43738 2.08664 6.44891C2.10753 6.45625 2.12502 6.4697 2.13626 6.48706C2.14321 6.50569 2.14718 6.519 2.12336 6.5261C2.10265 6.53859 2.07876 6.54621 2.05389 6.54828C2.02611 6.54828 2.00527 6.54562 1.99236 6.55981C1.97252 6.57756 1.9745 6.5882 1.9745 6.62014C1.96755 6.6299 1.96656 6.65918 1.9616 6.67071C1.94445 6.67859 1.92528 6.68226 1.90603 6.68136C1.89908 6.66362 1.89213 6.63345 1.88717 6.61482C1.88221 6.5953 1.88122 6.56691 1.86831 6.5536C1.85686 6.53838 1.8424 6.52515 1.82564 6.51457C1.8156 6.50439 1.80252 6.497 1.78793 6.49327C1.81274 6.50392 1.81572 6.51634 1.81869 6.54296C1.79785 6.55183 1.7919 6.55893 1.75717 6.55981C1.72243 6.55715 1.71449 6.54917 1.70159 6.53142C1.69861 6.55981 1.68869 6.56869 1.68174 6.59353C1.66983 6.6095 1.66487 6.62635 1.65197 6.64853C1.65693 6.67515 1.66884 6.67604 1.66983 6.70886C1.67777 6.73104 1.67777 6.75145 1.69464 6.76476C1.70258 6.77363 1.70854 6.77452 1.7264 6.7754C1.69067 6.7754 1.66884 6.77186 1.64502 6.75943L1.5954 6.72572C1.57301 6.71065 1.54781 6.69924 1.52097 6.69201C1.49219 6.69201 1.47135 6.68935 1.45944 6.70354C1.44224 6.71537 1.42967 6.734 1.42173 6.75943C1.41677 6.78782 1.41379 6.80734 1.42868 6.82597C1.4386 6.84727 1.44158 6.85525 1.42868 6.88098C1.41379 6.89872 1.39295 6.90139 1.35921 6.90848C1.3354 6.9073 1.31489 6.90375 1.29768 6.89784" stroke="#EF2D28" stroke-width="0.0112599"/>
<path fill-rule="evenodd" clip-rule="evenodd" d="M5.23281 3.51882C5.9896 2.20889 6.49151 1.09266 6.35466 1.02948C6.2164 0.965638 5.49018 1.9783 4.73339 3.28822L5.23281 3.51882Z" fill="white" stroke="#EF2D28" stroke-width="0.0155077"/>
<path fill-rule="evenodd" clip-rule="evenodd" d="M5.18283 3.49681C5.9129 2.23311 6.41569 1.16485 6.30621 1.1143C6.1956 1.06323 5.51336 2.04863 4.78328 3.31233" fill="white"/>
<path d="M5.18283 3.49681C5.9129 2.23311 6.41569 1.16485 6.30621 1.1143C6.1956 1.06323 5.51336 2.04863 4.78328 3.31233" stroke="#EF2D28" stroke-width="0.0136237"/>
<path fill-rule="evenodd" clip-rule="evenodd" d="M5.05743 2.83761C4.96854 2.98529 4.87436 3.1545 4.78328 3.31215L5.18394 3.49715C5.27502 3.3395 5.37485 3.1729 5.4581 3.02261L5.05743 2.83761Z" fill="white" stroke="#EF2D28" stroke-width="0.015462"/>
<path fill-rule="evenodd" clip-rule="evenodd" d="M5.09236 2.88867C5.00301 3.03713 4.94162 3.14958 4.85008 3.30802L5.14917 3.44612C5.24025 3.28847 5.3082 3.17705 5.39145 3.02676L5.09236 2.88867Z" fill="white" stroke="#EF2D28" stroke-width="0.015462"/>
<path fill-rule="evenodd" clip-rule="evenodd" d="M5.30974 3.05977L5.10941 2.96727L4.9318 3.2747L5.13213 3.3672L5.30974 3.05977ZM5.30974 3.05977L4.9318 3.2747L5.30974 3.05977ZM5.13213 3.3672L5.10941 2.96727L5.13213 3.3672ZM6.21326 1.49585L6.01292 1.40335L6.21326 1.49585Z" fill="white"/>
<path d="M5.30974 3.05977L5.10941 2.96727M5.30974 3.05977L5.13213 3.3672M5.30974 3.05977L4.9318 3.2747M5.10941 2.96727L4.9318 3.2747M5.10941 2.96727L5.13213 3.3672M4.9318 3.2747L5.13213 3.3672M6.21326 1.49585L6.01292 1.40335" stroke="#EF2D28" stroke-width="0.015462"/>
<path d="M6.21198 1.35041C6.1812 1.3582 6.15061 1.34256 6.14366 1.31548C6.13672 1.28841 6.15604 1.26015 6.18682 1.25237C6.2176 1.24459 6.24819 1.26023 6.25513 1.2873C6.26208 1.31438 6.24276 1.34263 6.21198 1.35041Z" fill="#EF0000" stroke="#EF2D28" stroke-width="0.0200346"/>
<path fill-rule="evenodd" clip-rule="evenodd" d="M4.93625 4.99792C6.64273 6.67155 7.3707 6.88296 7.02845 7.01805C6.6862 7.15313 5.58761 6.28918 4.44465 5.14265C3.30169 3.99612 2.60158 2.97489 2.94383 2.8398C3.28608 2.70472 3.12073 3.2194 4.93625 4.99792Z" fill="white" stroke="#EF2D28" stroke-width="0.020415"/>
<path fill-rule="evenodd" clip-rule="evenodd" d="M6.37051 6.21582L5.77209 6.37285C6.33479 6.90784 6.96794 7.12697 7.14359 7.03293C7.31925 6.93889 6.82702 6.71886 6.36952 6.21671L6.37051 6.21582Z" fill="white" stroke="#EF2D28" stroke-width="0.0112599"/>
<path fill-rule="evenodd" clip-rule="evenodd" d="M6.3707 6.27295L5.87769 6.39835C6.4258 6.91277 6.96812 7.05865 7.10829 6.99552C7.24943 6.93325 6.81538 6.75666 6.3707 6.27295Z" fill="white" stroke="#EF2D28" stroke-width="0.0118056"/>
<path d="M4.53784 4.92139C4.53924 4.92946 4.54343 4.96546 4.54693 4.97973C4.54693 4.99959 4.54902 5.01449 4.55112 5.03001C4.55671 5.04366 4.55601 5.05608 4.57279 5.06104C4.58058 5.07343 4.59291 5.08306 4.60773 5.08835C4.62118 5.0979 4.63598 5.10583 4.65176 5.11194C4.66833 5.11814 4.68671 5.11945 4.70418 5.11567C4.71862 5.10573 4.73167 5.09663 4.74332 5.08835C4.74611 5.07594 4.74891 5.05794 4.7524 5.04553C4.74697 5.06209 4.74392 5.07919 4.74332 5.09642C4.74472 5.11505 4.7524 5.12373 4.76079 5.13863" stroke="#EF2D28" stroke-width="0.0118555"/>
<path d="M4.69653 5.18123L4.70072 5.17751C4.69024 5.18682 4.69443 5.18247 4.7182 5.16944C4.7345 5.16282 4.75337 5.15785 4.77481 5.15454H4.83631C4.86007 5.15454 4.87615 5.15764 4.89292 5.16199C4.9055 5.17316 4.92367 5.17937 4.93695 5.1893C4.94875 5.19722 4.95773 5.208 4.96281 5.22034C4.97469 5.23089 4.98238 5.24703 4.99356 5.25509C4.99845 5.27309 5.00824 5.27247 5.01523 5.28613C4.99426 5.28737 4.97819 5.28985 4.967 5.30165C4.94883 5.30972 4.98238 5.29358 4.98937 5.28613C5.00335 5.2824 5.00684 5.27868 5.02851 5.27868C5.04808 5.27247 5.06066 5.28303 5.08093 5.28613C5.09281 5.29234 5.0963 5.2942 5.11168 5.2942" stroke="#EF2D28" stroke-width="0.0118555"/>
<path d="M4.93188 5.37942C4.94097 5.37942 4.98151 5.38625 4.99758 5.37942C5.01575 5.37508 5.02554 5.36701 5.03672 5.35211C5.04231 5.34156 5.03672 5.37073 5.03672 5.38315C5.03882 5.40611 5.0465 5.40611 5.05908 5.42163C5.07166 5.42908 5.08494 5.43901 5.09822 5.44522C5.10987 5.45366 5.12313 5.46017 5.13736 5.46446C5.15227 5.46984 5.16532 5.47625 5.1765 5.4837C5.19118 5.49301 5.19048 5.50418 5.19886 5.51908C5.19677 5.5377 5.19327 5.54887 5.18139 5.55756C5.1758 5.5706 5.16462 5.58363 5.15483 5.59232C5.14435 5.61094 5.13177 5.61901 5.15903 5.62336C5.1744 5.62956 5.18279 5.6246 5.19886 5.62336" stroke="#EF2D28" stroke-width="0.0118555"/>
<path d="M5.20898 5.6501C5.22017 5.64762 5.25791 5.63645 5.27468 5.63086H5.33618C5.35925 5.63272 5.36414 5.63893 5.38371 5.64638C5.39699 5.65817 5.40538 5.66624 5.42355 5.67369C5.43263 5.68424 5.4515 5.70286 5.45849 5.71652C5.46419 5.73258 5.46702 5.74933 5.46688 5.76617C5.46688 5.78914 5.45989 5.79348 5.45849 5.81335C5.45366 5.83043 5.44459 5.84634 5.43193 5.8599C5.43054 5.86404 5.42774 5.86652 5.42355 5.86735" stroke="#EF2D28" stroke-width="0.0118555"/>
<path d="M5.42004 5.91771C5.42203 5.91771 5.426 5.92751 5.43245 5.93584C5.44684 5.95054 5.44833 5.95152 5.46966 5.95152C5.48951 5.95054 5.48703 5.94368 5.50092 5.93927C5.50738 5.92947 5.51531 5.92163 5.52276 5.9084C5.52772 5.90056 5.53219 5.88831 5.53764 5.88096C5.5436 5.87166 5.55054 5.8648 5.5565 5.85647C5.56245 5.85402 5.56444 5.85157 5.57238 5.8501C5.55451 5.85304 5.55253 5.85941 5.54112 5.86872L5.52573 5.89615C5.52375 5.90938 5.51978 5.91967 5.51928 5.93584C5.51928 5.95299 5.51928 5.96475 5.52573 5.97895C5.53318 5.9863 5.53814 5.99414 5.54757 6.00051C5.5554 6.00803 5.56254 6.01623 5.5689 6.02501L5.59719 6.04314C5.60612 6.04853 5.61654 6.05392 5.63093 6.05539C5.64929 6.05392 5.65475 6.04902 5.66814 6.04314C5.68005 6.03481 5.68898 6.02942 5.6994 6.02158C5.70796 6.01461 5.71533 6.00634 5.72124 5.99708C5.73761 5.99316 5.74853 5.99463 5.75845 6.00345C5.76683 6.0093 5.77406 6.0166 5.77979 6.02501C5.78475 6.02746 5.79368 6.03481 5.79864 6.03726" stroke="#EF2D28" stroke-width="0.0113405"/>
<path d="M5.75796 6.04248C5.75303 6.04431 5.73452 6.05716 5.72712 6.06144C5.72218 6.07794 5.71416 6.08651 5.7117 6.10424C5.70799 6.12054 5.70656 6.13827 5.70738 6.15743C5.7117 6.177 5.71972 6.19106 5.72712 6.20635C5.73946 6.21491 5.74563 6.22102 5.76166 6.22958C5.77647 6.23244 5.79313 6.23386 5.81163 6.23386C5.82397 6.23753 5.84618 6.23937 5.8579 6.23386C5.87517 6.23142 5.88813 6.22469 5.90047 6.21858C5.91466 6.21063 5.92329 6.20268 5.93871 6.19534C5.94735 6.18474 5.95763 6.17333 5.96956 6.1611C5.97943 6.14826 5.98622 6.14092 5.993 6.12686C5.98601 6.14235 5.97964 6.15764 5.97388 6.17272C5.96462 6.18862 5.95969 6.19473 5.95846 6.2143C5.95229 6.2302 5.95414 6.24976 5.95414 6.26811C5.95599 6.28033 5.95661 6.30357 5.96216 6.31396V6.32558" stroke="#EF2D28" stroke-width="0.0116692"/>
<path d="M6.32685 6.39049V6.3967C6.32817 6.38133 6.32585 6.38872 6.3199 6.41888C6.30898 6.43131 6.2802 6.43485 6.25837 6.42953C6.23852 6.41445 6.23852 6.40292 6.2028 6.3967C6.16707 6.39848 6.15318 6.40735 6.13333 6.41888C6.11244 6.42622 6.09495 6.43967 6.08371 6.45703C6.07676 6.47567 6.07279 6.48897 6.09661 6.49607C6.11732 6.50856 6.14121 6.51619 6.16608 6.51825C6.19387 6.51825 6.21471 6.51559 6.22761 6.52978C6.24745 6.54753 6.24547 6.55818 6.24547 6.59011C6.25242 6.59987 6.25341 6.62915 6.25837 6.64068C6.27552 6.64856 6.29469 6.65223 6.31395 6.65133C6.32089 6.63359 6.32784 6.60342 6.3328 6.58479C6.33776 6.56527 6.33876 6.53688 6.35166 6.52357C6.36311 6.50835 6.37757 6.49512 6.39433 6.48454C6.40437 6.47436 6.41745 6.46698 6.43204 6.46324C6.40723 6.47389 6.40425 6.48631 6.40128 6.51293C6.42212 6.5218 6.42807 6.5289 6.46281 6.52978C6.49754 6.52712 6.50548 6.51914 6.51838 6.50139C6.52136 6.52978 6.53128 6.53866 6.53823 6.5635C6.55014 6.57947 6.5551 6.59632 6.568 6.6185C6.56304 6.64512 6.55113 6.64601 6.55014 6.67883C6.5422 6.70101 6.5422 6.72142 6.52533 6.73473C6.51739 6.7436 6.51143 6.74449 6.49357 6.74537C6.5293 6.74537 6.55113 6.74183 6.57495 6.7294L6.62457 6.69569C6.64696 6.68063 6.67216 6.66921 6.699 6.66198C6.72778 6.66198 6.74862 6.65932 6.76053 6.67351C6.77773 6.68534 6.7903 6.70397 6.79824 6.7294C6.8032 6.7578 6.80618 6.77731 6.79129 6.79594C6.78137 6.81724 6.77839 6.82522 6.79129 6.85095C6.80618 6.86869 6.82702 6.87136 6.86076 6.87845C6.88458 6.87727 6.90509 6.87372 6.92229 6.86781" stroke="#EF2D28" stroke-width="0.0112599"/>
<path fill-rule="evenodd" clip-rule="evenodd" d="M2.98728 3.48879C2.2305 2.17886 1.72859 1.06263 1.86543 0.999447C2.00369 0.935609 2.72992 1.94827 3.4867 3.25819L2.98728 3.48879Z" fill="white" stroke="#EF2D28" stroke-width="0.0155077"/>
<path fill-rule="evenodd" clip-rule="evenodd" d="M3.03727 3.46678C2.30719 2.20308 1.8044 1.13482 1.91388 1.08427C2.02449 1.0332 2.70673 2.0186 3.43681 3.2823" fill="white"/>
<path d="M3.03727 3.46678C2.30719 2.20308 1.8044 1.13482 1.91388 1.08427C2.02449 1.0332 2.70673 2.0186 3.43681 3.2823" stroke="#EF2D28" stroke-width="0.0136237"/>
<path fill-rule="evenodd" clip-rule="evenodd" d="M3.16266 2.80758C3.25156 2.95526 3.34573 3.12447 3.43681 3.28212L3.03615 3.46712C2.94507 3.30947 2.84525 3.14287 2.762 2.99259L3.16266 2.80758Z" fill="white" stroke="#EF2D28" stroke-width="0.015462"/>
<path fill-rule="evenodd" clip-rule="evenodd" d="M3.12774 2.85864C3.21708 3.0071 3.27847 3.11955 3.37001 3.278L3.07092 3.41609C2.97984 3.25844 2.9119 3.14702 2.82865 2.99674L3.12774 2.85864Z" fill="white" stroke="#EF2D28" stroke-width="0.015462"/>
<path fill-rule="evenodd" clip-rule="evenodd" d="M2.91035 3.02974L3.11069 2.93724L3.28829 3.24467L3.08796 3.33717L2.91035 3.02974ZM2.91035 3.02974L3.28829 3.24467L2.91035 3.02974ZM3.08796 3.33717L3.11069 2.93724L3.08796 3.33717ZM2.00684 1.46582L2.20717 1.37332L2.00684 1.46582Z" fill="white"/>
<path d="M2.91035 3.02974L3.11069 2.93724M2.91035 3.02974L3.08796 3.33717M2.91035 3.02974L3.28829 3.24467M3.11069 2.93724L3.28829 3.24467M3.11069 2.93724L3.08796 3.33717M3.28829 3.24467L3.08796 3.33717M2.00684 1.46582L2.20717 1.37332" stroke="#EF2D28" stroke-width="0.015462"/>
<path d="M2.00812 1.32039C2.0389 1.32817 2.06948 1.31253 2.07643 1.28545C2.08338 1.25838 2.06405 1.23012 2.03327 1.22234C2.00249 1.21456 1.97191 1.2302 1.96496 1.25727C1.95801 1.28435 1.97733 1.3126 2.00812 1.32039Z" fill="#EF0000" stroke="#EF2D28" stroke-width="0.0200346"/>
<path fill-rule="evenodd" clip-rule="evenodd" d="M3.59236 2.82129C3.59236 3.92142 3.59898 4.33574 3.51826 4.39252C3.44152 4.45374 1.30725 4.39252 1.30725 4.70659C1.30725 5.02066 3.06442 5.3365 3.59236 5.3365C4.29629 5.3365 4.64781 5.02184 4.64692 4.39252V2.82218H3.59236V2.82129Z" fill="white" stroke="#EF2D28" stroke-width="0.0140851"/>
<path fill-rule="evenodd" clip-rule="evenodd" d="M3.59277 3.13525V3.29229C3.94165 3.3446 4.29783 3.3446 4.6467 3.29229V3.13525C4.29783 3.18757 3.94165 3.18757 3.59277 3.13525Z" fill="white" stroke="#EF2D28" stroke-width="0.0121982"/>
<path fill-rule="evenodd" clip-rule="evenodd" d="M3.59277 2.82129V2.97832C3.94165 3.03064 4.29783 3.03064 4.6467 2.97832V2.82129C4.29783 2.8736 3.94165 2.8736 3.59277 2.82129Z" fill="white" stroke="#EF2D28" stroke-width="0.0121982"/>
<path fill-rule="evenodd" clip-rule="evenodd" d="M3.59277 2.97827V3.1353C3.94165 3.18762 4.29783 3.18762 4.6467 3.1353V2.97827C4.29783 3.03058 3.94165 3.03058 3.59277 2.97827Z" fill="white" stroke="#EF2D28" stroke-width="0.0121982"/>
<path fill-rule="evenodd" clip-rule="evenodd" d="M3.59277 3.29248V3.44951C3.94165 3.50183 4.29783 3.50183 4.6467 3.44951V3.29248C4.29783 3.34479 3.94165 3.34479 3.59277 3.29248Z" fill="white" stroke="#EF2D28" stroke-width="0.0121982"/>
<path d="M3.64071 3.10109C3.66731 3.10109 3.68888 3.08589 3.68888 3.06715C3.68888 3.0484 3.66731 3.0332 3.64071 3.0332C3.6141 3.0332 3.59253 3.0484 3.59253 3.06715C3.59253 3.08589 3.6141 3.10109 3.64071 3.10109Z" fill="white" stroke="#EF2D28" stroke-width="0.011564"/>
<path d="M3.83236 3.11818C3.85896 3.11818 3.88053 3.10298 3.88053 3.08424C3.88053 3.06549 3.85896 3.05029 3.83236 3.05029C3.80575 3.05029 3.78418 3.06549 3.78418 3.08424C3.78418 3.10298 3.80575 3.11818 3.83236 3.11818Z" fill="white" stroke="#EF2D28" stroke-width="0.011564"/>
<path d="M4.02449 3.13527C4.0511 3.13527 4.07267 3.12007 4.07267 3.10133C4.07267 3.08258 4.0511 3.06738 4.02449 3.06738C3.99789 3.06738 3.97632 3.08258 3.97632 3.10133C3.97632 3.12007 3.99789 3.13527 4.02449 3.13527Z" fill="white" stroke="#EF2D28" stroke-width="0.011564"/>
<path d="M4.21614 3.13527C4.24275 3.13527 4.26432 3.12007 4.26432 3.10133C4.26432 3.08258 4.24275 3.06738 4.21614 3.06738C4.18954 3.06738 4.16797 3.08258 4.16797 3.10133C4.16797 3.12007 4.18954 3.13527 4.21614 3.13527Z" fill="white" stroke="#EF2D28" stroke-width="0.011564"/>
<path d="M4.4078 3.11818C4.4344 3.11818 4.45597 3.10298 4.45597 3.08424C4.45597 3.06549 4.4344 3.05029 4.4078 3.05029C4.38119 3.05029 4.35962 3.06549 4.35962 3.08424C4.35962 3.10298 4.38119 3.11818 4.4078 3.11818Z" fill="white" stroke="#EF2D28" stroke-width="0.011564"/>
<path d="M4.59993 3.10109C4.62654 3.10109 4.64811 3.08589 4.64811 3.06715C4.64811 3.0484 4.62654 3.0332 4.59993 3.0332C4.57333 3.0332 4.55176 3.0484 4.55176 3.06715C4.55176 3.08589 4.57333 3.10109 4.59993 3.10109Z" fill="white" stroke="#EF2D28" stroke-width="0.011564"/>
<path fill-rule="evenodd" clip-rule="evenodd" d="M3.59277 3.60645L4.6467 4.4555L3.59277 3.60645ZM3.69797 3.60645L4.6477 4.36057L3.69797 3.60645ZM3.8379 3.63838L4.6477 4.26741L3.8379 3.63838ZM3.94309 3.6375L4.6477 4.17248L3.94309 3.6375ZM4.04928 3.63838L4.6467 4.07844L4.04928 3.63838ZM4.15447 3.63838L4.6467 3.98439L4.15447 3.63838ZM4.25967 3.63838L4.6467 3.88946L4.25967 3.63838ZM4.36685 3.63838L4.64869 3.82647L4.36685 3.63838ZM4.47105 3.63838L4.6477 3.76437L4.47105 3.63838ZM4.57724 3.63838L4.6467 3.70049L4.57724 3.63838ZM3.59277 3.70049L4.6467 4.55043L3.59277 3.70049ZM4.6467 3.60733L3.4856 4.54954L4.6467 3.60733ZM4.54052 3.60645L3.52132 4.42444L4.54052 3.60645ZM4.40059 3.63838L3.59178 4.26652L4.40059 3.63838ZM4.2944 3.63838L3.59178 4.17248L4.2944 3.63838ZM4.1902 3.63838L3.59277 4.07844L4.1902 3.63838ZM4.08501 3.63838L3.59277 3.98439L4.08501 3.63838ZM3.97981 3.63838L3.59277 3.88946L3.97981 3.63838ZM3.87263 3.63838L3.59178 3.82647L3.87263 3.63838ZM3.76744 3.63838L3.59178 3.76437L3.76744 3.63838ZM3.66125 3.63838L3.59178 3.70049L3.66125 3.63838ZM4.6467 3.70049L3.4856 4.64536L4.6467 3.70049ZM4.6467 3.79631L3.4856 4.73851L4.6467 3.79631ZM4.6467 3.88946L3.4856 4.83256L4.6467 3.88946ZM4.6467 3.98351L3.4856 4.92837L4.6467 3.98351ZM4.6467 4.07932L3.4856 5.02153L4.6467 4.07932ZM4.6467 4.17248L3.4856 5.11557L4.6467 4.17248ZM4.6467 4.26652L3.4856 5.20962L4.6467 4.26652ZM4.6467 4.36145L3.4856 5.30455L4.6467 4.36145ZM4.6467 4.4555L3.55606 5.3356L4.6467 4.4555ZM4.6467 4.54954L3.66224 5.3356L4.6467 4.54954ZM4.61098 4.67552L3.83691 5.30455L4.61098 4.67552ZM4.57724 4.80062L3.94408 5.30366L4.57724 4.80062ZM4.50678 4.95765L4.18921 5.20873L4.50678 4.95765ZM3.59277 3.79453L4.61197 4.61164L3.59277 3.79453ZM3.59277 3.88858L4.61197 4.70657L3.59277 3.88858ZM3.59277 3.98439L4.57724 4.76956L3.59277 3.98439ZM3.59277 4.07755L4.57724 4.8645L3.59277 4.07755ZM3.59277 4.17248L4.54151 4.9266L3.59277 4.17248ZM3.55705 4.23547L4.50678 4.98959L3.55705 4.23547ZM3.55705 4.3304L4.43631 5.02242L3.55705 4.3304ZM3.52231 4.3925L4.40158 5.08452L3.52231 4.3925ZM3.4856 4.45461L4.32914 5.11469L3.4856 4.45461ZM3.4856 4.54865L4.2944 5.17768L3.4856 4.54865ZM3.4856 4.64358L4.1902 5.20873L3.4856 4.64358Z" fill="white"/>
<path d="M3.59277 3.60645L4.6467 4.4555L3.55606 5.3356M3.69797 3.60645L4.6477 4.36057M3.8379 3.63838L4.6477 4.26741M3.94309 3.6375L4.6477 4.17248M4.04928 3.63838L4.6467 4.07844M4.15447 3.63838L4.6467 3.98439M4.25967 3.63838L4.6467 3.88946L3.4856 4.83256M4.36685 3.63838L4.64869 3.82647M4.47105 3.63838L4.6477 3.76437M4.57724 3.63838L4.6467 3.70049L3.4856 4.64536M3.59277 3.70049L4.6467 4.55043M4.6467 3.60733L3.4856 4.54954M4.54052 3.60645L3.52132 4.42444M4.40059 3.63838L3.59178 4.26652M4.2944 3.63838L3.59178 4.17248M4.1902 3.63838L3.59277 4.07844M4.08501 3.63838L3.59277 3.98439L4.57724 4.76956M3.97981 3.63838L3.59277 3.88946M3.87263 3.63838L3.59178 3.82647M3.76744 3.63838L3.59178 3.76437M3.66125 3.63838L3.59178 3.70049M4.6467 3.79631L3.4856 4.73851M4.6467 3.98351L3.4856 4.92837M4.6467 4.07932L3.4856 5.02153M4.6467 4.17248L3.4856 5.11557M4.6467 4.26652L3.4856 5.20962M4.6467 4.36145L3.4856 5.30455M4.6467 4.54954L3.66224 5.3356M4.61098 4.67552L3.83691 5.30455M4.57724 4.80062L3.94408 5.30366M4.50678 4.95765L4.18921 5.20873M3.59277 3.79453L4.61197 4.61164M3.59277 3.88858L4.61197 4.70657M3.59277 4.07755L4.57724 4.8645M3.59277 4.17248L4.54151 4.9266M3.55705 4.23547L4.50678 4.98959M3.55705 4.3304L4.43631 5.02242M3.52231 4.3925L4.40158 5.08452M3.4856 4.45461L4.32914 5.11469M3.4856 4.54865L4.2944 5.17768M3.4856 4.64358L4.1902 5.20873" stroke="#EF2D28" stroke-width="0.0121982"/>
<path fill-rule="evenodd" clip-rule="evenodd" d="M3.59277 3.4502V3.60723C3.94165 3.65954 4.29783 3.65954 4.6467 3.60723V3.4502C4.29783 3.50251 3.94165 3.50251 3.59277 3.4502Z" fill="white" stroke="#EF2D28" stroke-width="0.0121982"/>
<path fill-rule="evenodd" clip-rule="evenodd" d="M3.48659 4.73853L4.11974 5.24157L3.48659 4.73853ZM3.48659 4.83346L4.04928 5.27262L3.48659 4.83346ZM3.48659 4.92661L3.97882 5.30456L3.48659 4.92661ZM3.48659 5.02065L3.83889 5.30456L3.48659 5.02065ZM3.4856 5.11559L3.76744 5.33561L3.4856 5.11559ZM3.4856 5.20963L3.66125 5.33561L3.4856 5.20963Z" fill="white"/>
<path d="M3.48659 4.73853L4.11974 5.24157M3.48659 4.83346L4.04928 5.27262M3.48659 4.92661L3.97882 5.30456M3.48659 5.02065L3.83889 5.30456M3.4856 5.11559L3.76744 5.33561M3.4856 5.20963L3.66125 5.33561" stroke="#EF2D28" stroke-width="0.0121982"/>
<path d="M3.64071 3.57326C3.66731 3.57326 3.68888 3.55806 3.68888 3.53931C3.68888 3.52057 3.66731 3.50537 3.64071 3.50537C3.6141 3.50537 3.59253 3.52057 3.59253 3.53931C3.59253 3.55806 3.6141 3.57326 3.64071 3.57326Z" fill="white" stroke="#EF2D28" stroke-width="0.011564"/>
<path d="M3.83236 3.5901C3.85896 3.5901 3.88053 3.57491 3.88053 3.55616C3.88053 3.53741 3.85896 3.52222 3.83236 3.52222C3.80575 3.52222 3.78418 3.53741 3.78418 3.55616C3.78418 3.57491 3.80575 3.5901 3.83236 3.5901Z" fill="white" stroke="#EF2D28" stroke-width="0.011564"/>
<path d="M4.02449 3.60646C4.0511 3.60646 4.07267 3.59126 4.07267 3.57252C4.07267 3.55377 4.0511 3.53857 4.02449 3.53857C3.99789 3.53857 3.97632 3.55377 3.97632 3.57252C3.97632 3.59126 3.99789 3.60646 4.02449 3.60646Z" fill="white" stroke="#EF2D28" stroke-width="0.011564"/>
<path d="M4.21614 3.60646C4.24275 3.60646 4.26432 3.59126 4.26432 3.57252C4.26432 3.55377 4.24275 3.53857 4.21614 3.53857C4.18954 3.53857 4.16797 3.55377 4.16797 3.57252C4.16797 3.59126 4.18954 3.60646 4.21614 3.60646Z" fill="white" stroke="#EF2D28" stroke-width="0.011564"/>
<path d="M4.4078 3.5901C4.4344 3.5901 4.45597 3.57491 4.45597 3.55616C4.45597 3.53741 4.4344 3.52222 4.4078 3.52222C4.38119 3.52222 4.35962 3.53741 4.35962 3.55616C4.35962 3.57491 4.38119 3.5901 4.4078 3.5901Z" fill="white" stroke="#EF2D28" stroke-width="0.011564"/>
<path d="M4.59993 3.57326C4.62654 3.57326 4.64811 3.55806 4.64811 3.53931C4.64811 3.52057 4.62654 3.50537 4.59993 3.50537C4.57333 3.50537 4.55176 3.52057 4.55176 3.53931C4.55176 3.55806 4.57333 3.57326 4.59993 3.57326Z" fill="white" stroke="#EF2D28" stroke-width="0.011564"/>
<path fill-rule="evenodd" clip-rule="evenodd" d="M2.08042 5.08464L3.34573 4.42456L2.08042 5.08464ZM2.00996 5.0527L3.2058 4.42456L2.00996 5.0527ZM1.97522 4.98971L3.06488 4.42456L1.97522 4.98971ZM1.93949 4.9276L2.88922 4.42456L1.93949 4.9276ZM1.86804 4.86461L2.74731 4.42456L1.86804 4.86461ZM1.90377 4.77057L2.50119 4.45561L1.90377 4.77057ZM1.86804 4.70669L2.32455 4.45561L1.86804 4.70669ZM1.86804 4.61265L2.18561 4.45561L1.86804 4.61265ZM2.18561 5.11569L3.38046 4.48666L2.18561 5.11569ZM2.2918 5.14674L3.41619 4.54966L2.2918 5.14674ZM2.39699 5.17868L3.45191 4.61265L2.39699 5.17868ZM2.50219 5.20973L3.38145 4.73863L2.50219 5.20973ZM2.64211 5.20973L3.41619 4.80162L2.64211 5.20973ZM2.74731 5.24167L3.41519 4.89566L2.74731 5.24167ZM2.8525 5.27272L3.38046 4.98971L2.8525 5.27272ZM2.99342 5.27361L3.41519 5.0527L2.99342 5.27361ZM3.13434 5.30466L3.41619 5.14674L3.13434 5.30466ZM3.27725 5.30466L3.4529 5.21062L3.27725 5.30466Z" fill="white"/>
<path d="M2.08042 5.08464L3.34573 4.42456M2.00996 5.0527L3.2058 4.42456M1.97522 4.98971L3.06488 4.42456M1.93949 4.9276L2.88922 4.42456M1.86804 4.86461L2.74731 4.42456M1.90377 4.77057L2.50119 4.45561M1.86804 4.70669L2.32455 4.45561M1.86804 4.61265L2.18561 4.45561M2.18561 5.11569L3.38046 4.48666M2.2918 5.14674L3.41619 4.54966M2.39699 5.17868L3.45191 4.61265M2.50219 5.20973L3.38145 4.73863M2.64211 5.20973L3.41619 4.80162M2.74731 5.24167L3.41519 4.89566M2.8525 5.27272L3.38046 4.98971M2.99342 5.27361L3.41519 5.0527M3.13434 5.30466L3.41619 5.14674M3.27725 5.30466L3.4529 5.21062" stroke="#EF2D28" stroke-width="0.0121982"/>
<path fill-rule="evenodd" clip-rule="evenodd" d="M3.52136 4.39355H3.34571C3.28719 4.70545 3.28719 5.02387 3.34571 5.33576H3.52136C3.46285 5.02387 3.46285 4.70545 3.52136 4.39355Z" fill="white" stroke="#EF2D28" stroke-width="0.0121982"/>
<path fill-rule="evenodd" clip-rule="evenodd" d="M1.44727 4.83262L1.86904 4.51855L1.44727 4.83262ZM1.44727 4.6126L1.86904 4.98966L1.44727 4.6126Z" fill="white"/>
<path d="M1.44727 4.83262L1.86904 4.51855M1.44727 4.6126L1.86904 4.98966" stroke="#EF2D28" stroke-width="0.0121982"/>
<path fill-rule="evenodd" clip-rule="evenodd" d="M2.08044 4.45508L1.86926 4.48654C1.82242 4.68602 1.82242 4.85346 1.86926 5.05293L2.08044 5.1153C2.0336 4.91639 2.0336 4.65455 2.08044 4.45508Z" fill="white" stroke="#EF2D28" stroke-width="0.00868275"/>
<path fill-rule="evenodd" clip-rule="evenodd" d="M4.64687 2.88352V2.72471C4.48777 2.72648 4.3822 2.63155 4.3822 2.53662L3.85583 2.53751C3.85583 2.63155 3.75175 2.72648 3.59265 2.72648V2.88352H4.64687Z" fill="white" stroke="#EF2D28" stroke-width="0.0149313"/>
<path fill-rule="evenodd" clip-rule="evenodd" d="M3.89258 2.34929H4.34511V2.53827H3.89258V2.34929ZM3.93128 2.16032H4.3074V2.34929H3.93029L3.93128 2.16032ZM3.93128 1.97223H4.3074V2.16032H3.93029L3.93128 1.97223ZM3.96899 1.72027H4.26969V1.97223H3.96899V1.72027ZM3.95609 1.50024H4.28358V1.72027H3.95609V1.50024Z" fill="white"/>
<path d="M4.3074 2.16032H3.93128L3.93029 2.34929H4.3074V2.16032ZM4.3074 2.16032V1.97223H3.93128L3.93029 2.16032H4.3074ZM3.89258 2.34929H4.34511V2.53827H3.89258V2.34929ZM3.96899 1.72027H4.26969V1.97223H3.96899V1.72027ZM3.95609 1.50024H4.28358V1.72027H3.95609V1.50024Z" stroke="#EF2D28" stroke-width="0.0131366"/>
<path d="M4.13674 1.59529C4.37744 1.59529 4.57256 1.46143 4.57256 1.2963C4.57256 1.13118 4.37744 0.997314 4.13674 0.997314C3.89605 0.997314 3.70093 1.13118 3.70093 1.2963C3.70093 1.46143 3.89605 1.59529 4.13674 1.59529Z" fill="white" stroke="#EF2D28" stroke-width="0.0123997"/>
<path fill-rule="evenodd" clip-rule="evenodd" d="M4.35511 1.28018C4.35511 1.36269 4.46381 1.5002 4.46381 1.5002C4.38485 1.55521 4.25667 1.59513 4.13669 1.59513C4.01671 1.59513 3.867 1.57207 3.80957 1.5002C3.80957 1.5002 3.91827 1.36357 3.91827 1.28106C3.91827 1.19855 3.80957 1.09209 3.80957 1.09209C3.90488 1.0318 4.01965 0.998906 4.13771 0.998047C4.25667 0.998047 4.38382 1.03797 4.46381 1.09209C4.46381 1.09209 4.35511 1.19855 4.35511 1.28106V1.28018Z" fill="white" stroke="#EF2D28" stroke-width="0.0123997"/>
<path fill-rule="evenodd" clip-rule="evenodd" d="M4.28225 1.28018C4.28225 1.36269 4.39095 1.53214 4.39095 1.53214C4.31199 1.58537 4.25764 1.59425 4.13663 1.59425C4.01563 1.59425 3.93975 1.604 3.88232 1.53214C3.88232 1.53214 3.99102 1.36357 3.99102 1.28018C3.99102 1.19678 3.88232 1.06015 3.88232 1.06015C3.96128 1.00692 4.01563 0.998047 4.13663 0.998047C4.25661 0.998047 4.31199 1.00692 4.39095 1.06015C4.39095 1.06015 4.28225 1.19767 4.28225 1.28018Z" fill="white" stroke="#EF2D28" stroke-width="0.0123997"/>
<path d="M3.70086 1.40537C3.76089 1.40537 3.80956 1.36327 3.80956 1.31133C3.80956 1.25939 3.76089 1.21729 3.70086 1.21729C3.64083 1.21729 3.59216 1.25939 3.59216 1.31133C3.59216 1.36327 3.64083 1.40537 3.70086 1.40537Z" fill="white" stroke="#EF2D28" stroke-width="0.0123997"/>
<path d="M4.57317 1.40537C4.63321 1.40537 4.68187 1.36327 4.68187 1.31133C4.68187 1.25939 4.63321 1.21729 4.57317 1.21729C4.51314 1.21729 4.46448 1.25939 4.46448 1.31133C4.46448 1.36327 4.51314 1.40537 4.57317 1.40537Z" fill="white" stroke="#EF2D28" stroke-width="0.0123997"/>
<path d="M4.13751 1.40537C4.19754 1.40537 4.2462 1.36327 4.2462 1.31133C4.2462 1.25939 4.19754 1.21729 4.13751 1.21729C4.07747 1.21729 4.02881 1.25939 4.02881 1.31133C4.02881 1.36327 4.07747 1.40537 4.13751 1.40537Z" fill="white" stroke="#EF2D28" stroke-width="0.0123997"/>
<path d="M4.13751 1.09141C4.19754 1.09141 4.2462 1.0493 4.2462 0.997364C4.2462 0.945425 4.19754 0.90332 4.13751 0.90332C4.07747 0.90332 4.02881 0.945425 4.02881 0.997364C4.02881 1.0493 4.07747 1.09141 4.13751 1.09141Z" fill="white" stroke="#EF2D28" stroke-width="0.0123997"/>
<path d="M3.81888 2.8834C3.88105 2.8834 3.93146 2.84129 3.93146 2.78936C3.93146 2.73742 3.88105 2.69531 3.81888 2.69531C3.7567 2.69531 3.7063 2.73742 3.7063 2.78936C3.7063 2.84129 3.7567 2.8834 3.81888 2.8834Z" fill="white" stroke="#EF2D28" stroke-width="0.0126191"/>
<path d="M4.42032 2.8834C4.48249 2.8834 4.5329 2.84129 4.5329 2.78936C4.5329 2.73742 4.48249 2.69531 4.42032 2.69531C4.35814 2.69531 4.30774 2.73742 4.30774 2.78936C4.30774 2.84129 4.35814 2.8834 4.42032 2.8834Z" fill="white" stroke="#EF2D28" stroke-width="0.0126191"/>
<path fill-rule="evenodd" clip-rule="evenodd" d="M3.85608 2.53735H4.38286L4.11947 2.82037L3.85608 2.53735Z" fill="white" stroke="#EF2D28" stroke-width="0.0126191"/>
<path d="M4.11898 2.88286C4.20189 2.88286 4.2691 2.82672 4.2691 2.75747C4.2691 2.68822 4.20189 2.63208 4.11898 2.63208C4.03608 2.63208 3.96887 2.68822 3.96887 2.75747C3.96887 2.82672 4.03608 2.88286 4.11898 2.88286Z" fill="white" stroke="#EF2D28" stroke-width="0.0168257"/>
<path d="M4.30825 3.69751H3.58479C3.56122 3.69751 3.54211 3.71221 3.54211 3.73034V3.85366C3.54211 3.87179 3.56122 3.88648 3.58479 3.88648H4.30825C4.33181 3.88648 4.35092 3.87179 4.35092 3.85366V3.73034C4.35092 3.71221 4.33181 3.69751 4.30825 3.69751Z" fill="white" stroke="#EF2D28" stroke-width="0.0112599"/>
<path fill-rule="evenodd" clip-rule="evenodd" d="M4.59705 3.54048C4.49979 3.54048 4.42139 3.61412 4.42139 3.70462V3.84746C4.42073 3.86857 4.42477 3.8896 4.43326 3.90932C4.44176 3.92903 4.45455 3.94705 4.47088 3.96231C4.48722 3.97758 4.50679 3.98979 4.52844 3.99825C4.5501 4.00671 4.57342 4.01124 4.59705 4.01159C4.62068 4.01124 4.644 4.00671 4.66565 3.99825C4.68731 3.98979 4.70688 3.97758 4.72321 3.96231C4.73955 3.94705 4.75234 3.92903 4.76083 3.90932C4.76933 3.8896 4.77336 3.86857 4.7727 3.84746V3.7055C4.7735 3.68431 4.76956 3.66319 4.76113 3.64337C4.75269 3.62355 4.73993 3.60543 4.72358 3.59007C4.70722 3.57471 4.68761 3.56241 4.66589 3.5539C4.64417 3.54539 4.62077 3.54083 4.59705 3.54048ZM4.59705 3.60259C4.5385 3.60259 4.49185 3.66203 4.49185 3.73478V3.81729C4.49185 3.89004 4.5385 3.9486 4.59705 3.9486C4.6556 3.9486 4.70224 3.89004 4.70224 3.81729V3.73478C4.70224 3.66203 4.6556 3.60348 4.59705 3.60348V3.60259ZM3.68305 3.57154C3.6235 3.57154 3.57785 3.63009 3.57785 3.70373V3.84923C3.57785 3.92198 3.6245 3.98054 3.68305 3.98054C3.7416 3.98054 3.78824 3.92198 3.78824 3.84923V3.70284C3.78824 3.6292 3.7416 3.57065 3.68305 3.57065V3.57154ZM3.68305 3.50943C3.65942 3.50978 3.6361 3.51431 3.61444 3.52277C3.59279 3.53123 3.57322 3.54344 3.55688 3.55871C3.54055 3.57397 3.52776 3.59199 3.51926 3.6117C3.51077 3.63142 3.50673 3.65244 3.50739 3.67356V3.87939C3.50673 3.90051 3.51077 3.92154 3.51926 3.94126C3.52776 3.96097 3.54055 3.97899 3.55688 3.99425C3.57322 4.00952 3.59279 4.02173 3.61444 4.03019C3.6361 4.03865 3.65942 4.04318 3.68305 4.04353C3.7803 4.04353 3.8587 3.96989 3.8587 3.87939V3.67356C3.8595 3.65237 3.85556 3.63125 3.84713 3.61143C3.83869 3.59161 3.82593 3.57349 3.80958 3.55813C3.79322 3.54277 3.77361 3.53047 3.75189 3.52196C3.73017 3.51345 3.70676 3.50889 3.68305 3.50854V3.50943Z" fill="white" stroke="#EF2D28" stroke-width="0.0112599"/>
<path fill-rule="evenodd" clip-rule="evenodd" d="M3.40119 3.63452C3.34264 3.63452 3.29599 3.69308 3.29599 3.76583V3.80043C3.29599 3.87318 3.34264 3.93174 3.40119 3.93174C3.46073 3.93174 3.50738 3.87318 3.50738 3.80043V3.76583C3.50738 3.69308 3.45974 3.63452 3.40119 3.63452ZM3.40119 3.57242C3.37756 3.57276 3.35424 3.5773 3.33258 3.58575C3.31093 3.59421 3.29136 3.60643 3.27502 3.6217C3.25869 3.63696 3.2459 3.65497 3.2374 3.67469C3.22891 3.69441 3.22487 3.71543 3.22553 3.73655V3.8306C3.22487 3.85172 3.22891 3.87274 3.2374 3.89246C3.2459 3.91217 3.25869 3.93019 3.27502 3.94545C3.29136 3.96072 3.31093 3.97293 3.33258 3.98139C3.35424 3.98985 3.37756 3.99438 3.40119 3.99473C3.49844 3.99473 3.57784 3.92109 3.57784 3.8306V3.73655C3.57863 3.71529 3.57466 3.69409 3.56617 3.67421C3.55767 3.65434 3.54482 3.63618 3.52836 3.62081C3.5119 3.60543 3.49218 3.59316 3.47034 3.58469C3.4485 3.57623 3.42499 3.57176 3.40119 3.57153V3.57242Z" fill="white" stroke="#EF2D28" stroke-width="0.0112599"/>
<path fill-rule="evenodd" clip-rule="evenodd" d="M2.98062 3.54769C2.87344 3.54769 2.78948 3.61314 2.78948 3.69444V3.85804C2.78948 3.93836 2.87523 4.00479 2.98062 4.00479C3.08601 4.00479 3.16997 3.93935 3.16997 3.85705V3.69444C3.16997 3.61314 3.08423 3.54769 2.98062 3.54769ZM2.98062 3.47829C2.93809 3.47854 2.89607 3.48348 2.857 3.49281C2.81793 3.50215 2.78259 3.51569 2.75302 3.53266C2.72344 3.54963 2.70023 3.56968 2.68472 3.59167C2.66921 3.61365 2.66171 3.63713 2.66266 3.66073V3.89076C2.66123 3.91445 2.66831 3.93806 2.68349 3.96021C2.69868 3.98236 2.72165 4.0026 2.75109 4.01977C2.78052 4.03694 2.81582 4.05068 2.85492 4.0602C2.89402 4.06971 2.93614 4.07481 2.97883 4.07519C3.15568 4.07519 3.2968 3.99289 3.2968 3.89076V3.66073C3.29799 3.63713 3.29072 3.61363 3.27543 3.59159C3.26014 3.56956 3.23712 3.54943 3.20772 3.53236C3.17831 3.5153 3.14309 3.50165 3.10411 3.4922C3.06513 3.48274 3.02315 3.47768 2.98062 3.47729V3.47829Z" fill="white" stroke="#EF2D28" stroke-width="0.0119778"/>
<path fill-rule="evenodd" clip-rule="evenodd" d="M5.26614 3.5787C5.15896 3.5787 5.07501 3.64414 5.07501 3.72545V3.88905C5.07501 3.96936 5.16075 4.0358 5.26614 4.0358C5.37154 4.0358 5.45549 3.97036 5.45549 3.88806V3.72545C5.45549 3.64414 5.36975 3.5787 5.26614 3.5787ZM5.26614 3.50929C5.22361 3.50955 5.18159 3.51449 5.14253 3.52382C5.10346 3.53315 5.06811 3.5467 5.03854 3.56367C5.00896 3.58063 4.98575 3.60069 4.97024 3.62267C4.95473 3.64466 4.94723 3.66813 4.94818 3.69173V3.92177C4.94675 3.94546 4.95383 3.96906 4.96902 3.99121C4.9842 4.01336 5.00718 4.03361 5.03661 4.05078C5.06604 4.06795 5.10134 4.08169 5.14044 4.0912C5.17954 4.10072 5.22167 4.10581 5.26436 4.1062C5.4412 4.1062 5.58232 4.0239 5.58232 3.92177V3.69173C5.58351 3.66813 5.57625 3.64463 5.56095 3.6226C5.54566 3.60056 5.52265 3.58043 5.49324 3.56337C5.46383 3.54631 5.42862 3.53266 5.38963 3.5232C5.35065 3.51375 5.30868 3.50869 5.26614 3.5083V3.50929Z" fill="white" stroke="#EF2D28" stroke-width="0.0119778"/>
<path d="M5.06643 3.69751H4.69031C4.6777 3.69751 4.66748 3.71221 4.66748 3.73034V3.85366C4.66748 3.87179 4.6777 3.88648 4.69031 3.88648H5.06643C5.07903 3.88648 5.08925 3.87179 5.08925 3.85366V3.73034C5.08925 3.71221 5.07903 3.69751 5.06643 3.69751Z" fill="white" stroke="#EF2D28" stroke-width="0.0112599"/>
<path d="M4.51361 3.6665H4.2933C4.28617 3.6665 4.2804 3.68597 4.2804 3.70998V3.875C4.2804 3.89901 4.28617 3.91847 4.2933 3.91847H4.51361C4.52073 3.91847 4.52651 3.89901 4.52651 3.875V3.70998C4.52651 3.68597 4.52073 3.6665 4.51361 3.6665Z" fill="white" stroke="#EF2D28" stroke-width="0.0112599"/>
<path d="M3.35358 3.6665H3.13326C3.12614 3.6665 3.12036 3.68597 3.12036 3.70998V3.875C3.12036 3.89901 3.12614 3.91847 3.13326 3.91847H3.35358C3.3607 3.91847 3.36648 3.89901 3.36648 3.875V3.70998C3.36648 3.68597 3.3607 3.6665 3.35358 3.6665Z" fill="white" stroke="#EF2D28" stroke-width="0.0112599"/>
<path d="M2.81262 3.63452H2.37199C2.35774 3.63452 2.34619 3.65875 2.34619 3.68864V3.89447C2.34619 3.92436 2.35774 3.94859 2.37199 3.94859H2.81262C2.82687 3.94859 2.83842 3.92436 2.83842 3.89447V3.68864C2.83842 3.65875 2.82687 3.63452 2.81262 3.63452Z" fill="white" stroke="#EF2D28" stroke-width="0.0112599"/>
<path d="M5.83845 3.6665H5.43057C5.41687 3.6665 5.40576 3.69073 5.40576 3.72062V3.92645C5.40576 3.95634 5.41687 3.98057 5.43057 3.98057H5.83845C5.85215 3.98057 5.86326 3.95634 5.86326 3.92645V3.72062C5.86326 3.69073 5.85215 3.6665 5.83845 3.6665Z" fill="white" stroke="#EF2D28" stroke-width="0.0112599"/>
</g>
</g>
</g>
<defs>
<clipPath id="clip0_2214_3892">
<path d="M0 12C0 5.37258 5.37258 0 12 0C18.6274 0 24 5.37258 24 12C24 18.6274 18.6274 24 12 24C5.37258 24 0 18.6274 0 12Z" fill="white"/>
</clipPath>
<clipPath id="clip1_2214_3892">
<rect width="32" height="24" fill="white"/>
</clipPath>
</defs>
</svg>
