<svg width="24" height="24" viewBox="0 0 24 24" fill="none" xmlns="http://www.w3.org/2000/svg">
<g clip-path="url(#clip0_3053_1927)">
<path d="M-1 0H31V24H-1V0Z" fill="#009543"/>
<path d="M-1 0H31V16H-1V0Z" fill="#ED4135"/>
<path d="M-1 0H31V8H-1V0Z" fill="#0035AD"/>
<path d="M11.0001 19.8648C15.3439 19.8648 18.8651 16.3435 18.8651 11.9998C18.8651 7.65605 15.3439 4.13477 11.0001 4.13477C6.65641 4.13477 3.13513 7.65605 3.13513 11.9998C3.13513 16.3435 6.65641 19.8648 11.0001 19.8648Z" fill="#FAE600" stroke="black" stroke-width="0.19875"/>
<path d="M9.66516 13.1747H12.3302H9.66516ZM9.66516 11.1997H12.3302H9.66516ZM11.0002 4.15967V17.5997V4.15967Z" fill="black"/>
<path d="M9.66516 13.1747H12.3302M9.66516 11.1997H12.3302M11.0002 4.15967V17.5997" stroke="black" stroke-width="0.24"/>
<path d="M7.83011 19.22C11.0401 20.535 14.0501 19.305 14.0501 19.305C14.0501 19.305 12.9151 18.075 12.3351 17.595C11.7651 17.125 10.0951 17.145 9.52511 17.595C8.93439 18.1092 8.36874 18.6515 7.83011 19.22Z" fill="black"/>
<path d="M11.0002 16.9047C11.4862 16.9047 11.8802 16.3317 11.8802 15.6247C11.8802 14.9178 11.4862 14.3447 11.0002 14.3447C10.5142 14.3447 10.1202 14.9178 10.1202 15.6247C10.1202 16.3317 10.5142 16.9047 11.0002 16.9047Z" fill="black"/>
<path d="M11.0002 12.8598C11.5883 12.8598 12.0651 12.5576 12.0651 12.1848C12.0651 11.812 11.5883 11.5098 11.0002 11.5098C10.412 11.5098 9.93515 11.812 9.93515 12.1848C9.93515 12.5576 10.412 12.8598 11.0002 12.8598Z" fill="black"/>
<path d="M11.0002 10.1302C11.5883 10.1302 12.0651 9.65343 12.0651 9.06524C12.0651 8.47706 11.5883 8.00024 11.0002 8.00024C10.412 8.00024 9.93515 8.47706 9.93515 9.06524C9.93515 9.65343 10.412 10.1302 11.0002 10.1302Z" fill="black"/>
<path d="M12.2801 5.09509C12.2801 5.09509 12.3701 5.24509 12.1801 5.59509C11.2501 7.27009 10.3151 7.30509 10.1401 7.45009C9.94013 7.61009 9.86013 7.60009 9.86013 7.60009C9.87513 7.45509 9.88513 6.87009 9.89513 6.81509C10.0401 6.03009 11.2201 6.04009 12.1451 5.24009C12.2901 5.11509 12.2801 5.09009 12.2801 5.09009V5.09509ZM9.16013 8.69509C9.16013 8.69509 9.37513 9.29509 9.40013 9.89509C9.45013 10.8551 10.3701 10.8801 11.0001 10.8801V10.3451C10.5251 10.3451 10.1151 10.2751 9.77513 9.57509C9.59624 9.26435 9.39045 8.96989 9.16013 8.69509ZM9.13513 16.4251C9.13513 16.4251 9.47013 16.0101 9.86513 15.0401C10.0651 14.5351 10.5551 14.2401 11.0001 14.2401V13.4901C9.98513 13.4901 9.50013 13.8651 9.45013 14.4201C9.3865 15.0943 9.2813 15.7639 9.13513 16.4251Z" fill="black"/>
<path d="M12.8402 8.69482C12.8402 8.69482 12.6252 9.29482 12.6002 9.89482C12.5502 10.8548 11.6302 10.8798 11.0002 10.8798V10.3498C11.4752 10.3498 11.8852 10.2798 12.2252 9.57482C12.4052 9.26482 12.6102 8.96982 12.8402 8.69482ZM12.8652 16.4298C12.8652 16.4298 12.5302 16.0098 12.1352 15.0398C11.9352 14.5348 11.4452 14.2398 11.0002 14.2398V13.4998C12.0152 13.4998 12.5002 13.8748 12.5502 14.4298C12.614 15.1023 12.7192 15.7703 12.8652 16.4298Z" fill="black"/>
</g>
<defs>
<clipPath id="clip0_3053_1927">
<path d="M0 12C0 5.37258 5.37258 0 12 0C18.6274 0 24 5.37258 24 12C24 18.6274 18.6274 24 12 24C5.37258 24 0 18.6274 0 12Z" fill="white"/>
</clipPath>
</defs>
</svg>
