<svg width="24" height="24" viewBox="0 0 24 24" fill="none" xmlns="http://www.w3.org/2000/svg">
<g clip-path="url(#clip0_2214_3046)">
<g clip-path="url(#clip1_2214_3046)">
<path d="M-4 0H28V24H-4V0Z" fill="#00267F"/>
<path d="M6.66498 0H17.335V24H6.66498V0Z" fill="#FFC726"/>
<path d="M11.99 6.7749C11.64 7.7249 11.29 8.7049 10.53 9.4599C10.765 9.3799 11.18 9.3099 11.44 9.3199V13.2949L10.32 13.4599C10.28 13.4599 10.27 13.3949 10.27 13.3099C10.16 12.0749 9.87004 11.0349 9.53004 9.9599C9.50504 9.8149 9.08004 9.2599 9.41004 9.3599C9.45004 9.3599 9.88504 9.5399 9.82004 9.4549C9.19185 8.82129 8.38017 8.40146 7.50004 8.2549C7.42504 8.2399 7.38004 8.2799 7.45004 8.3649C8.57004 10.0949 9.51504 12.1399 9.50504 14.5649C9.94504 14.5649 11.005 14.3049 11.44 14.3049V17.1099H12L12.125 9.2749L11.99 6.7749Z" fill="#000001"/>
<path d="M11.985 6.7749C12.335 7.7249 12.685 8.7049 13.445 9.4599C13.21 9.3799 12.795 9.3099 12.535 9.3199V13.2949L13.655 13.4599C13.695 13.4599 13.705 13.3949 13.705 13.3099C13.815 12.0749 14.105 11.0349 14.445 9.9599C14.47 9.8149 14.895 9.2599 14.565 9.3599C14.525 9.3599 14.09 9.5399 14.155 9.4549C14.7832 8.82129 15.5949 8.40146 16.475 8.2549C16.55 8.2399 16.595 8.2799 16.525 8.3649C15.405 10.0949 14.46 12.1399 14.47 14.5649C14.03 14.5649 12.97 14.3049 12.535 14.3049V17.1099H11.975L11.85 9.2749L11.985 6.7749Z" fill="#000001"/>
</g>
</g>
<defs>
<clipPath id="clip0_2214_3046">
<path d="M0 12C0 5.37258 5.37258 0 12 0C18.6274 0 24 5.37258 24 12C24 18.6274 18.6274 24 12 24C5.37258 24 0 18.6274 0 12Z" fill="white"/>
</clipPath>
<clipPath id="clip1_2214_3046">
<rect width="32" height="24" fill="white" transform="translate(-4)"/>
</clipPath>
</defs>
</svg>
