<svg width="24" height="24" viewBox="0 0 24 24" fill="none" xmlns="http://www.w3.org/2000/svg">
<g clip-path="url(#clip0_2214_3994)">
<g clip-path="url(#clip1_2214_3994)">
<path fill-rule="evenodd" clip-rule="evenodd" d="M-4 12H28V24H-4V12Z" fill="#19B6EF"/>
<path fill-rule="evenodd" clip-rule="evenodd" d="M-4 0H28V12H-4V0Z" fill="white"/>
<path fill-rule="evenodd" clip-rule="evenodd" d="M11.85 16.9599C14.48 14.9999 17.3 10.9999 13.995 8.88989C13.38 8.76989 12.695 8.80489 12.36 9.06989C12.185 8.96989 12.045 8.97989 11.87 9.16489C11.745 9.01489 11.62 8.94489 11.37 9.01989C11.1305 8.89179 10.8679 8.81257 10.5976 8.78682C10.3272 8.76107 10.0544 8.78931 9.795 8.86989C6.9 10.5899 8.67 14.6999 11.85 16.9549V16.9599Z" fill="#FFDD00" stroke="#7D6C00" stroke-width="0.3"/>
<path fill-rule="evenodd" clip-rule="evenodd" d="M16.7 12.5049C16.7 12.5049 17 12.1049 17.01 12.1049C17.305 11.9349 17.335 11.7099 17.335 11.7099C17.63 11.6199 17.535 11.3749 17.56 11.3449C17.6087 11.3015 17.6419 11.2433 17.6545 11.1792C17.6672 11.1151 17.6586 11.0487 17.63 10.9899C17.63 10.9499 17.73 10.5699 17.59 10.5199C17.595 10.1199 17.35 10.1549 17.15 10.4199C16.94 10.4799 16.895 10.6549 16.97 10.8449C16.695 10.8449 16.685 11.2449 16.765 11.4649C16.4 11.4549 16.6 11.8649 16.59 11.8849C16.47 11.9449 16.685 12.5249 16.705 12.5049H16.7ZM14.4 15.9149L14.58 16.0249C14.62 16.1649 14.75 16.2549 14.845 16.2299C14.895 16.4449 15.125 16.4149 15.295 16.2899C15.43 16.4899 15.595 16.4899 15.825 16.4249C16.025 16.5749 16.29 16.5099 16.465 16.3549C16.65 16.5049 16.775 16.3949 16.87 16.2299C17.02 16.2699 17.13 16.2449 17.185 16.0999C17.47 16.0749 17.33 15.8049 17.095 15.6899C17.28 15.5299 17.49 15.1899 17.195 15.1399C17.105 15.0749 16.93 15.0899 16.8 15.1499C16.765 14.9999 16.56 14.9649 16.33 15.1299C16.255 14.9649 15.98 15.0449 15.855 15.1599C15.69 15.0199 15.495 15.0199 15.21 15.1799L14.4 15.9149ZM14.4 15.4799C14.43 15.2899 14.3 14.9499 14.5 14.9199C14.465 14.6049 14.515 14.2549 14.875 14.2849C14.935 13.9899 14.925 13.7149 15.265 13.6749C15.265 13.6749 15.54 12.7199 15.825 13.3799C15.935 13.5749 15.915 13.8899 15.69 13.8299C15.735 14.0649 15.655 14.2749 15.395 14.2649C15.51 14.4349 15.475 14.6599 15.345 14.7649L14.4 15.4799ZM16.055 14.2849L16.355 14.2249C16.655 14.0249 16.78 13.9399 16.93 14.1649C17.185 14.1149 17.43 14.1349 17.42 14.3349C17.72 14.3599 17.72 14.5499 17.685 14.7049C17.735 14.9699 17.615 15.3199 17.435 14.8949C16.84 14.5349 16.505 14.5849 15.57 14.7949L16.055 14.2849ZM16.21 13.9899C16.22 13.9799 17.085 13.7549 16.995 13.4899C17.24 13.4499 17.29 13.2049 17.295 13.2049C17.81 13.0449 17.78 12.7499 17.78 12.7499C17.925 12.5949 18.18 12.4349 18.125 12.1599C18.14 11.8449 18.17 11.6499 17.745 11.8549C17.43 11.8249 17.32 12.0049 17.23 12.2799C17.08 12.1049 16.84 12.3849 16.81 12.6349C16.81 12.6349 16.425 13.0149 16.425 13.0249L16.1 13.6249L16.21 13.9899Z" fill="#4FD46B" stroke="#3A9D4F" stroke-width="0.3" stroke-linejoin="round"/>
<path fill-rule="evenodd" clip-rule="evenodd" d="M16.225 13.3199C16.02 13.1649 15.905 12.9749 15.94 12.7899C15.805 12.6049 15.71 12.4949 15.84 12.3299L15.74 11.9549C15.47 11.8549 15.585 11.6299 15.655 11.5499C15.5283 11.3699 15.525 11.1966 15.645 11.0299C15.645 10.7049 15.875 10.8299 16.06 11.0299C16.06 11.0299 16.38 11.2549 16.145 11.4549C16.38 11.5399 16.445 11.7399 16.315 11.8249C16.52 11.9149 16.55 12.0999 16.44 12.2249C16.645 12.3849 16.57 12.5949 16.63 12.7799L16.225 13.3199Z" fill="#4FD46B" stroke="#3A9D4F" stroke-width="0.3" stroke-linejoin="round"/>
<path fill-rule="evenodd" clip-rule="evenodd" d="M16.59 11.7998C16.58 11.7948 16.245 11.3648 16.34 11.3348C16.315 11.2048 16.215 11.0598 16.275 10.9298C16.11 10.7598 16.105 10.5648 16.235 10.4098C16.125 10.2598 16.175 10.0548 16.325 9.91983C16.275 9.66983 16.455 9.60983 16.61 9.56483C16.725 9.16483 16.91 9.26483 17.02 9.57483C17.18 9.71483 17.155 9.92483 17.1 10.0848C17.29 10.2098 17.175 10.3698 17.09 10.4348L16.59 11.7998Z" fill="#4FD46B" stroke="#3A9D4F" stroke-width="0.3" stroke-linejoin="round"/>
<path fill-rule="evenodd" clip-rule="evenodd" d="M16.54 9.6549L16.255 9.3699C16.33 9.2199 16.39 8.9549 16.175 8.8299C16.055 8.5449 15.465 8.1849 15.37 8.8699C15.28 8.6649 15.09 8.4599 14.955 8.6999C14.645 8.4349 14.48 8.5149 14.64 8.8499C14.64 8.8499 14.495 9.0749 14.87 9.2499C14.9 9.2799 14.75 9.6549 15.2 9.6649C15.115 9.7949 15.25 9.9749 15.43 9.9649C15.305 10.1199 15.52 10.2899 15.655 10.2249C15.6 10.3999 15.605 10.4849 15.85 10.5099L16.125 10.8249L16.35 11.1299L16.54 9.6549Z" fill="#4FD46B" stroke="#3A9D4F" stroke-width="0.3" stroke-linejoin="round"/>
<path d="M16.715 12.3248C16.73 12.3098 17.265 11.0848 17.335 10.7148M16.77 10.1498C16.77 10.1498 16.86 11.1498 16.615 11.8798M15.13 9.14478C15.13 9.14478 16.225 10.1948 16.33 10.6298M15.895 9.02979C15.895 9.02979 15.965 9.89478 16.27 10.7448M17.82 12.1648C17.82 12.1648 16.73 13.0898 16.2 13.8998M16.79 15.3998C16.79 15.3998 15.35 15.5998 14.72 15.6148M16.32 16.0148C16.32 16.0148 14.53 15.9748 14.4 15.8448M15.425 13.6948C15.425 13.7148 14.515 15.2098 14.485 15.6948" stroke="#3A9D4F" stroke-width="0.275" stroke-linecap="round"/>
<path fill-rule="evenodd" clip-rule="evenodd" d="M11.845 16.67C9.955 14.89 8.02 11.55 9.945 9.86002C10.285 10.05 10.69 9.88002 11.245 9.66002C11.415 9.84502 11.63 9.89002 11.845 9.75002C11.9334 9.79347 12.0336 9.80673 12.1302 9.78777C12.2268 9.7688 12.3146 9.71865 12.38 9.64502C12.93 9.96002 13.625 10.125 13.79 9.81002C15.68 11.61 13.76 14.97 11.84 16.675L11.845 16.67Z" fill="#65C7FF" stroke="#7D6C00" stroke-width="0.3"/>
<path fill-rule="evenodd" clip-rule="evenodd" d="M11.85 16.6201C10.9878 15.786 10.2728 14.8123 9.735 13.7401C9.835 13.6551 9.88 13.6301 9.93 13.4901C10.22 13.5301 10.375 13.5401 10.755 13.4701C10.835 13.7601 10.85 14.0001 11.03 14.2401L11.415 13.4901C11.6858 13.5578 11.9692 13.5578 12.24 13.4901C12.4 13.7001 12.34 14.0251 12.625 14.2701C12.795 13.7701 12.96 13.7401 13.13 13.4701C13.38 13.5601 13.54 13.5201 13.745 13.4551C13.845 13.5801 13.795 13.5751 13.995 13.7551C13.4654 14.8345 12.7397 15.806 11.855 16.6201H11.85Z" fill="#8FC753"/>
<path fill-rule="evenodd" clip-rule="evenodd" d="M9.63 8.21496C9.63423 8.23938 9.63308 8.26443 9.62661 8.28835C9.62015 8.31228 9.60853 8.3345 9.59257 8.35346C9.57661 8.37242 9.5567 8.38767 9.53423 8.39813C9.51176 8.40859 9.48728 8.414 9.4625 8.414C9.43771 8.414 9.41323 8.40859 9.39076 8.39813C9.36829 8.38767 9.34838 8.37242 9.33242 8.35346C9.31647 8.3345 9.30485 8.31228 9.29838 8.28835C9.29192 8.26443 9.29076 8.23938 9.295 8.21496C9.295 8.16987 9.31291 8.12663 9.34479 8.09475C9.37667 8.06287 9.41991 8.04496 9.465 8.04496C9.51008 8.04496 9.55332 8.06287 9.5852 8.09475C9.61709 8.12663 9.635 8.16987 9.635 8.21496H9.63ZM9.455 7.82996C9.46121 7.85501 9.46164 7.88114 9.45625 7.90638C9.45086 7.93162 9.4398 7.9553 9.42389 7.97563C9.40799 7.99595 9.38767 8.01239 9.36447 8.0237C9.34127 8.03501 9.3158 8.04088 9.29 8.04088C9.26419 8.04088 9.23872 8.03501 9.21552 8.0237C9.19232 8.01239 9.172 7.99595 9.1561 7.97563C9.1402 7.9553 9.12913 7.93162 9.12374 7.90638C9.11835 7.88114 9.11878 7.85501 9.125 7.82996C9.13184 7.7905 9.1524 7.75472 9.18304 7.72893C9.21368 7.70314 9.25245 7.689 9.2925 7.689C9.33255 7.689 9.37131 7.70314 9.40195 7.72893C9.4326 7.75472 9.45315 7.7905 9.46 7.82996H9.455ZM9.255 7.47496C9.25923 7.49938 9.25808 7.52443 9.25161 7.54835C9.24515 7.57228 9.23353 7.5945 9.21757 7.61346C9.20161 7.63242 9.1817 7.64767 9.15923 7.65813C9.13676 7.66858 9.11228 7.674 9.0875 7.674C9.06271 7.674 9.03823 7.66858 9.01576 7.65813C8.99329 7.64767 8.97338 7.63242 8.95742 7.61346C8.94147 7.5945 8.92985 7.57228 8.92338 7.54835C8.91692 7.52443 8.91576 7.49938 8.92 7.47496C8.92684 7.4355 8.9474 7.39972 8.97804 7.37393C9.00868 7.34814 9.04745 7.334 9.0875 7.334C9.12755 7.334 9.16631 7.34814 9.19695 7.37393C9.2276 7.39972 9.24815 7.4355 9.255 7.47496ZM9.115 7.12496C9.11923 7.14938 9.11807 7.17443 9.11161 7.19835C9.10514 7.22228 9.09353 7.2445 9.07757 7.26346C9.06161 7.28242 9.0417 7.29767 9.01923 7.30813C8.99676 7.31858 8.97228 7.324 8.9475 7.324C8.92271 7.324 8.89823 7.31858 8.87576 7.30813C8.85329 7.29767 8.83338 7.28242 8.81742 7.26346C8.80147 7.2445 8.78985 7.22228 8.78338 7.19835C8.77692 7.17443 8.77576 7.14938 8.78 7.12496C8.78684 7.0855 8.80739 7.04972 8.83804 7.02393C8.86868 6.99814 8.90745 6.984 8.9475 6.984C8.98755 6.984 9.02631 6.99814 9.05695 7.02393C9.0876 7.04972 9.10815 7.0855 9.115 7.12496ZM9.14 6.74496C9.14423 6.76938 9.14307 6.79443 9.13661 6.81835C9.13014 6.84228 9.11853 6.8645 9.10257 6.88346C9.08661 6.90242 9.0667 6.91767 9.04423 6.92813C9.02176 6.93858 8.99728 6.944 8.9725 6.944C8.94771 6.944 8.92323 6.93858 8.90076 6.92813C8.87829 6.91767 8.85838 6.90242 8.84242 6.88346C8.82647 6.8645 8.81485 6.84228 8.80838 6.81835C8.80192 6.79443 8.80076 6.76938 8.805 6.74496C8.81184 6.7055 8.83239 6.66972 8.86304 6.64393C8.89368 6.61814 8.93245 6.604 8.9725 6.604C9.01255 6.604 9.05131 6.61814 9.08195 6.64393C9.1126 6.66972 9.13315 6.7055 9.14 6.74496ZM10.02 6.11996C10.0242 6.14438 10.0231 6.16943 10.0166 6.19335C10.0101 6.21728 9.99853 6.2395 9.98257 6.25846C9.96661 6.27742 9.9467 6.29267 9.92423 6.30313C9.90176 6.31359 9.87728 6.319 9.8525 6.319C9.82771 6.319 9.80323 6.31359 9.78076 6.30313C9.75829 6.29267 9.73838 6.27742 9.72242 6.25846C9.70647 6.2395 9.69485 6.21728 9.68838 6.19335C9.68192 6.16943 9.68076 6.14438 9.685 6.11996C9.69184 6.0805 9.71239 6.04472 9.74304 6.01893C9.77368 5.99314 9.81245 5.979 9.8525 5.979C9.89255 5.979 9.93131 5.99314 9.96195 6.01893C9.9926 6.04472 10.0132 6.0805 10.02 6.11996Z" fill="white" stroke="black" stroke-width="0.1375"/>
<path fill-rule="evenodd" clip-rule="evenodd" d="M9.69 6.17992C9.69424 6.20434 9.69308 6.22939 9.68662 6.25332C9.68015 6.27724 9.66853 6.29947 9.65258 6.31843C9.63662 6.33739 9.61671 6.35264 9.59424 6.36309C9.57177 6.37355 9.54729 6.37897 9.5225 6.37897C9.49772 6.37897 9.47324 6.37355 9.45077 6.36309C9.4283 6.35264 9.40839 6.33739 9.39243 6.31843C9.37647 6.29947 9.36485 6.27724 9.35839 6.25332C9.35192 6.22939 9.35077 6.20434 9.355 6.17992C9.36185 6.14046 9.3824 6.10468 9.41304 6.0789C9.44369 6.05311 9.48245 6.03897 9.5225 6.03897C9.56255 6.03897 9.60132 6.05311 9.63196 6.0789C9.6626 6.10468 9.68316 6.14046 9.69 6.17992ZM9.325 6.39492C9.32924 6.41934 9.32808 6.44439 9.32162 6.46832C9.31515 6.49224 9.30353 6.51447 9.28758 6.53343C9.27162 6.55239 9.25171 6.56763 9.22924 6.57809C9.20677 6.58855 9.18229 6.59397 9.1575 6.59397C9.13272 6.59397 9.10824 6.58855 9.08577 6.57809C9.0633 6.56763 9.04339 6.55239 9.02743 6.53343C9.01147 6.51447 8.99986 6.49224 8.99339 6.46832C8.98692 6.44439 8.98577 6.41934 8.99 6.39492C8.99685 6.35546 9.0174 6.31968 9.04805 6.2939C9.07869 6.26811 9.11745 6.25397 9.1575 6.25397C9.19755 6.25397 9.23632 6.26811 9.26696 6.2939C9.2976 6.31968 9.31816 6.35546 9.325 6.39492ZM10.445 6.12492C10.4512 6.14997 10.4516 6.17611 10.4463 6.20135C10.4409 6.22658 10.4298 6.25027 10.4139 6.27059C10.398 6.29092 10.3777 6.30736 10.3545 6.31867C10.3313 6.32997 10.3058 6.33585 10.28 6.33585C10.2542 6.33585 10.2287 6.32997 10.2055 6.31867C10.1823 6.30736 10.162 6.29092 10.1461 6.27059C10.1302 6.25027 10.1191 6.22658 10.1137 6.20135C10.1084 6.17611 10.1088 6.14997 10.115 6.12492C10.1241 6.08807 10.1454 6.05534 10.1753 6.03195C10.2052 6.00856 10.242 5.99585 10.28 5.99585C10.318 5.99585 10.3548 6.00856 10.3847 6.03195C10.4147 6.05534 10.4359 6.08807 10.445 6.12492ZM10.915 6.16492C10.9192 6.18934 10.9181 6.21439 10.9116 6.23832C10.9052 6.26224 10.8935 6.28447 10.8776 6.30343C10.8616 6.32239 10.8417 6.33764 10.8192 6.34809C10.7968 6.35855 10.7723 6.36397 10.7475 6.36397C10.7227 6.36397 10.6982 6.35855 10.6758 6.34809C10.6533 6.33764 10.6334 6.32239 10.6174 6.30343C10.6015 6.28447 10.5899 6.26224 10.5834 6.23832C10.5769 6.21439 10.5758 6.18934 10.58 6.16492C10.5868 6.12546 10.6074 6.08968 10.638 6.0639C10.6687 6.03811 10.7075 6.02397 10.7475 6.02397C10.7876 6.02397 10.8263 6.03811 10.857 6.0639C10.8876 6.08968 10.9082 6.12546 10.915 6.16492ZM11.325 6.13992C11.3312 6.16497 11.3316 6.19111 11.3263 6.21635C11.3209 6.24159 11.3098 6.26527 11.2939 6.28559C11.278 6.30592 11.2577 6.32236 11.2345 6.33367C11.2113 6.34497 11.1858 6.35085 11.16 6.35085C11.1342 6.35085 11.1087 6.34497 11.0855 6.33367C11.0623 6.32236 11.042 6.30592 11.0261 6.28559C11.0102 6.26527 10.9991 6.24159 10.9938 6.21635C10.9884 6.19111 10.9888 6.16497 10.995 6.13992C11.0018 6.10046 11.0224 6.06468 11.053 6.0389C11.0837 6.01311 11.1225 5.99897 11.1625 5.99897C11.2026 5.99897 11.2413 6.01311 11.272 6.0389C11.3026 6.06468 11.3232 6.10046 11.33 6.13992H11.325Z" fill="white" stroke="black" stroke-width="0.1375"/>
<path fill-rule="evenodd" clip-rule="evenodd" d="M12.295 5.87507C12.295 5.98911 12.2497 6.09848 12.1691 6.17912C12.0884 6.25976 11.979 6.30507 11.865 6.30507C11.751 6.30507 11.6416 6.25976 11.5609 6.17912C11.4803 6.09848 11.435 5.98911 11.435 5.87507C11.435 5.76103 11.4803 5.65165 11.5609 5.57101C11.6416 5.49037 11.751 5.44507 11.865 5.44507C11.979 5.44507 12.0884 5.49037 12.1691 5.57101C12.2497 5.65165 12.295 5.76103 12.295 5.87507Z" fill="#FFDD00" stroke="#7D6C00" stroke-width="0.1375"/>
<path fill-rule="evenodd" clip-rule="evenodd" d="M12.75 6.13509C12.75 6.18018 12.7321 6.22342 12.7002 6.2553C12.6683 6.28718 12.6251 6.30509 12.58 6.30509C12.5349 6.30509 12.4917 6.28718 12.4598 6.2553C12.4279 6.22342 12.41 6.18018 12.41 6.13509C12.4168 6.09563 12.4374 6.05985 12.468 6.03407C12.4987 6.00828 12.5375 5.99414 12.5775 5.99414C12.6176 5.99414 12.6563 6.00828 12.687 6.03407C12.7176 6.05985 12.7382 6.09563 12.745 6.13509H12.75ZM13.18 6.17009C13.1862 6.19514 13.1866 6.22128 13.1813 6.24652C13.1759 6.27176 13.1648 6.29544 13.1489 6.31576C13.133 6.33609 13.1127 6.35253 13.0895 6.36384C13.0663 6.37514 13.0408 6.38102 13.015 6.38102C12.9892 6.38102 12.9637 6.37514 12.9405 6.36384C12.9173 6.35253 12.897 6.33609 12.8811 6.31576C12.8652 6.29544 12.8541 6.27176 12.8488 6.24652C12.8434 6.22128 12.8438 6.19514 12.85 6.17009C12.8568 6.13063 12.8774 6.09485 12.908 6.06907C12.9387 6.04328 12.9775 6.02914 13.0175 6.02914C13.0576 6.02914 13.0963 6.04328 13.127 6.06907C13.1576 6.09485 13.1782 6.13063 13.185 6.17009H13.18ZM13.605 6.15009C13.6092 6.17451 13.6081 6.19956 13.6016 6.22349C13.5952 6.24741 13.5835 6.26964 13.5676 6.2886C13.5516 6.30756 13.5317 6.32281 13.5092 6.33326C13.4868 6.34372 13.4623 6.34914 13.4375 6.34914C13.4127 6.34914 13.3882 6.34372 13.3658 6.33326C13.3433 6.32281 13.3234 6.30756 13.3074 6.2886C13.2915 6.26964 13.2799 6.24741 13.2734 6.22349C13.2669 6.19956 13.2658 6.17451 13.27 6.15009C13.2768 6.11063 13.2974 6.07485 13.328 6.04907C13.3587 6.02328 13.3975 6.00914 13.4375 6.00914C13.4776 6.00914 13.5163 6.02328 13.547 6.04907C13.5776 6.07485 13.5982 6.11063 13.605 6.15009ZM13.96 6.13509C13.9642 6.15951 13.9631 6.18456 13.9566 6.20849C13.9502 6.23241 13.9385 6.25464 13.9226 6.2736C13.9066 6.29256 13.8867 6.30781 13.8642 6.31826C13.8418 6.32872 13.8173 6.33414 13.7925 6.33414C13.7677 6.33414 13.7432 6.32872 13.7208 6.31826C13.6983 6.30781 13.6784 6.29256 13.6624 6.2736C13.6465 6.25464 13.6349 6.23241 13.6284 6.20849C13.6219 6.18456 13.6208 6.15951 13.625 6.13509C13.6318 6.09563 13.6524 6.05985 13.683 6.03407C13.7137 6.00828 13.7525 5.99414 13.7925 5.99414C13.8326 5.99414 13.8713 6.00828 13.902 6.03407C13.9326 6.05985 13.9532 6.09563 13.96 6.13509ZM14.405 6.18509C14.4092 6.20951 14.4081 6.23456 14.4016 6.25849C14.3952 6.28241 14.3835 6.30464 14.3676 6.3236C14.3516 6.34256 14.3317 6.35781 14.3092 6.36826C14.2868 6.37872 14.2623 6.38414 14.2375 6.38414C14.2127 6.38414 14.1882 6.37872 14.1658 6.36826C14.1433 6.35781 14.1234 6.34256 14.1074 6.3236C14.0915 6.30464 14.0799 6.28241 14.0734 6.25849C14.0669 6.23456 14.0658 6.20951 14.07 6.18509C14.0768 6.14563 14.0974 6.10985 14.128 6.08407C14.1587 6.05828 14.1975 6.04414 14.2375 6.04414C14.2776 6.04414 14.3163 6.05828 14.347 6.08407C14.3776 6.10985 14.3982 6.14563 14.405 6.18509ZM14.755 6.40509C14.7592 6.42951 14.7581 6.45456 14.7516 6.47849C14.7452 6.50241 14.7335 6.52464 14.7176 6.5436C14.7016 6.56256 14.6817 6.57781 14.6592 6.58826C14.6368 6.59872 14.6123 6.60414 14.5875 6.60414C14.5627 6.60414 14.5382 6.59872 14.5158 6.58826C14.4933 6.57781 14.4734 6.56256 14.4574 6.5436C14.4415 6.52464 14.4299 6.50241 14.4234 6.47849C14.4169 6.45456 14.4158 6.42951 14.42 6.40509C14.4268 6.36563 14.4474 6.32985 14.478 6.30407C14.5087 6.27828 14.5475 6.26414 14.5875 6.26414C14.6276 6.26414 14.6663 6.27828 14.697 6.30407C14.7276 6.32985 14.7482 6.36563 14.755 6.40509Z" fill="white" stroke="black" stroke-width="0.1375"/>
<path fill-rule="evenodd" clip-rule="evenodd" d="M9.47 7.58509L9.9 8.41009H13.86L14.32 7.61509C14.05 7.43009 13.87 7.29009 13.485 7.37509C13.27 7.06509 13.035 7.01009 12.685 7.04009C12.58 6.93509 12.485 6.87009 12.305 6.84009L11.475 6.86509C11.255 6.88509 11.085 7.05509 11.075 7.05509C10.725 7.01009 10.4 7.02009 10.315 7.36509C9.99 7.28509 9.765 7.37509 9.47 7.58509Z" fill="#E40000" stroke="#AC0000" stroke-width="0.3"/>
<path fill-rule="evenodd" clip-rule="evenodd" d="M14.9 6.76498C14.9042 6.7894 14.9031 6.81445 14.8966 6.83837C14.8901 6.8623 14.8785 6.88452 14.8626 6.90348C14.8466 6.92244 14.8267 6.93769 14.8042 6.94815C14.7818 6.9586 14.7573 6.96402 14.7325 6.96402C14.7077 6.96402 14.6832 6.9586 14.6608 6.94815C14.6383 6.93769 14.6184 6.92244 14.6024 6.90348C14.5865 6.88452 14.5748 6.8623 14.5684 6.83837C14.5619 6.81445 14.5608 6.7894 14.565 6.76498C14.5718 6.72552 14.5924 6.68974 14.623 6.66395C14.6537 6.63816 14.6924 6.62402 14.7325 6.62402C14.7725 6.62402 14.8113 6.63816 14.842 6.66395C14.8726 6.68974 14.8932 6.72552 14.9 6.76498ZM14.93 7.16498C14.9342 7.1894 14.9331 7.21445 14.9266 7.23837C14.9201 7.2623 14.9085 7.28452 14.8926 7.30348C14.8766 7.32244 14.8567 7.33769 14.8342 7.34815C14.8118 7.3586 14.7873 7.36402 14.7625 7.36402C14.7377 7.36402 14.7132 7.3586 14.6908 7.34815C14.6683 7.33769 14.6484 7.32244 14.6324 7.30348C14.6165 7.28452 14.6048 7.2623 14.5984 7.23837C14.5919 7.21445 14.5908 7.1894 14.595 7.16498C14.6018 7.12552 14.6224 7.08974 14.653 7.06395C14.6837 7.03816 14.7224 7.02402 14.7625 7.02402C14.8025 7.02402 14.8413 7.03816 14.872 7.06395C14.9026 7.08974 14.9232 7.12552 14.93 7.16498ZM14.805 7.52498C14.8092 7.5494 14.8081 7.57444 14.8016 7.59837C14.7951 7.6223 14.7835 7.64452 14.7676 7.66348C14.7516 7.68244 14.7317 7.69769 14.7092 7.70815C14.6868 7.7186 14.6623 7.72402 14.6375 7.72402C14.6127 7.72402 14.5882 7.7186 14.5658 7.70815C14.5433 7.69769 14.5234 7.68244 14.5074 7.66348C14.4915 7.64452 14.4798 7.6223 14.4734 7.59837C14.4669 7.57444 14.4658 7.5494 14.47 7.52498C14.4768 7.48552 14.4974 7.44974 14.528 7.42395C14.5587 7.39816 14.5974 7.38402 14.6375 7.38402C14.6775 7.38402 14.7163 7.39816 14.747 7.42395C14.7776 7.44974 14.7982 7.48552 14.805 7.52498ZM14.655 7.82498C14.655 7.87006 14.6371 7.9133 14.6052 7.94518C14.5733 7.97707 14.5301 7.99498 14.485 7.99498C14.4399 7.99498 14.3967 7.97707 14.3648 7.94518C14.3329 7.9133 14.315 7.87006 14.315 7.82498C14.3218 7.78552 14.3424 7.74974 14.373 7.72395C14.4037 7.69816 14.4424 7.68402 14.4825 7.68402C14.5225 7.68402 14.5613 7.69816 14.592 7.72395C14.6226 7.74974 14.6432 7.78552 14.65 7.82498H14.655ZM14.47 8.19998C14.4742 8.2244 14.4731 8.24944 14.4666 8.27337C14.4601 8.2973 14.4485 8.31952 14.4326 8.33848C14.4166 8.35744 14.3967 8.37269 14.3742 8.38315C14.3518 8.3936 14.3273 8.39902 14.3025 8.39902C14.2777 8.39902 14.2532 8.3936 14.2308 8.38315C14.2083 8.37269 14.1884 8.35744 14.1724 8.33848C14.1565 8.31952 14.1448 8.2973 14.1384 8.27337C14.1319 8.24944 14.1308 8.2244 14.135 8.19998C14.1418 8.16052 14.1624 8.12474 14.193 8.09895C14.2237 8.07316 14.2624 8.05902 14.3025 8.05902C14.3425 8.05902 14.3813 8.07316 14.412 8.09895C14.4426 8.12474 14.4632 8.16052 14.47 8.19998ZM12.13 7.71998C12.13 7.78628 12.1037 7.84987 12.0568 7.89675C12.0099 7.94364 11.9463 7.96998 11.88 7.96998C11.8137 7.96998 11.7501 7.94364 11.7032 7.89675C11.6563 7.84987 11.63 7.78628 11.63 7.71998C11.63 7.65367 11.6563 7.59008 11.7032 7.5432C11.7501 7.49632 11.8137 7.46998 11.88 7.46998C11.9463 7.46998 12.0099 7.49632 12.0568 7.5432C12.1037 7.59008 12.13 7.65367 12.13 7.71998Z" fill="white" stroke="black" stroke-width="0.1375"/>
<path fill-rule="evenodd" clip-rule="evenodd" d="M12.18 7.1501C12.18 7.22966 12.1484 7.30597 12.0921 7.36223C12.0359 7.41849 11.9596 7.4501 11.88 7.4501C11.8004 7.4501 11.7241 7.41849 11.6679 7.36223C11.6116 7.30597 11.58 7.22966 11.58 7.1501C11.58 7.07053 11.6116 6.99423 11.6679 6.93797C11.7241 6.8817 11.8004 6.8501 11.88 6.8501C11.9596 6.8501 12.0359 6.8817 12.0921 6.93797C12.1484 6.99423 12.18 7.07053 12.18 7.1501Z" fill="white" stroke="black" stroke-width="0.1375"/>
<path fill-rule="evenodd" clip-rule="evenodd" d="M12.135 6.60008C12.135 6.67169 12.1066 6.74036 12.0559 6.791C12.0053 6.84163 11.9366 6.87008 11.865 6.87008C11.7934 6.87008 11.7247 6.84163 11.6741 6.791C11.6234 6.74036 11.595 6.67169 11.595 6.60008C11.595 6.52847 11.6234 6.45979 11.6741 6.40916C11.7247 6.35852 11.7934 6.33008 11.865 6.33008C11.9366 6.33008 12.0053 6.35852 12.0559 6.40916C12.1066 6.45979 12.135 6.52847 12.135 6.60008Z" fill="white" stroke="black" stroke-width="0.1375"/>
<path fill-rule="evenodd" clip-rule="evenodd" d="M11.775 5.45006V5.24006L11.595 5.23506L11.605 5.07506H11.755V4.93506H11.98V5.06006H12.155L12.15 5.23006H11.97V5.45506H11.77L11.775 5.45006Z" fill="#FFDD00" stroke="#7D6C00" stroke-width="0.1375"/>
<path d="M9.88 8.41002C9.525 7.81002 9 6.99002 9.33 6.63502C9.775 6.13002 10.825 6.58502 11.495 6.29502C11.545 6.86502 11.385 7.81502 11.64 8.01002L11.4 8.22002C11.25 8.03502 10.98 7.78002 10.64 8.23002C10.44 8.06002 10.225 8.09002 10.12 8.31502C10.02 8.33002 10.025 8.37002 9.88 8.41002ZM13.88 8.38502C14.24 7.78502 14.76 6.97002 14.435 6.61502C13.985 6.11002 12.935 6.56502 12.27 6.27002C12.22 6.84502 12.38 7.79502 12.12 7.99002L12.36 8.20002C12.595 7.87502 12.88 7.86502 13.125 8.21002C13.32 8.04002 13.52 8.06002 13.645 8.29502C13.745 8.31002 13.735 8.34502 13.885 8.38502H13.88Z" stroke="#FFDD00" stroke-width="0.4125"/>
<path fill-rule="evenodd" clip-rule="evenodd" d="M9.865 8.85508C11.1839 8.73491 12.5111 8.73491 13.83 8.85508L13.985 8.40508C12.6 8.15508 11.645 8.12508 9.835 8.37508L9.865 8.85508Z" fill="#FFDD00" stroke="#7D6C00" stroke-width="0.3"/>
<path fill-rule="evenodd" clip-rule="evenodd" d="M11.705 16.4701L11.735 16.2601C11.88 16.3001 11.985 16.2851 12.105 16.2401L12.225 16.0551L12.135 15.9501C12.055 15.9651 11.985 16.0401 11.935 16.1051C11.855 16.1101 11.785 16.0701 11.705 16.0551L11.63 15.7351C11.555 15.6451 11.395 15.6501 11.43 15.8101L11.445 15.9351C11.475 16.0101 11.49 16.1151 11.54 16.1701V16.3001L11.705 16.4701ZM11.765 15.5551C11.665 15.6051 11.535 15.5151 11.4 15.4601C11.275 15.4551 11.18 15.5601 11.03 15.5251C11.06 15.4451 11.125 15.4301 11.17 15.3851C11.135 15.1801 11.245 15.1101 11.275 15.1101C11.305 15.1101 11.43 15.1401 11.43 15.1401L11.55 15.1551C11.625 15.2901 11.725 15.4051 11.765 15.5551Z" fill="#C76E2E"/>
<path fill-rule="evenodd" clip-rule="evenodd" d="M11.04 18.3001C11.39 17.7301 13.85 16.5801 16.16 14.0901C13.81 16.3551 12.34 16.9101 10.42 18.2901L11.04 18.3051V18.3001Z" fill="#FFE100" stroke="#E9BF00" stroke-width="0.3"/>
<path fill-rule="evenodd" clip-rule="evenodd" d="M14.42 15.6601C14.42 15.7078 14.401 15.7536 14.3673 15.7874C14.3335 15.8211 14.2877 15.8401 14.24 15.8401C14.1923 15.8401 14.1465 15.8211 14.1127 15.7874C14.079 15.7536 14.06 15.7078 14.06 15.6601C14.06 15.6124 14.079 15.5666 14.1127 15.5328C14.1465 15.4991 14.1923 15.4801 14.24 15.4801C14.2877 15.4801 14.3335 15.4991 14.3673 15.5328C14.401 15.5666 14.42 15.6124 14.42 15.6601ZM16.14 13.9151C16.14 13.9688 16.1187 14.0203 16.0807 14.0583C16.0427 14.0963 15.9912 14.1176 15.9375 14.1176C15.8838 14.1176 15.8323 14.0963 15.7943 14.0583C15.7563 14.0203 15.735 13.9688 15.735 13.9151C15.735 13.8621 15.7561 13.8112 15.7936 13.7737C15.8311 13.7362 15.882 13.7151 15.935 13.7151C15.988 13.7151 16.0389 13.7362 16.0764 13.7737C16.1139 13.8112 16.135 13.8621 16.135 13.9151H16.14ZM16.71 12.4351C16.7143 12.4609 16.713 12.4873 16.7061 12.5126C16.6992 12.5378 16.6868 12.5612 16.6699 12.5812C16.653 12.6012 16.632 12.6173 16.6083 12.6283C16.5845 12.6393 16.5587 12.645 16.5325 12.645C16.5063 12.645 16.4805 12.6393 16.4567 12.6283C16.433 12.6173 16.412 12.6012 16.3951 12.5812C16.3782 12.5612 16.3658 12.5378 16.3589 12.5126C16.352 12.4873 16.3507 12.4609 16.355 12.4351C16.3621 12.3931 16.3838 12.355 16.4163 12.3275C16.4488 12.3001 16.4899 12.285 16.5325 12.285C16.5751 12.285 16.6162 12.3001 16.6487 12.3275C16.6812 12.355 16.7029 12.3931 16.71 12.4351ZM16.15 10.5151C16.1543 10.5409 16.153 10.5673 16.1461 10.5926C16.1392 10.6178 16.1268 10.6412 16.1099 10.6612C16.093 10.6812 16.072 10.6973 16.0483 10.7083C16.0245 10.7193 15.9987 10.725 15.9725 10.725C15.9463 10.725 15.9205 10.7193 15.8967 10.7083C15.873 10.6973 15.852 10.6812 15.8351 10.6612C15.8182 10.6412 15.8058 10.6178 15.7989 10.5926C15.792 10.5673 15.7907 10.5409 15.795 10.5151C15.8021 10.4731 15.8238 10.435 15.8563 10.4075C15.8888 10.3801 15.9299 10.365 15.9725 10.365C16.0151 10.365 16.0562 10.3801 16.0887 10.4075C16.1212 10.435 16.1429 10.4731 16.15 10.5151Z" fill="#9D4916" stroke="#68300E" stroke-width="0.1375"/>
<path fill-rule="evenodd" clip-rule="evenodd" d="M9.955 13.48V12.72L9.88 12.66V12.48L10.02 12.465L10.045 11.615L9.955 11.565L9.945 11.425C9.945 11.425 10.045 11.465 10.045 11.44L10.07 11.27C10.07 11.27 10.005 11.26 10.005 11.235C10.005 11.21 10.085 11.145 10.085 11.145C10.085 11.145 10.045 11.105 10.035 11.08L9.995 10.94L10.035 10.795L10.01 10.72L9.945 10.605L10.035 10.515L10.01 10.375C10.0269 10.3229 10.0522 10.2739 10.085 10.23C10.1 10.22 10.2 10.08 10.2 10.08L10.42 10.03L10.675 10.065L10.815 10.155L10.84 10.385C10.84 10.385 10.815 10.525 10.805 10.525L10.69 10.575C10.69 10.575 10.56 10.59 10.545 10.575C10.53 10.56 10.585 10.735 10.585 10.735V10.885L10.575 11.08C10.575 11.08 10.575 11.17 10.56 11.18C10.545 11.19 10.52 11.23 10.52 11.23L10.51 11.43L10.71 11.48L10.7 11.595L10.56 11.605L10.585 12.39L10.79 12.425V12.645L10.7 12.695L10.675 13.48H9.955ZM13.075 13.495V12.735L13 12.67V12.49L13.14 12.48L13.165 11.63L13.075 11.58L13.065 11.44C13.065 11.44 13.165 11.475 13.165 11.45L13.19 11.285C13.19 11.285 13.125 11.27 13.125 11.245C13.125 11.22 13.205 11.155 13.205 11.155C13.205 11.155 13.165 11.12 13.155 11.09L13.115 10.95L13.155 10.81L13.125 10.735L13.065 10.62L13.155 10.53L13.125 10.385C13.1439 10.3343 13.1709 10.2871 13.205 10.245L13.32 10.095L13.54 10.04L13.795 10.08L13.935 10.17L13.96 10.4C13.96 10.4 13.935 10.54 13.925 10.54L13.81 10.59C13.81 10.59 13.68 10.605 13.665 10.59C13.65 10.575 13.705 10.745 13.705 10.745V10.9L13.69 11.095C13.69 11.095 13.69 11.18 13.68 11.195L13.64 11.245L13.63 11.44L13.83 11.49L13.82 11.605L13.68 11.62L13.705 12.4L13.91 12.44V12.66L13.82 12.71L13.795 13.495H13.075ZM11.495 13.52V12.76L11.42 12.7V12.515L11.56 12.505L11.585 11.655L11.495 11.605L11.485 11.465C11.485 11.465 11.585 11.505 11.585 11.48L11.61 11.31C11.61 11.31 11.55 11.3 11.55 11.275C11.55 11.25 11.625 11.18 11.625 11.18C11.625 11.18 11.585 11.145 11.575 11.12L11.535 10.975L11.575 10.835L11.55 10.76L11.485 10.645L11.575 10.555L11.55 10.41C11.5665 10.3593 11.5919 10.3119 11.625 10.27C11.64 10.26 11.74 10.12 11.74 10.12L11.96 10.07L12.215 10.105L12.355 10.195L12.385 10.425C12.385 10.425 12.355 10.565 12.345 10.565L12.23 10.615C12.23 10.615 12.1 10.63 12.09 10.615C12.08 10.6 12.125 10.77 12.125 10.77V10.925L12.115 11.12C12.115 11.12 12.115 11.21 12.1 11.22L12.06 11.27L12.05 11.465L12.25 11.515L12.24 11.63L12.1 11.645L12.125 12.43L12.33 12.465V12.685L12.24 12.735L12.215 13.52H11.5H11.495Z" fill="white" stroke="#A9A9A9" stroke-width="0.1375"/>
<path fill-rule="evenodd" clip-rule="evenodd" d="M10.15 13.475V12.875H10.48V13.5L10.15 13.475ZM11.72 13.525L11.735 12.915H12.035V13.51L11.72 13.52V13.525ZM13.27 13.51L13.25 12.935L13.575 12.925V13.525L13.275 13.51H13.27ZM10.23 11.71H10.42V12.015H10.23V11.71ZM11.745 11.72H12.01V12.02H11.745V11.72ZM13.295 11.745H13.525V12.03H13.3L13.295 11.745Z" fill="black"/>
<path d="M10.33 10.3501C10.53 10.5801 10.545 10.5801 10.545 10.5801M11.855 10.3501C11.895 10.4251 11.955 10.5901 12.035 10.6051M13.5 10.3851C13.5 10.3851 13.565 10.5651 13.65 10.5901" stroke="#A8A8A8" stroke-width="0.1375"/>
<path fill-rule="evenodd" clip-rule="evenodd" d="M10.11 9.70002C10.71 9.50502 9.97 9.12002 9.845 9.70002C9.655 9.73502 9.63 9.87502 9.21 9.81502C8.19 11.465 8.945 14.14 11.915 16.905C6.595 12.375 8.755 9.02502 10.23 9.15502C11.03 9.20502 10.63 10.205 10.11 9.70502V9.70002Z" fill="#B97700"/>
<path d="M10.28 8.84994C10.28 8.84994 10.765 8.98494 10.765 9.18994M10.765 8.81494C10.765 8.81494 11.105 8.96494 11.18 9.09494M13.435 8.86994C13.435 8.86994 13.005 8.92994 12.91 9.05994M12.78 8.90994C12.78 8.90994 12.53 9.11494 12.555 9.17494M12.725 9.80994C12.685 9.79494 12.515 9.56494 12.555 9.28494M11.065 9.65994C11.065 9.65994 11.18 9.52994 11.18 9.28494M11.855 9.18994L11.875 9.73994M12.345 9.65994C12.345 9.62494 12.495 9.26494 12.325 9.09494M11.31 9.01994C11.31 9.01994 11.18 9.37994 11.275 9.67994M12.275 9.33994C12.275 9.33994 12.065 9.39994 11.975 9.48994M11.385 9.39494C11.385 9.37994 11.615 9.34494 11.685 9.47494" stroke="#7D6C00" stroke-width="0.3"/>
<path fill-rule="evenodd" clip-rule="evenodd" d="M11.03 15.095C11.04 15.095 11.22 15.06 11.22 14.975C11.31 14.915 11.245 14.75 11.245 14.75L11.075 14.72L10.845 14.46C10.835 14.38 10.86 14.305 10.81 14.22C10.65 14.26 10.56 14.395 10.51 14.545C10.545 14.595 10.55 14.645 10.625 14.69C10.7 14.7 10.75 14.655 10.82 14.67C10.855 14.735 10.845 14.79 10.86 14.85C10.955 14.915 10.975 15.01 11.03 15.095ZM10.825 13.985V13.675L10.605 13.665C10.575 13.715 10.525 13.735 10.495 13.775L10.34 13.855C10.405 13.93 10.485 13.975 10.53 14.015C10.64 14.0484 10.7383 14.0384 10.825 13.985ZM10.135 14.44L10.015 14.24C10.0927 14.2177 10.1758 14.223 10.25 14.255C10.25 14.255 10.3 14.38 10.265 14.425C10.245 14.47 10.13 14.45 10.135 14.44ZM11.96 14.645C11.9933 14.6292 12.0226 14.6062 12.046 14.5776C12.0693 14.5491 12.0861 14.5158 12.095 14.48L11.87 14.225L11.67 14.22C11.6167 14.1734 11.5567 14.1534 11.49 14.16C11.49 14.16 11.55 14.26 11.63 14.275C11.69 14.405 11.94 14.645 11.96 14.645ZM12.175 14.675C12.175 14.67 12.375 14.605 12.475 14.61C12.47 14.53 12.625 14.345 12.625 14.345L12.905 14.71C12.855 14.75 12.765 14.74 12.695 14.75C12.695 14.75 12.56 14.88 12.545 14.885C12.53 14.89 12.285 14.95 12.165 14.875C12.115 14.775 12.18 14.66 12.175 14.675ZM12.335 14.035C12.37 13.9108 12.37 13.7793 12.335 13.655H12.015L11.805 13.755C11.805 13.755 11.87 13.965 11.955 13.945C11.99 14.05 12.1 14.025 12.155 14.065L12.335 14.035ZM13.58 13.715C13.53 13.85 13.51 13.99 13.57 14.115C13.63 14.13 13.7 14.165 13.75 14.155L14.005 13.695C13.8283 13.6384 13.685 13.645 13.575 13.715H13.58Z" fill="#C76E2E"/>
<path fill-rule="evenodd" clip-rule="evenodd" d="M13.655 9.66008C13.055 9.46508 13.795 9.07508 13.92 9.66008C14.115 9.69008 14.14 9.83508 14.56 9.77508C15.575 11.4251 14.82 14.1001 11.85 16.8651C17.175 12.3351 15.01 8.98508 13.535 9.11008C12.735 9.16008 13.135 10.1601 13.655 9.66008Z" fill="#B97700"/>
<path fill-rule="evenodd" clip-rule="evenodd" d="M13.715 14.2351C13.705 14.2351 13.565 14.3351 13.565 14.3351L13.355 14.4201L13.135 14.4251L13.085 14.2751L13.255 14.1251C13.1083 14.1051 12.975 14.1518 12.855 14.2651C12.855 14.2651 12.855 14.4301 12.955 14.5151C13.01 14.5851 13.18 14.7151 13.18 14.7151C13.2261 14.7254 13.2737 14.7263 13.3201 14.7177C13.3665 14.7091 13.4107 14.6912 13.45 14.6651L13.715 14.2351ZM12.555 15.7401C12.625 15.7601 13.12 15.1051 13.12 15.1051C13.0752 14.9875 12.9877 14.8911 12.875 14.8351C12.875 14.8351 12.635 15.1201 12.63 15.2151C12.59 15.3001 12.48 15.6301 12.53 15.6751C12.525 15.6851 12.505 15.8201 12.555 15.7401Z" fill="#C76E2E"/>
<path fill-rule="evenodd" clip-rule="evenodd" d="M9.32 15.87C8.58 15.225 7.58 14.87 6.185 15.355C6.56 15.515 6.965 15.57 7.31 15.75L9.32 15.87Z" fill="#006800" stroke="#004100" stroke-width="0.3" stroke-linejoin="round"/>
<path d="M7.17 15.415C8.635 15.445 9.06 15.81 8.985 15.75" stroke="#00A400" stroke-width="0.275" stroke-linecap="round"/>
<path fill-rule="evenodd" clip-rule="evenodd" d="M9.35 15.9501C8.91 16.0301 8.31 16.4501 8.13 16.4351C7.655 16.3801 7.205 16.1851 6.745 16.0351C6.555 15.9751 6.36 16.0351 6.165 16.0351C7.805 15.2601 8.365 15.3651 9.35 15.9451V15.9501Z" fill="#006800" stroke="#004100" stroke-width="0.275" stroke-linejoin="round"/>
<path fill-rule="evenodd" clip-rule="evenodd" d="M8.27 14.7999C8.27 14.7999 7.72 14.8799 7.475 14.8949C7.235 14.8799 6.875 14.6549 6.485 14.2449C6.285 14.0149 5.815 14.0449 5.815 14.0449C6.845 13.8249 7.65 14.0349 8.265 14.8049L8.27 14.7999ZM7.52 13.7399C6.775 13.6899 5.845 13.0249 5.635 12.2299C5.635 12.2399 5.91 12.4049 5.865 12.4449C7.085 12.7549 7.165 13.0049 7.52 13.7399ZM8.77 15.0149C8.875 14.3399 8.905 13.8949 8.59 13.4949C8.325 13.1949 8.26 13.0099 8.07 12.5799C8.015 13.4699 7.82 14.2049 8.77 15.0149ZM7.6 13.1499C8.15 12.3449 8.25 11.7349 8.16 10.7749C8.145 10.8499 7.96 11.3249 7.95 11.3249C7.125 11.8399 7.49 12.6499 7.6 13.1499Z" fill="#006800" stroke="#004100" stroke-width="0.3" stroke-linejoin="round"/>
<path fill-rule="evenodd" clip-rule="evenodd" d="M7.11 9.25C7.66 10.055 7.58 10.815 7.49 11.775C7.475 11.7 7.29 11.225 7.28 11.225C6.455 10.71 7.005 9.75 7.11 9.25Z" fill="#006800" stroke="#004100" stroke-width="0.3" stroke-linejoin="round"/>
<path fill-rule="evenodd" clip-rule="evenodd" d="M7.565 10.5C8.905 9.82005 8.39 8.96505 8.635 8.30005C7.705 8.99505 7.585 9.73005 7.57 10.5H7.565Z" fill="#006800" stroke="#004100" stroke-width="0.3" stroke-linejoin="round"/>
<path d="M7.75 10.33C7.92 9.85505 8.25 9.05005 8.285 9.05005M7.35 11.32C7.32 10.985 7.15 10.085 7.135 9.99505" stroke="#00A400" stroke-width="0.275" stroke-linecap="round"/>
<path fill-rule="evenodd" clip-rule="evenodd" d="M7.415 12.8249C6.665 12.7749 5.865 11.7599 5.65 10.9699C5.65 10.9799 5.925 11.1399 5.88 11.1799C6.95 11.6599 7.06 12.0899 7.415 12.8249ZM7.195 12.1249C6.645 11.3199 6.545 10.7099 6.63 9.7499C6.645 9.8249 6.83 10.2999 6.845 10.2999C7.665 10.8149 7.3 11.6249 7.195 12.1249ZM7.69 10.7099C9.075 10.0949 8.65 9.4499 9.06 8.7749C8.13 9.4649 7.705 9.9449 7.69 10.7099Z" fill="#006800" stroke="#004100" stroke-width="0.3" stroke-linejoin="round"/>
<path d="M7.75 10.5699C8.06414 10.274 8.32169 9.92324 8.51 9.53491" stroke="#00A400" stroke-width="0.275" stroke-linecap="round"/>
<path fill-rule="evenodd" clip-rule="evenodd" d="M12.68 18.32L13.35 18.33C11.115 16.23 6.825 15.32 7.42 11.46C6.805 15.645 10.925 16.035 12.68 18.32Z" fill="#FFE100" stroke="#E9BF00" stroke-width="0.3"/>
<path fill-rule="evenodd" clip-rule="evenodd" d="M7.77 10.6349C7.77 10.6919 7.74735 10.7466 7.70703 10.7869C7.66671 10.8273 7.61202 10.8499 7.555 10.8499C7.49798 10.8499 7.44329 10.8273 7.40297 10.7869C7.36265 10.7466 7.34 10.6919 7.34 10.6349C7.34 10.5779 7.36265 10.5232 7.40297 10.4829C7.44329 10.4426 7.49798 10.4199 7.555 10.4199C7.61202 10.4199 7.66671 10.4426 7.70703 10.4829C7.74735 10.5232 7.77 10.5779 7.77 10.6349ZM7.64 11.8149C7.64 11.8686 7.61867 11.9201 7.58069 11.9581C7.54271 11.9961 7.49121 12.0174 7.4375 12.0174C7.38379 12.0174 7.33229 11.9961 7.29431 11.9581C7.25634 11.9201 7.235 11.8686 7.235 11.8149C7.235 11.7619 7.25607 11.711 7.29358 11.6735C7.33109 11.636 7.38196 11.6149 7.435 11.6149C7.48804 11.6149 7.53891 11.636 7.57642 11.6735C7.61393 11.711 7.635 11.7619 7.635 11.8149H7.64ZM7.83 13.4999C7.83 13.5236 7.82535 13.547 7.8163 13.5688C7.80725 13.5906 7.79399 13.6105 7.77728 13.6272C7.76057 13.6439 7.74072 13.6572 7.71888 13.6662C7.69704 13.6753 7.67364 13.6799 7.65 13.6799C7.62636 13.6799 7.60296 13.6753 7.58112 13.6662C7.55928 13.6572 7.53944 13.6439 7.52272 13.6272C7.50601 13.6105 7.49275 13.5906 7.4837 13.5688C7.47466 13.547 7.47 13.5236 7.47 13.4999C7.47 13.4522 7.48897 13.4064 7.52272 13.3726C7.55648 13.3389 7.60226 13.3199 7.65 13.3199C7.69774 13.3199 7.74352 13.3389 7.77728 13.3726C7.81104 13.4064 7.83 13.4522 7.83 13.4999ZM9.395 15.3599C9.395 15.4077 9.37604 15.4534 9.34228 15.4872C9.30852 15.521 9.26274 15.5399 9.215 15.5399C9.16726 15.5399 9.12148 15.521 9.08772 15.4872C9.05397 15.4534 9.035 15.4077 9.035 15.3599C9.035 15.3122 9.05397 15.2664 9.08772 15.2326C9.12148 15.1989 9.16726 15.1799 9.215 15.1799C9.26274 15.1799 9.30852 15.1989 9.34228 15.2326C9.37604 15.2664 9.395 15.3122 9.395 15.3599ZM9.62 15.8949C9.62 15.9427 9.60104 15.9884 9.56728 16.0222C9.53352 16.056 9.48774 16.0749 9.44 16.0749C9.39226 16.0749 9.34648 16.056 9.31272 16.0222C9.27897 15.9884 9.26 15.9427 9.26 15.8949C9.26 15.8472 9.27897 15.8014 9.31272 15.7676C9.34648 15.7339 9.39226 15.7149 9.44 15.7149C9.48774 15.7149 9.53352 15.7339 9.56728 15.7676C9.60104 15.8014 9.62 15.8472 9.62 15.8949Z" fill="#9D4916" stroke="#68300E" stroke-width="0.1375"/>
<path fill-rule="evenodd" clip-rule="evenodd" d="M10.41 17.45C10.3081 17.3738 10.2258 17.2743 10.17 17.16L9.47 17.085L9.46 17.485L10.41 17.45Z" fill="white" stroke="black" stroke-width="0.1375"/>
<path fill-rule="evenodd" clip-rule="evenodd" d="M5.265 16.98C5.675 17.055 6.29 16.94 6.49 17.205C6.73 17.475 5.735 17.9 5.875 18.135C6.185 18.46 6.5 18.325 6.845 18.145C6.93 17.97 6.995 17.655 7.035 17.56C6.91 17.275 6.57 17.13 6.66 16.695C7.225 16.485 8.32 16.5 8.44 16.585C8.53 16.765 8.445 16.845 8.465 16.99C8.37 17.175 8.13 17.48 8.13 17.645C8.73 17.855 8.88 17.615 9.42 17.625C10.05 17.635 10.43 17.805 10.57 17.555C10.47 17.335 9.895 17.515 9.68 17.375C9.57 17.34 9.5 17.25 9.405 17.155C9.31 17.06 9.045 17.055 9.005 16.81C9.115 16.3 9.855 16.38 9.97 16.3L11.89 16.435C12.24 16.425 12.44 17.05 11.965 17.235C11.495 17.425 10.11 16.96 9.505 17.28C9.475 17.15 9.04 16.95 9.01 16.945C8.825 16.995 8.465 16.98 8.465 16.98C8.38 17.14 8.275 17.26 8.19 17.425C7.79 17.25 7.415 17.56 6.98 17.47L6.3 17.545L5.87 17.505L5.21 17.695L5.68 17.28L5.265 16.98Z" fill="white" stroke="black" stroke-width="0.1375" stroke-linejoin="round"/>
<path fill-rule="evenodd" clip-rule="evenodd" d="M5.235 16.9C5.235 16.9477 5.21603 16.9935 5.18228 17.0273C5.14852 17.061 5.10274 17.08 5.055 17.08C5.00726 17.08 4.96147 17.061 4.92772 17.0273C4.89396 16.9935 4.875 16.9477 4.875 16.9C4.875 16.8522 4.89396 16.8064 4.92772 16.7727C4.96147 16.7389 5.00726 16.72 5.055 16.72C5.10274 16.72 5.14852 16.7389 5.18228 16.7727C5.21603 16.8064 5.235 16.8522 5.235 16.9ZM5.185 17.8C5.185 17.8477 5.16603 17.8935 5.13228 17.9273C5.09852 17.961 5.05274 17.98 5.005 17.98C4.95726 17.98 4.91147 17.961 4.87772 17.9273C4.84396 17.8935 4.825 17.8477 4.825 17.8C4.825 17.7516 4.84422 17.7051 4.87845 17.6709C4.91268 17.6367 4.95909 17.6175 5.0075 17.6175C5.0559 17.6175 5.10232 17.6367 5.13654 17.6709C5.17077 17.7051 5.19 17.7516 5.19 17.8H5.185Z" fill="white" stroke="black" stroke-width="0.1375"/>
<path fill-rule="evenodd" clip-rule="evenodd" d="M13.315 17.455C13.43 17.35 13.505 17.28 13.55 17.165L14.25 17.085L14.265 17.485L13.315 17.455Z" fill="white" stroke="black" stroke-width="0.1375"/>
<path fill-rule="evenodd" clip-rule="evenodd" d="M18.455 16.9799C18.05 17.0549 17.435 16.9449 17.235 17.2049C16.99 17.4799 17.985 17.9049 17.845 18.1349C17.535 18.4649 17.22 18.3299 16.875 18.1499C16.795 17.9749 16.73 17.6599 16.685 17.5649C16.815 17.2749 17.15 17.1349 17.065 16.6999C16.495 16.4849 15.4 16.4999 15.285 16.5849C15.19 16.7699 15.275 16.8499 15.255 16.9949C15.355 17.1749 15.595 17.4849 15.595 17.6449C14.995 17.8599 14.84 17.6149 14.305 17.6299C13.675 17.6399 13.29 17.8049 13.155 17.5549C13.25 17.3399 13.825 17.5149 14.045 17.3799C14.155 17.3399 14.225 17.2549 14.32 17.1549C14.415 17.0549 14.68 17.0549 14.72 16.8149C14.61 16.3049 13.87 16.3799 13.75 16.3049L11.83 16.4349C11.48 16.4249 11.285 17.0499 11.755 17.2399C12.225 17.4299 13.615 16.9599 14.215 17.2799C14.25 17.1499 14.68 16.9549 14.715 16.9449C14.895 16.9999 15.255 16.9799 15.255 16.9799C15.345 17.1449 15.445 17.2649 15.535 17.4299C15.935 17.2499 16.31 17.5649 16.745 17.4699L17.42 17.5449L17.855 17.5099L18.515 17.6949L18.045 17.2849L18.455 16.9849V16.9799Z" fill="white" stroke="black" stroke-width="0.1375" stroke-linejoin="round"/>
<path fill-rule="evenodd" clip-rule="evenodd" d="M18.485 16.9C18.485 16.9484 18.5042 16.9949 18.5385 17.0291C18.5727 17.0633 18.6191 17.0825 18.6675 17.0825C18.7159 17.0825 18.7623 17.0633 18.7965 17.0291C18.8308 16.9949 18.85 16.9484 18.85 16.9C18.85 16.8516 18.8308 16.8052 18.7965 16.771C18.7623 16.7368 18.7159 16.7175 18.6675 16.7175C18.6191 16.7175 18.5727 16.7368 18.5385 16.771C18.5042 16.8052 18.485 16.8516 18.485 16.9ZM18.535 17.8C18.535 17.8478 18.554 17.8936 18.5877 17.9273C18.6215 17.9611 18.6673 17.98 18.715 17.98C18.7627 17.98 18.8085 17.9611 18.8423 17.9273C18.876 17.8936 18.895 17.8478 18.895 17.8C18.895 17.7523 18.876 17.7065 18.8423 17.6727C18.8085 17.639 18.7627 17.62 18.715 17.62C18.6673 17.62 18.6215 17.639 18.5877 17.6727C18.554 17.7065 18.535 17.7523 18.535 17.8Z" fill="white" stroke="black" stroke-width="0.1375"/>
<path fill-rule="evenodd" clip-rule="evenodd" d="M11.85 16.4651C11.69 16.4351 11.63 16.4451 11.52 16.4351L11.265 17.2251C11.665 17.2601 12.03 17.2601 12.03 17.2601C11.79 17.2101 11.845 16.4701 11.85 16.4651Z" fill="white"/>
<path d="M10.17 17.0099V16.4749H10.26V16.9249H10.51V17.0099H10.17Z" fill="black"/>
<path d="M10.585 17.035V16.5H10.68V17.035H10.585Z" fill="black"/>
<path d="M11 17.075H10.835V16.55L10.995 16.54C11.0517 16.54 11.0933 16.5517 11.12 16.575C11.1533 16.6017 11.17 16.6367 11.17 16.68C11.17 16.72 11.1483 16.7534 11.105 16.78C11.1717 16.8034 11.205 16.8517 11.205 16.925C11.205 16.975 11.185 17.0134 11.145 17.04C11.1117 17.0667 11.065 17.08 11.005 17.08L11 17.075ZM10.935 16.62V16.745H10.985C11.0417 16.745 11.07 16.7217 11.07 16.675C11.07 16.6384 11.0417 16.62 10.985 16.62H10.935ZM10.935 16.82V16.995H10.985C11.025 16.995 11.0533 16.9884 11.07 16.975C11.0933 16.965 11.105 16.9434 11.105 16.91C11.105 16.8767 11.0967 16.855 11.08 16.845C11.0633 16.8284 11.0317 16.82 10.985 16.82H10.935Z" fill="black"/>
<path d="M11.43 16.65V16.785H11.6V16.87H11.43V17.025H11.68V17.11H11.335V16.575H11.67V16.66L11.43 16.65Z" fill="black"/>
<path d="M12.11 17.12L11.97 16.895H11.9V17.12H11.81V16.585H11.87L11.95 16.575C12.09 16.575 12.16 16.6283 12.16 16.735C12.16 16.7683 12.1517 16.7966 12.135 16.82C12.1117 16.8466 12.0867 16.865 12.06 16.875L12.225 17.12H12.11ZM11.9 16.67V16.81H11.945L12.025 16.8C12.0483 16.79 12.06 16.7683 12.06 16.735C12.06 16.7083 12.0517 16.6883 12.035 16.675C12.0117 16.665 11.9783 16.66 11.935 16.66H11.9V16.67Z" fill="black"/>
<path d="M12.495 16.6501V17.1001H12.395V16.6501H12.225V16.5701H12.67V16.6501H12.495Z" fill="black"/>
<path d="M13.035 17.0249L12.995 16.9199H12.81L12.775 17.0249H12.67L12.885 16.4849H12.925L13.145 17.0249H13.035ZM12.9 16.6499L12.845 16.8499H12.97L12.9 16.6499Z" fill="black"/>
<path d="M13.22 16.985L13.25 16.9C13.29 16.9233 13.3267 16.935 13.36 16.935C13.4167 16.935 13.445 16.915 13.445 16.875L13.425 16.825L13.345 16.77L13.26 16.72L13.225 16.67L13.22 16.61C13.22 16.5666 13.2333 16.53 13.26 16.5C13.2933 16.48 13.3317 16.47 13.375 16.47C13.4383 16.47 13.4867 16.48 13.52 16.5L13.485 16.585C13.4517 16.5583 13.415 16.545 13.375 16.545C13.355 16.545 13.3383 16.55 13.325 16.56C13.315 16.57 13.31 16.5866 13.31 16.61C13.31 16.6366 13.3433 16.6666 13.41 16.7C13.45 16.7166 13.4783 16.7333 13.495 16.75L13.525 16.8L13.535 16.87C13.535 16.9133 13.5183 16.9483 13.485 16.975C13.4517 17.0016 13.4067 17.0166 13.35 17.02C13.2933 17.0233 13.25 17.0083 13.22 16.975V16.985Z" fill="black"/>
<path d="M7.565 15.9301C8.07 15.9901 8.77 15.9451 9.075 15.9301M6.8 14.2101C7.23 14.5451 8.155 14.7451 8.14 14.7451M8.675 14.8351C8.535 14.1351 8.385 13.9651 8.26 13.5251M6.085 12.7351C6.8 13.0551 6.91 13.2651 7.365 13.5851M7.625 12.8851C7.685 12.0201 7.805 11.7901 8.02 11.5901M6.085 11.4901C6.345 11.7751 7.195 12.6751 7.195 12.6751M6.845 10.6951C7.165 10.9201 7.165 11.7451 7.165 11.7451" stroke="#00A400" stroke-width="0.275" stroke-linecap="round"/>
</g>
</g>
<defs>
<clipPath id="clip0_2214_3994">
<path d="M0 12C0 5.37258 5.37258 0 12 0C18.6274 0 24 5.37258 24 12C24 18.6274 18.6274 24 12 24C5.37258 24 0 18.6274 0 12Z" fill="white"/>
</clipPath>
<clipPath id="clip1_2214_3994">
<rect width="32" height="24" fill="white" transform="translate(-4)"/>
</clipPath>
</defs>
</svg>
