<svg width="24" height="24" viewBox="0 0 24 24" fill="none" xmlns="http://www.w3.org/2000/svg">
<g clip-path="url(#clip0_2214_4063)">
<g clip-path="url(#clip1_2214_4063)">
<mask id="mask0_2214_4063" style="mask-type:luminance" maskUnits="userSpaceOnUse" x="-1" y="0" width="33" height="24">
<path d="M0.0018799 0H31.9988V24H-0.00280762L0.0018799 0Z" fill="white"/>
</mask>
<g mask="url(#mask0_2214_4063)">
<path fill-rule="evenodd" clip-rule="evenodd" d="M-2.20129 0H45.7987V24H-2.20129V0Z" fill="white"/>
<path fill-rule="evenodd" clip-rule="evenodd" d="M-2.20129 15.9985H45.7987V24.0001H-2.20129V15.9985Z" fill="#D50000"/>
<path fill-rule="evenodd" clip-rule="evenodd" d="M-2.20129 8.00146H45.7987V15.9983H-2.20129V8.00146Z" fill="#0000BF"/>
<path fill-rule="evenodd" clip-rule="evenodd" d="M11.4112 4.35938C11.2237 7.24687 11.1112 8.83125 10.6753 9.5625C10.1972 10.35 9.73779 10.9266 7.87686 11.625C6.02061 10.9266 5.56123 10.35 5.08311 9.5625C4.64248 8.83125 4.53467 7.24687 4.34717 4.35938L4.61904 4.26562C5.17217 4.09688 5.58467 3.96094 5.88936 3.9C6.32529 3.80625 6.70029 3.70312 7.87217 3.67969C9.04404 3.69844 9.41904 3.81094 9.85498 3.90469C10.1581 3.97031 10.5847 4.09062 11.1347 4.26562L11.4112 4.35938Z" fill="#D50000"/>
<path fill-rule="evenodd" clip-rule="evenodd" d="M11.1393 4.26562C10.9612 7.14844 10.8112 8.47031 10.5768 9.10312C10.1268 10.1906 9.41433 10.7859 7.87683 11.3531C6.33933 10.7859 5.62683 10.1906 5.17214 9.10312C4.93777 8.46562 4.79714 7.14844 4.61902 4.26094C5.16277 4.08594 5.58621 3.96562 5.88933 3.9C6.32527 3.80625 6.70027 3.69844 7.87214 3.67969C9.04402 3.69844 9.41902 3.80625 9.85496 3.9C10.2888 3.99877 10.7175 4.11923 11.1393 4.26094V4.26562Z" fill="#0000BF"/>
<path fill-rule="evenodd" clip-rule="evenodd" d="M7.87687 5.14697L7.94718 5.32041L8.27531 5.36729L8.06437 5.49385L8.26593 5.62978L7.97062 5.67666L7.87687 5.83604L7.78312 5.67197L7.50187 5.63447L7.68937 5.49385L7.49249 5.36729L7.80656 5.32041L7.87687 5.14697Z" fill="#FFDF00"/>
<path fill-rule="evenodd" clip-rule="evenodd" d="M10.469 8.41885L10.2862 8.27822L10.1597 8.0626L9.90654 7.84229L9.77061 7.62197L9.51748 7.39228L9.39561 7.17197L9.25498 7.06416L9.17061 6.9751L8.93623 7.17666L8.81436 7.39697L8.65967 7.5376L8.48623 7.40166L8.35967 7.17666L7.87686 6.31885L7.39404 7.17666L7.26748 7.40166L7.09404 7.5376L6.93936 7.39697L6.81279 7.17666L6.58311 6.9751L6.49404 7.05947L6.35811 7.17197L6.23623 7.39228L5.98311 7.62197L5.84717 7.84229L5.59404 8.0626L5.46748 8.27822L5.28467 8.41885C5.38835 9.06386 5.69355 9.6595 6.15654 10.1204C6.65941 10.5508 7.24249 10.8774 7.87217 11.0813C8.5067 10.8821 9.09374 10.555 9.59717 10.1204C9.86904 9.83916 10.3753 9.21572 10.469 8.41885Z" fill="white"/>
<path fill-rule="evenodd" clip-rule="evenodd" d="M8.64562 3.93286L8.72062 4.1063L9.04874 4.15317L8.83312 4.27974L9.03937 4.41567L8.74406 4.46255L8.65031 4.62192L8.55656 4.45786L8.27531 4.42036L8.46281 4.27974L8.26593 4.15317L8.5753 4.1063L8.64562 3.93286ZM7.09874 3.93286L7.17374 4.1063L7.50187 4.14849L7.29093 4.27505L7.49249 4.41099L7.19718 4.45786L7.10343 4.61724L7.00968 4.45786L6.72843 4.41567L6.91593 4.27505L6.71906 4.14849L7.03312 4.10161L7.09874 3.93286Z" fill="#FFDF00"/>
<path fill-rule="evenodd" clip-rule="evenodd" d="M10.0659 9.51567H9.71902L9.39089 9.49224L9.00183 9.30474H8.56121L8.18152 9.49224L7.87683 9.52036L7.57683 9.49224L7.19714 9.30474H6.75183L6.35808 9.49224L6.03464 9.52036L5.67839 9.51567L5.50964 9.22505L5.51433 9.21567L6.03933 9.30474L6.36277 9.2813L6.75183 9.08911H7.19246L7.57683 9.27661L7.87683 9.30474L8.18152 9.27661L8.56121 9.08911H9.00183L9.39558 9.27661L9.71902 9.30474L10.2253 9.21099L10.2346 9.22974L10.0659 9.51567ZM6.01589 9.96099L6.36277 9.93755L6.75183 9.75005H7.19246L7.57683 9.93755L7.87683 9.96099L8.17683 9.93755L8.56121 9.75005H9.00183L9.39089 9.93755L9.74246 9.96099L9.96746 9.67974H9.96277L9.71902 9.74536L9.39558 9.72192L9.00652 9.53442H8.56589L8.18152 9.72192L7.88152 9.75005L7.57683 9.72192L7.19714 9.53442H6.75183L6.35808 9.72192L6.03464 9.75005L5.80027 9.68911V9.69849L6.01121 9.96099H6.01589Z" fill="#0000BF"/>
</g>
</g>
</g>
<defs>
<clipPath id="clip0_2214_4063">
<path d="M0 12C0 5.37258 5.37258 0 12 0C18.6274 0 24 5.37258 24 12C24 18.6274 18.6274 24 12 24C5.37258 24 0 18.6274 0 12Z" fill="white"/>
</clipPath>
<clipPath id="clip1_2214_4063">
<rect width="32" height="24" fill="white"/>
</clipPath>
</defs>
</svg>
