<svg width="24" height="24" viewBox="0 0 24 24" fill="none" xmlns="http://www.w3.org/2000/svg">
<g clip-path="url(#clip0_2214_3922)">
<g clip-path="url(#clip1_2214_3922)">
<path fill-rule="evenodd" clip-rule="evenodd" d="M-3.92 0L-3.945 24H28.055L-3.92 0Z" fill="#000001"/>
<path fill-rule="evenodd" clip-rule="evenodd" d="M28.03 24L28.055 0H-3.945L28.03 24Z" fill="#FF0000"/>
<path d="M15.812 5.97221L15.3902 5.95009C15.2571 5.64042 14.8908 5.52983 14.6577 5.66254L13.3701 5.64042L14.1582 5.98327C14.3691 6.5252 15.0351 6.6358 15.0351 6.6358C14.9685 7.60905 14.0472 6.51414 13.2702 7.06712C12.7153 7.39891 12.7153 7.786 12.4156 8.42747C12.3157 8.60442 11.9272 9.06893 11.9272 9.06893L12.5821 9.01363L12.3712 9.29012L13.1482 9.17953L12.9817 9.33436C13.0927 9.35648 13.8696 9.14635 13.8696 9.14635L13.8141 9.40072L14.7021 9.07999C14.7021 9.07999 14.8797 9.22376 15.0351 9.29012L15.1461 8.84774L15.59 8.95833L15.701 8.51594C16.367 9.40072 16.589 10.2855 17.8099 10.5067L17.6989 10.0643L18.6646 10.5067L18.7645 10.3187C19.2973 10.6947 19.7301 10.6836 20.0298 10.7279L19.8078 10.1749L20.0298 10.2855L19.6968 9.40072L20.0298 9.51132L19.5858 8.84774L19.7523 8.73714L19.6968 8.40535C20.3628 8.62654 21.2508 8.95833 21.3617 9.73251C21.4727 10.9491 20.1408 11.2809 19.2529 11.1703C19.9188 11.7233 21.1398 11.5021 21.6947 10.9491C21.9167 10.7279 22.0277 10.3961 22.1387 10.0643C22.2497 10.3961 22.4717 10.8385 22.4717 11.2809C22.3607 12.2762 21.0288 12.608 20.1408 12.7186C21.1398 13.2716 22.9157 12.608 23.0267 11.1703C23.0267 9.95371 22.2497 9.40072 21.9167 8.84774L21.8057 8.25051L22.1387 8.40535C22.1387 8.40535 21.9389 8.04038 21.9167 7.96296C21.9167 7.96296 21.5726 7.02288 21.4505 6.81275L21.6947 6.85699L20.7846 5.71784L21.0399 5.69572C21.0399 5.69572 19.9854 4.86624 19.6968 4.75565L20.0298 4.64505C19.3638 4.31326 18.5869 4.53445 17.9209 4.97684L18.0319 4.64505L17.8321 4.66717V4.28008L18.0319 3.98147L17.6989 3.87087L17.9209 3.31789L17.5879 3.42848L17.6989 2.8755C17.6989 2.8755 17.4547 2.98609 17.2993 2.97503L17.4769 2.599C17.3659 2.43311 17.4769 2.10132 17.4769 2.10132C16.7 2.21192 16.589 2.32251 16.145 2.98609C15.479 4.20266 15.701 4.75565 15.812 5.97221Z" fill="#FFCC00" stroke="#FFCC00" stroke-width="0.304688"/>
<path fill-rule="evenodd" clip-rule="evenodd" d="M20.0076 7.78613C20.0631 7.88567 20.6958 8.18428 21.162 8.44971C21.0399 7.94097 20.1186 7.83037 20.0076 7.78613Z" fill="#FF0000" stroke="#FF0000" stroke-width="0.387784"/>
<path fill-rule="evenodd" clip-rule="evenodd" d="M4.75 19.95L4.04 19.5L3.09 19.955L3.305 19.145L2.58 18.39L3.415 18.34L3.915 17.42L4.22 18.195L5.255 18.385L4.605 18.915L4.75 19.95ZM6.56 16L6.23 15.85L5.915 16.03L5.965 15.67L5.695 15.425L6.05 15.36L6.2 15.03L6.375 15.35L6.735 15.39L6.485 15.65L6.56 16ZM8.16 13.74L7.435 13.39L6.74 13.78L6.855 12.995L6.265 12.455L7.05 12.315L7.38 11.595L7.76 12.295L8.55 12.385L8 12.96L8.16 13.74ZM4.87 10.59L4.02 10.165L3.195 10.62L3.335 9.69004L2.645 9.04004L3.58 8.89004L3.98 8.04004L4.415 8.87504L5.355 8.99004L4.69 9.66004L4.87 10.59ZM1.83 13.86L0.979996 13.36L0.129996 13.875L0.344996 12.91L-0.410004 12.26L0.574996 12.17L0.959996 11.255L1.355 12.165L2.345 12.245L1.6 12.895L1.83 13.86Z" fill="white"/>
</g>
</g>
<defs>
<clipPath id="clip0_2214_3922">
<path d="M0 12C0 5.37258 5.37258 0 12 0C18.6274 0 24 5.37258 24 12C24 18.6274 18.6274 24 12 24C5.37258 24 0 18.6274 0 12Z" fill="white"/>
</clipPath>
<clipPath id="clip1_2214_3922">
<rect width="32" height="24" fill="white" transform="translate(-4)"/>
</clipPath>
</defs>
</svg>
