<svg width="24" height="24" viewBox="0 0 24 24" fill="none" xmlns="http://www.w3.org/2000/svg">
<g clip-path="url(#clip0_3053_1917)">
<g clip-path="url(#clip1_3053_1917)">
<path d="M36 0H-12V24H36V0Z" fill="#DA000C"/>
<path d="M36 0H-12V16.0781H36V0Z" fill="white"/>
<path d="M12.4285 10.9026H6.42853V15.0269H12.4285V10.9026Z" fill="black"/>
<path d="M9.54552 14.4238H5.88281L5.07092 14.9582V15.5244H9.54552" fill="#DA000C"/>
<path d="M9.54552 14.4238H5.88281L5.07092 14.9582V15.5244H9.54552" stroke="black" stroke-width="0.09375" stroke-linecap="square"/>
<path d="M8.0127 12.0547C8.54002 12.0547 8.9707 12.4943 8.9707 13.0361V14.4219H9.65918V9.17188H5.88281V14.4219H7.05469V13.0361C7.05469 12.5155 7.47796 12.0547 8.0127 12.0547Z" fill="#DA000C" stroke="black" stroke-width="0.09375" stroke-linecap="square"/>
<path d="M8.91109 5.62036H7.17453V8.80406H8.91109V5.62036Z" fill="black"/>
<path d="M8.90625 8.31055H7.38666V7.77148H6.27246V8.31055H5.5166V7.77148H5.06543V8.75H8.90625M5.5166 8.74646H8.79507V9.17188H5.5166V8.74646Z" fill="#DA000C"/>
<path d="M8.90625 8.31055H7.38666V7.77148H6.27246V8.31055H5.5166V7.77148H5.06543V8.75H8.90625M5.5166 8.74646H8.79507V9.17188H5.5166V8.74646Z" stroke="black" stroke-width="0.09375" stroke-linecap="square"/>
<path d="M6.81738 4.46387V7.77148H7.38666V6.86328C7.38666 6.52303 7.62686 6.24459 7.96289 6.22754C7.97373 6.22699 7.98414 6.22754 7.99512 6.22754C8.34634 6.22754 8.63086 6.51206 8.63086 6.86328V7.77148H9.17285V4.46387H6.81738Z" fill="#DA000C" stroke="black" stroke-width="0.09375" stroke-linecap="square"/>
<path d="M6.6123 4.01562V4.46387H9.35449V4.01562H6.6123Z" fill="#DA000C" stroke="black" stroke-width="0.09375" stroke-linecap="square"/>
<path d="M6.26074 3.15723V4.01562H9.55078V3.15723H9.04395V3.59375H8.43164V3.15723H7.49707V3.59375H6.88477V3.15723H6.26074Z" fill="#DA000C" stroke="black" stroke-width="0.09375" stroke-linecap="square"/>
<path d="M5.07092 14.9583H9.5625H5.07092Z" fill="#DA000C"/>
<path d="M5.07092 14.9583H9.5625" stroke="black" stroke-width="0.09375" stroke-linecap="square"/>
<path d="M12.4688 14.7002H9.42773L8.51074 15.1426V15.8018H12.4688" fill="#DA000C"/>
<path d="M12.4688 14.7002H9.42773L8.51074 15.1426V15.8018H12.4688" stroke="black" stroke-width="0.09375" stroke-linecap="square"/>
<path d="M8.5098 15.1416H12.5625H8.5098Z" fill="#DA000C"/>
<path d="M8.5098 15.1416H12.5625" stroke="black" stroke-width="0.09375"/>
<path d="M11.5715 10.9026H17.5715V15.0269H11.5715V10.9026Z" fill="black"/>
<path d="M14.4545 14.4238H18.1172L18.9291 14.9582V15.5244H14.4545" fill="#DA000C"/>
<path d="M14.4545 14.4238H18.1172L18.9291 14.9582V15.5244H14.4545" stroke="black" stroke-width="0.09375" stroke-linecap="square"/>
<path d="M15.9873 12.0547C15.46 12.0547 15.0293 12.4943 15.0293 13.0361V14.4219H14.3408V9.17188H18.1172V14.4219H16.9453V13.0361C16.9453 12.5155 16.522 12.0547 15.9873 12.0547Z" fill="#DA000C" stroke="black" stroke-width="0.09375" stroke-linecap="square"/>
<path d="M15.0889 5.62036H16.8255V8.80406H15.0889V5.62036Z" fill="black"/>
<path d="M15.0938 8.31055H16.6133V7.77148H17.7275V8.31055H18.4834V7.77148H18.9346V8.75H15.0938M18.4834 8.74646H15.2049V9.17188H18.4834V8.74646Z" fill="#DA000C"/>
<path d="M15.0938 8.31055H16.6133V7.77148H17.7275V8.31055H18.4834V7.77148H18.9346V8.75H15.0938M18.4834 8.74646H15.2049V9.17188H18.4834V8.74646Z" stroke="black" stroke-width="0.09375" stroke-linecap="square"/>
<path d="M17.1826 4.46387V7.77148H16.6133V6.86328C16.6133 6.52303 16.3731 6.24459 16.0371 6.22754C16.0263 6.22699 16.0159 6.22754 16.0049 6.22754C15.6537 6.22754 15.3691 6.51206 15.3691 6.86328V7.77148H14.8271V4.46387H17.1826Z" fill="#DA000C" stroke="black" stroke-width="0.09375" stroke-linecap="square"/>
<path d="M17.3877 4.01562V4.46387H14.6455V4.01562H17.3877Z" fill="#DA000C" stroke="black" stroke-width="0.09375" stroke-linecap="square"/>
<path d="M17.7393 3.15723V4.01562H14.4492V3.15723H14.9561V3.59375H15.5684V3.15723H16.5029V3.59375H17.1152V3.15723H17.7393Z" fill="#DA000C" stroke="black" stroke-width="0.09375" stroke-linecap="square"/>
<path d="M18.9291 14.9583H14.4375H18.9291Z" fill="#DA000C"/>
<path d="M18.9291 14.9583H14.4375" stroke="black" stroke-width="0.09375" stroke-linecap="square"/>
<path d="M11.5312 14.7002H14.5723L15.4893 15.1426V15.8018H11.5312" fill="#DA000C"/>
<path d="M11.5312 14.7002H14.5723L15.4893 15.1426V15.8018H11.5312" stroke="black" stroke-width="0.09375" stroke-linecap="square"/>
<path d="M15.4902 15.1416H11.4375H15.4902Z" fill="#DA000C"/>
<path d="M15.4902 15.1416H11.4375" stroke="black" stroke-width="0.09375"/>
<path d="M13.6216 14.0664C13.3728 14.1492 13.1479 14.2885 12.9214 14.4182C12.6308 14.5899 12.3489 14.777 12.0866 14.99C11.9943 15.0509 11.9058 15.1176 11.8345 15.2031C11.7384 15.2854 11.6409 15.3958 11.6593 15.5325C11.6642 15.5928 11.7412 15.4617 11.7919 15.4553C11.8802 15.4046 11.9872 15.3882 12.0865 15.4111C12.2056 15.2856 12.3593 15.2015 12.4919 15.0918C12.7736 14.8816 13.0766 14.7011 13.3849 14.533C13.4925 14.4778 13.6006 14.4218 13.7154 14.3828C13.6841 14.2773 13.6529 14.1719 13.6216 14.0664Z" fill="#F8D80E" stroke="black" stroke-width="0.072" stroke-linecap="round"/>
<path d="M12.4126 14.7563V15.1231V14.7563Z" fill="#F8D80E"/>
<path d="M12.4126 14.7563V15.1231" stroke="black" stroke-width="0.09375" stroke-linecap="round"/>
<path d="M12.6391 14.5964V14.9604V14.5964Z" fill="#F8D80E"/>
<path d="M12.6391 14.5964V14.9604" stroke="black" stroke-width="0.09375" stroke-linecap="round"/>
<path d="M12.8657 14.4553V14.817V14.4553Z" fill="#F8D80E"/>
<path d="M12.8657 14.4553V14.817" stroke="black" stroke-width="0.09375" stroke-linecap="round"/>
<path d="M13.0922 14.3162V14.6894V14.3162Z" fill="#F8D80E"/>
<path d="M13.0922 14.3162V14.6894" stroke="black" stroke-width="0.09375" stroke-linecap="round"/>
<path d="M10.3961 14.0781C10.3589 14.1816 10.3218 14.2852 10.2847 14.3887C10.8038 14.5856 11.2981 14.8461 11.7658 15.1443C11.9243 15.2522 12.0908 15.3568 12.2154 15.5049C12.2428 15.5809 12.1672 15.6445 12.0922 15.6215C12.0235 15.5982 11.9559 15.5717 11.8835 15.6211C11.7798 15.6683 11.686 15.8219 11.8436 15.8734C12.0606 16.0192 12.4137 15.9558 12.5181 15.7004C12.5726 15.5691 12.5761 15.4009 12.4705 15.2931C12.2771 15.0715 12.0207 14.9174 11.7747 14.7614C11.3351 14.497 10.8772 14.2576 10.3961 14.0781Z" fill="#F8D80E" stroke="black" stroke-width="0.072" stroke-linecap="round"/>
<path d="M11.8172 14.8169L11.7879 15.13L11.8172 14.8169Z" fill="#F8D80E"/>
<path d="M11.8172 14.8169L11.7879 15.13" stroke="black" stroke-width="0.09375" stroke-linecap="round"/>
<path d="M12.078 14.9766L11.9972 15.2831L12.078 14.9766Z" fill="#F8D80E"/>
<path d="M12.078 14.9766L11.9972 15.2831" stroke="black" stroke-width="0.09375" stroke-linecap="round"/>
<path d="M12.3567 15.1897L12.1871 15.4276L12.3567 15.1897Z" fill="#F8D80E"/>
<path d="M12.3567 15.1897L12.1871 15.4276" stroke="black" stroke-width="0.09375" stroke-linecap="round"/>
<path d="M12.4421 15.768L12.1974 15.6367L12.4421 15.768Z" fill="#F8D80E"/>
<path d="M12.4421 15.768L12.1974 15.6367" stroke="black" stroke-width="0.09375" stroke-linecap="round"/>
<path d="M12.5183 15.51L12.2375 15.5363L12.5183 15.51Z" fill="#F8D80E"/>
<path d="M12.5183 15.51L12.2375 15.5363" stroke="black" stroke-width="0.09375" stroke-linecap="round"/>
<path d="M12.1561 15.9165L12.1369 15.6697L12.1561 15.9165Z" fill="#F8D80E"/>
<path d="M12.1561 15.9165L12.1369 15.6697" stroke="black" stroke-width="0.09375" stroke-linecap="round"/>
<path d="M12.0533 15.6343L11.8214 15.8051L12.0533 15.6343Z" fill="#F8D80E"/>
<path d="M12.0533 15.6343L11.8214 15.8051" stroke="black" stroke-width="0.09375" stroke-linecap="round"/>
<path d="M10.9385 14.3389V14.6309V14.3389Z" fill="#F8D80E"/>
<path d="M10.9385 14.3389V14.6309" stroke="black" stroke-width="0.09375" stroke-linecap="round"/>
<path d="M11.5279 14.6489V14.9803V14.6489Z" fill="#F8D80E"/>
<path d="M11.5279 14.6489V14.9803" stroke="black" stroke-width="0.09375" stroke-linecap="round"/>
<path d="M11.2332 14.4941V14.8053V14.4941Z" fill="#F8D80E"/>
<path d="M11.2332 14.4941V14.8053" stroke="black" stroke-width="0.09375" stroke-linecap="round"/>
<path d="M10.1045 21.334V22.0869H10.5762V21.709H11.2178V22.0869H11.7246V21.334H10.1045ZM10.1045 22.3711V23.127H11.7246V22.3711H11.2178V22.749H10.5762V22.3711H10.1045Z" fill="#F8D80E" stroke="black" stroke-width="0.09375"/>
<path d="M12.1914 18.1548H11.7236V23.6031H12.1914V18.1548Z" fill="#F8D80E" stroke="black" stroke-width="0.09375"/>
<path d="M12.1914 18.6262H11.7236V23.3194H12.1914V18.6262Z" fill="#F8D80E" stroke="black" stroke-width="0.09375"/>
<path d="M11.9575 16.8193L12.9536 17.3994L11.9575 17.9766L10.9614 17.3994L11.9575 16.8193ZM10.6245 17.1914H10.3638V17.6074H10.6245L11.9575 18.3809L13.2905 17.6074H13.5513V17.1914H13.2905L11.9575 16.418L10.6245 17.1914Z" fill="#F8D80E" stroke="black" stroke-width="0.096"/>
<path d="M11.9385 15.4015C11.7117 15.4333 11.5423 15.6574 11.5547 15.8828C11.5556 16.2332 11.553 16.5837 11.556 16.9341C11.5681 17.1599 11.7653 17.3622 11.9943 17.3642C12.1804 17.3819 12.3673 17.2731 12.4453 17.1036C12.3916 17.0714 12.3379 17.0392 12.2842 17.007C12.2426 17.118 12.1226 17.1867 12.0059 17.174C11.8526 17.1783 11.7285 17.0292 11.7422 16.8801C11.7432 16.532 11.7404 16.1838 11.7436 15.8357C11.752 15.6936 11.8875 15.5774 12.0293 15.5919C12.0881 15.5751 12.1688 15.6554 12.2051 15.5861C12.2598 15.5083 12.1662 15.4476 12.1143 15.4045C12.0568 15.3966 11.9967 15.4037 11.9385 15.4015ZM12.4805 15.7677C12.4433 15.8376 12.3665 15.8792 12.3047 15.9159V16.6202C12.3672 16.6564 12.4297 16.6925 12.4922 16.7286C12.4915 16.4283 12.4937 16.1279 12.4911 15.8276C12.4882 15.8091 12.4904 15.7808 12.4805 15.7677Z" fill="#F8D80E" stroke="black" stroke-width="0.096"/>
<path d="M13.3248 3.59351H10.5753V8.58612H13.3248V3.59351Z" fill="black"/>
<path d="M10.3828 3.5957V7.77344H11.2559V6.53418C11.2559 6.24834 11.4389 5.85156 12 5.85156C12.5611 5.85156 12.7441 6.24834 12.7441 6.53418V7.77344H13.6172V3.5957H10.3828ZM11.8652 4.06445H12.1348V5.49414H11.8652V4.06445ZM11.0918 4.3457H11.3643V5.3916H11.0918V4.3457ZM12.6357 4.3457H12.9082V5.3916H12.6357V4.3457Z" fill="#DA000C" stroke="black" stroke-width="0.09375"/>
<path d="M10.0869 2.99512V3.58984H13.9131V2.99512H10.0869Z" fill="#DA000C" stroke="black" stroke-width="0.09375"/>
<path d="M9.72656 2.30371V2.99512H14.2734V2.30371H13.7021V2.68457H13.0576V2.30371H12.3223V2.68457H11.6777V2.30371H10.9424V2.68457H10.2979V2.30371H9.72656Z" fill="#DA000C" stroke="black" stroke-width="0.09375"/>
<path d="M8.88281 9.1709V9.60156H15.1172V9.1709H8.88281Z" fill="#DA000C" stroke="black" stroke-width="0.09375"/>
<path d="M8.62793 7.77051V9.1709H15.3721V7.77051H14.7334V8.30957H13.8838V7.77051H12.7441V8.30957H11.2559V7.77051H10.1162V8.30957H9.2666V7.77051H8.62793Z" fill="#DA000C" stroke="black" stroke-width="0.09375"/>
<path d="M9.43945 9.60156V14.6963H10.6436V12.7891C10.6436 11.8907 11.2432 11.4678 12 11.4678C12.7274 11.4678 13.3564 11.8907 13.3564 12.7891V14.6963H14.5605V9.60156H9.43945Z" fill="#DA000C" stroke="black" stroke-width="0.09375" stroke-linejoin="round"/>
</g>
</g>
<defs>
<clipPath id="clip0_3053_1917">
<rect width="24" height="24" rx="12" fill="white"/>
</clipPath>
<clipPath id="clip1_3053_1917">
<rect width="48" height="24" fill="white" transform="translate(-12)"/>
</clipPath>
</defs>
</svg>
