<svg width="24" height="24" viewBox="0 0 24 24" fill="none" xmlns="http://www.w3.org/2000/svg">
<g clip-path="url(#clip0_2214_3579)">
<g clip-path="url(#clip1_2214_3579)">
<path d="M0 0H32V24H0V0Z" fill="#00ABC2"/>
<path d="M17.29 13.3104C19.0741 13.3104 20.5204 11.8641 20.5204 10.08C20.5204 8.29591 19.0741 6.84961 17.29 6.84961C15.5059 6.84961 14.0596 8.29591 14.0596 10.08C14.0596 11.8641 15.5059 13.3104 17.29 13.3104Z" fill="#FFEC2D"/>
<path d="M17.2902 6.4104C17.4822 6.408 17.5542 6.288 17.5542 6.144C17.5542 5.952 17.2902 5.0376 17.2902 5.0376C17.2902 5.0376 17.0262 5.952 17.0262 6.144C17.0262 6.288 17.0982 6.4104 17.2902 6.4104Z" fill="#FFEC2D"/>
<path d="M20.9598 10.0802C20.9622 10.2722 21.0822 10.3442 21.2262 10.3442C21.4182 10.3442 22.3326 10.0802 22.3326 10.0802C22.3326 10.0802 21.4182 9.81616 21.2262 9.81616C21.0822 9.81616 20.9598 9.88816 20.9598 10.0802Z" fill="#FFEC2D"/>
<path d="M17.2902 13.7498C17.0982 13.7522 17.0262 13.8722 17.0262 14.0162C17.0262 14.2082 17.2902 15.1226 17.2902 15.1226C17.2902 15.1226 17.5542 14.2082 17.5542 14.0162C17.5542 13.8722 17.4822 13.7498 17.2902 13.7498Z" fill="#FFEC2D"/>
<path d="M13.6206 10.0802C13.6182 9.88824 13.4982 9.81624 13.3542 9.81624C13.1622 9.81624 12.2478 10.0802 12.2478 10.0802C12.2478 10.0802 13.1622 10.3442 13.3542 10.3442C13.4982 10.3442 13.6206 10.2722 13.6206 10.0802Z" fill="#FFEC2D"/>
<path d="M18.6944 6.68964C18.8728 6.7609 18.9852 6.67759 19.0403 6.54455C19.1138 6.36716 19.2198 5.42134 19.2198 5.42134C19.2198 5.42134 18.626 6.16511 18.5525 6.34249C18.4974 6.47553 18.5171 6.61617 18.6944 6.68964Z" fill="#FFEC2D"/>
<path d="M20.6805 11.4842C20.6092 11.6625 20.6925 11.7749 20.8256 11.83C21.003 11.9035 21.9488 12.0095 21.9488 12.0095C21.9488 12.0095 21.205 11.4157 21.0276 11.3422C20.8946 11.2871 20.7539 11.3068 20.6805 11.4842Z" fill="#FFEC2D"/>
<path d="M15.8859 13.4703C15.7076 13.399 15.5951 13.4823 15.54 13.6154C15.4665 13.7927 15.3605 14.7386 15.3605 14.7386C15.3605 14.7386 15.9544 13.9948 16.0278 13.8174C16.0829 13.6844 16.0633 13.5437 15.8859 13.4703Z" fill="#FFEC2D"/>
<path d="M13.8999 8.67573C13.9712 8.49743 13.8879 8.38499 13.7548 8.32988C13.5774 8.2564 12.6316 8.15038 12.6316 8.15038C12.6316 8.15038 13.3754 8.74421 13.5528 8.81769C13.6858 8.87279 13.8264 8.85312 13.8999 8.67573Z" fill="#FFEC2D"/>
<path d="M19.8848 7.48527C20.0223 7.61934 20.1581 7.5854 20.2599 7.48358C20.3957 7.34781 20.8556 6.51456 20.8556 6.51456C20.8556 6.51456 20.0223 6.97446 19.8865 7.11022C19.7847 7.21205 19.7491 7.34951 19.8848 7.48527Z" fill="#FFEC2D"/>
<path d="M19.8848 12.6749C19.7508 12.8124 19.7847 12.9482 19.8865 13.05C20.0223 13.1858 20.8556 13.6457 20.8556 13.6457C20.8556 13.6457 20.3957 12.8124 20.2599 12.6766C20.1581 12.5748 20.0206 12.5392 19.8848 12.6749Z" fill="#FFEC2D"/>
<path d="M14.6952 12.6749C14.5578 12.5408 14.422 12.5748 14.3202 12.6766C14.1844 12.8123 13.7245 13.6456 13.7245 13.6456C13.7245 13.6456 14.5578 13.1857 14.6935 13.0499C14.7954 12.9481 14.831 12.8106 14.6952 12.6749Z" fill="#FFEC2D"/>
<path d="M14.6952 7.48521C14.8293 7.34775 14.7954 7.21199 14.6935 7.11016C14.5578 6.9744 13.7245 6.5145 13.7245 6.5145C13.7245 6.5145 14.1844 7.34775 14.3202 7.48351C14.422 7.58534 14.5595 7.62098 14.6952 7.48521Z" fill="#FFEC2D"/>
<path d="M20.6804 8.67575C20.7561 8.85221 20.8945 8.87281 21.0275 8.8177C21.2049 8.74423 21.9487 8.1504 21.9487 8.1504C21.9487 8.1504 21.0029 8.25642 20.8255 8.3299C20.6924 8.385 20.6069 8.49836 20.6804 8.67575Z" fill="#FFEC2D"/>
<path d="M18.6944 13.4704C18.518 13.5461 18.4974 13.6845 18.5525 13.8176C18.6259 13.995 19.2198 14.7387 19.2198 14.7387C19.2198 14.7387 19.1138 13.7929 19.0403 13.6155C18.9852 13.4825 18.8718 13.3969 18.6944 13.4704Z" fill="#FFEC2D"/>
<path d="M13.8999 11.4842C13.8242 11.3077 13.6858 11.2871 13.5527 11.3422C13.3753 11.4157 12.6316 12.0095 12.6316 12.0095C12.6316 12.0095 13.5774 11.9035 13.7548 11.83C13.8878 11.7749 13.9734 11.6616 13.8999 11.4842Z" fill="#FFEC2D"/>
<path d="M15.8858 6.68973C16.0623 6.61404 16.0829 6.47562 16.0278 6.34258C15.9543 6.1652 15.3605 5.42143 15.3605 5.42143C15.3605 5.42143 15.4665 6.36726 15.54 6.54464C15.5951 6.67768 15.7084 6.76321 15.8858 6.68973Z" fill="#FFEC2D"/>
<path d="M18.0091 6.48166C18.1979 6.51693 18.292 6.41336 18.3202 6.27215C18.3578 6.08387 18.2781 5.13547 18.2781 5.13547C18.2781 5.13547 17.8401 5.98041 17.8024 6.16869C17.7742 6.3099 17.8208 6.44404 18.0091 6.48166Z" fill="#FFEC2D"/>
<path d="M20.8885 10.799C20.8532 10.9877 20.9568 11.0818 21.098 11.1101C21.2862 11.1477 22.2346 11.068 22.2346 11.068C22.2346 11.068 21.3897 10.6299 21.2014 10.5923C21.0602 10.5641 20.9261 10.6107 20.8885 10.799Z" fill="#FFEC2D"/>
<path d="M16.571 13.6785C16.3822 13.6432 16.2881 13.7468 16.2599 13.888C16.2223 14.0763 16.302 15.0247 16.302 15.0247C16.302 15.0247 16.74 14.1797 16.7776 13.9915C16.8059 13.8503 16.7592 13.7161 16.571 13.6785Z" fill="#FFEC2D"/>
<path d="M13.6916 9.36094C13.7268 9.17219 13.6233 9.07808 13.4821 9.04986C13.2938 9.01224 12.3454 9.09195 12.3454 9.09195C12.3454 9.09195 13.1903 9.53 13.3786 9.56762C13.5198 9.59584 13.6539 9.54922 13.6916 9.36094Z" fill="#FFEC2D"/>
<path d="M19.3314 7.03056C19.4923 7.13537 19.6188 7.07571 19.6989 6.95605C19.8058 6.7965 20.0951 5.88978 20.0951 5.88978C20.0951 5.88978 19.367 6.50277 19.2602 6.66232C19.1801 6.78198 19.1718 6.92375 19.3314 7.03056Z" fill="#FFEC2D"/>
<path d="M20.3394 12.1212C20.2346 12.2821 20.2943 12.4087 20.4139 12.4888C20.5735 12.5956 21.4802 12.8849 21.4802 12.8849C21.4802 12.8849 20.8672 12.1569 20.7077 12.05C20.588 11.9699 20.4462 11.9617 20.3394 12.1212Z" fill="#FFEC2D"/>
<path d="M15.2486 13.1294C15.0878 13.0245 14.9612 13.0842 14.8811 13.2039C14.7743 13.3634 14.485 14.2701 14.485 14.2701C14.485 14.2701 15.213 13.6571 15.3198 13.4976C15.3999 13.3779 15.4082 13.2362 15.2486 13.1294Z" fill="#FFEC2D"/>
<path d="M14.2407 8.03869C14.3455 7.8778 14.2859 7.75122 14.1662 7.67111C14.0066 7.5643 13.0999 7.275 13.0999 7.275C13.0999 7.275 13.7129 8.00306 13.8725 8.10987C13.9921 8.18998 14.1339 8.19824 14.2407 8.03869Z" fill="#FFEC2D"/>
<path d="M20.3429 8.04383C20.4515 8.20223 20.5912 8.19555 20.711 8.11565C20.8708 8.00912 21.485 7.28214 21.485 7.28214C21.485 7.28214 20.5778 7.56985 20.4181 7.67638C20.2983 7.75628 20.2364 7.88409 20.3429 8.04383Z" fill="#FFEC2D"/>
<path d="M19.326 13.133C19.1676 13.2416 19.1743 13.3813 19.2542 13.5011C19.3608 13.6609 20.0877 14.2751 20.0877 14.2751C20.0877 14.2751 19.8 13.3679 19.6935 13.2082C19.6136 13.0884 19.4858 13.0265 19.326 13.133Z" fill="#FFEC2D"/>
<path d="M14.2371 12.1161C14.1286 11.9577 13.9888 11.9644 13.869 12.0443C13.7092 12.1508 13.095 12.8778 13.095 12.8778C13.095 12.8778 14.0022 12.5901 14.1619 12.4835C14.2817 12.4036 14.3436 12.2758 14.2371 12.1161Z" fill="#FFEC2D"/>
<path d="M15.254 7.02712C15.4124 6.9186 15.4057 6.77881 15.3258 6.65901C15.2193 6.49928 14.4923 5.88502 14.4923 5.88502C14.4923 5.88502 14.78 6.79223 14.8865 6.95197C14.9664 7.07177 15.0942 7.13365 15.254 7.02712Z" fill="#FFEC2D"/>
<path d="M20.8897 9.36741C20.9294 9.55529 21.0611 9.60261 21.2023 9.57464C21.3907 9.53735 22.2364 9.10077 22.2364 9.10077C22.2364 9.10077 21.2881 9.0194 21.0998 9.0567C20.9585 9.08467 20.8524 9.17907 20.8897 9.36741Z" fill="#FFEC2D"/>
<path d="M18.0028 13.6797C17.8149 13.7194 17.7676 13.8511 17.7956 13.9923C17.8329 14.1807 18.2695 15.0264 18.2695 15.0264C18.2695 15.0264 18.3508 14.0781 18.3135 13.8898C18.2856 13.7485 18.1912 13.6424 18.0028 13.6797Z" fill="#FFEC2D"/>
<path d="M13.6903 10.7927C13.6507 10.6049 13.519 10.5575 13.3777 10.5855C13.1894 10.6228 12.3437 11.0594 12.3437 11.0594C12.3437 11.0594 13.2919 11.1408 13.4803 11.1035C13.6215 11.0755 13.7276 10.9811 13.6903 10.7927Z" fill="#FFEC2D"/>
<path d="M16.5773 6.48044C16.7652 6.44079 16.8125 6.30909 16.7845 6.16783C16.7472 5.97949 16.3107 5.13378 16.3107 5.13378C16.3107 5.13378 16.2293 6.08204 16.2666 6.27039C16.2946 6.41164 16.389 6.51773 16.5773 6.48044Z" fill="#FFEC2D"/>
<path d="M17.1793 15.7201C17.0953 15.8713 17.0449 16.0465 16.9393 16.1833C16.6129 15.8881 16.1425 15.8953 15.7297 15.8785C15.3889 15.8593 15.0193 15.8281 14.7553 15.5857C14.4793 15.3577 14.2513 15.0649 13.9441 14.8801C13.6553 14.8181 13.384 14.6926 13.1497 14.5129C12.6649 14.1169 12.3865 13.5289 11.9113 13.1209C11.8225 13.0345 11.7145 12.9649 11.6137 12.8905C11.5177 12.9145 11.5609 13.1209 11.4433 13.0153C11.3785 12.9673 11.2177 12.9649 11.2033 13.0297C11.3473 13.2217 11.4937 13.4377 11.5153 13.6825C11.4145 13.6921 11.2393 13.6609 11.1913 13.6969C11.3231 13.8948 11.4888 14.0679 11.6809 14.2081C11.5897 14.2225 11.4097 14.2153 11.3737 14.2513C11.5534 14.4233 11.7752 14.545 12.0169 14.6041C12.0649 14.6713 11.9425 14.8009 12.0481 14.8585C12.1081 14.8825 12.3097 14.9257 12.1705 14.9953C12.0745 15.0577 12.1105 15.2089 12.2329 15.2041C12.3097 15.2449 12.4825 15.2521 12.4969 15.3241C12.4273 15.3913 12.2161 15.4729 12.3961 15.5401C12.5658 15.6363 12.7557 15.6913 12.9505 15.7009C12.8545 15.7825 12.7345 15.8281 12.6361 15.9049C13.0801 16.1665 13.5721 16.3369 14.0617 16.5049C14.2537 16.5673 14.4529 16.6273 14.6545 16.6657C14.0689 16.6321 13.5025 16.4593 12.9697 16.2217C12.6945 16.1001 12.4161 15.9865 12.1345 15.8809C12.2569 15.8161 12.4009 15.7993 12.5305 15.7441C12.2617 15.6913 11.9713 15.6721 11.7385 15.5281C11.7721 15.4609 11.9065 15.4585 11.9833 15.4249C12.1273 15.3913 12.2137 15.3529 12.0145 15.3385C11.8129 15.2833 11.5825 15.3073 11.4025 15.1873C11.4145 15.1153 11.6017 15.1393 11.6761 15.1081C11.7721 15.0913 11.8777 15.0769 11.9545 15.0121C11.6425 14.8849 11.2345 14.9761 10.9897 14.7001C10.9345 14.5945 11.1649 14.6785 11.2297 14.6617C11.3977 14.6617 11.5777 14.7145 11.7385 14.6473C11.2825 14.4481 10.7953 14.2633 10.4497 13.8937C10.4113 13.8337 10.2961 13.6705 10.3897 13.6513C10.6585 13.6873 10.8529 13.9801 11.1433 13.9345C11.1817 13.8841 10.9753 13.8001 10.9225 13.7257C10.4882 13.3769 10.1095 12.9642 9.79928 12.5017C9.78008 12.3409 10.0273 12.3169 10.0921 12.4393C10.4137 12.7513 10.7041 13.1113 11.1049 13.3225C11.2489 13.3921 11.0233 13.2409 10.9945 13.1857C10.6133 12.763 10.2838 12.2965 10.0129 11.7961C9.96488 11.7049 9.89048 11.5393 10.0297 11.4913C10.1665 11.4217 10.3057 11.5153 10.3753 11.6353C10.6465 11.9785 10.8481 12.3865 11.1865 12.6721C10.8985 12.1129 10.5889 11.5201 10.5817 10.8769C10.5889 10.7521 10.5961 10.5649 10.7665 10.5673C10.9105 10.5457 10.8865 10.7281 10.9345 10.8145C11.0737 11.2897 11.1337 11.8033 11.4145 12.2209C11.3545 11.8705 11.2609 11.5081 11.3233 11.1505C11.3377 11.0305 11.4673 10.9969 11.5561 11.0689C11.6257 11.2369 11.6401 11.4505 11.7025 11.6329C12.0765 12.8752 12.8641 13.9524 13.9345 14.6857C14.8111 15.2851 15.8337 15.6359 16.8937 15.7009C16.9897 15.7089 17.0849 15.7145 17.1793 15.7177M20.4529 17.9041C20.2801 18.0097 20.1457 17.8225 20.0017 17.7673C19.8961 17.8249 19.8865 18.0121 19.7905 18.1033C19.6753 18.2353 19.5313 18.0649 19.5433 17.9353C19.4041 18.0529 19.3345 18.3193 19.1113 18.2809C19.0033 18.1945 18.9241 18.0121 18.8425 18.2209C18.7777 18.3217 18.6025 18.4657 18.5089 18.3121C18.4801 18.1777 18.4129 18.0193 18.3409 18.2329C18.2881 18.3865 18.1249 18.4969 17.9713 18.4297C17.8849 18.3601 18.0385 18.1009 17.9305 18.1177C17.7673 18.2281 17.6713 18.4945 17.4433 18.4729C17.3545 18.3769 17.4985 18.2065 17.4001 18.0961C17.2873 18.2425 17.1601 18.4585 16.9609 18.4729C16.8649 18.3961 16.9657 18.1729 16.9033 18.1417C16.7017 18.2617 16.4857 18.4801 16.2313 18.4129C16.3297 18.0289 16.7473 17.8969 17.0953 17.8681C17.6977 17.7937 18.3313 17.9305 18.9121 17.7121C19.0057 17.6545 19.2313 17.5753 19.1521 17.4433C19.0801 17.3377 19.3369 17.3785 19.3609 17.2561C19.3465 17.1025 19.4809 17.1241 19.6105 17.1121C20.1961 17.0857 20.7745 17.2081 21.3577 17.2297C21.4009 17.5129 21.0865 17.7121 20.8297 17.6257C20.7097 17.6449 20.5297 17.3473 20.5657 17.5633C20.5417 17.6785 20.5561 17.8273 20.4529 17.9041ZM15.4753 17.3233C15.6097 17.4457 15.7057 17.2993 15.8329 17.2441C16.2483 17.0814 16.6385 16.8609 16.9921 16.5889C17.2129 16.4065 17.4049 16.1689 17.7025 16.1089C18.2833 15.9337 18.9001 15.9553 19.4809 15.7921C19.9249 15.1873 20.6761 14.9689 21.3073 14.6209C21.4489 14.5777 21.5041 14.4601 21.5473 14.3329C21.7873 13.9513 22.1161 13.6153 22.5049 13.3849C22.6882 13.2761 22.9046 13.2369 23.1145 13.2745C23.0864 13.5196 22.9694 13.7458 22.7857 13.9105C22.9273 13.9081 23.0497 13.8193 23.1889 13.8241C23.2369 14.0785 22.9633 14.2105 22.8169 14.3689C22.8985 14.3881 23.2105 14.4121 23.0401 14.4937C22.8241 14.6425 22.5769 14.7457 22.3777 14.9209C22.5625 14.9545 22.5841 14.9929 22.3969 15.0601C22.2937 15.1273 22.0993 15.1513 22.0801 15.2857C22.2193 15.3721 22.0177 15.4537 21.9385 15.4825C21.7897 15.5185 21.6313 15.5833 21.8305 15.6985C21.7561 15.8113 21.5929 15.8353 21.4609 15.8233C21.5017 15.9529 21.5593 16.0969 21.3937 16.1545C21.022 16.4478 20.5771 16.6337 20.1073 16.6921C20.6953 16.7353 21.3025 16.6273 21.8041 16.3081C21.8713 16.2289 22.2193 16.1425 22.0249 16.0777C21.9337 16.0393 21.7369 15.9961 21.7225 15.9265C21.9961 15.7585 22.3393 15.8185 22.6321 15.7201C22.6393 15.6241 22.4089 15.6505 22.3225 15.6289C22.1185 15.6121 22.1305 15.5593 22.3273 15.5401C22.5769 15.4729 22.8601 15.4609 23.0713 15.3001C22.9009 15.2185 22.6849 15.2881 22.5025 15.2233C22.8121 15.0889 23.1769 15.0745 23.4553 14.8705C23.5825 14.7289 23.2921 14.7745 23.2081 14.7769C23.0377 14.8081 22.9585 14.7241 23.1529 14.6545C23.4865 14.4073 23.9065 14.2489 24.1417 13.8937C24.1969 13.8145 24.2713 13.5745 24.0937 13.6585C23.8633 13.7377 23.6593 13.9969 23.3929 13.9177C23.9161 13.5121 24.4105 13.0537 24.7681 12.4945C24.7873 12.3313 24.5329 12.3145 24.4681 12.4417C24.1321 12.7633 23.8297 13.1449 23.4001 13.3489C23.8049 12.9439 24.1566 12.4891 24.4465 11.9953C24.5113 11.8513 24.6817 11.6761 24.5905 11.5153C24.4393 11.3905 24.2521 11.5057 24.1753 11.6521C23.9137 11.9929 23.7169 12.3889 23.3833 12.6673C23.6737 12.1081 23.9785 11.5105 23.9833 10.8673C23.9833 10.7329 23.9593 10.5361 23.7769 10.5625C23.6329 10.5865 23.6689 10.8025 23.6089 10.9105C23.4793 11.3521 23.4169 11.8297 23.1529 12.2137C23.2129 11.8561 23.3161 11.4817 23.2369 11.1217C23.1985 10.9585 22.9369 11.0281 22.9729 11.1889C22.6609 12.7705 21.5977 14.1529 20.2129 14.9521C19.5769 15.3121 18.8689 15.5425 18.1441 15.6481C17.9521 15.6889 17.7409 15.6649 17.5561 15.7321C17.1049 16.0753 16.8337 16.6537 16.2649 16.8337C16.0081 16.9609 15.6769 16.9873 15.4945 17.2225C15.4801 17.254 15.4735 17.2886 15.4753 17.3233ZM16.7161 17.0761C16.6297 17.0793 16.5449 17.0929 16.4617 17.1169C16.3489 17.1337 16.2409 17.1721 16.1305 17.1889L16.0849 17.1985L16.0105 17.2057C16.0201 17.2459 16.0201 17.2878 16.0105 17.3281C16.0027 17.3462 15.9912 17.3625 15.9769 17.3761C15.9625 17.3953 15.9449 17.4097 15.9241 17.4193C15.9046 17.4288 15.8834 17.4346 15.8617 17.4361C15.8409 17.4377 15.8193 17.4345 15.7969 17.4265C15.7761 17.4201 15.7561 17.4081 15.7369 17.3905L15.6697 17.4025H15.6073L15.5401 17.3785L15.4777 17.3473C15.3961 17.3953 15.3049 17.4409 15.2545 17.5249C15.231 17.5633 15.2178 17.6071 15.2161 17.6521C15.2129 17.7097 15.2241 17.7657 15.2497 17.8201C15.2593 17.8345 15.2665 17.7649 15.2929 17.7553C15.3409 17.7169 15.3945 17.6905 15.4537 17.6761C15.5017 17.6521 15.4945 17.6761 15.4753 17.7145C15.4705 17.7361 15.4441 17.8105 15.4801 17.7721C15.646 17.7101 15.8213 17.6768 15.9985 17.6737C16.2529 17.6497 16.5073 17.6377 16.7617 17.6377L17.4817 17.6521C17.5969 17.6569 17.7121 17.6809 17.8249 17.6617C17.8513 17.6545 17.8945 17.6545 17.9113 17.6377C17.8585 17.6089 17.7985 17.6065 17.7433 17.5993H17.2849C17.1577 17.5873 17.0257 17.5849 16.9057 17.5369C16.8721 17.5249 16.8433 17.4937 16.8121 17.5273C16.7664 17.5436 16.7188 17.5541 16.6705 17.5585C16.5857 17.5617 16.5041 17.5473 16.4257 17.5153C16.4833 17.4401 16.5449 17.3681 16.6105 17.2993L16.4617 17.2681C16.5481 17.2041 16.6329 17.1401 16.7161 17.0761Z" fill="#FFEC2D"/>
<path d="M15.8401 17.3593C15.8719 17.3593 15.8977 17.3336 15.8977 17.3017C15.8977 17.2699 15.8719 17.2441 15.8401 17.2441C15.8083 17.2441 15.7825 17.2699 15.7825 17.3017C15.7825 17.3336 15.8083 17.3593 15.8401 17.3593Z" fill="#FFEC2D"/>
<path d="M15.8353 17.3161C15.8485 17.3161 15.8593 17.3053 15.8593 17.2921C15.8593 17.2788 15.8485 17.2681 15.8353 17.2681C15.822 17.2681 15.8113 17.2788 15.8113 17.2921C15.8113 17.3053 15.822 17.3161 15.8353 17.3161Z" fill="#FFEC2D" stroke="#FFEC2D" stroke-width="0.0096"/>
<path d="M2.88006 1.75207C2.88006 1.75207 2.64966 1.55527 2.57046 1.65367C2.44566 1.80967 2.95926 2.58967 2.95926 2.86327C2.95926 3.31447 2.65686 3.43687 2.28726 3.49927C2.03766 3.54247 1.63206 3.48247 1.63206 3.48247C1.70886 3.37927 1.75926 3.34807 1.88646 3.34087C1.74246 3.26887 1.59846 3.10567 1.59846 2.85367C1.59846 2.46727 1.75686 2.30647 1.75686 1.86967C1.75686 1.63207 1.56006 1.32007 1.56006 1.32007C1.91046 1.35607 2.08326 1.68007 1.98486 1.93927C2.01187 1.94464 2.03978 1.94329 2.06615 1.93534C2.09252 1.92739 2.11652 1.91308 2.13606 1.89367C2.16006 1.96567 2.12166 2.04967 2.06646 2.12167C2.10966 2.14567 2.14326 2.13127 2.21046 2.11687C2.20566 2.18887 2.16246 2.27047 2.05206 2.34487C2.36886 2.26327 2.56086 2.48167 2.56086 2.71207C2.56086 2.88727 2.44086 3.01207 2.32086 3.01207C2.28246 3.01207 2.22486 2.99527 2.19366 2.97127C2.16966 3.01927 2.18406 3.08407 2.20566 3.13207C2.11926 3.10807 2.06166 3.05527 2.10246 2.94727C2.03526 2.94247 1.98326 2.91847 1.94646 2.87527C1.98326 2.82727 2.03526 2.80327 2.10246 2.80327C2.05446 2.70247 2.10966 2.64727 2.18886 2.60167C2.18886 2.60167 2.13846 2.80327 2.26566 2.80327C2.32326 2.80327 2.37606 2.78647 2.37606 2.70007C2.37606 2.62567 2.31126 2.52247 2.16006 2.52967C2.00886 2.53687 1.88886 2.63287 1.88886 2.87287C1.88886 3.09367 2.06886 3.20407 2.30406 3.20887C2.51526 3.21847 2.67606 3.10327 2.67606 2.88487C2.67606 2.59207 2.25606 1.92967 2.25606 1.67047C2.25606 1.47607 2.42886 1.36567 2.60166 1.36567C2.82246 1.36567 3.00966 1.58647 3.00966 1.58647L2.88006 1.74967V1.75207Z" fill="#FFEC2D"/>
<path d="M2.92806 7.0104C2.92806 7.4976 2.49126 7.7472 2.14806 7.7472C1.68726 7.7472 1.44006 7.4712 1.44006 7.1088C1.44006 6.9048 1.47846 6.7752 1.57206 6.5808L2.63286 4.38C2.67129 4.28743 2.68772 4.1872 2.68086 4.0872C2.68086 3.8904 2.48886 3.7296 2.28966 3.7272C2.10726 3.72 1.90566 3.8952 1.90566 4.0944C1.90566 4.3368 2.03286 4.4448 2.16246 4.4448C2.32086 4.4448 2.38326 4.38 2.38326 4.2672C2.38006 4.192 2.34966 4.1552 2.29206 4.1568C2.15526 4.1568 2.19606 4.3392 2.19606 4.3392C2.178 4.33586 2.1609 4.32857 2.14597 4.31786C2.13105 4.30715 2.11868 4.29327 2.10974 4.27722C2.1008 4.26118 2.09551 4.24335 2.09425 4.22503C2.09299 4.2067 2.0958 4.18832 2.10246 4.1712C2.05096 4.16001 2.00457 4.13218 1.97046 4.092C2.00566 4.0552 2.04966 4.0312 2.10246 4.02C2.07126 3.9144 2.11446 3.864 2.20566 3.84C2.1899 3.87625 2.18571 3.91648 2.19366 3.9552C2.33766 3.912 2.56086 3.9792 2.56086 4.2288C2.56086 4.4784 2.38806 4.6872 2.06406 4.6368C2.14086 4.6728 2.17926 4.7472 2.18886 4.8312C2.12886 4.8072 2.06406 4.8072 2.06406 4.8072C2.10246 4.872 2.15526 4.9272 2.15286 5.0616C2.09286 5.0328 2.03526 4.9824 1.96086 5.0136C2.08086 5.2536 1.93206 5.58 1.55286 5.6568C1.69046 5.492 1.75926 5.3216 1.75926 5.1456C1.75926 4.5816 1.60326 4.488 1.60326 4.0944C1.60573 4.00312 1.62987 3.91373 1.67369 3.83361C1.7175 3.75349 1.77974 3.68493 1.85526 3.6336V3.6408C1.80882 3.63126 1.76492 3.61201 1.72645 3.58429C1.68798 3.55658 1.65582 3.52104 1.63206 3.48C1.89942 3.40631 2.18205 3.40881 2.44806 3.4872C2.53704 3.49979 2.62206 3.53221 2.69683 3.58205C2.7716 3.6319 2.83422 3.69791 2.88006 3.7752C2.92798 3.88454 2.95272 4.00262 2.95272 4.122C2.95272 4.24138 2.92798 4.35946 2.88006 4.4688C2.72886 4.7808 2.02326 6.2832 1.80246 6.7536C1.75446 6.8544 1.72966 6.9616 1.72806 7.0752C1.72806 7.3632 1.99206 7.464 2.14086 7.464C2.32086 7.464 2.50566 7.3272 2.50566 7.1568C2.50566 7.0488 2.44566 6.9816 2.36166 6.9816C2.15766 6.9816 2.16966 7.1544 2.21046 7.2648C2.08326 7.2072 2.01126 7.1064 2.03046 7.0008C1.95171 6.98758 1.88024 6.94674 1.82886 6.8856C1.87686 6.8232 1.93926 6.7752 2.03046 6.7728C1.98966 6.6072 2.10246 6.5376 2.21046 6.4992C2.17686 6.6192 2.15286 6.7608 2.36166 6.7608C2.51286 6.7608 2.63046 6.7848 2.70006 6.8856L2.71686 6.2376C2.72646 6.0432 2.45766 6.0456 2.28486 6.1056C2.34966 5.8824 2.48166 5.76 2.78886 5.7912C2.7418 5.7731 2.70163 5.74064 2.67406 5.69842C2.64649 5.6562 2.63291 5.60637 2.63526 5.556C2.63526 5.3736 2.78406 5.172 2.88006 5.112L2.92806 7.008V7.0104Z" fill="#FFEC2D"/>
<path d="M2.92806 8.46958C2.92806 7.98238 2.49126 7.73278 2.14806 7.73278C1.68726 7.73278 1.44006 8.00878 1.44006 8.37118C1.44006 8.57518 1.47846 8.70478 1.57206 8.89918L2.63286 11.1C2.67129 11.1926 2.68772 11.2928 2.68086 11.3928C2.68086 11.5896 2.48886 11.7504 2.28966 11.7528C2.10726 11.76 1.90566 11.5848 1.90566 11.3856C1.90566 11.1432 2.03286 11.0352 2.16246 11.0352C2.32086 11.0352 2.38326 11.1 2.38326 11.2128C2.38006 11.288 2.34966 11.3248 2.29206 11.3232C2.15526 11.3232 2.19606 11.1408 2.19606 11.1408C2.178 11.1441 2.1609 11.1514 2.14597 11.1621C2.13105 11.1728 2.11868 11.1867 2.10974 11.2028C2.1008 11.2188 2.09551 11.2366 2.09425 11.255C2.09299 11.2733 2.0958 11.2917 2.10246 11.3088C2.05096 11.32 2.00457 11.3478 1.97046 11.388C2.00566 11.4248 2.04966 11.4488 2.10246 11.46C2.07126 11.5656 2.11446 11.616 2.20566 11.64C2.1899 11.6037 2.18571 11.5635 2.19366 11.5248C2.33766 11.568 2.56086 11.5008 2.56086 11.2512C2.56086 11.0016 2.38806 10.7928 2.06406 10.8432C2.14086 10.8072 2.17926 10.7328 2.18886 10.6488C2.12886 10.6728 2.06406 10.6728 2.06406 10.6728C2.10246 10.608 2.15526 10.5528 2.15286 10.4184C2.09286 10.4472 2.03526 10.4976 1.96086 10.4664C2.08086 10.2264 1.93206 9.89998 1.55286 9.82318C1.69046 9.98798 1.75926 10.1584 1.75926 10.3344C1.75926 10.8984 1.60326 10.992 1.60326 11.3856C1.60573 11.4769 1.62987 11.5663 1.67369 11.6464C1.7175 11.7265 1.77974 11.795 1.85526 11.8464V11.8392C1.80882 11.8487 1.76492 11.868 1.72645 11.8957C1.68798 11.9234 1.65582 11.9589 1.63206 12C1.89942 12.0737 2.18205 12.0712 2.44806 11.9928C2.53704 11.9802 2.62206 11.9478 2.69683 11.8979C2.7716 11.8481 2.83422 11.7821 2.88006 11.7048C2.92798 11.5954 2.95272 11.4774 2.95272 11.358C2.95272 11.2386 2.92798 11.1205 2.88006 11.0112C2.72886 10.6992 2.02326 9.19678 1.80246 8.72638C1.75446 8.62558 1.72966 8.51838 1.72806 8.40478C1.72806 8.11678 1.99206 8.01598 2.14086 8.01598C2.32086 8.01598 2.50566 8.15278 2.50566 8.32318C2.50566 8.43118 2.44566 8.49838 2.36166 8.49838C2.15766 8.49838 2.16966 8.32558 2.21046 8.21518C2.08326 8.27278 2.01126 8.37358 2.03046 8.47918C1.95171 8.4924 1.88024 8.53324 1.82886 8.59438C1.87686 8.65678 1.93926 8.70478 2.03046 8.70718C1.98966 8.87278 2.10246 8.94238 2.21046 8.98078C2.17686 8.86078 2.15286 8.71918 2.36166 8.71918C2.51286 8.71918 2.63046 8.69518 2.70006 8.59438L2.71686 9.24238C2.72646 9.43678 2.45766 9.43438 2.28486 9.37438C2.34966 9.59758 2.48166 9.71998 2.78886 9.68878C2.7418 9.70688 2.70163 9.73934 2.67406 9.78156C2.64649 9.82378 2.63291 9.87361 2.63526 9.92398C2.63526 10.1064 2.78406 10.308 2.88006 10.368L2.92806 8.47198V8.46958Z" fill="#FFEC2D"/>
<path d="M2.88001 1.75207C2.88001 1.75207 3.11041 1.55527 3.18961 1.65367C3.31441 1.80967 2.80081 2.58967 2.80081 2.86327C2.80081 3.31447 3.10321 3.43687 3.47281 3.49927C3.72241 3.54247 4.12801 3.48247 4.12801 3.48247C4.05121 3.37927 4.00081 3.34807 3.87361 3.34087C4.01761 3.26887 4.16161 3.10567 4.16161 2.85367C4.16161 2.46727 4.00321 2.30647 4.00321 1.86967C4.00321 1.63207 4.20001 1.32007 4.20001 1.32007C3.84961 1.35607 3.67681 1.68007 3.77521 1.93927C3.7482 1.94464 3.72029 1.94329 3.69392 1.93534C3.66755 1.92739 3.64355 1.91308 3.62401 1.89367C3.60001 1.96567 3.63841 2.04967 3.69361 2.12167C3.65041 2.14567 3.61681 2.13127 3.54961 2.11687C3.55441 2.18887 3.59761 2.27047 3.70801 2.34487C3.39121 2.26327 3.19921 2.48167 3.19921 2.71207C3.19921 2.88727 3.31921 3.01207 3.43921 3.01207C3.47761 3.01207 3.53521 2.99527 3.56641 2.97127C3.59041 3.01927 3.57601 3.08407 3.55441 3.13207C3.64081 3.10807 3.69841 3.05527 3.65761 2.94727C3.72481 2.94247 3.77681 2.91847 3.81361 2.87527C3.77681 2.82727 3.72481 2.80327 3.65761 2.80327C3.70561 2.70247 3.65041 2.64727 3.57121 2.60167C3.57121 2.60167 3.62161 2.80327 3.49441 2.80327C3.43681 2.80327 3.38401 2.78647 3.38401 2.70007C3.38401 2.62567 3.44881 2.52247 3.60001 2.52967C3.75121 2.53687 3.87121 2.63287 3.87121 2.87287C3.87121 3.09367 3.69121 3.20407 3.45601 3.20887C3.24481 3.21847 3.08401 3.10327 3.08401 2.88487C3.08401 2.59207 3.50401 1.92967 3.50401 1.67047C3.50401 1.47607 3.33121 1.36567 3.15841 1.36567C2.93761 1.36567 2.75041 1.58647 2.75041 1.58647L2.88001 1.74967V1.75207Z" fill="#FFEC2D"/>
<path d="M2.83201 7.0104C2.83201 7.4976 3.26881 7.7472 3.61201 7.7472C4.07281 7.7472 4.32001 7.4712 4.32001 7.1088C4.32001 6.9048 4.28161 6.7752 4.18801 6.5808L3.12721 4.38C3.08878 4.28743 3.07235 4.1872 3.07921 4.0872C3.07921 3.8904 3.27121 3.7296 3.47041 3.7272C3.65281 3.72 3.85441 3.8952 3.85441 4.0944C3.85441 4.3368 3.72721 4.4448 3.59761 4.4448C3.43921 4.4448 3.37681 4.38 3.37681 4.2672C3.38001 4.192 3.41041 4.1552 3.46801 4.1568C3.60481 4.1568 3.56401 4.3392 3.56401 4.3392C3.58207 4.33586 3.59917 4.32857 3.6141 4.31786C3.62902 4.30715 3.64139 4.29327 3.65033 4.27722C3.65927 4.26118 3.66456 4.24335 3.66582 4.22503C3.66708 4.2067 3.66427 4.18832 3.65761 4.1712C3.70911 4.16001 3.7555 4.13218 3.78961 4.092C3.75441 4.0552 3.71041 4.0312 3.65761 4.02C3.68881 3.9144 3.64561 3.864 3.55441 3.84C3.57017 3.87625 3.57436 3.91648 3.56641 3.9552C3.42241 3.912 3.19921 3.9792 3.19921 4.2288C3.19921 4.4784 3.37201 4.6872 3.69601 4.6368C3.61921 4.6728 3.58081 4.7472 3.57121 4.8312C3.63121 4.8072 3.69601 4.8072 3.69601 4.8072C3.65761 4.872 3.60481 4.9272 3.60721 5.0616C3.66721 5.0328 3.72481 4.9824 3.79921 5.0136C3.67921 5.2536 3.82801 5.58 4.20721 5.6568C4.06961 5.492 4.00081 5.3216 4.00081 5.1456C4.00081 4.5816 4.15681 4.488 4.15681 4.0944C4.15434 4.00312 4.1302 3.91373 4.08638 3.83361C4.04257 3.75349 3.98033 3.68493 3.90481 3.6336V3.6408C3.95125 3.63126 3.99515 3.61201 4.03362 3.58429C4.07209 3.55658 4.10425 3.52104 4.12801 3.48C3.86065 3.40631 3.57802 3.40881 3.31201 3.4872C3.22303 3.49979 3.13801 3.53221 3.06324 3.58205C2.98847 3.6319 2.92585 3.69791 2.88001 3.7752C2.83209 3.88454 2.80735 4.00262 2.80735 4.122C2.80735 4.24138 2.83209 4.35946 2.88001 4.4688C3.03121 4.7808 3.73681 6.2832 3.95761 6.7536C4.00561 6.8544 4.03041 6.9616 4.03201 7.0752C4.03201 7.3632 3.76801 7.464 3.61921 7.464C3.43921 7.464 3.25441 7.3272 3.25441 7.1568C3.25441 7.0488 3.31441 6.9816 3.39841 6.9816C3.60241 6.9816 3.59041 7.1544 3.54961 7.2648C3.67681 7.2072 3.74881 7.1064 3.72961 7.0008C3.80836 6.98758 3.87983 6.94674 3.93121 6.8856C3.88321 6.8232 3.82081 6.7752 3.72961 6.7728C3.77041 6.6072 3.65761 6.5376 3.54961 6.4992C3.58321 6.6192 3.60721 6.7608 3.39841 6.7608C3.24721 6.7608 3.12961 6.7848 3.06001 6.8856L3.04321 6.2376C3.03361 6.0432 3.30241 6.0456 3.47521 6.1056C3.41041 5.8824 3.27841 5.76 2.97121 5.7912C3.01827 5.7731 3.05844 5.74064 3.08601 5.69842C3.11358 5.6562 3.12716 5.60637 3.12481 5.556C3.12481 5.3736 2.97601 5.172 2.88001 5.112L2.83201 7.008V7.0104Z" fill="#FFEC2D"/>
<path d="M2.83201 8.46958C2.83201 7.98238 3.26881 7.73278 3.61201 7.73278C4.07281 7.73278 4.32001 8.00878 4.32001 8.37118C4.32001 8.57518 4.28161 8.70478 4.18801 8.89918L3.12721 11.1C3.08878 11.1926 3.07235 11.2928 3.07921 11.3928C3.07921 11.5896 3.27121 11.7504 3.47041 11.7528C3.65281 11.76 3.85441 11.5848 3.85441 11.3856C3.85441 11.1432 3.72721 11.0352 3.59761 11.0352C3.43921 11.0352 3.37681 11.1 3.37681 11.2128C3.38001 11.288 3.41041 11.3248 3.46801 11.3232C3.60481 11.3232 3.56401 11.1408 3.56401 11.1408C3.58207 11.1441 3.59917 11.1514 3.6141 11.1621C3.62902 11.1728 3.64139 11.1867 3.65033 11.2028C3.65927 11.2188 3.66456 11.2366 3.66582 11.255C3.66708 11.2733 3.66427 11.2917 3.65761 11.3088C3.70911 11.32 3.7555 11.3478 3.78961 11.388C3.75441 11.4248 3.71041 11.4488 3.65761 11.46C3.68881 11.5656 3.64561 11.616 3.55441 11.64C3.57017 11.6037 3.57436 11.5635 3.56641 11.5248C3.42241 11.568 3.19921 11.5008 3.19921 11.2512C3.19921 11.0016 3.37201 10.7928 3.69601 10.8432C3.61921 10.8072 3.58081 10.7328 3.57121 10.6488C3.63121 10.6728 3.69601 10.6728 3.69601 10.6728C3.65761 10.608 3.60481 10.5528 3.60721 10.4184C3.66721 10.4472 3.72481 10.4976 3.79921 10.4664C3.67921 10.2264 3.82801 9.89998 4.20721 9.82318C4.06961 9.98798 4.00081 10.1584 4.00081 10.3344C4.00081 10.8984 4.15681 10.992 4.15681 11.3856C4.15434 11.4769 4.1302 11.5663 4.08638 11.6464C4.04257 11.7265 3.98033 11.795 3.90481 11.8464V11.8392C3.95125 11.8487 3.99515 11.868 4.03362 11.8957C4.07209 11.9234 4.10425 11.9589 4.12801 12C3.86065 12.0737 3.57802 12.0712 3.31201 11.9928C3.22303 11.9802 3.13801 11.9478 3.06324 11.8979C2.98847 11.8481 2.92585 11.7821 2.88001 11.7048C2.83209 11.5954 2.80735 11.4774 2.80735 11.358C2.80735 11.2386 2.83209 11.1205 2.88001 11.0112C3.03121 10.6992 3.73681 9.19678 3.95761 8.72638C4.00561 8.62558 4.03041 8.51838 4.03201 8.40478C4.03201 8.11678 3.76801 8.01598 3.61921 8.01598C3.43921 8.01598 3.25441 8.15278 3.25441 8.32318C3.25441 8.43118 3.31441 8.49838 3.39841 8.49838C3.60241 8.49838 3.59041 8.32558 3.54961 8.21518C3.67681 8.27278 3.74881 8.37358 3.72961 8.47918C3.80836 8.4924 3.87983 8.53324 3.93121 8.59438C3.88321 8.65678 3.82081 8.70478 3.72961 8.70718C3.77041 8.87278 3.65761 8.94238 3.54961 8.98078C3.58321 8.86078 3.60721 8.71918 3.39841 8.71918C3.24721 8.71918 3.12961 8.69518 3.06001 8.59438L3.04321 9.24238C3.03361 9.43678 3.30241 9.43438 3.47521 9.37438C3.41041 9.59758 3.27841 9.71998 2.97121 9.68878C3.01827 9.70688 3.05844 9.73934 3.08601 9.78156C3.11358 9.82378 3.12716 9.87361 3.12481 9.92398C3.12481 10.1064 2.97601 10.308 2.88001 10.368L2.83201 8.47198V8.46958Z" fill="#FFEC2D"/>
<path d="M2.88012 22.2479C2.88012 22.2479 2.64972 22.4447 2.57052 22.3463C2.44572 22.1903 2.95932 21.4103 2.95932 21.1367C2.95932 20.6855 2.65692 20.5631 2.28732 20.5007C2.03772 20.4575 1.63212 20.5175 1.63212 20.5175C1.70892 20.6207 1.75932 20.6519 1.88652 20.6591C1.74252 20.7311 1.59852 20.8943 1.59852 21.1463C1.59852 21.5327 1.75692 21.6935 1.75692 22.1303C1.75692 22.3679 1.56012 22.6799 1.56012 22.6799C1.91052 22.6439 2.08332 22.3199 1.98492 22.0607C2.01193 22.0554 2.03985 22.0567 2.06621 22.0647C2.09258 22.0726 2.11658 22.0869 2.13612 22.1063C2.16012 22.0343 2.12172 21.9503 2.06652 21.8783C2.10972 21.8543 2.14332 21.8687 2.21052 21.8831C2.20572 21.8111 2.16252 21.7295 2.05212 21.6551C2.36892 21.7367 2.56092 21.5183 2.56092 21.2879C2.56092 21.1127 2.44092 20.9879 2.32092 20.9879C2.28252 20.9879 2.22492 21.0047 2.19372 21.0287C2.16972 20.9807 2.18412 20.9159 2.20572 20.8679C2.11932 20.8919 2.06172 20.9447 2.10252 21.0527C2.03532 21.0575 1.98332 21.0815 1.94652 21.1247C1.98332 21.1727 2.03532 21.1967 2.10252 21.1967C2.05452 21.2975 2.10972 21.3527 2.18892 21.3983C2.18892 21.3983 2.13852 21.1967 2.26572 21.1967C2.32332 21.1967 2.37612 21.2135 2.37612 21.2999C2.37612 21.3743 2.31132 21.4775 2.16012 21.4703C2.00892 21.4631 1.88892 21.3671 1.88892 21.1271C1.88892 20.9063 2.06892 20.7959 2.30412 20.7911C2.51532 20.7815 2.67612 20.8967 2.67612 21.1151C2.67612 21.4079 2.25612 22.0703 2.25612 22.3295C2.25612 22.5239 2.42892 22.6343 2.60172 22.6343C2.82252 22.6343 3.00972 22.4135 3.00972 22.4135L2.88012 22.2503V22.2479Z" fill="#FFEC2D"/>
<path d="M2.92812 16.9896C2.92812 16.5024 2.49132 16.2528 2.14812 16.2528C1.68732 16.2528 1.44012 16.5288 1.44012 16.8912C1.44012 17.0952 1.47852 17.2248 1.57212 17.4192L2.63292 19.62C2.67135 19.7126 2.68779 19.8128 2.68092 19.9128C2.68092 20.1096 2.48892 20.2704 2.28972 20.2728C2.10732 20.28 1.90572 20.1048 1.90572 19.9056C1.90572 19.6632 2.03292 19.5552 2.16252 19.5552C2.32092 19.5552 2.38332 19.62 2.38332 19.7328C2.38012 19.808 2.34972 19.8448 2.29212 19.8432C2.15532 19.8432 2.19612 19.6608 2.19612 19.6608C2.17806 19.6641 2.16096 19.6714 2.14604 19.6821C2.13111 19.6929 2.11874 19.7067 2.1098 19.7228C2.10086 19.7388 2.09557 19.7566 2.09431 19.775C2.09306 19.7933 2.09586 19.8117 2.10252 19.8288C2.05102 19.84 2.00463 19.8678 1.97052 19.908C2.00572 19.9448 2.04972 19.9688 2.10252 19.98C2.07132 20.0856 2.11452 20.136 2.20572 20.16C2.18996 20.1237 2.18577 20.0835 2.19372 20.0448C2.33772 20.088 2.56092 20.0208 2.56092 19.7712C2.56092 19.5216 2.38812 19.3128 2.06412 19.3632C2.14092 19.3272 2.17932 19.2528 2.18892 19.1688C2.12892 19.1928 2.06412 19.1928 2.06412 19.1928C2.10252 19.128 2.15532 19.0728 2.15292 18.9384C2.09292 18.9672 2.03532 19.0176 1.96092 18.9864C2.08092 18.7464 1.93212 18.42 1.55292 18.3432C1.69052 18.508 1.75932 18.6784 1.75932 18.8544C1.75932 19.4184 1.60332 19.512 1.60332 19.9056C1.60579 19.9969 1.62993 20.0863 1.67375 20.1664C1.71756 20.2465 1.7798 20.3151 1.85532 20.3664V20.3592C1.80888 20.3687 1.76498 20.388 1.72651 20.4157C1.68805 20.4434 1.65588 20.479 1.63212 20.52C1.89948 20.5937 2.18211 20.5912 2.44812 20.5128C2.5371 20.5002 2.62212 20.4678 2.69689 20.4179C2.77166 20.3681 2.83428 20.3021 2.88012 20.2248C2.92804 20.1155 2.95278 19.9974 2.95278 19.878C2.95278 19.7586 2.92804 19.6405 2.88012 19.5312C2.72892 19.2192 2.02332 17.7168 1.80252 17.2464C1.75452 17.1456 1.72972 17.0384 1.72812 16.9248C1.72812 16.6368 1.99212 16.536 2.14092 16.536C2.32092 16.536 2.50572 16.6728 2.50572 16.8432C2.50572 16.9512 2.44572 17.0184 2.36172 17.0184C2.15772 17.0184 2.16972 16.8456 2.21052 16.7352C2.08332 16.7928 2.01132 16.8936 2.03052 16.9992C1.95177 17.0124 1.8803 17.0533 1.82892 17.1144C1.87692 17.1768 1.93932 17.2248 2.03052 17.2272C1.98972 17.3928 2.10252 17.4624 2.21052 17.5008C2.17692 17.3808 2.15292 17.2392 2.36172 17.2392C2.51292 17.2392 2.63052 17.2152 2.70012 17.1144L2.71692 17.7624C2.72652 17.9568 2.45772 17.9544 2.28492 17.8944C2.34972 18.1176 2.48172 18.24 2.78892 18.2088C2.74186 18.2269 2.70169 18.2594 2.67412 18.3016C2.64655 18.3438 2.63297 18.3936 2.63532 18.444C2.63532 18.6264 2.78412 18.828 2.88012 18.888L2.92812 16.992V16.9896Z" fill="#FFEC2D"/>
<path d="M2.92812 15.5304C2.92812 16.0176 2.49132 16.2672 2.14812 16.2672C1.68732 16.2672 1.44012 15.9912 1.44012 15.6288C1.44012 15.4248 1.47852 15.2952 1.57212 15.1008L2.63292 12.9C2.67135 12.8074 2.68779 12.7072 2.68092 12.6072C2.68092 12.4104 2.48892 12.2496 2.28972 12.2472C2.10732 12.24 1.90572 12.4152 1.90572 12.6144C1.90572 12.8568 2.03292 12.9648 2.16252 12.9648C2.32092 12.9648 2.38332 12.9 2.38332 12.7872C2.38012 12.712 2.34972 12.6752 2.29212 12.6768C2.15532 12.6768 2.19612 12.8592 2.19612 12.8592C2.17806 12.8559 2.16096 12.8486 2.14604 12.8379C2.13111 12.8272 2.11874 12.8133 2.1098 12.7972C2.10086 12.7812 2.09557 12.7634 2.09431 12.745C2.09306 12.7267 2.09586 12.7083 2.10252 12.6912C2.05102 12.68 2.00463 12.6522 1.97052 12.612C2.00572 12.5752 2.04972 12.5512 2.10252 12.54C2.07132 12.4344 2.11452 12.384 2.20572 12.36C2.18996 12.3963 2.18577 12.4365 2.19372 12.4752C2.33772 12.432 2.56092 12.4992 2.56092 12.7488C2.56092 12.9984 2.38812 13.2072 2.06412 13.1568C2.14092 13.1928 2.17932 13.2672 2.18892 13.3512C2.12892 13.3272 2.06412 13.3272 2.06412 13.3272C2.10252 13.392 2.15532 13.4472 2.15292 13.5816C2.09292 13.5528 2.03532 13.5024 1.96092 13.5336C2.08092 13.7736 1.93212 14.1 1.55292 14.1768C1.69052 14.012 1.75932 13.8416 1.75932 13.6656C1.75932 13.1016 1.60332 13.008 1.60332 12.6144C1.60579 12.5231 1.62993 12.4337 1.67375 12.3536C1.71756 12.2735 1.7798 12.205 1.85532 12.1536V12.1608C1.80888 12.1513 1.76498 12.132 1.72651 12.1043C1.68805 12.0766 1.65588 12.0411 1.63212 12C1.89948 11.9263 2.18211 11.9288 2.44812 12.0072C2.5371 12.0198 2.62212 12.0522 2.69689 12.1021C2.77166 12.1519 2.83428 12.2179 2.88012 12.2952C2.92804 12.4046 2.95278 12.5226 2.95278 12.642C2.95278 12.7614 2.92804 12.8795 2.88012 12.9888C2.72892 13.3008 2.02332 14.8032 1.80252 15.2736C1.75452 15.3744 1.72972 15.4816 1.72812 15.5952C1.72812 15.8832 1.99212 15.984 2.14092 15.984C2.32092 15.984 2.50572 15.8472 2.50572 15.6768C2.50572 15.5688 2.44572 15.5016 2.36172 15.5016C2.15772 15.5016 2.16972 15.6744 2.21052 15.7848C2.08332 15.7272 2.01132 15.6264 2.03052 15.5208C1.95177 15.5076 1.8803 15.4668 1.82892 15.4056C1.87692 15.3432 1.93932 15.2952 2.03052 15.2928C1.98972 15.1272 2.10252 15.0576 2.21052 15.0192C2.17692 15.1392 2.15292 15.2808 2.36172 15.2808C2.51292 15.2808 2.63052 15.3048 2.70012 15.4056L2.71692 14.7576C2.72652 14.5632 2.45772 14.5656 2.28492 14.6256C2.34972 14.4024 2.48172 14.28 2.78892 14.3112C2.74186 14.2931 2.70169 14.2607 2.67412 14.2184C2.64655 14.1762 2.63297 14.1264 2.63532 14.076C2.63532 13.8936 2.78412 13.692 2.88012 13.632L2.92812 15.528V15.5304Z" fill="#FFEC2D"/>
<path d="M2.88007 22.2479C2.88007 22.2479 3.11047 22.4447 3.18967 22.3463C3.31447 22.1903 2.80087 21.4103 2.80087 21.1367C2.80087 20.6855 3.10327 20.5631 3.47287 20.5007C3.72247 20.4575 4.12807 20.5175 4.12807 20.5175C4.05127 20.6207 4.00087 20.6519 3.87367 20.6591C4.01767 20.7311 4.16167 20.8943 4.16167 21.1463C4.16167 21.5327 4.00327 21.6935 4.00327 22.1303C4.00327 22.3679 4.20007 22.6799 4.20007 22.6799C3.84967 22.6439 3.67687 22.3199 3.77527 22.0607C3.74826 22.0554 3.72035 22.0567 3.69398 22.0647C3.66762 22.0726 3.64361 22.0869 3.62407 22.1063C3.60007 22.0343 3.63847 21.9503 3.69367 21.8783C3.65047 21.8543 3.61687 21.8687 3.54967 21.8831C3.55447 21.8111 3.59767 21.7295 3.70807 21.6551C3.39127 21.7367 3.19927 21.5183 3.19927 21.2879C3.19927 21.1127 3.31927 20.9879 3.43927 20.9879C3.47767 20.9879 3.53527 21.0047 3.56647 21.0287C3.59047 20.9807 3.57607 20.9159 3.55447 20.8679C3.64087 20.8919 3.69847 20.9447 3.65767 21.0527C3.72487 21.0575 3.77687 21.0815 3.81367 21.1247C3.77687 21.1727 3.72487 21.1967 3.65767 21.1967C3.70567 21.2975 3.65047 21.3527 3.57127 21.3983C3.57127 21.3983 3.62167 21.1967 3.49447 21.1967C3.43687 21.1967 3.38407 21.2135 3.38407 21.2999C3.38407 21.3743 3.44887 21.4775 3.60007 21.4703C3.75127 21.4631 3.87127 21.3671 3.87127 21.1271C3.87127 20.9063 3.69127 20.7959 3.45607 20.7911C3.24487 20.7815 3.08407 20.8967 3.08407 21.1151C3.08407 21.4079 3.50407 22.0703 3.50407 22.3295C3.50407 22.5239 3.33127 22.6343 3.15847 22.6343C2.93767 22.6343 2.75047 22.4135 2.75047 22.4135L2.88007 22.2503V22.2479Z" fill="#FFEC2D"/>
<path d="M2.83207 16.9896C2.83207 16.5024 3.26887 16.2528 3.61207 16.2528C4.07287 16.2528 4.32007 16.5288 4.32007 16.8912C4.32007 17.0952 4.28167 17.2248 4.18807 17.4192L3.12727 19.62C3.08884 19.7126 3.07241 19.8128 3.07927 19.9128C3.07927 20.1096 3.27127 20.2704 3.47047 20.2728C3.65287 20.28 3.85447 20.1048 3.85447 19.9056C3.85447 19.6632 3.72727 19.5552 3.59767 19.5552C3.43927 19.5552 3.37687 19.62 3.37687 19.7328C3.38007 19.808 3.41047 19.8448 3.46807 19.8432C3.60487 19.8432 3.56407 19.6608 3.56407 19.6608C3.58213 19.6641 3.59924 19.6714 3.61416 19.6821C3.62908 19.6929 3.64145 19.7067 3.65039 19.7228C3.65933 19.7388 3.66462 19.7566 3.66588 19.775C3.66714 19.7933 3.66433 19.8117 3.65767 19.8288C3.70917 19.84 3.75556 19.8678 3.78967 19.908C3.75447 19.9448 3.71047 19.9688 3.65767 19.98C3.68887 20.0856 3.64567 20.136 3.55447 20.16C3.57023 20.1237 3.57442 20.0835 3.56647 20.0448C3.42247 20.088 3.19927 20.0208 3.19927 19.7712C3.19927 19.5216 3.37207 19.3128 3.69607 19.3632C3.61927 19.3272 3.58087 19.2528 3.57127 19.1688C3.63127 19.1928 3.69607 19.1928 3.69607 19.1928C3.65767 19.128 3.60487 19.0728 3.60727 18.9384C3.66727 18.9672 3.72487 19.0176 3.79927 18.9864C3.67927 18.7464 3.82807 18.42 4.20727 18.3432C4.06967 18.508 4.00087 18.6784 4.00087 18.8544C4.00087 19.4184 4.15687 19.512 4.15687 19.9056C4.1544 19.9969 4.13026 20.0863 4.08644 20.1664C4.04263 20.2465 3.98039 20.3151 3.90487 20.3664V20.3592C3.95131 20.3687 3.99521 20.388 4.03368 20.4157C4.07215 20.4434 4.10432 20.479 4.12807 20.52C3.86071 20.5937 3.57808 20.5912 3.31207 20.5128C3.22309 20.5002 3.13808 20.4678 3.0633 20.4179C2.98853 20.3681 2.92591 20.3021 2.88007 20.2248C2.83215 20.1155 2.80741 19.9974 2.80741 19.878C2.80741 19.7586 2.83215 19.6405 2.88007 19.5312C3.03127 19.2192 3.73687 17.7168 3.95767 17.2464C4.00567 17.1456 4.03047 17.0384 4.03207 16.9248C4.03207 16.6368 3.76807 16.536 3.61927 16.536C3.43927 16.536 3.25447 16.6728 3.25447 16.8432C3.25447 16.9512 3.31447 17.0184 3.39847 17.0184C3.60247 17.0184 3.59047 16.8456 3.54967 16.7352C3.67687 16.7928 3.74887 16.8936 3.72967 16.9992C3.80842 17.0124 3.87989 17.0533 3.93127 17.1144C3.88327 17.1768 3.82087 17.2248 3.72967 17.2272C3.77047 17.3928 3.65767 17.4624 3.54967 17.5008C3.58327 17.3808 3.60727 17.2392 3.39847 17.2392C3.24727 17.2392 3.12967 17.2152 3.06007 17.1144L3.04327 17.7624C3.03367 17.9568 3.30247 17.9544 3.47527 17.8944C3.41047 18.1176 3.27847 18.24 2.97127 18.2088C3.01833 18.2269 3.0585 18.2594 3.08607 18.3016C3.11365 18.3438 3.12722 18.3936 3.12487 18.444C3.12487 18.6264 2.97607 18.828 2.88007 18.888L2.83207 16.992V16.9896Z" fill="#FFEC2D"/>
<path d="M2.83207 15.5304C2.83207 16.0176 3.26887 16.2672 3.61207 16.2672C4.07287 16.2672 4.32007 15.9912 4.32007 15.6288C4.32007 15.4248 4.28167 15.2952 4.18807 15.1008L3.12727 12.9C3.08884 12.8074 3.07241 12.7072 3.07927 12.6072C3.07927 12.4104 3.27127 12.2496 3.47047 12.2472C3.65287 12.24 3.85447 12.4152 3.85447 12.6144C3.85447 12.8568 3.72727 12.9648 3.59767 12.9648C3.43927 12.9648 3.37687 12.9 3.37687 12.7872C3.38007 12.712 3.41047 12.6752 3.46807 12.6768C3.60487 12.6768 3.56407 12.8592 3.56407 12.8592C3.58213 12.8559 3.59924 12.8486 3.61416 12.8379C3.62908 12.8272 3.64145 12.8133 3.65039 12.7972C3.65933 12.7812 3.66462 12.7634 3.66588 12.745C3.66714 12.7267 3.66433 12.7083 3.65767 12.6912C3.70917 12.68 3.75556 12.6522 3.78967 12.612C3.75447 12.5752 3.71047 12.5512 3.65767 12.54C3.68887 12.4344 3.64567 12.384 3.55447 12.36C3.57023 12.3963 3.57442 12.4365 3.56647 12.4752C3.42247 12.432 3.19927 12.4992 3.19927 12.7488C3.19927 12.9984 3.37207 13.2072 3.69607 13.1568C3.61927 13.1928 3.58087 13.2672 3.57127 13.3512C3.63127 13.3272 3.69607 13.3272 3.69607 13.3272C3.65767 13.392 3.60487 13.4472 3.60727 13.5816C3.66727 13.5528 3.72487 13.5024 3.79927 13.5336C3.67927 13.7736 3.82807 14.1 4.20727 14.1768C4.06967 14.012 4.00087 13.8416 4.00087 13.6656C4.00087 13.1016 4.15687 13.008 4.15687 12.6144C4.1544 12.5231 4.13026 12.4337 4.08644 12.3536C4.04263 12.2735 3.98039 12.205 3.90487 12.1536V12.1608C3.95131 12.1513 3.99521 12.132 4.03368 12.1043C4.07215 12.0766 4.10432 12.0411 4.12807 12C3.86071 11.9263 3.57808 11.9288 3.31207 12.0072C3.22309 12.0198 3.13808 12.0522 3.0633 12.1021C2.98853 12.1519 2.92591 12.2179 2.88007 12.2952C2.83215 12.4046 2.80741 12.5226 2.80741 12.642C2.80741 12.7614 2.83215 12.8795 2.88007 12.9888C3.03127 13.3008 3.73687 14.8032 3.95767 15.2736C4.00567 15.3744 4.03047 15.4816 4.03207 15.5952C4.03207 15.8832 3.76807 15.984 3.61927 15.984C3.43927 15.984 3.25447 15.8472 3.25447 15.6768C3.25447 15.5688 3.31447 15.5016 3.39847 15.5016C3.60247 15.5016 3.59047 15.6744 3.54967 15.7848C3.67687 15.7272 3.74887 15.6264 3.72967 15.5208C3.80842 15.5076 3.87989 15.4668 3.93127 15.4056C3.88327 15.3432 3.82087 15.2952 3.72967 15.2928C3.77047 15.1272 3.65767 15.0576 3.54967 15.0192C3.58327 15.1392 3.60727 15.2808 3.39847 15.2808C3.24727 15.2808 3.12967 15.3048 3.06007 15.4056L3.04327 14.7576C3.03367 14.5632 3.30247 14.5656 3.47527 14.6256C3.41047 14.4024 3.27847 14.28 2.97127 14.3112C3.01833 14.2931 3.0585 14.2607 3.08607 14.2184C3.11365 14.1762 3.12722 14.1264 3.12487 14.076C3.12487 13.8936 2.97607 13.692 2.88007 13.632L2.83207 15.528V15.5304Z" fill="#FFEC2D"/>
</g>
</g>
<defs>
<clipPath id="clip0_2214_3579">
<path d="M0 12C0 5.37258 5.37258 0 12 0C18.6274 0 24 5.37258 24 12C24 18.6274 18.6274 24 12 24C5.37258 24 0 18.6274 0 12Z" fill="white"/>
</clipPath>
<clipPath id="clip1_2214_3579">
<rect width="32" height="24" fill="white"/>
</clipPath>
</defs>
</svg>
