<svg width="24" height="24" viewBox="0 0 24 24" fill="none" xmlns="http://www.w3.org/2000/svg">
<g clip-path="url(#clip0_2214_3381)">
<g clip-path="url(#clip1_2214_3381)">
<path d="M-8 0V24H24V0H-8Z" fill="#68BFE5"/>
<path d="M13.045 9.65991V16.4799C13.045 18.7099 17.075 20.0299 17.075 20.0299C17.075 20.0299 21.1 18.7099 21.1 16.4799V9.65991H13.045Z" fill="white"/>
<path d="M16.515 12.0601V15.1301H13.045V16.2451H16.515V19.8201L17.075 20.0351L17.63 19.8201V16.2501H21.1V15.1301H17.63V12.0601H16.515Z" fill="#D21034"/>
<path d="M13.045 9.65991H21.1V12.2999H13.04L13.045 9.65991Z" fill="#D21034"/>
<path d="M13.6896 11.6298C13.9393 11.6298 14.1417 11.4661 14.1417 11.2641C14.1417 11.0622 13.9393 10.8984 13.6896 10.8984C13.4399 10.8984 13.2375 11.0622 13.2375 11.2641C13.2375 11.4661 13.4399 11.6298 13.6896 11.6298Z" fill="white" stroke="black" stroke-width="0.0265944" stroke-miterlimit="3"/>
<path d="M13.6896 11.2776C13.9117 11.2776 14.0918 11.1868 14.0918 11.0749C14.0918 10.9629 13.9117 10.8721 13.6896 10.8721C13.4674 10.8721 13.2873 10.9629 13.2873 11.0749C13.2873 11.1868 13.4674 11.2776 13.6896 11.2776Z" fill="white" stroke="black" stroke-width="0.0265944" stroke-miterlimit="3"/>
<path d="M13.6896 11.6863C13.9117 11.6863 14.0918 11.5955 14.0918 11.4835C14.0918 11.3716 13.9117 11.2808 13.6896 11.2808C13.4674 11.2808 13.2873 11.3716 13.2873 11.4835C13.2873 11.5955 13.4674 11.6863 13.6896 11.6863Z" fill="white" stroke="black" stroke-width="0.0265944" stroke-miterlimit="3"/>
<path d="M13.6896 11.4671C13.9117 11.4671 14.0918 11.3763 14.0918 11.2643C14.0918 11.1523 13.9117 11.0615 13.6896 11.0615C13.4674 11.0615 13.2873 11.1523 13.2873 11.2643C13.2873 11.3763 13.4674 11.4671 13.6896 11.4671Z" fill="white" stroke="black" stroke-width="0.0265944" stroke-miterlimit="3"/>
<path d="M20.9 11.77L20.835 11.59C20.835 11.59 20.655 11.515 20.64 11.42C20.61 11.165 20.52 11.07 20.38 11.03C20.3046 11.0086 20.2239 11.0176 20.155 11.055C20.115 11.115 19.905 11.115 19.795 11.12C19.68 11.12 19.675 11.07 19.675 11.07C19.59 11.07 19.55 11.005 19.55 11.005C19.495 10.89 19.45 10.845 19.42 10.83C19.57 10.83 19.68 10.765 19.85 10.59C20.03 10.4 20.16 10.47 20.16 10.47C20.07 10.65 20.19 10.635 20.19 10.635C20.43 10.51 20.22 10.2 20.15 10.215C20.075 10.23 20.055 10.18 20.055 10.18C20.055 10.235 19.975 10.26 19.975 10.26C20.035 9.90502 19.825 9.81002 19.825 9.81002C19.795 9.84002 19.775 9.90502 19.775 9.90502C19.715 10.12 19.52 10.085 19.3 9.98002C19.08 9.88002 18.5 10.09 18.315 10.165C18.13 10.24 17.795 10.35 17.495 10.185C17.195 10.02 17.12 10.045 17 10.08C16.885 10.11 16.675 10.16 16.6 10.12C16.5469 10.094 16.4891 10.0787 16.43 10.075C16.45 10.065 16.42 10.015 16.42 10.015C16.325 9.89002 16.43 9.81502 16.43 9.81502C16.43 9.81502 16.26 9.86502 16.33 10.155L16.36 10.195C16.36 10.195 16.38 10.29 16.43 10.315V10.335C16.43 10.335 16.475 10.315 16.485 10.375C16.495 10.435 16.565 10.375 16.59 10.325C16.59 10.325 16.545 10.595 16.875 10.66C16.875 10.66 16.84 10.615 16.85 10.59C16.865 10.56 16.81 10.54 16.815 10.5C16.82 10.46 16.735 10.44 16.8 10.405C16.865 10.37 16.9 10.31 17.05 10.4C17.195 10.485 17.31 10.465 17.31 10.465C17.31 10.465 17.22 10.285 17.27 10.285C17.32 10.285 17.54 10.555 17.645 10.545C17.755 10.53 17.965 10.405 18.07 10.45C18.07 10.45 18.08 10.4 18.48 10.33C18.88 10.26 19.38 10.06 19.565 10.235C19.565 10.235 19.585 10.375 19.665 10.41C19.665 10.41 19.65 10.7 19.155 10.54L18.975 10.49C18.975 10.49 18.945 10.405 18 10.65C18 10.65 17.945 10.67 17.905 10.695C17.865 10.72 17.82 10.68 17.63 10.745C17.445 10.82 16.745 11.045 16.315 10.965C16.22 10.935 16.135 10.95 16.13 10.935C16.13 10.92 16.18 10.94 16.18 10.94C16.15 10.9067 16.135 10.8934 16.135 10.9C15.775 10.86 15.835 10.7 15.835 10.7L15.855 10.75C15.915 10.67 15.835 10.49 15.835 10.49H15.83V10.475L15.855 10.455C16.03 10.305 16.23 10.28 16.23 10.28C16.11 10.13 15.86 10.21 15.86 10.21C15.865 10.035 15.79 9.82502 15.79 9.82502C15.636 9.8503 15.4979 9.93459 15.405 10.06C15.395 9.87502 15.16 9.77002 15.16 9.77002C15.25 9.87502 15.195 10.13 15.195 10.13H15.205H15.18L15.175 10.185H15.165C15.165 10.185 15.08 10.215 14.98 10.445C14.98 10.445 14.97 10.495 14.93 10.545V10.525C14.93 10.525 14.815 10.675 14.56 10.525C14.56 10.525 14.21 10.32 14.08 10.325C13.96 10.335 13.88 10.39 13.885 10.425C13.885 10.425 13.6 10.405 13.505 10.565C13.505 10.565 13.29 10.645 13.475 10.815C13.475 10.815 13.5 10.895 13.55 10.935C13.55 10.935 13.545 10.775 13.585 10.82L13.61 10.85C13.615 10.87 13.635 10.93 13.67 10.965L13.7 10.955C13.7 10.915 13.71 10.865 13.72 10.845H13.73L13.78 10.925L13.83 10.895C13.86 10.895 13.895 10.92 13.895 10.92L13.96 10.865C14.025 10.875 14.045 10.745 14.045 10.745C14.0712 10.7515 14.0984 10.7527 14.1251 10.7484C14.1517 10.7441 14.1772 10.7344 14.2 10.72C14.23 10.82 14.46 10.935 14.46 10.935H14.47L14.44 10.955C14.545 11.03 14.74 11.01 14.74 11.01C14.66 11.04 14.67 11.195 14.67 11.195C14.62 11.215 14.62 11.26 14.62 11.26C14.78 11.325 14.885 11.27 14.885 11.27C14.8883 11.3167 14.8883 11.3367 14.885 11.33C14.82 11.465 14.79 11.6 14.79 11.6H14.795V11.61C14.795 11.61 14.51 11.71 14.39 11.845C14.39 11.845 14.375 11.805 14.34 11.805C14.305 11.805 14.2 11.715 14.15 11.7C14.1 11.685 14.025 11.715 14 11.69C13.985 11.67 13.995 11.51 13.96 11.49L13.925 11.39C13.905 11.44 13.805 11.43 13.805 11.43L13.765 11.46L13.725 11.455C13.715 11.4584 13.7067 11.475 13.7 11.505L13.685 11.52V11.49C13.67 11.505 13.63 11.485 13.615 11.485C13.605 11.485 13.5967 11.5 13.59 11.53L13.495 11.535C13.48 11.545 13.495 11.665 13.495 11.665C13.38 11.725 13.435 11.82 13.435 11.82C13.495 12.12 14.01 11.985 14.05 12.025C14.09 12.065 14.18 12.075 14.225 12.075C14.275 12.075 14.33 12.185 14.395 12.195C14.46 12.205 14.395 12.105 14.7 12.035C15.005 11.965 15.11 11.835 15.11 11.835C15.205 11.815 15.23 11.7 15.235 11.655L15.245 11.725C15.26 11.83 15.185 11.875 15.185 11.875L15.45 11.79C15.555 11.765 15.54 11.67 15.54 11.67C15.64 11.96 15.825 11.98 15.825 11.98C15.86 11.87 15.855 11.835 15.855 11.835H15.94C15.94 11.77 15.89 11.725 15.855 11.705L15.985 11.78L16.035 11.775C16.035 11.82 16.1 11.86 16.1 11.86L16.11 11.8C16.17 11.88 16.28 11.85 16.28 11.85L16.27 11.81C16.505 11.955 16.88 11.77 16.88 11.77C16.98 11.79 16.995 11.73 16.995 11.73C17.105 11.745 17.135 11.665 17.135 11.665C17.4 11.645 17.59 11.455 17.59 11.455C17.725 11.445 17.73 11.35 17.73 11.35C17.73 11.35 17.86 11.375 17.99 11.215C18.29 10.79 18.73 11.015 18.73 11.015L18.475 11.03C17.8 11.025 18.08 11.48 18.08 11.48H18.12C18.185 11.49 18.405 11.665 18.32 11.79V11.8C18.18 11.985 17.93 11.81 17.855 11.65C17.785 11.49 17.635 11.525 17.635 11.525C17.635 11.525 17.26 11.59 17.415 11.89C17.42 11.965 17.465 12.05 17.605 12.13C17.68 12.24 17.93 12.25 18.11 12.21C18.2 12.2 18.65 12 18.65 12C18.685 11.9 18.8 11.925 18.9 11.78C19 11.64 18.755 11.59 18.7 11.51C18.65 11.435 18.715 11.45 18.715 11.45C18.935 11.565 18.955 11.19 18.955 11.19C18.9636 11.2507 18.988 11.308 19.0258 11.3562C19.0635 11.4045 19.1132 11.442 19.17 11.465C19.285 11.35 19.2 11.105 19.2 11.105C19.485 11.615 19.655 11.53 19.655 11.53C19.505 11.44 19.58 11.31 19.58 11.31C19.715 11.85 20.28 11.38 20.28 11.38C20.25 11.46 20.28 11.505 20.33 11.555C20.38 11.605 20.44 11.625 20.41 11.72C20.385 11.81 20.12 11.79 20.12 11.79C20.12 11.79 19.87 11.78 19.89 11.99C19.905 12.04 20.07 12.06 20.14 12.045C20.14 12.045 20.11 12.055 20.205 12.065H20.315C20.42 12.065 20.54 12.045 20.54 12.045C20.685 12.015 20.66 11.965 20.66 11.965C20.885 11.925 20.91 11.775 20.91 11.775L20.9 11.77Z" fill="#FFD100" stroke="black" stroke-width="0.04" stroke-miterlimit="3"/>
<path d="M13.48 10.835C13.48 10.835 13.495 10.81 13.515 10.805C13.535 10.805 13.555 10.8183 13.575 10.845L13.59 10.835C13.59 10.835 13.53 10.745 13.55 10.685C13.5633 10.6517 13.59 10.6333 13.63 10.63V10.615C13.58 10.625 13.55 10.6467 13.54 10.68L13.53 10.715C13.53 10.7483 13.5383 10.7767 13.555 10.8L13.515 10.79C13.5063 10.791 13.498 10.7944 13.491 10.7996C13.484 10.8049 13.4785 10.8119 13.475 10.82L13.48 10.835ZM20.53 12.035C20.38 12.06 20.155 12.07 20.135 12.025C20.135 12.015 20.135 11.985 20.255 11.905L20.245 11.88C20.1417 11.9467 20.0967 11.9967 20.11 12.03C20.145 12.12 20.47 12.07 20.535 12.06L20.53 12.035ZM17.61 12.12C17.5767 12.0667 17.5933 11.995 17.66 11.905L17.635 11.89C17.5683 11.99 17.5517 12.0733 17.585 12.14L17.61 12.12Z" fill="black"/>
<path d="M17.405 11.89C17.405 11.9866 17.47 12.0716 17.6 12.145L17.615 12.12C17.495 12.0466 17.435 11.97 17.435 11.89C17.425 11.765 17.56 11.665 17.565 11.665L17.55 11.645C17.54 11.645 17.4 11.75 17.405 11.895V11.89ZM20.005 11.925C19.965 11.99 19.98 12.065 19.98 12.065H20.005C20.005 12.06 19.995 11.995 20.03 11.94C20.0418 11.9238 20.0568 11.9102 20.0739 11.8999C20.0911 11.8895 20.1102 11.8828 20.13 11.88V11.855C20.0733 11.865 20.0333 11.8883 20.01 11.925H20.005ZM14.05 10.755H14.04V10.765C14.04 10.765 14.03 10.845 13.99 10.865H13.96L13.895 10.83C13.8883 10.82 13.875 10.8166 13.855 10.82C13.8398 10.8 13.8326 10.775 13.835 10.75C13.8383 10.7166 13.865 10.6833 13.915 10.65L13.905 10.635C13.855 10.6683 13.8267 10.7066 13.82 10.75C13.82 10.8 13.845 10.83 13.845 10.83V10.835H13.855C13.865 10.8316 13.875 10.835 13.885 10.845L13.955 10.885H14.005C14.04 10.86 14.055 10.79 14.055 10.775C14.215 10.81 14.345 10.61 14.355 10.605L14.34 10.595C14.34 10.595 14.205 10.795 14.05 10.755Z" fill="black"/>
<path d="M13.655 10.7248C13.6498 10.7595 13.6569 10.7949 13.675 10.8248C13.6917 10.8515 13.7083 10.8665 13.725 10.8698C13.7483 10.8698 13.7683 10.8598 13.785 10.8398C13.795 10.8298 13.805 10.8232 13.815 10.8198L13.83 10.8298L13.84 10.8198L13.815 10.8048C13.7983 10.8048 13.785 10.8132 13.775 10.8298C13.765 10.8465 13.7483 10.8548 13.725 10.8548C13.715 10.8548 13.7017 10.8415 13.685 10.8148C13.6763 10.8027 13.6705 10.7888 13.6679 10.774C13.6653 10.7593 13.666 10.7442 13.67 10.7298C13.69 10.6598 13.775 10.6048 13.775 10.6048L13.77 10.5898C13.765 10.5898 13.675 10.6498 13.655 10.7248ZM13.435 11.7598C13.4417 11.7332 13.4633 11.7098 13.5 11.6898C13.49 11.6898 13.53 11.7198 13.565 11.7198L13.59 11.7048C13.6 11.7148 13.66 11.7698 13.66 11.8398C13.66 11.8565 13.6567 11.8715 13.65 11.8848L13.665 11.8898C13.71 11.7848 13.595 11.6898 13.595 11.6898H13.585L13.565 11.7048C13.535 11.7048 13.5 11.6748 13.5 11.6748C13.4533 11.6948 13.4267 11.7215 13.42 11.7548L13.435 11.7598ZM13.95 11.4898C13.915 11.4948 13.825 11.5098 13.795 11.5598C13.7817 11.5798 13.78 11.5998 13.79 11.6198L13.8 11.6498C13.83 11.7298 13.86 11.8098 13.895 11.8298L13.9 11.8148C13.87 11.7998 13.84 11.7148 13.815 11.6448L13.805 11.6148C13.8006 11.6072 13.7983 11.5986 13.7983 11.5898C13.7983 11.5811 13.8006 11.5724 13.805 11.5648C13.83 11.5298 13.915 11.5148 13.955 11.5098C13.975 11.5098 13.98 11.5848 13.985 11.6298H14C13.995 11.5598 13.985 11.4898 13.95 11.4898Z" fill="black"/>
<path d="M13.695 11.5699C13.6817 11.5899 13.6767 11.6049 13.68 11.6149C13.68 11.6199 13.69 11.8149 13.78 11.8549L13.785 11.8399C13.705 11.8049 13.695 11.6149 13.695 11.6099C13.695 11.6033 13.6983 11.5933 13.705 11.5799C13.7183 11.5666 13.745 11.5666 13.785 11.5799L13.79 11.5649C13.7467 11.5516 13.715 11.5516 13.695 11.5649V11.5699Z" fill="black"/>
<path d="M13.62 11.585C13.58 11.615 13.585 11.695 13.585 11.7H13.6C13.6 11.7 13.6 11.62 13.63 11.6C13.6433 11.59 13.66 11.59 13.68 11.6L13.685 11.58C13.6583 11.57 13.6367 11.57 13.62 11.58V11.585Z" fill="black"/>
<path d="M15.8204 10.5097C15.8204 10.5097 15.8636 10.6095 15.8636 10.6859C15.8636 10.6992 15.8603 10.7103 15.8537 10.7192L15.837 10.6759L15.8271 10.7092C15.8271 10.7092 15.8071 10.7557 15.837 10.8056C15.8769 10.8721 15.9767 10.9131 16.1362 10.9286V10.9319L16.1229 10.9352L16.1163 10.9419V10.9552C16.1207 10.9685 16.1407 10.974 16.1761 10.9718L16.1994 10.9751L16.2193 10.9818L16.216 10.9785C16.2515 10.9785 16.2914 10.9873 16.3357 11.005L16.3025 11.0117L16.339 11.0283C16.3423 11.0283 16.6282 11.1447 16.7446 11.2378C16.7113 11.2677 16.5684 11.3707 16.3224 11.3109L16.2825 11.3009L16.3091 11.3342C16.3091 11.3342 16.472 11.5203 16.5052 11.6333C16.4487 11.6333 16.2326 11.6333 16.1562 11.5669L16.1396 11.5835C16.1396 11.5835 16.2393 11.7364 16.2659 11.8527C16.2326 11.8594 16.1662 11.8627 16.1229 11.8062L16.103 11.7829L16.093 11.8494C16.0731 11.8328 16.0465 11.8129 16.0465 11.7863V11.773L15.9866 11.7829L15.8603 11.7065L15.8404 11.6932L15.8271 11.7164L15.847 11.7264C15.8736 11.7464 15.9202 11.7829 15.9235 11.8361H15.8437V11.8527C15.8437 11.8627 15.8437 11.8993 15.8138 11.9757C15.7772 11.9691 15.6376 11.9192 15.5545 11.6832L15.5279 11.6899V11.6965C15.5279 11.7198 15.5212 11.773 15.4481 11.7929L15.232 11.8594C15.2499 11.8317 15.2592 11.7993 15.2586 11.7663V11.7397L15.252 11.6533C15.2498 11.6045 15.2653 11.5713 15.2985 11.5536L15.2852 11.527C15.2819 11.527 14.9661 11.6566 14.8098 11.6034C14.8165 11.5702 14.8431 11.4638 14.8963 11.3508L14.8896 11.3574C14.8996 11.3508 14.9096 11.3375 14.8996 11.2843V11.2677L14.883 11.2743C14.883 11.2743 14.7832 11.3209 14.637 11.2677C14.637 11.2522 14.6503 11.2366 14.6769 11.2211L14.6868 11.2178V11.1912C14.6868 11.1513 14.6902 11.0582 14.7467 11.0383L14.74 11.0117C14.74 11.0117 14.5705 11.025 14.4674 10.9685C14.5119 10.9365 14.5631 10.9149 14.617 10.9053H14.627V10.892C14.6266 10.8657 14.6209 10.8397 14.6104 10.8156C14.6503 10.8289 14.6968 10.8388 14.7134 10.8255L14.7201 10.8222L14.7134 10.7192H14.6868L14.6902 10.8056L14.5904 10.7823L14.5505 10.769L14.5771 10.8023C14.5932 10.8257 14.6014 10.8537 14.6004 10.8821C14.5402 10.8954 14.4835 10.9215 14.4342 10.9585L14.4176 10.9718L14.4342 10.9818C14.514 11.035 14.637 11.0416 14.7001 11.0383C14.6711 11.0827 14.6561 11.1348 14.6569 11.1879V11.2012C14.6435 11.2087 14.6321 11.2192 14.6234 11.2319C14.6148 11.2446 14.6092 11.2591 14.6071 11.2743V11.2843L14.6137 11.2876C14.6962 11.3256 14.7898 11.3315 14.8763 11.3042V11.3342C14.8098 11.4738 14.7766 11.6101 14.7766 11.6101V11.6234H14.7866C14.9162 11.6766 15.1423 11.6067 15.2453 11.5702C15.232 11.5923 15.2243 11.62 15.2221 11.6533L15.232 11.7663C15.232 11.8428 15.1822 11.8727 15.1788 11.8727L15.1888 11.8993L15.4548 11.8195C15.5146 11.8029 15.5379 11.7663 15.5478 11.7364C15.6509 11.9824 15.8138 12.0023 15.8238 12.0057H15.8337L15.837 11.9957C15.8546 11.9533 15.8658 11.9084 15.8703 11.8627L15.9501 11.8594V11.8428C15.9501 11.8206 15.9456 11.8007 15.9368 11.7829L15.9833 11.8095L16.0265 11.8029C16.0365 11.8461 16.0897 11.8827 16.0963 11.886L16.113 11.896L16.1229 11.8394C16.1894 11.896 16.2792 11.8793 16.2858 11.8793L16.2958 11.876V11.8627C16.2825 11.773 16.2227 11.6666 16.1861 11.6101C16.3025 11.6633 16.5152 11.6599 16.5252 11.6599H16.5385V11.6433C16.4947 11.5333 16.4316 11.432 16.3523 11.3441C16.6249 11.394 16.7712 11.251 16.7778 11.2444L16.7878 11.2344L16.7745 11.2278C16.655 11.1425 16.5255 11.0721 16.3889 11.0183L16.4188 11.0117L16.3856 10.9951C16.3258 10.9648 16.2598 10.9489 16.1927 10.9485C16.1595 10.9086 16.1429 10.9053 16.1396 10.902C15.9534 10.8821 15.8869 10.8322 15.8603 10.7923V10.7823L15.867 10.7723C15.8825 10.7502 15.8902 10.7214 15.8902 10.6859C15.8902 10.5995 15.847 10.5031 15.847 10.4998L15.8204 10.5097Z" fill="black"/>
<path d="M14.9727 10.4564C14.9727 10.4564 14.9528 10.5561 14.8664 10.606C14.7999 10.6414 14.7157 10.6381 14.6137 10.596L14.6004 10.5927V10.606C14.6078 10.6487 14.6317 10.6869 14.6669 10.7123C14.7112 10.7456 14.7766 10.7589 14.863 10.7522C14.8331 10.7855 14.7434 10.8985 14.7434 11.0115V11.0282C14.7567 11.0348 14.8963 11.0747 14.9628 10.9916C14.9628 11.0248 14.9761 11.1412 15.0193 11.1844C15.0437 11.2132 15.0547 11.2431 15.0525 11.2742C15.0503 11.303 15.0481 11.3185 15.0459 11.3207L15.0392 11.3406L15.0558 11.3273C15.0625 11.324 15.1921 11.2276 15.232 11.1046C15.232 11.1046 15.2553 11.0714 15.2952 11.0614V11.078C15.2952 11.1279 15.3151 11.2143 15.4548 11.2675L15.4647 11.2708V11.2376C15.4647 11.201 15.4647 11.1379 15.5013 11.1046C15.5152 11.0904 15.5245 11.0724 15.528 11.0528C15.5316 11.0333 15.5292 11.0131 15.5212 10.9949C15.5512 11.0016 15.6177 11.0248 15.6442 11.0747C15.6841 11.1478 15.8204 11.088 15.8271 11.088L15.8238 11.0714C15.8238 11.0714 15.7639 11.0847 15.7274 11.0614C15.7195 11.0555 15.7131 11.048 15.7085 11.0394C15.7039 11.0308 15.7013 11.0213 15.7008 11.0115L15.6941 10.9317C15.6941 10.8985 15.6864 10.8741 15.6708 10.8586C15.6875 10.8586 15.724 10.8586 15.7373 10.8919C15.7639 10.945 15.847 10.9484 15.8504 10.9484L15.8803 10.9517L15.857 10.9351C15.857 10.9351 15.7839 10.8885 15.7972 10.8254L15.8071 10.7788C15.8271 10.6957 15.8603 10.5594 15.8304 10.473L15.8171 10.4796C15.8238 10.5018 15.8271 10.5262 15.8271 10.5528C15.8271 10.6259 15.8038 10.719 15.7938 10.7755L15.7805 10.822V10.8387C15.785 10.883 15.7994 10.9129 15.8238 10.9284C15.8005 10.9251 15.7672 10.9118 15.7573 10.8852C15.734 10.8387 15.6808 10.8387 15.6575 10.842L15.6376 10.8453L15.6509 10.8586C15.6731 10.8697 15.6819 10.8952 15.6775 10.9351L15.6841 11.0115C15.6886 11.0381 15.6997 11.0581 15.7174 11.0714C15.7395 11.0825 15.7584 11.088 15.7739 11.088C15.734 11.098 15.6775 11.1046 15.6575 11.068C15.621 10.9949 15.5146 10.9783 15.5113 10.975H15.4947L15.5013 10.9883C15.5013 10.9883 15.5146 11.0082 15.5146 11.0348C15.5146 11.0525 15.5068 11.0714 15.4913 11.0913C15.4548 11.1279 15.4481 11.1977 15.4481 11.2343V11.2476C15.3284 11.1977 15.3085 11.1246 15.3085 11.0813V11.0481L15.3151 11.0381H15.3018C15.2847 11.0421 15.2686 11.0495 15.2543 11.0597C15.24 11.07 15.2279 11.083 15.2187 11.098C15.1857 11.1792 15.1318 11.2503 15.0625 11.3041L15.0658 11.2708C15.068 11.2398 15.057 11.2077 15.0326 11.1744C14.9827 11.1279 14.9761 10.975 14.9761 10.975V10.9484L14.9628 10.9716C14.9096 11.0647 14.7567 11.0182 14.7533 11.0182C14.7467 10.9018 14.8863 10.7489 14.8863 10.7456L14.8996 10.7323H14.8797C14.791 10.7434 14.7223 10.7323 14.6736 10.699C14.6478 10.6774 14.6293 10.6484 14.6204 10.6159C14.7201 10.6536 14.8043 10.6547 14.873 10.6193C14.9023 10.6025 14.9276 10.5795 14.9471 10.5519C14.9666 10.5244 14.9799 10.4929 14.986 10.4597C15.0858 10.2403 15.1689 10.2037 15.1689 10.2037L15.1655 10.1904C15.1589 10.1904 15.0725 10.2237 14.9727 10.4564Z" fill="black"/>
<path d="M15.1955 10.1275H15.1888L15.109 10.2372H15.1323C15.3804 10.2567 15.613 10.3653 15.7872 10.543L15.7972 10.553L15.8736 10.4699L15.867 10.4599C15.6509 10.1208 15.1988 10.1275 15.1921 10.1275H15.1955ZM15.2021 10.1574C15.2553 10.1574 15.6409 10.1673 15.8404 10.4665L15.7972 10.5131C15.6218 10.3464 15.3962 10.2424 15.1556 10.2172L15.2021 10.1574Z" fill="black"/>
<path d="M15.1323 10.3534C15.0965 10.4001 15.0726 10.4549 15.0625 10.5129L15.0658 10.5262C15.0422 10.5501 15.024 10.5788 15.0126 10.6104C15.0011 10.6419 14.9966 10.6756 14.9993 10.7091C14.9993 10.7534 15.006 10.7955 15.0193 10.8354L15.0293 10.8586C15.0692 10.9717 15.1057 11.0714 15.2886 11.0116C15.4614 10.9584 15.4681 10.9451 15.5113 10.8719L15.5246 10.8553C15.5479 10.8154 15.5744 10.8088 15.601 10.7988C15.6343 10.7888 15.6675 10.7789 15.7008 10.719L15.7274 10.6758C15.7606 10.6326 15.8005 10.5761 15.8038 10.5096H15.7905C15.7803 10.5672 15.7551 10.6211 15.7174 10.6658L15.6841 10.7124C15.676 10.7302 15.664 10.746 15.6491 10.7586C15.6342 10.7712 15.6166 10.7804 15.5977 10.7855C15.58 10.7891 15.5632 10.7962 15.5483 10.8065C15.5335 10.8168 15.5209 10.83 15.5113 10.8454L15.498 10.8653C15.4581 10.9351 15.4514 10.9451 15.2819 10.9983C15.1124 11.0515 15.0825 10.9683 15.0426 10.852L15.0326 10.8287C14.986 10.7024 15.0226 10.5761 15.0858 10.5295L15.1057 10.5129L15.0758 10.5162V10.5129C15.0758 10.4897 15.0991 10.4265 15.1423 10.3633C15.1822 10.3101 15.2753 10.2603 15.2753 10.2569L15.2686 10.2437C15.262 10.247 15.1722 10.3002 15.1323 10.3534Z" fill="black"/>
<path d="M15.0525 10.8154C15.0813 10.8331 15.1223 10.8331 15.1755 10.8154C15.1755 10.832 15.1755 10.8719 15.2088 10.8985C15.2486 10.9318 15.3096 10.9384 15.3916 10.9185V10.9018C15.3118 10.9218 15.2542 10.9162 15.2187 10.8852C15.2082 10.8749 15.2 10.8625 15.1948 10.8487C15.1896 10.8349 15.1876 10.8201 15.1888 10.8054V10.7921L15.1788 10.7988C15.1301 10.8209 15.0902 10.8209 15.0592 10.7988C15.0093 10.7655 15.0126 10.6758 15.0126 10.6758H14.9993C14.9993 10.6758 14.9927 10.7755 15.0525 10.8154Z" fill="black"/>
<path d="M15.1456 10.6925C15.1279 10.7014 15.119 10.7136 15.119 10.7291V10.739C15.1257 10.7789 15.1689 10.8055 15.2054 10.8155C15.242 10.8255 15.2919 10.8288 15.3085 10.8055C15.3174 10.7967 15.3174 10.7778 15.3085 10.749C15.2942 10.721 15.2697 10.6995 15.24 10.6889C15.2103 10.6784 15.1777 10.6797 15.1489 10.6925H15.1456ZM15.2121 10.8022C15.1788 10.7922 15.139 10.769 15.1356 10.7357C15.1356 10.7357 15.1323 10.7124 15.1522 10.7058C15.1779 10.6954 15.2066 10.6951 15.2325 10.7049C15.2584 10.7148 15.2796 10.7341 15.2919 10.759C15.3007 10.7745 15.3018 10.7856 15.2952 10.7922C15.2852 10.8089 15.2487 10.8122 15.2121 10.8022ZM15.1988 10.892C15.1888 10.9751 15.1988 10.9784 15.2021 10.9784H15.2088L15.2154 10.9751L15.2619 10.9086L15.2021 10.882V10.892H15.1988ZM15.2154 10.9053L15.2387 10.9152L15.2121 10.9518L15.2154 10.9053ZM15.0758 10.8255L15.0725 10.9019L15.1389 10.8221L15.0725 10.8155L15.0758 10.8255ZM15.0891 10.8321H15.109L15.0891 10.8587V10.8321Z" fill="black"/>
<path d="M15.0292 10.7988C15.0292 10.7988 15.0791 10.8952 15.0891 10.9318C15.0957 10.9539 15.1179 10.9728 15.1556 10.9883C15.1932 11.0038 15.2232 11.0027 15.2453 10.985L15.2885 10.9484C15.2996 10.9329 15.3107 10.9273 15.3218 10.9318V10.9151C15.3041 10.9151 15.2896 10.9218 15.2786 10.9351L15.2354 10.9683C15.2088 10.9883 15.1788 10.9816 15.1622 10.975C15.1268 10.9617 15.1068 10.9451 15.1024 10.9251C15.0924 10.8919 15.0459 10.7955 15.0425 10.7921L15.0292 10.7988ZM15.0957 10.5129C15.0582 10.5326 15.0297 10.5659 15.0159 10.606L15.0292 10.6093C15.0292 10.6093 15.0525 10.5495 15.0991 10.5262C15.1116 10.5207 15.1252 10.5179 15.1389 10.5179C15.1527 10.5179 15.1663 10.5207 15.1788 10.5262L15.1822 10.5129C15.1511 10.4996 15.1212 10.4996 15.0924 10.5129H15.0957ZM15.4548 10.6858C15.4614 10.6858 15.5611 10.7655 15.5046 10.8586L15.5146 10.8686C15.5811 10.7589 15.4647 10.6725 15.4647 10.6691L15.4548 10.6858ZM15.1489 10.6991C15.1489 10.6991 15.1323 10.7556 15.2154 10.7755C15.2154 10.7755 15.1389 10.7755 15.1323 10.7556C15.129 10.7356 15.1323 10.6924 15.1489 10.6991ZM15.3982 10.7655C15.3982 10.7722 15.3949 10.7755 15.3883 10.7755L15.3783 10.7689C15.3783 10.7622 15.3816 10.7589 15.3883 10.7589C15.3949 10.7589 15.3982 10.7622 15.3982 10.7689V10.7655ZM15.4049 10.8054C15.4049 10.8099 15.4027 10.8121 15.3982 10.8121L15.3883 10.8054L15.3982 10.7955C15.4027 10.7955 15.4049 10.7988 15.4049 10.8054Z" fill="black"/>
<path d="M15.3451 10.7956C15.3506 10.7956 15.355 10.7911 15.355 10.7856C15.355 10.7801 15.3506 10.7756 15.3451 10.7756C15.3395 10.7756 15.3351 10.7801 15.3351 10.7856C15.3351 10.7911 15.3395 10.7956 15.3451 10.7956Z" fill="black"/>
<path d="M15.3716 10.8387C15.3716 10.8413 15.3706 10.8439 15.3687 10.8457C15.3669 10.8476 15.3643 10.8487 15.3617 10.8487C15.359 10.8487 15.3565 10.8476 15.3546 10.8457C15.3528 10.8439 15.3517 10.8413 15.3517 10.8387C15.3517 10.8343 15.355 10.832 15.3617 10.832L15.3716 10.8387ZM15.1356 10.596C15.1356 10.5987 15.1346 10.6012 15.1327 10.6031C15.1308 10.6049 15.1283 10.606 15.1257 10.606C15.123 10.606 15.1205 10.6049 15.1186 10.6031C15.1167 10.6012 15.1157 10.5987 15.1157 10.596C15.1166 10.5946 15.1178 10.5935 15.1193 10.5927C15.1207 10.592 15.1223 10.5916 15.124 10.5916C15.1256 10.5916 15.1273 10.592 15.1287 10.5927C15.1302 10.5935 15.1314 10.5946 15.1323 10.596H15.1356Z" fill="black"/>
<path d="M15.1323 10.6425C15.1378 10.6425 15.1423 10.638 15.1423 10.6325C15.1423 10.627 15.1378 10.6226 15.1323 10.6226C15.1268 10.6226 15.1223 10.627 15.1223 10.6325C15.1223 10.638 15.1268 10.6425 15.1323 10.6425Z" fill="black"/>
<path d="M15.0824 10.6259C15.0879 10.6259 15.0924 10.6214 15.0924 10.6159C15.0924 10.6104 15.0879 10.606 15.0824 10.606C15.0769 10.606 15.0725 10.6104 15.0725 10.6159C15.0725 10.6214 15.0769 10.6259 15.0824 10.6259Z" fill="black"/>
<path d="M15.1057 10.6691L15.0991 10.6791C15.0964 10.6791 15.0939 10.678 15.092 10.6762C15.0901 10.6743 15.0891 10.6718 15.0891 10.6691C15.0891 10.6665 15.0901 10.6639 15.092 10.6621C15.0939 10.6602 15.0964 10.6592 15.0991 10.6592L15.1057 10.6691ZM15.2653 10.35C15.2653 10.35 15.3816 10.4231 15.2686 10.5594C15.2686 10.5594 15.3251 10.5162 15.3284 10.4464C15.3318 10.3766 15.2885 10.3201 15.2619 10.35H15.2653ZM15.714 10.5461C15.6742 10.5661 15.621 10.5295 15.5944 10.4963C15.5678 10.463 15.5113 10.453 15.4747 10.5162C15.4415 10.576 15.3916 10.5993 15.3916 10.5993C15.3916 10.5993 15.4415 10.5727 15.4913 10.5162C15.5412 10.4597 15.5711 10.5062 15.621 10.5328C15.6675 10.5594 15.6775 10.5661 15.7107 10.5495V10.5461H15.714Z" fill="black"/>
<path d="M15.7041 10.5561C15.6929 10.5628 15.68 10.566 15.667 10.5654C15.654 10.5649 15.6415 10.5605 15.6309 10.5528C15.5977 10.5262 15.5744 10.493 15.5379 10.5129C15.498 10.5329 15.4282 10.5861 15.4282 10.5861C15.4282 10.5861 15.5445 10.5063 15.5678 10.5262C15.5877 10.5428 15.6409 10.5861 15.6708 10.5728L15.7041 10.5561Z" fill="black"/>
<path d="M15.6143 10.6028C15.5778 10.5762 15.5412 10.6361 15.5113 10.6294C15.478 10.6228 15.4548 10.5696 15.4548 10.5696C15.4548 10.5696 15.4814 10.6228 15.5212 10.6128C15.5645 10.5995 15.5911 10.5729 15.6176 10.5929C15.6442 10.6128 15.6143 10.6028 15.6143 10.6028Z" fill="black"/>
<path d="M15.5578 10.6127C15.5483 10.6147 15.5385 10.6145 15.5291 10.6123C15.5196 10.61 15.5108 10.6057 15.5032 10.5997C15.4956 10.5937 15.4894 10.5861 15.4851 10.5774C15.4807 10.5688 15.4783 10.5593 15.478 10.5496C15.478 10.5496 15.5013 10.6094 15.5645 10.5994L15.5578 10.6127Z" fill="black"/>
<path d="M15.5545 10.5661C15.5611 10.5838 15.5556 10.5927 15.5379 10.5927C15.5135 10.5927 15.5024 10.5838 15.5046 10.5661C15.5046 10.5495 15.5512 10.5528 15.5545 10.5661ZM15.2952 10.4664C15.2932 10.4713 15.29 10.4757 15.286 10.4792C15.2819 10.4827 15.2771 10.4851 15.2719 10.4863C15.2586 10.4863 15.2531 10.4797 15.2553 10.4664C15.2586 10.4464 15.2553 10.4431 15.2719 10.4431C15.2885 10.4431 15.2952 10.4531 15.2952 10.4664Z" fill="black"/>
<path d="M15.2121 10.3833C15.2121 10.3833 15.3384 10.3833 15.2786 10.5396C15.2786 10.5396 15.3251 10.4631 15.2952 10.4066C15.2619 10.3534 15.2187 10.3667 15.2187 10.3667C15.2187 10.3667 15.2054 10.3767 15.2121 10.3833Z" fill="black"/>
<path d="M15.2121 10.4465C15.2121 10.4775 15.232 10.5097 15.2719 10.5429L15.2819 10.5296C15.2442 10.5008 15.2254 10.4731 15.2254 10.4465C15.2254 10.4066 15.2453 10.4033 15.2453 10.4033L15.2353 10.3933C15.2353 10.3933 15.2121 10.4133 15.2088 10.4465H15.2121Z" fill="black"/>
<path d="M15.2387 10.473C15.2431 10.4908 15.2564 10.5041 15.2786 10.5129L15.2852 10.4996C15.2675 10.493 15.2564 10.4819 15.252 10.4664C15.2453 10.4398 15.2653 10.4099 15.2653 10.4099L15.252 10.3999C15.252 10.3999 15.2287 10.4398 15.2387 10.473ZM15.4082 10.5595C15.4082 10.5595 15.4315 10.6093 15.3982 10.6625L15.365 10.7157C15.365 10.7157 15.4049 10.6393 15.3883 10.6093C15.3716 10.5794 15.4082 10.5595 15.4082 10.5595ZM15.8936 11.0847C16.0199 11.108 16.3091 11.334 16.3091 11.334L16.3257 11.3141C16.3157 11.3041 16.0299 11.0814 15.8969 11.0581L15.8936 11.0847ZM16.0066 11.4005C16.0132 11.5169 16.1396 11.5867 16.1396 11.59L16.1562 11.5667C16.1562 11.5667 16.0398 11.5002 16.0332 11.4005H16.0066ZM15.6974 11.4271C15.6974 11.5534 15.8171 11.7064 15.8238 11.713L15.8437 11.6964C15.8437 11.6964 15.724 11.5435 15.724 11.4271H15.6974ZM15.2952 11.4404C15.3129 11.4825 15.3174 11.5069 15.3085 11.5135C15.2974 11.5246 15.2908 11.5291 15.2885 11.5268L15.2919 11.5534C15.3052 11.5534 15.3185 11.5446 15.3318 11.5268C15.3451 11.5047 15.3406 11.4714 15.3185 11.4271L15.2952 11.4404Z" fill="black"/>
<path d="M13.48 10.8149C13.48 10.8149 13.485 10.8999 13.55 10.9499C13.55 10.9499 13.545 10.8599 13.565 10.8199C13.565 10.8199 13.53 10.7799 13.48 10.8149ZM13.61 10.8649C13.61 10.8649 13.625 10.9449 13.67 10.9799L13.7 10.9749C13.7 10.9749 13.71 10.8749 13.725 10.8649C13.74 10.8549 13.66 10.8999 13.61 10.8649Z" fill="white" stroke="black" stroke-width="0.01" stroke-miterlimit="3"/>
<path d="M13.725 10.8651L13.775 10.9451L13.835 10.9101L13.825 10.8201C13.825 10.8201 13.79 10.8101 13.725 10.8651ZM13.96 10.8801L13.895 10.9351C13.895 10.9351 13.86 10.9101 13.835 10.9101L13.845 10.8251C13.845 10.8251 13.895 10.7901 13.96 10.8801ZM13.495 11.6801C13.495 11.6801 13.485 11.5601 13.495 11.5551C13.495 11.5551 13.545 11.5701 13.565 11.5551C13.565 11.5551 13.59 11.6451 13.585 11.6851C13.575 11.7251 13.53 11.7101 13.495 11.6851V11.6801ZM13.795 11.5601C13.795 11.5601 13.79 11.4601 13.805 11.4451C13.805 11.4451 13.905 11.4601 13.925 11.4051L13.96 11.5051C13.96 11.5051 13.855 11.4901 13.79 11.5551L13.795 11.5601Z" fill="white"/>
<path d="M13.835 10.9101L13.775 10.9451L13.725 10.8651C13.79 10.8101 13.825 10.8201 13.825 10.8201L13.835 10.9101ZM13.835 10.9101C13.86 10.9101 13.895 10.9351 13.895 10.9351L13.96 10.8801C13.895 10.7901 13.845 10.8251 13.845 10.8251L13.835 10.9101ZM13.495 11.6801C13.495 11.6801 13.485 11.5601 13.495 11.5551C13.495 11.5551 13.545 11.5701 13.565 11.5551C13.565 11.5551 13.59 11.6451 13.585 11.6851C13.575 11.7251 13.53 11.7101 13.495 11.6851V11.6801ZM13.795 11.5601C13.795 11.5601 13.79 11.4601 13.805 11.4451C13.805 11.4451 13.905 11.4601 13.925 11.4051L13.96 11.5051C13.96 11.5051 13.855 11.4901 13.79 11.5551L13.795 11.5601Z" stroke="black" stroke-width="0.01" stroke-miterlimit="3"/>
<path d="M13.69 11.5798C13.69 11.5798 13.705 11.4748 13.725 11.4698C13.725 11.4698 13.775 11.4848 13.79 11.4648V11.5948C13.79 11.5948 13.79 11.5398 13.69 11.5798ZM13.575 11.5948C13.575 11.5948 13.6 11.4998 13.615 11.4998C13.63 11.4998 13.665 11.5248 13.685 11.5098V11.5798C13.685 11.5798 13.605 11.5598 13.59 11.6748L13.575 11.5948Z" fill="white" stroke="black" stroke-width="0.01" stroke-miterlimit="3"/>
<path d="M15.085 13.5198C15.085 13.5198 15.345 13.7648 15.28 13.9798C15.28 13.9798 15.445 13.6148 15.265 13.5048C15.085 13.4048 15.08 13.4798 15.085 13.5198Z" fill="#00A651" stroke="black" stroke-width="0.025" stroke-miterlimit="4.8"/>
<path d="M14.75 13.755C14.75 13.755 14.685 13.855 14.76 13.92C14.76 13.92 14.675 14.04 14.74 14.14C14.74 14.14 14.69 14.245 14.7 14.36C14.7 14.36 14.66 14.535 14.75 14.615C14.75 14.615 14.85 14.665 14.9 14.62C14.9 14.62 14.985 14.49 14.93 14.355C14.93 14.355 14.99 14.24 14.92 14.095C14.92 14.095 14.94 14.015 14.885 13.92C14.885 13.92 14.92 13.86 14.89 13.81C14.89 13.81 14.765 13.675 14.75 13.76V13.755Z" fill="#964B36" stroke="black" stroke-width="0.025" stroke-miterlimit="4.8"/>
<path d="M14.825 13.45C14.825 13.45 14.515 12.85 14.295 12.825C14.075 12.8 14.065 12.585 14.065 12.585C14.065 12.585 14.09 12.685 14.265 12.685C14.44 12.685 14.775 12.935 14.815 13.12C14.85 13.305 14.89 13.28 14.89 13.28L14.825 13.45Z" fill="#00A651" stroke="black" stroke-width="0.025" stroke-miterlimit="4.8"/>
<path d="M14.825 13.405C14.825 13.405 14.94 12.65 15.435 12.635C15.93 12.625 15.765 12.675 15.885 12.595C15.885 12.595 15.555 12.765 15.35 12.795C15.14 12.815 14.97 13.22 14.98 13.295C14.98 13.37 14.865 13.515 14.81 13.465C14.755 13.415 14.825 13.405 14.825 13.405Z" fill="#00A651" stroke="black" stroke-width="0.025" stroke-miterlimit="4.8"/>
<path d="M14.94 13.69C14.94 13.69 15.055 13.39 15.245 13.49C15.245 13.49 15.095 13.2 14.825 13.45C14.825 13.45 14.945 13.615 14.94 13.69ZM14.565 13.39C14.565 13.39 14.725 14.06 14.475 14.265C14.475 14.265 14.485 13.92 14.33 13.715C14.18 13.505 14.48 13.28 14.565 13.39Z" fill="#00A651" stroke="black" stroke-width="0.025" stroke-miterlimit="4.8"/>
<path d="M14.585 13.5049C14.585 13.5049 14.88 13.7899 14.895 13.8849C14.915 13.9749 14.985 13.5999 14.845 13.4949C14.705 13.3899 14.56 13.3699 14.56 13.3699L14.585 13.5099V13.5049Z" fill="#00A651" stroke="black" stroke-width="0.025" stroke-miterlimit="4.8"/>
<path d="M14.04 14.2501C14.04 14.2501 14.065 14.3651 14.14 14.3901C14.14 14.3901 14.14 14.4751 14.21 14.5001C14.21 14.5001 14.175 14.5751 14.23 14.6201C14.23 14.6201 14.22 14.7701 14.27 14.7951C14.27 14.7951 14.405 14.7901 14.45 14.7501C14.45 14.7501 14.475 14.6551 14.4 14.5601C14.4 14.5601 14.415 14.4701 14.34 14.4201C14.34 14.4201 14.365 14.2951 14.27 14.2501C14.27 14.2501 14.255 14.1501 14.2 14.1001C14.2 14.1001 14.09 14.2551 14.04 14.2501Z" fill="#964B36" stroke="black" stroke-width="0.025" stroke-miterlimit="4.8"/>
<path d="M14.185 14.0999C14.185 14.0999 13.8 13.9599 13.585 14.1599C13.585 14.1599 13.915 14.2099 13.955 14.2749C13.995 14.3399 14.2 14.1649 14.185 14.0999Z" fill="#00A651" stroke="black" stroke-width="0.025" stroke-miterlimit="4.8"/>
<path d="M14.065 14.3398L13.995 14.2898C13.96 14.2598 13.635 14.1748 13.59 14.4898C13.59 14.4898 13.47 14.1748 13.64 14.1398C13.815 14.0898 13.95 14.1898 14.065 14.3398ZM13.815 13.6998C13.815 13.6998 13.93 13.9598 13.975 13.9698C14.02 13.9798 14.05 13.9398 14.05 13.9398C14.05 13.9398 13.895 13.7098 13.81 13.6998H13.815ZM13.725 13.3048C13.725 13.3048 13.625 12.9748 13.505 13.0648C13.385 13.1548 13.415 13.3898 13.415 13.3898C13.415 13.3898 13.18 13.1398 13.315 12.9498C13.45 12.7598 13.725 12.9698 13.725 13.3048Z" fill="#00A651" stroke="black" stroke-width="0.025" stroke-miterlimit="4.8"/>
<path d="M13.995 13.99C13.995 13.99 13.995 14.055 14.04 14.07C14.085 14.085 14.165 14.12 14.165 14.085C14.165 14.05 14.1 13.9 14.075 13.92C14.05 13.94 14.005 13.94 13.995 13.99Z" fill="#964B36" stroke="black" stroke-width="0.025" stroke-miterlimit="4.8"/>
<path d="M13.92 13.6C13.92 13.6 13.905 13.315 14.095 13.205C14.095 13.205 14.13 13.215 14.15 13.155C14.15 13.155 14 13.52 14.045 13.705L14.04 13.725" fill="#00A651"/>
<path d="M13.92 13.6C13.92 13.6 13.905 13.315 14.095 13.205C14.095 13.205 14.13 13.215 14.15 13.155C14.15 13.155 14 13.52 14.045 13.705L14.04 13.725" stroke="black" stroke-width="0.025" stroke-miterlimit="4.8"/>
<path d="M13.955 13.2499C13.955 13.2499 14.295 12.5499 14.705 12.7949C14.705 12.7949 14.275 12.8799 14.12 13.1899L13.965 13.4199L13.955 13.2499Z" fill="#00A651" stroke="black" stroke-width="0.025" stroke-miterlimit="4.8"/>
<path d="M13.775 13.505C13.775 13.505 13.675 13.035 13.61 12.975C13.55 12.91 13.445 12.845 13.315 12.95C13.315 12.95 13.535 12.755 13.765 12.92C14 13.08 13.95 13.34 13.95 13.34L13.925 13.665L13.77 13.52" fill="#00A651"/>
<path d="M13.775 13.505C13.775 13.505 13.675 13.035 13.61 12.975C13.55 12.91 13.445 12.845 13.315 12.95C13.315 12.95 13.535 12.755 13.765 12.92C14 13.08 13.95 13.34 13.95 13.34L13.925 13.665L13.77 13.52" stroke="black" stroke-width="0.025" stroke-miterlimit="4.8"/>
<path d="M14.14 14.0649C14.14 14.0649 13.725 13.2799 13.455 13.8399C13.455 13.8399 13.405 13.9849 13.46 14.0399C13.46 14.0399 13.31 13.9249 13.38 13.6499C13.45 13.3749 13.905 13.4999 14.04 13.7249C14.175 13.9499 14.205 14.0649 14.19 14.0749C14.17 14.0899 14.14 14.0649 14.14 14.0649ZM15.305 14.2899C15.305 14.2899 15.605 13.6699 15.78 13.9499C15.78 13.9499 15.83 14.0899 15.755 14.1499C15.755 14.1499 15.635 13.9999 15.53 14.1799C15.42 14.3549 15.465 14.3399 15.465 14.3399C15.465 14.3399 15.355 14.3699 15.305 14.2899Z" fill="#00A651" stroke="black" stroke-width="0.025" stroke-miterlimit="4.8"/>
<path d="M15.75 14.15C15.75 14.15 15.915 14.235 15.86 14.41C15.86 14.41 16.08 13.99 15.78 13.95C15.78 13.95 15.835 14.085 15.755 14.15H15.75ZM15.775 13.72C15.775 13.72 16.17 13.835 16.18 14.005C16.18 14.005 16.25 13.675 16.025 13.575C16.025 13.575 15.755 13.625 15.775 13.725V13.72Z" fill="#00A651" stroke="black" stroke-width="0.025" stroke-miterlimit="4.8"/>
<path d="M15.95 13.2C16.12 12.87 16.33 13.305 16.33 13.305C16.33 13.305 16.405 12.96 16.195 12.9C15.98 12.835 15.845 13.635 15.845 13.635L15.595 13.685C15.595 13.685 15.66 12.995 16.035 12.935H16.085" fill="#00A651"/>
<path d="M15.95 13.2C16.12 12.87 16.33 13.305 16.33 13.305C16.33 13.305 16.405 12.96 16.195 12.9C15.98 12.835 15.845 13.635 15.845 13.635L15.595 13.685C15.595 13.685 15.66 12.995 16.035 12.935H16.085" stroke="black" stroke-width="0.025" stroke-miterlimit="4.8"/>
<path d="M15.65 13.3998C15.65 13.3998 15.41 12.9098 15.25 12.8598C15.09 12.8098 15.335 12.7348 15.435 12.8298C15.535 12.9248 15.725 13.0448 15.705 13.2948L15.65 13.3998ZM15.4 14.0698C15.4 14.0698 15.47 13.7398 15.66 13.6398C15.85 13.5398 16.025 13.5748 16.025 13.5748C16.025 13.5748 15.8 13.6248 15.76 13.7398C15.72 13.8548 15.66 13.8598 15.66 13.8598L15.4 14.0698Z" fill="#00A651" stroke="black" stroke-width="0.025" stroke-miterlimit="4.8"/>
<path d="M15.3 14.29C15.3 14.29 15.2 14.49 15.22 14.52C15.22 14.52 15.11 14.685 15.155 14.77C15.155 14.77 15.265 14.855 15.315 14.82C15.315 14.82 15.445 14.635 15.41 14.535C15.41 14.535 15.5 14.415 15.465 14.34C15.465 14.34 15.335 14.345 15.305 14.29H15.3Z" fill="#964B36" stroke="black" stroke-width="0.025" stroke-miterlimit="4.8"/>
<path d="M14.75 13.9299C14.76 13.9349 14.825 13.9649 14.865 13.9499L14.895 13.9249L14.87 13.9149C14.855 13.9449 14.785 13.9199 14.765 13.9099L14.755 13.9299H14.75ZM14.745 14.1299L14.735 14.1549C14.74 14.1549 14.87 14.1799 14.93 14.1249L14.91 14.1049C14.86 14.1499 14.745 14.1249 14.74 14.1249L14.745 14.1299ZM14.71 14.3499L14.695 14.3699C14.695 14.3699 14.845 14.4749 14.94 14.3599L14.915 14.3449C14.84 14.4399 14.715 14.3549 14.71 14.3449V14.3499ZM14.135 14.3799L14.14 14.3949C14.145 14.3949 14.27 14.3449 14.28 14.2499H14.265C14.26 14.3299 14.14 14.3799 14.135 14.3799ZM14.205 14.4949V14.5099C14.215 14.5099 14.33 14.4999 14.35 14.4199H14.335C14.315 14.4849 14.21 14.4949 14.205 14.4949ZM14.23 14.6149V14.6299C14.235 14.6299 14.365 14.6349 14.41 14.5649L14.395 14.5549C14.355 14.6199 14.23 14.6149 14.23 14.6149ZM15.215 14.5299C15.215 14.5299 15.27 14.5899 15.335 14.5849C15.3514 14.5857 15.3677 14.5825 15.3825 14.5755C15.3973 14.5685 15.4102 14.558 15.42 14.5449L15.4 14.5249C15.38 14.5482 15.3583 14.5599 15.335 14.5599C15.285 14.5599 15.235 14.5099 15.235 14.5099L15.215 14.5299Z" fill="#000001"/>
<path d="M19.1 14.9898L19.085 15.0048L19.105 14.9898H19.1ZM19.565 14.8748C19.5583 14.8682 19.5533 14.8648 19.55 14.8648L19.53 14.8248H19.515L19.48 14.7548V14.7198C19.48 14.7198 19.47 14.7198 19.465 14.7098V14.6298L19.46 14.6048L19.445 14.5498V14.4998C19.445 14.4832 19.4433 14.4665 19.44 14.4498L19.445 14.4048V14.1348L19.44 14.0848L19.435 14.0648V13.9848V14.1148L19.425 13.8998L19.255 13.8198C19.255 13.8198 19.24 14.1298 19.245 14.1698C19.245 14.2148 19.265 14.5048 19.255 14.5398L19.23 14.7548C19.23 14.7548 19.15 14.8148 19.12 14.8748C19.085 14.9398 19.095 14.9598 19.085 14.9598L19.16 14.9498L19.105 14.9898L19.14 14.9948L19.15 15.0048L19.16 14.9948C19.175 14.9948 19.185 15.0148 19.195 15.0098L19.215 14.9998L19.225 14.9798H19.28C19.2967 14.9732 19.3117 14.9615 19.325 14.9448C19.335 14.9348 19.3467 14.9298 19.36 14.9298C19.3733 14.9332 19.39 14.9382 19.41 14.9448C19.42 14.9448 19.4283 14.9415 19.435 14.9348L19.455 14.9048L19.495 14.8998L19.515 14.9048H19.545L19.56 14.9148L19.57 14.8948L19.565 14.8748Z" fill="#964B36"/>
<path d="M19.105 14.9898L19.085 15.0048L19.1 14.9898H19.105ZM19.105 14.9898L19.16 14.9498L19.085 14.9598C19.095 14.9598 19.085 14.9398 19.12 14.8748C19.15 14.8148 19.23 14.7548 19.23 14.7548L19.255 14.5398C19.265 14.5048 19.245 14.2148 19.245 14.1698C19.24 14.1298 19.255 13.8198 19.255 13.8198L19.425 13.8998L19.435 14.1148V13.9848V14.0648L19.44 14.0848L19.445 14.1348V14.4048L19.44 14.4498C19.4433 14.4665 19.445 14.4832 19.445 14.4998V14.5498L19.46 14.6048L19.465 14.6298V14.7098C19.47 14.7198 19.48 14.7198 19.48 14.7198V14.7548L19.515 14.8248H19.53L19.55 14.8648C19.5533 14.8648 19.5583 14.8682 19.565 14.8748L19.57 14.8948L19.56 14.9148L19.545 14.9048H19.515L19.495 14.8998L19.455 14.9048L19.435 14.9348C19.4283 14.9415 19.42 14.9448 19.41 14.9448C19.39 14.9382 19.3733 14.9332 19.36 14.9298C19.3467 14.9298 19.335 14.9348 19.325 14.9448C19.3117 14.9615 19.2967 14.9732 19.28 14.9798H19.225L19.215 14.9998L19.195 15.0098C19.185 15.0148 19.175 14.9948 19.16 14.9948L19.15 15.0048L19.14 14.9948L19.105 14.9898Z" stroke="black" stroke-width="0.015" stroke-miterlimit="4.8"/>
<path d="M19.225 14.9848H19.255V14.9948H19.265L19.28 15.0048H19.295L19.315 15.0098C19.325 15.0131 19.335 15.0115 19.345 15.0048C19.355 14.9981 19.365 15.0015 19.375 15.0148C19.3783 15.0215 19.3817 15.0215 19.385 15.0148L19.39 15.0098L19.405 15.0048L19.42 14.9998L19.44 14.9898L19.46 14.9998H19.47L19.505 14.9748C19.5183 14.9715 19.53 14.9715 19.54 14.9748H19.575C19.575 14.9715 19.5783 14.9665 19.585 14.9598L19.62 14.9798C19.625 14.9848 19.655 14.9898 19.65 14.9698C19.645 14.9498 19.63 14.9648 19.625 14.9498V14.9198L19.61 14.8998H19.59L19.58 14.8698L19.565 14.8798C19.5583 14.8798 19.5533 14.8748 19.55 14.8648C19.535 14.8498 19.53 14.8748 19.515 14.8698C19.505 14.8631 19.4967 14.8515 19.49 14.8348C19.4833 14.8181 19.475 14.8115 19.465 14.8148C19.4583 14.8248 19.4583 14.8365 19.465 14.8498H19.44C19.4333 14.8498 19.4283 14.8531 19.425 14.8598C19.4183 14.8831 19.4067 14.8931 19.39 14.8898H19.37L19.345 14.8998H19.325L19.305 14.8798C19.305 14.8785 19.3045 14.8772 19.3035 14.8763C19.3026 14.8753 19.3013 14.8748 19.3 14.8748C19.2987 14.8748 19.2974 14.8753 19.2965 14.8763C19.2955 14.8772 19.295 14.8785 19.295 14.8798L19.29 14.8698C19.2833 14.8698 19.2783 14.8748 19.275 14.8848L19.27 14.9098L19.255 14.9298L19.235 14.9348C19.225 14.9348 19.215 14.9498 19.215 14.9348C19.205 14.9148 19.23 14.8798 19.205 14.8848C19.2017 14.8848 19.1967 14.8881 19.19 14.8948V14.9298C19.185 14.9448 19.155 14.9698 19.16 14.9798C19.16 14.9948 19.18 14.9798 19.18 14.9798L19.19 14.9998C19.2 15.0148 19.225 14.9798 19.225 14.9998M19.12 14.8648V14.8548L19.1 14.8498C19.09 14.8531 19.0817 14.8598 19.075 14.8698C19.065 14.8898 19.065 14.9198 19.045 14.9198H19.02V14.9698C19.02 14.9698 19.01 14.9698 19.01 14.9798C19.01 14.9931 19.0167 14.9965 19.03 14.9898H19.08L19.105 14.9848C19.115 14.9848 19.1233 14.9815 19.13 14.9748L19.14 14.9548V14.9348C19.1433 14.9315 19.1483 14.9248 19.155 14.9148C19.16 14.8798 19.125 14.9048 19.13 14.8698" fill="#964B36"/>
<path d="M19.225 14.9848H19.255V14.9948H19.265L19.28 15.0048H19.295L19.315 15.0098C19.325 15.0131 19.335 15.0115 19.345 15.0048C19.355 14.9981 19.365 15.0015 19.375 15.0148C19.3783 15.0215 19.3817 15.0215 19.385 15.0148L19.39 15.0098L19.405 15.0048L19.42 14.9998L19.44 14.9898L19.46 14.9998H19.47L19.505 14.9748C19.5183 14.9715 19.53 14.9715 19.54 14.9748H19.575C19.575 14.9715 19.5783 14.9665 19.585 14.9598L19.62 14.9798C19.625 14.9848 19.655 14.9898 19.65 14.9698C19.645 14.9498 19.63 14.9648 19.625 14.9498V14.9198L19.61 14.8998H19.59L19.58 14.8698L19.565 14.8798C19.5583 14.8798 19.5533 14.8748 19.55 14.8648C19.535 14.8498 19.53 14.8748 19.515 14.8698C19.505 14.8631 19.4967 14.8515 19.49 14.8348C19.4833 14.8181 19.475 14.8115 19.465 14.8148C19.4583 14.8248 19.4583 14.8365 19.465 14.8498H19.44C19.4333 14.8498 19.4283 14.8531 19.425 14.8598C19.4183 14.8831 19.4067 14.8931 19.39 14.8898H19.37L19.345 14.8998H19.325L19.305 14.8798C19.305 14.8785 19.3045 14.8772 19.3035 14.8763C19.3026 14.8753 19.3013 14.8748 19.3 14.8748C19.2987 14.8748 19.2974 14.8753 19.2965 14.8763C19.2955 14.8772 19.295 14.8785 19.295 14.8798L19.29 14.8698C19.2833 14.8698 19.2783 14.8748 19.275 14.8848L19.27 14.9098L19.255 14.9298L19.235 14.9348C19.225 14.9348 19.215 14.9498 19.215 14.9348C19.205 14.9148 19.23 14.8798 19.205 14.8848C19.2017 14.8848 19.1967 14.8881 19.19 14.8948V14.9298C19.185 14.9448 19.155 14.9698 19.16 14.9798C19.16 14.9948 19.18 14.9798 19.18 14.9798L19.19 14.9998C19.2 15.0148 19.225 14.9798 19.225 14.9998M19.12 14.8648V14.8548L19.1 14.8498C19.09 14.8531 19.0817 14.8598 19.075 14.8698C19.065 14.8898 19.065 14.9198 19.045 14.9198H19.02V14.9698C19.02 14.9698 19.01 14.9698 19.01 14.9798C19.01 14.9931 19.0167 14.9965 19.03 14.9898H19.08L19.105 14.9848C19.115 14.9848 19.1233 14.9815 19.13 14.9748L19.14 14.9548V14.9348C19.1433 14.9315 19.1483 14.9248 19.155 14.9148C19.16 14.8798 19.125 14.9048 19.13 14.8698" stroke="black" stroke-width="0.015" stroke-miterlimit="4.8"/>
<path d="M19.54 13.8948C19.5367 13.9448 19.5133 13.9715 19.47 13.9748C19.43 13.9715 19.4067 13.9448 19.4 13.8948C19.4067 13.8448 19.43 13.8182 19.47 13.8148C19.5133 13.8182 19.5367 13.8448 19.54 13.8948ZM19.315 13.7948C19.3117 13.8448 19.2883 13.8715 19.245 13.8748C19.18 13.8798 19.175 13.8398 19.175 13.7948C19.1817 13.7415 19.205 13.7148 19.245 13.7148C19.305 13.7148 19.315 13.7498 19.315 13.7948Z" fill="black" stroke="black" stroke-width="0.025" stroke-miterlimit="4.8"/>
<path d="M19.435 13.8249C19.4317 13.8782 19.4083 13.9049 19.365 13.9049C19.3217 13.9015 19.2983 13.8749 19.295 13.8249C19.2983 13.7749 19.3217 13.7482 19.365 13.7449C19.4083 13.7482 19.4317 13.7749 19.435 13.8249Z" fill="black" stroke="black" stroke-width="0.025" stroke-miterlimit="4.8"/>
<path d="M19.32 13.8998C19.3167 13.9498 19.2934 13.9765 19.25 13.9798C19.2067 13.9765 19.1834 13.9498 19.18 13.8998C19.1834 13.8498 19.2067 13.8232 19.25 13.8198C19.2934 13.8232 19.3167 13.8498 19.32 13.8998Z" fill="black" stroke="black" stroke-width="0.025" stroke-miterlimit="4.8"/>
<path d="M19.425 13.9649C19.4217 14.0115 19.3984 14.0382 19.355 14.0449C19.315 14.0415 19.2917 14.0149 19.285 13.9649C19.2917 13.9115 19.315 13.8832 19.355 13.8799C19.3984 13.8832 19.4217 13.9099 19.425 13.9599V13.9649Z" fill="black" stroke="black" stroke-width="0.025" stroke-miterlimit="4.8"/>
<path d="M19.46 13.075C19.46 13.075 20.155 12.105 20.9 13.11C20.9 13.11 20.905 13.21 20.835 13.32L20.82 13.235L20.77 13.25L20.76 13.2L20.68 13.195L20.705 13.085L20.62 13.155L20.63 13.08L20.53 13.18L20.545 12.965L20.435 13.15L20.45 13.025L20.41 13.08L20.39 13.005L20.355 13.08L20.305 13.045V13.095L20.215 13.02L20.185 13.12L20.14 13.01L20.13 13.085L20.085 13L20.08 13.095L19.935 13.03L19.965 13.12L19.9 13.07L19.91 13.12L19.815 13.1L19.825 13.155L19.725 13.135L19.74 13.185L19.605 13.17L19.655 13.22L19.64 13.25C19.64 13.25 20.39 13 20.44 13.94L20.305 14.005L20.345 13.93L20.305 13.905L20.19 13.82L20.225 13.7L20.185 13.715L20.18 13.645L20.16 13.655L20.115 13.59L20.105 13.615L20.075 13.53L20.04 13.59L20.025 13.45L19.975 13.54L19.965 13.49L19.95 13.52L19.885 13.445L19.865 13.495L19.84 13.455L19.825 13.505L19.755 13.435V13.485L19.705 13.45L19.69 13.475L19.585 13.42L19.58 13.47L19.52 13.42L19.505 13.47C19.505 13.47 20.185 13.86 19.975 14.49L19.935 14.57L19.925 14.36L19.86 14.47L19.905 14.225L19.86 14.275L19.855 14.175L19.8 14.275L19.78 14.165L19.755 14.195L19.715 14.035L19.685 14.1L19.635 13.92L19.595 13.995L19.57 13.84L19.545 13.935L19.47 13.795L19.46 13.85L19.415 13.74L19.39 13.775C19.39 13.775 19.265 13.77 19.225 13.74C19.185 13.71 19.085 13.925 19.085 13.925L19.095 13.795L19.05 13.885V13.795L18.97 14.06L18.95 13.87L18.91 14.035L18.89 13.985L18.875 14.05L18.85 14.025L18.83 14.1L18.79 14.07V14.17L18.75 14.12L18.72 14.27L18.7 14.21V14.275L18.67 14.24L18.64 14.39L18.59 14.325V14.435L18.605 14.515L18.555 14.49L18.575 14.62C18.575 14.62 18.38 14.26 18.615 13.91C18.845 13.56 19.16 13.46 19.16 13.46L19.125 13.43V13.4L18.935 13.495V13.44L18.885 13.48L18.875 13.42L18.845 13.475L18.84 13.45L18.79 13.52L18.77 13.42L18.74 13.54L18.71 13.455L18.645 13.63V13.5L18.595 13.64L18.575 13.49L18.54 13.66V13.51L18.48 13.66L18.445 13.51L18.42 13.66L18.38 13.545L18.345 13.715L18.285 13.565L18.255 13.79L18.22 13.7L18.21 13.865L18.17 13.765L18.21 13.975L18.16 13.895L18.175 14.025L18.095 13.88V14.05L18.055 13.995L18.035 14.06C18.035 14.06 18.02 13.41 18.465 13.28C18.91 13.15 19.195 13.32 19.195 13.32L19.025 13.18L19.045 13.135H18.985L19.01 13.085L18.875 13.09L18.915 13.04L18.815 13.055V13.025L18.75 13.075L18.775 13.015L18.69 13.075L18.685 12.99L18.635 13.06L18.615 12.985L18.415 13.185L18.465 12.98L18.43 13.025L18.425 12.975L18.37 13.065L18.355 13.005L18.33 13.08L18.31 12.99L18.27 13.08L18.22 13L18.205 13.105L18.175 13.05L18.135 13.13L18.085 13.08V13.13L17.985 13.085L18.005 13.16L17.93 13.1L17.91 13.2L17.87 13.15L17.835 13.275L17.805 13.155L17.775 13.25C17.775 13.25 18.165 12.24 19.155 12.9C19.155 12.9 19.265 13.005 19.29 13.08C19.315 13.155 19.295 13.09 19.295 13.09L19.275 12.395L19.315 12.695L19.34 12.595L19.335 12.745L19.435 12.53C19.435 12.53 19.315 12.89 19.36 13.025C19.36 13.025 19.405 12.605 19.555 12.555L19.415 12.855L19.46 12.85L19.43 12.91H19.465L19.42 13.01L19.395 13.06L19.42 13.11L19.46 13.075Z" fill="#00A651" stroke="black" stroke-width="0.025" stroke-miterlimit="4.8"/>
<path d="M19.355 13.4799L19.375 13.4999C19.375 13.4999 19.44 13.4299 19.545 13.5199L19.56 13.4999C19.435 13.3949 19.36 13.4799 19.36 13.4799H19.355ZM19.325 13.1399V13.1649L19.37 13.1449L19.335 13.2049L19.41 13.1799L19.32 13.2949L19.34 13.3099L19.485 13.1249L19.395 13.1549L19.435 13.0899L19.355 13.1199L19.37 13.0249H19.345L19.325 13.1399Z" fill="black"/>
<path d="M19.195 13.1499L19.225 13.2149L19.175 13.1949L19.32 13.4549L19.34 13.4299L19.31 13.5049L19.335 13.5149L19.395 13.3549L19.375 13.3399L19.325 13.4049L19.235 13.2499L19.275 13.2649L19.235 13.1799L19.29 13.2099V13.1149H19.265V13.1649L19.175 13.1099L19.195 13.1499ZM19.1 13.4699L19.11 13.4949C19.15 13.4782 19.1833 13.4749 19.21 13.4849C19.2333 13.5049 19.245 13.5215 19.245 13.5349L19.27 13.5249C19.27 13.5249 19.26 13.4799 19.22 13.4649C19.19 13.4482 19.15 13.4499 19.1 13.4699ZM19.215 13.7399L19.19 13.5999H19.22L19.24 13.7349L19.215 13.7399ZM19.405 13.7199L19.37 13.6099L19.395 13.6049L19.43 13.7049L19.405 13.7199ZM19.475 13.7949L19.45 13.6899L19.475 13.6849L19.505 13.7899L19.475 13.7949Z" fill="black"/>
<path d="M14.13 17.01C14.13 17.01 14.01 16.96 13.955 17C13.905 17.035 13.91 17.095 13.865 17.09C13.865 17.09 14.045 17.13 14.08 17.085L14.13 17.025M14.15 17.06C14.15 17.06 14.07 17.16 14.1 17.225C14.125 17.285 14.185 17.29 14.17 17.335C14.17 17.335 14.245 17.17 14.21 17.12C14.175 17.07 14.16 17.065 14.16 17.065M14.02 16.775C14.02 16.775 13.895 16.815 13.88 16.875C13.87 16.945 13.91 16.98 13.875 17.01C13.875 17.01 14.035 16.92 14.03 16.86V16.785M14.09 16.82C14.09 16.82 14.15 16.705 14.115 16.65C14.075 16.59 14.015 16.6 14.025 16.55C14.025 16.55 13.975 16.725 14.025 16.77L14.08 16.82M13.97 16.775C13.97 16.775 13.97 16.645 13.92 16.615C13.86 16.58 13.81 16.61 13.795 16.565C13.795 16.565 13.83 16.745 13.885 16.765L13.96 16.78M14.18 16.99C14.18 16.99 14.315 16.94 14.33 17.09C14.345 17.24 14.32 17.19 14.32 17.19C14.32 17.19 14.25 17.03 14.17 17.005L14.18 16.99Z" fill="#00A651"/>
<path d="M14.13 17.01C14.13 17.01 14.01 16.96 13.955 17C13.905 17.035 13.91 17.095 13.865 17.09C13.865 17.09 14.045 17.13 14.08 17.085L14.13 17.025M14.15 17.06C14.15 17.06 14.07 17.16 14.1 17.225C14.125 17.285 14.185 17.29 14.17 17.335C14.17 17.335 14.245 17.17 14.21 17.12C14.175 17.07 14.16 17.065 14.16 17.065M14.02 16.775C14.02 16.775 13.895 16.815 13.88 16.875C13.87 16.945 13.91 16.98 13.875 17.01C13.875 17.01 14.035 16.92 14.03 16.86V16.785M14.09 16.82C14.09 16.82 14.15 16.705 14.115 16.65C14.075 16.59 14.015 16.6 14.025 16.55C14.025 16.55 13.975 16.725 14.025 16.77L14.08 16.82M13.97 16.775C13.97 16.775 13.97 16.645 13.92 16.615C13.86 16.58 13.81 16.61 13.795 16.565C13.795 16.565 13.83 16.745 13.885 16.765L13.96 16.78M14.18 16.99C14.18 16.99 14.315 16.94 14.33 17.09C14.345 17.24 14.32 17.19 14.32 17.19C14.32 17.19 14.25 17.03 14.17 17.005L14.18 16.99Z" stroke="black" stroke-width="0.025" stroke-miterlimit="4.8"/>
<path d="M14.15 17.0648L14.16 17.1748H14.18L14.165 17.0648L14.215 16.8198H14.195L14.145 17.0648H14.15Z" fill="black"/>
<path d="M14.025 17.03L14.02 17.045C14.085 17.07 14.17 16.995 14.175 16.995L14.165 16.98C14.165 16.98 14.08 17.045 14.025 17.03ZM14.195 16.885L13.895 16.735L13.905 16.71L14.205 16.86L14.195 16.885Z" fill="black"/>
<path d="M13.975 16.8499L13.955 16.8299L14.015 16.7699L14.035 16.7899L13.975 16.8499ZM14.08 16.8199L14.015 16.6799L14.04 16.6699L14.105 16.8099L14.08 16.8199ZM14.17 16.9899V17.0199C14.255 17.0149 14.27 17.0699 14.27 17.0699L14.3 17.0599C14.3 17.0449 14.265 16.9849 14.17 16.9899Z" fill="black"/>
<path d="M15.56 17.0501C15.66 17.0001 15.68 16.8001 15.68 16.8001C15.655 16.8701 15.47 16.9451 15.47 16.9451C15.605 16.8601 15.77 16.4751 15.77 16.4751C15.73 16.6101 15.37 16.7251 15.14 16.8551C14.91 16.9851 15.03 17.3551 15.03 17.3551C14.965 17.3101 14.84 17.1151 14.815 16.9401C14.79 16.7651 14.725 16.6951 14.565 16.6751C14.41 16.6551 14.315 16.8351 14.315 16.8351L14.08 16.9551L14.32 16.9651C14.32 16.9651 14.49 17.0201 14.49 17.1551C14.49 17.2901 14.34 17.8201 14.59 18.1201C14.755 18.3251 15.39 18.4451 15.39 18.4451" fill="white"/>
<path d="M15.56 17.0501C15.66 17.0001 15.68 16.8001 15.68 16.8001C15.655 16.8701 15.47 16.9451 15.47 16.9451C15.605 16.8601 15.77 16.4751 15.77 16.4751C15.73 16.6101 15.37 16.7251 15.14 16.8551C14.91 16.9851 15.03 17.3551 15.03 17.3551C14.965 17.3101 14.84 17.1151 14.815 16.9401C14.79 16.7651 14.725 16.6951 14.565 16.6751C14.41 16.6551 14.315 16.8351 14.315 16.8351L14.08 16.9551L14.32 16.9651C14.32 16.9651 14.49 17.0201 14.49 17.1551C14.49 17.2901 14.34 17.8201 14.59 18.1201C14.755 18.3251 15.39 18.4451 15.39 18.4451" stroke="black" stroke-width="0.035" stroke-miterlimit="4.8"/>
<path d="M15.095 17.4649C15.095 17.4649 15.145 17.2249 15.3 17.2349C15.455 17.2449 15.5 17.0549 15.595 17.0299C15.69 16.9999 16.17 16.8699 16.22 16.6399C16.22 16.6399 16.175 17.0199 15.735 17.2099C15.735 17.2099 16.09 17.0949 16.135 17.0149C16.135 17.0149 15.975 17.3549 15.59 17.4099C15.59 17.4099 15.95 17.3799 16 17.2849C16 17.2849 15.84 17.4949 15.575 17.5249C15.575 17.5249 15.825 17.6249 15.885 17.5399C15.885 17.5399 15.75 17.6999 15.585 17.7099L15.635 17.7199C15.635 17.7199 15.475 17.9099 15.3 17.7849C15.125 17.6599 15.12 17.8149 15.12 17.8149" fill="white"/>
<path d="M15.095 17.4649C15.095 17.4649 15.145 17.2249 15.3 17.2349C15.455 17.2449 15.5 17.0549 15.595 17.0299C15.69 16.9999 16.17 16.8699 16.22 16.6399C16.22 16.6399 16.175 17.0199 15.735 17.2099C15.735 17.2099 16.09 17.0949 16.135 17.0149C16.135 17.0149 15.975 17.3549 15.59 17.4099C15.59 17.4099 15.95 17.3799 16 17.2849C16 17.2849 15.84 17.4949 15.575 17.5249C15.575 17.5249 15.825 17.6249 15.885 17.5399C15.885 17.5399 15.75 17.6999 15.585 17.7099L15.635 17.7199C15.635 17.7199 15.475 17.9099 15.3 17.7849C15.125 17.6599 15.12 17.8149 15.12 17.8149" stroke="black" stroke-width="0.035" stroke-miterlimit="4.8"/>
<path d="M15.45 17.825C15.45 17.825 15.655 18.165 15.675 18.345C15.675 18.345 16.065 18.77 16.21 18.795C16.21 18.795 16.14 18.825 16.01 18.72C16.01 18.72 16.12 18.83 16.14 18.835C16.16 18.84 16.055 18.825 16.04 18.795L16.11 18.87L16.085 18.86C16.085 18.86 16.035 18.855 16.005 18.835C15.98 18.815 16 18.885 16 18.885C16 18.885 15.94 18.87 15.92 18.85C15.9 18.83 15.925 18.895 15.925 18.895L15.875 18.88L15.835 18.905C15.835 18.905 15.835 18.93 15.81 18.905C15.785 18.89 15.74 18.905 15.74 18.905C15.74 18.905 15.71 18.935 15.69 18.915C15.675 18.895 15.615 18.995 15.615 18.995L15.365 18.38" fill="white"/>
<path d="M15.45 17.825C15.45 17.825 15.655 18.165 15.675 18.345C15.675 18.345 16.065 18.77 16.21 18.795C16.21 18.795 16.14 18.825 16.01 18.72C16.01 18.72 16.12 18.83 16.14 18.835C16.16 18.84 16.055 18.825 16.04 18.795L16.11 18.87L16.085 18.86C16.085 18.86 16.035 18.855 16.005 18.835C15.98 18.815 16 18.885 16 18.885C16 18.885 15.94 18.87 15.92 18.85C15.9 18.83 15.925 18.895 15.925 18.895L15.875 18.88L15.835 18.905C15.835 18.905 15.835 18.93 15.81 18.905C15.785 18.89 15.74 18.905 15.74 18.905C15.74 18.905 15.71 18.935 15.69 18.915C15.675 18.895 15.615 18.995 15.615 18.995L15.365 18.38" stroke="black" stroke-width="0.035" stroke-miterlimit="4.8"/>
<path d="M15.695 18.9351L15.375 18.3251L15.405 18.3051L15.725 18.9201L15.695 18.9351ZM15.975 18.8951L15.425 18.2801L15.455 18.2551L16.005 18.8701L15.975 18.8951ZM16.1 18.8451L15.475 18.2501L15.5 18.2251L16.125 18.8101L16.1 18.8451Z" fill="black"/>
<path d="M14.5273 16.869C14.5273 16.869 14.4874 16.7959 14.4508 16.8258C14.4176 16.8502 14.3976 16.8601 14.391 16.8557C14.391 16.8557 14.4242 16.8557 14.4475 16.8391C14.4697 16.8169 14.4963 16.828 14.5273 16.8723V16.869ZM14.3079 16.8358L14.3312 16.8823L14.3046 16.9588L14.3245 16.9654L14.3478 16.8823L14.3245 16.8291L14.3079 16.8358Z" fill="black"/>
<path d="M14.5206 16.8591C14.5206 16.8591 14.4874 16.8924 14.4475 16.8857L14.4043 16.8758H14.4641C14.4874 16.8758 14.5173 16.8658 14.5206 16.8591Z" fill="black"/>
<path d="M14.5107 16.8657C14.5107 16.8657 14.4708 16.8258 14.4442 16.8391C14.4442 16.8391 14.4907 16.8225 14.5173 16.8624L14.5107 16.8657Z" fill="black"/>
<path d="M14.504 16.8592C14.504 16.8592 14.4608 16.8891 14.4143 16.8592L14.4109 16.8525H14.4176C14.4176 16.8525 14.4741 16.8758 14.504 16.8592Z" fill="black"/>
<path d="M14.4675 16.8657C14.4748 16.8657 14.4808 16.8598 14.4808 16.8524C14.4808 16.8451 14.4748 16.8391 14.4675 16.8391C14.4601 16.8391 14.4542 16.8451 14.4542 16.8524C14.4542 16.8598 14.4601 16.8657 14.4675 16.8657Z" fill="black"/>
<path d="M14.5 17.98C14.5 17.98 14.465 18.04 14.485 18.08C14.5 18.115 14.585 18.13 14.59 18.18C14.595 18.23 14.63 18.23 14.665 18.23L14.71 18.215C14.71 18.215 14.555 18.135 14.51 18L14.5 17.98Z" fill="black"/>
<path d="M19.47 16.7398C19.47 16.7398 19.75 16.3698 20 16.4648C20.25 16.5598 20.405 16.6148 20.405 16.6148C20.405 16.6148 20.41 16.8598 20.28 16.8598C20.15 16.8598 20.02 16.6098 19.9 16.6848C19.8093 16.7358 19.7321 16.8078 19.675 16.8948C19.67 16.9298 19.36 16.9348 19.47 16.7398Z" fill="#964B36" stroke="black" stroke-width="0.015" stroke-miterlimit="4.8"/>
<path d="M18.41 18.5199C18.41 18.5199 18.33 18.5999 18.365 18.6199C18.4 18.6399 18.47 18.6199 18.47 18.5899C18.47 18.5599 18.42 18.5099 18.41 18.5199Z" fill="#964B36" stroke="black" stroke-width="0.025" stroke-miterlimit="4.8"/>
<path d="M18.35 18.6C18.35 18.6 18.2 18.515 18.09 18.71C17.975 18.9 17.885 19.215 17.82 19.26C17.755 19.3 18.46 18.95 18.47 18.8C18.47 18.8 18.515 18.61 18.44 18.615C18.365 18.62 18.36 18.625 18.345 18.595L18.35 18.6Z" fill="#964B36" stroke="black" stroke-width="0.025" stroke-miterlimit="4.8"/>
<path d="M18.365 18.6199C18.365 18.6199 18.215 18.6549 18.185 18.8649C18.155 19.0749 17.95 19.1799 17.935 19.1899M20.405 16.6099C20.405 16.6099 20.185 16.6899 20.22 16.8449L20.405 16.6099Z" fill="#964B36"/>
<path d="M18.365 18.6199C18.365 18.6199 18.215 18.6549 18.185 18.8649C18.155 19.0749 17.95 19.1799 17.935 19.1899M20.405 16.6099C20.405 16.6099 20.185 16.6899 20.22 16.8449" stroke="black" stroke-width="0.015" stroke-miterlimit="4.8"/>
<path d="M18.685 17.065C18.685 17.065 18.695 16.535 19.13 16.555C19.21 16.565 19.17 16.66 19.17 16.66C19.17 16.66 19.27 16.595 19.31 16.7C19.31 16.7 19.445 16.64 19.46 16.775C19.46 16.775 19.61 16.755 19.59 16.875C19.59 16.875 19.69 16.85 19.69 16.935C19.69 16.935 19.805 16.89 19.79 17.01C19.79 17.01 19.92 16.925 19.905 17.08C19.905 17.08 20.035 16.985 20.08 17.14C20.13 17.3 19.95 17.63 19.775 17.715" fill="#FFF200"/>
<path d="M18.685 17.065C18.685 17.065 18.695 16.535 19.13 16.555C19.21 16.565 19.17 16.66 19.17 16.66C19.17 16.66 19.27 16.595 19.31 16.7C19.31 16.7 19.445 16.64 19.46 16.775C19.46 16.775 19.61 16.755 19.59 16.875C19.59 16.875 19.69 16.85 19.69 16.935C19.69 16.935 19.805 16.89 19.79 17.01C19.79 17.01 19.92 16.925 19.905 17.08C19.905 17.08 20.035 16.985 20.08 17.14C20.13 17.3 19.95 17.63 19.775 17.715" stroke="black" stroke-width="0.015" stroke-miterlimit="4.8"/>
<path d="M19.895 17.1C19.895 17.1 19.95 17.51 19.72 17.665L19.725 17.675C19.97 17.525 19.91 17.1 19.91 17.095H19.895V17.1ZM19.61 17.55L19.62 17.56C19.77 17.415 19.805 17.03 19.805 17.01H19.79C19.79 17.01 19.755 17.41 19.61 17.55ZM19.475 17.455H19.49C19.5205 17.2706 19.5904 17.095 19.695 16.94L19.685 16.935C19.685 16.935 19.495 17.21 19.475 17.455ZM19.365 17.385H19.38C19.405 17.1 19.6 16.885 19.6 16.88L19.59 16.87C19.59 16.87 19.39 17.095 19.365 17.385ZM19.215 17.285H19.23C19.245 16.95 19.47 16.785 19.47 16.785L19.46 16.77C19.46 16.77 19.23 16.94 19.21 17.29L19.215 17.285ZM19.075 17.205H19.09C19.08 16.895 19.315 16.705 19.32 16.705L19.31 16.695C19.31 16.695 19.06 16.885 19.075 17.205ZM18.825 17.09H18.84C18.8505 16.9948 18.8881 16.9046 18.9484 16.8301C19.0086 16.7557 19.089 16.7001 19.18 16.67V16.655C19.0872 16.689 19.0053 16.7473 18.9428 16.8238C18.8803 16.9004 18.8396 16.9923 18.825 17.09Z" fill="black"/>
<path d="M18.43 17.7101C18.43 17.7101 18.355 17.2151 18.65 17.0601C18.65 17.0601 18.705 17.0501 18.735 17.1201C18.735 17.1201 18.89 17.0551 18.895 17.1851C18.895 17.1851 18.975 17.1251 18.995 17.2101C18.995 17.2101 19.16 17.1751 19.13 17.3001C19.13 17.3001 19.27 17.2601 19.255 17.3801C19.255 17.3801 19.395 17.3301 19.375 17.4301C19.375 17.4301 19.525 17.4001 19.485 17.5201C19.485 17.5201 19.67 17.5001 19.615 17.6251C19.615 17.6251 19.75 17.5901 19.715 17.6951C19.715 17.6951 19.895 17.7301 19.815 17.8451C19.6841 18.0015 19.5154 18.1219 19.325 18.1951" fill="#00A651"/>
<path d="M18.43 17.7101C18.43 17.7101 18.355 17.2151 18.65 17.0601C18.65 17.0601 18.705 17.0501 18.735 17.1201C18.735 17.1201 18.89 17.0551 18.895 17.1851C18.895 17.1851 18.975 17.1251 18.995 17.2101C18.995 17.2101 19.16 17.1751 19.13 17.3001C19.13 17.3001 19.27 17.2601 19.255 17.3801C19.255 17.3801 19.395 17.3301 19.375 17.4301C19.375 17.4301 19.525 17.4001 19.485 17.5201C19.485 17.5201 19.67 17.5001 19.615 17.6251C19.615 17.6251 19.75 17.5901 19.715 17.6951C19.715 17.6951 19.895 17.7301 19.815 17.8451C19.6841 18.0015 19.5154 18.1219 19.325 18.1951" stroke="black" stroke-width="0.015" stroke-miterlimit="4.8"/>
<path d="M18.27 18.2051C18.27 18.2051 18.15 17.7951 18.38 17.6901C18.38 17.6901 18.425 17.6801 18.43 17.7201C18.43 17.7201 18.48 17.6551 18.52 17.7151C18.52 17.7151 18.635 17.6601 18.665 17.7451C18.665 17.7451 18.74 17.6801 18.78 17.7751C18.78 17.7751 18.855 17.7451 18.855 17.8251C18.855 17.8251 18.955 17.7751 18.955 17.8751C18.955 17.8751 19.055 17.8351 19.03 17.9351C19.03 17.9351 19.18 17.9601 19.135 18.0301C19.135 18.0301 19.27 18.0651 19.22 18.1201C19.22 18.1201 19.36 18.1051 19.285 18.2001C19.285 18.2001 19.395 18.1651 19.335 18.2851C19.275 18.4051 19.075 18.5351 18.935 18.5551" fill="#00A651"/>
<path d="M18.27 18.2051C18.27 18.2051 18.15 17.7951 18.38 17.6901C18.38 17.6901 18.425 17.6801 18.43 17.7201C18.43 17.7201 18.48 17.6551 18.52 17.7151C18.52 17.7151 18.635 17.6601 18.665 17.7451C18.665 17.7451 18.74 17.6801 18.78 17.7751C18.78 17.7751 18.855 17.7451 18.855 17.8251C18.855 17.8251 18.955 17.7751 18.955 17.8751C18.955 17.8751 19.055 17.8351 19.03 17.9351C19.03 17.9351 19.18 17.9601 19.135 18.0301C19.135 18.0301 19.27 18.0651 19.22 18.1201C19.22 18.1201 19.36 18.1051 19.285 18.2001C19.285 18.2001 19.395 18.1651 19.335 18.2851C19.275 18.4051 19.075 18.5351 18.935 18.5551" stroke="black" stroke-width="0.015" stroke-miterlimit="4.8"/>
<path d="M18.415 18.53C18.415 18.53 18.16 18.28 18.28 18.21C18.28 18.21 18.33 18.225 18.355 18.28C18.355 18.28 18.415 18.19 18.455 18.28C18.455 18.28 18.545 18.25 18.545 18.315L18.615 18.365C18.615 18.365 18.7 18.36 18.685 18.415C18.685 18.415 18.78 18.4 18.775 18.45C18.775 18.45 18.855 18.455 18.85 18.51C18.85 18.51 18.99 18.535 18.925 18.605C18.925 18.605 18.685 18.655 18.51 18.585C18.51 18.585 18.425 18.555 18.415 18.53Z" fill="#00A651" stroke="black" stroke-width="0.015" stroke-miterlimit="4.8"/>
<path d="M19.295 18.12V18.135C19.4621 18.0156 19.6075 17.8685 19.725 17.7L19.71 17.69C19.71 17.695 19.44 18.065 19.295 18.12ZM19.205 18.055L19.215 18.07C19.345 17.995 19.61 17.645 19.615 17.63L19.61 17.62C19.605 17.625 19.335 17.98 19.21 18.055H19.205ZM19.13 18.025L19.14 18.035C19.2785 17.8793 19.3962 17.7061 19.49 17.52L19.48 17.515C19.48 17.515 19.27 17.91 19.13 18.025ZM19.065 17.935H19.08C19.105 17.745 19.38 17.44 19.38 17.435L19.365 17.43C19.355 17.44 19.09 17.74 19.065 17.935ZM18.52 17.7H18.535C18.515 17.425 18.74 17.125 18.745 17.125L18.73 17.115C18.73 17.115 18.495 17.425 18.52 17.7ZM18.665 17.725H18.68C18.64 17.505 18.9 17.195 18.9 17.19L18.89 17.18C18.88 17.195 18.625 17.5 18.665 17.725ZM18.885 17.805H18.9C18.89 17.555 19.13 17.305 19.135 17.305L19.125 17.29C19.125 17.295 18.875 17.55 18.885 17.805ZM18.36 18.255H18.375C18.285 18.02 18.435 17.725 18.44 17.725L18.425 17.715C18.425 17.715 18.27 18.02 18.36 18.26V18.255ZM18.46 18.275L18.475 18.27C18.395 18.035 18.525 17.72 18.525 17.72L18.515 17.71C18.515 17.71 18.38 18.035 18.46 18.275ZM18.875 18.51V18.52C19.125 18.435 19.29 18.205 19.29 18.205L19.275 18.195C19.275 18.195 19.115 18.42 18.875 18.51ZM18.825 18.455V18.47C19.025 18.38 19.21 18.13 19.21 18.13L19.2 18.12C19.2 18.12 19.015 18.37 18.825 18.455ZM18.775 18.435L18.785 18.45C18.935 18.335 19.135 18.05 19.135 18.05L19.125 18.04C19.125 18.04 18.925 18.325 18.775 18.435ZM18.525 18.29H18.545C18.5366 18.1004 18.5798 17.912 18.67 17.745L18.655 17.74C18.655 17.74 18.495 18.04 18.53 18.29H18.525ZM18.635 18.36L18.645 18.37C18.805 18.225 18.86 17.84 18.86 17.82H18.845C18.845 17.82 18.795 18.22 18.635 18.36ZM18.745 18.4L18.755 18.415C18.9004 18.2929 19.0007 18.1257 19.04 17.94H19.025C19.025 17.94 18.965 18.24 18.745 18.405V18.4ZM18.77 17.73V17.775L18.6 18.325L18.615 18.33L18.785 17.78C18.76 17.51 18.995 17.215 19 17.215L18.985 17.205C18.985 17.205 18.77 17.47 18.77 17.73Z" fill="black"/>
<path d="M18.95 17.865C18.95 17.875 18.895 18.25 18.69 18.39L18.7 18.405C18.91 18.26 18.96 17.89 18.96 17.87C19.05 17.765 19.26 17.385 19.26 17.385L19.25 17.375C19.25 17.375 19.04 17.755 18.95 17.865ZM18.35 18.28C18.35 18.285 18.38 18.48 18.42 18.54L18.435 18.535C18.395 18.47 18.36 18.28 18.36 18.275L18.345 18.28H18.35ZM18.445 18.28L18.44 18.545H18.455V18.28H18.445Z" fill="black"/>
<path d="M18.45 18.5499L18.465 18.5549C18.53 18.4149 18.55 18.3149 18.55 18.3149H18.535C18.535 18.3149 18.515 18.4099 18.45 18.5499ZM18.465 18.5549L18.475 18.5699C18.5479 18.524 18.6013 18.4528 18.625 18.3699H18.61C18.61 18.3699 18.58 18.4899 18.465 18.5549ZM18.49 18.5649V18.5799C18.61 18.5699 18.69 18.4249 18.69 18.4149H18.68C18.68 18.4149 18.6 18.5549 18.49 18.5649Z" fill="black"/>
<path d="M18.5 18.575V18.59C18.695 18.575 18.78 18.46 18.78 18.455L18.77 18.45C18.77 18.45 18.685 18.56 18.5 18.575Z" fill="black"/>
<path d="M18.515 18.575V18.59C18.52 18.59 18.765 18.645 18.85 18.52L18.835 18.51C18.76 18.63 18.515 18.58 18.515 18.575Z" fill="black"/>
<path d="M13.045 9.65991V16.4799C13.045 18.7099 17.075 20.0299 17.075 20.0299C17.075 20.0299 21.1 18.7099 21.1 16.4799V9.65991H13.045Z" stroke="black" stroke-width="0.14" stroke-miterlimit="4.8"/>
<path d="M-8 0H8V12H-8V0Z" fill="#012169"/>
<path d="M-6.125 0L-0.0250001 4.525L6.05 0H8V1.55L2 6.025L8 10.475V12H6L0 7.525L-5.975 12H-8V10.5L-2.025 6.05L-8 1.6V0H-6.125Z" fill="white"/>
<path d="M2.6 7.025L8 11V12L1.225 7.025H2.6ZM-2 7.525L-1.85 8.4L-6.65 12H-8L-2 7.525ZM8 0V0.075L1.775 4.775L1.825 3.675L6.75 0H8ZM-8 0L-2.025 4.4H-3.525L-8 1.05V0Z" fill="#C8102E"/>
<path d="M-1.975 0V12H2.025V0H-1.975ZM-8 4V8H8V4H-8Z" fill="white"/>
<path d="M-8 4.825V7.225H8V4.825H-8ZM-1.175 0V12H1.225V0H-1.175Z" fill="#C8102E"/>
</g>
</g>
<defs>
<clipPath id="clip0_2214_3381">
<path d="M0 12C0 5.37258 5.37258 0 12 0C18.6274 0 24 5.37258 24 12C24 18.6274 18.6274 24 12 24C5.37258 24 0 18.6274 0 12Z" fill="white"/>
</clipPath>
<clipPath id="clip1_2214_3381">
<rect width="32" height="24" fill="white" transform="translate(-8)"/>
</clipPath>
</defs>
</svg>
