<svg width="24" height="24" viewBox="0 0 24 24" fill="none" xmlns="http://www.w3.org/2000/svg">
<g clip-path="url(#clip0_2214_4135)">
<path d="M1.1906 6.7825C0.427753 8.36012 -0.00012207 10.13 -0.00012207 11.9999C-0.00012207 13.8698 0.427753 15.6396 1.1906 17.2172L11.9999 18.2607L22.8092 17.2172C23.572 15.6396 23.9999 13.8698 23.9999 11.9999C23.9999 10.13 23.572 8.36012 22.8092 6.7825L11.9999 5.73901L1.1906 6.7825Z" fill="white"/>
<path d="M1.19092 17.2173C3.13182 21.2312 7.24225 23.9999 11.9998 23.9999C16.7573 23.9999 20.8677 21.2312 22.8086 17.2173H1.19092Z" fill="black"/>
<path d="M1.19092 6.78263H22.8086C20.8677 2.76867 16.7573 0 11.9998 0C7.24225 0 3.13182 2.76867 1.19092 6.78263Z" fill="#D80027"/>
<path d="M3.51459 3.51465C-1.17169 8.20093 -1.17169 15.7989 3.51459 20.4853C5.45114 18.5487 7.31362 16.6862 11.9999 12L3.51459 3.51465Z" fill="#496E2D"/>
</g>
<defs>
<clipPath id="clip0_2214_4135">
<rect width="24" height="24" fill="white"/>
</clipPath>
</defs>
</svg>
