<svg width="24" height="24" viewBox="0 0 24 24" fill="none" xmlns="http://www.w3.org/2000/svg">
<path d="M16.8736 11.4472C16.9531 11.3232 16.9966 11.1811 16.9998 11.0356C17.003 10.89 16.9657 10.7463 16.8917 10.6192C16.8178 10.4922 16.7098 10.3863 16.5791 10.3126C16.4483 10.2389 16.2994 10.2 16.1477 10.2H13.2501V3L7.12653 12.5536C7.04701 12.6775 7.0034 12.8196 7.00019 12.9651C6.99698 13.1106 7.0343 13.2543 7.10829 13.3814C7.18227 13.5084 7.29025 13.6142 7.42106 13.6878C7.55187 13.7614 7.70078 13.8001 7.8524 13.8H10.75V21L16.8736 11.4472Z" stroke="white" stroke-width="2" stroke-linecap="round" stroke-linejoin="round"/>
</svg>
