<svg width="24" height="24" viewBox="0 0 24 24" fill="none" xmlns="http://www.w3.org/2000/svg">
<g clip-path="url(#clip0_2214_3336)">
<g clip-path="url(#clip1_2214_3336)">
<path fill-rule="evenodd" clip-rule="evenodd" d="M-4 0H28V24H-4V0Z" fill="#FFE800"/>
<path fill-rule="evenodd" clip-rule="evenodd" d="M-4 12H28V24H-4V12Z" fill="#00148E"/>
<path fill-rule="evenodd" clip-rule="evenodd" d="M-4 18H28V24H-4V18Z" fill="#DA0010"/>
<path fill-rule="evenodd" clip-rule="evenodd" d="M9.47998 14.54L5.84998 18.365L5.78998 18.285L9.40998 14.46L9.46998 14.54H9.47998ZM12 15.165L7.25998 20.165L7.17998 20.085L11.915 15.085L12 15.165Z" fill="black"/>
<path fill-rule="evenodd" clip-rule="evenodd" d="M7.2746 20.1064L6.8316 20.5494L6.32665 20.9305L6.7077 20.4255L7.1507 19.9825L7.2746 20.1064Z" fill="#808080" stroke="black" stroke-width="0.0606398"/>
<path fill-rule="evenodd" clip-rule="evenodd" d="M6.05457 18.1516L5.61157 18.5946L5.10662 18.9757L5.48767 18.4707L5.93067 18.0277L6.05457 18.1516Z" fill="#808080" stroke="black" stroke-width="0.0606398"/>
<path fill-rule="evenodd" clip-rule="evenodd" d="M6.39697 5.7395C6.39697 5.7395 5.99872 16.5107 7.59172 16.5107C9.18472 16.5107 9.98347 15.3779 9.98347 15.3779L9.96547 9.4579L6.39697 5.7395Z" fill="#FFDF00" stroke="black" stroke-width="0.0894427"/>
<path fill-rule="evenodd" clip-rule="evenodd" d="M7.37124 6.74438C7.37124 7.31078 7.19349 15.378 7.98999 15.378C8.78649 15.378 9.98349 14.8116 9.98349 14.8116L9.96549 9.45798L7.37124 6.74438Z" fill="#0000C4" stroke="black" stroke-width="0.0894427"/>
<path fill-rule="evenodd" clip-rule="evenodd" d="M7.88873 7.28833C7.88873 7.85473 7.98998 14.2451 8.78873 14.2451H9.98348L9.96548 9.45793L7.88873 7.28833Z" fill="#E10000" stroke="black" stroke-width="0.0894427"/>
<path fill-rule="evenodd" clip-rule="evenodd" d="M6.31 5.79997L9.93 9.62497L9.995 9.54497L6.375 5.71997L6.31 5.79997Z" fill="black"/>
<path fill-rule="evenodd" clip-rule="evenodd" d="M5.21479 7.94678C5.21479 7.94678 4.18819 18.3814 7.26799 18.3814C9.83449 18.3814 9.83449 16.7353 10.3478 16.7353L9.83449 12.8913L5.21479 7.94678Z" fill="#FFDF00" stroke="black" stroke-width="0.0999444"/>
<path d="M7.75901 9.68147C7.78101 9.67982 8.56001 7.99402 10.507 6.92697" stroke="black" stroke-width="0.108269"/>
<path fill-rule="evenodd" clip-rule="evenodd" d="M7.44032 8.09233C7.71182 8.21903 7.88362 8.36483 8.04002 8.53483C7.72932 8.46973 7.56902 8.44343 7.29752 8.31673C7.02602 8.19003 6.81862 7.99623 6.65382 7.83943C6.85592 7.90093 7.16732 7.96493 7.44032 8.09233Z" fill="#005B00" stroke="black" stroke-width="0.0489698"/>
<path fill-rule="evenodd" clip-rule="evenodd" d="M8.12126 9.12476C8.14126 9.15876 8.12406 9.20666 8.08176 9.23016C8.03946 9.25366 7.98876 9.24461 7.96826 9.20976C7.94776 9.17491 7.96596 9.12871 8.00826 9.10521C8.05056 9.08171 8.10126 9.09076 8.12126 9.12476Z" fill="#FF0000" stroke="black" stroke-width="0.0335875"/>
<path fill-rule="evenodd" clip-rule="evenodd" d="M8.97453 7.01335C8.85688 7.312 8.72708 7.5088 8.57748 7.6924C8.64473 7.36015 8.67328 7.1896 8.79093 6.89095C8.90858 6.5923 9.08028 6.3526 9.21908 6.1618C9.15918 6.3802 9.09283 6.71305 8.97453 7.01335Z" fill="#005B00" stroke="black" stroke-width="0.0461669"/>
<path fill-rule="evenodd" clip-rule="evenodd" d="M8.57734 6.9978C8.55019 7.29645 8.49069 7.52775 8.41249 7.76235C8.39204 7.4721 8.37679 7.32705 8.40394 7.0284C8.43109 6.72975 8.51439 6.43905 8.58239 6.20625C8.58334 6.4074 8.60464 6.6975 8.57734 6.9978Z" fill="#005B00" stroke="black" stroke-width="0.0398615"/>
<path fill-rule="evenodd" clip-rule="evenodd" d="M8.83676 7.33941C8.68291 7.52041 8.55351 7.59891 8.41751 7.64991C8.55456 7.39891 8.62171 7.26541 8.77556 7.08441C8.92941 6.90341 9.09431 6.81841 9.22671 6.75241C9.12821 6.90516 8.99146 7.15741 8.83676 7.33941Z" fill="#005B00" stroke="black" stroke-width="0.0432966"/>
<path fill-rule="evenodd" clip-rule="evenodd" d="M7.52596 7.59231C7.70696 7.80951 7.79696 8.01871 7.86496 8.24991C7.62796 8.08871 7.50296 8.01351 7.32196 7.79631C7.14096 7.57911 7.03896 7.30711 6.95896 7.08791C7.10596 7.21371 7.34396 7.37391 7.52596 7.59231Z" fill="#005B00" stroke="black" stroke-width="0.0495432"/>
<path fill-rule="evenodd" clip-rule="evenodd" d="M7.16164 9.26651C7.38789 9.44751 7.50729 9.63411 7.60249 9.84491C7.31464 9.72551 7.16349 9.67191 6.93724 9.49091C6.71099 9.30991 6.57329 9.06511 6.46489 8.86751C6.64519 8.96621 6.93414 9.08451 7.16164 9.26651Z" fill="#005B00" stroke="black" stroke-width="0.0526016"/>
<path fill-rule="evenodd" clip-rule="evenodd" d="M8.22119 9.16709C8.04019 9.45669 7.84439 9.65129 7.61999 9.83489C7.72819 9.51729 7.77499 9.35469 7.95599 9.06509C8.13699 8.77549 8.39539 8.53749 8.60419 8.34789C8.51009 8.55779 8.40319 8.87589 8.22119 9.16709Z" fill="#005B00" stroke="black" stroke-width="0.0540371"/>
<path fill-rule="evenodd" clip-rule="evenodd" d="M8.4103 9.15572C8.1207 9.35482 7.8686 9.45842 7.6 9.54002C7.8476 9.28492 7.9677 9.15082 8.2573 8.95172C8.5469 8.75262 8.8699 8.63362 9.1295 8.54002C8.94835 8.69942 8.7015 8.95552 8.4103 9.15572Z" fill="#005B00" stroke="black" stroke-width="0.0519301"/>
<path fill-rule="evenodd" clip-rule="evenodd" d="M10.3627 7.07461C10.236 7.21941 10.1224 7.30521 10 7.38001C10.1043 7.20721 10.1544 7.11741 10.2811 6.97261C10.4078 6.82781 10.554 6.72581 10.6716 6.64501C10.594 6.75571 10.4901 6.92901 10.3627 7.07461Z" fill="#005B00" stroke="black" stroke-width="0.0275007"/>
<path fill-rule="evenodd" clip-rule="evenodd" d="M10.0882 6.64735C10.0158 6.8012 9.93837 6.9168 9.84997 7.0324C9.89437 6.87855 9.91377 6.8012 9.98617 6.64735C10.0586 6.4935 10.1606 6.349 10.243 6.2334C10.2049 6.3388 10.161 6.49265 10.0882 6.64735Z" fill="#005B00" stroke="black" stroke-width="0.0228451"/>
<path fill-rule="evenodd" clip-rule="evenodd" d="M10.5121 6.92354C10.3854 6.99594 10.2902 7.01814 10.195 7.02494C10.3217 6.91334 10.3854 6.85314 10.5121 6.78074C10.6388 6.70834 10.7578 6.68794 10.853 6.67274C10.7662 6.73844 10.6395 6.85074 10.5121 6.92354Z" fill="#005B00" stroke="black" stroke-width="0.0250413"/>
<path fill-rule="evenodd" clip-rule="evenodd" d="M8.76361 7.73458C8.53736 7.87033 8.35126 7.94933 8.15746 8.01733C8.36411 7.85358 8.46596 7.76833 8.69221 7.63258C8.91846 7.49683 9.15476 7.40333 9.34436 7.32933C9.19741 7.43383 8.99111 7.59808 8.76361 7.73458Z" fill="#005B00" stroke="black" stroke-width="0.0314413"/>
<path fill-rule="evenodd" clip-rule="evenodd" d="M9.42402 7.93723C9.12537 8.11823 8.87107 8.20363 8.60247 8.26483C8.86472 8.02223 8.99277 7.89383 9.29142 7.71283C9.59007 7.53183 9.91477 7.43663 10.1756 7.36223C9.98592 7.51153 9.72432 7.75523 9.42402 7.93723Z" fill="#005B00" stroke="black" stroke-width="0.052336"/>
<path d="M7.39441 10.8667C7.41366 10.8557 7.23166 9.26771 8.44651 7.61591" stroke="black" stroke-width="0.106572"/>
<path fill-rule="evenodd" clip-rule="evenodd" d="M9.25627 7.51977C9.27627 7.55377 9.25907 7.60167 9.21677 7.62517C9.17447 7.64867 9.12377 7.63962 9.10327 7.60477C9.08277 7.56992 9.10097 7.52372 9.14327 7.50022C9.18557 7.47672 9.23627 7.48577 9.25627 7.51977Z" fill="#FF0000" stroke="black" stroke-width="0.0335875"/>
<path fill-rule="evenodd" clip-rule="evenodd" d="M9.79631 7.20483C9.81631 7.23883 9.79911 7.28673 9.75681 7.31023C9.71451 7.33373 9.66381 7.32468 9.64331 7.28983C9.62281 7.25498 9.64101 7.20878 9.68331 7.18528C9.72561 7.16178 9.77631 7.17083 9.79631 7.20483Z" fill="#FF0000" stroke="black" stroke-width="0.0335875"/>
<path fill-rule="evenodd" clip-rule="evenodd" d="M8.28942 8.26348C8.30342 8.28948 8.27732 8.33058 8.23032 8.35408C8.18332 8.37758 8.13377 8.37513 8.11942 8.34848C8.10507 8.32183 8.13187 8.28203 8.17887 8.25853C8.22587 8.23503 8.27542 8.23748 8.28942 8.26348Z" fill="#FF0000" stroke="black" stroke-width="0.0302835"/>
<path fill-rule="evenodd" clip-rule="evenodd" d="M8.44946 8.19341C8.46346 8.21941 8.43736 8.26051 8.39036 8.28401C8.34336 8.30751 8.29381 8.30506 8.27946 8.27841C8.26511 8.25176 8.29191 8.21196 8.33891 8.18846C8.38591 8.16496 8.43546 8.16741 8.44946 8.19341Z" fill="#FF0000" stroke="black" stroke-width="0.0302835"/>
<path fill-rule="evenodd" clip-rule="evenodd" d="M8.35442 8.34355C8.36842 8.36955 8.34232 8.41065 8.29532 8.43415C8.24832 8.45765 8.19877 8.4552 8.18442 8.42855C8.17007 8.4019 8.19687 8.3621 8.24387 8.3386C8.29087 8.3151 8.34042 8.31755 8.35442 8.34355Z" fill="#FF0000" stroke="black" stroke-width="0.0302835"/>
<path fill-rule="evenodd" clip-rule="evenodd" d="M8.635 8.36491C8.65167 8.41158 8.635 8.44991 8.585 8.47991C8.51 8.52491 8.485 8.48991 8.465 8.44491C8.445 8.39991 8.465 8.35491 8.515 8.32991C8.565 8.30491 8.615 8.31991 8.63 8.36491H8.635Z" fill="#FF0000" stroke="black" stroke-width="0.0375"/>
<path fill-rule="evenodd" clip-rule="evenodd" d="M8.74999 8.245C8.76666 8.29167 8.74999 8.33 8.69999 8.36C8.62499 8.405 8.59999 8.37 8.57499 8.33C8.54999 8.29 8.57499 8.235 8.62499 8.21C8.67499 8.185 8.72499 8.205 8.74499 8.245H8.74999Z" fill="#FF0000" stroke="black" stroke-width="0.0375"/>
<path fill-rule="evenodd" clip-rule="evenodd" d="M8.77501 8.29979C8.79501 8.33979 8.77501 8.39479 8.72501 8.41479C8.67501 8.43479 8.62502 8.42479 8.60502 8.38479C8.58502 8.34479 8.60502 8.29479 8.65502 8.26979C8.70502 8.24479 8.75501 8.25979 8.77501 8.29979Z" fill="#FF0000" stroke="black" stroke-width="0.0375"/>
<path fill-rule="evenodd" clip-rule="evenodd" d="M6.24141 9.04736C6.24141 9.59606 5.21481 15.638 7.78421 17.2841C8.81081 17.8328 10.3507 16.7354 10.3507 17.2841L9.83741 12.8914L6.24141 9.04736Z" fill="#0000C4" stroke="black" stroke-width="0.0999444"/>
<path fill-rule="evenodd" clip-rule="evenodd" d="M7.26798 10.1448C7.26798 10.6935 6.75468 15.0862 8.29748 16.1867C9.32408 17.2841 11.8935 16.9865 11.8935 16.9865L9.83738 12.8914L7.26798 10.1448Z" fill="#E10000" stroke="black" stroke-width="0.0999444"/>
<path fill-rule="evenodd" clip-rule="evenodd" d="M5.19 7.89995L9.93 12.9L10.015 12.82L5.275 7.82495L5.19 7.89995Z" fill="black"/>
<path fill-rule="evenodd" clip-rule="evenodd" d="M4.46067 7.30723L4.76157 7.36033L4.85007 7.44883C4.83797 7.44793 4.93857 7.53733 4.81467 7.66123C4.69077 7.78513 4.51447 7.60743 4.51447 7.60743C4.51447 7.60743 4.56757 7.90833 4.74507 8.08583C4.92257 8.26333 5.13447 8.22743 5.13447 8.22743C5.13447 8.22743 4.93277 8.06213 5.08137 7.92653C5.23017 7.78973 5.29377 7.89113 5.29377 7.89113L5.47077 8.06813L5.59537 7.94353L4.88687 7.23503L4.83377 6.93413L4.37737 6.85853L4.46087 7.30603L4.46067 7.30723Z" fill="#CECECC" stroke="black" stroke-width="0.0278887"/>
<path fill-rule="evenodd" clip-rule="evenodd" d="M5.15887 5.20612L5.52297 5.77052L5.98387 5.89492L5.68297 6.08962L6.23167 6.07192L6.48017 6.24942L6.56917 6.10702L6.31997 5.92902L6.12577 5.37952L6.07217 5.75202L5.78877 5.34362L5.15867 5.20482L5.15887 5.20612Z" fill="#CECECC" stroke="black" stroke-width="0.0300285"/>
<path fill-rule="evenodd" clip-rule="evenodd" d="M6.63998 5.54498C6.63998 5.57498 6.59998 5.60048 6.55398 5.60048C6.50798 5.60048 6.46598 5.57498 6.46598 5.54498C6.46598 5.51498 6.50598 5.48798 6.55398 5.48798C6.60198 5.48798 6.63998 5.51348 6.63998 5.54498ZM6.51598 5.66348C6.51598 6.20048 6.93398 8.48048 6.96798 8.53598C6.96998 8.60348 6.87198 8.63198 6.82598 8.54948C6.69398 8.28848 6.40998 6.14948 6.39998 5.64998C6.39398 5.44448 6.47398 5.42798 6.56598 5.43248C6.63998 5.43548 6.73198 5.48798 6.73198 5.55098C6.73198 5.62598 6.61598 5.68148 6.51598 5.66348Z" fill="#E10000" stroke="black" stroke-width="0.057735"/>
<path fill-rule="evenodd" clip-rule="evenodd" d="M6.79999 6.07747C6.78499 6.10747 6.73424 6.12297 6.69054 6.11147C6.64684 6.09997 6.61969 6.06397 6.63469 6.03397C6.64969 6.00397 6.70119 5.98697 6.74679 5.99897C6.79239 6.01097 6.81574 6.04597 6.79999 6.07747ZM6.62294 6.16497C6.76094 7.24347 6.29799 8.90897 6.30179 8.97447C6.27069 9.04097 6.16259 9.04647 6.16089 8.95097C6.13814 8.88897 6.67109 7.38447 6.51949 6.12247C6.61654 5.91547 6.70079 5.91897 6.78594 5.94647C6.85474 5.96797 6.91589 6.04347 6.88439 6.10647C6.84689 6.18147 6.70894 6.20797 6.62294 6.16497Z" fill="#0000C4" stroke="black" stroke-width="0.060506"/>
<path fill-rule="evenodd" clip-rule="evenodd" d="M5.33503 7.57492C5.33503 7.62492 5.28503 7.67492 5.22503 7.67492C5.16503 7.67492 5.11503 7.62492 5.11503 7.57492C5.11503 7.52492 5.16503 7.48492 5.22503 7.48492C5.29169 7.49159 5.32669 7.52159 5.33003 7.57492H5.33503ZM5.17503 7.77492C5.17503 8.66992 5.70003 12.4699 5.74003 12.5649C5.74003 12.6749 5.62503 12.7249 5.56503 12.5849C5.40003 12.1499 5.04503 8.58492 5.03003 7.75492C5.02503 7.40992 5.12503 7.38492 5.24003 7.38992C5.33503 7.39492 5.44503 7.48492 5.44503 7.58992C5.44503 7.70992 5.30003 7.80492 5.17503 7.77492Z" fill="#E10000" stroke="black" stroke-width="0.0875"/>
<path fill-rule="evenodd" clip-rule="evenodd" d="M5.60502 8.03669C5.58502 8.08469 5.52002 8.11049 5.46482 8.09324C5.40962 8.07599 5.37622 8.01944 5.39622 7.97144C5.41622 7.92344 5.48222 7.89524 5.53982 7.91324C5.59742 7.93124 5.62602 7.98629 5.60502 8.03669ZM5.37722 8.17979C5.51922 9.88964 4.87902 12.5458 4.88182 12.6498C4.84022 12.7561 4.70262 12.7674 4.70342 12.6157C4.67642 12.5178 5.40062 10.1157 5.24702 8.11469C5.37682 7.78364 5.48382 7.78724 5.59122 7.82894C5.67802 7.86149 5.75342 7.97999 5.71142 8.08079C5.66142 8.20079 5.48522 8.24609 5.37722 8.17979Z" fill="#0000C4" stroke="black" stroke-width="0.0852291"/>
<path fill-rule="evenodd" clip-rule="evenodd" d="M14.52 14.54L18.145 18.365L18.21 18.285L14.585 14.46L14.52 14.54ZM12 15.165L16.74 20.165L16.82 20.085L12.085 15.085L12 15.165Z" fill="black"/>
<path fill-rule="evenodd" clip-rule="evenodd" d="M16.7254 20.1064L17.1684 20.5494L17.6734 20.9305L17.2923 20.4255L16.8493 19.9825L16.7254 20.1064Z" fill="#808080" stroke="black" stroke-width="0.0606398"/>
<path fill-rule="evenodd" clip-rule="evenodd" d="M17.9454 18.1516L18.3884 18.5946L18.8933 18.9757L18.5123 18.4707L18.0693 18.0277L17.9454 18.1516Z" fill="#808080" stroke="black" stroke-width="0.0606398"/>
<path fill-rule="evenodd" clip-rule="evenodd" d="M17.603 5.7395C17.603 5.7395 18.0013 16.5107 16.4083 16.5107C14.8153 16.5107 14.0165 15.3779 14.0165 15.3779L14.0345 9.4579L17.603 5.7395Z" fill="#FFDF00" stroke="black" stroke-width="0.0894427"/>
<path fill-rule="evenodd" clip-rule="evenodd" d="M16.6288 6.74438C16.6288 7.31078 16.8065 15.378 16.01 15.378C15.2135 15.378 14.0165 14.8116 14.0165 14.8116L14.0345 9.45798L16.6288 6.74438Z" fill="#0000C4" stroke="black" stroke-width="0.0894427"/>
<path fill-rule="evenodd" clip-rule="evenodd" d="M16.1113 7.28833C16.1113 7.85473 16.01 14.2451 15.2113 14.2451H14.0165L14.0345 9.45793L16.1113 7.28833Z" fill="#E10000" stroke="black" stroke-width="0.0894427"/>
<path fill-rule="evenodd" clip-rule="evenodd" d="M17.69 5.79997L14.07 9.62497L14.005 9.54497L17.625 5.71997L17.69 5.79997Z" fill="black"/>
<path fill-rule="evenodd" clip-rule="evenodd" d="M14.8326 8.75373C14.8326 8.75373 15.8474 10.0557 16.337 11.062C16.8262 12.0703 17.3974 13.6068 17.3974 13.6068C17.3974 13.6068 17.071 12.0941 16.455 10.8814C15.6478 9.35574 14.8322 8.84053 14.8326 8.75373Z" fill="#005B00" stroke="black" stroke-width="0.0417337"/>
<path fill-rule="evenodd" clip-rule="evenodd" d="M14.7975 7.71936C14.7975 7.71936 15.9299 9.32961 16.4468 10.5239C16.9631 11.7204 17.5379 13.5139 17.5379 13.5139C17.5379 13.5139 17.2589 11.7884 16.6044 10.3446C15.7418 8.52286 14.7902 7.81511 14.7975 7.71936Z" fill="#005B00" stroke="black" stroke-width="0.0482227"/>
<path fill-rule="evenodd" clip-rule="evenodd" d="M15.7748 6.1273C15.7748 6.1273 16.576 8.5118 16.8201 9.9863C17.063 11.4621 17.2113 13.4931 17.2113 13.4931C17.2113 13.4931 17.3656 11.7885 17.0383 9.979C16.5856 7.6623 15.7416 6.2012 15.7748 6.1273Z" fill="#005B00" stroke="black" stroke-width="0.0547737"/>
<path fill-rule="evenodd" clip-rule="evenodd" d="M15.0555 6.01814C15.0555 6.01814 16.1649 8.13579 16.5971 9.57484C17.0281 11.0159 17.4334 13.095 17.4334 13.095C17.4334 13.095 17.3749 11.2063 16.8166 9.45459C16.0678 7.22924 15.0312 6.11369 15.0555 6.01814Z" fill="#005B00" stroke="black" stroke-width="0.0555036"/>
<path fill-rule="evenodd" clip-rule="evenodd" d="M16.3878 6.69207C16.3878 6.69207 16.9399 8.97207 17.0786 10.3323C17.2162 11.6935 17.2556 13.53 17.2556 13.53C17.2556 13.53 17.4474 12.0437 17.2549 10.3689C16.9812 8.21807 16.3581 6.75127 16.3878 6.69207Z" fill="#005B00" stroke="black" stroke-width="0.0492217"/>
<path fill-rule="evenodd" clip-rule="evenodd" d="M14.9288 6.75488C14.9288 6.75488 16.0021 8.56888 16.4364 9.83688C16.8698 11.1069 17.2965 12.9629 17.2965 12.9629C17.2965 12.9629 17.1928 11.2429 16.6345 9.70288C15.889 7.75088 14.9091 6.84488 14.9288 6.75488Z" fill="#005B00" stroke="black" stroke-width="0.0506234"/>
<path fill-rule="evenodd" clip-rule="evenodd" d="M14.7275 8.01814C14.7275 8.01814 15.8599 9.45619 16.3768 10.5575C16.8931 11.6611 17.4679 13.3368 17.4679 13.3368C17.4679 13.3368 17.1889 11.6951 16.5344 10.3669C15.6718 8.69484 14.7202 8.11169 14.7275 8.01814Z" fill="#005B00" stroke="black" stroke-width="0.0476898"/>
<path fill-rule="evenodd" clip-rule="evenodd" d="M14.8745 7.35759C14.8745 7.35759 15.9162 9.04934 16.3697 10.2731C16.8225 11.499 17.3045 13.3175 17.3045 13.3175C17.3045 13.3175 17.1115 11.5942 16.534 10.1119C15.769 8.23809 14.8627 7.45104 14.8745 7.35759Z" fill="#005B00" stroke="black" stroke-width="0.0475875"/>
<path fill-rule="evenodd" clip-rule="evenodd" d="M16.0027 6.16345C16.0027 6.16345 16.6724 8.498 16.8384 9.92385C17.0031 11.3509 17.0461 13.3016 17.0461 13.3016C17.0461 13.3016 17.2853 11.6841 17.0543 9.9323C16.7252 7.68715 15.9661 6.2317 16.0027 6.16345Z" fill="#005B00" stroke="black" stroke-width="0.0532434"/>
<path fill-rule="evenodd" clip-rule="evenodd" d="M15.0834 5.58142C15.0834 5.58142 16.0614 7.78057 16.4154 9.24912C16.7682 10.7196 17.0682 12.8237 17.0682 12.8237C17.0682 12.8237 17.0946 10.9372 16.6326 9.14697C16.0074 6.86952 15.0558 5.67467 15.0834 5.58142Z" fill="#005B00" stroke="black" stroke-width="0.0547386"/>
<path fill-rule="evenodd" clip-rule="evenodd" d="M16.6407 6.85906C16.6407 6.85906 17.0613 9.04836 17.1219 10.3452C17.1813 11.6429 17.1154 13.3866 17.1154 13.3866C17.1154 13.3866 17.3921 11.9863 17.2958 10.3885C17.1458 8.33526 16.6076 6.91376 16.6407 6.85906Z" fill="#005B00" stroke="black" stroke-width="0.0473281"/>
<path fill-rule="evenodd" clip-rule="evenodd" d="M14.9584 6.48809C14.9584 6.48809 15.9364 8.38359 16.2904 9.68109C16.6432 10.9805 16.9432 12.8615 16.9432 12.8615C16.9432 12.8615 16.9696 11.1437 16.5076 9.56519C15.8824 7.56109 14.9308 6.57579 14.9584 6.48809Z" fill="#005B00" stroke="black" stroke-width="0.0517292"/>
<path fill-rule="evenodd" clip-rule="evenodd" d="M18.7852 7.94678C18.7852 7.94678 19.8118 18.3814 16.732 18.3814C14.1655 18.3814 14.1655 16.7353 13.6522 16.7353L14.1655 12.8913L18.7852 7.94678Z" fill="#FFDF00" stroke="black" stroke-width="0.0999444"/>
<path fill-rule="evenodd" clip-rule="evenodd" d="M17.7586 9.04712C17.7586 9.59582 18.7852 15.6377 16.2158 17.2838C15.1892 17.8325 13.6493 16.7351 13.6493 17.2838L14.1626 12.8911L17.7586 9.04712Z" fill="#0000C4" stroke="black" stroke-width="0.0999444"/>
<path fill-rule="evenodd" clip-rule="evenodd" d="M16.732 10.1445C16.732 10.6932 17.2453 15.0859 15.7025 16.1864C14.6759 17.2838 12.1065 16.9862 12.1065 16.9862L14.1626 12.8911L16.732 10.1445Z" fill="#E10000" stroke="black" stroke-width="0.0999444"/>
<path fill-rule="evenodd" clip-rule="evenodd" d="M18.81 7.89995L14.07 12.9L13.985 12.82L18.725 7.82495L18.81 7.89995Z" fill="black"/>
<path fill-rule="evenodd" clip-rule="evenodd" d="M19.5393 7.30723L19.2384 7.36033L19.1499 7.44883C19.162 7.44793 19.0614 7.53733 19.1853 7.66123C19.3092 7.78513 19.4855 7.60743 19.4855 7.60743C19.4855 7.60743 19.4324 7.90833 19.2549 8.08583C19.0774 8.26333 18.8655 8.22743 18.8655 8.22743C18.8655 8.22743 19.0672 8.06213 18.9186 7.92653C18.7698 7.78973 18.7062 7.89113 18.7062 7.89113L18.5292 8.06813L18.4046 7.94353L19.1131 7.23503L19.1662 6.93413L19.6226 6.85853L19.5391 7.30603L19.5393 7.30723Z" fill="#CECECC" stroke="black" stroke-width="0.0278887"/>
<path fill-rule="evenodd" clip-rule="evenodd" d="M18.8411 5.20612L18.477 5.77052L18.0161 5.89492L18.317 6.08962L17.7683 6.07192L17.5198 6.24942L17.4308 6.10702L17.68 5.92902L17.8742 5.37952L17.9278 5.75202L18.2112 5.34362L18.8413 5.20482L18.8411 5.20612Z" fill="#CECECC" stroke="black" stroke-width="0.0300285"/>
<path fill-rule="evenodd" clip-rule="evenodd" d="M17.365 5.54498C17.365 5.57498 17.405 5.60048 17.451 5.60048C17.497 5.60048 17.539 5.57498 17.539 5.54498C17.539 5.51498 17.499 5.48798 17.451 5.48798C17.403 5.48798 17.365 5.51348 17.365 5.54498ZM17.489 5.66348C17.489 6.20048 17.071 8.48048 17.037 8.53598C17.035 8.60348 17.133 8.63198 17.179 8.54948C17.311 8.28848 17.595 6.14948 17.605 5.64998C17.611 5.44448 17.531 5.42798 17.439 5.43248C17.365 5.43548 17.273 5.48798 17.273 5.55098C17.273 5.62598 17.389 5.68148 17.489 5.66348Z" fill="#E10000" stroke="black" stroke-width="0.057735"/>
<path fill-rule="evenodd" clip-rule="evenodd" d="M17.2 6.07747C17.215 6.10747 17.2658 6.12297 17.3095 6.11147C17.3532 6.09997 17.3803 6.06397 17.3653 6.03397C17.3503 6.00397 17.2988 5.98697 17.2532 5.99897C17.2076 6.01097 17.1843 6.04597 17.2 6.07747ZM17.3771 6.16497C17.2391 7.24347 17.702 8.90897 17.6982 8.97447C17.7293 9.04097 17.8374 9.04647 17.8391 8.95097C17.8619 8.88897 17.3289 7.38447 17.4805 6.12247C17.3835 5.91547 17.2992 5.91897 17.2141 5.94647C17.1453 5.96797 17.0841 6.04347 17.1156 6.10647C17.1531 6.18147 17.2911 6.20797 17.3771 6.16497Z" fill="#0000C4" stroke="black" stroke-width="0.060506"/>
<path fill-rule="evenodd" clip-rule="evenodd" d="M18.67 7.57492C18.67 7.62492 18.72 7.67492 18.775 7.67492C18.83 7.67492 18.885 7.62492 18.885 7.57492C18.885 7.52492 18.835 7.48492 18.775 7.48492C18.7083 7.49159 18.6733 7.52159 18.67 7.57492ZM18.82 7.77492C18.7003 9.3787 18.5135 10.9768 18.26 12.5649C18.26 12.6749 18.375 12.7249 18.435 12.5849C18.6 12.1499 18.955 8.58492 18.97 7.75492C18.975 7.40992 18.875 7.38492 18.76 7.38992C18.665 7.39492 18.555 7.48492 18.555 7.58992C18.555 7.70992 18.7 7.80492 18.825 7.77492H18.82Z" fill="#E10000" stroke="black" stroke-width="0.0875"/>
<path fill-rule="evenodd" clip-rule="evenodd" d="M18.395 8.03669C18.415 8.08469 18.48 8.11049 18.5352 8.09324C18.5904 8.07599 18.6238 8.01944 18.6038 7.97144C18.5838 7.92344 18.5178 7.89524 18.4602 7.91324C18.4026 7.93124 18.374 7.98629 18.395 8.03669ZM18.6228 8.17979C18.4808 9.88964 19.121 12.5458 19.1182 12.6498C19.1598 12.7561 19.2974 12.7674 19.2966 12.6157C19.3236 12.5178 18.5994 10.1157 18.753 8.11469C18.6232 7.78364 18.5162 7.78724 18.4088 7.82894C18.322 7.86149 18.2466 7.97999 18.2886 8.08079C18.3386 8.20079 18.5148 8.24609 18.6228 8.17979Z" fill="#0000C4" stroke="black" stroke-width="0.0852291"/>
<path fill-rule="evenodd" clip-rule="evenodd" d="M10.3536 21.1281C10.5876 21.2728 10.8532 21.3491 11.1236 21.3491C11.3939 21.3491 11.6595 21.2728 11.8935 21.1281V16.7354H10.8669C11.3802 18.3815 11.3802 20.0307 10.3507 21.1281H10.3536Z" fill="#E10000" stroke="black" stroke-width="0.0999444"/>
<path fill-rule="evenodd" clip-rule="evenodd" d="M11.1665 16.8326C11.1665 19.9301 10.4227 20.6196 10.4227 21.2426C10.7325 21.2426 10.939 20.9521 11.1665 20.5531C11.4762 19.9301 11.506 16.7836 11.4762 16.8326H11.1665Z" fill="#0000C4" stroke="black" stroke-width="0.0824958"/>
<path fill-rule="evenodd" clip-rule="evenodd" d="M10.547 16.8326C10.5313 18.6421 9.76303 20.3186 9.90828 20.6896C10.0728 21.0221 10.547 19.9301 11.1665 20.5496C11.4763 19.9301 11.506 16.7836 11.4763 16.8291L10.547 16.8326Z" fill="#0000C4" stroke="black" stroke-width="0.0824958"/>
<path fill-rule="evenodd" clip-rule="evenodd" d="M10.6165 16.5685C10.6165 18.604 9.90424 18.7397 9.90424 19.2825C10.214 19.2825 10.6147 18.9858 10.6165 19.0134C10.9262 18.604 10.956 16.5363 10.9262 16.5685H10.6165Z" fill="#FFDF00" stroke="black" stroke-width="0.0668747"/>
<path fill-rule="evenodd" clip-rule="evenodd" d="M9.99701 16.5685C9.98126 17.7576 9.23051 18.7696 9.37576 19.0134C9.54201 19.2296 9.99701 18.604 10.6165 19.0134C10.9263 18.604 10.956 16.5363 10.9263 16.5685H9.99701Z" fill="#FFDF00" stroke="black" stroke-width="0.0668747"/>
<path fill-rule="evenodd" clip-rule="evenodd" d="M13.6464 21.1281C13.4124 21.2728 13.1468 21.3491 12.8764 21.3491C12.6061 21.3491 12.3405 21.2728 12.1065 21.1281V16.7354H13.1331C12.6198 18.3815 12.6198 20.0307 13.6493 21.1281H13.6464Z" fill="#E10000" stroke="black" stroke-width="0.0999444"/>
<path fill-rule="evenodd" clip-rule="evenodd" d="M12.8335 16.8326C12.8335 19.9301 13.5773 20.6196 13.5773 21.2426C13.2675 21.2426 13.061 20.9521 12.8335 20.5531C12.5238 19.9301 12.494 16.7836 12.5238 16.8326H12.8335Z" fill="#0000C4" stroke="black" stroke-width="0.0824958"/>
<path fill-rule="evenodd" clip-rule="evenodd" d="M13.453 16.8326C13.4688 18.6421 14.237 20.3186 14.0918 20.6896C13.9273 21.0221 13.453 19.9301 12.8335 20.5496C12.5238 19.9301 12.494 16.7836 12.5238 16.8291L13.453 16.8326Z" fill="#0000C4" stroke="black" stroke-width="0.0824958"/>
<path fill-rule="evenodd" clip-rule="evenodd" d="M13.3835 16.5685C13.3835 18.604 14.0958 18.7397 14.0958 19.2825C13.786 19.2825 13.3853 18.9858 13.3835 19.0134C13.0738 18.604 13.044 16.5363 13.0738 16.5685H13.3835Z" fill="#FFDF00" stroke="black" stroke-width="0.0668747"/>
<path fill-rule="evenodd" clip-rule="evenodd" d="M14.003 16.5685C14.0187 17.7576 14.7695 18.7696 14.6242 19.0134C14.458 19.2296 14.003 18.604 13.3835 19.0134C13.0737 18.604 13.044 16.5363 13.0737 16.5685H14.003Z" fill="#FFDF00" stroke="black" stroke-width="0.0668747"/>
<path fill-rule="evenodd" clip-rule="evenodd" d="M8.0816 17.0781L7.5434 17.4675L8.0816 17.8569L8.3504 17.6622L8.4848 17.8569L8.6192 18.2463L8.7542 17.8569L8.8886 17.6622H16.1V17.2728H8.888L8.7536 17.077C8.7536 16.8823 8.7818 16.6876 8.8886 16.6876H9.4262C9.4262 16.4929 9.1574 16.1035 8.6192 16.1035C8.0816 16.1035 7.8122 16.4929 7.8122 16.6876H8.3504C8.4566 16.6876 8.4848 16.8823 8.4848 17.0781L8.3504 17.2728L8.0816 17.0781Z" fill="#908F8A" stroke="black" stroke-width="0.0913954"/>
<path fill-rule="evenodd" clip-rule="evenodd" d="M9.66022 18.022H14.374V18.2609H9.66162L9.66022 18.022ZM9.66022 17.7817H14.374V18.022H9.66162L9.66022 17.7817ZM9.66022 17.5427H14.374V17.783H9.66162L9.66022 17.5427ZM9.66022 17.3038H14.374V17.5427H9.66162L9.66022 17.3038ZM9.66022 17.0648H14.374V17.3038H9.66162L9.66022 17.0648ZM9.66022 16.8245H14.374V17.0648H9.66162L9.66022 16.8245ZM9.66022 16.5869H14.374V16.8245H9.66162L9.66022 16.5869Z" fill="#B74D00"/>
<path d="M14.374 18.022H9.66022L9.66162 18.2609H14.374V18.022ZM14.374 18.022V17.7817H9.66022L9.66162 18.022H14.374ZM14.374 17.5427H9.66022L9.66162 17.783H14.374V17.5427ZM14.374 17.5427V17.3038M14.374 17.5427H9.66162L9.66022 17.3038H14.374M14.374 17.3038V17.0648M14.374 17.3038H9.66162L9.66022 17.0648H14.374M14.374 17.0648V16.8245M14.374 17.0648H9.66162L9.66022 16.8245H14.374M14.374 16.8245V16.5869H9.66022L9.66162 16.8245H14.374Z" stroke="black" stroke-width="0.0618648"/>
<path fill-rule="evenodd" clip-rule="evenodd" d="M9.88501 16.5728L11.6075 18.2468H11.8538L10.1325 16.5741H9.88626L9.88501 16.5728Z" fill="#908F8A" stroke="black" stroke-width="0.107171"/>
<path fill-rule="evenodd" clip-rule="evenodd" d="M9.88501 18.2974L11.6075 16.6234H11.8538L10.1325 18.296H9.88626L9.88501 18.2974Z" fill="#908F8A" stroke="black" stroke-width="0.107171"/>
<path fill-rule="evenodd" clip-rule="evenodd" d="M9.9328 16.5728V18.2468H10.1806V16.5728H9.9328Z" fill="#908F8A" stroke="black" stroke-width="0.106545"/>
<path fill-rule="evenodd" clip-rule="evenodd" d="M12.1 16.5728L13.8225 18.2468H14.0687L12.3475 16.5741H12.1012L12.1 16.5728Z" fill="#908F8A" stroke="black" stroke-width="0.107171"/>
<path fill-rule="evenodd" clip-rule="evenodd" d="M12.1 18.2974L13.8225 16.6234H14.0687L12.3475 18.296H12.1012L12.1 18.2974Z" fill="#908F8A" stroke="black" stroke-width="0.107171"/>
<path fill-rule="evenodd" clip-rule="evenodd" d="M13.8728 16.5728V18.2468H14.1206V16.5728H13.8728Z" fill="#908F8A" stroke="black" stroke-width="0.106545"/>
<path fill-rule="evenodd" clip-rule="evenodd" d="M12.1528 16.5728V18.2468H12.4006V16.5728H12.1528Z" fill="#908F8A" stroke="black" stroke-width="0.106545"/>
<path fill-rule="evenodd" clip-rule="evenodd" d="M11.6528 16.5728V18.2468H11.9006V16.5728H11.6528Z" fill="#908F8A" stroke="black" stroke-width="0.106545"/>
<path fill-rule="evenodd" clip-rule="evenodd" d="M15.4895 11.7939C15.4895 14.5219 13.8771 16.7353 11.8935 16.7353C9.90989 16.7353 8.29749 14.5219 8.29749 11.7939C8.29749 9.06587 9.90699 6.84937 11.8935 6.84937C13.88 6.84937 15.4895 9.06277 15.4895 11.7908V11.7939ZM14.9762 11.7939C14.9762 14.2181 13.5958 16.1866 11.8935 16.1866C10.1912 16.1866 8.81079 14.2181 8.81079 11.7939C8.81079 9.36657 10.1912 7.39807 11.8935 7.39807C13.5958 7.39807 14.9762 9.36657 14.9762 11.7939Z" fill="#FFDF00" stroke="black" stroke-width="0.0999444"/>
<path fill-rule="evenodd" clip-rule="evenodd" d="M13.2942 7.23997C12.8621 6.98887 12.3894 6.84937 11.8935 6.84937C11.3976 6.84937 10.9249 6.98887 10.4928 7.23687L10.6958 7.74527C11.0607 7.52116 11.4741 7.40323 11.8949 7.40323C12.3158 7.40323 12.7292 7.52116 13.0941 7.74527L13.2942 7.23997Z" fill="#FFDF00" stroke="black" stroke-width="0.0999444"/>
<path fill-rule="evenodd" clip-rule="evenodd" d="M13.3042 16.2149C12.8721 16.466 12.3994 16.6055 11.9035 16.6055C11.4076 16.6055 10.9349 16.466 10.5028 16.218L10.7058 15.7096C11.0707 15.9337 11.4841 16.0516 11.905 16.0516C12.3258 16.0516 12.7392 15.9337 13.1041 15.7096L13.3042 16.2149Z" fill="#FFDF00" stroke="black" stroke-width="0.0999444"/>
<path fill-rule="evenodd" clip-rule="evenodd" d="M14.98 11.795C14.98 14.22 13.595 16.185 11.895 16.185C10.195 16.185 8.815 14.22 8.815 11.795C8.815 9.37002 10.195 7.39502 11.895 7.39502C13.595 7.39502 14.98 9.36502 14.98 11.795Z" fill="#A7CFFF"/>
<path fill-rule="evenodd" clip-rule="evenodd" d="M14.9762 11.794C15.0081 12.6186 14.8428 13.0216 14.6311 13.8803C14.576 13.9733 14.3121 13.6788 14.1555 13.5331C13.9989 13.3874 13.9293 13.6633 13.7321 13.4401C13.5378 13.2107 13.4131 13.5021 13.2681 13.3099C13.1231 13.1177 11.7804 13.0929 11.7804 13.0743C11.9138 13.0061 12.5982 13.0805 12.488 12.7302C12.3633 12.3644 11.589 12.7178 11.4846 12.2528C11.4121 11.7878 9.93019 11.7692 9.82289 11.6576C9.86639 11.8312 10.9771 11.9056 10.951 12.3551C10.9249 12.5411 9.85769 12.5938 9.75329 12.7488C9.66629 12.9441 10.5943 12.6961 10.6262 12.9348C10.6262 13.034 10.4899 12.9348 10.0085 13.0898C9.76489 13.1673 10.4551 13.4091 10.1941 13.5424C9.93309 13.6757 9.37339 13.7346 9.39659 13.7904C9.48359 14.0694 10.6929 14.398 10.574 14.4445C10.1448 14.6491 9.91859 14.7824 9.71269 14.9002C9.10957 13.9943 8.79352 12.9058 8.81079 11.794C9.73009 11.4406 9.53579 11.3662 11.2352 11.3662C12.9346 11.3662 13.4972 11.4375 14.9762 11.794Z" fill="#AFFF7B" stroke="black" stroke-width="0.0999444"/>
<path fill-rule="evenodd" clip-rule="evenodd" d="M14.9762 11.794C14.7442 11.794 14.5006 11.8994 14.2512 11.8994C14.0018 11.8994 13.7437 11.7909 13.4827 11.7909C13.2217 11.7909 12.923 11.9335 12.6562 11.9335C12.3865 11.9335 12.1516 11.794 11.8819 11.794C11.6122 11.794 11.3425 11.8994 11.0757 11.8994C10.8089 11.8994 10.545 11.7909 10.2869 11.7909C10.0288 11.7909 9.77359 11.8994 9.52709 11.8994C9.28059 11.8994 9.03989 11.7909 8.81079 11.7909C8.81466 11.1833 8.89586 10.6139 9.05439 10.0828C9.83739 10.1448 9.37339 9.59608 9.83739 9.59608C9.97284 9.58824 10.1083 9.61127 10.2348 9.66365C10.3613 9.71603 10.4759 9.79655 10.5711 9.89988C10.6407 9.89988 10.9887 9.54648 11.3802 9.59608C11.7717 9.64568 11.6267 10.4424 12.1458 10.4827C12.4068 10.6935 12.5605 10.8268 12.9201 10.9136C13.4334 10.9632 14.9037 10.8361 14.9124 10.9074C14.9547 11.2007 14.9761 11.4971 14.9762 11.794Z" fill="white" stroke="black" stroke-width="0.0999444"/>
<path fill-rule="evenodd" clip-rule="evenodd" d="M12.359 14.3511C12.359 14.2143 12.494 14.1231 12.494 13.9047C12.494 13.6863 12.374 13.6815 12.37 13.4775C12.368 13.3935 12.473 13.3095 12.519 13.2999C12.565 13.2903 12.604 13.4775 12.604 13.5183C12.604 13.5591 12.557 13.4175 12.518 13.4151C12.479 13.4127 12.395 13.4295 12.395 13.4703C12.395 13.5519 12.543 13.6527 12.532 13.9263C12.521 14.1951 12.405 14.2767 12.405 14.3583C12.405 14.4399 12.455 14.6655 12.455 14.6655C12.455 14.6655 12.358 14.4855 12.358 14.3487L12.359 14.3511Z" fill="black" stroke="black" stroke-width="0.0516398"/>
<path fill-rule="evenodd" clip-rule="evenodd" d="M12.791 14.3309C12.791 14.1941 12.656 14.1029 12.656 13.8845C12.656 13.6661 12.776 13.6613 12.78 13.4573C12.79 13.3613 12.662 13.2989 12.616 13.2917C12.57 13.2845 12.516 13.4837 12.516 13.5221C12.516 13.5605 12.57 13.3973 12.609 13.3949C12.648 13.3925 12.755 13.4093 12.755 13.4501C12.755 13.5317 12.607 13.6325 12.618 13.9061C12.629 14.1749 12.745 14.2565 12.745 14.3381C12.745 14.4197 12.695 14.6453 12.695 14.6453C12.695 14.6453 12.792 14.4653 12.792 14.3285L12.791 14.3309Z" fill="black" stroke="black" stroke-width="0.0516398"/>
<path fill-rule="evenodd" clip-rule="evenodd" d="M12.65 13.2451C12.65 13.3101 12.615 13.3651 12.575 13.3651C12.535 13.3651 12.505 13.3101 12.505 13.2401C12.505 13.1701 12.535 13.1201 12.575 13.1201C12.615 13.1201 12.65 13.1751 12.65 13.2451ZM13.5 13.6951H13.52V14.6701H13.495L13.5 13.6951ZM13.705 13.6151H13.73V14.6001H13.705V13.6151Z" fill="black"/>
<path fill-rule="evenodd" clip-rule="evenodd" d="M13.63 14.0599V14.0349L13.83 14.0699V14.0949L13.63 14.0599Z" fill="black"/>
<path fill-rule="evenodd" clip-rule="evenodd" d="M10.7717 14.3429C10.7717 14.3429 11.5257 14.6963 11.691 14.9071C11.8563 15.1179 11.7896 15.1179 11.7896 15.1179L13.4629 15.1892C13.4629 15.0838 13.7587 15.0838 13.8254 14.8358C13.8921 14.5878 13.8921 14.5196 13.8921 14.5196L13.3672 14.6963L13.3962 14.3801H12.938L12.8713 14.6963L11.8853 14.6622L11.952 13.8159L11.7548 13.85L11.7258 14.656C11.691 14.656 10.8036 14.4111 10.7688 14.3429H10.7717Z" fill="#B74D00" stroke="black" stroke-width="0.0999444"/>
<path fill-rule="evenodd" clip-rule="evenodd" d="M9.25452 9.2954C9.25452 9.2954 10.3478 8.9482 11.9254 8.973C13.503 8.9978 14.5963 9.3698 14.5731 9.3698C14.5499 9.3698 14.2715 8.7994 14.2715 8.7994C14.2715 8.7994 13.1579 8.4739 11.9022 8.4491C10.6494 8.4243 9.55612 8.6971 9.58222 8.7219L9.25452 9.2954Z" fill="#FEDE00" stroke="#FEDE00" stroke-width="0.0999444"/>
<path fill-rule="evenodd" clip-rule="evenodd" d="M11.3 8.48997L11.98 8.47997L11.99 8.87497L11.31 8.88997L11.3 8.48997ZM9.74 8.70497L9.5 9.09997L10.31 8.99997L10.245 8.61497L9.74 8.71497V8.70497ZM10.425 8.55497L11.105 8.49997L11.135 8.88997L10.46 8.94997L10.425 8.55497ZM12.87 8.51997L12.195 8.46997L12.17 8.86997L12.845 8.90997L12.87 8.51997ZM14.33 8.76997L14.575 9.24997L13.845 9.06997L13.925 8.68497L14.325 8.76497L14.33 8.76997ZM13.74 8.61997L13.07 8.53497L13.02 8.92497L13.695 9.01497L13.74 8.61997Z" fill="#38A9F9"/>
<path fill-rule="evenodd" clip-rule="evenodd" d="M11.9254 9.51856L11.8529 9.10006L11.6325 9.45656L11.7137 9.03806L11.386 9.27676L11.6064 8.92646L11.2178 9.01326L11.5513 8.77766L11.1598 8.70016L11.5513 8.61956L11.2178 8.38396L11.6064 8.47076L11.3831 8.12046L11.7137 8.35916L11.6325 7.94066L11.8529 8.29716L11.9254 7.87866L12.0008 8.29716L12.2183 7.94066L12.14 8.35916L12.4677 8.12046L12.2444 8.47076L12.6359 8.38396L12.3024 8.61956L12.6939 8.70016L12.3024 8.77766L12.6359 9.01326L12.2444 8.92646L12.4677 9.27676L12.14 9.03806L12.2212 9.45656L12.0008 9.10006L11.9254 9.51856Z" fill="#FFDF00" stroke="black" stroke-width="0.0999444"/>
<path fill-rule="evenodd" clip-rule="evenodd" d="M12.5045 8.43739C12.5045 8.66989 12.3164 8.85739 12.0827 8.85739C11.849 8.85739 11.6609 8.66989 11.6609 8.43739C11.6609 8.20489 11.849 8.01489 12.0827 8.01489C12.3164 8.01489 12.5045 8.20489 12.5045 8.43989V8.43739Z" fill="#FFDF00" stroke="black" stroke-width="0.0889757"/>
<path fill-rule="evenodd" clip-rule="evenodd" d="M12.035 8.52998C12.035 8.55498 11.97 8.57998 11.895 8.57998C11.82 8.57998 11.755 8.55498 11.755 8.52998C11.755 8.50498 11.815 8.47998 11.895 8.47998C11.975 8.47998 12.035 8.49998 12.035 8.52998ZM12.335 8.52998C12.3283 8.55998 12.295 8.57665 12.235 8.57998C12.145 8.58498 12.125 8.55498 12.125 8.52998C12.125 8.50498 12.175 8.47998 12.23 8.47998C12.285 8.47998 12.335 8.49998 12.335 8.52998Z" fill="black"/>
<path d="M12.0204 8.70246L12.0496 8.71926C11.9794 8.67636 12.0114 8.69226 12.1216 8.80086C12.1845 8.76426 12.1965 8.73096 12.2356 8.68566" stroke="black" stroke-width="0.100943"/>
<path d="M11.7412 8.92338L11.7644 8.94818C11.7093 8.88618 11.7354 8.91718 11.8572 8.99778C11.9732 9.01328 12.0921 8.96058 12.1617 8.87378" stroke="black" stroke-width="0.0999444"/>
<path fill-rule="evenodd" clip-rule="evenodd" d="M10.07 9.73999C10.07 9.73999 10.12 10.14 9.81498 10.64C9.50998 11.14 9.55999 10.96 9.55999 10.96C9.55999 10.96 9.69998 11.235 9.67498 11.235C9.64998 11.235 9.43998 10.985 9.43998 10.985L9.18998 11.26C9.18998 11.26 9.41998 10.835 9.39498 10.835C9.36998 10.835 9.32498 10.685 9.32498 10.685L9.50999 10.61C9.50999 10.61 9.78998 10.09 9.78998 10.115C9.78998 10.14 8.95499 10.685 8.95499 10.685L10.07 9.73999ZM10.255 9.88999C10.23 9.88999 10.37 10.29 10.49 10.49C10.605 10.69 10.605 10.935 10.605 10.935L11 11.135L10.49 10.365L10.815 10.485L10.255 9.88999ZM10.255 10.935C10.255 10.935 10.535 11.235 10.555 11.335C10.575 11.435 10.58 11.655 10.58 11.655L10.465 11.405L10.3 11.63C10.3 11.63 10.42 11.28 10.395 11.255C10.37 11.23 10.21 11.38 10.21 11.38C10.21 11.38 10.28 11.18 10.28 11.16C10.28 11.14 10.28 11.01 10.255 10.935ZM8.85999 11.63C8.95499 11.555 9.13998 11.505 9.13998 11.505C9.13998 11.505 9.02498 11.705 8.99998 11.705C8.97498 11.705 8.90999 11.705 8.85999 11.63ZM12.065 10.54C12.065 10.54 12.67 10.91 12.67 10.935C12.67 10.96 12.275 10.76 12.275 10.76L12.065 10.54ZM10.975 9.76499C11.025 9.78999 11.86 10.485 11.835 10.485C11.81 10.485 11.465 10.285 11.465 10.315V10.485L11.275 10.09L11.23 10.24L10.975 9.76499ZM11.185 10.885L11.415 11.355L11.65 11.305C11.65 11.305 11.21 10.885 11.185 10.885ZM11.905 10.585L11.93 11.035C11.93 11.035 12.065 11.16 12.065 11.135C12.065 11.11 11.93 10.61 11.905 10.585Z" fill="#B7E1FF"/>
<path fill-rule="evenodd" clip-rule="evenodd" d="M5.13 4.47512C5.13 4.47512 6.18 3.89512 7.375 3.46512C8.25422 3.14213 9.16142 2.90111 10.085 2.74512C10.435 2.74512 11.045 3.63512 11.145 3.63512C11.245 3.63512 11.65 3.38512 12.16 3.38512C12.67 3.38512 12.965 3.78512 13.07 3.78512H13.98C14.08 3.78512 13.675 2.79512 13.98 2.84512C14.13 2.87012 15.42 3.07012 16.62 3.45512C17.82 3.84512 19.52 4.53512 19.52 4.53512C19.52 4.53512 16.745 4.90012 16 4.79512C15.9 4.84512 16 5.44512 15.85 5.18012C15.62 5.13012 14.765 4.99512 14.615 4.99512C14.465 4.99512 14.18 5.16512 13.775 5.26512C13.375 5.36512 12.865 5.51512 12.865 5.51512L13.525 6.55012L12.715 6.95012C12.715 6.95012 12.21 5.76012 12.005 5.76012C11.8 5.76012 11.705 6.60012 11.45 6.55012C11.195 6.50012 11.1 5.76012 10.895 5.56012C10.695 5.36512 9.625 5.29012 9.22 5.19512C8.82 5.09512 8.165 5.02012 7.81 4.92012C7.455 4.82012 7.1 5.17012 6.95 5.17012C6.8 5.17012 7.15 4.87012 7 4.82012C6.85 4.77012 6.75 4.97012 6.65 4.97012C6.55 4.97012 5.485 4.77012 5.385 4.72012C5.285 4.67012 5.635 4.47512 5.535 4.47512H5.13Z" fill="#984000"/>
<path fill-rule="evenodd" clip-rule="evenodd" d="M12.673 3.98008C12.673 4.25568 12.4464 4.47928 12.1681 4.47928C11.8898 4.47928 11.6643 4.25568 11.6643 3.98008C11.6643 3.70448 11.8898 3.48218 12.1681 3.48218C12.4464 3.48218 12.673 3.70578 12.673 3.98008Z" fill="#808080" stroke="#772600" stroke-width="0.110614"/>
<path fill-rule="evenodd" clip-rule="evenodd" d="M10.1135 4.07511C10.2039 3.96951 10.316 3.80951 10.6089 3.80951C10.6764 3.78231 10.6764 3.62231 10.833 3.62231C10.9896 3.62231 10.9451 3.78231 11.0585 3.83671C11.1705 3.88951 12.0926 3.78231 12.0926 3.78231C12.0926 3.78231 12.1817 3.86231 12.1817 3.96951C12.1817 4.07671 12.1142 4.15511 12.0926 4.15511C12.071 4.15511 11.1705 4.07511 11.103 4.10231C11.0355 4.12951 10.991 4.15511 10.833 4.15511C10.6751 4.15511 10.6305 3.96951 10.5185 3.96951C10.4064 3.96951 10.2944 3.94231 10.1135 4.07671V4.07511Z" fill="#984000" stroke="#772600" stroke-width="0.194734"/>
<path d="M12.8567 4.01931H13.2158C13.3454 4.02091 13.3899 4.06731 13.5087 4.07211H13.8233C13.938 4.06731 13.9988 4.03531 14.1149 4.01931C14.3106 4.01611 14.2445 3.99851 14.2053 3.85931C14.1702 3.75531 14.1648 3.70571 14.1149 3.64651C14.096 3.51851 14.0528 3.47371 14.0474 3.32651C14.0271 3.21451 13.9893 3.13931 14.0258 3.00651C14.0771 3.09771 14.0973 3.13451 14.2283 3.14091C14.3633 3.14091 14.4159 3.13611 14.4983 3.19371C14.5604 3.27211 14.6441 3.24651 14.7683 3.24651C14.8709 3.26891 14.8884 3.33131 14.9694 3.37931C15.0653 3.44331 15.1274 3.45931 15.261 3.45931C15.369 3.48331 15.4635 3.50091 15.531 3.53931C15.5891 3.62091 15.6795 3.64171 15.801 3.64651C15.8685 3.64651 15.9225 3.63851 15.9806 3.61931C16.0845 3.62571 16.1898 3.61931 16.3181 3.61931C16.4018 3.73451 16.4207 3.77771 16.5651 3.77931C16.665 3.86251 16.7487 3.87531 16.8351 3.91211H17.1726C17.2941 3.92331 17.3319 3.98251 17.4426 4.01931C17.5376 4.07018 17.635 4.11452 17.7342 4.15211C17.8309 4.17285 17.929 4.18196 18.0272 4.17931C18.1095 4.23051 18.2108 4.23371 18.2742 4.28491C18.3674 4.30891 18.4943 4.33771 18.5658 4.36491C18.6846 4.38411 18.7305 4.42891 18.8358 4.44491C18.9263 4.47691 18.8061 4.50251 18.7454 4.52491C18.6131 4.52011 18.6036 4.46091 18.4754 4.44491C18.4079 4.39851 18.3053 4.40491 18.2054 4.36491H18.1838C18.2729 4.42891 18.3593 4.46891 18.3188 4.57931C18.204 4.57931 18.1109 4.56171 18.0042 4.55211C17.8908 4.52651 17.8395 4.49931 17.7126 4.49931C17.8395 4.46251 17.8719 4.50251 17.9597 4.55211C17.9921 4.68011 17.9219 4.63211 17.8017 4.63211C17.6991 4.58891 17.637 4.53611 17.5101 4.52491H17.2401C17.3738 4.53131 17.4021 4.59051 17.4872 4.65931C17.4939 4.70091 17.4858 4.69771 17.4197 4.71211C17.3495 4.64011 17.259 4.61611 17.1497 4.57931C17.043 4.57451 16.931 4.56331 16.8351 4.52491C16.769 4.52011 16.7798 4.42731 16.9256 4.57931C17.0133 4.64011 17.0444 4.69131 17.0376 4.73931C16.9215 4.70411 16.8648 4.64971 16.7906 4.60491C16.6896 4.56328 16.5828 4.54535 16.476 4.55211C16.3599 4.51531 16.4882 4.49451 16.5651 4.63211C16.7325 4.77291 16.5435 4.71211 16.476 4.68491C16.3748 4.65131 16.2695 4.60171 16.1831 4.57931C16.1156 4.55531 16.0562 4.53291 15.9806 4.52491C16.098 4.53771 16.1372 4.58731 16.1831 4.68491C16.3019 4.78091 16.1777 4.73451 16.071 4.71211C16.0035 4.64171 15.9158 4.60491 15.8685 4.52491C15.7565 4.45931 15.7524 4.38091 15.824 4.55211C15.8415 4.60651 15.8375 4.72491 15.8456 4.73931C15.7632 4.63211 15.7808 4.60491 15.689 4.60491C15.6255 4.55371 15.5337 4.51371 15.4865 4.44491C15.4001 4.43531 15.3947 4.39851 15.3069 4.36491C15.3785 4.46571 15.4743 4.56491 15.531 4.65931C15.6336 4.72651 15.662 4.78731 15.7335 4.84491C15.7619 4.90411 15.8415 4.95211 15.7565 4.87211C15.6593 4.76011 15.5877 4.73291 15.4419 4.65931C15.3582 4.57931 15.3285 4.54731 15.2394 4.47211C15.1179 4.42571 15.1652 4.40011 15.2394 4.55211C15.3245 4.64491 15.3893 4.74731 15.4635 4.81931C15.5218 4.90171 15.59 4.97342 15.666 5.03211C15.6863 5.06731 15.747 5.07371 15.666 5.08491C15.5985 5.01131 15.4986 4.96491 15.419 4.89771C15.3069 4.86091 15.2543 4.79211 15.1719 4.71211C15.1179 4.61771 15.0315 4.54571 14.9694 4.47211C14.8398 4.41131 14.9951 4.52971 15.0369 4.60491C15.0653 4.70251 15.1017 4.78091 15.126 4.87211C15.1638 4.96011 15.0126 4.85131 14.9694 4.81931C14.8806 4.75111 14.7809 4.70536 14.6765 4.68491C14.587 4.66369 14.497 4.64608 14.4065 4.63211C14.3052 4.60011 14.4618 4.70891 14.5199 4.81931C14.6333 4.94571 14.4078 4.84171 14.3403 4.81931C14.2289 4.79687 14.1158 4.78776 14.0028 4.79211C13.8584 4.80171 13.9623 4.82411 14.0028 4.89771C14.0474 4.93931 14.0784 5.02571 14.0703 5.05771C13.9758 5.04171 13.8948 5.00971 13.7774 5.00491C13.6829 5.04171 13.5708 5.03211 13.4628 5.03211C13.4588 5.09931 13.4831 5.04171 13.5303 5.11211C13.6086 5.14891 13.6599 5.19371 13.6437 5.24491H12.9917C12.9201 5.26731 13.0065 5.25611 13.0592 5.35211C13.0295 5.43851 12.9917 5.40491 12.9012 5.40491C12.8405 5.37611 12.7176 5.36331 12.6542 5.32491C12.5907 5.32491 12.5961 5.30571 12.5421 5.29771C12.7311 5.45771 12.6366 5.41771 12.7446 5.53771C12.7622 5.54571 12.8054 5.56491 12.7662 5.56491M11.2826 6.41771C11.2691 6.41771 11.2394 6.33131 11.1935 6.25771C11.1611 6.16171 11.1206 6.21611 11.0801 6.07051C11.0855 5.92011 11.0895 5.89451 11.0801 5.75051C10.9883 5.67371 10.9491 5.65131 10.8776 5.51051C10.7642 5.39851 10.8951 5.20651 10.9167 5.06571C10.8168 5.04011 10.7682 5.24971 10.6157 5.32491C10.505 5.41291 10.6022 5.14251 10.5482 4.98571C10.5117 4.76331 10.4024 5.09771 10.3619 5.19211C10.2876 5.25131 10.2647 5.32811 10.1594 5.21771C10.1594 5.13611 10.2255 4.90571 10.1972 4.86091C10.0919 4.92331 9.95418 5.10891 9.84483 5.13771C9.73413 5.11051 9.86778 4.90091 9.86778 4.74571C9.82728 4.72971 9.66933 5.15851 9.60453 5.16171C9.53973 5.16491 9.56808 4.74571 9.53703 4.75531C9.48978 4.83531 9.39393 5.00171 9.32778 5.05931C9.19953 5.03851 9.34668 4.77931 9.36558 4.68331C9.38718 4.56811 9.24543 4.90411 9.16983 4.92491C9.11448 4.98251 9.00513 5.02091 8.96733 5.03211C9.01053 4.93291 9.22383 4.73291 9.21033 4.67531C9.08478 4.68011 8.89443 4.87531 8.78778 4.89931C8.71758 4.89931 8.62038 4.92651 8.60823 4.92491C8.61363 4.79691 8.87013 4.69131 8.91063 4.61291C8.78508 4.63691 8.54343 4.76811 8.47323 4.87211C8.38953 4.89291 8.28423 4.92011 8.20323 4.87211C8.21538 4.75211 8.40438 4.52011 8.44623 4.44331C8.33148 4.50251 8.27478 4.54891 8.15328 4.57611C8.13033 4.60331 8.06553 4.66091 8.08578 4.60331C8.12223 4.49131 8.17623 4.44331 8.22078 4.36331C8.11953 4.38571 8.08173 4.45451 7.97373 4.52331C7.90488 4.52651 7.70778 4.76171 7.64163 4.76491C7.5297 4.86956 7.39899 4.94236 7.25958 4.97771C7.15698 5.00011 7.10703 5.02571 7.05708 5.08491C7.10838 4.97771 7.18668 4.87691 7.25958 4.81931C7.30425 4.72236 7.37577 4.64663 7.46208 4.60491C7.48773 4.56811 7.55793 4.55851 7.48368 4.55211C7.42023 4.61931 7.31223 4.69611 7.25958 4.73931C7.19073 4.79051 7.11108 4.84171 7.07868 4.81931C7.11513 4.70411 7.17993 4.67531 7.23663 4.57931C7.35543 4.48971 7.23663 4.54731 7.14618 4.57931C7.08813 4.64011 6.98418 4.68651 6.89913 4.73931C6.80463 4.76811 6.74118 4.83531 6.62913 4.87211C6.62913 4.91051 6.66153 4.80331 6.67503 4.76491C6.76683 4.64651 6.79113 4.61291 6.89913 4.57931C6.92613 4.53291 6.95853 4.55211 6.87753 4.55211C6.81543 4.61611 6.73173 4.65131 6.65208 4.71211C6.57243 4.73291 6.46848 4.73931 6.36048 4.73931C6.22008 4.75851 6.23223 4.77131 6.36048 4.68491C6.43203 4.60491 6.49143 4.62571 6.49548 4.52491C6.41043 4.59851 6.30648 4.65291 6.20253 4.71211C6.11613 4.71531 6.09318 4.73931 6.00003 4.73931C6.04458 4.68491 6.07158 4.61611 6.13503 4.57931C6.22953 4.45611 6.07563 4.55531 6.04458 4.57931H5.70708C5.64768 4.66891 5.70438 4.57931 5.75298 4.52491C5.81103 4.48971 5.87178 4.44331 5.86503 4.41931C5.79753 4.48811 5.72058 4.52011 5.66253 4.57931C5.60043 4.60171 5.52753 4.61131 5.52753 4.63211C5.57748 4.54731 5.65713 4.49451 5.70843 4.41931C5.78403 4.40011 5.84883 4.37131 5.86503 4.33931H5.55048H5.77458C5.88933 4.33931 5.98653 4.32651 6.09048 4.31211C6.26868 4.27691 6.07428 4.25931 5.97708 4.25931C5.95953 4.21771 6.03378 4.19531 6.11208 4.17931C6.17958 4.14091 6.26463 4.10731 6.33753 4.07211C6.4019 4.04894 6.46257 4.01325 6.51708 3.96651C6.44958 3.96971 6.44958 3.98891 6.38208 3.99211C6.48333 3.98411 6.55488 3.96651 6.67503 3.96651C6.77398 3.92785 6.87129 3.88353 6.96663 3.83371C7.00713 3.77611 7.02333 3.77931 6.92208 3.77931C7.01253 3.74571 7.14078 3.72811 7.21368 3.69931C7.30673 3.67621 7.3973 3.64079 7.48368 3.59371C7.54983 3.54091 7.58763 3.47851 7.66323 3.43371C7.75098 3.50411 7.75233 3.51371 7.91028 3.51371C8.03718 3.51211 8.11548 3.47531 8.18028 3.40651C8.27748 3.37451 8.29503 3.32011 8.40573 3.30091C8.50975 3.32028 8.615 3.32884 8.72028 3.32651C8.82828 3.29291 8.93223 3.23051 9.01188 3.16651C9.08073 3.12651 9.16308 3.06891 9.23733 3.03371C9.31833 3.08331 9.38313 3.12331 9.48438 3.14091C9.58833 3.12171 9.64368 3.06091 9.73143 3.03371C9.78555 2.96544 9.85637 2.919 9.93393 2.90091C10.0649 2.82411 10.0554 2.92491 10.1135 3.00651C10.181 3.08971 10.2674 3.04971 10.3605 3.08651C10.4132 3.18251 10.451 3.24651 10.5185 3.29931C10.5711 3.37611 10.6332 3.39531 10.7439 3.40651C10.7844 3.47051 10.752 3.51531 10.833 3.53931C10.8654 3.58091 10.9208 3.59691 10.968 3.61931" stroke="#772600" stroke-width="0.128598"/>
<path d="M12.5974 5.73771V5.75051C12.5974 5.71371 12.5974 5.73451 12.6204 5.80491C12.6285 5.86251 12.6096 5.85611 12.5866 5.89771C12.5826 5.95691 12.5758 6.00011 12.5758 6.07051C12.5677 6.12811 12.5407 6.18251 12.5191 6.23051C12.4975 6.28011 12.4044 6.30891 12.4071 6.37771C12.3531 6.39531 12.3517 6.35371 12.3504 6.28331C12.318 6.24011 12.3072 6.18091 12.2829 6.12331C12.2694 6.06891 12.237 6.02731 12.2154 5.96331C12.183 5.90411 12.1546 5.88651 12.1263 5.81771C12.1141 5.78571 12.1168 5.74411 12.0925 5.72491C12.0561 5.66891 12.0318 5.66091 11.9683 5.65771C11.9197 5.67051 11.9008 5.69611 11.8563 5.71051C11.8212 5.72491 11.7537 5.72011 11.7105 5.73771C11.6997 5.75851 11.7321 5.76971 11.7442 5.81771C11.7145 5.84651 11.7037 5.89611 11.6875 5.93771C11.6605 5.97771 11.643 5.99691 11.6308 6.05771C11.6497 6.09451 11.6335 6.14411 11.6092 6.17771C11.6011 6.23851 11.5755 6.27211 11.5633 6.32331C11.5282 6.35371 11.5147 6.38091 11.485 6.43051C11.4594 6.47371 11.4364 6.47051 11.373 6.47051C11.323 6.45451 11.3163 6.42251 11.2717 6.40331C11.2699 6.38945 11.2623 6.38091 11.2488 6.37771" stroke="#782600" stroke-width="0.113901"/>
<path fill-rule="evenodd" clip-rule="evenodd" d="M11.38 6.275C11.38 6.275 11.36 6.525 11.2 6.69C11.04 6.855 10.71 7.045 10.71 7.045C10.71 7.045 11.155 6.835 11.2 6.88C11.245 6.925 10.915 7.295 10.915 7.295C10.915 7.295 11.35 6.91 11.405 6.91C11.46 6.91 11.585 7.285 11.635 7.275C11.685 7.265 11.535 6.8 11.555 6.725C11.575 6.655 11.555 6.26 11.555 6.26L11.385 6.275H11.38ZM12.405 6.245C12.405 6.245 12.385 6.51 12.225 6.685C12.065 6.86 11.735 7.065 11.735 7.065C11.735 7.065 12.18 6.84 12.225 6.89C12.27 6.94 11.94 7.33 11.94 7.33C11.94 7.33 12.375 6.92 12.43 6.92C12.485 6.92 12.61 7.32 12.66 7.31C12.71 7.3 12.56 6.8 12.58 6.725C12.6 6.645 12.58 6.225 12.58 6.225L12.405 6.245ZM10.97 3.845C10.97 3.89 10.92 3.93 10.865 3.93C10.81 3.93 10.755 3.89 10.755 3.84C10.755 3.79 10.805 3.75 10.865 3.75C10.925 3.75 10.97 3.79 10.97 3.84V3.845Z" fill="#812E00"/>
</g>
</g>
<defs>
<clipPath id="clip0_2214_3336">
<path d="M0 12C0 5.37258 5.37258 0 12 0C18.6274 0 24 5.37258 24 12C24 18.6274 18.6274 24 12 24C5.37258 24 0 18.6274 0 12Z" fill="white"/>
</clipPath>
<clipPath id="clip1_2214_3336">
<rect width="32" height="24" fill="white" transform="translate(-4)"/>
</clipPath>
</defs>
</svg>
