<svg width="24" height="24" viewBox="0 0 24 24" fill="none" xmlns="http://www.w3.org/2000/svg">
<g clip-path="url(#clip0_2214_3493)">
<g clip-path="url(#clip1_2214_3493)">
<path d="M-4 0H28V24H-4V0Z" fill="#18C3DF"/>
<path d="M-4 8H28V16H-4V8Z" fill="white"/>
<path d="M11.6 12.0001L12.2666 12.1334L12 10.6667L11.6 12.0001Z" fill="#18C3DF"/>
<path d="M12.4 12.0001L11.7333 12.1334L12 10.6667L12.4 12.0001Z" fill="#18C3DF"/>
<path d="M11.8764 11.6195L11.9556 12.2948L13.2681 11.5879L11.8764 11.6195Z" fill="#18C3DF"/>
<path d="M12.1236 12.3805L11.7908 11.7877L13.2681 11.5881L12.1236 12.3805Z" fill="#18C3DF"/>
<path d="M11.8764 12.3805L12.2092 11.7877L10.7319 11.5881L11.8764 12.3805Z" fill="#18C3DF"/>
<path d="M12.1236 11.6195L12.0444 12.2948L10.7319 11.5879L12.1236 11.6195Z" fill="#18C3DF"/>
<path d="M12.3236 11.7651L11.7059 12.049L12.7837 13.0789L12.3236 11.7651Z" fill="#18C3DF"/>
<path d="M11.6764 12.2353L12.1373 11.7356L12.7837 13.0789L11.6764 12.2353Z" fill="#18C3DF"/>
<path d="M12.3236 12.2353L11.8626 11.7356L11.2163 13.0789L12.3236 12.2353Z" fill="#18C3DF"/>
<path d="M11.6764 11.7651L12.2941 12.049L11.2163 13.0789L11.6764 11.7651Z" fill="#18C3DF"/>
<path d="M18.265 9.86507L18.9317 9.9984L18.665 8.53174L18.265 9.86507Z" fill="#18C3DF"/>
<path d="M19.065 9.86507L18.3983 9.9984L18.665 8.53174L19.065 9.86507Z" fill="#18C3DF"/>
<path d="M18.5414 9.48453L18.6206 10.1598L19.9331 9.45293L18.5414 9.48453Z" fill="#18C3DF"/>
<path d="M18.7886 10.2455L18.4558 9.65268L19.9331 9.45307L18.7886 10.2455Z" fill="#18C3DF"/>
<path d="M18.5414 10.2455L18.8742 9.65268L17.3969 9.45307L18.5414 10.2455Z" fill="#18C3DF"/>
<path d="M18.7886 9.48453L18.7094 10.1598L17.3969 9.45293L18.7886 9.48453Z" fill="#18C3DF"/>
<path d="M18.9886 9.62981L18.3709 9.9138L19.4487 10.9436L18.9886 9.62981Z" fill="#18C3DF"/>
<path d="M18.3414 10.1L18.8024 9.6003L19.4487 10.9436L18.3414 10.1Z" fill="#18C3DF"/>
<path d="M18.9886 10.1L18.5276 9.6003L17.8813 10.9436L18.9886 10.1Z" fill="#18C3DF"/>
<path d="M18.3414 9.62981L18.9591 9.9138L17.8813 10.9436L18.3414 9.62981Z" fill="#18C3DF"/>
<path d="M18.265 13.8651L18.9317 13.9984L18.665 12.5317L18.265 13.8651Z" fill="#18C3DF"/>
<path d="M19.065 13.8651L18.3983 13.9984L18.665 12.5317L19.065 13.8651Z" fill="#18C3DF"/>
<path d="M18.5414 13.4845L18.6206 14.1598L19.9331 13.4529L18.5414 13.4845Z" fill="#18C3DF"/>
<path d="M18.7886 14.2455L18.4558 13.6527L19.9331 13.4531L18.7886 14.2455Z" fill="#18C3DF"/>
<path d="M18.5414 14.2455L18.8742 13.6527L17.3969 13.4531L18.5414 14.2455Z" fill="#18C3DF"/>
<path d="M18.7886 13.4845L18.7094 14.1598L17.3969 13.4529L18.7886 13.4845Z" fill="#18C3DF"/>
<path d="M18.9886 13.6298L18.3709 13.9138L19.4487 14.9436L18.9886 13.6298Z" fill="#18C3DF"/>
<path d="M18.3414 14.1L18.8024 13.6003L19.4487 14.9436L18.3414 14.1Z" fill="#18C3DF"/>
<path d="M18.9886 14.1L18.5276 13.6003L17.8813 14.9436L18.9886 14.1Z" fill="#18C3DF"/>
<path d="M18.3414 13.6298L18.9591 13.9138L17.8813 14.9436L18.3414 13.6298Z" fill="#18C3DF"/>
<path d="M4.935 9.86507L5.60166 9.9984L5.335 8.53174L4.935 9.86507Z" fill="#18C3DF"/>
<path d="M5.73499 9.86507L5.06832 9.9984L5.33499 8.53174L5.73499 9.86507Z" fill="#18C3DF"/>
<path d="M5.21142 9.48453L5.29062 10.1598L6.6031 9.45293L5.21142 9.48453Z" fill="#18C3DF"/>
<path d="M5.45864 10.2455L5.12582 9.65268L6.60311 9.45307L5.45864 10.2455Z" fill="#18C3DF"/>
<path d="M5.2114 10.2455L5.54422 9.65268L4.06694 9.45307L5.2114 10.2455Z" fill="#18C3DF"/>
<path d="M5.45863 9.48453L5.37942 10.1598L4.06695 9.45293L5.45863 9.48453Z" fill="#18C3DF"/>
<path d="M5.65861 9.62981L5.04089 9.9138L6.11872 10.9436L5.65861 9.62981Z" fill="#18C3DF"/>
<path d="M5.01139 10.1L5.47236 9.6003L6.11871 10.9436L5.01139 10.1Z" fill="#18C3DF"/>
<path d="M5.65862 10.1L5.19765 9.6003L4.5513 10.9436L5.65862 10.1Z" fill="#18C3DF"/>
<path d="M5.0114 9.62981L5.62912 9.9138L4.5513 10.9436L5.0114 9.62981Z" fill="#18C3DF"/>
<path d="M4.935 13.8651L5.60166 13.9984L5.335 12.5317L4.935 13.8651Z" fill="#18C3DF"/>
<path d="M5.73499 13.8651L5.06832 13.9984L5.33499 12.5317L5.73499 13.8651Z" fill="#18C3DF"/>
<path d="M5.21142 13.4845L5.29062 14.1598L6.6031 13.4529L5.21142 13.4845Z" fill="#18C3DF"/>
<path d="M5.45864 14.2455L5.12582 13.6527L6.60311 13.4531L5.45864 14.2455Z" fill="#18C3DF"/>
<path d="M5.2114 14.2455L5.54422 13.6527L4.06694 13.4531L5.2114 14.2455Z" fill="#18C3DF"/>
<path d="M5.45863 13.4845L5.37942 14.1598L4.06695 13.4529L5.45863 13.4845Z" fill="#18C3DF"/>
<path d="M5.65861 13.6298L5.04089 13.9138L6.11872 14.9436L5.65861 13.6298Z" fill="#18C3DF"/>
<path d="M5.01139 14.1L5.47236 13.6003L6.11871 14.9436L5.01139 14.1Z" fill="#18C3DF"/>
<path d="M5.65862 14.1L5.19765 13.6003L4.5513 14.9436L5.65862 14.1Z" fill="#18C3DF"/>
<path d="M5.0114 13.6298L5.62912 13.9138L4.5513 14.9436L5.0114 13.6298Z" fill="#18C3DF"/>
</g>
</g>
<defs>
<clipPath id="clip0_2214_3493">
<path d="M0 12C0 5.37258 5.37258 0 12 0C18.6274 0 24 5.37258 24 12C24 18.6274 18.6274 24 12 24C5.37258 24 0 18.6274 0 12Z" fill="white"/>
</clipPath>
<clipPath id="clip1_2214_3493">
<rect width="32" height="24" fill="white" transform="translate(-4)"/>
</clipPath>
</defs>
</svg>
