<svg width="24" height="24" viewBox="0 0 24 24" fill="none" xmlns="http://www.w3.org/2000/svg">
<g clip-path="url(#clip0_3053_1910)">
<g clip-path="url(#clip1_3053_1910)">
<mask id="mask0_3053_1910" style="mask-type:luminance" maskUnits="userSpaceOnUse" x="-4" y="0" width="33" height="24">
<path d="M-3.89999 0H28.0969V24H-3.89999V0Z" fill="white"/>
</mask>
<g mask="url(#mask0_3053_1910)">
<path fill-rule="evenodd" clip-rule="evenodd" d="M29.1843 24H-5.1001V0H29.1843V24Z" fill="#BA0000"/>
<path fill-rule="evenodd" clip-rule="evenodd" d="M13.0131 18.1C13.0222 18.0729 13.0403 17.7927 13.0312 17.7927C13.0222 17.7927 12.6063 17.3 12.6154 17.3C12.6244 17.3 13.1487 17.4175 13.1487 17.3994C13.1487 17.3814 13.3612 16.8796 13.3612 16.8706L13.6143 17.4808L14.1341 17.7068L13.7725 18.0096L13.8493 18.5972C13.8493 18.6108 13.4877 18.2537 13.4877 18.2537L13.0855 18.2989C13.0855 18.2989 13.0312 18.1181 13.0131 18.1Z" fill="#FFEF00" stroke="black" stroke-width="0.07755"/>
<path fill-rule="evenodd" clip-rule="evenodd" d="M10.1971 10.4567C9.84903 10.6375 8.52468 12.1516 8.34388 12.3867C8.15927 12.7837 7.90168 13.1425 7.58452 13.4444C7.25456 13.693 7.07377 14.032 7.11897 14.3484C7.11897 14.7552 7.34044 15.0264 7.51672 15.3021C7.62068 15.4332 7.76532 15.5145 7.91448 15.5281C8.22636 15.5642 8.25348 15.6637 8.41168 15.7179C9.01736 16.5496 9.93039 17.1643 10.5813 17.6479C10.8808 17.7899 11.1555 17.9792 11.3949 18.2084C11.5847 18.5791 11.5485 18.9316 11.5214 19.1124L11.0378 20.9475C10.9519 21.4447 11.3903 21.3362 11.4129 21.2368C11.6073 20.9792 11.9011 21.16 12.3169 19.6865L12.8955 18.9135C12.8955 18.9135 13.117 18.8231 13.117 18.8005C13.456 18.3937 13.1983 18.1677 13.004 18.0909L12.5881 17.9372C12.5881 17.9372 12.1 17.4491 12.0774 17.4491C11.8469 16.7756 10.7078 15.3428 10.4457 15.1439C10.2649 14.9495 10.1745 14.8727 10.0027 14.7642C9.73603 14.6376 9.65015 14.5924 9.48743 14.5292C9.35183 14.4749 9.44675 14.3258 9.53263 14.258C10.4366 13.7653 11.1463 13.2229 12.0096 12.6714L12.1452 12.581L11.8333 10.8092L10.3959 10.303C10.3191 10.3527 10.2603 10.4069 10.1971 10.4567Z" fill="white" stroke="black" stroke-width="0.09165"/>
<path fill-rule="evenodd" clip-rule="evenodd" d="M11.3994 19.7767C11.3994 19.7587 12.3034 19.5959 12.3034 19.5959L12.1904 19.9304L11.2999 20.2016L11.3994 19.7813V19.7767Z" fill="#FFEC00"/>
<path d="M9.06258 16.4052C9.15482 16.1937 9.28884 16.003 9.45661 15.8445C9.62438 15.6861 9.82244 15.5632 10.0389 15.4832" stroke="black" stroke-width="0.07755"/>
<path d="M11.3677 19.7861C11.4265 19.7725 11.6841 19.6957 11.7564 19.6821C11.8378 19.6641 11.9146 19.646 11.9915 19.6189C12.0819 19.6008 12.1361 19.5827 12.2265 19.5691C12.3004 19.543 12.3759 19.5219 12.4525 19.5059M11.205 20.3421C11.2392 20.3079 11.2771 20.2776 11.318 20.2517C11.3677 20.2336 11.544 20.1613 11.6118 20.1477C11.6835 20.1298 11.7544 20.1087 11.8242 20.0844L12.0322 20.0302C12.1 20.0031 12.1632 19.985 12.231 19.9669" stroke="black" stroke-width="0.0846"/>
<path d="M11.5667 16.536H11.5577C11.5938 16.536 11.5712 16.536 11.517 16.5992C11.4989 16.649 11.3362 16.7665 11.2096 16.7665C11.1391 16.7741 11.0682 16.7787 10.9972 16.78L10.9385 16.7665M11.5577 19.1847H11.621C11.6888 19.1847 11.7566 19.1982 11.8108 19.1982C11.8786 19.1982 11.9419 19.2163 12.0052 19.2163C12.073 19.2254 12.1498 19.2208 12.2176 19.2344C12.2899 19.2344 12.3532 19.2479 12.43 19.2479M12.43 19.2479C12.4933 19.2525 12.5295 19.2615 12.5973 19.2615L12.43 19.2479ZM11.1192 20.7531C11.1504 20.7192 11.1853 20.6888 11.2232 20.6627C11.2684 20.6491 11.4311 20.5723 11.4944 20.5633C11.5587 20.5437 11.6221 20.5211 11.6842 20.4955L11.8786 20.4503C11.9374 20.4186 11.9961 20.4005 12.0594 20.3825M12.3216 18.5202C12.2854 18.6242 12.3351 18.6513 12.3532 18.6965C12.4229 18.7709 12.5122 18.8242 12.6108 18.8502C12.6651 18.8638 12.7012 18.8773 12.7645 18.9044C12.8052 18.9044 12.8233 18.918 12.8549 18.927M7.23207 14.6421H7.24563C7.20495 14.6421 7.23207 14.6466 7.29535 14.5969C7.34055 14.5472 7.37219 14.5246 7.41287 14.4749M8.06375 15.5596C8.07279 15.5596 8.81406 15.189 8.8909 15.1077L9.05814 14.9766C9.10334 14.954 9.13498 14.9269 9.17566 14.8997C9.2073 14.8545 9.2525 14.8229 9.27962 14.7777C9.32482 14.737 9.30222 14.6963 9.3429 14.6466L9.40166 14.4749M10.3418 15.0263C10.3463 15.0534 10.3328 15.1348 10.3328 15.198C10.3328 15.2704 10.2379 15.4918 10.1249 15.5596" stroke="black" stroke-width="0.07755"/>
<path d="M9.01728 15.0174L9.32012 15.1123C9.54612 15.1936 10.0162 15.492 10.0659 15.5326C10.1111 15.5688 10.2015 15.605 10.2286 15.6456C10.2829 15.6908 10.319 15.7406 10.3597 15.7903C10.4049 15.8445 10.4501 15.8942 10.4727 15.944C10.7195 16.2867 10.923 16.6586 11.0784 17.0514C11.11 17.083 11.1236 17.1282 11.1552 17.1779C11.1823 17.2412 11.214 17.2683 11.2456 17.318C11.2908 17.3497 11.3451 17.4084 11.3993 17.4356C11.4581 17.4853 11.5123 17.5034 11.5575 17.5395C11.6163 17.5666 12.2943 17.9915 12.3259 18.0141C12.3892 18.0638 12.5745 18.2582 12.4434 18.4028C12.3892 18.448 12.3349 18.5158 12.2897 18.5384C12.24 18.5927 12.1722 18.6153 12.1135 18.6379C11.8106 18.7283 11.6524 18.6966 11.5937 18.6966H11.5304M7.51665 13.5032C7.60705 13.5393 7.57089 13.5122 7.64773 13.5484C7.70197 13.571 7.73813 13.571 7.78333 13.5936C7.84209 13.6071 7.99577 13.6388 8.06809 13.7111C8.12232 13.7563 8.15848 13.8015 8.22176 13.8331C8.2865 13.8774 8.35631 13.9139 8.42968 13.9416C8.502 13.9687 8.58336 14.0004 8.65568 14.0004H9.00824H8.82744" stroke="black" stroke-width="0.07755"/>
<path fill-rule="evenodd" clip-rule="evenodd" d="M7.49864 14.3616C7.68848 14.348 8.0094 14.4068 8.01844 14.4068L8.44332 14.3977C8.66931 14.3797 8.71451 14.2938 8.75067 14.2305C8.83655 14.104 8.89079 14.0588 8.95859 13.9593C9.05803 13.887 9.20267 14.0633 9.20719 14.0633C9.56879 14.4068 9.27951 14.8226 9.26143 14.8362C9.08063 15.0034 9.03995 15.0125 8.93147 14.9085C8.82299 14.7774 8.79135 14.7187 8.70095 14.6735C8.52468 14.5921 8.1676 14.6554 8.15856 14.6554L7.97324 14.7277C7.88284 14.7593 7.8286 14.8362 7.67944 14.8633C7.52124 14.8723 7.47152 14.8588 7.39468 14.7322C7.29072 14.574 7.34044 14.3797 7.49864 14.3616Z" fill="#FFE606" stroke="black" stroke-width="0.07755"/>
<path fill-rule="evenodd" clip-rule="evenodd" d="M17.5691 6.56033C17.542 6.56033 17.2844 6.68689 17.2889 6.69593C17.2934 6.70045 17.0719 7.30613 17.0674 7.30161C17.0629 7.29257 16.9092 6.77277 16.8911 6.78181C16.8776 6.79085 16.3352 6.85413 16.3307 6.85865L16.7375 6.33885L16.6787 5.77385L17.1217 5.94561L17.5963 5.58402C17.6053 5.5795 17.4742 6.07217 17.4742 6.07217L17.7093 6.39761C17.7093 6.39761 17.5737 6.53321 17.5691 6.56033Z" fill="#FFEF00" stroke="black" stroke-width="0.07755"/>
<path fill-rule="evenodd" clip-rule="evenodd" d="M12.2898 12.762C12.6107 12.9745 14.5814 13.3903 14.8797 13.431C15.3159 13.3975 15.7544 13.4466 16.1724 13.5756C16.5476 13.7383 16.9318 13.7293 17.1894 13.5304C17.542 13.3406 17.6685 13.0151 17.8222 12.7168C17.8547 12.6459 17.8715 12.5688 17.8715 12.4908C17.8715 12.4128 17.8547 12.3357 17.8222 12.2648C17.7047 11.9755 17.777 11.9032 17.7499 11.7405C18.1748 10.8004 18.2652 9.70652 18.3646 8.89744C18.3556 8.42285 18.4053 8.06125 18.455 7.91661C18.6305 7.65982 18.8841 7.46644 19.1782 7.36517L21.0178 6.88605C21.497 6.71429 21.1851 6.38886 21.0856 6.41598C20.7692 6.37078 20.7783 6.02726 19.2912 6.38434L18.333 6.2623C18.333 6.2623 18.1522 6.11314 18.1296 6.1267C17.6098 6.03178 17.5375 6.36626 17.5646 6.56965L17.6369 7.01261C17.6369 7.01261 17.4516 7.67253 17.4606 7.69061C16.986 8.22397 16.2854 9.93252 16.2402 10.2625C16.2176 10.5698 16.1046 10.5111 16.1318 10.8139C16.1318 11.049 16.1046 10.9043 16.1815 11.3834C16.2041 11.5281 16.0233 11.519 15.9238 11.4738C15.056 10.9314 14.2334 10.5744 13.3248 10.0952L13.1847 10.0229L11.7926 11.162L12.0547 12.6626C12.1361 12.7078 12.2084 12.7304 12.2852 12.762H12.2898Z" fill="white" stroke="black" stroke-width="0.09165"/>
<path fill-rule="evenodd" clip-rule="evenodd" d="M19.8246 7.14352C19.6179 6.91697 19.4175 6.68486 19.2234 6.44744L19.567 6.37964L20.2359 7.026L19.8246 7.14352Z" fill="#FFEC00"/>
<path d="M18.0302 10.8321C17.8005 10.8557 17.5684 10.8327 17.3478 10.7643C17.1272 10.696 16.9227 10.5837 16.7466 10.4343" stroke="black" stroke-width="0.07755"/>
<path d="M19.8472 7.16603C19.802 7.12535 19.6122 6.94003 19.567 6.87675C19.5121 6.81721 19.4548 6.75991 19.3952 6.70499C19.3365 6.63719 19.2913 6.59651 19.2325 6.52419C19.1746 6.47374 19.1203 6.41938 19.0698 6.36147M20.4077 7.03947C20.3942 7.03947 20.3173 7.00783 20.2721 6.98523C20.236 6.94455 20.0823 6.83155 20.0416 6.77731C19.9912 6.72374 19.9384 6.67246 19.8834 6.62363C19.8292 6.56487 19.7885 6.53323 19.7342 6.46543C19.6797 6.42414 19.6283 6.37881 19.5806 6.32983" stroke="black" stroke-width="0.0846"/>
<path d="M16.9138 8.5851L16.9183 8.59866C16.9002 8.5625 16.9093 8.5851 16.9951 8.59866C17.0494 8.58962 17.2302 8.6755 17.2889 8.78398C17.3251 8.8337 17.3793 8.91054 17.4065 8.96478C17.4155 8.97834 17.4155 9.00998 17.4245 9.02354M19.2325 7.29691L19.2235 7.28787L19.1964 7.24267L19.115 7.06639C19.0834 7.01215 19.0698 6.94435 19.0382 6.89011C19.0111 6.82683 18.9704 6.76355 18.9478 6.70027C18.9116 6.63247 18.8935 6.57371 18.8574 6.50139M18.8574 6.50139C18.8257 6.44715 18.8212 6.41099 18.7851 6.35223L18.8574 6.50139ZM20.81 6.90819C20.7661 6.89843 20.7236 6.88324 20.6835 6.86299C20.6473 6.83135 20.5027 6.72739 20.4575 6.68219C20.4099 6.63465 20.3601 6.5894 20.3083 6.54659C20.2631 6.48783 20.2224 6.45619 20.1727 6.39743C20.1213 6.36067 20.0729 6.31986 20.0281 6.27539M18.2698 6.95339C18.3828 6.93531 18.3828 6.88107 18.4099 6.84039C18.4325 6.79519 18.4506 6.68219 18.4189 6.54207L18.3918 6.38387C18.3737 6.34319 18.3737 6.32059 18.3692 6.29347M17.3884 13.2904L17.3839 13.2814C17.4019 13.3175 17.3929 13.2949 17.3115 13.2588L17.1533 13.2136M17.7816 12.1152C17.7771 12.1062 17.0901 11.6451 16.9816 11.618C16.9183 11.5864 16.8595 11.5728 16.7872 11.5366L16.6607 11.4734C16.6019 11.4643 16.5522 11.4417 16.5025 11.4417C16.4482 11.4236 16.4166 11.4598 16.3578 11.4508L16.177 11.4824M16.1996 10.3931C16.2177 10.375 16.2991 10.3479 16.3533 10.3163C16.4166 10.2846 16.6562 10.2575 16.7691 10.3208" stroke="black" stroke-width="0.07755"/>
<path d="M16.8415 11.5549L16.7737 11.2385C16.747 10.9559 16.747 10.6714 16.7737 10.3887C16.7827 10.33 16.7737 10.2351 16.7963 10.1853C16.8098 10.1221 16.8324 10.0633 16.855 10.0045C16.8821 9.93674 16.9047 9.87798 16.9319 9.82826C16.9635 9.64746 17.4743 8.91975 17.5104 8.88359C17.539 8.84174 17.5691 8.80103 17.6008 8.76155C17.6144 8.71635 17.646 8.68019 17.6731 8.62595C17.7183 8.57623 17.7274 8.53555 17.7545 8.48131C17.759 8.43159 17.7816 8.35023 17.7816 8.29147C17.7952 8.21463 17.7816 8.15587 17.7952 8.10615C17.7861 8.03835 17.8268 7.23831 17.8313 7.20215C17.8449 7.12079 17.9217 6.86316 18.1116 6.90836C18.1794 6.93095 18.2607 6.94451 18.3105 6.97615C18.3737 6.99423 18.428 7.04395 18.4777 7.08011C18.7037 7.30159 18.7534 7.45075 18.7851 7.50499L18.8167 7.55923M16.2493 13.5798L16.2448 13.5708C16.2629 13.6024 16.2539 13.5844 16.2313 13.5211C16.2268 13.4623 16.2087 13.3855 16.1996 13.3312C16.1861 13.2725 16.1589 13.2092 16.168 13.173C16.1454 13.1143 16.1589 13.0691 16.168 13.0103C16.1815 12.938 16.1906 12.8883 16.1906 12.8205C16.1996 12.7301 16.1906 12.6758 16.1951 12.5945C16.1725 12.5267 16.168 12.4724 16.1364 12.4046L16.046 12.2238L15.9556 12.0656L16.046 12.2193" stroke="black" stroke-width="0.07755"/>
<path fill-rule="evenodd" clip-rule="evenodd" d="M17.0133 13.2005C16.9093 13.0377 16.8009 12.7304 16.7963 12.7259L16.5839 12.3552C16.4573 12.1744 16.3579 12.1744 16.2856 12.1744C16.1319 12.1609 16.0641 12.1292 15.9511 12.1247C15.8336 12.0705 15.9195 11.858 15.9149 11.8535C16.037 11.3744 16.5477 11.4196 16.5658 11.4286C16.7963 11.5055 16.8234 11.5371 16.7873 11.6817C16.7285 11.8399 16.6969 11.8987 16.6969 11.9981C16.7105 12.188 16.9455 12.4727 16.9455 12.4773L17.0992 12.6038C17.1715 12.6671 17.2664 12.6761 17.3613 12.7982C17.4472 12.9293 17.4608 12.979 17.3884 13.1055C17.298 13.2773 17.1082 13.327 17.0133 13.2005Z" fill="#FFE606" stroke="black" stroke-width="0.07755"/>
<path fill-rule="evenodd" clip-rule="evenodd" d="M5.06683 8.73024C5.08943 8.74832 5.32898 8.89748 5.33802 8.88844C5.34706 8.8794 5.97082 8.73476 5.96178 8.7438C5.95274 8.75284 5.60922 9.16416 5.6273 9.1732C5.64538 9.18224 5.9889 9.59808 5.99794 9.6026L5.34254 9.54836L4.89959 9.90092L4.80015 9.43988L4.24419 9.241C4.23515 9.23648 4.71879 9.07828 4.71879 9.07828L4.86343 8.70312C4.86343 8.70312 5.04875 8.73476 5.07587 8.73024H5.06683Z" fill="#FFEF00" stroke="black" stroke-width="0.07755"/>
<path fill-rule="evenodd" clip-rule="evenodd" d="M13.1487 9.75143C13.1487 9.3582 12.4164 7.48241 12.2899 7.21573C12.0229 6.8688 11.8235 6.47474 11.7023 6.05409C11.6345 5.64729 11.4175 5.3309 11.1147 5.22242C10.7576 5.0371 10.4141 5.10942 10.0841 5.14106C9.92139 5.1727 9.78127 5.2631 9.70443 5.38966C9.52363 5.64729 9.42871 5.62469 9.30215 5.73769C8.28516 5.89589 7.3224 6.42021 6.59017 6.77729C6.32611 6.97694 6.03153 7.13263 5.71781 7.23833C5.40692 7.23378 5.10578 7.12917 4.85902 6.94001L3.4533 5.66085C3.04651 5.35802 2.94707 5.79645 3.02391 5.86425C3.15951 6.15353 2.86571 6.32981 3.98214 7.38297L4.4025 8.2508C4.4025 8.2508 4.3799 8.48584 4.4025 8.49488C4.60138 8.98304 4.92682 8.861 5.0805 8.7254L5.41045 8.42256C5.41045 8.42256 6.06585 8.21464 6.07489 8.19656C6.78001 8.30052 8.59704 7.957 8.89536 7.81236C9.16655 7.6632 9.18011 7.78976 9.41515 7.59992C9.60951 7.46885 9.50555 7.57281 9.86715 7.24285C9.97563 7.15245 10.0615 7.30161 10.0841 7.41009C10.1022 8.43612 10.2559 9.31752 10.3508 10.339L10.3689 10.4972L12.0865 11.0396L13.1984 10L13.1532 9.74691L13.1487 9.75143Z" fill="white" stroke="black" stroke-width="0.09165"/>
<path fill-rule="evenodd" clip-rule="evenodd" d="M4.32114 6.51974C4.3347 6.5333 4.06802 7.40566 4.06802 7.40566L3.82394 7.15706L3.9957 6.2395L4.32114 6.51974Z" fill="#FFEC00"/>
<path d="M8.39368 6.00464C8.71912 6.36624 8.82307 6.96287 8.76431 7.29735" stroke="black" stroke-width="0.07755"/>
<path d="M4.33462 6.48809C4.32106 6.54685 4.26682 6.81353 4.24422 6.88133C4.2229 6.96041 4.2048 7.04033 4.18998 7.12089L4.1267 7.35593C4.11766 7.43277 4.1041 7.50509 4.0815 7.58192M3.91426 6.09033C3.91878 6.10389 3.93686 6.18073 3.94138 6.23045C3.93234 6.28469 3.91878 6.47453 3.89618 6.54233C3.87938 6.614 3.8658 6.6864 3.8555 6.75929L3.8103 6.96721C3.80356 7.03733 3.79147 7.10684 3.77414 7.17513" stroke="black" stroke-width="0.0846"/>
<path d="M7.12363 8.16924L7.12815 8.15568C7.11007 8.19184 7.12815 8.16924 7.09199 8.0924C7.05131 8.0472 7.02871 7.85284 7.08295 7.73984C7.11027 7.67378 7.14043 7.60894 7.17335 7.54548C7.17787 7.53192 7.20047 7.51384 7.20951 7.50028M4.77776 6.93528L4.77324 6.94432L4.74612 6.98952C4.719 7.0528 4.6738 7.10704 4.64668 7.15676C4.61956 7.21552 4.56984 7.26072 4.54272 7.31948L4.43424 7.50028C4.39356 7.56356 4.35288 7.61328 4.31672 7.68108L4.22632 7.82572M3.58449 5.82337C3.59353 5.83241 3.61613 5.90925 3.62065 5.95897C3.61161 6.00417 3.60257 6.18497 3.58449 6.24373L3.55285 6.4426C3.53477 6.51492 3.53025 6.56464 3.50765 6.63696C3.50524 6.70075 3.49768 6.76424 3.48505 6.8268M5.0128 7.92968C4.93596 7.8438 4.89076 7.87544 4.84104 7.87092C4.7419 7.89817 4.65255 7.95303 4.5834 8.02912C4.54724 8.0698 4.5156 8.10144 4.46588 8.14212C4.44328 8.17828 4.4252 8.18732 4.4026 8.20992M10.7984 5.19057L10.7938 5.20413C10.8119 5.16797 10.7984 5.18605 10.8164 5.27193C10.839 5.33069 10.839 5.37137 10.8616 5.42561M9.60058 5.50697C9.60058 5.51601 9.58702 6.34316 9.62318 6.45164C9.63222 6.51944 9.6503 6.57368 9.65934 6.65956C9.65934 6.70476 9.67289 6.74996 9.67741 6.79516C9.70453 6.8494 9.70906 6.90364 9.7407 6.94432C9.75425 7.00308 9.79945 7.0076 9.82657 7.05732C9.85821 7.098 9.91697 7.1658 9.95313 7.19292M9.02654 7.776C8.99942 7.76696 8.93614 7.71272 8.8819 7.6856C8.81862 7.64944 8.66042 7.46412 8.6559 7.33304" stroke="black" stroke-width="0.07755"/>
<path d="M9.64575 6.60088L9.41975 6.82688C9.19785 7.00554 8.9586 7.1615 8.70559 7.29243C8.65135 7.31955 8.58355 7.38283 8.52479 7.38735C8.46603 7.41447 8.40275 7.42351 8.34399 7.43707C7.91621 7.5146 7.4803 7.53738 7.04676 7.50487C6.99543 7.50388 6.94417 7.50086 6.89308 7.49583C6.84788 7.50487 6.80268 7.50035 6.74392 7.50487C6.6716 7.50035 6.63544 7.51391 6.57668 7.51843C6.53148 7.54555 6.45464 7.56815 6.4004 7.60431C6.3326 7.63143 6.2874 7.67211 6.23768 7.69471C6.19248 7.73539 5.49641 8.13767 5.46025 8.15575C5.38793 8.18739 5.13029 8.26875 5.06249 8.08343C5.04441 8.01111 5.01729 7.93427 5.01277 7.88003C4.99017 7.81675 5.00373 7.74443 5.00373 7.68115C5.06701 7.36927 5.16645 7.24723 5.19357 7.19299L5.22521 7.13875M11.6571 5.98616L11.6526 5.99972C11.6662 5.96808 11.6617 5.98164 11.6165 6.03588C11.5713 6.07204 11.517 6.12628 11.4763 6.17148C11.4311 6.20764 11.395 6.26188 11.3588 6.27996C11.3227 6.32516 11.2775 6.34324 11.2232 6.37036C11.1631 6.39281 11.1055 6.42159 11.0515 6.45624C10.9746 6.4924 10.9294 6.53308 10.8616 6.57376C10.8164 6.628 10.7712 6.66416 10.7351 6.72744C10.6989 6.7862 10.6627 6.83592 10.6311 6.90372L10.5497 7.06191M11.0786 10.366L11.0921 10.3434C11.0695 10.3886 11.0741 10.3751 11.0967 10.3027C11.0967 10.2214 11.1193 10.1174 11.1193 10.0406C11.1328 9.95922 11.1464 9.87334 11.1464 9.79198C11.1419 9.70158 11.1419 9.61118 11.1283 9.52078C11.1283 9.43942 11.1147 9.35354 11.1147 9.26766C11.1147 9.1863 11.1057 9.1185 11.0876 9.04166C11.0875 8.96897 11.0815 8.89641 11.0695 8.82471C11.0741 8.77047 11.0605 8.71623 11.0469 8.67103L10.9927 8.44051L10.9475 8.25519C10.9385 8.18287 10.9023 8.09247 10.8842 8.03371C10.861 7.98489 10.8442 7.93322 10.8345 7.88003C10.8119 7.83031 10.7803 7.77155 10.7757 7.71731L10.7034 7.55007L10.6401 7.38735C10.6175 7.32407 10.5904 7.26983 10.5723 7.20655C10.5497 7.18395 10.5452 7.16135 10.5362 7.14327" stroke="black" stroke-width="0.07755"/>
<path fill-rule="evenodd" clip-rule="evenodd" d="M10.9293 5.55695C10.8504 5.71188 10.7565 5.85873 10.6491 5.99539L10.4592 6.37507C10.3779 6.58299 10.4276 6.66887 10.4637 6.72763C10.5406 6.86323 10.5541 6.93555 10.6084 7.03498C10.631 7.16154 10.405 7.20674 10.405 7.21126C9.93491 7.37398 9.69535 6.92199 9.69535 6.89939C9.63207 6.66435 9.64111 6.62819 9.78575 6.57847C9.94847 6.53779 10.0117 6.53327 10.0931 6.47903C10.2513 6.36151 10.3598 6.01347 10.3643 6.00895L10.3824 5.81007C10.3959 5.71967 10.3553 5.62927 10.4005 5.48463C10.4637 5.33999 10.4999 5.30383 10.6445 5.29027C10.8344 5.27671 10.9835 5.40779 10.9293 5.55695Z" fill="#FFE606" stroke="black" stroke-width="0.07755"/>
<path fill-rule="evenodd" clip-rule="evenodd" d="M10.3145 10.1311C10.2422 10.0633 11.6434 10.6373 11.8378 10.6419C12.0999 10.5469 13.1892 9.62939 13.1892 9.62939C13.1983 9.71979 13.239 9.95031 13.3429 10C12.9226 10.339 12.5429 10.669 12.1225 11.008C12.1496 11.5504 12.0547 12.1244 12.3259 12.7256C12.3259 12.7256 12.0005 12.7346 12.0005 12.7256C11.7112 12.4363 11.6072 11.0441 11.6072 11.0441L10.2241 10.4294C10.2919 10.3842 10.3417 10.2532 10.3145 10.1266V10.1311Z" fill="#FFEF00" stroke="black" stroke-width="0.07755"/>
<path d="M11.648 11.5598C11.6706 11.5417 11.3949 11.6864 11.3226 11.7225C10.0525 12.4005 9.39707 13.3949 9.35639 13.4311L9.25695 13.5848L9.153 13.7204C9.10225 13.7938 9.04794 13.8647 8.99028 13.9328C8.98124 13.9599 9.00836 13.9192 8.99932 13.9418M12.5204 10.7507C12.6147 10.8265 12.7127 10.8974 12.8142 10.9632C13.9984 11.7858 15.1781 11.9169 15.2324 11.935C15.2776 11.935 15.3454 11.9485 15.4132 11.9576C15.4674 11.9576 15.5307 11.9756 15.5849 11.9802C15.6482 11.9892 15.7838 12.0163 15.8471 12.0344C15.8742 12.0254 15.8245 12.0208 15.8471 12.0163" stroke="black" stroke-width="0.07755"/>
</g>
</g>
</g>
<defs>
<clipPath id="clip0_3053_1910">
<rect width="24" height="24" fill="white"/>
</clipPath>
<clipPath id="clip1_3053_1910">
<rect width="24" height="24" rx="12" fill="white"/>
</clipPath>
</defs>
</svg>
