<svg width="24" height="24" viewBox="0 0 24 24" fill="none" xmlns="http://www.w3.org/2000/svg">
<g clip-path="url(#clip0_2214_3160)">
<path d="M11.9995 24C18.6269 24 23.9995 18.6274 23.9995 12C23.9995 5.37258 18.6269 0 11.9995 0C5.37209 0 -0.000488281 5.37258 -0.000488281 12C-0.000488281 18.6274 5.37209 24 11.9995 24Z" fill="white"/>
<path d="M11.9996 24.0001C15.6366 24.0001 18.8955 22.3818 21.0962 19.8262H2.90295C5.10359 22.3818 8.36248 24.0001 11.9996 24.0001Z" fill="#0052B4"/>
<path d="M23.9995 12C23.9995 5.37262 18.6269 0 11.9995 0C5.37214 0 -0.000488281 5.37262 -0.000488281 12C-0.000488281 13.0831 0.143887 14.1323 0.412902 15.1305H23.5862C23.8551 14.1323 23.9995 13.0831 23.9995 12Z" fill="#0052B4"/>
<path d="M0.953308 16.6956C1.18464 17.2391 1.45506 17.7619 1.76082 18.2608H22.2383C22.5439 17.7618 22.8144 17.2391 23.0458 16.6956H0.953308Z" fill="#D80027"/>
<path d="M8.57785 12.7832L8.7721 13.381H9.40074L8.89219 13.7506L9.08644 14.3484L8.57785 13.9789L8.06925 14.3484L8.26355 13.7506L7.755 13.381H8.38365L8.57785 12.7832Z" fill="#FFDA44"/>
<path d="M8.57785 20.6094L8.7721 21.2073H9.40074L8.89219 21.5767L9.08644 22.1746L8.57785 21.8051L8.06925 22.1746L8.26355 21.5767L7.755 21.2073H8.38365L8.57785 20.6094Z" fill="#FFDA44"/>
<path d="M4.93484 17.9626L5.12909 18.5604H5.75773L5.24919 18.9299L5.44344 19.5278L4.93484 19.1583L4.42625 19.5278L4.62059 18.9299L4.112 18.5604H4.74059L4.93484 17.9626Z" fill="#FFDA44"/>
<path d="M6.32631 13.5659L6.52056 14.1638H7.14915L6.64065 14.5333L6.8349 15.1312L6.32631 14.7617L5.81771 15.1312L6.01206 14.5333L5.50342 14.1638H6.13206L6.32631 13.5659Z" fill="#FFDA44"/>
<path d="M4.112 16.0279L4.7405 16.0279L4.9348 15.4299L5.12909 16.0279L5.75773 16.0278L5.24914 16.3973L5.44344 16.9952L4.9348 16.6257L4.42625 16.9951L4.6205 16.3973L4.112 16.0279Z" fill="#FFDA44"/>
<path d="M5.81781 21.2778L6.01206 20.68L5.50342 20.3105H6.13206L6.32636 19.7126L6.52065 20.3105H7.14925L6.64065 20.68L6.8349 21.2779L6.32631 20.9083L5.81781 21.2778Z" fill="#FFDA44"/>
<path d="M12.2193 17.9626L12.0251 18.5604H11.3965L11.905 18.9299L11.7107 19.5278L12.2193 19.1583L12.7279 19.5278L12.5336 18.9299L13.0422 18.5604H12.4136L12.2193 17.9626Z" fill="#FFDA44"/>
<path d="M10.8279 13.5659L10.6337 14.1638H10.0051L10.5136 14.5333L10.3193 15.1312L10.8279 14.7617L11.3365 15.1312L11.1422 14.5333L11.6508 14.1638H11.0222L10.8279 13.5659Z" fill="#FFDA44"/>
<path d="M13.0422 16.0279L12.4137 16.0279L12.2194 15.4299L12.0251 16.0279L11.3965 16.0278L11.905 16.3973L11.7107 16.9952L12.2194 16.6257L12.7279 16.9951L12.5337 16.3973L13.0422 16.0279Z" fill="#FFDA44"/>
<path d="M11.3364 21.2778L11.1422 20.68L11.6508 20.3105H11.0222L10.8279 19.7126L10.6336 20.3105H10.005L10.5136 20.68L10.3193 21.2779L10.8279 20.9083L11.3364 21.2778Z" fill="#FFDA44"/>
</g>
<defs>
<clipPath id="clip0_2214_3160">
<rect width="24" height="24" fill="white" transform="translate(-0.000488281)"/>
</clipPath>
</defs>
</svg>
