<svg width="24" height="24" viewBox="0 0 24 24" fill="none" xmlns="http://www.w3.org/2000/svg">
<g clip-path="url(#clip0_2214_3938)">
<path d="M12 24C18.6274 24 24 18.6274 24 12C24 5.37258 18.6274 0 12 0C5.37258 0 0 5.37258 0 12C0 18.6274 5.37258 24 12 24Z" fill="white"/>
<path d="M24 12.0004C24 6.84086 20.7435 2.44229 16.1739 0.746826V23.2541C20.7435 21.5585 24 17.16 24 12.0004Z" fill="#D80027"/>
<path d="M0 12.0004C0 17.16 3.2565 21.5585 7.82611 23.254V0.746826C3.2565 2.44229 0 6.84086 0 12.0004Z" fill="#D80027"/>
</g>
<defs>
<clipPath id="clip0_2214_3938">
<rect width="24" height="24" fill="white"/>
</clipPath>
</defs>
</svg>
